<svg xmlns="http://www.w3.org/2000/svg" viewBox="0 0 2047.81 2047.81"><defs><style>.a{fill:#fff;}</style></defs><path class="a" d="M0,1061.9v-76C10.7,463.89,464.79,10,986.91,0h74c522.39,10.1,977,464.45,986.91,986.91v75c-10.7,522-464.8,975.92-986.91,985.91h-75C464.38,2037.22,10.75,1583.91,0,1061.9ZM1945.11,1024C1923.88-189.51,122-184.18,102.55,1023.85,124.51,2237.32,1926.39,2232,1945.11,1024Z"/><path class="a" d="M378.53,1009.45c24.17-6.42,47.5-12.55,70.77-18.9,3.73-1,4.47-.38,4.3,3.48-1.5,44-2.53,88.24-1.29,132.26,6.42-14.37,16.85-24.92,29.73-33.39,142.31-73.26,160.35,212.37,21.23,214.7-20.1,4.41-103-3.9-109.35-24q.1-111.74-.09-223.45C393.78,1042.09,390.39,1024.71,378.53,1009.45Zm74.12,194.62q0,31,0,62c0,2.35-.08,4.4,2.39,6,25.73,18.45,65.4,9.21,73-23.31C537.24,1219,544.47,1136.48,508,1124c-19.11-6.18-36.42-2.13-51.94,10.35a9,9,0,0,0-3.46,7.75C452.73,1162.75,452.65,1183.41,452.65,1204.07Z"/><path class="a" d="M1584.88,1303.65H1512.3c6.78-23.12,7.6-46.69,7.86-70.46q0-86.71-.13-173.42c0-18-3.47-35.07-15.13-50.27,23.68-6.46,46.57-12.25,70.07-18.72,4-1.12,5.34-.92,5.22,3.91-2.07,44.71-2.34,88.69-2.11,133.62,2.27-.67,2.12-2.48,2.6-3.62,17.69-52.48,109.94-64.54,121.18-3,7.11,59.11-5.39,120.26,9.09,178.66.41,1.5,2,3.52-1.62,3.51-23.32-.09-46.63-.05-70.25-.05,11.85-49.07,5.12-99.25,6.8-149,0-22.88-8.88-31.47-31.69-30.78-11,.54-34,3.78-36.18,16.84C1579.94,1195.1,1572.73,1250.28,1584.88,1303.65Z"/><path class="a" d="M546,776.6a77,77,0,0,1,98-43.31c24.86,9,29.84,35.69,29.81,59.08,1.71,51.82-5.32,105,7.15,155.81.89,3.07.13,3.53-2.78,3.52-22-.11-44-.07-66-.05-2,0-3.47.32-2.59-2.83,11.08-47.74,4.6-97.34,6.24-145.91C621,754.63,548.05,772,548,788.84c2.09,53.37-5.4,107.91,6.53,160.39.73,2.45-.46,2.42-2.16,2.42-22.49,0-45,0-67.48,0-2.74,0-2.46-1.16-1.93-3,12.05-48.1,5.8-98.24,7.19-147.31C490,781.55,486.59,771,474,750.12q31-9,61.85-17.9c10.11-2.9,10.13-2.83,10.13,7.63Z"/><path class="a" d="M1195.93,908.22c-8.88,23.51-23.42,42.79-49.27,46.74-33.68,7.18-72.85-7.14-78.57-44.39-8.58-56.64,6.79-116.07-11.42-171.44L1107,734c4,.68,17.86-4.75,16.76,1.75-.18,50.31.1,100.62.18,150.92-1.89,38.05,46.85,38.76,68,17.76a9,9,0,0,0,2.8-7c-.09-32.15.11-64.3-.12-96.45-.14-20.87-2-41.56-9.56-61.73,21.38-2.37,41.79-4.2,62.89-6.56,3.75-.49,4.73.39,4.71,4.31,3.26,70-8.5,142.44,7.72,211.06,1.07,3,.51,3.69-2.61,3.67q-29-.16-58,0c-3,0-4-.66-3.94-3.84C1196.06,934.36,1195.9,921.88,1195.93,908.22Z"/><path class="a" d="M723.54,1194.66c15.15-203.66,293.15-103.21,192.93,68.45C857.54,1352.7,717.53,1300.11,723.54,1194.66Zm63.3-.93c.21,24.48.69,50.49,12.83,72.44,11.28,20.06,50.71,23,62.65-2.17,13.49-29.62,11.3-63.25,9.89-94.9-1-26.81-10.52-63.35-43.88-61.26C786,1108.73,788,1163,786.84,1193.73Z"/><path class="a" d="M811.72,918.08c-10.49,37-55.36,47.53-87.19,31.25-29.55-15.7-35.53-57.78-11.66-81.6,19.77-19.44,47.54-25.37,71.59-37.59,27-13.76,27.39-25.78,24.86-49.5-2.45-23-19.11-27.65-37.69-24.37-8,1.42-11.52,7.88-13.59,15.11-5.21,49.17-62.14,39.38-50.36-1.15,15.38-36.9,63.31-43,98.61-40.75,39.73.84,64.88,27.66,62.39,67.32.09,31,0,62,.05,93-2.17,20.36,12.53,32.19,31.68,23.14C899.28,968.29,816.64,971,811.72,918.08Zm-1.56-86.7c-9.24,11.61-20.93,14.43-32.65,21.35-34.94,17-25.71,85.73,19.32,69.33,8.83-2.67,13.33-9.5,13.33-18.65C810.15,879.19,810.16,855.69,810.16,831.38Z"/><path class="a" d="M1554.29,831.83c-19.66,0-39.33.15-59-.12-4.37-.06-5.17,1.3-5,5.28-.71,32,12.46,68.88,47.82,74.51,27.56,5.76,56.23.63,76.74-20.27,3.77-3.68,3.51,3.46,2.34,5.41-18.87,69.44-115.17,78.06-159,27.67-34.35-40.11-32.46-102.45-7.49-147.06,29.56-50,86.09-56.67,122.84-41.1,35.84,15,44.22,56.92,44.65,91.93,0,3.18-1,3.84-4,3.82C1594.28,831.76,1574.28,831.83,1554.29,831.83Zm8.93-31.86c-.82-17.59-4.14-43-26.29-44.15-15.12-1.09-26.55,4.95-34.18,18-7.23,12.34-9.63,26.09-11.19,40.06-.4,3.59,1.78,2.73,3.7,2.56l58.21-5.24C1563.88,810.22,1563.88,810.21,1563.22,800Z"/><path class="a" d="M1291,1241.74c1.76,2.4,1.5,4.38.88,6.55-15.27,58.87-88.71,75.75-137.18,46.42-55.11-32.47-59.32-111.37-30.62-163.22,41.15-71.5,144.46-67.25,163,6,3.85,13.55,5,27.45,5.61,41.45.2,4.12-.94,5.24-5.12,5.23-39.14-.17-78.29,0-117.43-.21-4.32,0-5.66.83-5.49,5.38-1.52,37.93,19.21,76.69,61.17,76.42C1250.69,1266.66,1273.08,1260.93,1291,1241.74ZM1237.85,1155c-1.12-17.59-2.55-43-24.16-46.67-15.86-2.67-30,4.76-38,20.35-6.06,11.72-8.17,24.49-9.77,37.4-.51,4.09,2.33,2.77,4.13,2.61,20.2-1.78,40.39-3.66,60.58-5.49C1238.08,1162.48,1238.09,1162.51,1237.85,1155Z"/><path class="a" d="M1491.42,1246.08c-9.64,73.87-120.43,83-157.88,24.29-50.48-73.37-2.28-200.42,96.29-188.92,29.85-.37,70.51,22.72,58,56.6-3.66,9.73-11.92,15-24,15.42-16,1.39-24.33-14-25.68-28.06-1.75-14.2-5.87-20-25.35-18-15.24,1.52-24.69,11.4-31,24.54-13.28,30.79-13.88,67.53-2.57,99C1396.64,1276.3,1459,1271.71,1491.42,1246.08Z"/><path class="a" d="M1032.61,1035.17c2,14.71.24,30.62.62,45.73-.07,4,.73,5.37,5.06,5.28,15.49-.29,31,0,46.48-.16,3.07,0,4.45.14,3.51,4a190,190,0,0,0-4,22.08c-.52,4.24-2.37,4.86-6.13,4.8-13.49-.23-27,0-40.48-.18-3.48,0-4.4.86-4.38,4.38,1.08,42.06-1.87,84.45,1.32,126.35,5.62,26.85,39.93,22.18,59.74,14.09-1.73,60.32-105.49,64.43-116.45,7.67C972,1221,977,1171.6,975.56,1123c1.29-10.66-11.66-4.54-18-6.19-3.66,1-4.63-1.8-1.58-3.76C981.63,1087.35,1006.31,1059.77,1032.61,1035.17Z"/><path class="a" d="M1044.75,909.52c.39,58.61-105,64.68-115.84,8.22-6.46-48.18-1-97.63-2.7-146.24,0-6.92,0-6.92-6.66-6.92-3.33,0-6.67.11-10-.05-4.45,1.05-6.5-1.31-2.09-4.35q14.6-15.09,29.25-30.12,21.45-22,43-43.95c2.51-4.28,5.6-3.94,4.42,1.59.08,14,.18,28,0,42-.06,3.6,1.05,4.38,4.46,4.34,15.83-.18,31.66,0,47.49-.15,3.26,0,3.87.65,3.14,3.89-1.68,7.47-3,15-4.13,22.59-.49,3.34-1.71,4.35-5.09,4.3-13.83-.19-27.66.05-41.49-.17-3.55,0-4.38,1-4.37,4.45,1.13,42-2,84.5,1.38,126.36C990.85,922,1025.42,917.42,1044.75,909.52Z"/><path class="a" d="M1272.06,750.19c22.91-6.75,45.12-13,67.75-19.71,3.32-1.06,4.27-.53,4.23,3.12-.17,16.63-.07,33.26-.07,50,1.91-.48,1.55-2.07,1.86-3.22,6-30.82,32.76-61.24,66.53-49.42,40.4,14,10.73,81.92-26.87,51.21-6.65-5.87-13.86-16-22.84-7.77-27,22.22-14.81,108.05-14.73,143A192.38,192.38,0,0,0,1352.7,948c.72,2.85.19,3.72-2.9,3.7q-33-.18-66,0c-2.9,0-3.3-.79-2.53-3.46,12-49.16,6.14-100.61,7-150.76C1287.91,780.23,1282.87,764.44,1272.06,750.19Z"/><path class="a" d="M698.85,1303.83c-24.16,0-48,0-71.76.05-2.7,0-2.54-1.18-2-3,12-46.45,5.54-94.82,7.29-142.21.22-20.31-3.47-39.35-16.47-56.29,24.44-6.82,48.14-12.9,72.31-19.71,3.83-1.17,4.43-.34,4.26,3.43C692.59,1158.4,683.53,1232.65,698.85,1303.83Z"/><path class="a" d="M624.67,1034.17c-.81-45.83,71.6-45.09,70.24.6C695.55,1079.58,623.48,1080.15,624.67,1034.17Z"/></svg>