<?xml version="1.0" encoding="utf-8"?>
<!-- Generator: Adobe Illustrator 27.2.0, SVG Export Plug-In . SVG Version: 6.00 Build 0)  -->
<svg version="1.1" id="Layer_1" xmlns="http://www.w3.org/2000/svg" xmlns:xlink="http://www.w3.org/1999/xlink" x="0px" y="0px"
	 viewBox="0 0 300 85.71" style="enable-background:new 0 0 300 85.71;" xml:space="preserve">
<style type="text/css">
	.st0{fill-rule:evenodd;clip-rule:evenodd;fill:#321962;}
</style>
<path class="st0" d="M191.29,20.2c-3.36-1.95-7.27-3.06-11.43-3.06c-12.62,0-22.86,10.24-22.86,22.86
	c0,12.62,10.24,22.86,22.86,22.86c4.16,0,8.07-1.11,11.43-3.06v3.06c0,6.31-5.12,11.43-11.43,11.43c-6.31,0-11.43-5.12-11.43-11.43
	h-11.43c0,12.62,10.23,22.86,22.86,22.86c12.62,0,22.86-10.23,22.86-22.86V17.14h-11.43V20.2L191.29,20.2z M271.29,62.86V37.14
	c0-4.73,3.84-8.57,8.57-8.57c4.73,0,8.57,3.84,8.57,8.57v25.71h11.43V37.14c0-11.05-8.96-20-20-20c-11.05,0-20,8.95-20,20v25.71
	H271.29L271.29,62.86z M77.01,62.86V34.29c0-1.52,0.6-2.97,1.67-4.04c0,0,0,0,0,0c1.07-1.07,2.53-1.67,4.04-1.67
	c3.15,0,5.71,0,5.71,0V17.14c0,0-2.57,0-5.71,0c-4.55,0-8.91,1.81-12.12,5.02c-3.22,3.22-5.02,7.58-5.02,12.12v28.57H77.01
	L77.01,62.86z M134.15,62.86V0h-11.43v20.2c-3.36-1.95-7.27-3.06-11.43-3.06c-12.62,0-22.86,10.24-22.86,22.86
	c0,12.62,10.24,22.86,22.86,22.86c4.16,0,8.07-1.11,11.43-3.06v3.06H134.15L134.15,62.86z M16.89,51.43l-4.68,11.43H-0.14L25.58,0
	h11.43l25.71,62.86H50.37L45.7,51.43H16.89L16.89,51.43z M220.58,44c1.62,4.34,5.81,7.43,10.71,7.43c2.9,0,5.54-1.08,7.56-2.86
	h13.64c-3.39,8.37-11.61,14.29-21.19,14.29c-12.62,0-22.86-10.24-22.86-22.86c0-12.62,10.24-22.86,22.86-22.86
	c12.62,0,22.86,10.24,22.86,22.86c0,1.37-0.12,2.7-0.35,4H220.58L220.58,44z M151.29,62.86V17.14h-11.43v45.71H151.29L151.29,62.86z
	 M122.72,40c0,6.31-5.12,11.43-11.43,11.43c-6.31,0-11.43-5.12-11.43-11.43c0-6.31,5.12-11.43,11.43-11.43
	C117.6,28.57,122.72,33.69,122.72,40L122.72,40z M179.86,28.57c6.31,0,11.43,5.12,11.43,11.43c0,6.31-5.12,11.43-11.43,11.43
	c-6.31,0-11.43-5.12-11.43-11.43C168.43,33.69,173.56,28.57,179.86,28.57L179.86,28.57z M21.56,40h19.46l-9.73-23.78L21.56,40
	L21.56,40z M242,36h-21.42c1.62-4.34,5.81-7.43,10.71-7.43C236.19,28.57,240.38,31.66,242,36L242,36z M151.29,0h-11.43v11.43h11.43
	V0L151.29,0z"/>
</svg>
