<?xml version="1.0" encoding="UTF-8" standalone="no"?>
<svg
   xmlns:dc="http://purl.org/dc/elements/1.1/"
   xmlns:cc="http://creativecommons.org/ns#"
   xmlns:rdf="http://www.w3.org/1999/02/22-rdf-syntax-ns#"
   xmlns:svg="http://www.w3.org/2000/svg"
   xmlns="http://www.w3.org/2000/svg"
   viewBox="0 0 793.70667 561.25336"
   height="561.25336"
   width="793.70667"
   xml:space="preserve"
   id="svg2"
   version="1.1"><metadata
     id="metadata8"><rdf:RDF><cc:Work
         rdf:about=""><dc:format>image/svg+xml</dc:format><dc:type
           rdf:resource="http://purl.org/dc/dcmitype/StillImage" /></cc:Work></rdf:RDF></metadata><defs
     id="defs6" /><g
     transform="matrix(1.3333333,0,0,-1.3333333,0,561.25333)"
     id="g10"><g
       transform="scale(0.1)"
       id="g12"><path
         id="path14"
         style="fill:#231f20;fill-opacity:1;fill-rule:nonzero;stroke:none"
         d="m 1757.73,1146.89 h -3.2 c -13.15,0 -22.25,-3.81 -31.63,-8.87 -5.62,-3.2 -7.24,-3.77 -12.58,-6.93 -2.96,-1.9 -4.29,-4.08 -4.29,-6.74 0,-1.35 0.26,-2.97 1.06,-4.3 l 0.81,-1.32 c 1.88,-3.25 4.28,-4.01 6.43,-4.01 1.61,0 3.21,0.51 4.55,1.31 l 11.25,6.72 c 7.49,4.55 15.01,7.48 24.4,7.48 h 3.2 c 15.01,0 26.8,-11.76 26.8,-26.78 v -13.14 c 0,-2.95 -2.15,-5.61 -5.09,-5.61 h -39.67 c -22.75,0 -41.78,-18.22 -41.78,-41.01 v -4.24 c 0,-22.79 19.03,-41.02 41.78,-41.02 h 5.89 c 12.61,0 23.32,5.9 28.42,8.85 l 9.65,5.63 c 0.8,0.25 1.32,0.82 2.4,0.82 1.34,0 2.14,-0.82 2.14,-2.45 v -2.36 c 0,-4.06 2.95,-7.01 6.96,-7.01 4.03,0 6.98,2.95 6.98,7.01 v 93.73 c 0,24.92 -19.83,44.24 -44.48,44.24 m 23.05,-118.18 -12.05,-6.7 c -7.77,-4.26 -14.2,-6.98 -23.07,-6.98 h -5.89 c -13.11,0 -24.11,11.55 -24.11,24.42 v 4.24 c 0,12.89 11,24.41 24.11,24.41 h 39.67 c 2.94,0 5.09,-2.44 5.09,-5.37 v -27.32 c 0,-2.93 0.26,-4.55 -3.75,-6.7" /><path
         id="path16"
         style="fill:#231f20;fill-opacity:1;fill-rule:nonzero;stroke:none"
         d="m 1903.83,1146.89 c -13.14,0 -23.84,-5.92 -28.95,-9.12 l -8.55,-5.37 c -1.33,-0.8 -2.16,-0.8 -2.41,-0.8 -1.62,0 -2.43,0.8 -2.43,2.42 v 2.11 c 0,4.02 -3.21,7.24 -7.23,7.24 -4.01,0 -6.97,-3.22 -6.97,-7.24 V 1009.7 c 0,-4.06 3.5,-7.79 7.78,-7.79 h 2.14 c 4.28,0 7.79,3.73 7.79,7.79 v 99.92 c 0,2.93 -0.3,4.3 3.73,6.68 4.01,2.43 6.96,3.75 12.06,6.7 7.76,4.01 14.19,7.23 23.04,7.23 4.28,0 7.78,3.52 7.78,7.79 v 1.08 c 0,3.98 -3.5,7.79 -7.78,7.79" /><path
         id="path18"
         style="fill:#231f20;fill-opacity:1;fill-rule:nonzero;stroke:none"
         d="m 3161.09,1142.32 -1.33,0.55 c -1.06,0.21 -2.15,0.5 -3.22,0.5 -4.03,0 -5.63,-2.14 -6.71,-5.07 l -39.91,-123.28 c -0.82,-1.86 -1.36,-3.72 -3.49,-3.72 -2.14,0 -2.68,1.86 -3.47,3.72 l -39.93,123.28 c -1.08,2.93 -2.68,5.07 -6.71,5.07 -1.07,0 -2.14,-0.29 -3.2,-0.5 l -1.34,-0.55 c -3.48,-1.33 -5.09,-4.3 -5.09,-7.25 0,-0.82 0.25,-1.6 0.54,-2.67 l 37.5,-114.44 c 2.94,-8.26 7.23,-16.05 16.08,-16.05 2.4,0 3.72,-1.07 3.72,-2.949 0,-0.289 -0.24,-1.051 -0.5,-2.172 l -4.31,-11.207 c -4,-10.992 -13.37,-18.492 -25.46,-18.492 h -17.66 c -4.3,0 -7.77,-3.481 -7.77,-7.801 v -1.027 c 0,-4.321 3.47,-7.801 7.77,-7.801 h 17.66 c 21.74,0 37.26,16.098 43.68,35.398 l 47.71,146.541 c 0.27,1.07 0.54,1.85 0.54,2.67 0,2.95 -1.62,5.92 -5.1,7.25" /><path
         id="path20"
         style="fill:#231f20;fill-opacity:1;fill-rule:nonzero;stroke:none"
         d="m 1666.54,1016.66 h -2.42 c -15.02,0 -27.05,12.03 -27.05,26.77 v 150.08 c 0,4.24 -3.5,7.74 -7.78,7.74 h -2.15 c -4.01,0 -7.76,-3.5 -7.76,-7.74 v -149.26 c 0,-24.94 19.82,-44.22 44.74,-44.22 h 2.42 c 4.29,0 7.77,3.48 7.77,7.8 v 1.07 c 0,4.26 -3.48,7.76 -7.77,7.76" /><path
         id="path22"
         style="fill:#231f20;fill-opacity:1;fill-rule:nonzero;stroke:none"
         d="m 903.801,1187.32 h -5.367 c -4.289,0 -7.493,-1.89 -9.641,-5.39 l -47.156,-75.27 c -4.289,-6.68 -3.75,-8.54 -6.688,-8.54 -2.953,0 -2.414,1.86 -6.703,8.54 l -47.156,75.27 c -2.149,3.5 -5.352,5.39 -9.641,5.39 h -5.363 c -4.273,0 -7.77,-3.5 -7.77,-7.79 V 1009.7 c 0,-4.29 3.497,-7.81 7.77,-7.81 h 2.137 c 4.289,0 7.761,3.52 7.761,7.81 v 125.9 c 0,10.45 -0.523,13.38 -0.523,15.8 0,2.7 0.805,4.03 2.414,4.03 2.938,0 4.016,-5.1 11.25,-16.61 l 28.133,-44.72 c 4.027,-5.1 7.512,-9.69 13.937,-9.69 h 7.504 c 6.434,0 9.914,4.59 13.93,9.69 l 28.133,44.72 c 7.23,11.51 8.297,16.61 11.246,16.61 1.609,0 2.418,-1.33 2.418,-4.03 0,-2.42 -0.531,-5.35 -0.531,-15.8 v -125.9 c 0,-4.29 3.476,-7.81 7.765,-7.81 h 2.141 c 4.285,0 7.765,3.52 7.765,7.81 v 169.83 c 0,4.29 -3.48,7.79 -7.765,7.79" /><path
         id="path24"
         style="fill:#231f20;fill-opacity:1;fill-rule:nonzero;stroke:none"
         d="m 1148.99,1016.66 h -2.4 c -15.03,0 -27.09,12.03 -27.09,26.77 v 150.08 c 0,4.24 -3.47,7.74 -7.76,7.74 h -2.15 c -4,0 -7.76,-3.5 -7.76,-7.74 v -149.26 c 0,-24.94 19.82,-44.22 44.76,-44.22 h 2.4 c 4.29,0 7.77,3.48 7.77,7.8 v 1.07 c 0,4.26 -3.48,7.76 -7.77,7.76" /><path
         id="path26"
         style="fill:#231f20;fill-opacity:1;fill-rule:nonzero;stroke:none"
         d="m 1234.5,1146.89 c -25.72,0 -48.23,-17.44 -54.64,-41.82 -1.35,-4.57 -2.15,-10.72 -2.15,-26.54 v -11.8 c 0,-15.8 0.8,-21.95 2.15,-26.5 6.41,-24.37 28.92,-41.8 54.64,-41.8 13.13,0 22.24,3.75 31.61,8.85 6.18,3.2 8.85,4.81 14.22,8.05 2.93,1.85 4.28,4 4.28,6.68 0,1.33 -0.29,2.95 -1.08,4.27 l -0.81,1.35 c -1.88,3.23 -4.28,4.03 -6.42,4.03 -1.61,0 -3.23,-0.55 -4.55,-1.35 l -12.85,-7.76 c -7.51,-4.57 -15.01,-7.52 -24.4,-7.52 -21.43,0 -38.85,17.45 -38.85,38.85 v 8.85 c 0,2.93 2.42,5.37 5.37,5.37 h 84.66 c 2.95,0 5.35,2.42 5.35,5.37 v 17.13 c 0,31.09 -25.45,56.29 -56.53,56.29 m 38.85,-56.84 c 0,-2.91 -2.4,-5.35 -5.35,-5.35 h -66.98 c -2.95,0 -5.37,2.44 -5.37,5.35 v 1.33 c 0,21.47 17.42,38.85 38.85,38.85 21.44,0 38.85,-17.38 38.85,-38.85 v -1.33" /><path
         id="path28"
         style="fill:#231f20;fill-opacity:1;fill-rule:nonzero;stroke:none"
         d="m 1342.29,1100.5 c 4.29,17.17 19.29,29.73 37.77,29.73 9.39,0 16.89,-2.93 24.4,-7.48 l 11.25,-6.72 c 1.34,-0.8 2.94,-1.31 4.54,-1.31 2.14,0 4.56,0.78 6.44,4.03 l 0.8,1.32 c 0.8,1.33 1.07,2.93 1.07,4.26 0,2.7 -1.33,4.85 -4.28,6.74 -4.82,3.48 -6.99,4.28 -12.59,6.95 -9.38,5.06 -18.5,8.87 -31.63,8.87 -25.71,0 -48.21,-17.44 -54.65,-41.82 -1.34,-4.57 -2.15,-10.72 -2.15,-26.54 v -11.8 c 0,-15.8 0.81,-21.95 2.15,-26.5 6.44,-24.37 28.94,-41.781 54.65,-41.781 13.13,0 22.25,3.711 31.63,8.831 5.36,3.5 7.49,4.02 12.59,6.95 2.95,1.88 4.28,4.03 4.28,6.68 0,1.37 -0.27,2.97 -1.07,4.3 l -0.8,1.37 c -1.88,3.16 -4.3,4.02 -6.44,4.02 -1.6,0 -3.2,-0.55 -4.54,-1.35 l -11.25,-6.68 c -7.51,-4.59 -15.01,-7.55 -24.4,-7.55 -18.48,0 -33.48,12.63 -37.77,29.76 -0.81,2.93 -1.33,7.23 -1.33,21.17 v 13.42 c 0,13.93 0.52,18.18 1.33,21.13" /><path
         id="path30"
         style="fill:#231f20;fill-opacity:1;fill-rule:nonzero;stroke:none"
         d="m 3005.56,1143.37 c -4.02,0 -7.24,-3.24 -7.24,-7.24 v -2.11 c 0,-1.62 -0.8,-2.42 -2.4,-2.42 -0.28,0 -1.08,0 -2.41,0.8 l -8.57,5.35 c -5.1,3.24 -15.82,9.14 -28.94,9.14 -25.74,0 -48.25,-17.44 -54.67,-41.84 -1.34,-4.55 -2.13,-10.72 -2.13,-26.52 v -11.8 c 0,-15.8 0.79,-21.95 2.13,-26.48 6.42,-24.39 28.93,-41.82 54.67,-41.82 12.05,0 19.57,3.73 27.86,8.05 l 6.98,3.73 c 0.78,0.27 1.33,0.57 1.87,0.57 1.33,0 2.13,-1.08 2.13,-2.95 v -13.689 c 0,-15 -12.05,-27.051 -26.79,-27.051 h -25.73 c -4.27,0 -8.03,-3.5 -8.03,-7.801 v -1.051 c 0,-4.008 3.76,-7.777 8.03,-7.777 h 25.73 c 24.66,0 44.5,19.57 44.5,44.219 v 141.45 c 0,4 -2.98,7.24 -6.99,7.24 m -14.47,-114.39 c -4.01,-2.4 -6.96,-3.77 -12.05,-6.7 -7.79,-4.02 -14.22,-7.26 -23.04,-7.26 -18.5,0 -33.49,12.63 -37.79,29.76 -0.8,2.95 -1.33,7.23 -1.33,21.17 v 13.42 c 0,13.93 0.53,18.2 1.33,21.13 4.3,17.17 19.29,29.75 37.79,29.75 8.82,0 15.25,-3.22 23.04,-7.25 5.09,-2.95 8.04,-4.27 12.05,-6.7 4.02,-2.4 3.75,-3.75 3.75,-6.69 v -73.95 c 0,-2.97 0.27,-4.28 -3.75,-6.68" /><path
         id="path32"
         style="fill:#231f20;fill-opacity:1;fill-rule:nonzero;stroke:none"
         d="m 1007.57,1146.89 c -25.707,0 -48.199,-17.44 -54.644,-41.82 -1.321,-4.57 -2.149,-10.72 -2.149,-26.54 v -11.8 c 0,-15.8 0.828,-21.95 2.149,-26.5 6.445,-24.37 28.937,-41.8 54.644,-41.8 25.74,0 48.24,17.43 54.66,41.8 1.34,4.55 2.15,10.7 2.15,26.5 v 11.8 c 0,15.82 -0.81,21.97 -2.15,26.54 -6.42,24.38 -28.92,41.82 -54.66,41.82 m 39.13,-80.92 c 0,-13.96 -0.53,-18.26 -1.33,-21.19 -4.3,-17.15 -19.3,-29.75 -37.8,-29.75 -18.476,0 -33.472,12.6 -37.761,29.75 -0.809,2.93 -1.336,7.23 -1.336,21.19 v 13.4 c 0,13.91 0.527,18.2 1.336,21.13 4.289,17.17 19.285,29.73 37.761,29.73 18.5,0 33.5,-12.56 37.8,-29.73 0.8,-2.93 1.33,-7.22 1.33,-21.13 v -13.4" /><path
         id="path34"
         style="fill:#231f20;fill-opacity:1;fill-rule:nonzero;stroke:none"
         d="m 1566.52,1143.37 h -2.14 c -4.3,0 -7.78,-3.75 -7.78,-7.77 v -99.94 c 0,-2.97 0.27,-4.28 -3.76,-6.68 l -12.05,-6.97 c -7.49,-4.05 -13.67,-6.99 -22.22,-6.99 -17.16,0 -31.89,9.39 -36.19,28.69 -0.8,2.95 -1.34,6.97 -1.34,20.6 v 71.29 c 0,4.32 -3.48,7.77 -7.76,7.77 h -2.14 c -4.29,0 -7.77,-3.45 -7.77,-7.77 v -70.45 c 0,-15.29 1.33,-21.97 2.42,-26.56 5.61,-23.57 26.24,-40.16 51.96,-40.16 12.06,0 23.85,6.43 28.67,9.12 l 8.84,5.36 c 1.34,0.8 2.15,0.8 2.4,0.8 1.61,0 2.42,-0.8 2.42,-2.43 v -2.16 c 0,-4.01 3.22,-7.23 7.24,-7.23 4.02,0 6.97,3.22 6.97,7.23 v 126.48 c 0,4.02 -3.48,7.77 -7.77,7.77" /><path
         id="path36"
         style="fill:#231f20;fill-opacity:1;fill-rule:nonzero;stroke:none"
         d="m 2723.36,1016.66 h -2.42 c -15,0 -27.05,12.03 -27.05,26.77 v 150.08 c 0,4.24 -3.48,7.74 -7.79,7.74 h -2.14 c -4.01,0 -7.76,-3.5 -7.76,-7.74 v -149.26 c 0,-24.94 19.84,-44.22 44.74,-44.22 h 2.42 c 4.29,0 7.76,3.48 7.76,7.8 v 1.07 c 0,4.26 -3.47,7.76 -7.76,7.76" /><path
         id="path38"
         style="fill:#231f20;fill-opacity:1;fill-rule:nonzero;stroke:none"
         d="m 2196.73,1146.89 h -3.2 c -13.13,0 -22.25,-3.81 -31.63,-8.87 -5.63,-3.2 -7.24,-3.77 -12.6,-6.93 -2.94,-1.9 -4.28,-4.08 -4.28,-6.74 0,-1.35 0.26,-2.97 1.06,-4.3 l 0.81,-1.32 c 1.87,-3.25 4.3,-4.01 6.44,-4.01 1.61,0 3.2,0.51 4.56,1.31 l 11.24,6.72 c 7.49,4.55 15.02,7.48 24.4,7.48 h 3.2 c 15,0 26.78,-11.76 26.78,-26.78 v -13.14 c 0,-2.95 -2.14,-5.61 -5.07,-5.61 h -39.67 c -22.77,0 -41.79,-18.22 -41.79,-41.01 v -4.24 c 0,-22.79 19.02,-41.02 41.79,-41.02 h 5.91 c 12.59,0 23.3,5.9 28.39,8.85 l 9.64,5.63 c 0.8,0.25 1.35,0.82 2.42,0.82 1.33,0 2.14,-0.82 2.14,-2.45 v -2.36 c 0,-4.06 2.94,-7.01 6.96,-7.01 4.03,0 6.98,2.95 6.98,7.01 v 93.73 c 0,24.92 -19.84,44.24 -44.48,44.24 m 23.05,-118.18 -12.07,-6.7 c -7.75,-4.26 -14.18,-6.98 -23.03,-6.98 h -5.91 c -13.12,0 -24.11,11.55 -24.11,24.42 v 4.24 c 0,12.89 10.99,24.41 24.11,24.41 h 39.67 c 2.93,0 5.07,-2.44 5.07,-5.37 v -27.32 c 0,-2.93 0.28,-4.55 -3.73,-6.7" /><path
         id="path40"
         style="fill:#231f20;fill-opacity:1;fill-rule:nonzero;stroke:none"
         d="m 2430.11,1146.89 c -12.05,0 -19.55,-3.81 -27.84,-8.07 l -7,-3.75 c -0.81,-0.25 -1.33,-0.52 -1.87,-0.52 -1.33,0 -2.14,1.05 -2.14,2.95 v 56.01 c 0,4.24 -3.49,7.74 -7.76,7.74 h -2.15 c -4.28,0 -7.77,-3.5 -7.77,-7.74 V 1009.7 c 0,-4.31 3.49,-7.79 7.77,-7.79 h 2.15 c 4.27,0 7.76,3.48 7.76,7.79 v 99.92 c 0,2.93 -0.27,4.3 3.75,6.68 4.03,2.43 6.97,3.75 12.07,6.7 7.77,4.01 14.19,7.23 23.03,7.23 18.5,0 33.49,-12.56 37.78,-29.73 0.81,-2.93 1.34,-7.22 1.34,-21.13 v -69.67 c 0,-4.31 3.49,-7.79 7.77,-7.79 h 2.16 c 4.26,0 7.76,3.48 7.76,7.79 v 68.83 c 0,15.82 -0.81,21.97 -2.16,26.54 -6.43,24.38 -28.93,41.82 -54.65,41.82" /><path
         id="path42"
         style="fill:#231f20;fill-opacity:1;fill-rule:nonzero;stroke:none"
         d="m 2581.37,1146.89 c -25.74,0 -48.24,-17.44 -54.68,-41.82 -1.33,-4.57 -2.14,-10.72 -2.14,-26.54 v -11.8 c 0,-15.8 0.81,-21.95 2.14,-26.5 6.44,-24.37 28.94,-41.8 54.68,-41.8 25.71,0 48.22,17.43 54.65,41.8 1.34,4.55 2.15,10.7 2.15,26.5 v 11.8 c 0,15.82 -0.81,21.97 -2.15,26.54 -6.43,24.38 -28.94,41.82 -54.65,41.82 m 39.12,-80.92 c 0,-13.96 -0.55,-18.26 -1.35,-21.19 -4.29,-17.15 -19.31,-29.75 -37.77,-29.75 -18.5,0 -33.5,12.6 -37.79,29.75 -0.8,2.93 -1.34,7.23 -1.34,21.19 v 13.4 c 0,13.91 0.54,18.2 1.34,21.13 4.29,17.17 19.29,29.73 37.79,29.73 18.46,0 33.48,-12.56 37.77,-29.73 0.8,-2.93 1.35,-7.22 1.35,-21.13 v -13.4" /><path
         id="path44"
         style="fill:#231f20;fill-opacity:1;fill-rule:nonzero;stroke:none"
         d="m 2331.8,1143.37 h -24.12 c -2.96,0 -5.37,2.45 -5.37,5.4 v 28.08 c 0,2.95 -1.88,5.39 -4.81,5.39 -2.96,0 -4.83,-1.89 -5.63,-4.82 l -7.51,-30.04 c -0.79,-2.11 -2.15,-4.01 -5.08,-4.01 -4.28,0 -7.78,-3.45 -7.78,-7.77 v -1.05 c 0,-4.3 3.5,-7.8 7.78,-7.8 2.93,0 5.35,-2.4 5.35,-5.37 v -77.13 c 0,-24.94 19.82,-44.22 44.48,-44.22 h 2.69 c 4.28,0 7.76,3.48 7.76,7.8 v 1.07 c 0,4.26 -3.48,7.76 -7.76,7.76 h -2.69 c -15.01,0 -26.8,11.77 -26.8,26.77 v 77.95 c 0,2.97 2.41,5.37 5.37,5.37 h 24.12 c 4.28,0 7.76,3.5 7.76,7.8 v 1.05 c 0,4.32 -3.48,7.77 -7.76,7.77" /><path
         id="path46"
         style="fill:#231f20;fill-opacity:1;fill-rule:nonzero;stroke:none"
         d="m 2057.34,1187.32 h -62.16 c -2.95,0 -5.11,-2.13 -5.11,-5.08 V 1009.7 c 0,-4.29 3.75,-7.81 7.78,-7.81 h 2.14 c 4.29,0 7.77,3.52 7.77,7.81 v 50.35 c 0,4.03 3.76,8.05 7.79,8.05 h 41.79 c 33.21,0 60.28,26.51 60.28,59.47 0,33.21 -27.07,59.75 -60.28,59.75 m 42.59,-60.29 c 0,-23.3 -19.29,-42.33 -42.59,-42.33 h -41.79 c -4.03,0 -7.79,3.5 -7.79,7.78 v 70.45 c 0,4.29 3.76,7.77 7.79,7.77 h 41.79 c 23.3,0 42.59,-19.01 42.59,-42.6 v -1.07" /><path
         id="path48"
         style="fill:#231f20;fill-opacity:1;fill-rule:nonzero;stroke:none"
         d="m 2808.87,1146.89 c -25.71,0 -48.22,-17.44 -54.66,-41.82 -1.33,-4.57 -2.13,-10.72 -2.13,-26.54 v -11.8 c 0,-15.8 0.8,-21.95 2.13,-26.5 6.44,-24.37 28.95,-41.8 54.66,-41.8 25.72,0 48.23,17.43 54.66,41.8 1.34,4.55 2.14,10.7 2.14,26.5 v 11.8 c 0,15.82 -0.8,21.97 -2.14,26.54 -6.43,24.38 -28.94,41.82 -54.66,41.82 m 39.13,-80.92 c 0,-13.96 -0.53,-18.26 -1.35,-21.19 -4.28,-17.15 -19.3,-29.75 -37.78,-29.75 -18.48,0 -33.5,12.6 -37.78,29.75 -0.81,2.93 -1.33,7.23 -1.33,21.19 v 13.4 c 0,13.91 0.52,18.2 1.33,21.13 4.28,17.17 19.3,29.73 37.78,29.73 18.48,0 33.5,-12.56 37.78,-29.73 0.82,-2.93 1.35,-7.22 1.35,-21.13 v -13.4" /><path
         id="path50"
         style="fill:#231f20;fill-opacity:1;fill-rule:nonzero;stroke:none"
         d="m 2160.36,1368.63 c 2.95,-1.35 7.24,-2.7 12.6,-4.01 l 21.16,-4.57 c 6.15,-1.34 9.9,-2.38 12.84,-3.73 8.84,-4.31 13.13,-11.27 13.13,-21.17 0,-17.67 -15,-23.32 -29.72,-23.32 -4.02,0 -9.66,-0.25 -21.16,2.68 l -15.55,3.45 c -2.42,0.55 -3.76,0.82 -4.56,0.82 -3.74,0 -6.18,-1.85 -7.24,-5.89 -0.8,-2.11 -0.53,-3.21 -0.53,-3.99 0,-3.49 1.87,-5.9 5.88,-6.97 4.56,-1.07 9.12,-2.4 13.15,-3.22 2.14,-0.55 4.29,-1.06 6.43,-1.35 8.3,-1.9 17.41,-2.13 23.58,-2.13 24.37,0 47.43,12.58 47.43,40.47 0,16.31 -9.38,31.03 -24.12,36.68 -2.95,1.05 -6.98,2.67 -16.61,4.82 l -17.95,3.77 c -7.51,1.86 -9.91,2.93 -11.8,3.73 -7.49,4.03 -12.6,11.25 -12.6,19.83 0,12.59 9.93,22.52 29.48,22.52 5.08,0 12.32,-0.57 31.35,-4.85 2.4,-0.51 4.02,-0.82 4.54,-0.82 4.03,0 6.44,1.9 7.25,5.92 0.8,2.13 0.53,3.2 0.53,4 0,3.5 -1.86,5.9 -5.88,7 -4.57,1.34 -8.05,1.62 -10.47,2.4 l -3.74,0.8 c -8.31,1.89 -17.41,2.15 -23.58,2.15 -28.67,0 -47.15,-16.88 -47.15,-39.38 0,-15.86 8.31,-28.94 23.31,-35.64" /><path
         id="path52"
         style="fill:#231f20;fill-opacity:1;fill-rule:nonzero;stroke:none"
         d="m 2423.91,1423.55 c 2.95,0 5.36,-2.4 5.36,-5.35 v -77.17 c 0,-24.92 19.82,-44.2 44.48,-44.2 h 2.67 c 4.27,0 7.77,3.48 7.77,7.78 v 1.07 c 0,4.28 -3.5,7.77 -7.77,7.77 h -2.67 c -15.01,0 -26.8,11.78 -26.8,26.78 v 77.97 c 0,2.95 2.4,5.35 5.35,5.35 h 24.12 c 4.27,0 7.77,3.5 7.77,7.77 v 1.06 c 0,4.31 -3.5,7.77 -7.77,7.77 h -24.12 c -2.95,0 -5.35,2.44 -5.35,5.37 v 28.15 c 0,2.93 -1.87,5.35 -4.82,5.35 -2.95,0 -4.84,-1.9 -5.62,-4.84 l -7.51,-30 c -0.81,-2.15 -2.14,-4.03 -5.09,-4.03 -4.3,0 -7.79,-3.46 -7.79,-7.77 v -1.06 c 0,-4.27 3.49,-7.77 7.79,-7.77" /><path
         id="path54"
         style="fill:#231f20;fill-opacity:1;fill-rule:nonzero;stroke:none"
         d="m 1497.43,1298.71 h 2.15 c 4.28,0 7.76,3.75 7.76,7.77 v 99.96 c 0,2.93 -0.26,4.24 3.77,6.68 4.01,2.38 6.97,3.73 12.05,6.7 7.77,4.02 14.2,7.23 23.03,7.23 4.3,0 7.77,3.47 7.77,7.77 v 1.05 c 0,4.05 -3.47,7.78 -7.77,7.78 -13.12,0 -23.84,-5.9 -28.92,-9.1 l -8.59,-5.37 c -1.34,-0.82 -2.15,-0.82 -2.43,-0.82 -1.58,0 -2.39,0.82 -2.39,2.42 v 2.15 c 0,4.04 -3.22,7.22 -7.23,7.22 -4.02,0 -6.97,-3.18 -6.97,-7.22 v -126.45 c 0,-4.02 3.48,-7.77 7.77,-7.77" /><path
         id="path56"
         style="fill:#231f20;fill-opacity:1;fill-rule:nonzero;stroke:none"
         d="m 766.09,1298.71 h 2.14 c 4.29,0 7.766,3.47 7.766,7.77 v 50.61 c 0,4.29 3.754,7.77 7.766,7.77 h 32.437 c 2.68,0 4.817,-1.29 6.688,-4.02 l 42.07,-58.13 c 1.609,-2.69 4.012,-4 6.961,-4 h 0.809 c 4.285,0 7.761,3.47 7.761,7.77 0,1.58 -0.527,3.2 -1.867,5.1 l -36.449,49.8 c -0.805,0.82 -1.063,1.92 -1.063,2.7 0,1.35 0.786,2.15 2.676,2.95 l 2.949,1.07 c 22.508,8.56 39.121,30.27 39.121,56.27 0,33.2 -27.05,59.73 -60.273,59.73 h -62.164 c -2.953,0 -5.102,-2.15 -5.102,-5.08 v -172.54 c 0,-4.3 3.747,-7.77 7.774,-7.77 m 9.906,161.03 c 0,4.3 3.754,7.78 7.766,7.78 h 41.82 c 23.297,0 42.602,-19.03 42.602,-42.64 v -1.04 c 0,-23.32 -19.305,-42.36 -42.602,-42.36 h -41.82 c -4.012,0 -7.766,3.22 -7.766,7.5 v 70.76" /><path
         id="path58"
         style="fill:#231f20;fill-opacity:1;fill-rule:nonzero;stroke:none"
         d="m 1005.21,1304.06 c 6.15,3.2 8.84,4.84 14.2,8.01 2.96,1.89 4.3,4.04 4.3,6.71 0,1.33 -0.28,2.95 -1.07,4.3 l -0.81,1.35 c -1.88,3.2 -4.3,4 -6.42,4 -1.62,0 -3.25,-0.54 -4.57,-1.32 l -12.871,-7.78 c -7.489,-4.55 -15.004,-7.48 -24.36,-7.48 -21.429,0 -38.863,17.4 -38.863,38.85 v 8.83 c 0,2.93 2.41,5.33 5.348,5.33 h 84.686 c 2.93,0 5.35,2.42 5.35,5.37 v 17.13 c 0,31.09 -25.46,56.29 -56.521,56.29 -25.734,0 -48.242,-17.42 -54.671,-41.8 -1.34,-4.55 -2.153,-10.7 -2.153,-26.52 v -11.76 c 0,-15.84 0.813,-21.99 2.153,-26.56 6.429,-24.38 28.937,-41.8 54.671,-41.8 13.114,0 22.219,3.75 31.601,8.85 m -70.464,84.14 c 0,21.42 17.434,38.85 38.863,38.85 21.411,0 38.831,-17.43 38.831,-38.85 v -1.33 c 0,-2.97 -2.42,-5.37 -5.35,-5.37 h -66.996 c -2.938,0 -5.348,2.4 -5.348,5.37 v 1.33" /><path
         id="path60"
         style="fill:#231f20;fill-opacity:1;fill-rule:nonzero;stroke:none"
         d="m 3158.65,1440.15 h -34.57 c -2.95,0 -5.35,2.44 -5.35,5.37 v 9.1 c 0,15.02 11.79,26.82 26.78,26.82 h 2.42 c 4.29,0 7.77,3.48 7.77,7.77 v 1.06 c 0,4.3 -3.48,7.77 -7.77,7.77 h -2.42 c -24.62,0 -44.48,-19.29 -44.48,-44.22 v -8.3 c 0,-2.93 -2.41,-5.37 -5.36,-5.37 h -5.35 c -4.28,0 -7.78,-3.46 -7.78,-7.77 v -1.06 c 0,-4.27 3.5,-7.77 7.78,-7.77 h 5.35 c 2.95,0 5.36,-2.4 5.36,-5.35 v -111.72 c 0,-4.3 3.5,-7.77 7.79,-7.77 h 2.14 c 4.27,0 7.77,3.47 7.77,7.77 v 111.72 c 0,2.95 2.4,5.35 5.35,5.35 h 34.57 c 4.3,0 7.76,3.5 7.76,7.77 v 1.06 c 0,4.31 -3.46,7.77 -7.76,7.77" /><path
         id="path62"
         style="fill:#231f20;fill-opacity:1;fill-rule:nonzero;stroke:none"
         d="m 1137.79,1372.4 c -2.97,1.03 -6.98,2.67 -16.63,4.8 l -17.95,3.77 c -7.49,1.86 -9.91,2.93 -11.78,3.73 -7.5,4.03 -12.58,11.25 -12.58,19.83 0,12.59 9.9,22.52 29.47,22.52 5.08,0 12.31,-0.57 31.34,-4.85 2.42,-0.51 4.03,-0.8 4.55,-0.8 4.02,0 6.44,1.88 7.23,5.88 0.82,2.17 0.54,3.22 0.54,4.02 0,3.52 -1.86,5.9 -5.89,7 -4.57,1.34 -8.04,1.62 -10.46,2.4 l -3.75,0.82 c -8.3,1.87 -17.42,2.13 -23.56,2.13 -28.67,0 -47.16,-16.86 -47.16,-39.38 0,-15.86 8.29,-28.94 23.31,-35.64 2.95,-1.35 7.22,-2.7 12.59,-4.01 l 21.15,-4.57 c 6.17,-1.34 9.92,-2.4 12.86,-3.73 8.87,-4.31 13.14,-11.27 13.14,-21.17 0,-17.67 -15.01,-23.32 -29.75,-23.32 -4.02,0 -9.62,-0.25 -21.16,2.68 l -15.54,3.47 c -2.43,0.53 -3.77,0.8 -4.55,0.8 -3.76,0 -6.18,-1.85 -7.24,-5.89 -0.8,-2.13 -0.53,-3.21 -0.53,-3.99 0,-3.51 1.87,-5.9 5.9,-6.97 4.56,-1.07 9.1,-2.4 13.13,-3.22 2.15,-0.55 4.28,-1.06 6.43,-1.35 8.29,-1.9 17.42,-2.13 23.56,-2.13 24.4,0 47.43,12.58 47.43,40.47 0,16.31 -9.38,31.03 -24.1,36.7" /><path
         id="path64"
         style="fill:#231f20;fill-opacity:1;fill-rule:nonzero;stroke:none"
         d="m 2381.73,1306.48 v 125.9 c 0,4.31 -3.48,7.77 -7.76,7.77 h -2.15 c -4.28,0 -7.77,-3.46 -7.77,-7.77 v -125.9 c 0,-4.3 3.49,-7.77 7.77,-7.77 h 2.15 c 4.28,0 7.76,3.47 7.76,7.77" /><path
         id="path66"
         style="fill:#231f20;fill-opacity:1;fill-rule:nonzero;stroke:none"
         d="m 2373.96,1470.72 c 7.76,0 13.67,5.88 13.67,13.65 v 2.15 c 0,7.77 -5.91,13.67 -13.67,13.67 h -2.14 c -7.77,0 -13.65,-5.9 -13.65,-13.67 v -2.15 c 0,-7.77 5.88,-13.65 13.65,-13.65 h 2.14" /><path
         id="path68"
         style="fill:#231f20;fill-opacity:1;fill-rule:nonzero;stroke:none"
         d="m 2275.91,1418.2 v -77.17 c 0,-24.92 19.82,-44.18 44.49,-44.18 h 2.67 c 4.29,0 7.76,3.46 7.76,7.76 v 1.07 c 0,4.26 -3.47,7.77 -7.76,7.77 h -2.67 c -15.02,0 -26.82,11.78 -26.82,26.78 v 77.97 c 0,2.95 2.42,5.35 5.37,5.35 h 24.12 c 4.29,0 7.76,3.5 7.76,7.77 v 1.06 c 0,4.31 -3.47,7.77 -7.76,7.77 h -24.12 c -2.95,0 -5.37,2.44 -5.37,5.37 v 28.15 c 0,2.93 -1.86,5.35 -4.81,5.35 -2.95,0 -4.81,-1.9 -5.63,-4.84 l -7.51,-30.02 c -0.79,-2.13 -2.14,-4.01 -5.08,-4.01 -4.29,0 -7.78,-3.46 -7.78,-7.77 v -1.06 c 0,-4.27 3.49,-7.77 7.78,-7.77 2.94,0 5.36,-2.4 5.36,-5.35" /><path
         id="path70"
         style="fill:#231f20;fill-opacity:1;fill-rule:nonzero;stroke:none"
         d="m 2570.52,1295.21 c 12.07,0 23.85,6.45 28.66,9.1 l 8.83,5.37 c 1.34,0.8 2.17,0.8 2.41,0.8 1.62,0 2.41,-0.8 2.41,-2.42 v -2.13 c 0,-4.02 3.23,-7.22 7.25,-7.22 4.01,0 6.96,3.2 6.96,7.22 v 126.45 c 0,4.04 -3.48,7.77 -7.78,7.77 h -2.13 c -4.3,0 -7.78,-3.73 -7.78,-7.77 v -99.9 c 0,-2.97 0.27,-4.3 -3.74,-6.72 l -12.06,-6.98 c -7.5,-4 -13.65,-6.95 -22.23,-6.95 -17.15,0 -31.89,9.38 -36.17,28.69 -0.8,2.93 -1.34,6.96 -1.34,20.61 v 71.25 c 0,4.31 -3.48,7.77 -7.77,7.77 h -2.14 c -4.29,0 -7.78,-3.46 -7.78,-7.77 v -70.45 c 0,-15.27 1.36,-21.97 2.42,-26.54 5.63,-23.56 26.25,-40.18 51.98,-40.18" /><path
         id="path72"
         style="fill:#231f20;fill-opacity:1;fill-rule:nonzero;stroke:none"
         d="m 2719.32,1296.83 h 2.67 c 4.29,0 7.78,3.46 7.78,7.79 v 1.04 c 0,4.3 -3.49,7.79 -7.78,7.79 h -2.67 c -15.01,0 -26.79,11.78 -26.79,26.78 v 77.97 c 0,2.95 2.4,5.35 5.35,5.35 h 24.11 c 4.29,0 7.78,3.5 7.78,7.75 v 1.08 c 0,4.3 -3.49,7.77 -7.78,7.77 h -24.11 c -2.95,0 -5.35,2.44 -5.35,5.37 v 28.15 c 0,2.93 -1.89,5.35 -4.83,5.35 -2.95,0 -4.82,-1.88 -5.62,-4.84 l -7.5,-30 c -0.81,-2.15 -2.14,-4.03 -5.09,-4.03 -4.29,0 -7.77,-3.47 -7.77,-7.77 v -1.08 c 0,-4.25 3.48,-7.75 7.77,-7.75 2.95,0 5.36,-2.4 5.36,-5.35 v -77.15 c 0,-24.94 19.82,-44.22 44.47,-44.22" /><path
         id="path74"
         style="fill:#231f20;fill-opacity:1;fill-rule:nonzero;stroke:none"
         d="m 2808.34,1295.21 c 13.15,0 22.26,3.75 31.64,8.85 6.15,3.2 8.82,4.84 14.19,8.01 2.93,1.89 4.27,4.04 4.27,6.71 0,1.33 -0.26,2.95 -1.06,4.28 l -0.81,1.37 c -1.87,3.2 -4.29,4 -6.43,4 -1.6,0 -3.21,-0.54 -4.55,-1.32 l -12.86,-7.78 c -7.5,-4.55 -15,-7.5 -24.39,-7.5 -21.43,0 -38.83,17.42 -38.83,38.87 v 8.81 c 0,2.97 2.4,5.35 5.35,5.35 h 84.66 c 2.95,0 5.35,2.42 5.35,5.37 v 17.15 c 0,31.07 -25.45,56.27 -56.53,56.27 -25.71,0 -48.21,-17.42 -54.65,-41.8 -1.34,-4.55 -2.15,-10.7 -2.15,-26.52 v -11.76 c 0,-15.82 0.81,-21.99 2.15,-26.54 6.44,-24.4 28.94,-41.82 54.65,-41.82 m -38.83,92.99 c 0,21.42 17.4,38.85 38.83,38.85 21.45,0 38.85,-17.43 38.85,-38.85 v -1.35 c 0,-2.95 -2.4,-5.37 -5.35,-5.37 h -66.98 c -2.95,0 -5.35,2.42 -5.35,5.37 v 1.35" /><path
         id="path76"
         style="fill:#231f20;fill-opacity:1;fill-rule:nonzero;stroke:none"
         d="m 3058.71,1363.57 v 11.74 c 0,15.84 -0.8,21.99 -2.14,26.54 -6.41,24.38 -28.93,41.8 -54.67,41.8 -25.72,0 -48.21,-17.42 -54.63,-41.8 -1.35,-4.55 -2.15,-10.7 -2.15,-26.54 v -11.74 c 0,-15.84 0.8,-21.99 2.15,-26.56 6.42,-24.38 28.91,-41.8 54.63,-41.8 25.74,0 48.26,17.42 54.67,41.8 1.34,4.57 2.14,10.72 2.14,26.56 m -17.68,-0.84 c 0,-13.91 -0.54,-18.2 -1.35,-21.15 -4.29,-17.15 -19.28,-29.73 -37.78,-29.73 -18.48,0 -33.48,12.58 -37.78,29.73 -0.8,2.95 -1.33,7.24 -1.33,21.15 v 13.4 c 0,13.92 0.53,18.22 1.33,21.17 4.3,17.15 19.3,29.75 37.78,29.75 18.5,0 33.49,-12.6 37.78,-29.75 0.81,-2.95 1.35,-7.25 1.35,-21.17 v -13.4" /><path
         id="path78"
         style="fill:#231f20;fill-opacity:1;fill-rule:nonzero;stroke:none"
         d="m 1996.09,1298.71 h 2.14 c 4.28,0 7.76,3.75 7.76,7.77 v 99.96 c 0,2.93 -0.25,4.24 3.77,6.68 4,2.38 6.95,3.73 12.04,6.7 7.79,4.02 14.22,7.23 23.04,7.23 18.5,0 33.49,-12.6 37.79,-29.75 0.81,-2.95 1.34,-7.27 1.34,-21.17 v -69.65 c 0,-4.3 3.5,-7.77 7.78,-7.77 h 2.14 c 4.29,0 7.77,3.47 7.77,7.77 v 68.85 c 0,15.82 -0.81,21.97 -2.14,26.52 -6.43,24.38 -28.96,41.8 -54.68,41.8 -13.11,0 -23.84,-5.9 -28.93,-9.1 l -8.58,-5.37 c -1.34,-0.82 -2.12,-0.82 -2.4,-0.82 -1.61,0 -2.42,0.82 -2.42,2.42 v 2.15 c 0,4.04 -3.2,7.22 -7.23,7.22 -4.02,0 -6.96,-3.18 -6.96,-7.22 v -126.45 c 0,-4.02 3.48,-7.77 7.77,-7.77" /><path
         id="path80"
         style="fill:#231f20;fill-opacity:1;fill-rule:nonzero;stroke:none"
         d="m 1250.83,1443.65 c -25.71,0 -48.22,-17.42 -54.65,-41.8 -1.34,-4.55 -2.15,-10.68 -2.15,-26.52 v -11.76 c 0,-15.82 0.81,-21.97 2.15,-26.56 6.43,-24.38 28.94,-41.78 54.65,-41.78 13.13,0 22.24,3.73 31.64,8.83 6.15,3.2 8.82,4.84 14.19,8.03 2.95,1.89 4.29,4.02 4.29,6.69 0,1.35 -0.28,2.93 -1.07,4.28 l -0.8,1.35 c -1.89,3.2 -4.29,4.02 -6.43,4.02 -1.61,0 -3.23,-0.54 -4.56,-1.32 l -12.86,-7.76 c -7.52,-4.55 -15.02,-7.52 -24.4,-7.52 -21.41,0 -38.84,17.4 -38.84,38.85 v 8.85 c 0,2.95 2.41,5.33 5.36,5.33 h 84.68 c 2.93,0 5.35,2.42 5.35,5.37 v 17.15 c 0,31.07 -25.47,56.27 -56.55,56.27 m 38.87,-56.8 c 0,-2.95 -2.42,-5.37 -5.37,-5.37 h -66.98 c -2.95,0 -5.36,2.42 -5.36,5.37 v 1.35 c 0,21.41 17.43,38.85 38.84,38.85 21.45,0 38.87,-17.44 38.87,-38.85 v -1.35" /><path
         id="path82"
         style="fill:#231f20;fill-opacity:1;fill-rule:nonzero;stroke:none"
         d="m 1400.91,1443.65 h -3.23 c -13.11,0 -22.23,-3.73 -31.6,-8.83 -5.64,-3.22 -7.24,-3.73 -12.61,-6.99 -2.93,-1.88 -4.27,-4.01 -4.27,-6.68 0,-1.33 0.26,-2.95 1.06,-4.3 l 0.8,-1.35 c 1.88,-3.2 4.29,-4 6.46,-4 1.59,0 3.2,0.57 4.54,1.35 l 11.27,6.68 c 7.49,4.57 14.98,7.52 24.35,7.52 h 3.23 c 15,0 26.8,-11.78 26.8,-26.8 v -13.13 c 0,-2.96 -2.15,-5.64 -5.1,-5.64 h -39.66 c -22.76,0 -41.81,-18.2 -41.81,-40.98 v -4.29 c 0,-22.76 19.05,-40.98 41.81,-40.98 h 5.89 c 12.6,0 23.31,5.9 28.41,8.83 l 9.64,5.62 c 0.82,0.28 1.34,0.8 2.42,0.8 1.34,0 2.15,-0.8 2.15,-2.4 v -2.42 c 0,-4 2.95,-6.95 6.96,-6.95 4.01,0 6.96,2.95 6.96,6.95 v 93.79 c 0,24.9 -19.82,44.2 -44.47,44.2 m 23.04,-118.15 -12.07,-6.72 c -7.77,-4.27 -14.2,-6.95 -23.04,-6.95 h -5.89 c -13.13,0 -24.11,11.53 -24.11,24.38 v 4.29 c 0,12.86 10.98,24.36 24.11,24.36 h 39.66 c 2.95,0 5.1,-2.38 5.1,-5.33 v -27.33 c 0,-2.97 0.26,-4.59 -3.76,-6.7" /><path
         id="path84"
         style="fill:#231f20;fill-opacity:1;fill-rule:nonzero;stroke:none"
         d="m 1768.76,1443.65 c -12.05,0 -19.54,-3.73 -27.86,-8.03 l -6.97,-3.77 c -0.8,-0.25 -1.34,-0.55 -1.87,-0.55 -1.35,0 -2.15,1.08 -2.15,2.95 v 56.02 c 0,4.3 -3.47,7.77 -7.78,7.77 h -2.12 c -4.29,0 -7.77,-3.47 -7.77,-7.77 v -183.79 c 0,-4.3 3.48,-7.77 7.77,-7.77 h 2.12 c 4.31,0 7.78,3.47 7.78,7.77 v 99.94 c 0,2.97 -0.26,4.26 3.74,6.68 4.06,2.4 6.98,3.75 12.07,6.72 7.77,4 14.2,7.23 23.04,7.23 18.49,0 33.51,-12.62 37.78,-29.75 0.81,-2.95 1.35,-7.25 1.35,-21.17 v -69.65 c 0,-4.3 3.48,-7.77 7.76,-7.77 h 2.15 c 4.28,0 7.76,3.47 7.76,7.77 v 68.85 c 0,15.84 -0.8,21.97 -2.14,26.52 -6.43,24.38 -28.94,41.8 -54.66,41.8" /><path
         id="path86"
         style="fill:#231f20;fill-opacity:1;fill-rule:nonzero;stroke:none"
         d="m 1934.47,1484.1 h -2.15 c -4.28,0 -7.76,-3.46 -7.76,-7.76 v -169.86 c 0,-4.3 3.48,-7.77 7.76,-7.77 h 2.15 c 4.28,0 7.76,3.47 7.76,7.77 v 169.86 c 0,4.3 -3.48,7.76 -7.76,7.76" /><path
         id="path88"
         style="fill:#231f20;fill-opacity:1;fill-rule:nonzero;stroke:none"
         d="m 1590.64,1397.3 c 4.3,17.15 19.3,29.75 37.78,29.75 9.39,0 16.88,-2.95 24.4,-7.54 l 11.24,-6.68 c 1.34,-0.78 2.95,-1.33 4.55,-1.33 2.14,0 4.55,0.82 6.42,4 l 0.81,1.35 c 0.81,1.35 1.07,2.97 1.07,4.3 0,2.69 -1.33,4.82 -4.29,6.7 -4.82,3.47 -6.96,4.27 -12.57,6.97 -9.4,5.1 -18.5,8.83 -31.63,8.83 -25.72,0 -48.23,-17.42 -54.66,-41.8 -1.33,-4.55 -2.12,-10.7 -2.12,-26.54 v -11.74 c 0,-15.84 0.79,-21.99 2.12,-26.56 6.43,-24.38 28.94,-41.8 54.66,-41.8 13.13,0 22.23,3.75 31.63,8.85 5.35,3.49 7.49,4 12.57,6.95 2.96,1.88 4.29,4.02 4.29,6.72 0,1.31 -0.26,2.93 -1.07,4.26 l -0.81,1.37 c -1.87,3.2 -4.28,4.02 -6.42,4.02 -1.6,0 -3.21,-0.57 -4.55,-1.37 l -11.24,-6.68 c -7.52,-4.55 -15.01,-7.48 -24.4,-7.48 -18.48,0 -33.48,12.58 -37.78,29.73 -0.8,2.95 -1.33,7.24 -1.33,21.15 v 13.4 c 0,13.92 0.53,18.22 1.33,21.17" /><path
         id="path90"
         style="fill:#231f20;fill-opacity:1;fill-rule:nonzero;stroke:none"
         d="m 835.383,2535.08 c -42.399,0 -77.059,-34.66 -77.059,-77.04 v -704.82 c 0,-42.38 34.66,-77.05 77.059,-77.05 42.375,0 77.051,34.67 77.051,77.05 v 704.82 c 0,42.38 -34.676,77.04 -77.051,77.04" /><path
         id="path92"
         style="fill:#231f20;fill-opacity:1;fill-rule:nonzero;stroke:none"
         d="m 2549.28,2535.08 h -262.17 v -0.02 c -42.25,-0.13 -76.78,-34.74 -76.78,-77.02 v -704.82 c 0,-42.38 34.68,-77.05 77.06,-77.05 42.38,0 77.05,34.67 77.05,77.05 v 187.48 c 0.18,11.01 10.39,21.7 20.8,21.7 h 164.04 c 161.05,0 282.5,125.27 282.5,291.37 0,163.01 -118.82,281.31 -282.5,281.31 m 127.21,-288.51 c 0,-82.31 -53.5,-142.04 -127.21,-142.04 h -164.04 c -10.23,0 -20.62,10.33 -20.8,20.52 v 248.65 c 0.18,11.55 10.82,19.3 20.8,19.3 h 164.04 c 77.27,0 127.21,-50.89 127.21,-129.61 v -16.82" /><path
         id="path94"
         style="fill:#231f20;fill-opacity:1;fill-rule:nonzero;stroke:none"
         d="m 1855.83,2536.07 c -37.18,0 -68.39,-24.87 -96.02,-66.39 -27.65,-41.52 -188.57,-283.22 -188.57,-283.22 0,0 -3.19,-5.15 -9.84,-5.15 -6.68,0 -9.86,5.15 -9.86,5.15 0,0 -160.93,241.7 -188.58,283.22 -27.64,41.52 -58.85,66.39 -96.02,66.39 -47.52,0 -86.03,-38.52 -86.03,-86.03 0,-0.15 0.02,-0.29 0.02,-0.43 v -696.39 c 0,-42.38 34.68,-77.05 77.05,-77.05 42.38,0 77.06,34.67 77.06,77.05 v 450.71 c 0,4.92 3.99,8.94 8.92,8.94 3.08,0 5.8,-1.57 7.41,-3.96 v 0.02 -0.02 c 42.99,-64.54 81.6,-122.53 89.63,-134.5 14.42,-21.48 28.24,-38.07 36.38,-46.58 21.16,-22.15 50.93,-35.98 84,-35.98 33.06,0 62.85,13.83 84.01,35.98 8.14,8.51 21.97,25.1 36.39,46.58 8.01,11.97 46.62,69.96 89.61,134.5 v 0.02 -0.02 c 1.62,2.39 4.34,3.96 7.42,3.96 4.93,0 8.92,-4.02 8.92,-8.94 v -450.71 c 0,-42.38 34.68,-77.05 77.06,-77.05 42.38,0 77.05,34.67 77.05,77.05 v 696.39 c 0,0.14 0.02,0.28 0.02,0.43 0,47.51 -38.51,86.03 -86.03,86.03" /><path
         id="path96"
         style="fill:#76ca35;fill-opacity:1;fill-rule:nonzero;stroke:none"
         d="m 3550.02,2450.08 c -7.95,0 -16.01,0.58 -24.1,1.8 -20.57,3.07 -39.64,9.89 -56.64,19.65 7.2,-36.23 18.96,-71.66 35.14,-105.59 38.02,-79.71 97.47,-145.05 171.9,-188.96 13.57,-8 28.47,-11.81 43.15,-11.81 29.13,0 57.5,14.98 73.37,41.87 23.88,40.48 10.42,92.65 -30.06,116.53 -58.72,34.64 -100.98,91.25 -120.2,155.78 -26.54,-18.58 -58.64,-29.27 -92.56,-29.27" /><path
         id="path98"
         style="fill:#76ca35;fill-opacity:1;fill-rule:nonzero;stroke:none"
         d="m 3550.02,2450.08 c -7.95,0 -16.01,0.58 -24.1,1.8 -20.57,3.07 -39.64,9.89 -56.64,19.66 7.2,-36.23 18.96,-71.67 35.14,-105.61 38.02,-79.7 97.47,-145.04 171.9,-188.94 13.57,-8.01 28.47,-11.82 43.15,-11.82 29.13,0 57.5,14.97 73.37,41.88 23.88,40.47 10.42,92.63 -30.06,116.52 -58.72,34.65 -100.98,91.25 -120.2,155.78 -26.54,-18.58 -58.64,-29.27 -92.56,-29.27" /><path
         id="path100"
         style="fill:#33b540;fill-opacity:1;fill-rule:nonzero;stroke:none"
         d="m 3633.98,2599.21 c 6.94,46.47 -25.1,89.79 -71.58,96.73 -46.48,6.95 -89.79,-25.09 -96.74,-71.57 -7.64,-51.21 -6.33,-102.78 3.64,-152.84 16.99,-9.76 36.06,-16.58 56.62,-19.65 8.09,-1.22 16.15,-1.8 24.09,-1.8 33.94,0 66.03,10.7 92.57,29.29 -11.37,38.15 -14.7,79.06 -8.6,119.84" /><path
         id="path102"
         style="fill:#ed1c24;fill-opacity:1;fill-rule:nonzero;stroke:none"
         d="m 3946.44,2661.88 c -77.06,11.49 -148.89,-41.7 -160.42,-118.79 -11.55,-77.27 41.63,-148.96 118.69,-160.47 77.35,-11.56 149.11,41.43 160.68,118.75 11.5,77.04 -41.58,148.95 -118.95,160.51" /><path
         id="path104"
         style="fill:#51bdee;fill-opacity:1;fill-rule:nonzero;stroke:none"
         d="m 4101.89,3064.41 c 25.49,-5.36 50.97,-13.37 75.15,-22.08 -14.26,26.46 -35.02,48.3 -61.66,62.95 -28.55,15.65 -77.53,27.89 -146.21,27.89 -48.29,0 -95.9,-6.12 -143.51,-17.69 -73.45,-18.36 -142.13,-50.32 -203.35,-95.21 -61.2,-44.88 -112.9,-100.65 -152.33,-165.26 -41.49,-67.33 -68.02,-140.78 -80.26,-219.67 -9.52,-67.33 23.81,-131.94 79.58,-163.9 -9.52,50.32 -10.89,101.33 -3.4,153.02 6.11,42.17 42.84,72.09 83.65,72.09 4.76,0 8.84,0 12.92,-0.68 46.25,-6.8 78.89,-50.33 71.41,-96.57 -6.13,-40.81 -2.73,-81.61 8.83,-120.38 35.38,25.16 60.54,63.25 67.33,108.81 19.73,130.58 130.59,225.8 259.8,220.35 78.22,-3.4 106.77,-6.12 152.35,22.45 0.41,0.27 0.81,0.55 1.22,0.82 -0.37,0.16 -0.74,0.33 -1.12,0.48 -17.68,7.48 -35.36,13.6 -53.72,19.04 -55.77,14.28 -70.73,12.24 -100.65,33.32 -27.89,19.73 -46.25,58.49 -40.13,99.3 6.13,42.84 37.41,75.49 71.41,86.37 27.21,8.16 60.53,4.76 102.69,-5.45" /><path
         id="path106"
         style="fill:#37963f;fill-opacity:1;fill-rule:nonzero;stroke:none"
         d="m 4177.95,3040.68 c -0.29,0.56 -0.61,1.1 -0.91,1.65 -24.18,8.71 -49.66,16.72 -75.15,22.08 -42.16,10.21 -75.48,13.61 -102.69,5.45 -34,-10.88 -65.28,-43.53 -71.41,-86.37 -6.12,-40.81 12.24,-79.57 40.13,-99.3 29.92,-21.08 44.88,-19.04 100.65,-33.32 18.36,-5.44 36.04,-11.56 53.72,-19.04 0.38,-0.15 0.75,-0.32 1.12,-0.48 36.77,24.55 63.47,64.31 70.86,111.39 5.44,34.69 -1.35,68.69 -16.32,97.94" /><path
         id="path108"
         style="fill:#37963f;fill-opacity:1;fill-rule:nonzero;stroke:none"
         d="m 4571.41,2581.52 c -0.02,0.14 -0.06,0.28 -0.08,0.41 -21,12.13 -44.69,20.23 -70.39,23.61 -53.72,8.16 -106.1,-4.07 -148.25,-31.97 -0.1,-0.05 -0.19,-0.11 -0.29,-0.17 0,-0.01 0.01,-0.03 0.02,-0.04 11.56,-41.48 16.32,-85.01 12.91,-129.89 -4.75,-59.18 -4.75,-75.49 10.22,-105.42 12.91,-24.48 41.47,-46.92 77.52,-52.37 5.45,-0.67 10.19,-1.36 15.64,-1.36 34,0 65.28,16.32 85.69,42.17 18.36,23.8 23.81,60.53 27.21,107.46 2.72,50.32 -0.69,99.29 -10.2,147.57" /><path
         id="path110"
         style="fill:#37963f;fill-opacity:1;fill-rule:nonzero;stroke:none"
         d="m 3839.93,1936.21 c -20.4,19.72 -35.36,23.81 -110.17,40.8 -40.74,8.83 -79.44,22.4 -116.78,39.35 -0.17,-0.15 -0.33,-0.29 -0.5,-0.45 -32.65,-31.29 -55.77,-74.14 -63.25,-123.1 -4.76,-29.24 -2.72,-58.5 4.08,-85.7 v 0 c 0.1,-0.02 0.21,-0.08 0.3,-0.12 50.34,-19.73 102.02,-35.37 155.75,-45.57 38.77,-8.85 75.48,-8.85 102.01,4.08 27.89,13.6 52.37,42.84 57.81,79.57 5.44,36.72 -9.52,72.09 -29.25,91.14" /><path
         id="path112"
         style="fill:#33b540;fill-opacity:1;fill-rule:nonzero;stroke:none"
         d="m 4500.94,2605.54 c 25.7,-3.38 49.39,-11.48 70.39,-23.61 -6.54,34.87 -16.16,68.93 -28.79,101.93 h -0.03 c -20.49,53.81 -48.67,105.04 -84.24,152.04 -48.29,63.26 -108.13,115.62 -176.82,156.43 -32.65,19.72 -67.34,36.04 -103.38,49.64 -0.34,0.13 -0.69,0.25 -1.03,0.37 0.3,-0.56 0.62,-1.1 0.91,-1.66 14.97,-29.25 21.76,-63.25 16.32,-97.94 -7.39,-47.08 -34.09,-86.84 -70.86,-111.39 64.81,-27.23 120.18,-70.57 162.79,-126.02 5.37,-7.05 10.47,-14.21 15.29,-21.47 h -0.55 c 22.89,-34.17 40.06,-71.11 51.46,-110.46 0.1,0.06 0.19,0.12 0.29,0.17 42.15,27.9 94.53,40.13 148.25,31.97" /><path
         id="path114"
         style="fill:#76ca35;fill-opacity:1;fill-rule:nonzero;stroke:none"
         d="m 4677.77,2446.4 c -14.97,57.81 -53.74,107.45 -106.1,135.34 -0.11,0.07 -0.23,0.13 -0.34,0.19 0.02,-0.13 0.06,-0.27 0.08,-0.41 9.51,-48.28 12.92,-97.25 10.2,-147.57 -3.4,-46.93 -8.85,-83.66 -27.21,-107.46 -20.41,-25.85 -51.69,-42.17 -85.69,-42.17 -5.45,0 -10.19,0.69 -15.64,1.36 -36.05,5.45 -64.61,27.89 -77.52,52.37 -14.97,29.93 -14.97,46.24 -10.22,105.42 3.41,44.88 -1.35,88.41 -12.91,129.89 -0.01,0.02 -0.02,0.03 -0.02,0.04 -24.35,-14.94 -43.97,-34.57 -56.17,-52.19 -36.03,-53.05 -35.36,-94.53 -57.12,-164.58 -28.8,-91.69 -91.59,-170.07 -171.77,-221.52 h -1 c -63.92,-41.15 -138.59,-64.8 -215.83,-64.8 -48.29,0 -95.89,11.56 -155.74,-5.43 -27.03,-7.44 -56.73,-24.28 -81.79,-48.52 37.34,-16.95 76.04,-30.52 116.78,-39.35 74.81,-16.99 89.77,-21.08 110.17,-40.8 19.73,-19.05 34.69,-54.42 29.25,-91.14 -5.44,-36.73 -29.92,-65.97 -57.81,-79.57 -26.53,-12.93 -63.25,-12.93 -102.01,-4.08 -53.73,10.2 -105.41,25.84 -155.75,45.57 -0.09,0.04 -0.2,0.1 -0.3,0.12 15.65,-59.17 56.45,-110.16 108.13,-136.02 43.54,-21.76 114.94,-31.95 190.44,-31.95 71.4,0 142.81,9.51 212.18,27.89 104.73,27.87 201.99,76.15 289.04,142.13 87.05,65.29 159.14,146.21 215.59,238.71 16.98,28.38 32.26,57.48 45.79,87.24 h 0.76 c 17.54,38.53 32.26,78.13 44.16,118.83 22.45,82.29 30.61,148.26 18.37,192.46" /><path
         id="path116"
         style="fill:#187193;fill-opacity:1;fill-rule:nonzero;stroke:none"
         d="m 3048.66,2774.85 c -14.95,-21.76 -20.39,-43.52 -25.16,-86.37 -3.39,-29.92 -4.76,-59.85 -4.76,-89.77 v -0.45 c 55.11,-57.68 148.87,-67.15 216.14,-14.83 0.04,0.05 0.09,0.08 0.14,0.12 0,0.06 -0.01,0.13 -0.01,0.2 -0.67,26.52 0,53.05 2.72,79.57 6.13,48.28 6.8,79.57 -14.96,110.17 -15.64,21.76 -40.81,39.45 -72.1,44.21 -41.47,6.12 -80.92,-12.24 -102.01,-42.85" /><path
         id="path118"
         style="fill:#37963f;fill-opacity:1;fill-rule:nonzero;stroke:none"
         d="m 4247.67,3598.85 c -31.29,19.04 -69.38,28.56 -128.55,34.69 -57.13,5.44 -114.25,6.11 -172.06,1.35 -0.01,0 -0.04,0 -0.06,0 -0.05,-0.05 -0.09,-0.11 -0.13,-0.16 -73.4,-91.75 -81.6,-240.52 -9.01,-325.56 49.54,5.4 99.76,6.75 149.3,2 64.61,-5.44 81.61,-6.12 116.97,1.36 50.33,10.88 102.01,60.53 112.22,129.22 9.52,66.65 -25.84,131.26 -68.68,157.1" /><path
         id="path120"
         style="fill:#33baaf;fill-opacity:1;fill-rule:nonzero;stroke:none"
         d="m 3018.74,2598.26 v -0.23 c 0,-70.73 8.84,-140.78 27.21,-210.15 27.2,-106.77 74.81,-206.75 140.09,-295.83 5.14,-6.96 10.39,-13.79 15.72,-20.55 h 0.23 c 62.99,-80.14 138.61,-147.95 225.81,-201.27 40.03,-24.41 82.09,-45.45 125.51,-63.12 v 0 c -6.8,27.2 -8.84,56.46 -4.08,85.7 7.48,48.96 30.6,91.81 63.25,123.1 0.17,0.16 0.33,0.3 0.5,0.45 -0.07,0.04 -0.14,0.06 -0.2,0.1 -34.75,15.37 -67.86,33.77 -99.07,55.04 h 0.12 c -58.63,39.88 -110.85,89.78 -154.36,148.4 -78.85,107.4 -121.7,233.14 -124.45,363.65 -0.05,-0.04 -0.1,-0.07 -0.14,-0.12 -67.27,-52.32 -161.03,-42.85 -216.14,14.83" /><path
         id="path122"
         style="fill:#0f84d0;fill-opacity:1;fill-rule:nonzero;stroke:none"
         d="m 3946.87,3634.73 c 0.04,0.05 0.08,0.11 0.13,0.16 -63.23,-4.76 -125.1,-14.96 -186.96,-30.6 -132.63,-34 -256.4,-92.49 -366.57,-174.1 -2.59,-1.92 -5.02,-3.96 -7.34,-6.09 -107.65,-80.65 -197.69,-179.44 -267.56,-293.87 -64.6,-105.41 -109.49,-219.67 -133.96,-340.72 -17.01,-89.1 -10.88,-144.18 33.99,-191.11 0.05,-0.04 0.09,-0.09 0.14,-0.14 v 0.45 c 0,29.92 1.37,59.85 4.76,89.77 4.77,42.85 10.21,64.61 25.16,86.37 21.09,30.61 60.54,48.97 102.01,42.85 31.29,-4.76 56.46,-22.45 72.1,-44.21 21.76,-30.6 21.09,-61.89 14.96,-110.17 -2.72,-26.52 -3.39,-53.05 -2.72,-79.57 0,-0.07 0.01,-0.14 0.01,-0.2 50.87,40.76 51.56,78.86 71.94,167.87 40.62,166.49 136.45,312.76 276.11,416.72 0.73,0.52 1.45,1.04 2.18,1.57 104.73,77.54 225.79,125.14 352.29,139.42 0.11,0.01 0.21,0.02 0.32,0.04 -72.59,85.04 -64.39,233.81 9.01,325.56" /><path
         id="path124"
         style="fill:#33b540;fill-opacity:1;fill-rule:nonzero;stroke:none"
         d="m 5092.07,2410.27 c -62.57,8.84 -122.41,-21.08 -150.29,-61.21 -23.81,-33.32 -31.29,-65.97 -41.5,-123.09 -9.51,-51.01 -22.44,-99.98 -38.76,-148.94 -0.04,-0.12 -0.07,-0.22 -0.11,-0.32 51.01,-60.91 126.96,-96.07 206.3,-96.07 36.45,0 74.37,7.73 109.47,23.2 16.96,55 31.2,111.37 41.39,168.4 10.2,54.4 12.24,95.22 -1.36,135.33 -15.65,46.94 -58.49,91.82 -125.14,102.7" /><path
         id="path126"
         style="fill:#a6d71c;fill-opacity:1;fill-rule:nonzero;stroke:none"
         d="m 5307.11,2745.06 h -0.71 c -0.01,0.03 -0.01,0.07 -0.02,0.11 -43.53,167.98 -119.03,323.73 -223.75,463.15 -104.75,138.73 -233.97,255.02 -382.9,344.12 -134.65,80.93 -280.88,137.38 -435.26,167.98 -112.15,20.39 -236.54,14.97 -317.47,-85.53 0.02,0 0.04,0 0.06,0 57.81,4.77 114.93,4.09 172.06,-1.35 59.17,-6.13 97.26,-15.65 128.55,-34.69 42.84,-25.84 78.2,-90.45 68.68,-157.1 -10.21,-68.69 -61.89,-118.34 -112.22,-129.22 -35.36,-7.48 -52.36,-6.8 -116.97,-1.36 -49.54,4.75 -99.76,3.4 -149.3,-2 0.06,-0.07 0.12,-0.13 0.17,-0.21 46.92,-55.76 91.13,-85 256.39,-127.17 258.77,-65.61 446.48,-229.87 542.64,-436.73 h -0.82 c 58.06,-125.34 84.51,-269.73 69.65,-425.06 -10.21,-108.13 -0.68,-175.47 55.09,-242.8 0.13,-0.15 0.29,-0.33 0.43,-0.49 0.04,0.1 0.07,0.2 0.11,0.32 16.32,48.96 29.25,97.93 38.76,148.94 10.21,57.12 17.69,89.77 41.5,123.09 27.88,40.13 87.72,70.05 150.29,61.21 66.65,-10.88 109.49,-55.76 125.14,-102.7 13.6,-40.11 11.56,-80.93 1.36,-135.33 -10.19,-57.03 -24.43,-113.4 -41.39,-168.4 17.95,7.93 35.15,17.87 51.04,29.85 83.66,63.24 105.42,154.37 117.66,282.22 12.25,127.19 -0.67,280.21 -38.77,429.15" /><path
         id="path128"
         style="fill:#51bdee;fill-opacity:1;fill-rule:nonzero;stroke:none"
         d="m 4861.41,2076.71 c -74.16,-222.26 -213.53,-417.32 -405.22,-561.44 -200.62,-151.66 -437.3,-231.23 -680.77,-231.23 -51.86,0 -103.21,3.53 -154.87,10.58 -26.25,3.58 -52.71,3.79 -69.73,0.12 -63.73,-13.73 -115.88,-65.92 -126.33,-134.49 -10.03,-68.13 24.63,-132.95 78.52,-162.93 23.7,-13.179 59.57,-22.07 112.89,-27.871 53.33,-5.82 106.27,-8.461 158.84,-8.461 124.45,0 247.55,15.653 369.29,48.282 182.94,48.97 353.64,131.96 507.35,247.56 74.81,57.13 144.85,121.06 208.1,191.11 63.93,70.73 121.06,147.58 170.71,228.52 62.56,103.36 111.53,212.85 146.9,327.11 0.02,0.1 0.05,0.2 0.09,0.27 -35.1,-15.47 -73.02,-23.2 -109.47,-23.2 -79.34,0 -155.29,35.16 -206.3,96.07" /></g></g></svg>