<?xml version="1.0" encoding="UTF-8" standalone="no"?>
<!-- Created with Inkscape (http://www.inkscape.org/) -->

<svg
   version="1.1"
   id="svg14897"
   width="442.58667"
   height="111.90667"
   viewBox="0 0 442.58667 111.90667"
   sodipodi:docname="MPI_Logo_GER_RGB_green.svg"
   inkscape:version="1.2 (1:1.2.1+202207142221+cd75a1ee6d)"
   xmlns:inkscape="http://www.inkscape.org/namespaces/inkscape"
   xmlns:sodipodi="http://sodipodi.sourceforge.net/DTD/sodipodi-0.dtd"
   xmlns="http://www.w3.org/2000/svg"
   xmlns:svg="http://www.w3.org/2000/svg">
  <defs
     id="defs14901" />
  <sodipodi:namedview
     id="namedview14899"
     pagecolor="#ffffff"
     bordercolor="#666666"
     borderopacity="1.0"
     inkscape:showpageshadow="2"
     inkscape:pageopacity="0.0"
     inkscape:pagecheckerboard="true"
     inkscape:deskcolor="#d1d1d1"
     showgrid="false"
     inkscape:zoom="1.6482647"
     inkscape:cx="212.64788"
     inkscape:cy="92.218196"
     inkscape:window-width="1920"
     inkscape:window-height="1163"
     inkscape:window-x="0"
     inkscape:window-y="0"
     inkscape:window-maximized="1"
     inkscape:current-layer="g14907">
    <inkscape:page
       x="0"
       y="0"
       id="page14903"
       width="442.58667"
       height="111.90667" />
  </sodipodi:namedview>
  <g
     id="g14905"
     inkscape:groupmode="layer"
     inkscape:label="Page 1"
     transform="matrix(1.3333333,0,0,-1.3333333,0,111.90667)">
    <g
       id="g14907"
       transform="scale(0.1)">
      <path
         d="m 2898.05,112.375 c -168.65,0 -305.85,137.199 -305.85,305.859 0,168.625 137.2,305.821 305.85,305.821 168.63,0 305.84,-137.196 305.84,-305.821 0,-168.66 -137.21,-305.859 -305.84,-305.859 z m 0,620.48 c -173.5,0 -314.64,-141.144 -314.64,-314.621 0,-173.504 141.14,-314.636 314.64,-314.636 173.49,0 314.64,141.132 314.64,314.636 0,173.477 -141.15,314.621 -314.64,314.621"
         style="fill:#297a6a;fill-opacity:1;fill-rule:nonzero;stroke:none"
         id="path14909" />
      <path
         d="m 3104.77,367.043 c -9.76,-8.633 -24.75,-9.336 -30.82,-14.852 -3.16,-2.882 -4.59,-7.402 -1.17,-15.488 1.96,-4.648 3.32,-5.226 -3.38,-7.012 -10.87,-2.91 -12.36,-17.187 -26.21,-14.57 -5.55,1.043 -1.56,-2.5 0.43,-2.695 7.93,-0.742 11.07,1.484 13.85,4.09 2.77,2.597 6.48,7.285 10.74,8.898 4.39,1.66 8.82,1.551 8.9,-1.738 0.06,-2.512 -5.48,-6.485 -7.82,-7.571 2.84,-1.472 11.51,-5.878 4.11,-10.906 -5.77,-3.918 -13.7,1.512 -14.86,2.188 -1.7,0.984 -4.97,0.488 -3.88,-0.832 4.27,-5.235 15.76,-3.867 13.7,-6.641 -10.6,-14.246 -1.97,-22.566 -5.19,-36.883 -3.27,-14.523 -23.13,-22.472 -38.44,-25.234 -52.02,-9.387 -102.63,34.871 -132.29,68.23 2.7,6.328 2.35,14.602 -0.35,11.661 -2.56,-2.774 -2.14,-7.391 -8.32,-8.954 -11.93,-3.007 -17.06,17.696 -20.75,21.317 -14.5,14.199 -20.25,34.258 -11.59,51.797 8.74,17.726 26.9,14.172 34.15,3.449 9.02,-13.332 4.85,-20.91 9.96,-24.895 7.19,-5.593 14.43,-0.593 16.37,-0.066 5.48,1.492 5.06,-12.981 23.75,-12.305 20.11,0.723 17.83,31.992 20.68,34.766 25.8,25.156 12.62,47.605 7.94,52.832 -1.26,1.394 2.86,10.633 4.38,10.976 15.16,3.348 23.71,13.028 28.33,23.262 0,0 25.17,0.418 34.12,18.543 2.39,4.856 9.81,-4.668 26.61,8.535 1.9,1.496 3.67,0.782 4.39,-0.957 10.8,-26.484 15.34,-33.797 14.51,-47.304 -0.61,-9.813 26.2,-64.317 28.15,-69.024 2.18,-5.254 2.5,-10.41 0,-12.617 z M 2985.34,228.996 c -7.66,-26.484 -11.5,-37.058 -0.01,-65.82 1.52,-3.817 2.68,-6.699 -0.68,-6.121 -23.15,3.972 -28.15,7.773 -100.83,1.609 -5.24,-0.437 1.71,10.137 0.85,17.344 6.64,0.851 17.24,3.887 19.5,14.699 2.72,13.113 -6.42,22.742 -5.45,24.629 10.3,20.098 -0.67,42.363 -9.39,79.687 -0.81,3.497 1.21,5.02 2.75,3.368 46.71,-50.547 76.46,-60.594 92.55,-65.371 1.59,-0.469 1.28,-2.293 0.71,-4.024 z m -141.57,-70.039 c -4.79,1.191 -17.99,22.207 -7.25,47.277 1.14,2.657 17.61,1.004 20.37,0.176 2.76,-0.832 -2.26,-20.547 20.36,-29.277 2.32,-0.899 -0.09,-26.457 -33.48,-18.176 z m -33.99,12.598 c -2.49,11.027 -3.48,30.136 1.1,34.386 0.9,0.84 14.62,2.813 14.36,-0.324 -1.05,-13.164 -6.37,-27.859 3.65,-42.5 3.74,-5.476 -15.76,-6.347 -19.11,8.438 z m 80.87,13.008 c -17.81,-6.172 -24.84,14.66 -21.91,19.152 1.77,2.695 13.01,-3.067 21.77,2.578 6.73,4.344 10.45,-18.156 0.14,-21.73 z m -105.19,29.582 c -1.03,5.945 4.69,11.66 4.58,24.628 -0.16,15.918 -19.78,37.743 -33.08,51.766 6.24,0.012 14.41,1.484 23.58,5.734 19.79,9.161 23.68,30.196 24.24,31.055 0.27,0.391 -4.42,1.317 -11.16,1.406 0.72,0.36 1.46,0.723 2.19,1.121 19.35,10.372 24.42,32.813 23.5,33.301 -0.37,0.207 -5.19,0.957 -11.94,0.782 1.89,0.636 3.84,1.347 5.85,2.148 20.48,8.137 26.2,30.93 25.47,31.66 -0.31,0.324 -4.41,1.145 -10.37,1.301 1.8,0.703 3.66,1.512 5.55,2.449 18.71,9.289 25.18,30.188 24.21,30.879 -0.42,0.305 -4.21,1.035 -9.74,1.125 4.16,0.906 8.71,2.293 13.49,4.395 20.03,8.769 26.51,27.937 25.64,28.75 -0.37,0.351 -3.77,1.289 -8.87,1.707 4,0.89 8.36,2.121 13.02,3.711 19.81,6.769 27.82,25.703 26.64,25.812 -2.68,0.254 -6.36,1.551 -11.13,2.383 5.4,0.351 11.69,1.336 19.57,4.004 21.4,7.234 28.99,20.117 29.37,25.711 0.02,0.363 -2.56,1.484 -6.73,2.402 4.91,0.891 9.83,2.102 13.89,3.75 19.99,8.098 28.3,27.734 28.97,29.355 3.63,1.192 7.54,2.668 11.65,4.524 2.08,0.945 3.98,1.941 5.74,2.976 0.97,-0.742 2.54,-1.855 4.85,-3.347 3.03,-1.945 4.09,-2.395 2.6,-3.672 -68.02,-57.949 -118.99,-131.133 -141.23,-166.711 -0.63,-0.996 -1.8,-0.82 -3.68,-0.691 -23.83,1.582 -37.34,-26.778 -26.67,-53.36 -1.35,-5.41 -12.66,-15.851 -13.51,-16.601 -0.86,-0.762 -3.13,-4.082 0.73,-3.731 5.57,0.496 12.68,9.414 16.08,13.418 1.41,-1.758 6.65,-6.125 4.13,-8.594 -20.26,-19.875 -40.29,-30.566 -41.87,-31.328 -7.57,-3.703 12.66,-6.261 47.13,24.903 2.03,1.836 4.44,-7.188 7.51,-11.055 -5.92,-19.543 8.67,-57.258 6.41,-69.094 -0.4,-2.07 -1.64,-7.918 -8.53,-8.054 -34.16,-0.704 -37.51,0.859 -54.89,-4.258 -8.11,-2.395 -5.98,-7.746 -0.09,-6.145 6.66,1.809 13.65,4.512 50.65,2.199 9.03,-0.558 19.36,1.836 19.43,17.098 0.06,13.84 -10.94,55.098 -7.23,60.742 4.92,-3.691 8.47,-3.836 10.34,-4.168 -0.49,-13.457 21.18,-56.945 11.53,-80.929 -3.58,-8.907 -19.32,-8.243 -46.23,-5.575 -45.81,4.532 -60.66,-5.371 -61.59,0.118 z m -0.87,-33.118 c -1.96,7.903 -1.17,18.782 1.52,21.7 5.19,2.539 14.69,3.507 14.85,0.48 0.26,-4.836 -3.27,-16.309 0.88,-30.617 -0.95,-2.246 -13.9,-1.277 -17.25,8.437 z m -15.65,139.192 c 11.58,5.488 28.82,4.168 27.87,3.406 -0.94,-0.75 -5.48,-17.52 -18.52,-24.062 -13.02,-6.532 -21.63,-4.774 -26.32,-3.887 7.02,7.676 5.55,19.101 16.97,24.543 z m -24.03,-21.594 c -3.9,3.703 -12.33,13.02 -13.15,25.031 -0.04,0.594 -0.06,1.16 -0.05,1.746 -0.04,12.911 5.66,25.606 7.09,27.032 1.42,1.418 15.98,-9.911 16.21,-26.153 0.19,-14.082 -6.26,-22.176 -10.1,-27.656 z m -10.62,-16.719 c -0.04,-0.039 -0.08,-0.086 -0.12,-0.125 -32.24,37.969 -49.24,85.008 -49.24,136.453 0,117.512 95.6,213.106 213.12,213.106 31.01,0 60.81,-6.473 88.69,-19.258 -3.68,-1.707 -7.89,-4.207 -12.25,-7.781 -24.53,10.39 -49.23,15.273 -76.44,15.273 -111.02,0 -201.36,-90.324 -201.36,-201.34 0,-48.152 15.03,-90.468 44.45,-125.976 -1.71,-2.578 -4.09,-6.211 -6.85,-10.352 z m -0.42,-74.461 c -64.8,51.61 -103.57,129.532 -103.57,210.789 0,147.618 120.1,267.735 267.75,267.735 43.07,0 86.28,-10.789 124.2,-30.547 0.77,-0.399 0.88,-1.434 0.24,-2 -11.14,-9.727 -26.61,-28.82 -30.51,-34.141 -29.47,13.797 -61.03,20.848 -93.93,20.848 -122.36,0 -221.93,-99.539 -221.93,-221.895 0,-54.597 18.51,-104.402 53.41,-144.375 -2,-4.648 -5.57,-14.812 -5.57,-28.269 0,-11.133 2.06,-23.945 9.91,-38.145 z m 198.75,327.254 c -1.57,1.094 12.79,17.149 24.47,21.594 11.42,4.344 23.77,3.543 24.76,2.977 1,-0.567 -7.48,-14.473 -21.27,-20.059 -12.96,-5.254 -26.39,-5.606 -27.96,-4.512 z m -36.32,-29.511 c 0.21,0.851 12.11,17.597 24.35,21.847 11.66,4.031 25.92,1.328 27.45,0.684 1.54,-0.637 -8.25,-15.246 -23.23,-19.746 -13.47,-4.043 -28.78,-3.645 -28.57,-2.785 z m -35.96,-34.129 c -0.79,0.39 10.03,18.828 22.18,23.504 11.61,4.453 23.11,0.421 26.64,0.187 2.84,-0.187 -3.98,-13.547 -19.9,-19.426 -13.29,-4.89 -26.89,-5.261 -28.92,-4.265 z m -32.05,-35.43 c -0.96,0.723 13.21,19.258 25.03,24.726 10.4,4.805 23.98,3.79 25.13,3.036 1.13,-0.762 -5.54,-16.368 -19.25,-22.364 -13.07,-5.722 -29.95,-6.132 -30.91,-5.398 z m -26.73,-35.82 c 0.57,1.386 10.55,19.324 22.28,24.824 11.63,5.449 25.68,4.297 26.64,3.984 0.95,-0.312 -5.35,-16.172 -18.66,-22.773 -13.15,-6.535 -30.83,-7.422 -30.26,-6.035 z m -20.58,-35.344 c 0.86,4.551 9,19.629 21.23,25.078 v 0 c 12.26,5.461 26.46,5.059 28.07,4.395 1.61,-0.665 -5.1,-16.739 -17.44,-22.645 -13.81,-6.613 -19.34,-2.754 -31.86,-6.828 z m 1.05,-10.137 c 13.72,5.969 28.7,5.051 29.33,4.465 0.63,-0.578 -4.38,-17.453 -17.72,-24.609 -13.33,-7.141 -28.36,-7.805 -29.72,-6.106 -0.76,0.949 4.39,20.285 18.11,26.25 z m -21.82,37.617 c 5.28,-2.656 11.63,-10.332 12.23,-24.539 0.59,-14.269 -9.62,-26.34 -13.61,-28.242 -2.79,10.899 -8.06,13.184 -7.96,24.004 0.1,11.816 6.1,24.793 9.34,28.777 z m 36.23,18.762 c -0.29,-18.293 -11.77,-29.016 -15.2,-32.414 -2.13,3.633 -6.32,12.961 -6.6,22.746 -0.56,18.856 7.23,25.547 10.61,29.188 1.61,-5.399 11.34,-9.676 11.19,-19.52 z m 25.6,38.367 c 0,-3.523 -0.44,-5.527 -1.45,-8.984 -3.78,-13.008 -11.45,-18.485 -15.62,-24.363 -1.67,3.847 -4.75,9.304 -4.77,17.558 -0.04,15.723 9.54,29.129 15.55,33.36 2.28,0.097 6.29,-9.473 6.29,-17.571 z m 25.12,19.805 c -5.31,-11.551 -8.72,-11.934 -14.89,-19.141 -1.05,-1.238 -5.67,10.996 -1.2,26.36 3.58,12.304 11.82,16.855 15.8,21.023 1.58,1.641 5.93,-15.957 0.29,-28.242 z m 30.9,32.031 c -5.21,-9.101 -9.95,-7.012 -18.63,-19.922 -0.96,-1.425 -3.25,10.676 1.94,27.024 4.02,12.605 16.42,20.437 17.74,20.75 1.99,0.48 5.16,-17.039 -1.05,-27.852 z m 33.19,30.227 c -10.14,-15.117 -10.72,-9.953 -21.81,-24.727 -0.6,-0.82 -0.83,19.285 3.13,28.133 6.24,13.965 17.07,22.18 18.68,22.461 1.61,0.285 5.59,-17.527 0,-25.867 z m 30.35,22.508 c -8.27,-6.719 -12.04,-11.172 -16.88,-19.043 -1.64,-2.676 -5.65,14.902 5.11,31.777 6.59,10.344 19.72,19.621 19.44,18.391 -0.96,-4.122 6.35,-19.758 -7.67,-31.125 z m 27.68,39.043 c 8.53,10.109 23.01,18.242 24.63,17.246 1.66,-1.024 -2.43,-16.649 -11.77,-25.84 -9.45,-9.297 -24.05,-18.34 -25.75,-18.231 -1.69,0.106 5.21,17.723 12.89,26.825 z M 2747.29,353.949 c -4.31,4.969 -8.33,7.703 -8.75,7.41 -1.2,-0.839 -8.2,-12.812 -10.62,-26.785 -13.64,26.074 -21.19,52.442 -22.42,83.66 -4.18,106.086 84.66,191.516 193.07,191.133 24.74,-0.086 45.07,-4.656 67.29,-13.679 -4.97,-6.211 -8.59,-13.665 -11.04,-19.903 -0.11,5.75 -1.62,10.223 -1.2,13.809 0.26,2.215 -15.35,-2.649 -29.23,-24.739 -3.21,-5.117 -5.21,-10.781 -6.45,-15.996 -0.3,8.282 -2.24,14.739 -2.81,14.582 -1.42,-0.382 -17.25,-6.914 -25.5,-26.25 -1.45,-3.39 -2.5,-6.886 -3.28,-10.273 -0.69,5.898 -2.21,9.773 -2.69,9.754 -1.04,-0.039 -17.64,-6.863 -25.81,-26.738 -1.9,-4.618 -2.91,-9.344 -3.38,-13.731 -1.47,6.914 -4.15,11.152 -5,10.078 -5.72,-7.265 -16.91,-10.488 -22.85,-28.797 -1.41,-4.308 -1.96,-8.605 -2.03,-12.609 -2.46,6.191 -5.93,9.766 -6.72,9.602 -1.62,-0.344 -18.53,-16.407 -21.06,-32.598 -0.99,-6.387 -0.53,-12.316 0.45,-17.297 -3.22,5.215 -7.52,9.043 -9.25,14.356 -2.66,-1.415 -16.98,-14.872 -17.44,-32.11 -0.18,-6.699 0.82,-12.996 2.2,-18.308 -4.75,8.64 -11.51,12.695 -12.25,12.234 -1.24,-0.762 -11.93,-12.313 -14.41,-33.066 -0.58,-4.864 0.01,-9.52 1.18,-13.739 z m 249.58,234.481 c 10.83,4.875 21.31,4.953 22.43,4.816 2.47,-0.293 -5.46,-14.394 -19.6,-20.461 -14.58,-6.258 -25.45,-7.39 -26.69,-6.777 -1.87,0.918 12.34,17.226 23.86,22.422 z m -96.4,-222.149 c -2.96,0.645 -4.08,6.446 -3.47,8.731 1.34,5.097 9.16,15.625 11.98,19.316 0.71,0.918 2.14,0.07 2.3,-1.035 1.7,-12.227 -0.01,-29.383 -10.81,-27.012 z m 57.71,76.77 c -6.46,-4.387 -15.77,1.562 -13.91,4.219 12,17.117 27.99,29.043 34.39,33.015 10.27,6.399 11.37,6.848 11.9,3.235 0.33,-2.18 0.44,-13.379 -7.85,-22.473 -6.86,-7.547 -13.76,-6.914 -17.3,-7.703 -2.39,-0.539 -2.25,-6.914 -7.23,-10.293 z m -18.17,-87.199 c -12.05,-7.391 -18.6,6.73 -20.31,9.199 -0.73,1.066 -2.64,4.172 -1.61,9.472 0.82,4.18 1.53,9.856 -1.23,27.864 -1.2,7.918 15.18,27.558 18.86,30.996 3.84,3.562 9.4,-1.778 9.77,-7.578 0.68,-11.028 -5.5,-16.828 -11.82,-21.524 -7.75,-5.781 -9.23,-13.293 -7.75,-15.304 0.57,-0.782 4.05,-0.809 5.58,2.453 4.67,9.941 18.02,14.949 20.15,20.156 3.33,8.125 0.89,13.348 0.56,16.766 -0.28,2.988 2.64,3.742 4.84,3.418 2.84,-0.43 4.1,-4.286 5.55,-8.036 8.62,-22.48 -13.09,-36.074 -16.59,-41.398 -1.62,-2.461 3.36,-20.742 -6,-26.484 z m 60.82,136.66 c -0.62,3.605 25.59,12.422 26.5,9.816 1.68,-4.816 -5.41,-17.746 -14.19,-20.976 -9.96,-3.672 -14.11,-2.579 -13.73,-1.153 0.7,2.598 1.99,8.992 1.42,12.313 z m 61.84,16.015 c -3.08,-8.816 -27.46,-16.648 -26.3,-10.457 0.51,2.801 0.05,6.485 1.91,6.797 2.7,0.469 10.41,3.153 22.38,6.219 1.2,0.305 2.78,-0.371 2.01,-2.559 z m -24.62,64.993 c 3.58,2.253 7.43,3.21 9.69,0.964 7.86,-7.761 -8.52,-12.129 -5.12,-18.093 5.6,-9.797 14.51,-19.161 22.37,-25.207 3.7,-2.852 4.24,-9.246 -9.88,-12.176 -14.22,-2.942 -70.83,-17.852 -100.69,-49.492 -37.39,-39.621 -61.15,-90.938 -64.39,-83.879 -3.27,7.109 -10.76,8.254 -9.59,10.273 53.68,92.5 137.82,165.156 157.61,177.61 z M 2777.36,196.078 c -2.12,-0.422 -8.91,-0.683 -7.39,8.242 0.95,5.508 6.92,7.821 9.95,4.688 -0.64,-4.278 -2.12,-8.457 -2.56,-12.93 z m 305.3,246.199 c -4.35,9.102 -1.36,15.078 -2.66,21.739 -0.96,4.902 -8.26,21.086 -12.92,32.285 -2.2,5.273 11.28,3.984 1.33,23.027 -0.29,0.578 13.83,5.781 -0.29,16.496 -7.91,5.996 -13.45,13.36 -17.82,20 -0.6,0.918 -1.18,2.742 0.1,3.887 7.98,7.09 8.14,17.305 -0.52,22.527 -6.26,3.77 -13.45,-0.058 -20.05,-4.336 -2.18,-1.414 -3.27,-2.273 -5.55,-1.347 -1.15,0.468 -3.37,2.043 -5.39,3.418 8.16,7.871 9.74,15.644 9.11,16.945 -0.44,0.867 -13.82,3.875 -30.39,-2.98 -0.37,0.207 -0.76,0.421 -1.18,0.644 6.82,11.809 2.99,20.137 2.48,20.703 -0.01,0.012 -0.03,0.02 -0.04,0.02 12.43,17.343 24.76,28.886 36.95,39.972 0,0 0.26,0.293 0.27,0.293 0.79,0.801 1.09,1.7 -0.43,2.645 -1.28,0.812 -1.64,0.996 -3.2,1.855 -40.84,22.735 -87.4,34.688 -134.41,34.688 -152.49,0 -276.53,-124.063 -276.53,-276.524 0,-88.347 44.83,-173.554 118.08,-226.484 4.88,-3.523 8.26,-4.871 8.26,-4.871 1.22,-0.422 2.47,-0.41 3.24,0.586 l 1.09,1.426 c 0.69,0.898 0.96,1.757 0.96,2.539 0,2.019 -2.93,3.828 -6.35,8.906 -9.9,14.695 -14.28,31.394 -14.28,45.391 0,15.293 4.67,29.218 13.61,40.828 11.05,-11.504 35.12,-32.657 34.59,-51.883 -0.59,-21.613 -20.79,-20.547 -16.44,-36.75 2.74,-10.176 10.35,-5.977 11.67,-13.692 2.27,-13.367 20.24,-21.902 28.07,-20.73 1.9,0.281 3.51,-1.289 7.26,-5.098 5.34,-5.422 18.49,-4.687 24.32,-3.625 5.55,1.016 12.52,-4.05 24.12,-2.773 14.52,1.601 18.22,2.726 24.41,2.812 10.49,0.157 67.54,1.008 108.1,-5.351 7,-1.094 9.21,2.062 6.08,7.512 -14.7,25.605 -16.74,47.343 -8.26,74.726 14.98,-1.015 36.51,-5.07 64.87,11.981 10.07,6.046 15.69,18.937 15.2,28.535 -0.32,6.23 -3.04,14.121 -1.43,20.195 2.17,8.156 3.75,7.969 6.11,9.621 10.83,7.617 3.01,13.66 1.34,14.278 3.27,1.328 6.87,8.445 3.08,13.738 -1.94,2.062 -7.84,18.644 -1.04,22.09 7.35,3.73 15.72,5.312 24.16,9.015 5.8,2.422 10.43,9.188 7.12,18.164 -3.96,10.789 -26.12,61.543 -26.8,62.957"
         style="fill:#297a6a;fill-opacity:1;fill-rule:nonzero;stroke:none"
         id="path14911" />
      <path
         d="m 3044.22,463.051 c -14.65,-0.547 -31.66,-18.488 -37.22,-20.977 -5.83,-2.617 -3.75,-4.269 -0.36,-3.027 7.29,2.656 17.68,13.797 32.04,18.984 11.34,4.09 10.6,-5.234 14.85,-4.718 2,0.234 -0.85,10.05 -9.31,9.738"
         style="fill:#297a6a;fill-opacity:1;fill-rule:nonzero;stroke:none"
         id="path14913" />
      <path
         d="m 3042.13,420.961 c -0.67,-2.734 -16.35,-1.484 -24.88,-0.742 -2.03,0.176 -5.44,0.488 1.07,4.375 5.12,3.047 12.15,8.203 21.36,9.98 0.75,0.145 2.22,-0.09 2.6,-1.808 0.95,-4.305 0.53,-9.004 -0.15,-11.805 z m 5.4,27.723 c -1.21,-0.282 1.28,-6.543 -5.09,-6.934 -13.77,-0.848 -24.68,-13.887 -33.08,-17.801 -8.39,-3.906 -10.13,-3.847 -11.38,-4.179 -1.13,-0.305 -0.71,-1.739 0.22,-1.868 35.12,-4.687 48.6,-3.406 48.91,-2.129 0.56,2.415 -1.97,3.625 -1.44,5.176 1.32,3.918 1.98,11.321 0.48,16.406 -0.64,2.403 5.2,0.801 5.2,4.036 0,1.746 -1.76,7.793 -3.82,7.293"
         style="fill:#297a6a;fill-opacity:1;fill-rule:nonzero;stroke:none"
         id="path14915" />
      <path
         d="m 3087.98,370.949 c -2.69,0.039 -13.5,-4.902 -17.56,-7.488 -2.35,-1.496 -13.34,-8.273 -12.55,2.449 0.27,3.762 2.71,13.078 2.66,15.625 -0.1,3.867 -3.21,2.344 -3.27,0.051 -0.12,-5.383 -1.21,-9.473 -2.31,-15.781 -0.95,-5.403 3.74,-12.082 11.03,-8.196 6.06,3.223 14.32,8.77 21.64,10.168 1.86,0.36 2.2,3.145 0.36,3.172"
         style="fill:#297a6a;fill-opacity:1;fill-rule:nonzero;stroke:none"
         id="path14917" />
      <path
         d="m 2884.6,332.582 c -2.08,0.781 -1.51,-3.508 -4.32,-3.039 -3.68,0.625 -0.59,3.937 -5.38,9.016 -2.38,2.519 -8.38,3.582 -12.79,10.652 -7,11.191 -0.99,36.133 9.24,32.559 5.68,-1.993 4.68,-15.215 2.97,-24.168 -1.04,-5.52 7.54,-8.243 8.31,-6.309 1.31,3.242 -3.15,2.93 -4.18,5.887 -1.57,4.543 10.52,22.746 -5.27,28.008 -11.53,3.847 -19.12,-10.665 -17.73,-26.727 1.17,-13.547 10.17,-19.133 15.33,-21.047 6.94,-2.578 1.68,-12.09 11.05,-12.137 4.15,-0.019 5.01,6.465 2.77,7.305"
         style="fill:#297a6a;fill-opacity:1;fill-rule:nonzero;stroke:none"
         id="path14919" />
      <path
         d="m 2976.85,632.766 c 0.49,-0.184 1.05,-0.028 1.37,0.39 l 19.5,24.668 c 0.51,0.645 0.27,1.582 -0.49,1.895 -1.09,0.449 -2.19,0.89 -3.3,1.32 -0.5,0.195 -1.07,0.039 -1.41,-0.383 l -19.59,-24.773 c -0.52,-0.656 -0.24,-1.621 0.55,-1.906 1.13,-0.399 2.25,-0.801 3.37,-1.211"
         style="fill:#297a6a;fill-opacity:1;fill-rule:nonzero;stroke:none"
         id="path14921" />
      <path
         d="m 2940.66,642.824 c 1.12,-0.215 2.24,-0.437 3.36,-0.672 0.58,-0.117 1.15,0.184 1.38,0.731 l 11.41,28.254 c 0.29,0.691 -0.12,1.484 -0.86,1.648 -1.26,0.285 -2.52,0.547 -3.79,0.813 -0.35,0.066 -0.7,-0.11 -0.82,-0.442 -1.46,-3.582 -9.41,-23.269 -11.59,-28.679 -0.29,-0.723 0.15,-1.516 0.91,-1.653"
         style="fill:#297a6a;fill-opacity:1;fill-rule:nonzero;stroke:none"
         id="path14923" />
      <path
         d="m 2900.45,646.77 c 1.13,-0.008 2.26,-0.028 3.4,-0.059 0.63,-0.02 1.18,0.469 1.24,1.105 l 2.82,29.989 c 0.06,0.703 -0.48,1.308 -1.18,1.34 -1.15,0.027 -2.29,0.058 -3.43,0.085 -0.65,0.012 -1.18,-0.476 -1.24,-1.113 l -2.81,-30.019 c -0.07,-0.711 0.48,-1.317 1.2,-1.328"
         style="fill:#297a6a;fill-opacity:1;fill-rule:nonzero;stroke:none"
         id="path14925" />
      <path
         d="m 2861.37,643.84 c 1.12,0.176 2.23,0.344 3.35,0.508 0.69,0.109 1.16,0.754 1.03,1.437 l -5.72,29.559 c -0.12,0.644 -0.74,1.086 -1.38,0.988 -1.13,-0.176 -2.26,-0.352 -3.38,-0.539 -0.68,-0.117 -1.13,-0.762 -0.99,-1.434 l 5.7,-29.55 c 0.13,-0.645 0.74,-1.075 1.39,-0.969"
         style="fill:#297a6a;fill-opacity:1;fill-rule:nonzero;stroke:none"
         id="path14927" />
      <path
         d="m 2821.46,634.711 c 0.28,-0.547 0.91,-0.813 1.5,-0.606 1.07,0.372 2.15,0.743 3.23,1.102 0.7,0.234 1.03,1.035 0.7,1.699 l -13.52,27.16 c -0.28,0.547 -0.93,0.809 -1.51,0.614 -1.08,-0.379 -2.16,-0.77 -3.24,-1.16 -0.69,-0.247 -1,-1.036 -0.68,-1.692 l 13.52,-27.117"
         style="fill:#297a6a;fill-opacity:1;fill-rule:nonzero;stroke:none"
         id="path14929" />
      <path
         d="m 2784.18,617.473 c 0.38,-0.43 1.01,-0.535 1.52,-0.254 1,0.578 2,1.133 3.02,1.691 0.68,0.371 0.85,1.278 0.33,1.863 l -20.23,23.125 c -0.39,0.442 -1.04,0.547 -1.55,0.247 -0.99,-0.586 -1.99,-1.184 -2.99,-1.778 -0.64,-0.39 -0.78,-1.281 -0.28,-1.847 l 20.18,-23.047"
         style="fill:#297a6a;fill-opacity:1;fill-rule:nonzero;stroke:none"
         id="path14931" />
      <path
         d="m 2749.54,593.012 c 0.45,-0.313 1.05,-0.285 1.47,0.066 0.9,0.754 1.81,1.504 2.72,2.246 0.62,0.52 0.59,1.485 -0.07,1.946 l -25.59,17.773 c -0.45,0.32 -1.08,0.281 -1.5,-0.09 -0.88,-0.769 -1.77,-1.551 -2.64,-2.332 -0.58,-0.527 -0.52,-1.465 0.12,-1.914 l 25.49,-17.695"
         style="fill:#297a6a;fill-opacity:1;fill-rule:nonzero;stroke:none"
         id="path14933" />
      <path
         d="m 2719.33,561.887 c 0.5,-0.184 1.06,-0.039 1.39,0.371 0.74,0.93 1.5,1.847 2.27,2.754 0.53,0.636 0.29,1.613 -0.49,1.914 l -29.41,11.457 c -0.5,0.195 -1.08,0.039 -1.41,-0.391 -0.73,-0.937 -1.45,-1.887 -2.16,-2.832 -0.49,-0.644 -0.23,-1.582 0.54,-1.875 l 29.27,-11.398"
         style="fill:#297a6a;fill-opacity:1;fill-rule:nonzero;stroke:none"
         id="path14935" />
      <path
         d="m 2663.76,529.738 31.52,-4.402 c 0.51,-0.07 1.01,0.184 1.24,0.633 0.57,1.066 1.15,2.129 1.74,3.183 0.41,0.754 -0.05,1.68 -0.9,1.797 l -31.68,4.414 c -0.53,0.071 -1.03,-0.195 -1.27,-0.664 -0.53,-1.074 -1.06,-2.148 -1.58,-3.222 -0.36,-0.743 0.11,-1.622 0.93,-1.739"
         style="fill:#297a6a;fill-opacity:1;fill-rule:nonzero;stroke:none"
         id="path14937" />
      <path
         d="m 2646.52,481.957 32.14,3.074 c 0.49,0.051 0.9,0.383 1.04,0.852 0.38,1.172 0.75,2.344 1.13,3.504 0.27,0.84 -0.4,1.679 -1.28,1.593 l -32.33,-3.085 c -0.5,-0.04 -0.92,-0.403 -1.06,-0.891 -0.32,-1.172 -0.63,-2.352 -0.95,-3.535 -0.2,-0.821 0.47,-1.602 1.31,-1.512"
         style="fill:#297a6a;fill-opacity:1;fill-rule:nonzero;stroke:none"
         id="path14939" />
      <path
         d="m 2670.91,443.754 c 0.13,1.25 0.29,2.5 0.45,3.75 0.11,0.898 -0.76,1.601 -1.61,1.309 l -31.32,-10.899 c -0.47,-0.168 -0.8,-0.586 -0.82,-1.074 -0.09,-1.231 -0.17,-2.461 -0.24,-3.692 -0.05,-0.871 0.8,-1.503 1.62,-1.222 l 31.12,10.812 c 0.43,0.157 0.75,0.547 0.8,1.016"
         style="fill:#297a6a;fill-opacity:1;fill-rule:nonzero;stroke:none"
         id="path14941" />
      <path
         d="m 2670.12,400.988 c -0.09,1.289 -0.18,2.578 -0.25,3.867 -0.06,0.95 -1.1,1.477 -1.88,0.958 l -28.37,-18.633 c -0.39,-0.254 -0.61,-0.711 -0.55,-1.18 0.17,-1.25 0.33,-2.5 0.52,-3.742 0.12,-0.887 1.13,-1.336 1.88,-0.848 l 28.11,18.477 c 0.37,0.234 0.57,0.652 0.54,1.101"
         style="fill:#297a6a;fill-opacity:1;fill-rule:nonzero;stroke:none"
         id="path14943" />
      <path
         d="m 2677.22,358.234 c -0.34,1.301 -0.67,2.618 -0.98,3.938 -0.23,0.945 -1.43,1.258 -2.09,0.527 l -23.08,-25.41 c -0.3,-0.332 -0.4,-0.801 -0.25,-1.223 0.42,-1.218 0.85,-2.441 1.28,-3.66 0.31,-0.871 1.44,-1.086 2.06,-0.402 l 22.79,25.098 c 0.28,0.304 0.38,0.734 0.27,1.132"
         style="fill:#297a6a;fill-opacity:1;fill-rule:nonzero;stroke:none"
         id="path14945" />
      <path
         d="m 2689.02,320.285 -16.27,-30.957 c -0.2,-0.371 -0.19,-0.82 0.02,-1.18 0.68,-1.164 1.36,-2.316 2.05,-3.457 0.49,-0.812 1.68,-0.773 2.13,0.067 l 16.09,30.637 c 0.19,0.351 0.19,0.761 0.01,1.113 -0.62,1.25 -1.25,2.5 -1.85,3.758 -0.44,0.89 -1.72,0.91 -2.18,0.019"
         style="fill:#297a6a;fill-opacity:1;fill-rule:nonzero;stroke:none"
         id="path14947" />
      <path
         d="m 2711.91,285.492 c -0.6,0.84 -1.92,0.574 -2.17,-0.441 l -8.71,-35.938 c -0.09,-0.39 0,-0.789 0.26,-1.093 0.91,-1.055 1.82,-2.098 2.74,-3.133 0.66,-0.742 1.88,-0.442 2.1,0.515 l 8.61,35.539 c 0.09,0.352 0.01,0.731 -0.2,1.016 -0.89,1.172 -1.77,2.352 -2.63,3.535"
         style="fill:#297a6a;fill-opacity:1;fill-rule:nonzero;stroke:none"
         id="path14949" />
      <g
         id="g14951"
         transform="scale(10)">
        <text
           xml:space="preserve"
           transform="matrix(1,0,0,-1,9.61797,15.5816)"
           style="font-variant:normal;font-weight:300;font-size:12.69px;font-family:Roboto;-inkscape-font-specification:Roboto-Light;writing-mode:lr-tb;fill:#297a6a;fill-opacity:1;fill-rule:nonzero;stroke:none"
           id="text14955"><tspan
             x="0 7.7724586 16.74609 25.436518 29.157217 37.010738 45.390621 54.613281 61.598629 70.573242 78.785156 82.796875 92.019539 101.77442 110.33399 119.02441 126.87794 130.59767 139.15724 148.62209 156.83498 166.44728 175.1377 184.36037 192.80763 202.03027 208.94826 218.1709 227.47949 231.49123"
             y="0"
             sodipodi:role="line"
             id="tspan14953">FÜR EVOLUTIONÄRE ANTHROPOLOGIE</tspan></text>
      </g>
      <path
         d="M 914.402,335.355 H 870.77 v 19.012 h 43.632 v -19.012"
         style="fill:#297a6a;fill-opacity:1;fill-rule:nonzero;stroke:none"
         id="path14957" />
      <path
         d="m 555.215,316.477 h -0.492 l -30.254,87.746 H 493.141 V 285.16 h 23.886 v 81.445 l 0.489,0.086 29.433,-81.531 h 16.192 l 29.445,81.367 0.488,-0.078 V 285.16 h 23.887 v 119.063 h -31.16 l -30.586,-87.746"
         style="fill:#297a6a;fill-opacity:1;fill-rule:nonzero;stroke:none"
         id="path14959" />
      <path
         d="m 683.113,329.563 13.242,41.953 h 0.497 l 13.156,-41.953 z m 25.75,74.66 H 684.422 L 644.266,285.16 h 24.941 l 8.016,25.672 h 38.593 l 8.098,-25.672 h 24.941 l -39.992,119.063"
         style="fill:#297a6a;fill-opacity:1;fill-rule:nonzero;stroke:none"
         id="path14961" />
      <path
         d="m 866.266,285.16 -37.371,60.02 35.332,59.043 h -27.801 l -22.328,-42.2 -22,42.2 h -27.637 l 35.32,-59.043 -36.23,-60.02 h 27.89 l 22.981,42.93 22.976,-42.93 h 28.868"
         style="fill:#297a6a;fill-opacity:1;fill-rule:nonzero;stroke:none"
         id="path14963" />
      <path
         d="m 1003.45,352.172 c -3.43,-3.633 -8.481,-5.442 -15.134,-5.442 h -21.668 v 39.094 h 21.668 c 6.711,0 11.774,-1.867 15.174,-5.605 3.4,-3.731 5.11,-8.457 5.11,-14.18 0,-5.617 -1.72,-10.234 -5.15,-13.867 z m 17.16,41.582 c -7.84,6.98 -18.61,10.469 -32.294,10.469 H 942.762 V 285.16 h 23.886 v 43.172 h 21.668 c 13.684,0 24.454,3.457 32.294,10.383 7.85,6.922 11.78,16.082 11.78,27.48 0,11.395 -3.93,20.586 -11.78,27.559"
         style="fill:#297a6a;fill-opacity:1;fill-rule:nonzero;stroke:none"
         id="path14965" />
      <path
         d="m 1125.47,303.469 h -43.77 v 100.754 h -23.89 V 285.16 h 67.66 v 18.309"
         style="fill:#297a6a;fill-opacity:1;fill-rule:nonzero;stroke:none"
         id="path14967" />
      <path
         d="m 1179.32,329.563 13.26,41.953 h 0.48 l 13.17,-41.953 z m 1.31,74.66 -40.14,-119.063 h 24.93 l 8.02,25.672 h 38.6 l 8.09,-25.672 h 24.95 l -39.99,119.063 h -24.46"
         style="fill:#297a6a;fill-opacity:1;fill-rule:nonzero;stroke:none"
         id="path14969" />
      <path
         d="m 1293.81,365.383 0.48,0.078 48,-80.301 h 23.88 v 119.063 h -23.88 v -80.137 l -0.49,-0.09 -47.99,80.227 h -23.89 V 285.16 h 23.89 v 80.223"
         style="fill:#297a6a;fill-opacity:1;fill-rule:nonzero;stroke:none"
         id="path14971" />
      <path
         d="m 1479.38,395.305 c -8.18,7.09 -19.52,10.636 -34.02,10.636 -13.9,0 -25.14,-4.621 -33.69,-13.859 -8.57,-9.246 -12.84,-21.113 -12.84,-35.613 v -23.645 c 0,-14.551 4.38,-26.414 13.16,-35.605 8.78,-9.188 20.31,-13.778 34.59,-13.778 14.01,0 25,3.594 32.96,10.789 7.97,7.2 11.83,17.149 11.61,29.856 l -0.16,0.488 h -23.14 c 0,-7.746 -1.76,-13.476 -5.27,-17.219 -3.52,-3.73 -8.85,-5.605 -16,-5.605 -7.52,0 -13.4,2.891 -17.62,8.672 -4.22,5.781 -6.34,13.254 -6.34,22.402 v 23.809 c 0,9.101 2.01,16.523 6.01,22.277 4.01,5.75 9.59,8.633 16.73,8.633 7.68,0 13.37,-1.867 17.05,-5.605 3.68,-3.731 5.52,-9.415 5.52,-17.051 h 23.22 l 0.17,0.496 c 0.21,12.863 -3.76,22.844 -11.94,29.922"
         style="fill:#297a6a;fill-opacity:1;fill-rule:nonzero;stroke:none"
         id="path14973" />
      <path
         d="m 1616.11,404.223 h -29.53 l -32.63,-48.653 h -6.7 v 48.653 h -23.88 V 285.16 h 23.88 v 49.715 h 8.75 l 32.87,-49.715 h 30.42 l -44.4,63.699 41.22,55.364"
         style="fill:#297a6a;fill-opacity:1;fill-rule:nonzero;stroke:none"
         id="path14975" />
      <path
         d="m 1664.77,335.355 h -43.63 v 19.012 h 43.63 v -19.012"
         style="fill:#297a6a;fill-opacity:1;fill-rule:nonzero;stroke:none"
         id="path14977" />
      <path
         d="m 1718.72,284.945 h -24.47 v 118.778 h 24.47 V 284.945"
         style="fill:#297a6a;fill-opacity:1;fill-rule:nonzero;stroke:none"
         id="path14979" />
      <path
         d="m 1850.52,284.945 h -24.49 l -47.63,78.153 v -78.153 h -24.48 v 118.778 h 24.48 l 47.72,-78.321 v 78.321 h 24.4 V 284.945"
         style="fill:#297a6a;fill-opacity:1;fill-rule:nonzero;stroke:none"
         id="path14981" />
      <path
         d="m 1945.17,316.105 c 0,4.622 -1.63,8.176 -4.89,10.645 -3.26,2.48 -9.14,5.09 -17.63,7.832 -8.47,2.746 -15.19,5.449 -20.14,8.117 -13.49,7.285 -20.24,17.11 -20.24,29.453 0,6.414 1.81,12.137 5.43,17.168 3.62,5.028 8.81,8.965 15.58,11.785 6.78,2.833 14.37,4.25 22.8,4.25 8.49,0 16.05,-1.542 22.68,-4.609 6.64,-3.078 11.78,-7.414 15.46,-13.019 3.67,-5.594 5.5,-11.961 5.5,-19.082 h -24.47 c 0,5.441 -1.71,9.668 -5.13,12.687 -3.43,3.016 -8.25,4.52 -14.45,4.52 -5.97,0 -10.62,-1.258 -13.94,-3.789 -3.32,-2.528 -4.98,-5.86 -4.98,-9.989 0,-3.867 1.94,-7.101 5.84,-9.719 3.88,-2.605 9.61,-5.046 17.16,-7.332 13.93,-4.191 24.07,-9.386 30.43,-15.585 6.36,-6.204 9.54,-13.926 9.54,-23.165 0,-10.285 -3.88,-18.339 -11.66,-24.191 -7.78,-5.848 -18.25,-8.769 -31.4,-8.769 -9.14,0 -17.46,1.671 -24.97,5.019 -7.5,3.34 -13.23,7.922 -17.17,13.742 -3.95,5.821 -5.92,12.567 -5.92,20.235 h 24.56 c 0,-13.106 7.83,-19.661 23.5,-19.661 5.81,0 10.36,1.184 13.62,3.547 3.26,2.364 4.89,5.672 4.89,9.91"
         style="fill:#297a6a;fill-opacity:1;fill-rule:nonzero;stroke:none"
         id="path14983" />
      <path
         d="m 2082.37,383.898 h -36.38 v -98.953 h -24.47 v 98.953 h -35.9 v 19.825 h 96.75 v -19.825"
         style="fill:#297a6a;fill-opacity:1;fill-rule:nonzero;stroke:none"
         id="path14985" />
      <path
         d="m 2130.7,284.945 h -24.47 v 118.778 h 24.47 V 284.945"
         style="fill:#297a6a;fill-opacity:1;fill-rule:nonzero;stroke:none"
         id="path14987" />
      <path
         d="m 2248.78,383.898 h -36.38 v -98.953 h -24.47 v 98.953 h -35.9 v 19.825 h 96.75 v -19.825"
         style="fill:#297a6a;fill-opacity:1;fill-rule:nonzero;stroke:none"
         id="path14989" />
      <path
         d="m 2360.98,403.723 v -78.231 c 0,-13 -4.07,-23.281 -12.19,-30.84 -8.14,-7.558 -19.24,-11.339 -33.33,-11.339 -13.87,0 -24.89,3.671 -33.04,11.015 -8.15,7.336 -12.31,17.422 -12.48,30.266 v 79.129 h 24.47 v -78.399 c 0,-7.773 1.87,-13.445 5.59,-17.011 3.73,-3.563 8.87,-5.34 15.46,-5.34 13.76,0 20.75,7.234 20.96,21.699 v 79.051 h 24.56"
         style="fill:#297a6a;fill-opacity:1;fill-rule:nonzero;stroke:none"
         id="path14991" />
      <path
         d="m 2478.82,383.898 h -36.38 v -98.953 h -24.47 v 98.953 h -35.9 v 19.825 h 96.75 v -19.825"
         style="fill:#297a6a;fill-opacity:1;fill-rule:nonzero;stroke:none"
         id="path14993" />
    </g>
  </g>
</svg>
