<?xml version="1.0" encoding="utf-8"?>
<!-- Generator: Adobe Illustrator 22.1.0, SVG Export Plug-In . SVG Version: 6.00 Build 0)  -->
<svg version="1.1" id="Layer_1" xmlns="http://www.w3.org/2000/svg" xmlns:xlink="http://www.w3.org/1999/xlink" x="0px" y="0px"
	 viewBox="0 0 708.7 297.3" enable-background="new 0 0 708.7 297.3" xml:space="preserve">
<g>
	<path fill="#472C85" d="M68.9,193.7c-19.8,0-34.9-17-34.9-36.8c0-19.8,15.1-36.8,34.9-36.8c19.8,0,34.9,17.5,34.9,36.8
		C103.8,176.2,88.7,193.7,68.9,193.7 M123.3,211.9v-55l-0.3,0.3c0-0.1,0-0.2,0-0.2c0-31.1-24.5-55-54.1-55
		c-30.6,0-54.1,23.8-54.1,55c0,31.4,23.6,55,54.1,55c13.2,0,25.4-4.8,34.9-12.9v12.9H123.3z"/>
	<path fill="#472C85" d="M188.9,123c0.2,0-0.1-19.5-0.1-19.5c-27.1,0.1-47.7,19.5-48.4,44.5c0,0.3,0,0.6,0,0.9
		c-0.1,18.5,0,44,0,62.5h19.9v-62.2C160.3,133.5,173.1,122.6,188.9,123"/>
	<path fill="#472C85" d="M686.6,148.8c0-0.3,0-0.6,0-0.9c-0.7-24.3-20.1-43.3-46.1-44.4v0c-0.4,0-0.8,0-1.1,0c-0.4,0-0.8,0-1.1,0
		l0,0c-26,1.1-45.4,20.1-46.1,44.4c0,0.3,0,0.6,0,0.9c-0.1,18.6,0,44,0,62.5H612v-62.2c0-15.3,12.2-26,27.4-26.2
		c15.2,0.2,27.3,10.9,27.4,26.2v62.2h19.9C686.6,192.8,686.7,167.4,686.6,148.8"/>
	<path fill="#472C85" d="M314.9,103v108h19.5v-88.5c0-5.2-2.1-10.1-5.7-13.7C325,105,320,103,314.9,103"/>
	<path fill="#472C85" d="M324.6,66.8c-6.5,0-11.9,5.3-11.9,11.9c0,6.5,5.3,11.9,11.9,11.9c6.5,0,11.9-5.3,11.9-11.9
		C336.5,72.1,331.2,66.8,324.6,66.8"/>
	<path fill="#472C85" d="M208.5,157c0-19.8,15.1-36.8,34.9-36.8c19.8,0,34.9,17.5,34.9,36.8c0,19.3-15.1,36.8-34.9,36.8
		C223.6,193.7,208.5,176.7,208.5,157 M297.5,157c0-0.6,0-1.1,0-1.6l0.1,0.1V60.2c0-10.7-8.7-19.4-19.5-19.4v74
		c-9.4-8-21.6-12.8-34.7-12.8c-30.5,0-54.1,23.6-54.1,55c0,31.1,23.4,55,54.1,55C273,211.9,297.5,188.1,297.5,157"/>
	<path fill="#472C85" d="M403.4,193.3c-19.8,0-34.8-17-34.8-36.8c0-19.8,15-36.8,34.8-36.8c19.7,0,34.9,17.5,34.9,36.8
		C438.3,175.8,423.1,193.3,403.4,193.3 M403.4,101.5c-30.6,0-54,23.8-54,55c0,31.4,23.4,55,54,55c12.7,0,24.5-4.5,33.8-12.1v21.4
		c-0.1,15.6-12.8,26.5-28.6,26.2c-0.2,0,0.1,19.5,0.1,19.5c27.1-0.1,47.7-19.4,48.4-44.5c0-0.3,0-0.6,0-0.9c0.1-17,0-39.8,0-57.8
		c0.3-2.2,0.4-4.5,0.4-6.8C457.5,125.4,433,101.5,403.4,101.5"/>
	<path fill="#472C85" d="M492.5,147.5c3.7-15.3,16-27.1,32.5-27.1c16.3,0,28.7,12,32.4,27.1H492.5z M524.9,102.3
		c-30.7,0-52.8,23.8-52.8,55c0,31.4,22.3,55,52.8,55c21,0,38.9-12.2,47.4-30.4H550c-6,7.4-14.7,12.2-25.1,12.2
		c-16.5,0-28.9-11.9-32.5-27.4h70.5v0H577c0.5-3,0.7-6.2,0.7-9.4C577.7,126.1,554.5,102.3,524.9,102.3"/>
</g>
</svg>
