<svg id="_1" data-name="???? 1" xmlns="http://www.w3.org/2000/svg" viewBox="0 0 489.87 489.75"><defs><style>.cls-1{fill:#242d6b;}.cls-1,.cls-2{fill-rule:evenodd;}.cls-2{fill:#fff;}</style></defs><title>bcm</title><path class="cls-1" d="M0,0H489.87q0,244.88,0,489.74-244.94,0-489.87,0Z"/><path class="cls-2" d="M212.21,343.47c5-1.1,10.89,1,13.16,5.78,1.65,3.2,1.31,6.88,1.33,10.35,0,3.68.06,7.36,0,11a11.5,11.5,0,0,1-2.75,3.19c-2.27,1.93-5.26,3.39-8.32,2.85-5.19-.64-9.45-4.7-11.15-9.53a23.42,23.42,0,0,1,.23-16.73c1.36-3.24,4-6.14,7.53-6.95Zm179.23,1.17a7.48,7.48,0,0,1,5.48-2.26,6.56,6.56,0,0,1,4.55,2,13.14,13.14,0,0,1,3.25,6.61q-8.49.36-17,.7a14.74,14.74,0,0,1,3.71-7.05Zm-224.12-.1a7.43,7.43,0,0,1,5.59-2.15,6.66,6.66,0,0,1,4.7,2.37A13.79,13.79,0,0,1,180.5,351c-5.66.23-11.32.48-17,.7a14.49,14.49,0,0,1,3.8-7.15Zm250.45-8.81c.84.07,2.57-.32,2.51,1-.42,1-1.7.54-2.52.65,0-.55,0-1.1,0-1.65Zm-.53-.49c0,1.5,0,3,0,4.5.91-.11.35-1.26.52-1.86l1.3,0c.58.69,1,1.69,2,1.87a13.3,13.3,0,0,0-1.33-1.91c.7-.32,1.42-1,1-1.86-.72-1.2-2.37-.66-3.52-.78Zm.2-1.39a4,4,0,0,0,1.44,7.7,4,4,0,1,0-1.44-7.7Zm-147-47.59c3.31-.17,6.73-.61,9.95.4a5.72,5.72,0,0,1,3.87,3.26A7,7,0,0,1,283,296.7a12.66,12.66,0,0,1-6.19,3.69,21.42,21.42,0,0,1-14.49-.76c-2.13-.92-4.13-2.83-4.12-5.31s2.07-4.54,4-6c1.27-.83,2.57-1.9,4.17-1.86l4-.24Zm87.2-32.38a9.8,9.8,0,0,1,8.75,2.5c3.71,3.68,5,9.14,5.05,14.23-.16,4.74-1.65,9.83-5.38,13s-9.44,2.51-12.75-.78c-3.84-3.74-5.38-9.36-5.19-14.61.25-4.46,1.63-9.23,5.13-12.24a9.53,9.53,0,0,1,4.39-2.09Zm-52.26,1.06a6,6,0,0,1,6.92-.28c2.14,1.49,3.16,4,3.73,6.49-4.9.22-9.81.42-14.71.63a12,12,0,0,1,4.06-6.84Zm-39.13-1.09a6.85,6.85,0,0,1,6.56,2.05,12.73,12.73,0,0,1,2.81,8.17,13.26,13.26,0,0,1-1.64,7.26,5.46,5.46,0,0,1-4.33,2.57,7.58,7.58,0,0,1-6.75-3.92,14.65,14.65,0,0,1-1.41-10.41c.53-2.5,2.09-5.14,4.76-5.72ZM228.81,255a6,6,0,0,1,6.92-.33c2.15,1.48,3.22,4.05,3.77,6.52l-14.7.62a11.9,11.9,0,0,1,4-6.81Zm-74.73-1.07a9.8,9.8,0,0,1,8,1.75,15.76,15.76,0,0,1,5.15,8.69,21.56,21.56,0,0,1-1.32,15,11.64,11.64,0,0,1-5.21,5.48,9.84,9.84,0,0,1-10-1.21,16.1,16.1,0,0,1-5.31-8.59,21.56,21.56,0,0,1,1.33-15.13,10.73,10.73,0,0,1,7.34-6ZM173.31,174a117.44,117.44,0,0,1,13.54-3.86c0,5.95,0,11.9,0,17.85-2.71,2-5.48,4.11-8.71,5.26a12.23,12.23,0,0,1-9.08-.15,8.4,8.4,0,0,1-4.54-5.34c-.83-2.75-.83-6,.9-8.4,1.88-2.67,4.94-4.17,7.9-5.36ZM97.73,153.61a66.94,66.94,0,0,1,10.21-.13A28.3,28.3,0,0,1,123,159.67a27.12,27.12,0,0,1,8.79,12.72,16.43,16.43,0,0,1-.73,11.32,19.28,19.28,0,0,1-9,9.4,25.17,25.17,0,0,1-13.88,2.63A11.53,11.53,0,0,1,101.3,193a11.31,11.31,0,0,1-3-6.31,45.68,45.68,0,0,1-.52-7.75V153.61Zm229.93-11.89a16.88,16.88,0,0,1,13.95,3.81,26.72,26.72,0,0,1,7.49,12.07A39.35,39.35,0,0,1,350.3,178a30.16,30.16,0,0,1-6,13,16.71,16.71,0,0,1-8.18,5.48,17.26,17.26,0,0,1-14.1-2.32A24.34,24.34,0,0,1,313.82,184,37.53,37.53,0,0,1,311,162.26c.89-5.34,2.83-10.67,6.43-14.8a17.07,17.07,0,0,1,10.26-5.74ZM97.73,111.07a43.74,43.74,0,0,1,18.38,3.6c4.38,2,8.33,5.41,10.15,10a18.79,18.79,0,0,1,.21,13.49c-1.59,4.05-5.1,7-9,8.82-6.16,2.88-13.06,3.68-19.79,3.82V111.07ZM245.28,344.3c.08.43,0,1,.5,1.19,2.09,1.26,4.75,2.75,4.85,5.51.15,6.42,0,12.85.06,19.28-.11,2.16.17,4.53-1,6.45-1.39,1.76-3.83,1.89-5.87,2.29,0,.44,0,.89,0,1.34h20.6c0-.45,0-.89,0-1.34a14.75,14.75,0,0,1-5.06-1.37,3.89,3.89,0,0,1-1.61-2.91,58.56,58.56,0,0,1-.2-7.13c0-8.94,0-17.88,0-26.81-.32-.15-.64-.28-1-.42-3.77,1.3-7.52,2.63-11.29,3.92ZM391.5,342a19.19,19.19,0,0,0-8,6.75,22.82,22.82,0,0,0-3.63,15.91,19.62,19.62,0,0,0,7.2,12.79A17.69,17.69,0,0,0,404.3,380,21.34,21.34,0,0,0,414.45,371c-.46-.32-.91-.63-1.36-1a13,13,0,0,1-7.26,5.16,15.38,15.38,0,0,1-10.18-1.27,15.92,15.92,0,0,1-8.31-11.67c-.55-2.93,0-5.9.15-8.84h25.64a14.52,14.52,0,0,0-2.76-8.15,12.58,12.58,0,0,0-8.39-4.69A19.72,19.72,0,0,0,391.5,342Zm-49.84-.92q-4.28,1.61-8.56,3.18c0,.31.08.62.14.93,1.29,1.08,2.79,2,3.6,3.55a9.32,9.32,0,0,1,.63,4.29c0,6.22,0,12.45,0,18.67-.1,1.83,0,3.94-1.3,5.4-1.49,1.37-3.64,1.52-5.54,1.88,0,.44,0,.89,0,1.34H351.2c0-.45,0-.9,0-1.34-1.81-.33-3.78-.47-5.33-1.55s-1.44-3.36-1.54-5.11c0-7.81-.06-15.62,0-23.43a9.31,9.31,0,0,1,2.46-2.07,12.78,12.78,0,0,1,9.78-1.5,8.11,8.11,0,0,1,5.37,3.58c1.57,2.56,1.78,5.66,1.84,8.59,0,5,.08,10.07,0,15.11-.11,1.65-.17,3.62-1.57,4.76s-3.46,1.29-5.26,1.62c0,.44,0,.89,0,1.34,6.88,0,13.75,0,20.62,0,0-.45,0-.89,0-1.33-1.79-.33-3.72-.47-5.27-1.53-1.37-1.05-1.45-2.95-1.54-4.53-.12-5,0-10.09-.06-15.14,0-3.46.22-7-.78-10.37a9.27,9.27,0,0,0-4.3-5.71,14,14,0,0,0-9-1.07c-4.74.9-8.77,3.72-12.59,6.51.22-2.15.44-4.29.69-6.43-1-.63-2,0-3,.37Zm-32.93,3.17c-.23,1.17,1.08,1.45,1.81,2,1.68,1.05,3.47,2.53,3.53,4.68.15,3.17,0,6.34.07,9.52,0,4.16.08,8.32-.09,12.48-.11,1.58-.25,3.46-1.64,4.49S309,378.7,307.24,379v1.34h20.64a6.38,6.38,0,0,0-.13-1.33c-1.86-.43-4-.46-5.47-1.77C321,376,321.09,374,321,372.38c-.09-10.56,0-21.11-.06-31.66l-1-.33c-3.75,1.28-7.49,2.62-11.24,3.9Zm-33.39,2.63A20.72,20.72,0,0,0,269,360.53a20.08,20.08,0,0,0,6.83,16.66,17.65,17.65,0,0,0,13.17,4,21.12,21.12,0,0,0,13.72-7.26c-.35-.46-.7-.9-1.05-1.34a16.94,16.94,0,0,1-6.8,3.22,15.35,15.35,0,0,1-10.1-1.87,17,17,0,0,1-7.49-9.1,20.4,20.4,0,0,1,.38-15,11.37,11.37,0,0,1,5.17-5.82,7.15,7.15,0,0,1,6-.27c2.58,1.14,4.35,3.49,6.83,4.78,2.83,1.5,6.56-1.93,5.41-4.89-.61-1.46-2.2-2.14-3.62-2.55a23.83,23.83,0,0,0-22.08,5.86Zm-108.5-4.68a19.28,19.28,0,0,0-8,7.16,23,23,0,0,0-3.24,15.21,19.81,19.81,0,0,0,6.86,12.6,17.69,17.69,0,0,0,17.59,2.84A21.39,21.39,0,0,0,190.23,371l-1.34-1a13.24,13.24,0,0,1-7,5.09,15.24,15.24,0,0,1-11.44-1.76,16.14,16.14,0,0,1-7.38-11.53c-.46-2.8.06-5.61.21-8.41,8.55,0,17.1,0,25.65,0a14.24,14.24,0,0,0-3.18-8.66,12.83,12.83,0,0,0-8.4-4.24,19.74,19.74,0,0,0-10.49,1.74Zm251-8.89a4.35,4.35,0,1,0,5.41,3.38,4.38,4.38,0,0,0-5.41-3.38Zm-101.24-9.86a4.53,4.53,0,1,0,6,3.49,4.57,4.57,0,0,0-6-3.49Zm-64.4,0a4.54,4.54,0,1,0,5.83,3.49,4.57,4.57,0,0,0-5.83-3.49Zm-29.78.33c0,.22,0,.67,0,.9a38.85,38.85,0,0,0,3.72,2.27c.67.33.59,1.16.63,1.8,0,4.17,0,8.34,0,12.51a30.13,30.13,0,0,0-11.39-.57A23.89,23.89,0,0,0,201.1,348a21.42,21.42,0,0,0-5.55,13.33,19.65,19.65,0,0,0,5.32,14.77,15.2,15.2,0,0,0,13.43,4.93c4.94-.8,8.93-4.12,12.4-7.5,0,2.79,0,5.57,0,8.36,4.87-1.07,9.73-2.18,14.6-3.26-.12-.51-.24-1-.35-1.51a16,16,0,0,1-5.26.15,2.48,2.48,0,0,1-1.79-2,26.72,26.72,0,0,1-.37-5.65q0-24.69,0-49.4l-1-.4-10.16,3.88ZM78.94,320.27v1.91c2,.17,4.16.13,6,1.11,1.57.9,2.06,2.78,2.27,4.45a87.63,87.63,0,0,1,.17,11.11c-.24,9.7-.59,19.4-1.29,29.08-.23,2.62-.37,5.44-1.91,7.68-1.4,1.92-3.9,2.4-6.1,2.83v1.91c6.58,0,13.16,0,19.74,0,0-.64,0-1.28,0-1.91-2.5,0-5.45-.41-7-2.66-1.62-2.49-1.59-5.61-1.63-8.46.15-12.8.66-25.59.79-38.39,5,11.32,9.86,22.76,15.35,33.87,2.68,5.39,4.66,11.09,7.07,16.6l1.37-.05c2.48-6.28,5.27-12.43,8.07-18.58q7.14-15.37,14.48-30.67c.62,14.27.61,28.56,1,42.84.07,1.48-.2,3.25-1.59,4.09-2,1.18-4.45,1.19-6.72,1.39,0,.64,0,1.29,0,1.93h23.89v-1.93c-2.21-.22-4.6-.22-6.54-1.43-1.34-.87-1.63-2.58-1.61-4.05-.23-13.75-.68-27.49-.93-41.23.05-2.41,0-5.1,1.54-7.1,1.86-2.11,4.94-2.18,7.54-2.44,0-.64,0-1.27,0-1.9H138.26q-11.41,23.7-22.8,47.41c-1.39-3.78-3.27-7.35-4.85-11.05-5.35-12.12-10.66-24.26-16-36.36-5.21,0-10.42,0-15.63,0Zm278.37-68.14A18.52,18.52,0,0,0,342.67,262a18,18,0,0,0,1.93,18.78,18.44,18.44,0,0,0,12.23,6.35,20.16,20.16,0,0,0,14.49-3.53,17.26,17.26,0,0,0,7-11.38A17.46,17.46,0,0,0,374,257.61c-4.22-4.46-10.71-6.16-16.69-5.48Zm-55.87,3.09c-7.89,5.82-9.62,18.3-3.59,26a15.52,15.52,0,0,0,16,5.61,18.11,18.11,0,0,0,10.59-8.39c-.41-.29-.8-.58-1.18-.88a13,13,0,0,1-3.89,3.56,11.7,11.7,0,0,1-8.1,1,13.34,13.34,0,0,1-9.95-9.66c-.93-3-.46-6.16-.24-9.22h22.2a12.29,12.29,0,0,0-2.95-7.69,11,11,0,0,0-6.63-3.37,16.73,16.73,0,0,0-12.24,3.07Zm-42.95.39a11.09,11.09,0,0,0-3.27,12.23,12.55,12.55,0,0,0,5.57,6.2c-2,1.54-4.07,3-5.36,5.24a3.56,3.56,0,0,0,.72,4.22c1.69,1.79,4.14,2.57,6.48,3.1-2.75,1.56-5.74,2.88-7.9,5.26a7.62,7.62,0,0,0-2.13,6,7.4,7.4,0,0,0,3.55,4.9,17.39,17.39,0,0,0,9.32,2.28,28.79,28.79,0,0,0,17.69-5.76c2.69-2.14,5.06-5,5.85-8.38a7.51,7.51,0,0,0-2-7.18c-2.49-2.36-6.09-3-9.39-3-3.08,0-6.15.22-9.22.32-1.94,0-4,.28-5.81-.51a3,3,0,0,1-2-2.53,4.68,4.68,0,0,1,1.46-3.37,17.16,17.16,0,0,0,10.44.36,13.09,13.09,0,0,0,8.48-6.65,12.14,12.14,0,0,0-.42-10.9l9.29.22v-3.22c-3.58,0-7.17.05-10.75,0-1.37-.36-2.62-1.11-4-1.47-5.52-1.78-12.12-1.19-16.66,2.66Zm-33.38-.5c-8,5.81-9.8,18.5-3.62,26.27a15.47,15.47,0,0,0,16.1,5.42,18.17,18.17,0,0,0,10.34-8.32l-1.15-.9a12.39,12.39,0,0,1-4.75,4,12.83,12.83,0,0,1-12.54-2,14.47,14.47,0,0,1-5.24-11.69c.06-1.57.23-3.14.33-4.71q11.1,0,22.21,0a13,13,0,0,0-1.95-6.39,10.52,10.52,0,0,0-6.93-4.54,16.65,16.65,0,0,0-12.8,2.83Zm-71.31-3a19.56,19.56,0,0,0-9.67,3.91,17.06,17.06,0,0,0-6.41,10.65A18.17,18.17,0,0,0,139.88,279a17.07,17.07,0,0,0,9.59,7.34,21.36,21.36,0,0,0,15-.68,18,18,0,0,0,9.08-8.78c3.1-6.68,1.65-15.43-4-20.28-4.24-3.7-10.16-5.05-15.67-4.41Zm-59.05-14a26.76,26.76,0,0,0-11,12.48,27.32,27.32,0,0,0-1,18.42A23.83,23.83,0,0,0,91,280.93c6.59,5.13,15.24,7,23.45,6.47a33.6,33.6,0,0,0,13-3.22,72,72,0,0,0,4.13-13.29c.23-.64-.63-.63-1-.89a46.63,46.63,0,0,1-4.47,8.69,15.79,15.79,0,0,1-6.71,5.75,17.5,17.5,0,0,1-11.32.48,23.76,23.76,0,0,1-12.82-9.4,27,27,0,0,1-4.73-15.33,27.58,27.58,0,0,1,4.88-16.28,19.92,19.92,0,0,1,11.33-7.73c4.26-1,9-1.07,13,1a15.71,15.71,0,0,1,7.43,9.43c.45,1.2.55,2.51,1,3.7l1.06.07c0-4.2,0-8.39,0-12.59a33.21,33.21,0,0,0-17.42-4.11,34.1,34.1,0,0,0-17,4.5Zm105.75-1.81c2.79-1,5.55-2.12,8.34-3.15.42-.22.87,0,1.31.05q0,19.13,0,38.26c0,3,0,5.93.06,8.89.08,1.33.2,2.93,1.4,3.76s3,1,4.5,1.26c0,.38,0,.77,0,1.16h-17.8c0-.39,0-.78,0-1.16,1.69-.34,3.65-.44,4.92-1.75,1.13-1.5.92-3.52,1-5.3,0-11.59,0-23.18,0-34.77a6.16,6.16,0,0,0-.85-3.83,20,20,0,0,0-2.84-2.67c0-.19,0-.56,0-.75Zm-20.76.07c0,.91.91,1.28,1.49,1.81a5.22,5.22,0,0,1,2.3,3.87c.13,3.66,0,7.33.06,11,0,8.5,0,17,0,25.51-.1,1.72.08,3.7-1.08,5.13-1.29,1.24-3.2,1.36-4.87,1.68v1.16h17.82v-1.16c-1.66-.34-3.57-.39-4.89-1.59-1.09-1.27-1-3.07-1.05-4.63,0-15.3,0-30.6,0-45.9l-.84-.28-8.9,3.4ZM397,233.35a19.05,19.05,0,0,0-7.91,8.67,25.57,25.57,0,0,0-1.9,10.35c-1.86,1.1-3.74,2.16-5.61,3.25-.49.17-.62.62-.66,1.1h6.27c0,7.39,0,14.78,0,22.18-.11,1.64,0,3.56-1.15,4.87-1.34,1.21-3.25,1.32-4.94,1.64v1.16h19.36c0-.39,0-.78,0-1.17-1.93-.3-4-.35-5.75-1.35-1.41-.9-1.5-2.76-1.57-4.26-.06-7.69,0-15.38,0-23.06h10V253.5c-3.32,0-6.63,0-10,0,0-4.5-.21-9.09,1-13.48a9,9,0,0,1,3-5.14,5.13,5.13,0,0,1,5.24-.23,16.09,16.09,0,0,1,5.86,5.47,4.89,4.89,0,0,0,3.4-1.14,3.5,3.5,0,0,0-.28-4.76,10.06,10.06,0,0,0-5.46-2.38,13.54,13.54,0,0,0-8.82,1.5ZM205.47,139.89v2c2.38.45,5.07.81,6.75,2.74a23,23,0,0,1,2.95,6q8.69,24.69,17.35,49.36a51.1,51.1,0,0,1-4.19,9.73c-.79,1.18-1.86,2.77-3.49,2.53-2.51-.68-4.48-2.51-6.76-3.64a6.4,6.4,0,0,0-4.16,5.6,6.68,6.68,0,0,0,3.12,6.33,7.35,7.35,0,0,0,6.28.45,11.56,11.56,0,0,0,5.32-4.75,58.22,58.22,0,0,0,5-10.09l11.61-28.45c3-7.43,6-14.91,9.26-22.24,1.63-3.58,2.87-7.45,5.51-10.44,1.78-2,4.49-2.82,7.07-3.12v-2c-7.76,0-15.52,0-23.28,0,0,.67,0,1.34,0,2,2,.34,4.24.68,5.84,2.1a5.51,5.51,0,0,1,1.53,4.35,32.81,32.81,0,0,1-1.61,7.9c-1.45,4.77-3.14,9.45-4.75,14.17-2.16,6.2-4.24,12.42-6.45,18.6q-6.52-17-13.09-33.95a32.56,32.56,0,0,1-2.29-7.32,4.53,4.53,0,0,1,1.28-4.09c1.62-1.38,3.85-1.59,5.89-1.76,0-.68,0-1.35,0-2-8.23,0-16.45,0-24.68,0Zm-30.34.09A36.1,36.1,0,0,0,160.58,147a15,15,0,0,0-4.65,5.71,4,4,0,0,0,1.43,4.89,5.3,5.3,0,0,0,6.91-1.62c2-3.21,2.24-7.36,4.89-10.22,2.18-2.44,5.68-3,8.8-2.79,2.5.1,5.17,1,6.67,3.1,2,2.87,2.19,6.55,2.22,9.95,0,3.77,0,7.55,0,11.33.13.56-.57.47-.89.62-4,1-7.94,2-11.89,3.13-4.45,1.31-9,2.58-12.91,5.19a11.16,11.16,0,0,0-4.85,7.33,18.18,18.18,0,0,0,.61,9.51,8.81,8.81,0,0,0,5.15,5.13,18,18,0,0,0,9.69.42c5.72-1.18,10.81-4.4,15.09-8.29a9.46,9.46,0,0,0,3.09,6.49,9.85,9.85,0,0,0,7.92,2.14c3.8-.54,7.62-2.33,9.86-5.54l-1.5-1.66a7.53,7.53,0,0,1-4.82,2.21c-1.64,0-3.37.49-4.94-.17a2.25,2.25,0,0,1-1.14-2.22c0-10.79,0-21.57,0-32.36a30.66,30.66,0,0,0-2-11.77,12.82,12.82,0,0,0-6.26-6.84c-3.72-1.74-8-1.57-12-.73Zm198.76,4.42c0,.46,0,.91,0,1.37a22.13,22.13,0,0,1,5,4.53,8.29,8.29,0,0,1,1.46,4.88c.06,3.27,0,6.54,0,9.81-.05,7.41.12,14.82-.13,22.23-.17,2.42-.25,5.27-2.2,7s-4.86,1.94-7.39,2.43c0,.67,0,1.34,0,2,9.13,0,18.26,0,27.4,0,0-.67,0-1.35,0-2-2.61-.36-5.47-.71-7.5-2.54-1.72-1.59-1.89-4.1-1.94-6.29,0-4.15,0-8.31,0-12.47.06-5.82-.43-11.77,1.2-17.44.88-3.11,2.45-6.3,5.32-8a7.32,7.32,0,0,1,6.28-.8,27.37,27.37,0,0,1,6.09,4,14.9,14.9,0,0,0,5.77-4.9,6.28,6.28,0,0,0,1.09-4.26,5.83,5.83,0,0,0-3.18-4.52,9.53,9.53,0,0,0-6.93-.35,19.87,19.87,0,0,0-8.27,5.19A37.66,37.66,0,0,0,388.73,155c.06-5.3.34-10.6.5-15.9l-1.49-.54-13.85,5.86Zm-47.13-5.61a28.22,28.22,0,0,0-14.68,6,27.8,27.8,0,0,0-8.78,13.06,40,40,0,0,0-1.4,17.46,29,29,0,0,0,7.23,16.3,26.28,26.28,0,0,0,14.56,7.7,34.73,34.73,0,0,0,19.78-1.84,28.8,28.8,0,0,0,12.79-10.56,31.75,31.75,0,0,0,5.15-16.64,33.71,33.71,0,0,0-3.9-17.57,26.44,26.44,0,0,0-11-10.64,35.08,35.08,0,0,0-19.74-3.29Zm-56.67-25.11c4.37-2,8.73-4,13.12-5.88l1.43.55q0,38.11,0,76.21a26.8,26.8,0,0,0,.71,7.42,5.08,5.08,0,0,0,3,3.17,30.78,30.78,0,0,0,6.58,1.5c0,.66,0,1.33,0,2H266.25c0-.67,0-1.34,0-2,2.89-.56,6.2-.75,8.42-2.9,2-2.39,1.73-5.77,1.92-8.7.06-16.88,0-33.76,0-50.64-.06-3.75.15-7.51-.12-11.25s-3.62-6.09-6.38-8.14c0-.45,0-.9,0-1.34ZM76.2,109l0,2c3.38.53,6.94,1,9.91,2.8a7.5,7.5,0,0,1,3.19,5.72c.42,3.75.21,7.53.35,11.3q0,23.13,0,46.27c-.14,3.65.09,7.34-.39,11a7.55,7.55,0,0,1-3.08,5.45C83,195.68,79,196,75.41,196.73c0,.64,0,1.28,0,1.93l26.63.23a135.23,135.23,0,0,0,13.95-.21c5.52-.54,11.11-1.8,15.92-4.67a19.26,19.26,0,0,0,8.24-9.65A26.09,26.09,0,0,0,141,170a21,21,0,0,0-8.17-12.47c-4.62-3.51-10.22-5.31-15.76-6.74,1.24-.55,2.59-.78,3.87-1.23a24.24,24.24,0,0,0,9.78-5.42,16.52,16.52,0,0,0,4.64-9.71c.71-5.24.1-10.9-2.92-15.37-2.86-4.34-7.59-7-12.44-8.63-7.22-2.33-14.91-2.7-22.45-2.48C90.45,108.3,83.33,108.7,76.2,109Z"/></svg>