<?xml version="1.0" encoding="utf-8"?>
<!-- Generator: Adobe Illustrator 22.0.0, SVG Export Plug-In . SVG Version: 6.00 Build 0)  -->
<svg version="1.1" id="artwork" xmlns="http://www.w3.org/2000/svg" xmlns:xlink="http://www.w3.org/1999/xlink" x="0px" y="0px"
	 viewBox="0 0 254.7 110.8" style="enable-background:new 0 0 254.7 110.8;" xml:space="preserve">
<style type="text/css">
	.st0{fill:#FFFFFF;}
	.st1{fill:#817A67;}
	.st2{fill:#0074BC;}
</style>
<rect x="5" y="5" class="st0" width="91.9" height="91.9"/>
<g>
	<g>
		<g>
			<g>
				<path class="st1" d="M130.7,46.4c-11.1,0-18.5-8.5-18.5-21.1C112.1,12.7,119.7,4,131,4c4.6,0,8.4,1.4,11.5,3.5l-0.6,4.1
					c-3.2-2.3-6.8-4-10.9-4c-9,0-14.6,7.1-14.6,17.5c0,10.5,5.6,17.5,14.5,17.5c4.4,0,8.4-1.7,11.7-4.3l0.6,3.9
					C140,44.6,135.5,46.4,130.7,46.4z"/>
				<path class="st1" d="M152,10.9c-1.5,0-2.8-1.3-2.8-2.8s1.3-2.8,2.8-2.8s2.8,1.3,2.8,2.8C154.8,9.6,153.5,10.9,152,10.9z
					 M150.1,45.6v-28h3.9v28H150.1z"/>
				<path class="st1" d="M172.6,46.1c-4.4,0-7.3-1.7-7.3-6.9V20.9H161v-3.3h4.3V7.9l3.9-0.6v10.4h6.5l0.5,3.3h-7v17.6
					c0,2.8,1.1,4.1,4.1,4.1c0.9,0,2-0.2,2.6-0.3l0.6,3.3C175.7,45.9,174.2,46.1,172.6,46.1z"/>
				<path class="st1" d="M192.6,49.1c-2,5.5-4.5,7.2-8.6,7.2c-0.6,0-1.1-0.1-1.5-0.2l-0.5-3.4c0.6,0.1,1.4,0.2,2.3,0.2
					c2.3,0,3.7-1,4.7-3.7l1.3-3.4L179.7,18l3.8-0.7l8.7,23.9l8.3-23.5h4L192.6,49.1z"/>
				<g>
					<path class="st1" d="M216.2,24.2c-5.6,0-9.4,4.4-9.4,10.9c0,6.5,3.8,10.9,9.4,10.9c5.7,0,9.6-4.4,9.6-10.9
						C225.8,28.6,221.9,24.2,216.2,24.2z M216.2,43c-3.6,0-5.9-3.1-5.9-7.8c0-4.9,2.3-7.9,5.9-7.9s6,3.1,6,7.9
						C222.2,40,220,43,216.2,43z"/>
				</g>
				<g>
					<path class="st1" d="M230.6,20c0,0,0,4,0,4.6c-0.5,0-3.1,0-3.1,0v3c0,0,2.6,0,3.1,0c0,0.6,0,17.9,0,17.9h3.4V27.7h4.8l-0.5-3
						H234v-4.4c0-1.9,0.9-2.8,2.8-2.8c0,0,0.2,0,2.1,0.1l-0.8-3.2c-0.9-0.1-1.4-0.1-1.4-0.1C232.7,14.2,230.6,16.3,230.6,20z"/>
				</g>
				<path class="st1" d="M140.7,96.9V77.4h-22.7v19.5H114V56.1h4.1v17.6h22.7V56.1h4.1v40.9H140.7z"/>
				<path class="st1" d="M165.6,97.5c-7.2,0-12.5-5.3-12.5-14.6c0-9.3,5.5-14.6,12.5-14.6c7.3,0,12.7,5.3,12.7,14.6
					C178.4,92.2,172.8,97.5,165.6,97.5z M165.6,71.6c-5.6,0-8.6,4.7-8.6,11.3c0,6.5,3.1,11.2,8.6,11.2c5.7,0,8.7-4.6,8.7-11.2
					C174.4,76.5,171.3,71.6,165.6,71.6z"/>
				<path class="st1" d="M197,97.3c-2.8,0-5.3-0.5-7.3-1.4v11.2l-3.9,0.6V68.9h3l0.6,4c2.2-2.5,5-4.6,9-4.6
					c6.1,0,11.2,4.4,11.2,13.8C209.8,92.4,203.8,97.3,197,97.3z M198.1,71.8c-3.3,0-5.9,2-8.4,5v15.5c2.2,1.1,4.3,1.7,7.2,1.7
					c5,0,8.9-3.9,8.9-11.7C205.8,75.5,202.5,71.8,198.1,71.8z"/>
				<path class="st1" d="M238.9,83.2h-19.5c0.1,6.9,3.3,11,8.9,11c3.7,0,7-1.7,9.9-4.1l0.6,3.5c-2.8,2.4-6.4,4-10.7,4
					c-7.3,0-12.6-5-12.6-14.6c0-9,5.2-14.6,12.1-14.6c7.6,0,11.3,6.3,11.3,14C238.9,82.6,238.9,82.9,238.9,83.2z M227.6,71.5
					c-4.4,0-7.2,3.3-8,8.6h15.3C234.4,75.1,232.1,71.5,227.6,71.5z"/>
			</g>
			<path class="st2" d="M60.4,45.5c-0.1-3.3,0-6.4,0.2-9.2c0.3-4,0.6-6.8,1.4-8.9c-4.5-4.2-8.4-8.6-11.2-12.1
				c-3,3.3-6.9,7.6-11.3,11.7c0.8,2.1,1.5,5.3,1.7,9.2c0.1,1.3,0.2,2.6,0.2,3.9c2.9,2.4,6.5,4.9,9.5,5.9
				C53.7,46.5,57.2,46.1,60.4,45.5z M49.9,40.6c0-1.6,1.3-2.9,2.9-2.9s2.9,1.3,2.9,2.9c0,1.6-1.3,2.9-2.9,2.9
				C51.2,43.4,49.9,42.1,49.9,40.6z M52.5,50.1c-0.5,2.5-0.7,5.9-0.1,10.6c1.3,9.6,8.7,19.4,12,23.4c-1.5-8.8-3.5-23.8-3.9-36.8
				C58.1,48.3,55.3,49.3,52.5,50.1z M4.9,4.8v92.1H97V4.8H4.9z M69.9,11.6c2.3,0,4.1,1.8,4.1,4.1c0,2.3-1.8,4.1-4.1,4.1
				c-2.3,0-4.1-1.8-4.1-4.1C65.8,13.4,67.6,11.6,69.9,11.6z M32,11.6c2.3,0,4.1,1.8,4.1,4.1c0,2.3-1.8,4.1-4.1,4.1
				c-2.3,0-4.1-1.8-4.1-4.1C27.9,13.4,29.7,11.6,32,11.6z M92.9,20.2c-2.2,1.1-11.1,6.8-23.3,9.2c-0.8,3.6-1,8.6-0.1,15.4
				c2.3,17.8,19.5,36.5,20,37c0.2,0.2,0,0.5-0.2,0.4c-1.4-1-14.4-9.8-22.5-24.4c-1.4,13.9-0.5,32.9-0.4,33.6c0,0.5-0.4,0.4-0.5,0.2
				c-0.2-0.7-0.6-2.9-1.2-6.1c-2.7-2-9.4-7.4-14.1-15.8c-1,9.6-0.2,22.7-0.2,23.2c0,0.3-0.4,0.3-0.4,0.2c-0.6-2.2-4.6-25-3.6-38.3
				c0.2-2.7,0.7-4.9,1.2-6.4c-2.2-2.1-4.3-4.2-6-6.1c0.2,19.3-4.6,46.4-5.4,49.3c0,0.2-0.5,0.3-0.5-0.2c0.1-0.7,1-19.7-0.4-33.6
				c-8.2,14.6-21.1,23.4-22.5,24.4c-0.2,0.1-0.4-0.2-0.2-0.4c0.5-0.5,17.7-19.2,20-37c0.9-6.8,0.6-11.8-0.1-15.4
				C21.2,26.2,11.2,21.4,9,20.2c-0.2-0.1-0.2-0.5,0.2-0.4c2.5,0.8,16.9,5.2,25.3,3.8c4.8-1.5,10.8-5.9,15.2-9.7
				c-2-2.4-3.3-4.2-3.9-5c-0.2-0.2,0.1-0.6,0.3-0.3c0.7,0.6,2.5,2.3,4.8,4.3c2.3-2,4.1-3.7,4.8-4.3C56,8.4,56.3,8.7,56.1,9
				c-0.6,0.8-2,2.6-4.1,4.9c4.4,3.8,10.5,8.4,15.4,9.9c8.4,1.4,22.9-3.3,25.3-4C93.1,19.7,93.1,20.1,92.9,20.2z"/>
		</g>
		<path class="st1" d="M247.9,97.5c-2.7,0-4.5-1.8-4.5-4.6c0-2.7,1.9-4.6,4.5-4.6c2.7,0,4.5,1.9,4.5,4.6
			C252.4,95.6,250.5,97.5,247.9,97.5z M247.9,88.8c-2.1,0-3.8,1.5-3.8,4.1c0,2.6,1.7,4.1,3.8,4.1c2.2,0,3.9-1.5,3.9-4.1
			C251.8,90.3,250,88.8,247.9,88.8z M249.2,95.4l-1.5-2.2h-0.5v2.1h-0.9v-5.1h1.5c1.1,0,1.8,0.5,1.8,1.5c0,0.7-0.4,1.2-1,1.4
			l1.5,2.1L249.2,95.4z M247.9,91h-0.7v1.5h0.6c0.6,0,0.9-0.2,0.9-0.8C248.8,91.2,248.4,91,247.9,91z"/>
	</g>
</g>
</svg>
