<?xml version="1.0" encoding="utf-8"?>
<!-- Generator: Adobe Illustrator 15.1.0, SVG Export Plug-In  -->
<!DOCTYPE svg PUBLIC "-//W3C//DTD SVG 1.1//EN" "http://www.w3.org/Graphics/SVG/1.1/DTD/svg11.dtd" [
	<!ENTITY ns_flows "http://ns.adobe.com/Flows/1.0/">
]>
<svg version="1.1"
	 xmlns="http://www.w3.org/2000/svg" xmlns:xlink="http://www.w3.org/1999/xlink" xmlns:a="http://ns.adobe.com/AdobeSVGViewerExtensions/3.0/"
	 x="0px" y="0px" width="480px" height="339px" viewBox="181 127.904 480 339"
	 overflow="visible" enable-background="new 181 127.904 480 339" xml:space="preserve">
<defs>
</defs>
<g>
	<defs>
		<path id="SVGID_3_" d="M262.288,202.263l5.166,14.801c0,0,17.649-6.171,28.626,0.329c18.69,11.065,16.199,36.772,8.999,57.179
			c-12.88,36.513-20.569,62.456-14.438,88.827c3.357,14.443,17.744,20.817,23.201,22.969c7,2.758,21.982,2.146,21.982,2.146
			l-0.467,5.294l23.449-14.625l-18.047-14.643l-0.952,6.639c0,0-8.556,0.278-13.748-0.517c-9.921-1.519-20.23-10.971-20.143-31.148
			c0.07-16.181,3.101-28.352,12.069-53.901c8.65-24.642,15.261-54.592-2.246-75.861c-7.804-9.481-18.818-12.177-28.822-12.177
			C273.724,197.574,262.288,202.263,262.288,202.263"/>
	</defs>
	<clipPath id="SVGID_4_">
		<use xlink:href="#SVGID_3_"  overflow="visible"/>
	</clipPath>
	
		<linearGradient id="SVGID_5_" gradientUnits="userSpaceOnUse" x1="-9.765625e-04" y1="595" x2="0.999" y2="595" gradientTransform="matrix(-8.600000e-06 -196.2324 -196.2324 8.600000e-06 117068.7891 393.7449)">
		<stop  offset="0" style="stop-color:#6D6E71"/>
		<stop  offset="0.3835" style="stop-color:#6D6E71"/>
		<stop  offset="0.5029" style="stop-color:#707174"/>
		<stop  offset="0.6023" style="stop-color:#77797C"/>
		<stop  offset="0.6945" style="stop-color:#848689"/>
		<stop  offset="0.7824" style="stop-color:#97999B"/>
		<stop  offset="0.8672" style="stop-color:#AFB1B4"/>
		<stop  offset="0.9486" style="stop-color:#CFD0D2"/>
		<stop  offset="1" style="stop-color:#E6E7E8"/>
	</linearGradient>
	<rect x="262.288" y="197.574" clip-path="url(#SVGID_4_)" fill="url(#SVGID_5_)" width="96.518" height="196.232"/>
</g>
<g>
	<defs>
		<path id="SVGID_2_" d="M206.275,208.839l6.202,2.104c0,0-5.089,16.38-3.508,28.37c1.066,8.083,3.27,22.375,16.53,36.859
			c16.773,18.321,53.762,29.197,100.099,37.118c19.113,3.266,39.638,9.176,52.722,20.821c9.847,8.356,15.816,18.463,16.91,31.858
			c1.318,16.107-9.439,26.235-9.439,26.235l14.76,14.586c0,0,26.309-30.163,10.609-62.277
			c-17.459-35.714-51.729-46.853-90.976-53.464c-35.957-6.058-66.015-16.998-76.196-26.969c-9.826-9.623-15.426-21.082-14.018-33.31
			c0.81-7.029,3.916-13.341,3.916-13.341l7.857,2.383l-11.059-29.88L206.275,208.839z"/>
	</defs>
	<clipPath id="SVGID_6_">
		<use xlink:href="#SVGID_2_"  overflow="visible"/>
	</clipPath>
	
		<linearGradient id="SVGID_7_" gradientUnits="userSpaceOnUse" x1="9.765625e-04" y1="595.0254" x2="1.001" y2="595.0254" gradientTransform="matrix(-9.500000e-06 216.8579 216.8579 9.500000e-06 -128719.2031 189.8694)">
		<stop  offset="0" style="stop-color:#009ACE"/>
		<stop  offset="0.534" style="stop-color:#009ACE"/>
		<stop  offset="0.7018" style="stop-color:#60C0E0"/>
		<stop  offset="0.9082" style="stop-color:#D2EDF6"/>
		<stop  offset="1" style="stop-color:#FFFFFE"/>
	</linearGradient>
	<rect x="206.275" y="189.933" clip-path="url(#SVGID_6_)" fill="url(#SVGID_7_)" width="220.584" height="216.858"/>
</g>
<g>
	<defs>
		<rect id="SVGID_1_" width="842" height="595"/>
	</defs>
	<clipPath id="SVGID_8_">
		<use xlink:href="#SVGID_1_"  overflow="visible"/>
	</clipPath>
	<path clip-path="url(#SVGID_8_)" fill="#009ACE" d="M425.939,227.823l6.965,0.041c-0.525-4.204-1.397-8.886-2.966-12.293
		c-3.533-7.673-10.28-12.144-15.08-13.927c-3.446-1.279-8.046-2.1-12.826-2.219c-14.92-0.373-22.68,8.574-26.146,12.752
		c-5.454,6.574-7.993,15.474-8.695,29.066c-0.405,7.858,1.961,22.094,8.407,29.867c3.165,3.817,7.094,6.906,11.822,9.233
		c4.805,2.251,9.477,2.722,15.785,2.693c11.76-0.053,18.935-6.149,21.706-9.006c5.134-5.293,8.367-13.927,8.954-20.073l-7.354,0.053
		c-0.375,3.603-3.254,11.67-6.146,14.834c-4.354,4.759-10.16,8.046-17.267,8.046c-11.867,0-18.686-5.24-22.208-10.623
		c-2.27-3.467-3.854-7.17-5.055-11.372c-1.125-4.28-1.476-9.3-1.338-13.652c0.375-11.852,2.435-18.532,6.468-24.765
		c4.146-6.406,11.557-11.031,21.92-10.907c8.383,0.101,13.179,3.693,15.74,5.86C423.812,215.82,425.658,221.504,425.939,227.823"/>
	<path clip-path="url(#SVGID_8_)" fill="#009ACE" d="M451.731,239.215v-32.316h19.699c4.751,0,9.801,1.623,12.863,4.328
		c2.923,2.582,4.46,6.434,4.715,12.003c0.184,4.02-1.827,8.966-4.868,11.572c-2.143,1.837-6.685,4.491-12.71,4.413H451.731z
		 M445.258,201.045v80.397h6.338v-36.044h17.694c3.522-0.026,8.472,0.682,10.87,2.573c1.729,1.365,3.559,3.555,4.535,5.763
		c2.099,4.746,3.63,20.667,4.905,24.546c0.249,1.05,0.76,2.413,1.132,3.162h6.988c-0.684-0.974-1.198-3.039-1.677-4.754
		c-0.939-3.371-2.105-13.054-3.279-18.718c-0.434-2.092-1.913-6.672-3.42-9.237c-1.888-3.214-7.297-5.868-9.855-6.025v-0.225
		c4.287-1.052,9.137-3.18,11.99-6.873c2.652-3.433,4.397-7.492,4.12-13.622c-0.629-13.92-10.218-17.811-12.54-19.019
		c-1.981-1.029-7.896-1.924-10.63-1.924H445.258z"/>
	<path clip-path="url(#SVGID_8_)" fill="#009ACE" d="M561.221,273.375l0.05,8.068h20.343v-46.621h-37.4v16.331h15.062
		c-0.634,8.712-4.299,14.579-14.667,14.438c-4.075-0.055-8.186-2.99-9.952-5.541c-1.769-2.554-5.326-9.171-5.074-18.467
		c0.285-10.575,3.199-16.314,5.135-18.883c2.354-3.124,6.156-5.121,10.231-5.048c6.27,0.114,10.886,4.052,11.435,9.855h24.663
		c0.048-4.467-1.476-10.017-3.55-13.544c-2.077-3.529-5.39-6.088-8.561-8.565c-4.568-3.567-15.477-6.6-23.299-6.267
		c-17.084,0.728-26.286,6.819-30.1,11.572c-6.759,8.421-10.447,17.293-10.561,30.986c-0.049,5.856,0.759,11.579,2.604,16.684
		c1.843,5.029,3.093,9.07,6.552,12.824c3.46,3.753,6.635,7.069,11.632,9.246c5.073,2.099,10.06,2.801,16.364,2.801
		C550.992,283.244,557.992,277.428,561.221,273.375"/>
	<path clip-path="url(#SVGID_8_)" fill-rule="evenodd" clip-rule="evenodd" fill="#FC6342" d="M600.497,201.597h34.131v33.938
		c0,0-0.098,9.065-6.064,14.484c-3.656,3.32-11.033,7.065-11.033,7.065l-7.968-9.066c0,0,5.161-2.548,7.903-5.548
		c2.648-2.898,2.677-6.935,2.677-6.935h-19.646V201.597z"/>
	<path clip-path="url(#SVGID_8_)" fill-rule="evenodd" clip-rule="evenodd" fill="#FFFFFF" d="M615.125,217.387V213.2h2.4
		c0.578,0,1.193,0.21,1.566,0.56c0.355,0.335,0.543,0.834,0.574,1.556c0.022,0.521-0.223,1.161-0.593,1.499
		c-0.261,0.238-0.814,0.582-1.548,0.572H615.125z M608.493,207.726v21.872h6.617l0.108-7.291h1.777
		c1.23-0.007,2.075,1.173,2.309,3.387c0.129,1.227,0.322,2.742,0.516,3.84l7,0.064c-0.239-0.269-0.387-1.226-0.482-2
		c-0.121-0.98-0.388-2.614-0.582-4.388c-0.064-0.593-0.774-2.29-1.678-2.935c-0.9-0.643-2.031-0.629-2.926-0.673v-0.062
		c1.498-0.29,2.833-0.858,3.829-1.878c0.927-0.948,1.323-2.469,1.228-4.163c-0.221-3.844-3.324-5.161-4.356-5.483
		c-0.713-0.224-2.912-0.29-3.867-0.29H608.493z"/>
	<path clip-path="url(#SVGID_8_)" d="M460.591,319.461c-1.651,1.205-3.764,1.967-6.472,1.967c-3.347,0-6.336-1.045-8.057-3.135
		c-1.625-1.934-2.576-4.645-2.576-8.136c0-3.471,0.885-5.866,2.51-7.8c1.722-2.05,4.298-3.248,7.646-3.248
		c2.786,0,5.136,0.605,6.689,1.84c1.771,1.408,3.066,2.9,3.004,6.647h-6.095c-0.059-1.045-0.611-3.397-3.245-3.397
		c-2.632,0-3.947,1.891-3.947,6.195c0,4.035,1.333,5.908,3.965,5.908c2.181,0,3.336-2.656,3.375-3.741h6.107
		C463.495,312.562,463.836,317.093,460.591,319.461"/>
	<path clip-path="url(#SVGID_8_)" d="M482.865,314.247l-11.005,0.024c0,0-0.197,3.397,2.498,3.397c0.918,0,2.295-0.38,2.501-1.884
		l5.875-0.011c-0.165,1.833-2.184,3.763-2.982,4.261c-1.437,0.895-3.349,1.342-5.306,1.342c-3.068,0-4.728-0.7-6.087-2.101
		s-2.227-3.604-2.227-6.692c0-4.921,4.065-7.64,8.337-7.64C479.135,304.944,483.267,307.615,482.865,314.247 M476.804,311.396
		c0.056-1.368-0.745-2.785-2.251-2.813c-1.605-0.028-2.417,1-2.472,2.836L476.804,311.396z"/>
	<path clip-path="url(#SVGID_8_)" d="M501.397,321.264h-5.87v-8.503c0-2.121-0.4-3.533-1.904-3.533c-1.688,0-2.183,1.35-2.183,3.347
		v8.689h-5.868l-0.051-15.704l5.573,0.043l-0.005,1.729c1.236-1.462,2.502-2.364,4.5-2.364c1.688,0,3.188,0.61,4.28,1.661
		c1.092,1.031,1.527,2.934,1.527,4.623V321.264z"/>
	<path clip-path="url(#SVGID_8_)" d="M514.26,309.34h-3.048l-0.03,5.424c0,1.256,0.308,1.667,1.416,1.983
		c0.257,0.071,0.786,0.103,1.631,0v4.319c-1.112,0.206-2.086,0.311-3.074,0.311c-2.39,0-3.784-0.789-4.453-1.6
		c-0.738-0.892-1.139-2.562-1.139-4.829v-5.608h-2.545v-3.979h2.545v-3.793l5.649-0.087v3.88h3.048V309.34z"/>
	<path clip-path="url(#SVGID_8_)" d="M528.377,310.204c0,0-1.73-0.499-3.491,0.037c-1.372,0.419-2.526,1.902-2.526,3.563
		c0,0.617,0.026,7.284,0.026,7.284h-5.872l-0.185-15.663h5.611l-0.015,2.326c0,0,0.09-0.008,0.178-0.146
		c0.499-0.785,2.832-3.466,6.273-2.176V310.204z"/>
	<path clip-path="url(#SVGID_8_)" d="M546.984,314.291l-11.16-0.02c0,0-0.197,3.397,2.499,3.397c0.917,0,2.294-0.38,2.5-1.884
		l5.875-0.011c-0.165,1.833-2.185,3.763-2.982,4.261c-1.436,0.895-3.349,1.342-5.306,1.342c-3.068,0-4.728-0.7-6.087-2.101
		c-1.358-1.4-2.226-3.604-2.226-6.692c0-4.921,4.066-7.64,8.336-7.64C543.099,304.944,547.386,307.659,546.984,314.291
		 M540.768,311.396c0.056-1.368-0.745-2.785-2.25-2.813c-1.606-0.028-2.418,1-2.474,2.836L540.768,311.396z"/>
	<path clip-path="url(#SVGID_8_)" d="M534.641,347.59l-11.203-0.004c0,0-0.197,3.396,2.498,3.396c0.918,0,2.295-0.38,2.501-1.882
		l5.875-0.012c-0.164,1.833-2.185,3.763-2.983,4.26c-1.436,0.896-3.348,1.342-5.305,1.342c-3.068,0-4.729-0.7-6.087-2.101
		c-1.359-1.4-2.227-3.603-2.227-6.692c0-4.92,4.065-7.639,8.337-7.639C530.712,338.259,535.041,340.959,534.641,347.59
		 M528.381,344.71c0.056-1.368-0.745-2.784-2.25-2.812c-1.605-0.029-2.418,1-2.474,2.834L528.381,344.71z"/>
	<path clip-path="url(#SVGID_8_)" d="M509.76,352.131l0.013,2.151h5.427v-12.438h-9.977v4.357h4.018
		c-0.168,2.325-1.146,3.89-3.913,3.852c-1.087-0.015-2.184-0.798-2.654-1.478c-0.472-0.682-1.421-2.447-1.354-4.928
		c0.076-2.821,0.854-4.352,1.37-5.037c0.628-0.834,1.643-1.366,2.729-1.347c1.673,0.03,2.905,1.081,3.051,2.629h6.579
		c0.014-1.191-0.394-2.673-0.946-3.613c-0.555-0.941-1.438-1.624-2.284-2.285c-1.219-0.951-4.387-1.76-6.474-1.672
		c-4.558,0.194-6.755,1.819-7.771,3.087c-1.804,2.247-2.788,4.613-2.818,8.267c-0.013,1.562,0.202,3.089,0.694,4.451
		c0.492,1.342,0.826,2.42,1.749,3.421c0.923,1.002,1.77,1.887,3.104,2.467c1.353,0.561,2.684,0.748,4.365,0.748
		C507.031,354.764,508.897,353.212,509.76,352.131"/>
	<path clip-path="url(#SVGID_8_)" d="M626.997,347.663c0,2.101-1.595,6.997-8.023,7.026c-5.187,0.022-8.411-2.791-8.411-8.33
		c0-2.657,0.803-4.716,2.41-6.179c1.544-1.4,3.655-2.162,6.332-2.1c4.799,0.109,7.491,3.2,7.692,6.804h-5.87
		c0-1.688-1.025-2.47-2.012-2.494c-1.194-0.028-2.38,1.015-2.38,3.992c0,2.778,0.93,4.087,2.238,4.115
		c0.986,0.021,2.066-0.882,2.153-2.835H626.997z"/>
	<path clip-path="url(#SVGID_8_)" d="M608.145,337.479h-5.931v-4.74h5.931V337.479z M608.113,354.205h-5.869v-15.661h5.869V354.205z
		"/>
	<path clip-path="url(#SVGID_8_)" d="M572.552,346.359c0,5.409-3.546,8.31-8.552,8.31c-5.907,0-8.479-4.114-8.479-8.31
		c0-3.996,2.258-8.278,8.479-8.278C567.935,338.081,572.552,340.939,572.552,346.359 M566.474,346.362
		c0-2.618-1.099-3.928-2.427-3.928c-1.451,0-2.428,1.31-2.428,3.928c0,2.636,1.148,4.022,2.495,4.022
		C565.432,350.385,566.474,348.998,566.474,346.362"/>
	<path clip-path="url(#SVGID_8_)" d="M553.041,354.479h-5.869v-8.504c0-2.121-0.4-3.532-1.904-3.532
		c-1.688,0-2.182,1.35-2.182,3.347v8.689h-5.869l-0.052-15.704l5.574,0.043l-0.005,1.729c1.236-1.463,2.502-2.365,4.5-2.365
		c1.688,0,3.188,0.611,4.28,1.661c1.091,1.031,1.526,2.935,1.526,4.624V354.479z"/>
	<path clip-path="url(#SVGID_8_)" d="M590.085,344.938v9.541h-5.869v-8.504c0-2.121-0.047-3.493-1.549-3.537
		c-1.337-0.039-1.703,1.354-1.703,3.352v8.689h-5.87l-0.05-15.704l5.573,0.043l-0.004,1.729c0.875-1.427,2.014-2.409,4.35-2.409
		c1.85,0,3.238,0.904,4.024,2.239c0.112,0.192,0.215,0.382,0.307,0.567c0.636-1.172,1.888-2.766,4.237-2.763
		c1.874,0.003,3.674,0.663,4.578,2.195c0.876,1.486,1.098,2.786,1.098,4.475v9.627h-5.869v-8.504c0-2.121-0.048-3.46-1.55-3.537
		C590.641,342.38,590.223,343.52,590.085,344.938"/>
	<path clip-path="url(#SVGID_8_)" d="M462.271,387.744h-6.602c-0.236-1.48-0.401-2.65-0.595-4.405
		c-0.078-1.228-0.662-2.703-2.486-2.703h-1.859v7.108h-6.561v-21.325h9.626c2.212,0,3.417,0.227,4.801,0.948
		c1.788,0.936,3.095,3.053,3.004,5.061c-0.117,2.648-1.819,4.981-4.626,5.021v0.117c1.75,0.039,3.186,1.073,3.676,2.413
		c0.477,1.304,0.662,2.337,0.912,4.229C461.906,386.703,462.136,387.218,462.271,387.744 M455.606,373.702
		c-0.095-1.709-2.04-1.99-2.942-1.99h-1.822v3.981h1.822C453.566,375.693,455.702,375.469,455.606,373.702"/>
	<path clip-path="url(#SVGID_8_)" d="M499.23,385.573c0,5.566-2.72,8.35-8.157,8.35c-4.294,0-7.495-1.792-7.495-5.366l5.613,0.004
		c0.038,1.295,1.343,1.763,2.267,1.733c1.251-0.039,1.898-1.035,2.238-2.329c0.132-0.493,0.152-1.17,0.152-3.224h-0.057
		c-0.831,1.664-2.553,2.425-4.798,2.51c-5.258,0.197-6.078-5.632-6.051-7.809c0.079-6.344,4.09-7.646,6.13-7.646
		c2.076,0,3.907,1.146,4.719,2.974l0.057-0.351l-0.034-2.279h5.416V385.573z M493.338,379.444c0-2.346-0.729-3.519-2.181-3.519
		c-1.453,0-2.179,1.173-2.179,3.519c0,2.363,0.726,3.545,2.179,3.545C492.609,382.989,493.338,381.808,493.338,379.444"/>
	<path clip-path="url(#SVGID_8_)" d="M517.354,387.742l-5.42,0.002l0.027-1.729c-0.027,0.032-0.251-0.153-0.278-0.121
		c-0.962,1.681-2.276,2.229-4.229,2.229c-1.709,0-2.979-0.475-4.07-1.504c-1.07-1.051-1.377-2.776-1.377-4.465v-10.072h5.526v8.854
		c-0.079,1.616,0.514,2.915,2.017,2.915c0.824,0,1.898-0.785,1.938-2.574v-9.195l5.851,0.002L517.354,387.742z"/>
	<rect x="520.144" y="365.795" clip-path="url(#SVGID_8_)" width="6.023" height="21.949"/>
	<path clip-path="url(#SVGID_8_)" d="M544.382,387.744h-5.022l0.025-1.779l-0.396,0.054c-1.071,1.729-2.781,2.188-5.006,2.188
		c-2.798,0-5.405-1.761-5.405-5.023c0-2.349,1.564-3.773,3.29-4.419c1.502-0.562,3.639-0.711,6.666-0.711v-1.368
		c0-0.804-0.782-1.524-1.564-1.524c-1.5,0-1.754,1.458-1.754,2.096h-5.785c0,0-0.568-5.638,7.283-5.638
		c1.771,0,3.684,0.35,4.939,1.05c1.563,0.865,2.741,2.55,2.741,4.417C544.394,382.709,544.382,387.744,544.382,387.744
		 M538.362,381.259h-0.701c-2.101,0-2.978,0.905-3.071,1.769c-0.059,0.525,0.142,1.578,1.506,1.607
		c0.8,0.017,1.669-0.437,2.039-1.082C538.414,383.066,538.362,382.343,538.362,381.259"/>
	<path clip-path="url(#SVGID_8_)" d="M566.075,371.019h-5.932v-4.74h5.932V371.019z M566.045,387.744h-5.869v-15.662h5.869V387.744z
		"/>
	<path clip-path="url(#SVGID_8_)" d="M585.563,379.897c0,5.409-3.546,8.31-8.552,8.31c-5.908,0-8.479-4.113-8.479-8.31
		c0-3.996,2.258-8.278,8.479-8.278C580.945,371.619,585.563,374.479,585.563,379.897 M579.484,379.901
		c0-2.619-1.099-3.929-2.428-3.929c-1.449,0-2.426,1.31-2.426,3.929c0,2.635,1.146,4.021,2.494,4.021
		C578.442,383.923,579.484,382.536,579.484,379.901"/>
	<path clip-path="url(#SVGID_8_)" d="M480.412,381.087l-11.002-0.012c0,0-0.197,3.397,2.498,3.397c0.918,0,2.295-0.38,2.501-1.883
		l5.875-0.012c-0.165,1.833-2.185,3.762-2.982,4.261c-1.436,0.895-3.349,1.342-5.306,1.342c-3.068,0-4.728-0.7-6.086-2.101
		c-1.359-1.4-2.227-3.604-2.227-6.694c0-4.919,4.065-7.638,8.336-7.638C476.686,371.748,480.813,374.455,480.412,381.087
		 M474.354,378.199c0.056-1.368-0.745-2.784-2.25-2.813c-1.606-0.028-2.418,1-2.473,2.836L474.354,378.199z"/>
	<path clip-path="url(#SVGID_8_)" d="M603.605,387.691h-5.87v-8.504c0-2.12-0.401-3.532-1.903-3.532
		c-1.689,0-2.183,1.35-2.183,3.349v8.688h-5.87l-0.05-15.704l5.573,0.043l-0.004,1.729c1.235-1.462,2.501-2.365,4.499-2.365
		c1.688,0,3.189,0.611,4.28,1.662c1.092,1.029,1.527,2.934,1.527,4.623V387.691z"/>
	<path clip-path="url(#SVGID_8_)" d="M557.271,375.948h-3.048l-0.03,5.424c0,1.256,0.307,1.667,1.416,1.983
		c0.257,0.071,0.786,0.103,1.631,0v4.32c-1.113,0.205-2.086,0.31-3.075,0.31c-2.389,0-3.783-0.789-4.452-1.6
		c-0.738-0.892-1.139-2.562-1.139-4.829v-5.608h-2.545v-3.979h2.545v-3.792l5.649-0.087v3.879h3.048V375.948z"/>
	<path clip-path="url(#SVGID_8_)" d="M466.776,346.476c0-2.619-1.099-3.929-2.427-3.929c-1.45,0-2.427,1.31-2.427,3.929
		c0,2.635,1.147,4.021,2.495,4.021C465.734,350.497,466.776,349.11,466.776,346.476 M472.855,346.473
		c0,5.409-3.547,8.309-8.552,8.309c-5.908,0-8.479-4.113-8.479-8.309c0-3.996,2.258-8.279,8.479-8.279
		C468.238,338.193,472.855,341.053,472.855,346.473"/>
	<path clip-path="url(#SVGID_8_)" d="M487.127,343.489c0,0-1.729-0.5-3.491,0.037c-1.372,0.418-2.525,1.902-2.525,3.562
		c0,0.617,0.025,7.284,0.025,7.284h-5.872l-0.185-15.663h5.611l-0.015,2.326c0,0,0.09-0.007,0.18-0.146
		c0.497-0.784,2.83-3.464,6.271-2.176V343.489z"/>
	<path clip-path="url(#SVGID_8_)" d="M455.17,338.527l-3.05-0.005c-0.008-1.161,0.311-1.716,1.388-1.751
		c0.267-0.01,0.776-0.013,1.632,0.029v-3.211c-1.138-0.156-2.087-0.232-3.075-0.229c-4.375,0.011-5.591,1.198-5.591,4.427v0.74
		h-2.546v3.979h2.546v11.867h5.649v-11.867h3.047V338.527z"/>
</g>
</svg>
