<svg id="Layer_1" data-name="Layer 1" xmlns="http://www.w3.org/2000/svg" viewBox="0 0 187 203.93"><defs><style>.cls-1{fill:#677fbf;}.cls-2{fill:#9bd2f2;}.cls-3{fill:#be9dca;}.cls-4{fill:#828bc5;}.cls-5{fill:#b2d99f;}.cls-6{fill:#be9dc9;}.cls-7{fill:#908f86;}.cls-8{fill:#ffe72d;}.cls-9{fill:#fde627;}.cls-10{fill:#687fbe;}.cls-11{fill:#9ad0f1;}.cls-12{fill:#4378bc;}.cls-13{fill:#5d60ab;}.cls-14{fill:#445daa;}.cls-15{fill:#ce9e3e;}.cls-16{fill:#71bc9c;}.cls-17{fill:#b2d89f;}.cls-18{fill:#557a81;}.cls-19{fill:#fff;}</style></defs><title>crick</title><polygon class="cls-1" points="166.71 110.73 183.63 20.39 161 29.67 161 17.33 111.44 28.96 91.77 0 63.52 40.27 63.52 40.27 63.42 40.38 63.42 40.38 63.42 40.38 63.52 40.38 63.52 40.38 63.52 40.38 63.52 40.38 63.52 40.38 63.52 40.38 63.52 40.38 64.03 41.19 63.42 40.58 4.89 94.01 16.31 136.53 0 169.77 24.06 165.49 32.32 195.97 38.95 162.84 127.05 147.03 161 203.93 161 140.91 161 140.91 161 140.91 164.47 122.46 187 140.81 166.71 110.73"/><polygon class="cls-1" points="63.52 40.38 63.52 40.38 63.52 40.27 63.52 40.38"/><polygon class="cls-2" points="63.42 40.58 4.89 94.01 45.37 77.29 63.42 40.58"/><polygon class="cls-2" points="4.89 94.01 16.31 136.53 33.04 102.47 4.89 94.01"/><polygon class="cls-2" points="32.32 195.97 38.95 162.84 24.06 165.49 32.32 195.97"/><polygon class="cls-3" points="164.47 122.46 161 119.6 161 140.91 161 140.91 164.47 122.46"/><polygon class="cls-3" points="166.71 110.73 183.63 20.39 161 29.67 161 102.27 166.71 110.73"/><polygon class="cls-4" points="45.37 77.29 4.89 94.01 33.04 102.47 45.37 77.29"/><polygon class="cls-5" points="187 140.81 166.71 110.73 164.47 122.46 187 140.81"/><polygon class="cls-5" points="91.77 0 63.52 40.27 111.44 28.96 91.77 0"/><polygon class="cls-6" points="161 119.6 164.47 122.46 166.71 110.73 161 102.27 161 119.6"/><polygon class="cls-7" points="161 119.6 164.47 122.46 166.71 110.73 161 102.27 161 119.6"/><polygon class="cls-8" points="161 203.93 161 140.91 127.05 147.03 161 203.93"/><polygon class="cls-9" points="161 140.91 161 140.91 160.9 140.91 161 140.91"/><path class="cls-8" d="M111.75,29,63.83,40.21l.1.1h0l.51.82L84.22,61.52,161.31,141h.1V17.37ZM63.83,40.31Z" transform="translate(-0.31 -0.04)"/><polygon class="cls-10" points="0 169.77 24.06 165.49 16.31 136.53 0 169.77"/><polygon class="cls-1" points="77.59 64.03 64.03 41.19 63.42 40.58 57 72.5 77.59 64.03"/><polygon class="cls-1" points="49.96 107.57 38.95 162.84 127.05 147.03 115.22 127.15 49.96 107.57"/><polygon class="cls-11" points="57 72.5 63.42 40.58 45.37 77.29 57 72.5"/><polygon class="cls-12" points="57 72.5 63.42 40.58 45.37 77.29 57 72.5"/><polygon class="cls-12" points="33.04 102.47 16.31 136.53 24.06 165.49 38.95 162.84 49.96 107.57 33.04 102.47"/><polygon class="cls-13" points="57 72.5 49.96 107.57 115.22 127.15 77.59 64.03 57 72.5"/><polygon class="cls-14" points="45.37 77.29 33.04 102.47 49.96 107.57 57 72.5 45.37 77.29"/><polygon class="cls-15" points="160.9 140.91 83.81 61.48 64.03 41.19 77.59 64.03 115.22 127.15 127.05 147.03 161 140.91 160.9 140.91"/><polygon class="cls-16" points="63.52 40.38 63.52 40.38 63.52 40.27 63.52 40.38"/><path class="cls-17" d="M63.83,40.41Z" transform="translate(-0.31 -0.04)"/><polygon class="cls-16" points="63.42 40.38 63.52 40.38 63.52 40.38 63.42 40.38"/><polygon class="cls-9" points="63.42 40.38 63.42 40.38 63.42 40.38 63.52 40.38 63.52 40.38 63.52 40.38 63.52 40.38 63.52 40.38 63.52 40.38 63.52 40.38 63.52 40.38 63.52 40.27 63.42 40.38"/><path class="cls-9" d="M63.83,40.31v0Z" transform="translate(-0.31 -0.04)"/><polygon class="cls-9" points="63.52 40.38 63.52 40.38 63.52 40.38 63.52 40.38"/><polygon class="cls-9" points="63.42 40.38 63.42 40.38 63.52 40.38 63.52 40.38 63.42 40.38"/><path class="cls-18" d="M63.83,40.31h0Z" transform="translate(-0.31 -0.04)"/><polygon class="cls-18" points="63.63 40.27 63.52 40.27 63.63 40.27 63.63 40.27"/><rect x="63.63" y="40.11" width="97.36" height="100.63"/><polygon class="cls-19" points="103.11 96.58 107.5 103.4 109.37 103.4 109.37 92.29 107.22 92.29 107.22 99.1 102.93 92.29 101.06 92.29 101.06 103.4 103.11 103.4 103.11 96.58"/><rect class="cls-19" x="120.85" y="92.29" width="2.15" height="11.11"/><path class="cls-19" d="M129.65,97l-1.31-.18a2.11,2.11,0,0,1-1-.47,1.14,1.14,0,0,1-.28-.84c0-.75.56-1.4,1.68-1.4a3,3,0,0,1,2.24.75l1.3-1.4a4.61,4.61,0,0,0-3.54-1.31c-2.34,0-3.83,1.4-3.83,3.36a3,3,0,0,0,.75,2.15,4.21,4.21,0,0,0,2.14.93l1.31.19a1.66,1.66,0,0,1,.93.37,1.42,1.42,0,0,1,.38.93c0,.94-.66,1.4-2,1.4a3.63,3.63,0,0,1-2.62-.93l-1.4,1.4a5,5,0,0,0,4,1.49c2.24,0,4-1.21,4-3.36a3.11,3.11,0,0,0-.84-2.33A3,3,0,0,0,129.65,97Z" transform="translate(-0.31 -0.04)"/><path class="cls-19" d="M119.48,100.07h-2.15a1.77,1.77,0,0,1-1.87,1.59,1.92,1.92,0,0,1-1.4-.56c-.37-.47-.56-1-.56-3.17s.1-2.71.56-3.18a1.65,1.65,0,0,1,1.4-.56,1.91,1.91,0,0,1,1.87,1.59h2.15a3.89,3.89,0,0,0-4-3.55,3.93,3.93,0,0,0-2.89,1.22c-1.12,1.12-1,2.52-1,4.38s0,3.27,1,4.48a4.09,4.09,0,0,0,2.89,1.22A4,4,0,0,0,119.48,100.07Z" transform="translate(-0.31 -0.04)"/><polygon class="cls-19" points="79.5 94.25 79.5 92.29 72.31 92.29 72.31 103.4 74.46 103.4 74.46 98.92 78.75 98.92 78.75 96.96 74.46 96.96 74.46 94.25 79.5 94.25"/><path class="cls-19" d="M89.14,95.78a3.29,3.29,0,0,0-3.55-3.36H81.3v11.11h2.14V99.14h1.5l2.15,4.39h2.42l-2.42-4.76A3.2,3.2,0,0,0,89.14,95.78Zm-3.92,1.4h-2V94.29h2a1.5,1.5,0,0,1,1.59,1.49A1.43,1.43,0,0,1,85.22,97.18Z" transform="translate(-0.31 -0.04)"/><path class="cls-19" d="M93.25,101.47h3.82l.66,2H100l-4-11.1H94.27l-3.92,11.1h2.24Zm2-5.88,1.3,4h-2.7Z" transform="translate(-0.31 -0.04)"/><path class="cls-19" d="M76.44,117.72a3.89,3.89,0,0,0,4-3.55H78.31a1.78,1.78,0,0,1-1.87,1.59,1.92,1.92,0,0,1-1.4-.56c-.37-.47-.56-1-.56-3.18s.1-2.71.56-3.17a1.62,1.62,0,0,1,1.4-.56,1.9,1.9,0,0,1,1.87,1.58h2.15a3.88,3.88,0,0,0-4-3.54,3.92,3.92,0,0,0-2.89,1.21c-1.12,1.12-1.12,2.52-1.12,4.39s0,3.27,1.12,4.39A3.51,3.51,0,0,0,76.44,117.72Z" transform="translate(-0.31 -0.04)"/><path class="cls-19" d="M90.45,117.62,88,112.86A3,3,0,0,0,90,110a3.29,3.29,0,0,0-3.55-3.36H82.14v11h2.14v-4.39h1.5l2.15,4.39Zm-4.11-6.25h-2v-2.9h2a1.51,1.51,0,0,1,1.59,1.5A1.49,1.49,0,0,1,86.34,111.37Z" transform="translate(-0.31 -0.04)"/><rect class="cls-19" x="91.91" y="106.48" width="2.15" height="11.11"/><path class="cls-19" d="M102,114.17a1.78,1.78,0,0,1-1.87,1.59,1.92,1.92,0,0,1-1.4-.56c-.37-.47-.56-1-.56-3.18s.1-2.71.56-3.17a1.62,1.62,0,0,1,1.4-.56c1.12,0,1.59.65,1.87,1.58h2.15a3.84,3.84,0,0,0-3.92-3.45,4,4,0,0,0-2.9,1.21c-1.12,1.12-1.12,2.52-1.12,4.39s0,3.27,1.12,4.39a4.1,4.1,0,0,0,2.9,1.21,3.87,3.87,0,0,0,4-3.54H102Z" transform="translate(-0.31 -0.04)"/><polygon class="cls-19" points="114.5 106.48 111.89 106.48 108.06 111.33 108.06 106.48 105.92 106.48 105.92 117.58 108.06 117.58 108.06 114.22 109.46 112.54 112.26 117.58 114.69 117.58 110.86 110.86 114.5 106.48"/><polygon class="cls-19" points="74.46 89.39 76.05 89.39 76.05 79.41 79.13 79.41 79.13 77.91 71.28 77.91 71.28 79.41 74.46 79.41 74.46 89.39"/><polygon class="cls-19" points="82.48 84.35 87.34 84.35 87.34 89.39 88.83 89.39 88.83 77.91 87.34 77.91 87.34 82.86 82.48 82.86 82.48 77.91 80.99 77.91 80.99 89.39 82.48 89.39 82.48 84.35"/><polygon class="cls-19" points="98.17 88 92.57 88 92.57 84.35 97.33 84.35 97.33 82.86 92.57 82.86 92.57 79.41 98.17 79.41 98.17 77.91 91.07 77.91 91.07 89.39 98.17 89.39 98.17 88"/><rect class="cls-19" x="72.31" y="120.85" width="1.49" height="11.11"/><polygon class="cls-19" points="82.67 128.97 77.35 120.85 76.05 120.85 76.05 131.96 77.54 131.96 77.54 123.75 82.86 131.96 84.17 131.96 84.17 120.85 82.67 120.85 82.67 128.97"/><path class="cls-19" d="M90.82,125.84l-1.12-.19a2.41,2.41,0,0,1-1.31-.56A1.48,1.48,0,0,1,88,124c0-1.12.75-1.77,2-1.77a3.28,3.28,0,0,1,2.34.84l.09.09,1-1-.1-.09a4.41,4.41,0,0,0-3.26-1.21c-2.15,0-3.55,1.21-3.55,3.17a2.82,2.82,0,0,0,.84,2.15,3.53,3.53,0,0,0,2.05.84l1.22.18c.74.1,1,.19,1.3.47a1.61,1.61,0,0,1,.47,1.21c0,1.12-.84,1.78-2.33,1.78a3.18,3.18,0,0,1-2.71-1.12l-.09-.1-1,1,.09.09a4.86,4.86,0,0,0,3.74,1.5c2.33,0,3.82-1.31,3.82-3.27a3.09,3.09,0,0,0-.93-2.24A6.28,6.28,0,0,0,90.82,125.84Z" transform="translate(-0.31 -0.04)"/><polygon class="cls-19" points="94.43 122.25 97.51 122.25 97.51 131.96 99.01 131.96 99.01 122.25 102.09 122.25 102.09 120.85 94.43 120.85 94.43 122.25"/><rect class="cls-19" x="103.67" y="120.85" width="1.49" height="11.11"/><polygon class="cls-19" points="106.66 122.25 109.74 122.25 109.74 131.96 111.24 131.96 111.24 122.25 114.32 122.25 114.32 120.85 106.66 120.85 106.66 122.25"/><path class="cls-19" d="M122.09,128.17a2.38,2.38,0,1,1-4.76,0v-7.28h-1.49v7.37a3.67,3.67,0,0,0,3.82,3.83,3.75,3.75,0,0,0,3.92-3.83v-7.37h-1.49Z" transform="translate(-0.31 -0.04)"/><polygon class="cls-19" points="124.58 122.25 127.57 122.25 127.57 131.96 129.06 131.96 129.06 122.25 132.15 122.25 132.15 120.85 124.58 120.85 124.58 122.25"/><polygon class="cls-19" points="140.36 122.25 140.36 120.85 133.36 120.85 133.36 131.96 140.36 131.96 140.36 130.56 134.85 130.56 134.85 127.11 139.52 127.11 139.52 125.71 134.85 125.71 134.85 122.25 140.36 122.25"/></svg>