<svg id="Layer_1" data-name="Layer 1" xmlns="http://www.w3.org/2000/svg" xmlns:xlink="http://www.w3.org/1999/xlink" viewBox="0 0 414.14 167.43"><defs><style>.cls-1,.cls-10,.cls-11,.cls-12,.cls-13,.cls-14,.cls-15,.cls-4,.cls-5,.cls-6,.cls-7,.cls-8,.cls-9{fill:none;}.cls-2{clip-path:url(#clip-path);}.cls-18,.cls-3{fill:#b2284a;}.cls-10,.cls-11,.cls-12,.cls-13,.cls-14,.cls-15,.cls-4,.cls-5,.cls-6,.cls-7,.cls-8,.cls-9{stroke:#b2284a;}.cls-12,.cls-4,.cls-5,.cls-6,.cls-8{stroke-linecap:round;}.cls-10,.cls-11,.cls-13,.cls-14,.cls-15,.cls-4,.cls-5,.cls-6,.cls-7,.cls-8,.cls-9{stroke-miterlimit:10;}.cls-4,.cls-7{stroke-width:1.22px;}.cls-5{stroke-width:1.1px;}.cls-6{stroke-width:1.26px;}.cls-8{stroke-width:0.31px;}.cls-9{stroke-width:0.61px;}.cls-10{stroke-width:0.51px;}.cls-11,.cls-12{stroke-width:0.81px;}.cls-12{stroke-linejoin:round;}.cls-13{stroke-width:2.03px;}.cls-14{stroke-width:0.78px;}.cls-15{stroke-width:1.01px;}.cls-16{opacity:0.5;}.cls-17{clip-path:url(#clip-path-3);}.cls-18{font-size:30px;font-family:RobotoSlab-Bold, Roboto Slab;font-weight:700;}.cls-19{letter-spacing:0em;}.cls-20{letter-spacing:-0.02em;}.cls-21{letter-spacing:-0.01em;}.cls-22{letter-spacing:0.01em;}.cls-23{letter-spacing:0em;}.cls-24{letter-spacing:-0.02em;}.cls-25{letter-spacing:-0.01em;}.cls-26{letter-spacing:-0.03em;}.cls-27{letter-spacing:-0.02em;}.cls-28{letter-spacing:0em;}.cls-29{letter-spacing:-0.02em;}.cls-30{letter-spacing:-0.02em;}.cls-31{letter-spacing:-0.01em;}.cls-32{letter-spacing:0em;}.cls-33{letter-spacing:-0.01em;}.cls-34{letter-spacing:0em;}.cls-35{letter-spacing:-0.02em;}.cls-36{letter-spacing:-0.02em;}.cls-37{letter-spacing:-0.01em;}.cls-38{letter-spacing:-0.01em;}.cls-39{letter-spacing:0.01em;}.cls-40{letter-spacing:-0.02em;}.cls-41{letter-spacing:-0.02em;}.cls-42{letter-spacing:-0.02em;}.cls-43{letter-spacing:0em;}.cls-44{letter-spacing:0em;}.cls-45{letter-spacing:0em;}.cls-46{letter-spacing:-0.01em;}.cls-47{letter-spacing:0em;}.cls-48{letter-spacing:0em;}.cls-49{letter-spacing:0em;}.cls-50{letter-spacing:0.01em;}.cls-51{letter-spacing:-0.03em;}</style><clipPath id="clip-path" transform="translate(0 0)"><rect class="cls-1" width="414.14" height="168.31"/></clipPath><clipPath id="clip-path-3" transform="translate(0 0)"><rect class="cls-1" x="90.24" y="65.65" width="410.58" height="116.36"/></clipPath></defs><title>DBB</title><g class="cls-2"><g class="cls-2"><path class="cls-3" d="M45.58,22.56c.39.05.43.45.68.63-1,1-2,2-3.06,2.94-.14-.23-.35-.41-.51-.63a29.72,29.72,0,0,0,2.89-2.94" transform="translate(0 0)"/><path class="cls-3" d="M48.14,24.83c-.15.18-.48.25-.62.4,0-.43-.32-1.17-.85-1.06a.75.75,0,0,0-.54.71c-.08.81.37,1.8,0,2.45a1.25,1.25,0,0,1-1.16.5,1.73,1.73,0,0,1-1.3-1.13c-.06-.16-.15-.49,0-.66s.47-.21.74-.13c0,.26-.24.39-.28.65s.19.53.33.77a.77.77,0,0,0,.89-.25c.31-.48.15-1.33.18-2.06s.24-1.52,1.14-1.44a1.91,1.91,0,0,1,1,.45,2.06,2.06,0,0,1,.58.8" transform="translate(0 0)"/><path class="cls-3" d="M29.82,27.9c0,.12-.13.17-.08.3a23.18,23.18,0,0,1-2.52.43.86.86,0,0,0,.36.28c.42.24,1,.37,1.39.63,0,.26-.19.31-.2.54-1.27-.4-2.16-1.16-3.5-1.5.16-1.08,1.87-.65,2.78-1a1.25,1.25,0,0,0-.4-.29c-.45-.24-1-.46-1.47-.67a1.14,1.14,0,0,1,.2-.43c1.15.57,2.32,1.11,3.44,1.7" transform="translate(0 0)"/><path class="cls-3" d="M49.5,28.36a5.5,5.5,0,0,0-2.34,1.55c.89-.1,1.8-.17,2.64-.34A6.76,6.76,0,0,1,50.59,31c-.41.56-.79,1.16-1.15,1.77A4.63,4.63,0,0,0,50.65,32c.11-.07.32-.24.4-.24.24,0,.26.45.34.61-.59.34-1.19.64-1.77,1a5.24,5.24,0,0,1-1.82.89,14.36,14.36,0,0,1,1.53-2.86,20.49,20.49,0,0,0-2.48,1.24c-.08-.06-.37-.34-.3-.52s.35-.16.44-.2a13.57,13.57,0,0,0,2.76-1.66c-1.14,0-2.32.17-3.47.27a1.77,1.77,0,0,1-.5,0c-.21-.06-.28-.47-.33-.66.31-.18.64-.33.94-.52s.57-.4.85-.62c.56-.44,1.1-1,1.61-1.44a2.27,2.27,0,0,1,.65,1" transform="translate(0 0)"/><path class="cls-3" d="M28.79,30.88a1.15,1.15,0,0,1-.34.87c-1.37-.55-2.4-1.44-3.83-1.92a8.82,8.82,0,0,1,.43-.87c1.29.59,2.43,1.34,3.74,1.92" transform="translate(0 0)"/><path class="cls-3" d="M24.56,30a3.61,3.61,0,0,1,.75.54A1.22,1.22,0,0,0,24,31.8a1.83,1.83,0,0,0,2,1.88,1.22,1.22,0,0,0,1.22-1.1,2,2,0,0,0-.18-1,2.59,2.59,0,0,1,.83.56c-.43,1.15-.76,2.71-2.39,2.59a2.3,2.3,0,0,1-1.36-.63,2.43,2.43,0,0,1-.72-1.28,2.38,2.38,0,0,1,.29-1.65,6.15,6.15,0,0,1,.48-.52,2.42,2.42,0,0,0,.42-.65" transform="translate(0 0)"/><path class="cls-3" d="M52,33.57c-1.08.6-2.19,1.17-3.26,1.8-.24-.13-.21-.41-.41-.57,1.06-.63,2.19-1.23,3.17-1.95.3.17.28.51.5.72" transform="translate(0 0)"/><path class="cls-3" d="M52.1,34.05c.31.18.29.55.49.79a23.21,23.21,0,0,0-1.69,1.85,4.56,4.56,0,0,0,2.62-.55c.13.23.39.39.39.7a19.63,19.63,0,0,0-3.84.73,2.28,2.28,0,0,1-.52-.72c.92-.82,1.64-2,2.55-2.8" transform="translate(0 0)"/><path class="cls-3" d="M25.81,35.9a1.1,1.1,0,0,1-.89.85,11.5,11.5,0,0,0-3-2.88c.14-.35.58-.43.74-.76a13.67,13.67,0,0,0,3.17,2.79" transform="translate(0 0)"/><path class="cls-3" d="M21.38,34.31c.39-.08.47.28.79.3-.13.13-.31.21-.47.35s-.31.32-.27.5.2.26.3.36c.75.75,1.76,1.31,2.51,2-.11.28-.43.4-.5.71-1-.67-1.92-1.54-2.9-2.26a1.66,1.66,0,0,0-.81,1c-.19-.11-.29-.34-.44-.49.47-.91,1.25-1.57,1.79-2.42" transform="translate(0 0)"/><path class="cls-3" d="M55.51,38.6c-.5-.17-.28-1.13-1-1.07s-.79,1.34.11,1.26a1.07,1.07,0,0,1-.82.5.72.72,0,0,0-.31-.81,2.07,2.07,0,0,0-.87.52,1,1,0,0,0-.26.46c-.06.45.38.6.73.7a.5.5,0,0,1-.67.26c-.48-.23-.77-1.06-1-1.49A4.23,4.23,0,0,0,53,37.77a6.89,6.89,0,0,1,.63-.57,2.18,2.18,0,0,1,.75-.48.61.61,0,0,1,.25,0,2.13,2.13,0,0,1,.68.58c.29.34.66.94.18,1.26" transform="translate(0 0)"/><path class="cls-3" d="M55.18,41.18c-.26,1.24,1.43,1.2,1.53.31a.73.73,0,0,0-.17-.56,9.37,9.37,0,0,0-1.36.25M53.61,43.5c-.68,0-1.12,1.5-.25,1.58a.55.55,0,0,0,.22,0c.75-.19,1.33-1.09,2.22-1.15a.85.85,0,0,1,.93.94c-.07.61-.6,1-.73,1.53-.28-.09-.42-.31-.74-.36.34-.24,1.05-.64.61-1.21a2.36,2.36,0,0,0-1.19.47,2.34,2.34,0,0,1-1.2.47c-.73,0-1.1-.53-1-1.36a2.87,2.87,0,0,1,.32-1.1s.06-.09.09-.15.08-.2.32-.2c0-.22.12-.37.14-.58.34-.36.91-.5,1.18-.94a3,3,0,0,0-1.56.33c-.2-.15-.07-.64-.18-.89,1.28-.35,3-.37,4-.92.63,1,.6,3.07-1,2.93a2,2,0,0,1-.93-.45,1.1,1.1,0,0,0-.29-.17,1,1,0,0,0-.55.17c-.12.07-.36.23-.38.34s0,.14,0,.21-.13.36,0,.53" transform="translate(0 0)"/><path class="cls-3" d="M18.66,42.45c-.26.14-.6.2-.79.41a8.75,8.75,0,0,1,.92.08.61.61,0,0,0-.13-.49m2.12-.67c-.08,0-.21-.09-.34-.1-.39,0-.7.27-1,.35v.47a1.55,1.55,0,0,0,0,.48c.06.18.41.22.62.24a3.3,3.3,0,0,1,.8.05c.17.08.37.54.44.73a3.44,3.44,0,0,1,.21.93c-1.18.09-1.71.82-2.71,1.09a8,8,0,0,0,2,.08c0,.44-.27.66-.35,1a6.74,6.74,0,0,0,2.08-1c0,.28.25.38.27.67a19.81,19.81,0,0,0-3.92,1.91c0-.28-.29-.35-.28-.59a1.4,1.4,0,0,1,.2-.38c.21-.34.53-.71.72-1a6.05,6.05,0,0,0-2-.21c-.06-.35-.29-.54-.3-.94A17.2,17.2,0,0,0,20.86,44a27.9,27.9,0,0,0-4.57-.77,1.75,1.75,0,0,0-.07-.67,33.52,33.52,0,0,1,4.43-2.13,3.37,3.37,0,0,1,.13,1.38" transform="translate(0 0)"/><path class="cls-3" d="M56.23,47.62c-.42,1.15-1,2.09-1.52,3.19a1.4,1.4,0,0,1-.71-.24s.08-.11.13-.15a3.55,3.55,0,0,0,.47-.48,11.75,11.75,0,0,0-3-1.7c.06-.3.27-.44.31-.75A23.94,23.94,0,0,0,55,49.06c.23-.11.26-.42.39-.62a13.57,13.57,0,0,0-3.06-1.65c0-.32.29-.44.37-.73a20,20,0,0,0,3.51,1.56" transform="translate(0 0)"/><path class="cls-3" d="M24,50a22.53,22.53,0,0,0-3.69,1.64,2.24,2.24,0,0,1-.44-1A11.42,11.42,0,0,0,23.07,49c-.05-.54-.71-.49-1.14-.67a1.08,1.08,0,0,1,.93-.26A1.82,1.82,0,0,1,24,50" transform="translate(0 0)"/><path class="cls-3" d="M52.11,50.92c.21,0,.53.17.68,0-.27,0-.3-.31-.6-.32a.4.4,0,0,0-.08.32m2,.62c-1.06.25-2.21-.11-3.32,0,0,.19.21.3.24.43a1.16,1.16,0,0,0-.91.46c-.21.23-.54.8-.2,1.08a.81.81,0,0,0,.54.14c.44-.05.76-.5,1.07-.84A1.88,1.88,0,0,1,52.66,52c.78-.08,1.21.41,1.14,1.23,0,.47-.38.59-.37,1.21a1.67,1.67,0,0,1-.73-.12c.42-.17.79-1,.34-1.38-.87.08-1.14.75-1.68,1.22a1,1,0,0,1-.83.36,1.27,1.27,0,0,1-1.17-1,1.5,1.5,0,0,1,0-.3,3.47,3.47,0,0,1,.56-1.34,4.55,4.55,0,0,0,.57-1.32c.16,0,.31.08.49.11a1.14,1.14,0,0,0,.55,0c.21-.07.26-.57.46-.71a2.14,2.14,0,0,0-.87-.79,1.85,1.85,0,0,1,.32-.43l1.37,1.37a6.11,6.11,0,0,1,1.3,1.43" transform="translate(0 0)"/><path class="cls-3" d="M23.11,52.77c-.15.25-.43.36-.57.63a3.61,3.61,0,0,1,.87-.07c-.07-.22-.08-.49-.3-.56m.94-2.26c.26.19.32.65.48.89-.13.43-.64.51-.85.87a8.09,8.09,0,0,0,.51.92,1.86,1.86,0,0,0,1.35-.2c0,.36.13.6.08.94-1.5-.35-3.29.18-4.85-.07.28-.76,1.05-1.14,1.6-1.67s1.1-1.14,1.68-1.68" transform="translate(0 0)"/><path class="cls-3" d="M27.86,23.83c.08.53-.89.81-.5,1.39s1.6,0,1.09-.71a1,1,0,0,1,.84.48c-.35.14-.61.39-.59.67a2.24,2.24,0,0,0,.9.52.9.9,0,0,0,.54,0c.44-.16.37-.62.29-1a.49.49,0,0,1,.55.47c0,.54-.59,1.2-.85,1.67a4,4,0,0,0-1.83-.88c-.28-.08-.55-.17-.83-.28a2.32,2.32,0,0,1-.79-.43.4.4,0,0,1-.08-.24,2,2,0,0,1,.2-.89c.17-.42.54-1.05,1.06-.78" transform="translate(0 0)"/><path class="cls-3" d="M32.94,23.94c-.08.1-.21.06-.26.21a20.77,20.77,0,0,1-2.39-1.22,1.05,1.05,0,0,0,.11.48c.2.46.59.94.76,1.41-.15.24-.35.15-.51.35-.81-1.15-1.07-2.38-2-3.51.82-.83,2,.62,3,.89a1.14,1.14,0,0,0-.15-.5c-.22-.49-.53-1-.8-1.51a1.16,1.16,0,0,1,.45-.24c.6,1.21,1.24,2.42,1.79,3.64" transform="translate(0 0)"/><path class="cls-3" d="M45.15,20.45c-.08.22-.37.39-.46.58-.17-.39-.67-1-1.14-.73a.76.76,0,0,0-.29.85c.2.79.93,1.58.77,2.32a1.26,1.26,0,0,1-.94.85,1.75,1.75,0,0,1-1.6-.65c-.11-.13-.3-.41-.24-.62a.73.73,0,0,1,.66-.35c.09.24-.1.44,0,.7s.35.44.55.62a.8.8,0,0,0,.77-.52c.13-.56-.29-1.31-.5-2s-.26-1.52.62-1.73a1.9,1.9,0,0,1,1,.12,2.06,2.06,0,0,1,.81.57" transform="translate(0 0)"/><path class="cls-3" d="M39.7,65.25c-.33,0-.47.53-.77.64a4.49,4.49,0,0,1-1.75,0c-1.81-.16-3.31-.17-5.11-.29-.25,1.42,1.12,1.29,2.37,1.36,2.37.13,5.27.17,7.44.28a3.69,3.69,0,0,1-.21-1.85c-.59.09-1.39-.19-2-.11M28.88,63a1.2,1.2,0,0,0-.29.75c0,.45.09.92.39,1.09a5,5,0,0,0,2.23.26c2.48-.06,4.85.35,7.25.32a4.14,4.14,0,0,1-.13-1.92c-3.12-.19-6.45-.35-9.6-.51,0,0,0-.07,0-.06m9.59-.38c-.55,0-1.09,0-1.63,0-1.43-.06-2.85-.17-4.25-.23-.72,0-1.43-.15-2.13-.12a2,2,0,0,0-.86.2c-.06,0-.15.09-.14.17,3,.15,6.07.31,9,.53a1.29,1.29,0,0,1,.16-.17c.1-.07.24-.11.27-.24s-.31-.09-.46-.09m4,2.52a2.16,2.16,0,0,0-.42.46,1.83,1.83,0,0,0,0,.84c.06.27.06.64.14.86A19.83,19.83,0,0,0,44,65.3c.59-.6,1.3-1.34,1.86-2a5.11,5.11,0,0,1-.15-1.63c-1,1-2.35,2.3-3.37,3.32m.82-3.44s0,0,0,0c-.07.38-.41.58-.66.83-.46.47-.89.91-1.31,1.36-.22.24-.43.5-.64.7,0,0-.17.1-.15.14l1,0a2,2,0,0,0,.32,0,1.82,1.82,0,0,0,.38-.34c.61-.61,1.18-1.21,1.78-1.8a5.59,5.59,0,0,1,.92-.85c-.54,0-1.06-.12-1.62-.15m-.81-1.41c-.57.59-1.47,1.59-2.08,2.21-.09.08-.21.23-.29.25s-.25,0-.35,0c-1,.21-1.4,1.7-.89,2.66a36.92,36.92,0,0,0,3.88-3.83c-.19-.26-.15-1-.27-1.32m-12.5,1c.36.66,1.26.6,2.3.6.87,0,1.7.05,2.46.1l5,.27a4.38,4.38,0,0,1-.22-1.93c-3.19-.09-6.16-.36-9.3-.5a1.06,1.06,0,0,0-.32,1m13.62-4.05s.32-.33.06-.08c-.58.58-1.41,1.45-2.07,2.11-.28.29-.65.55-1,.85a1.9,1.9,0,0,0-.75,1.1,5.35,5.35,0,0,0,.2,1.42,46.05,46.05,0,0,0,3.84-3.94c-.29-.28,0-1.23-.15-1.62m-8.11-.4c.33,0,.44,0-.71.76s-2.54,1.49-3.67,2.32c0,0-.08,0-.07.07,2.68.09,5.29.36,8,.44a3.45,3.45,0,0,0,.54,0c.11,0,.32-.28.43-.38l.42-.4a32.87,32.87,0,0,0,2.37-2.35s.09-.11.05-.11a53.67,53.67,0,0,1-7.16-.35,2.74,2.74,0,0,1,.48,0M44.16,56a2.45,2.45,0,0,0,0,2.32c-.48.8-1.56,1.12-1.41,2.47,1.12.22,2.44.24,3.66.36,0,.07,0,.13-.08.19-.25.55-.39,1.71.1,2.14-1.21,1.36-2.54,2.69-3.86,4-.09.08-.21.23-.28.24a3.5,3.5,0,0,1-.78,0c-1.85-.07-3.57-.18-5.39-.26-.93,0-2.06-.06-3.06-.16s-2-.48-1.81-1.76a22,22,0,0,1-2.37-.24,1.36,1.36,0,0,1-1-1.57,1.87,1.87,0,0,1,.61-1.36c.29-.22.68-.31,1-.56a2.26,2.26,0,0,1-.1-2.52,4.08,4.08,0,0,1,1.26-.84c1.35-.73,3.06-1.93,4.32-2.68" transform="translate(0 0)"/><path class="cls-3" d="M38.19,45.19c.35,1.23.64,1.6.2,2.35-1,1.71-.28-1-.62-2.23s-.72-2.44-.48-2.51.56,1.15.9,2.39" transform="translate(0 0)"/><path class="cls-3" d="M35.79,44.06a.68.68,0,0,0-.28.92c.06.13.17.23.24.36a1,1,0,0,1,0,.9,1.39,1.39,0,0,1-.71.6c-.39.17-.84.2-1.24.35a1.11,1.11,0,0,0-.82.9.53.53,0,0,0,.37-.15c0,.21.07.41.11.62a1.42,1.42,0,0,1,.83-.78,8.5,8.5,0,0,1,.88-.15,1.61,1.61,0,0,0,1.42-1.44,2.41,2.41,0,0,0-.17-.69l-.24-.67c0-.39.57-.1.84.05s.73.28.71.19a.66.66,0,0,1-.05-.15,1.28,1.28,0,0,0-.07-.28,1.81,1.81,0,0,0-1.8-.58" transform="translate(0 0)"/><path class="cls-3" d="M38,44.49l.19-.08a1.57,1.57,0,0,1,1.26-.13,1.51,1.51,0,0,1,.54.63,4.61,4.61,0,0,1,.46,1,3.85,3.85,0,0,0,.36,1.21c.06.09.14.17.21.26a2.83,2.83,0,0,1,.65,1.87,2.63,2.63,0,0,0-.56-.38.69.69,0,0,1-.23.6,2.29,2.29,0,0,0-.57-1.62,3.07,3.07,0,0,1-.29-.34,1.91,1.91,0,0,1-.18-.47c-.06-.25-.13-.51-.2-.77a2.87,2.87,0,0,0-.35-.91,1,1,0,0,0-.82-.45c-.24,0-.09.08-.33.07" transform="translate(0 0)"/><path class="cls-3" d="M23.93,12.72a2.18,2.18,0,0,0,2.28-.5s0,0,0,0a3.25,3.25,0,0,0-2.28.52m2.9-.87c0,.73-.89,1.29-1.79,1.4a2.38,2.38,0,0,1-1.85-.43,2.91,2.91,0,0,1,2.37-1.06,4.88,4.88,0,0,1,1.27.09" transform="translate(0 0)"/><path class="cls-3" d="M29.72,11.67a2.21,2.21,0,0,0-2.34.1v0a3.29,3.29,0,0,0,2.34-.12m-3,.35c.17-.71,1.11-1.11,2-1.06a2.35,2.35,0,0,1,1.74.74,2.91,2.91,0,0,1-2.52.63A5.09,5.09,0,0,1,26.7,12" transform="translate(0 0)"/><path class="cls-3" d="M50.62,12.62a3.21,3.21,0,0,0-2.28-.53v0a2.23,2.23,0,0,0,2.28.5m-2.9-.88A5.42,5.42,0,0,1,49,11.66a2.88,2.88,0,0,1,2.36,1.06,2.34,2.34,0,0,1-1.84.43c-.9-.12-1.76-.67-1.79-1.41" transform="translate(0 0)"/><path class="cls-3" d="M44.83,11.56a3.24,3.24,0,0,0,2.34.12s0,0,0,0a2.23,2.23,0,0,0-2.34-.1m3,.36a5.63,5.63,0,0,1-1.24.3,2.88,2.88,0,0,1-2.52-.63,2.38,2.38,0,0,1,1.74-.74c.91,0,1.85.35,2,1.07" transform="translate(0 0)"/><path class="cls-3" d="M38.22,34.36c.76-.55,1.71-2.18,1.25-3.33,0,0,0,0,0,0-.53.83-1.45,2.05-1.22,3.35m1.29-4.44c.91.66.9,2.21.3,3.46a3.59,3.59,0,0,1-2.06,2c-.62-1.11,0-2.78.6-3.9a8.1,8.1,0,0,1,1.16-1.56" transform="translate(0 0)"/><path class="cls-3" d="M36.47,34.88s.1.15.12.11a5.82,5.82,0,0,0-1.21-3.65,5.57,5.57,0,0,0,1.09,3.54m.76,1.83c-.06,0-.16-.08-.23-.13a6.51,6.51,0,0,1-2.3-4.46,4.86,4.86,0,0,1,.27-2c1.89.79,2.56,3.87,2.26,6.6" transform="translate(0 0)"/><path class="cls-3" d="M36.57,42.17c-.06-1.72-.73-2.93-2-3.29a4.93,4.93,0,0,0,2,3.29m-2-7.35s0,0,0,0a6.74,6.74,0,0,0,.74,2.79,1.33,1.33,0,0,0,.52.53,4.13,4.13,0,0,0-1.25-3.34m1.57,4.35a5.06,5.06,0,0,1,.92,4.11,3.56,3.56,0,0,1-.56-.42A8.57,8.57,0,0,1,35,41.33a3.67,3.67,0,0,1-.69-3.17c.35-.06.51.12.76.18a8.3,8.3,0,0,1-1.1-4.64s0,0,0,0a3.3,3.3,0,0,1,2,2.07,4.87,4.87,0,0,1,.2,3.39" transform="translate(0 0)"/><path class="cls-3" d="M39.86,38.45c-1,.37-1.71,2.1-1.51,3.49.62-.94,1.53-1.89,1.54-3.47,0,0,0,0,0,0Zm-.93-.89c.57-.81,1.56-1.85,1.39-3.16,0,0,0,0,0,0a4.33,4.33,0,0,0-1.37,3.18m1.73-4.23h0a1.72,1.72,0,0,1,.38,1.36,6.43,6.43,0,0,1-1.47,3.08c.42,0,.63-.2,1.06-.14a7.56,7.56,0,0,1-2.91,5.76,8.36,8.36,0,0,1-.13-2.19A4.48,4.48,0,0,1,37.87,40a8.52,8.52,0,0,0,.47-1c.21-.76-.16-1.41-.09-2.13a4.43,4.43,0,0,1,.91-2.15,6.41,6.41,0,0,1,1.5-1.4" transform="translate(0 0)"/><path class="cls-3" d="M37.37,31.11c.56-1.07,1.19-3.25.39-4.28-.67,1-1.07,3.27-.39,4.28m.21-5.45c1.11.48,1.47,1.63,1.36,3a8.67,8.67,0,0,1-1.51,4c-1.83-1.17-1.41-5.67.15-7" transform="translate(0 0)"/><path class="cls-4" d="M41.2,17.52c.43,17.76,1.89,32.32,4.25,32.32" transform="translate(0 0)"/><path class="cls-4" d="M33.73,17.54c-.43,17.76-1.5,32.3-3.85,32.3" transform="translate(0 0)"/><path class="cls-5" d="M29.76,49.87c.43.84,3.63,1.72,7.69,1.72" transform="translate(0 0)"/><path class="cls-5" d="M45.45,49.84c-.43.87-3.92,1.74-8,1.74" transform="translate(0 0)"/><path class="cls-6" d="M33.73,17.54a24.6,24.6,0,0,1,7.06,0" transform="translate(0 0)"/><path class="cls-7" d="M33.54,17.56a18.25,18.25,0,0,0-3.11,1,8.75,8.75,0,0,0-2.38,2.16,21,21,0,0,0-2.61,3.35c-.79,1.57-1.37,3.29-2.23,4.82a23.63,23.63,0,0,1-2.11,3c-1.19,1.54-2.32,3.15-3.39,4.79a13.85,13.85,0,0,0-2.65,6.45A12.29,12.29,0,0,0,17,49.76a12.89,12.89,0,0,1,1.73,3.82,5.47,5.47,0,0,1-.83,4.05,1.08,1.08,0,0,0-.27.61c0,.51.67.68,1.18.7l6.93.27c.92-1.63,1.87-3.42,1.61-5.28a8.57,8.57,0,0,0-.93-2.56q-1.05-2.13-2.09-4.26A8.89,8.89,0,0,1,23.08,43a6.51,6.51,0,0,1,1.17-3.16c1.57-2.4,4-4.2,5.24-6.77,1-2,2-5.41,3.84-6.37" transform="translate(0 0)"/><path class="cls-7" d="M40.49,17.58a6.15,6.15,0,0,1,3.7.85,8.88,8.88,0,0,1,2.53,2.06A19.19,19.19,0,0,1,49,23.91c.78,1.57,1.23,3.3,2.08,4.84a25.75,25.75,0,0,0,2.11,3c1.2,1.55,2.33,3.16,3.4,4.8A13.85,13.85,0,0,1,59.27,43a12.29,12.29,0,0,1-1.93,6.63,12.89,12.89,0,0,0-1.73,3.82,5.47,5.47,0,0,0,.83,4,1.16,1.16,0,0,1,.27.61c0,.51-.67.68-1.18.7l-6.93.27c-.92-1.63-1.87-3.42-1.62-5.28a8.87,8.87,0,0,1,.94-2.56q1-2.13,2.09-4.27a8.69,8.69,0,0,0,1.23-4.13,6.32,6.32,0,0,0-1.17-3.16c-1.57-2.4-4-4.2-5.23-6.78-1-2-1.28-4.51-3.06-5.84" transform="translate(0 0)"/><path class="cls-8" d="M31.2,11.49a39.47,39.47,0,0,1,6.19-.38,39.18,39.18,0,0,1,6,.37" transform="translate(0 0)"/><polygon class="cls-9" points="43.08 42.1 42.57 39.26 50.87 44.79 50.1 46.6 43.08 42.1"/><polygon class="cls-10" points="56.95 50.98 57.72 49.35 67.12 55.6 66.25 56.94 56.95 50.98"/><polygon class="cls-9" points="32.16 42.19 32.32 39.55 23.54 45.39 24.32 47.11 32.16 42.19"/><polygon class="cls-10" points="8.37 57.4 7.5 56.07 16.86 49.84 17.69 51.44 8.37 57.4"/><polygon class="cls-11" points="42.1 35.81 41.88 33.19 44.24 31.62 45.23 33.81 42.1 35.81"/><polygon class="cls-11" points="29.35 33.31 30.34 31.13 32.95 32.86 32.82 35.49 29.35 33.31"/><path class="cls-12" d="M24.06,27.19l-1.26,2-2.62-1.64-1-.19a1.38,1.38,0,0,1-.4-.15l-3.28-1.83-5.15.16-.79-.46a.89.89,0,0,1-.42-1l.66-2.23a1.31,1.31,0,0,0-.26-1.22L7.26,18" transform="translate(0 0)"/><path class="cls-12" d="M22.74,29.51l1.32-2-2.58-1.71L20.89,25a1.26,1.26,0,0,0-.3-.31l-3-2.23-2-4.76-.74-.54a.89.89,0,0,0-1.1.05L12,18.71a1.35,1.35,0,0,1-1.22.26L7.41,18" transform="translate(0 0)"/><path class="cls-12" d="M50.32,27.19l1.26,2,2.62-1.64,1-.19a1.38,1.38,0,0,0,.4-.15l3.27-1.83,5.15.16.8-.46a.87.87,0,0,0,.41-1l-.65-2.23a1.31,1.31,0,0,1,.26-1.22L67.12,18" transform="translate(0 0)"/><path class="cls-12" d="M51.64,29.51l-1.32-2,2.57-1.71.6-.85a1.26,1.26,0,0,1,.3-.31l3-2.23,2-4.76.74-.54a.89.89,0,0,1,1.1.05l1.77,1.52a1.35,1.35,0,0,0,1.22.26L67,18" transform="translate(0 0)"/><path class="cls-13" d="M73.41,37.21A36.2,36.2,0,1,1,37.21,1,36.2,36.2,0,0,1,73.41,37.21Z" transform="translate(0 0)"/><path class="cls-14" d="M9,55a33.43,33.43,0,0,1-.25-35.25l.09-.13" transform="translate(0 0)"/><path class="cls-14" d="M64.76,55.9a33.35,33.35,0,0,1-54.85.55l0-.05" transform="translate(0 0)"/><path class="cls-14" d="M65.5,19.67l.1.16a33.4,33.4,0,0,1,.06,34.67l-.06.09" transform="translate(0 0)"/><path class="cls-14" d="M9.58,18.46a33.34,33.34,0,0,1,55.19.08" transform="translate(0 0)"/><line class="cls-15" x1="23.1" y1="17.21" x2="23.1" y2="11.52"/><path class="cls-15" d="M28.85,20.44c-3.65-.61-6-1.88-5.75-3.23C23.42,15.29,29.51,14,37.38,14s14.48,1.34,14.43,3.24c0,1.51-1.94,2.64-5.68,3.23" transform="translate(0 0)"/><path class="cls-15" d="M51.78,11.59c0-1.32-6.52-2.69-14.27-2.75" transform="translate(0 0)"/><line class="cls-15" x1="51.78" y1="16.89" x2="51.78" y2="11.57"/><path class="cls-15" d="M23.1,11.6c0-1.32,6.83-2.8,14.55-2.76" transform="translate(0 0)"/><g class="cls-16"><g class="cls-17"><text class="cls-18" transform="translate(90.24 91.31)"><tspan class="cls-19">D</tspan><tspan class="cls-20" x="20.8" y="0">e</tspan><tspan class="cls-21" x="36.08" y="0">p</tspan><tspan class="cls-19" x="53.91" y="0">a</tspan><tspan class="cls-22" x="70.73" y="0">r</tspan><tspan class="cls-23" x="83.98" y="0">t</tspan><tspan class="cls-24" x="94.86" y="0">m</tspan><tspan class="cls-25" x="122.4" y="0">e</tspan><tspan class="cls-26" x="137.93" y="0">n</tspan><tspan x="156.14" y="0">t </tspan><tspan class="cls-27" x="174.26" y="0">o</tspan><tspan x="190.58" y="0">f </tspan><tspan class="cls-28" x="209.64" y="0">B</tspan><tspan class="cls-24" x="229.18" y="0">i</tspan><tspan class="cls-29" x="238.32" y="0">o</tspan><tspan class="cls-30" x="254.61" y="0">l</tspan><tspan class="cls-31" x="263.66" y="0">og</tspan><tspan x="297.71" y="0">y </tspan></text><text class="cls-18" transform="translate(90.24 125.31)"><tspan class="cls-32">a</tspan><tspan class="cls-33" x="17.05" y="0">n</tspan><tspan x="35.84" y="0">d </tspan><tspan class="cls-34" x="60.95" y="0">B</tspan><tspan class="cls-24" x="80.48" y="0">i</tspan><tspan class="cls-35" x="89.63" y="0">o</tspan><tspan class="cls-36" x="106.07" y="0">t</tspan><tspan class="cls-37" x="116.17" y="0">e</tspan><tspan class="cls-38" x="131.78" y="0">c</tspan><tspan class="cls-39" x="147.33" y="0">h</tspan><tspan class="cls-40" x="166.62" y="0">n</tspan><tspan class="cls-41" x="185.28" y="0">o</tspan><tspan class="cls-42" x="201.57" y="0">l</tspan><tspan class="cls-31" x="210.63" y="0">og</tspan><tspan x="244.67" y="0">y </tspan></text><text class="cls-18" transform="translate(90.24 159.3)"><tspan class="cls-43">“</tspan><tspan class="cls-44" x="12.17" y="0">L</tspan><tspan class="cls-45" x="29.66" y="0">a</tspan><tspan class="cls-33" x="46.44" y="0">z</tspan><tspan class="cls-38" x="62.3" y="0">z</tspan><tspan class="cls-45" x="78.22" y="0">a</tspan><tspan class="cls-46" x="95" y="0">r</tspan><tspan class="cls-47" x="107.59" y="0">o </tspan><tspan class="cls-19" x="131.86" y="0">S</tspan><tspan class="cls-21" x="150.04" y="0">p</tspan><tspan class="cls-48" x="167.87" y="0">a</tspan><tspan class="cls-39" x="184.93" y="0">l</tspan><tspan class="cls-49" x="194.7" y="0">l</tspan><tspan class="cls-48" x="204.21" y="0">a</tspan><tspan class="cls-49" x="221.26" y="0">n</tspan><tspan class="cls-21" x="240.35" y="0">z</tspan><tspan class="cls-50" x="256.23" y="0">an</tspan><tspan class="cls-51" x="292.58" y="0">i</tspan><tspan x="301.4" y="0">&quot; </tspan></text></g></g><path class="cls-3" d="M93.93,41.6c0,2.11,0,4.39,2,6.08a6.68,6.68,0,0,0,8.26,0c2-1.69,2-4,2-6.08V26.26h2.78v16.1a9.68,9.68,0,0,1-1.58,6,9.61,9.61,0,0,1-14.62,0,9.68,9.68,0,0,1-1.58-6V26.26h2.78Z" transform="translate(0 0)"/><polygon class="cls-3" points="115.38 51.28 115.38 25.22 134.88 45.66 134.88 26.27 137.66 26.27 137.66 52.41 118.15 31.97 118.15 51.28 115.38 51.28"/><rect class="cls-3" x="144.1" y="26.26" width="2.77" height="25.02"/><polygon class="cls-3" points="153.48 26.27 160.53 45.36 167.58 26.27 170.65 26.27 160.53 52.78 150.4 26.27 153.48 26.27"/><polygon class="cls-3" points="187.15 28.89 176.95 28.89 176.95 36.32 186.85 36.32 186.85 38.94 176.95 38.94 176.95 48.66 187.15 48.66 187.15 51.28 174.18 51.28 174.18 26.27 187.15 26.27 187.15 28.89"/><path class="cls-3" d="M196.26,26.27c1.69,0,4.2.11,6.08,1.38a6.55,6.55,0,0,1,2.74,5.55,6.59,6.59,0,0,1-6.3,6.91l7.95,11.17h-3.38l-7.61-11H195v11h-2.78v-25ZM195,37.86h1.76c3.45,0,5.51-1.65,5.51-4.58a3.89,3.89,0,0,0-2-3.68,7.2,7.2,0,0,0-3.6-.71H195Z" transform="translate(0 0)"/><path class="cls-3" d="M222.25,31.22a6.06,6.06,0,0,0-1.46-1.88,4.54,4.54,0,0,0-2.81-.86c-2.48,0-4.21,1.54-4.21,3.86a2.65,2.65,0,0,0,.94,2.18,8.11,8.11,0,0,0,2.63,1.57l2.4,1a12,12,0,0,1,3.86,2.37A6,6,0,0,1,225.4,44c0,4.62-3.41,7.69-7.91,7.69a7.48,7.48,0,0,1-5.44-2,9.09,9.09,0,0,1-2.33-4.43l2.7-.75a5.89,5.89,0,0,0,1.51,3.19,5.12,5.12,0,0,0,8.62-3.56,3.74,3.74,0,0,0-1.24-2.93,10.89,10.89,0,0,0-3-1.72l-2.25-1.06a11,11,0,0,1-3.33-2.06A5.19,5.19,0,0,1,211,32.3c0-3.86,3-6.45,7-6.45A6.77,6.77,0,0,1,222,27a7.55,7.55,0,0,1,2.43,2.77Z" transform="translate(0 0)"/><rect class="cls-3" x="230.5" y="26.26" width="2.77" height="25.02"/><polygon class="cls-3" points="245.88 28.89 245.88 51.28 243.1 51.28 243.1 28.89 237.02 28.89 237.02 26.27 251.95 26.27 251.95 28.89 245.88 28.89"/><path class="cls-3" d="M267.81,44.23H257.16l-3,7.05h-3.07L262.6,25.06l11.22,26.22h-3.08ZM257.09,19.89l2.62-1.69,4.73,4.88-1.61,1.2Zm9.64,21.71-4.21-10-4.27,10Z" transform="translate(0 0)"/><path class="cls-3" d="M286.07,26.26h5.1a13.62,13.62,0,0,1,9.23,2.93,12.18,12.18,0,0,1,4.28,9.6,11.9,11.9,0,0,1-4.39,9.6c-2.29,2-4.69,2.89-9.15,2.89h-5.07Zm2.78,22.4h2.44a10.72,10.72,0,0,0,7.16-2.25,9.57,9.57,0,0,0,3.38-7.62c0-6-4.21-9.9-10.54-9.9h-2.44Z" transform="translate(0 0)"/><rect class="cls-3" x="309.77" y="26.26" width="2.77" height="25.02"/><path class="cls-3" d="M332.27,26.26c2.51,0,4.62.31,6.3,1.77a7,7,0,0,1,2.29,5.36c0,3.53-2.21,7-7.91,7h-2.44V51.28h-2.78v-25Zm-1.76,11.52h2.29c3.3,0,5.29-1.65,5.29-4.54,0-4-3.72-4.35-5.52-4.35h-2.06Z" transform="translate(0 0)"/><path class="cls-3" d="M356.69,44.23H346l-3,7.05H340l11.51-26.22,11.22,26.22h-3.08ZM355.6,41.6l-4.2-10-4.28,10Z" transform="translate(0 0)"/><polygon class="cls-3" points="364.41 26.27 371.46 45.36 378.51 26.27 381.59 26.27 371.46 52.78 361.34 26.27 364.41 26.27"/><rect class="cls-3" x="385.11" y="26.26" width="2.77" height="25.02"/><path class="cls-3" d="M408.14,44.23H397.49l-3,7.05h-3.08l11.51-26.22,11.22,26.22h-3.08Zm-1.09-2.63-4.2-10-4.28,10Z" transform="translate(0 0)"/></g></g></svg>