<svg id="Ebene_1" data-name="Ebene 1" xmlns="http://www.w3.org/2000/svg" viewBox="0 0 253.72 32.37"><defs><style>.cls-1{fill:#0e3192;}</style></defs><title>dfg_logo</title><path class="cls-1" d="M379,312.78h15c4,0,7.44-.85,9.89-3s4-5.65,4-11.08c0-5.82-1.4-9.36-3.74-11.46s-5.68-2.8-9.66-2.8H379v6.12h13.12a4.29,4.29,0,0,1,4.11,2.06c.77,1.35,1,3.28,1,5.79s-.21,4.33-1,5.68a4.26,4.26,0,0,1-4.11,2.08h-3v-10H379Z" transform="translate(-379 -283.62)"/><polygon class="cls-1" points="31.1 29.16 41.27 29.16 41.27 18.88 53.94 18.88 53.94 12.51 41.27 12.51 41.27 6.94 53.94 6.94 53.94 0.81 31.1 0.81 31.1 29.16"/><path class="cls-1" d="M439.95,287.51A13,13,0,0,0,435,298.19c0,5.09,1.83,8.84,4.79,11.34s7.09,3.75,11.7,3.75a37.91,37.91,0,0,0,11.31-1.5V298.7H454.2v7.62l-.19.07a7.09,7.09,0,0,1-2.4.27,5.46,5.46,0,0,1-4.79-2.37,9.66,9.66,0,0,1-1.37-5.39,7.91,7.91,0,0,1,2.54-6.22,9.91,9.91,0,0,1,6.64-2.12,14,14,0,0,1,6.54,1.45v-7.05a34.11,34.11,0,0,0-9.63-1h0a18.67,18.67,0,0,0-11.58,3.58" transform="translate(-379 -283.62)"/><path class="cls-1" d="M477.36,284.4h2.5a4.92,4.92,0,0,1,3.89,1.44,5.65,5.65,0,0,1,1.16,3.75,4.8,4.8,0,0,1-1.64,4,6.66,6.66,0,0,1-4.15,1.21h-1.77Zm1,9.54h.83q4.62.1,4.74-4.4a4.25,4.25,0,0,0-1.19-3.34,4.5,4.5,0,0,0-2.92-.91h-1.46Z" transform="translate(-379 -283.62)"/><path class="cls-1" d="M492.26,294.59a6.07,6.07,0,0,1-2.14.42,3,3,0,0,1-2.59-1.15,4.72,4.72,0,0,1-.76-2.84,4.64,4.64,0,0,1,.87-2.88,2.7,2.7,0,0,1,2.24-1.11,2.57,2.57,0,0,1,2.26,1.12,4.88,4.88,0,0,1,.68,2.66v.48h-5.06a3.25,3.25,0,0,0,.62,2,2.11,2.11,0,0,0,1.81.87,3.59,3.59,0,0,0,1.13-.2,3.64,3.64,0,0,0,.94-.37Zm-.44-4.1a3.8,3.8,0,0,0-.42-1.84,1.61,1.61,0,0,0-1.47-.82,1.92,1.92,0,0,0-1.58.84,3,3,0,0,0-.59,1.82Z" transform="translate(-379 -283.62)"/><path class="cls-1" d="M500.54,293a17.89,17.89,0,0,0,.06,1.79h-.88v-1.36h0a2.59,2.59,0,0,1-.28.5,2.33,2.33,0,0,1-.45.51,2,2,0,0,1-.68.36,2.55,2.55,0,0,1-1,.17,2.25,2.25,0,0,1-1.93-.84,3.39,3.39,0,0,1-.58-2.09v-4.87h.9v4.63a3,3,0,0,0,.42,1.71,1.46,1.46,0,0,0,1.34.66,2,2,0,0,0,1.05-.27,1.76,1.76,0,0,0,.67-.66,2.69,2.69,0,0,0,.36-.9,4.34,4.34,0,0,0,.11-1v-4.22h.9Z" transform="translate(-379 -283.62)"/><path class="cls-1" d="M506.27,288H504.6v4.94a1.58,1.58,0,0,0,.23.88.79.79,0,0,0,.75.37,1.79,1.79,0,0,0,.84-.18l.06.77-.45.13a2.62,2.62,0,0,1-.66.08,1.79,1.79,0,0,1-.94-.21,1.36,1.36,0,0,1-.5-.55,2.78,2.78,0,0,1-.19-.8q0-.45,0-1V288h-1.45v-.8h1.45v-1.84l.9-.33v2.17h1.68Z" transform="translate(-379 -283.62)"/><path class="cls-1" d="M507.51,293.72a4,4,0,0,0,1.92.48,1.81,1.81,0,0,0,1.16-.37,1.19,1.19,0,0,0,.48-1,1.29,1.29,0,0,0-.54-1.07,6.48,6.48,0,0,0-1.23-.67q-.33-.16-.64-.34a5.4,5.4,0,0,1-.58-.4,2.15,2.15,0,0,1-.41-.56,1.5,1.5,0,0,1-.16-.7,1.81,1.81,0,0,1,.75-1.61,3,3,0,0,1,1.65-.47,7.61,7.61,0,0,1,.83.06,5.06,5.06,0,0,1,1,.28l-.08.82a4.31,4.31,0,0,0-1.64-.36,2.09,2.09,0,0,0-1.12.26.94.94,0,0,0-.34.38,1.31,1.31,0,0,0-.13.63.72.72,0,0,0,.16.45,1.57,1.57,0,0,0,.42.36c.17.1.37.21.59.31l.65.33a4.15,4.15,0,0,1,1.26.84,2.22,2.22,0,0,1,.32,2.46,2.1,2.1,0,0,1-.62.67,3.24,3.24,0,0,1-1.72.5,6,6,0,0,1-2.06-.36Z" transform="translate(-379 -283.62)"/><path class="cls-1" d="M518.69,288.21a3.82,3.82,0,0,0-1.58-.39,2.52,2.52,0,0,0-2,.88,3.48,3.48,0,0,0-.74,2.31,3.43,3.43,0,0,0,.73,2.23,2.34,2.34,0,0,0,2,1,4.25,4.25,0,0,0,1.67-.34l.08.88a6,6,0,0,1-1.89.27,3.17,3.17,0,0,1-2.65-1.21,4.44,4.44,0,0,1-.88-2.78,4.12,4.12,0,0,1,1-2.88A3.43,3.43,0,0,1,517,287a5.29,5.29,0,0,1,1.13.1l.4.09.25.1Z" transform="translate(-379 -283.62)"/><path class="cls-1" d="M520.53,283.62h.9v4.87h0a2.72,2.72,0,0,1,.9-1.06,2.6,2.6,0,0,1,1.4-.4,2.19,2.19,0,0,1,2,.9,4.53,4.53,0,0,1,.51,2.34v4.56h-.9v-4.55a7.65,7.65,0,0,0-.06-1,2.18,2.18,0,0,0-.25-.76,1.47,1.47,0,0,0-1.45-.73,1.85,1.85,0,0,0-1.7.94,3.91,3.91,0,0,0-.49,2v4.08h-.9Z" transform="translate(-379 -283.62)"/><path class="cls-1" d="M533.79,294.59a6.07,6.07,0,0,1-2.14.42,3,3,0,0,1-2.59-1.15,4.72,4.72,0,0,1-.76-2.84,4.63,4.63,0,0,1,.87-2.88,2.7,2.7,0,0,1,2.24-1.11,2.57,2.57,0,0,1,2.26,1.12,4.88,4.88,0,0,1,.68,2.66v.48h-5.06a3.25,3.25,0,0,0,.62,2,2.11,2.11,0,0,0,1.81.87,3.59,3.59,0,0,0,1.13-.2,3.64,3.64,0,0,0,.94-.37Zm-.44-4.1a3.8,3.8,0,0,0-.42-1.84,1.61,1.61,0,0,0-1.47-.82,1.92,1.92,0,0,0-1.58.84,3,3,0,0,0-.59,1.82Z" transform="translate(-379 -283.62)"/><path class="cls-1" d="M477.32,302.33h4.8v.89h-3.81V307h3.63v.89h-3.63v4.92h-1Z" transform="translate(-379 -283.62)"/><path class="cls-1" d="M483.41,309a4.59,4.59,0,0,1,.84-2.78,3,3,0,0,1,2.6-1.21,3.08,3.08,0,0,1,2.63,1.21,5.14,5.14,0,0,1,0,5.55,3.09,3.09,0,0,1-2.63,1.23,3,3,0,0,1-2.6-1.23A4.61,4.61,0,0,1,483.41,309Zm1,0a3.75,3.75,0,0,0,.64,2.25,2.06,2.06,0,0,0,1.82.94,2.13,2.13,0,0,0,1.84-.94,3.87,3.87,0,0,0,.61-2.25,4,4,0,0,0-.61-2.28,2.16,2.16,0,0,0-1.84-.91,2.08,2.08,0,0,0-1.82.91A3.86,3.86,0,0,0,484.4,309Z" transform="translate(-379 -283.62)"/><path class="cls-1" d="M492.29,306.84q0-1.06-.06-1.7h.9v1.46h0a3.29,3.29,0,0,1,.74-1.15,1.6,1.6,0,0,1,1.16-.5,3,3,0,0,1,.64.09v1a2.38,2.38,0,0,0-.66-.09,1.52,1.52,0,0,0-.88.27,2,2,0,0,0-.57.73,3.78,3.78,0,0,0-.29,1,6.12,6.12,0,0,0-.1,1.08v3.77h-.9Z" transform="translate(-379 -283.62)"/><path class="cls-1" d="M496.7,311.66a4,4,0,0,0,1.92.48,1.81,1.81,0,0,0,1.16-.37,1.19,1.19,0,0,0,.48-1,1.29,1.29,0,0,0-.54-1.07,6.46,6.46,0,0,0-1.23-.67c-.22-.11-.43-.22-.64-.34a5.43,5.43,0,0,1-.58-.4,2.14,2.14,0,0,1-.41-.55,1.51,1.51,0,0,1-.16-.7,1.8,1.8,0,0,1,.75-1.61,3,3,0,0,1,1.65-.47,7.52,7.52,0,0,1,.83.06,5.06,5.06,0,0,1,1,.28l-.08.82a4.32,4.32,0,0,0-1.64-.36,2.09,2.09,0,0,0-1.12.26.93.93,0,0,0-.34.38,1.32,1.32,0,0,0-.13.63.72.72,0,0,0,.16.45,1.54,1.54,0,0,0,.42.36c.17.1.37.21.59.31l.65.33a4.14,4.14,0,0,1,1.26.84,2.22,2.22,0,0,1,.32,2.46,2.1,2.1,0,0,1-.62.67,3.24,3.24,0,0,1-1.72.5,6,6,0,0,1-2.06-.36Z" transform="translate(-379 -283.62)"/><path class="cls-1" d="M507.89,306.15a3.82,3.82,0,0,0-1.58-.39,2.52,2.52,0,0,0-2,.88,3.47,3.47,0,0,0-.74,2.31,3.43,3.43,0,0,0,.73,2.23,2.34,2.34,0,0,0,2,1,4.25,4.25,0,0,0,1.67-.34l.08.88a6,6,0,0,1-1.89.27,3.17,3.17,0,0,1-2.65-1.21,4.44,4.44,0,0,1-.88-2.78,4.12,4.12,0,0,1,1-2.88,3.43,3.43,0,0,1,2.64-1.11,5.29,5.29,0,0,1,1.13.1l.4.09.25.1Z" transform="translate(-379 -283.62)"/><path class="cls-1" d="M509.72,301.55h.9v4.87h0a2.71,2.71,0,0,1,.9-1.06,2.6,2.6,0,0,1,1.4-.4,2.19,2.19,0,0,1,2,.9,4.52,4.52,0,0,1,.51,2.34v4.56h-.9v-4.55a7.65,7.65,0,0,0-.06-1,2.18,2.18,0,0,0-.25-.76,1.47,1.47,0,0,0-1.45-.73,1.85,1.85,0,0,0-1.7.94,3.91,3.91,0,0,0-.49,2v4.08h-.9Z" transform="translate(-379 -283.62)"/><path class="cls-1" d="M523.78,311a17.86,17.86,0,0,0,.06,1.79H523V311.4h0a2.6,2.6,0,0,1-.28.5,2.34,2.34,0,0,1-.45.51,2.06,2.06,0,0,1-.68.36,2.56,2.56,0,0,1-1,.17,2.25,2.25,0,0,1-1.93-.84A3.39,3.39,0,0,1,518,310v-4.87h.9v4.63a3,3,0,0,0,.42,1.71,1.46,1.46,0,0,0,1.34.66,2,2,0,0,0,1.05-.27,1.76,1.76,0,0,0,.67-.66,2.69,2.69,0,0,0,.36-.9,4.34,4.34,0,0,0,.11-1v-4.22h.9Z" transform="translate(-379 -283.62)"/><path class="cls-1" d="M526.34,306.93q0-.87-.06-1.79h.88v1.36h0a4.4,4.4,0,0,1,.3-.54,2.09,2.09,0,0,1,.43-.49,2,2,0,0,1,.68-.38,3.16,3.16,0,0,1,1-.13,2.27,2.27,0,0,1,2,.84,3.55,3.55,0,0,1,.56,2.09v4.87h-.9v-4.64a3.32,3.32,0,0,0-.39-1.73,1.57,1.57,0,0,0-1.37-.63,1.87,1.87,0,0,0-1.71.89,2.85,2.85,0,0,0-.36.88,4.54,4.54,0,0,0-.11,1v4.22h-.9Z" transform="translate(-379 -283.62)"/><path class="cls-1" d="M540.49,312.13a4.64,4.64,0,0,1-.76,2.72A3.17,3.17,0,0,1,537,316a6.31,6.31,0,0,1-1.34-.16l-.9-.24.08-.94a4.66,4.66,0,0,0,2.17.53,2.71,2.71,0,0,0,1.39-.33,1.83,1.83,0,0,0,.77-.84,3.67,3.67,0,0,0,.33-1.24c0-.47.06-1,.06-1.51h0a2.38,2.38,0,0,1-2.24,1.49,2.63,2.63,0,0,1-2.43-1.28,3.68,3.68,0,0,1-.51-1.23,5.69,5.69,0,0,1,.54-4.17,2.6,2.6,0,0,1,2.33-1.12,4.42,4.42,0,0,1,1.28.17,2.43,2.43,0,0,1,1,.87h0v-.86h.9ZM535.21,309a3.93,3.93,0,0,0,.49,2,1.77,1.77,0,0,0,1.64,1,1.88,1.88,0,0,0,1.75-1,4.23,4.23,0,0,0,.5-2,4.92,4.92,0,0,0-.46-2.3,2.12,2.12,0,0,0-2.79-.61,2,2,0,0,0-.68.75,3.77,3.77,0,0,0-.35,1A6.64,6.64,0,0,0,535.21,309Z" transform="translate(-379 -283.62)"/><path class="cls-1" d="M542.4,311.66a4,4,0,0,0,1.92.48,1.81,1.81,0,0,0,1.16-.37,1.19,1.19,0,0,0,.48-1,1.29,1.29,0,0,0-.54-1.07,6.46,6.46,0,0,0-1.23-.67c-.22-.11-.43-.22-.64-.34a5.43,5.43,0,0,1-.58-.4,2.14,2.14,0,0,1-.41-.55,1.51,1.51,0,0,1-.16-.7,1.8,1.8,0,0,1,.75-1.61,3,3,0,0,1,1.65-.47,7.52,7.52,0,0,1,.83.06,5.06,5.06,0,0,1,1,.28l-.08.82a4.32,4.32,0,0,0-1.64-.36,2.09,2.09,0,0,0-1.12.26.93.93,0,0,0-.34.38,1.32,1.32,0,0,0-.13.63.72.72,0,0,0,.16.45,1.54,1.54,0,0,0,.42.36c.17.1.37.21.59.31l.65.33a4.14,4.14,0,0,1,1.26.84,2.22,2.22,0,0,1,.32,2.46,2.1,2.1,0,0,1-.62.67,3.24,3.24,0,0,1-1.72.5,6,6,0,0,1-2.06-.36Z" transform="translate(-379 -283.62)"/><path class="cls-1" d="M554.62,312.13a4.64,4.64,0,0,1-.76,2.72,3.17,3.17,0,0,1-2.69,1.13,6.31,6.31,0,0,1-1.34-.16l-.9-.24.08-.94a4.66,4.66,0,0,0,2.17.53,2.71,2.71,0,0,0,1.39-.33,1.83,1.83,0,0,0,.77-.84,3.67,3.67,0,0,0,.33-1.24c0-.47.06-1,.06-1.51h0a2.38,2.38,0,0,1-2.24,1.49,2.63,2.63,0,0,1-2.43-1.28,3.68,3.68,0,0,1-.51-1.23,5.69,5.69,0,0,1,.54-4.17,2.6,2.6,0,0,1,2.33-1.12,4.42,4.42,0,0,1,1.28.17,2.43,2.43,0,0,1,1,.87h0v-.86h.9ZM549.34,309a3.93,3.93,0,0,0,.49,2,1.77,1.77,0,0,0,1.64,1,1.88,1.88,0,0,0,1.75-1,4.23,4.23,0,0,0,.5-2,4.92,4.92,0,0,0-.46-2.3,2.12,2.12,0,0,0-2.79-.61,2,2,0,0,0-.68.75,3.77,3.77,0,0,0-.35,1A6.64,6.64,0,0,0,549.34,309Z" transform="translate(-379 -283.62)"/><path class="cls-1" d="M562,312.52a6.08,6.08,0,0,1-2.14.42,3,3,0,0,1-2.59-1.15,4.72,4.72,0,0,1-.76-2.84,4.64,4.64,0,0,1,.87-2.88,2.7,2.7,0,0,1,2.24-1.11,2.57,2.57,0,0,1,2.26,1.12,4.88,4.88,0,0,1,.68,2.66v.48h-5.06a3.26,3.26,0,0,0,.62,2,2.11,2.11,0,0,0,1.81.87,3.59,3.59,0,0,0,1.13-.2,3.66,3.66,0,0,0,.94-.37Zm-.44-4.11a3.8,3.8,0,0,0-.42-1.83,1.61,1.61,0,0,0-1.47-.82,1.92,1.92,0,0,0-1.58.84,3,3,0,0,0-.59,1.82Z" transform="translate(-379 -283.62)"/><path class="cls-1" d="M573.63,312.76v-5.07a4.87,4.87,0,0,0-.06-.78,1.63,1.63,0,0,0-.29-.6,1.22,1.22,0,0,0-.49-.42,2.08,2.08,0,0,0-.79-.13,1.9,1.9,0,0,0-1.42.66,3.1,3.1,0,0,0-.65,2.13v4.22H569v-5.07a4.34,4.34,0,0,0-.07-.78,1.62,1.62,0,0,0-.29-.6,1.22,1.22,0,0,0-.49-.42,2.09,2.09,0,0,0-.79-.13,1.9,1.9,0,0,0-1.42.66,3.1,3.1,0,0,0-.65,2.13v4.22h-.91v-5.83q0-.88-.06-1.79h.91v1.29h0a3.39,3.39,0,0,1,.28-.47,1.72,1.72,0,0,1,.41-.47,2.59,2.59,0,0,1,.67-.39,2.92,2.92,0,0,1,1-.15,3.16,3.16,0,0,1,.58.06,1.82,1.82,0,0,1,.6.24,1.64,1.64,0,0,1,.52.48,2.21,2.21,0,0,1,.31.83h0a2.66,2.66,0,0,1,.91-1.14,2.56,2.56,0,0,1,1.52-.47,2.3,2.3,0,0,1,1.78.72,2.68,2.68,0,0,1,.61,1.84v5.25Z" transform="translate(-379 -283.62)"/><path class="cls-1" d="M582,312.52a6.08,6.08,0,0,1-2.14.42,3,3,0,0,1-2.59-1.15,4.72,4.72,0,0,1-.76-2.84,4.64,4.64,0,0,1,.87-2.88,2.7,2.7,0,0,1,2.24-1.11,2.57,2.57,0,0,1,2.26,1.12,4.88,4.88,0,0,1,.68,2.66v.48h-5.06a3.25,3.25,0,0,0,.62,2,2.11,2.11,0,0,0,1.81.87,3.59,3.59,0,0,0,1.13-.2,3.66,3.66,0,0,0,.94-.37Zm-.44-4.11a3.8,3.8,0,0,0-.42-1.83,1.61,1.61,0,0,0-1.47-.82,1.92,1.92,0,0,0-1.58.84,3,3,0,0,0-.59,1.82Z" transform="translate(-379 -283.62)"/><path class="cls-1" d="M585.4,303.11h-.9v-1.25h.9Zm-.9,2h.9v7.62h-.9Z" transform="translate(-379 -283.62)"/><path class="cls-1" d="M587.81,306.93q0-.87-.06-1.79h.88v1.36h0a4.4,4.4,0,0,1,.3-.54,2.09,2.09,0,0,1,.43-.49,2,2,0,0,1,.68-.38,3.16,3.16,0,0,1,1-.13,2.27,2.27,0,0,1,2,.84,3.55,3.55,0,0,1,.56,2.09v4.87h-.9v-4.64a3.32,3.32,0,0,0-.39-1.73,1.57,1.57,0,0,0-1.37-.63,1.87,1.87,0,0,0-1.71.89,2.85,2.85,0,0,0-.36.88,4.54,4.54,0,0,0-.11,1v4.22h-.9Z" transform="translate(-379 -283.62)"/><path class="cls-1" d="M595.56,311.66a4,4,0,0,0,1.92.48,1.81,1.81,0,0,0,1.16-.37,1.19,1.19,0,0,0,.48-1,1.29,1.29,0,0,0-.54-1.07,6.46,6.46,0,0,0-1.23-.67c-.22-.11-.43-.22-.64-.34a5.43,5.43,0,0,1-.58-.4,2.14,2.14,0,0,1-.41-.55,1.51,1.51,0,0,1-.16-.7,1.8,1.8,0,0,1,.75-1.61A3,3,0,0,1,598,305a7.52,7.52,0,0,1,.83.06,5.06,5.06,0,0,1,1,.28l-.08.82a4.32,4.32,0,0,0-1.64-.36,2.09,2.09,0,0,0-1.12.26.93.93,0,0,0-.34.38,1.32,1.32,0,0,0-.13.63.72.72,0,0,0,.16.45,1.54,1.54,0,0,0,.42.36c.17.1.37.21.59.31l.65.33a4.14,4.14,0,0,1,1.26.84,2.22,2.22,0,0,1,.32,2.46,2.1,2.1,0,0,1-.62.67,3.24,3.24,0,0,1-1.72.5,6,6,0,0,1-2.06-.36Z" transform="translate(-379 -283.62)"/><path class="cls-1" d="M606.74,306.15a3.82,3.82,0,0,0-1.58-.39,2.52,2.52,0,0,0-2,.88,3.47,3.47,0,0,0-.74,2.31,3.43,3.43,0,0,0,.73,2.23,2.34,2.34,0,0,0,2,1,4.25,4.25,0,0,0,1.67-.34l.08.88a6,6,0,0,1-1.89.27,3.17,3.17,0,0,1-2.65-1.21,4.44,4.44,0,0,1-.88-2.78,4.12,4.12,0,0,1,1-2.88A3.43,3.43,0,0,1,605,305a5.29,5.29,0,0,1,1.13.1l.4.09.25.1Z" transform="translate(-379 -283.62)"/><path class="cls-1" d="M608.58,301.55h.9v4.87h0a2.71,2.71,0,0,1,.9-1.06,2.6,2.6,0,0,1,1.4-.4,2.19,2.19,0,0,1,2,.9,4.52,4.52,0,0,1,.51,2.34v4.56h-.9v-4.55a7.65,7.65,0,0,0-.06-1,2.18,2.18,0,0,0-.25-.76,1.47,1.47,0,0,0-1.45-.73,1.85,1.85,0,0,0-1.7.94,3.91,3.91,0,0,0-.49,2v4.08h-.9Z" transform="translate(-379 -283.62)"/><path class="cls-1" d="M621.13,311.54h0a2.23,2.23,0,0,1-1,1,2.88,2.88,0,0,1-2.62.12,1.93,1.93,0,0,1-.76-.57,2.5,2.5,0,0,1,0-2.83,2.43,2.43,0,0,1,1.12-.79,6,6,0,0,1,1.48-.33q.79,0,1.51,0H621v-.39q0-2-1.68-2a3.91,3.91,0,0,0-2.17.63v-.91a5.28,5.28,0,0,1,2.17-.52q2.62,0,2.59,2.84v3.36a10.12,10.12,0,0,0,.08,1.6h-.9Zm-.08-2.62h-.26q-.59,0-1.19,0a4.18,4.18,0,0,0-1.13.26,1.76,1.76,0,0,0-.81.55,1.47,1.47,0,0,0-.33,1,1.17,1.17,0,0,0,.47,1,1.71,1.71,0,0,0,1.07.33,2.13,2.13,0,0,0,1.26-.33,1.9,1.9,0,0,0,.66-.75,2.61,2.61,0,0,0,.24-.91c0-.31,0-.57,0-.77Z" transform="translate(-379 -283.62)"/><path class="cls-1" d="M625,305.94h-1.49v-.8H625v-.55q0-.61.06-1.2a2.93,2.93,0,0,1,.22-1,1.53,1.53,0,0,1,.59-.74,1.91,1.91,0,0,1,1.08-.26h.48a1,1,0,0,1,.37.13l-.06.82a1.48,1.48,0,0,0-.72-.17,1,1,0,0,0-.69.21,1.2,1.2,0,0,0-.33.58,3,3,0,0,0-.09.73q0,.4,0,.77v.66h1.66v.8h-1.66v6.82H625Z" transform="translate(-379 -283.62)"/><path class="cls-1" d="M632.51,305.94h-1.68v4.94a1.58,1.58,0,0,0,.23.88.79.79,0,0,0,.75.37,1.78,1.78,0,0,0,.84-.18l.06.78-.45.13a2.58,2.58,0,0,1-.66.08,1.78,1.78,0,0,1-.94-.21,1.36,1.36,0,0,1-.5-.55,2.78,2.78,0,0,1-.19-.8q0-.45,0-1v-4.45h-1.45v-.8h1.45V303.3l.9-.33v2.17h1.68Z" transform="translate(-379 -283.62)"/><text x="-379" y="-283.62"></text></svg>