<?xml version="1.0" encoding="utf-8"?>
<!-- Generator: Adobe Illustrator 23.0.2, SVG Export Plug-In . SVG Version: 6.00 Build 0)  -->
<svg version="1.1" id="Capa_1" xmlns="http://www.w3.org/2000/svg" xmlns:xlink="http://www.w3.org/1999/xlink" x="0px" y="0px"
	 viewBox="0 0 287 69" style="enable-background:new 0 0 287 69;" xml:space="preserve">
<style type="text/css">
	.st0{fill-rule:evenodd;clip-rule:evenodd;fill:#1E3157;}
	.st1{fill-rule:evenodd;clip-rule:evenodd;fill:#029AD3;}
	.st2{fill-rule:evenodd;clip-rule:evenodd;fill:#76C7EC;}
	.st3{filter:url(#Adobe_OpacityMaskFilter);}
	.st4{fill-rule:evenodd;clip-rule:evenodd;fill:#FFFFFF;}
	.st5{mask:url(#mask-2_1_);fill-rule:evenodd;clip-rule:evenodd;fill:#029AD3;}
	.st6{filter:url(#Adobe_OpacityMaskFilter_1_);}
	.st7{mask:url(#mask-2_2_);fill-rule:evenodd;clip-rule:evenodd;fill:#1E3157;}
	.st8{filter:url(#Adobe_OpacityMaskFilter_2_);}
	.st9{mask:url(#mask-2_3_);fill-rule:evenodd;clip-rule:evenodd;fill:#1E3157;}
	.st10{filter:url(#Adobe_OpacityMaskFilter_3_);}
	.st11{mask:url(#mask-2_4_);fill-rule:evenodd;clip-rule:evenodd;fill:#1E3157;}
	.st12{filter:url(#Adobe_OpacityMaskFilter_4_);}
	.st13{mask:url(#mask-2_5_);fill-rule:evenodd;clip-rule:evenodd;fill:#1E3157;}
	.st14{filter:url(#Adobe_OpacityMaskFilter_5_);}
	.st15{mask:url(#mask-2_6_);fill-rule:evenodd;clip-rule:evenodd;fill:#1E3157;}
	.st16{filter:url(#Adobe_OpacityMaskFilter_6_);}
	.st17{mask:url(#mask-2_7_);fill-rule:evenodd;clip-rule:evenodd;fill:#1E3157;}
	.st18{filter:url(#Adobe_OpacityMaskFilter_7_);}
	.st19{mask:url(#mask-2_8_);fill-rule:evenodd;clip-rule:evenodd;fill:#1E3157;}
	.st20{filter:url(#Adobe_OpacityMaskFilter_8_);}
	.st21{mask:url(#mask-2_9_);fill-rule:evenodd;clip-rule:evenodd;fill:#1E3157;}
</style>
<title>Group 34</title>
<desc>Created with Sketch.</desc>
<g id="Symbols">
	<g id="Menu_1" transform="translate(-145.000000, -34.000000)">
		<g id="Group-34" transform="translate(145.000000, 34.858661)">
			<polygon id="Fill-1" class="st0" points="25.5,36.9 30.5,33.9 51.5,45.9 46.4,49 			"/>
			<g id="Group-33">
				<g id="Group-4" transform="translate(25.913194, 46.074888)">
					<path id="Fill-2" class="st1" d="M25.6-0.1l0,4.7c0,1-0.8,1.8-2,2.6L0,21.3v-4.5c0-1,0.3-1.7,1.5-2.5L25.6-0.1z"/>
				</g>
				<polygon id="Fill-5" class="st0" points="25.5,21.5 25.5,15.4 51.2,30.8 46.1,33.8 				"/>
				<path id="Fill-7" class="st0" d="M25.6,0l25.5,15.4l-5,3L27.2,7.1c-1-0.6-1.6-1.6-1.6-2.8V0z"/>
				<path id="Fill-9" class="st1" d="M51.2,30.8l0,4.3c0,1.1-0.6,2.2-1.6,2.7L25.5,52.2v-6.1L51.2,30.8z"/>
				<polygon id="Fill-11" class="st2" points="5,33.8 0,30.8 25.5,15.4 25.5,21.5 				"/>
				<path id="Fill-13" class="st0" d="M25.5,46.1v6.1L1.5,37.8C0.6,37.2,0,36.2,0,35v-4.3L25.5,46.1z"/>
				<path id="Fill-15" class="st1" d="M51.1,15.4v4.5c0,0.9-0.4,1.8-1.5,2.5L25.5,36.9v-4.7c0-0.9,0.5-1.8,1.5-2.4L51.1,15.4z"/>
				<polygon id="Fill-17" class="st1" points="75.4,21.6 75.4,25.3 64.2,25.3 64.2,32.1 73,32.1 73,35.6 64.2,35.6 64.2,42.6 
					75.4,42.6 75.4,46.3 59.5,46.3 59.5,21.6 				"/>
				<path id="Fill-19" class="st1" d="M85.1,37h8l-3.1-8.2c-0.1-0.4-0.3-0.8-0.5-1.3c-0.2-0.5-0.3-1-0.5-1.6
					c-0.2,0.6-0.3,1.1-0.5,1.6c-0.2,0.5-0.3,0.9-0.5,1.3L85.1,37z M101.5,46.3h-3.6c-0.4,0-0.7-0.1-1-0.3c-0.3-0.2-0.5-0.4-0.6-0.7
					l-1.9-5H83.9l-1.9,5c-0.1,0.3-0.3,0.5-0.5,0.7c-0.3,0.2-0.6,0.3-1,0.3h-3.6l9.9-24.7h4.8L101.5,46.3z"/>
				<path id="Fill-21" class="st1" d="M117.4,26.1c-0.1,0.3-0.3,0.4-0.4,0.5c-0.2,0.1-0.4,0.2-0.6,0.2c-0.2,0-0.5-0.1-0.8-0.3
					c-0.3-0.2-0.6-0.4-1-0.6c-0.4-0.2-0.9-0.4-1.4-0.6c-0.5-0.2-1.2-0.3-1.9-0.3c-0.7,0-1.2,0.1-1.7,0.2c-0.5,0.2-0.9,0.4-1.2,0.6
					c-0.3,0.3-0.6,0.6-0.7,1c-0.2,0.4-0.2,0.8-0.2,1.3c0,0.6,0.2,1.1,0.5,1.4c0.3,0.4,0.8,0.7,1.3,1s1.2,0.5,1.9,0.7
					c0.7,0.2,1.4,0.4,2.1,0.7c0.7,0.2,1.4,0.5,2.1,0.9c0.7,0.3,1.3,0.7,1.9,1.2c0.5,0.5,1,1.1,1.3,1.8c0.3,0.7,0.5,1.6,0.5,2.6
					c0,1.1-0.2,2.2-0.6,3.1c-0.4,1-1,1.8-1.7,2.5c-0.8,0.7-1.7,1.3-2.7,1.7c-1.1,0.4-2.3,0.6-3.7,0.6c-0.8,0-1.6-0.1-2.4-0.2
					c-0.8-0.2-1.5-0.4-2.2-0.7s-1.4-0.6-2-1c-0.6-0.4-1.2-0.8-1.7-1.3l1.4-2.2c0.1-0.2,0.3-0.3,0.5-0.4c0.2-0.1,0.4-0.2,0.6-0.2
					c0.3,0,0.6,0.1,0.9,0.4c0.3,0.2,0.7,0.5,1.2,0.8c0.5,0.3,1,0.5,1.6,0.8c0.6,0.2,1.4,0.3,2.2,0.3c1.3,0,2.4-0.3,3.1-0.9
					c0.7-0.6,1.1-1.5,1.1-2.7c0-0.6-0.2-1.2-0.5-1.6c-0.3-0.4-0.8-0.8-1.3-1c-0.5-0.3-1.2-0.5-1.9-0.7c-0.7-0.2-1.4-0.4-2.1-0.6
					c-0.7-0.2-1.4-0.5-2.1-0.8c-0.7-0.3-1.3-0.7-1.9-1.2c-0.5-0.5-1-1.2-1.3-1.9c-0.3-0.8-0.5-1.7-0.5-2.8c0-0.9,0.2-1.8,0.5-2.6
					c0.4-0.9,0.9-1.6,1.6-2.3s1.6-1.2,2.6-1.6c1-0.4,2.2-0.6,3.5-0.6c1.5,0,2.9,0.2,4.1,0.7c1.3,0.5,2.3,1.1,3.2,1.9L117.4,26.1z"/>
				<g id="Clip-24">
				</g>
				<defs>
					<filter id="Adobe_OpacityMaskFilter" filterUnits="userSpaceOnUse" x="123" y="21.6" width="4.7" height="24.7">
						<feColorMatrix  type="matrix" values="1 0 0 0 0  0 1 0 0 0  0 0 1 0 0  0 0 0 1 0"/>
					</filter>
				</defs>
				<mask maskUnits="userSpaceOnUse" x="123" y="21.6" width="4.7" height="24.7" id="mask-2_1_">
					<g class="st3">
						<polygon id="path-1_1_" class="st4" points="0,68.4 287,68.4 287,1 0,1 						"/>
					</g>
				</mask>
				<polygon id="Fill-23" class="st5" points="123,46.3 127.8,46.3 127.8,21.6 123,21.6 				"/>
				<defs>
					<filter id="Adobe_OpacityMaskFilter_1_" filterUnits="userSpaceOnUse" x="136.1" y="21.4" width="22.3" height="25.2">
						<feColorMatrix  type="matrix" values="1 0 0 0 0  0 1 0 0 0  0 0 1 0 0  0 0 0 1 0"/>
					</filter>
				</defs>
				<mask maskUnits="userSpaceOnUse" x="136.1" y="21.4" width="22.3" height="25.2" id="mask-2_2_">
					<g class="st6">
						<polygon id="path-1_2_" class="st4" points="0,68.4 287,68.4 287,1 0,1 						"/>
					</g>
				</mask>
				<path id="Fill-25" class="st7" d="M151.9,42.6c0.8-0.2,1.5-0.4,2.2-0.8v-4.5H151c-0.3,0-0.5-0.1-0.7-0.2
					c-0.2-0.2-0.3-0.4-0.3-0.6v-2.6h8.4v10c-0.6,0.5-1.3,0.8-2,1.2c-0.7,0.3-1.4,0.6-2.2,0.8s-1.6,0.4-2.5,0.5s-1.9,0.2-2.9,0.2
					c-1.8,0-3.5-0.3-5.1-0.9c-1.5-0.6-2.9-1.5-4-2.6c-1.1-1.1-2-2.4-2.6-4c-0.6-1.5-1-3.2-1-5.1c0-1.9,0.3-3.6,0.9-5.1
					c0.6-1.5,1.5-2.9,2.6-4c1.1-1.1,2.5-2,4.1-2.6c1.6-0.6,3.4-0.9,5.4-0.9c2.1,0,3.8,0.3,5.4,0.9c1.5,0.6,2.8,1.4,3.8,2.3l-1.4,2.1
					c-0.3,0.4-0.6,0.6-1.1,0.6c-0.3,0-0.6-0.1-0.9-0.3c-0.4-0.2-0.8-0.4-1.1-0.6c-0.4-0.2-0.8-0.4-1.3-0.6c-0.5-0.2-1-0.3-1.6-0.4
					c-0.6-0.1-1.3-0.2-2-0.2c-1.2,0-2.4,0.2-3.4,0.6c-1,0.4-1.9,1-2.6,1.8c-0.7,0.8-1.3,1.7-1.6,2.7c-0.4,1.1-0.6,2.3-0.6,3.6
					c0,1.4,0.2,2.7,0.6,3.8c0.4,1.1,1,2,1.7,2.8c0.7,0.8,1.6,1.3,2.6,1.7c1,0.4,2.1,0.6,3.3,0.6C150.2,42.9,151.1,42.8,151.9,42.6z"
					/>
				<defs>
					<filter id="Adobe_OpacityMaskFilter_2_" filterUnits="userSpaceOnUse" x="161.2" y="28.5" width="16.4" height="18">
						<feColorMatrix  type="matrix" values="1 0 0 0 0  0 1 0 0 0  0 0 1 0 0  0 0 0 1 0"/>
					</filter>
				</defs>
				<mask maskUnits="userSpaceOnUse" x="161.2" y="28.5" width="16.4" height="18" id="mask-2_3_">
					<g class="st8">
						<polygon id="path-1_3_" class="st4" points="0,68.4 287,68.4 287,1 0,1 						"/>
					</g>
				</mask>
				<path id="Fill-26" class="st9" d="M169.9,31.5c-1.3,0-2.2,0.3-2.9,1c-0.7,0.7-1.2,1.7-1.4,2.9h8.1c0-0.5-0.1-1.1-0.2-1.5
					c-0.2-0.5-0.4-0.9-0.7-1.3s-0.7-0.7-1.2-0.9C171,31.6,170.5,31.5,169.9,31.5 M169.8,28.5c1.1,0,2.2,0.2,3.1,0.5
					c0.9,0.4,1.8,0.9,2.5,1.5c0.7,0.7,1.2,1.5,1.6,2.5c0.4,1,0.6,2.1,0.6,3.4c0,0.3,0,0.6,0,0.8s-0.1,0.4-0.2,0.5
					c-0.1,0.1-0.2,0.2-0.3,0.3c-0.1,0.1-0.3,0.1-0.5,0.1h-11.1c0.1,1.8,0.6,3.1,1.5,4c0.9,0.8,2,1.3,3.4,1.3c0.7,0,1.3-0.1,1.8-0.2
					c0.5-0.2,0.9-0.3,1.3-0.5c0.4-0.2,0.7-0.4,1-0.5c0.3-0.2,0.6-0.2,0.8-0.2c0.2,0,0.3,0,0.5,0.1c0.1,0.1,0.2,0.2,0.3,0.3l1.3,1.5
					c-0.5,0.5-1,1-1.6,1.4c-0.6,0.4-1.2,0.7-1.9,0.9c-0.6,0.2-1.3,0.4-2,0.5c-0.7,0.1-1.3,0.1-1.9,0.1c-1.2,0-2.4-0.2-3.5-0.6
					c-1.1-0.4-2-1-2.8-1.8c-0.8-0.8-1.4-1.8-1.9-2.9c-0.5-1.2-0.7-2.5-0.7-4c0-1.2,0.2-2.3,0.6-3.4c0.4-1.1,1-2,1.7-2.7
					c0.7-0.8,1.6-1.4,2.7-1.8C167.2,28.7,168.4,28.5,169.8,28.5"/>
				<defs>
					<filter id="Adobe_OpacityMaskFilter_3_" filterUnits="userSpaceOnUse" x="180.8" y="28.5" width="15.6" height="17.8">
						<feColorMatrix  type="matrix" values="1 0 0 0 0  0 1 0 0 0  0 0 1 0 0  0 0 0 1 0"/>
					</filter>
				</defs>
				<mask maskUnits="userSpaceOnUse" x="180.8" y="28.5" width="15.6" height="17.8" id="mask-2_4_">
					<g class="st10">
						<polygon id="path-1_4_" class="st4" points="0,68.4 287,68.4 287,1 0,1 						"/>
					</g>
				</mask>
				<path id="Fill-27" class="st11" d="M180.8,46.3V28.8h2.6c0.6,0,0.9,0.3,1.1,0.8l0.3,1.4c0.4-0.4,0.7-0.7,1.1-1
					c0.4-0.3,0.8-0.6,1.3-0.8c0.4-0.2,0.9-0.4,1.4-0.5c0.5-0.1,1.1-0.2,1.7-0.2c1,0,1.8,0.2,2.6,0.5c0.8,0.3,1.4,0.8,1.9,1.4
					c0.5,0.6,0.9,1.3,1.2,2.1s0.4,1.7,0.4,2.7v11.1h-4.3V35.2c0-1.1-0.3-1.9-0.8-2.5c-0.5-0.6-1.3-0.9-2.3-0.9
					c-0.7,0-1.4,0.2-2.1,0.5c-0.7,0.3-1.3,0.8-1.8,1.3v12.7H180.8z"/>
				<defs>
					<filter id="Adobe_OpacityMaskFilter_4_" filterUnits="userSpaceOnUse" x="199.3" y="28.5" width="17.7" height="18">
						<feColorMatrix  type="matrix" values="1 0 0 0 0  0 1 0 0 0  0 0 1 0 0  0 0 0 1 0"/>
					</filter>
				</defs>
				<mask maskUnits="userSpaceOnUse" x="199.3" y="28.5" width="17.7" height="18" id="mask-2_5_">
					<g class="st12">
						<polygon id="path-1_5_" class="st4" points="0,68.4 287,68.4 287,1 0,1 						"/>
					</g>
				</mask>
				<path id="Fill-28" class="st13" d="M208.2,43.3c1.5,0,2.6-0.5,3.3-1.5c0.7-1,1.1-2.4,1.1-4.3c0-1.9-0.4-3.3-1.1-4.3
					c-0.7-1-1.8-1.5-3.3-1.5c-1.5,0-2.6,0.5-3.4,1.5c-0.7,1-1.1,2.4-1.1,4.3s0.4,3.3,1.1,4.3C205.5,42.8,206.7,43.3,208.2,43.3
					 M208.2,28.5c1.3,0,2.6,0.2,3.6,0.6c1.1,0.4,2,1,2.8,1.8c0.8,0.8,1.4,1.7,1.8,2.8c0.4,1.1,0.6,2.4,0.6,3.7
					c0,1.4-0.2,2.6-0.6,3.8c-0.4,1.1-1,2.1-1.8,2.8c-0.8,0.8-1.7,1.4-2.8,1.8c-1.1,0.4-2.3,0.6-3.6,0.6c-1.3,0-2.6-0.2-3.6-0.6
					c-1.1-0.4-2-1-2.8-1.8c-0.8-0.8-1.4-1.7-1.8-2.8c-0.4-1.1-0.6-2.4-0.6-3.8c0-1.4,0.2-2.6,0.6-3.7c0.4-1.1,1-2.1,1.8-2.8
					c0.8-0.8,1.7-1.4,2.8-1.8C205.6,28.7,206.8,28.5,208.2,28.5"/>
				<defs>
					<filter id="Adobe_OpacityMaskFilter_5_" filterUnits="userSpaceOnUse" x="220.2" y="28.5" width="25.2" height="17.8">
						<feColorMatrix  type="matrix" values="1 0 0 0 0  0 1 0 0 0  0 0 1 0 0  0 0 0 1 0"/>
					</filter>
				</defs>
				<mask maskUnits="userSpaceOnUse" x="220.2" y="28.5" width="25.2" height="17.8" id="mask-2_6_">
					<g class="st14">
						<polygon id="path-1_6_" class="st4" points="0,68.4 287,68.4 287,1 0,1 						"/>
					</g>
				</mask>
				<path id="Fill-29" class="st15" d="M220.2,46.3V28.8h2.6c0.6,0,0.9,0.3,1.1,0.8l0.3,1.3c0.3-0.3,0.6-0.7,1-0.9
					c0.3-0.3,0.7-0.5,1.1-0.7c0.4-0.2,0.8-0.4,1.3-0.5c0.4-0.1,0.9-0.2,1.5-0.2c1.1,0,2.1,0.3,2.8,0.9c0.7,0.6,1.3,1.4,1.6,2.4
					c0.3-0.6,0.6-1.1,1-1.5c0.4-0.4,0.9-0.8,1.4-1c0.5-0.3,1-0.5,1.6-0.6c0.6-0.1,1.1-0.2,1.7-0.2c1,0,1.9,0.1,2.6,0.4
					c0.8,0.3,1.4,0.7,1.9,1.3s0.9,1.3,1.2,2.1c0.3,0.8,0.4,1.8,0.4,2.8v11.1H241V35.2c0-1.1-0.3-2-0.8-2.5c-0.5-0.6-1.2-0.8-2.2-0.8
					c-0.4,0-0.9,0.1-1.2,0.2c-0.4,0.1-0.7,0.4-1,0.6c-0.3,0.3-0.5,0.6-0.7,1c-0.2,0.4-0.2,0.9-0.2,1.5v11.1h-4.3V35.2
					c0-1.2-0.2-2-0.7-2.6c-0.5-0.5-1.2-0.8-2.1-0.8c-0.6,0-1.2,0.2-1.7,0.5c-0.5,0.3-1,0.7-1.5,1.2v12.8H220.2z"/>
				<defs>
					<filter id="Adobe_OpacityMaskFilter_6_" filterUnits="userSpaceOnUse" x="249.1" y="21" width="5.5" height="25.3">
						<feColorMatrix  type="matrix" values="1 0 0 0 0  0 1 0 0 0  0 0 1 0 0  0 0 0 1 0"/>
					</filter>
				</defs>
				<mask maskUnits="userSpaceOnUse" x="249.1" y="21" width="5.5" height="25.3" id="mask-2_7_">
					<g class="st16">
						<polygon id="path-1_7_" class="st4" points="0,68.4 287,68.4 287,1 0,1 						"/>
					</g>
				</mask>
				<path id="Fill-30" class="st17" d="M249.7,46.3h4.3V28.8h-4.3V46.3z M254.7,23.7c0,0.4-0.1,0.7-0.2,1c-0.2,0.3-0.4,0.6-0.6,0.8
					c-0.3,0.2-0.5,0.4-0.9,0.6c-0.3,0.1-0.7,0.2-1.1,0.2c-0.4,0-0.7-0.1-1.1-0.2c-0.3-0.1-0.6-0.3-0.9-0.6c-0.2-0.2-0.4-0.5-0.6-0.8
					c-0.1-0.3-0.2-0.7-0.2-1c0-0.4,0.1-0.7,0.2-1.1c0.1-0.3,0.3-0.6,0.6-0.9c0.2-0.2,0.5-0.4,0.9-0.6c0.3-0.1,0.7-0.2,1.1-0.2
					c0.4,0,0.7,0.1,1.1,0.2c0.3,0.1,0.6,0.3,0.9,0.6c0.3,0.2,0.5,0.5,0.6,0.9C254.6,23,254.7,23.3,254.7,23.7z"/>
				<defs>
					<filter id="Adobe_OpacityMaskFilter_7_" filterUnits="userSpaceOnUse" x="257.5" y="28.5" width="15.1" height="18">
						<feColorMatrix  type="matrix" values="1 0 0 0 0  0 1 0 0 0  0 0 1 0 0  0 0 0 1 0"/>
					</filter>
				</defs>
				<mask maskUnits="userSpaceOnUse" x="257.5" y="28.5" width="15.1" height="18" id="mask-2_8_">
					<g class="st18">
						<polygon id="path-1_8_" class="st4" points="0,68.4 287,68.4 287,1 0,1 						"/>
					</g>
				</mask>
				<path id="Fill-31" class="st19" d="M271.3,32.5c-0.1,0.2-0.3,0.3-0.4,0.4c-0.1,0.1-0.3,0.1-0.5,0.1c-0.2,0-0.4-0.1-0.6-0.2
					c-0.2-0.1-0.5-0.3-0.8-0.4c-0.3-0.2-0.6-0.3-1-0.4c-0.4-0.1-0.9-0.2-1.5-0.2c-0.8,0-1.4,0.1-2,0.4c-0.6,0.3-1,0.7-1.4,1.2
					c-0.4,0.5-0.7,1.1-0.8,1.8c-0.2,0.7-0.3,1.5-0.3,2.4c0,0.9,0.1,1.8,0.3,2.5c0.2,0.7,0.5,1.3,0.9,1.8s0.9,0.9,1.4,1.1
					c0.5,0.3,1.2,0.4,1.8,0.4s1.2-0.1,1.7-0.2c0.4-0.2,0.8-0.3,1.1-0.5c0.3-0.2,0.5-0.4,0.8-0.5c0.2-0.2,0.5-0.2,0.7-0.2
					c0.3,0,0.6,0.1,0.8,0.4l1.2,1.5c-0.5,0.5-1,1-1.6,1.4c-0.6,0.4-1.1,0.7-1.7,0.9c-0.6,0.2-1.2,0.4-1.9,0.5
					c-0.6,0.1-1.3,0.1-1.9,0.1c-1.1,0-2.1-0.2-3.1-0.6c-1-0.4-1.8-1-2.6-1.8c-0.7-0.8-1.3-1.7-1.7-2.8c-0.4-1.1-0.6-2.4-0.6-3.8
					c0-1.3,0.2-2.5,0.6-3.6c0.4-1.1,0.9-2,1.7-2.8c0.7-0.8,1.6-1.4,2.7-1.9c1.1-0.5,2.3-0.7,3.7-0.7c1.3,0,2.5,0.2,3.5,0.6
					c1,0.4,1.9,1,2.7,1.8L271.3,32.5z"/>
				<defs>
					<filter id="Adobe_OpacityMaskFilter_8_" filterUnits="userSpaceOnUse" x="273.6" y="28.5" width="13.4" height="18">
						<feColorMatrix  type="matrix" values="1 0 0 0 0  0 1 0 0 0  0 0 1 0 0  0 0 0 1 0"/>
					</filter>
				</defs>
				<mask maskUnits="userSpaceOnUse" x="273.6" y="28.5" width="13.4" height="18" id="mask-2_9_">
					<g class="st20">
						<polygon id="path-1_9_" class="st4" points="0,68.4 287,68.4 287,1 0,1 						"/>
					</g>
				</mask>
				<path id="Fill-32" class="st21" d="M285.8,32.2c-0.1,0.2-0.2,0.3-0.4,0.4c-0.1,0.1-0.3,0.1-0.5,0.1c-0.2,0-0.4-0.1-0.7-0.2
					c-0.2-0.1-0.5-0.2-0.8-0.4c-0.3-0.1-0.7-0.3-1.1-0.4c-0.4-0.1-0.9-0.2-1.4-0.2c-0.9,0-1.5,0.2-2,0.5c-0.5,0.4-0.7,0.8-0.7,1.4
					c0,0.4,0.1,0.7,0.4,0.9c0.3,0.3,0.6,0.5,1,0.7c0.4,0.2,0.9,0.4,1.4,0.5c0.5,0.2,1.1,0.3,1.6,0.5c0.5,0.2,1.1,0.4,1.6,0.6
					c0.5,0.2,1,0.5,1.4,0.9c0.4,0.4,0.7,0.8,1,1.3c0.3,0.5,0.4,1.1,0.4,1.8c0,0.8-0.2,1.6-0.5,2.3c-0.3,0.7-0.8,1.3-1.4,1.8
					c-0.6,0.5-1.4,0.9-2.2,1.2c-0.9,0.3-1.9,0.4-3.1,0.4c-0.6,0-1.2-0.1-1.8-0.2c-0.6-0.1-1.2-0.3-1.7-0.5c-0.5-0.2-1-0.4-1.5-0.7
					c-0.5-0.3-0.9-0.5-1.2-0.9l1-1.6c0.1-0.2,0.3-0.3,0.5-0.4c0.2-0.1,0.4-0.2,0.7-0.2c0.3,0,0.5,0.1,0.8,0.2
					c0.2,0.1,0.5,0.3,0.8,0.5c0.3,0.2,0.7,0.3,1.1,0.5c0.4,0.1,1,0.2,1.6,0.2c0.5,0,1-0.1,1.3-0.2c0.4-0.1,0.7-0.3,0.9-0.5
					c0.2-0.2,0.4-0.4,0.5-0.7c0.1-0.3,0.2-0.5,0.2-0.8c0-0.4-0.1-0.7-0.4-1c-0.3-0.3-0.6-0.5-1-0.7c-0.4-0.2-0.9-0.4-1.4-0.5
					c-0.5-0.2-1.1-0.3-1.6-0.5c-0.6-0.2-1.1-0.4-1.6-0.6c-0.5-0.2-1-0.6-1.4-0.9c-0.4-0.4-0.7-0.8-1-1.4c-0.3-0.5-0.4-1.2-0.4-2
					c0-0.7,0.1-1.4,0.4-2c0.3-0.6,0.7-1.2,1.3-1.7c0.6-0.5,1.3-0.9,2.1-1.2c0.8-0.3,1.8-0.4,2.9-0.4c1.2,0,2.4,0.2,3.4,0.6
					s1.9,0.9,2.5,1.6L285.8,32.2z"/>
			</g>
		</g>
	</g>
</g>
</svg>
