<svg id="Livello_1" data-name="Livello 1" xmlns="http://www.w3.org/2000/svg" xmlns:xlink="http://www.w3.org/1999/xlink" viewBox="0 0 229.7 55.39"><defs><style>.cls-1{fill:#0066b3;}.cls-2{fill:url(#Sfumatura_senza_nome_12);}.cls-3{fill:url(#Sfumatura_senza_nome_12-2);}.cls-4{fill:url(#Sfumatura_senza_nome_12-3);}.cls-5{fill:url(#Sfumatura_senza_nome_12-4);}.cls-6{fill:url(#Sfumatura_senza_nome_12-5);}.cls-7{fill:url(#Sfumatura_senza_nome_12-6);}.cls-8{fill:url(#Sfumatura_senza_nome_12-7);}.cls-9{fill:url(#Sfumatura_senza_nome_12-8);}.cls-10{fill:url(#Sfumatura_senza_nome_12-9);}.cls-11{fill:url(#Sfumatura_senza_nome_12-10);}.cls-12{fill:url(#Sfumatura_senza_nome_12-11);}.cls-13{fill:url(#Sfumatura_senza_nome_12-12);}.cls-14{fill:url(#Sfumatura_senza_nome_12-13);}.cls-15{fill:url(#Sfumatura_senza_nome_12-14);}.cls-16{fill:url(#Sfumatura_senza_nome_12-15);}.cls-17{fill:url(#Sfumatura_senza_nome_12-16);}.cls-18{fill:url(#Sfumatura_senza_nome_12-17);}.cls-19{fill:url(#Sfumatura_senza_nome_12-18);}.cls-20{fill:url(#Sfumatura_senza_nome_12-19);}.cls-21{fill:url(#Sfumatura_senza_nome_12-20);}.cls-22{fill:url(#Sfumatura_senza_nome_12-21);}.cls-23{fill:url(#Sfumatura_senza_nome_12-22);}.cls-24{fill:url(#Sfumatura_senza_nome_12-23);}.cls-25{fill:url(#Sfumatura_senza_nome_12-24);}</style><linearGradient id="Sfumatura_senza_nome_12" x1="8.99" y1="70.61" x2="114.83" y2="9.5" gradientUnits="userSpaceOnUse"><stop offset="0" stop-color="#008fd5"/><stop offset="0.3" stop-color="#00aeef"/><stop offset="0.9" stop-color="#8dc63f"/></linearGradient><linearGradient id="Sfumatura_senza_nome_12-2" x1="-21.02" y1="18.62" x2="84.81" y2="-42.49" xlink:href="#Sfumatura_senza_nome_12"/><linearGradient id="Sfumatura_senza_nome_12-3" x1="-21.06" y1="18.55" x2="84.78" y2="-42.55" xlink:href="#Sfumatura_senza_nome_12"/><linearGradient id="Sfumatura_senza_nome_12-4" x1="2.69" y1="59.69" x2="108.53" y2="-1.41" xlink:href="#Sfumatura_senza_nome_12"/><linearGradient id="Sfumatura_senza_nome_12-5" x1="0.63" y1="56.12" x2="106.47" y2="-4.98" xlink:href="#Sfumatura_senza_nome_12"/><linearGradient id="Sfumatura_senza_nome_12-6" x1="-3.21" y1="49.47" x2="102.63" y2="-11.63" xlink:href="#Sfumatura_senza_nome_12"/><linearGradient id="Sfumatura_senza_nome_12-7" x1="-10.09" y1="37.55" x2="95.74" y2="-23.56" xlink:href="#Sfumatura_senza_nome_12"/><linearGradient id="Sfumatura_senza_nome_12-8" x1="-15.5" y1="28.17" x2="90.33" y2="-32.93" xlink:href="#Sfumatura_senza_nome_12"/><linearGradient id="Sfumatura_senza_nome_12-9" x1="-8.95" y1="39.53" x2="96.89" y2="-21.57" xlink:href="#Sfumatura_senza_nome_12"/><linearGradient id="Sfumatura_senza_nome_12-10" x1="0.89" y1="56.56" x2="106.72" y2="-4.54" xlink:href="#Sfumatura_senza_nome_12"/><linearGradient id="Sfumatura_senza_nome_12-11" x1="0.95" y1="56.67" x2="106.78" y2="-4.43" xlink:href="#Sfumatura_senza_nome_12"/><linearGradient id="Sfumatura_senza_nome_12-12" x1="5.96" y1="65.35" x2="111.79" y2="4.24" xlink:href="#Sfumatura_senza_nome_12"/><linearGradient id="Sfumatura_senza_nome_12-13" x1="-7" y1="42.91" x2="98.84" y2="-18.19" xlink:href="#Sfumatura_senza_nome_12"/><linearGradient id="Sfumatura_senza_nome_12-14" x1="-5.3" y1="45.85" x2="100.53" y2="-15.26" xlink:href="#Sfumatura_senza_nome_12"/><linearGradient id="Sfumatura_senza_nome_12-15" x1="-10.08" y1="37.56" x2="95.75" y2="-23.54" xlink:href="#Sfumatura_senza_nome_12"/><linearGradient id="Sfumatura_senza_nome_12-16" x1="-1.35" y1="52.69" x2="104.48" y2="-8.41" xlink:href="#Sfumatura_senza_nome_12"/><linearGradient id="Sfumatura_senza_nome_12-17" x1="11.08" y1="74.22" x2="116.92" y2="13.12" xlink:href="#Sfumatura_senza_nome_12"/><linearGradient id="Sfumatura_senza_nome_12-18" x1="18.04" y1="86.27" x2="123.87" y2="25.17" xlink:href="#Sfumatura_senza_nome_12"/><linearGradient id="Sfumatura_senza_nome_12-19" x1="2.62" y1="59.57" x2="108.46" y2="-1.53" xlink:href="#Sfumatura_senza_nome_12"/><linearGradient id="Sfumatura_senza_nome_12-20" x1="1.84" y1="58.21" x2="107.67" y2="-2.9" xlink:href="#Sfumatura_senza_nome_12"/><linearGradient id="Sfumatura_senza_nome_12-21" x1="8.06" y1="68.99" x2="113.89" y2="7.88" xlink:href="#Sfumatura_senza_nome_12"/><linearGradient id="Sfumatura_senza_nome_12-22" x1="13.25" y1="77.98" x2="119.09" y2="16.88" xlink:href="#Sfumatura_senza_nome_12"/><linearGradient id="Sfumatura_senza_nome_12-23" x1="-11.64" y1="34.86" x2="94.19" y2="-26.25" xlink:href="#Sfumatura_senza_nome_12"/><linearGradient id="Sfumatura_senza_nome_12-24" x1="6.38" y1="66.07" x2="112.21" y2="4.97" xlink:href="#Sfumatura_senza_nome_12"/></defs><path class="cls-1" d="M131.86,150.72V145H126.5v5.75h-3.32V137h3.32v5.21h5.36V137h3.32v13.76Z" transform="translate(-26.88 -114.04)"/><path class="cls-1" d="M149.26,147.79a4.88,4.88,0,0,1-1.2,1.75,5.34,5.34,0,0,1-1.87,1.14,7.5,7.5,0,0,1-4.89,0,5.21,5.21,0,0,1-1.84-1.14,4.81,4.81,0,0,1-1.17-1.75,6.06,6.06,0,0,1-.41-2.26V137h3.31v8.3a4.18,4.18,0,0,0,.14,1.07,2.92,2.92,0,0,0,.45.9,2,2,0,0,0,.8.63,2.69,2.69,0,0,0,1.19.23,2.73,2.73,0,0,0,1.2-.23,2.08,2.08,0,0,0,.8-.63,2.54,2.54,0,0,0,.45-.9,4.18,4.18,0,0,0,.14-1.07V137h3.32v8.57A5.87,5.87,0,0,1,149.26,147.79Z" transform="translate(-26.88 -114.04)"/><path class="cls-1" d="M164.83,150.72l.08-9.74h-.06l-3.57,9.74h-2.34L155.47,141h-.06l.08,9.74h-3.13V137h4.72l3.14,8.82h.07l3-8.82h4.8v13.76Z" transform="translate(-26.88 -114.04)"/><path class="cls-1" d="M180.24,150.72l-1.07-2.7h-5.33l-1,2.7h-3.61L175,137h3.23l5.71,13.76Zm-3.7-10.09-1.74,4.72h3.45Z" transform="translate(-26.88 -114.04)"/><path class="cls-1" d="M193.82,150.72l-5.54-9h-.06l.08,9h-3.23V137h3.79l5.52,9h.06l-.08-9h3.22v13.76Z" transform="translate(-26.88 -114.04)"/><path class="cls-1" d="M130.38,158.14v10.92h-3.32V158.14h-3.88v-2.83h11.09v2.83Z" transform="translate(-26.88 -114.04)"/><path class="cls-1" d="M135.78,169.06V155.31H145v2.79h-6v2.61h5.71v2.66H139v2.85h6.39v2.84Z" transform="translate(-26.88 -114.04)"/><path class="cls-1" d="M157.42,168.82a7.47,7.47,0,0,1-3.09.61,8,8,0,0,1-2.94-.53,6.74,6.74,0,0,1-3.89-3.78,7.51,7.51,0,0,1-.57-3,7.42,7.42,0,0,1,.58-3,6.71,6.71,0,0,1,1.58-2.28,7,7,0,0,1,2.37-1.45,8.58,8.58,0,0,1,5.8,0,5.53,5.53,0,0,1,2.28,1.51l-2.25,2.25a2.77,2.77,0,0,0-1.23-1,4.1,4.1,0,0,0-3.15,0,3.76,3.76,0,0,0-1.26.88,4,4,0,0,0-.81,1.33,5.1,5.1,0,0,0,0,3.39,3.84,3.84,0,0,0,.8,1.33,3.76,3.76,0,0,0,1.24.87,3.86,3.86,0,0,0,1.57.31,3.65,3.65,0,0,0,1.73-.39,3.24,3.24,0,0,0,1.18-1l2.32,2.18A6.54,6.54,0,0,1,157.42,168.82Z" transform="translate(-26.88 -114.04)"/><path class="cls-1" d="M169.78,169.06v-5.75h-5.36v5.75h-3.33V155.31h3.33v5.2h5.36v-5.2h3.32v13.75Z" transform="translate(-26.88 -114.04)"/><path class="cls-1" d="M184.67,169.06l-5.53-9h-.06l.08,9h-3.23V155.31h3.79l5.52,9h.06l-.08-9h3.22v13.75Z" transform="translate(-26.88 -114.04)"/><path class="cls-1" d="M205.61,162.13a7.61,7.61,0,0,1-.56,3,6.7,6.7,0,0,1-3.94,3.79,8.7,8.7,0,0,1-6,0,6.79,6.79,0,0,1-3.93-3.79,8.24,8.24,0,0,1,0-6,6.6,6.6,0,0,1,1.57-2.26,7,7,0,0,1,2.36-1.44,9.19,9.19,0,0,1,6,0,7.06,7.06,0,0,1,2.38,1.44,6.58,6.58,0,0,1,1.56,2.26A7.55,7.55,0,0,1,205.61,162.13Zm-3.55,0a4.76,4.76,0,0,0-.29-1.67,4,4,0,0,0-.81-1.34,3.8,3.8,0,0,0-1.24-.87,4,4,0,0,0-1.6-.32,3.94,3.94,0,0,0-1.6.32,4,4,0,0,0-1.24.87,3.85,3.85,0,0,0-.81,1.34,5,5,0,0,0-.28,1.67,5,5,0,0,0,.29,1.71,4.12,4.12,0,0,0,.81,1.35,3.77,3.77,0,0,0,1.23.89,4.14,4.14,0,0,0,3.19,0,3.81,3.81,0,0,0,1.24-.89,4,4,0,0,0,.82-1.35A5,5,0,0,0,202.06,162.13Z" transform="translate(-26.88 -114.04)"/><path class="cls-1" d="M218.24,159.54a4.17,4.17,0,0,1-.45,2,3.58,3.58,0,0,1-1.2,1.33,5.2,5.2,0,0,1-1.75.74,8.73,8.73,0,0,1-2.06.23h-1.65v5.19h-3.32V155.31h5.05a9.49,9.49,0,0,1,2.11.22,5.07,5.07,0,0,1,1.71.72,3.5,3.5,0,0,1,1.14,1.3A4.28,4.28,0,0,1,218.24,159.54Zm-3.32,0a1.44,1.44,0,0,0-.2-.79,1.29,1.29,0,0,0-.52-.49,2,2,0,0,0-.75-.23,6,6,0,0,0-.86-.06h-1.46v3.24h1.4a4.27,4.27,0,0,0,.89-.08,2.34,2.34,0,0,0,.77-.27,1.37,1.37,0,0,0,.53-.51A1.57,1.57,0,0,0,214.92,159.56Z" transform="translate(-26.88 -114.04)"/><path class="cls-1" d="M234.58,162.13a7.61,7.61,0,0,1-.57,3,6.64,6.64,0,0,1-1.56,2.31,6.84,6.84,0,0,1-2.38,1.48,8.35,8.35,0,0,1-3,.53,8.22,8.22,0,0,1-3-.53,6.71,6.71,0,0,1-2.37-1.48,6.81,6.81,0,0,1-1.57-2.31,8.24,8.24,0,0,1,0-6,6.6,6.6,0,0,1,1.57-2.26,6.92,6.92,0,0,1,2.37-1.44,8.67,8.67,0,0,1,3-.5,8.81,8.81,0,0,1,3,.5,7.06,7.06,0,0,1,2.38,1.44,6.44,6.44,0,0,1,1.56,2.26A7.55,7.55,0,0,1,234.58,162.13Zm-3.56,0a4.76,4.76,0,0,0-.29-1.67,3.85,3.85,0,0,0-.81-1.34,3.7,3.7,0,0,0-1.24-.87,4,4,0,0,0-1.6-.32,3.89,3.89,0,0,0-1.59.32,4,4,0,0,0-1.25.87,3.68,3.68,0,0,0-.8,1.34,5,5,0,0,0,0,3.38,3.93,3.93,0,0,0,.8,1.35,3.81,3.81,0,0,0,1.24.89,4.11,4.11,0,0,0,3.18,0,3.71,3.71,0,0,0,1.24-.89,3.82,3.82,0,0,0,.82-1.35A5,5,0,0,0,231,162.13Z" transform="translate(-26.88 -114.04)"/><path class="cls-1" d="M236.77,169.06V155.31h3.34v10.86h5.32v2.89Z" transform="translate(-26.88 -114.04)"/><path class="cls-1" d="M247,169.06V155.31h9.24v2.79h-6v2.61h5.71v2.66h-5.71v2.85h6.39v2.84Z" transform="translate(-26.88 -114.04)"/><polygon class="cls-2" points="36.69 46.67 36.69 55.03 49.73 55.03 47.71 45.52 36.69 46.67"/><polygon class="cls-3" points="0 0.9 0 12.06 8.56 7.12 0 0.9"/><polygon class="cls-4" points="18.34 1.47 18.34 0 1.26 0 9.96 6.31 18.34 1.47"/><polygon class="cls-5" points="16.07 55.03 18.34 55.03 18.34 48.6 13.44 49.12 16.07 55.03"/><polygon class="cls-6" points="0 50.53 0 55.03 12.86 55.03 10.37 49.44 0 50.53"/><polygon class="cls-7" points="5.74 39.04 0 41.59 0 49.05 9.74 48.03 5.74 39.04"/><polygon class="cls-8" points="0 26.15 0 36.77 3.95 35.02 0 26.15"/><polygon class="cls-9" points="18.34 12.41 18.34 4.86 12.55 8.2 18.34 12.41"/><polygon class="cls-10" points="62.52 8.94 48.77 0 41.04 0 44.63 16.9 62.52 8.94"/><polygon class="cls-11" points="34.73 26.13 8.42 37.84 12.81 47.71 18.34 47.13 18.34 36.69 36.69 36.69 36.69 45.2 47.41 44.07 45.21 33.74 34.73 26.13"/><polygon class="cls-12" points="92.4 8.7 99.45 0 93.42 0 81.69 5.22 92.4 8.7"/><polygon class="cls-13" points="110.05 14.44 110.05 0 103.22 0 95.39 9.67 110.05 14.44"/><polygon class="cls-14" points="73.43 4.08 60.87 0 54.16 0 65.72 7.51 73.43 4.08"/><polygon class="cls-15" points="82.59 0 65.62 0 75.43 3.19 82.59 0"/><polygon class="cls-16" points="41.89 18.12 38.04 0 36.69 0 36.69 18.34 26.51 18.34 32.17 22.45 41.89 18.12"/><polygon class="cls-17" points="44.76 31.6 42.83 22.52 36.28 25.44 44.76 31.6"/><polygon class="cls-18" points="52.73 54.98 52.51 55.03 55.03 55.03 55.03 44.75 50.65 45.21 52.73 54.98"/><polygon class="cls-19" points="73.37 55.03 91.71 55.03 91.71 51.2 73.37 43.03 73.37 55.03"/><polygon class="cls-20" points="66.93 11.79 45.57 21.3 48.3 34.18 55.03 39.06 55.03 18.34 73.37 18.34 73.37 32.2 81.98 21.57 66.93 11.79"/><polygon class="cls-21" points="70.12 10.37 83.84 19.28 91.41 9.92 79.69 6.11 70.12 10.37"/><polygon class="cls-22" points="86.31 20.88 91.71 24.39 91.71 18.34 110.05 18.34 110.05 15.98 94.4 10.89 86.31 20.88"/><polygon class="cls-23" points="73.37 36.87 73.37 38.21 91.71 46.38 91.71 27.89 84.45 23.18 73.37 36.87"/><polygon class="cls-24" points="24.01 18.34 18.34 18.34 18.34 14.22 11.16 9.01 0 15.45 0 18.93 6.63 33.82 30.62 23.14 24.01 18.34"/><polygon class="cls-25" points="50.34 43.76 55.03 43.27 55.03 40.88 48.76 36.32 50.34 43.76"/></svg>