<?xml version="1.0" encoding="utf-8"?>
<!-- Generator: Adobe Illustrator 16.0.3, SVG Export Plug-In . SVG Version: 6.00 Build 0)  -->
<!DOCTYPE svg PUBLIC "-//W3C//DTD SVG 1.1//EN" "http://www.w3.org/Graphics/SVG/1.1/DTD/svg11.dtd">
<svg version="1.1" id="Layer_1" xmlns="http://www.w3.org/2000/svg" xmlns:xlink="http://www.w3.org/1999/xlink" x="0px" y="0px"
	 width="432.666px" height="190.714px" viewBox="0 0 432.666 190.714" enable-background="new 0 0 432.666 190.714"
	 xml:space="preserve">
<g>
	<path fill="#0D784E" d="M101.798,114.798c-9.834,13.406-25.93,18.955-40.949,18.955c-38.09,0-60.803-31.111-60.803-64.372
		C0.046,32.187,20.431,0,60.849,0c27.9,0,50.07,12.516,54.898,42.378h-16.99c-3.391-19.31-18.953-28.072-37.908-28.072
		c-30.941,0-43.814,26.822-43.814,54.184c0,26.642,15.377,50.958,43.814,50.958c26.287,0,42.023-18.42,40.949-41.665H61.023V63.478
		h55.973v67.235h-10.727L101.798,114.798"/>
	<polyline fill="#0D784E" points="129.044,3.041 152.287,3.041 192.525,110.328 232.935,3.041 256.181,3.041 256.181,130.712 
		240.089,130.712 240.089,24.499 239.732,24.499 199.859,130.712 185.369,130.712 145.496,24.499 145.14,24.499 145.14,130.712 
		129.044,130.712 129.044,3.041 	"/>
	<polyline fill="#0D784E" points="271.808,3.041 288.794,3.041 288.794,130.712 271.808,130.712 271.808,3.041 	"/>
	<path fill="#AED07D" d="M331.646,17.83c0,7.98-6.465,14.444-14.443,14.444c-7.977,0-14.445-6.464-14.445-14.444
		c0-7.975,6.469-14.442,14.445-14.442C325.181,3.388,331.646,9.855,331.646,17.83"/>
	<path fill="#AED07D" d="M364.626,17.83c0,7.98-6.471,14.446-14.449,14.446c-7.977,0-14.443-6.466-14.443-14.446
		c0-7.975,6.467-14.444,14.443-14.444C358.156,3.386,364.626,9.855,364.626,17.83"/>
	<path fill="#AED07D" d="M397.601,17.83c0,7.98-6.469,14.444-14.447,14.444s-14.445-6.464-14.445-14.444
		c0-7.975,6.467-14.442,14.445-14.442S397.601,9.855,397.601,17.83"/>
	<path fill="#AED07D" d="M430.576,17.83c0,7.98-6.465,14.444-14.443,14.444c-7.977,0-14.443-6.464-14.443-14.444
		c0-7.975,6.467-14.442,14.443-14.442C424.111,3.388,430.576,9.855,430.576,17.83"/>
	<path fill="#AED07D" d="M331.646,50.808c0,7.979-6.465,14.445-14.443,14.445c-7.977,0-14.445-6.467-14.445-14.445
		c0-7.978,6.469-14.445,14.445-14.445C325.181,36.362,331.646,42.83,331.646,50.808"/>
	<path fill="#0D784E" d="M364.626,50.808c0,7.979-6.471,14.447-14.449,14.447c-7.977,0-14.443-6.469-14.443-14.447
		c0-7.978,6.467-14.447,14.443-14.447C358.156,36.36,364.626,42.83,364.626,50.808"/>
	<path fill="#0D784E" d="M397.601,50.808c0,7.979-6.469,14.445-14.447,14.445s-14.445-6.467-14.445-14.445
		c0-7.978,6.467-14.445,14.445-14.445S397.601,42.83,397.601,50.808"/>
	<path fill="#AED07D" d="M430.576,50.808c0,7.979-6.465,14.445-14.443,14.445c-7.977,0-14.443-6.467-14.443-14.445
		c0-7.978,6.467-14.445,14.443-14.445C424.111,36.362,430.576,42.83,430.576,50.808"/>
	<path fill="#AED07D" d="M331.646,83.783c0,7.979-6.465,14.445-14.443,14.445c-7.977,0-14.445-6.466-14.445-14.445
		c0-7.975,6.469-14.443,14.445-14.443C325.181,69.34,331.646,75.809,331.646,83.783"/>
	<path fill="#0D784E" d="M364.626,83.783c0,7.979-6.471,14.449-14.449,14.449c-7.977,0-14.443-6.47-14.443-14.449
		c0-7.975,6.467-14.445,14.443-14.445C358.156,69.338,364.626,75.809,364.626,83.783"/>
	<path fill="#AED07D" d="M331.646,116.761c0,7.975-6.465,14.445-14.443,14.445c-7.977,0-14.445-6.471-14.445-14.445
		c0-7.977,6.469-14.443,14.445-14.443C325.181,102.318,331.646,108.785,331.646,116.761"/>
	<path fill="#AED07D" d="M364.626,116.761c0,7.975-6.471,14.445-14.449,14.445c-7.977,0-14.443-6.471-14.443-14.445
		c0-7.977,6.467-14.445,14.443-14.445C358.156,102.316,364.626,108.785,364.626,116.761"/>
	<polyline fill="#0D784E" points="397.109,97.736 369.203,97.736 369.203,69.831 397.109,69.831 397.109,97.736 	"/>
	<polyline fill="#AED07D" points="430.083,97.736 402.183,97.736 402.183,69.831 430.083,69.831 430.083,97.736 	"/>
	<polyline fill="#AED07D" points="397.109,130.712 369.203,130.712 369.203,102.812 397.109,102.812 397.109,130.712 	"/>
	<polyline fill="#AED07D" points="430.085,130.712 402.183,130.712 402.183,102.812 430.085,102.812 430.085,130.712 	"/>
	<path fill="#0D784E" d="M16.529,159.304c-1.648,2.127-3.807,2.938-5.871,2.938c-6.623,0-10.518-4.945-10.518-11.117
		c0-6.354,3.895-11.295,10.518-11.295c4.373,0,8.508,2.695,9.018,7.549h-4.496c-0.537-2.367-2.305-3.594-4.521-3.594
		c-4.227,0-5.813,3.594-5.813,7.34c0,3.564,1.586,7.16,5.813,7.16c3.055,0,4.822-1.646,5.09-4.613h-4.732v-3.506h8.99v11.566h-2.998
		L16.529,159.304"/>
	<path fill="#0D784E" d="M28.515,150.017h5.152c2.1,0,3.236-0.9,3.236-3.059c0-2.066-1.137-2.965-3.236-2.965h-5.152V150.017
		L28.515,150.017z M23.81,140.337h11.535c3.836,0,6.264,2.668,6.264,5.902c0,2.518-1.02,4.406-3.387,5.365v0.059
		c2.307,0.6,2.965,2.848,3.117,5.004c0.086,1.35,0.061,3.867,0.898,5.064h-4.705c-0.568-1.35-0.51-3.416-0.748-5.123
		c-0.33-2.248-1.197-3.236-3.566-3.236h-4.703v8.359H23.81V140.337"/>
	<polyline fill="#0D784E" points="45.443,140.337 61.445,140.337 61.445,144.294 50.148,144.294 50.148,148.876 60.513,148.876 
		60.513,152.533 50.148,152.533 50.148,157.777 61.683,157.777 61.683,161.732 45.443,161.732 45.443,140.337 	"/>
	<path fill="#0D784E" d="M80.32,159.304c-1.646,2.127-3.805,2.938-5.873,2.938c-6.621,0-10.518-4.945-10.518-11.117
		c0-6.354,3.896-11.295,10.518-11.295c4.375,0,8.51,2.695,9.02,7.549h-4.494c-0.541-2.367-2.309-3.594-4.525-3.594
		c-4.225,0-5.813,3.594-5.813,7.34c0,3.564,1.588,7.16,5.813,7.16c3.057,0,4.824-1.646,5.096-4.613h-4.736v-3.506h8.988v11.566
		h-2.996L80.32,159.304"/>
	<path fill="#0D784E" d="M97.189,158.285c4.227,0,5.813-3.596,5.813-7.16c0-3.746-1.586-7.34-5.813-7.34
		c-4.225,0-5.813,3.594-5.813,7.34C91.376,154.689,92.964,158.285,97.189,158.285L97.189,158.285z M97.189,139.83
		c6.621,0,10.518,4.941,10.518,11.295c0,6.172-3.896,11.117-10.518,11.117s-10.518-4.945-10.518-11.117
		C86.671,144.771,90.568,139.83,97.189,139.83"/>
	<path fill="#0D784E" d="M115.617,150.017h5.152c2.098,0,3.238-0.9,3.238-3.059c0-2.066-1.141-2.965-3.238-2.965h-5.152V150.017
		L115.617,150.017z M110.912,140.337h11.535c3.836,0,6.262,2.668,6.262,5.902c0,2.518-1.018,4.406-3.385,5.365v0.059
		c2.309,0.6,2.967,2.848,3.117,5.004c0.088,1.35,0.059,3.867,0.898,5.064h-4.703c-0.568-1.35-0.51-3.416-0.748-5.123
		c-0.332-2.248-1.201-3.236-3.568-3.236h-4.703v8.359h-4.705V140.337"/>
	<polyline fill="#0D784E" points="140.875,140.337 147.498,140.337 152.498,155.048 152.558,155.048 157.294,140.337 
		163.917,140.337 163.917,161.732 159.511,161.732 159.511,146.572 159.453,146.572 154.207,161.732 150.582,161.732 
		145.339,146.72 145.279,146.72 145.279,161.732 140.875,161.732 140.875,140.337 	"/>
	<polyline fill="#0D784E" points="168.05,140.337 184.05,140.337 184.05,144.294 172.755,144.294 172.755,148.876 183.121,148.876 
		183.121,152.533 172.755,152.533 172.755,157.777 184.291,157.777 184.291,161.732 168.05,161.732 168.05,140.337 	"/>
	<polyline fill="#0D784E" points="187.466,140.337 192.142,140.337 201.07,154.689 201.13,154.689 201.13,140.337 205.535,140.337 
		205.535,161.732 200.828,161.732 191.931,147.41 191.871,147.41 191.871,161.732 187.466,161.732 187.466,140.337 	"/>
	<path fill="#0D784E" d="M214.373,157.777h4.197c2.727,0,5.332-1.68,5.332-6.412c0-4.314-1.5-7.07-6.174-7.07h-3.355V157.777
		L214.373,157.777z M209.669,140.337h9.23c5.541,0,9.705,3.477,9.705,10.578c0,6.203-3.176,10.816-9.705,10.816h-9.23V140.337"/>
	<polyline fill="#0D784E" points="231.871,140.337 247.873,140.337 247.873,144.294 236.574,144.294 236.574,148.876 
		246.941,148.876 246.941,152.533 236.574,152.533 236.574,157.777 248.111,157.777 248.111,161.732 231.871,161.732 
		231.871,140.337 	"/>
	<polyline fill="#0D784E" points="251.287,140.337 255.99,140.337 255.99,157.777 266.419,157.777 266.419,161.732 251.287,161.732 
		251.287,140.337 	"/>
	<polyline fill="#0D784E" points="277.384,140.337 282.091,140.337 282.091,161.732 277.384,161.732 277.384,140.337 	"/>
	<polyline fill="#0D784E" points="286.222,140.337 290.898,140.337 299.826,154.689 299.884,154.689 299.884,140.337 
		304.292,140.337 304.292,161.732 299.587,161.732 290.689,147.41 290.63,147.41 290.63,161.732 286.222,161.732 286.222,140.337 	
		"/>
	<path fill="#0D784E" d="M311.634,154.628c0,2.848,2.215,3.957,4.732,3.957c1.65,0,4.166-0.479,4.166-2.666
		c0-2.309-3.205-2.699-6.354-3.535c-3.176-0.84-6.383-2.07-6.383-6.082c0-4.377,4.137-6.473,8.002-6.473
		c4.461,0,8.566,1.947,8.566,6.891h-4.555c-0.148-2.576-1.975-3.236-4.223-3.236c-1.498,0-3.236,0.629-3.236,2.428
		c0,1.646,1.018,1.857,6.383,3.236c1.559,0.389,6.352,1.377,6.352,6.23c0,3.926-3.086,6.863-8.898,6.863
		c-4.736,0-9.168-2.338-9.107-7.613H311.634"/>
	<polyline fill="#0D784E" points="332.607,144.294 326.193,144.294 326.193,140.337 343.722,140.337 343.722,144.294 
		337.31,144.294 337.31,161.732 332.607,161.732 332.607,144.294 	"/>
	<polyline fill="#0D784E" points="346.177,140.337 350.882,140.337 350.882,161.732 346.177,161.732 346.177,140.337 	"/>
	<polyline fill="#0D784E" points="359.751,144.294 353.339,144.294 353.339,140.337 370.867,140.337 370.867,144.294 
		364.457,144.294 364.457,161.732 359.751,161.732 359.751,144.294 	"/>
	<path fill="#0D784E" d="M391.482,153.64c0,5.785-3.416,8.602-9.137,8.602c-5.754,0-9.109-2.787-9.109-8.602v-13.303h4.705v13.303
		c0,2.338,0.598,4.645,4.404,4.645c3.357,0,4.436-1.467,4.436-4.645v-13.303h4.701V153.64"/>
	<polyline fill="#0D784E" points="400.263,144.294 393.851,144.294 393.851,140.337 411.38,140.337 411.38,144.294 404.966,144.294 
		404.966,161.732 400.263,161.732 400.263,144.294 	"/>
	<polyline fill="#0D784E" points="413.835,140.337 429.835,140.337 429.835,144.294 418.539,144.294 418.539,148.876 
		428.906,148.876 428.906,152.533 418.539,152.533 418.539,157.777 430.074,157.777 430.074,161.732 413.835,161.732 
		413.835,140.337 	"/>
	<path fill="#0D784E" d="M9.228,187.246c3.709,0,5.102-3.158,5.102-6.287c0-3.285-1.393-6.441-5.102-6.441
		c-3.705,0-5.1,3.156-5.1,6.441C4.128,184.087,5.523,187.246,9.228,187.246L9.228,187.246z M9.228,171.046
		c5.813,0,9.23,4.34,9.23,9.912c0,5.418-3.418,9.756-9.23,9.756c-5.811,0-9.229-4.338-9.229-9.756
		C0,175.386,3.417,171.046,9.228,171.046"/>
	<polyline fill="#0D784E" points="21.271,171.494 34.472,171.494 34.472,174.964 25.4,174.964 25.4,179.302 33.261,179.302 
		33.261,182.509 25.4,182.509 25.4,190.267 21.271,190.267 21.271,171.494 	"/>
	<polyline fill="#0D784E" points="44.173,171.494 49.986,171.494 54.378,184.404 54.429,184.404 58.583,171.494 64.394,171.494 
		64.394,190.267 60.529,190.267 60.529,176.962 60.476,176.962 55.875,190.267 52.693,190.267 48.091,177.095 48.041,177.095 
		48.041,190.267 44.173,190.267 44.173,171.494 	"/>
	<path fill="#0D784E" d="M76.437,187.246c3.705,0,5.102-3.158,5.102-6.287c0-3.285-1.396-6.441-5.102-6.441
		c-3.707,0-5.1,3.156-5.1,6.441C71.337,184.087,72.73,187.246,76.437,187.246L76.437,187.246z M76.437,171.046
		c5.813,0,9.229,4.34,9.229,9.912c0,5.418-3.416,9.756-9.229,9.756s-9.229-4.338-9.229-9.756
		C67.208,175.386,70.625,171.046,76.437,171.046"/>
	<polyline fill="#0D784E" points="88.48,171.494 92.609,171.494 92.609,186.798 101.757,186.798 101.757,190.267 88.48,190.267 
		88.48,171.494 	"/>
	<polyline fill="#0D784E" points="104.072,171.494 118.113,171.494 118.113,174.964 108.199,174.964 108.199,178.986 
		117.298,178.986 117.298,182.195 108.199,182.195 108.199,186.798 118.322,186.798 118.322,190.267 104.072,190.267 
		104.072,171.494 	"/>
	<path fill="#0D784E" d="M133.626,177.804c-0.264-1.867-2.053-3.287-4.104-3.287c-3.705,0-5.098,3.156-5.098,6.441
		c0,3.129,1.393,6.287,5.098,6.287c2.525,0,3.945-1.738,4.262-4.207h3.996c-0.422,4.678-3.656,7.676-8.258,7.676
		c-5.811,0-9.227-4.338-9.227-9.756c0-5.572,3.416-9.912,9.227-9.912c4.131,0,7.602,2.418,8.1,6.758H133.626"/>
	<path fill="#0D784E" d="M156.527,183.169c0,5.074-2.996,7.545-8.02,7.545c-5.047,0-7.992-2.445-7.992-7.545v-11.676h4.129v11.676
		c0,2.049,0.525,4.076,3.863,4.076c2.945,0,3.891-1.291,3.891-4.076v-11.676h4.129V183.169"/>
	<polyline fill="#0D784E" points="160.08,171.494 164.207,171.494 164.207,186.798 173.357,186.798 173.357,190.267 160.08,190.267 
		160.08,171.494 	"/>
	<path fill="#0D784E" d="M180.402,183.009h4.865l-2.367-6.889h-0.053L180.402,183.009L180.402,183.009z M180.796,171.494h4.234
		l7.02,18.773h-4.285l-1.42-4.182h-7.021l-1.471,4.182h-4.182L180.796,171.494"/>
	<path fill="#0D784E" d="M197.81,179.988h4.521c1.842,0,2.842-0.791,2.842-2.682c0-1.816-1-2.604-2.842-2.604h-4.521V179.988
		L197.81,179.988z M193.681,171.494h10.121c3.369,0,5.5,2.34,5.5,5.18c0,2.209-0.896,3.865-2.973,4.707v0.053
		c2.023,0.525,2.6,2.496,2.732,4.391c0.08,1.184,0.053,3.393,0.789,4.443h-4.127c-0.5-1.182-0.447-2.998-0.656-4.496
		c-0.289-1.973-1.055-2.838-3.129-2.838h-4.129v7.334h-4.129V171.494"/>
	<path fill="#0D784E" d="M224.103,180.328h3.209c1.918,0,3.627-0.42,3.627-2.811c0-2.395-1.709-2.814-3.627-2.814h-3.209V180.328
		L224.103,180.328z M219.974,171.494h8.469c4.68,0,6.494,2.973,6.494,6.023c0,3.047-1.814,6.02-6.494,6.02h-4.34v6.73h-4.129
		V171.494"/>
	<polyline fill="#0D784E" points="237.513,171.494 241.64,171.494 241.64,186.798 250.791,186.798 250.791,190.267 237.513,190.267 
		237.513,171.494 	"/>
	<path fill="#0D784E" d="M257.837,183.009h4.865l-2.369-6.889h-0.053L257.837,183.009L257.837,183.009z M258.232,171.494h4.232
		l7.021,18.773h-4.287l-1.42-4.182h-7.02l-1.475,4.182h-4.178L258.232,171.494"/>
	<polyline fill="#0D784E" points="271.113,171.494 275.218,171.494 283.054,184.087 283.105,184.087 283.105,171.494 
		286.972,171.494 286.972,190.267 282.843,190.267 275.031,177.699 274.98,177.699 274.98,190.267 271.113,190.267 271.113,171.494 
			"/>
	<polyline fill="#0D784E" points="294.753,174.964 289.126,174.964 289.126,171.494 304.509,171.494 304.509,174.964 
		298.882,174.964 298.882,190.267 294.753,190.267 294.753,174.964 	"/>
	<path fill="#0D784E" d="M318.103,187.06h4.416c1.631,0,3.053-0.527,3.053-2.473c0-1.918-1.211-2.68-2.973-2.68h-4.496V187.06
		L318.103,187.06z M318.103,179.093h4.18c1.447,0,2.525-0.658,2.525-2.236c0-1.785-1.367-2.154-2.84-2.154h-3.865V179.093
		L318.103,179.093z M313.976,171.494h8.832c3.578,0,5.996,1.156,5.996,4.654c0,1.84-0.92,3.129-2.549,3.918
		c2.285,0.658,3.445,2.42,3.445,4.758c0,3.814-3.236,5.443-6.629,5.443h-9.096V171.494"/>
	<polyline fill="#0D784E" points="332.488,171.494 336.615,171.494 336.615,190.267 332.488,190.267 332.488,171.494 	"/>
	<path fill="#0D784E" d="M348.66,187.246c3.703,0,5.098-3.158,5.098-6.287c0-3.285-1.395-6.441-5.098-6.441
		c-3.709,0-5.104,3.156-5.104,6.441C343.556,184.087,344.951,187.246,348.66,187.246L348.66,187.246z M348.66,171.046
		c5.809,0,9.227,4.34,9.227,9.912c0,5.418-3.418,9.756-9.227,9.756c-5.814,0-9.232-4.338-9.232-9.756
		C339.427,175.386,342.845,171.046,348.66,171.046"/>
	<polyline fill="#0D784E" points="360.701,171.494 364.828,171.494 364.828,186.798 373.978,186.798 373.978,190.267 
		360.701,190.267 360.701,171.494 	"/>
	<path fill="#0D784E" d="M384.707,187.246c3.705,0,5.1-3.158,5.1-6.287c0-3.285-1.395-6.441-5.1-6.441
		c-3.709,0-5.102,3.156-5.102,6.441C379.605,184.087,380.998,187.246,384.707,187.246L384.707,187.246z M384.707,171.046
		c5.809,0,9.229,4.34,9.229,9.912c0,5.418-3.42,9.756-9.229,9.756c-5.813,0-9.23-4.338-9.23-9.756
		C375.476,175.386,378.894,171.046,384.707,171.046"/>
	<path fill="#0D784E" d="M410.316,188.136c-1.447,1.869-3.34,2.578-5.154,2.578c-5.811,0-9.229-4.338-9.229-9.756
		c0-5.572,3.418-9.912,9.229-9.912c3.84,0,7.467,2.367,7.914,6.627h-3.943c-0.473-2.078-2.025-3.156-3.971-3.156
		c-3.707,0-5.102,3.156-5.102,6.441c0,3.129,1.395,6.287,5.102,6.287c2.682,0,4.234-1.447,4.471-4.053h-4.154v-3.074h7.887v10.148
		h-2.629L410.316,188.136"/>
	<polyline fill="#0D784E" points="421.572,182.958 414.656,171.494 419.306,171.494 423.697,178.91 428.064,171.494 
		432.666,171.494 425.697,183.062 425.697,190.267 421.572,190.267 421.572,182.958 	"/>
</g>
</svg>
