<?xml version="1.0" encoding="utf-8"?>
<!-- Generator: Adobe Illustrator 25.1.0, SVG Export Plug-In . SVG Version: 6.00 Build 0)  -->
<svg version="1.1" id="Ebene_1" xmlns="http://www.w3.org/2000/svg" xmlns:xlink="http://www.w3.org/1999/xlink" x="0px" y="0px"
	 viewBox="0 0 432.4 304.7" style="enable-background:new 0 0 432.4 304.7;" xml:space="preserve">
<style type="text/css">
	.st0{fill:#00BCE3;}
	.st1{fill:#0047BB;}
</style>
<path class="st0" d="M74.4,74.4h20.9v55.8h32.4v18.6H74.4V74.4z"/>
<path class="st0" d="M133.2,74.4h54.3v17.7h-33.4v10.1h27.8v16.3h-27.8v11.6h34.4v18.6h-55.3V74.4z"/>
<path class="st0" d="M195.6,74.4h20.8v74.4h-20.8V74.4z"/>
<path class="st0" d="M225,74.4h36.9c7,0,12.2,1.8,16,4.8c4.4,3.6,6.9,9,6.8,14.7c0,7.1-2.9,11.6-8.9,14.3v0.3
	c7.8,2.6,12.3,9.5,12.3,17.9c0,8-3.1,14-8.2,17.8c-4.3,3.1-9.9,4.7-17.2,4.7H225V74.4z M258.4,103.3c4,0,6.7-2,6.7-5.9
	s-2.8-6.1-6.8-6.1h-12.8v12.1H258.4z M260.3,131.7c4.5,0,7.6-2.8,7.6-7.3c0-4.8-3.4-7.2-7.7-7.2h-14.7v14.5H260.3z"/>
<path class="st0" d="M293.3,74.4h20.9l23.4,41.8h0.2V74.4h20.2v74.4h-21.6l-22.7-42.1h-0.2v42.1h-20.2V74.4z"/>
<path class="st0" d="M167.7,211.7h20.9v18.6h-20.9V211.7z"/>
<path class="st0" d="M167.7,155.9h20.9v18.6h-20.9V155.9z"/>
<path class="st0" d="M74.4,155.9h20.9v74.4H74.4V155.9z"/>
<path class="st0" d="M101.6,212.4l26.6-32c1.8-2.1,3.7-4.1,5.7-6l-0.5-0.3c-2.1,0.3-4.2,0.4-6.3,0.4h-25.5v-18.6h58.8v16.3L134,204
	c-3.3,4-7.3,7.8-7.3,7.8v0.3c0,0,4-0.4,8.4-0.4h25.6v18.6h-59L101.6,212.4z"/>
<path class="st1" d="M195.6,155.9h20.9v27.3h19.4v-27.3h20.8v74.4h-20.8v-29.1h-19.4v29.1h-20.9V155.9z"/>
<path class="st1" d="M265.3,155.9h20.8v24.4l21.5-24.4h23.9l-26.6,30l28.1,44.4h-24.2l-18.1-29.4l-4.6,5.4v24h-20.8V155.9z"/>
<path class="st1" d="M337.1,155.9h20.9v74.4h-20.9V155.9z"/>
</svg>
