<?xml version="1.0" encoding="utf-8"?>
<!-- Generator: Adobe Illustrator 24.0.3, SVG Export Plug-In . SVG Version: 6.00 Build 0)  -->
<svg version="1.1" id="Layer_1" xmlns="http://www.w3.org/2000/svg" xmlns:xlink="http://www.w3.org/1999/xlink" x="0px" y="0px"
	 viewBox="0 0 450.93 164.47" style="enable-background:new 0 0 450.93 164.47;" xml:space="preserve">
<style type="text/css">
	.st0{fill:#157987;}
	.st1{fill:#7F8367;}
	.st2{fill:#00A294;}
	.st3{fill:#850C1B;}
	.st4{fill:#329AB9;}
	.st5{fill:#2A1017;}
	.st6{fill:#5CB696;}
	.st7{fill:#00534B;}
</style>
<g>
	<g>
		<path d="M422.44,86.94v8.39h-2.17v-7.55L422.44,86.94z M420.36,84.25h8.86v11.08h2.16V84.28l0.67-0.28l0.25-2.33h-10.47
			l-0.78-1.06l-1.66,2.25L420.36,84.25z M415.17,89.83l1.39-8.16h-2.3l-1.08,5.8l-5.44-6.52l-1.53,0.86l-2.03,13.52h2.19l1.55-10.36
			l9.11,10.61l1.03-2.28L415.17,89.83z M398.26,80.61l3.22,1.58v13.13h-2.17V83.89l-2.47-1.36L398.26,80.61z M394.56,82.2v12.41
			l-6.41,1.31v-2.47l4.25-0.94v-8.61l-2.47-1.36l1.42-1.92L394.56,82.2z M383.32,80.61l3.22,1.58v6.97h-2.16v-5.36l-2.47-1.28
			L383.32,80.61z M371.88,80.61l0.78,1.06h6.89v10.91l1.86-0.08v2.47l-11.91,0.5V93l7.88-0.33v-8.41h-6.19l-0.97-1.39L371.88,80.61z
			 M357.69,84.25l-0.97-1.39l1.67-2.25l0.78,1.06h7.72v13.66h-2.17V84.25H357.69z M350.7,92.11l1.25-7.86h-7.66l0.92,8.47
			L350.7,92.11z M343.04,81.67h11.58l-2.08,12.66l-9.13,1.25l-1.36-11.33h-0.58l-0.78-1.39l1.67-2.25L343.04,81.67z M335.01,80.61
			l3.22,1.58v6.97h-2.16v-5.36l-2.47-1.28L335.01,80.61z M318.96,82.14l1.11,13.44l10.08-1.47l1.55-12.44h-6.19l-1.22,2.58h4.86
			l-0.97,7.66l-6.08,0.81l-0.97-12.19L318.96,82.14z M306.44,86.94v8.39h-2.17v-7.55L306.44,86.94z M304.36,84.25h8.86v11.08h2.16
			V84.28l0.67-0.28l0.25-2.33h-10.47l-0.78-1.06l-1.66,2.25L304.36,84.25z M283.62,86.94v8.39h-2.17v-7.55L283.62,86.94z
			 M281.54,84.25h8.86v11.08h2.16V84.28l0.67-0.28l0.25-2.33h-10.47l-0.78-1.06l-1.67,2.25L281.54,84.25z M278.37,81l-2.39,0.75
			l-1.64,10.3l-2.94,0.42l-1.97-11.63l-2.14,1.25l1.92,10.72l-4,0.56v2.47l10.97-1.56L278.37,81z M254.16,80.61l0.78,1.06h6.89
			v10.91l1.86-0.08v2.47l-11.91,0.5V93l7.88-0.33v-8.41h-6.19l-0.97-1.39L254.16,80.61z M239.97,84.25L239,82.86l1.67-2.25
			l0.78,1.06h7.72v13.66H247V84.25H239.97z M233.34,80.61l3.22,1.58v6.97h-2.17v-5.36l-2.47-1.28L233.34,80.61z M216.85,84.25h1.2
			l0.3,8.44l-3.14,0.42v2.47l5.44-0.61l-0.44-10.72h6.5v11.08h2.17V84.28l0.67-0.28l0.25-2.33h-11.47l-0.78-1.06l-1.67,2.25
			L216.85,84.25z M196.72,80.61l0.78,1.06h6.89v10.91l1.86-0.08v2.47l-11.91,0.5V93l7.88-0.33v-8.41h-6.19l-0.97-1.39L196.72,80.61z
			 M189.05,80.61l3.22,1.58v6.97h-2.17v-5.36l-2.47-1.28L189.05,80.61z M175.67,84.25l-0.97-1.39l1.67-2.25l0.78,1.06h7.72v13.66
			h-2.17V84.25H175.67z M168.84,80.61l3.22,1.58v13.13h-2.16V83.89l-2.47-1.36L168.84,80.61z M163.95,80.61l-3.69,9.72l-5.58,2.11
			l-0.36-1.28l5.69-8.91l-1.44-1.64l-4.97,7.86l-2.17-7.86l-1.91,1.53l3.69,13.44l8.69-3.19l3.7-10.13L163.95,80.61z M136.3,73.12
			l2.17-0.92v9.41l8.11,0.06l0.64,1.69l-5.39,12.22l-1.94-0.92l4.69-10.44h-8.27V73.12z M129.92,80.61l3.22,1.58v6.97h-2.17v-5.36
			l-2.47-1.28L129.92,80.61z M123.33,92.94h-6.91v-8.69h6.91V92.94z M126.42,81.67h-11.88l-0.78-1.06l-1.67,2.25l0.97,1.39h1.19
			v11.08h11.25V84.28l0.66-0.28L126.42,81.67z"/>
		<g>
			<path d="M431.48,119.59l-1.87-12.21h-2.37l-2.41,7.12c-0.29,0.9-0.49,1.52-0.67,2.42h-0.04c-0.14-0.8-0.38-1.61-0.67-2.49
				l-2.35-7.05h-2.35l-1.83,12.21h2.01l0.78-6.31c0.13-1.16,0.25-2.11,0.33-3.16h0.04c0.14,0.89,0.45,1.94,0.78,2.89l2.19,6.58h2.04
				l2.29-7.09c0.31-0.9,0.49-1.7,0.63-2.39h0.04c0.09,0.8,0.18,1.68,0.38,2.98l0.96,6.49H431.48z M415.04,119.59v-1.68h-4.46v-3.8
				h4.25v-1.61h-4.25v-3.47h4.46v-1.65h-6.44v12.21H415.04z M407.05,119.59v-1.72h-4.2v-10.49h-1.97v12.21H407.05z M395.71,115.32
				h-3.91l1.38-3.78c0.24-0.65,0.44-1.32,0.56-1.94h0.03c0.15,0.67,0.31,1.25,0.54,1.88L395.71,115.32z M399.37,119.59l-4.43-12.21
				h-2.19l-4.38,12.21h1.99l0.94-2.69h4.94l0.94,2.69H399.37z M387.59,115.9c0-3.82-5.33-2.91-5.33-5.35c0-1.01,0.78-1.72,2.29-1.72
				c0.72,0,1.5,0.13,2.21,0.34l0.11-1.75c-0.74-0.13-1.48-0.22-2.21-0.22c-2.84,0-4.48,1.46-4.48,3.56c0,3.94,5.33,2.86,5.33,5.42
				c0,1.32-1.09,1.88-2.42,1.88c-0.89,0-1.84-0.2-2.53-0.45l-0.11,1.86c0.7,0.18,1.57,0.29,2.46,0.29
				C385.82,119.77,387.59,118.14,387.59,115.9 M377.94,114.89v-7.5H376v7.65c0,2.28-0.9,3.11-2.89,3.11c-2.26,0-2.8-1.23-2.8-2.86
				v-7.9h-1.97v8.05c0,2.24,0.81,4.34,4.64,4.34C376.18,119.77,377.94,118.14,377.94,114.89 M363.71,110.84
				c0,1.21-0.96,2.03-2.55,2.03c-0.44,0-0.78-0.02-0.96-0.04v-3.87c0.29-0.02,0.65-0.03,1.03-0.03
				C362.88,108.92,363.71,109.5,363.71,110.84 M366.56,119.59l-3.22-4.25c-0.31-0.4-0.69-0.87-1.03-1.3
				c1.99-0.22,3.45-1.46,3.45-3.42c0-2.42-1.74-3.31-4.27-3.31c-1.38,0-2.39,0.02-3.28,0.07v12.21h1.97v-5.28h0.09l3.8,5.28H366.56z
				 M355.66,119.59v-1.68h-4.47v-3.8h4.25v-1.61h-4.25v-3.47h4.47v-1.65h-6.44v12.21H355.66z M346.13,116.3v-8.91h-1.97v8.82
				c0,1.48-0.5,1.86-1.43,1.86c-0.43,0-0.87-0.09-1.18-0.2v1.72c0.38,0.07,0.83,0.14,1.41,0.14
				C345.32,119.73,346.13,118.32,346.13,116.3 M336.93,109.05v-1.66h-6.37v12.21h1.97v-5.35h4.16v-1.61h-4.16v-3.58H336.93z
				 M326.37,113.53c0,3.04-1.81,4.48-3.62,4.48c-2.41,0-3.54-1.86-3.54-4.63c0-2.93,1.7-4.45,3.58-4.45
				C325.07,108.94,326.37,110.58,326.37,113.53 M328.47,113.33c0-4.09-2.2-6.13-5.5-6.13c-3.22,0-5.86,2.37-5.86,6.42
				c0,3.74,1.79,6.15,5.5,6.15C325.84,119.77,328.47,117.38,328.47,113.33 M312.36,107.38h-2.08l-1.72,3.63
				c-0.38,0.78-0.74,1.56-1.01,2.28h-0.04c-0.25-0.65-0.54-1.34-0.87-2.06l-1.81-3.85h-2.15l3.82,7.85v4.36h1.97v-4.36
				L312.36,107.38z M302.26,109.05v-1.66h-8.68v1.66h3.34v10.54h1.97v-10.54H302.26z M292.03,107.38h-1.97v12.21h1.97V107.38z
				 M287.8,115.9c0-3.82-5.33-2.91-5.33-5.35c0-1.01,0.78-1.72,2.29-1.72c0.72,0,1.5,0.13,2.21,0.34l0.11-1.75
				c-0.74-0.13-1.48-0.22-2.21-0.22c-2.84,0-4.49,1.46-4.49,3.56c0,3.94,5.34,2.86,5.34,5.42c0,1.32-1.09,1.88-2.42,1.88
				c-0.88,0-1.85-0.2-2.53-0.45l-0.11,1.86c0.7,0.18,1.57,0.29,2.46,0.29C286.03,119.77,287.8,118.14,287.8,115.9 M276.39,110.84
				c0,1.21-0.96,2.03-2.55,2.03c-0.43,0-0.78-0.02-0.96-0.04v-3.87c0.29-0.02,0.65-0.03,1.03-0.03
				C275.56,108.92,276.39,109.5,276.39,110.84 M279.25,119.59l-3.22-4.25c-0.31-0.4-0.69-0.87-1.03-1.3
				c1.99-0.22,3.45-1.46,3.45-3.42c0-2.42-1.73-3.31-4.27-3.31c-1.38,0-2.39,0.02-3.28,0.07v12.21h1.97v-5.28h0.09l3.8,5.28H279.25z
				 M268.35,119.59v-1.68h-4.47v-3.8h4.25v-1.61h-4.25v-3.47h4.47v-1.65h-6.44v12.21H268.35z M260.47,107.38h-2.03l-2.62,7.4
				c-0.36,0.99-0.58,1.75-0.79,2.6H255c-0.23-0.9-0.52-1.77-0.78-2.48l-2.57-7.52h-2.17l4.34,12.21h2.24L260.47,107.38z
				 M248.04,107.38h-1.97v12.21h1.97V107.38z M242.89,119.59v-12.21h-1.92V111c0,1.79,0.05,4.41,0.13,5.8
				c-0.45-0.89-0.94-1.86-1.48-2.77l-4.03-6.65H233v12.21h1.92v-4.11c0-1.74-0.04-4.21-0.11-5.41c0.38,0.81,0.81,1.68,1.36,2.57
				l4.18,6.94H242.89z M229.91,114.89v-7.5h-1.94v7.65c0,2.28-0.9,3.11-2.89,3.11c-2.26,0-2.8-1.23-2.8-2.86v-7.9h-1.97v8.05
				c0,2.24,0.81,4.34,4.65,4.34C228.16,119.77,229.91,118.14,229.91,114.89 M214.42,107.38h-1.97l-1.9,7.63
				c-0.18,0.67-0.31,1.37-0.43,2.14h-0.02c-0.13-0.78-0.31-1.59-0.49-2.24l-2.13-7.52h-2.15l-2.08,7.5
				c-0.22,0.74-0.36,1.52-0.49,2.31h-0.02c-0.11-0.81-0.25-1.59-0.47-2.4l-1.88-7.41h-2.1l3.17,12.21h2.31l2.06-7.58
				c0.2-0.76,0.34-1.5,0.43-2.26h0.02c0.13,0.78,0.25,1.55,0.47,2.29l2.08,7.54h2.42L214.42,107.38z M196.73,119.59v-1.68h-4.46
				v-3.8h4.25v-1.61h-4.25v-3.47h4.46v-1.65h-6.44v12.21H196.73z M185.51,110.84c0,1.21-0.96,2.03-2.55,2.03
				c-0.44,0-0.78-0.02-0.96-0.04v-3.87c0.29-0.02,0.65-0.03,1.03-0.03C184.67,108.92,185.51,109.5,185.51,110.84 M188.37,119.59
				l-3.22-4.25c-0.31-0.4-0.69-0.87-1.03-1.3c1.99-0.22,3.45-1.46,3.45-3.42c0-2.42-1.73-3.31-4.27-3.31
				c-1.38,0-2.39,0.02-3.27,0.07v12.21H182v-5.28h0.09l3.8,5.28H188.37z M175.55,115.94c0,1.23-0.85,2.1-2.64,2.1
				c-0.63,0-1.12-0.04-1.43-0.09v-3.89c0.27-0.02,0.9-0.02,1.1-0.02C174.3,114.04,175.55,114.54,175.55,115.94 M175.31,110.6
				c0,1.23-0.96,1.97-2.79,1.97c-0.41,0-0.72,0-1.05-0.02v-3.62c0.47-0.02,0.99-0.04,1.54-0.04
				C174.75,108.9,175.31,109.61,175.31,110.6 M177.63,115.9c0-1.27-0.74-2.48-2.33-2.79v-0.04c1.25-0.43,2.08-1.54,2.08-2.79
				c0-1.88-1.38-2.97-4.03-2.97c-1.48,0-2.87,0.04-3.83,0.06v12.21c1.36,0.02,2.59,0.05,3.33,0.05
				C176.58,119.64,177.63,117.49,177.63,115.9 M166.94,119.59v-1.68h-4.46v-3.8h4.25v-1.61h-4.25v-3.47h4.46v-1.65h-6.44v12.21
				H166.94z M157.32,119.59v-12.21h-1.95v5.05h-5.77v-5.05h-1.97v12.21h1.97v-5.48h5.77v5.48H157.32z M141.12,119.59v-1.68h-4.47
				v-3.8h4.25v-1.61h-4.25v-3.47h4.47v-1.65h-6.44v12.21H141.12z M131.51,119.59v-12.21h-1.96v5.05h-5.77v-5.05h-1.97v12.21h1.97
				v-5.48h5.77v5.48H131.51z M120.28,109.05v-1.66h-8.68v1.66h3.34v10.54h1.97v-10.54H120.28z"/>
		</g>
	</g>
	<g>
		<polygon class="st0" points="74.34,113.98 83.16,127.2 89.06,119.61 81.65,104.56 		"/>
		<polygon class="st1" points="32.39,116.74 15.31,137.75 15.31,153.2 31.08,137.68 		"/>
		<polygon class="st2" points="47.25,98.31 48.19,121 66.89,102.78 56.37,86.99 		"/>
		<polygon class="st3" points="66.68,74.2 56.37,86.99 66.89,102.78 76.28,93.64 		"/>
		<polygon class="st4" points="92.48,90.63 88.23,81.99 76.28,93.64 81.65,104.56 		"/>
		<polygon class="st5" points="74.34,113.98 81.65,104.56 76.28,93.64 66.89,102.78 		"/>
		<polygon class="st6" points="44.5,41.62 36.99,41.62 32.39,116.74 47.25,98.31 		"/>
		<polygon class="st7" points="32.39,116.74 31.08,137.68 48.19,121 47.25,98.31 		"/>
		<g>
			<path class="st3" d="M43.07,17.88l-3.12-6.42c0,0-6.66,10.18-6.66,14.14c0,6.28,2.95,10.42,2.95,10.42h9.14L47,26.17h-5.87
				L43.07,17.88z"/>
		</g>
	</g>
</g>
</svg>
