<?xml version="1.0" encoding="utf-8"?>
<!-- Generator: Adobe Illustrator 21.1.0, SVG Export Plug-In . SVG Version: 6.00 Build 0)  -->
<svg version="1.1" xmlns="http://www.w3.org/2000/svg" xmlns:xlink="http://www.w3.org/1999/xlink" x="0px" y="0px"
	 viewBox="0 0 402 127.5" style="enable-background:new 0 0 402 127.5;" xml:space="preserve">
<style type="text/css">
	.st0{fill:#2E86EF;}
	.st1{fill:#8E8E8E;}
	.st2{fill:#EEEEEE;}
	.st3{fill-rule:evenodd;clip-rule:evenodd;fill:#C6C6C6;}
	.st4{fill-rule:evenodd;clip-rule:evenodd;fill:#2E86EF;}
</style>
<g id="Background_xA0_Image_1_">
</g>
<g id="Full_1_">
	<g id="TEXT_1_">
		<g id="Infrastructure_1_">
			<g id="INFR_S_RU__URE">
				<g>
					<path class="st0" d="M110.6,112v-2.6h6.1V88.6h-6.1V86h15.6v2.6h-6.1v20.8h6.1v2.6H110.6z"/>
					<path class="st0" d="M130.1,112V86h3.3l10.3,19.8l0,0V86h2.8v26h-3.2L133,92.1l-0.1,0V112H130.1z"/>
					<path class="st0" d="M151.7,112V86h16v2.6h-12.6V98h10.7v2.6h-10.7V112H151.7z"/>
					<path class="st0" d="M170.5,112V86h6.3c2.4,0,4.2,0.2,5.3,0.7s1.9,1.2,2.5,2.3s0.9,2.2,0.9,3.4c0,1.3-0.4,2.6-1.1,3.9
						c-0.7,1.4-2.1,2.6-4.2,3.6l8.1,12.1h-4.2l-7.1-11.1H174V112H170.5z M174,98.3h1.8c2,0,3.5-0.6,4.5-1.7c1-1.1,1.5-2.5,1.5-4
						c0-0.8-0.2-1.5-0.5-2.1s-0.9-1.1-1.6-1.4c-0.7-0.3-1.9-0.5-3.7-0.5H174V98.3z"/>
					<path class="st0" d="M209.9,111.4V108c3,1.4,5.7,2.1,7.9,2.1c1,0,1.9-0.2,2.8-0.6s1.5-0.9,2-1.6s0.7-1.5,0.7-2.3
						c0-1.7-1-3-3.1-4.1l-5-2.6c-1.9-1-3.1-2-3.9-3s-1.1-2.3-1.1-3.7c0-1.8,0.6-3.4,1.9-4.7s3.3-2,6-2c2,0,4.3,0.4,6.8,1.1v3
						c-2.5-1-4.8-1.5-6.8-1.5c-0.9,0-1.8,0.1-2.5,0.4s-1.3,0.7-1.6,1.3s-0.5,1.2-0.5,1.9c0,0.8,0.3,1.5,0.8,2.2
						c0.5,0.7,1.4,1.3,2.7,2l4.7,2.4c2,1,3.4,2.1,4.1,3.1s1.1,2.3,1.1,3.7c0,2.2-0.8,4-2.4,5.5s-3.9,2.2-6.9,2.2
						c-0.8,0-1.6-0.1-2.6-0.2S212.2,112,209.9,111.4z"/>
					<path class="st0" d="M250.1,112V86h6.3c2.4,0,4.2,0.2,5.3,0.7s1.9,1.2,2.5,2.3s0.9,2.2,0.9,3.4c0,1.3-0.4,2.6-1.1,3.9
						s-2.1,2.6-4.2,3.6L268,112h-4.2l-7.1-11.1h-3.1V112H250.1z M253.5,98.3h1.8c2,0,3.5-0.6,4.5-1.7c1-1.1,1.5-2.5,1.5-4
						c0-0.8-0.2-1.5-0.5-2.1s-0.9-1.1-1.6-1.4c-0.7-0.3-1.9-0.5-3.7-0.5h-2.1V98.3z"/>
					<path class="st0" d="M269.4,86h3.5v17.3c0,2.1,0.2,3.5,0.6,4.3s1,1.4,1.7,1.9s1.5,0.6,2.5,0.6c1.4,0,2.6-0.4,3.6-1.3
						s1.5-2.7,1.5-5.6V86h3v16.7c0,1.9-0.1,3.3-0.3,4.2c-0.3,1.5-1.2,2.9-2.5,4s-3.1,1.7-5.2,1.7c-2.6,0-4.6-0.7-6.1-2.2
						c-0.8-0.8-1.3-1.7-1.6-2.7c-0.2-0.7-0.4-1.3-0.4-2s-0.1-1.5-0.1-2.5V86z"/>
					<path class="st0" d="M329.1,86h3.5v17.3c0,2.1,0.2,3.5,0.6,4.3s1,1.4,1.7,1.9s1.5,0.6,2.5,0.6c1.4,0,2.6-0.4,3.6-1.3
						s1.5-2.7,1.5-5.6V86h3v16.7c0,1.9-0.1,3.3-0.3,4.2c-0.3,1.5-1.2,2.9-2.5,4s-3.1,1.7-5.2,1.7c-2.6,0-4.6-0.7-6.1-2.2
						c-0.8-0.8-1.3-1.7-1.6-2.7c-0.2-0.7-0.4-1.3-0.4-2s-0.1-1.5-0.1-2.5V86z"/>
					<path class="st0" d="M349.5,112V86h6.3c2.4,0,4.2,0.2,5.3,0.7s1.9,1.2,2.5,2.3s0.9,2.2,0.9,3.4c0,1.3-0.4,2.6-1.1,3.9
						s-2.1,2.6-4.2,3.6l8.1,12.1h-4.2l-7.1-11.1H353V112H349.5z M353,98.3h1.8c2,0,3.5-0.6,4.5-1.7c1-1.1,1.5-2.5,1.5-4
						c0-0.8-0.2-1.5-0.5-2.1s-0.9-1.1-1.6-1.4c-0.7-0.3-1.9-0.5-3.7-0.5H353V98.3z"/>
					<path class="st0" d="M370,112V86h15.2v2.6h-11.8v8.3h10v2.6h-10v9.9H386v2.6H370z"/>
				</g>
			</g>
			<g id="A_T__CT">
				<g>
					<path class="st1" d="M187.4,112l8.9-26h3.5l8.9,26H205l-2.5-7.4h-9.6l-2.5,7.4H187.4z M193.7,102h7.8l-3.9-11.4L193.7,102z"/>
					<path class="st1" d="M236,112V88.6h-8.7V86h20.8v2.6h-8.7V112H236z"/>
					<path class="st1" d="M306.9,111.4c-2.3,0.8-4.5,1.2-6.6,1.2c-1.8,0-3.4-0.3-4.8-0.9s-2.6-1.4-3.6-2.4c-1.2-1.3-2.1-2.8-2.7-4.6
						s-0.9-3.6-0.9-5.6c0-1.9,0.3-3.8,0.9-5.7s1.4-3.4,2.4-4.5c1-1.2,2.3-2.1,3.8-2.7s3.1-0.9,4.8-0.9c1.9,0,4.1,0.3,6.3,1v3.2
						c-2.3-1.1-4.5-1.6-6.4-1.6c-1.2,0-2.4,0.3-3.4,0.8c-1.1,0.6-1.9,1.3-2.5,2.3c-0.7,1.1-1.3,2.4-1.6,3.8
						c-0.4,1.4-0.5,2.9-0.5,4.3c0,3.2,0.8,5.7,2.4,7.6c0.8,1,1.8,1.7,3,2.2c1.2,0.5,2.4,0.8,3.8,0.8c1.6,0,3.5-0.4,5.7-1.3V111.4z"
						/>
					<path class="st1" d="M315.6,112V88.6h-8.7V86h20.8v2.6h-8.7V112H315.6z"/>
				</g>
			</g>
		</g>
		<g id="Genomics_1_">
			<g id="ENOMI_S">
				<g>
					<path class="st0" d="M210,79.1v-26h15.2v2.6h-11.8V64h10v2.6h-10v9.9H226v2.6H210z"/>
					<path class="st0" d="M228.7,79.1v-26h3.3l10.3,19.8l0,0V53.1h2.8v26H242l-10.4-19.9l-0.1,0v19.9H228.7z"/>
					<path class="st0" d="M256.8,79.8c-3.1,0-5.6-1.3-7.2-3.8s-2.5-5.8-2.5-9.8c0-4,0.8-7.3,2.5-9.8s4.1-3.8,7.2-3.8
						c3.1,0,5.6,1.3,7.2,3.8s2.5,5.8,2.5,9.8c0,4-0.8,7.2-2.5,9.8S260,79.8,256.8,79.8z M256.8,77.2c2,0,3.5-0.9,4.5-2.7
						c1-1.8,1.6-4.6,1.6-8.3c0-3.7-0.5-6.5-1.6-8.3c-1-1.8-2.6-2.7-4.5-2.7c-2,0-3.5,0.9-4.5,2.7c-1,1.8-1.6,4.6-1.6,8.3
						c0,3.7,0.5,6.5,1.6,8.3C253.3,76.2,254.8,77.2,256.8,77.2z"/>
					<path class="st0" d="M267.5,79.1v-26h4.2l5,14.8h0l4.9-14.8h4.3v26h-2.8V56.2l0,0l-5.1,16h-2.8L270,56.8l0,0v22.4H267.5z"/>
					<path class="st0" d="M288.8,79.1v-2.6h6.1V55.7h-6.1v-2.6h15.6v2.6h-6.1v20.8h6.1v2.6H288.8z"/>
					<path class="st0" d="M328.4,78.5v-3.4c3,1.4,5.7,2.1,7.9,2.1c1,0,1.9-0.2,2.8-0.6s1.5-0.9,2-1.6s0.7-1.5,0.7-2.3
						c0-1.7-1-3-3.1-4.1l-5-2.6c-1.9-1-3.1-2-3.9-3s-1.1-2.3-1.1-3.7c0-1.8,0.6-3.4,1.9-4.7s3.3-2,6-2c2,0,4.3,0.4,6.8,1.1v3
						c-2.5-1-4.8-1.5-6.8-1.5c-0.9,0-1.8,0.1-2.5,0.4s-1.3,0.7-1.6,1.3s-0.5,1.2-0.5,1.9c0,0.8,0.3,1.5,0.8,2.2
						c0.5,0.7,1.4,1.3,2.7,2l4.7,2.4c2,1,3.4,2.1,4.1,3.1s1.1,2.3,1.1,3.7c0,2.2-0.8,4-2.4,5.5s-3.9,2.2-6.9,2.2
						c-0.8,0-1.6-0.1-2.6-0.2S330.7,79.1,328.4,78.5z"/>
				</g>
			</g>
			<g id="G_____C">
				<g>
					<path class="st1" d="M206.2,78.5c-1.8,0.6-3.1,1-4,1.1s-1.6,0.2-2.4,0.2c-2.5,0-4.6-0.5-6.4-1.5s-3.2-2.6-4.2-4.7
						s-1.5-4.6-1.5-7.3c0-2.6,0.5-5,1.4-7.1s2.3-3.8,4.1-4.9s4-1.7,6.5-1.7c1.8,0,3.9,0.3,6.2,1v3.2c-2.2-1-4.3-1.6-6.4-1.6
						c-1.6,0-3,0.4-4.2,1.3c-1.2,0.8-2.2,2.2-2.9,4c-0.7,1.8-1,3.8-1,6c0,2.2,0.4,4.1,1.1,5.6s1.8,2.8,3.3,3.6s3,1.3,4.7,1.3
						c0.6,0,1.3-0.1,2.3-0.2v-8.8h3.5V78.5z"/>
					<path class="st1" d="M326,78.5c-2.3,0.8-4.5,1.2-6.6,1.2c-1.8,0-3.4-0.3-4.8-0.9s-2.6-1.4-3.6-2.4c-1.2-1.3-2.1-2.8-2.7-4.6
						s-0.9-3.6-0.9-5.6c0-1.9,0.3-3.8,0.9-5.7s1.4-3.4,2.4-4.5c1-1.2,2.3-2.1,3.8-2.7s3.1-0.9,4.8-0.9c1.9,0,4.1,0.3,6.3,1v3.2
						c-2.3-1.1-4.5-1.6-6.4-1.6c-1.2,0-2.4,0.3-3.4,0.8c-1.1,0.6-1.9,1.3-2.5,2.3c-0.7,1.1-1.3,2.4-1.6,3.8
						c-0.4,1.4-0.5,2.9-0.5,4.3c0,3.2,0.8,5.7,2.4,7.6c0.8,1,1.8,1.7,3,2.2c1.2,0.5,2.4,0.8,3.8,0.8c1.6,0,3.5-0.4,5.7-1.3V78.5z"/>
				</g>
			</g>
			<g id="ATCA________GT">
				<g>
					<path class="st2" d="M106.8,79.1l8.9-26h3.5l8.9,26h-3.7l-2.5-7.4h-9.6l-2.5,7.4H106.8z M113.2,69.1h7.8l-3.9-11.4L113.2,69.1z
						"/>
					<path class="st2" d="M135.6,79.1V55.7H127v-2.6h20.8v2.6h-8.7v23.4H135.6z"/>
					<path class="st2" d="M166.7,78.5c-2.3,0.8-4.5,1.2-6.6,1.2c-1.8,0-3.4-0.3-4.8-0.9s-2.6-1.4-3.6-2.4c-1.2-1.3-2.1-2.8-2.7-4.6
						s-0.9-3.6-0.9-5.6c0-1.9,0.3-3.8,0.9-5.7s1.4-3.4,2.4-4.5c1-1.2,2.3-2.1,3.8-2.7s3.1-0.9,4.8-0.9c1.9,0,4.1,0.3,6.3,1v3.2
						c-2.3-1.1-4.5-1.6-6.4-1.6c-1.2,0-2.4,0.3-3.4,0.8c-1.1,0.6-1.9,1.3-2.5,2.3c-0.7,1.1-1.3,2.4-1.6,3.8s-0.5,2.9-0.5,4.3
						c0,3.2,0.8,5.7,2.4,7.6c0.8,1,1.8,1.7,3,2.2s2.4,0.8,3.8,0.8c1.6,0,3.5-0.4,5.7-1.3V78.5z"/>
					<path class="st2" d="M166.5,79.1l8.9-26h3.5l8.9,26h-3.7l-2.5-7.4H172l-2.5,7.4H166.5z M172.9,69.1h7.8l-3.9-11.4L172.9,69.1z"
						/>
					<path class="st2" d="M365.2,78.5c-1.8,0.6-3.1,1-4,1.1s-1.6,0.2-2.4,0.2c-2.5,0-4.6-0.5-6.4-1.5s-3.2-2.6-4.2-4.7
						s-1.5-4.6-1.5-7.3c0-2.6,0.5-5,1.4-7.1s2.3-3.8,4.1-4.9s4-1.7,6.5-1.7c1.8,0,3.9,0.3,6.2,1v3.2c-2.2-1-4.3-1.6-6.4-1.6
						c-1.6,0-3,0.4-4.2,1.3c-1.2,0.8-2.2,2.2-2.9,4s-1,3.8-1,6c0,2.2,0.4,4.1,1.1,5.6s1.8,2.8,3.3,3.6s3,1.3,4.7,1.3
						c0.6,0,1.3-0.1,2.3-0.2v-8.8h3.5V78.5z"/>
					<path class="st2" d="M374.3,79.1V55.7h-8.7v-2.6h20.8v2.6h-8.7v23.4H374.3z"/>
				</g>
			</g>
		</g>
		<g id="National_1_">
			<g id="N__ION_L">
				<g>
					<path class="st0" d="M149.4,46.1v-26h3.3l10.3,19.8l0,0V20.1h2.8v26h-3.2l-10.4-19.9l-0.1,0v19.9H149.4z"/>
					<path class="st0" d="M209.5,46.1v-2.6h6.1V22.7h-6.1v-2.6h15.6v2.6h-6.1v20.8h6.1v2.6H209.5z"/>
					<path class="st0" d="M237.2,46.8c-3.1,0-5.6-1.3-7.2-3.8s-2.5-5.8-2.5-9.8c0-4,0.8-7.3,2.5-9.8s4.1-3.8,7.2-3.8
						c3.1,0,5.6,1.3,7.2,3.8s2.5,5.8,2.5,9.8c0,4-0.8,7.2-2.5,9.8S240.4,46.8,237.2,46.8z M237.2,44.2c2,0,3.5-0.9,4.5-2.7
						c1-1.8,1.6-4.6,1.6-8.3c0-3.7-0.5-6.5-1.6-8.3c-1-1.8-2.6-2.7-4.5-2.7c-2,0-3.5,0.9-4.5,2.7c-1,1.8-1.6,4.6-1.6,8.3
						c0,3.7,0.5,6.5,1.6,8.3C233.8,43.3,235.3,44.2,237.2,44.2z"/>
					<path class="st0" d="M248.9,46.1v-26h3.3l10.3,19.8l0,0V20.1h2.8v26h-3.2l-10.4-19.9l-0.1,0v19.9H248.9z"/>
					<path class="st0" d="M290,46.1v-26h3.5v23.4h12.1v2.6H290z"/>
				</g>
			</g>
			<g id="GA________CTAC">
				<g>
					<path class="st2" d="M126.8,45.6c-1.8,0.6-3.1,1-4,1.1s-1.6,0.2-2.4,0.2c-2.5,0-4.6-0.5-6.4-1.5s-3.2-2.6-4.2-4.7
						s-1.5-4.6-1.5-7.3c0-2.6,0.5-5,1.4-7.1s2.3-3.8,4.1-4.9s4-1.7,6.5-1.7c1.8,0,3.9,0.3,6.2,1v3.2c-2.2-1-4.3-1.6-6.4-1.6
						c-1.6,0-3,0.4-4.2,1.3s-2.2,2.2-2.9,4c-0.7,1.8-1,3.8-1,6c0,2.2,0.4,4.1,1.1,5.6s1.8,2.8,3.3,3.6s3,1.3,4.7,1.3
						c0.6,0,1.3-0.1,2.3-0.2v-8.8h3.5V45.6z"/>
					<path class="st2" d="M127.1,46.1l8.9-26h3.5l8.9,26h-3.7l-2.5-7.4h-9.6l-2.5,7.4H127.1z M133.5,36.2h7.8l-3.9-11.4L133.5,36.2z
						"/>
					<path class="st2" d="M326.2,45.5c-2.3,0.8-4.5,1.2-6.6,1.2c-1.8,0-3.4-0.3-4.8-0.9s-2.6-1.4-3.6-2.4c-1.2-1.3-2.1-2.8-2.7-4.6
						s-0.9-3.6-0.9-5.6c0-1.9,0.3-3.8,0.9-5.7s1.4-3.4,2.4-4.5c1-1.2,2.3-2.1,3.8-2.7s3.1-0.9,4.8-0.9c1.9,0,4.1,0.3,6.3,1v3.2
						c-2.3-1.1-4.5-1.6-6.4-1.6c-1.2,0-2.4,0.3-3.4,0.8c-1.1,0.6-1.9,1.3-2.5,2.3c-0.7,1.1-1.3,2.4-1.6,3.8
						c-0.4,1.4-0.5,2.9-0.5,4.3c0,3.2,0.8,5.7,2.4,7.6c0.8,1,1.8,1.7,3,2.2c1.2,0.5,2.4,0.8,3.8,0.8c1.6,0,3.5-0.4,5.7-1.3V45.5z"/>
					<path class="st2" d="M334.9,46.1V22.7h-8.7v-2.6H347v2.6h-8.7v23.4H334.9z"/>
					<path class="st2" d="M345.9,46.1l8.9-26h3.5l8.9,26h-3.7l-2.5-7.4h-9.6l-2.5,7.4H345.9z M352.3,36.2h7.8l-3.9-11.4L352.3,36.2z
						"/>
					<path class="st2" d="M385.9,45.5c-2.3,0.8-4.5,1.2-6.6,1.2c-1.8,0-3.4-0.3-4.8-0.9s-2.6-1.4-3.6-2.4c-1.2-1.3-2.1-2.8-2.7-4.6
						s-0.9-3.6-0.9-5.6c0-1.9,0.3-3.8,0.9-5.7s1.4-3.4,2.4-4.5c1-1.2,2.3-2.1,3.8-2.7s3.1-0.9,4.8-0.9c1.9,0,4.1,0.3,6.3,1v3.2
						c-2.3-1.1-4.5-1.6-6.4-1.6c-1.2,0-2.4,0.3-3.4,0.8c-1.1,0.6-1.9,1.3-2.5,2.3c-0.7,1.1-1.3,2.4-1.6,3.8
						c-0.4,1.4-0.5,2.9-0.5,4.3c0,3.2,0.8,5.7,2.4,7.6c0.8,1,1.8,1.7,3,2.2c1.2,0.5,2.4,0.8,3.8,0.8c1.6,0,3.5-0.4,5.7-1.3V45.5z"/>
				</g>
			</g>
			<g id="AT___A">
				<g>
					<path class="st1" d="M166.9,46.1l8.9-26h3.5l8.9,26h-3.7l-2.5-7.4h-9.6l-2.5,7.4H166.9z M173.3,36.2h7.8l-3.9-11.4L173.3,36.2z
						"/>
					<path class="st1" d="M195.7,46.1V22.7h-8.7v-2.6h20.8v2.6h-8.7v23.4H195.7z"/>
					<path class="st1" d="M266.4,46.1l8.9-26h3.5l8.9,26H284l-2.5-7.4h-9.6l-2.5,7.4H266.4z M272.8,36.2h7.8l-3.9-11.4L272.8,36.2z"
						/>
				</g>
			</g>
		</g>
	</g>
</g>
<g id="Layer_28">
	<g id="LOGO_copy_8_1_">
		<g id="Shape_1_copy_80_4_">
			<g>
				<rect x="40.3" y="17" class="st3" width="63.6" height="7.4"/>
			</g>
		</g>
		<g id="Shape_1_copy_81_5_">
			<g>
				<rect x="38.7" y="26.9" class="st3" width="61" height="7.4"/>
			</g>
		</g>
		<g id="Shape_1_copy_82_5_">
			<g>
				<rect x="39.5" y="36.7" class="st3" width="56.7" height="7.4"/>
			</g>
		</g>
		<g id="Shape_1_copy_83_5_">
			<g>
				<rect x="42.1" y="46.6" class="st3" width="52.8" height="7.4"/>
			</g>
		</g>
		<g id="Shape_1_copy_84_5_">
			<g>
				<rect x="46.7" y="56.4" class="st3" width="45.6" height="7.4"/>
			</g>
		</g>
		<g id="Shape_1_copy_85_5_">
			<g>
				<rect x="50.3" y="66.3" class="st3" width="41.2" height="7.4"/>
			</g>
		</g>
		<g id="Shape_1_copy_86_5_">
			<g>
				<rect x="59.6" y="76.1" class="st3" width="34.8" height="7.4"/>
			</g>
		</g>
		<g id="Shape_1_copy_87_5_">
			<g>
				<rect x="69.4" y="86" class="st3" width="27.6" height="7.4"/>
			</g>
		</g>
		<g id="Shape_1_copy_88_5_">
			<g>
				<rect x="76" y="95.8" class="st3" width="22.1" height="7.4"/>
			</g>
		</g>
		<g id="Shape_1_copy_89_5_">
			<g>
				<rect x="79.5" y="105.7" class="st3" width="18.2" height="7.4"/>
			</g>
		</g>
		<g id="Shape_1_copy_80_3_">
			<g>
				<rect x="17.3" y="105.6" class="st4" width="63.6" height="7.4"/>
			</g>
		</g>
		<g id="Shape_1_copy_81_3_">
			<g>
				<rect x="20.7" y="95.8" class="st4" width="61" height="7.4"/>
			</g>
		</g>
		<g id="Shape_1_copy_82_3_">
			<g>
				<rect x="25.5" y="85.9" class="st4" width="56.7" height="7.4"/>
			</g>
		</g>
		<g id="Shape_1_copy_83_3_">
			<g>
				<rect x="32.1" y="76.1" class="st4" width="52.8" height="7.4"/>
			</g>
		</g>
		<g id="Shape_1_copy_84_3_">
			<g>
				<rect x="39.7" y="66.2" class="st4" width="47.4" height="7.4"/>
			</g>
		</g>
		<g id="Shape_1_copy_85_3_">
			<g>
				<rect x="51.3" y="56.4" class="st4" width="41.2" height="7.4"/>
			</g>
		</g>
		<g id="Shape_1_copy_86_3_">
			<g>
				<rect x="61.6" y="46.5" class="st4" width="34.8" height="7.4"/>
			</g>
		</g>
		<g id="Shape_1_copy_87_3_">
			<g>
				<rect x="72.4" y="36.7" class="st4" width="27.6" height="7.4"/>
			</g>
		</g>
		<g id="Shape_1_copy_88_3_">
			<g>
				<rect x="82" y="26.8" class="st4" width="22.1" height="7.4"/>
			</g>
		</g>
		<g id="Shape_1_copy_89_3_">
			<g>
				<rect x="86.5" y="17" class="st4" width="18.2" height="7.4"/>
			</g>
		</g>
	</g>
</g>
</svg>
