<?xml version="1.0" encoding="UTF-8" standalone="no"?>
<svg
   xmlns:serif="http://www.serif.com/"
   xmlns:dc="http://purl.org/dc/elements/1.1/"
   xmlns:cc="http://creativecommons.org/ns#"
   xmlns:rdf="http://www.w3.org/1999/02/22-rdf-syntax-ns#"
   xmlns:svg="http://www.w3.org/2000/svg"
   xmlns="http://www.w3.org/2000/svg"
   xmlns:sodipodi="http://sodipodi.sourceforge.net/DTD/sodipodi-0.dtd"
   xmlns:inkscape="http://www.inkscape.org/namespaces/inkscape"
   width="100%"
   height="100%"
   viewBox="0 0 1934 789"
   version="1.1"
   xml:space="preserve"
   style="fill-rule:evenodd;clip-rule:evenodd;stroke-linejoin:round;stroke-miterlimit:2;"
   id="svg317"
   sodipodi:docname="Palmuc-EN.svg"
   inkscape:version="1.0.1 (c497b03c, 2020-09-10)"><metadata
   id="metadata323"><rdf:RDF><cc:Work
       rdf:about=""><dc:format>image/svg+xml</dc:format><dc:type
         rdf:resource="http://purl.org/dc/dcmitype/StillImage" /><dc:title></dc:title></cc:Work></rdf:RDF></metadata><defs
   id="defs321" /><sodipodi:namedview
   pagecolor="#ffffff"
   bordercolor="#666666"
   borderopacity="1"
   objecttolerance="10"
   gridtolerance="10"
   guidetolerance="10"
   inkscape:pageopacity="0"
   inkscape:pageshadow="2"
   inkscape:window-width="1399"
   inkscape:window-height="815"
   id="namedview319"
   showgrid="false"
   inkscape:zoom="0.39607032"
   inkscape:cx="926.60313"
   inkscape:cy="434.89687"
   inkscape:window-x="1983"
   inkscape:window-y="122"
   inkscape:window-maximized="0"
   inkscape:current-layer="Ebene-1" />
    <g
   id="Ebene-1"
   serif:id="Ebene 1"
   transform="matrix(5.55556,0,0,5.55556,0,0)">
        <g
   transform="matrix(1,0,0,1,-0.0681089,-1.25458)"
   id="g106">
            <g
   transform="matrix(0.94272,0,0,1,0.358115,0)"
   id="g58">
                <g
   transform="matrix(20,0,0,20,6.252,116.671)"
   id="g12">
                    <path
   d="M0.463,-0.502C0.463,-0.534 0.453,-0.559 0.432,-0.576C0.411,-0.592 0.381,-0.601 0.341,-0.601L0.23,-0.601L0.23,-0.395L0.341,-0.395C0.379,-0.395 0.409,-0.405 0.431,-0.426C0.452,-0.446 0.463,-0.471 0.463,-0.502ZM0.596,-0.503C0.596,-0.468 0.589,-0.438 0.575,-0.412C0.561,-0.386 0.543,-0.364 0.521,-0.347C0.498,-0.329 0.473,-0.316 0.445,-0.307C0.417,-0.298 0.389,-0.294 0.361,-0.294L0.23,-0.294L0.23,-0L0.1,-0L0.1,-0.7L0.36,-0.7C0.39,-0.7 0.419,-0.697 0.448,-0.69C0.476,-0.683 0.501,-0.672 0.523,-0.657C0.545,-0.642 0.563,-0.621 0.576,-0.596C0.589,-0.571 0.596,-0.54 0.596,-0.503Z"
   style="fill:rgb(8,127,73);fill-rule:nonzero;"
   id="path10" />
                </g>
                <g
   transform="matrix(20,0,0,20,17.7734,116.671)"
   id="g16">
                    <path
   d="M0.333,-0.233L0.296,-0.23C0.258,-0.227 0.227,-0.217 0.202,-0.202C0.177,-0.187 0.164,-0.163 0.164,-0.13C0.164,-0.123 0.165,-0.115 0.168,-0.108C0.17,-0.1 0.174,-0.093 0.179,-0.086C0.184,-0.079 0.192,-0.074 0.202,-0.07C0.211,-0.065 0.223,-0.063 0.237,-0.063C0.254,-0.063 0.268,-0.066 0.28,-0.072C0.292,-0.077 0.302,-0.084 0.31,-0.093C0.318,-0.101 0.324,-0.11 0.328,-0.12C0.331,-0.129 0.333,-0.138 0.333,-0.146L0.333,-0.233ZM0.348,-0L0.34,-0.063C0.322,-0.04 0.301,-0.022 0.278,-0.009C0.255,0.005 0.229,0.012 0.2,0.012C0.151,0.012 0.113,0.001 0.084,-0.023C0.055,-0.046 0.04,-0.081 0.04,-0.129C0.04,-0.162 0.048,-0.189 0.065,-0.21C0.082,-0.231 0.103,-0.247 0.129,-0.26C0.154,-0.273 0.182,-0.282 0.212,-0.288C0.242,-0.293 0.27,-0.297 0.296,-0.299L0.333,-0.302L0.333,-0.338C0.333,-0.37 0.326,-0.395 0.312,-0.413C0.297,-0.431 0.277,-0.44 0.251,-0.44C0.221,-0.44 0.194,-0.434 0.17,-0.422C0.146,-0.409 0.125,-0.395 0.108,-0.38L0.072,-0.459C0.078,-0.464 0.087,-0.47 0.099,-0.477C0.111,-0.484 0.125,-0.49 0.142,-0.496C0.159,-0.502 0.177,-0.507 0.197,-0.511C0.217,-0.515 0.238,-0.517 0.26,-0.517C0.328,-0.517 0.377,-0.501 0.408,-0.47C0.439,-0.439 0.454,-0.393 0.454,-0.333L0.454,-0.085C0.454,-0.079 0.454,-0.068 0.455,-0.053C0.456,-0.038 0.458,-0.02 0.461,-0L0.348,-0Z"
   style="fill:rgb(8,127,73);fill-rule:nonzero;"
   id="path14" />
                </g>
                <g
   transform="matrix(20,0,0,20,27.8949,116.671)"
   id="g20">
                    <rect
   x="0.084"
   y="-0.7"
   width="0.124"
   height="0.7"
   style="fill:rgb(8,127,73);fill-rule:nonzero;"
   id="rect18" />
                </g>
                <g
   transform="matrix(20,0,0,20,33.2963,116.671)"
   id="g24">
                    <path
   d="M0.378,-0.305C0.378,-0.324 0.376,-0.341 0.372,-0.358C0.368,-0.375 0.362,-0.389 0.354,-0.402C0.345,-0.415 0.335,-0.424 0.322,-0.432C0.309,-0.439 0.293,-0.442 0.276,-0.442C0.259,-0.442 0.244,-0.438 0.231,-0.431C0.218,-0.424 0.208,-0.414 0.2,-0.402C0.191,-0.389 0.185,-0.375 0.181,-0.358C0.176,-0.341 0.174,-0.324 0.174,-0.305L0.378,-0.305ZM0.174,-0.23C0.175,-0.199 0.18,-0.174 0.188,-0.153C0.195,-0.132 0.205,-0.116 0.216,-0.103C0.227,-0.09 0.24,-0.081 0.255,-0.076C0.269,-0.07 0.283,-0.067 0.297,-0.067C0.331,-0.067 0.36,-0.072 0.385,-0.083C0.41,-0.094 0.433,-0.109 0.455,-0.128L0.488,-0.045C0.471,-0.031 0.446,-0.018 0.414,-0.006C0.381,0.006 0.342,0.012 0.295,0.012C0.246,0.012 0.205,0.004 0.173,-0.011C0.141,-0.026 0.116,-0.047 0.097,-0.072C0.078,-0.096 0.065,-0.125 0.058,-0.158C0.05,-0.19 0.046,-0.223 0.046,-0.257C0.046,-0.288 0.05,-0.318 0.059,-0.349C0.068,-0.38 0.081,-0.408 0.1,-0.433C0.119,-0.458 0.142,-0.478 0.172,-0.494C0.201,-0.509 0.236,-0.517 0.277,-0.517C0.318,-0.517 0.352,-0.51 0.381,-0.496C0.409,-0.481 0.432,-0.462 0.45,-0.439C0.468,-0.416 0.481,-0.39 0.489,-0.361C0.497,-0.331 0.501,-0.303 0.501,-0.274L0.501,-0.23L0.174,-0.23Z"
   style="fill:rgb(8,127,73);fill-rule:nonzero;"
   id="path22" />
                </g>
                <g
   transform="matrix(20,0,0,20,43.7178,116.671)"
   id="g28">
                    <path
   d="M0.392,-0.257C0.392,-0.285 0.39,-0.31 0.386,-0.333C0.382,-0.355 0.376,-0.374 0.368,-0.39C0.359,-0.406 0.348,-0.418 0.335,-0.427C0.321,-0.436 0.304,-0.44 0.284,-0.44C0.265,-0.44 0.248,-0.435 0.235,-0.426C0.222,-0.416 0.211,-0.403 0.202,-0.386C0.193,-0.369 0.186,-0.35 0.182,-0.328C0.178,-0.305 0.176,-0.282 0.176,-0.257C0.176,-0.194 0.184,-0.147 0.201,-0.114C0.218,-0.081 0.245,-0.065 0.284,-0.065C0.305,-0.065 0.322,-0.07 0.336,-0.08C0.349,-0.089 0.36,-0.103 0.369,-0.12C0.377,-0.137 0.383,-0.158 0.387,-0.181C0.39,-0.204 0.392,-0.23 0.392,-0.257ZM0.522,-0.257C0.522,-0.221 0.518,-0.187 0.509,-0.154C0.5,-0.121 0.486,-0.093 0.467,-0.069C0.448,-0.044 0.423,-0.025 0.393,-0.01C0.362,0.005 0.326,0.012 0.284,0.012C0.202,0.012 0.142,-0.012 0.104,-0.059C0.065,-0.106 0.046,-0.172 0.046,-0.257C0.046,-0.29 0.05,-0.323 0.06,-0.354C0.068,-0.385 0.083,-0.413 0.102,-0.437C0.121,-0.461 0.146,-0.48 0.176,-0.495C0.206,-0.51 0.242,-0.517 0.284,-0.517C0.325,-0.517 0.361,-0.511 0.391,-0.498C0.421,-0.485 0.446,-0.467 0.465,-0.444C0.484,-0.421 0.499,-0.393 0.508,-0.362C0.517,-0.33 0.522,-0.295 0.522,-0.257Z"
   style="fill:rgb(8,127,73);fill-rule:nonzero;"
   id="path26" />
                </g>
                <g
   transform="matrix(20,0,0,20,54.6392,116.671)"
   id="g32">
                    <path
   d="M0.399,-0L0.399,-0.324C0.399,-0.356 0.391,-0.383 0.376,-0.404C0.361,-0.425 0.338,-0.435 0.308,-0.435C0.291,-0.435 0.276,-0.431 0.263,-0.423C0.249,-0.415 0.239,-0.405 0.23,-0.394C0.221,-0.382 0.214,-0.37 0.209,-0.357C0.204,-0.343 0.202,-0.332 0.202,-0.323L0.202,-0L0.078,-0L0.078,-0.495L0.188,-0.495L0.194,-0.424C0.201,-0.434 0.209,-0.444 0.218,-0.455C0.227,-0.466 0.238,-0.476 0.251,-0.485C0.264,-0.494 0.278,-0.502 0.294,-0.508C0.31,-0.514 0.328,-0.517 0.348,-0.517C0.402,-0.517 0.445,-0.502 0.476,-0.472C0.507,-0.441 0.523,-0.4 0.523,-0.348L0.523,-0L0.399,-0Z"
   style="fill:rgb(8,127,73);fill-rule:nonzero;"
   id="path30" />
                </g>
                <g
   transform="matrix(20,0,0,20,66.2207,116.671)"
   id="g36">
                    <path
   d="M0.346,-0.014C0.336,-0.008 0.321,-0.002 0.302,0.004C0.283,0.009 0.265,0.012 0.248,0.012C0.218,0.012 0.193,0.009 0.174,0.002C0.154,-0.005 0.139,-0.014 0.128,-0.026C0.117,-0.038 0.109,-0.053 0.105,-0.07C0.1,-0.087 0.098,-0.107 0.098,-0.128L0.098,-0.41L0.02,-0.41L0.02,-0.495L0.098,-0.495L0.098,-0.597L0.222,-0.632L0.222,-0.495L0.337,-0.495L0.337,-0.41L0.222,-0.41L0.222,-0.14C0.222,-0.115 0.227,-0.097 0.236,-0.089C0.245,-0.08 0.256,-0.075 0.271,-0.075C0.283,-0.075 0.294,-0.078 0.303,-0.083C0.312,-0.088 0.319,-0.092 0.326,-0.097L0.346,-0.014Z"
   style="fill:rgb(8,127,73);fill-rule:nonzero;"
   id="path34" />
                </g>
                <g
   transform="matrix(20,0,0,20,73.1021,116.671)"
   id="g40">
                    <path
   d="M0.392,-0.257C0.392,-0.285 0.39,-0.31 0.386,-0.333C0.382,-0.355 0.376,-0.374 0.368,-0.39C0.359,-0.406 0.348,-0.418 0.335,-0.427C0.321,-0.436 0.304,-0.44 0.284,-0.44C0.265,-0.44 0.248,-0.435 0.235,-0.426C0.222,-0.416 0.211,-0.403 0.202,-0.386C0.193,-0.369 0.186,-0.35 0.182,-0.328C0.178,-0.305 0.176,-0.282 0.176,-0.257C0.176,-0.194 0.184,-0.147 0.201,-0.114C0.218,-0.081 0.245,-0.065 0.284,-0.065C0.305,-0.065 0.322,-0.07 0.336,-0.08C0.349,-0.089 0.36,-0.103 0.369,-0.12C0.377,-0.137 0.383,-0.158 0.387,-0.181C0.39,-0.204 0.392,-0.23 0.392,-0.257ZM0.522,-0.257C0.522,-0.221 0.518,-0.187 0.509,-0.154C0.5,-0.121 0.486,-0.093 0.467,-0.069C0.448,-0.044 0.423,-0.025 0.393,-0.01C0.362,0.005 0.326,0.012 0.284,0.012C0.202,0.012 0.142,-0.012 0.104,-0.059C0.065,-0.106 0.046,-0.172 0.046,-0.257C0.046,-0.29 0.05,-0.323 0.06,-0.354C0.068,-0.385 0.083,-0.413 0.102,-0.437C0.121,-0.461 0.146,-0.48 0.176,-0.495C0.206,-0.51 0.242,-0.517 0.284,-0.517C0.325,-0.517 0.361,-0.511 0.391,-0.498C0.421,-0.485 0.446,-0.467 0.465,-0.444C0.484,-0.421 0.499,-0.393 0.508,-0.362C0.517,-0.33 0.522,-0.295 0.522,-0.257Z"
   style="fill:rgb(8,127,73);fill-rule:nonzero;"
   id="path38" />
                </g>
                <g
   transform="matrix(20,0,0,20,84.0235,116.671)"
   id="g44">
                    <rect
   x="0.084"
   y="-0.7"
   width="0.124"
   height="0.7"
   style="fill:rgb(8,127,73);fill-rule:nonzero;"
   id="rect42" />
                </g>
                <g
   transform="matrix(20,0,0,20,89.425,116.671)"
   id="g48">
                    <path
   d="M0.392,-0.257C0.392,-0.285 0.39,-0.31 0.386,-0.333C0.382,-0.355 0.376,-0.374 0.368,-0.39C0.359,-0.406 0.348,-0.418 0.335,-0.427C0.321,-0.436 0.304,-0.44 0.284,-0.44C0.265,-0.44 0.248,-0.435 0.235,-0.426C0.222,-0.416 0.211,-0.403 0.202,-0.386C0.193,-0.369 0.186,-0.35 0.182,-0.328C0.178,-0.305 0.176,-0.282 0.176,-0.257C0.176,-0.194 0.184,-0.147 0.201,-0.114C0.218,-0.081 0.245,-0.065 0.284,-0.065C0.305,-0.065 0.322,-0.07 0.336,-0.08C0.349,-0.089 0.36,-0.103 0.369,-0.12C0.377,-0.137 0.383,-0.158 0.387,-0.181C0.39,-0.204 0.392,-0.23 0.392,-0.257ZM0.522,-0.257C0.522,-0.221 0.518,-0.187 0.509,-0.154C0.5,-0.121 0.486,-0.093 0.467,-0.069C0.448,-0.044 0.423,-0.025 0.393,-0.01C0.362,0.005 0.326,0.012 0.284,0.012C0.202,0.012 0.142,-0.012 0.104,-0.059C0.065,-0.106 0.046,-0.172 0.046,-0.257C0.046,-0.29 0.05,-0.323 0.06,-0.354C0.068,-0.385 0.083,-0.413 0.102,-0.437C0.121,-0.461 0.146,-0.48 0.176,-0.495C0.206,-0.51 0.242,-0.517 0.284,-0.517C0.325,-0.517 0.361,-0.511 0.391,-0.498C0.421,-0.485 0.446,-0.467 0.465,-0.444C0.484,-0.421 0.499,-0.393 0.508,-0.362C0.517,-0.33 0.522,-0.295 0.522,-0.257Z"
   style="fill:rgb(8,127,73);fill-rule:nonzero;"
   id="path46" />
                </g>
                <g
   transform="matrix(20,0,0,20,100.346,116.671)"
   id="g52">
                    <path
   d="M0.393,-0.316C0.393,-0.326 0.391,-0.338 0.387,-0.351C0.382,-0.364 0.376,-0.377 0.367,-0.39C0.358,-0.403 0.348,-0.413 0.335,-0.422C0.322,-0.431 0.308,-0.435 0.291,-0.435C0.27,-0.435 0.252,-0.43 0.237,-0.42C0.222,-0.409 0.211,-0.396 0.202,-0.379C0.193,-0.362 0.186,-0.342 0.182,-0.322C0.178,-0.301 0.176,-0.279 0.176,-0.257C0.176,-0.203 0.185,-0.16 0.203,-0.128C0.221,-0.096 0.25,-0.08 0.291,-0.08C0.308,-0.08 0.323,-0.084 0.336,-0.091C0.349,-0.098 0.359,-0.107 0.368,-0.118C0.377,-0.128 0.383,-0.139 0.387,-0.152C0.391,-0.164 0.393,-0.175 0.393,-0.185L0.393,-0.316ZM0.513,-0.029C0.513,0.004 0.509,0.035 0.502,0.066C0.494,0.096 0.481,0.123 0.462,0.146C0.443,0.168 0.417,0.187 0.386,0.201C0.354,0.215 0.314,0.222 0.266,0.222C0.218,0.222 0.179,0.217 0.15,0.207C0.12,0.196 0.096,0.185 0.078,0.173L0.115,0.088C0.13,0.102 0.151,0.115 0.177,0.127C0.202,0.139 0.232,0.145 0.266,0.145C0.29,0.145 0.31,0.141 0.326,0.134C0.342,0.127 0.355,0.116 0.364,0.101C0.373,0.086 0.38,0.068 0.384,0.047C0.387,0.025 0.389,-0 0.389,-0.029L0.389,-0.066C0.383,-0.058 0.376,-0.05 0.368,-0.043C0.36,-0.035 0.351,-0.028 0.341,-0.022C0.331,-0.015 0.32,-0.01 0.308,-0.006C0.296,-0.002 0.283,-0 0.269,-0C0.237,-0 0.207,-0.005 0.18,-0.015C0.153,-0.024 0.129,-0.039 0.11,-0.06C0.09,-0.081 0.074,-0.107 0.063,-0.14C0.052,-0.172 0.046,-0.211 0.046,-0.257C0.046,-0.299 0.052,-0.336 0.064,-0.369C0.075,-0.401 0.091,-0.428 0.11,-0.45C0.129,-0.472 0.151,-0.489 0.176,-0.5C0.201,-0.511 0.226,-0.517 0.251,-0.517C0.287,-0.517 0.317,-0.509 0.34,-0.494C0.363,-0.479 0.382,-0.456 0.397,-0.426L0.403,-0.495L0.513,-0.495L0.513,-0.029Z"
   style="fill:rgb(8,127,73);fill-rule:nonzero;"
   id="path50" />
                </g>
                <g
   transform="matrix(20,0,0,20,111.728,116.671)"
   id="g56">
                    <path
   d="M0.338,-0C0.325,0.035 0.313,0.066 0.303,0.093C0.292,0.12 0.28,0.143 0.267,0.163C0.254,0.182 0.238,0.196 0.219,0.207C0.2,0.217 0.176,0.222 0.147,0.222C0.123,0.222 0.102,0.219 0.084,0.214C0.066,0.208 0.051,0.202 0.038,0.195L0.072,0.109C0.084,0.118 0.095,0.124 0.105,0.129C0.114,0.133 0.126,0.135 0.14,0.135C0.151,0.135 0.161,0.13 0.17,0.121C0.179,0.112 0.186,0.1 0.193,0.086C0.199,0.072 0.205,0.057 0.21,0.042C0.215,0.027 0.219,0.013 0.223,0.001L0.016,-0.495L0.155,-0.495L0.284,-0.122L0.396,-0.495L0.525,-0.495L0.338,-0Z"
   style="fill:rgb(8,127,73);fill-rule:nonzero;"
   id="path54" />
                </g>
            </g>
            <g
   transform="matrix(0.94272,0,0,1,0.358115,0)"
   id="g104">
                <g
   transform="matrix(20,0,0,20,103.113,136.671)"
   id="g62">
                    <path
   d="M0.471,-0.314L0.331,-0.314C0.311,-0.314 0.292,-0.311 0.275,-0.305C0.258,-0.299 0.243,-0.291 0.231,-0.28C0.218,-0.269 0.208,-0.257 0.201,-0.243C0.194,-0.228 0.19,-0.213 0.19,-0.196C0.19,-0.158 0.202,-0.129 0.226,-0.11C0.249,-0.09 0.288,-0.08 0.342,-0.08C0.365,-0.08 0.388,-0.083 0.411,-0.09C0.434,-0.097 0.454,-0.105 0.471,-0.116L0.471,-0.314ZM0.587,-0.314L0.587,-0.052C0.557,-0.032 0.521,-0.016 0.48,-0.004C0.439,0.008 0.393,0.014 0.342,0.014C0.307,0.014 0.272,0.012 0.238,0.007C0.203,0.002 0.172,-0.008 0.146,-0.023C0.118,-0.038 0.097,-0.058 0.081,-0.085C0.064,-0.111 0.056,-0.146 0.056,-0.189C0.056,-0.216 0.061,-0.239 0.071,-0.26C0.081,-0.28 0.094,-0.297 0.109,-0.311C0.124,-0.325 0.14,-0.336 0.157,-0.345C0.174,-0.354 0.19,-0.36 0.204,-0.364C0.19,-0.369 0.176,-0.374 0.162,-0.381C0.147,-0.388 0.134,-0.397 0.123,-0.408C0.112,-0.419 0.102,-0.434 0.095,-0.452C0.088,-0.469 0.084,-0.491 0.084,-0.517C0.084,-0.549 0.091,-0.577 0.105,-0.602C0.119,-0.626 0.137,-0.646 0.161,-0.663C0.184,-0.68 0.21,-0.692 0.24,-0.701C0.27,-0.71 0.301,-0.714 0.333,-0.714C0.383,-0.714 0.427,-0.707 0.464,-0.693C0.501,-0.678 0.533,-0.658 0.558,-0.631L0.507,-0.536C0.497,-0.547 0.487,-0.557 0.477,-0.567C0.467,-0.577 0.456,-0.586 0.444,-0.594C0.431,-0.602 0.416,-0.608 0.399,-0.613C0.382,-0.618 0.36,-0.62 0.335,-0.62C0.314,-0.62 0.297,-0.617 0.282,-0.611C0.267,-0.604 0.254,-0.596 0.245,-0.586C0.235,-0.576 0.228,-0.565 0.223,-0.552C0.218,-0.539 0.216,-0.525 0.216,-0.512C0.216,-0.497 0.219,-0.483 0.225,-0.47C0.231,-0.457 0.239,-0.447 0.25,-0.438C0.261,-0.428 0.273,-0.421 0.287,-0.416C0.3,-0.411 0.315,-0.408 0.331,-0.408L0.676,-0.408L0.676,-0.314L0.587,-0.314Z"
   style="fill:rgb(8,127,73);fill-rule:nonzero;"
   id="path60" />
                </g>
                <g
   transform="matrix(20,0,0,20,121.915,136.671)"
   id="g66">
                    <path
   d="M0.661,-0.052C0.631,-0.033 0.595,-0.018 0.554,-0.005C0.512,0.008 0.461,0.014 0.401,0.014C0.348,0.014 0.3,0.005 0.259,-0.013C0.217,-0.03 0.181,-0.055 0.152,-0.087C0.123,-0.119 0.1,-0.158 0.085,-0.204C0.07,-0.249 0.062,-0.3 0.062,-0.356C0.062,-0.417 0.072,-0.469 0.092,-0.514C0.112,-0.559 0.138,-0.596 0.171,-0.626C0.203,-0.655 0.239,-0.677 0.28,-0.692C0.32,-0.707 0.36,-0.714 0.401,-0.714C0.459,-0.714 0.507,-0.706 0.545,-0.691C0.582,-0.676 0.613,-0.657 0.636,-0.636L0.583,-0.538C0.574,-0.549 0.563,-0.559 0.552,-0.569C0.54,-0.579 0.527,-0.588 0.512,-0.595C0.497,-0.602 0.481,-0.608 0.463,-0.613C0.444,-0.618 0.424,-0.62 0.401,-0.62C0.372,-0.62 0.345,-0.614 0.32,-0.601C0.295,-0.588 0.273,-0.571 0.255,-0.548C0.237,-0.525 0.223,-0.497 0.213,-0.465C0.202,-0.432 0.197,-0.396 0.197,-0.356C0.197,-0.315 0.202,-0.277 0.213,-0.244C0.223,-0.21 0.237,-0.181 0.256,-0.157C0.275,-0.132 0.297,-0.113 0.323,-0.1C0.348,-0.087 0.376,-0.08 0.407,-0.08C0.443,-0.08 0.471,-0.084 0.492,-0.091C0.513,-0.098 0.527,-0.106 0.536,-0.114L0.536,-0.292L0.38,-0.292L0.38,-0.388L0.661,-0.388L0.661,-0.052Z"
   style="fill:rgb(8,127,73);fill-rule:nonzero;"
   id="path64" />
                </g>
                <g
   transform="matrix(20,0,0,20,136.037,136.671)"
   id="g70">
                    <path
   d="M0.378,-0.305C0.378,-0.324 0.376,-0.341 0.372,-0.358C0.368,-0.375 0.362,-0.389 0.354,-0.402C0.345,-0.415 0.335,-0.424 0.322,-0.432C0.309,-0.439 0.293,-0.442 0.276,-0.442C0.259,-0.442 0.244,-0.438 0.231,-0.431C0.218,-0.424 0.208,-0.414 0.2,-0.402C0.191,-0.389 0.185,-0.375 0.181,-0.358C0.176,-0.341 0.174,-0.324 0.174,-0.305L0.378,-0.305ZM0.174,-0.23C0.175,-0.199 0.18,-0.174 0.188,-0.153C0.195,-0.132 0.205,-0.116 0.216,-0.103C0.227,-0.09 0.24,-0.081 0.255,-0.076C0.269,-0.07 0.283,-0.067 0.297,-0.067C0.331,-0.067 0.36,-0.072 0.385,-0.083C0.41,-0.094 0.433,-0.109 0.455,-0.128L0.488,-0.045C0.471,-0.031 0.446,-0.018 0.414,-0.006C0.381,0.006 0.342,0.012 0.295,0.012C0.246,0.012 0.205,0.004 0.173,-0.011C0.141,-0.026 0.116,-0.047 0.097,-0.072C0.078,-0.096 0.065,-0.125 0.058,-0.158C0.05,-0.19 0.046,-0.223 0.046,-0.257C0.046,-0.288 0.05,-0.318 0.059,-0.349C0.068,-0.38 0.081,-0.408 0.1,-0.433C0.119,-0.458 0.142,-0.478 0.172,-0.494C0.201,-0.509 0.236,-0.517 0.277,-0.517C0.318,-0.517 0.352,-0.51 0.381,-0.496C0.409,-0.481 0.432,-0.462 0.45,-0.439C0.468,-0.416 0.481,-0.39 0.489,-0.361C0.497,-0.331 0.501,-0.303 0.501,-0.274L0.501,-0.23L0.174,-0.23Z"
   style="fill:rgb(8,127,73);fill-rule:nonzero;"
   id="path68" />
                </g>
                <g
   transform="matrix(20,0,0,20,146.458,136.671)"
   id="g74">
                    <path
   d="M0.392,-0.257C0.392,-0.285 0.39,-0.31 0.386,-0.333C0.382,-0.355 0.376,-0.374 0.368,-0.39C0.359,-0.406 0.348,-0.418 0.335,-0.427C0.321,-0.436 0.304,-0.44 0.284,-0.44C0.265,-0.44 0.248,-0.435 0.235,-0.426C0.222,-0.416 0.211,-0.403 0.202,-0.386C0.193,-0.369 0.186,-0.35 0.182,-0.328C0.178,-0.305 0.176,-0.282 0.176,-0.257C0.176,-0.194 0.184,-0.147 0.201,-0.114C0.218,-0.081 0.245,-0.065 0.284,-0.065C0.305,-0.065 0.322,-0.07 0.336,-0.08C0.349,-0.089 0.36,-0.103 0.369,-0.12C0.377,-0.137 0.383,-0.158 0.387,-0.181C0.39,-0.204 0.392,-0.23 0.392,-0.257ZM0.522,-0.257C0.522,-0.221 0.518,-0.187 0.509,-0.154C0.5,-0.121 0.486,-0.093 0.467,-0.069C0.448,-0.044 0.423,-0.025 0.393,-0.01C0.362,0.005 0.326,0.012 0.284,0.012C0.202,0.012 0.142,-0.012 0.104,-0.059C0.065,-0.106 0.046,-0.172 0.046,-0.257C0.046,-0.29 0.05,-0.323 0.06,-0.354C0.068,-0.385 0.083,-0.413 0.102,-0.437C0.121,-0.461 0.146,-0.48 0.176,-0.495C0.206,-0.51 0.242,-0.517 0.284,-0.517C0.325,-0.517 0.361,-0.511 0.391,-0.498C0.421,-0.485 0.446,-0.467 0.465,-0.444C0.484,-0.421 0.499,-0.393 0.508,-0.362C0.517,-0.33 0.522,-0.295 0.522,-0.257Z"
   style="fill:rgb(8,127,73);fill-rule:nonzero;"
   id="path72" />
                </g>
                <g
   transform="matrix(20,0,0,20,157.38,136.671)"
   id="g78">
                    <path
   d="M0.415,-0.257C0.415,-0.28 0.413,-0.303 0.41,-0.325C0.406,-0.346 0.4,-0.365 0.391,-0.382C0.382,-0.398 0.371,-0.411 0.356,-0.421C0.341,-0.43 0.322,-0.435 0.3,-0.435C0.285,-0.435 0.271,-0.431 0.259,-0.422C0.246,-0.413 0.236,-0.402 0.227,-0.389C0.218,-0.376 0.211,-0.363 0.206,-0.35C0.201,-0.336 0.198,-0.325 0.198,-0.316L0.198,-0.173C0.198,-0.163 0.2,-0.152 0.204,-0.14C0.208,-0.127 0.214,-0.116 0.223,-0.106C0.232,-0.095 0.242,-0.086 0.255,-0.079C0.268,-0.072 0.283,-0.068 0.3,-0.068C0.323,-0.068 0.341,-0.073 0.356,-0.083C0.371,-0.093 0.382,-0.107 0.391,-0.124C0.4,-0.14 0.406,-0.161 0.41,-0.184C0.413,-0.206 0.415,-0.231 0.415,-0.257ZM0.545,-0.257C0.545,-0.212 0.539,-0.172 0.527,-0.139C0.515,-0.105 0.499,-0.077 0.479,-0.055C0.458,-0.032 0.435,-0.016 0.408,-0.005C0.381,0.007 0.352,0.012 0.321,0.012C0.305,0.012 0.29,0.01 0.277,0.005C0.264,-0 0.252,-0.007 0.241,-0.015C0.23,-0.022 0.221,-0.031 0.213,-0.04C0.205,-0.048 0.198,-0.057 0.193,-0.066L0.183,-0L0.078,-0L0.078,-0.7L0.202,-0.7L0.202,-0.426C0.217,-0.454 0.236,-0.476 0.26,-0.493C0.283,-0.509 0.31,-0.517 0.34,-0.517C0.365,-0.517 0.389,-0.512 0.414,-0.502C0.438,-0.492 0.46,-0.476 0.48,-0.456C0.499,-0.435 0.515,-0.408 0.527,-0.375C0.539,-0.342 0.545,-0.303 0.545,-0.257Z"
   style="fill:rgb(8,127,73);fill-rule:nonzero;"
   id="path76" />
                </g>
                <g
   transform="matrix(20,0,0,20,168.761,136.671)"
   id="g82">
                    <path
   d="M0.087,-0L0.087,-0.495L0.211,-0.495L0.211,-0L0.087,-0ZM0.22,-0.664C0.22,-0.654 0.218,-0.645 0.214,-0.636C0.209,-0.627 0.204,-0.62 0.197,-0.613C0.19,-0.606 0.183,-0.601 0.175,-0.598C0.166,-0.594 0.158,-0.592 0.149,-0.592C0.131,-0.592 0.115,-0.599 0.1,-0.613C0.085,-0.627 0.078,-0.644 0.078,-0.664C0.078,-0.674 0.08,-0.683 0.084,-0.692C0.087,-0.701 0.092,-0.708 0.099,-0.715C0.106,-0.721 0.113,-0.726 0.122,-0.73C0.131,-0.734 0.14,-0.736 0.149,-0.736C0.168,-0.736 0.184,-0.729 0.199,-0.714C0.213,-0.699 0.22,-0.683 0.22,-0.664Z"
   style="fill:rgb(8,127,73);fill-rule:nonzero;"
   id="path80" />
                </g>
                <g
   transform="matrix(20,0,0,20,174.283,136.671)"
   id="g86">
                    <path
   d="M0.392,-0.257C0.392,-0.285 0.39,-0.31 0.386,-0.333C0.382,-0.355 0.376,-0.374 0.368,-0.39C0.359,-0.406 0.348,-0.418 0.335,-0.427C0.321,-0.436 0.304,-0.44 0.284,-0.44C0.265,-0.44 0.248,-0.435 0.235,-0.426C0.222,-0.416 0.211,-0.403 0.202,-0.386C0.193,-0.369 0.186,-0.35 0.182,-0.328C0.178,-0.305 0.176,-0.282 0.176,-0.257C0.176,-0.194 0.184,-0.147 0.201,-0.114C0.218,-0.081 0.245,-0.065 0.284,-0.065C0.305,-0.065 0.322,-0.07 0.336,-0.08C0.349,-0.089 0.36,-0.103 0.369,-0.12C0.377,-0.137 0.383,-0.158 0.387,-0.181C0.39,-0.204 0.392,-0.23 0.392,-0.257ZM0.522,-0.257C0.522,-0.221 0.518,-0.187 0.509,-0.154C0.5,-0.121 0.486,-0.093 0.467,-0.069C0.448,-0.044 0.423,-0.025 0.393,-0.01C0.362,0.005 0.326,0.012 0.284,0.012C0.202,0.012 0.142,-0.012 0.104,-0.059C0.065,-0.106 0.046,-0.172 0.046,-0.257C0.046,-0.29 0.05,-0.323 0.06,-0.354C0.068,-0.385 0.083,-0.413 0.102,-0.437C0.121,-0.461 0.146,-0.48 0.176,-0.495C0.206,-0.51 0.242,-0.517 0.284,-0.517C0.325,-0.517 0.361,-0.511 0.391,-0.498C0.421,-0.485 0.446,-0.467 0.465,-0.444C0.484,-0.421 0.499,-0.393 0.508,-0.362C0.517,-0.33 0.522,-0.295 0.522,-0.257Z"
   style="fill:rgb(8,127,73);fill-rule:nonzero;"
   id="path84" />
                </g>
                <g
   transform="matrix(20,0,0,20,185.204,136.671)"
   id="g90">
                    <rect
   x="0.084"
   y="-0.7"
   width="0.124"
   height="0.7"
   style="fill:rgb(8,127,73);fill-rule:nonzero;"
   id="rect88" />
                </g>
                <g
   transform="matrix(20,0,0,20,190.606,136.671)"
   id="g94">
                    <path
   d="M0.392,-0.257C0.392,-0.285 0.39,-0.31 0.386,-0.333C0.382,-0.355 0.376,-0.374 0.368,-0.39C0.359,-0.406 0.348,-0.418 0.335,-0.427C0.321,-0.436 0.304,-0.44 0.284,-0.44C0.265,-0.44 0.248,-0.435 0.235,-0.426C0.222,-0.416 0.211,-0.403 0.202,-0.386C0.193,-0.369 0.186,-0.35 0.182,-0.328C0.178,-0.305 0.176,-0.282 0.176,-0.257C0.176,-0.194 0.184,-0.147 0.201,-0.114C0.218,-0.081 0.245,-0.065 0.284,-0.065C0.305,-0.065 0.322,-0.07 0.336,-0.08C0.349,-0.089 0.36,-0.103 0.369,-0.12C0.377,-0.137 0.383,-0.158 0.387,-0.181C0.39,-0.204 0.392,-0.23 0.392,-0.257ZM0.522,-0.257C0.522,-0.221 0.518,-0.187 0.509,-0.154C0.5,-0.121 0.486,-0.093 0.467,-0.069C0.448,-0.044 0.423,-0.025 0.393,-0.01C0.362,0.005 0.326,0.012 0.284,0.012C0.202,0.012 0.142,-0.012 0.104,-0.059C0.065,-0.106 0.046,-0.172 0.046,-0.257C0.046,-0.29 0.05,-0.323 0.06,-0.354C0.068,-0.385 0.083,-0.413 0.102,-0.437C0.121,-0.461 0.146,-0.48 0.176,-0.495C0.206,-0.51 0.242,-0.517 0.284,-0.517C0.325,-0.517 0.361,-0.511 0.391,-0.498C0.421,-0.485 0.446,-0.467 0.465,-0.444C0.484,-0.421 0.499,-0.393 0.508,-0.362C0.517,-0.33 0.522,-0.295 0.522,-0.257Z"
   style="fill:rgb(8,127,73);fill-rule:nonzero;"
   id="path92" />
                </g>
                <g
   transform="matrix(20,0,0,20,201.527,136.671)"
   id="g98">
                    <path
   d="M0.393,-0.316C0.393,-0.326 0.391,-0.338 0.387,-0.351C0.382,-0.364 0.376,-0.377 0.367,-0.39C0.358,-0.403 0.348,-0.413 0.335,-0.422C0.322,-0.431 0.308,-0.435 0.291,-0.435C0.27,-0.435 0.252,-0.43 0.237,-0.42C0.222,-0.409 0.211,-0.396 0.202,-0.379C0.193,-0.362 0.186,-0.342 0.182,-0.322C0.178,-0.301 0.176,-0.279 0.176,-0.257C0.176,-0.203 0.185,-0.16 0.203,-0.128C0.221,-0.096 0.25,-0.08 0.291,-0.08C0.308,-0.08 0.323,-0.084 0.336,-0.091C0.349,-0.098 0.359,-0.107 0.368,-0.118C0.377,-0.128 0.383,-0.139 0.387,-0.152C0.391,-0.164 0.393,-0.175 0.393,-0.185L0.393,-0.316ZM0.513,-0.029C0.513,0.004 0.509,0.035 0.502,0.066C0.494,0.096 0.481,0.123 0.462,0.146C0.443,0.168 0.417,0.187 0.386,0.201C0.354,0.215 0.314,0.222 0.266,0.222C0.218,0.222 0.179,0.217 0.15,0.207C0.12,0.196 0.096,0.185 0.078,0.173L0.115,0.088C0.13,0.102 0.151,0.115 0.177,0.127C0.202,0.139 0.232,0.145 0.266,0.145C0.29,0.145 0.31,0.141 0.326,0.134C0.342,0.127 0.355,0.116 0.364,0.101C0.373,0.086 0.38,0.068 0.384,0.047C0.387,0.025 0.389,-0 0.389,-0.029L0.389,-0.066C0.383,-0.058 0.376,-0.05 0.368,-0.043C0.36,-0.035 0.351,-0.028 0.341,-0.022C0.331,-0.015 0.32,-0.01 0.308,-0.006C0.296,-0.002 0.283,-0 0.269,-0C0.237,-0 0.207,-0.005 0.18,-0.015C0.153,-0.024 0.129,-0.039 0.11,-0.06C0.09,-0.081 0.074,-0.107 0.063,-0.14C0.052,-0.172 0.046,-0.211 0.046,-0.257C0.046,-0.299 0.052,-0.336 0.064,-0.369C0.075,-0.401 0.091,-0.428 0.11,-0.45C0.129,-0.472 0.151,-0.489 0.176,-0.5C0.201,-0.511 0.226,-0.517 0.251,-0.517C0.287,-0.517 0.317,-0.509 0.34,-0.494C0.363,-0.479 0.382,-0.456 0.397,-0.426L0.403,-0.495L0.513,-0.495L0.513,-0.029Z"
   style="fill:rgb(8,127,73);fill-rule:nonzero;"
   id="path96" />
                </g>
                <g
   transform="matrix(20,0,0,20,212.908,136.671)"
   id="g102">
                    <path
   d="M0.338,-0C0.325,0.035 0.313,0.066 0.303,0.093C0.292,0.12 0.28,0.143 0.267,0.163C0.254,0.182 0.238,0.196 0.219,0.207C0.2,0.217 0.176,0.222 0.147,0.222C0.123,0.222 0.102,0.219 0.084,0.214C0.066,0.208 0.051,0.202 0.038,0.195L0.072,0.109C0.084,0.118 0.095,0.124 0.105,0.129C0.114,0.133 0.126,0.135 0.14,0.135C0.151,0.135 0.161,0.13 0.17,0.121C0.179,0.112 0.186,0.1 0.193,0.086C0.199,0.072 0.205,0.057 0.21,0.042C0.215,0.027 0.219,0.013 0.223,0.001L0.016,-0.495L0.155,-0.495L0.284,-0.122L0.396,-0.495L0.525,-0.495L0.338,-0Z"
   style="fill:rgb(8,127,73);fill-rule:nonzero;"
   id="path100" />
                </g>
            </g>
        </g>
        <g
   transform="matrix(1,0,0,1,99.0736,98.5687)"
   id="g110">
            <path
   d="M0.41,-91.484L-91.074,-91.484L-91.074,0L0.41,0L0.41,-91.484Z"
   style="fill:rgb(0,130,74);fill-rule:nonzero;"
   id="path108" />
        </g>
        <g
   transform="matrix(-1,0,0,1,107.483,-36.35)"
   id="g114">
            <rect
   x="8.819"
   y="44.254"
   width="89.845"
   height="89.842"
   style="fill:white;"
   id="rect112" />
        </g>
        <g
   transform="matrix(1,0,0,1,200.502,98.5687)"
   id="g118">
            <path
   d="M0.408,-91.484L-91.075,-91.484L-91.075,0L0.408,0L0.408,-91.484Z"
   style="fill:rgb(0,130,74);fill-rule:nonzero;"
   id="path116" />
        </g>
        <g
   transform="matrix(-1,0,0,1,310.338,-36.35)"
   id="g122">
            <rect
   x="110.244"
   y="44.254"
   width="89.85"
   height="89.842"
   style="fill:white;"
   id="rect120" />
        </g>
        <g
   transform="matrix(1,0,0,1,14.5087,92.3887)"
   id="g126">
            <path
   d="M0,-32.323L3.085,-32.323L3.085,-3.163L12.064,-3.163L12.064,-0.836L0,-0.836L0,-32.323ZM29.741,-7.954C29.741,-7.737 29.848,-7.628 30.066,-7.628C30.22,-7.628 30.3,-7.737 30.3,-7.954C30.579,-10.001 30.939,-12.24 31.374,-14.674C31.813,-17.107 32.246,-19.481 32.683,-21.791C33.12,-24.098 33.541,-26.2 33.945,-28.089C34.351,-29.982 34.663,-31.391 34.882,-32.323L44.981,-32.323L44.981,-0.836L38.905,-0.836L38.905,-27.346C38.905,-27.502 38.793,-27.579 38.575,-27.579C38.452,-27.579 38.389,-27.502 38.389,-27.346C38.139,-26.107 37.875,-24.718 37.594,-23.183C37.313,-21.648 36.969,-19.851 36.565,-17.79C36.159,-15.726 35.669,-13.317 35.093,-10.557C34.518,-7.798 33.838,-4.558 33.058,-0.836L26.745,-0.836C25.966,-4.495 25.304,-7.658 24.757,-10.327C24.21,-12.991 23.736,-15.331 23.331,-17.348C22.926,-19.363 22.569,-21.161 22.256,-22.742C21.945,-24.323 21.634,-25.858 21.32,-27.346C21.32,-27.502 21.212,-27.579 20.993,-27.579C20.87,-27.579 20.807,-27.502 20.807,-27.346L20.807,-0.836L15.243,-0.836L15.243,-32.323L25.389,-32.323C25.545,-31.64 25.733,-30.758 25.951,-29.67C26.167,-28.585 26.411,-27.371 26.674,-26.02C26.94,-24.674 27.211,-23.23 27.494,-21.698C27.773,-20.16 28.054,-18.595 28.335,-16.998C28.617,-15.403 28.872,-13.835 29.108,-12.3C29.341,-10.766 29.552,-9.318 29.741,-7.954M48.818,-12.837L48.818,-32.323L59.617,-32.323L59.617,-11.766C59.617,-10.308 59.953,-9.269 60.622,-8.65C61.293,-8.03 62.188,-7.721 63.31,-7.721C64.434,-7.721 65.338,-8.03 66.024,-8.65C66.709,-9.269 67.054,-10.308 67.054,-11.766L67.054,-32.323L77.805,-32.323L77.805,-12.837C77.805,-10.511 77.455,-8.535 76.753,-6.907C76.053,-5.279 75.07,-3.955 73.808,-2.93C72.546,-1.905 71.02,-1.162 69.227,-0.699C67.434,-0.233 65.462,0 63.31,0C61.19,0 59.243,-0.233 57.467,-0.699C55.69,-1.162 54.161,-1.905 52.884,-2.93C51.605,-3.955 50.608,-5.279 49.891,-6.907C49.174,-8.535 48.818,-10.511 48.818,-12.837"
   style="fill:rgb(0,130,74);fill-rule:nonzero;"
   id="path124" />
        </g>
        <g
   transform="matrix(1,0,0,1,116.158,47.9852)"
   id="g130">
            <path
   d="M0,6.687L0,0L1.247,0L1.247,5.695L4.571,5.695L4.571,6.687L0,6.687Z"
   style="fill:rgb(0,130,74);fill-rule:nonzero;"
   id="path128" />
        </g>
        <g
   transform="matrix(1,0,0,1,125.281,47.9855)"
   id="g134">
            <path
   d="M0,6.821C-1.439,6.821 -2.795,6.306 -2.795,4.012L-2.795,0L-1.546,0L-1.546,4.127C-1.546,5.188 -1.036,5.903 0,5.903C1.019,5.903 1.518,5.234 1.518,4.127L1.518,0L2.768,0L2.768,4.012C2.768,6.143 1.384,6.821 0,6.821"
   style="fill:rgb(0,130,74);fill-rule:nonzero;"
   id="path132" />
        </g>
        <g
   transform="matrix(1,0,0,1,132.612,47.9852)"
   id="g138">
            <path
   d="M0,6.687L-2.017,6.687L-2.017,0L0,0C2.382,0 3.448,1.376 3.448,3.296C3.448,5.494 2.162,6.687 0,6.687M-0.058,0.946L-0.767,0.946L-0.767,5.732L-0.058,5.732C1.365,5.732 2.143,5.102 2.143,3.296C2.143,1.729 1.392,0.946 -0.058,0.946"
   style="fill:rgb(0,130,74);fill-rule:nonzero;"
   id="path136" />
        </g>
        <g
   transform="matrix(1,0,0,1,144.715,47.9852)"
   id="g142">
            <path
   d="M0,6.687L-1.326,6.687L-2.623,1.995L-3.919,6.687L-5.245,6.687L-7.282,0L-5.89,0L-4.525,5.234L-3.237,0.544L-1.913,0.544L-0.633,5.234L0.721,0L2.028,0L0,6.687Z"
   style="fill:rgb(0,130,74);fill-rule:nonzero;"
   id="path140" />
        </g>
        <g
   transform="matrix(1,0,0,1,0,-39.343)"
   id="g146">
            <rect
   x="148.634"
   y="87.328"
   width="1.25"
   height="6.687"
   style="fill:rgb(0,130,74);"
   id="rect144" />
        </g>
        <g
   transform="matrix(1,0,0,1,155.455,47.8505)"
   id="g150">
            <path
   d="M0,6.956C-2.036,6.956 -3.256,5.561 -3.256,3.421C-3.256,1.108 -1.557,0 0,0C1.096,0 1.806,0.344 2.258,0.746L1.748,1.682C1.384,1.271 0.885,0.898 0,0.898C-1.124,0.898 -1.96,1.902 -1.96,3.421C-1.96,4.977 -1.124,6.057 0.058,6.057C0.74,6.057 1.135,5.886 1.296,5.734L1.296,4.032L-0.203,4.032L-0.203,3.115L2.499,3.115L2.499,6.326C1.921,6.679 1.143,6.956 0,6.956"
   style="fill:rgb(0,130,74);fill-rule:nonzero;"
   id="path148" />
        </g>
        <g
   transform="matrix(-1,0,0,1,321.969,-38.644)"
   id="g154">
            <rect
   x="159.673"
   y="89.906"
   width="2.623"
   height="0.832"
   style="fill:rgb(0,130,74);"
   id="rect152" />
        </g>
        <g
   transform="matrix(1,0,0,1,122.22,60.2702)"
   id="g158">
            <path
   d="M0,6.688L-0.23,1.604L-1.932,5.77L-3.067,5.77L-4.804,1.604L-5.007,6.688L-6.227,6.688L-5.832,0L-4.275,0L-2.442,4.433L-0.702,0L0.855,0L1.247,6.688L0,6.688Z"
   style="fill:rgb(0,130,74);fill-rule:nonzero;"
   id="path156" />
        </g>
        <g
   transform="matrix(1,0,0,1,130.365,60.2702)"
   id="g162">
            <path
   d="M0,6.688L-0.586,5.063L-3.333,5.063L-3.927,6.688L-5.245,6.688L-2.573,0L-1.266,0L1.384,6.688L0,6.688ZM-1.979,1.241L-3.026,4.165L-0.913,4.165L-1.979,1.241Z"
   style="fill:rgb(0,130,74);fill-rule:nonzero;"
   id="path160" />
        </g>
        <g
   transform="matrix(1,0,0,1,137.888,60.2702)"
   id="g166">
            <path
   d="M0,6.688L-1.817,3.993L-3.67,6.688L-5.169,6.688L-2.593,3.22L-4.966,0L-3.401,0L-1.749,2.484L-0.134,0L1.365,0L-1,3.22L1.565,6.688L0,6.688Z"
   style="fill:rgb(0,130,74);fill-rule:nonzero;"
   id="path164" />
        </g>
        <g
   transform="matrix(1,0,0,1,0,-14.772)"
   id="g170">
            <rect
   x="141.289"
   y="75.042"
   width="1.25"
   height="6.688"
   style="fill:rgb(0,130,74);"
   id="rect168" />
        </g>
        <g
   transform="matrix(1,0,0,1,151.281,60.2702)"
   id="g174">
            <path
   d="M0,6.688L-0.233,1.604L-1.932,5.77L-3.067,5.77L-4.804,1.604L-5.007,6.688L-6.227,6.688L-5.832,0L-4.275,0L-2.442,4.433L-0.702,0L0.855,0L1.247,6.688L0,6.688Z"
   style="fill:rgb(0,130,74);fill-rule:nonzero;"
   id="path172" />
        </g>
        <g
   transform="matrix(1,0,0,1,0,-14.772)"
   id="g178">
            <rect
   x="155.047"
   y="75.042"
   width="1.247"
   height="6.688"
   style="fill:rgb(0,130,74);"
   id="rect176" />
        </g>
        <g
   transform="matrix(1,0,0,1,163.548,60.2702)"
   id="g182">
            <path
   d="M0,6.688L0,5.695L-3.324,5.695L-3.324,0L-4.574,0L-4.574,6.688L0,6.688Z"
   style="fill:rgb(0,130,74);fill-rule:nonzero;"
   id="path180" />
        </g>
        <g
   transform="matrix(1,0,0,1,0,-14.772)"
   id="g186">
            <rect
   x="165.672"
   y="75.042"
   width="1.247"
   height="6.688"
   style="fill:rgb(0,130,74);"
   id="rect184" />
        </g>
        <g
   transform="matrix(1,0,0,1,174.02,60.2702)"
   id="g190">
            <path
   d="M0,6.688L-0.587,5.063L-3.335,5.063L-3.93,6.688L-5.246,6.688L-2.576,0L-1.269,0L1.384,6.688L0,6.688ZM-1.979,1.241L-3.026,4.165L-0.913,4.165L-1.979,1.241Z"
   style="fill:rgb(0,130,74);fill-rule:nonzero;"
   id="path188" />
        </g>
        <g
   transform="matrix(1,0,0,1,181.252,60.2702)"
   id="g194">
            <path
   d="M0,6.688L-2.804,1.7L-2.804,6.688L-4.034,6.688L-4.034,0L-2.401,0L0.406,4.987L0.406,0L1.633,0L1.633,6.688L0,6.688Z"
   style="fill:rgb(0,130,74);fill-rule:nonzero;"
   id="path192" />
        </g>
        <g
   transform="matrix(1,0,0,1,190.006,62.1224)"
   id="g198">
            <path
   d="M0,2.982C0,1.969 -0.614,1.491 -1.373,1.166L-2.699,0.603C-3.113,0.43 -3.546,0.202 -3.546,-0.277C-3.546,-0.659 -3.209,-1.088 -2.469,-1.088C-1.633,-1.088 -1.162,-0.717 -0.778,-0.248L-0.249,-1.078C-0.732,-1.652 -1.576,-1.987 -2.469,-1.987C-3.546,-1.987 -4.823,-1.356 -4.823,-0.066C-4.823,0.755 -4.267,1.301 -3.546,1.606L-2.22,2.169C-1.702,2.39 -1.307,2.638 -1.307,3.164C-1.307,3.593 -1.702,4.071 -2.546,4.071C-3.401,4.071 -3.957,3.689 -4.44,3.145L-4.966,3.985C-4.651,4.358 -3.892,4.969 -2.565,4.969C-0.548,4.969 0,3.67 0,2.982"
   style="fill:rgb(0,130,74);fill-rule:nonzero;"
   id="path196" />
        </g>
        <g
   transform="matrix(1,0,0,1,0,-14.076)"
   id="g202">
            <rect
   x="191.609"
   y="77.622"
   width="2.623"
   height="0.832"
   style="fill:rgb(0,130,74);"
   id="rect200" />
        </g>
        <g
   transform="matrix(1,0,0,1,118.857,72.5542)"
   id="g206">
            <path
   d="M0,6.823C-1.442,6.823 -2.795,6.306 -2.795,4.014L-2.795,0L-1.549,0L-1.549,4.128C-1.549,5.188 -1.039,5.905 0,5.905C1.017,5.905 1.518,5.236 1.518,4.128L1.518,0L2.765,0L2.765,4.014C2.765,6.145 1.384,6.823 0,6.823"
   style="fill:rgb(0,130,74);fill-rule:nonzero;"
   id="path204" />
        </g>
        <g
   transform="matrix(1,0,0,1,128.205,72.5549)"
   id="g210">
            <path
   d="M0,6.688L-2.806,1.7L-2.806,6.688L-4.037,6.688L-4.037,0L-2.404,0L0.403,4.987L0.403,0L1.631,0L1.631,6.688L0,6.688Z"
   style="fill:rgb(0,130,74);fill-rule:nonzero;"
   id="path208" />
        </g>
        <g
   transform="matrix(1,0,0,1,0,9.798)"
   id="g214">
            <rect
   x="132.516"
   y="62.757"
   width="1.25"
   height="6.688"
   style="fill:rgb(0,130,74);"
   id="rect212" />
        </g>
        <g
   transform="matrix(1,0,0,1,139.423,72.5549)"
   id="g218">
            <path
   d="M0,6.688L-1.324,6.688L-3.996,0L-2.584,0L-0.633,5.427L1.318,0L2.672,0L0,6.688Z"
   style="fill:rgb(0,130,74);fill-rule:nonzero;"
   id="path216" />
        </g>
        <g
   transform="matrix(1,0,0,1,143.947,72.5549)"
   id="g222">
            <path
   d="M0,6.688L0,0L4.506,0L4.506,0.974L1.25,0.974L1.25,2.732L4.248,2.732L4.248,3.688L1.25,3.688L1.25,5.695L4.632,5.695L4.632,6.688L0,6.688Z"
   style="fill:rgb(0,130,74);fill-rule:nonzero;"
   id="path220" />
        </g>
        <g
   transform="matrix(1,0,0,1,154.592,72.5549)"
   id="g226">
            <path
   d="M0,6.688L-1.354,4.672C-1.699,4.156 -1.998,3.802 -2.313,3.802L-2.623,3.802L-2.623,6.688L-3.87,6.688L-3.87,0L-1.305,0C-0.123,0 0.943,0.62 0.943,1.863C0.943,3.124 -0.192,3.593 -0.767,3.66C-0.576,3.783 -0.326,4.108 -0.239,4.232L1.491,6.688L0,6.688ZM-1.546,0.945L-2.623,0.945L-2.623,2.886L-1.546,2.886C-0.584,2.886 -0.345,2.417 -0.345,1.863C-0.345,1.356 -0.74,0.945 -1.546,0.945"
   style="fill:rgb(0,130,74);fill-rule:nonzero;"
   id="path224" />
        </g>
        <g
   transform="matrix(1,0,0,1,159.81,72.4202)"
   id="g230">
            <path
   d="M0,6.957C-1.326,6.957 -2.086,6.345 -2.404,5.973L-1.875,5.132C-1.392,5.676 -0.836,6.058 0.019,6.058C0.863,6.058 1.258,5.581 1.258,5.151C1.258,4.625 0.863,4.377 0.345,4.158L-0.981,3.593C-1.702,3.287 -2.258,2.743 -2.258,1.921C-2.258,0.632 -0.981,0 0.096,0C0.989,0 1.833,0.334 2.316,0.909L1.787,1.739C1.403,1.272 0.932,0.899 0.096,0.899C-0.644,0.899 -0.981,1.329 -0.981,1.711C-0.981,2.188 -0.548,2.419 -0.134,2.59L1.189,3.155C1.949,3.479 2.565,3.956 2.565,4.969C2.565,5.657 2.017,6.957 0,6.957"
   style="fill:rgb(0,130,74);fill-rule:nonzero;"
   id="path228" />
        </g>
        <g
   transform="matrix(1,0,0,1,0,9.798)"
   id="g234">
            <rect
   x="164.622"
   y="62.757"
   width="1.25"
   height="6.688"
   style="fill:rgb(0,130,74);"
   id="rect232" />
        </g>
        <g
   transform="matrix(1,0,0,1,171.241,78.25)"
   id="g238">
            <path
   d="M0,-4.702L0,0.993L-1.247,0.993L-1.247,-4.702L-3.505,-4.702L-3.505,-5.695L2.258,-5.695L2.258,-4.702L0,-4.702Z"
   style="fill:rgb(0,130,74);fill-rule:nonzero;"
   id="path236" />
        </g>
        <g
   transform="matrix(1,0,0,1,179.745,70.6619)"
   id="g242">
            <path
   d="M0,8.581L-0.586,6.957L-3.335,6.957L-3.93,8.581L-5.245,8.581L-2.576,1.893L-1.269,1.893L1.381,8.581L0,8.581ZM-2.894,1.282C-3.248,1.282 -3.546,0.976 -3.546,0.642C-3.546,0.306 -3.258,0 -2.894,0C-2.527,0 -2.239,0.306 -2.239,0.642C-2.239,0.976 -2.538,1.282 -2.894,1.282M-1.981,3.136L-3.028,6.058L-0.915,6.058L-1.981,3.136ZM-1.039,1.282C-1.395,1.282 -1.691,0.976 -1.691,0.642C-1.691,0.306 -1.403,0 -1.039,0C-0.674,0 -0.386,0.306 -0.386,0.642C-0.386,0.976 -0.682,1.282 -1.039,1.282"
   style="fill:rgb(0,130,74);fill-rule:nonzero;"
   id="path240" />
        </g>
        <g
   transform="matrix(1,0,0,1,185.632,78.25)"
   id="g246">
            <path
   d="M0,-4.702L0,0.993L-1.247,0.993L-1.247,-4.702L-3.505,-4.702L-3.505,-5.695L2.258,-5.695L2.258,-4.702L0,-4.702Z"
   style="fill:rgb(0,130,74);fill-rule:nonzero;"
   id="path244" />
        </g>
        <g
   transform="matrix(1,0,0,1,122.22,84.8396)"
   id="g250">
            <path
   d="M0,6.688L-0.23,1.606L-1.932,5.771L-3.067,5.771L-4.804,1.606L-5.007,6.688L-6.227,6.688L-5.832,0L-4.275,0L-2.442,4.434L-0.702,0L0.855,0L1.247,6.688L0,6.688Z"
   style="fill:rgb(0,130,74);fill-rule:nonzero;"
   id="path248" />
        </g>
        <g
   transform="matrix(1,0,0,1,128.647,82.9479)"
   id="g254">
            <path
   d="M0,8.714C-1.441,8.714 -2.795,8.199 -2.795,5.905L-2.795,1.891L-1.548,1.891L-1.548,6.02C-1.548,7.081 -1.039,7.797 0,7.797C1.017,7.797 1.518,7.129 1.518,6.02L1.518,1.891L2.765,1.891L2.765,5.905C2.765,8.036 1.384,8.714 0,8.714M-1.019,1.28C-1.373,1.28 -1.672,0.975 -1.672,0.64C-1.672,0.306 -1.384,0 -1.019,0C-0.655,0 -0.356,0.306 -0.356,0.64C-0.356,0.975 -0.663,1.28 -1.019,1.28M0.836,1.28C0.48,1.28 0.181,0.975 0.181,0.64C0.181,0.306 0.471,0 0.836,0C1.2,0 1.499,0.306 1.499,0.64C1.499,0.975 1.189,1.28 0.836,1.28"
   style="fill:rgb(0,130,74);fill-rule:nonzero;"
   id="path252" />
        </g>
        <g
   transform="matrix(1,0,0,1,137.995,84.8396)"
   id="g258">
            <path
   d="M0,6.688L-2.806,1.702L-2.806,6.688L-4.037,6.688L-4.037,0L-2.404,0L0.403,4.988L0.403,0L1.631,0L1.631,6.688L0,6.688Z"
   style="fill:rgb(0,130,74);fill-rule:nonzero;"
   id="path256" />
        </g>
        <g
   transform="matrix(1,0,0,1,145.093,84.7059)"
   id="g262">
            <path
   d="M0,6.956C-2.17,6.956 -3.19,5.275 -3.19,3.43C-3.19,1.624 -1.951,0 0,0C0.962,0 1.71,0.316 2.22,0.85L1.729,1.778C1.354,1.357 0.981,0.917 0.019,0.917C-1.115,0.917 -1.883,2.016 -1.883,3.43C-1.883,4.816 -1.058,6.039 0.03,6.039C0.828,6.039 1.354,5.771 1.921,5.169L2.401,6.124C1.623,6.718 1.058,6.956 0,6.956"
   style="fill:rgb(0,130,74);fill-rule:nonzero;"
   id="path260" />
        </g>
        <g
   transform="matrix(1,0,0,1,153.69,84.8396)"
   id="g266">
            <path
   d="M0,6.688L0,3.66L-2.995,3.66L-2.995,6.688L-4.245,6.688L-4.245,0L-2.995,0L-2.995,2.743L0,2.743L0,0L1.25,0L1.25,6.688L0,6.688Z"
   style="fill:rgb(0,130,74);fill-rule:nonzero;"
   id="path264" />
        </g>
        <g
   transform="matrix(1,0,0,1,157.582,84.8396)"
   id="g270">
            <path
   d="M0,6.688L0,0L4.506,0L4.506,0.975L1.25,0.975L1.25,2.733L4.248,2.733L4.248,3.688L1.25,3.688L1.25,5.695L4.632,5.695L4.632,6.688L0,6.688Z"
   style="fill:rgb(0,130,74);fill-rule:nonzero;"
   id="path268" />
        </g>
        <g
   transform="matrix(1,0,0,1,168.391,84.8396)"
   id="g274">
            <path
   d="M0,6.688L-2.806,1.702L-2.806,6.688L-4.037,6.688L-4.037,0L-2.403,0L0.403,4.988L0.403,0L1.633,0L1.633,6.688L0,6.688Z"
   style="fill:rgb(0,130,74);fill-rule:nonzero;"
   id="path272" />
        </g>
        <g
   transform="matrix(1,0,0,1,276.558,7.0846)"
   id="g278">
            <path
   d="M0,129.297C35.705,129.297 64.65,100.354 64.65,64.648L64.65,64.742C64.6,100.405 35.674,129.297 0,129.297M64.65,64.648C64.65,47.918 58.294,32.672 47.866,21.193C58.275,32.651 64.627,47.861 64.65,64.555L64.65,64.648M40.523,14.273C29.437,5.345 15.342,0 0,0C15.342,0 29.437,5.345 40.523,14.273"
   style="fill:white;fill-rule:nonzero;"
   id="path276" />
        </g>
        <g
   transform="matrix(1,0,0,1,256.463,131.405)"
   id="g282">
            <path
   d="M0,6.939L-0.028,6.939C-2.994,6.928 -5.803,3.378 -4.823,0C-1.714,1.3 1.516,2.363 4.849,3.169C4.308,3.849 3.766,4.531 3.225,5.211C2.259,6.426 1.119,6.935 0,6.939"
   style="fill:white;fill-rule:nonzero;"
   id="path280" />
        </g>
        <g
   transform="matrix(1,0,0,1,324.425,17.1083)"
   id="g286">
            <path
   d="M0,11.169C-2.264,8.676 -4.718,6.363 -7.343,4.249C-5.878,3.152 -4.41,2.058 -2.941,0.965C-2.034,0.29 -1.135,0 -0.294,0C3.671,0 6.321,6.462 2.106,9.599C1.403,10.122 0.702,10.645 0,11.169"
   style="fill:white;fill-rule:nonzero;"
   id="path284" />
        </g>
        <g
   transform="matrix(1,0,0,1,227.675,15.7556)"
   id="g290">
            <path
   d="M0,13.669C-2.256,11.83 -4.533,10.015 -6.829,8.222C-10.86,5.074 -7.199,0 -3.007,0C-1.918,0 -0.793,0.343 0.242,1.151C2.554,2.956 4.843,4.782 7.111,6.634C4.564,8.793 2.185,11.146 0,13.669"
   style="fill:white;fill-rule:nonzero;"
   id="path288" />
        </g>
        <g
   transform="matrix(1,0,0,1,276.558,7.0846)"
   id="g294">
            <path
   d="M0,129.297C-5.252,129.297 -10.358,128.67 -15.247,127.489C-5.213,114.86 4.838,102.168 16.151,90.651C27.091,79.514 39.482,69.947 51.931,60.579C56.122,57.425 53.479,50.968 49.534,50.968C48.692,50.968 47.791,51.262 46.884,51.944C36.21,59.977 25.588,68.114 15.756,77.157C11.717,71.063 7.406,65.202 2.853,59.548C16.455,45.125 31.995,33.042 47.866,21.193C58.294,32.672 64.65,47.918 64.65,64.648C64.65,100.354 35.705,129.297 0,129.297M-24.918,124.32C-48.252,114.564 -64.648,91.521 -64.648,64.648C-64.648,48.47 -58.705,33.679 -48.884,22.34C-26.942,40.227 -7.018,60.368 8.442,84.221C3.949,88.786 -0.335,93.555 -4.496,98.437C-13.067,85.475 -22.881,73.42 -33.681,62.233C-34.713,61.164 -35.882,60.715 -37.015,60.715C-40.806,60.715 -44.2,65.733 -40.752,69.304C-29.699,80.753 -19.76,93.075 -11.181,106.481C-15.489,111.774 -19.709,117.138 -23.942,122.461C-24.417,123.058 -24.734,123.686 -24.918,124.32M-3.613,51.837C-7.632,47.231 -11.812,42.765 -16.127,38.431C-10.394,32.446 -4.349,26.809 2.002,21.461C5.887,18.19 2.316,13.138 -1.769,13.138C-2.877,13.138 -4.023,13.51 -5.069,14.39C-11.457,19.768 -17.535,25.441 -23.298,31.464C-29.247,25.868 -35.423,20.49 -41.772,15.305C-30.505,5.757 -15.926,0 0,0C15.342,0 29.437,5.345 40.523,14.273C24.998,25.891 9.767,37.774 -3.613,51.837"
   style="fill:rgb(0,130,74);fill-rule:nonzero;"
   id="path292" />
        </g>
        <g
   transform="matrix(1,0,0,1,261.311,58.0526)"
   id="g298">
            <path
   d="M0,76.521C-3.333,75.715 -6.562,74.652 -9.671,73.352C-9.487,72.718 -9.17,72.09 -8.695,71.493C-4.462,66.17 -0.242,60.806 4.066,55.513C4.194,55.713 4.322,55.913 4.449,56.114C5.497,57.764 7.028,58.448 8.553,58.449C12.041,58.449 15.498,54.867 13.084,51.067C12.317,49.861 11.539,48.66 10.752,47.469C14.912,42.587 19.196,37.818 23.689,33.253C24.046,33.804 24.402,34.358 24.754,34.913C25.802,36.563 27.332,37.248 28.857,37.248C32.344,37.248 35.802,33.666 33.389,29.866C32.605,28.632 31.809,27.405 31.003,26.189C40.835,17.146 51.458,9.009 62.132,0.976C63.039,0.294 63.94,0 64.782,0C68.727,0 71.37,6.457 67.179,9.611C54.73,18.979 42.338,28.546 31.398,39.683C20.085,51.2 10.034,63.892 0,76.521"
   style="fill:white;fill-rule:nonzero;"
   id="path296" />
        </g>
        <g
   transform="matrix(0.768707,0.639601,0.639601,-0.768707,269.39,49.0687)"
   id="g302">
            <path
   d="M18.937,-7.092C15.647,-6.429 12.345,-5.833 9.034,-5.3C10.325,14.068 14.434,32.944 18.937,51.806C22.307,51.86 25.673,51.651 29.008,51.183C24.385,31.923 20.168,12.695 18.937,-7.092"
   style="fill:white;fill-rule:nonzero;"
   id="path300" />
        </g>
        <g
   transform="matrix(1,0,0,1,260.431,20.2225)"
   id="g306">
            <path
   d="M0,25.293C-2.35,22.933 -4.742,20.611 -7.171,18.326C-1.408,12.303 4.67,6.63 11.059,1.252C12.104,0.372 13.25,0 14.359,0C18.444,0 22.015,5.052 18.129,8.323C11.778,13.671 5.734,19.308 0,25.293"
   style="fill:white;fill-rule:nonzero;"
   id="path304" />
        </g>
        <g
   transform="matrix(1,0,0,1,290.168,22.3899)"
   id="g310">
            <path
   d="M0,72.911C-1.525,72.911 -3.055,72.226 -4.103,70.576C-4.455,70.021 -4.811,69.467 -5.168,68.916C-20.628,45.062 -40.552,24.921 -62.494,7.035C-60.308,4.512 -57.929,2.159 -55.382,0C-49.033,5.185 -42.857,10.562 -36.908,16.159C-34.48,18.443 -32.088,20.765 -29.737,23.126C-25.422,27.459 -21.242,31.925 -17.223,36.532C-15.019,39.058 -12.862,41.628 -10.757,44.242C-6.204,49.897 -1.893,55.757 2.146,61.852C2.952,63.067 3.748,64.294 4.532,65.529C6.944,69.329 3.487,72.911 0,72.911"
   style="fill:white;fill-rule:nonzero;"
   id="path308" />
        </g>
        <g
   transform="matrix(1,0,0,1,269.864,67.7996)"
   id="g314">
            <path
   d="M0,48.702C-1.524,48.701 -3.055,48.017 -4.104,46.367C-4.231,46.166 -4.359,45.966 -4.487,45.766C-13.065,32.36 -23.005,20.038 -34.058,8.589C-37.505,5.018 -34.112,0 -30.321,0C-29.188,0 -28.019,0.449 -26.986,1.518C-16.187,12.705 -6.373,24.76 2.199,37.722C2.987,38.913 3.765,40.114 4.531,41.32C6.946,45.12 3.488,48.702 0,48.702"
   style="fill:white;fill-rule:nonzero;"
   id="path312" />
        </g>
    </g>
</svg>
