<svg id="Calque_1" data-name="Calque 1" xmlns="http://www.w3.org/2000/svg" viewBox="0 0 314.33 119.7"><defs><style>.cls-1,.cls-2{fill:#241f20;}.cls-2{stroke:#241f20;stroke-width:1.01px;}</style></defs><title>LogoIP</title><path class="cls-1" d="M321.89,62.43l0,22.52c11.65,0,19.28-10.26,19.28-21.4,0-6.11-2.76-14.67-10.35-14.67-7,0-8.9,8-8.9,13.55" transform="translate(-42.41 -40.64)"/><path class="cls-1" d="M343.91,53.76a21,21,0,0,1,2.43,10c0,13.91-10,27.59-24.13,29.83V123h5.12c7.73,0,10.53-1.53,13-3.54a44.39,44.39,0,0,0,3.57-65.67" transform="translate(-42.41 -40.64)"/><path class="cls-1" d="M312.41,40.64a44.29,44.29,0,0,0-36.86,19.7,6.89,6.89,0,0,1,1.14,3.71,5.13,5.13,0,0,1-1.2,3.38,5.34,5.34,0,0,1-4.12,1.79h0l-.38,0a44.48,44.48,0,0,0,13.57,50.35c3,2.42,5.36,3.42,13,3.42h2.64c7,0,8.81-2,8.81-7,0-4.57,0-22.32,0-22.32-15.29-4.32-25.46-12.34-34.72-21.2a8.87,8.87,0,0,1,6.35-3.2c8.35,0,16.11,10.41,28,13.89V69.69c0-11.93,7.48-24.39,20.57-24.39a18.66,18.66,0,0,1,3.81.37A44.09,44.09,0,0,0,312.41,40.64Z" transform="translate(-42.41 -40.64)"/><path class="cls-2" d="M46.58,159.67c-.28-11-.28-20.17,0-31a18.55,18.55,0,0,1-3.65,0c.23,10.84.27,20,0,31A18.55,18.55,0,0,1,46.58,159.67Z" transform="translate(-42.41 -40.64)"/><path class="cls-2" d="M71.58,159.67V142.83a7.45,7.45,0,0,0-7.5-7.45h-8.2a2.8,2.8,0,0,0-2.82,2.82v21.47a15.82,15.82,0,0,1,3.37,0c-.16-6.16-.24-14.84,0-21,0,0,3.22-.15,7.38-.08A4.31,4.31,0,0,1,68.24,143c.2,2.47,0,13-.07,16.72A16.2,16.2,0,0,1,71.58,159.67Z" transform="translate(-42.41 -40.64)"/><path class="cls-2" d="M92.54,153.39a6.45,6.45,0,0,0-4.05-5.85l-6.39-2.43A3.43,3.43,0,0,1,80,141.93a3.36,3.36,0,0,1,3.53-3.26,70,70,0,0,1,8.48.08,10.33,10.33,0,0,1,0-3.14H82.84a6.31,6.31,0,0,0-2.43,12.13l6.44,2.47a3.19,3.19,0,0,1,2.08,3,3.45,3.45,0,0,1-3.42,3.41,62.43,62.43,0,0,1-8.48-.08,10.33,10.33,0,0,1,0,3.14h9.15A6.25,6.25,0,0,0,92.54,153.39Z" transform="translate(-42.41 -40.64)"/><path class="cls-2" d="M107.53,159.67a13.74,13.74,0,0,1,0-3.14c-.51,0-1.37,0-2.12,0-3.65,0-3.77-4.2-3.81-4.4-.12-.7,0-7.49,0-13.42a49.49,49.49,0,0,1,6,0,10.33,10.33,0,0,1,0-3.14h-6c0-.94,0-3.14.12-7a16.57,16.57,0,0,1-3.45,0v23.63c0,4.08,2.51,7.38,6.9,7.38Z" transform="translate(-42.41 -40.64)"/><path class="cls-2" d="M116.74,159.67c-.15-7.69-.11-17.23,0-24.06a16.19,16.19,0,0,1-3.41,0c.16,6.83.16,16.41,0,24.06A16.2,16.2,0,0,1,116.74,159.67Zm0-28.26a18,18,0,0,1,0-2.75h-3.41a15.79,15.79,0,0,1,0,2.75Z" transform="translate(-42.41 -40.64)"/><path class="cls-2" d="M132.6,159.67a13.74,13.74,0,0,1,0-3.14c-.51,0-1.38,0-2.12,0-3.65,0-3.77-4.2-3.81-4.4-.12-.7,0-7.49,0-13.42a49.49,49.49,0,0,1,6,0,10.33,10.33,0,0,1,0-3.14h-6c0-.94,0-3.14.12-7a16.67,16.67,0,0,1-3.46,0v23.63c0,4.08,2.52,7.38,6.91,7.38Z" transform="translate(-42.41 -40.64)"/><path class="cls-2" d="M156.06,156.84V135.61a16.2,16.2,0,0,1-3.41,0c.11,5.26.31,14.48,0,21a51.87,51.87,0,0,1-5.38.08,6.1,6.1,0,0,1-6.28-6.24c-.08-2.51-.08-13.31,0-14.8a16.29,16.29,0,0,1-3.42,0v14.6a9.46,9.46,0,0,0,9.42,9.46h6.25A2.78,2.78,0,0,0,156.06,156.84Z" transform="translate(-42.41 -40.64)"/><path class="cls-2" d="M172.11,159.67a14.33,14.33,0,0,1,0-3.14c-.51,0-1.37,0-2.12,0-3.65,0-3.77-4.2-3.8-4.4-.12-.7,0-7.49,0-13.42a49.32,49.32,0,0,1,6,0,11,11,0,0,1,0-3.14h-6c0-.94,0-3.14.11-7a16.58,16.58,0,0,1-3.45,0v23.63c0,4.08,2.51,7.38,6.91,7.38Z" transform="translate(-42.41 -40.64)"/><path class="cls-2" d="M206.77,136.67a5.13,5.13,0,0,1-5.1,5.26c-1.3,0-3.85,0-7,0,0-4.67.08-8.83.2-10.4,2.2-.2,5.85-.16,6.83-.16A5.13,5.13,0,0,1,206.77,136.67Zm3.69.08a8.48,8.48,0,0,0-8.64-8.48h-7.53a3.13,3.13,0,0,0-3.14,3.18v28.22a27.78,27.78,0,0,1,3.65,0c-.12-2.12-.2-8.44-.16-14.64h7.26A8.25,8.25,0,0,0,210.46,136.75Z" transform="translate(-42.41 -40.64)"/><path class="cls-2" d="M228.12,150.84a6,6,0,0,1-5.89,5.77,5.9,5.9,0,0,1-5.65-5.89c0-1.84,0-5.53,0-7.38a4.69,4.69,0,0,1,3.93-4.75c3.18-.11,7.3,0,7.53,0C228.16,142.2,228.2,146.44,228.12,150.84Zm3.57,8.83V138a2.67,2.67,0,0,0-2.7-2.66h-8a7.61,7.61,0,0,0-7.69,7.49v7.62a9.36,9.36,0,0,0,9.06,9.34,7.29,7.29,0,0,0,6.05-3.34c0,.83,0,2.47,0,3.18A15.45,15.45,0,0,1,231.69,159.67Z" transform="translate(-42.41 -40.64)"/><path class="cls-2" d="M253.36,153.39a6.45,6.45,0,0,0-4.05-5.85l-6.39-2.43a3.44,3.44,0,0,1-2.09-3.18,3.37,3.37,0,0,1,3.54-3.26,70,70,0,0,1,8.48.08,10.33,10.33,0,0,1,0-3.14h-9.19a6.31,6.31,0,0,0-2.43,12.13l6.44,2.47a3.19,3.19,0,0,1,2.08,3,3.45,3.45,0,0,1-3.42,3.41,62.43,62.43,0,0,1-8.48-.08,10.33,10.33,0,0,1,0,3.14H247A6.25,6.25,0,0,0,253.36,153.39Z" transform="translate(-42.41 -40.64)"/><path class="cls-2" d="M268.35,159.67a13.74,13.74,0,0,1,0-3.14c-.51,0-1.37,0-2.12,0-3.65,0-3.77-4.2-3.81-4.4-.12-.7,0-7.49,0-13.42a49.49,49.49,0,0,1,6,0,10.33,10.33,0,0,1,0-3.14h-6c0-.94,0-3.14.12-7a16.57,16.57,0,0,1-3.45,0v23.63c0,4.08,2.51,7.38,6.91,7.38Z" transform="translate(-42.41 -40.64)"/><path class="cls-2" d="M287.07,145.66c-2.71.16-8.75.16-11.5,0,0-1.22,0-2.32.08-3,.23-2.32,1.68-4.48,4.47-4.44l2.44,0c2.78,0,4.23,2.08,4.47,4.44A17.62,17.62,0,0,1,287.07,145.66Zm3.3,3.06v-5.89a7.62,7.62,0,0,0-7.58-7.65h-2.86a7.55,7.55,0,0,0-7.58,7.57v7.54a9.36,9.36,0,0,0,9.38,9.38h7.77a12.4,12.4,0,0,1,0-3.1,75.14,75.14,0,0,1-7.65.12,6.19,6.19,0,0,1-6.2-6.32c0-.43,0-1,0-1.65Z" transform="translate(-42.41 -40.64)"/><path class="cls-2" d="M313.68,156.84V135.61a16.2,16.2,0,0,1-3.41,0c.11,5.26.31,14.48,0,21a51.87,51.87,0,0,1-5.38.08,6.1,6.1,0,0,1-6.28-6.24c-.08-2.51-.08-13.31,0-14.8a16.29,16.29,0,0,1-3.42,0v14.6a9.46,9.46,0,0,0,9.42,9.46h6.25A2.78,2.78,0,0,0,313.68,156.84Z" transform="translate(-42.41 -40.64)"/><path class="cls-2" d="M331.46,138.75a13.74,13.74,0,0,1,0-3.14h-3.69a7.38,7.38,0,0,0-7.42,7.38v16.68a16.2,16.2,0,0,1,3.41,0c-.35-10.2-.15-16.41-.15-16.41a4.43,4.43,0,0,1,4.55-4.59A26.6,26.6,0,0,1,331.46,138.75Z" transform="translate(-42.41 -40.64)"/><path class="cls-1" d="M266.85,66.81c2.64,2.25,6.27,2.32,8.12.17s1.19-5.74-1.45-8-6.27-2.33-8.12-.17-1.19,5.73,1.45,8" transform="translate(-42.41 -40.64)"/></svg>