<?xml version="1.0" encoding="utf-8"?>
<!-- Generator: Adobe Illustrator 21.1.0, SVG Export Plug-In . SVG Version: 6.00 Build 0)  -->
<svg version="1.1" id="Layer_1" xmlns="http://www.w3.org/2000/svg" xmlns:xlink="http://www.w3.org/1999/xlink" x="0px" y="0px"
	 viewBox="0 0 280 279.4" style="enable-background:new 0 0 280 279.4;" xml:space="preserve">
<style type="text/css">
	.st0{fill:#3A69B1;}
	.st1{enable-background:new    ;}
	.st2{fill:#FFFFFF;}
</style>
<rect y="0" class="st0" width="280" height="280"/>
<g class="st1">
	<path class="st2" d="M98.6,239.3l-7.1,7.9l-12.1-10.5c-3.1,1.8-6.3,3.1-9.6,3.8c-3.3,0.8-6.6,1.2-9.8,1.2c-6.2,0-11.7-1.1-16.6-3.4
		c-4.9-2.3-9.1-5.4-12.5-9.3c-3.4-3.9-6-8.5-7.8-13.8c-1.8-5.3-2.7-10.9-2.7-16.8c0-5.9,0.9-11.4,2.7-16.7c1.8-5.3,4.4-9.8,7.8-13.8
		c3.4-3.9,7.5-7.1,12.5-9.4c4.9-2.3,10.4-3.5,16.6-3.5c6.2,0,11.7,1.2,16.6,3.5c4.9,2.3,9.1,5.4,12.5,9.4c3.4,3.9,6,8.5,7.8,13.8
		c1.8,5.3,2.7,10.8,2.7,16.7c0,2.9-0.2,5.7-0.7,8.6c-0.5,2.9-1.2,5.7-2.1,8.5c-0.9,2.8-2.1,5.4-3.6,7.9c-1.5,2.5-3.2,4.7-5.3,6.7
		L98.6,239.3z M61,220.6l7-8l10.1,8.8c2.6-3.2,4.5-6.8,5.6-10.8c1.1-4,1.6-8.1,1.6-12.3c0-3.9-0.5-7.8-1.4-11.6
		c-1-3.8-2.5-7.2-4.5-10.1c-2-3-4.6-5.3-7.8-7.1c-3.2-1.8-7-2.7-11.4-2.7s-8.2,0.9-11.4,2.7c-3.2,1.8-5.8,4.2-7.8,7.1
		c-2,3-3.5,6.4-4.5,10.1c-1,3.8-1.4,7.6-1.4,11.6s0.5,7.8,1.4,11.6c1,3.8,2.5,7.2,4.5,10.1c2,3,4.6,5.4,7.8,7.1
		c3.2,1.8,7,2.7,11.4,2.7c1.5,0,3.1-0.2,4.7-0.5c1.6-0.3,3.1-0.8,4.6-1.5L61,220.6z"/>
	<path class="st2" d="M103.9,156.9h40.2c7.4,0,13.4,1.7,17.8,5.1c4.5,3.4,6.7,8.5,6.7,15.4c0,4.2-1,7.7-3.1,10.7c-2,3-5,5.3-8.7,6.9
		v0.2c5.1,1.1,9,3.5,11.6,7.2c2.6,3.7,3.9,8.4,3.9,14.1c0,3.2-0.6,6.3-1.7,9.1c-1.2,2.8-3,5.3-5.4,7.3c-2.5,2-5.6,3.7-9.5,4.9
		c-3.9,1.2-8.5,1.8-13.8,1.8h-38V156.9z M118.4,191.6h23.6c3.5,0,6.4-1,8.7-3c2.3-2,3.5-4.8,3.5-8.5c0-4.2-1-7.1-3.1-8.8
		c-2.1-1.7-5.1-2.5-9-2.5h-23.6V191.6z M118.4,227.9H144c4.4,0,7.8-1.1,10.3-3.4c2.4-2.3,3.7-5.5,3.7-9.7c0-4.1-1.2-7.2-3.7-9.4
		c-2.4-2.2-5.9-3.3-10.3-3.3h-25.6V227.9z"/>
</g>
<g class="st1">
	<path class="st2" d="M175.1,169v-12.1h9.8V169H175.1z M184.9,179.8v59.9h-9.8v-59.9H184.9z"/>
	<path class="st2" d="M242.9,168.6c-4.2-2.9-9.2-4.4-15-4.4c-4.9,0-9.2,0.9-12.7,2.8c-3.5,1.9-6.4,4.3-8.7,7.5
		c-2.3,3.1-4,6.7-5,10.7c-1.1,4-1.6,8.2-1.6,12.5c0,4.7,0.5,9.2,1.6,13.4c1.1,4.2,2.8,7.9,5,11c2.3,3.1,5.2,5.6,8.7,7.5
		c3.6,1.9,7.8,2.8,12.7,2.8c3.6,0,6.9-0.6,9.7-1.8c2.8-1.2,5.3-2.9,7.3-5c2-2.1,3.6-4.7,4.8-7.6c1.2-2.9,1.9-6.1,2.1-9.5h11
		c-1.1,10.4-4.7,18.5-10.8,24.3c-6.1,5.8-14.4,8.7-25,8.7c-6.4,0-12-1.1-16.8-3.3c-4.8-2.2-8.8-5.2-11.9-9.1
		c-3.2-3.9-5.5-8.4-7.1-13.7c-1.6-5.3-2.4-10.9-2.4-16.9s0.8-11.7,2.5-17c1.7-5.3,4.2-9.9,7.5-13.8c3.3-3.9,7.4-7,12.3-9.3
		c4.9-2.3,10.5-3.4,16.9-3.4c4.3,0,8.4,0.6,12.3,1.7c3.9,1.2,7.3,2.9,10.3,5.1c3,2.2,5.5,5,7.5,8.4c2,3.4,3.3,7.2,3.9,11.6h-11
		C249.9,176,247.1,171.6,242.9,168.6z"/>
</g>
</svg>
