<?xml version="1.0" encoding="UTF-8" standalone="no"?>
<!-- Created with Inkscape (http://www.inkscape.org/) -->

<svg
   version="1.1"
   id="svg2"
   width="2564"
   height="1048"
   viewBox="0 0 2564 1048"
   xmlns="http://www.w3.org/2000/svg"
   xmlns:svg="http://www.w3.org/2000/svg">
  <defs
     id="defs6" />
  <g
     id="g8"
     transform="matrix(1.3333333,0,0,-1.3333333,0,1048)">
    <g
       id="g10"
       transform="scale(0.1)">
      <path
         d="m 2987.73,6323.75 c -225.11,33.71 -411.13,340.98 -343.78,567.81 55.43,186.68 281.48,215.63 446.79,57.27 265.28,-254.22 196.76,-669.96 -103.01,-625.08 z"
         style="fill:#9b9999;fill-opacity:1;fill-rule:nonzero;stroke:none"
         id="path12" />
      <path
         d="m 2129.38,2577.77 c -4.42,45.28 60.82,403.05 92.53,507.5 18.6,61.14 24.42,63.91 -113.2,-53.82 -114.92,-98.29 -259.92,-207.23 -324.02,-243.4 -27.15,-15.32 -26.02,-13.17 8.59,16.01 415.78,350.39 561.72,526.33 576.6,695.16 4.53,51.13 -17.58,54.3 -127.97,18.4 -134.37,-43.71 -264.92,-143.71 -567.5,-434.73 l -98.86,-95.12 181.17,220 c 99.65,121.02 181.25,222.74 181.37,226.06 0.11,3.32 -32.43,0.43 -72.31,-6.45 -266.44,-45.93 -880.159,-73.94 -844.76,-38.55 2.18,2.19 73.36,8.55 158.12,14.14 456.88,30.15 712.11,87.42 1018.79,228.63 85.04,39.14 160,71.17 166.56,71.17 16.76,0 134.42,-129.33 160.2,-176.13 l 21.44,-38.87 -69.02,-95 c -124.38,-171.29 -269.77,-509.96 -336.99,-785 -5.39,-21.99 -10.24,-35.5 -10.74,-30 z"
         style="fill:#1d5baa;fill-opacity:1;fill-rule:nonzero;stroke:none"
         id="path14" />
      <path
         d="m 2864.96,3802.34 c 15.43,-15.04 236.6,-101.6 437.03,-171.05 287.74,-99.69 451.53,-141.8 911.33,-234.34 291.33,-58.63 388.28,-81.29 335,-78.24 -273.55,15.7 -412.07,26.09 -520.86,38.95 -68.28,8.08 -136.33,14.8 -151.21,14.92 l -27.07,0.19 74.26,-147.5 c 68.4,-135.89 131.13,-282.54 102.18,-238.94 -215.46,324.61 -456.6,515.62 -662.3,524.65 -142.54,6.25 -161.76,-44.61 -63.67,-168.71 111.83,-141.49 397.73,-372.35 509.3,-411.22 16.71,-5.82 28.67,-12.3 26.6,-14.37 -5.9,-5.9 -164.46,49.84 -241.14,84.73 -106.01,48.28 -227.57,134.21 -298.98,211.29 l -64.65,69.84 -78.59,-229.18 c -43.21,-126.09 -79.42,-228.4 -80.43,-227.34 -1.06,1.01 9.06,64.84 22.46,141.83 30.08,172.89 41.91,375.9 24.88,427.46 -46.76,141.8 -206.4,122.58 -282.58,-34.02 -76.68,-157.62 -54.64,-287.85 92.46,-546.72 l 49.3,-86.8 -39.69,45 c -21.83,24.77 -70.11,86.57 -107.3,137.35 -81.29,110.93 -72.03,115.58 -155.9,-77.97 -58.79,-135.59 -132.23,-279.38 -142.69,-279.38 -2.58,0 2.77,16.88 11.87,37.5 111.72,253.4 200.51,683.25 174.34,843.87 -22.43,137.54 -128.13,263.48 -437.97,521.91 -307.66,256.53 -411.76,435.16 -400.16,686.61 12.54,271.75 149.88,450.23 587.11,763.04 101.56,72.66 191.95,137.46 200.9,144.03 18.71,13.71 50.51,-9.96 194.69,-144.85 l 85.11,-79.65 -90.15,-72.89 c -49.57,-40.07 -90.16,-75.82 -90.16,-79.41 0,-3.63 78.75,-15 175,-25.27 96.25,-10.32 155.35,-22.15 175,-24.54 3.2,-0.39 -93.36,-16.09 -207.5,-28.63 -286.72,-31.52 -264.69,-25.43 -318.36,-88.24 -25.54,-29.92 -44.84,-56.02 -42.81,-57.93 2.03,-1.91 140.94,-15.47 308.71,-30.12 128.63,-12.89 257.42,-24.02 385.78,-41.05 l -39.57,-3.28 c -48.91,-4.07 -710.86,-59.73 -751.21,-66.25 -26.76,-4.34 -97.03,-87.39 -83.71,-98.99 2.03,-1.75 194.73,-17.46 428.2,-34.88 233.48,-17.38 425.67,-32.77 427.03,-34.18 1.41,-1.37 -207.5,-18.09 -464.22,-37.15 l -466.75,-34.65 -17.74,-47.81 c -22.22,-60 -66.75,-50.51 407.19,-87.03 220,-16.91 406.72,-31.88 415,-33.2 8.24,-1.33 -176.25,-17.43 -410.04,-35.78 -233.75,-18.36 -428.08,-35.24 -431.91,-37.5 -3.83,-2.27 0.39,-23.87 9.29,-48.01 l 16.29,-43.83 95.67,-11.52 c 52.61,-6.29 203.67,-24.22 335.66,-39.77 131.99,-15.59 231.72,-28.83 221.6,-29.41 -32.03,-1.92 -460.08,-51.1 -495.08,-56.88 -33,-5.43 -33.24,-5.78 -15,-26.05 23.64,-26.33 119.46,-94.85 206.68,-147.82 l 68.05,-41.36"
         style="fill:#9b9999;fill-opacity:1;fill-rule:nonzero;stroke:none"
         id="path16" />
      <path
         d="m 3137.38,5872.11 271.6,-231.13 112.74,113.32 c 331.17,332.81 402.34,665.82 220.98,1033.47 -43.17,87.54 -94.46,165 -79.46,120 64.18,-192.15 4.42,-474.22 -141.05,-665.86 -44.96,-59.25 -369.26,-369.49 -384.81,-369.84 z"
         style="fill:#9b9999;fill-opacity:1;fill-rule:nonzero;stroke:none"
         id="path18" />
      <path
         d="m 1963.28,7467.7 -47.73,-108.21 c -159.93,-362.58 -133.6,-626.91 90.27,-907.11 98.32,-123.08 439.34,-467.26 733.98,-740.86 452.58,-420.27 580.2,-583.51 639.65,-818.71 80.43,-318.08 -135.54,-667.61 -589.57,-954.1 l -90.31,-56.99 165.39,-79.45 c -9.8,9.57 70.66,67.5 318.32,229.21 407.89,266.37 572.38,458.75 629.77,736.61 54.57,264.18 -27.78,469.45 -309.38,770.97 l -94.92,101.76 -271.52,231.29 c -5.75,-0.04 -449.26,363.51 -588.95,486.05 -381.6,334.81 -554.02,634.34 -578.12,1004.57 z"
         style="fill:#1d5baa;fill-opacity:1;fill-rule:nonzero;stroke:none"
         id="path20" />
      <path
         d="M 2613.24,2163.44 C 1374.34,2279.49 370.43,3142.3 83.3594,4337.77 34.7305,4540.39 20.3086,4643.12 3.19922,4910.27 -23.3594,5324.65 108.59,5891.95 329.34,6312.23 565,6760.9 998.949,7212.3 1395.78,7421.64 c 44.49,23.44 21.17,2.66 -45,-40.19 C 1067.93,7198.44 739.059,6857.89 540.512,6542.3 23.3984,5720.43 -19.4102,4661.13 429.77,3802.81 c 842.73,-1610.35 2988.28,-1965.31 4291.95,-710 1571.01,1513.01 814.06,4164.38 -1325.94,4644.3 -363.4,81.48 -850.27,85.86 -1174.96,10.55 -99.34,-23.05 -97.66,-15.67 2.46,10.86 632.81,167.65 1377.46,83.71 1965.04,-221.61 C 5481.17,6865.2 6051.8,5332.07 5518.09,3964.41 5063.67,2800.12 3850.04,2047.7 2613.4,2163.55 Z"
         style="fill:#1d5baa;fill-opacity:1;fill-rule:nonzero;stroke:none"
         id="path22" />
      <path
         d="m 1288.36,42.8906 c -33.98,33.9883 -28.09,49.4102 275.94,716.0584 316.72,694.491 316.4,693.941 389.06,693.941 31.56,0 50.74,-6.29 68.4,-22.5 25.82,-23.71 616.6,-1304.8 616.6,-1337.1087 0,-33.3594 -38.95,-70.3516 -73.98,-70.3516 -47.5,0 -64.85,24.5703 -148.56,210.0003 l -74.45,165 -780.39,5.23 -76.92,-172.5 C 1441.76,135.82 1400,50.2695 1391.21,40.5508 1369.38,16.4492 1313.52,17.7305 1288.32,42.9297 Z m 964.37,557.5004 c -130.78,296.371 -298.39,662.459 -303.32,662.269 -6.32,-0.2 -321.48,-699.031 -321.21,-712.269 0.08,-4.141 146.33,-7.5 325,-7.5 h 324.89 z"
         style="fill:#1d5baa;fill-opacity:1;fill-rule:nonzero;stroke:none"
         id="path24" />
      <path
         d="M 403.359,27.582 C 224.531,67.0313 18.3594,188.871 18.3594,255.121 c 0,81.949 70,97.109 155.6206,33.668 C 484.57,58.7109 903.16,121.762 901.328,398.32 900.43,534.879 826.051,591.801 561.449,658.551 173.48,756.41 66.5195,844.691 65.7813,1067.77 c -0.6211,183.28 106.1287,311.92 307.6167,370.75 244.141,71.25 677.422,-72.93 625.942,-208.29 -22.738,-59.72 -67.43,-60.78 -160,-3.71 C 576.328,1388.67 241.25,1327.23 220.66,1113.05 205.352,953.711 284.449,887.891 581.25,812.93 955.078,718.52 1053.4,634.102 1053.4,407.582 1053.4,117.699 763.441,-51.7617 403.398,27.6211 Z"
         style="fill:#1d5baa;fill-opacity:1;fill-rule:nonzero;stroke:none"
         id="path26" />
      <path
         d="m 4973.4,16.8398 c -737.38,143.2812 -779.61,1234.8002 -55,1421.2802 237.54,61.1 513.44,-0.58 676.05,-151.13 106.33,-98.47 2.31,-196.4 -112.26,-105.66 -409.3,324.26 -942.07,50.27 -921.02,-473.67 20,-498.519 554.49,-736.8397 930.55,-414.93 66.05,56.571 95.35,62.192 132.15,25.391 47.15,-47.18 30.43,-86.789 -67.82,-160.66 C 5390.31,32.8906 5167.46,-20.8984 4973.4,16.8008 Z"
         style="fill:#1d5baa;fill-opacity:1;fill-rule:nonzero;stroke:none"
         id="path28" />
      <path
         d="M 3413.75,13.1211 C 3075.23,66.1719 2857.58,296.641 2818.24,643.75 c -63.71,562.5 454.61,964.96 990.74,769.26 184.81,-67.42 263.68,-155.28 196.25,-218.63 -33.16,-31.14 -62.18,-27.11 -131.71,18.2 -414.46,270 -901.53,7.07 -898.32,-484.92 3.12,-474.5 457.34,-732.96859 878.43,-499.93 98.75,54.692 95.67,46.61 92.5,240.981 l -2.77,168.91 -205.98,5 c -226.48,5.5 -239.02,8.859 -239.02,64.328 0,70.473 -0.47,70.352 282.26,73.641 245.79,2.89 254.73,2.301 280.83,-18.211 l 26.91,-21.207 V 492.379 c 0,-287.418 0.9,-283.828 -84.02,-338.977 C 3826.21,37.6211 3600.12,-16.0508 3413.75,13.1211 Z"
         style="fill:#1d5baa;fill-opacity:1;fill-rule:nonzero;stroke:none"
         id="path30" />
      <path
         d="m 13074.8,6291.05 c -15,16.53 -16.6,69.57 -16.6,554.3 0,588.09 -2.1,567.42 59.2,567.42 58,0 60.8,-12.85 60.8,-273.28 v -236.72 h 660 v 238.44 c 0,262.07 2.2,271.56 62.6,271.56 59.4,0 57.4,18.87 57.4,-569.18 0,-589.61 2,-570.82 -58.2,-570.82 -57.7,0 -61.8,18.4 -61.8,280 v 240 h -660 v -244.45 c 0,-241.25 -0.2,-244.61 -22.2,-260 -29.6,-20.7 -60.9,-19.65 -81.2,2.73 z"
         style="fill:#9b9999;fill-opacity:1;fill-rule:nonzero;stroke:none"
         id="path32" />
      <path
         d="m 12290.7,6288.32 -22.2,15.59 v 988.86 h -175 c -187.4,0 -215,7.46 -215,58.09 0,57.81 -8.6,56.64 440.4,59.73 456.6,3.12 459.6,2.73 459.6,-57.5 0,-53.75 -23.6,-60.32 -217.2,-60.32 h -172.8 V 6799.3 c 0,-465.32 -1,-494.38 -18.3,-510 -22.9,-20.75 -50.8,-21.1 -79.5,-0.98 z"
         style="fill:#9b9999;fill-opacity:1;fill-rule:nonzero;stroke:none"
         id="path34" />
      <path
         d="m 11016.1,6277.66 c -125.3,31.83 -221.8,104.68 -273.6,206.72 -54.6,107.38 -56.8,125.97 -61.5,516.32 -4.9,408.71 -4.4,412.07 61.4,412.07 61.2,0 60.5,4.18 66,-409.02 l 5,-375.98 29.1,-63 c 120.1,-260.16 521.3,-251.61 626.6,13.32 23,58.08 23.8,69.64 29,437.53 5.8,410 3.7,396.65 61.2,396.96 58.5,0.35 59.1,-3.48 59.1,-381.76 0,-479.14 -22,-564.3 -175.4,-680.39 -98.7,-74.69 -290.7,-107.42 -426.9,-72.81 z"
         style="fill:#9b9999;fill-opacity:1;fill-rule:nonzero;stroke:none"
         id="path36" />
      <path
         d="m 9650.31,6283.05 c -556.05,145.66 -548.04,980.23 10.82,1126.6 364.97,95.55 701.37,-157.03 715.07,-536.88 14.7,-411.83 -331.4,-693.08 -725.93,-589.72 z m 250.08,100.97 c 327.81,69.61 466.91,489.46 252.51,761.92 -199.27,253.04 -598.33,211.33 -739.81,-77.39 -174.42,-355.89 115.7,-763.39 487.3,-684.49 z"
         style="fill:#9b9999;fill-opacity:1;fill-rule:nonzero;stroke:none"
         id="path38" />
      <path
         d="m 8458.55,6277.46 c -142.57,27.03 -313.51,128.4 -313.51,185.94 0,73.55 48.63,75.62 150.47,6.44 242.89,-165.07 552.89,-107.34 552.89,102.93 0,119.81 -45.12,152.74 -301.92,220.35 -283.9,74.81 -362.73,144.18 -362.96,319.65 -0.28,189.38 143.86,310 370.43,310 238.04,0 467.3,-139.68 343.12,-209.06 -24.77,-13.87 -29.92,-12.54 -88.75,22.5 -249.18,148.44 -536.6,69.3 -505.35,-139.14 13.79,-92.03 80.78,-135.43 292.69,-189.65 271.68,-69.53 363.13,-140.12 379.11,-292.73 25.07,-240.08 -212,-394.96 -516.25,-337.23 z"
         style="fill:#9b9999;fill-opacity:1;fill-rule:nonzero;stroke:none"
         id="path40" />
      <path
         d="m 15423.9,4345 c -13.6,19.41 -15.6,87.81 -15.6,542.77 0,573.68 -0.9,565 59.9,565 62.1,0 60.1,17.5 60.1,-525.7 v -494.3 h 305 c 327.8,0 345,-2.77 345,-55.66 0,-55.78 10.3,-54.34 -379.7,-54.34 h -359.2 z"
         style="fill:#9b9999;fill-opacity:1;fill-rule:nonzero;stroke:none"
         id="path42" />
      <path
         d="m 18287.2,4329.3 c -11.2,13.43 -14.3,114.57 -16.5,543.32 -3.2,595.86 -5.1,580.11 72.5,580.11 43.6,0 46.6,-3.51 435.2,-503.39 173.3,-222.89 318.4,-405.51 322.5,-405.9 4.1,-0.35 7.5,197.03 7.5,438.63 0,482.66 -1.5,470.7 60.2,470.7 60.8,0 59.8,9.38 59.8,-572.22 0,-580.24 1.4,-567.78 -60.6,-567.78 -38.7,0 -54.5,18.28 -409.4,473.68 -195.2,250.54 -358.4,455.7 -362.5,455.93 -4.1,0.24 -7.5,-201.79 -7.5,-448.86 0,-395.16 -1.9,-451.22 -15.7,-465 -20.5,-20.59 -68.2,-20.12 -85.5,0.82 z"
         style="fill:#9b9999;fill-opacity:1;fill-rule:nonzero;stroke:none"
         id="path44" />
      <path
         d="m 16900.4,4324.77 c -6.6,6.6 -12,23.94 -12,38.55 0,40.55 464.2,1049.73 495.4,1076.95 47.6,41.57 103,22.58 135.5,-46.4 173,-367.97 459.1,-1007.15 459.1,-1025.59 0,-44.96 -50.4,-70.62 -90,-45.78 -8.2,5.16 -44.4,73.71 -80.4,152.34 l -65.5,142.93 -621.2,5.28 -63.3,-141.33 c -34.8,-77.7 -69.5,-147.5 -77.1,-155.12 -17.1,-17.03 -64.2,-18.08 -80.4,-1.83 z m 783.7,425.5 c -30.7,83.09 -251.5,560.51 -256.6,554.85 -3.6,-4.07 -52.8,-110.86 -109.3,-237.35 -56.4,-126.48 -113.2,-253.63 -126.1,-282.5 l -23.4,-52.5 h 261 c 244.2,0 260.5,1.14 254.4,17.5 z"
         style="fill:#9b9999;fill-opacity:1;fill-rule:nonzero;stroke:none"
         id="path46" />
      <path
         d="m 16482.9,4326.95 c -30.4,22.23 -30.4,1089.42 0,1111.6 27.3,20 62.1,17.66 85.6,-5.78 19.5,-19.49 20,-33.36 20,-550 0,-516.68 -0.5,-530.5 -20,-550.04 -23.5,-23.43 -58.3,-25.78 -85.6,-5.78 z"
         style="fill:#9b9999;fill-opacity:1;fill-rule:nonzero;stroke:none"
         id="path48" />
      <path
         d="m 14038.3,4327.81 c -24.5,29.57 -9.5,68.64 224.5,580.98 256.8,562.15 245.9,542.03 297,550.35 62.5,10.16 70.7,-3.94 323.1,-556.99 243.9,-534.18 248,-544.92 216.3,-573.6 -53.4,-48.32 -81.7,-15.62 -183.3,211.84 l -37,82.66 -623.1,-5.28 -59.6,-135 c -32.8,-74.25 -66.7,-142.89 -75.3,-152.5 -19.2,-21.48 -65.7,-22.85 -82.6,-2.46 z m 787.1,417.46 c -36.6,90.78 -251.5,557.46 -256.8,557.46 -5.2,0 -234.1,-496.75 -258.6,-561.21 -1.9,-4.88 112.8,-8.79 258.6,-8.79 205.5,0 260.8,2.7 256.8,12.5 z"
         style="fill:#9b9999;fill-opacity:1;fill-rule:nonzero;stroke:none"
         id="path50" />
      <path
         d="m 12903.9,4335 c -25.3,36.13 -23.3,1055.98 2.1,1087.38 28.1,34.73 576.1,27.39 667.2,-8.98 298.4,-118.91 269.9,-525.43 -43.1,-616.92 -48,-14.02 -51.9,-17.14 -39.1,-32.14 100.6,-118.05 287.3,-374.03 287.3,-393.95 0,-33.32 -31.6,-59.88 -66.4,-55.86 -30.4,3.52 -46.7,22.35 -261.5,301.84 l -112.9,146.91 -324.2,-5.51 -5,-212.85 c -5.4,-230.47 -5.8,-231.68 -61.9,-231.99 -16.7,-0.08 -32.9,8.36 -42.5,22.07 z m 585.1,553.87 c 202.5,60.08 228.4,324.45 40.4,412.61 -54.8,25.67 -61.6,26.37 -288.6,29.46 l -232.5,3.16 v -461.33 h 213.2 c 166.9,0 225,3.52 267.5,16.14 z"
         style="fill:#9b9999;fill-opacity:1;fill-rule:nonzero;stroke:none"
         id="path52" />
      <path
         d="m 12113.9,4335 c -13.6,19.38 -15.6,84.69 -15.6,510 v 487.77 h -175 c -208.6,0 -248.6,17.62 -199.4,87.78 l 15.5,22.22 h 422.4 c 452.9,0 446.5,0.75 446.5,-51.25 0,-54.53 -14.7,-58.75 -205.5,-58.75 h -174 l -2.7,-495.78 c -2.7,-477.58 -3.6,-496.37 -22.2,-510 -29.5,-21.52 -72,-17.69 -90.1,8.01 z"
         style="fill:#9b9999;fill-opacity:1;fill-rule:nonzero;stroke:none"
         id="path54" />
      <path
         d="m 8145.39,4330.59 c -9.34,10.31 -16.99,25.78 -16.99,34.33 0,23.75 470.27,1050 491.52,1072.62 22.93,24.41 91.02,26.95 113.75,4.22 14.38,-14.38 472.93,-1005.2 489.14,-1056.99 17.19,-54.69 -58.59,-97.23 -97.11,-54.54 -8.71,9.65 -43.79,79.38 -78.04,155 l -62.23,137.5 h -618.2 l -44.22,-97.5 c -87.11,-192.07 -96.45,-207.18 -130.16,-210.46 -20,-1.96 -36.33,3.47 -47.5,15.78 z m 769.38,454.68 c -130.67,293.36 -230.63,513.83 -235.75,519.81 -5.35,6.25 -260.62,-548.13 -260.62,-565.94 0,-3.52 116.95,-6.37 259.88,-6.37 h 259.84 z"
         style="fill:#9b9999;fill-opacity:1;fill-rule:nonzero;stroke:none"
         id="path56" />
      <path
         d="m 10993.4,4317.58 c -207.7,45.7 -357.1,164.88 -286.8,228.63 27.4,24.77 47.3,20.51 104.7,-22.3 220,-164.3 528,-143.21 577.2,39.45 35.3,131.09 -40.6,203.91 -272,260.66 -185.6,45.55 -251.5,73.25 -316.5,133.05 -148.7,136.76 -81.3,397.03 123.4,476.52 204.7,79.5 610,-39.21 545.5,-159.76 -15.8,-29.65 -57.6,-37.66 -89.5,-17.23 -229.5,147.31 -483.9,121.33 -531.2,-54.3 -34,-126.21 41.8,-191.71 300.2,-259.53 268,-70.35 355,-140.35 367.5,-295.43 19.5,-242.73 -222.9,-395.7 -522.5,-329.76 z"
         style="fill:#9b9999;fill-opacity:1;fill-rule:nonzero;stroke:none"
         id="path58" />
      <path
         d="m 9789.49,4318.59 c -122.73,33.01 -214.37,103.36 -265.9,204.18 -52.97,103.64 -55.19,125.39 -55.19,531.45 0,417.58 -3.05,398.55 63.08,398.55 50.79,0 51.53,-5.27 56.92,-409.02 l 5,-375.98 29.06,-63 c 120.98,-261.96 524.14,-253.17 630.54,13.78 18.1,45.2 19.9,79.89 23.2,424.18 3.8,409.89 3.9,410.04 62.2,410.04 59.7,0 60,-1.87 59.8,-390.78 -0.1,-384.72 -4.8,-429.49 -56.6,-535.11 -85.9,-175.47 -330.7,-267.86 -552.11,-208.29 z"
         style="fill:#9b9999;fill-opacity:1;fill-rule:nonzero;stroke:none"
         id="path60" />
      <path
         d="m 14844.4,2374.45 c -20.3,29.1 -24.4,1038.6 -4.4,1082.66 21.1,46.25 85.8,46.48 106.8,0.43 17.4,-38.16 16.3,-1040.04 -1.1,-1074.73 -18,-35.58 -78.6,-40.58 -101.3,-8.36 z"
         style="fill:#9b9999;fill-opacity:1;fill-rule:nonzero;stroke:none"
         id="path62" />
      <path
         d="m 13388.6,2372.27 c -7,13.04 -9.6,197.89 -7.9,557.11 l 2.6,537.61 26.9,15.08 c 56.1,31.48 67.2,19.49 290.7,-314.3 114.2,-170.5 211,-310.74 215,-311.68 4.1,-0.89 92.9,128.75 197.4,288.13 246.8,376.29 257.4,387.07 320.5,324.02 l 24.5,-24.57 -0.1,-517.93 c -0.2,-574.61 0.8,-565.78 -60.9,-570.97 -65,-5.47 -63.4,-16.53 -68.9,463.63 l -5,432.58 -170,-250.71 c -200.8,-296.09 -209.7,-307.46 -240,-307.46 -30.7,0 -40.9,13.05 -240,306.25 l -170,250.35 -5,-431.79 c -4.1,-345.63 -7.8,-435.08 -18.8,-448.28 -19.6,-23.64 -77.8,-21.72 -91,2.96 z"
         style="fill:#9b9999;fill-opacity:1;fill-rule:nonzero;stroke:none"
         id="path64" />
      <path
         d="m 10653.9,2375 c -13.5,19.41 -15.5,88.05 -15.5,545.43 v 523.2 l 24.5,24.57 c 62.5,62.46 58.2,66.68 465.9,-455.47 182.5,-233.75 335.8,-426.48 340.7,-428.32 5.1,-1.91 8.9,184.81 8.9,435.94 0,477.93 -0.6,472.66 55.8,472.23 62.9,-0.51 64.2,-12.46 64,-578.01 -0.1,-547.85 -0.7,-553.95 -52,-559.92 -46.6,-5.43 -59.7,9.22 -418.1,468.12 -193.3,247.43 -355.5,452.43 -360.6,455.51 -5.4,3.4 -9.1,-174.61 -9.1,-444.22 0,-395.62 -1.9,-451.76 -15.7,-465.58 -23.4,-23.32 -70.2,-19.89 -88.8,6.48 z"
         style="fill:#9b9999;fill-opacity:1;fill-rule:nonzero;stroke:none"
         id="path66" />
      <path
         d="m 9558.4,2359.73 c -39.69,14.18 -40,18.67 -40,563.39 0,497.39 1.01,527.47 18.28,543.09 29.45,26.64 760.92,25.04 785.12,-1.72 22,-24.33 20.9,-47.38 -3.4,-71.72 -19.2,-19.22 -33.3,-20 -350,-20 h -330 v -390 h 290.66 c 318.34,0 329.34,-1.79 329.34,-53.36 0,-57.03 2.2,-56.64 -321.99,-56.64 H 9638.4 v -399.22 l 671.8,-5.78 19.1,-23.59 c 24.6,-30.51 24.1,-37.3 -5.4,-66.88 l -24.6,-24.53 -362.93,0.78 c -199.65,0.43 -369.69,3.21 -377.97,6.18 z"
         style="fill:#9b9999;fill-opacity:1;fill-rule:nonzero;stroke:none"
         id="path68" />
      <path
         d="m 16780.6,2362.34 c -128.4,34.69 -282.2,129.81 -282.2,174.54 0,19.92 43.4,65.89 62.2,65.89 7.3,0 40.1,-20.19 73,-44.88 102.6,-76.91 170,-98.94 304.8,-99.61 183.2,-0.86 260,50.94 268.3,180.9 7.8,123.12 -48.9,167.27 -293.3,228.2 -291.2,72.58 -385.8,160.2 -372.6,345.39 10.7,150.75 121.1,255.39 298.5,282.85 178,27.54 438.7,-61.24 447.4,-152.42 6.4,-67.34 -42.4,-77.5 -127,-26.48 -235.6,142.11 -525.1,63.83 -498.4,-134.84 13.3,-99.54 74.6,-140.71 296,-198.83 293,-76.88 375.4,-147.19 375.6,-320.28 0.2,-240.7 -256.5,-380.35 -552.3,-300.43 z"
         style="fill:#9b9999;fill-opacity:1;fill-rule:nonzero;stroke:none"
         id="path70" />
      <path
         d="m 15760.6,2343.98 c -611,90.12 -644.3,992.7 -42.2,1144.89 231.4,58.47 630.6,-94.81 552.3,-212.11 -29.5,-44.22 -55.5,-39.34 -154.3,28.86 -310.1,214.22 -707.7,-0.85 -707.7,-382.85 0,-399.61 419.3,-608.67 737.7,-367.69 71.7,54.18 103.6,59.76 128.2,22.26 22.7,-34.64 8.9,-62.22 -57.6,-114.76 -126.4,-99.88 -291.8,-142.89 -456.3,-118.6 z"
         style="fill:#9b9999;fill-opacity:1;fill-rule:nonzero;stroke:none"
         id="path72" />
      <path
         d="m 12408.4,2342.58 c -342.5,47.03 -557.5,359.69 -485,705.19 123.6,588.56 966.5,610.47 1115.2,29.03 105,-410.35 -221.3,-790.39 -630.2,-734.26 z m 211.4,129.96 c 449.7,139.73 394.7,840.78 -71.5,912.97 -272.6,42.19 -509.9,-173.24 -509.9,-462.74 0,-319.53 287,-541.75 581.4,-450.23 z"
         style="fill:#9b9999;fill-opacity:1;fill-rule:nonzero;stroke:none"
         id="path74" />
      <path
         d="m 8653.4,2342.46 c -592.89,70.43 -682.11,933.36 -117.03,1131.76 207.3,72.77 591.99,-18.4 591.99,-140.27 0,-65.83 -50.51,-76.06 -126.45,-25.63 -373.12,247.66 -813.67,-86.91 -698.2,-530.2 80.16,-307.85 430.59,-427.61 717.93,-245.42 l 47.27,30 -5.55,285.07 -164.3,2.78 c -100.39,1.68 -169.41,6.99 -177.5,13.71 -16.48,13.71 -17.22,60.51 -1.21,76.52 16.99,16.99 429.03,16.99 446.02,0 8.55,-8.55 11.99,-71.76 11.99,-220.98 v -208.98 l -31.13,-29.1 c -100.71,-94.1 -330,-158.75 -493.87,-139.26 z"
         style="fill:#9b9999;fill-opacity:1;fill-rule:nonzero;stroke:none"
         id="path76" />
      <path
         d="m 14210.7,408.281 -22.3,15.59 v 532.848 c 0,503.551 1,533.831 18.3,549.451 31,28.05 753.4,24.85 781.7,-3.44 24.1,-24.06 25,-38.39 4.5,-67.77 l -15.6,-22.23 h -668.9 v -390 h 287.8 c 317.8,0 332.2,-2.57 332.2,-59.328 0,-49.062 -6.8,-50.203 -320.8,-53.011 l -294.2,-2.661 -5.4,-405 h 338.2 c 362.7,0 362.2,0.079 362.2,-51.281 0,-59.297 4,-58.719 -403.5,-58.719 -320.6,0 -375.1,2.149 -394.3,15.551 z"
         style="fill:#9b9999;fill-opacity:1;fill-rule:nonzero;stroke:none"
         id="path78" />
      <path
         d="m 9459.14,419.059 c -24.69,31.371 -33.24,1021.171 -9.26,1066.801 19.14,36.37 21.25,36.56 401.68,36.72 402.84,0.15 406.84,-0.39 406.84,-54.85 0,-53.98 -6.8,-55.03 -364.3,-55.03 h -325.66 v -389.97 h 287.77 c 308.39,0 332.19,-3.67 332.19,-51.25 0,-60.07 7.2,-58.75 -320.31,-58.75 h -299.65 v -410 h 339.65 c 371.21,0 360.31,1.719 360.31,-57.808 0,-51.211 -7.8,-52.192 -412.54,-52.192 h -375.98 z"
         style="fill:#9b9999;fill-opacity:1;fill-rule:nonzero;stroke:none"
         id="path80" />
      <path
         d="m 13000.6,398.359 -22.3,15.59 v 537.852 c 0,508.399 1,538.789 18.3,554.449 21.5,19.45 476,24.69 571.5,6.56 377.6,-71.6 402.7,-565.822 32.7,-644.689 -43.6,-9.289 -50,2.5 108.7,-200.351 164.9,-210.7 167.5,-215.188 145.5,-248.821 -46.2,-70.547 -69.9,-52.469 -266.4,203.473 l -161.5,210.348 h -328.8 V 632.301 c 0,-199.492 -0.1,-200.539 -24.5,-225 -28.6,-28.59 -42.7,-30.313 -73.2,-8.981 z m 592.7,572.692 c 200.1,91.249 196.7,341.059 -5.7,418.289 -35.3,13.43 -89.6,17.77 -266.8,21.13 l -222.5,4.26 V 940.859 l 222.5,3.711 c 206,3.442 226.2,5.391 272.5,26.481 z"
         style="fill:#9b9999;fill-opacity:1;fill-rule:nonzero;stroke:none"
         id="path82" />
      <path
         d="m 12218.4,395.82 -24.9,12.621 -5.1,499.719 -4.9,499.73 -182.9,5 c -194.2,5.31 -201.6,7.38 -202,55.94 -0.4,53.79 1.9,54.06 452.6,54.06 h 416.1 l 15.6,-22.23 c 50.2,-71.56 13.6,-87.77 -197.7,-87.77 h -176.7 l -0.2,-492.499 c -0.1,-507.5 -0.1,-506.719 -36.7,-525.981 -26.4,-13.898 -22.6,-14.019 -53.1,1.449 z"
         style="fill:#9b9999;fill-opacity:1;fill-rule:nonzero;stroke:none"
         id="path84" />
      <path
         d="m 10608.4,389.57 c -39.7,14.18 -40,18.399 -40,569.262 0,592.848 -3.5,563.938 68.2,563.628 50.7,-0.19 23.7,30.2 391.5,-439.84 182.8,-233.749 341,-433.87 351.3,-444.729 18.6,-19.371 19,-11.602 19,417.499 0,478.71 -0.2,477.19 60,477.19 61.2,0 60,12.03 60,-570.67 0,-578.469 0.9,-569.328 -56.4,-569.328 -46.1,0 -24.6,-24.73 -428.6,493.238 l -340,435.82 -10,-900.859 -23.6,-19.101 c -24.9,-20.121 -27.5,-20.739 -51.4,-12.192 z"
         style="fill:#9b9999;fill-opacity:1;fill-rule:nonzero;stroke:none"
         id="path86" />
      <path
         d="m 8643.4,379.102 c -333.09,51.449 -544.18,368.988 -471.8,709.608 87.85,413.28 581.56,591.84 923.24,333.87 59.89,-45.2 71.92,-70.55 49.69,-104.53 -30.82,-47 -59.33,-43.21 -140.43,18.67 -393.94,300.74 -890.12,-160.82 -660.43,-614.419 125.2,-247.219 466.1,-307.071 689.57,-121.012 54.34,45.231 83.13,51.41 108.64,23.199 95.03,-105 -263.79,-281.679 -498.44,-245.386 z"
         style="fill:#9b9999;fill-opacity:1;fill-rule:nonzero;stroke:none"
         id="path88" />
      <path
         d="m 6838.4,3946.45 v 3913.78 l 75,-2.38 5,-7824.7602 h -80 z"
         style="fill:#9b9999;fill-opacity:1;fill-rule:nonzero;stroke:none"
         id="path90" />
    </g>
  </g>
</svg>
