<?xml version="1.0" encoding="UTF-8" standalone="no"?>
<!-- Created with Inkscape (http://www.inkscape.org/) -->

<svg
   version="1.1"
   id="svg2"
   width="572.50665"
   height="290.74667"
   viewBox="0 0 572.50665 290.74667"
   sodipodi:docname="University of Sydney logo lockup - Sydney Informatics Hub - mono.eps"
   xmlns:inkscape="http://www.inkscape.org/namespaces/inkscape"
   xmlns:sodipodi="http://sodipodi.sourceforge.net/DTD/sodipodi-0.dtd"
   xmlns="http://www.w3.org/2000/svg"
   xmlns:svg="http://www.w3.org/2000/svg">
  <defs
     id="defs6" />
  <sodipodi:namedview
     id="namedview4"
     pagecolor="#ffffff"
     bordercolor="#000000"
     borderopacity="0.25"
     inkscape:showpageshadow="2"
     inkscape:pageopacity="0.0"
     inkscape:pagecheckerboard="0"
     inkscape:deskcolor="#d1d1d1" />
  <g
     id="g8"
     inkscape:groupmode="layer"
     inkscape:label="ink_ext_XXXXXX"
     transform="matrix(1.3333333,0,0,-1.3333333,0,290.74667)">
    <g
       id="g10"
       transform="scale(0.1)">
      <path
         d="m 1793.03,1673.45 h -81.36 v 10.46 h 28.24 v 161.9 h -56.52 v -22.6 h -13.56 v 44.63 h 13.56 v -7.89 h 137.86 v 7.89 h 13.6 v -44.63 h -13.6 v 22.6 h -56.48 v -161.9 h 28.26 v -10.46"
         style="fill:#231f20;fill-opacity:1;fill-rule:nonzero;stroke:none"
         id="path12" />
      <path
         d="m 2049.85,1673.45 h -67.25 v 10.46 h 21.19 v 77.7 h -105.94 v -77.7 h 21.18 v -10.46 h -67.25 v 10.46 h 21.2 v 165.57 h -21.2 v 10.47 h 67.25 v -10.47 h -21.18 v -75.16 h 105.94 v 75.16 h -21.19 v 10.47 h 67.25 v -10.47 h -21.48 v -165.57 h 21.48 v -10.46"
         style="fill:#231f20;fill-opacity:1;fill-rule:nonzero;stroke:none"
         id="path14" />
      <path
         d="m 2202.08,1673.45 h -128.54 v 10.46 h 21.18 v 165.57 h -21.18 v 10.47 h 112.71 v 7.89 h 13.02 v -44.92 h -12.73 v 24.03 h -66.95 v -72.34 h 53.4 v 21.19 l 13,0.29 v -55.67 l -13,-0.28 v 21.74 h -53.4 v -75.72 h 69.48 v 24.88 h 13.01 v -37.59"
         style="fill:#231f20;fill-opacity:1;fill-rule:nonzero;stroke:none"
         id="path16" />
      <path
         d="m 2481.19,1849.49 h -21.21 v -107.65 c 0,-30.24 -10.73,-49.75 -34.17,-62.44 -11.88,-6.23 -25.45,-9.62 -39.28,-9.62 -40.97,0 -71.21,27.12 -71.21,64.15 v 115.56 h -21.18 v 10.45 h 67.25 v -10.45 h -21.2 v -106.81 c 0,-34.2 20.06,-56.51 51.43,-56.51 32.21,0 53.98,22.9 53.98,56.8 v 106.52 h -21.21 v 10.45 h 56.8 v -10.45"
         style="fill:#231f20;fill-opacity:1;fill-rule:nonzero;stroke:none"
         id="path18" />
      <path
         d="m 2655.46,1670.34 h -8.76 l -108.52,149.2 v -135.63 h 21.49 v -10.46 h -57.07 v 10.46 h 21.46 v 154.83 l -7.6,10.76 h -19.52 v 10.45 h 40.98 l 103.41,-141.84 v 131.39 h -21.48 v 10.45 h 56.81 v -10.45 h -21.2 v -179.16"
         style="fill:#231f20;fill-opacity:1;fill-rule:nonzero;stroke:none"
         id="path20" />
      <path
         d="m 2764.48,1673.45 h -67.28 v 10.46 h 21.22 v 165.57 h -21.22 v 10.47 h 67.28 v -10.47 h -21.21 v -165.57 h 21.21 v -10.46"
         style="fill:#231f20;fill-opacity:1;fill-rule:nonzero;stroke:none"
         id="path22" />
      <path
         d="M 2878.62,1668.66 H 2869 l -71.19,180.82 h -16.68 v 10.47 h 70.08 v -10.47 h -26.56 l 54.82,-138.73 54.25,138.73 h -18.66 v 10.47 h 48.32 v -10.47 h -14.14 l -70.62,-180.82"
         style="fill:#231f20;fill-opacity:1;fill-rule:nonzero;stroke:none"
         id="path24" />
      <path
         d="m 3108.89,1673.45 h -128.56 v 10.46 h 21.19 v 165.57 h -21.19 v 10.47 h 112.73 v 7.89 h 13 v -44.92 h -12.73 v 24.03 h -66.95 v -72.34 h 53.39 v 21.19 l 13.02,0.29 v -55.67 l -13.02,-0.28 v 21.74 h -53.39 v -75.72 h 69.5 v 24.88 h 13.01 v -37.59"
         style="fill:#231f20;fill-opacity:1;fill-rule:nonzero;stroke:none"
         id="path26" />
      <path
         d="m 3299.27,1673.45 h -24.02 c -16.67,0 -19.77,1.71 -29.08,16.69 l -42.11,66.95 h -22.05 v -73.18 h 21.22 v -10.46 h -67.27 v 10.46 h 21.2 v 165.57 h -21.2 v 10.45 h 78.55 c 27.42,0 42.94,-7.62 51.42,-25.14 3.67,-7.64 5.65,-16.11 5.65,-25.15 0,-27.39 -15.26,-44.93 -42.39,-48.89 l 40.7,-62.71 c 6.78,-10.45 11.31,-13.84 18.37,-13.84 h 11.01 z m -117.26,96.65 h 27.13 c 21.47,0 36.45,15.81 36.45,38.99 0,24.29 -13.28,37.85 -37.02,37.85 h -26.56 v -76.84"
         style="fill:#231f20;fill-opacity:1;fill-rule:nonzero;stroke:none"
         id="path28" />
      <path
         d="m 3335.39,1670.91 h -13.28 v 50.87 h 13.28 v -22.32 c 17.24,-11.58 24.88,-14.41 37.3,-14.41 22.61,0 37.86,11.85 37.86,29.65 0,16.12 -11,27.98 -41.53,43.8 -35.61,18.66 -47.76,32.78 -47.76,55.95 0,27.98 23.75,48.89 55.66,48.89 14.14,0 24.58,-2.55 33.63,-7.93 v 10.18 h 13.01 v -48.32 h -13.01 v 20.05 c -14.42,9.63 -21.48,12.45 -32.79,12.45 -19.19,0 -31.64,-11.59 -31.64,-29.09 0,-14.42 8.21,-22.63 43.53,-42.97 35.33,-20.34 45.47,-32.78 45.47,-55.93 0,-29.39 -24.28,-51.99 -56.2,-51.99 -17.81,0 -29.4,3.67 -43.53,12.7 v -11.58"
         style="fill:#231f20;fill-opacity:1;fill-rule:nonzero;stroke:none"
         id="path30" />
      <path
         d="m 3528.34,1673.45 h -67.26 v 10.46 h 21.2 v 165.57 h -21.2 v 10.47 h 67.26 v -10.47 h -21.19 v -165.57 h 21.19 v -10.46"
         style="fill:#231f20;fill-opacity:1;fill-rule:nonzero;stroke:none"
         id="path32" />
      <path
         d="m 3669.87,1673.45 h -81.37 v 10.46 h 28.24 v 161.9 h -56.53 v -22.6 h -13.55 v 44.63 h 13.55 v -7.89 h 137.91 v 7.89 h 13.55 v -44.63 h -13.55 v 22.6 h -56.51 v -161.9 h 28.26 v -10.46"
         style="fill:#231f20;fill-opacity:1;fill-rule:nonzero;stroke:none"
         id="path34" />
      <path
         d="m 3848.37,1673.45 h -67.24 v 10.46 h 21.19 v 75.45 l -58.48,90.12 h -16.39 v 10.47 h 69.8 v -10.47 h -25.74 l 48.62,-74.02 44.91,74.02 h -25.71 v 10.47 h 56.52 v -10.47 h -14.7 l -54.25,-88.43 v -77.14 h 21.47 v -10.46"
         style="fill:#231f20;fill-opacity:1;fill-rule:nonzero;stroke:none"
         id="path36" />
      <path
         d="m 3968.67,1766.41 c 0,53.13 41.26,96.92 91.26,96.92 49.18,0 90.44,-44.08 90.44,-96.64 0,-52.55 -41.26,-96.9 -90.44,-96.9 -49.72,0 -91.26,44.07 -91.26,96.62 m 27.98,0.28 c 0,-47.74 26.56,-82.22 63.28,-82.22 36.19,0 62.44,34.74 62.44,82.22 0,47.46 -26.25,81.95 -62.16,81.95 -37,0 -63.56,-33.89 -63.56,-81.95"
         style="fill:#231f20;fill-opacity:1;fill-rule:nonzero;stroke:none"
         id="path38" />
      <path
         d="m 4280.56,1867.84 v -7.89 h -112.75 v -10.45 h 21.2 v -165.59 h -21.2 v -10.46 h 67.26 v 10.46 h -21.18 v 77.97 h 53.39 v -21.74 l 12.99,0.28 v 55.67 l -12.99,-0.29 v -21.17 h -53.39 v 72.32 h 66.95 v -24.03 h 12.71 v 44.92 h -12.99"
         style="fill:#231f20;fill-opacity:1;fill-rule:nonzero;stroke:none"
         id="path40" />
      <path
         d="M 1704.99,1069.83 H 1670 v 134.04 h 34.99 v -58.83 c 45.45,-30.53 65.56,-37.97 98.3,-37.97 59.58,0 99.8,31.26 99.8,78.18 0,42.44 -29.07,73.7 -109.47,115.41 -93.83,49.15 -125.85,86.44 -125.85,147.8 0,73.72 62.55,128.82 146.69,128.82 37.26,0 64.78,-6.7 88.63,-20.85 v 26.81 h 34.24 V 1455.9 h -34.24 v 52.88 c -37.99,25.32 -56.62,32.76 -86.39,32.76 -50.65,0 -83.4,-30.54 -83.4,-76.71 0,-38 21.57,-59.73 114.68,-113.52 93.06,-53.62 119.89,-86.4 119.89,-147.44 0,-77.46 -64.04,-137.03 -148.18,-137.03 -46.92,0 -77.45,9.69 -114.7,33.51 v -30.52"
         style="fill:#231f20;fill-opacity:1;fill-rule:nonzero;stroke:none"
         id="path42" />
      <path
         d="m 2299.91,1076.55 h -177.23 v 27.53 h 55.86 v 198.82 l -154.13,237.89 h -43.19 v 27.55 h 183.9 v -27.55 h -67.74 l 128.06,-195.45 118.41,195.45 h -67.76 v 27.55 H 2425 v -27.55 h -38.71 l -142.97,-233.44 v -203.27 h 56.59 v -27.53"
         style="fill:#231f20;fill-opacity:1;fill-rule:nonzero;stroke:none"
         id="path44" />
      <path
         d="m 2462.2,1076.55 v 27.53 h 55.84 v 436.72 h -55.84 v 27.55 h 219.66 c 134.03,0 243.47,-110.2 243.47,-245.35 0,-137.75 -107.21,-246.45 -244.24,-246.45 z m 121.35,37.22 h 89.37 c 102.01,0 179.45,90.1 178.7,208.49 0,115.04 -78.92,208.11 -177.22,208.11 h -90.85 v -416.6"
         style="fill:#231f20;fill-opacity:1;fill-rule:nonzero;stroke:none"
         id="path46" />
      <path
         d="m 3354.92,1068.33 h -23.1 l -285.91,393.54 v -357.78 h 56.58 v -27.55 h -150.43 v 27.55 h 56.59 v 408.4 l -20.1,28.31 h -51.36 v 27.53 h 107.95 l 272.53,-374.15 v 346.62 h -56.58 v 27.53 h 149.66 v -27.53 h -55.83 v -472.47"
         style="fill:#231f20;fill-opacity:1;fill-rule:nonzero;stroke:none"
         id="path48" />
      <path
         d="m 3800.15,1076.55 h -338.81 v 27.53 h 55.84 v 436.71 h -55.84 v 27.55 h 297.11 v 20.85 h 34.25 V 1470.8 h -33.51 v 63.29 h -176.48 v -190.98 h 140.75 v 55.98 l 34.24,0.75 v -146.83 l -34.24,-0.76 v 57.35 h -140.75 v -199.55 h 183.18 v 65.51 h 34.26 v -99.01"
         style="fill:#231f20;fill-opacity:1;fill-rule:nonzero;stroke:none"
         id="path50" />
      <path
         d="m 4144.84,1568.34 v -27.55 h 67.76 l -118.41,-195.45 -128.05,195.45 h 67.76 v 27.55 h -183.93 v -27.55 h 43.18 l 154.16,-237.9 v -198.81 h -55.86 v -27.53 h 177.2 v 27.53 h -56.58 v 203.28 l 142.97,233.43 h 38.71 v 27.55 h -148.91"
         style="fill:#231f20;fill-opacity:1;fill-rule:nonzero;stroke:none"
         id="path52" />
      <path
         d="M 736.117,1214.63 H 845.98 v 16.64 H 736.117 Z m 0,-45.5 H 845.98 v 16.62 H 736.117 Z m 0,91 H 845.98 v 16.64 H 736.117 Z m -79.125,-28.86 H 547.078 v -16.64 h 109.914 z m 0,-45.54 H 547.078 v -16.61 h 109.914 z m 0,91.04 H 547.078 v -16.64 H 656.992 Z M 831.5,1568.49 c -44.609,2.28 -90.031,3.62 -134.98,3.62 -44.832,0 -90.172,-1.34 -134.727,-3.59 V 1346.56 H 136.91 c 17.719,-106.45 61.078,-206.23 123.488,-289.24 8.403,11.83 22.18,19.54 37.801,19.54 H 561.793 V 846.051 c 43.066,-11.852 88.086,-18.36 134.656,-18.36 v -1.89 h 0.192 v 1.89 c 46.64,0 91.738,6.528 134.859,18.43 v 230.739 h 263.66 c 15.49,0 29.23,-7.62 37.68,-19.36 62.27,82.95 105.62,182.7 123.3,289.06 H 831.5 Z m -212.777,-69.2 57.414,-27.23 20.535,59.57 21.324,-59.92 56.652,27.58 -27.339,-57.41 59.648,-20.5 -59.914,-21.38 27.605,-56.6 -57.437,27.21 -20.539,-59.52 -21.395,59.89 -56.554,-27.58 27.218,57.54 -59.593,20.44 59.961,21.36 z m -200.825,-366.55 -56.66,27.59 -21.379,-59.91 -20.402,59.55 -57.625,-27.23 27.758,56.57 -59.981,21.34 59.579,20.53 -27.356,57.54 56.68,-27.62 21.347,59.84 20.524,-59.5 57.515,27.28 -27.609,-56.67 59.871,-21.4 -59.578,-20.4 z m 91.051,4.19 H 483.98 v 18.28 h 24.969 z m 0,48.88 H 483.98 v 18.41 h 24.969 z m 0,48.98 H 483.98 v 18.28 h 24.969 z m 0,48.89 H 483.98 v 18.37 h 24.969 z m 13.321,-146.84 v 176.46 h 111.191 c 2.102,0.32 4.621,0 6.816,0 25.43,0 44.953,-19.54 44.953,-44.49 v -147.86 c -8.261,9.79 -20.699,15.98 -34.57,15.98 -1.82,0 -93.59,-0.05 -128.39,-0.09 m 252.332,-230.16 -57.454,27.289 -20.476,-59.719 -21.395,60.109 -56.625,-27.679 27.309,57.492 -59.613,20.527 59.929,21.401 -27.625,56.55 57.446,-27.24 20.574,59.51 21.398,-59.89 56.532,27.62 -27.243,-57.47 59.598,-20.481 -59.914,-21.398 z m 200.57,382.04 57.598,-27.28 20.43,59.5 21.41,-59.84 56.6,27.62 -27.28,-57.54 59.58,-20.53 -60,-21.34 27.7,-56.57 -57.56,27.23 -20.45,-59.55 -21.39,59.91 -56.638,-27.59 27.348,57.51 -59.598,20.4 59.878,21.4 z m -91.07,13.34 h 24.98 v -18.37 h -24.98 z m 0,-48.99 h 24.98 v -18.28 h -24.98 z m 0,-48.87 h 24.98 v -18.41 h -24.98 z m 0,-48.98 h 24.98 v -18.28 h -24.98 z m -13.25,158.08 v -176.46 c -34.832,0.04 -126.614,0.09 -128.403,0.09 -13.91,0 -26.289,-6.19 -34.59,-15.98 v 147.86 c 0,24.95 19.563,44.49 44.93,44.49 2.223,0 4.731,0.32 6.859,0 z m 218.998,752.36 c -109.58,23.1 -254.19,46.1 -393.33,46.1 -208.762,0.07 -429.571,-51.85 -526.52,-77.82 -19.34,-5.17 -33.723,-9.3 -42.117,-11.76 v -475.09 c 62.816,10.11 322.5,49.56 568.637,49.58 246.171,-0.02 505.76,-39.45 568.67,-49.58 v 475.09 c -8.46,2.46 -22.82,6.59 -42.16,11.76 -32.37,8.63 -78.39,20.16 -133.18,31.72 m -593.799,-49.92 c 8.59,1.98 -9.934,16.22 2.156,15.55 7.93,-0.43 33.871,-0.52 53.531,-10.12 3.758,-1.57 6.051,5.54 13.512,10.31 0.609,0.39 2.402,1.08 3.711,0.04 7.75,-4.78 10.488,-11.73 14.219,-10.12 19.531,9.37 45.281,9.37 53.05,9.89 12.559,0.77 -6.41,-13.57 2.2,-15.55 44.32,-10.29 77.211,-47.87 77.211,-92.64 0,-12.96 -3.161,-25.06 -7.559,-36.34 -2.434,-6.05 -8.75,11.23 -11.102,1.15 -4.328,-18.25 -8.781,-31.95 -18.421,-50.13 -9.219,-17.08 -24.418,18.73 -29.141,8.58 -8.59,-18.02 -28.656,-24.25 -42.68,-26.4 -1.605,-0.18 -3.121,0.03 -1.156,1.87 0.688,0.69 4.098,3.84 5.027,10.22 0.098,0.69 -0.312,1.7 1.204,2.37 10.546,5.04 18.546,14.85 20.898,26.72 3.367,11 7.84,26.67 13.25,36.36 12.008,21.37 -2.582,47.26 1.148,53.01 8.243,5.36 13.704,14.69 13.704,25.32 0,16.73 -13.633,30.29 -30.25,30.29 -9.083,0 -17.172,-3.98 -22.602,-10.22 l -0.871,-0.81 c -2.77,-2.94 -5.481,-5.96 -7.871,-9.16 -2.719,-3.54 -2.117,-9.9 2.64,-11.19 20.629,-5.4 34.153,-51.87 25.668,-66.95 -3.75,-6.72 -15.16,-31.74 -15.16,-39.03 0,-9.39 -7.519,-16.96 -16.879,-16.96 -7.175,0 -13.218,4.44 -15.746,11.04 0,0 0.278,0.55 0.324,0.72 5.735,3.57 18.325,11.11 18.325,18.98 l -2.512,25.44 c 10.293,1.24 15.027,6.83 16.301,16.57 0.929,0.62 1.828,1.31 2.648,2.02 3.434,3.13 5.742,11.61 -1.64,10.41 -10.477,-1.96 -22.348,-1.59 -33.817,-4.77 -1.551,-0.41 -2.66,-1.79 -2.941,-3.26 -0.5,-2.22 6.242,-32.98 7.742,-39.8 0.109,-0.78 -0.41,-1.24 -0.781,-1.24 -4.629,0.37 -13.008,0.78 -15.063,0.78 -1.98,-0.02 -10.14,-0.46 -14.988,-0.87 -0.508,-0.01 -1.184,0.62 -1.02,1.24 1.563,7.27 8.301,37.88 8.301,37.88 0.16,1.25 0,2.61 -0.719,3.66 -2.23,2.9 -32.222,5.46 -36.265,6.24 -1.739,0.32 -3.426,-0.35 -4.489,-1.79 -2.964,-4.2 2.254,-8.93 5.563,-10.91 1.289,-9.44 6.242,-14.92 16.207,-16.16 0.113,-0.14 0.32,-0.42 0.43,-0.48 -0.317,-1.68 -2.848,-25.26 -2.848,-25.41 0,-8.15 12.406,-15.03 18.551,-18.62 0.328,-0.44 0.769,-0.95 0.859,-1.54 -2.969,-5.88 -8.816,-10.13 -15.562,-10.13 -9.387,0 -16.918,7.57 -16.918,16.96 0,6.03 -11.211,32.17 -15.442,39.27 -8.968,15.53 4.383,61.29 25.84,66.67 4.633,1.13 7.016,7.87 3.41,11.4 -8.988,8.9 -19.258,20.02 -32.867,20.02 -16.715,0 -30.242,-13.56 -30.242,-30.29 0,-19.15 14.711,-22.21 13.699,-27.5 -5.918,-17.77 -6.039,-37.18 1.973,-50.85 5.508,-9.48 9.719,-24.6 13.058,-35.42 2.02,-11.12 8.758,-20.58 18.262,-26.15 4.723,-2.73 2.422,-6.39 4.418,-10.37 0.922,-1.89 2.434,-3.16 3.645,-4.21 2.004,-1.55 0.457,-1.89 -1.211,-1.66 -14.114,1.79 -35.871,7.71 -44.852,26.69 -4.73,10.15 -20.082,-25.66 -29.148,-8.58 -9.672,18.18 -14.114,31.88 -18.434,50.13 -2.359,10.08 -8.691,-7.2 -11.109,-1.15 -4.45,11.28 -7.567,23.38 -7.567,36.34 0,44.77 32.907,82.35 77.188,92.64 m 126.308,-31.24 c -0.468,0.42 -0.367,2.19 0.262,2.56 2.168,1.7 4.906,2.65 7.942,2.65 7.457,0 13.496,-6.03 13.496,-13.47 0,-4.25 -1.95,-7.99 -4.938,-10.47 -0.82,-0.74 -2.32,0.12 -2.601,0.81 -3.86,6.93 -8.582,13.14 -14.161,17.92 m -30.578,-152.31 c -3.242,-8.54 -15.301,-5.69 -21.722,-10.96 -0.68,-0.64 -2.618,-0.64 -3.161,-0.18 -6.402,5.45 -18.367,2.76 -22.23,12.06 -0.297,0.73 -0.297,2.25 1.43,2.51 8.472,0.96 16.011,5.08 21.492,11.09 0.461,0.58 1.89,1.1 3.109,-0.32 4.942,-5.5 11.922,-9.53 19.621,-10.77 0.93,-0.14 2.313,-0.92 1.461,-3.43 m -91.051,133.62 c -0.3,-0.46 -1.691,-0.96 -2.832,-0.18 -3.031,2.54 -5,6.31 -5,10.61 0,7.44 6.012,13.47 13.473,13.47 3.617,0 6.91,-1.45 9.391,-3.75 0.996,-0.74 0.422,-2.51 -0.133,-2.99 -5.809,-4.7 -10.879,-10.66 -14.899,-17.16 M 380.906,1791.73 c -9.187,0 -13.015,-2.95 -19.789,-7.28 -4.238,-2.96 -5.527,5.34 -0.488,22.31 4.027,13.34 -22.098,20.52 -28.34,14.29 -8.777,-6.86 -31.289,-20.26 -53.242,2.85 -4.399,4.63 9.992,3.08 10.863,7.14 1.274,5.96 6.738,9.57 9.02,11.96 1.261,1.8 1.261,4.58 -0.992,5.64 -6.754,3.62 -16.008,11.44 -13.418,25.83 0.308,2.04 -11.457,2.73 -7.528,6.33 20.621,19.1 43.129,7.2 52.156,1.06 1.582,-0.56 4.793,-0.86 5.082,2.2 0.68,6.17 -2.519,10.27 9.879,20.56 2.379,1.98 -7.191,10.31 -0.5,9.9 42.719,-10.71 23.383,-54.99 32.258,-62.81 16.281,-14.53 55.715,-25.99 92.805,-33.95 3.207,-0.69 14.707,-4.77 17.129,-6.04 29.961,-15.28 48.293,-13.8 64.508,-7.43 5.187,2 5.113,-4.55 3.328,-6.19 -59.457,-56.73 -104.688,-42.33 -120.707,-32.04 -11.098,7.14 -33.883,7.37 -44.399,-7.23 -1.812,-1.76 -5,-2.89 -6.328,1.78 -3.156,10.91 0.277,18.02 3.516,25.89 2.011,4.08 -3.02,5.23 -4.813,5.23 m 567.09,-52.66 c -7.976,-6.96 -22.203,-14.57 -44.754,-13.75 -9.531,0.39 -14.14,-2.34 -16.531,-5.17 -1.414,-1.93 -2.301,-4.31 -2.453,-4.81 -1.32,-4.68 0.422,-9.7 2.953,-13.65 2.406,-3.45 1.48,-5.67 -2.25,-6.56 -3.731,-0.97 -8.633,-1.06 -18.32,3.61 -4.262,2.03 -5.481,-0.58 -6.02,-2.57 -1.633,-4.7 1.481,-10.52 7.809,-14.71 3.25,-2.86 2.64,-5.62 -2.418,-7.41 -8.532,-2.97 -16.172,0.92 -28.692,7.87 -7.32,4.09 -13.007,4.74 -17.941,-1.09 -2.84,-3.24 -2.547,-6.26 -0.926,-7.93 4.867,-4.81 7.758,-14.46 -4.32,-29.69 -4.02,-5.04 -8.371,8.9 -12.055,7.24 -16.582,-7.75 -30.187,2.38 -35.332,9.35 -1.117,1.41 -3.426,1.87 -6.285,0.04 -8.305,-5.57 -26.043,-14.73 -32.902,1.25 -1.059,2.34 -10.821,-3.62 -10.7,0.96 0.371,26.45 23.352,31.42 33.168,32.27 3.004,0.32 3.59,1.77 2.016,4.19 -3.914,5.73 -8.645,12.55 -6.043,20.49 1.809,5.86 -13.262,7.2 -7.078,10.22 30.324,15.12 47.277,-13.79 52.539,-16.9 8.777,-5.04 48.348,7.82 53.18,29.23 1.019,4.21 -9.231,6.08 -19.411,8.61 -1.839,0.43 -2.89,2.8 0.469,5.47 24.024,17.85 43.281,41 86.68,45.32 5.273,0.55 7.383,-3.81 7.543,-5.93 0.832,-6.73 2.598,-13.33 5.476,-19.47 6.282,-13.29 13.813,-21.57 21.473,-27.6 3.68,-2.95 3.242,-7.05 1.125,-8.88 m 181.734,13.6 c 3.81,-2 3.91,-4.44 1.09,-6.91 -2.93,-2.57 -7.35,-4.94 -18.05,-5.17 -4.66,-0.05 -4.6,-2.98 -4.24,-4.96 0.69,-4.9 6.15,-8.69 13.77,-9.57 4.11,-1.06 4.83,-3.8 1.17,-7.66 -6.35,-6.59 -14.82,-6.59 -29.12,-6.08 -13.51,0.49 -24.28,-15.9 -16.34,-22.72 5.33,-4.6 16.23,-14.77 6.84,-42.41 -2.99,-8.36 -8.06,7.66 -12.38,5.15 -11.19,-6.65 -20.96,1.73 -26.03,7.74 -2.17,2.57 -4.12,2.66 -5.6,0 -4.47,-7.79 -16.29,-21.55 -40.06,-8.71 -5.151,2.74 -15.792,-6.72 -16.401,-3.49 -3.859,18.48 5.621,29.43 13.703,35.19 0.801,0.64 3.908,4.83 -1.352,4.69 -8.046,0.44 -17.808,3.02 -18.941,12.83 -0.148,2.11 -10.23,1.6 -9.738,4.43 2.387,13.58 32.289,23.43 52.899,9.77 17.43,-11.51 39.3,27.77 23.58,46.19 -11.39,13.25 -77.948,-23.83 -100.569,24.33 -9.102,19.39 2.289,35.94 -6.941,37.26 -9.29,1.33 -51.141,10.38 -97.602,-26.95 -78.5,-63.09 -163.625,-28.7 -183.625,-14.65 -3.152,0.98 -6.215,-1.53 -4.887,-4.69 3.235,-8.12 1.864,-15.7 -2.066,-21.49 -8.172,-12.36 -36.391,-24.96 -41.379,-26.43 -33.051,-9.71 -29.57,-34.96 -26.113,-46.21 1.039,-3.43 -0.239,-5.48 -3.809,-4.84 -10.098,1.87 -30.519,8.06 -38.531,27.9 -0.879,2.3 -3.18,2.39 -5.918,0.43 -12.309,-8.76 -7.957,-21.47 -5.039,-27.13 1.109,-2.25 0.488,-4.37 -2.422,-4.69 -11.258,-1.36 -19.352,11.78 -29.059,10.83 -6.34,-0.61 -13.761,-5.47 -17.793,-8.3 -1.957,-1.24 -2.25,-4.42 -1.039,-8.06 12.328,-36.57 -7.937,-37.81 -9.16,-37.14 -1.43,0.78 -0.64,6.88 -6.527,7.8 -19.871,-1.09 -25.551,11.87 -26.641,21.45 -0.39,3.11 -1.609,4.17 -3.711,2.74 -7.578,-5.25 -26.117,-15.56 -37.758,-0.37 -1.652,2.16 -7.222,-0.12 -10.242,-1.41 -2.422,-1.01 -2.469,2.93 -2.422,4.17 1.422,20.88 15.555,30.26 23.325,33.9 2.886,1.34 3.195,2.85 0.878,4.54 -6.269,4.67 -17.359,14.75 -13.839,25.7 0.648,2.07 -9.262,5.97 -6.801,7.76 22.871,16.55 52.172,-10.91 55.922,-13.88 3.929,-3.13 24.707,-3.8 77.711,25.97 33.683,18.93 51.289,34.56 60.898,46.46 1.172,1.38 3.617,3.91 7.059,4.03 21.347,0.71 42.472,3.87 58.961,18.39 2.711,2.83 5.515,1.15 6.672,0.35 30.285,-21.07 45.933,25.57 52.175,46.88 0.821,4.32 1.742,7.89 6.344,8.12 111.629,-5.36 323.128,-4.62 323.128,-4.62 0,0 27.88,-2.21 26.44,15.12 -2.23,27.76 -117.611,27.16 -203.709,15.3 -31.261,-4.3 -76.691,-6.78 -103.543,3.62 -11.14,4.33 -20.16,11.21 -25.16,20.11 -5.359,11.31 -3.937,18.09 -2.937,25.25 1.328,5.18 3.859,10.68 7.488,16.5 22.07,34.09 73.149,36.69 88.981,36.69 3.043,0 4.941,1.29 5.363,3.5 1.597,7.89 7.555,26.07 28.957,27.25 6.012,0.37 12.14,2.65 15.937,4.4 2.532,1.15 4.153,0.46 3.684,-1.75 -0.594,-2.74 -1.898,-6.42 -5.039,-9.16 -15.039,-12.87 -12.832,-18.81 -11.012,-20.51 1.031,-0.8 2.367,-0.39 3.52,0.67 45.48,39.63 71.968,13.39 80.07,4.81 1.344,-1.5 1.707,-3.92 -0.918,-4.54 -30.914,-6.92 -42.852,-34.48 -105.926,-30.05 -7.676,0.5 -59.347,3.08 -75.746,-20.3 -9.461,-13.59 -2.871,-26.25 25.02,-32.43 21.183,-4.63 70.574,2.55 93.859,4.44 22.781,1.88 122.161,14.29 174.261,-0.71 22,-6.27 53.96,-23.94 47.61,-57.25 -4.16,-21.01 -24.39,-29.29 -24.39,-29.29 0,0 -57.19,-40.22 45.35,-40.65 31.82,-0.14 0.5,-26.33 -1.13,-34 -1.14,-5.57 4.03,-10.58 8.99,-13.48 M 941.5,1974.98 c -3.102,-0.53 -7.539,-1.89 -12.367,-5.09 -9.274,-6.21 -46.356,-21.63 -57.942,-3.08 0,0 25.965,0.89 42.911,15.86 0,0 18.187,6.19 28.82,-3.43 1.226,-1.11 1.41,-3.76 -1.422,-4.26 M 696.672,2180.65 C 347.613,2180.65 0,2087.73 0,2087.73 v -464.46 c 0,-418.63 299.781,-853.879 696.52,-929.071 411.42,80.442 696.86,510.441 696.86,929.071 v 464.46 c 0,0 -291.16,92.92 -696.708,92.92 M 1289.75,1453.74 C 1289.7,1112.92 1030.64,803.48 696.641,803.09 h -0.192 c -334.062,0.39 -593.109,309.83 -593.168,650.65 v 586.67 l 8.699,2.65 c 0.586,0.14 301.028,93.21 584.54,93.3 283.578,-0.09 584.55,-93.3 584.55,-93.3 l 8.68,-2.65 v -586.67"
         style="fill:#231f20;fill-opacity:1;fill-rule:nonzero;stroke:none"
         id="path54" />
      <path
         d="m 1670.87,843.441 h 266.19 v -29.14 h -266.19 v 29.14"
         style="fill:#231f20;fill-opacity:1;fill-rule:nonzero;stroke:none"
         id="path56" />
      <path
         d="m 1762.41,525.102 c -9.31,17.937 -19.32,25.527 -33.46,25.527 -13.12,0 -23.12,-9.32 -23.12,-22.078 0,-42.09 103.15,-36.571 103.15,-108.332 0,-47.27 -31.05,-75.219 -77.28,-75.219 -43.81,0 -75.55,30.719 -83.14,67.629 l 36.23,22.762 c 7.24,-25.871 21.73,-48.981 47.95,-48.981 18.63,0 31.4,9.32 31.4,31.399 0,40.019 -101.09,32.082 -101.09,108.671 0,36.571 27.95,65.54 65.9,65.54 32.08,0 56.58,-15.86 69.68,-43.801 l -36.22,-23.117"
         style="fill:#231f20;fill-opacity:1;fill-rule:nonzero;stroke:none"
         id="path58" />
      <path
         d="m 1857.73,521.641 40.37,-109.012 37.94,109.012 h 42.78 l -89.69,-244.25 h -41.41 l 30.02,81.418 -63.14,162.832 h 43.13"
         style="fill:#231f20;fill-opacity:1;fill-rule:nonzero;stroke:none"
         id="path60" />
      <path
         d="m 2073.52,381.578 c 22.43,0 40.02,18.633 40.02,53.133 0,34.488 -17.59,53.129 -40.02,53.129 -22.42,0 -40.36,-18.641 -40.36,-53.129 0,-34.5 17.94,-53.133 40.36,-53.133 z m -5.86,142.832 c 17.59,0 34.5,-8.98 42.09,-18.64 v 86.25 h 42.78 V 347.77 h -42.78 v 17.941 c -4.83,-8.973 -20.7,-20.711 -42.09,-20.711 -52.45,0 -79.35,36.23 -79.35,89.711 0,53.48 26.9,89.699 79.35,89.699"
         style="fill:#231f20;fill-opacity:1;fill-rule:nonzero;stroke:none"
         id="path62" />
      <path
         d="m 2244.23,521.641 v -27.942 c 12.76,18.289 31.4,30.711 53.82,30.711 31.05,0 53.47,-17.601 53.47,-52.441 V 347.77 h -42.78 v 111.429 c 0,20.711 -10.35,28.641 -24.83,28.641 -20.71,0 -39.68,-24.84 -39.68,-70.731 V 347.77 h -42.78 v 173.871 h 42.78"
         style="fill:#231f20;fill-opacity:1;fill-rule:nonzero;stroke:none"
         id="path64" />
      <path
         d="m 2433.73,454.719 h 74.86 c -3.8,17.25 -14.49,33.121 -37.25,33.121 -21.74,0 -34.5,-16.57 -37.61,-33.121 z M 2552.41,420.91 H 2432.7 c 1.03,-19.32 14.49,-39.332 41.05,-39.332 19.67,0 31.74,8.973 42.09,26.91 l 34.5,-12.758 c -13.46,-30.718 -36.91,-50.73 -79,-50.73 -59.69,0 -83.5,48.66 -83.5,89.711 0,41.059 23.81,89.699 83.5,89.699 57.96,0 81.07,-47.961 81.07,-85.91 v -17.59"
         style="fill:#231f20;fill-opacity:1;fill-rule:nonzero;stroke:none"
         id="path66" />
      <path
         d="m 2603.3,521.641 40.36,-109.012 37.95,109.012 h 42.78 l -89.69,-244.25 h -41.41 l 30.02,81.418 -63.13,162.832 h 43.12"
         style="fill:#231f20;fill-opacity:1;fill-rule:nonzero;stroke:none"
         id="path68" />
      <path
         d="m 1712.38,2.76953 h -44.85 V 244.27 h 44.85 V 2.76953"
         style="fill:#231f20;fill-opacity:1;fill-rule:nonzero;stroke:none"
         id="path70" />
      <path
         d="m 1807.85,176.641 v -27.942 c 12.76,18.289 31.39,30.711 53.82,30.711 31.04,0 53.47,-17.601 53.47,-52.441 V 2.76953 h -42.78 V 114.199 c 0,20.711 -10.35,28.641 -24.84,28.641 -20.7,0 -39.67,-24.84 -39.67,-70.7306 V 2.76953 h -42.78 V 176.641 h 42.78"
         style="fill:#231f20;fill-opacity:1;fill-rule:nonzero;stroke:none"
         id="path72" />
      <path
         d="m 1945.32,176.641 h 22.08 v 8.98 c 0,42.43 24.15,61.399 60.03,61.399 13.46,0 24.84,-2.75 32.43,-6.891 l -9.31,-34.5 c -7.25,3.101 -13.46,4.832 -20.7,4.832 -12.08,0 -19.67,-6.211 -19.67,-21.742 v -12.078 h 36.57 v -36.563 h -36.57 V 2.76953 H 1967.4 V 140.078 h -22.08 v 36.563"
         style="fill:#231f20;fill-opacity:1;fill-rule:nonzero;stroke:none"
         id="path74" />
      <path
         d="m 2156.19,36.5781 c 27.6,0 43.47,24.4922 43.47,53.1328 0,28.6291 -15.87,53.1291 -43.47,53.1291 -27.6,0 -43.47,-24.5 -43.47,-53.1291 0,-28.6406 15.87,-53.1328 43.47,-53.1328 z m 0,142.8319 c 55.89,0 88.32,-39.332 88.32,-89.6991 C 2244.51,39.3398 2212.08,0 2156.19,0 c -55.89,0 -88.32,39.3398 -88.32,89.7109 0,50.3671 32.43,89.6991 88.32,89.6991"
         style="fill:#231f20;fill-opacity:1;fill-rule:nonzero;stroke:none"
         id="path76" />
      <path
         d="M 2282.72,2.76953 V 176.641 h 42.79 v -28.289 c 12.42,20.359 31.74,31.058 51.4,31.058 7.59,0 14.14,-1.379 21.05,-3.449 l -7.94,-39.68 c -5.18,3.11 -10.69,4.84 -17.94,4.84 -24.83,0 -46.57,-20.359 -46.57,-76.6015 V 2.76953 h -42.79"
         style="fill:#231f20;fill-opacity:1;fill-rule:nonzero;stroke:none"
         id="path78" />
      <path
         d="M 2527.09,2.76953 V 118.68 c 0,17.601 -8.62,24.16 -21.39,24.16 -21.04,0 -37.6,-24.5 -37.6,-76.2384 V 2.76953 h -42.79 V 176.641 h 42.79 v -27.942 c 12.76,19.321 27.59,30.711 50.03,30.711 21.38,0 41.05,-10.699 48.64,-35.879 12.42,22.418 31.74,35.879 53.12,35.879 32.43,0 51.76,-20.012 51.76,-53.48 V 2.76953 h -42.78 V 118.68 c 0,17.601 -8.63,24.16 -21.39,24.16 -20.7,0 -37.61,-23.461 -37.61,-72.4611 V 2.76953 h -42.78"
         style="fill:#231f20;fill-opacity:1;fill-rule:nonzero;stroke:none"
         id="path80" />
      <path
         d="m 2770.28,36.5781 c 19.67,0 40.37,13.4532 40.37,35.8711 v 3.461 h -28.64 c -18.28,0 -29.67,-6.8985 -29.67,-22.4297 0,-8.2813 5.87,-16.9024 17.94,-16.9024 z m -56.23,94.5309 c 5.52,28.629 30.71,48.301 66.24,48.301 41.4,0 73.14,-17.25 73.14,-72.801 V 2.76953 h -35.19 l -4.48,22.08207 C 2801.68,10.0117 2785.12,0 2760.28,0 c -29.67,0 -52.79,18.2891 -52.79,52.8008 0,34.4883 30.36,56.9182 74.18,56.9182 h 28.98 v 7.59 c 0,19.312 -14.49,25.531 -30.36,25.531 -12.08,0 -24.5,-3.789 -30.02,-20.012 l -36.22,8.281"
         style="fill:#231f20;fill-opacity:1;fill-rule:nonzero;stroke:none"
         id="path82" />
      <path
         d="M 2995.01,6.21094 C 2985.35,1.73047 2976.04,0 2966.72,0 c -39.33,0 -63.83,21.0508 -63.83,64.1719 v 75.9061 h -26.9 v 36.563 h 26.9 v 43.48 l 42.78,26.899 v -70.379 h 45.89 v -36.563 h -45.89 V 64.8711 c 0,-21.3906 8.29,-28.293 22.78,-28.293 5.86,0 10.69,1.0313 16.56,4.1407 l 10,-34.50786"
         style="fill:#231f20;fill-opacity:1;fill-rule:nonzero;stroke:none"
         id="path84" />
      <path
         d="M 3066.63,176.641 V 2.76953 h -42.78 V 176.641 Z m -21.39,77.629 c 15.87,0 27.6,-12.071 27.6,-27.598 0,-15.524 -11.73,-27.594 -27.6,-27.594 -15.86,0 -27.6,12.07 -27.6,27.594 0,15.527 11.74,27.598 27.6,27.598"
         style="fill:#231f20;fill-opacity:1;fill-rule:nonzero;stroke:none"
         id="path86" />
      <path
         d="M 3265.53,49.6914 C 3252.42,16.9102 3225.17,0 3186.52,0 c -56.58,0 -84.87,40.7188 -84.87,89.7109 0,48.9801 28.29,89.6991 84.87,89.6991 38.65,0 65.9,-16.91 79.01,-49.68 l -38.29,-15.531 c -8.98,18.281 -21.4,28.641 -40.72,28.641 -26.91,0 -40.02,-22.43 -40.02,-53.1291 0,-30.7109 13.11,-53.1328 40.02,-53.1328 19.32,0 31.74,10.3516 40.72,28.6328 l 38.29,-15.5195"
         style="fill:#231f20;fill-opacity:1;fill-rule:nonzero;stroke:none"
         id="path88" />
      <path
         d="m 3411.7,151.121 -25.54,-23.461 c -7.93,10.352 -19.31,15.18 -28.97,15.18 -8.28,0 -15.87,-4.828 -15.87,-14.5 0,-7.578 6.21,-13.102 16.55,-16.899 23.81,-8.621 62.79,-16.2105 62.79,-53.4722 C 3420.66,26.5781 3396.51,0 3358.91,0 c -36.22,0 -60.37,25.5391 -69,46.9297 l 34.15,18.2812 c 6.21,-16.9101 17.94,-28.6328 34.85,-28.6328 13.11,0 21.39,5.8633 21.39,18.6328 0,14.4883 -22.43,17.5977 -43.47,26.5586 -18.98,7.9414 -35.19,20.0115 -35.19,46.9215 0,26.911 21.74,50.719 55.55,50.719 23.45,0 43.81,-11.39 54.51,-28.289"
         style="fill:#231f20;fill-opacity:1;fill-rule:nonzero;stroke:none"
         id="path90" />
      <path
         d="m 3551.43,244.27 h 44.84 v -91.782 h 96.6 v 91.782 h 44.85 V 2.76953 h -44.85 V 111.102 h -96.6 V 2.76953 h -44.84 V 244.27"
         style="fill:#231f20;fill-opacity:1;fill-rule:nonzero;stroke:none"
         id="path92" />
      <path
         d="M 3896.76,2.76953 V 30.7188 C 3883.99,12.4297 3865.36,0 3842.93,0 c -31.05,0 -53.47,17.6016 -53.47,52.4414 V 176.641 h 42.78 V 65.2109 c 0,-20.6914 10.35,-28.6328 24.84,-28.6328 20.7,0 39.68,24.8438 39.68,70.7229 v 69.34 h 42.77 V 2.76953 h -42.77"
         style="fill:#231f20;fill-opacity:1;fill-rule:nonzero;stroke:none"
         id="path94" />
      <path
         d="m 4067.46,142.84 c -22.42,0 -40.02,-18.641 -40.02,-53.1291 0,-34.5 17.6,-53.1328 40.02,-53.1328 22.43,0 40.37,18.6328 40.37,53.1328 0,34.4881 -17.94,53.1291 -40.37,53.1291 z M 4073.33,0 c -21.39,0 -37.26,11.7383 -42.09,20.7109 V 2.76953 h -42.78 V 247.02 h 42.78 v -86.25 c 7.59,9.66 24.49,18.64 42.09,18.64 52.44,0 79.35,-36.219 79.35,-89.6991 C 4152.68,36.2305 4125.77,0 4073.33,0"
         style="fill:#231f20;fill-opacity:1;fill-rule:nonzero;stroke:none"
         id="path96" />
    </g>
  </g>
</svg>
