<?xml version="1.0" encoding="UTF-8"?>
<svg id="Layer_1" data-name="Layer 1" xmlns="http://www.w3.org/2000/svg" viewBox="0 0 316.15 135.04">
  <defs>
    <style>
      .cls-1 {
        fill: #5091cd;
        fill-rule: evenodd;
        stroke-width: 0px;
      }
    </style>
  </defs>
  <g id="Color_Fill_1" data-name="Color Fill 1">
    <g id="Color_Fill_1-2" data-name="Color Fill 1-2">
      <path class="cls-1" d="M217.56,11.08c1.04-.76,2.09-2.2,3.36-2.64-.63-1.86-3.87-3.66-5.52-4.68-10.14-6.28-30.32-4.5-36.6,3.84-1.95,2.59-3.79,5.34-4.92,8.76-.32,1.44-.64,2.88-.96,4.32-.17.73.1,1.71-.24,2.28v7.08c0,1.09.17,2.61-.12,3.48h-9.6v13.44h9.72v42.24h-9.72v13.44h40.92v-13.44h-11.4v-42.24h11.4v-13.44h-7.68c-1.15,0-2.78.19-3.72-.12-.04-7.41-.61-15.34,2.76-19.32,1.3-1.53,4.78-2.46,7.2-1.44,1.86.78,4.49,3.96,4.8,6.24,1.22-.36,2.06-1.59,3-2.28,2.49-1.82,4.84-3.69,7.32-5.52h0ZM57.24,88.48V17.32h19.44v12h14.4V1H0v39.6h14.52v-23.28h18.96v71.28h-15.6v14.16h55.08v-14.16h-10.68c-1.53,0-3.75.31-5.04-.12h0ZM237,7.12c-1.75,1.13-3.35,2.53-5.04,3.72-3.06,2.15-6.07,4.2-9.12,6.36-1.27.89-2.53,1.84-3.84,2.76-.58.41-1.07,1.08-1.8,1.32v12.24h-9.12v13.44h9.12v28.2c0,11.82-.94,21.58,6.48,26.16,1.86,1.15,4.14,1.6,6.6,2.16.88.04,1.76.08,2.64.12,1.52.33,4.71.22,6.24-.12,2.23-.5,4.5-.65,6.6-1.32,1.52-.52,3.04-1.04,4.56-1.56v-12.72c-1.2.28-2.4.56-3.6.84-3.56.84-7.41-.51-8.64-2.52-.58-.95-.69-2.38-.96-3.6-.14-.62.15-1.47-.12-1.92v-30.36c0-1.05-.16-2.52.12-3.36h13.2v-13.44h-13.32V7.12ZM315.84,79.36c-.24-1.08-.08-1.89-.36-2.88-.51-1.86-1.26-3.59-2.16-5.04-1.95-3.16-4.28-5.51-7.44-7.44-5.39-3.29-13.75-4.01-20.64-5.76l-3.48-.48c-2.69-.68-5.67-1.11-8.16-1.92-1.99-.65-3.8-1.18-4.56-3-.23-.56-.32-1.59-.24-2.04.04-.52.08-1.04.12-1.56.81-2.48,3.06-3.61,5.64-4.32.72-.08,1.44-.16,2.16-.24,1.15-.26,3.26-.54,4.68-.24,1.72.37,3.63.15,5.28.6,4.64,1.27,7.71,2.94,9.6,6.96h14.88v-18.96h-14.52v2.88c-1.04-.26-1.96-.82-2.88-1.2-1.46-.6-3.08-.97-4.56-1.44-1.92-.36-3.84-.72-5.76-1.08-.84-.04-1.68-.08-2.52-.12-.93-.2-3.52-.46-4.56-.24-1.11.24-2.53-.02-3.72.24-1.99.44-4.03.59-5.88,1.2-6.65,2.17-11.41,6.24-14.04,12.48-.9,2.13-1.81,6.06-1.08,9.24.35,1.53.62,3.1,1.2,4.44,4.31,9.99,15.91,12.31,27.36,15.24,6.98,1.78,17.22,1.17,18.84,8.16.5,2.15-.81,3.79-1.56,4.8-1.69,2.27-4.46,3.09-7.68,3.84-.92.04-1.84.08-2.76.12-.85.19-2.83.22-3.84,0-6.03-1.32-9.68-2.52-12.48-7.08-.64-1.04-1.26-2.36-1.32-3.96h-15.12v22.92h14.88v-5.16c1.13.76,1.79,2.19,2.88,3,1.3.96,3.04,1.85,4.68,2.4,2.39.8,5.08.73,7.8,1.32h2.64c3.01,0,5.87-.02,8.28-.6,1.4-.34,2.55-.3,3.84-.72,7.11-2.29,12.46-6.47,15.24-13.08.64-1.53.92-3.33,1.32-5.04.22-.94.05-2.13.24-3,.2-.93-.07-2.44-.24-3.24ZM158.76,102.64v-13.32c-1.99,0-6.49.4-8.04-.12v-55.68h-30.96v13.44h11.16v35.04c-2.66,1.62-5.05,3.52-8.16,4.8-4.02,1.65-11.32,1.81-13.68-1.44-2.49-3.42-1.92-10.22-1.92-16.08v-35.76h-30.6v13.44h7.32c1.12,0,2.69-.18,3.6.12v28.2c0,5.41-.42,11.46.96,15.6,1.99,5.97,5.36,9.08,11.04,11.4,2.25.92,8.25,2.1,11.64,1.32,3.1-.72,5.98-1.04,8.52-2.16,3.32-1.46,5.85-2.82,8.64-4.68.85-.56,1.81-.98,2.52-1.68h.12v7.56s27.84,0,27.84,0ZM276.6,115.24c-.84.1-1.3.64-2.04.84h-1.08c-2.37.52-5.35.13-7.8.12-1.86,0-4.16.17-4.92-.96-.28.03-.34.02-.48.12-.88,1.21-.49,3.43-1.32,4.68v.6c.24.08.48.16.72.24,1.72-2.97,2.19-3.54,6.96-3.48v9.84c0,.97.31,3.02-.12,3.72.02,1.06,0,1.93-.36,2.52-.71,0-1.64-.06-2.16.12,0,.4.03.71.12.96h8.28v-1.08c-.71,0-1.64.06-2.16-.12-.41-1.81-.36-4.4-.36-6.72v-9.24c1.61,0,3.11.15,4.44.24.94.98,1.77,1.93,2.4,3.24.24-.04.48-.08.72-.12-.06-1.94-.72-3.46-.72-5.4-.04-.04-.08-.08-.12-.12ZM215.88,123.88c-1.85-.78-4.44-.89-5.04-2.88-1-1.33.34-3.44,1.32-3.72.41-.33,1.18-.35,1.68-.24,2.44.52,3.11,1.81,3.96,3.84.34-.01.51-.05.72-.12-.12-1.6-.24-3.2-.36-4.8-.63.04-.83.2-1.08.6-1.48-.24-3.22-1.11-5.16-.6-2.87.75-5.33,4.43-3.24,7.8,1.36,2.19,4.92,2.69,6.96,4.2.74.55,1.65,1.84,1.2,3.48-.5,1.81-2.99,2.88-5.16,1.92-1.41-.62-2.49-2.55-2.52-4.56l-.12-.12h-.72c-.33,1.65-.5,3.57-.48,5.4.68-.02.82-.19.96-.72.94.12,1.31.77,2.04,1.08.78.33,1.89.3,2.76.48,3.73.76,6.99-4.11,5.64-7.8-.54-1.46-1.95-2.64-3.36-3.24h0ZM30.12,116.2v.96c.63-.02,1.22-.03,1.56.24,1.02.39.96,4.33.96,5.88,0,5.73.47,9.06-4.32,10.2-.87.21-1.76-.17-2.28-.36-3.29-1.23-2.88-5.24-2.88-9.6,0-2.04-.22-4.84.6-6.12.62-.14,1.19-.26,2.04-.24v-.96h-8.04v.96c.44-.01,1.06-.05,1.32.12.54.04.58.05.72.48.45.73.12,4.58.12,5.76,0,4.75.02,8.79,3,10.56,1.11.66,2.29.4,3.84.72,1.03.21,2.69-.1,3.6-.48,3.55-1.5,3.83-5.76,3.84-10.8,0-1.33-.31-5.01.24-5.76.04-.12.08-.24.12-.36.57-.13,1.03-.25,1.8-.24v-.96c-2.24,0-3.96,0-6.24,0ZM64.8,116.2v.96c.52.04,1.04.08,1.56.12.24.2.48.4.72.6.24,1.24.36,2.75.36,4.2,0,.69-.17,1.93.12,2.4v5.16c-.98-.46-2.42-2.9-3.12-3.84-1.79-2.39-3.83-4.64-5.64-7.08-.64-.87-1.57-1.6-2.16-2.52h-5.52v.96l1.56.12c.4.42.96.75,1.2,1.32.81,1.94.12,6.44.12,8.76s.05,4.71-.84,6.12h-1.44v1.08h5.76v-1.08c-.44,0-1.06.05-1.32-.12-1.21-.46-.96-4-.96-5.64,0-.56.1-1.43-.12-1.8v-6.12c.86.31,3.06,3.56,3.72,4.44.66.88,1.62,1.64,2.28,2.52,2.12,2.84,4.35,5.57,6.84,8.04.31-.02.41-.05.6-.12,0-3.91-.51-9.01.24-12.48.37-1.72-.07-3.39.48-4.8.41-.17.79-.25,1.44-.24v-.96c-2.14,0-3.72,0-5.88,0h0ZM94.56,133.48c-.98.02-1.62-.03-2.16-.36l-.12-9.84c0-.97-.31-3.02.12-3.72,0-.71-.06-1.64.12-2.16.62-.14,1.19-.26,2.04-.24,0-.4-.03-.71-.12-.96-1.07.02-4.32.39-4.92,0-1.01,0-2.44-.15-3.24.12v.84c.92-.02,1.93-.07,2.4.36.55.73,0,2.27.24,3.36.22,1,.12,2.52.12,3.72-.04,2.76-.08,5.52-.12,8.28-.18.17-.35.39-.48.6h-1.92v1.08h8.16c0-.37.02-.76-.12-.96v-.12h0ZM122.4,116.2v.96c2.45.01,1.87,1.61,1.2,3.24-.86,2.08-1.5,4.33-2.4,6.48-.46,1.09-1.27,2.31-1.44,3.6-.62-.37-.69-1.91-.96-2.64-.87-2.33-1.69-4.81-2.52-7.2-.22-.62-.83-2.31-.48-2.88.04-.12.08-.24.12-.36.68-.15,1.36-.26,2.28-.24v-.96h-8.04v.96c.55,0,1.01.01,1.32.24.88.35,1.64,3.84,2.04,4.92,1.54,4.1,2.91,8.97,4.92,12.72.25-.05.23-.03.36-.12.76-.32,1.41-2.95,1.8-3.84,1.38-3.18,2.83-6.52,4.2-9.72.62-1.45,1-3.42,2.52-3.96.34-.24.97-.26,1.56-.24,0-.4-.03-.71-.12-.96-2.28,0-4.07,0-6.36,0ZM159.24,129.88c-.12-.1-.03-.04-.24-.12-.64,1.03-1.84,2.61-2.88,3.24-1.59.95-5.21.77-6.6-.12-.49-2.11-.38-4.92-.36-7.44,1.05,0,3-.05,3.6.48.84.31.68,1.43,1.2,2.04l.12.12v-.12c.34-.01.51-.05.72-.12-.02-1.82-.13-3.89-.12-5.88-.32-.04-.64-.08-.96-.12-.13,1.07-.52,1.69-.96,2.4-1.03.24-2.28.38-3.6.36v-7.44c1.52.04,3.04.08,4.56.12,1.71.47,3.33,2.26,4.2,3.6.28-.03.34-.02.48-.12h.24c-.11-1.68-.98-2.82-1.08-4.44-.04-.04-.08-.08-.12-.12h-13.8v.96c.42-.01.96-.04,1.2.12.5.02.55.08.84.24.7,3.25.24,7.84.24,11.52,0,1.05.35,3.32-.12,4.08v.24c-.57.12-1.41.13-2.16.12l-.12.12v.96c3.36.02,7.23-.31,10.56,0,.79.07,3.62.16,4.08-.12.81-.42.96-3.13,1.56-3.96-.06-.52-.04-.48-.48-.6h0ZM189.36,131.32c-1.05-1.46-2.01-3.09-3.12-4.56-.32-.43-.94-.59-1.32-.96h-.12c1.13-.73,2.55-.51,3.6-1.56,1.64-1.64,1.4-4.32.12-6-1.41-1.86-5.37-2.65-8.88-1.92-1.48-.04-2.96-.08-4.44-.12v.96c.63-.02,1.22-.03,1.56.24.12.08.24.16.36.24.25,3.29.12,7.08.12,10.56,0,1.02.34,3.22-.12,3.96,0,.76-.1.91-.36,1.32h-1.56v1.08h7.32v-1.08c-.77,0-1.47,0-1.92-.24-.05-.25-.11-.55-.24-.72,0-1.86-.41-4.64.12-6.24.8,0,1.44.04,1.92.36.88.59,1.35,1.84,1.92,2.76,1.05,1.69,2.23,3.49,3.24,5.16h5.04v-.96c-2.06-.01-2.39-1.1-3.24-2.28h0ZM180.36,125.44c-.02-2.47-.53-6.65.48-8.28,1.25-.03,2.38-.02,3.24.36,1.64.72,2.8,3.65,1.56,5.76-.99,1.68-2.76,2.32-5.28,2.16ZM241.56,133.24c-.34-.48-.12-3.34-.12-4.2v-11.28c.14-.14.26-.3.36-.48.6-.04,1.2-.08,1.8-.12v-.96h-8.16v.96c.49-.01,1.26-.08,1.56.12.61.03.61.14.96.36.25,3.36.12,7.24.12,10.8,0,1.05.35,3.32-.12,4.08-.02.5-.08.55-.24.84-.54.11-1.33.13-2.04.12l-.12.12v.96h8.16v-1.08c-.66,0-1.88.16-2.16-.24h0ZM305.04,116.2v.96c.55,0,1.01.01,1.32.24l.36.12c-.1,2.94-3.32,5.45-4.08,7.92-.69-.35-.8-1.5-1.2-2.16-.64-1.05-1.28-2.31-1.92-3.36-.35-.58-.41-1.31-.84-1.8.02-.5.08-.55.24-.84l1.32-.12v-.96h-7.56v.96c.51,0,.91.03,1.2.24,1.28.25,1.79,2.26,2.4,3.24.84,1.35,1.54,2.79,2.4,4.2.35.57.98,1.26,1.2,1.92v6.24c-.14.14-.26.3-.36.48h-1.8v1.08h7.56c0-.37.02-.76-.12-.96-.32-.21-1.32-.13-1.68-.24-.22-.55-.71-5.95-.36-6.84.22-.55.88-1.18,1.2-1.68.93-1.49,1.82-2.91,2.76-4.32.99-1.5,1.37-3.3,3.84-3.36v-.96c-2.1,0-3.72,0-5.88,0h0Z"/>
    </g>
  </g>
</svg>