<?xml version="1.0" encoding="utf-8"?>
<!-- Generator: Adobe Illustrator 25.0.1, SVG Export Plug-In . SVG Version: 6.00 Build 0)  -->
<svg version="1.1" id="Layer_1" xmlns="http://www.w3.org/2000/svg" xmlns:xlink="http://www.w3.org/1999/xlink" x="0px" y="0px"
	 viewBox="0 0 156.7 139" style="enable-background:new 0 0 156.7 139;" xml:space="preserve">
<style type="text/css">
	.st0{fill:#3704FF;}
	.st1{fill:#FFFFFF;}
</style>
<rect class="st0" width="156.7" height="139"/>
<path class="st1" d="M53.2,61.6l20.6,35.6l-10,17.3h4.6c2.8,0,5.5-1.5,6.9-4l3.1-5.4l3.1,5.4c1.4,2.5,4,4,6.9,4h4.6L62.4,61.6H53.2z
	"/>
<path class="st1" d="M92.1,57.7l4.6-7.9l-41.1,0l-10-17.3h65.6l-2.3-4c-1.4-2.5-4-4-6.9-4H54.7c-2.8,0-5.5,1.5-6.9,4l-4.6,7.9
	c-1.4,2.5-1.4,5.5,0,7.9l3.1,5.4l-6.2,0c-2.8,0-5.5,1.5-6.9,4l-4.6,7.9c-1.4,2.5-1.4,5.5,0,7.9l23.7,41c1.4,2.5,4,4,6.9,4h4.6
	L31,57.7L92.1,57.7z"/>
<path class="st1" d="M128,61.6l-4.6-7.9c-1.4-2.5-4-4-6.9-4l-6.2,0l3.1-5.4c1.4-2.5,1.4-5.5,0-7.9l-2.3-4L80.7,85.3l4.6,7.9
	l20.6-35.6l19.9,0l-32.8,56.8h4.6c2.8,0,5.5-1.5,6.9-4l23.7-41C129.5,67.1,129.5,64.1,128,61.6z"/>
</svg>
