<?xml version="1.0" encoding="utf-8"?>
<!-- Generator: Adobe Illustrator 24.1.2, SVG Export Plug-In . SVG Version: 6.00 Build 0)  -->
<svg version="1.1" id="Layer_1" xmlns="http://www.w3.org/2000/svg" xmlns:xlink="http://www.w3.org/1999/xlink" x="0px" y="0px"
	 viewBox="0 0 567 567" style="enable-background:new 0 0 567 567;" xml:space="preserve">
<style type="text/css">
	.st0{fill-rule:evenodd;clip-rule:evenodd;fill:#68B43A;}
	.st1{fill-rule:evenodd;clip-rule:evenodd;fill:#EF7914;}
	.st2{fill-rule:evenodd;clip-rule:evenodd;fill:#E02B31;}
	.st3{fill-rule:evenodd;clip-rule:evenodd;fill:#94388D;}
	.st4{fill-rule:evenodd;clip-rule:evenodd;fill:#009DDA;}
	.st5{fill-rule:evenodd;clip-rule:evenodd;fill:#485156;}
</style>
<g>
	<path class="st0" d="M82.92,254.85h37.62c1.61,0,2.93,1.32,2.93,2.93l0,0c0,1.61-1.32,2.93-2.93,2.93H82.92
		c-1.61,0-2.93-1.32-2.93-2.93l0,0C80,256.17,81.31,254.85,82.92,254.85z"/>
	<path class="st0" d="M131.31,254.85L131.31,254.85c1.55,0,2.82,1.27,2.82,2.82v0.23c0,1.55-1.27,2.82-2.82,2.82l0,0
		c-1.55,0-2.82-1.27-2.82-2.82v-0.23C128.49,256.11,129.76,254.85,131.31,254.85z"/>
	<path class="st0" d="M70.87,254.85h4.17c1.61,0,2.93,1.32,2.93,2.93l0,0c0,1.61-1.32,2.93-2.93,2.93h-4.17
		c-1.61,0-2.93-1.32-2.93-2.93l0,0C67.94,256.17,69.26,254.85,70.87,254.85z"/>
	<path class="st1" d="M70.87,266.45h37.62c1.61,0,2.93,1.32,2.93,2.93l0,0c0,1.61-1.32,2.93-2.93,2.93H70.87
		c-1.61,0-2.93-1.32-2.93-2.93l0,0C67.94,267.77,69.26,266.45,70.87,266.45z"/>
	<path class="st1" d="M117.79,266.45L117.79,266.45c1.55,0,2.82,1.27,2.82,2.82v0.23c0,1.55-1.27,2.82-2.82,2.82l0,0
		c-1.55,0-2.82-1.27-2.82-2.82v-0.23C114.97,267.72,116.24,266.45,117.79,266.45z"/>
	<path class="st1" d="M127.03,266.45h4.17c1.61,0,2.93,1.32,2.93,2.93l0,0c0,1.61-1.32,2.93-2.93,2.93h-4.17
		c-1.61,0-2.93-1.32-2.93-2.93l0,0C124.1,267.77,125.41,266.45,127.03,266.45z"/>
	<path class="st2" d="M83.55,278.11h37.62c1.61,0,2.93,1.32,2.93,2.93l0,0c0,1.61-1.32,2.93-2.93,2.93H83.55
		c-1.61,0-2.93-1.32-2.93-2.93l0,0C80.62,279.43,81.93,278.11,83.55,278.11z"/>
	<path class="st2" d="M131.31,278.11L131.31,278.11c1.55,0,2.82,1.27,2.82,2.82v0.23c0,1.55-1.27,2.82-2.82,2.82l0,0
		c-1.55,0-2.82-1.27-2.82-2.82v-0.23C128.49,279.38,129.76,278.11,131.31,278.11z"/>
	<path class="st2" d="M70.87,278.11h4.17c1.61,0,2.93,1.32,2.93,2.93l0,0c0,1.61-1.32,2.93-2.93,2.93h-4.17
		c-1.61,0-2.93-1.32-2.93-2.93l0,0C67.94,279.43,69.26,278.11,70.87,278.11z"/>
	<g>
		<path class="st3" d="M131.19,289.71H93.57c-1.61,0-2.93,1.32-2.93,2.93l0,0c0,1.61,1.32,2.93,2.93,2.93h37.62
			c1.61,0,2.93-1.32,2.93-2.93l0,0C134.12,291.03,132.8,289.71,131.19,289.71z"/>
		<path class="st3" d="M84.28,289.71L84.28,289.71c-1.55,0-2.82,1.27-2.82,2.82v0.23c0,1.55,1.27,2.82,2.82,2.82l0,0
			c1.55,0,2.82-1.27,2.82-2.82v-0.23C87.09,290.98,85.83,289.71,84.28,289.71z"/>
		<path class="st3" d="M75.04,289.71h-4.17c-1.61,0-2.93,1.32-2.93,2.93l0,0c0,1.61,1.32,2.93,2.93,2.93h4.17
			c1.61,0,2.93-1.32,2.93-2.93l0,0C77.97,291.03,76.65,289.71,75.04,289.71z"/>
	</g>
	<path class="st4" d="M119.14,301.31H81.52c-1.61,0-2.93,1.32-2.93,2.93l0,0c0,1.61,1.32,2.93,2.93,2.93h37.62
		c1.61,0,2.93-1.32,2.93-2.93l0,0C122.07,302.63,120.75,301.31,119.14,301.31z"/>
	<path class="st4" d="M70.76,301.31L70.76,301.31c-1.55,0-2.82,1.27-2.82,2.82v0.23c0,1.55,1.27,2.82,2.82,2.82l0,0
		c1.55,0,2.82-1.27,2.82-2.82v-0.23C73.58,302.58,72.31,301.31,70.76,301.31z"/>
	<path class="st4" d="M131.19,301.31h-4.17c-1.61,0-2.93,1.32-2.93,2.93l0,0c0,1.61,1.32,2.93,2.93,2.93h4.17
		c1.61,0,2.93-1.32,2.93-2.93l0,0C134.12,302.63,132.8,301.31,131.19,301.31z"/>
</g>
<path class="st5" d="M180.47,269.89c-3.85-3.38-7.77-4.39-12.98-4.39c-6.08,0-14.06,2.7-14.06,10.41c0,7.57,7.5,9.87,13.79,10.34
	c4.73,0.27,6.62,1.22,6.62,3.52c0,2.43-2.91,4.06-6.02,3.99c-3.72-0.07-9.13-2.03-11.49-4.66l-4.06,5.88
	c4.87,5.07,10.14,5.95,15.41,5.95c9.53,0,14.33-5.07,14.33-10.95c0-8.86-7.98-10.28-14.26-10.68c-4.26-0.27-6.22-1.49-6.22-3.65
	c0-2.1,2.16-3.31,6.08-3.31c3.18,0,5.88,0.74,8.25,2.97L180.47,269.89L180.47,269.89z M220.36,286.04
	c1.28-13.72-5.68-20.62-16.83-20.62c-10.82,0-17.71,7.3-17.71,17.44c0,10.68,6.83,17.78,18.32,17.78c5.07,0,10.82-1.76,14.33-5.41
	l-5.27-5.21c-1.89,1.96-5.88,3.11-8.92,3.11c-5.81,0-9.4-2.97-9.94-7.1H220.36L220.36,286.04z M194.47,279.22
	c1.22-4.33,4.87-6.49,9.33-6.49c4.73,0,8.11,2.16,8.65,6.49H194.47L194.47,279.22z M242.8,292.6c-5.61,0-9.46-4.26-9.46-9.46
	c0-5.21,3.52-9.46,9.46-9.46c5.95,0,9.46,4.26,9.46,9.46C252.27,288.34,248.41,292.6,242.8,292.6L242.8,292.6z M261.26,313.69
	v-47.25h-7.71l-0.54,4.6c-2.57-3.72-7.03-5.34-10.82-5.34c-10.28,0-17.1,7.64-17.1,17.44c0,9.73,6.15,17.44,16.83,17.44
	c3.52,0,8.72-1.08,11.09-4.73v17.85H261.26L261.26,313.69z M301.55,286.04c1.28-13.72-5.68-20.62-16.83-20.62
	c-10.82,0-17.71,7.3-17.71,17.44c0,10.68,6.83,17.78,18.32,17.78c5.07,0,10.82-1.76,14.33-5.41l-5.27-5.21
	c-1.89,1.96-5.88,3.11-8.92,3.11c-5.81,0-9.4-2.97-9.94-7.1H301.55L301.55,286.04z M275.66,279.22c1.22-4.33,4.87-6.49,9.33-6.49
	c4.73,0,8.11,2.16,8.65,6.49H275.66L275.66,279.22z M307.9,266.44v33.33h8.25v-17.58c0-6.15,3.99-8.45,8.32-8.45
	c2.7,0,4.26,0.74,5.95,2.16l3.72-7.17c-1.83-1.83-5.14-3.18-8.59-3.18c-3.38,0-6.83,0.61-9.4,4.73l-0.61-3.85H307.9L307.9,266.44z
	 M363.4,271.04c-1.89-3.31-6.15-5.41-10.61-5.41c-9.74-0.07-17.37,5.95-17.37,17.44c0,11.7,7.3,17.78,17.17,17.71
	c3.72-0.07,8.92-1.96,10.82-5.88l0.41,4.87h7.77v-33.33h-7.91L363.4,271.04L363.4,271.04z M353.53,273c12.98,0,12.98,20.21,0,20.21
	c-5.48,0-9.87-3.79-9.87-10.14C343.66,276.72,348.06,273,353.53,273z"/>
<path class="st5" d="M378.43,252.38v47.39h3.31v-47.39H378.43L378.43,252.38z M419.8,266.37v7.3c-2.77-5.2-8.25-7.71-13.66-7.71
	c-9.33,0-16.97,6.9-16.97,17.1c0,10.21,7.64,17.24,16.97,17.24c5.41,0,10.41-2.43,13.66-7.64v7.1h3.31c0-11.15,0-22.24,0-33.39
	H419.8L419.8,266.37z M406.15,269.14c18.59,0,18.59,27.92,0,27.92c-7.57,0-13.66-5.61-13.66-13.99
	C392.49,274.69,398.57,269.14,406.15,269.14L406.15,269.14z M448.4,269.01c7.5,0,13.66,4.66,13.66,14.06
	c0,9.26-6.15,13.99-13.66,13.99c-7.84,0-13.66-5.75-13.66-14.06C434.74,274.69,440.69,269.01,448.4,269.01L448.4,269.01z
	 M431.43,252.38v47.39h3.25v-7.37c2.77,5.07,8.25,7.91,13.93,7.91c9.33,0,16.7-6.15,16.7-17.24c0-11.02-7.44-17.24-16.77-17.24
	c-5.75,0-11.15,2.43-13.86,7.84v-21.29H431.43L431.43,252.38z M498.35,270.29c-3.31-3.11-7.57-4.46-12.44-4.46
	c-6.76-0.07-13.32,2.77-13.25,9.33c0.07,6.69,6.49,7.91,12.98,8.99c5.48,0.88,11.02,1.83,10.88,6.63c-0.2,5.27-6.35,6.35-10.41,6.35
	c-4.46,0-9.46-1.69-12.24-5.68l-2.43,2.16c2.91,4.46,8.72,6.69,14.6,6.69c5.88,0,13.52-1.96,13.72-9.33
	c0.34-7.77-7.84-8.79-13.79-9.8c-4.19-0.74-10.01-1.62-10.14-6.08c-0.14-4.26,4.87-6.22,10.07-6.15c3.72,0,7.03,0.54,10.41,3.52
	L498.35,270.29z"/>
</svg>
