<?xml version="1.0" encoding="utf-8"?>
<!-- Generator: Adobe Illustrator 19.0.0, SVG Export Plug-In . SVG Version: 6.00 Build 0)  -->
<svg version="1.1" id="Layer_1" xmlns="http://www.w3.org/2000/svg" xmlns:xlink="http://www.w3.org/1999/xlink" x="0px" y="0px"
	 viewBox="0 0 500 500" style="enable-background:new 0 0 500 500;" xml:space="preserve">
<style type="text/css">
	.st0{clip-path:url(#XMLID_17_);fill:#092040;}
	.st1{clip-path:url(#XMLID_233_);fill:#092040;}
	.st2{clip-path:url(#XMLID_237_);fill:#092040;}
	.st3{clip-path:url(#XMLID_238_);fill:#092040;}
	.st4{clip-path:url(#XMLID_239_);fill:#092040;}
	.st5{clip-path:url(#XMLID_257_);fill:#092040;}
	.st6{clip-path:url(#XMLID_258_);fill:#092040;}
	.st7{clip-path:url(#XMLID_259_);fill:#092040;}
	.st8{clip-path:url(#XMLID_260_);fill:#092040;}
	.st9{clip-path:url(#XMLID_261_);fill:#092040;}
	.st10{clip-path:url(#XMLID_262_);fill:#092040;}
	.st11{clip-path:url(#XMLID_263_);fill:#092040;}
	.st12{clip-path:url(#XMLID_264_);fill:#092040;}
	.st13{clip-path:url(#XMLID_265_);fill:#092040;}
	.st14{clip-path:url(#XMLID_266_);fill:#092040;}
	.st15{clip-path:url(#XMLID_267_);fill:#092040;}
	.st16{clip-path:url(#XMLID_268_);fill:#092040;}
	.st17{clip-path:url(#XMLID_269_);fill:#092040;}
	.st18{clip-path:url(#XMLID_270_);fill:#092040;}
	.st19{clip-path:url(#XMLID_271_);fill:#092040;}
	.st20{clip-path:url(#XMLID_272_);fill:#092040;}
	.st21{clip-path:url(#XMLID_273_);fill:#092040;}
	.st22{clip-path:url(#XMLID_381_);fill:#092040;}
	.st23{clip-path:url(#XMLID_382_);fill:#092040;}
	.st24{clip-path:url(#XMLID_383_);fill:#092040;}
	.st25{clip-path:url(#XMLID_384_);fill:#092040;}
	.st26{clip-path:url(#XMLID_385_);fill:#092040;}
	.st27{clip-path:url(#XMLID_386_);fill:#FFFFFF;}
	.st28{clip-path:url(#XMLID_387_);fill:#092040;}
	.st29{clip-path:url(#XMLID_388_);fill:#FFFFFF;}
	.st30{clip-path:url(#XMLID_389_);fill:#FFFFFF;}
	.st31{clip-path:url(#XMLID_390_);fill:#FFFFFF;}
	.st32{clip-path:url(#XMLID_391_);fill:#FFFFFF;}
	.st33{clip-path:url(#XMLID_392_);fill:#FFFFFF;}
	.st34{clip-path:url(#XMLID_393_);fill:#FFFFFF;}
	.st35{clip-path:url(#XMLID_394_);fill:#FFFFFF;}
	.st36{clip-path:url(#XMLID_395_);fill:#FFFFFF;}
	.st37{clip-path:url(#XMLID_396_);fill:#FFFFFF;}
	.st38{clip-path:url(#XMLID_397_);fill:#FFFFFF;}
	.st39{clip-path:url(#XMLID_398_);fill:#FFFFFF;}
	.st40{clip-path:url(#XMLID_399_);fill:#FFFFFF;}
	.st41{clip-path:url(#XMLID_400_);fill:#FFFFFF;}
	.st42{clip-path:url(#XMLID_401_);fill:#FFFFFF;}
	.st43{clip-path:url(#XMLID_402_);fill:#FFFFFF;}
	.st44{clip-path:url(#XMLID_403_);fill:#FFFFFF;}
	.st45{clip-path:url(#XMLID_404_);fill:#FFFFFF;}
	.st46{clip-path:url(#XMLID_405_);fill:#FFFFFF;}
	.st47{clip-path:url(#XMLID_406_);fill:#FFFFFF;}
	.st48{clip-path:url(#XMLID_407_);fill:#FFFFFF;}
	.st49{clip-path:url(#XMLID_408_);fill:#FFFFFF;}
	.st50{clip-path:url(#XMLID_409_);fill:#FFFFFF;}
	.st51{clip-path:url(#XMLID_410_);fill:#FFFFFF;}
	.st52{clip-path:url(#XMLID_411_);fill:#FFFFFF;}
	.st53{clip-path:url(#XMLID_412_);fill:#FFFFFF;}
	.st54{clip-path:url(#XMLID_413_);fill:#FFFFFF;}
	.st55{clip-path:url(#XMLID_414_);fill:#FFFFFF;}
	.st56{clip-path:url(#XMLID_415_);fill:#FFFFFF;}
	.st57{clip-path:url(#XMLID_416_);fill:#FFFFFF;}
	.st58{clip-path:url(#XMLID_417_);fill:#FFFFFF;}
	.st59{clip-path:url(#XMLID_418_);fill:#FFFFFF;}
	.st60{clip-path:url(#XMLID_419_);fill:#FFFFFF;}
	.st61{clip-path:url(#XMLID_420_);fill:#FFFFFF;}
	.st62{clip-path:url(#XMLID_421_);fill:#FFFFFF;}
	.st63{clip-path:url(#XMLID_422_);fill:#FFFFFF;}
	.st64{clip-path:url(#XMLID_423_);fill:#FFFFFF;}
	.st65{clip-path:url(#XMLID_424_);fill:#FFFFFF;}
	.st66{clip-path:url(#XMLID_425_);fill:#FFFFFF;}
	.st67{clip-path:url(#XMLID_426_);fill:#FFFFFF;}
	.st68{clip-path:url(#XMLID_427_);fill:#FFFFFF;}
	.st69{clip-path:url(#XMLID_428_);fill:#FFFFFF;}
	.st70{clip-path:url(#XMLID_429_);fill:#DD1E34;}
	.st71{clip-path:url(#XMLID_430_);fill:#DD1E34;}
	.st72{clip-path:url(#XMLID_431_);fill:#DD1E34;}
	.st73{clip-path:url(#XMLID_432_);fill:#DD1E34;}
	.st74{clip-path:url(#XMLID_433_);fill:#DD1E34;}
	.st75{clip-path:url(#XMLID_434_);fill:#092040;}
	.st76{clip-path:url(#XMLID_435_);fill:#092040;}
	.st77{clip-path:url(#XMLID_436_);fill:#092040;}
	.st78{clip-path:url(#XMLID_437_);fill:#092040;}
	.st79{clip-path:url(#XMLID_438_);fill:#092040;}
	.st80{clip-path:url(#XMLID_439_);fill:#092040;}
	.st81{clip-path:url(#XMLID_440_);fill:#092040;}
	.st82{clip-path:url(#XMLID_441_);fill:#092040;}
	.st83{clip-path:url(#XMLID_442_);fill:#092040;}
	.st84{clip-path:url(#XMLID_443_);fill:#092040;}
	.st85{clip-path:url(#XMLID_444_);fill:#092040;}
	.st86{clip-path:url(#XMLID_445_);fill:#092040;}
	.st87{clip-path:url(#XMLID_446_);fill:#092040;}
	.st88{clip-path:url(#XMLID_447_);fill:#092040;}
	.st89{clip-path:url(#XMLID_448_);fill:#092040;}
	.st90{clip-path:url(#XMLID_449_);fill:#092040;}
	.st91{clip-path:url(#XMLID_450_);fill:#092040;}
	.st92{clip-path:url(#XMLID_451_);fill:#092040;}
	.st93{clip-path:url(#XMLID_452_);fill:#092040;}
	.st94{clip-path:url(#XMLID_453_);fill:#092040;}
	.st95{clip-path:url(#XMLID_454_);fill:#092040;}
	.st96{clip-path:url(#XMLID_455_);fill:#092040;}
	.st97{clip-path:url(#XMLID_456_);fill:#092040;}
	.st98{clip-path:url(#XMLID_457_);fill:#092040;}
</style>
<g id="XMLID_1_">
	<g id="XMLID_22_">
		<defs>
			<rect id="XMLID_18_" x="67.5" y="206.4" width="365" height="87.3"/>
		</defs>
		<clipPath id="XMLID_17_">
			<use xlink:href="#XMLID_18_"  style="overflow:visible;"/>
		</clipPath>
		<path id="XMLID_23_" class="st0" d="M74,241.2c0.8,0.2,1,0.1,1.1-0.5l0.2,0.1l-0.5,2.2l-0.2-0.1c0.1-0.5,0-0.8-0.8-1l-4.8-1.1
			l-0.2,0.9c-0.2,0.8,0,1.3,0.6,1.5l-0.1,0.2l-1.4-0.3l0.1-0.2c0.1-0.1,0.2-0.1,0.3-0.3c0.1-0.1,0.2-0.3,0.2-0.6l0.8-3.3
			c0.1-0.5,0.1-0.8,0-1.1l0-0.2l1.4,0.3l0,0.1c-0.6,0-1,0.2-1.2,1.2l-0.2,1L74,241.2L74,241.2z"/>
	</g>
	<g id="XMLID_25_">
		<defs>
			<rect id="XMLID_24_" x="67.5" y="206.4" width="365" height="87.3"/>
		</defs>
		<clipPath id="XMLID_233_">
			<use xlink:href="#XMLID_24_"  style="overflow:visible;"/>
		</clipPath>
		<path id="XMLID_26_" class="st1" d="M74.4,234l1.7,0.8c0.7,0.3,1,0.3,1.3-0.2l0.2,0.1l-1,2.1l-0.2-0.1c0.2-0.4,0.2-0.8-0.6-1.1
			l-3.6-1.8c-0.7-0.3-1-0.3-1.3,0.2l-0.1-0.1l1-2.1l0.1,0.1c-0.2,0.4-0.1,0.8,0.6,1.1l1.7,0.8l1.5-3.2l-1.7-0.8
			c-0.7-0.3-1-0.3-1.2,0.2l-0.2-0.1l1-2.1l0.2,0.1c-0.3,0.5-0.1,0.8,0.6,1.1l3.6,1.8c0.7,0.3,1,0.3,1.3-0.2l0.2,0.1l-1,2.1l-0.2-0.1
			c0.2-0.4,0.2-0.7-0.6-1.1l-1.7-0.8L74.4,234L74.4,234z"/>
	</g>
	<g id="XMLID_28_">
		<defs>
			<rect id="XMLID_27_" x="67.5" y="206.4" width="365" height="87.3"/>
		</defs>
		<clipPath id="XMLID_237_">
			<use xlink:href="#XMLID_27_"  style="overflow:visible;"/>
		</clipPath>
		<path id="XMLID_29_" class="st2" d="M82,223.4l-0.1,0.2c-0.5-0.3-0.6-0.2-1.1,0.3l-1,1.3l1.8,1.5c0.3,0.2,0.4,0.2,0.6-0.1l0.7-0.8
			c0.6-0.7,0.7-0.9,0.3-1.8l0.1-0.2l0.7,1l-3,3.6l-0.1-0.1c0.3-0.4,0.3-0.6-0.3-1.2l-3.1-2.6c-0.6-0.5-0.9-0.5-1.3-0.1l-0.2-0.1
			l3-3.6l0.8,0.7l-0.1,0.1c-0.6-0.3-0.8-0.2-1.3,0.3l-1.2,1.4l2.1,1.8l1.2-1.4c0.3-0.3,0.3-0.5,0-0.9l0.1-0.1L82,223.4z"/>
	</g>
	<g id="XMLID_31_">
		<defs>
			<rect id="XMLID_30_" x="67.5" y="206.4" width="365" height="87.3"/>
		</defs>
		<clipPath id="XMLID_238_">
			<use xlink:href="#XMLID_30_"  style="overflow:visible;"/>
		</clipPath>
		<path id="XMLID_32_" class="st3" d="M94.1,216.1c-0.2,0.9-0.6,1.6-1.3,2c-1.4,0.8-2.5,0.1-3-0.9l-1.6-2.8
			c-0.4-0.8-0.7-0.8-1.2-0.5l-0.1-0.2l2-1.2l0.1,0.2c-0.4,0.3-0.5,0.5-0.1,1.3l1.6,2.9c0.5,0.9,1.3,1.2,2.3,0.7c0.6-0.3,1-1,1.1-1.8
			l-1.9-3.4c-0.3-0.7-0.6-0.8-1.1-0.6l-0.1-0.2l2-1.1l0.1,0.2c-0.5,0.3-0.5,0.6-0.1,1.3l2,3.5c0.4,0.8,0.7,0.8,1.2,0.5l0.1,0.2
			l-1.4,0.8L94.1,216.1L94.1,216.1z"/>
	</g>
	<g id="XMLID_34_">
		<defs>
			<rect id="XMLID_33_" x="67.5" y="206.4" width="365" height="87.3"/>
		</defs>
		<clipPath id="XMLID_239_">
			<use xlink:href="#XMLID_33_"  style="overflow:visible;"/>
		</clipPath>
		<path id="XMLID_35_" class="st4" d="M104.4,213.6l-0.2,0l-5.8-4.3h0l1.2,4.4c0.2,0.6,0.5,0.8,1,0.6l0,0.2l-1.9,0.5l-0.1-0.2
			c0.5-0.1,0.8-0.4,0.5-1.3l-1-3.7c-0.2-0.7-0.5-1-1.2-0.9l-0.1-0.2l1.6-0.4l5.2,3.9h0.1l-0.9-3.6c-0.2-0.8-0.5-1-1-0.8l-0.1-0.2
			l1.9-0.5l0.1,0.2c-0.6,0.1-0.8,0.5-0.6,1.2L104.4,213.6L104.4,213.6z"/>
	</g>
	<g id="XMLID_37_">
		<defs>
			<rect id="XMLID_36_" x="67.5" y="206.4" width="365" height="87.3"/>
		</defs>
		<clipPath id="XMLID_257_">
			<use xlink:href="#XMLID_36_"  style="overflow:visible;"/>
		</clipPath>
		<path id="XMLID_38_" class="st5" d="M109.6,211.8c0,0.8,0.3,1,0.8,1v0.2l-2.3,0.1l0-0.2c0.5,0,0.7-0.3,0.7-1.1l-0.2-4
			c-0.1-0.8-0.2-1-0.8-1l0-0.2l2.3-0.1l0,0.2c-0.5,0-0.7,0.3-0.7,1.1L109.6,211.8L109.6,211.8z"/>
	</g>
	<g id="XMLID_40_">
		<defs>
			<rect id="XMLID_39_" x="67.5" y="206.4" width="365" height="87.3"/>
		</defs>
		<clipPath id="XMLID_258_">
			<use xlink:href="#XMLID_39_"  style="overflow:visible;"/>
		</clipPath>
		<path id="XMLID_41_" class="st6" d="M116.2,213.5l-0.2,0l-1.3-5.5c-0.2-0.8-0.3-1.2-0.9-1.3l0-0.2l2.3,0.3l0,0.2
			c-0.4-0.1-0.7,0.1-0.6,0.7l1,4.4l2-3.8c0.3-0.5,0.2-0.9-0.4-1l0-0.2l1.9,0.3l0,0.2c-0.5,0-0.9,0.3-1.3,1.1L116.2,213.5
			L116.2,213.5z"/>
	</g>
	<g id="XMLID_43_">
		<defs>
			<rect id="XMLID_42_" x="67.5" y="206.4" width="365" height="87.3"/>
		</defs>
		<clipPath id="XMLID_259_">
			<use xlink:href="#XMLID_42_"  style="overflow:visible;"/>
		</clipPath>
		<path id="XMLID_44_" class="st7" d="M126.4,213.6l-0.2-0.1c0.1-0.6,0-0.7-0.6-0.9l-1.5-0.6l-0.8,2.2c-0.1,0.3-0.1,0.4,0.3,0.6
			l1.1,0.4c0.9,0.3,1.1,0.4,1.8-0.3l0.2,0.1l-0.7,1l-4.4-1.6l0.1-0.2c0.5,0.2,0.8,0.1,1-0.7l1.4-3.8c0.3-0.8,0.2-1-0.3-1.2l0.1-0.2
			l4.4,1.6l-0.4,1l-0.1-0.1c0.1-0.7-0.1-0.8-0.7-1.1l-1.8-0.6l-0.9,2.6l1.7,0.6c0.4,0.1,0.6,0.1,0.9-0.3l0.2,0.1L126.4,213.6
			L126.4,213.6z"/>
	</g>
	<g id="XMLID_46_">
		<defs>
			<rect id="XMLID_45_" x="67.5" y="206.4" width="365" height="87.3"/>
		</defs>
		<clipPath id="XMLID_260_">
			<use xlink:href="#XMLID_45_"  style="overflow:visible;"/>
		</clipPath>
		<path id="XMLID_49_" class="st8" d="M133.7,213.1l0.6,0.4c0.8,0.5,1,1.4,0.6,2.1c-0.4,0.6-1.2,1-2.1,0.4l-0.7-0.5L133.7,213.1
			L133.7,213.1z M131.9,215.8l0.4,0.3c1,0.6,0.4,2.1,0.6,4l1.1,0.7l0.1-0.2c-0.8-0.7,0-2.7-0.6-4c1,0.3,1.6,0,2-0.6
			c0.5-0.7,0.3-1.8-0.9-2.6l-2.2-1.5l-0.1,0.2c0.5,0.3,0.5,0.5,0.1,1.2l-2.2,3.4c-0.5,0.7-0.8,0.7-1.2,0.4l-0.1,0.2l1.9,1.3l0.1-0.2
			c-0.4-0.3-0.5-0.6-0.1-1.3L131.9,215.8L131.9,215.8z"/>
	</g>
	<g id="XMLID_51_">
		<defs>
			<rect id="XMLID_50_" x="67.5" y="206.4" width="365" height="87.3"/>
		</defs>
		<clipPath id="XMLID_261_">
			<use xlink:href="#XMLID_50_"  style="overflow:visible;"/>
		</clipPath>
		<path id="XMLID_52_" class="st9" d="M142.3,221.7l-0.1-0.1c0.6-0.8,0.4-1.5-0.1-2c-0.5-0.5-1.1-0.6-1.5-0.1
			c-0.9,0.8,0.1,2.2,0.1,3.5c0,0.6-0.2,1-0.5,1.3c-0.8,0.7-1.9,0.7-2.6,0c-0.5-0.5-0.6-1.2-0.8-1.3c-0.1-0.1-0.2-0.1-0.3,0l-0.1-0.1
			l1.2-1.2l0.1,0.2c-0.8,0.8-0.4,1.8,0,2.2c0.5,0.6,1.2,0.6,1.7,0.1c0.8-0.8-0.1-2.4-0.1-3.4c0-0.6,0.2-1,0.6-1.3
			c0.7-0.7,1.7-0.7,2.4,0.1c0.5,0.5,0.5,0.9,0.7,1.1c0.1,0.1,0.1,0.1,0.3,0l0.1,0.1L142.3,221.7L142.3,221.7z"/>
	</g>
	<g id="XMLID_54_">
		<defs>
			<rect id="XMLID_53_" x="67.5" y="206.4" width="365" height="87.3"/>
		</defs>
		<clipPath id="XMLID_262_">
			<use xlink:href="#XMLID_53_"  style="overflow:visible;"/>
		</clipPath>
		<path id="XMLID_55_" class="st10" d="M142.8,228.6c-0.6,0.4-0.8,0.7-0.4,1.2l-0.1,0.1l-1.3-1.9l0.1-0.1c0.3,0.4,0.6,0.5,1.3,0
			l3.3-2.3c0.7-0.5,0.8-0.8,0.4-1.2l0.1-0.1l1.3,1.9l-0.1,0.1c-0.3-0.4-0.6-0.5-1.3,0L142.8,228.6L142.8,228.6z"/>
	</g>
	<g id="XMLID_57_">
		<defs>
			<rect id="XMLID_56_" x="67.5" y="206.4" width="365" height="87.3"/>
		</defs>
		<clipPath id="XMLID_263_">
			<use xlink:href="#XMLID_56_"  style="overflow:visible;"/>
		</clipPath>
		<path id="XMLID_58_" class="st11" d="M146,234.5c-0.7,0.3-0.8,0.5-0.6,1.1l-0.2,0.1l-0.9-2.1l0.2-0.1c0.2,0.4,0.4,0.6,1.2,0.3
			l4.5-2l-0.4-0.8c-0.4-0.8-0.8-1-1.4-0.8l-0.1-0.2l1.3-0.6l0.1,0.2c0,0.1,0,0.2,0,0.4c0,0.1,0.1,0.3,0.2,0.6l1.4,3.1
			c0.2,0.5,0.4,0.7,0.6,0.8l0.1,0.2l-1.3,0.6l-0.1-0.1c0.4-0.3,0.7-0.7,0.3-1.6l-0.4-0.9L146,234.5L146,234.5z"/>
	</g>
	<g id="XMLID_60_">
		<defs>
			<rect id="XMLID_59_" x="67.5" y="206.4" width="365" height="87.3"/>
		</defs>
		<clipPath id="XMLID_264_">
			<use xlink:href="#XMLID_59_"  style="overflow:visible;"/>
		</clipPath>
		<path id="XMLID_61_" class="st12" d="M148.6,242.3c-0.8,0.2-1,0.4-0.9,0.9l-0.2,0.1L147,241l0.2-0.1c0.1,0.5,0.3,0.8,1.2,0.6
			l2-0.4l1.8-1.8c0.6-0.6,0.7-0.8,0.6-1.3l0.2-0.1l0.5,2.5l-0.2,0.1c-0.1-0.7-0.4-0.7-0.7-0.4l-1.7,1.7l1.8,0.7
			c0.6,0.2,1,0.1,0.9-0.4l0.2,0l0.4,1.7l-0.2,0.1c-0.1-0.5-0.3-0.6-0.9-0.9l-2.6-1L148.6,242.3L148.6,242.3z"/>
	</g>
	<g id="XMLID_63_">
		<defs>
			<rect id="XMLID_62_" x="67.5" y="206.4" width="365" height="87.3"/>
		</defs>
		<clipPath id="XMLID_265_">
			<use xlink:href="#XMLID_62_"  style="overflow:visible;"/>
		</clipPath>
		<path id="XMLID_66_" class="st13" d="M71.9,258.8c1.8-0.5,3.2,0.1,3.7,1.5c0.4,1.3-0.4,2.7-2.4,3.2c-1.5,0.4-3.2,0.1-3.7-1.5
			C69.1,260.6,70,259.3,71.9,258.8 M71.6,257.8c-1.8,0.5-2.9,2.4-2.3,4.3c0.5,1.9,2.4,2.9,4.3,2.4c1.8-0.5,2.8-2.4,2.3-4.3
			C75.2,258.3,73.4,257.3,71.6,257.8"/>
	</g>
	<g id="XMLID_68_">
		<defs>
			<rect id="XMLID_67_" x="67.5" y="206.4" width="365" height="87.3"/>
		</defs>
		<clipPath id="XMLID_266_">
			<use xlink:href="#XMLID_67_"  style="overflow:visible;"/>
		</clipPath>
		<path id="XMLID_69_" class="st14" d="M74.2,270.4c-0.7,0.4-0.8,0.7-0.5,1.2l-0.2,0.1l-1.2-2l0.2-0.1c0.3,0.5,0.6,0.5,1.3,0.1
			l3.5-2c0.7-0.4,0.8-0.6,0.5-1.1l0.2-0.1l2.2,3.9l-1,0.6l-0.1-0.1c0.6-0.5,0.6-0.7,0.2-1.3l-0.8-1.4l-2.4,1.3l0.8,1.5
			c0.3,0.4,0.5,0.4,1,0.3l0.1,0.1l-1.6,0.9l-0.1-0.1c0.4-0.3,0.5-0.6,0.3-1l-0.8-1.5L74.2,270.4L74.2,270.4z"/>
	</g>
	<g id="XMLID_71_">
		<defs>
			<rect id="XMLID_70_" x="67.5" y="206.4" width="365" height="87.3"/>
		</defs>
		<clipPath id="XMLID_267_">
			<use xlink:href="#XMLID_70_"  style="overflow:visible;"/>
		</clipPath>
		<path id="XMLID_72_" class="st15" d="M86.6,282.8l-0.2-0.1c0.3-0.5,0.2-0.6-0.3-1.1l-1.2-1l-1.5,1.8c-0.2,0.3-0.2,0.4,0.1,0.6
			l0.9,0.7c0.8,0.6,0.9,0.7,1.8,0.3l0.1,0.1l-1,0.8l-3.6-2.9l0.1-0.1c0.4,0.3,0.7,0.3,1.2-0.3l2.6-3.1c0.5-0.6,0.5-0.9,0.1-1.3
			l0.1-0.1l3.6,2.9l-0.7,0.8l-0.1-0.1c0.3-0.6,0.2-0.8-0.3-1.3l-1.4-1.2l-1.7,2.1l1.4,1.2c0.3,0.3,0.5,0.3,0.9-0.1l0.1,0.1
			L86.6,282.8L86.6,282.8z"/>
	</g>
	<g id="XMLID_74_">
		<defs>
			<rect id="XMLID_73_" x="67.5" y="206.4" width="365" height="87.3"/>
		</defs>
		<clipPath id="XMLID_268_">
			<use xlink:href="#XMLID_73_"  style="overflow:visible;"/>
		</clipPath>
		<path id="XMLID_77_" class="st16" d="M93.9,283l1.1,0.5c1.9,0.8,1.9,2.6,1.3,4c-0.8,1.6-2.1,2.2-3.5,1.5l-0.6-0.3
			c-0.5-0.3-0.7-0.5-0.3-1.4L93.9,283L93.9,283z M91.1,287.2c-0.3,0.8-0.6,0.8-1.1,0.6l-0.1,0.2l2.8,1.3c2.3,1.1,3.9,0.1,4.5-1.3
			c0.7-1.5,0.3-3.5-1.9-4.6l-2.7-1.3l-0.1,0.2c0.5,0.2,0.6,0.5,0.3,1.2L91.1,287.2L91.1,287.2z"/>
	</g>
	<g id="XMLID_79_">
		<defs>
			<rect id="XMLID_78_" x="67.5" y="206.4" width="365" height="87.3"/>
		</defs>
		<clipPath id="XMLID_269_">
			<use xlink:href="#XMLID_78_"  style="overflow:visible;"/>
		</clipPath>
		<path id="XMLID_80_" class="st17" d="M102.4,291.3c-0.2,0.8,0,1.1,0.5,1.2l-0.1,0.2l-2.3-0.5l0.1-0.2c0.5,0.1,0.7-0.1,0.9-0.8
			l0.9-3.9c0.2-0.8,0.1-1-0.5-1.2l0.1-0.2l2.3,0.5l-0.1,0.2c-0.5-0.1-0.8,0.1-1,0.8L102.4,291.3L102.4,291.3z"/>
	</g>
	<g id="XMLID_82_">
		<defs>
			<rect id="XMLID_81_" x="67.5" y="206.4" width="365" height="87.3"/>
		</defs>
		<clipPath id="XMLID_270_">
			<use xlink:href="#XMLID_81_"  style="overflow:visible;"/>
		</clipPath>
		<path id="XMLID_83_" class="st18" d="M114.1,293.4h-0.2l-4.6-5.6h0l0.1,4.5c0,0.6,0.3,0.9,0.9,0.9v0.2l-1.9,0v-0.2
			c0.5,0,0.8-0.2,0.8-1.1l0-3.8c0-0.7-0.2-1.2-1-1.2v-0.2l1.7,0l4.1,5h0l-0.1-3.8c0-0.8-0.3-1.1-0.8-1.1v-0.2h1.9v0.2
			c-0.6,0-0.8,0.3-0.8,1L114.1,293.4L114.1,293.4z"/>
	</g>
	<g id="XMLID_85_">
		<defs>
			<rect id="XMLID_84_" x="67.5" y="206.4" width="365" height="87.3"/>
		</defs>
		<clipPath id="XMLID_271_">
			<use xlink:href="#XMLID_84_"  style="overflow:visible;"/>
		</clipPath>
		<path id="XMLID_89_" class="st19" d="M120.9,288.8l-0.7-2.7l0.6-0.2c1-0.3,1.6,0.1,1.9,0.9c0.2,0.8-0.2,1.5-1.1,1.7L120.9,288.8
			L120.9,288.8z M120.7,291.2c0.2,0.8,0.1,1-0.4,1.2l0.1,0.2l2.9-0.8c1.2-0.3,1.8-1.2,1.6-2c-0.2-0.8-1.1-1.4-2.1-1.3
			c0.8-0.5,1.1-1.1,0.9-1.8c-0.2-0.8-1.1-1.3-2.6-0.9l-2.3,0.6l0.1,0.2c0.5-0.1,0.8,0,1,0.8L120.7,291.2L120.7,291.2z M121,289
			l0.6-0.2c1.1-0.3,2,0.1,2.2,1c0.3,0.9-0.2,1.5-0.9,1.7l-0.5,0.1c-0.5,0.1-0.7,0-0.9-0.9L121,289z"/>
	</g>
	<g id="XMLID_91_">
		<defs>
			<rect id="XMLID_90_" x="67.5" y="206.4" width="365" height="87.3"/>
		</defs>
		<clipPath id="XMLID_272_">
			<use xlink:href="#XMLID_90_"  style="overflow:visible;"/>
		</clipPath>
		<path id="XMLID_92_" class="st20" d="M134.1,285.9c-0.2,0.9-0.6,1.6-1.3,2c-1.4,0.8-2.4,0.1-3-0.8l-1.6-2.8
			c-0.4-0.8-0.7-0.8-1.2-0.5l-0.1-0.2l2-1.2l0.1,0.2c-0.4,0.3-0.5,0.5-0.1,1.3l1.7,2.8c0.5,0.9,1.3,1.2,2.3,0.6c0.6-0.4,1-1,1.1-1.9
			l-1.9-3.4c-0.4-0.6-0.6-0.8-1.1-0.5l-0.1-0.2l2-1.2l0.1,0.2c-0.5,0.3-0.5,0.6-0.1,1.3l2,3.5c0.4,0.8,0.7,0.8,1.2,0.5l0.1,0.2
			l-1.4,0.8L134.1,285.9L134.1,285.9z"/>
	</g>
	<g id="XMLID_94_">
		<defs>
			<rect id="XMLID_93_" x="67.5" y="206.4" width="365" height="87.3"/>
		</defs>
		<clipPath id="XMLID_273_">
			<use xlink:href="#XMLID_93_"  style="overflow:visible;"/>
		</clipPath>
		<path id="XMLID_97_" class="st21" d="M136.7,277.1l0.5-0.5c0.7-0.7,1.6-0.8,2.2-0.1c0.5,0.5,0.7,1.4,0,2.1l-0.6,0.6L136.7,277.1z
			 M139,279.4l0.4-0.4c0.8-0.8,2.1,0,4.1,0.1l0.9-0.9l-0.1-0.2c-0.8,0.7-2.6-0.5-4-0.2c0.5-0.9,0.3-1.6-0.2-2
			c-0.6-0.6-1.7-0.7-2.7,0.3l-1.9,1.9l0.1,0.1c0.4-0.3,0.6-0.4,1.2,0.2l2.9,2.8c0.6,0.6,0.6,0.9,0.2,1.3l0.1,0.1l1.6-1.7l-0.1-0.1
			c-0.4,0.4-0.7,0.3-1.3-0.2L139,279.4L139,279.4z"/>
	</g>
	<g id="XMLID_99_">
		<defs>
			<rect id="XMLID_98_" x="67.5" y="206.4" width="365" height="87.3"/>
		</defs>
		<clipPath id="XMLID_381_">
			<use xlink:href="#XMLID_98_"  style="overflow:visible;"/>
		</clipPath>
		<path id="XMLID_100_" class="st22" d="M149.6,270.4c-0.1,0.4-0.6,1.4-0.8,1.6c-1.5,2.4-3.4,2.3-4.7,1.6c-1.9-1.2-2.1-3.3-1.3-4.7
			c0.5-0.8,0.9-0.9,1.2-1.3c0.1-0.2,0.1-0.3,0-0.4l0.1-0.2l1.6,1l-0.1,0.1c-1.2-0.5-2.1,0.2-2.6,0.9c-0.7,1.1-0.2,2.6,1.3,3.5
			c1.6,1,3.4,0.8,4.2-0.6c0.3-0.4,0.5-1,0-1.3l-0.6-0.4c-0.6-0.4-1-0.4-1.3,0.1l-0.1,0.2l-0.2-0.1l1.4-2.2l0.2,0.1
			c-0.3,0.5-0.1,0.8,0.3,1.1L149.6,270.4L149.6,270.4z"/>
	</g>
	<g id="XMLID_102_">
		<defs>
			<rect id="XMLID_101_" x="67.5" y="206.4" width="365" height="87.3"/>
		</defs>
		<clipPath id="XMLID_382_">
			<use xlink:href="#XMLID_101_"  style="overflow:visible;"/>
		</clipPath>
		<path id="XMLID_103_" class="st23" d="M149.4,262.9l1.8,0.5c0.7,0.2,1,0.1,1.2-0.5l0.2,0l-0.6,2.3l-0.2-0.1c0.1-0.5,0.1-0.8-0.8-1
			l-3.9-1.1c-0.8-0.2-1-0.1-1.2,0.4l-0.2-0.1l0.6-2.3l0.2,0.1c-0.1,0.5,0,0.8,0.8,1l1.8,0.5l1-3.4l-1.8-0.5c-0.8-0.2-1-0.1-1.2,0.4
			l-0.2-0.1l0.6-2.2l0.2,0.1c-0.1,0.5,0.1,0.8,0.8,1l3.9,1.1c0.7,0.2,1,0.1,1.2-0.4l0.2,0.1l-0.6,2.2l-0.2-0.1
			c0.1-0.5,0.1-0.8-0.8-1l-1.8-0.5L149.4,262.9L149.4,262.9z"/>
	</g>
	<g id="XMLID_105_">
		<defs>
			<rect id="XMLID_104_" x="67.5" y="206.4" width="365" height="87.3"/>
		</defs>
		<clipPath id="XMLID_383_">
			<use xlink:href="#XMLID_104_"  style="overflow:visible;"/>
		</clipPath>
		<path id="XMLID_106_" class="st24" d="M71.3,250.6c0,0.3-0.3,0.6-0.6,0.6c-0.3,0-0.6-0.3-0.6-0.6c0-0.3,0.3-0.6,0.6-0.6
			C71,250,71.3,250.3,71.3,250.6"/>
	</g>
	<g id="XMLID_108_">
		<defs>
			<rect id="XMLID_107_" x="67.5" y="206.4" width="365" height="87.3"/>
		</defs>
		<clipPath id="XMLID_384_">
			<use xlink:href="#XMLID_107_"  style="overflow:visible;"/>
		</clipPath>
		<path id="XMLID_109_" class="st25" d="M152.1,250.6c0,0.3-0.3,0.6-0.6,0.6c-0.3,0-0.6-0.3-0.6-0.6c0-0.3,0.3-0.6,0.6-0.6
			C151.9,250.1,152.1,250.3,152.1,250.6"/>
	</g>
	<g id="XMLID_111_">
		<defs>
			<rect id="XMLID_110_" x="67.5" y="206.4" width="365" height="87.3"/>
		</defs>
		<clipPath id="XMLID_385_">
			<use xlink:href="#XMLID_110_"  style="overflow:visible;"/>
		</clipPath>
		<path id="XMLID_112_" class="st26" d="M127.7,280c0.4-0.3,0.9-0.5,1.3-0.8l1.1-0.7l1-0.8l1.1-0.8l0.2-0.2l0.3-0.1
			c0.3-0.2,0.6-0.5,0.9-0.8l0.6-0.7l0.8-0.6c0.1-0.1,0.1-0.2,0.3-0.3c0.2-0.2,0.4-0.4,0.6-0.6l0.4-0.5c0.4-0.4,0.9-0.9,1.2-1.4
			l0.9-1.1c0.2-0.3,0.4-0.6,0.6-0.8l0.3-0.3l1-1.4c0.1-0.1,0.1-0.3,0.3-0.5c0.1-0.1,0.1-0.2,0.2-0.3c0.1-0.1,0.1-0.3,0.2-0.4
			l0.6-1.2c0.2-0.3,0.3-0.6,0.5-0.8c0.1-0.3,0.2-0.6,0.3-0.9c0.1-0.3,0.3-0.6,0.4-0.9c0.5-1.3,1-2.7,1.4-4.1c0-0.2,0-0.3,0.1-0.5
			c0.1-0.5,0.3-1,0.3-1.5l0.1-0.8c0.1-0.5,0.2-0.9,0.2-1.3l0.1-1.1l0.1-0.4l0.1-0.9l0.1-0.5v-0.6c0.1-1.4,0.1-2.8,0-4.1
			c-0.1-0.7-0.2-1.4-0.3-2c-0.1-0.7-0.1-1.4-0.3-2.1c-0.4-1.9-0.9-3.7-1.6-5.5c-0.1-0.3-0.3-0.5-0.3-0.8c-0.2-0.5-0.5-1-0.7-1.5
			l-0.3-0.4c-0.2-0.4-0.3-0.9-0.6-1.3c-0.2-0.3-0.3-0.5-0.5-0.7l-0.4-0.8c-0.5-0.8-1-1.5-1.5-2.2l-0.6-0.6l-0.6-0.8
			c-0.2-0.2-0.4-0.4-0.6-0.6c-0.1-0.1-0.2-0.3-0.3-0.4c-0.1-0.2-0.3-0.3-0.5-0.5l-0.3-0.3c-0.3-0.3-0.5-0.5-0.7-0.8l-0.6-0.6
			l-0.6-0.6l-0.9-0.7l-0.9-0.8c-0.2-0.2-0.4-0.3-0.6-0.4l-0.8-0.6c-0.2-0.1-0.4-0.3-0.5-0.4l-0.4-0.3l-0.6-0.4
			c-0.6-0.4-1.3-0.7-1.9-1c-0.2-0.1-0.5-0.3-0.7-0.4c-0.4-0.2-0.8-0.4-1.2-0.6l-1-0.4c-0.2-0.1-0.3-0.2-0.5-0.3l-0.4-0.2
			c-0.3,0-0.4-0.1-0.7-0.2c-0.6-0.2-1.3-0.4-1.9-0.6c-0.3-0.1-0.6-0.2-0.9-0.3c-0.7-0.2-1.4-0.3-2-0.4c-0.5-0.1-0.9-0.2-1.4-0.3
			l-0.9-0.1c-0.5-0.1-1-0.2-1.6-0.3l-0.6,0l-0.4-0.1l-0.8,0c-0.6-0.1-1.3-0.1-1.9-0.1c-0.3,0.1-0.6,0-0.8,0h-0.9l-0.3,0l-0.7,0
			l-0.4,0.1l-0.4,0.1c-0.1,0-0.2,0-0.3,0l-0.2,0c-0.1,0-0.3,0-0.4,0.1c-0.3,0-0.8,0.1-1,0.2l-0.2,0c-0.2,0-0.5,0-0.6,0.1
			c-0.5,0-1,0.2-1.4,0.3c-0.3,0.1-0.6,0.1-0.8,0.2c-0.2,0-0.5,0.1-0.6,0.2c-0.3,0-0.6,0.2-0.9,0.3c-0.2,0.1-0.4,0.1-0.5,0.2
			c-0.3,0-0.6,0.2-0.9,0.3l-0.6,0.3c-1,0.4-2,0.9-3,1.4c-0.2,0.1-0.3,0.2-0.5,0.3c-1.2,0.7-2.3,1.3-3.3,2.2
			c-0.3,0.2-0.6,0.4-0.9,0.7c-0.2,0.1-0.3,0.3-0.5,0.4c-0.3,0.2-0.6,0.4-0.9,0.7c-0.6,0.5-1.2,1.1-1.7,1.6c-0.3,0.3-0.7,0.6-1,0.9
			c-0.1,0.2-0.2,0.3-0.3,0.4c-0.2,0.2-0.3,0.3-0.5,0.5c-0.3,0.3-0.4,0.6-0.6,0.8c-0.2,0.2-0.4,0.4-0.6,0.6l-0.3,0.3
			c-0.4,0.4-0.7,0.8-1,1.2l-0.6,1c-0.3,0.4-0.6,0.9-0.9,1.3c-0.1,0.2-0.1,0.3-0.2,0.4l-0.6,1c-0.2,0.4-0.3,0.8-0.5,1.1l-0.2,0.3
			c-0.2,0.3-0.3,0.6-0.5,1c-0.1,0.2-0.2,0.4-0.3,0.6c-0.1,0.2-0.2,0.4-0.3,0.6l-0.3,0.7c-0.1,0.3-0.2,0.5-0.3,0.8
			c-0.5,1.7-0.9,3.3-1.3,5l-0.1,1c0,0.4-0.2,0.8-0.2,1.2c0,0.3,0,0.6-0.1,0.9c0,0.2-0.1,0.5-0.1,0.7c-0.1,1.4,0,2.8,0,4.1
			c0,0.6,0.1,1.3,0.2,2l0.1,0.8c0.1,0.9,0.3,1.8,0.4,2.6c0.1,0.2,0.1,0.4,0.2,0.7c0.1,0.7,0.3,1.3,0.5,2l0.2,0.5
			c0,0.1,0.1,0.3,0.1,0.5l0.8,2.2c0.2,0.3,0.3,0.5,0.4,0.8c0.1,0.2,0.1,0.4,0.2,0.6c0.2,0.5,0.5,0.9,0.7,1.3
			c0.2,0.4,0.4,0.7,0.6,1.1c0,0.1,0,0.3,0.1,0.4c0,0.1,0.1,0.1,0.2,0.3c0.1,0.1,0.1,0.3,0.2,0.5c0.2,0.3,0.4,0.6,0.6,0.9l0.4,0.5
			c0.2,0.2,0.4,0.5,0.6,0.7l0.4,0.6c0.3,0.3,0.5,0.6,0.8,0.9c0.2,0.3,0.4,0.5,0.6,0.8c0.3,0.3,0.5,0.5,0.8,0.8
			c0.2,0.3,0.4,0.5,0.6,0.8c0.3,0.3,0.6,0.6,1,0.9l0.5,0.5c0.3,0.3,0.6,0.4,0.9,0.6l0.8,0.8l0.6,0.4c0.2,0.2,0.4,0.4,0.7,0.6
			l0.9,0.6c0.2,0.1,0.4,0.2,0.6,0.3c0.2,0.2,0.5,0.3,0.7,0.5l0.7,0.4c0.9,0.5,1.8,1,2.7,1.4c0.4,0.2,0.8,0.4,1.2,0.6
			c0.4,0.2,0.8,0.3,1.2,0.5c0.1,0.1,0.3,0.1,0.4,0.1c0.4,0.1,0.8,0.3,1.2,0.4l0.3,0.1c0.3,0.1,0.7,0.3,1,0.4l1.3,0.3
			c0.6,0.1,1.3,0.3,1.9,0.4c0.3,0,0.5,0.1,0.7,0.1c0.3,0,0.6,0.1,1,0.1l0.8,0.1l0.5,0.1c0.2,0,0.3,0,0.5,0c0.4,0.1,0.8,0.1,1.2,0.2
			c0.2,0,0.4,0,0.6,0l0.4-0.1c0.4,0,0.8,0.1,1.2,0.1c0.2,0,0.4,0,0.6,0c0.5,0,0.9-0.1,1.3-0.1h0.6c0.3,0,0.5-0.1,0.8-0.1
			c0.9-0.1,1.8-0.2,2.7-0.4c0.3-0.1,0.6-0.1,0.9-0.3l1.2-0.3c0.2-0.1,0.3-0.1,0.5-0.2c0.3-0.1,0.6-0.2,0.9-0.3l0.4-0.1l0.6-0.2
			c0.5-0.1,0.9-0.3,1.4-0.5l0.8-0.4c0.3-0.1,0.5-0.2,0.8-0.3l0.2-0.1c0.3-0.2,0.5-0.3,0.8-0.4l0.9-0.5
			C127.3,280.1,127.5,280.1,127.7,280"/>
	</g>
	<g id="XMLID_114_">
		<defs>
			<rect id="XMLID_113_" x="67.5" y="206.4" width="365" height="87.3"/>
		</defs>
		<clipPath id="XMLID_386_">
			<use xlink:href="#XMLID_113_"  style="overflow:visible;"/>
		</clipPath>
		<path id="XMLID_115_" class="st27" d="M110.8,281.3L110.8,281.3L110.8,281.3l-0.1-0.1l-0.3-0.6l-0.7-0.8c-0.7-0.7-1.6-1.3-2.4-1.7
			l-0.6-0.2c-0.2-0.1-0.4-0.2-0.6-0.3c-0.2-0.1-0.4-0.1-0.6-0.1c-0.2-0.1-0.4-0.1-0.7-0.2l-1.4-0.3c-0.4-0.1-0.9-0.1-1.3-0.2
			c-0.4,0-0.7,0-1,0c-1.6-0.2-3.2-0.3-4.8-0.6c-0.5-0.1-1.1-0.1-1.6-0.2c-0.5-0.1-1-0.3-1.5-0.4c-0.3-0.1-0.6-0.1-0.8-0.3
			c-0.3-0.1-0.5-0.2-0.8-0.3c-0.2-0.1-0.4-0.2-0.5-0.3c-0.1-0.1-0.3-0.2-0.4-0.3l-0.2-0.1c-0.4-0.3-0.8-0.8-1.1-1.2
			c-0.3-0.3-0.4-0.7-0.5-1.1c0-0.2-0.1-0.4-0.2-0.6c-0.2-0.9-0.2-1.8-0.2-2.8c0-0.2,0-0.4,0-0.6c0-0.7,0.1-1.5,0.1-2.2l0-0.5l0-2.2
			c0-0.5,0.1-0.9,0-1.4c0-1.9,0-3.9,0.1-5.9l-0.1-0.8l0-0.9l0-0.4l0.1-1.3c0-0.3,0-0.7,0-1c0-0.3,0.1-0.5,0-0.7
			c0-0.2-0.1-0.4-0.1-0.6c0-0.2,0-0.4,0-0.6l0-1.2c0-0.2,0.1-0.5,0-0.7c0-0.3-0.1-0.5-0.1-0.8c0-0.3,0-0.7,0.1-1c0-0.3,0-0.6,0-0.9
			l0-2.1l0-0.4l-0.1-0.9l0.1-0.8c0-1.2,0-2.5,0.1-3.7v-1.3c0-0.3-0.1-0.6-0.1-0.9c0-0.2,0-0.4,0-0.6l0-3.2c0-0.4,0-0.7,0-1.1l0-1.3
			l0-0.9c0-0.3-0.1-0.6,0-0.8l0.1-0.1c0.6-0.1,1.1-0.1,1.6-0.1c0.6,0.1,1.2,0,1.7,0h1.6c0.3,0,0.6,0,0.9-0.1c0.6,0,1.2,0,1.7,0h2.8
			c0.3,0,0.6,0,0.9,0c0.3,0,0.5,0.1,0.8,0.1h0.9c0.5,0,1,0,1.5,0l0.7,0.1c0.7,0,1.4,0,2.1-0.1l1.4,0.1c0.4,0,0.8-0.1,1.2-0.1l0.9,0
			l0.8,0l0.9,0.1c0.3,0,0.5,0,0.7,0l1.4,0.1c0.2,0,0.4,0,0.6-0.1c1.3,0,2.5,0,3.8,0l0.8-0.1c0.6,0,1.2,0,1.7,0l0.3,0
			c0.5,0.1,1,0,1.6,0c0.2,0,0.4,0.1,0.6,0.1c0.2,0,0.5,0,0.7,0c0.4,0,0.8,0.1,1.2,0.1c0.3,0,0.5-0.1,0.8-0.1l0.6,0.1l0.8,0l0.6,0.1
			l0.5,0c0.2,0,0.3,0,0.5,0l0.5,0l0.9,0c0.5,0,1,0,1.5,0l0.7-0.1c0.2,0,0.3,0,0.5,0c0.1,0,0.3,0,0.5,0l0,0c0.1,0.2,0,0.4,0,0.7
			c0,0.6,0,1.3,0,2c0,0.4,0,0.9,0,1.3l0,0.4c0,0.3,0,0.6,0,0.9l-0.1,0.9l0.1,1.2l-0.1,0.4c0,0.3,0.1,0.5,0.1,0.8l-0.1,0.8l0,0.9
			l-0.1,0.7l0.1,1.2c-0.1,0.1-0.1,0.3-0.1,0.4c0,0.3-0.1,0.6,0,0.9c0,0.6,0.1,1.2,0.1,1.7l-0.1,0.4c0,0.3,0,0.5,0,0.8
			c0,0.3-0.1,0.6-0.1,0.9c0,0.2,0.1,0.4,0.1,0.7l-0.1,0.4c0,0.2,0,0.3,0,0.5c0,0.6-0.1,1.2-0.1,1.8c0,0.3,0,0.6,0,0.9l0.1,0.3l0,0.6
			l0,0.4l-0.1,0.6c0,0.3,0.1,0.6,0.1,0.9c0,0.9-0.1,1.7-0.1,2.6c0,0.4,0.1,0.7,0.1,1c0,0.2-0.1,0.4-0.1,0.6c0,0.4,0,0.8,0,1.2l0,0.7
			c0,0.8,0,1.7,0,2.5c0,0.6-0.1,1.2-0.1,1.8l0.1,0.9c0,0.1,0,0.3,0,0.4v0.7l0,1.6c0,0.6,0,1.3,0,1.9l0,0.5l0.1,0.3
			c0,0.4,0,0.8-0.1,1.2c0,0.3,0,0.6,0,1c0,0.2-0.1,0.4-0.1,0.6c0,0.2,0,0.4-0.1,0.6c-0.1,0.4-0.3,0.9-0.5,1.2
			c-0.2,0.3-0.4,0.4-0.7,0.6c-0.1,0.1-0.3,0.2-0.4,0.3c-0.3,0.2-0.5,0.4-0.8,0.6c-0.2,0.1-0.4,0.1-0.6,0.2c-0.4,0.1-0.8,0.3-1.2,0.5
			c-0.3,0.1-0.7,0.2-1.1,0.4l-0.3,0.1c-0.2,0-0.4,0.1-0.6,0.2c-0.2,0-0.3,0-0.5,0.1c-0.3,0-0.4,0.1-0.6,0.1l-0.2,0.1
			c-0.1,0-0.2,0-0.3,0.1c-0.2,0-0.6,0.1-0.8,0.2c-0.2,0-0.4,0-0.5,0c-0.1,0-0.2,0-0.3,0.1c-0.2,0-0.3,0-0.5,0.1h-0.3
			c-0.1,0-0.3,0-0.4,0.1c-0.1,0-0.3,0-0.3,0.1c-0.2,0-0.5,0-0.7,0l-0.3,0c-0.2,0-0.4-0.1-0.6,0c-0.1,0-0.3,0-0.4,0h-0.2
			c-0.2,0-0.4,0-0.6,0l-0.3,0l-0.2,0l-0.2,0h-0.3l-0.3,0.1l-0.3,0c-0.1,0-0.3,0-0.4,0.1c-0.1,0-0.3,0-0.4,0.1c-0.1,0-0.2,0-0.3,0.1
			l-0.3,0l-0.2,0c-0.1,0-0.4,0.1-0.5,0.1l-0.3,0c-0.3,0-0.6,0.1-0.8,0.3c-0.2,0.1-0.4,0.1-0.6,0.2c-0.4,0-0.8,0.4-1.1,0.6
			c-0.3,0.2-0.6,0.3-0.8,0.6C111.6,279.6,111.2,280.4,110.8,281.3"/>
	</g>
	<g id="XMLID_117_">
		<defs>
			<rect id="XMLID_116_" x="67.5" y="206.4" width="365" height="87.3"/>
		</defs>
		<clipPath id="XMLID_387_">
			<use xlink:href="#XMLID_116_"  style="overflow:visible;"/>
		</clipPath>
		<path id="XMLID_118_" class="st28" d="M114.1,277.1c0.2-0.1,0.3-0.1,0.5-0.2c0.4-0.1,0.8-0.2,1.2-0.3c0.7-0.1,1.4-0.3,2.1-0.5h0.5
			c0.3-0.1,0.6-0.1,0.8-0.2l1.2-0.1c0.4,0,0.9-0.1,1.4-0.2l1.2-0.1c0.4-0.1,0.7-0.1,1.1-0.2l0.3,0c0.6-0.1,1.1-0.2,1.6-0.3
			c0.2-0.1,0.4-0.1,0.5-0.1c0.5-0.1,1-0.3,1.5-0.5c0.4-0.1,0.8-0.3,1.2-0.4c0.3-0.1,0.6-0.4,0.9-0.6c0.6-0.4,1.2-0.8,1.5-1.3
			c0.1-0.3,0.3-0.7,0.3-1c0-0.1,0-0.3,0-0.4c0.1-0.6,0.1-1.4,0.1-2c0-0.3,0-0.5,0-0.7c0-0.1,0-0.3,0-0.4v-0.8l-0.1-0.3v-0.3v-0.3
			c0-0.2,0-0.3,0-0.5c0-0.2-0.1-0.3-0.1-0.5c0-0.2,0-0.4,0-0.6c0-0.8,0-1.6,0-2.3l0-0.6l0-2c0.1-1.9,0-3.9,0.1-5.8
			c0-0.2,0-0.4,0-0.6l0-0.2c0-0.1,0.1-0.3,0-0.5c0-0.1,0-0.2,0-0.3c0-0.1,0.1-0.3,0.1-0.5c0-0.3-0.1-0.6-0.1-1c0-0.3,0-0.5,0.1-0.7
			c0-0.1,0-0.2,0-0.3l0.1-0.3l-0.1-0.4l0.1-0.4c0-0.1-0.1-0.3-0.1-0.4l0-2.4c0-0.2,0.1-0.3,0.1-0.5c0-0.2-0.1-0.3-0.1-0.5l0.1-0.3
			l0.1-0.8l0-1.3l-0.1-0.4c0-0.3,0.1-0.6,0.1-0.9l-0.1-0.7c0-1.9-0.1-3.8,0-5.7c0-1,0-2.1,0-3.2c0-0.6,0-1.2,0-1.7
			c0-0.6,0-1.1,0-1.6h-0.3l-1.7,0c-0.4,0-0.7-0.1-1.1-0.1c-0.1,0-0.3,0-0.3,0l-0.4,0.1l-0.6-0.1l-2.1,0c-0.2,0-0.7,0-0.8,0h-1
			c-0.3,0-0.7-0.2-1,0l-0.3,0c-0.3,0-0.5,0-0.8,0c-0.4,0-0.8-0.1-1.2-0.1c-0.3,0.1-0.7-0.1-1,0.1c-0.1,0-0.1,0-0.3,0h-0.9
			c-0.2,0-0.4,0-0.5,0l-0.3,0c-0.3,0-0.5-0.1-0.7-0.1l-1.9,0c-0.2,0-0.6-0.1-0.8,0l-0.1,0.1l-0.3,0c-0.3,0-0.9-0.2-1.2-0.1l-0.2,0
			c-0.1,0-0.3,0-0.4,0.1l-2.7,0h-0.7c-0.1,0-0.3-0.1-0.4,0c-0.2,0-0.4,0-0.7,0c-0.3,0-1-0.1-1.3,0h-0.6c-0.1,0-0.3-0.1-0.4,0
			c-0.2,0-0.4,0-0.6,0c-0.4,0-0.7-0.1-1-0.1c-0.1,0-0.3,0-0.4,0c-0.2,0-0.5-0.1-0.7,0h-1c-0.2,0-0.4,0-0.5,0c-0.4,0-0.8,0-1.3,0
			c-0.3,0-0.8-0.1-1,0c-0.3,0-0.7-0.1-0.9,0c-0.6,0-1.1,0-1.6-0.1c-0.2,0-0.5-0.1-0.7,0c-0.1,0-0.3,0-0.3,0c-0.2,0-0.5-0.1-0.7,0
			c-0.2,0-0.5-0.1-0.6,0c-0.7,0-1.5,0-2.2-0.1c-0.2,0-0.5-0.1-0.7,0c-0.3,0-0.9-0.1-1.1,0c-0.1,0-0.4-0.1-0.5,0
			c-0.2,0.3-0.1,1-0.1,1.3v2l-0.1,2.3c0,0.2-0.1,0.4-0.1,0.6l0,0.6l-0.1,0.6c0.1,0.4,0.1,0.9,0.1,1.2c0,0.7-0.1,1.4-0.1,2.1
			c0,0.3,0,0.6,0,0.8l0,0.3c0,0.2-0.1,0.3-0.1,0.5c0,1.2,0,2.4,0,3.6l0,1.6c0,0.3-0.1,0.5-0.1,0.8l0,1.2l0,2.4c0,0.3,0,0.6,0,0.8
			l-0.1,1.1l0,4.3c0,0.3-0.1,0.6-0.1,1v1.1c0,0.2,0,0.3,0,0.5c0,1.3-0.1,2.5-0.1,3.8c0,0.6-0.1,1.1-0.1,1.7v0.8L89,265l-0.1,0.3
			c0,0.3,0,0.6,0,0.9c0,0.3,0,0.7,0,1.1c0,0.2,0.1,0.3,0.1,0.5s-0.1,0.3-0.1,0.4c0,0.2,0.1,0.4,0.1,0.6c0,1.5,0,3,0.7,4.2
			c0.5,0.8,1.4,1.3,2.2,1.7c0.6,0.3,1.2,0.5,1.8,0.7c0.4,0.1,0.9,0.2,1.4,0.3l1.1,0.2c0.4,0,0.7,0,1.1,0.1c0.8,0.1,1.5,0.2,2.3,0.3
			c0.4,0,0.8,0.1,1.1,0.1c0.1,0,0.3,0.1,0.5,0.1h0.8l0.9,0.1c0.1,0,0.3,0,0.5,0c0.1,0.1,0.3,0.1,0.4,0.1l1.2,0.2l0.4,0.1
			c0.3,0.1,0.5,0.1,0.8,0.3c0.4,0.1,0.8,0.3,1.2,0.4l0.8,0.4l0.4,0.3c0.3,0.2,0.6,0.3,0.9,0.5c0.3,0.3,0.6,0.6,0.9,1
			c0.1,0.1,0.2,0.3,0.3,0.3l0.1,0l0.2-0.2l0.2-0.3c0.6-1,1.6-1.7,2.6-2.2C113.8,277.2,114,277.1,114.1,277.1"/>
	</g>
	<g id="XMLID_120_">
		<defs>
			<rect id="XMLID_119_" x="67.5" y="206.4" width="365" height="87.3"/>
		</defs>
		<clipPath id="XMLID_388_">
			<use xlink:href="#XMLID_119_"  style="overflow:visible;"/>
		</clipPath>
		<path id="XMLID_121_" class="st29" d="M114.3,231.6L114.3,231.6l-0.1-0.3c0.1-0.3,0.3-0.4,0.4-0.7
			C114.9,230.9,114.5,231.4,114.3,231.6"/>
	</g>
	<g id="XMLID_123_">
		<defs>
			<rect id="XMLID_122_" x="67.5" y="206.4" width="365" height="87.3"/>
		</defs>
		<clipPath id="XMLID_389_">
			<use xlink:href="#XMLID_122_"  style="overflow:visible;"/>
		</clipPath>
		<path id="XMLID_124_" class="st30" d="M115.8,229.1c0.1-0.1,0.2-0.3,0.3-0.4l0.3-0.3c0.2,0,0.4,0.1,0.6,0.1v0.1
			c-0.3,0-1.2,1.1-1.4,1.3c-0.1,0.1-0.2,0.4-0.3,0.4l-0.3-0.1c-0.2-0.1-0.1-0.3,0-0.5l0.1-0.3l0.3-0.1L115.8,229.1"/>
	</g>
	<g id="XMLID_126_">
		<defs>
			<rect id="XMLID_125_" x="67.5" y="206.4" width="365" height="87.3"/>
		</defs>
		<clipPath id="XMLID_390_">
			<use xlink:href="#XMLID_125_"  style="overflow:visible;"/>
		</clipPath>
		<path id="XMLID_127_" class="st31" d="M113.8,229.8c0.1-0.1,0.1-0.3,0.1-0.5c0.1-0.2,0.3-0.2,0.5-0.4c0.2-0.1,0.2-0.3,0.3-0.4
			c0.1-0.1,0.3-0.2,0.4-0.2h0.4c0,0.1-0.2,0.3-0.3,0.4c-0.1,0.2-0.2,0.4-0.3,0.5c-0.1,0.2-0.2,0.3-0.3,0.5c-0.1,0.1-0.1,0.3-0.2,0.4
			l-0.2,0.2l-0.2,0.2l-0.2,0.2c-0.1,0.2-0.1,0.4-0.3,0.5c-0.1,0.1-0.4,0.2-0.6,0.1h-0.1l0.5-0.8l0.3-0.2l0.1-0.3
			C113.6,230,113.8,229.9,113.8,229.8"/>
	</g>
	<g id="XMLID_129_">
		<defs>
			<rect id="XMLID_128_" x="67.5" y="206.4" width="365" height="87.3"/>
		</defs>
		<clipPath id="XMLID_391_">
			<use xlink:href="#XMLID_128_"  style="overflow:visible;"/>
		</clipPath>
		<path id="XMLID_130_" class="st32" d="M111.6,229.4c0-0.1,0.2-0.3,0.2-0.4c0.1-0.2,0-0.3,0.1-0.5c0.1-0.2,0.9,0,1.1-0.2h0.5v0.1
			l0,0.1c-0.2,0.3-0.3,0.7-0.5,1.1l-0.2,0.4l-0.2,0.4c-0.1,0.3-0.5,0.8-0.9,0.8l0-0.3c0-0.1-0.1-0.3-0.1-0.4c0-0.2,0.1-0.3,0.1-0.4
			C111.6,229.8,111.5,229.6,111.6,229.4"/>
	</g>
	<g id="XMLID_132_">
		<defs>
			<rect id="XMLID_131_" x="67.5" y="206.4" width="365" height="87.3"/>
		</defs>
		<clipPath id="XMLID_392_">
			<use xlink:href="#XMLID_131_"  style="overflow:visible;"/>
		</clipPath>
		<path id="XMLID_133_" class="st33" d="M109.2,228.4c0.1-0.1,0.5-0.1,0.7-0.1c0.2,0.1,0.7,0.1,0.9,0.1l0,0.4c0,0.1,0.1,0.2,0.1,0.3
			l-0.1,0.3c0,0.5-0.1,0.9-0.1,1.4l0.1,0.8h0v0c-0.4,0-0.8-1.2-1-1.4c-0.1-0.2-0.2-0.3-0.3-0.4C109.2,229.5,108.8,228.7,109.2,228.4
			"/>
	</g>
	<g id="XMLID_136_">
		<defs>
			<rect id="XMLID_135_" x="67.5" y="206.4" width="365" height="87.3"/>
		</defs>
		<clipPath id="XMLID_393_">
			<use xlink:href="#XMLID_135_"  style="overflow:visible;"/>
		</clipPath>
		<path id="XMLID_137_" class="st34" d="M106.7,228.6c0.1-0.2,0.5-0.2,0.7-0.3c0.2,0,0.4,0,0.5,0.1c0.4,0.2,0.6,0.8,0.8,1.2l0.4,0.8
			l0.3,0.4c0.1,0.1,0.1,0.3,0.1,0.4c0,0.1,0,0.3-0.1,0.4l-0.3,0C108.9,231.5,106.7,228.8,106.7,228.6L106.7,228.6"/>
	</g>
	<g id="XMLID_142_">
		<defs>
			<rect id="XMLID_141_" x="67.5" y="206.4" width="365" height="87.3"/>
		</defs>
		<clipPath id="XMLID_394_">
			<use xlink:href="#XMLID_141_"  style="overflow:visible;"/>
		</clipPath>
		<path id="XMLID_143_" class="st35" d="M105.6,228.3c0.2,0.1,0.3,0.1,0.5,0.3c0.3,0.2,0.4,0.5,0.6,0.8c0.1,0.2,0.1,0.3,0.3,0.4
			c0.2,0.2,0.3,0.3,0.5,0.5c0.1,0.2,0.3,0.3,0.4,0.5l0.1,0.2l0.3,0.3c0.2,0.2,0.4,0.4,0.5,0.7l-0.1,0.1c-0.2,0-0.4,0-0.5-0.1
			l-0.6-0.6c-0.1-0.1-0.3-0.2-0.4-0.3c-0.2-0.3-0.4-0.6-0.6-0.9c-0.1-0.1-0.3-0.2-0.5-0.3l0,0c-0.1-0.2-0.2-0.4-0.3-0.6
			c-0.1-0.2-0.4-0.3-0.5-0.5v-0.1C105.2,228.4,105.4,228.4,105.6,228.3"/>
	</g>
	<g id="XMLID_149_">
		<defs>
			<rect id="XMLID_144_" x="67.5" y="206.4" width="365" height="87.3"/>
		</defs>
		<clipPath id="XMLID_395_">
			<use xlink:href="#XMLID_144_"  style="overflow:visible;"/>
		</clipPath>
		<path id="XMLID_150_" class="st36" d="M112.3,234.6l0.3,0c0.3,0.1,0.5,0.5,0.4,0.8c-0.1,0.1-0.2,0.3-0.3,0.4l-0.3,0.2
			c-0.2,0-0.1-0.4-0.1-0.5c0-0.2,0.2-0.2,0.2-0.3C112.4,234.8,112.2,234.7,112.3,234.6"/>
	</g>
	<g id="XMLID_152_">
		<defs>
			<rect id="XMLID_151_" x="67.5" y="206.4" width="365" height="87.3"/>
		</defs>
		<clipPath id="XMLID_396_">
			<use xlink:href="#XMLID_151_"  style="overflow:visible;"/>
		</clipPath>
		<path id="XMLID_153_" class="st37" d="M112.7,233.3c-0.1,0.1-0.2,0.2-0.3,0.2c-0.2,0-0.3-0.3-0.4-0.4c-0.1-0.1-0.4-0.2-0.4-0.4
			c0-0.1,0.1-0.1,0.2-0.2v0c0.2,0.1,0.3,0.2,0.5,0.2c0.2,0.1,0.4,0.1,0.6,0.2l0,0.1C112.9,233.2,112.8,233.3,112.7,233.3"/>
	</g>
	<g id="XMLID_155_">
		<defs>
			<rect id="XMLID_154_" x="67.5" y="206.4" width="365" height="87.3"/>
		</defs>
		<clipPath id="XMLID_397_">
			<use xlink:href="#XMLID_154_"  style="overflow:visible;"/>
		</clipPath>
		<path id="XMLID_156_" class="st38" d="M112.3,237c-0.1,0.2-0.5,0.3-0.7,0.2c-0.3-0.1,0.2-0.5,0.3-0.6
			C112,236.7,112.3,236.8,112.3,237"/>
	</g>
	<g id="XMLID_158_">
		<defs>
			<rect id="XMLID_157_" x="67.5" y="206.4" width="365" height="87.3"/>
		</defs>
		<clipPath id="XMLID_398_">
			<use xlink:href="#XMLID_157_"  style="overflow:visible;"/>
		</clipPath>
		<path id="XMLID_159_" class="st39" d="M111,236.8l-0.2-0.1l-0.2-0.1c-0.1-0.2-0.1-0.3-0.1-0.6c0-0.1,0-0.3,0-0.4l0.2-0.2
			c0.1,0,0.2,0,0.3,0.1l0.7,0.7C111.7,236.5,111.2,236.8,111,236.8"/>
	</g>
	<g id="XMLID_161_">
		<defs>
			<rect id="XMLID_160_" x="67.5" y="206.4" width="365" height="87.3"/>
		</defs>
		<clipPath id="XMLID_399_">
			<use xlink:href="#XMLID_160_"  style="overflow:visible;"/>
		</clipPath>
		<path id="XMLID_162_" class="st40" d="M114.5,234.9c0,0.2-0.1,0.4-0.3,0.5h-0.1C114.1,235.2,114.3,235,114.5,234.9L114.5,234.9
			L114.5,234.9z"/>
	</g>
	<g id="XMLID_164_">
		<defs>
			<rect id="XMLID_163_" x="67.5" y="206.4" width="365" height="87.3"/>
		</defs>
		<clipPath id="XMLID_400_">
			<use xlink:href="#XMLID_163_"  style="overflow:visible;"/>
		</clipPath>
		<path id="XMLID_165_" class="st41" d="M113.9,234.5c-0.1,0.1-0.1,0.1-0.3,0.1s-0.1-0.1-0.2-0.2c0-0.1,0-1,0-1.2l0.3-0.3
			c0.2,0.1,0.2,0.2,0.3,0.4C114.2,233.9,114.3,234.3,113.9,234.5"/>
	</g>
	<g id="XMLID_167_">
		<defs>
			<rect id="XMLID_166_" x="67.5" y="206.4" width="365" height="87.3"/>
		</defs>
		<clipPath id="XMLID_401_">
			<use xlink:href="#XMLID_166_"  style="overflow:visible;"/>
		</clipPath>
		<path id="XMLID_168_" class="st42" d="M113.6,236.3L113.6,236.3c0,0.2-0.4,0.4-0.5,0.3c-0.2-0.2,0.1-0.3,0.2-0.4
			C113.4,236.1,113.5,236.1,113.6,236.3"/>
	</g>
	<g id="XMLID_170_">
		<defs>
			<rect id="XMLID_169_" x="67.5" y="206.4" width="365" height="87.3"/>
		</defs>
		<clipPath id="XMLID_402_">
			<use xlink:href="#XMLID_169_"  style="overflow:visible;"/>
		</clipPath>
		<path id="XMLID_171_" class="st43" d="M110.9,233.1h0.3c0.2,0.1,0.8,0.5,0.7,0.8c-0.1,0.2-0.3,0.3-0.4,0.5
			c-0.2,0.1-0.3,0.3-0.6,0.3c-0.2,0-0.5-1-0.5-1.2L110.9,233.1L110.9,233.1"/>
	</g>
	<g id="XMLID_173_">
		<defs>
			<rect id="XMLID_172_" x="67.5" y="206.4" width="365" height="87.3"/>
		</defs>
		<clipPath id="XMLID_403_">
			<use xlink:href="#XMLID_172_"  style="overflow:visible;"/>
		</clipPath>
		<path id="XMLID_174_" class="st44" d="M110.1,235.5c-0.1,0.1-0.3,0.3-0.4,0.3c-0.1,0-0.2-0.1-0.3-0.1c-0.2-0.2-0.3-0.5-0.3-0.8
			l0.1-0.3c0.1-0.3,0.1-0.3,0.3-0.5c0.3,0.1,1,0.6,0.9,1C110.4,235.3,110.2,235.4,110.1,235.5"/>
	</g>
	<g id="XMLID_176_">
		<defs>
			<rect id="XMLID_175_" x="67.5" y="206.4" width="365" height="87.3"/>
		</defs>
		<clipPath id="XMLID_404_">
			<use xlink:href="#XMLID_175_"  style="overflow:visible;"/>
		</clipPath>
		<path id="XMLID_177_" class="st45" d="M110.3,237.2L110.3,237.2l-0.2,0c-0.5-0.1-1-0.2-0.6-0.8l0.2,0c0.1,0.1,0.1,0.2,0.2,0.3
			C110,236.9,110.2,237,110.3,237.2"/>
	</g>
	<g id="XMLID_179_">
		<defs>
			<rect id="XMLID_178_" x="67.5" y="206.4" width="365" height="87.3"/>
		</defs>
		<clipPath id="XMLID_405_">
			<use xlink:href="#XMLID_178_"  style="overflow:visible;"/>
		</clipPath>
		<path id="XMLID_180_" class="st46" d="M108.2,233.4l0.3-0.3v0c0.4,0.3,0.7,0.7,0.3,1.1l-0.3,0.2c-0.3,0.1-0.2-0.4-0.2-0.6
			C108.3,233.6,108.2,233.5,108.2,233.4"/>
	</g>
	<g id="XMLID_182_">
		<defs>
			<rect id="XMLID_181_" x="67.5" y="206.4" width="365" height="87.3"/>
		</defs>
		<clipPath id="XMLID_406_">
			<use xlink:href="#XMLID_181_"  style="overflow:visible;"/>
		</clipPath>
		<path id="XMLID_183_" class="st47" d="M108.9,232.8L108.9,232.8l0.2-0.1c0.4-0.1,0.6-0.1,0.9-0.3l0.3,0.1c0.2,0.3-0.6,0.8-0.8,0.8
			C109.2,233.3,109.1,232.9,108.9,232.8"/>
	</g>
	<g id="XMLID_185_">
		<defs>
			<rect id="XMLID_184_" x="67.5" y="206.4" width="365" height="87.3"/>
		</defs>
		<clipPath id="XMLID_407_">
			<use xlink:href="#XMLID_184_"  style="overflow:visible;"/>
		</clipPath>
		<path id="XMLID_186_" class="st48" d="M108.4,235.3l0.2,0c0.1,0.1,0.7,0.6,0.7,0.8c0,0.2-0.4,0.5-0.6,0.5c-0.1,0-0.1-0.1-0.2-0.2
			C108.4,236.1,108.3,235.7,108.4,235.3"/>
	</g>
	<g id="XMLID_188_">
		<defs>
			<rect id="XMLID_187_" x="67.5" y="206.4" width="365" height="87.3"/>
		</defs>
		<clipPath id="XMLID_408_">
			<use xlink:href="#XMLID_187_"  style="overflow:visible;"/>
		</clipPath>
		<path id="XMLID_189_" class="st49" d="M107.8,234.9c-0.3,0.1-0.2-0.5-0.2-0.7C107.8,234.4,108.3,234.9,107.8,234.9"/>
	</g>
	<g id="XMLID_191_">
		<defs>
			<rect id="XMLID_190_" x="67.5" y="206.4" width="365" height="87.3"/>
		</defs>
		<clipPath id="XMLID_409_">
			<use xlink:href="#XMLID_190_"  style="overflow:visible;"/>
		</clipPath>
		<path id="XMLID_192_" class="st50" d="M111.5,266c0-0.1,0.6-1,0.8-1.1l0.2-0.1v0h0.4c0,0.2-0.7,1.2-0.9,1.3
			C111.9,266.1,111.7,266.1,111.5,266L111.5,266L111.5,266z"/>
	</g>
	<g id="XMLID_194_">
		<defs>
			<rect id="XMLID_193_" x="67.5" y="206.4" width="365" height="87.3"/>
		</defs>
		<clipPath id="XMLID_410_">
			<use xlink:href="#XMLID_193_"  style="overflow:visible;"/>
		</clipPath>
		<path id="XMLID_195_" class="st51" d="M107,266c-0.2,0.1-0.4,0-0.6,0c0-0.3,1.1-1.1,1.3-1.3h0.4C108.1,264.9,107.2,265.9,107,266"
			/>
	</g>
	<g id="XMLID_197_">
		<defs>
			<rect id="XMLID_196_" x="67.5" y="206.4" width="365" height="87.3"/>
		</defs>
		<clipPath id="XMLID_411_">
			<use xlink:href="#XMLID_196_"  style="overflow:visible;"/>
		</clipPath>
		<path id="XMLID_198_" class="st52" d="M115.1,271.8c-0.2,0.1-0.4-0.1-0.6-0.2c-0.1-0.1-0.1-0.3-0.2-0.5c-0.1-0.3-0.2-0.6-0.3-0.8
			c-0.1-0.2-0.2-0.4-0.2-0.7c0-0.1,0.1-0.2,0.3-0.3l0.2,0.1l0.1,0.3l0.3,0.8c0.1,0.3,0.2,0.7,0.4,1
			C115.1,271.6,115.2,271.8,115.1,271.8"/>
	</g>
	<g id="XMLID_200_">
		<defs>
			<rect id="XMLID_199_" x="67.5" y="206.4" width="365" height="87.3"/>
		</defs>
		<clipPath id="XMLID_412_">
			<use xlink:href="#XMLID_199_"  style="overflow:visible;"/>
		</clipPath>
		<path id="XMLID_201_" class="st53" d="M114.1,264.7c0.1,0.2,1,1.2,0.9,1.3l-0.1,0.1h-2.1v0h0c0-0.1,0.1-0.2,0.1-0.3
			c0.1-0.3,0.7-1,0.6-1.3l-0.2-0.2c-0.4-0.1-0.8,0-1.2,0c-0.2,0-0.7-0.1-0.9,0c-0.4,0-1.8-0.2-1.9,0.1l0.1,0.3
			c0.1,0.3,0.4,0.6,0.6,0.9c0.1,0.2,0.2,0.3,0.3,0.5v0l-0.1,0c-0.8,0-1.7-0.1-2.5-0.1v0c0,0,1.2-1.4,1.4-1.6l0,0
			c-0.1,0-0.3-0.1-0.4-0.1l-0.8-0.1c-0.7,0-1.5,0-2.1-0.1c0-0.1,1-1.1,1.2-1.2c0.9-0.9,1.8-1.8,2.7-2.7c0.3-0.3,0.6-0.6,0.9-1
			c0.1-0.1,0.2-0.2,0.3-0.3v-0.1c0.2,0.1,0.4,0.3,0.5,0.5c0.3,0.3,0.5,0.6,0.8,0.8c0.2,0.1,0.3,0.3,0.5,0.5c0.8,0.8,1.6,1.6,2.4,2.3
			c0.3,0.3,0.8,0.7,1,1l-0.2,0h-0.8h-0.3c-0.3,0-0.8-0.1-1,0.1C113.8,264.5,114,264.6,114.1,264.7"/>
	</g>
	<g id="XMLID_203_">
		<defs>
			<rect id="XMLID_202_" x="67.5" y="206.4" width="365" height="87.3"/>
		</defs>
		<clipPath id="XMLID_413_">
			<use xlink:href="#XMLID_202_"  style="overflow:visible;"/>
		</clipPath>
		<path id="XMLID_204_" class="st54" d="M105.6,268.1c0.1-0.2,2.4,0,2.8,0c0.6,0,1.2-0.1,1.7-0.1c0.8,0,1.6,0.1,2.4,0.1l1.3,0
			c0.9,0,1.9,0,2.8,0v0l0.1-0.3l0-1.9c0-0.4,0-0.9,0.1-1.3c0.5,0.3,0.4,0.9,0.4,1.4l0,1.1l-0.1,0.6c0,0.3,0.1,0.6,0,0.9v0.1h0h-0.3
			h-1.4c-0.2,0-0.5,0-0.7,0c-0.2,0-0.4,0-0.6,0c-0.5,0-1.1,0-1.6-0.1c-0.3,0-0.6-0.1-0.8,0c-0.4,0-0.8,0-1.2,0l-0.3,0
			c-0.2,0-0.7-0.1-0.9,0c-0.1,0-0.3,0-0.4,0h-1.2c-0.2,0-0.5,0-0.7,0h-0.3l-0.3,0C106.2,268.5,105.8,268.6,105.6,268.1L105.6,268.1"
			/>
	</g>
	<g id="XMLID_206_">
		<defs>
			<rect id="XMLID_205_" x="67.5" y="206.4" width="365" height="87.3"/>
		</defs>
		<clipPath id="XMLID_414_">
			<use xlink:href="#XMLID_205_"  style="overflow:visible;"/>
		</clipPath>
		<path id="XMLID_207_" class="st55" d="M117.1,275.5c-0.1,0.1-0.4,0.1-0.5,0.2l0-2.3c0-0.2,0-0.5,0-0.7l0.1-0.1c0.1,0,0.3,0,0.4,0
			l0.1,0.4c0,0.2,0,0.3,0,0.5c0,0.3-0.1,0.5,0,0.8C117.1,274.6,117.2,275.3,117.1,275.5"/>
	</g>
	<g id="XMLID_209_">
		<defs>
			<rect id="XMLID_208_" x="67.5" y="206.4" width="365" height="87.3"/>
		</defs>
		<clipPath id="XMLID_415_">
			<use xlink:href="#XMLID_208_"  style="overflow:visible;"/>
		</clipPath>
		<path id="XMLID_210_" class="st56" d="M126,274.6c-0.1,0-0.2,0-0.3,0.1c-0.1,0-0.4,0.1-0.6,0.1c-0.3,0-0.5,0.1-0.8,0.2l-0.5,0.1
			l-0.3,0l-0.2,0l-0.2,0.1c-0.2,0-0.4,0-0.5,0.1l-0.2,0c-0.3,0-0.6-0.1-0.9,0.1c-0.1,0-0.3,0-0.3,0c-0.1,0-0.3,0-0.4-0.1l-0.4,0.1
			c-0.2,0-0.5,0-0.6,0l-0.2,0c-0.2,0-0.4,0-0.6,0.1c-0.1,0-0.3,0-0.4,0.1c-0.2,0-0.7,0.1-0.8-0.1c-0.2-0.1-0.1-2-0.1-2.4l0-0.5
			c0-0.2,0.1-0.8-0.3-0.7c-0.2,0-0.6-0.1-0.7,0c-0.2,0-0.7,0-0.8-0.1c-0.2-0.2-0.3-0.9-0.4-1.2c-0.2-0.4-0.4-0.8-0.5-1.3l0-0.2
			c0.1-0.1,0.5-0.1,0.6-0.1c0.3,0,1.9,0,2.1-0.2c0.1-0.1,0.1-0.6,0-0.8c0-0.3,0-0.6,0-0.9c0-0.4-0.1-1,0.1-1.4
			c1,1.1,2.2,2.1,3.2,3.2c0.1,0.1,0.2,0.3,0.3,0.4c0.3,0.3,0.6,0.5,0.8,0.7c0.7,0.7,1.4,1.5,2.1,2.2l1.7,1.6
			c0.1,0.1,0.3,0.2,0.3,0.3C126.3,274.5,126.1,274.5,126,274.6"/>
	</g>
	<g id="XMLID_212_">
		<defs>
			<rect id="XMLID_211_" x="67.5" y="206.4" width="365" height="87.3"/>
		</defs>
		<clipPath id="XMLID_416_">
			<use xlink:href="#XMLID_211_"  style="overflow:visible;"/>
		</clipPath>
		<path id="XMLID_213_" class="st57" d="M124,246.2l0.5-0.6c0.2-0.2,0.4-0.4,0.6-0.5c0.3-0.3,0.5-0.5,0.8-0.8
			c0.3-0.3,0.6-0.6,0.9-0.8l1.7-1.8c0.9-0.8,1.8-1.7,2.6-2.6c0.2-0.3,0.5-0.5,0.7-0.7c0.1,0.2,0.1,0.8,0.1,1c0.1,0.6,0,1.4,0,2
			l0.1,1c0,0.4-0.1,0.7-0.1,1.1l0.1,0.6l0,0.3l0,0.3l-0.1,0.3c-0.1,0.5-0.1,1.1-0.1,1.7l0.1,0.8l-0.1,0.5c0,0.4,0,0.7,0,1.1
			c0,0.1,0,0.3,0,0.4c0,0.2,0.1,0.5,0.1,0.7c0,0.3-0.1,0.6-0.1,1l0.1,1.2c0,0.3-0.1,0.5-0.1,0.8l0,0.3l0,0.8l0.1,0.6
			c0,0.1,0,0.3-0.1,0.4c0,0.3,0,0.6,0,0.8c0.1,0.4,0,1,0,1.4l-0.1,0.3c0,0.3,0.1,0.5,0.1,0.7l-0.1,0.4l0,0.4c0,0.2,0,0.4,0,0.6
			c0,0.2,0.1,1.3-0.1,1.3c-0.1,0-1.1-1-1.2-1.2l-3.6-3.6c-0.2-0.2-0.3-0.4-0.5-0.6l-0.5-0.5l-0.3-0.3c-1.2-1.2-2.3-2.3-3.5-3.4
			c-0.2-0.2-1.7-1.7-1.7-1.8l0-0.1c0.1-0.3,0.6-0.6,0.8-0.8c0.3-0.3,0.4-0.5,0.7-0.8l0.7-0.6l0.3-0.2c0.2-0.2,0.4-0.4,0.5-0.6
			C123.6,246.6,123.8,246.4,124,246.2"/>
	</g>
	<g id="XMLID_215_">
		<defs>
			<rect id="XMLID_214_" x="67.5" y="206.4" width="365" height="87.3"/>
		</defs>
		<clipPath id="XMLID_417_">
			<use xlink:href="#XMLID_214_"  style="overflow:visible;"/>
		</clipPath>
		<path id="XMLID_216_" class="st58" d="M117.2,229.5c0.1-0.1,0.2-0.1,0.3-0.2l0.2-0.3c0.2-0.3,0.3-0.4,0.5-0.6l0.2-0.2
			c0.1-0.1,0.4,0,0.5,0c0.3,0,0.6,0,1-0.1c0.2,0,0.3,0,0.4-0.1c0.2,0,0.5,0,0.7,0c0.2,0,0.5,0.1,0.8,0.1c0.3,0,0.4-0.1,0.7-0.1
			l0.3,0.1c0.3,0,0.6,0,0.9-0.1v0h0l0,0l0,0.1c-0.3,0.4-0.7,0.7-1,1l-1.9,1.9c-0.1,0.1-0.3,0.3-0.4,0.4c-0.6,0.6-1.1,1.2-1.7,1.8
			l-0.6,0.6c-0.1,0.1-0.3,0.2-0.4,0.3c-0.1,0.1-0.3,0.3-0.4,0.5c-0.4,0.4-0.8,0.8-1.1,1.1c-0.2,0.2-0.4,0.4-0.5,0.6
			c-0.4,0.4-0.8,0.8-1.2,1.2c-0.7,0.7-1.3,1.3-2,2c-0.2,0.2-0.4,0.5-0.6,0.6v0h0v0h0l0-0.3l0-0.6l0.1-0.3c0-0.2-0.1-0.4,0-0.6
			c0.1-0.1,0.2-0.1,0.3-0.3c0.2-0.2,0.3-0.4,0.5-0.5c0.2-0.2,0.5-0.2,0.7-0.3l0.4-0.3c0.3-0.2,0.7-0.4,0.9-0.7l0.2-0.4l0.3-0.3
			c0.1-0.1,0.1-0.3,0.1-0.5c0-0.2,0.2-0.4,0.2-0.7l-0.1-0.7c0-0.3-0.2-0.6-0.4-0.8c-0.1-0.1-0.2-0.2-0.2-0.3l0-0.1l0.1-0.2
			c0.2-0.3,0.4-0.6,0.7-0.9c0.2-0.1,0.2-0.3,0.3-0.4c0.1-0.2,0.3-0.3,0.5-0.4c0.1-0.1,0.1-0.2,0.2-0.3c0.1-0.1,0.1-0.3,0.2-0.3
			c0.1-0.1,0.2-0.1,0.3-0.2L117.2,229.5"/>
	</g>
	<g id="XMLID_218_">
		<defs>
			<rect id="XMLID_217_" x="67.5" y="206.4" width="365" height="87.3"/>
		</defs>
		<clipPath id="XMLID_418_">
			<use xlink:href="#XMLID_217_"  style="overflow:visible;"/>
		</clipPath>
		<path id="XMLID_219_" class="st59" d="M99.9,228.3c0.3,0,0.7,0,0.9,0c0.2,0.1,0.4,0,0.7,0h1.3c0.1,0,0.2,0.1,0.3,0.1
			c0.2,0,0.5-0.1,0.7-0.1c0.3,0.1,0.5,0.4,0.7,0.6c0.3,0.3,0.6,0.6,1,0.9c0.2,0.2,0.4,0.5,0.6,0.7c0.3,0.3,0.6,0.5,0.8,0.8
			c0.2,0.2,0.3,0.3,0.4,0.5l0.3,0.2c0.2,0.1,0.3,0.3,0.4,0.5l-0.3,0.3c-0.3,0.3-0.4,0.5-0.5,0.9c-0.1,0.1-0.1,0.3-0.1,0.4
			c-0.1,0.2-0.1,0.4-0.1,0.7l0.1,0.5l0.2,0.5c0.1,0.2,0.1,0.4,0.3,0.5c0.1,0.1,0.3,0.2,0.3,0.3c0.1,0.1,0.2,0.2,0.3,0.3
			c0.1,0.1,0.2,0.1,0.3,0.1c0.1,0.1,0.3,0.2,0.5,0.3c0.2,0.1,0.4,0.2,0.6,0.4l0.3,0.5c0.1,0.1,0.3,0.2,0.4,0.4l0.1,0.4
			c0,0.1,0,0.3,0,0.4c0,0.3,0.2,0.6,0.1,0.9c-0.3,0-0.8-0.6-0.9-0.8l-1.1-1c-0.3-0.3-0.5-0.6-0.8-0.9c-0.5-0.6-1.1-1.1-1.6-1.6
			c-0.3-0.3-0.6-0.6-0.9-0.9l-0.4-0.4c-1-0.9-2-1.9-2.9-2.8l-0.8-0.8c-0.6-0.6-1.1-1.1-1.7-1.7c-0.3-0.3-0.9-0.6-1-1L99.9,228.3"/>
	</g>
	<g id="XMLID_221_">
		<defs>
			<rect id="XMLID_220_" x="67.5" y="206.4" width="365" height="87.3"/>
		</defs>
		<clipPath id="XMLID_419_">
			<use xlink:href="#XMLID_220_"  style="overflow:visible;"/>
		</clipPath>
		<path id="XMLID_222_" class="st60" d="M93.6,257.7c-0.4,0.4-0.8,0.9-1.2,1.3l-1.9,1.9c-0.2,0.2-0.5,0.4-0.6,0.7h0l-0.1-0.1
			c0-0.2,0-0.5,0-0.6l0.1-2c0-0.5,0-1.1,0-1.6l0-0.5c0-0.5,0.1-1,0-1.6l0-0.7l0-1l0-0.6c0-0.6,0-1.2,0-1.7c0-0.2,0-0.3,0-0.5
			c0-0.2,0.1-0.4,0.1-0.6c0.1-0.5,0-0.9,0-1.4c0-0.4,0-0.7,0.1-1.1c0-0.8-0.1-1.5,0-2.2l0.1-1.1l-0.1-0.6c0-0.8,0-1.5,0-2.3
			c0-0.2,0-0.3,0-0.5c0-0.2,0-0.4,0-0.6c0-0.2-0.1-0.4,0-0.7c0-0.1,0-0.3,0.1-0.4l0-1.1c0.3,0.1,0.5,0.4,0.8,0.7
			c0.5,0.5,1,1,1.6,1.5c0.2,0.2,0.4,0.4,0.5,0.6c0.4,0.4,0.8,0.8,1.2,1.2l0.4,0.4c0.3,0.3,0.5,0.4,0.8,0.7c0.1,0.1,0.2,0.3,0.3,0.3
			c0.6,0.6,1.2,1.1,1.8,1.7c0.6,0.6,1.2,1.2,1.7,1.8c0.4,0.3,2.7,2.5,2.5,2.8l-0.1,0.2c-0.3,0.5-0.9,1-1.3,1.4
			c-0.1,0.1-0.2,0.3-0.4,0.4l-1,1l-1.4,1.4l-1,0.9c-0.1,0.1-0.1,0.2-0.3,0.3L93.6,257.7"/>
	</g>
	<g id="XMLID_224_">
		<defs>
			<rect id="XMLID_223_" x="67.5" y="206.4" width="365" height="87.3"/>
		</defs>
		<clipPath id="XMLID_420_">
			<use xlink:href="#XMLID_223_"  style="overflow:visible;"/>
		</clipPath>
		<path id="XMLID_225_" class="st61" d="M106.3,271.9c-0.3,0-1.1-0.1-1.3,0l-0.1,0.2v2.4c0,0.3,0,0.8,0,1.2l-0.1,0.2v0
			c-0.3,0-0.5-0.1-0.7-0.1c-0.2,0-0.4,0-0.6,0c-0.1,0-0.3,0-0.5,0l-0.9-0.1l-0.4,0c-0.7,0-1.4-0.1-2-0.2c-0.3,0-0.6,0-0.9-0.1
			l-0.8-0.1l-0.3-0.1c-0.1,0-0.3,0-0.5,0L96,275c-0.3-0.1-0.6-0.1-0.9-0.2h0v-0.1l0.1,0c0.2-0.3,0.5-0.5,0.7-0.8l0.6-0.6
			c0.3-0.3,0.7-0.6,1-0.9l0.5-0.5c0.1-0.1,0.3-0.3,0.4-0.4c0.8-0.8,1.7-1.6,2.5-2.4c0.5-0.5,0.9-1,1.5-1.5c0.7-0.7,1.4-1.3,2.1-2
			l0.6-0.6c0.1,0.2,0.1,0.9,0,1.1c0,0.4-0.1,0.8-0.1,1.2c0,0.3,0,0.5,0.1,0.8c0.1,0.2,0.2,0.4,0.3,0.6c0.1,0.1,0.1,0.3,0.3,0.3
			c0.2,0.1,0.8,0.1,1,0.1c0.4,0,0.9-0.1,1.3-0.1c0,0.3-0.2,0.6-0.3,0.9c-0.2,0.4-0.4,0.9-0.5,1.4c-0.1,0.2-0.1,0.4-0.3,0.5l-0.3,0.1
			L106.3,271.9"/>
	</g>
	<g id="XMLID_227_">
		<defs>
			<rect id="XMLID_226_" x="67.5" y="206.4" width="365" height="87.3"/>
		</defs>
		<clipPath id="XMLID_421_">
			<use xlink:href="#XMLID_226_"  style="overflow:visible;"/>
		</clipPath>
		<path id="XMLID_228_" class="st62" d="M108.3,277.3c-0.3,0-0.6-0.3-0.9-0.4c-0.2-0.1-0.5-0.2-0.7-0.3h0v0h0l0,0
			c0.4,0,2.5,0.1,2.7-0.1c0.1-0.1,0.1-0.5,0.1-0.6c0-1-0.1-2.2,0.8-2.7c0.2-0.1,0.3-0.1,0.4-0.1c0.3,0,0.8,0.1,0.8,0.4l-0.2,0.1
			c-0.6,0.1-0.7,0.4-0.9,0.8c-0.2,0.4-0.2,1-0.2,1.5c0,0.5,0,0.9,0,1.4h-0.4c-0.2,0-0.3,0.1-0.4,0.1H108.3"/>
	</g>
	<g id="XMLID_230_">
		<defs>
			<rect id="XMLID_229_" x="67.5" y="206.4" width="365" height="87.3"/>
		</defs>
		<clipPath id="XMLID_422_">
			<use xlink:href="#XMLID_229_"  style="overflow:visible;"/>
		</clipPath>
		<path id="XMLID_231_" class="st63" d="M111.7,277.8c-0.1,0.1-0.2,0.3-0.3,0.4c-0.3,0.3-0.5,0.5-0.7,0.8h0
			c-0.2-0.2-0.4-0.4-0.6-0.6c-0.2-0.2-0.5-0.4-0.8-0.5v0h0v-0.1h0l0.1-0.1c0.1,0,0.2-0.1,0.3-0.1c0.3,0,0.7,0,1,0l0.1-0.2
			c0-0.1,0-0.3,0.1-0.4l-0.1-0.4c0-0.1,0-0.3,0-0.4c0-0.3-0.1-0.6,0-0.9c0-0.2,0.1-0.3,0.1-0.5c0.1-0.2,0.1-0.4,0.3-0.6
			c0.1-0.2,0.3-0.1,0.5-0.2l0.2,0.1c0.1,0.2,0,0.5,0,0.7c0,0.5,0,1,0,1.6c0,0.1,0.1,0.2,0.1,0.3c0.1,0.2,0.2,0.3,0.2,0.5h0
			C112.2,277.5,111.9,277.7,111.7,277.8"/>
	</g>
	<g id="XMLID_234_">
		<defs>
			<rect id="XMLID_232_" x="67.5" y="206.4" width="365" height="87.3"/>
		</defs>
		<clipPath id="XMLID_423_">
			<use xlink:href="#XMLID_232_"  style="overflow:visible;"/>
		</clipPath>
		<path id="XMLID_235_" class="st64" d="M112.8,277.1c-0.2-0.1-0.3-0.4-0.3-0.6c0.1,0,0.3,0,0.4,0l1,0v0.1c-0.1,0-0.3,0.1-0.3,0.1
			L112.8,277.1L112.8,277.1"/>
	</g>
	<g id="XMLID_240_">
		<defs>
			<rect id="XMLID_236_" x="67.5" y="206.4" width="365" height="87.3"/>
		</defs>
		<clipPath id="XMLID_424_">
			<use xlink:href="#XMLID_236_"  style="overflow:visible;"/>
		</clipPath>
		<path id="XMLID_241_" class="st65" d="M102.5,252.5c0-0.3,0.1-0.6,0.1-0.8l-0.1-0.9c0-0.5,0.1-1,0.1-1.5l-0.1-0.9
			c0-0.2,0-0.5,0-0.7l-0.1-0.7c0-0.4,0.1-0.7,0.1-1.1c0-0.2,0-0.4-0.1-0.6c0-0.1,0-0.3,0-0.4c0-0.4,0.1-0.8,0.1-1.3
			c0-0.3-0.1-0.8,0-1c0.1-0.3,0.9-1.2,1.2-1.3v0c0.1,0.2,0,0.5,0,0.8c0,0.3,0,0.6,0,0.9c0,0.2,0,0.4,0,0.6v1.1l-0.1,0.5
			c0,0.2,0,0.4,0,0.6c0,0.5-0.1,1.2,0,1.7c0,0.6-0.1,1.2-0.1,1.8c0,0.2,0,0.4,0,0.6c0,0.5,0,0.9,0,1.3l-0.1,0.6v1
			c0,0.4,0.1,1.2,0,1.5c-0.1,0.1-0.2,0.2-0.3,0.3l-0.3,0.4l-0.3,0.3c-0.1,0.2-0.2,0.4-0.3,0.6v0h0c0-0.6-0.1-1.2-0.1-1.7
			c0-0.3,0.1-0.7,0.1-1C102.5,252.9,102.5,252.7,102.5,252.5"/>
	</g>
	<g id="XMLID_243_">
		<defs>
			<rect id="XMLID_242_" x="67.5" y="206.4" width="365" height="87.3"/>
		</defs>
		<clipPath id="XMLID_425_">
			<use xlink:href="#XMLID_242_"  style="overflow:visible;"/>
		</clipPath>
		<path id="XMLID_244_" class="st66" d="M103.1,256.2c0.1-0.4,0.3-0.5,0.6-0.7c0.1-0.2,0.3-0.3,0.5-0.4c0.8-0.5,1.9-0.5,2.9-0.3
			c0.2,0.1,0.4,0.1,0.5,0.1c0.6,0.1,1.2,0.2,1.7,0.5c0.3,0.2,0.6,0.5,0.9,0.7l0.3,0.1c0.1,0.1,0.3,0.3,0.5,0.3
			c0.3,0,0.4-0.4,0.7-0.5c0.2-0.2,0.4-0.3,0.7-0.5c0.7-0.3,1.4-0.7,2.2-0.9c0.3-0.1,0.6-0.1,0.8-0.2c0.2,0,0.3,0,0.5-0.1l0.7,0
			c0.4,0.1,0.8,0.3,1.1,0.5l0.4,0.4c0.2,0.3,0.4,0.5,0.5,0.8h0l-0.3,0c-0.6,0-1.3,0-1.9,0c-0.2,0-0.5-0.1-0.7,0.1
			c-0.2,0-0.5-0.1-0.7,0l-0.2,0c-0.3,0-0.5-0.1-0.7,0.1c-0.1,0-0.2,0-0.3,0.1c-0.2,0-0.6-0.1-0.8,0l-0.2,0.1l-0.3,0
			c-0.1,0-0.3,0-0.4,0.1l0,0.2c0,0.5-0.4,1-0.9,1c-0.4,0-0.8-0.3-0.9-0.7c0-0.1,0-0.3-0.1-0.4l-0.2-0.1H109c-0.5,0-0.9,0-1.4-0.1
			c-0.2,0-0.3,0-0.4,0l-1.1,0c-0.2,0-0.4,0-0.5,0.1c-0.5,0-1.1-0.1-1.6-0.1c-0.2,0-0.4-0.1-0.6,0c-0.2,0-0.3,0-0.4-0.1
			C102.9,256.5,103,256.3,103.1,256.2"/>
	</g>
	<g id="XMLID_246_">
		<defs>
			<rect id="XMLID_245_" x="67.5" y="206.4" width="365" height="87.3"/>
		</defs>
		<clipPath id="XMLID_426_">
			<use xlink:href="#XMLID_245_"  style="overflow:visible;"/>
		</clipPath>
		<path id="XMLID_251_" class="st67" d="M119.3,244.4c0-0.3-0.1-0.6-0.1-0.8l0-0.4l0-0.3h-0.1c-0.1,0.6,0,1.2-0.1,1.9
			c0,0.3-0.1,0.4-0.1,0.6v0.4c0,0.1,0,0.2,0,0.3c-0.1,0-0.3,0-0.3-0.2c-0.1-0.2,0.1-0.4,0.1-0.6l-0.1-0.4c0-0.7,0.1-1.5,0.1-2.1
			c0-0.1,0-0.3,0-0.4l-0.1-0.2h-0.1v0h0c0,0.5-0.1,1-0.1,1.5l0,0.3h-0.1c-0.1-0.4-0.1-0.9-0.1-1.4c0-0.3,0-0.5,0-0.7
			c-0.1,0.2-0.1,0.3-0.1,0.5v0.8c0,0.3,0,0.6,0,0.8c-0.1,1.7-0.1,3.4-0.1,5.1c0,0.3,0,0.7,0,1c0,0.3-0.1,0.6-0.1,1
			c0,0.4,0,0.9,0,1.3c0,0.4-0.1,0.9,0,1.3l0.1,0.2v0h0v0h0c0.1-0.3,0.1-0.5,0.1-0.8c0-0.5,0.1-0.9,0.1-1.4c0-0.3-0.1-0.7,0-1
			l0.1-0.1l0.1,0.3c0.1,0.4,0,0.7,0,1.1v0.9c0,0.3,0,0.7,0,1c0,0.2,0,0.3,0,0.5l0.2,0.3c0-0.5,0.1-1.1,0.1-1.6v-0.7
			c0-0.3,0-0.5,0-0.7l0.1-0.5c0-0.2-0.1-0.4-0.1-0.6c-0.1-0.3,0-0.7,0-1c0-0.2,0-0.4,0.1-0.5l0.1-0.2h0c0.1,0.1,0.2,0.2,0.2,0.3
			c0.1,0.4,0,0.8,0,1.2c0,0.1-0.1,0.3-0.1,0.4c0,0.3,0.1,0.7,0.1,1c0,0.1,0,0.3,0,0.4c0,0.6,0,1.2,0,1.8c0,0.4,0.1,0.9,0.1,1.3v0.3
			h0.1c0.1-0.3,0.1-0.6,0.1-0.9c0-0.3,0.1-0.7,0-1.1c0-0.2-0.1-0.5-0.1-0.7c0-0.3,0.1-0.5,0.1-0.7c0-0.4-0.1-0.7-0.1-1.1
			c0-0.4,0.1-0.8,0.1-1.2v-0.9l-0.1-0.4c0-0.2,0.1-0.3,0.1-0.5l0-0.9l0-1.4C119.3,245.3,119.4,244.8,119.3,244.4 M118.3,249
			c0,0-0.2,0.3-0.2,0.1l0-0.3c0-0.3,0-0.6,0-0.9v-1.2c0-0.3,0-0.6,0.1-0.8l0.2,0.2c0.1,0.3,0,0.7,0,1.1
			C118.4,247.7,118.5,248.5,118.3,249 M118.4,244.6c-0.3,0-0.3-0.2-0.2-0.4C118.4,244.3,118.5,244.6,118.4,244.6 M118.8,248.2
			L118.8,248.2c-0.2-0.3-0.1-0.5-0.1-0.7c0-0.4-0.1-0.7,0.1-1l0.2,0.1C119.1,246.9,119.1,248.3,118.8,248.2"/>
	</g>
	<g id="XMLID_253_">
		<defs>
			<rect id="XMLID_252_" x="67.5" y="206.4" width="365" height="87.3"/>
		</defs>
		<clipPath id="XMLID_427_">
			<use xlink:href="#XMLID_252_"  style="overflow:visible;"/>
		</clipPath>
		<path id="XMLID_275_" class="st68" d="M117.4,247.5l-0.1-0.5c0-0.8,0-1.5,0.1-2.3l0-0.7c0-0.6,0-1.2,0-1.7l-0.1-0.5
			c0-0.2,0-0.4,0-0.6l0-0.3c-0.1-0.1-0.3,0-0.5-0.1c-0.2,0-0.4-0.1-0.6-0.1c-0.2,0.1-0.5,0.1-0.8,0.1c-1.1,0.2-2.1,0.3-3.1,0.8
			c-0.3,0.1-0.5,0.3-0.7,0.5c-0.1,0.2-0.1,0.3-0.2,0.6c-0.1,0.5-0.1,1.1-0.1,1.6c0,0.3-0.1,0.6-0.1,0.8c0,0.4,0,0.8,0,1.2l-0.1,0.5
			l-0.1,1.2c0,0.6,0,1.2,0,1.7c0,0.5,0,1.1,0,1.6c0,0.2,0,0.3,0,0.5l0,0.3c0,0.3,0.1,0.5,0.1,0.8c0,0.8,0,1.7,0.3,2.3l0.1,0.1
			c0.3-0.1,0.6-0.4,0.9-0.6c0.3-0.2,0.6-0.3,0.8-0.4c0.3-0.2,0.5-0.3,0.9-0.3c0.1-0.1,0.5-0.1,0.7-0.1l0.2,0l0.2,0
			c0.3-0.2,1.1,0,1.4,0.1l0.5,0.1c0.1-0.5,0-1,0-1.4l0.1-0.8l0-1l0.1-0.5c0-0.4,0-0.8,0-1.1c0-0.2,0.1-0.4,0.1-0.7
			C117.5,248.4,117.5,248,117.4,247.5 M111.9,248.7c0.7-0.7,1.7-1,2.5-1.4c0.3-0.1,0.6-0.3,0.9-0.3c0.1-0.1,0.3-0.2,0.5-0.2v0
			c0.2,0,0.3,0.1,0.3,0.3c0,0.2-0.1,0.3-0.2,0.4c-0.3,0.2-0.6,0.2-0.9,0.3c-0.3,0.1-0.7,0.3-1,0.3c-0.2,0.1-0.5,0.1-0.7,0.2
			c-0.4,0.2-0.8,0.4-1.2,0.6c-0.2,0.1-0.3,0.2-0.5,0.2l-0.1,0C111.5,249,111.8,248.8,111.9,248.7 M116.1,251.1
			c-0.3,0.2-0.6,0.2-0.8,0.2l-0.8,0.2c-0.9,0.2-1.6,0.6-2.4,1c-0.1,0.1-0.3,0.3-0.4,0.1c-0.1-0.1,0.1-0.3,0.2-0.3
			c0.3-0.3,0.6-0.4,0.9-0.6c0.4-0.2,0.7-0.4,1.1-0.6c0.1-0.1,0.3-0.1,0.4-0.2c0.5-0.2,1-0.3,1.5-0.5c0.1,0,0.3,0,0.4,0.1
			C116.3,250.6,116.3,251,116.1,251.1 M116.1,243.8c-0.1,0.1-0.3,0.1-0.4,0.1c-0.3,0.1-0.7,0.2-1,0.3c-0.5,0.1-0.9,0.3-1.4,0.5
			l-0.9,0.5l-0.5,0.2h0c0.1-0.3,0.4-0.5,0.6-0.7c0.1-0.1,0.3-0.2,0.4-0.3c0.3-0.2,0.6-0.4,0.9-0.5c0.3-0.2,0.7-0.3,1.1-0.4l0.4-0.2
			c0.2-0.1,0.3-0.1,0.5-0.2c0.1,0,0.3,0,0.4,0C116.4,243.4,116.3,243.7,116.1,243.8"/>
	</g>
	<g id="XMLID_277_">
		<defs>
			<rect id="XMLID_276_" x="67.5" y="206.4" width="365" height="87.3"/>
		</defs>
		<clipPath id="XMLID_428_">
			<use xlink:href="#XMLID_276_"  style="overflow:visible;"/>
		</clipPath>
		<path id="XMLID_282_" class="st69" d="M110.6,243.6c-0.1-0.4,0-0.9-0.2-1.2c-0.5-0.6-1.1-0.9-1.8-1.1c-0.2-0.1-0.4-0.1-0.5-0.2
			l-0.6-0.1c-0.3-0.1-0.7-0.1-1-0.2l-1.4,0c-0.2,0.1-0.4,0.1-0.5,0.2c-0.1,0.1-0.1,0.7-0.1,0.9c0,0.8-0.1,1.6-0.1,2.4
			c0,0.5,0,1,0,1.5l-0.1,1.2c0,0.3,0.1,0.6,0.1,0.9l-0.1,1.9c0,0.3-0.1,0.5-0.1,0.8c0,0.5,0,1,0,1.6c0,0.3-0.1,0.5-0.1,0.8
			c0,0.3,0.1,0.5,0.1,0.7c0,0.3-0.1,0.5-0.1,0.8h0.3l0.3-0.1l0.3-0.1l0.2,0c0.3-0.1,1.1,0,1.3,0.1c0.4,0.1,0.7,0.1,1.1,0.1
			c0.4,0.1,1.1,0.3,1.4,0.5c0.1,0.1,0.9,0.6,0.9,0.6v0c0.2-0.3,0.2-0.6,0.2-1c0.1-0.4,0.1-0.9,0.1-1.4c0-0.7,0.1-1.4,0.1-2.1l0-0.9
			l0.1-2.5C110.6,246.3,110.7,244.9,110.6,243.6 M109.5,252.7c-0.5-0.3-1.1-0.5-1.6-0.6l-0.6-0.1l-0.9-0.2c-0.3,0-0.7,0-1-0.1
			l-0.1-0.1c-0.3-0.1-0.3-0.7,0.1-0.7v0c0.3,0,0.4,0.1,0.6,0.1c0.2,0,0.4,0,0.6,0.1l0.5,0.2c0.5,0.2,1,0.3,1.5,0.6
			c0.1,0.1,0.3,0.1,0.4,0.1c0.3,0.1,0.7,0.4,0.9,0.7c0.1,0.1,0.2,0.1,0.2,0.3C109.9,253,109.7,252.7,109.5,252.7 M110.2,249.4
			L110.2,249.4L110.2,249.4c-0.3,0.1-1.1-0.6-1.4-0.7c-0.3-0.2-0.6-0.3-0.9-0.4c-0.4-0.2-0.8-0.3-1.3-0.4l-0.5-0.1
			c-0.3,0-0.6,0-0.8-0.1c-0.2-0.2-0.1-0.6,0.2-0.6v0c1.3,0.1,2.4,0.7,3.5,1.3c0.3,0.2,1,0.6,1.2,0.9V249.4 M110.3,245.7l-0.2,0.1
			c-0.2,0-0.3-0.2-0.5-0.3c-0.2-0.1-0.3-0.2-0.5-0.3c-0.9-0.5-2-0.8-3-1c-0.3-0.1-0.7-0.1-0.9-0.2c-0.2-0.1-0.2-0.4,0-0.6
			c0.5,0,0.8,0.1,1.2,0.3l0.3,0.1c0.3,0.1,0.5,0.2,0.8,0.3c0.2,0.1,0.4,0.1,0.6,0.2l0.3,0.2c0.3,0.1,0.6,0.3,0.9,0.4
			C109.5,244.8,110.5,245.4,110.3,245.7"/>
	</g>
	<g id="XMLID_284_">
		<defs>
			<rect id="XMLID_283_" x="67.5" y="206.4" width="365" height="87.3"/>
		</defs>
		<clipPath id="XMLID_429_">
			<use xlink:href="#XMLID_283_"  style="overflow:visible;"/>
		</clipPath>
		<path id="XMLID_285_" class="st70" d="M108.7,217.3c-0.4,0.1-0.9,0.1-1.4,0.2c-0.4,0.1-0.8,0.1-1.2,0.1c-0.9,0.2-1.9,0.4-2.8,0.5
			c-1.3,0.3-2.5,0.8-3.7,1.3c-2.3,0.9-4.4,2-6.4,3.3c-0.5,0.3-3.8,2.7-3.8,3.1l1.6,0.1c1.3,0.1,2.7,0,4,0l2.4,0.1
			c0.3-0.2,0.8-0.1,1.2-0.1c1.1,0,2.2,0.1,3.2,0.1c0.5-0.2,1.4,0,2,0h5.4l6,0.1c3.7,0,7.4-0.1,11.1-0.1c0.3-0.1,0.7,0,1,0
			c0.6,0,1.3,0.1,1.9,0.1c0.3,0,0.7,0,1,0c0.6,0,1.3,0.1,2,0.1l0.7,0c0.4,0-0.4-0.6-0.5-0.8c-0.5-0.5-1-0.9-1.5-1.3l-1-0.8
			c-0.7-0.5-1.4-0.9-2-1.4c-4.2-2.5-8.3-4.1-13.5-4.6c-0.8,0-1.5,0-2.3,0C111,217.3,109.8,217.3,108.7,217.3"/>
	</g>
	<g id="XMLID_287_">
		<defs>
			<rect id="XMLID_286_" x="67.5" y="206.4" width="365" height="87.3"/>
		</defs>
		<clipPath id="XMLID_430_">
			<use xlink:href="#XMLID_286_"  style="overflow:visible;"/>
		</clipPath>
		<path id="XMLID_288_" class="st71" d="M87.6,227.5c-0.5,0.5-1.2,1.2-1.6,1.6l-2.9,3.8c-2,3.4-3.2,6.9-4.1,10.9
			c-0.1,0.6-0.1,1.3-0.2,1.9c-0.3,3.3-0.4,6.9,0.1,10.1c0.1,0.5,0.3,1.1,0.4,1.6c0.2,0.9,0.3,1.7,0.6,2.5c0.3,0.7,0.5,1.3,0.8,2
			c0.3,1,0.8,1.9,1.3,2.8c1.1,2.2,2.4,4.2,4,6.2c0.2,0.3,0.8,1.1,1.2,1.1v-0.1c0.3-0.6,0.1-2.4,0.1-3.2c0-1.2,0-2.5,0-3.7
			c0-1.1-0.1-2.3,0-3.4c0.1-2.5,0-5,0.1-7.5c0-2.1,0.1-4.3,0.1-6.5c0-2-0.1-4.3,0.1-6.2c0-0.2,0-0.4,0-0.7v-1.9
			c0-0.9,0.1-1.7,0.1-2.6c-0.1-1.8-0.1-3.7-0.2-5.5C87.5,229.4,87.7,228.2,87.6,227.5"/>
	</g>
	<g id="XMLID_290_">
		<defs>
			<rect id="XMLID_289_" x="67.5" y="206.4" width="365" height="87.3"/>
		</defs>
		<clipPath id="XMLID_431_">
			<use xlink:href="#XMLID_289_"  style="overflow:visible;"/>
		</clipPath>
		<path id="XMLID_291_" class="st72" d="M134.8,227.7c-0.1,1.3,0.1,3.2,0.1,4.5c-0.1,2.9-0.1,5.7-0.1,8.7v13.9c0,2.6-0.1,5.2,0,7.9
			v3.2c0,2,0.2,4-0.2,5.9c0,0.1-0.3,1-0.1,1c0.6,0,3.8-4.5,4.2-5.2c0.3-0.6,0.6-1.2,0.9-1.7l0.5-1.2c0.6-1.1,1.3-2.4,1.7-3.6
			c0.8-2.5,1.4-5,1.7-7.7c0.1-0.9,0.1-1.8,0.1-2.7c0-0.5,0-1,0-1.5c-0.1-2.7-0.4-5.5-1.1-7.9c-0.7-2.4-1.8-4.6-2.9-6.8
			c-0.4-0.8-0.9-1.4-1.4-2.1C137.8,231.4,135.2,227.4,134.8,227.7"/>
	</g>
	<g id="XMLID_293_">
		<defs>
			<rect id="XMLID_292_" x="67.5" y="206.4" width="365" height="87.3"/>
		</defs>
		<clipPath id="XMLID_432_">
			<use xlink:href="#XMLID_292_"  style="overflow:visible;"/>
		</clipPath>
		<path id="XMLID_294_" class="st73" d="M130.5,276.2c-1.8,1.4-5.6,1.5-8.1,1.8c-0.6,0.1-1.2,0.2-1.9,0.3c-3,0.2-7,0.4-8.1,3.5
			c-0.1,0.3-0.1,0.4-0.2,0.7c-0.1,0.3,1.4,0,2,0c0.2-0.1,0.5-0.1,0.7-0.1l0.4-0.1c0.4-0.2,0.9-0.2,1.4-0.2c0.3-0.2,0.7-0.2,1.1-0.2
			c0.4-0.2,1.4-0.4,1.9-0.4c0.9-0.3,1.7-0.6,2.6-0.9c2.4-1,5-2,7.1-3.6C129.6,276.9,130,276.8,130.5,276.2"/>
	</g>
	<g id="XMLID_296_">
		<defs>
			<rect id="XMLID_295_" x="67.5" y="206.4" width="365" height="87.3"/>
		</defs>
		<clipPath id="XMLID_433_">
			<use xlink:href="#XMLID_295_"  style="overflow:visible;"/>
		</clipPath>
		<path id="XMLID_297_" class="st74" d="M92.8,276.8c0.5,0.6,1.3,0.8,2,1.3c0.4,0.3,0.9,0.6,1.3,0.9c1.5,0.7,2.6,1.3,4.1,1.8
			c1.7,0.5,3.3,1.1,5,1.4c0.6,0.1,4.7,0.9,4.8,0.5c0.3-0.6-1.1-2.1-1.6-2.5c-0.4-0.4-0.9-0.6-1.4-0.9c-0.5-0.3-1-0.4-1.5-0.5
			c-0.7-0.2-1.3-0.4-2-0.5c-0.6-0.1-1.4-0.1-2-0.2c-0.6-0.1-1.2-0.2-1.9-0.3c-0.8-0.1-1.6-0.1-2.4-0.2
			C95.7,277.2,94.3,276.9,92.8,276.8"/>
	</g>
	<g id="XMLID_299_">
		<defs>
			<rect id="XMLID_298_" x="67.5" y="206.4" width="365" height="87.3"/>
		</defs>
		<clipPath id="XMLID_434_">
			<use xlink:href="#XMLID_298_"  style="overflow:visible;"/>
		</clipPath>
		<path id="XMLID_300_" class="st75" d="M189.5,226h-3.1v15.8c0,1.2,0.1,2.1,0.4,2.5c0.3,0.4,0.9,0.6,1.8,0.6v0.6h-7.3V245
			c0.9,0,1.5-0.3,1.8-0.8c0.3-0.5,0.5-1.3,0.5-2.5V226h-2.9c-1.4,0-2.4,0.2-3.1,0.7c-0.6,0.4-1,1.2-1.1,2.3h-0.6v-4.7h0.6
			c0.6,0.5,1.6,0.8,3.1,0.8h10.8c1.5,0,2.6-0.3,3.2-0.8h0.6v4.7h-0.4c-0.3-1.2-0.7-1.9-1.4-2.3C191.7,226.2,190.8,226,189.5,226"/>
	</g>
	<g id="XMLID_302_">
		<defs>
			<rect id="XMLID_301_" x="67.5" y="206.4" width="365" height="87.3"/>
		</defs>
		<clipPath id="XMLID_435_">
			<use xlink:href="#XMLID_301_"  style="overflow:visible;"/>
		</clipPath>
		<path id="XMLID_303_" class="st76" d="M213,241.7v-6h-11.2v6c0,1.2,0.2,2,0.5,2.5c0.3,0.5,1,0.7,1.9,0.7v0.6h-7.4v-0.6
			c0.9,0,1.5-0.3,1.8-0.7c0.3-0.5,0.5-1.3,0.5-2.5v-12.8c0-1.3-0.2-2.1-0.5-2.6c-0.3-0.5-0.9-0.7-1.8-0.7v-0.6h7.4v0.6
			c-0.9,0-1.5,0.3-1.9,0.8c-0.3,0.5-0.5,1.3-0.5,2.5v5.8H213v-5.8c0-1.3-0.2-2.1-0.5-2.6c-0.3-0.4-0.9-0.7-1.8-0.7V225h7.4v0.6
			c-0.9,0-1.5,0.3-1.8,0.7c-0.3,0.5-0.5,1.3-0.5,2.6v12.8c0,1.2,0.2,2.1,0.5,2.5c0.3,0.5,0.9,0.7,1.8,0.7v0.6h-7.4v-0.6
			c0.9,0,1.5-0.3,1.8-0.7C212.8,243.8,213,242.9,213,241.7"/>
	</g>
	<g id="XMLID_305_">
		<defs>
			<rect id="XMLID_304_" x="67.5" y="206.4" width="365" height="87.3"/>
		</defs>
		<clipPath id="XMLID_436_">
			<use xlink:href="#XMLID_304_"  style="overflow:visible;"/>
		</clipPath>
		<path id="XMLID_306_" class="st77" d="M234.1,232.7h0.6v5h-0.6c-0.2-0.9-0.5-1.4-0.8-1.6c-0.3-0.2-1-0.3-2-0.3h-5.1v7.4
			c0,0.5,0.1,0.9,0.3,1.1c0.2,0.2,0.6,0.3,1.2,0.3h3.6c1.3,0,2.2-0.1,2.7-0.2c0.5-0.1,0.9-0.4,1.2-0.8c0.3-0.4,0.7-1,1.1-1.9h0.6
			l-1,3.9h-14.8v-0.6c0.9,0,1.5-0.3,1.9-0.7c0.3-0.5,0.5-1.3,0.5-2.5v-12.8c0-1.3-0.2-2.1-0.5-2.6c-0.3-0.5-0.9-0.7-1.8-0.7V225
			h14.8v3.4h-0.4c-0.2-1-0.5-1.6-0.9-1.9c-0.4-0.3-1.2-0.5-2.5-0.5h-5.9v8.8h5.7c0.8,0,1.3-0.2,1.6-0.4
			C233.7,234,233.9,233.5,234.1,232.7"/>
	</g>
	<g id="XMLID_308_">
		<defs>
			<rect id="XMLID_307_" x="67.5" y="206.4" width="365" height="87.3"/>
		</defs>
		<clipPath id="XMLID_437_">
			<use xlink:href="#XMLID_307_"  style="overflow:visible;"/>
		</clipPath>
		<path id="XMLID_309_" class="st78" d="M263.3,241.2v-12.4c0-1.2-0.2-2-0.5-2.5c-0.3-0.5-0.9-0.7-1.7-0.8V225h7.3v0.6
			c-0.9,0-1.5,0.3-1.8,0.7c-0.3,0.5-0.5,1.3-0.5,2.6v12.8c0,1.2,0.2,2,0.5,2.5c0.3,0.5,0.9,0.7,1.8,0.7v0.6h-5.1v-2.9
			c-1.9,2.3-4.2,3.4-6.8,3.4c-2.2,0-3.9-0.6-5.1-1.9c-1.2-1.3-1.9-3-1.9-5.2v-10.1c0-1.2-0.2-2.1-0.5-2.6c-0.3-0.5-0.9-0.7-1.9-0.7
			V225h7.4v0.6c-0.9,0-1.6,0.2-1.9,0.7c-0.3,0.5-0.5,1.3-0.5,2.5v10.4c0,1.7,0.5,3,1.4,4c0.9,1,2.2,1.4,3.8,1.4
			C259.9,244.6,261.9,243.5,263.3,241.2"/>
	</g>
	<g id="XMLID_311_">
		<defs>
			<rect id="XMLID_310_" x="67.5" y="206.4" width="365" height="87.3"/>
		</defs>
		<clipPath id="XMLID_438_">
			<use xlink:href="#XMLID_310_"  style="overflow:visible;"/>
		</clipPath>
		<path id="XMLID_312_" class="st79" d="M286.9,225.6V225h6.2v0.6c-1,0-1.7,0.2-2,0.7c-0.4,0.5-0.6,1.3-0.6,2.5v16.7h-0.6
			l-14.6-17.9v14.4c0,1,0.2,1.8,0.6,2.2c0.4,0.4,1.1,0.7,2.1,0.7v0.6h-6.2v-0.6c1,0,1.7-0.3,2-0.8c0.3-0.5,0.5-1.4,0.5-2.8v-12
			c0-1.3-0.3-2.2-0.7-2.8c-0.4-0.6-1.3-0.9-2.3-1v-0.6h5.3l12.9,16v-12c0-1.3-0.2-2.1-0.5-2.7C288.5,225.8,287.9,225.6,286.9,225.6"
			/>
	</g>
	<g id="XMLID_314_">
		<defs>
			<rect id="XMLID_313_" x="67.5" y="206.4" width="365" height="87.3"/>
		</defs>
		<clipPath id="XMLID_439_">
			<use xlink:href="#XMLID_313_"  style="overflow:visible;"/>
		</clipPath>
		<path id="XMLID_315_" class="st80" d="M303.4,225v0.6c-0.9,0-1.5,0.3-1.8,0.7c-0.3,0.5-0.5,1.3-0.5,2.6v12.8
			c0,1.2,0.2,2.1,0.5,2.6c0.3,0.5,0.9,0.7,1.8,0.7v0.6H296v-0.6c0.9,0,1.5-0.3,1.8-0.7c0.3-0.5,0.5-1.3,0.5-2.6v-12.8
			c0-1.3-0.2-2.1-0.5-2.6c-0.3-0.5-0.9-0.7-1.9-0.7V225L303.4,225L303.4,225z"/>
	</g>
	<g id="XMLID_317_">
		<defs>
			<rect id="XMLID_316_" x="67.5" y="206.4" width="365" height="87.3"/>
		</defs>
		<clipPath id="XMLID_440_">
			<use xlink:href="#XMLID_316_"  style="overflow:visible;"/>
		</clipPath>
		<path id="XMLID_318_" class="st81" d="M326.1,225v0.6c-1.5,0-2.8,1.3-3.7,4l-6.1,16.2h-0.6l-6.4-16.7c-0.6-1.5-1.1-2.5-1.5-2.9
			c-0.4-0.4-1.1-0.6-1.9-0.6V225h7.5v0.6c-1.2,0-1.8,0.5-1.8,1.4c0,0.3,0.1,0.6,0.2,1l5,13.2l4.8-12.8c0.2-0.5,0.3-1,0.3-1.4
			c0-1-0.6-1.5-1.8-1.5V225H326.1z"/>
	</g>
	<g id="XMLID_320_">
		<defs>
			<rect id="XMLID_319_" x="67.5" y="206.4" width="365" height="87.3"/>
		</defs>
		<clipPath id="XMLID_441_">
			<use xlink:href="#XMLID_319_"  style="overflow:visible;"/>
		</clipPath>
		<path id="XMLID_321_" class="st82" d="M341.1,232.7h0.6v5h-0.6c-0.2-0.9-0.5-1.4-0.8-1.6c-0.3-0.2-1-0.3-2-0.3h-5.1v7.4
			c0,0.5,0.1,0.9,0.3,1.1c0.2,0.2,0.6,0.3,1.2,0.3h3.6c1.3,0,2.2-0.1,2.7-0.2c0.5-0.1,0.9-0.4,1.3-0.8c0.3-0.4,0.7-1,1.1-1.9h0.6
			l-1,3.9h-14.8v-0.6c0.9,0,1.5-0.3,1.9-0.7c0.3-0.5,0.5-1.3,0.5-2.5v-12.8c0-1.3-0.2-2.1-0.5-2.6c-0.3-0.5-0.9-0.7-1.8-0.7V225
			h14.8v3.4h-0.4c-0.2-1-0.5-1.6-0.9-1.9c-0.4-0.3-1.2-0.5-2.5-0.5h-5.9v8.8h5.7c0.8,0,1.3-0.2,1.6-0.4
			C340.8,234,341,233.5,341.1,232.7"/>
	</g>
	<g id="XMLID_323_">
		<defs>
			<rect id="XMLID_322_" x="67.5" y="206.4" width="365" height="87.3"/>
		</defs>
		<clipPath id="XMLID_442_">
			<use xlink:href="#XMLID_322_"  style="overflow:visible;"/>
		</clipPath>
		<path id="XMLID_326_" class="st83" d="M353.3,236h-1.7v5.6c0,1.2,0.2,2.1,0.5,2.6c0.3,0.5,0.9,0.7,1.8,0.7v0.6h-7.4v-0.6
			c0.9,0,1.5-0.3,1.9-0.7c0.3-0.5,0.5-1.3,0.5-2.5v-12.9c0-1.2-0.2-2-0.5-2.5c-0.3-0.5-0.9-0.7-1.9-0.7V225h8.5c2.1,0,3.7,0.5,5,1.5
			c1.3,1,1.9,2.3,1.9,3.9c0,2.5-1.4,4.2-4.3,5c0.6,0.4,1.2,0.9,1.8,1.6c0.6,0.7,1.4,1.9,2.3,3.5c1.1,1.8,1.9,3,2.5,3.5
			c0.6,0.6,1.2,0.9,1.9,0.9v0.6h-4.2c-0.9-1-1.9-2.6-3.2-4.6c-1.3-2.1-2.3-3.5-3.1-4C355,236.4,354.1,236,353.3,236 M353.7,225.8
			h-2.1v9.4h2.5c1.5,0,2.7-0.4,3.5-1.3c0.9-0.9,1.3-2,1.3-3.4s-0.5-2.5-1.4-3.4C356.6,226.2,355.3,225.8,353.7,225.8"/>
	</g>
	<g id="XMLID_328_">
		<defs>
			<rect id="XMLID_327_" x="67.5" y="206.4" width="365" height="87.3"/>
		</defs>
		<clipPath id="XMLID_443_">
			<use xlink:href="#XMLID_327_"  style="overflow:visible;"/>
		</clipPath>
		<path id="XMLID_329_" class="st84" d="M378.3,224.7h0.6v4.8h-0.6c-0.1-1.3-0.6-2.4-1.4-3.1c-0.8-0.8-1.9-1.1-3.1-1.1
			c-1.1,0-2,0.3-2.7,0.8c-0.6,0.6-1,1.3-1,2.3c0,0.9,0.3,1.7,0.8,2.4c0.6,0.7,1.8,1.6,3.6,2.8c2.2,1.3,3.6,2.4,4.4,3.4
			c0.8,1,1.1,2.1,1.1,3.3c0,1.6-0.6,3-1.7,4.1c-1.2,1.2-2.5,1.7-4.1,1.7c-0.9,0-2.1-0.3-3.6-0.8c-0.6-0.2-1-0.3-1.2-0.3
			c-0.3,0-0.6,0.3-0.8,0.8h-0.6v-5.6h0.6c0,1.5,0.5,2.8,1.5,3.7c1,0.9,2.1,1.4,3.5,1.4c1.3,0,2.3-0.3,3-1c0.8-0.6,1.2-1.5,1.2-2.7
			c0-0.8-0.3-1.6-1-2.4c-0.6-0.8-1.9-1.7-3.9-2.9c-1.6-1-2.7-1.8-3.2-2.3c-0.5-0.6-0.9-1.2-1.2-1.9c-0.3-0.6-0.4-1.4-0.4-2.2
			c0-1.6,0.5-2.9,1.6-3.8c1-1,2.4-1.5,4-1.5c0.9,0,1.9,0.2,3,0.5c0.5,0.2,0.9,0.3,1.1,0.3c0.2,0,0.3,0,0.3-0.1
			C378.1,225.1,378.2,225,378.3,224.7"/>
	</g>
	<g id="XMLID_331_">
		<defs>
			<rect id="XMLID_330_" x="67.5" y="206.4" width="365" height="87.3"/>
		</defs>
		<clipPath id="XMLID_444_">
			<use xlink:href="#XMLID_330_"  style="overflow:visible;"/>
		</clipPath>
		<path id="XMLID_332_" class="st85" d="M390.8,225v0.6c-0.9,0-1.5,0.3-1.8,0.7c-0.3,0.5-0.5,1.3-0.5,2.6v12.8
			c0,1.2,0.2,2.1,0.5,2.6c0.3,0.5,0.9,0.7,1.8,0.7v0.6h-7.4v-0.6c0.9,0,1.5-0.3,1.8-0.7c0.3-0.5,0.5-1.3,0.5-2.6v-12.8
			c0-1.3-0.2-2.1-0.5-2.6c-0.3-0.5-0.9-0.7-1.9-0.7V225L390.8,225L390.8,225z"/>
	</g>
	<g id="XMLID_334_">
		<defs>
			<rect id="XMLID_333_" x="67.5" y="206.4" width="365" height="87.3"/>
		</defs>
		<clipPath id="XMLID_445_">
			<use xlink:href="#XMLID_333_"  style="overflow:visible;"/>
		</clipPath>
		<path id="XMLID_335_" class="st86" d="M407.2,226h-3.1v15.8c0,1.2,0.1,2.1,0.4,2.5c0.3,0.4,0.9,0.6,1.8,0.6v0.6H399V245
			c0.9,0,1.5-0.3,1.8-0.8c0.3-0.5,0.5-1.3,0.5-2.5V226h-3c-1.4,0-2.4,0.2-3.1,0.7c-0.6,0.4-1,1.2-1.1,2.3h-0.6v-4.7h0.6
			c0.5,0.5,1.6,0.8,3.1,0.8H408c1.6,0,2.7-0.3,3.3-0.8h0.6v4.7h-0.4c-0.3-1.2-0.7-1.9-1.4-2.3C409.5,226.2,408.5,226,407.2,226"/>
	</g>
	<g id="XMLID_337_">
		<defs>
			<rect id="XMLID_336_" x="67.5" y="206.4" width="365" height="87.3"/>
		</defs>
		<clipPath id="XMLID_446_">
			<use xlink:href="#XMLID_336_"  style="overflow:visible;"/>
		</clipPath>
		<path id="XMLID_338_" class="st87" d="M429.2,227.9l-4.6,7.3v6.5c0,1.3,0.2,2.1,0.5,2.6c0.3,0.5,0.9,0.7,1.8,0.7v0.6h-7.5v-0.6
			c1,0,1.7-0.3,2-0.8c0.3-0.5,0.5-1.3,0.5-2.5v-6.5l-4.4-6.8c-0.7-1.2-1.3-1.9-1.8-2.2c-0.5-0.3-1.1-0.5-1.9-0.6v-0.6h8.1v0.6
			c-1.4,0-2.1,0.3-2.1,1c0,0.3,0.1,0.6,0.4,1.1l4.1,6.2l3.3-5.1c0.5-0.8,0.7-1.4,0.7-2c0-0.8-0.4-1.2-1.4-1.2V225h5.6v0.6
			c-0.8,0.1-1.3,0.2-1.8,0.5C430.3,226.4,429.8,227,429.2,227.9"/>
	</g>
	<g id="XMLID_340_">
		<defs>
			<rect id="XMLID_339_" x="67.5" y="206.4" width="365" height="87.3"/>
		</defs>
		<clipPath id="XMLID_447_">
			<use xlink:href="#XMLID_339_"  style="overflow:visible;"/>
		</clipPath>
		<path id="XMLID_343_" class="st88" d="M183.2,261.4c1,0,1.8,0.4,2.5,1.2c0.7,0.8,1.1,1.8,1.1,2.8c0,1.9-0.7,3.8-2.2,5.7
			c-1.4,1.9-3.2,2.8-5.1,2.8c-1.1,0-2-0.4-2.7-1.2c-0.7-0.8-1-1.8-1-3c0-2.1,0.8-4.1,2.3-5.8C179.7,262.2,181.4,261.4,183.2,261.4
			 M180.3,272.9c1.2,0,2.2-0.7,3.1-2.1c0.8-1.4,1.3-3.2,1.3-5.1c0-0.9-0.2-1.7-0.7-2.3c-0.5-0.6-1.1-0.9-1.7-0.9
			c-1.1,0-2.1,0.7-3,2.1c-0.9,1.4-1.3,3.1-1.3,5.1c0,1,0.2,1.8,0.7,2.4C179,272.6,179.6,272.9,180.3,272.9"/>
	</g>
	<g id="XMLID_345_">
		<defs>
			<rect id="XMLID_344_" x="67.5" y="206.4" width="365" height="87.3"/>
		</defs>
		<clipPath id="XMLID_448_">
			<use xlink:href="#XMLID_344_"  style="overflow:visible;"/>
		</clipPath>
		<path id="XMLID_346_" class="st89" d="M195.7,261.7l-0.1,1h-2.4l-2,10.5c-0.5,2.8-1.1,4.9-1.7,6.1c-0.6,1.3-1.5,2.3-2.7,3
			c-1.1,0.7-2.4,1.1-3.7,1.1c-1.8,0-3.2-0.3-4.2-1l0.5-2.5h0.6c0.4,1.8,1.4,2.8,3.1,2.8c1.3,0,2.4-0.5,3.4-1.4
			c1-0.9,1.8-3.1,2.4-6.4l2.3-12.1h-2.6l0.1-1h2.5l0.9-4.4c0.5-2.3,1.2-3.9,2.3-4.8c1.1-0.9,2.3-1.3,3.8-1.3c0.7,0,1.5,0.2,2.4,0.5
			l0.1-0.4h0.7l-0.7,3.2h-0.7c-0.1-1.7-0.9-2.6-2.3-2.6c-1.7,0-2.9,1.5-3.5,4.4l-1.2,5.4L195.7,261.7L195.7,261.7z"/>
	</g>
	<g id="XMLID_348_">
		<defs>
			<rect id="XMLID_347_" x="67.5" y="206.4" width="365" height="87.3"/>
		</defs>
		<clipPath id="XMLID_449_">
			<use xlink:href="#XMLID_347_"  style="overflow:visible;"/>
		</clipPath>
		<path id="XMLID_349_" class="st90" d="M220.5,260.8h0.6v5h-0.6c-0.2-0.9-0.5-1.4-0.8-1.7c-0.3-0.2-1-0.3-2-0.3h-5.1v7.4
			c0,0.5,0.1,0.9,0.3,1.1c0.2,0.2,0.6,0.3,1.2,0.3h3.6c1.3,0,2.2-0.1,2.7-0.2c0.5-0.1,0.9-0.4,1.3-0.8c0.4-0.4,0.7-1,1.1-1.9h0.6
			l-0.9,3.8h-14.8v-0.6c0.9,0,1.5-0.3,1.9-0.7c0.3-0.5,0.5-1.3,0.5-2.5v-12.9c0-1.3-0.2-2.1-0.5-2.6c-0.3-0.5-0.9-0.7-1.8-0.7V253
			h14.8v3.4h-0.4c-0.2-1-0.5-1.6-0.9-1.9c-0.4-0.3-1.2-0.5-2.5-0.5h-5.9v8.8h5.7c0.8,0,1.3-0.1,1.6-0.4
			C220.1,262.1,220.3,261.6,220.5,260.8"/>
	</g>
	<g id="XMLID_351_">
		<defs>
			<rect id="XMLID_350_" x="67.5" y="206.4" width="365" height="87.3"/>
		</defs>
		<clipPath id="XMLID_450_">
			<use xlink:href="#XMLID_350_"  style="overflow:visible;"/>
		</clipPath>
		<path id="XMLID_354_" class="st91" d="M226.1,273.5V273c0.8,0,1.5-0.3,1.8-0.7c0.3-0.5,0.5-1.3,0.5-2.5v-12.8
			c0-1.2-0.2-2.1-0.5-2.6c-0.3-0.5-0.9-0.7-1.8-0.7V253h9.5c3.5,0,6.3,1,8.5,3c2.1,2,3.2,4.5,3.2,7.6c0,3-1,5.4-3,7.2
			c-2,1.8-4.8,2.7-8.3,2.7L226.1,273.5L226.1,273.5z M235,253.8h-3.9v15.2c0,1.5,0.2,2.4,0.5,3c0.3,0.5,1.1,0.8,2.1,0.8h2.1
			c2.5,0,4.5-0.8,6-2.4c1.5-1.6,2.2-3.9,2.2-6.7c0-3-0.8-5.4-2.4-7.2C240,254.7,237.8,253.8,235,253.8"/>
	</g>
	<g id="XMLID_356_">
		<defs>
			<rect id="XMLID_355_" x="67.5" y="206.4" width="365" height="87.3"/>
		</defs>
		<clipPath id="XMLID_451_">
			<use xlink:href="#XMLID_355_"  style="overflow:visible;"/>
		</clipPath>
		<path id="XMLID_357_" class="st92" d="M257.2,253v0.6c-0.9,0-1.5,0.3-1.8,0.7c-0.3,0.5-0.5,1.3-0.5,2.6v12.8
			c0,1.2,0.2,2.1,0.5,2.5c0.3,0.5,0.9,0.7,1.8,0.7v0.6h-7.4V273c0.9,0,1.5-0.3,1.8-0.7c0.3-0.5,0.5-1.3,0.5-2.6v-12.8
			c0-1.3-0.2-2.1-0.5-2.6c-0.3-0.5-0.9-0.7-1.9-0.7V253H257.2L257.2,253z"/>
	</g>
	<g id="XMLID_359_">
		<defs>
			<rect id="XMLID_358_" x="67.5" y="206.4" width="365" height="87.3"/>
		</defs>
		<clipPath id="XMLID_452_">
			<use xlink:href="#XMLID_358_"  style="overflow:visible;"/>
		</clipPath>
		<path id="XMLID_360_" class="st93" d="M275.5,253.6V253h6.2v0.6c-1,0-1.7,0.2-2,0.7c-0.4,0.5-0.6,1.3-0.6,2.6v16.7h-0.6
			l-14.5-17.9v14.4c0,1,0.2,1.8,0.6,2.2c0.4,0.4,1.1,0.7,2.1,0.7v0.6h-6.2V273c1,0,1.7-0.3,2-0.8c0.3-0.5,0.5-1.4,0.5-2.8v-12
			c0-1.3-0.3-2.2-0.7-2.8c-0.5-0.6-1.3-0.9-2.3-1V253h5.3l12.9,16v-12c0-1.3-0.2-2.1-0.5-2.7C277.1,253.8,276.5,253.6,275.5,253.6"
			/>
	</g>
	<g id="XMLID_362_">
		<defs>
			<rect id="XMLID_361_" x="67.5" y="206.4" width="365" height="87.3"/>
		</defs>
		<clipPath id="XMLID_453_">
			<use xlink:href="#XMLID_361_"  style="overflow:visible;"/>
		</clipPath>
		<path id="XMLID_366_" class="st94" d="M293.5,273.5H284v-0.6c0.9,0,1.5-0.3,1.8-0.7c0.3-0.5,0.5-1.3,0.5-2.5v-12.8
			c0-1.3-0.2-2.1-0.5-2.6c-0.3-0.5-0.9-0.7-1.9-0.7V253h7.8c2.2,0,4,0.4,5.3,1.4c1.3,0.9,1.9,2.1,1.9,3.6c0,2.2-1.4,3.7-4.1,4.6v0.1
			c1.6,0.3,2.8,1,3.8,2.1c1,1.1,1.5,2.3,1.5,3.7c0,1.5-0.6,2.7-1.8,3.7C297.1,273.1,295.4,273.5,293.5,273.5 M289.1,253.8v8.7h2.1
			c1.5,0,2.7-0.4,3.6-1.2c0.9-0.8,1.3-1.8,1.3-3.2c0-1.4-0.4-2.5-1.3-3.2c-0.9-0.8-2.1-1.2-3.7-1.2L289.1,253.8L289.1,253.8z
			 M291,263.2h-2v6.1c0,1.3,0.1,2.3,0.4,2.7c0.3,0.5,0.9,0.7,1.7,0.7h1.7c1.2,0,2.2-0.4,2.9-1.2c0.8-0.8,1.2-1.9,1.2-3.2
			c0-1.5-0.5-2.8-1.6-3.7C294.2,263.7,292.8,263.3,291,263.2"/>
	</g>
	<g id="XMLID_368_">
		<defs>
			<rect id="XMLID_367_" x="67.5" y="206.4" width="365" height="87.3"/>
		</defs>
		<clipPath id="XMLID_454_">
			<use xlink:href="#XMLID_367_"  style="overflow:visible;"/>
		</clipPath>
		<path id="XMLID_369_" class="st95" d="M318.4,269.2v-12.4c0-1.2-0.2-2-0.5-2.5c-0.3-0.5-0.9-0.7-1.7-0.8V253h7.2v0.6
			c-0.9,0-1.5,0.3-1.8,0.7c-0.3,0.5-0.5,1.3-0.5,2.6v12.9c0,1.2,0.2,2,0.5,2.5c0.3,0.5,0.9,0.7,1.8,0.7v0.6h-5.1v-2.9
			c-1.9,2.2-4.2,3.4-6.9,3.4c-2.2,0-3.9-0.6-5.1-1.9c-1.2-1.3-1.9-3-1.9-5.1v-10.1c0-1.2-0.2-2.1-0.5-2.6c-0.3-0.5-1-0.7-1.9-0.7
			V253h7.4v0.6c-0.9,0-1.6,0.2-1.9,0.7c-0.3,0.5-0.5,1.3-0.5,2.5v10.4c0,1.7,0.5,3,1.4,4c0.9,1,2.2,1.4,3.9,1.4
			C314.9,272.7,316.9,271.5,318.4,269.2"/>
	</g>
	<g id="XMLID_371_">
		<defs>
			<rect id="XMLID_370_" x="67.5" y="206.4" width="365" height="87.3"/>
		</defs>
		<clipPath id="XMLID_455_">
			<use xlink:href="#XMLID_370_"  style="overflow:visible;"/>
		</clipPath>
		<path id="XMLID_374_" class="st96" d="M333.2,264h-1.7v5.6c0,1.2,0.2,2.1,0.5,2.6c0.3,0.5,0.9,0.7,1.8,0.7v0.6h-7.4v-0.6
			c0.9,0,1.5-0.3,1.9-0.7c0.3-0.5,0.5-1.3,0.5-2.5v-12.9c0-1.2-0.1-2-0.5-2.5c-0.3-0.5-0.9-0.7-1.9-0.7V253h8.5c2.1,0,3.7,0.5,5,1.5
			c1.3,1,1.9,2.3,1.9,3.8c0,2.5-1.4,4.2-4.3,5c0.6,0.4,1.2,0.9,1.8,1.6c0.6,0.7,1.4,1.9,2.3,3.5c1.1,1.8,1.9,3,2.5,3.5
			c0.6,0.6,1.2,0.9,1.9,0.9v0.6h-4.2c-0.9-1-1.9-2.6-3.2-4.6c-1.3-2.1-2.3-3.5-3.1-4C334.9,264.3,334.1,264,333.2,264 M333.7,253.8
			h-2.1v9.4h2.5c1.5,0,2.7-0.4,3.5-1.3c0.9-0.9,1.3-2,1.3-3.4c0-1.4-0.5-2.5-1.4-3.4C336.5,254.2,335.3,253.8,333.7,253.8"/>
	</g>
	<g id="XMLID_376_">
		<defs>
			<rect id="XMLID_375_" x="67.5" y="206.4" width="365" height="87.3"/>
		</defs>
		<clipPath id="XMLID_456_">
			<use xlink:href="#XMLID_375_"  style="overflow:visible;"/>
		</clipPath>
		<path id="XMLID_377_" class="st97" d="M366.5,264.7v0.6c-0.9,0-1.6,0.2-1.9,0.6c-0.4,0.4-0.6,1.2-0.6,2.1v5.5
			c-0.5,0.1-1.4,0.3-2.7,0.3c-1.3,0.1-2.3,0.2-3,0.2c-3.8,0-6.7-0.9-8.9-2.8c-2.1-1.9-3.2-4.4-3.2-7.4c0-2.1,0.5-4.1,1.4-5.8
			c0.9-1.7,2.2-3.1,3.9-4.1c1.7-1,3.4-1.5,5.3-1.5c1.1,0,2.3,0.2,3.7,0.6c0.8,0.3,1.5,0.4,1.9,0.4c0.6,0,1-0.2,1.2-0.7h0.6v6.1h-0.6
			c-0.2-1.7-1-3-2.3-4c-1.3-1-2.8-1.5-4.5-1.5c-2.2,0-4,0.9-5.3,2.6c-1.4,1.7-2.1,4-2.1,6.7c0,3,0.8,5.5,2.4,7.5c1.6,2,3.6,3,6.1,3
			c2.3,0,3.5-0.8,3.5-2.2v-2.2c0-1.3-0.2-2.1-0.5-2.7c-0.3-0.5-0.9-0.8-1.7-0.8h-0.8v-0.6L366.5,264.7L366.5,264.7z"/>
	</g>
	<g id="XMLID_379_">
		<defs>
			<rect id="XMLID_378_" x="67.5" y="206.4" width="365" height="87.3"/>
		</defs>
		<clipPath id="XMLID_457_">
			<use xlink:href="#XMLID_378_"  style="overflow:visible;"/>
		</clipPath>
		<path id="XMLID_380_" class="st98" d="M384.4,269.7v-6h-11.2v6c0,1.2,0.2,2,0.5,2.5c0.3,0.5,1,0.7,1.9,0.7v0.6h-7.4V273
			c0.9,0,1.5-0.3,1.8-0.7c0.3-0.5,0.5-1.3,0.5-2.5v-12.8c0-1.3-0.2-2.1-0.5-2.6c-0.3-0.5-0.9-0.7-1.8-0.7V253h7.4v0.6
			c-0.9,0-1.5,0.3-1.9,0.8c-0.3,0.5-0.5,1.3-0.5,2.5v5.8h11.2v-5.8c0-1.3-0.2-2.1-0.5-2.6c-0.3-0.5-0.9-0.7-1.8-0.7V253h7.4v0.6
			c-0.9,0-1.5,0.3-1.8,0.7c-0.3,0.5-0.5,1.3-0.5,2.6v12.8c0,1.2,0.2,2.1,0.5,2.5c0.3,0.4,0.9,0.7,1.8,0.7v0.6h-7.4V273
			c0.9,0,1.5-0.3,1.8-0.7C384.3,271.8,384.4,270.9,384.4,269.7"/>
	</g>
</g>
</svg>
