<?xml version="1.0" encoding="UTF-8" standalone="no"?>
<!-- Created with Inkscape (http://www.inkscape.org/) -->

<svg
   width="171.97916mm"
   height="87.3125mm"
   viewBox="0 0 171.97916 87.3125"
   version="1.1"
   id="svg1"
   inkscape:version="1.3.2 (1:1.3.2+202311252150+091e20ef0f)"
   sodipodi:docname="nf-core-module-file-relationship.svg"
   xmlns:inkscape="http://www.inkscape.org/namespaces/inkscape"
   xmlns:sodipodi="http://sodipodi.sourceforge.net/DTD/sodipodi-0.dtd"
   xmlns="http://www.w3.org/2000/svg"
   xmlns:svg="http://www.w3.org/2000/svg">
  <sodipodi:namedview
     id="namedview1"
     pagecolor="#505050"
     bordercolor="#ffffff"
     borderopacity="1"
     inkscape:showpageshadow="0"
     inkscape:pageopacity="0"
     inkscape:pagecheckerboard="1"
     inkscape:deskcolor="#d1d1d1"
     inkscape:document-units="mm"
     showgrid="false"
     inkscape:zoom="1.0305625"
     inkscape:cx="291.58833"
     inkscape:cy="120.32264"
     inkscape:current-layer="layer1">
    <inkscape:grid
       id="grid1"
       units="px"
       originx="-23.812501"
       originy="-76.729172"
       spacingx="0.26458333"
       spacingy="0.26458334"
       empcolor="#e50000"
       empopacity="0.30196078"
       color="#e50000"
       opacity="0.14901961"
       empspacing="5"
       dotted="true"
       gridanglex="30"
       gridanglez="30"
       visible="false" />
  </sodipodi:namedview>
  <defs
     id="defs1">
    <marker
       style="overflow:visible"
       id="RoundedArrow"
       refX="0"
       refY="0"
       orient="auto-start-reverse"
       inkscape:stockid="Rounded arrow"
       markerWidth="1"
       markerHeight="1"
       viewBox="0 0 1 1"
       inkscape:isstock="true"
       inkscape:collect="always"
       preserveAspectRatio="xMidYMid">
      <path
         transform="scale(0.7)"
         d="m -0.21114562,-4.1055728 6.42229122,3.21114561 a 1,1 90 0 1 0,1.78885438 L -0.21114562,4.1055728 A 1.236068,1.236068 31.717474 0 1 -2,3 v -6 a 1.236068,1.236068 148.28253 0 1 1.78885438,-1.1055728 z"
         style="fill:context-stroke;fill-rule:evenodd;stroke:none"
         id="path8" />
    </marker>
    <marker
       style="overflow:visible"
       id="RoundedArrow-8"
       refX="0"
       refY="0"
       orient="auto-start-reverse"
       inkscape:stockid="Rounded arrow"
       markerWidth="1"
       markerHeight="1"
       viewBox="0 0 1 1"
       inkscape:isstock="true"
       inkscape:collect="always"
       preserveAspectRatio="xMidYMid">
      <path
         transform="scale(0.7)"
         d="m -0.21114562,-4.1055728 6.42229122,3.21114561 a 1,1 90 0 1 0,1.78885438 L -0.21114562,4.1055728 A 1.236068,1.236068 31.717474 0 1 -2,3 v -6 a 1.236068,1.236068 148.28253 0 1 1.78885438,-1.1055728 z"
         style="fill:context-stroke;fill-rule:evenodd;stroke:none"
         id="path8-4" />
    </marker>
    <marker
       style="overflow:visible"
       id="RoundedArrow-8-1"
       refX="0"
       refY="0"
       orient="auto-start-reverse"
       inkscape:stockid="Rounded arrow"
       markerWidth="1"
       markerHeight="1"
       viewBox="0 0 1 1"
       inkscape:isstock="true"
       inkscape:collect="always"
       preserveAspectRatio="xMidYMid">
      <path
         transform="scale(0.7)"
         d="m -0.21114562,-4.1055728 6.42229122,3.21114561 a 1,1 90 0 1 0,1.78885438 L -0.21114562,4.1055728 A 1.236068,1.236068 31.717474 0 1 -2,3 v -6 a 1.236068,1.236068 148.28253 0 1 1.78885438,-1.1055728 z"
         style="fill:context-stroke;fill-rule:evenodd;stroke:none"
         id="path8-4-0" />
    </marker>
    <marker
       style="overflow:visible"
       id="RoundedArrow-8-1-1"
       refX="0"
       refY="0"
       orient="auto-start-reverse"
       inkscape:stockid="Rounded arrow"
       markerWidth="1"
       markerHeight="1"
       viewBox="0 0 1 1"
       inkscape:isstock="true"
       inkscape:collect="always"
       preserveAspectRatio="xMidYMid">
      <path
         transform="scale(0.7)"
         d="m -0.21114562,-4.1055728 6.42229122,3.21114561 a 1,1 90 0 1 0,1.78885438 L -0.21114562,4.1055728 A 1.236068,1.236068 31.717474 0 1 -2,3 v -6 a 1.236068,1.236068 148.28253 0 1 1.78885438,-1.1055728 z"
         style="fill:context-stroke;fill-rule:evenodd;stroke:none"
         id="path8-4-0-5" />
    </marker>
    <marker
       style="overflow:visible"
       id="RoundedArrow-6"
       refX="0"
       refY="0"
       orient="auto-start-reverse"
       inkscape:stockid="Rounded arrow"
       markerWidth="1"
       markerHeight="1"
       viewBox="0 0 1 1"
       inkscape:isstock="true"
       inkscape:collect="always"
       preserveAspectRatio="xMidYMid">
      <path
         transform="scale(0.7)"
         d="m -0.21114562,-4.1055728 6.42229122,3.21114561 a 1,1 90 0 1 0,1.78885438 L -0.21114562,4.1055728 A 1.236068,1.236068 31.717474 0 1 -2,3 v -6 a 1.236068,1.236068 148.28253 0 1 1.78885438,-1.1055728 z"
         style="fill:context-stroke;fill-rule:evenodd;stroke:none"
         id="path8-9" />
    </marker>
  </defs>
  <g
     inkscape:label="Layer 1"
     inkscape:groupmode="layer"
     id="layer1"
     transform="translate(-23.8125,-76.729172)">
    <rect
       style="fill:#adb5bd;fill-opacity:1;stroke:none;stroke-width:1.32292;stroke-linecap:round;stroke-dasharray:none;stroke-opacity:1;paint-order:stroke markers fill"
       id="rect4"
       width="34.395832"
       height="87.3125"
       x="71.4375"
       y="76.729172" />
    <rect
       style="fill:#adb5bd;fill-opacity:1;stroke:none;stroke-width:1.32292;stroke-linecap:round;stroke-dasharray:none;stroke-opacity:1;paint-order:stroke markers fill"
       id="rect4-48"
       width="34.39584"
       height="87.3125"
       x="116.41666"
       y="76.729172" />
    <rect
       style="fill:#adb5bd;fill-opacity:1;stroke:none;stroke-width:1.32292;stroke-linecap:round;stroke-dasharray:none;stroke-opacity:1;paint-order:stroke markers fill"
       id="rect4-48-7"
       width="39.6875"
       height="79.374992"
       x="76.729172"
       y="-195.79166"
       transform="rotate(90)" />
    <rect
       style="fill:#adb5bd;fill-opacity:1;stroke:none;stroke-width:1.32292;stroke-linecap:round;stroke-dasharray:none;stroke-opacity:1;paint-order:stroke markers fill"
       id="rect4-4"
       width="39.6875"
       height="42.333332"
       x="23.8125"
       y="76.729172" />
    <g
       id="g1"
       transform="translate(-1.3229107)">
      <path
         id="path6276-4"
         style="fill:#ffffff;stroke-width:0.230702"
         d="M 82.020815,89.716739 V 110.8834 h 15.87501 V 95.008413 l -5.29168,-5.291674 z"
         sodipodi:nodetypes="cccccc" />
      <path
         id="path5862"
         d="m 99.218745,93.685483 c 0,-0.26457 -0.26458,-0.52916 -0.52917,-0.79375 l -4.49791,-3.968747 c -0.26458,-0.264588 -0.52917,-0.529164 -0.82788,-0.529164 h -3.40545 -7.93751 c -0.79375,0 -1.32292,0.529164 -1.32292,1.322916 0,7.055555 0,14.111102 0,21.166662 0,0.79375 0.52917,1.32292 1.32292,1.32292 h 7.93751 7.9375 c 0.79374,0 1.32291,-0.52917 1.32291,-1.32292 z M 97.895835,110.8834 H 82.020825 V 89.716738 h 10.58333 v 4.762505 c 0,0.3175 0.20353,0.52916 0.52917,0.52916 h 4.76251 z"
         inkscape:connector-curvature="0"
         sodipodi:nodetypes="cccscsccscscccccssccc"
         style="stroke-width:0.23167" />
      <path
         id="rect18347"
         style="fill-rule:evenodd;stroke-width:0.122027;paint-order:fill markers stroke"
         d="m 80.746685,96.331333 c 6.14109,0 12.28217,0 18.42326,0 0.75993,0 1.371715,0.49707 1.371715,1.11451 v 2.854217 2.85424 c 0,0.61744 -0.611785,1.11451 -1.371715,1.11451 -6.14109,0 -12.28217,0 -18.42326,0 -0.75992,0 -1.3717,-0.49707 -1.3717,-1.11451 v -2.85424 -2.854217 c 0,-0.61744 0.61178,-1.11451 1.3717,-1.11451 z"
         sodipodi:nodetypes="ccscsccscsc"
         inkscape:export-filename=".\file_single.svg"
         inkscape:export-xdpi="200"
         inkscape:export-ydpi="200" />
      <text
         xml:space="preserve"
         style="font-weight:bold;font-size:3.52778px;font-family:'Maven Pro';-inkscape-font-specification:'Maven Pro, Bold';text-align:center;text-orientation:upright;text-anchor:middle;fill:#ffffff;fill-opacity:1;stroke:none;stroke-width:0.227951;stroke-linecap:round;stroke-linejoin:miter;stroke-miterlimit:0.6;stroke-dasharray:none;stroke-dashoffset:2.00001;stroke-opacity:1;paint-order:fill markers stroke;stop-color:#000000"
         x="89.894829"
         y="101.54538"
         id="text18569"><tspan
           sodipodi:role="line"
           id="tspan18567"
           style="font-size:3.52778px;fill:#ffffff;fill-opacity:1;stroke:none;stroke-width:0.227951"
           x="89.894829"
           y="101.54538">main.nf</tspan></text>
    </g>
    <g
       id="g3"
       transform="translate(1.3229096,-0.2415995)">
      <path
         id="path6276-4-3"
         style="display:inline;fill:#ffffff;stroke-width:0.230702"
         d="M 124.35417,89.958336 V 111.125 h 15.875 V 95.250019 l -5.29168,-5.291683 z"
         sodipodi:nodetypes="cccccc" />
      <path
         id="path5862-6"
         d="m 141.55209,93.927079 c 0,-0.26457 -0.26458,-0.52916 -0.52917,-0.79375 l -4.49791,-3.968746 c -0.26458,-0.264588 -0.52917,-0.529164 -0.82788,-0.529164 h -3.40545 -7.93751 c -0.79375,0 -1.32292,0.529164 -1.32292,1.322916 0,7.055554 0,14.111105 0,21.166665 0,0.79375 0.52917,1.32292 1.32292,1.32292 h 7.93751 7.9375 c 0.79375,0 1.32291,-0.52917 1.32291,-1.32292 z M 140.22917,111.125 h -15.875 V 89.958335 h 10.58332 v 4.762494 c 0,0.31751 0.20353,0.52917 0.52917,0.52917 h 4.76251 z"
         inkscape:connector-curvature="0"
         sodipodi:nodetypes="cccscsccscscccccssccc"
         style="display:inline;stroke-width:0.23167" />
      <path
         id="rect18347-0"
         style="display:inline;fill-rule:evenodd;stroke-width:0.122027;paint-order:fill markers stroke"
         d="m 123.08004,96.572929 c 6.14109,0 12.28217,0 18.42326,0 0.75993,0 1.37171,0.49707 1.37171,1.11451 v 2.854221 2.85424 c 0,0.61744 -0.61178,1.11451 -1.37171,1.11451 -6.14109,0 -12.28217,0 -18.42326,0 -0.75992,0 -1.3717,-0.49707 -1.3717,-1.11451 v -2.85424 -2.854221 c 0,-0.61744 0.61178,-1.11451 1.3717,-1.11451 z"
         sodipodi:nodetypes="ccscsccscsc"
         inkscape:export-filename=".\file_single.svg"
         inkscape:export-xdpi="200"
         inkscape:export-ydpi="200" />
      <text
         xml:space="preserve"
         style="font-weight:bold;font-size:3.52778px;font-family:'Maven Pro';-inkscape-font-specification:'Maven Pro, Bold';text-align:center;text-orientation:upright;text-anchor:middle;display:inline;fill:#ffffff;fill-opacity:1;stroke:none;stroke-width:0.227951;stroke-linecap:round;stroke-linejoin:miter;stroke-miterlimit:0.6;stroke-dasharray:none;stroke-dashoffset:2.00001;stroke-opacity:1;paint-order:fill markers stroke;stop-color:#000000"
         x="132.25812"
         y="101.77816"
         id="text18569-6"><tspan
           sodipodi:role="line"
           id="tspan18567-26"
           style="font-size:3.52778px;fill:#ffffff;fill-opacity:1;stroke:none;stroke-width:0.227951"
           x="132.25812"
           y="101.77816">main.nf.test</tspan></text>
    </g>
    <g
       id="g4"
       transform="translate(5.8208334)">
      <path
         id="path6276-4-3-2"
         style="display:inline;fill:#ffffff;stroke-width:0.230702"
         d="M 164.74601,89.716739 V 110.8834 h 15.87501 V 95.008423 l -5.29168,-5.291684 z"
         sodipodi:nodetypes="cccccc" />
      <path
         id="path5862-6-2"
         d="m 181.94393,93.685483 c 0,-0.26457 -0.26457,-0.52916 -0.52916,-0.79375 l -4.49791,-3.968749 c -0.26458,-0.26458 -0.52917,-0.52916 -0.82788,-0.52916 h -3.40545 -7.93751 c -0.79375,0 -1.32292,0.52916 -1.32292,1.32292 0,7.055549 0,14.111096 0,21.166656 0,0.79375 0.52916,1.32292 1.32292,1.32292 h 7.93751 7.9375 c 0.79375,0 1.32291,-0.52917 1.32291,-1.32292 z M 180.62102,110.8834 H 164.74601 V 89.716744 h 10.58333 v 4.762489 c 0,0.31751 0.20353,0.52917 0.52917,0.52917 h 4.76251 z"
         inkscape:connector-curvature="0"
         sodipodi:nodetypes="cccscsccscscccccssccc"
         style="display:inline;stroke-width:0.23167" />
      <path
         id="rect18347-0-8"
         style="display:inline;fill-rule:evenodd;stroke-width:0.122027;paint-order:fill markers stroke"
         d="m 163.47187,96.331333 c 6.14109,0 12.28218,0 18.42326,0 0.75993,0 1.37172,0.49707 1.37172,1.11451 v 2.854217 2.85424 c 0,0.61744 -0.61179,1.11451 -1.37172,1.11451 -6.14108,0 -12.28217,0 -18.42326,0 -0.75991,0 -1.3717,-0.49707 -1.3717,-1.11451 v -2.85424 -2.854217 c 0,-0.61744 0.61179,-1.11451 1.3717,-1.11451 z"
         sodipodi:nodetypes="ccscsccscsc"
         inkscape:export-filename=".\file_single.svg"
         inkscape:export-xdpi="200"
         inkscape:export-ydpi="200" />
      <text
         xml:space="preserve"
         style="font-weight:bold;font-size:2.46944px;font-family:'Maven Pro';-inkscape-font-specification:'Maven Pro, Bold';text-align:center;text-orientation:upright;text-anchor:middle;display:inline;fill:#ffffff;fill-opacity:1;stroke:none;stroke-width:0.227951;stroke-linecap:round;stroke-linejoin:miter;stroke-miterlimit:0.6;stroke-dasharray:none;stroke-dashoffset:2.00001;stroke-opacity:1;paint-order:fill markers stroke;stop-color:#000000"
         x="172.64894"
         y="100.96682"
         id="text18569-6-9"><tspan
           sodipodi:role="line"
           id="tspan18567-26-7"
           style="font-size:2.46944px;fill:#ffffff;fill-opacity:1;stroke:none;stroke-width:0.227951"
           x="172.64894"
           y="100.96682">main.nf.test.snap</tspan></text>
    </g>
    <g
       id="g2"
       transform="translate(2.4729396,4.4362952)">
      <path
         id="path6276-4-3-2-2"
         style="display:inline;fill:#ffffff;stroke-width:0.230702"
         d="m 123.20414,133.14714 v 21.16666 h 15.875 v -15.87498 l -5.29168,-5.29168 z"
         sodipodi:nodetypes="cccccc" />
      <path
         id="path5862-6-2-9"
         d="m 140.40206,137.1159 c 0,-0.26457 -0.26458,-0.52916 -0.52917,-0.79375 l -4.49791,-3.96875 c -0.26458,-0.26458 -0.52917,-0.52917 -0.82788,-0.52917 h -3.40545 -7.93751 c -0.79375,0 -1.32292,0.52917 -1.32292,1.32292 0,7.05555 0,14.1111 0,21.16666 0,0.79375 0.52917,1.32292 1.32292,1.32292 h 7.93751 7.9375 c 0.79375,0 1.32291,-0.52917 1.32291,-1.32292 z m -1.32292,17.19791 h -15.875 v -21.16665 h 10.58332 v 4.76249 c 0,0.31751 0.20353,0.52917 0.52917,0.52917 h 4.76251 z"
         inkscape:connector-curvature="0"
         sodipodi:nodetypes="cccscsccscscccccssccc"
         style="display:inline;stroke-width:0.23167" />
      <path
         id="rect18347-0-8-3"
         style="display:inline;fill-rule:evenodd;stroke-width:0.122027;paint-order:fill markers stroke"
         d="m 121.93001,141.08466 c 6.14109,0 12.28217,0 18.42326,0 0.75993,0 1.37171,0.49706 1.37171,1.1145 v 2.85422 2.85425 c 0,0.61744 -0.61178,1.1145 -1.37171,1.1145 -6.14109,0 -12.28217,0 -18.42326,0 -0.75992,0 -1.3717,-0.49706 -1.3717,-1.1145 v -2.85425 -2.85422 c 0,-0.61744 0.61178,-1.1145 1.3717,-1.1145 z"
         sodipodi:nodetypes="ccscsccscsc"
         inkscape:export-filename=".\file_single.svg"
         inkscape:export-xdpi="200"
         inkscape:export-ydpi="200" />
      <text
         xml:space="preserve"
         style="font-weight:bold;font-size:2.46944px;font-family:'Maven Pro';-inkscape-font-specification:'Maven Pro, Bold';text-align:center;text-orientation:upright;text-anchor:middle;display:inline;fill:#ffffff;fill-opacity:1;stroke:none;stroke-width:0.227951;stroke-linecap:round;stroke-linejoin:miter;stroke-miterlimit:0.6;stroke-dasharray:none;stroke-dashoffset:2.00001;stroke-opacity:1;paint-order:fill markers stroke;stop-color:#000000"
         x="131.133"
         y="145.66829"
         id="text18569-6-9-1"><tspan
           sodipodi:role="line"
           id="tspan18567-26-7-9"
           style="font-size:2.46944px;fill:#ffffff;fill-opacity:1;stroke:none;stroke-width:0.227951"
           x="131.133"
           y="145.66829">nextflow.config</tspan></text>
    </g>
    <path
       id="path6276-4-6"
       style="display:inline;fill:#ffffff;stroke-width:0.230702"
       d="m 80.697903,137.58344 v 21.16667 h 15.87501 v -15.875 l -5.29168,-5.29167 z"
       sodipodi:nodetypes="cccccc" />
    <path
       id="path5862-2"
       d="m 97.895823,141.55219 c 0,-0.26458 -0.26458,-0.52917 -0.52917,-0.79375 l -4.49791,-3.96875 c -0.26457,-0.26459 -0.52916,-0.52916 -0.82787,-0.52916 h -3.40545 -7.93751 c -0.79375,0 -1.32292,0.52916 -1.32292,1.32291 0,7.05556 0,14.11111 0,21.16667 0,0.79375 0.52916,1.32292 1.32292,1.32292 h 7.93751 7.9375 c 0.79374,0 1.32291,-0.52917 1.32291,-1.32292 z m -1.32291,17.19792 h -15.875 v -21.16667 h 10.58332 v 4.7625 c 0,0.31751 0.20353,0.52916 0.52917,0.52916 h 4.76251 z"
       inkscape:connector-curvature="0"
       sodipodi:nodetypes="cccscsccscscccccssccc"
       style="display:inline;stroke-width:0.23167" />
    <path
       id="rect18347-9"
       style="display:inline;fill-rule:evenodd;stroke-width:0.122027;paint-order:fill markers stroke"
       d="m 79.423783,144.19804 c 6.14108,0 12.28217,0 18.42326,0 0.75993,0 1.371716,0.49706 1.371716,1.1145 v 2.85422 2.85425 c 0,0.61744 -0.611786,1.1145 -1.371716,1.1145 -6.14109,0 -12.28218,0 -18.42326,0 -0.75991,0 -1.3717,-0.49706 -1.3717,-1.1145 v -2.85425 -2.85422 c 0,-0.61744 0.61179,-1.1145 1.3717,-1.1145 z"
       sodipodi:nodetypes="ccscsccscsc"
       inkscape:export-filename=".\file_single.svg"
       inkscape:export-xdpi="200"
       inkscape:export-ydpi="200" />
    <text
       xml:space="preserve"
       style="font-weight:bold;font-size:2.46944px;font-family:'Maven Pro';-inkscape-font-specification:'Maven Pro, Bold';text-align:center;text-orientation:upright;text-anchor:middle;display:inline;fill:#ffffff;fill-opacity:1;stroke:none;stroke-width:0.227951;stroke-linecap:round;stroke-linejoin:miter;stroke-miterlimit:0.6;stroke-dasharray:none;stroke-dashoffset:2.00001;stroke-opacity:1;paint-order:fill markers stroke;stop-color:#000000"
       x="88.671219"
       y="148.78537"
       id="text18569-1"><tspan
         sodipodi:role="line"
         id="tspan18567-2"
         style="font-size:2.46944px;fill:#ffffff;fill-opacity:1;stroke:none;stroke-width:0.227951"
         x="88.671219"
         y="148.78537">environment.yml</tspan></text>
    <path
       id="path6276-4-6-9"
       style="display:inline;fill:#ffffff;stroke-width:0.230702"
       d="M 35.718739,89.716741 V 110.8834 H 51.593748 V 95.008415 l -5.291687,-5.291673 z"
       sodipodi:nodetypes="cccccc" />
    <path
       id="path5862-2-2"
       d="m 52.916645,93.685482 c 0,-0.26458 -0.26458,-0.52917 -0.529167,-0.79375 l -4.49791,-3.968748 c -0.26457,-0.26459 -0.52916,-0.52916 -0.827867,-0.52916 h -3.40545 -7.937512 c -0.79375,0 -1.32292,0.52916 -1.32292,1.322909 0,7.055559 0,14.111107 0,21.166667 0,0.79375 0.52916,1.32292 1.32292,1.32292 h 7.937512 7.937497 c 0.79374,0 1.322907,-0.52917 1.322907,-1.32292 z M 51.593738,110.8834 H 35.718739 V 89.716734 h 10.583322 v 4.762498 c 0,0.31751 0.20353,0.52916 0.52917,0.52916 h 4.762507 z"
       inkscape:connector-curvature="0"
       sodipodi:nodetypes="cccscsccscscccccssccc"
       style="display:inline;stroke-width:0.23167" />
    <path
       id="rect18347-9-0"
       style="display:inline;fill-rule:evenodd;stroke-width:0.122027;paint-order:fill markers stroke"
       d="m 34.444589,96.331333 c 6.141089,0 12.282172,0 18.423256,0 0.75993,0 1.37171,0.49707 1.37171,1.11451 v 2.854217 2.85424 c 0,0.61744 -0.61178,1.11451 -1.37171,1.11451 -6.141084,0 -12.282167,0 -18.423256,0 -0.75991,0 -1.3717,-0.49707 -1.3717,-1.11451 v -2.85424 -2.854217 c 0,-0.61744 0.61179,-1.11451 1.3717,-1.11451 z"
       sodipodi:nodetypes="ccscsccscsc"
       inkscape:export-filename=".\file_single.svg"
       inkscape:export-xdpi="200"
       inkscape:export-ydpi="200" />
    <text
       xml:space="preserve"
       style="font-weight:bold;font-size:3.52778px;font-family:'Maven Pro';-inkscape-font-specification:'Maven Pro, Bold';text-align:center;text-orientation:upright;text-anchor:middle;display:inline;fill:#ffffff;fill-opacity:1;stroke:none;stroke-width:0.227951;stroke-linecap:round;stroke-linejoin:miter;stroke-miterlimit:0.6;stroke-dasharray:none;stroke-dashoffset:2.00001;stroke-opacity:1;paint-order:fill markers stroke;stop-color:#000000"
       x="43.656235"
       y="101.18378"
       id="text18569-1-2"><tspan
         sodipodi:role="line"
         id="tspan18567-2-3"
         style="font-size:3.52778px;fill:#ffffff;fill-opacity:1;stroke:none;stroke-width:0.227951"
         x="43.656235"
         y="101.18378">meta.yaml</tspan></text>
    <path
       style="fill:#000000;fill-opacity:1;stroke:#000000;stroke-width:1.32292;stroke-linecap:round;stroke-dasharray:none;stroke-opacity:1;marker-end:url(#RoundedArrow);paint-order:stroke markers fill"
       d="M 88.635412,131.67621 V 121.09288"
       id="path1" />
    <path
       style="fill:#5a9cfe;stroke:#000000;stroke-width:1.32292;stroke-linecap:round;stroke-dasharray:none;stroke-opacity:1;marker-end:url(#RoundedArrow-6);paint-order:stroke markers fill"
       d="M 133.61458,131.67621 V 121.09288"
       id="path1-4" />
    <path
       style="display:inline;fill:#000000;fill-opacity:1;stroke:#000000;stroke-width:1.32292;stroke-linecap:round;stroke-dasharray:none;stroke-opacity:1;marker-end:url(#RoundedArrow-8);paint-order:stroke markers fill"
       d="M 74.192645,100.30007 H 63.609315"
       id="path1-0" />
    <path
       style="display:inline;fill:#000000;fill-opacity:1;stroke:#000000;stroke-width:1.32292;stroke-linecap:round;stroke-dasharray:none;stroke-opacity:1;marker-end:url(#RoundedArrow-8-1);paint-order:stroke markers fill"
       d="m 103.05522,100.30007 h 10.58332"
       id="path1-0-2" />
    <path
       style="display:inline;fill:#000000;fill-opacity:1;stroke:#000000;stroke-width:1.32292;stroke-linecap:round;stroke-dasharray:none;stroke-opacity:1;marker-end:url(#RoundedArrow-8-1-1);paint-order:stroke markers fill"
       d="m 147.50521,100.30007 h 10.58332"
       id="path1-0-2-7" />
    <text
       xml:space="preserve"
       style="font-size:4.23333px;line-height:1;font-family:Inter;-inkscape-font-specification:Inter;text-decoration-color:#000000;letter-spacing:0px;fill:#adb5bd;fill-opacity:1;stroke:none;stroke-width:1.32292;stroke-linecap:round;stroke-dasharray:none;stroke-opacity:1;paint-order:stroke markers fill"
       x="78.623589"
       y="84.328003"
       id="text4"><tspan
         sodipodi:role="line"
         id="tspan4"
         style="font-style:normal;font-variant:normal;font-weight:bold;font-stretch:normal;font-size:4.23333px;font-family:'Maven Pro';-inkscape-font-specification:'Maven Pro Bold';fill:#ffffff;fill-opacity:1;stroke-width:1.32292"
         x="78.623589"
         y="84.328003">Execution</tspan></text>
    <text
       xml:space="preserve"
       style="font-size:4.23333px;line-height:1;font-family:Inter;-inkscape-font-specification:Inter;text-decoration-color:#000000;letter-spacing:0px;fill:#adb5bd;fill-opacity:1;stroke:none;stroke-width:1.32292;stroke-linecap:round;stroke-dasharray:none;stroke-opacity:1;paint-order:stroke markers fill"
       x="148.87682"
       y="83.898323"
       id="text4-2"><tspan
         sodipodi:role="line"
         id="tspan4-0"
         style="font-style:normal;font-variant:normal;font-weight:bold;font-stretch:normal;font-size:4.23333px;font-family:'Maven Pro';-inkscape-font-specification:'Maven Pro Bold';fill:#ffffff;fill-opacity:1;stroke-width:1.32292"
         x="148.87682"
         y="83.898323">Testing</tspan></text>
    <text
       xml:space="preserve"
       style="font-size:4.23333px;line-height:1;font-family:Inter;-inkscape-font-specification:Inter;text-decoration-color:#000000;letter-spacing:0px;fill:#adb5bd;fill-opacity:1;stroke:none;stroke-width:1.32292;stroke-linecap:round;stroke-dasharray:none;stroke-opacity:1;paint-order:stroke markers fill"
       x="28.037374"
       y="84.328003"
       id="text4-2-6"><tspan
         sodipodi:role="line"
         id="tspan4-0-6"
         style="font-style:normal;font-variant:normal;font-weight:bold;font-stretch:normal;font-size:4.23333px;font-family:'Maven Pro';-inkscape-font-specification:'Maven Pro Bold';fill:#ffffff;fill-opacity:1;stroke-width:1.32292"
         x="28.037374"
         y="84.328003">Documentation</tspan></text>
  </g>
</svg>
