<?xml version="1.0" encoding="UTF-8" standalone="no"?>
<!DOCTYPE svg PUBLIC "-//W3C//DTD SVG 1.1//EN" "http://www.w3.org/Graphics/SVG/1.1/DTD/svg11.dtd">
<svg width="100%" height="100%" viewBox="0 0 2134 2134" version="1.1"
    xmlns="http://www.w3.org/2000/svg" xmlns:xlink="http://www.w3.org/1999/xlink"
    xml:space="preserve" xmlns:serif="http://www.serif.com/"
    style="fill-rule:evenodd;clip-rule:evenodd;stroke-linejoin:round;stroke-miterlimit:2;"><path d="M1766.67,1666.67c-0,55.229 -44.771,100 -100,100c-55.229,-0 -100,-44.771 -100,-100c-0,-55.229 44.771,-100 100,-100c55.229,-0 100,44.771 100,100Zm-366.667,-100c-55.229,-0 -100,44.771 -100,100c0,55.229 44.771,100 100,100c55.229,-0 100,-44.771 100,-100c0,-55.229 -44.771,-100 -100,-100Zm266.667,-600c-55.229,-0 -100,44.77 -100,100c-0,55.229 44.771,100 100,100c55.229,-0 100,-44.771 100,-100c-0,-55.23 -44.771,-100 -100,-100Zm-266.667,-0c-55.229,-0 -100,44.77 -100,100c0,55.229 44.771,100 100,100c55.229,-0 100,-44.771 100,-100c0,-55.23 -44.771,-100 -100,-100Zm733.333,-300c0.039,35.113 -9.217,69.619 -26.825,100c17.608,30.38 26.864,64.886 26.825,100l0,400c0.039,35.113 -9.217,69.619 -26.825,100c17.608,30.38 26.864,64.886 26.825,100l0,400c0,110.458 -89.541,200 -200,200l-1733.33,-0c-110.458,-0 -200,-89.542 -200,-200l0,-400c-0.039,-35.114 9.218,-69.62 26.825,-100c-17.607,-30.381 -26.864,-64.887 -26.825,-100l0,-400c-0.039,-35.114 9.218,-69.62 26.825,-100c-17.607,-30.381 -26.864,-64.887 -26.825,-100l0,-400c0,-110.459 89.542,-200 200,-200l1733.33,-0c110.459,-0 200,89.541 200,200l0,400Zm-1933.33,-0l1733.33,-0l0,-400l-1733.33,-0l0,400Zm1733.33,200l-1733.33,-0l0,400l1733.33,-0l0,-400Zm0,600l-1733.33,-0l0,400l1733.33,-0l0,-400Zm-266.666,-900c55.229,-0 100,-44.771 100,-100c-0,-55.23 -44.771,-100 -100,-100c-55.229,-0 -100,44.77 -100,100c-0,55.229 44.771,100 100,100Zm-266.667,-0c55.229,-0 100,-44.771 100,-100c0,-55.23 -44.771,-100 -100,-100c-55.229,-0 -100,44.77 -100,100c0,55.229 44.771,100 100,100Z" style="fill-rule:nonzero;"/><circle cx="1401.08" cy="1063.17" r="105.525" class="lights"/><circle cx="1401.08" cy="1670.49" r="105.525" class="lights"/><circle cx="1401.08" cy="470.361" r="105.525" class="lights"/><circle cx="1665.77" cy="1063.17" r="105.525" class="lights"/><circle cx="1665.77" cy="1670.49" r="105.525" class="lights"/><circle cx="1665.77" cy="470.361" r="105.525" class="lights"/></svg>