<svg xmlns="http://www.w3.org/2000/svg" viewBox="0 0 489.87 489.75"><defs><style>.cls-1{fill:#fff;}</style></defs><title>bcm</title><g id="_1" data-name="???? 1"><path class="cls-1" d="M235.73,254.64a6,6,0,0,0-6.92.33,11.9,11.9,0,0,0-4,6.81l14.7-.62C239,258.69,237.88,256.12,235.73,254.64Z" transform="translate(0 0)"/><path class="cls-1" d="M269.6,273.9a5.46,5.46,0,0,0,4.33-2.57,13.26,13.26,0,0,0,1.64-7.26,12.73,12.73,0,0,0-2.81-8.17,6.85,6.85,0,0,0-6.56-2.05c-2.67.58-4.23,3.22-4.76,5.72A14.65,14.65,0,0,0,262.85,270,7.58,7.58,0,0,0,269.6,273.9Z" transform="translate(0 0)"/><path class="cls-1" d="M284.21,289.92a5.72,5.72,0,0,0-3.87-3.26c-3.22-1-6.64-.57-9.95-.4l-4,.24c-1.6,0-2.9,1-4.17,1.86-1.95,1.42-4,3.38-4,6s2,4.39,4.12,5.31a21.42,21.42,0,0,0,14.49.76A12.66,12.66,0,0,0,283,296.7,7,7,0,0,0,284.21,289.92Z" transform="translate(0 0)"/><path class="cls-1" d="M357.59,253.88A9.53,9.53,0,0,0,353.2,256c-3.5,3-4.88,7.78-5.13,12.24-.19,5.25,1.35,10.87,5.19,14.61,3.31,3.29,9.11,3.85,12.75.78s5.22-8.25,5.38-13c0-5.09-1.34-10.55-5.05-14.23A9.8,9.8,0,0,0,357.59,253.88Z" transform="translate(0 0)"/><path class="cls-1" d="M150.72,283.58a9.84,9.84,0,0,0,10,1.21,11.64,11.64,0,0,0,5.21-5.48,21.56,21.56,0,0,0,1.32-15,15.76,15.76,0,0,0-5.15-8.69,9.8,9.8,0,0,0-8-1.75,10.73,10.73,0,0,0-7.34,6A21.56,21.56,0,0,0,145.41,275,16.1,16.1,0,0,0,150.72,283.58Z" transform="translate(0 0)"/><path class="cls-1" d="M177.61,344.76a6.66,6.66,0,0,0-4.7-2.37,7.43,7.43,0,0,0-5.59,2.15,14.49,14.49,0,0,0-3.8,7.15c5.66-.22,11.32-.47,17-.7A13.79,13.79,0,0,0,177.61,344.76Z" transform="translate(0 0)"/><path class="cls-1" d="M122.1,193.11a19.28,19.28,0,0,0,9-9.4,16.43,16.43,0,0,0,.73-11.32A27.12,27.12,0,0,0,123,159.67a28.3,28.3,0,0,0-15.09-6.19,66.94,66.94,0,0,0-10.21.13V178.9a45.68,45.68,0,0,0,.52,7.75,11.31,11.31,0,0,0,3,6.31,11.53,11.53,0,0,0,6.92,2.78A25.17,25.17,0,0,0,122.1,193.11Z" transform="translate(0 0)"/><path class="cls-1" d="M173.31,174c-3,1.19-6,2.69-7.9,5.36-1.73,2.42-1.73,5.65-.9,8.4a8.4,8.4,0,0,0,4.54,5.34,12.23,12.23,0,0,0,9.08.15c3.23-1.14,6-3.23,8.71-5.26,0-5.95,0-11.9,0-17.85A117.44,117.44,0,0,0,173.31,174Z" transform="translate(0 0)"/><path class="cls-1" d="M225.37,349.25c-2.27-4.75-8.19-6.88-13.16-5.78-3.52.81-6.17,3.71-7.53,6.95a23.42,23.42,0,0,0-.23,16.73c1.7,4.83,6,8.89,11.15,9.53,3.06.54,6.05-.92,8.32-2.85a11.5,11.5,0,0,0,2.75-3.19c.09-3.68,0-7.36,0-11C226.68,356.13,227,352.45,225.37,349.25Z" transform="translate(0 0)"/><path class="cls-1" d="M117.52,147c3.85-1.81,7.36-4.77,9-8.82a18.79,18.79,0,0,0-.21-13.49c-1.82-4.57-5.77-8-10.15-10a43.74,43.74,0,0,0-18.38-3.6v39.71C104.46,150.64,111.36,149.84,117.52,147Z" transform="translate(0 0)"/><path class="cls-1" d="M312.25,254.66a6,6,0,0,0-6.92.28,12,12,0,0,0-4.06,6.84c4.9-.21,9.81-.41,14.71-.63C315.41,258.7,314.39,256.15,312.25,254.66Z" transform="translate(0 0)"/><path class="cls-1" d="M420.28,336.73c.06-1.32-1.67-.93-2.51-1,0,.55,0,1.1,0,1.65C418.58,337.27,419.86,337.7,420.28,336.73Z" transform="translate(0 0)"/><path class="cls-1" d="M417.44,333.85a4,4,0,0,0,1.44,7.7,4,4,0,1,0-1.44-7.7Zm1.64,4.07-1.3,0c-.17.6.39,1.75-.52,1.86,0-1.5,0-3,0-4.5,1.15.12,2.8-.42,3.52.78.41.84-.31,1.54-1,1.86a13.3,13.3,0,0,1,1.33,1.91C420.09,339.61,419.66,338.61,419.08,337.92Z" transform="translate(0 0)"/><path class="cls-1" d="M489.87,0H0V489.75q244.94,0,489.87,0Q489.86,244.88,489.87,0ZM303.3,157.87a27.8,27.8,0,0,1,8.78-13.06,28.22,28.22,0,0,1,14.68-6,35.08,35.08,0,0,1,19.74,3.29,26.44,26.44,0,0,1,11,10.64,33.71,33.71,0,0,1,3.9,17.57,31.75,31.75,0,0,1-5.15,16.64,28.8,28.8,0,0,1-12.79,10.56,34.73,34.73,0,0,1-19.78,1.84,26.28,26.28,0,0,1-14.56-7.7,29,29,0,0,1-7.23-16.3A40,40,0,0,1,303.3,157.87Zm-1.86,97.35a16.73,16.73,0,0,1,12.24-3.07,11,11,0,0,1,6.63,3.37,12.29,12.29,0,0,1,2.95,7.69h-22.2c-.22,3.06-.69,6.22.24,9.22a13.34,13.34,0,0,0,9.95,9.66,11.7,11.7,0,0,0,8.1-1,13,13,0,0,0,3.89-3.56c.38.3.77.59,1.18.88a18.11,18.11,0,0,1-10.59,8.39,15.52,15.52,0,0,1-16-5.61C291.82,273.52,293.55,261,301.44,255.22Zm17.17,77a4.53,4.53,0,1,1,3.91-5.29A4.54,4.54,0,0,1,318.61,332.27ZM283.21,107.8l1.43.55q0,38.11,0,76.21a26.8,26.8,0,0,0,.71,7.42,5.08,5.08,0,0,0,3,3.17,30.78,30.78,0,0,0,6.58,1.5c0,.66,0,1.33,0,2H266.25c0-.67,0-1.34,0-2,2.89-.56,6.2-.75,8.42-2.9,2-2.39,1.73-5.77,1.92-8.7.06-16.88,0-33.76,0-50.64-.06-3.75.15-7.51-.12-11.25s-3.62-6.09-6.38-8.14c0-.45,0-.9,0-1.34C274.46,111.72,278.82,109.73,283.21,107.8Zm-53.06,32.08c0,.66,0,1.33,0,2-2,.17-4.27.38-5.89,1.76a4.5,4.5,0,0,0-1.27,4.09,32,32,0,0,0,2.28,7.32q6.54,17,13.09,33.95c2.21-6.18,4.29-12.4,6.45-18.6,1.61-4.72,3.3-9.4,4.75-14.17a32.81,32.81,0,0,0,1.61-7.9,5.51,5.51,0,0,0-1.53-4.35c-1.6-1.42-3.81-1.76-5.84-2.1,0-.68,0-1.35,0-2,7.76,0,15.52,0,23.28,0v2c-2.58.3-5.29,1.1-7.07,3.12-2.64,3-3.88,6.86-5.51,10.44-3.25,7.33-6.21,14.81-9.26,22.24l-11.61,28.45a58.22,58.22,0,0,1-5,10.09,11.56,11.56,0,0,1-5.32,4.75,7.35,7.35,0,0,1-6.28-.45,6.68,6.68,0,0,1-3.12-6.33,6.4,6.4,0,0,1,4.16-5.6c2.28,1.13,4.25,3,6.76,3.64,1.63.24,2.7-1.35,3.49-2.53a51.1,51.1,0,0,0,4.19-9.73q-8.67-24.67-17.35-49.36a23,23,0,0,0-2.95-6c-1.68-1.93-4.37-2.29-6.75-2.74v-2C213.7,139.86,221.92,139.89,230.15,139.88Zm22,183.57a4.54,4.54,0,1,1-3.07,5.29A4.58,4.58,0,0,1,252.16,323.45Zm-22.67-43.84a12.83,12.83,0,0,0,12.54,2,12.39,12.39,0,0,0,4.75-4l1.15.9a18.17,18.17,0,0,1-10.34,8.32,15.47,15.47,0,0,1-16.1-5.42c-6.18-7.77-4.42-20.46,3.62-26.27a16.65,16.65,0,0,1,12.8-2.83,10.52,10.52,0,0,1,6.93,4.54,13,13,0,0,1,1.95,6.39q-11.1,0-22.21,0c-.1,1.57-.27,3.14-.33,4.71A14.47,14.47,0,0,0,229.49,279.61Zm-26.11-39.85a20,20,0,0,0-2.84-2.67c0-.19,0-.56,0-.75,2.79-1,5.55-2.12,8.34-3.15.42-.22.87,0,1.31.05q0,19.13,0,38.26c0,3,0,5.93.06,8.89.08,1.33.2,2.93,1.4,3.76s3,1,4.5,1.26c0,.38,0,.77,0,1.16h-17.8c0-.39,0-.78,0-1.16,1.69-.34,3.65-.44,4.92-1.75,1.13-1.5.92-3.52,1-5.3,0-11.59,0-23.18,0-34.77A6.16,6.16,0,0,0,203.38,239.76Zm-47.45-87a15.05,15.05,0,0,1,4.65-5.71A36.1,36.1,0,0,1,175.13,140c3.93-.84,8.23-1,12,.73a12.82,12.82,0,0,1,6.26,6.84,30.66,30.66,0,0,1,2,11.77c0,10.79,0,21.57,0,32.36a2.25,2.25,0,0,0,1.14,2.22c1.57.66,3.3.21,4.94.17a7.53,7.53,0,0,0,4.82-2.21l1.5,1.66c-2.24,3.21-6.06,5-9.86,5.54a9.85,9.85,0,0,1-7.92-2.14,9.46,9.46,0,0,1-3.09-6.49c-4.28,3.89-9.37,7.11-15.09,8.29a18,18,0,0,1-9.69-.42,8.81,8.81,0,0,1-5.15-5.13,18.18,18.18,0,0,1-.61-9.51,11.16,11.16,0,0,1,4.85-7.33c3.89-2.61,8.46-3.88,12.91-5.19C178,170.05,182,169,186,168c.32-.15,1-.06.89-.62,0-3.78,0-7.56,0-11.33,0-3.4-.2-7.08-2.22-9.95-1.5-2.14-4.17-3-6.67-3.1-3.12-.23-6.62.35-8.8,2.79-2.65,2.86-2.88,7-4.89,10.22a5.3,5.3,0,0,1-6.91,1.62A4,4,0,0,1,155.93,152.75Zm-11.8,103.3a19.56,19.56,0,0,1,9.67-3.91c5.51-.64,11.43.71,15.67,4.41,5.69,4.85,7.14,13.6,4,20.28a18,18,0,0,1-9.08,8.78,21.36,21.36,0,0,1-15,.68,17.07,17.07,0,0,1-9.59-7.34,18.17,18.17,0,0,1-2.16-12.25A17.06,17.06,0,0,1,144.13,256.05ZM75.41,196.73c3.62-.77,7.55-1,10.73-3.17a7.55,7.55,0,0,0,3.08-5.45c.48-3.64.25-7.33.39-11q0-23.15,0-46.27c-.14-3.77.07-7.55-.35-11.3a7.5,7.5,0,0,0-3.19-5.72c-3-1.84-6.53-2.27-9.91-2.8l0-2c7.13-.31,14.25-.71,21.37-1,7.54-.22,15.23.15,22.45,2.48,4.85,1.58,9.58,4.29,12.44,8.63,3,4.47,3.63,10.13,2.92,15.37a16.52,16.52,0,0,1-4.64,9.71,24.24,24.24,0,0,1-9.78,5.42c-1.28.45-2.63.68-3.87,1.23,5.54,1.43,11.14,3.23,15.76,6.74A21,21,0,0,1,141,170a26.09,26.09,0,0,1-.9,14.33,19.26,19.26,0,0,1-8.24,9.65c-4.81,2.87-10.4,4.13-15.92,4.67a135.23,135.23,0,0,1-13.95.21l-26.63-.23C75.38,198,75.36,197.37,75.41,196.73Zm19.86,78.79a23.76,23.76,0,0,0,12.82,9.4,17.5,17.5,0,0,0,11.32-.48,15.79,15.79,0,0,0,6.71-5.75,46.63,46.63,0,0,0,4.47-8.69c.36.26,1.22.25,1,.89a72,72,0,0,1-4.13,13.29,33.6,33.6,0,0,1-13,3.22c-8.21.49-16.86-1.34-23.45-6.47a23.83,23.83,0,0,1-8.22-11.88,27.32,27.32,0,0,1,1-18.42,26.76,26.76,0,0,1,11-12.48,34.1,34.1,0,0,1,17-4.5,33.21,33.21,0,0,1,17.42,4.11c0,4.2,0,8.39,0,12.59l-1.06-.07c-.45-1.19-.55-2.5-1-3.7a15.71,15.71,0,0,0-7.43-9.43c-4-2-8.7-2-13-1a19.92,19.92,0,0,0-11.33,7.73,27.58,27.58,0,0,0-4.88,16.28A27,27,0,0,0,95.27,275.52Zm57.59,46.66c-2.6.26-5.68.33-7.54,2.44-1.54,2-1.49,4.69-1.54,7.1.25,13.74.7,27.48.93,41.23,0,1.47.27,3.18,1.61,4.05,1.94,1.21,4.33,1.21,6.54,1.43v1.93H129c0-.64,0-1.29,0-1.93,2.27-.2,4.7-.21,6.72-1.39,1.39-.84,1.66-2.61,1.59-4.09-.37-14.28-.36-28.57-1-42.84q-7.31,15.3-14.48,30.67c-2.8,6.15-5.59,12.3-8.07,18.58l-1.37.05c-2.41-5.51-4.39-11.21-7.07-16.6C99.84,351.7,95,340.26,90,328.94c-.13,12.8-.64,25.59-.79,38.39,0,2.85,0,6,1.63,8.46,1.53,2.25,4.48,2.62,7,2.66,0,.63,0,1.27,0,1.91-6.58,0-13.16,0-19.74,0v-1.91c2.2-.43,4.7-.91,6.1-2.83,1.54-2.24,1.68-5.06,1.91-7.68.7-9.68,1-19.38,1.29-29.08a87.63,87.63,0,0,0-.17-11.11c-.21-1.66-.7-3.55-2.27-4.45-1.83-1-4-.94-6-1.11v-1.91c5.21,0,10.42,0,15.63,0,5.38,12.1,10.69,24.24,16,36.36,1.58,3.7,3.46,7.27,4.85,11.05q11.39-23.7,22.8-47.41h14.61C152.86,320.91,152.86,321.54,152.86,322.18Zm27.19,57.87a17.69,17.69,0,0,1-17.59-2.84,19.81,19.81,0,0,1-6.86-12.6,23,23,0,0,1,3.24-15.21,19.28,19.28,0,0,1,8-7.16,19.74,19.74,0,0,1,10.49-1.74,12.83,12.83,0,0,1,8.4,4.24,14.24,14.24,0,0,1,3.18,8.66c-8.55,0-17.1,0-25.65,0-.15,2.8-.67,5.61-.21,8.41a16.14,16.14,0,0,0,7.38,11.53,15.24,15.24,0,0,0,11.44,1.76,13.24,13.24,0,0,0,7-5.09l1.34,1A21.39,21.39,0,0,1,180.05,380.05Zm15.39-93.48H177.62v-1.16c1.67-.32,3.58-.44,4.87-1.68,1.16-1.43,1-3.41,1.08-5.13.05-8.5,0-17,0-25.51,0-3.67.07-7.34-.06-11a5.22,5.22,0,0,0-2.3-3.87c-.58-.53-1.47-.9-1.49-1.81l8.9-3.4.84.28c0,15.3,0,30.6,0,45.9.07,1.56,0,3.36,1.05,4.63,1.32,1.2,3.23,1.25,4.89,1.59Zm31.26,95.36c0-2.79,0-5.57,0-8.36-3.47,3.38-7.46,6.7-12.4,7.5a15.2,15.2,0,0,1-13.43-4.93,19.69,19.69,0,0,1-5.32-14.77A21.42,21.42,0,0,1,201.1,348a23.89,23.89,0,0,1,14.21-7.35,30.13,30.13,0,0,1,11.39.57c0-4.17,0-8.34,0-12.51,0-.64,0-1.47-.63-1.8a38.85,38.85,0,0,1-3.72-2.27c0-.23,0-.68,0-.9l10.16-3.88,1,.4q0,24.7,0,49.4a26.72,26.72,0,0,0,.37,5.65,2.48,2.48,0,0,0,1.79,2,16,16,0,0,0,5.26-.15c.11.5.23,1,.35,1.51C236.43,379.75,231.57,380.86,226.7,381.93Zm17.11-1.57c0-.45,0-.9,0-1.34,2-.4,4.48-.53,5.87-2.29,1.16-1.92.88-4.29,1-6.45,0-6.43.09-12.86-.06-19.28-.1-2.76-2.76-4.25-4.85-5.51-.53-.16-.42-.76-.5-1.19,3.77-1.29,7.52-2.62,11.29-3.92.32.14.64.27,1,.42,0,8.93,0,17.87,0,26.81a58.56,58.56,0,0,0,.2,7.13,3.89,3.89,0,0,0,1.61,2.91A14.75,14.75,0,0,0,264.4,379c0,.45,0,.89,0,1.34Zm12.34-77.59a7.4,7.4,0,0,1-3.55-4.9,7.64,7.64,0,0,1,2.13-6c2.16-2.38,5.15-3.7,7.9-5.26-2.34-.53-4.79-1.31-6.48-3.1a3.56,3.56,0,0,1-.72-4.22c1.29-2.19,3.4-3.7,5.36-5.24a12.55,12.55,0,0,1-5.57-6.2,11.09,11.09,0,0,1,3.27-12.23c4.54-3.85,11.14-4.44,16.66-2.66,1.38.36,2.63,1.11,4,1.47,3.58.07,7.17,0,10.75,0v3.22l-9.29-.22a12.14,12.14,0,0,1,.42,10.9,13.09,13.09,0,0,1-8.48,6.65,17.16,17.16,0,0,1-10.44-.36,4.68,4.68,0,0,0-1.46,3.37,3,3,0,0,0,2,2.53c1.83.79,3.87.56,5.81.51,3.07-.1,6.14-.28,9.22-.32,3.3,0,6.9.65,9.39,3a7.51,7.51,0,0,1,2,7.18c-.79,3.42-3.16,6.24-5.85,8.38a28.79,28.79,0,0,1-17.69,5.76A17.39,17.39,0,0,1,256.15,302.77ZM289,381.16a17.65,17.65,0,0,1-13.17-4A20.08,20.08,0,0,1,269,360.53a20.72,20.72,0,0,1,6.38-13.61,23.83,23.83,0,0,1,22.08-5.86c1.42.41,3,1.09,3.62,2.55,1.15,3-2.58,6.39-5.41,4.89-2.48-1.29-4.25-3.64-6.83-4.78a7.15,7.15,0,0,0-6,.27,11.37,11.37,0,0,0-5.17,5.82,20.35,20.35,0,0,0-.37,15,17,17,0,0,0,7.48,9.1,15.35,15.35,0,0,0,10.1,1.87,16.88,16.88,0,0,0,6.8-3.22c.35.44.7.88,1.05,1.34A21.12,21.12,0,0,1,289,381.16Zm18.28-.8V379c1.76-.32,3.66-.5,5.17-1.55s1.53-2.91,1.64-4.49c.17-4.16.05-8.32.09-12.48,0-3.18.08-6.35-.07-9.52-.06-2.15-1.85-3.63-3.53-4.68-.73-.56-2-.84-1.81-2,3.75-1.28,7.49-2.62,11.24-3.9l1,.33c.07,10.55,0,21.1.06,31.66.09,1.66,0,3.6,1.28,4.88,1.5,1.31,3.61,1.34,5.47,1.77a6.38,6.38,0,0,1,.13,1.33Zm49.63,0c0-.45,0-.9,0-1.34,1.8-.33,3.75-.51,5.26-1.62s1.46-3.11,1.57-4.76c.13-5,.06-10.07,0-15.11-.06-2.93-.27-6-1.84-8.59a8.11,8.11,0,0,0-5.37-3.58,12.78,12.78,0,0,0-9.78,1.5,9.31,9.31,0,0,0-2.46,2.07c-.07,7.81-.05,15.62,0,23.43.1,1.75,0,3.89,1.54,5.11s3.52,1.22,5.33,1.55c0,.44,0,.89,0,1.34H330.58c0-.45,0-.9,0-1.34,1.9-.36,4.05-.51,5.54-1.88,1.31-1.46,1.2-3.57,1.3-5.4.08-6.22,0-12.45,0-18.67a9.32,9.32,0,0,0-.63-4.29c-.81-1.53-2.31-2.47-3.6-3.55-.06-.31-.11-.62-.14-.93q4.29-1.57,8.56-3.18c1-.34,2-1,3-.37-.25,2.14-.47,4.28-.69,6.43,3.82-2.79,7.85-5.61,12.59-6.51a14,14,0,0,1,9,1.07,9.27,9.27,0,0,1,4.3,5.71c1,3.36.74,6.91.78,10.37,0,5.05-.06,10.09.06,15.14.09,1.58.17,3.48,1.54,4.53,1.55,1.06,3.48,1.2,5.27,1.53,0,.44,0,.88,0,1.33C370.62,380.37,363.75,380.36,356.87,380.36Zm21.45-108.13a17.26,17.26,0,0,1-7,11.38,20.16,20.16,0,0,1-14.49,3.53,18.44,18.44,0,0,1-12.23-6.35A18,18,0,0,1,342.67,262a18.52,18.52,0,0,1,14.64-9.88c6-.68,12.47,1,16.69,5.48A17.46,17.46,0,0,1,378.32,272.23ZM404.3,380A17.69,17.69,0,0,1,387,377.49a19.62,19.62,0,0,1-7.2-12.79,22.82,22.82,0,0,1,3.63-15.91,19.19,19.19,0,0,1,8-6.75A19.72,19.72,0,0,1,402,340.56a12.58,12.58,0,0,1,8.39,4.69,14.52,14.52,0,0,1,2.76,8.15H387.49c-.19,2.94-.7,5.91-.15,8.84a15.92,15.92,0,0,0,8.31,11.67,15.38,15.38,0,0,0,10.18,1.27,13,13,0,0,0,7.26-5.16c.45.33.9.64,1.36,1A21.34,21.34,0,0,1,404.3,380ZM393.15,253.51c3.32,0,6.63,0,10,0v3.22h-10c0,7.68,0,15.37,0,23.06.07,1.5.16,3.36,1.57,4.26,1.74,1,3.82,1.05,5.75,1.35,0,.39,0,.78,0,1.17H381.12v-1.16c1.69-.32,3.6-.43,4.94-1.64,1.18-1.31,1-3.23,1.15-4.87.07-7.4,0-14.79,0-22.18H381c0-.48.17-.93.66-1.1,1.87-1.09,3.75-2.15,5.61-3.25a25.57,25.57,0,0,1,1.9-10.35,19.05,19.05,0,0,1,7.91-8.67,13.54,13.54,0,0,1,8.82-1.5,10.06,10.06,0,0,1,5.46,2.38,3.5,3.5,0,0,1,.28,4.76,4.89,4.89,0,0,1-3.4,1.14,16.09,16.09,0,0,0-5.86-5.47,5.13,5.13,0,0,0-5.24.23,9,9,0,0,0-3,5.14C392.94,244.42,393.14,249,393.15,253.51Zm20.2-105.35a14.9,14.9,0,0,1-5.77,4.9,27.37,27.37,0,0,0-6.09-4,7.32,7.32,0,0,0-6.28.8c-2.87,1.72-4.44,4.91-5.32,8-1.63,5.67-1.14,11.62-1.2,17.44,0,4.16,0,8.32,0,12.47.05,2.19.22,4.7,1.94,6.29,2,1.83,4.89,2.18,7.5,2.54,0,.67,0,1.35,0,2-9.14,0-18.27,0-27.4,0,0-.67,0-1.34,0-2,2.53-.49,5.3-.77,7.39-2.43s2-4.58,2.2-7c.25-7.41.08-14.82.13-22.23,0-3.27,0-6.54,0-9.81a8.29,8.29,0,0,0-1.46-4.88,22.13,22.13,0,0,0-5-4.53c0-.46,0-.91,0-1.37l13.85-5.86,1.49.54c-.16,5.3-.44,10.6-.5,15.9a37.66,37.66,0,0,1,7.33-10.76,19.87,19.87,0,0,1,8.27-5.19,9.53,9.53,0,0,1,6.93.35,5.83,5.83,0,0,1,3.18,4.52A6.28,6.28,0,0,1,413.35,148.16ZM419.2,341.9a4.35,4.35,0,1,1,4-5.17A4.39,4.39,0,0,1,419.2,341.9Z" transform="translate(0 0)"/><path class="cls-1" d="M322,194.13a17.26,17.26,0,0,0,14.1,2.32,16.71,16.71,0,0,0,8.18-5.48,30.16,30.16,0,0,0,6-13,39.35,39.35,0,0,0-1.2-20.39,26.72,26.72,0,0,0-7.49-12.07,16.88,16.88,0,0,0-13.95-3.81,17.07,17.07,0,0,0-10.26,5.74c-3.6,4.13-5.54,9.46-6.43,14.8A37.53,37.53,0,0,0,313.82,184,24.34,24.34,0,0,0,322,194.13Z" transform="translate(0 0)"/><path class="cls-1" d="M401.47,344.38a6.56,6.56,0,0,0-4.55-2,7.48,7.48,0,0,0-5.48,2.26,14.74,14.74,0,0,0-3.71,7.05q8.5-.33,17-.7A13.14,13.14,0,0,0,401.47,344.38Z" transform="translate(0 0)"/></g></svg>