<?xml version="1.0" encoding="UTF-8" standalone="no"?>
<svg
   xmlns:dc="http://purl.org/dc/elements/1.1/"
   xmlns:cc="http://creativecommons.org/ns#"
   xmlns:rdf="http://www.w3.org/1999/02/22-rdf-syntax-ns#"
   xmlns:svg="http://www.w3.org/2000/svg"
   xmlns="http://www.w3.org/2000/svg"
   id="svg2305"
   height="245.9055"
   width="744.09448"
   version="1.0">
  <metadata
     id="metadata1212">
    <rdf:RDF>
      <cc:Work
         rdf:about="">
        <dc:format>image/svg+xml</dc:format>
        <dc:type
           rdf:resource="http://purl.org/dc/dcmitype/StillImage" />
        <dc:title></dc:title>
      </cc:Work>
    </rdf:RDF>
  </metadata>
  <defs
     id="defs2307" />
  <g
     style="fill:#ffffff;fill-opacity:1"
     id="layer1"
     transform="translate(-291.9827,-165.77975)">
    <g
       id="g2281"
       style="fill-rule:evenodd;fill:#ffffff;fill-opacity:1"
       transform="matrix(3.5432569,0,0,3.5432569,271.77753,-601.03901)">
      <path
         id="path12"
         style="fill:#ffffff;fill-opacity:1"
         d="M 47.735193,234.45599 L 39.120157,227.69558 L 30.50512,234.51582 L 32.000786,236.19097 L 39.120157,230.62709 L 46.239527,236.19097 L 47.735193,234.45599 L 47.735193,234.45599 z M 67.537813,249.83144 C 67.537813,234.15686 54.794738,221.41379 39.120157,221.41379 C 23.445575,221.41379 10.7025,234.15686 10.7025,249.83144 C 10.7025,259.76267 15.668112,268.3777 23.385749,273.46297 L 23.385749,257.07047 L 20.753376,257.07047 L 20.753376,268.67684 C 19.43719,266.94186 17.702218,264.66845 16.505685,262.63434 C 14.351925,258.86527 13.035739,254.61757 13.035739,249.83144 C 13.035739,235.47305 24.701935,223.50772 39.120157,223.50772 C 53.658031,223.50772 65.144747,235.47305 65.144747,249.83144 C 65.144747,254.61757 63.828561,258.92509 61.614975,262.69417 C 60.478269,264.72828 58.803123,266.94186 57.42711,268.67684 L 57.42711,257.07047 L 54.854564,257.07047 L 54.854564,273.46297 C 62.572201,268.3777 67.537813,259.76267 67.537813,249.83144 L 67.537813,249.83144 L 67.537813,249.83144 z M 46.060047,277.3517 L 46.060047,238.76351 L 43.487502,238.76351 L 43.487502,278.00979 C 44.504555,277.83031 45.162648,277.53118 46.060047,277.3517 L 46.060047,277.3517 z M 51.803405,275.25777 L 51.803405,257.07047 L 49.171033,257.07047 L 49.171033,276.39447 C 50.188086,276.03551 50.846179,275.73638 51.803405,275.25777 L 51.803405,275.25777 z M 40.376516,278.18927 L 40.376516,238.76351 L 37.80397,238.76351 L 37.80397,278.18927 C 38.282583,278.18927 38.641543,278.2491 39.120157,278.2491 C 39.59877,278.2491 39.95773,278.18927 40.376516,278.18927 L 40.376516,278.18927 z M 34.692985,277.94997 L 34.692985,238.76351 L 32.120439,238.76351 L 32.120439,277.3517 C 33.077665,277.53118 33.735758,277.83031 34.692985,277.94997 L 34.692985,277.94997 L 34.692985,277.94997 z M 29.009453,276.39447 L 29.009453,257.07047 L 26.436908,257.07047 L 26.436908,275.25777 C 27.394134,275.73638 28.052227,276.03551 29.009453,276.39447 L 29.009453,276.39447 z " />
      <path
         id="path2242"
         style="fill:#ffffff;fill-opacity:1"
         d="M 126.52374,222.91144 L 122.93423,223.68755 L 122.93423,224.64005 L 124.557,225.00165 L 124.557,243.37255 L 122.81957,243.72533 L 122.81957,244.86304 L 128.6845,244.86304 L 128.6845,243.72533 L 127.1852,243.37255 L 127.1852,233.55651 C 128.02277,232.77877 128.91672,232.06602 130.11325,232.06602 C 131.90806,232.06601 131.91242,233.91601 131.91242,235.2322 L 131.91242,243.42547 L 130.41311,243.72533 L 130.41311,244.86304 L 136.21631,244.86304 L 136.21631,243.72533 L 134.66409,243.37255 L 134.66409,233.85637 C 134.66409,231.70261 133.52437,230.20512 131.25096,230.20512 C 129.57581,230.20512 128.3219,231.10879 127.1852,232.06602 L 127.1852,222.91144 L 126.52374,222.91144 z " />
      <path
         id="path2240"
         style="fill:#ffffff;fill-opacity:1"
         d="M 152.37353,222.91144 C 151.4163,222.91143 150.6361,223.68474 150.6361,224.70179 C 150.63609,225.65902 151.41821,226.55387 152.43526,226.55387 C 153.3925,226.55387 154.28735,225.65711 154.28735,224.64005 C 154.28735,223.68283 153.39058,222.91144 152.37353,222.91144 z " />
      <path
         id="path2226"
         style="fill:#ffffff;fill-opacity:1"
         d="M 142.31936,230.09047 L 138.79158,231.04297 L 138.79158,231.88082 L 140.52902,232.18068 L 140.52902,243.37255 L 138.79158,243.72533 L 138.79158,244.86304 L 145.1945,244.86304 L 145.1945,243.72533 L 143.09547,243.37255 L 143.09547,235.40859 C 143.09547,234.87015 143.75484,233.25901 145.07103,232.7804 L 146.68499,233.55651 C 147.10377,233.31721 147.64631,232.95579 147.64631,231.81908 C 147.64631,230.7422 146.93165,230.26686 146.09408,230.26686 C 144.77789,230.26686 144.11753,231.28046 142.98082,233.19491 L 142.98082,230.09047 L 142.31936,230.09047 z " />
      <path
         id="path2224"
         style="fill:#ffffff;fill-opacity:1"
         d="M 162.00436,230.09047 L 158.47658,231.04297 L 158.47658,232.00429 L 160.15228,232.24241 L 160.15228,243.37255 L 158.47658,243.72533 L 158.47658,244.86304 L 164.39443,244.86304 L 164.39443,243.72533 L 162.78047,243.37255 L 162.78047,233.49477 C 163.61803,232.77686 164.51199,232.00429 165.70853,232.00429 C 167.4435,232.00429 167.56943,233.85474 167.56943,234.63248 L 167.56943,243.42547 L 165.89374,243.72533 L 165.89374,244.86304 L 171.75867,244.86304 L 171.75867,243.72533 L 170.19762,243.37255 L 170.19762,233.85637 C 170.19763,231.58295 169.06292,230.14338 166.66985,230.14338 C 165.05453,230.14339 163.85544,231.04706 162.71874,232.00429 L 162.71874,230.09047 L 162.00436,230.09047 z " />
      <path
         id="path2222"
         style="fill:#ffffff;fill-opacity:1"
         d="M 205.37839,230.09047 L 201.85061,231.04297 L 201.85061,231.88082 L 203.57922,232.18068 L 203.57922,243.37255 L 201.85061,243.72533 L 201.85061,244.86304 L 208.25352,244.86304 L 208.25352,243.72533 L 206.1545,243.37255 L 206.1545,235.40859 C 206.15449,234.87015 206.81386,233.25901 208.13005,232.7804 L 209.74401,233.55651 C 210.16278,233.31721 210.70533,232.95579 210.70533,231.81908 C 210.70532,230.7422 209.98186,230.26686 209.14429,230.26686 C 207.8281,230.26686 207.17654,231.28046 206.03984,233.19491 L 206.03984,230.09047 L 205.37839,230.09047 z " />
      <path
         id="path2220"
         style="fill:#ffffff;fill-opacity:1"
         d="M 153.4495,230.20512 L 149.85999,231.16644 L 149.85999,232.00429 L 151.35929,232.35707 L 151.35929,243.37255 L 149.85999,243.72533 L 149.85999,244.86304 L 155.72492,244.86304 L 155.72492,243.72533 L 154.04922,243.37255 L 154.04922,230.20512 L 153.4495,230.20512 z " />
      <path
         id="path2234"
         style="fill:#ffffff;fill-opacity:1"
         d="M 101.63527,229.91408 C 97.507232,229.91408 95.779158,234.21597 95.779158,237.74575 C 95.779158,242.41222 98.286163,245.1629 101.39714,245.1629 C 104.4483,245.1629 107.32381,242.47823 107.32381,237.39297 C 107.32381,230.87186 103.31042,229.91408 101.63527,229.91408 z M 101.63527,231.05179 C 103.96851,231.05179 104.38693,234.93816 104.38693,237.33123 C 104.38694,239.18585 104.14917,243.91054 101.39714,243.91054 C 99.542517,243.91054 98.707213,241.33725 98.707213,237.80748 C 98.70721,236.07251 98.883244,231.05179 101.63527,231.05179 z " />
      <path
         id="path2232"
         style="fill:#ffffff;fill-opacity:1"
         d="M 115.51707,229.967 C 111.32921,229.967 110.19013,234.52083 110.19013,237.93095 C 110.19013,242.23845 112.04522,245.1629 115.45534,245.1629 C 118.86545,245.1629 119.82933,242.95013 120.36777,241.87324 L 119.34471,241.33526 C 118.98576,241.93352 118.20836,243.24908 116.59304,243.24908 C 113.48207,243.24907 113.00853,239.60773 112.88888,237.15484 L 120.48242,237.15484 C 120.4226,233.74473 119.76476,229.967 115.51707,229.967 z M 115.51707,231.22818 C 117.55118,231.22817 117.67092,234.28216 117.73075,236.01713 L 112.88888,236.01713 C 113.06836,234.28217 113.42314,231.22818 115.51707,231.22818 z " />
      <path
         id="path2228"
         style="fill:#ffffff;fill-opacity:1"
         d="M 193.772,229.967 C 189.58415,229.96699 188.44505,234.51201 188.44505,237.92213 C 188.44506,242.22965 190.30014,245.1629 193.71026,245.1629 C 197.12038,245.16289 198.07543,242.95013 198.61387,241.87324 L 197.59964,241.33526 C 197.24068,241.93351 196.46329,243.24908 194.84797,243.24908 C 191.73699,243.24908 191.25463,239.59891 191.13498,237.14602 L 198.73734,237.14602 C 198.67752,233.7359 198.0197,229.967 193.772,229.967 z M 193.772,231.22818 C 195.80612,231.22818 195.92585,234.27333 195.98568,236.00831 L 191.13498,236.00831 C 191.31447,234.27334 191.67807,231.22818 193.772,231.22818 z " />
      <path
         id="path2238"
         style="fill:#ffffff;fill-opacity:1"
         d="M 85.663256,224.11089 C 84.347067,224.11089 83.090067,224.28727 81.773881,224.28727 L 78.246104,224.28727 L 78.246104,225.48672 L 80.283395,225.8395 L 80.283395,243.37255 L 78.246104,243.73415 L 78.246104,244.87186 L 81.597492,244.87186 C 82.315409,244.87185 85.543148,244.92477 86.201242,244.92477 C 87.876391,244.92476 90.572415,244.92704 92.127908,242.23484 C 92.546695,241.4571 92.842283,240.49641 92.842283,239.3597 C 92.842286,237.92387 92.361941,236.61085 91.404714,235.5938 C 90.327838,234.45709 89.076558,234.15742 87.700547,233.91811 C 89.196212,233.31984 91.651658,232.06374 91.651658,228.95276 C 91.651655,227.81605 91.291695,226.62224 90.51395,225.72484 C 89.078111,224.16935 86.799962,224.11089 85.663256,224.11089 z M 85.12527,225.30151 C 86.261976,225.3015 88.476658,225.66493 88.476658,229.31436 C 88.476655,233.32274 86.084859,233.50359 84.64902,233.50359 L 83.035062,233.50359 L 83.035062,225.72484 C 83.812807,225.48553 84.227871,225.30151 85.12527,225.30151 z M 83.035062,234.69422 L 84.472631,234.69422 C 86.566562,234.69423 89.676103,234.93562 89.676103,239.18331 C 89.6761,240.79864 89.191214,242.35859 87.8152,243.19616 C 86.917796,243.67478 85.901107,243.73415 85.063534,243.73415 C 84.22596,243.73414 83.573502,243.55321 83.035062,243.13443 L 83.035062,234.69422 z " />
      <path
         id="path2230"
         style="fill:#ffffff;fill-opacity:1"
         d="M 179.7138,229.967 C 176.96178,229.96699 174.74846,232.00083 174.74846,234.93234 C 174.74846,237.56471 176.30477,238.46158 177.262,239.05984 C 175.58684,240.07691 174.4486,241.15796 174.4486,242.23484 C 174.44859,243.25189 175.16898,243.7878 176.18603,244.08693 C 175.10915,244.80484 173.84887,245.82108 173.84887,247.37658 C 173.84888,249.47052 176.41807,250.25172 178.99061,250.25172 C 183.53744,250.25171 185.99325,247.97856 185.99325,245.28637 C 185.99325,242.654 184.56177,241.81651 181.98922,241.69686 L 178.15276,241.57338 C 177.85363,241.57338 177.02387,241.51019 177.02387,240.91193 C 177.02387,240.49314 177.7397,239.84023 178.33797,239.42144 C 178.87642,239.60092 179.41349,239.65956 179.95193,239.65956 C 182.04587,239.65957 184.7938,238.28455 184.7938,234.99408 C 184.7938,233.4386 184.0818,232.48408 183.60318,231.76616 L 186.11672,231.81908 L 186.11672,230.32859 L 182.82707,230.44325 C 181.81,230.44325 180.79068,229.967 179.7138,229.967 z M 179.65207,231.04297 C 181.746,231.04296 181.92748,233.50032 181.92748,235.05581 C 181.92749,236.49165 181.68999,238.52186 179.77554,238.52186 C 177.80126,238.52186 177.56186,236.37319 177.56186,234.81769 C 177.56187,233.38185 177.67779,231.04297 179.65207,231.04297 z M 177.56186,244.26331 C 180.67285,244.44278 181.98449,244.562 182.94172,244.8013 C 183.59981,244.92096 184.14116,245.22564 184.14116,246.36234 C 184.14116,247.91783 182.04513,248.9288 179.65207,248.9288 C 177.85727,248.9288 176.36242,248.15096 176.36242,246.71512 C 176.36242,245.45878 177.02342,244.80175 177.56186,244.26331 z " />
      <path
         id="path2206"
         style="fill:#ffffff;fill-opacity:1"
         d="M 134.00263,253.4179 L 130.35138,254.25574 L 130.35138,255.15533 L 132.02707,255.39345 L 132.02707,273.94074 L 130.29846,274.30234 L 130.29846,275.44005 L 136.15457,275.44005 L 136.15457,274.2406 L 134.60235,273.87901 L 134.60235,253.4179 L 134.00263,253.4179 z " />
      <path
         id="path2204"
         style="fill:#ffffff;fill-opacity:1"
         d="M 142.50457,253.4179 L 138.85332,254.25574 L 138.85332,255.15533 L 140.52902,255.51692 L 140.52902,273.94074 L 138.79158,274.30234 L 138.79158,275.44005 L 144.65651,275.44005 L 144.65651,274.2406 L 143.15721,273.87901 L 143.15721,264.07178 C 143.99479,263.35386 144.83772,262.63422 146.09408,262.63422 C 147.88888,262.63422 147.88443,264.43129 147.88443,265.74748 L 147.88443,274.00248 L 146.38513,274.30234 L 146.38513,275.44005 L 152.18832,275.44005 L 152.18832,274.2406 L 150.57436,273.87901 L 150.57436,264.37165 C 150.57436,262.2777 149.44347,260.78213 147.17006,260.78213 C 145.49491,260.78213 144.29392,261.677 143.15721,262.63422 L 143.15721,253.4179 L 142.50457,253.4179 z " />
      <path
         id="path2202"
         style="fill:#ffffff;fill-opacity:1"
         d="M 170.68269,253.4179 C 169.66565,253.41791 168.88353,254.26175 168.88353,255.2788 C 168.88352,256.23602 169.66564,257.06915 170.68269,257.06915 C 171.69975,257.06915 172.53478,256.23411 172.53478,255.21706 C 172.53477,254.25983 171.69974,253.4179 170.68269,253.4179 z " />
      <path
         id="path2200"
         style="fill:#ffffff;fill-opacity:1"
         d="M 78.422492,254.80255 L 78.422492,256.05491 L 80.283395,256.29304 L 80.283395,273.94074 L 78.422492,274.30234 L 78.422492,275.44005 L 84.948881,275.44005 L 84.948881,274.2406 L 83.149714,273.88783 L 83.149714,256.35477 L 85.010617,255.99317 L 85.010617,254.80255 L 78.422492,254.80255 z " />
      <path
         id="path2192"
         style="fill:#ffffff;fill-opacity:1"
         d="M 180.36644,260.59692 L 176.77693,261.55824 L 176.77693,262.39609 L 178.45262,262.69595 L 178.45262,273.94074 L 176.77693,274.30234 L 176.77693,275.44005 L 182.58012,275.44005 L 182.58012,274.2406 L 181.15137,273.87901 L 181.15137,264.01005 C 181.8693,263.35195 182.70341,262.51074 184.07943,262.51074 C 185.75456,262.51074 186.05498,264.12571 186.05498,265.26241 L 186.05498,273.94074 L 184.37929,274.30234 L 184.37929,275.44005 L 190.24422,275.44005 L 190.24422,274.2406 L 188.68318,273.87901 L 188.68318,264.07178 C 189.52075,263.29404 190.42352,262.51074 191.62005,262.51074 C 193.41485,262.51074 193.53387,264.37192 193.53387,265.20949 L 193.53387,273.94074 L 191.91991,274.30234 L 191.91991,275.44005 L 197.8995,275.44005 L 197.8995,274.2406 L 196.2238,273.87901 L 196.2238,264.30991 C 196.2238,261.97666 194.84596,260.78213 192.57255,260.78213 C 190.8974,260.78213 189.6435,261.61598 188.50679,262.87234 C 187.90851,261.49633 186.65298,260.83505 185.21714,260.83505 C 183.66165,260.83504 182.22443,261.49942 181.0279,262.69595 L 181.0279,260.59692 L 180.36644,260.59692 z " />
      <path
         id="path2190"
         style="fill:#ffffff;fill-opacity:1"
         d="M 91.113672,260.60574 L 87.577075,261.55824 L 87.577075,262.57248 L 89.252769,262.75769 L 89.252769,273.94074 L 87.577075,274.30234 L 87.577075,275.44005 L 93.503741,275.44005 L 93.503741,274.2406 L 91.889783,273.88783 L 91.889783,264.01005 C 92.727354,263.29213 93.621307,262.51956 94.817838,262.51956 C 96.552813,262.51956 96.669922,264.37191 96.669922,265.20949 L 96.669922,274.00248 L 94.994227,274.30234 L 94.994227,275.44005 L 100.85916,275.44005 L 100.85916,274.2406 L 99.306935,273.88783 L 99.306935,264.37165 C 99.306932,262.09823 98.172221,260.65866 95.779158,260.65866 C 94.163839,260.65866 92.964753,261.61526 91.828047,262.57248 L 91.828047,260.60574 L 91.113672,260.60574 z " />
      <path
         id="path2188"
         style="fill:#ffffff;fill-opacity:1"
         d="M 171.75867,260.78213 L 168.10742,261.73463 L 168.10742,262.57248 L 169.72137,262.93408 L 169.72137,273.94074 L 168.10742,274.30234 L 168.10742,275.44005 L 173.97235,275.44005 L 173.97235,274.2406 L 172.29665,273.87901 L 172.29665,260.78213 L 171.75867,260.78213 z " />
      <path
         id="path2198"
         style="fill:#ffffff;fill-opacity:1"
         d="M 122.88131,260.53519 C 118.69344,260.53519 117.55436,265.08903 117.55436,268.49915 C 117.55437,272.80666 119.40945,275.73109 122.81957,275.73109 C 126.22969,275.73109 127.18474,273.51832 127.72318,272.44144 L 126.70895,271.90345 C 126.34999,272.50173 125.5726,273.81727 123.95728,273.81727 C 120.84629,273.81727 120.36395,270.17592 120.24429,267.72303 L 127.84666,267.72303 C 127.78683,264.31292 127.129,260.53519 122.88131,260.53519 z M 122.88131,261.79637 C 124.91542,261.79637 125.03516,264.85036 125.09499,266.58533 L 120.24429,266.58533 C 120.42377,264.85036 120.78738,261.79637 122.88131,261.79637 z " />
      <path
         id="path2196"
         style="fill:#ffffff;fill-opacity:1"
         d="M 160.09054,260.53519 C 155.90269,260.53519 154.7636,265.08903 154.7636,268.49915 C 154.7636,272.80666 156.61869,275.73109 160.02881,275.73109 C 163.43893,275.73109 164.39398,273.51832 164.93242,272.44144 L 163.91818,271.90345 C 163.55922,272.50173 162.78183,273.81727 161.16651,273.81727 C 158.05553,273.81727 157.57318,270.17592 157.45353,267.72303 L 165.05589,267.72303 C 164.99607,264.31292 164.33824,260.53519 160.09054,260.53519 z M 160.09054,261.79637 C 162.12466,261.79637 162.24439,264.85036 162.30422,266.58533 L 157.45353,266.58533 C 157.633,264.85036 157.99661,261.79637 160.09054,261.79637 z " />
      <path
         id="path2194"
         style="fill:#ffffff;fill-opacity:1"
         d="M 108.8143,260.54401 C 106.06227,260.544 103.84895,262.57784 103.84895,265.50935 C 103.84895,268.14172 105.40526,269.03668 106.36249,269.57512 C 104.68734,270.59217 103.54909,271.66632 103.54909,272.80303 C 103.54909,273.82008 104.26946,274.3648 105.28652,274.66394 C 104.20964,275.32203 102.95818,276.33636 102.95818,277.89185 C 102.95818,279.9858 105.52737,280.81991 108.09992,280.81991 C 112.64674,280.81991 115.10256,278.49384 115.10256,275.80164 C 115.10256,273.16928 113.66226,272.3847 111.08971,272.26505 L 107.26207,272.1504 C 106.96293,272.15039 106.12437,272.02738 106.12437,271.48894 C 106.12436,271.07015 106.84019,270.41723 107.43846,269.99845 C 107.9769,270.17793 108.52281,270.23658 109.06124,270.23658 C 111.15518,270.23658 113.90311,268.85964 113.90311,265.50935 C 113.90311,264.01368 113.18228,263.05227 112.70367,262.33435 L 115.21721,262.39609 L 115.21721,260.9056 L 111.92756,261.02026 C 110.91051,261.02025 109.89118,260.54401 108.8143,260.54401 z M 108.76138,261.61998 C 110.85531,261.61999 111.02798,264.00869 111.02798,265.62401 C 111.02798,267.05985 110.79049,269.09887 108.87603,269.09887 C 106.90176,269.09886 106.66235,266.94137 106.66235,265.38588 C 106.66235,263.95004 106.7871,261.61998 108.76138,261.61998 z M 106.66235,274.84033 C 109.77333,275.01981 111.0938,275.139 112.05103,275.37831 C 112.70912,275.49796 113.24166,275.80264 113.24166,276.93935 C 113.24166,278.43502 111.15445,279.44408 108.76138,279.44408 C 106.96658,279.44407 105.47173,278.66623 105.47173,277.23039 C 105.47172,276.03386 106.12391,275.31893 106.66235,274.84033 z " />
    </g>
  </g>
</svg>
