<svg xmlns="http://www.w3.org/2000/svg" viewBox="0 0 514.06 244.87"><defs><style>.cls-1{fill:#fff;}</style></defs><title>CRG-phil</title><g id="Layer_1" data-name="Layer 1"><g id="ngYDMz.tif"><path class="cls-1" d="M51.76,30.85q3.88,10.61,7.76,21.23c1.62,4.42,3.26,8.82,4.88,13.24a10.25,10.25,0,0,1,.25,1.24l-5-1.43c-1-.28-1.94-.56-2.89-.9a1.28,1.28,0,0,0-1.81.85,52.83,52.83,0,0,0-4,14.07c-1.63,12.81,2.8,23.71,10.38,33.72,6.64,8.77,15.51,14.4,25.33,18.86,15.15,6.88,31,11.53,47.13,15.45,1.9.46,1.92.46,2.54-1.44,2.76-8.54,5.74-17,8.2-25.63A75.13,75.13,0,0,0,147.33,96c-.37-8.18-2.11-16-7-22.81-6-8.34-14-13-24.52-13a66.25,66.25,0,0,0-18,2.58c-1.8.5-2.1.38-2.68-1.31-1.64-4.77-3.22-9.55-4.92-14.29a1.34,1.34,0,0,1,.91-2,23.48,23.48,0,0,1,2.46-.81c2.78-.73,5.55-1.52,8.36-2.08a23.68,23.68,0,0,1,4.55-.21c7.73,0,15.46-.12,23.19,0a25.63,25.63,0,0,1,10.66,2.45c12.94,6.13,19.73,17,23.85,30a69.64,69.64,0,0,1,2.72,24.91A108.76,108.76,0,0,1,163.24,123c-2.51,9-5.37,17.81-8.09,26.71-.54,1.75-.54,1.77,1.31,2.08,16.34,2.74,32.57,6,48.26,11.46,12.67,4.42,24.65,10.19,35.33,18.43a92.63,92.63,0,0,1,24.41,27.84c4.26,7.54,7.7,15.43,9,24.14a62.9,62.9,0,0,1-1.9,25.9c-.23.87-.61,1.42-1.68,1.37-2.82-.14-5.65-.27-8.48-.25-4.6,0-9.2.16-13.8.25a5.25,5.25,0,0,1-.79-.11,7,7,0,0,1,.21-1c3.07-8.16,3.12-16.48,1.38-24.92a49.76,49.76,0,0,0-12.45-24.44,83.36,83.36,0,0,0-27-19.21C194,184.58,178.18,181,162.15,178.33c-4.45-.75-8.87-1.62-13.31-2.45-2-.37-2-.4-2.51,1.6a131.44,131.44,0,0,0-4.17,25.82c-.35,7-.41,13.91,1.23,20.75,1.84,7.69,5.41,14.35,11.81,19.23a24.26,24.26,0,0,0,13.75,4.95c4.07.21,8.15.19,12.22.34,1.15,0,1.63-.38,1.76-1.51.23-2,.57-4,.93-6.4l21.49,17.41-27.94,17.45c.15-1.75.26-3.08.39-4.4.15-1.53,0-1.7-1.59-1.79-5.93-.32-11.9-.4-17.79-1.09-8.4-1-15.51-5.11-22.11-10.14-8.57-6.54-12.55-15.49-14-26a119.13,119.13,0,0,1,1.11-39.23c1.27-6.64,2.94-13.21,4.52-19.78.31-1.26,0-1.68-1.19-2a294.74,294.74,0,0,1-45.1-13.84c-10-4.09-19.56-8.93-28.13-15.57a72.62,72.62,0,0,1-18.67-22c-5.49-9.69-8.22-20.2-9.35-31.2-.68-6.57.19-13,1.34-19.45.7-3.91,1.72-7.77,2.68-11.64.27-1.1,0-1.55-1.05-1.86-1.87-.56-3.7-1.24-6-2,1.14-.92,2-1.61,2.8-2.26L50.74,31.53c.26-.2.49-.45.74-.68Z" transform="translate(-22.47 -30.85)"/><path class="cls-1" d="M536.53,88.17c-.29,1.11-.62,2.21-.88,3.33A22.57,22.57,0,0,1,525,106.23c-2.54,1.55-5.1,3.07-7.71,4.49a2,2,0,0,1-1.87-.1c-3-3.19-5.82-6.47-8.85-9.89.84-.54,1.52-.93,2.16-1.39,2.21-1.59,4.51-3.09,6.59-4.85S518.49,90,519,87.18c.22-1.26-.14-1.61-1.36-1.6-5.9,0-11.81,0-17.71,0-4.34,0-4.34,0-4.34-4.31q0-17.13,0-34.27c0-2.08,0-2.11,2.08-2.11h37.44c.48,0,1,0,1.44.05Q536.53,66.57,536.53,88.17ZM520.87,66.46c.57-.26.82-.38,1.07-.48,3.54-1.42,4.88-3.61,4.43-7.27A6.83,6.83,0,0,0,520,52.49c-4.54-.26-9.1-.2-13.65-.29-1,0-1.24.47-1.24,1.34q0,11.72,0,23.45c0,1.09.49,1.42,1.49,1.4,1.68,0,3.36-.05,5,0,1.16,0,1.5-.48,1.48-1.56,0-1.92,0-3.83,0-5.75,0-1,.39-1.37,1.37-1.38,2.06,0,3.14,1,3.53,3.54.2,1.32.36,2.66.53,4A1.17,1.17,0,0,0,520,78.36q2.88,0,5.76,0c.88,0,1.19-.29,1-1.21-.3-1.79-.51-3.6-.75-5.41C525.62,68.9,524.46,66.74,520.87,66.46Z" transform="translate(-22.47 -30.85)"/><path class="cls-1" d="M448.39,131.61a43.93,43.93,0,0,1-11.29,8.46,27.38,27.38,0,0,1-15.8,2.62,111.73,111.73,0,0,1-11-1.73c-7.16-1.67-12.63-6.09-17.36-11.49-7.54-8.6-10.51-19-11.62-30.08a62.55,62.55,0,0,1,3.21-27.92A50.78,50.78,0,0,1,395,54.25c3.6-3.9,8.24-6.38,13.2-8.24a67.73,67.73,0,0,1,20.23-4,48.87,48.87,0,0,1,25.75,5.35c9.85,5.17,16.49,13,17.8,24.58.09.76.07,1.53.14,2.3.16,1.65,0,1.81-1.66,1.81-8.69,0-17.37,0-26.06,0a1.75,1.75,0,0,1-2-1.64A12.94,12.94,0,0,0,430.9,64.28c-8.3-1-14.11,3.8-17,10.53a48.91,48.91,0,0,0-3.34,14.81,41.76,41.76,0,0,0,2.28,18.25c1.77,4.88,4.3,9.19,9,11.89,6.81,3.92,20.36,2.51,23.23-9.4.32-1.35.53-2.73.76-4.1.3-1.78.17-1.94-1.59-1.94H429.9c-1.87,0-2-.08-2-1.95,0-5.28,0-10.56,0-15.84,0-1.34.38-1.87,1.8-1.86q20.74.06,41.47,0c1.33,0,1.74.48,1.73,1.77q0,26.21,0,52.41c0,1.28-.4,1.78-1.73,1.77q-10.51-.07-21,0c-1.43,0-1.82-.56-1.78-1.88C448.44,136.38,448.39,134,448.39,131.61Z" transform="translate(-22.47 -30.85)"/><path class="cls-1" d="M371.75,140.57c-2.5,0-4.93.08-7.35-.07-.46,0-1.1-.93-1.25-1.52-.85-3.54-1.64-7.1-2.34-10.67-1.24-6.35-2-12.84-3.7-19-1.94-7-7.14-11.2-14.53-11.51-8.15-.33-16.31-.23-24.46-.36-1.41,0-1.35.87-1.35,1.82q0,14.69,0,29.38c0,3.46,0,6.91,0,10.37,0,1.26-.46,1.72-1.69,1.66-1.48-.07-3,0-4.46,0-1,0-1.45-.35-1.4-1.35,0-.43,0-.86,0-1.3V46.67c0-2.57,0-2.57,2.63-2.57,9.26,0,18.53-.12,27.79.06a49.08,49.08,0,0,1,11.26,1.29C360.82,48,367,54.39,369,64.54c1.33,6.65.79,13-2.83,19-2.73,4.51-6.82,7.18-11.57,9-1.29.5-2.63.88-4.26,1.41,1.56.56,2.89,1,4.16,1.5a16.37,16.37,0,0,1,9.32,9.44c2.28,5.78,3.17,11.85,4.16,17.9.94,5.73,1.58,11.51,3.67,17A3.71,3.71,0,0,1,371.75,140.57ZM317.06,70.45q0,8.71,0,17.41c0,2,0,2,2,2,7.53,0,15.06,0,22.59,0a18.19,18.19,0,0,0,3.86-.34c5.82-1.29,10.84-3.81,13.87-9.3A20,20,0,0,0,361.17,66a16.73,16.73,0,0,0-3.93-8.35c-4-4.27-9.2-6.1-14.85-6.28-7.81-.25-15.64-.07-23.46-.07-1.79,0-1.86.08-1.87,1.87Q317.05,61.81,317.06,70.45Z" transform="translate(-22.47 -30.85)"/><path class="cls-1" d="M224.2,94.26a49.71,49.71,0,0,0,7,27c4.76,8,12,12.15,21,13.56,5,.79,10,.82,14.9-.93,7.71-2.77,13.43-7.72,16.45-15.45,1.18-3,2.05-6.18,3-9.3.27-.92.66-1.4,1.67-1.38,2,0,3.94,0,5.9,0,1.08,0,1.48.43,1.28,1.5-1.61,8.82-4.81,16.92-11.34,23.3a34.65,34.65,0,0,1-21.41,9.84,54.94,54.94,0,0,1-15.75-.67c-5.85-1.11-10.83-4-15.45-7.65-7.23-5.68-11.19-13.33-13.5-22a67.13,67.13,0,0,1-2.25-21.37c.51-8.5,1.52-17,5.24-24.76a47.89,47.89,0,0,1,6.32-9.72,37.37,37.37,0,0,1,16-11.65,41.43,41.43,0,0,1,18.29-2,38.39,38.39,0,0,1,12.68,3c10.24,4.69,16.71,12.44,19,23.57.38,1.88.65,3.78,1,5.66.22,1.12-.13,1.63-1.31,1.61-1.68,0-3.36-.08-5,0-1.42.08-1.89-.41-2-1.87a24.12,24.12,0,0,0-5.06-14.14A27.66,27.66,0,0,0,262,49.86a33.77,33.77,0,0,0-17.07,2.21A28.18,28.18,0,0,0,231,64.32c-4.21,7.12-6,14.9-6.44,23.05Q224.4,90.82,224.2,94.26Z" transform="translate(-22.47 -30.85)"/><path class="cls-1" d="M386.7,226a6.2,6.2,0,0,0-.87.55c-4.23,4.27-13.37,2.47-16-4.54a17.31,17.31,0,0,1-.31-12.24c1.52-4.27,4.39-7.06,9-7.7s8.84-.35,12.32,3.15a7.69,7.69,0,0,1,2.07,4.49c.14.89-.2,1.23-1.08,1.22-1.87,0-3.75.06-5.61-.05a2,2,0,0,1-1.38-.9c-1.65-2.85-5.33-3-6.86-.13a11.13,11.13,0,0,0,.14,11.27c1,1.73,2.7,2,4.53,1.75a3.51,3.51,0,0,0,3-2.73c.38-1.31.12-1.63-1.21-1.72-1-.07-2.78,0-2.93-.4a10.84,10.84,0,0,1-.24-4.09c0-.28.73-.75,1.13-.76,3.17-.06,6.33,0,9.5,0,.92,0,1.26.44,1.26,1.34q0,6.19,0,12.38c0,1-.41,1.39-1.38,1.35a27.21,27.21,0,0,0-3,0C387.36,228.35,386.35,228.1,386.7,226Z" transform="translate(-22.47 -30.85)"/><path class="cls-1" d="M324.88,256.35c2.19.61,3.06,2.58,3.48,4.86.37,2,.67,4,1,6,.16.88-.17,1.29-1,1.3-1.87,0-3.75.07-5.61,0a1.69,1.69,0,0,1-1.17-1.06,34.41,34.41,0,0,1-.59-4.12c-.27-2.47-1.47-3.48-3.91-3.34-.87,0-1.19.42-1.19,1.24,0,1.87,0,3.74,0,5.62,0,1.21-.4,1.78-1.66,1.74-1.68-.06-3.36,0-5,0-1,0-1.4-.43-1.4-1.4q0-11.52,0-23c0-.89.39-1.3,1.31-1.29,4.18,0,8.36-.12,12.53.07,5.38.24,8.68,5.13,6.56,9.74C327.55,254,326,255.08,324.88,256.35Zm-9.07-4.59c.21.49.47,1.81.82,1.83a11.13,11.13,0,0,0,4-.5c.44-.14.85-1.27.79-1.9-.13-1.43-2.06-2.17-4.42-2C315.38,249.38,316.22,250.65,315.81,251.76Z" transform="translate(-22.47 -30.85)"/><path class="cls-1" d="M472.18,210.78c3.19-3,6.15-2.82,10,.93a18.14,18.14,0,0,1,1.55-1.64c2-1.66,4.27-1.55,6.52-.67a5.8,5.8,0,0,1,3.63,5.45c.23,4.16.11,8.34,0,12.52a1.59,1.59,0,0,1-1.11,1.07c-1.57.13-3.16,0-4.74.06-1,0-1.17-.6-1.17-1.41,0-3.26,0-6.52,0-9.79a5.29,5.29,0,0,0-.4-2.23,2,2,0,0,0-1.43-.9,1.65,1.65,0,0,0-1.33.79,9.44,9.44,0,0,0-.66,3.05c-.08,3-.07,5.95,0,8.92,0,1.2-.45,1.63-1.61,1.58a34.55,34.55,0,0,0-3.74,0c-1.29.08-1.79-.38-1.77-1.73.07-3.16,0-6.33,0-9.5a4.65,4.65,0,0,0-.35-2.09,2.09,2.09,0,0,0-1.48-1,1.91,1.91,0,0,0-1.47,1,11.83,11.83,0,0,0-.53,3.38c-.07,2.78-.06,5.57,0,8.35,0,1.19-.42,1.65-1.6,1.6-1.39-.06-2.78,0-4.17,0-.89,0-1.32-.33-1.32-1.26q0-8.28,0-16.55c0-1,.49-1.28,1.34-1.24,1.48.06,3,.06,4.45.24C471.24,209.75,471.63,210.33,472.18,210.78Z" transform="translate(-22.47 -30.85)"/><path class="cls-1" d="M327.21,172.27a13,13,0,0,0-1.44,0c-1.36.15-2.23-.21-2.62-1.72a3.27,3.27,0,0,0-3.35-2.45,3.78,3.78,0,0,0-3.9,2.42,13.26,13.26,0,0,0,0,9.56,3.91,3.91,0,0,0,7.36-.36c.48-1.57,1.39-1.82,2.77-1.74a36.13,36.13,0,0,0,3.74,0c1.24-.05,1.58.52,1.45,1.68-.51,4.3-2.73,7.19-6.91,8.45a15.35,15.35,0,0,1-10.16-.35,10.18,10.18,0,0,1-6-6.39,17.81,17.81,0,0,1-.73-9.49c1.26-6.85,6.59-10.73,13.54-10a12.57,12.57,0,0,1,6.91,2.54,8.5,8.5,0,0,1,3.14,6.23c.08,1.09-.3,1.64-1.44,1.59-.77,0-1.54,0-2.3,0Z" transform="translate(-22.47 -30.85)"/><path class="cls-1" d="M367.3,252c.29-2.5.29-2.5,2.71-2.5l2.88,0a1.1,1.1,0,0,1,1.22,1.26c-.08,5.8.07,11.61-.29,17.38-.3,4.76-3.69,7.62-8.5,7.57a24.2,24.2,0,0,1-6.2-.87,5.29,5.29,0,0,1-3.74-4c-.25-1,.07-1.57,1.2-1.54s2.3,0,3.45,0a2.48,2.48,0,0,1,2.51,1.16,2.44,2.44,0,0,0,4.16-.46,13,13,0,0,0,.74-4.41,8.07,8.07,0,0,1-6.58,2.23,5.92,5.92,0,0,1-5.29-3.85,12.93,12.93,0,0,1-.38-9.94,6.78,6.78,0,0,1,11.67-2.4C367,251.69,367.07,251.77,367.3,252Zm-.37,6.37a24.63,24.63,0,0,0-.51-2.55,2,2,0,0,0-2.07-1.44,2,2,0,0,0-2.12,1.4,6.71,6.71,0,0,0,.07,5.3,2.77,2.77,0,0,0,2.06,1.37,3,3,0,0,0,2-1.46A8.22,8.22,0,0,0,366.93,258.36Z" transform="translate(-22.47 -30.85)"/><path class="cls-1" d="M422,266.52a8.1,8.1,0,0,1-7.75,2.29,5.87,5.87,0,0,1-5.06-5.62,5.49,5.49,0,0,1,4.22-5.65,44.56,44.56,0,0,1,5.95-.88c.68-.09,1.68.16,1.61-.9a3,3,0,0,0-1-2.13c-.44-.29-1.93.08-2,.44-.72,2.27-2.48,1.79-4.09,1.8-.72,0-1.44,0-2.16,0-1.32.07-1.59-.64-1.32-1.73a5.36,5.36,0,0,1,2.67-3.76,12.83,12.83,0,0,1,12,0,5.69,5.69,0,0,1,3.19,5.28c.08,3.79,0,7.58,0,11.37,0,1-.37,1.52-1.43,1.48s-1.83,0-2.73,0C422.82,268.57,421.79,268.37,422,266.52Zm-3.58-2.09a2.45,2.45,0,0,0,2.52-2.56c0-.92-.42-1.14-1.23-1.13-1.71,0-3.18.94-3.12,2.12S417.34,264.44,418.41,264.43Z" transform="translate(-22.47 -30.85)"/><path class="cls-1" d="M426.75,211a6.73,6.73,0,0,1,7.73-1.6c2.91,1.1,4,3.46,4.14,6.32.13,3.83,0,7.67.06,11.51,0,1-.47,1.35-1.41,1.32-1.29,0-2.59,0-3.89,0-1.77,0-1.95-.17-2-2,0-2.78,0-5.56,0-8.35a13.18,13.18,0,0,0-.12-2.15,2,2,0,0,0-1.84-1.9,2.06,2.06,0,0,0-2.39,1.6,9.16,9.16,0,0,0-.25,2.27c0,3,0,5.95,0,8.92,0,1.15-.38,1.67-1.59,1.62-1.48-.07-3,0-4.46,0-.84,0-1.22-.38-1.22-1.22,0-5.56,0-11.13,0-16.69a1.58,1.58,0,0,1,1.1-1.08,29.2,29.2,0,0,1,4.73.2C425.83,209.76,426.19,210.42,426.75,211Z" transform="translate(-22.47 -30.85)"/><path class="cls-1" d="M364.42,170.91c1.44-.62,2.85-1.62,4.36-1.8,4.6-.53,7.54,1.89,7.83,6.51.25,3.92.07,7.87.08,11.8a1.09,1.09,0,0,1-1.23,1.24h-4.75c-1,0-1.26-.65-1.26-1.53q0-4.25,0-8.49a14.23,14.23,0,0,0-.14-2.44c-.2-1.12-.8-2-2.06-2A2.21,2.21,0,0,0,365,176a13.37,13.37,0,0,0-.32,2.7c0,2.78-.06,5.57,0,8.35,0,1.2-.45,1.64-1.6,1.6-1.34,0-2.69,0-4,0-1,0-1.48-.35-1.48-1.43q0-8.13,0-16.27c0-1,.37-1.41,1.36-1.37,1.15,0,2.3,0,3.45,0S364.57,169.6,364.42,170.91Z" transform="translate(-22.47 -30.85)"/><path class="cls-1" d="M332.06,228.81c-6.15,0-10.18-3.95-10.19-10s4-10,10-10,10.55,4.39,10.54,10.08C342.44,225,338.47,228.8,332.06,228.81Zm-2.82-10a15.52,15.52,0,0,0,1,3.37,2.17,2.17,0,0,0,4,0,7,7,0,0,0,0-6.5,2.8,2.8,0,0,0-2.1-1.38,3.36,3.36,0,0,0-2.17,1.53A10,10,0,0,0,329.23,218.83Z" transform="translate(-22.47 -30.85)"/><path class="cls-1" d="M451.56,208.77c6.15,0,10.45,4.11,10.45,10,0,6.11-3.9,9.95-10.16,10s-10.36-4.08-10.37-10.08S445.4,208.77,451.56,208.77Zm-2.71,10a11.12,11.12,0,0,0,.9,3A3.22,3.22,0,0,0,452,223.3a2.89,2.89,0,0,0,2-1.51,6.6,6.6,0,0,0,0-6.09,3.52,3.52,0,0,0-2.16-1.51,2,2,0,0,0-2.29,1.56A24.37,24.37,0,0,0,448.86,218.82Z" transform="translate(-22.47 -30.85)"/><path class="cls-1" d="M457.23,258.92c0-5.4,3.1-9.1,8-9.82,6.59-1,11.34,3.24,12.15,7.23,1.46,7.21-2.33,13-10.73,12.58C460.63,268.57,457.23,264.81,457.23,258.92Zm13.16-.12a11.21,11.21,0,0,0-.9-3,3,3,0,0,0-2.15-1.27,2.86,2.86,0,0,0-2.07,1.38,7.07,7.07,0,0,0,0,6.12c.43,1,1.27,1.78,2.34,1.49a3.82,3.82,0,0,0,2.1-1.63A11.13,11.13,0,0,0,470.39,258.81Z" transform="translate(-22.47 -30.85)"/><path class="cls-1" d="M487.11,251.14c1.75-1.7,3.5-2.59,5.65-2.44,3.94.26,6.31,2.62,6.56,7,.21,3.78.06,7.57.07,11.36,0,.92-.45,1.27-1.34,1.25-1.44,0-2.88-.06-4.31,0-1.2.06-1.61-.44-1.6-1.6,0-3.12,0-6.23,0-9.35a4,4,0,0,0-.39-2.08,2.83,2.83,0,0,0-1.84-1.27,2.59,2.59,0,0,0-1.89,1.19,6.16,6.16,0,0,0-.6,2.76c-.07,2.83-.1,5.66,0,8.49.05,1.49-.5,2-1.92,1.86s-2.59,0-3.88,0c-.9,0-1.31-.35-1.31-1.27q0-8.2,0-16.4c0-.85.39-1.22,1.22-1.21,1.2,0,2.4,0,3.6,0S487.17,249.35,487.11,251.14Z" transform="translate(-22.47 -30.85)"/><path class="cls-1" d="M409.73,220.18c-1.77,0-3.55,0-5.32,0-1,0-1.3.44-1.14,1.34a2.67,2.67,0,0,0,1.9,2.46c1.31.3,2.67.29,3.44-1.07a2,2,0,0,1,2-1.07c1.34,0,2.69,0,4,0s1.73.38,1,1.74a8.42,8.42,0,0,1-4.78,4.34,13.34,13.34,0,0,1-9.3.09c-3.42-1.26-4.74-4.12-5.3-7.46-.85-5,1.09-8.8,5.43-10.73s10.16-.75,12.86,2.76a9.59,9.59,0,0,1,1.92,6.34c0,.92-.42,1.28-1.32,1.27-1.82,0-3.64,0-5.47,0Zm-3.59-3.59h0c.48,0,1,0,1.43,0,1.25,0,1.51-.48,1-1.6a2.6,2.6,0,0,0-4.38-.55,5.65,5.65,0,0,0-.56,1.69c.51.16,1,.35,1.53.46A4.68,4.68,0,0,0,406.14,216.59Z" transform="translate(-22.47 -30.85)"/><path class="cls-1" d="M424.6,180.14c-1.77,0-3.55,0-5.33,0-1.14,0-1.44.45-1.12,1.52s.81,2.12,2.06,2.34a3.11,3.11,0,0,0,3.45-1.17,2.23,2.23,0,0,1,1.49-.79c1.48-.11,3,0,4.46,0,1.21,0,1.45.54.95,1.53a8.68,8.68,0,0,1-5.43,4.63,14.56,14.56,0,0,1-7.4.28,8.45,8.45,0,0,1-6.52-7.85,15.79,15.79,0,0,1,.13-4.7c.94-4.25,5.32-7.24,9.86-7,4.08.23,7.58,1.48,9.29,5.57a18.87,18.87,0,0,1,.93,3.9c.23,1.23-.23,1.88-1.63,1.81C428.06,180.07,426.33,180.14,424.6,180.14Zm-1-3.68c-.2-2.26-1.19-3.16-3-3-1.54.16-2.27,1.23-2,3Z" transform="translate(-22.47 -30.85)"/><path class="cls-1" d="M344.94,260.46c-1.73,0-3.46,0-5.18,0-1.23,0-1.52.57-1.27,1.63a2.67,2.67,0,0,0,2.17,2.23,2.72,2.72,0,0,0,3-1.14,2.16,2.16,0,0,1,2.27-1.09c1.25,0,2.5,0,3.74,0,1.57,0,1.81.38,1,1.8a9.13,9.13,0,0,1-7.5,4.91,18.46,18.46,0,0,1-4.45-.05c-4.13-.6-6.46-3.14-7.31-7.75-.88-4.79.83-8.68,4.67-10.63,4.37-2.22,9.85-1.46,12.91,1.83a9.22,9.22,0,0,1,2.29,7.33c0,.35-.8.88-1.25.9-1.72.11-3.45,0-5.18,0Zm-3.64-3.58h0a8.2,8.2,0,0,0,1.84,0,1.63,1.63,0,0,0,.78-.81,7.13,7.13,0,0,0-1.94-2.25,2.09,2.09,0,0,0-2.73.91,2.54,2.54,0,0,0-.39,1.72c.05.25.93.36,1.45.47A5,5,0,0,0,341.3,256.88Z" transform="translate(-22.47 -30.85)"/><path class="cls-1" d="M354.3,182a16.08,16.08,0,0,1-1,2.33c-2.54,4-6.44,4.67-10.71,4.35-6.36-.47-8.49-5.52-8.35-11,.12-4.65,3.79-8.15,8.93-8.65s9.1,1.81,10.4,5.46a25,25,0,0,1,.89,4.06c.2,1.13-.27,1.67-1.5,1.65-3.4-.05-6.81,0-10.22,0-1.41,0-1.82.46-1.24,1.75a4.1,4.1,0,0,0,1.93,2,2.86,2.86,0,0,0,3.35-1,2.76,2.76,0,0,1,1.73-.89C350.32,181.91,352.13,182,354.3,182Zm-10.06-5.41h0a3,3,0,0,0,.72,0c.64-.16,1.26-.37,1.89-.56a7.9,7.9,0,0,0-1.36-2.18,2.38,2.38,0,0,0-3.21.58,6.4,6.4,0,0,0-.57,1.71c.51.16,1,.35,1.54.46A4.85,4.85,0,0,0,344.24,176.57Z" transform="translate(-22.47 -30.85)"/><path class="cls-1" d="M389.21,266.28c-3.3,3.18-7.64,3.36-10.25.71-1.44-1.46-1.65-3.33-1.7-5.2-.09-3.59,0-7.19,0-10.79,0-1.07.35-1.61,1.49-1.56s2.49,0,3.74,0,1.53.41,1.52,1.53c0,2.83,0,5.66,0,8.49a5.33,5.33,0,0,0,.32,2.39c.39.69,1.2,1.53,1.88,1.58a3,3,0,0,0,2.09-1.3,4.07,4.07,0,0,0,.4-2.21c0-3,.05-5.95,0-8.92,0-1.12.4-1.57,1.51-1.54,1.44,0,2.88,0,4.31,0,.9,0,1.28.4,1.28,1.32q0,8.2,0,16.4c0,.93-.42,1.3-1.3,1.3s-1.92,0-2.88,0C390.16,268.6,389,268.47,389.21,266.28Z" transform="translate(-22.47 -30.85)"/><path class="cls-1" d="M523.8,217c-.58,0-1.16,0-1.73,0a1.84,1.84,0,0,1-2.14-1.38,2.67,2.67,0,0,0-2-1.43,2.93,2.93,0,0,0-2.19,1.41,8.77,8.77,0,0,0-.1,6.32,1.86,1.86,0,0,0,2.15,1.51,3,3,0,0,0,2-1.49c.46-1.75,1.53-2,3-1.85,1,.07,1.92,0,2.88,0,1.69,0,1.88.27,1.5,1.86-1,4.35-5.1,7.1-10.06,6.79-4.64-.29-7.66-2.29-8.85-5.89-1.54-4.67-.48-9.32,2.71-12,3.75-3.16,12.63-3.2,15.43,2.41l.19.39c1.39,2.89,1.11,3.34-2.07,3.34Z" transform="translate(-22.47 -30.85)"/><path class="cls-1" d="M310.63,221.14c0-1.87,0-3.74,0-5.61,0-1.05-.36-1.55-1.42-1.41-1.36.17-1.82-.5-1.71-1.76a8.64,8.64,0,0,0,0-1.44c-.11-1.28.42-1.89,1.74-1.79.83.07,1.31-.19,1.4-1.17.31-3.34,1.27-4.4,4.56-4.81a24.58,24.58,0,0,1,4.59,0c1.94.12,1.21,1.68,1.33,2.75s-.55,1.38-1.51,1.34a2.27,2.27,0,0,0-1.24.23,1.35,1.35,0,0,0-.61,1c0,.25.55.51.9.66a1.89,1.89,0,0,0,.85,0c1.25-.11,1.77.46,1.64,1.7,0,.24,0,.48,0,.72,0,2.19.37,2.73-2.31,2.56-1.09-.06-1.24.6-1.24,1.48q0,5.47,0,10.93c0,1.74-.16,1.89-1.89,1.91-1.25,0-2.49,0-3.74,0-1,0-1.37-.41-1.35-1.4,0-2,0-3.93,0-5.9Z" transform="translate(-22.47 -30.85)"/><path class="cls-1" d="M436.68,244.78h.14c3.79,0,3.29-.3,3.27,3.16,0,1.16.45,1.47,1.54,1.48.68,0,1.91.27,2,.56a12.22,12.22,0,0,1-.09,3.8c0,.22-1.19.39-1.81.36-1.17-.06-1.65.35-1.6,1.56.08,1.63,0,3.26,0,4.89s.62,2.46,2.41,2.51c1,0,1.27.44,1.26,1.29,0,.19,0,.38,0,.57,0,3.65-.27,4-4,3.79-4.35-.19-6.11-1.83-6.48-6.22-.18-2.24-.18-4.5-.18-6.74,0-1.11-.27-1.77-1.53-1.63s-1.54-.49-1.45-1.55a7,7,0,0,0,0-1.29c-.15-1.36.26-2.13,1.8-1.95.88.11,1.13-.42,1.18-1.23C433.34,244.8,433.35,244.8,436.68,244.78Z" transform="translate(-22.47 -30.85)"/><path class="cls-1" d="M381.51,178.67c0-.67,0-1.35,0-2,.13-1.46,0-2.62-2-2.39-.27,0-.83-.35-.84-.57a20,20,0,0,1,0-3.72c0-.26.91-.6,1.4-.6,1.09,0,1.4-.48,1.39-1.49,0-3.25-.51-3.1,3.22-3.14,3.47,0,3.49,0,3.75,3.42.06.86.41,1.22,1.24,1.18,2.73-.14,2.24.54,2.28,2.47,0,.38,0,.77,0,1.15.07,1-.41,1.42-1.37,1.36-2.45-.15-2.15.46-2.16,2.3,0,1.44,0,2.88,0,4.32a1.9,1.9,0,0,0,2,2.15c1.33,0,1.66.66,1.53,1.8,0,0,0,.1,0,.14,0,3.68,0,3.76-3.72,3.72-4.21,0-6-1.6-6.59-5.78-.19-1.42-.18-2.87-.27-4.3Z" transform="translate(-22.47 -30.85)"/><path class="cls-1" d="M399.06,255.09c0-3.84,0-7.68,0-11.52,0-1.25.43-1.74,1.67-1.67a31.7,31.7,0,0,0,3.89,0c1.37-.09,1.84.42,1.83,1.81-.06,5.76,0,11.52,0,17.28,0,2,0,4,0,6,0,1.06-.42,1.48-1.45,1.46-1.44,0-2.88,0-4.32,0-1.16,0-1.62-.4-1.61-1.6C399.1,263,399.06,259,399.06,255.09Z" transform="translate(-22.47 -30.85)"/><path class="cls-1" d="M401.43,171.81c.63-.54,1.14-1,1.7-1.43a5.33,5.33,0,0,1,4.71-1.15,1.8,1.8,0,0,1,1.1,1.19,16.55,16.55,0,0,1,0,3.73c0,.37-.62.76-1,1-.25.15-.66,0-1,0-3.42,0-5.1,1.72-5.11,5.15,0,2.16-.06,4.32,0,6.48,0,1.28-.47,1.72-1.69,1.66s-2.69,0-4,0c-.94,0-1.38-.35-1.39-1.36-.06-5.37-.14-10.74-.27-16.1,0-1.23.48-1.62,1.62-1.58s2.21.06,3.31,0c1.28-.07,2.08.26,1.89,1.74C401.24,171.3,401.34,171.48,401.43,171.81Z" transform="translate(-22.47 -30.85)"/><path class="cls-1" d="M352.09,211.6c1.54-1.36,3.1-2.61,5.3-2.54,1.79.06,2.08.31,2.09,2.1,0,1.27,0,2.54,0,3.84-.94,0-1.61,0-2.27,0-3.16.15-4.89,1.95-4.93,5.16,0,2.21-.05,4.41,0,6.62,0,1.15-.34,1.7-1.55,1.65-1.39-.05-2.78,0-4.17,0-.95,0-1.38-.38-1.39-1.37-.06-5.37-.13-10.73-.25-16.1,0-1.21.47-1.64,1.62-1.57.91.05,1.82,0,2.73,0C351.78,209.48,351.53,209,352.09,211.6Z" transform="translate(-22.47 -30.85)"/><path class="cls-1" d="M497.57,218.63c0-2.59.06-5.18,0-7.76,0-1.37.51-1.78,1.77-1.73s2.68,0,4,0c1,0,1.5.39,1.5,1.44q0,8,0,16.1c0,1-.38,1.52-1.44,1.5-1.44,0-2.88,0-4.31,0-1.1,0-1.55-.4-1.52-1.52C497.61,224,497.57,221.31,497.57,218.63Z" transform="translate(-22.47 -30.85)"/><path class="cls-1" d="M454.24,259c0,2.59,0,5.18,0,7.77,0,1.23-.37,1.77-1.64,1.71s-2.78,0-4.17,0c-.88,0-1.3-.37-1.3-1.3q0-8.2,0-16.4c0-1,.48-1.35,1.41-1.34,1.39,0,2.78,0,4.17,0,1.1,0,1.54.4,1.52,1.53C454.2,253.65,454.23,256.33,454.24,259Z" transform="translate(-22.47 -30.85)"/><path class="cls-1" d="M501.11,208.07c-4-.05-3.5.51-3.54-3.48,0-2.37,0-2.38,2.36-2.38,1.2,0,2.39,0,3.59,0,.89,0,1.36.35,1.33,1.27,0,.29,0,.57,0,.86C504.82,208.7,505.31,208,501.11,208.07Z" transform="translate(-22.47 -30.85)"/><path class="cls-1" d="M450.72,242.5c4,0,3.48-.47,3.51,3.51,0,2.37,0,2.38-2.35,2.38a27.72,27.72,0,0,1-3.58-.06c-.42-.05-.85-.65-1.11-1.1-.17-.29,0-.75,0-1.13C447.21,242,446.61,242.54,450.72,242.5Z" transform="translate(-22.47 -30.85)"/><path class="cls-1" d="M513.14,61.15c0-2.36,0-2.38,1.92-2.39q3.54,0,3.47,2.64c0,1.67-1,2.35-3.39,2.35C513.14,63.74,513.14,63.74,513.14,61.15Z" transform="translate(-22.47 -30.85)"/></g></g></svg>