<?xml version="1.0" encoding="utf-8"?>
<!-- Generator: Adobe Illustrator 16.0.0, SVG Export Plug-In . SVG Version: 6.00 Build 0)  -->
<!DOCTYPE svg PUBLIC "-//W3C//DTD SVG 1.1//EN" "http://www.w3.org/Graphics/SVG/1.1/DTD/svg11.dtd">
<svg version="1.1" id="Layer_1" xmlns="http://www.w3.org/2000/svg" xmlns:xlink="http://www.w3.org/1999/xlink" x="0px" y="0px"
	 width="559px" height="288.568px" viewBox="0 0 559 288.568" enable-background="new 0 0 559 288.568" xml:space="preserve">
<g id="ngYDMz.tif">
	<g>
		<path fill="#FFFFFF" d="M535.865,72.562c0,66.921,0,133.842,0,200.765c-171.383,0-342.767,0-514.149,0
			c0-86.028,0-172.057,0-258.083c9.697,0,19.395,0,29.092,0c-0.245,0.227-0.475,0.474-0.738,0.679
			c-8.488,6.59-16.981,13.174-25.471,19.764c-0.84,0.653-1.656,1.337-2.798,2.261c2.283,0.779,4.114,1.461,5.98,2.019
			c1.043,0.312,1.33,0.76,1.055,1.862c-0.964,3.86-1.976,7.722-2.681,11.635c-1.155,6.42-2.018,12.875-1.342,19.445
			c1.132,11.005,3.859,21.518,9.35,31.204c4.828,8.521,10.885,16.013,18.665,22.035c8.572,6.639,18.147,11.482,28.128,15.567
			c14.609,5.979,29.747,10.266,45.098,13.835c1.205,0.28,1.5,0.695,1.195,1.96c-1.583,6.577-3.25,13.143-4.52,19.783
			c-2.483,12.997-2.958,26.056-1.105,39.229c1.474,10.49,5.458,19.445,14.025,25.982c6.6,5.035,13.71,9.169,22.11,10.143
			c5.892,0.684,11.854,0.767,17.786,1.087c1.56,0.084,1.749,0.254,1.593,1.785c-0.134,1.319-0.236,2.642-0.391,4.396
			c9.47-5.915,18.604-11.619,27.941-17.451c-7.275-5.896-14.241-11.538-21.494-17.414c-0.361,2.441-0.704,4.414-0.929,6.4
			c-0.128,1.133-0.609,1.556-1.758,1.514c-4.074-0.146-8.154-0.132-12.224-0.338c-5.062-0.256-9.704-1.864-13.75-4.947
			c-6.4-4.877-9.967-11.539-11.81-19.229c-1.64-6.843-1.574-13.776-1.228-20.751c0.435-8.771,2.019-17.334,4.168-25.816
			c0.508-2.007,0.524-1.979,2.515-1.604c4.432,0.833,8.858,1.701,13.305,2.449c16.036,2.698,31.822,6.25,46.761,12.944
			c10.304,4.617,19.345,11,27.035,19.211c6.472,6.908,10.527,15.145,12.448,24.438c1.744,8.44,1.692,16.757-1.378,24.92
			c-0.11,0.293-0.133,0.619-0.212,1.009c0.328,0.049,0.557,0.117,0.785,0.112c4.602-0.082,9.203-0.224,13.804-0.246
			c2.825-0.015,5.654,0.109,8.478,0.251c1.067,0.054,1.448-0.501,1.684-1.371c2.293-8.514,3.205-17.103,1.896-25.902
			c-1.293-8.705-4.733-16.592-8.997-24.136c-6.19-10.953-14.458-20.159-24.408-27.842c-10.676-8.244-22.655-14.012-35.329-18.434
			c-15.693-5.476-31.916-8.724-48.259-11.464c-1.846-0.309-1.847-0.33-1.312-2.081c2.723-8.896,5.583-17.752,8.091-26.708
			c2.151-7.681,3.262-15.594,3.688-23.549c0.451-8.42-0.159-16.808-2.722-24.908c-4.116-13.009-10.9-23.872-23.845-29.998
			c-3.479-1.646-6.99-2.374-10.659-2.449c-7.726-0.156-15.455-0.057-23.185-0.04c-1.52,0.004-3.078-0.083-4.551,0.212
			c-2.813,0.562-5.582,1.354-8.362,2.078c-0.833,0.218-1.655,0.498-2.459,0.808c-0.923,0.354-1.31,0.877-0.913,1.991
			c1.691,4.745,3.279,9.527,4.917,14.293c0.581,1.69,0.879,1.811,2.676,1.312c5.896-1.635,11.869-2.605,18.023-2.584
			c10.505,0.038,18.532,4.696,24.516,13.039c4.86,6.777,6.603,14.634,6.975,22.809c0.372,8.16-0.606,16.239-2.834,24.062
			c-2.456,8.622-5.437,17.095-8.2,25.63c-0.615,1.899-0.64,1.898-2.539,1.438c-16.113-3.916-31.98-8.566-47.127-15.447
			c-9.823-4.462-18.692-10.089-25.334-18.863c-7.583-10.016-12.008-20.918-10.378-33.724c0.623-4.896,2.114-9.543,4.042-14.066
			c0.364-0.854,0.904-1.167,1.815-0.847c0.95,0.333,1.92,0.612,2.888,0.896c1.586,0.464,3.177,0.912,4.984,1.429
			c-0.124-0.624-0.145-0.948-0.253-1.241c-1.621-4.415-3.262-8.822-4.881-13.237c-2.593-7.073-5.172-14.151-7.757-21.227
			c161.59,0,323.18,0,484.77,0c0,4.705,0,9.408,0,14.113c-0.479-0.019-0.957-0.053-1.438-0.053
			c-12.479-0.003-24.959-0.004-37.438-0.001c-2.053,0-2.08,0.029-2.08,2.108c-0.002,11.423-0.002,22.847-0.002,34.27
			c0,4.309,0,4.309,4.342,4.309c5.904,0,11.81,0.022,17.712-0.018c1.227-0.008,1.586,0.346,1.362,1.604
			c-0.5,2.824-1.469,5.437-3.682,7.306c-2.076,1.755-4.373,3.252-6.586,4.845c-0.64,0.46-1.322,0.856-2.16,1.395
			c3.027,3.417,5.885,6.704,8.848,9.892c0.316,0.34,1.39,0.361,1.875,0.098c2.611-1.418,5.17-2.939,7.707-4.488
			c5.603-3.419,9.187-8.312,10.662-14.73C535.243,74.772,535.57,73.671,535.865,72.562z M447.729,116.008
			c0,2.384,0.051,4.77-0.02,7.151c-0.037,1.32,0.35,1.89,1.782,1.878c7.009-0.057,14.017-0.052,21.023-0.003
			c1.338,0.009,1.736-0.491,1.733-1.774c-0.026-17.471-0.026-34.942,0.003-52.413c0.004-1.292-0.4-1.778-1.732-1.773
			c-13.824,0.033-27.646,0.035-41.471-0.004c-1.414-0.004-1.812,0.523-1.797,1.862c0.053,5.279,0.018,10.56,0.022,15.839
			c0.002,1.867,0.082,1.943,1.953,1.946c4.799,0.006,9.6-0.003,14.398,0.005c1.764,0.003,1.891,0.16,1.592,1.942
			c-0.23,1.371-0.438,2.75-0.762,4.099c-2.865,11.905-16.423,13.313-23.23,9.395c-4.705-2.708-7.24-7.012-9.006-11.894
			c-2.133-5.904-2.857-11.969-2.281-18.255c0.467-5.106,1.338-10.073,3.34-14.808c2.844-6.729,8.658-11.531,16.957-10.53
			c5.726,0.689,10.252,4.565,11.445,10.165c0.26,1.215,0.789,1.647,2.033,1.643c8.688-0.042,17.375-0.018,26.062-0.026
			c1.697-0.002,1.816-0.17,1.658-1.814c-0.074-0.763-0.059-1.536-0.146-2.297c-1.303-11.539-7.942-19.41-17.795-24.577
			c-7.967-4.18-16.674-5.844-25.75-5.346c-6.944,0.381-13.709,1.547-20.235,3.993c-4.959,1.857-9.603,4.339-13.199,8.237
			c-4.623,5.01-8.16,10.778-10.498,17.224c-3.285,9.051-4.164,18.413-3.209,27.924c1.111,11.06,4.09,21.48,11.625,30.077
			c4.729,5.396,10.201,9.817,17.359,11.485c3.62,0.845,7.352,1.25,11.049,1.728c5.514,0.712,10.781-0.175,15.805-2.62
			C440.697,122.394,444.225,119.415,447.729,116.008z M371.086,124.967c-0.033-0.381-0.011-0.581-0.072-0.746
			c-2.09-5.476-2.732-11.262-3.672-16.988c-0.992-6.056-1.879-12.12-4.162-17.902c-1.795-4.55-4.922-7.578-9.318-9.438
			c-1.271-0.538-2.598-0.944-4.156-1.505c1.632-0.536,2.974-0.909,4.263-1.413c4.75-1.855,8.838-4.526,11.569-9.032
			c3.619-5.967,4.16-12.358,2.834-19.013c-2.022-10.142-8.221-16.527-18.116-19.084c-3.625-0.937-7.488-1.216-11.254-1.288
			c-9.261-0.176-18.527-0.058-27.791-0.057c-2.632,0-2.632,0.001-2.632,2.568c0,30.435,0,60.867,0,91.302
			c0,0.432,0.023,0.864,0.002,1.296c-0.053,0.999,0.445,1.369,1.398,1.351c1.488-0.028,2.979-0.058,4.463,0.011
			c1.236,0.059,1.715-0.4,1.693-1.662c-0.058-3.456-0.019-6.912-0.019-10.369c0-9.792,0.002-19.585-0.004-29.377
			c0-0.955-0.061-1.845,1.349-1.823c8.153,0.122,16.313,0.021,24.459,0.356c7.385,0.305,12.584,4.542,14.526,11.508
			c1.732,6.209,2.468,12.694,3.705,19.046c0.697,3.571,1.486,7.129,2.336,10.667c0.146,0.596,0.791,1.493,1.25,1.521
			C366.156,125.048,368.588,124.967,371.086,124.967z M223.536,78.656c0.131-2.296,0.261-4.592,0.396-6.888
			c0.48-8.147,2.233-15.931,6.44-23.05c3.307-5.597,7.82-9.794,13.864-12.252c5.487-2.231,11.184-2.922,17.071-2.207
			c7.73,0.939,14.008,4.513,18.844,10.531c3.287,4.09,4.771,8.946,5.062,14.139c0.082,1.456,0.555,1.946,1.973,1.866
			c1.674-0.095,3.359-0.048,5.037-0.012c1.178,0.024,1.529-0.487,1.307-1.607c-0.375-1.881-0.645-3.783-1.026-5.662
			c-2.265-11.121-8.74-18.878-18.979-23.565c-4.014-1.839-8.313-2.628-12.681-3.021c-6.222-0.562-12.34-0.208-18.293,1.975
			c-6.457,2.369-11.685,6.455-15.985,11.647c-2.454,2.962-4.664,6.257-6.32,9.719c-3.725,7.781-4.731,16.254-5.245,24.758
			c-0.438,7.232,0.389,14.355,2.25,21.374c2.309,8.71,6.271,16.359,13.503,22.044c4.623,3.634,9.598,6.534,15.452,7.649
			c5.212,0.993,10.458,1.195,15.747,0.673c8.282-0.816,15.485-4.044,21.413-9.838c6.529-6.379,9.724-14.478,11.339-23.299
			c0.196-1.071-0.197-1.521-1.279-1.505c-1.967,0.029-3.937,0.043-5.902,0.001c-1.012-0.021-1.396,0.461-1.67,1.38
			c-0.934,3.119-1.801,6.272-2.983,9.3c-3.019,7.726-8.744,12.673-16.451,15.446c-4.87,1.752-9.876,1.725-14.904,0.933
			c-8.996-1.417-16.257-5.555-21.012-13.564C225.561,97.305,223.336,88.306,223.536,78.656z M386.036,210.422
			c-0.35,2.067,0.66,2.324,2.074,2.214c1.002-0.077,2.017-0.046,3.023-0.011c0.969,0.034,1.385-0.359,1.379-1.354
			c-0.027-4.127-0.021-8.255-0.002-12.383c0.004-0.896-0.342-1.339-1.261-1.336c-3.168,0.01-6.336-0.023-9.502,0.04
			c-0.397,0.008-1.11,0.477-1.127,0.76c-0.067,1.374-0.203,2.85,0.242,4.088c0.154,0.432,1.904,0.329,2.933,0.396
			c1.327,0.087,1.586,0.405,1.211,1.717c-0.438,1.525-1.412,2.491-3.007,2.731c-1.829,0.275-3.536-0.021-4.53-1.746
			c-2.131-3.705-2.099-7.562-0.14-11.273c1.529-2.896,5.207-2.712,6.861,0.133c0.254,0.437,0.895,0.878,1.379,0.905
			c1.867,0.105,3.742,0.026,5.613,0.05c0.879,0.012,1.213-0.33,1.078-1.223c-0.258-1.704-0.822-3.245-2.066-4.492
			c-3.484-3.491-7.801-3.778-12.32-3.146c-4.614,0.646-7.485,3.436-9.006,7.701c-1.463,4.104-1.207,8.167,0.312,12.241
			c2.613,7.007,11.756,8.808,15.983,4.537C385.323,210.816,385.549,210.727,386.036,210.422z M324.217,240.748
			c1.16-1.279,2.67-2.341,3.336-3.79c2.121-4.607-1.187-9.495-6.562-9.74c-4.168-0.19-8.352-0.039-12.526-0.067
			c-0.925-0.006-1.31,0.396-1.31,1.29c0.006,7.681,0.006,15.36-0.004,23.041c0,0.967,0.443,1.401,1.4,1.396
			c1.68-0.013,3.36-0.041,5.039,0.015c1.266,0.042,1.696-0.531,1.664-1.736c-0.052-1.871,0.004-3.744-0.013-5.616
			c-0.006-0.825,0.314-1.193,1.187-1.242c2.438-0.139,3.641,0.867,3.908,3.336c0.149,1.381,0.276,2.775,0.594,4.122
			c0.102,0.438,0.746,1.037,1.174,1.062c1.865,0.115,3.742,0.056,5.613,0.042c0.86-0.006,1.188-0.427,1.026-1.302
			c-0.368-1.979-0.674-3.971-1.043-5.951C327.277,243.329,326.409,241.356,324.217,240.748z M471.512,195.172
			c-0.549-0.451-0.933-1.027-1.377-1.083c-1.472-0.184-2.963-0.186-4.447-0.243c-0.85-0.033-1.348,0.276-1.344,1.243
			c0.022,5.517,0.024,11.034,0.016,16.55c-0.002,0.937,0.437,1.277,1.322,1.263c1.391-0.023,2.785-0.05,4.174,0.012
			c1.178,0.053,1.619-0.41,1.596-1.597c-0.057-2.78-0.063-5.564,0.006-8.347c0.029-1.137,0.181-2.311,0.533-3.383
			c0.156-0.472,0.961-1.008,1.47-1.006c0.512,0.002,1.219,0.529,1.481,1.02c0.316,0.592,0.34,1.385,0.346,2.093
			c0.035,3.166,0.068,6.333-0.006,9.498c-0.028,1.34,0.472,1.804,1.765,1.725c1.241-0.076,2.495-0.063,3.739-0.004
			c1.164,0.055,1.634-0.379,1.611-1.58c-0.057-2.974-0.07-5.95,0.014-8.922c0.029-1.028,0.289-2.088,0.658-3.051
			c0.154-0.397,0.891-0.825,1.33-0.793c0.514,0.037,1.211,0.452,1.434,0.899c0.324,0.65,0.39,1.476,0.398,2.229
			c0.041,3.262,0.027,6.523,0.018,9.785c-0.002,0.817,0.166,1.426,1.166,1.415c1.582-0.017,3.173,0.071,4.744-0.057
			c0.412-0.033,1.101-0.693,1.105-1.074c0.067-4.172,0.182-8.354-0.045-12.516c-0.129-2.358-1.189-4.501-3.633-5.454
			c-2.257-0.881-4.513-0.992-6.523,0.668c-0.576,0.476-1.039,1.087-1.555,1.637C477.665,192.353,474.704,192.143,471.512,195.172z
			 M326.54,156.66c0-0.001,0-0.003,0-0.004c0.769,0,1.535-0.027,2.304,0.006c1.143,0.049,1.521-0.507,1.438-1.593
			c-0.192-2.516-1.164-4.601-3.145-6.226c-2.021-1.66-4.404-2.262-6.914-2.535c-6.945-0.756-12.281,3.121-13.539,9.975
			c-0.588,3.195-0.4,6.401,0.734,9.491c1.094,2.979,2.995,5.238,6.014,6.394c3.336,1.275,6.742,1.376,10.158,0.345
			c4.184-1.262,6.403-4.147,6.91-8.45c0.137-1.162-0.205-1.728-1.447-1.678c-1.244,0.05-2.496,0.07-3.738-0.009
			c-1.381-0.087-2.279,0.168-2.766,1.735c-0.502,1.627-1.779,2.793-3.636,2.798c-1.715,0.005-3.114-0.775-3.729-2.439
			c-1.172-3.172-1.16-6.411,0.043-9.557c0.643-1.678,2.121-2.471,3.904-2.419c1.627,0.046,2.944,0.836,3.354,2.454
			c0.383,1.515,1.254,1.871,2.617,1.72C325.575,156.616,326.062,156.66,326.54,156.66z M366.635,236.379
			c-0.234-0.213-0.347-0.3-0.441-0.402c-3.787-4.038-9.789-2.81-11.666,2.399c-1.211,3.359-1.061,6.691,0.383,9.942
			c1.011,2.275,2.734,3.694,5.287,3.847c2.418,0.144,4.664-0.326,6.58-2.225c-0.09,1.537-0.16,3.085-0.738,4.413
			c-0.733,1.691-3.164,1.937-4.164,0.464c-0.686-1.01-1.444-1.215-2.512-1.164c-1.147,0.057-2.301,0.041-3.451,0.012
			c-1.135-0.029-1.45,0.534-1.2,1.543c0.504,2.032,1.821,3.495,3.741,4.032c1.996,0.558,4.123,0.849,6.197,0.869
			c4.805,0.05,8.199-2.807,8.498-7.57c0.363-5.778,0.215-11.588,0.291-17.386c0.01-0.831-0.4-1.244-1.217-1.259
			c-0.959-0.016-1.918-0.021-2.877-0.021C366.924,233.875,366.924,233.877,366.635,236.379z M421.32,250.91
			c-0.199,1.855,0.838,2.054,2.164,1.979c0.908-0.051,1.824-0.038,2.734-0.008c1.051,0.034,1.436-0.451,1.426-1.483
			c-0.031-3.79,0.047-7.582-0.037-11.371c-0.053-2.312-1.092-4.261-3.193-5.281c-3.973-1.931-8.038-2.021-12.028,0.037
			c-1.5,0.773-2.281,2.153-2.668,3.755c-0.267,1.088,0.004,1.801,1.319,1.73c0.718-0.038,1.439,0.002,2.158-0.004
			c1.605-0.015,3.369,0.469,4.09-1.803c0.115-0.363,1.613-0.727,2.05-0.44c0.559,0.367,0.905,1.374,0.952,2.129
			c0.066,1.058-0.936,0.807-1.614,0.897c-1.988,0.268-4.031,0.353-5.947,0.884c-2.787,0.771-4.373,3.111-4.217,5.65
			c0.18,2.924,2.106,5.118,5.063,5.625C416.454,253.698,419.1,253.224,421.32,250.91z M426.086,195.348
			c-0.562-0.54-0.921-1.192-1.354-1.247c-1.563-0.193-3.156-0.263-4.729-0.199c-0.398,0.018-1.099,0.701-1.103,1.084
			c-0.068,5.562-0.039,11.126-0.041,16.69c0,0.837,0.377,1.227,1.221,1.219c1.486-0.014,2.978-0.052,4.459,0.021
			c1.212,0.059,1.605-0.469,1.591-1.615c-0.037-2.973-0.023-5.947,0.004-8.92c0.008-0.76,0.051-1.546,0.248-2.274
			c0.315-1.169,1.168-1.709,2.393-1.603c1.156,0.1,1.666,0.877,1.838,1.895c0.121,0.704,0.119,1.434,0.123,2.151
			c0.014,2.782-0.01,5.562,0.017,8.345c0.016,1.831,0.194,1.992,1.963,2.004c1.295,0.01,2.592-0.023,3.885,0.006
			c0.938,0.022,1.42-0.307,1.412-1.324c-0.031-3.837,0.078-7.678-0.056-11.51c-0.1-2.858-1.229-5.218-4.145-6.321
			C430.807,192.609,428.17,193.199,426.086,195.348z M363.758,155.3c0.149-1.306-0.904-1.318-2.043-1.285
			c-1.15,0.033-2.306,0.028-3.455-0.013c-0.99-0.035-1.361,0.4-1.357,1.375c0.021,5.423,0.027,10.847-0.004,16.27
			c-0.008,1.085,0.479,1.45,1.478,1.433c1.344-0.023,2.688-0.042,4.03,0.007c1.158,0.042,1.629-0.399,1.604-1.601
			c-0.062-2.781-0.045-5.566-0.004-8.35c0.014-0.904,0.127-1.821,0.323-2.704c0.259-1.156,1.068-1.873,2.25-1.871
			c1.259,0.001,1.859,0.919,2.062,2.04c0.143,0.796,0.137,1.625,0.141,2.438c0.019,2.832,0.019,5.664,0.009,8.495
			c-0.005,0.878,0.215,1.526,1.256,1.526c1.582-0.001,3.166,0.005,4.75-0.005c0.807-0.005,1.239-0.396,1.235-1.24
			c-0.016-3.935,0.164-7.882-0.082-11.802c-0.291-4.625-3.229-7.047-7.832-6.514C366.607,153.675,365.193,154.683,363.758,155.3z
			 M331.391,213.206c6.41-0.014,10.379-3.812,10.383-9.939c0.006-5.69-4.602-10.097-10.539-10.081
			c-6.027,0.017-10.031,4.015-10.029,10.015C321.206,209.259,325.236,213.219,331.391,213.206z M450.898,193.164
			c-6.166,0.001-10.094,3.856-10.082,9.896c0.012,6.001,4.248,10.121,10.367,10.084c6.26-0.038,10.166-3.876,10.164-9.986
			C461.346,197.271,457.051,193.163,450.898,193.164z M456.568,243.317c-0.002,5.883,3.394,9.649,9.377,9.982
			c8.396,0.468,12.187-5.369,10.726-12.581c-0.808-3.987-5.554-8.206-12.146-7.227C459.668,234.214,456.568,237.916,456.568,243.317
			z M486.448,235.534c0.06-1.788-0.957-1.775-2.02-1.748c-1.199,0.03-2.398,0.024-3.597,0.01c-0.838-0.011-1.225,0.354-1.223,1.207
			c0.014,5.466,0.017,10.933,0.002,16.398c-0.002,0.924,0.408,1.292,1.308,1.274c1.295-0.026,2.596-0.077,3.883,0.019
			c1.42,0.106,1.973-0.374,1.92-1.859c-0.098-2.826-0.072-5.658,0-8.485c0.022-0.937,0.154-1.973,0.596-2.762
			c0.334-0.595,1.248-1.202,1.894-1.19c0.639,0.013,1.438,0.671,1.844,1.268c0.363,0.537,0.379,1.371,0.389,2.076
			c0.045,3.115,0.062,6.232,0.025,9.35c-0.012,1.161,0.401,1.659,1.602,1.601c1.437-0.07,2.877-0.041,4.314-0.011
			c0.891,0.02,1.348-0.33,1.344-1.252c-0.018-3.788,0.139-7.584-0.074-11.361c-0.246-4.355-2.623-6.71-6.559-6.974
			C489.948,232.949,488.198,233.837,486.448,235.534z M409.064,204.573c0-0.004,0-0.008,0-0.011c1.822,0,3.646-0.017,5.467,0.007
			c0.896,0.013,1.291-0.347,1.316-1.271c0.063-2.335-0.484-4.472-1.92-6.335c-2.705-3.511-8.429-4.731-12.863-2.764
			c-4.338,1.925-6.275,5.736-5.432,10.729c0.565,3.336,1.889,6.197,5.305,7.46c3.082,1.141,6.221,1.001,9.299-0.089
			c2.178-0.772,3.748-2.292,4.777-4.343c0.678-1.352,0.442-1.709-1.047-1.735c-1.343-0.021-2.687,0.018-4.027-0.007
			c-0.883-0.016-1.518,0.226-1.998,1.071c-0.771,1.355-2.129,1.373-3.438,1.07c-1.229-0.283-1.695-1.312-1.904-2.458
			c-0.162-0.894,0.164-1.354,1.143-1.336C405.516,204.597,407.29,204.573,409.064,204.573z M423.936,164.535
			c1.729,0,3.459-0.07,5.182,0.021c1.402,0.074,1.859-0.574,1.634-1.809c-0.238-1.313-0.421-2.68-0.929-3.896
			c-1.707-4.093-5.205-5.346-9.287-5.574c-4.541-0.253-8.916,2.735-9.856,6.981c-0.332,1.505-0.269,3.144-0.133,4.7
			c0.352,4.038,2.928,7.05,6.524,7.848c2.49,0.553,4.965,0.444,7.4-0.278c2.479-0.734,4.264-2.334,5.426-4.628
			c0.502-0.992,0.264-1.548-0.947-1.527c-1.487,0.024-2.981-0.062-4.463,0.043c-0.522,0.037-1.201,0.374-1.494,0.793
			c-0.896,1.285-2.133,1.407-3.45,1.174c-1.244-0.22-1.729-1.214-2.06-2.339c-0.312-1.069-0.02-1.54,1.125-1.519
			C420.383,164.56,422.159,164.536,423.936,164.535z M344.275,244.852c0,0.002,0,0.003,0,0.005c1.729,0,3.461,0.064,5.182-0.043
			c0.451-0.027,1.222-0.559,1.248-0.904c0.216-2.724-0.37-5.266-2.289-7.33c-3.061-3.294-8.54-4.051-12.913-1.829
			c-3.843,1.951-5.55,5.839-4.671,10.63c0.847,4.606,3.177,7.156,7.31,7.751c1.457,0.21,2.979,0.202,4.451,0.053
			c3.312-0.336,5.895-1.939,7.502-4.909c0.768-1.416,0.52-1.779-1.047-1.797c-1.248-0.013-2.496,0.03-3.744-0.014
			c-0.969-0.034-1.701,0.12-2.269,1.09c-0.643,1.102-1.825,1.362-3.041,1.143c-1.221-0.222-1.896-1.062-2.174-2.232
			c-0.248-1.053,0.039-1.661,1.271-1.626C340.818,244.888,342.547,244.852,344.275,244.852z M353.635,166.377
			c-2.166,0-3.98-0.075-5.781,0.042c-0.605,0.039-1.34,0.427-1.734,0.894c-0.938,1.113-2.157,1.473-3.346,1.007
			c-0.801-0.312-1.557-1.214-1.93-2.035c-0.58-1.285-0.17-1.739,1.24-1.746c3.405-0.017,6.812-0.042,10.217,0.01
			c1.235,0.019,1.699-0.52,1.502-1.647c-0.238-1.362-0.426-2.762-0.885-4.056c-1.298-3.646-5.398-5.939-10.396-5.457
			c-5.141,0.498-8.812,4.005-8.934,8.652c-0.144,5.5,1.993,10.546,8.352,11.017c4.273,0.317,8.172-0.401,10.713-4.354
			C353.04,168.1,353.227,167.365,353.635,166.377z M388.549,250.675c-0.258,2.192,0.94,2.319,2.381,2.217
			c0.955-0.067,1.918-0.026,2.877-0.02c0.881,0.007,1.301-0.366,1.297-1.298c-0.02-5.468-0.02-10.934,0-16.4
			c0.002-0.914-0.379-1.323-1.279-1.317c-1.438,0.01-2.877,0.031-4.313-0.014c-1.109-0.035-1.525,0.424-1.508,1.539
			c0.049,2.972,0.039,5.946-0.002,8.918c-0.011,0.753,0,1.667-0.4,2.213c-0.471,0.64-1.404,1.352-2.09,1.305
			c-0.676-0.044-1.494-0.883-1.879-1.578c-0.361-0.657-0.314-1.581-0.324-2.389c-0.033-2.829-0.047-5.659,0.002-8.486
			c0.018-1.119-0.416-1.571-1.518-1.533c-1.246,0.042-2.496,0.05-3.74-0.002c-1.146-0.048-1.506,0.487-1.494,1.562
			c0.033,3.596-0.045,7.194,0.041,10.789c0.045,1.866,0.26,3.745,1.697,5.201C380.909,254.033,385.245,253.851,388.549,250.675z
			 M523.139,201.38c0.24,0,0.479,0,0.719,0c3.178,0,3.455-0.449,2.066-3.338c-0.062-0.13-0.127-0.258-0.191-0.387
			c-2.801-5.611-11.674-5.577-15.428-2.412c-3.197,2.693-4.258,7.346-2.715,12.014c1.188,3.595,4.207,5.604,8.85,5.89
			c4.967,0.307,9.039-2.44,10.062-6.789c0.375-1.59,0.186-1.832-1.503-1.858c-0.959-0.016-1.922,0.054-2.877-0.018
			c-1.471-0.108-2.549,0.097-3.006,1.847c-0.168,0.646-1.215,1.305-1.977,1.493c-1.047,0.259-1.83-0.521-2.146-1.516
			c-0.672-2.106-0.805-4.296,0.097-6.323c0.309-0.692,1.422-1.388,2.188-1.408c0.676-0.02,1.715,0.759,1.992,1.433
			c0.455,1.109,1.043,1.482,2.143,1.381C521.982,201.336,522.562,201.379,523.139,201.38z M309.969,205.533c0.002,0,0.002,0,0.004,0
			c0,1.965,0.029,3.932-0.012,5.896c-0.021,0.98,0.389,1.409,1.354,1.396c1.246-0.019,2.492,0.012,3.738,0
			c1.723-0.019,1.881-0.167,1.887-1.907c0.014-3.645,0.014-7.287,0.002-10.932c-0.004-0.87,0.148-1.541,1.24-1.475
			c2.684,0.162,2.277-0.378,2.312-2.565c0.004-0.239-0.022-0.481,0.004-0.719c0.14-1.229-0.381-1.807-1.635-1.695
			c-0.285,0.024-0.608,0.072-0.854-0.032c-0.349-0.148-0.879-0.412-0.896-0.657c-0.022-0.327,0.297-0.8,0.605-0.997
			c0.334-0.211,0.824-0.248,1.242-0.233c0.965,0.034,1.641-0.21,1.512-1.342c-0.123-1.067,0.608-2.629-1.332-2.751
			c-1.525-0.095-3.08-0.168-4.588,0.022c-3.289,0.415-4.254,1.471-4.562,4.813c-0.092,0.986-0.571,1.238-1.397,1.172
			c-1.318-0.104-1.849,0.508-1.738,1.789c0.039,0.477,0.039,0.961-0.002,1.438c-0.105,1.26,0.35,1.932,1.713,1.759
			c1.062-0.135,1.449,0.357,1.418,1.411C309.928,201.792,309.969,203.663,309.969,205.533z M436.012,229.173
			c-3.324,0.021-3.342,0.02-3.551,3.365c-0.052,0.805-0.296,1.334-1.177,1.228c-1.537-0.186-1.948,0.591-1.797,1.948
			c0.047,0.426,0.037,0.864,0.004,1.292c-0.082,1.062,0.289,1.683,1.453,1.551c1.256-0.142,1.531,0.518,1.527,1.63
			c-0.004,2.249-0.004,4.505,0.18,6.744c0.361,4.388,2.133,6.026,6.478,6.216c3.711,0.163,4.026-0.138,3.983-3.792
			c-0.002-0.19-0.01-0.383-0.008-0.574c0.01-0.854-0.273-1.262-1.264-1.291c-1.787-0.055-2.384-0.748-2.408-2.51
			c-0.023-1.628,0.061-3.261-0.016-4.886c-0.058-1.215,0.424-1.615,1.596-1.561c0.623,0.028,1.771-0.136,1.811-0.359
			c0.209-1.247,0.279-2.559,0.093-3.802c-0.043-0.29-1.271-0.557-1.955-0.561c-1.084-0.005-1.543-0.312-1.537-1.478
			c0.021-3.464,0.516-3.151-3.271-3.165C436.107,229.173,436.059,229.173,436.012,229.173z M380.848,163.064
			c-0.025,0.001-0.049,0.003-0.074,0.004c0.084,1.435,0.076,2.881,0.268,4.299c0.566,4.184,2.384,5.74,6.593,5.782
			c3.676,0.037,3.75-0.037,3.721-3.72c0-0.048-0.004-0.096,0-0.144c0.125-1.143-0.201-1.778-1.533-1.805
			c-1.268-0.024-2.006-0.794-1.992-2.15c0.015-1.438-0.008-2.877,0.003-4.316c0.014-1.837-0.294-2.447,2.159-2.296
			c0.963,0.06,1.437-0.374,1.369-1.364c-0.024-0.382,0.006-0.767-0.002-1.15c-0.039-1.934,0.449-2.614-2.281-2.471
			c-0.832,0.043-1.18-0.322-1.243-1.179c-0.259-3.455-0.279-3.448-3.75-3.417c-3.728,0.035-3.236-0.114-3.222,3.14
			c0.004,1.016-0.301,1.494-1.393,1.495c-0.486,0.001-1.363,0.333-1.396,0.598c-0.149,1.225-0.108,2.481-0.026,3.72
			c0.014,0.22,0.571,0.605,0.84,0.574c1.955-0.233,2.1,0.925,1.971,2.388C380.801,161.717,380.848,162.393,380.848,163.064z
			 M398.398,239.483c0,3.937,0.033,7.872-0.018,11.809c-0.017,1.2,0.446,1.639,1.606,1.599c1.438-0.05,2.879-0.036,4.318-0.006
			c1.024,0.021,1.475-0.394,1.449-1.456c-0.048-2.015-0.013-4.031-0.013-6.047c0-5.76-0.035-11.521,0.025-17.279
			c0.014-1.391-0.461-1.898-1.83-1.806c-1.291,0.087-2.596,0.075-3.887,0.003c-1.248-0.07-1.693,0.412-1.674,1.666
			C398.436,231.803,398.398,235.643,398.398,239.483z M400.766,156.2c-0.088-0.33-0.191-0.511-0.17-0.675
			c0.192-1.482-0.609-1.817-1.887-1.744c-1.101,0.062-2.207,0.05-3.31,0.004c-1.137-0.047-1.647,0.353-1.617,1.576
			c0.131,5.368,0.213,10.737,0.273,16.106c0.012,1.004,0.447,1.373,1.393,1.357c1.345-0.021,2.688-0.05,4.029,0.013
			c1.219,0.056,1.734-0.383,1.688-1.66c-0.075-2.156-0.024-4.316-0.02-6.475c0.012-3.435,1.695-5.127,5.115-5.154
			c0.336-0.002,0.742,0.129,0.992-0.016c0.411-0.24,0.989-0.626,1.028-1c0.129-1.233,0.148-2.501-0.004-3.729
			c-0.055-0.448-0.643-1.057-1.104-1.188c-1.746-0.497-3.306,0.128-4.713,1.152C401.904,155.179,401.398,155.664,400.766,156.2z
			 M351.424,195.998c-0.558-2.595-0.31-2.127-2.812-2.204c-0.91-0.028-1.824,0.038-2.731-0.013c-1.15-0.065-1.646,0.362-1.617,1.574
			c0.121,5.366,0.195,10.733,0.254,16.102c0.01,0.992,0.438,1.382,1.389,1.37c1.39-0.02,2.781-0.042,4.17,0.01
			c1.207,0.044,1.578-0.503,1.547-1.652c-0.062-2.204-0.036-4.411-0.012-6.616c0.037-3.216,1.765-5.017,4.928-5.165
			c0.662-0.03,1.326-0.005,2.269-0.005c0-1.295,0.006-2.566-0.002-3.84c-0.01-1.788-0.295-2.043-2.086-2.101
			C354.527,193.385,352.967,194.637,351.424,195.998z M496.909,203.025c0,2.685,0.033,5.368-0.016,8.052
			c-0.021,1.122,0.424,1.558,1.525,1.521c1.436-0.048,2.875-0.039,4.312-0.006c1.064,0.024,1.445-0.506,1.443-1.498
			c-0.011-5.367-0.015-10.734,0.002-16.102c0.004-1.05-0.488-1.46-1.496-1.442c-1.342,0.024-2.687,0.049-4.025-0.012
			c-1.26-0.058-1.819,0.36-1.772,1.726C496.971,197.847,496.907,200.438,496.909,203.025z M453.568,243.413
			c0-2.686-0.033-5.371,0.019-8.056c0.02-1.125-0.427-1.562-1.523-1.526c-1.389,0.043-2.781,0.026-4.172,0.006
			c-0.93-0.013-1.414,0.315-1.408,1.338c0.023,5.466,0.021,10.932,0.002,16.398c-0.004,0.932,0.416,1.303,1.297,1.298
			c1.392-0.006,2.783-0.044,4.172,0.02c1.265,0.059,1.67-0.483,1.638-1.711C453.523,248.593,453.57,246.002,453.568,243.413z
			 M500.448,192.46c4.199-0.07,3.707,0.637,3.746-3.729c0.002-0.287-0.016-0.574-0.006-0.86c0.029-0.919-0.438-1.286-1.326-1.271
			c-1.194,0.021-2.393-0.001-3.588,0c-2.365,0.002-2.385,0.004-2.363,2.378C496.948,192.965,496.406,192.406,500.448,192.46z
			 M450.057,226.889c-4.111,0.048-3.516-0.485-3.57,3.598c-0.006,0.383-0.129,0.845,0.039,1.13c0.264,0.445,0.693,1.042,1.115,1.097
			c1.176,0.153,2.385,0.063,3.58,0.062c2.348,0,2.367-0.002,2.348-2.376C453.531,226.417,454.081,226.936,450.057,226.889z"/>
		<path fill="#FFFFFF" d="M51.095,15.243c2.585,7.075,5.165,14.152,7.757,21.227c1.619,4.416,3.26,8.822,4.881,13.237
			c0.108,0.293,0.129,0.618,0.253,1.241c-1.808-0.518-3.397-0.965-4.984-1.429c-0.967-0.283-1.938-0.562-2.888-0.896
			c-0.911-0.319-1.451-0.007-1.815,0.847c-1.928,4.523-3.42,9.171-4.042,14.066c-1.629,12.806,2.796,23.708,10.378,33.724
			c6.642,8.773,15.512,14.4,25.334,18.863c15.147,6.881,31.014,11.532,47.127,15.446c1.899,0.463,1.923,0.464,2.539-1.437
			c2.764-8.535,5.744-17.008,8.2-25.63c2.228-7.823,3.206-15.902,2.834-24.062c-0.372-8.175-2.113-16.031-6.975-22.809
			c-5.982-8.342-14.01-13.001-24.516-13.039c-6.154-0.021-12.127,0.949-18.023,2.584c-1.797,0.499-2.095,0.379-2.676-1.312
			c-1.637-4.766-3.225-9.549-4.917-14.293c-0.396-1.114-0.01-1.637,0.913-1.991c0.805-0.31,1.626-0.589,2.459-0.808
			c2.78-0.725,5.548-1.517,8.362-2.079c1.473-0.294,3.031-0.208,4.551-0.211c7.729-0.018,15.459-0.117,23.186,0.04
			c3.668,0.075,7.179,0.803,10.658,2.449c12.943,6.126,19.729,16.989,23.845,29.998c2.562,8.101,3.173,16.487,2.722,24.908
			c-0.426,7.955-1.537,15.868-3.688,23.549c-2.508,8.956-5.368,17.812-8.091,26.708c-0.536,1.75-0.535,1.771,1.312,2.081
			c16.343,2.74,32.565,5.988,48.259,11.464c12.674,4.422,24.653,10.189,35.329,18.434c9.951,7.683,18.218,16.889,24.408,27.842
			c4.264,7.544,7.704,15.431,8.997,24.136c1.31,8.8,0.396,17.389-1.896,25.902c-0.234,0.869-0.615,1.424-1.684,1.371
			c-2.822-0.143-5.651-0.267-8.478-0.251c-4.602,0.022-9.203,0.162-13.804,0.246c-0.229,0.005-0.458-0.063-0.785-0.112
			c0.079-0.39,0.102-0.716,0.212-1.009c3.071-8.163,3.122-16.479,1.378-24.92c-1.92-9.294-5.977-17.53-12.448-24.438
			c-7.69-8.21-16.731-14.594-27.035-19.211c-14.938-6.694-30.725-10.246-46.761-12.944c-4.445-0.748-8.873-1.616-13.305-2.449
			c-1.99-0.375-2.006-0.403-2.515,1.604c-2.149,8.48-3.733,17.045-4.168,25.816c-0.347,6.975-0.412,13.909,1.228,20.751
			c1.843,7.689,5.409,14.351,11.81,19.229c4.046,3.083,8.688,4.69,13.75,4.947c4.069,0.207,8.149,0.193,12.224,0.338
			c1.148,0.042,1.63-0.381,1.758-1.514c0.225-1.986,0.567-3.959,0.929-6.4c7.253,5.876,14.219,11.519,21.494,17.414
			c-9.338,5.832-18.473,11.537-27.941,17.451c0.154-1.754,0.257-3.076,0.391-4.396c0.155-1.53-0.034-1.7-1.593-1.785
			c-5.933-0.32-11.895-0.403-17.786-1.087c-8.4-0.974-15.511-5.107-22.11-10.143c-8.568-6.538-12.552-15.492-14.025-25.982
			c-1.853-13.173-1.378-26.23,1.105-39.229c1.271-6.641,2.937-13.207,4.52-19.783c0.305-1.265,0.01-1.68-1.195-1.96
			c-15.352-3.57-30.488-7.856-45.098-13.835c-9.98-4.085-19.556-8.929-28.128-15.567c-7.78-6.022-13.836-13.515-18.665-22.035
			c-5.49-9.687-8.217-20.199-9.35-31.204C24.138,66.335,25,59.881,26.156,53.46c0.705-3.913,1.716-7.774,2.681-11.635
			c0.274-1.103-0.011-1.551-1.054-1.862c-1.868-0.558-3.698-1.239-5.981-2.019c1.142-0.924,1.958-1.607,2.798-2.261
			c8.489-6.59,16.982-13.174,25.471-19.764c0.264-0.205,0.493-0.452,0.738-0.679C50.903,15.243,50.999,15.243,51.095,15.243z"/>
		<path fill="#FFFFFF" d="M535.865,72.562c-0.295,1.108-0.621,2.209-0.877,3.327c-1.477,6.417-5.061,11.312-10.662,14.73
			c-2.537,1.549-5.096,3.069-7.707,4.488c-0.485,0.265-1.559,0.243-1.875-0.098c-2.963-3.188-5.819-6.475-8.848-9.892
			c0.838-0.537,1.521-0.935,2.16-1.395c2.213-1.592,4.51-3.09,6.586-4.845c2.213-1.869,3.182-4.48,3.682-7.306
			c0.224-1.257-0.137-1.611-1.362-1.604c-5.902,0.04-11.808,0.017-17.711,0.017c-4.343,0-4.343,0-4.343-4.308
			c0-11.423,0-22.847,0.002-34.27c0-2.08,0.027-2.108,2.08-2.108c12.479-0.003,24.959-0.002,37.438,0.001
			c0.479,0,0.959,0.035,1.438,0.053C535.865,43.758,535.865,58.161,535.865,72.562z M520.206,50.854
			c0.572-0.259,0.816-0.381,1.07-0.481c3.539-1.42,4.875-3.613,4.433-7.274c-0.408-3.354-2.906-6.021-6.326-6.218
			c-4.541-0.261-9.099-0.197-13.648-0.29c-0.957-0.021-1.236,0.466-1.236,1.338c0.013,7.816,0.019,15.632-0.006,23.448
			c-0.004,1.087,0.486,1.424,1.492,1.4c1.678-0.037,3.357-0.053,5.033,0.005c1.156,0.038,1.498-0.484,1.477-1.562
			c-0.043-1.917,0.027-3.835,0.013-5.753c-0.009-0.965,0.391-1.366,1.373-1.383c2.063-0.036,3.137,0.981,3.53,3.536
			c0.203,1.324,0.363,2.656,0.529,3.986c0.102,0.806,0.531,1.154,1.352,1.146c1.919-0.021,3.837-0.015,5.755,0.018
			c0.879,0.015,1.19-0.293,1.039-1.209c-0.3-1.794-0.509-3.604-0.748-5.409C524.954,53.292,523.791,51.13,520.206,50.854z"/>
		<path fill="#FFFFFF" d="M447.729,116.008c-3.504,3.407-7.031,6.386-11.287,8.458c-5.022,2.444-10.291,3.332-15.805,2.62
			c-3.697-0.479-7.428-0.883-11.049-1.728c-7.158-1.668-12.629-6.089-17.359-11.485c-7.535-8.597-10.514-19.018-11.625-30.077
			c-0.955-9.511-0.076-18.873,3.209-27.924c2.338-6.445,5.875-12.214,10.498-17.224c3.598-3.898,8.24-6.379,13.199-8.237
			c6.526-2.446,13.291-3.611,20.235-3.993c9.076-0.498,17.783,1.166,25.75,5.346c9.853,5.167,16.492,13.038,17.796,24.577
			c0.086,0.761,0.069,1.534,0.145,2.297c0.158,1.645,0.039,1.812-1.658,1.814c-8.688,0.009-17.375-0.017-26.062,0.026
			c-1.244,0.006-1.773-0.427-2.033-1.643c-1.193-5.6-5.721-9.476-11.445-10.165c-8.299-1.001-14.112,3.8-16.957,10.53
			c-2.002,4.733-2.873,9.7-3.34,14.808c-0.576,6.286,0.148,12.351,2.281,18.255c1.766,4.882,4.301,9.186,9.006,11.894
			c6.809,3.919,20.365,2.512,23.23-9.395c0.323-1.349,0.53-2.728,0.762-4.099c0.299-1.783,0.172-1.939-1.592-1.942
			c-4.8-0.008-9.601,0-14.398-0.005c-1.871-0.002-1.951-0.079-1.953-1.946c-0.006-5.279,0.029-10.56-0.022-15.839
			c-0.015-1.338,0.383-1.866,1.797-1.862c13.824,0.04,27.646,0.037,41.471,0.004c1.332-0.004,1.736,0.482,1.732,1.773
			c-0.029,17.471-0.029,34.942-0.002,52.413c0.002,1.284-0.396,1.784-1.734,1.774c-7.008-0.049-14.016-0.054-21.023,0.003
			c-1.434,0.012-1.819-0.559-1.782-1.878C447.779,120.777,447.729,118.392,447.729,116.008z"/>
		<path fill="#FFFFFF" d="M371.086,124.967c-2.498,0-4.931,0.081-7.349-0.072c-0.459-0.028-1.104-0.925-1.25-1.521
			c-0.85-3.539-1.639-7.096-2.336-10.667c-1.238-6.352-1.973-12.837-3.705-19.046c-1.942-6.966-7.143-11.203-14.526-11.508
			c-8.146-0.335-16.306-0.234-24.459-0.356c-1.408-0.021-1.349,0.868-1.349,1.823c0.006,9.792,0.004,19.585,0.004,29.377
			c0,3.457-0.039,6.913,0.019,10.369c0.021,1.262-0.457,1.72-1.693,1.662c-1.484-0.068-2.975-0.039-4.463-0.011
			c-0.953,0.019-1.451-0.352-1.398-1.351c0.021-0.432-0.002-0.864-0.002-1.296c0-30.435,0-60.867,0-91.302
			c0-2.567,0-2.568,2.632-2.568c9.264,0,18.53-0.119,27.79,0.057c3.767,0.072,7.63,0.352,11.255,1.288
			c9.896,2.558,16.094,8.943,18.116,19.084c1.326,6.653,0.785,13.046-2.834,19.013c-2.731,4.506-6.819,7.177-11.569,9.032
			c-1.289,0.504-2.631,0.876-4.263,1.413c1.56,0.561,2.886,0.968,4.156,1.505c4.396,1.859,7.523,4.888,9.318,9.438
			c2.283,5.784,3.17,11.847,4.162,17.902c0.938,5.727,1.582,11.513,3.672,16.988C371.075,124.387,371.053,124.586,371.086,124.967z
			 M316.393,54.844c0,5.805-0.002,11.609,0.002,17.414c0,1.989,0.047,2.039,1.998,2.04c7.531,0.003,15.062,0.014,22.594-0.02
			c1.287-0.005,2.605-0.066,3.855-0.344c5.817-1.29,10.844-3.812,13.867-9.298c2.485-4.508,2.834-9.288,1.791-14.231
			c-0.65-3.088-1.712-6.002-3.929-8.354c-4.026-4.27-9.201-6.099-14.854-6.277c-7.812-0.246-15.638-0.073-23.457-0.071
			c-1.791,0-1.865,0.075-1.867,1.874C316.389,43.331,316.393,49.087,316.393,54.844z"/>
		<path fill="#FFFFFF" d="M223.536,78.656c-0.2,9.65,2.024,18.649,6.96,26.964c4.755,8.01,12.016,12.146,21.012,13.564
			c5.028,0.792,10.034,0.82,14.904-0.933c7.707-2.772,13.434-7.721,16.45-15.446c1.185-3.027,2.052-6.181,2.984-9.3
			c0.273-0.918,0.658-1.401,1.67-1.38c1.967,0.042,3.937,0.028,5.902-0.001c1.082-0.017,1.477,0.434,1.278,1.505
			c-1.614,8.822-4.809,16.92-11.338,23.299c-5.928,5.794-13.131,9.021-21.414,9.838c-5.289,0.521-10.534,0.319-15.746-0.673
			c-5.854-1.115-10.829-4.016-15.452-7.649c-7.232-5.685-11.194-13.333-13.503-22.044c-1.861-7.019-2.688-14.142-2.25-21.374
			c0.514-8.503,1.521-16.977,5.244-24.758c1.658-3.462,3.868-6.757,6.321-9.719c4.301-5.192,9.528-9.279,15.985-11.647
			c5.954-2.184,12.071-2.536,18.293-1.975c4.366,0.394,8.667,1.183,12.681,3.021c10.238,4.688,16.715,12.444,18.979,23.565
			c0.383,1.879,0.651,3.781,1.026,5.662c0.224,1.121-0.129,1.633-1.307,1.607c-1.678-0.036-3.363-0.083-5.037,0.012
			c-1.418,0.08-1.891-0.41-1.973-1.866c-0.289-5.192-1.773-10.049-5.062-14.139c-4.836-6.019-11.112-9.592-18.844-10.531
			c-5.888-0.715-11.584-0.025-17.071,2.207c-6.043,2.458-10.558,6.655-13.864,12.252c-4.207,7.12-5.96,14.902-6.44,23.05
			C223.796,74.063,223.667,76.359,223.536,78.656z"/>
		<path fill="#FFFFFF" d="M386.036,210.422c-0.487,0.305-0.713,0.394-0.868,0.551c-4.229,4.271-13.371,2.471-15.984-4.537
			c-1.521-4.074-1.775-8.138-0.312-12.241c1.521-4.266,4.392-7.056,9.007-7.701c4.52-0.634,8.836-0.346,12.319,3.146
			c1.244,1.247,1.81,2.788,2.066,4.492c0.135,0.893-0.199,1.234-1.078,1.223c-1.871-0.023-3.746,0.056-5.613-0.05
			c-0.483-0.027-1.125-0.469-1.379-0.905c-1.654-2.845-5.332-3.029-6.861-0.133c-1.959,3.711-1.991,7.568,0.14,11.273
			c0.994,1.727,2.701,2.021,4.531,1.746c1.594-0.24,2.567-1.206,3.006-2.731c0.375-1.312,0.117-1.63-1.211-1.717
			c-1.027-0.067-2.777,0.034-2.933-0.396c-0.444-1.238-0.311-2.714-0.242-4.088c0.017-0.283,0.729-0.752,1.128-0.76
			c3.166-0.062,6.334-0.03,9.502-0.04c0.918-0.003,1.264,0.439,1.26,1.336c-0.021,4.128-0.025,8.256,0.002,12.383
			c0.006,0.995-0.41,1.389-1.379,1.354c-1.008-0.035-2.021-0.066-3.023,0.011C386.697,212.747,385.688,212.49,386.036,210.422z"/>
		<path fill="#FFFFFF" d="M324.217,240.748c2.192,0.607,3.061,2.581,3.483,4.858c0.369,1.979,0.675,3.972,1.043,5.951
			c0.162,0.875-0.166,1.295-1.026,1.302c-1.871,0.014-3.748,0.073-5.613-0.042c-0.428-0.025-1.072-0.625-1.174-1.062
			c-0.316-1.347-0.443-2.741-0.594-4.122c-0.269-2.469-1.47-3.475-3.908-3.336c-0.871,0.049-1.191,0.417-1.187,1.242
			c0.017,1.872-0.039,3.745,0.013,5.616c0.032,1.205-0.398,1.777-1.664,1.736c-1.679-0.056-3.359-0.026-5.039-0.015
			c-0.957,0.007-1.4-0.428-1.4-1.396c0.01-7.68,0.01-15.359,0.004-23.041c0-0.893,0.385-1.296,1.31-1.29
			c4.176,0.029,8.358-0.123,12.526,0.067c5.377,0.245,8.685,5.133,6.562,9.74C326.887,238.407,325.377,239.469,324.217,240.748z
			 M315.148,236.154c0.209,0.495,0.473,1.811,0.82,1.832c1.338,0.087,2.75-0.09,4.028-0.497c0.439-0.141,0.853-1.267,0.793-1.897
			c-0.131-1.425-2.059-2.171-4.422-1.96C314.719,233.778,315.555,235.043,315.148,236.154z"/>
		<path fill="#FFFFFF" d="M471.512,195.172c3.192-3.029,6.153-2.819,9.996,0.927c0.516-0.549,0.979-1.161,1.555-1.637
			c2.012-1.66,4.268-1.549,6.523-0.668c2.442,0.953,3.504,3.096,3.633,5.454c0.227,4.162,0.112,8.344,0.045,12.516
			c-0.006,0.381-0.693,1.041-1.105,1.074c-1.571,0.127-3.162,0.04-4.744,0.057c-1,0.011-1.168-0.597-1.166-1.415
			c0.011-3.262,0.023-6.523-0.018-9.786c-0.01-0.753-0.074-1.577-0.398-2.229c-0.223-0.447-0.92-0.862-1.434-0.899
			c-0.438-0.031-1.176,0.396-1.33,0.793c-0.369,0.963-0.629,2.022-0.658,3.051c-0.084,2.972-0.069,5.948-0.014,8.922
			c0.021,1.201-0.447,1.635-1.611,1.58c-1.243-0.06-2.498-0.071-3.739,0.004c-1.293,0.08-1.793-0.385-1.765-1.725
			c0.074-3.165,0.041-6.333,0.006-9.498c-0.006-0.708-0.028-1.501-0.346-2.093c-0.264-0.49-0.971-1.018-1.481-1.02
			c-0.509-0.002-1.312,0.535-1.47,1.006c-0.354,1.072-0.504,2.246-0.532,3.383c-0.07,2.781-0.062,5.565-0.007,8.347
			c0.023,1.187-0.418,1.648-1.596,1.597c-1.389-0.062-2.783-0.035-4.174-0.012c-0.887,0.016-1.324-0.326-1.322-1.263
			c0.01-5.517,0.008-11.034-0.016-16.55c-0.004-0.967,0.494-1.276,1.344-1.243c1.484,0.059,2.977,0.061,4.447,0.243
			C470.579,194.145,470.963,194.721,471.512,195.172z"/>
		<path fill="#FFFFFF" d="M326.54,156.66c-0.479,0-0.965-0.044-1.438,0.009c-1.363,0.15-2.234-0.206-2.617-1.72
			c-0.41-1.618-1.729-2.408-3.354-2.454c-1.783-0.052-3.263,0.741-3.904,2.419c-1.203,3.146-1.215,6.385-0.043,9.557
			c0.615,1.664,2.016,2.444,3.729,2.439c1.855-0.006,3.134-1.171,3.636-2.797c0.485-1.568,1.385-1.823,2.766-1.736
			c1.242,0.079,2.494,0.059,3.738,0.009c1.242-0.05,1.584,0.516,1.447,1.678c-0.507,4.303-2.728,7.188-6.91,8.45
			c-3.416,1.031-6.822,0.931-10.158-0.345c-3.019-1.155-4.92-3.415-6.014-6.394c-1.136-3.09-1.322-6.296-0.734-9.491
			c1.258-6.854,6.594-10.73,13.539-9.975c2.51,0.273,4.893,0.875,6.914,2.535c1.979,1.625,2.951,3.71,3.145,6.227
			c0.084,1.085-0.295,1.641-1.438,1.592c-0.769-0.033-1.535-0.006-2.304-0.006C326.54,156.657,326.54,156.658,326.54,156.66z"/>
		<path fill="#FFFFFF" d="M366.635,236.379c0.289-2.501,0.289-2.503,2.711-2.503c0.959,0,1.918,0.006,2.877,0.021
			c0.815,0.015,1.227,0.428,1.217,1.26c-0.076,5.796,0.072,11.606-0.291,17.385c-0.299,4.764-3.693,7.62-8.498,7.57
			c-2.074-0.021-4.201-0.312-6.197-0.869c-1.92-0.537-3.237-2-3.741-4.032c-0.25-1.01,0.065-1.573,1.2-1.543
			c1.15,0.03,2.304,0.045,3.451-0.011c1.066-0.053,1.826,0.153,2.513,1.163c1,1.473,3.43,1.228,4.163-0.464
			c0.578-1.328,0.648-2.876,0.738-4.413c-1.916,1.898-4.162,2.368-6.58,2.225c-2.553-0.152-4.276-1.571-5.287-3.846
			c-1.442-3.252-1.594-6.583-0.383-9.943c1.877-5.209,7.879-6.438,11.666-2.399C366.288,236.079,366.4,236.166,366.635,236.379z
			 M366.268,242.753c-0.168-0.877-0.26-1.736-0.508-2.547c-0.299-0.974-1.039-1.425-2.072-1.438
			c-1.039-0.014-1.773,0.45-2.117,1.395c-0.643,1.766-0.738,3.616,0.074,5.302c0.322,0.669,1.359,1.385,2.059,1.372
			c0.697-0.014,1.603-0.779,2.009-1.458C366.145,244.652,366.102,243.643,366.268,242.753z"/>
		<path fill="#FFFFFF" d="M421.32,250.91c-2.221,2.313-4.865,2.789-7.748,2.295c-2.957-0.506-4.885-2.7-5.063-5.625
			c-0.156-2.539,1.43-4.878,4.217-5.65c1.916-0.531,3.959-0.616,5.947-0.884c0.68-0.092,1.682,0.159,1.614-0.897
			c-0.047-0.755-0.395-1.762-0.952-2.129c-0.437-0.286-1.935,0.077-2.05,0.44c-0.721,2.271-2.483,1.789-4.09,1.803
			c-0.719,0.007-1.44-0.034-2.158,0.004c-1.315,0.07-1.586-0.643-1.319-1.73c0.387-1.602,1.168-2.981,2.668-3.755
			c3.99-2.059,8.057-1.968,12.028-0.037c2.103,1.021,3.142,2.97,3.193,5.281c0.084,3.789,0.006,7.581,0.037,11.371
			c0.01,1.032-0.375,1.518-1.426,1.483c-0.91-0.029-1.826-0.043-2.734,0.008C422.157,252.964,421.12,252.766,421.32,250.91z
			 M417.74,248.824c1.484-0.002,2.459-1.023,2.525-2.557c0.039-0.924-0.424-1.139-1.232-1.135c-1.707,0.009-3.178,0.942-3.125,2.119
			C415.956,248.359,416.672,248.832,417.74,248.824z"/>
		<path fill="#FFFFFF" d="M426.086,195.348c2.084-2.148,4.721-2.739,7.725-1.6c2.914,1.104,4.045,3.462,4.145,6.321
			c0.134,3.832,0.023,7.673,0.056,11.51c0.008,1.019-0.474,1.347-1.412,1.324c-1.293-0.029-2.59,0.004-3.885-0.006
			c-1.769-0.012-1.947-0.173-1.964-2.004c-0.024-2.782-0.002-5.562-0.016-8.345c-0.004-0.718-0.002-1.447-0.123-2.151
			c-0.172-1.018-0.682-1.795-1.838-1.895c-1.225-0.106-2.076,0.434-2.393,1.603c-0.197,0.729-0.24,1.515-0.248,2.274
			c-0.027,2.973-0.041,5.947-0.004,8.92c0.016,1.146-0.379,1.674-1.591,1.615c-1.481-0.072-2.973-0.033-4.459-0.021
			c-0.844,0.008-1.221-0.382-1.221-1.219c0.002-5.564-0.027-11.127,0.041-16.69c0.004-0.384,0.703-1.067,1.103-1.084
			c1.573-0.063,3.165,0.006,4.729,0.199C425.165,194.156,425.525,194.809,426.086,195.348z"/>
		<path fill="#FFFFFF" d="M363.758,155.3c1.436-0.618,2.85-1.625,4.358-1.8c4.603-0.533,7.541,1.89,7.832,6.514
			c0.246,3.92,0.066,7.867,0.082,11.802c0.004,0.845-0.43,1.234-1.235,1.24c-1.584,0.01-3.168,0.003-4.75,0.005
			c-1.041,0-1.261-0.647-1.257-1.526c0.011-2.831,0.011-5.663-0.008-8.495c-0.004-0.814,0.002-1.644-0.141-2.438
			c-0.201-1.121-0.803-2.038-2.062-2.04c-1.182-0.002-1.991,0.715-2.25,1.871c-0.196,0.882-0.311,1.8-0.323,2.704
			c-0.041,2.783-0.058,5.568,0.004,8.35c0.024,1.201-0.445,1.643-1.604,1.601c-1.342-0.048-2.688-0.03-4.031-0.007
			c-0.997,0.018-1.483-0.348-1.477-1.433c0.031-5.423,0.025-10.847,0.004-16.27c-0.004-0.976,0.367-1.41,1.357-1.375
			c1.149,0.041,2.305,0.046,3.455,0.013C362.854,153.982,363.907,153.995,363.758,155.3z"/>
		<path fill="#FFFFFF" d="M331.391,213.206c-6.154,0.013-10.185-3.947-10.187-10.006c-0.002-6,4.002-9.999,10.029-10.015
			c5.938-0.016,10.545,4.391,10.539,10.081C341.77,209.394,337.801,213.193,331.391,213.206z M328.568,203.22
			c0.273,1.021,0.396,2.308,0.953,3.365c0.939,1.782,3.094,1.765,4-0.012c1.076-2.113,1.105-4.395,0.035-6.504
			c-0.344-0.679-1.412-1.424-2.103-1.381c-0.771,0.05-1.713,0.816-2.166,1.532C328.811,200.974,328.823,202.036,328.568,203.22z"/>
		<path fill="#FFFFFF" d="M450.898,193.164c6.152-0.001,10.447,4.106,10.449,9.993c0.002,6.11-3.904,9.949-10.164,9.986
			c-6.119,0.037-10.355-4.083-10.367-10.084C440.805,197.021,444.732,193.165,450.898,193.164z M448.191,203.212
			c0.264,0.968,0.348,2.143,0.898,3.022c0.442,0.708,1.446,1.441,2.215,1.455c0.678,0.014,1.656-0.812,2.01-1.514
			c0.988-1.969,0.996-4.126,0.002-6.087c-0.356-0.708-1.35-1.322-2.162-1.514c-1.09-0.258-1.928,0.554-2.289,1.562
			C448.532,201.067,448.43,202.077,448.191,203.212z"/>
		<path fill="#FFFFFF" d="M456.568,243.317c0-5.4,3.101-9.104,7.955-9.824c6.594-0.979,11.34,3.239,12.146,7.227
			c1.461,7.212-2.33,13.048-10.726,12.581C459.961,252.966,456.566,249.199,456.568,243.317z M469.725,243.201
			c-0.264-0.965-0.354-2.137-0.904-3.021c-0.406-0.652-1.424-1.289-2.153-1.272c-0.722,0.016-1.734,0.704-2.072,1.375
			c-0.998,1.971-0.885,4.085-0.025,6.12c0.429,1.012,1.269,1.783,2.342,1.488c0.808-0.221,1.685-0.906,2.103-1.631
			C469.486,245.439,469.484,244.344,469.725,243.201z"/>
		<path fill="#FFFFFF" d="M486.448,235.534c1.75-1.697,3.5-2.585,5.646-2.441c3.936,0.264,6.312,2.618,6.559,6.974
			c0.213,3.776,0.058,7.573,0.074,11.361c0.004,0.922-0.453,1.271-1.344,1.252c-1.438-0.03-2.879-0.06-4.314,0.011
			c-1.199,0.06-1.613-0.439-1.602-1.601c0.035-3.116,0.02-6.233-0.025-9.35c-0.01-0.705-0.024-1.539-0.389-2.076
			c-0.404-0.597-1.205-1.255-1.844-1.268c-0.646-0.011-1.56,0.596-1.894,1.19c-0.44,0.789-0.572,1.825-0.596,2.762
			c-0.072,2.827-0.099,5.66,0,8.485c0.053,1.485-0.5,1.966-1.92,1.859c-1.287-0.096-2.588-0.044-3.883-0.019
			c-0.898,0.018-1.31-0.351-1.308-1.274c0.015-5.466,0.012-10.933-0.002-16.398c-0.002-0.853,0.385-1.218,1.223-1.207
			c1.197,0.015,2.396,0.021,3.597-0.01C485.491,233.759,486.508,233.747,486.448,235.534z"/>
		<path fill="#FFFFFF" d="M409.064,204.573c-1.773,0-3.549,0.023-5.322-0.011c-0.979-0.019-1.305,0.442-1.143,1.336
			c0.209,1.146,0.676,2.175,1.904,2.458c1.309,0.303,2.666,0.285,3.438-1.07c0.48-0.847,1.115-1.087,1.998-1.071
			c1.342,0.024,2.686-0.016,4.027,0.007c1.489,0.025,1.725,0.384,1.047,1.735c-1.029,2.05-2.601,3.569-4.777,4.343
			c-3.078,1.091-6.217,1.229-9.299,0.089c-3.416-1.264-4.738-4.125-5.305-7.46c-0.845-4.993,1.094-8.805,5.432-10.729
			c4.436-1.968,10.158-0.747,12.863,2.764c1.436,1.863,1.983,4,1.92,6.335c-0.025,0.924-0.42,1.283-1.316,1.271
			c-1.821-0.023-3.645-0.007-5.467-0.007C409.064,204.566,409.064,204.57,409.064,204.573z M405.471,200.981
			c0-0.004,0-0.008,0-0.011c0.477,0,0.953,0.015,1.43-0.003c1.252-0.048,1.512-0.48,0.982-1.602
			c-0.822-1.737-3.246-2.074-4.377-0.552c-0.338,0.453-0.384,1.122-0.562,1.691c0.508,0.159,1.01,0.351,1.529,0.462
			C404.793,201.037,405.139,200.981,405.471,200.981z"/>
		<path fill="#FFFFFF" d="M423.936,164.535c-1.775,0-3.553,0.024-5.328-0.009c-1.145-0.021-1.438,0.449-1.125,1.519
			c0.33,1.125,0.814,2.119,2.059,2.339c1.318,0.233,2.556,0.111,3.451-1.174c0.293-0.419,0.972-0.756,1.494-0.793
			c1.48-0.106,2.976-0.019,4.463-0.043c1.211-0.021,1.449,0.535,0.947,1.527c-1.162,2.295-2.945,3.894-5.426,4.629
			c-2.437,0.722-4.91,0.83-7.4,0.277c-3.598-0.798-6.174-3.811-6.524-7.848c-0.136-1.556-0.199-3.194,0.133-4.7
			c0.94-4.247,5.315-7.235,9.856-6.98c4.082,0.229,7.58,1.48,9.287,5.573c0.508,1.217,0.689,2.582,0.928,3.896
			c0.228,1.233-0.229,1.883-1.633,1.809C427.395,164.465,425.663,164.535,423.936,164.535z M422.975,160.854
			c-0.197-2.257-1.188-3.161-3.012-2.966c-1.539,0.165-2.275,1.233-1.998,2.966C419.6,160.854,421.24,160.854,422.975,160.854z"/>
		<path fill="#FFFFFF" d="M344.275,244.852c-1.729,0-3.457,0.037-5.184-0.013c-1.232-0.035-1.521,0.573-1.271,1.626
			c0.277,1.17,0.953,2.011,2.174,2.232c1.216,0.22,2.398-0.042,3.041-1.143c0.566-0.971,1.3-1.124,2.269-1.09
			c1.248,0.043,2.496,0,3.744,0.014c1.565,0.018,1.813,0.381,1.047,1.797c-1.607,2.97-4.189,4.573-7.502,4.909
			c-1.472,0.149-2.994,0.157-4.451-0.053c-4.133-0.596-6.463-3.144-7.31-7.751c-0.879-4.791,0.828-8.679,4.671-10.63
			c4.373-2.221,9.854-1.465,12.914,1.829c1.918,2.064,2.504,4.606,2.288,7.33c-0.026,0.347-0.797,0.877-1.247,0.904
			c-1.722,0.107-3.453,0.043-5.183,0.043C344.275,244.855,344.275,244.854,344.275,244.852z M340.639,241.272
			c0-0.005,0-0.01,0-0.015c0.617,0,1.258,0.099,1.844-0.039c0.322-0.075,0.824-0.748,0.777-0.812
			c-0.586-0.808-1.121-1.806-1.941-2.248c-0.977-0.527-2.096-0.061-2.729,0.912c-0.312,0.478-0.5,1.185-0.394,1.717
			c0.051,0.25,0.929,0.362,1.445,0.473C339.961,241.327,340.305,241.272,340.639,241.272z"/>
		<path fill="#FFFFFF" d="M353.635,166.377c-0.408,0.988-0.594,1.723-0.982,2.327c-2.541,3.952-6.438,4.671-10.713,4.354
			c-6.357-0.471-8.494-5.517-8.352-11.017c0.121-4.647,3.793-8.154,8.934-8.652c4.998-0.483,9.1,1.811,10.396,5.457
			c0.459,1.294,0.646,2.692,0.885,4.056c0.197,1.129-0.267,1.666-1.502,1.647c-3.404-0.052-6.812-0.026-10.217-0.01
			c-1.41,0.006-1.82,0.46-1.24,1.746c0.373,0.82,1.129,1.723,1.93,2.036c1.188,0.465,2.406,0.105,3.346-1.008
			c0.396-0.466,1.129-0.854,1.734-0.894C349.654,166.302,351.469,166.377,353.635,166.377z M343.577,160.964
			c0-0.002,0-0.005,0-0.008c0.238,0,0.492,0.048,0.718-0.009c0.637-0.164,1.262-0.371,1.893-0.562
			c-0.443-0.743-0.734-1.673-1.365-2.185c-0.916-0.746-2.555-0.386-3.215,0.579c-0.328,0.478-0.393,1.135-0.574,1.711
			c0.513,0.157,1.019,0.35,1.541,0.461C342.895,161.02,343.241,160.964,343.577,160.964z"/>
		<path fill="#FFFFFF" d="M388.549,250.675c-3.304,3.176-7.64,3.358-10.254,0.706c-1.438-1.456-1.652-3.334-1.697-5.201
			c-0.086-3.594-0.008-7.192-0.041-10.789c-0.012-1.074,0.348-1.61,1.494-1.562c1.244,0.052,2.494,0.045,3.74,0.002
			c1.102-0.038,1.534,0.414,1.518,1.533c-0.049,2.828-0.035,5.658-0.002,8.486c0.01,0.809-0.037,1.731,0.324,2.389
			c0.385,0.694,1.203,1.533,1.879,1.578c0.686,0.045,1.619-0.666,2.09-1.305c0.4-0.546,0.391-1.46,0.4-2.213
			c0.04-2.972,0.051-5.946,0.002-8.918c-0.019-1.115,0.397-1.573,1.508-1.539c1.438,0.045,2.877,0.023,4.313,0.014
			c0.9-0.006,1.281,0.403,1.279,1.317c-0.021,5.467-0.021,10.933,0,16.4c0.004,0.932-0.416,1.305-1.297,1.298
			c-0.959-0.007-1.922-0.048-2.877,0.02C389.49,252.995,388.29,252.867,388.549,250.675z"/>
		<path fill="#FFFFFF" d="M523.139,201.379c-0.576,0-1.156-0.043-1.728,0.009c-1.1,0.102-1.688-0.271-2.143-1.381
			c-0.277-0.674-1.316-1.452-1.992-1.433c-0.766,0.021-1.879,0.716-2.188,1.408c-0.9,2.027-0.769,4.216-0.097,6.323
			c0.316,0.993,1.101,1.774,2.146,1.515c0.762-0.188,1.809-0.848,1.977-1.492c0.457-1.75,1.535-1.955,3.006-1.847
			c0.955,0.071,1.918,0.002,2.877,0.018c1.688,0.027,1.877,0.269,1.502,1.858c-1.022,4.349-5.096,7.096-10.062,6.789
			c-4.643-0.286-7.66-2.295-8.85-5.89c-1.543-4.668-0.482-9.319,2.715-12.014c3.754-3.165,12.627-3.199,15.428,2.412
			c0.064,0.129,0.129,0.257,0.191,0.387c1.389,2.889,1.11,3.337-2.066,3.338C523.616,201.38,523.379,201.38,523.139,201.379z"/>
		<path fill="#FFFFFF" d="M309.969,205.533c0-1.87-0.041-3.741,0.016-5.609c0.031-1.054-0.356-1.546-1.418-1.411
			c-1.363,0.173-1.818-0.499-1.713-1.759c0.041-0.477,0.041-0.961,0.002-1.438c-0.109-1.281,0.42-1.894,1.738-1.789
			c0.826,0.066,1.307-0.186,1.397-1.172c0.308-3.343,1.271-4.399,4.562-4.813c1.508-0.19,3.062-0.118,4.588-0.022
			c1.941,0.122,1.209,1.684,1.332,2.751c0.129,1.132-0.547,1.376-1.512,1.343c-0.418-0.016-0.908,0.021-1.242,0.232
			c-0.31,0.197-0.629,0.67-0.605,0.997c0.019,0.246,0.549,0.509,0.896,0.657c0.246,0.104,0.569,0.057,0.854,0.032
			c1.254-0.111,1.773,0.465,1.636,1.695c-0.027,0.237,0,0.479-0.005,0.72c-0.034,2.187,0.371,2.727-2.312,2.564
			c-1.092-0.064-1.244,0.604-1.24,1.475c0.012,3.645,0.012,7.287-0.002,10.932c-0.006,1.74-0.164,1.889-1.887,1.907
			c-1.246,0.013-2.492-0.018-3.738,0c-0.967,0.014-1.375-0.415-1.354-1.396c0.041-1.965,0.012-3.931,0.012-5.896
			C309.971,205.533,309.971,205.533,309.969,205.533z"/>
		<path fill="#FFFFFF" d="M436.012,229.173c0.047,0,0.096,0,0.143,0c3.785,0.014,3.291-0.299,3.271,3.165
			c-0.006,1.164,0.453,1.473,1.537,1.478c0.684,0.003,1.911,0.271,1.954,0.561c0.188,1.244,0.117,2.555-0.092,3.802
			c-0.039,0.224-1.188,0.388-1.811,0.359c-1.172-0.056-1.652,0.346-1.597,1.561c0.076,1.625-0.008,3.258,0.017,4.886
			c0.024,1.762,0.621,2.455,2.408,2.51c0.989,0.029,1.272,0.437,1.264,1.291c-0.002,0.191,0.006,0.383,0.008,0.574
			c0.043,3.654-0.272,3.954-3.983,3.792c-4.345-0.189-6.115-1.827-6.478-6.216c-0.184-2.239-0.184-4.496-0.18-6.744
			c0.004-1.112-0.271-1.771-1.527-1.63c-1.164,0.132-1.535-0.488-1.453-1.551c0.033-0.428,0.043-0.866-0.004-1.292
			c-0.152-1.357,0.26-2.134,1.797-1.948c0.881,0.106,1.125-0.423,1.176-1.228C432.67,229.193,432.688,229.194,436.012,229.173z"/>
		<path fill="#FFFFFF" d="M380.848,163.064c0-0.671-0.047-1.347,0.01-2.014c0.129-1.462-0.016-2.621-1.971-2.388
			c-0.269,0.031-0.826-0.354-0.84-0.574c-0.082-1.238-0.123-2.495,0.026-3.72c0.031-0.264,0.908-0.597,1.396-0.598
			c1.092-0.001,1.396-0.479,1.393-1.495c-0.016-3.254-0.506-3.104,3.221-3.14c3.472-0.032,3.492-0.038,3.75,3.417
			c0.064,0.856,0.412,1.222,1.244,1.179c2.73-0.144,2.242,0.538,2.281,2.471c0.008,0.384-0.022,0.769,0.002,1.15
			c0.066,0.99-0.406,1.423-1.369,1.364c-2.453-0.151-2.146,0.459-2.16,2.296c-0.01,1.439,0.013,2.878-0.002,4.316
			c-0.014,1.355,0.726,2.126,1.992,2.15c1.332,0.026,1.658,0.663,1.533,1.805c-0.004,0.048,0,0.096,0,0.144
			c0.029,3.683-0.045,3.756-3.721,3.72c-4.209-0.042-6.025-1.599-6.593-5.782c-0.19-1.418-0.184-2.865-0.268-4.299
			C380.799,163.067,380.822,163.065,380.848,163.064z"/>
		<path fill="#FFFFFF" d="M398.398,239.483c0-3.84,0.037-7.68-0.02-11.52c-0.021-1.254,0.426-1.736,1.674-1.666
			c1.291,0.072,2.596,0.084,3.887-0.003c1.369-0.093,1.844,0.416,1.83,1.806c-0.062,5.759-0.025,11.521-0.025,17.279
			c0,2.016-0.034,4.033,0.013,6.047c0.024,1.062-0.425,1.477-1.449,1.456c-1.439-0.029-2.881-0.044-4.318,0.006
			c-1.16,0.041-1.623-0.397-1.606-1.599C398.432,247.355,398.398,243.419,398.398,239.483z"/>
		<path fill="#FFFFFF" d="M400.766,156.2c0.633-0.536,1.139-1.021,1.699-1.431c1.407-1.024,2.967-1.649,4.713-1.152
			c0.461,0.132,1.049,0.739,1.104,1.188c0.152,1.229,0.133,2.496,0.004,3.729c-0.039,0.374-0.616,0.76-1.028,1
			c-0.25,0.145-0.656,0.014-0.992,0.016c-3.42,0.027-5.104,1.72-5.115,5.154c-0.006,2.158-0.057,4.318,0.021,6.475
			c0.045,1.277-0.472,1.716-1.689,1.66c-1.342-0.062-2.686-0.034-4.029-0.013c-0.944,0.016-1.381-0.354-1.393-1.357
			c-0.062-5.369-0.143-10.739-0.273-16.105c-0.03-1.226,0.48-1.625,1.617-1.577c1.103,0.046,2.209,0.058,3.31-0.004
			c1.276-0.073,2.079,0.262,1.887,1.744C400.573,155.69,400.678,155.87,400.766,156.2z"/>
		<path fill="#FFFFFF" d="M351.424,195.998c1.543-1.36,3.104-2.612,5.295-2.541c1.791,0.058,2.076,0.312,2.086,2.101
			c0.008,1.273,0.002,2.545,0.002,3.84c-0.941,0-1.605-0.025-2.269,0.005c-3.163,0.148-4.891,1.948-4.928,5.165
			c-0.024,2.205-0.051,4.412,0.012,6.616c0.031,1.149-0.34,1.696-1.547,1.652c-1.389-0.052-2.78-0.029-4.17-0.01
			c-0.949,0.013-1.379-0.377-1.389-1.37c-0.06-5.367-0.133-10.734-0.254-16.102c-0.027-1.212,0.467-1.64,1.617-1.574
			c0.907,0.051,1.821-0.016,2.731,0.013C351.115,193.871,350.866,193.404,351.424,195.998z"/>
		<path fill="#FFFFFF" d="M496.909,203.025c-0.002-2.587,0.062-5.178-0.026-7.762c-0.047-1.365,0.514-1.783,1.772-1.726
			c1.34,0.061,2.685,0.037,4.025,0.012c1.008-0.018,1.5,0.393,1.496,1.442c-0.017,5.366-0.013,10.733-0.002,16.102
			c0.002,0.992-0.379,1.522-1.443,1.498c-1.438-0.033-2.877-0.042-4.312,0.006c-1.103,0.037-1.546-0.398-1.525-1.521
			C496.943,208.393,496.909,205.708,496.909,203.025z"/>
		<path fill="#FFFFFF" d="M453.57,243.413c0,2.589-0.047,5.18,0.021,7.767c0.032,1.228-0.373,1.77-1.638,1.711
			c-1.389-0.062-2.78-0.025-4.172-0.02c-0.881,0.004-1.301-0.367-1.297-1.298c0.021-5.467,0.021-10.933-0.002-16.398
			c-0.006-1.022,0.479-1.351,1.408-1.338c1.391,0.021,2.783,0.037,4.172-0.006c1.098-0.035,1.543,0.401,1.523,1.526
			C453.534,238.042,453.568,240.728,453.57,243.413z"/>
		<path fill="#FFFFFF" d="M500.448,192.46c-4.043-0.054-3.5,0.505-3.537-3.481c-0.021-2.375-0.002-2.376,2.363-2.378
			c1.195-0.001,2.394,0.021,3.588,0c0.888-0.015,1.355,0.353,1.326,1.271c-0.01,0.287,0.008,0.573,0.006,0.86
			C504.156,193.097,504.648,192.39,500.448,192.46z"/>
		<path fill="#FFFFFF" d="M450.057,226.889c4.024,0.047,3.475-0.471,3.512,3.51c0.021,2.374,0,2.376-2.348,2.376
			c-1.195,0.001-2.404,0.091-3.58-0.062c-0.422-0.055-0.853-0.651-1.115-1.097c-0.168-0.285-0.045-0.747-0.039-1.13
			C446.54,226.404,445.945,226.937,450.057,226.889z"/>
		<path fill="#FFFFFF" d="M520.206,50.854c3.584,0.276,4.748,2.438,5.13,5.298c0.239,1.806,0.448,3.615,0.748,5.409
			c0.151,0.916-0.16,1.225-1.039,1.209c-1.918-0.03-3.836-0.038-5.755-0.018c-0.819,0.009-1.25-0.34-1.352-1.146
			c-0.166-1.331-0.326-2.663-0.529-3.986c-0.395-2.555-1.467-3.572-3.53-3.536c-0.982,0.017-1.382,0.418-1.373,1.383
			c0.016,1.918-0.056,3.837-0.013,5.753c0.021,1.078-0.319,1.6-1.477,1.562c-1.676-0.058-3.355-0.042-5.033-0.005
			c-1.006,0.022-1.496-0.313-1.492-1.4c0.023-7.816,0.019-15.632,0.006-23.448c0-0.872,0.279-1.357,1.236-1.338
			c4.551,0.093,9.107,0.028,13.648,0.29c3.42,0.197,5.918,2.864,6.325,6.218c0.443,3.661-0.893,5.854-4.432,7.274
			C521.023,50.474,520.779,50.596,520.206,50.854z M512.479,45.54c-0.002,2.597-0.002,2.597,2,2.6
			c2.361,0.004,3.342-0.676,3.385-2.349c0.045-1.769-1.108-2.647-3.467-2.641C512.5,43.156,512.48,43.182,512.479,45.54z"/>
		<path fill="#FFFFFF" d="M316.393,54.844c0-5.756-0.004-11.513,0.002-17.27c0.002-1.799,0.076-1.874,1.867-1.874
			c7.82-0.001,15.645-0.174,23.457,0.071c5.651,0.179,10.826,2.007,14.854,6.277c2.217,2.353,3.277,5.267,3.929,8.354
			c1.043,4.944,0.694,9.726-1.791,14.232c-3.023,5.485-8.05,8.008-13.867,9.298c-1.25,0.277-2.568,0.339-3.855,0.344
			c-7.53,0.033-15.062,0.021-22.594,0.02c-1.951,0-1.998-0.05-1.998-2.04C316.391,66.453,316.393,60.648,316.393,54.844z"/>
		<path fill="#FFFFFF" d="M315.148,236.154c0.406-1.11-0.43-2.376,1.221-2.522c2.363-0.21,4.291,0.536,4.423,1.96
			c0.059,0.631-0.354,1.757-0.794,1.897c-1.278,0.407-2.69,0.584-4.028,0.497C315.62,237.964,315.357,236.649,315.148,236.154z"/>
		<path fill="#FFFFFF" d="M366.268,242.753c-0.166,0.89-0.123,1.898-0.557,2.624c-0.406,0.679-1.312,1.443-2.009,1.458
			c-0.698,0.013-1.735-0.703-2.059-1.372c-0.812-1.686-0.717-3.536-0.074-5.302c0.344-0.944,1.078-1.408,2.117-1.395
			c1.033,0.015,1.773,0.466,2.072,1.438C366.008,241.017,366.1,241.875,366.268,242.753z"/>
		<path fill="#FFFFFF" d="M417.738,248.825c-1.065,0.007-1.781-0.466-1.83-1.573c-0.053-1.177,1.418-2.11,3.125-2.119
			c0.81-0.004,1.271,0.211,1.232,1.135C420.198,247.8,419.225,248.821,417.738,248.825z"/>
		<path fill="#FFFFFF" d="M328.568,203.22c0.256-1.184,0.242-2.247,0.721-2.999c0.453-0.716,1.396-1.482,2.166-1.532
			c0.689-0.043,1.759,0.702,2.103,1.381c1.07,2.11,1.041,4.391-0.035,6.504c-0.906,1.776-3.061,1.794-4,0.012
			C328.965,205.528,328.842,204.24,328.568,203.22z"/>
		<path fill="#FFFFFF" d="M448.191,203.212c0.238-1.135,0.342-2.146,0.674-3.074c0.361-1.009,1.199-1.82,2.289-1.562
			c0.812,0.191,1.806,0.807,2.162,1.514c0.994,1.961,0.986,4.118-0.002,6.087c-0.354,0.702-1.332,1.526-2.01,1.514
			c-0.769-0.014-1.771-0.747-2.215-1.455C448.538,205.354,448.454,204.18,448.191,203.212z"/>
		<path fill="#FFFFFF" d="M469.725,243.201c-0.24,1.143-0.238,2.237-0.713,3.059c-0.418,0.725-1.295,1.41-2.103,1.631
			c-1.073,0.295-1.914-0.477-2.342-1.488c-0.858-2.034-0.973-4.148,0.025-6.12c0.338-0.671,1.352-1.358,2.071-1.375
			c0.73-0.017,1.748,0.62,2.154,1.272C469.37,241.064,469.461,242.236,469.725,243.201z"/>
		<path fill="#FFFFFF" d="M405.471,200.981c-0.332,0-0.678,0.057-0.996-0.013c-0.521-0.111-1.021-0.304-1.529-0.462
			c0.178-0.57,0.224-1.238,0.562-1.691c1.131-1.522,3.555-1.187,4.377,0.552c0.528,1.12,0.27,1.554-0.982,1.602
			c-0.477,0.018-0.953,0.003-1.43,0.003C405.471,200.973,405.471,200.977,405.471,200.981z"/>
		<path fill="#FFFFFF" d="M422.975,160.854c-1.734,0-3.375,0-5.01,0c-0.277-1.732,0.459-2.801,1.998-2.966
			C421.786,157.693,422.777,158.597,422.975,160.854z"/>
		<path fill="#FFFFFF" d="M340.639,241.272c-0.334,0-0.678,0.056-0.996-0.013c-0.518-0.11-1.396-0.224-1.445-0.473
			c-0.106-0.532,0.082-1.239,0.394-1.717c0.633-0.972,1.752-1.438,2.729-0.912c0.82,0.442,1.355,1.439,1.941,2.248
			c0.047,0.064-0.455,0.737-0.777,0.812c-0.586,0.138-1.227,0.039-1.844,0.039C340.639,241.262,340.639,241.267,340.639,241.272z"/>
		<path fill="#FFFFFF" d="M343.577,160.964c-0.336,0-0.684,0.056-1.004-0.012c-0.522-0.111-1.028-0.304-1.541-0.461
			c0.183-0.576,0.246-1.233,0.574-1.711c0.66-0.965,2.299-1.324,3.215-0.579c0.631,0.512,0.922,1.441,1.365,2.185
			c-0.631,0.19-1.256,0.397-1.893,0.562c-0.226,0.058-0.479,0.009-0.718,0.009C343.577,160.958,343.577,160.961,343.577,160.964z"/>
		<path fill="#FFFFFF" d="M512.479,45.54c0.002-2.358,0.021-2.384,1.918-2.39c2.357-0.007,3.512,0.873,3.467,2.641
			c-0.043,1.672-1.022,2.353-3.385,2.349C512.477,48.137,512.477,48.137,512.479,45.54z"/>
	</g>
</g>
</svg>
