<?xml version="1.0" encoding="utf-8"?>
<!-- Generator: Adobe Illustrator 26.5.0, SVG Export Plug-In . SVG Version: 6.00 Build 0)  -->
<svg version="1.1"
	 id="svg7506" xmlns:sodipodi="http://sodipodi.sourceforge.net/DTD/sodipodi-0.dtd" xmlns:svg="http://www.w3.org/2000/svg" xmlns:inkscape="http://www.inkscape.org/namespaces/inkscape" xmlns:rdf="http://www.w3.org/1999/02/22-rdf-syntax-ns#" xmlns:dc="http://purl.org/dc/elements/1.1/" xmlns:cc="http://creativecommons.org/ns#" inkscape:version="0.48.2 r9819" sodipodi:docname="New document 4"
	 xmlns="http://www.w3.org/2000/svg" xmlns:xlink="http://www.w3.org/1999/xlink" x="0px" y="0px" viewBox="0 0 388.4 85.1"
	 style="enable-background:new 0 0 388.4 85.1;" xml:space="preserve">
<style type="text/css">
	.st0{fill:#FFFFFF;}
	.st1{fill:none;}
</style>
<sodipodi:namedview  bordercolor="#666666" borderopacity="1.0" fit-margin-bottom="0.1" fit-margin-left="0.1" fit-margin-right="0.1" fit-margin-top="0.1" id="base" inkscape:current-layer="layer1" inkscape:cx="94.668802" inkscape:cy="11.496991" inkscape:document-units="px" inkscape:pageopacity="0.0" inkscape:pageshadow="2" inkscape:window-height="1038" inkscape:window-maximized="0" inkscape:window-width="1198" inkscape:window-x="717" inkscape:window-y="-21" inkscape:zoom="1.979899" pagecolor="#ffffff" showgrid="false">
	</sodipodi:namedview>
<g id="layer1" transform="translate(-284.59978,-463.99421)" inkscape:groupmode="layer" inkscape:label="Layer 1">
	<g id="g6617" transform="matrix(1.5003761,0,0,-1.5003761,-367.17041,1695.3477)">
		<g id="g1096" transform="translate(454.3529,793.6157)">
			<path id="path1098" inkscape:connector-curvature="0" sodipodi:nodetypes="ccccc" class="st0" d="M6.7-2.6
				C6.6-2.6,6.6-2.5,6.7-2.6c-0.1,0.2,0,0.3,0,0.3h0.1C6.8-2.4,7-2.4,6.7-2.6"/>
		</g>
		<g id="g1528" transform="translate(487.1298,777.6427)">
			<path id="path1530" inkscape:connector-curvature="0" sodipodi:nodetypes="ccsc" class="st0" d="M6.7-2.6C6.2-3.4,3.8-1.8,4.5-1
				c0.2,0.4,1,0.3,1.1,0.3C6.5-0.7,7-1.8,6.7-2.6"/>
		</g>
		<g id="g1412" transform="translate(485.6495,781.4297)">
			<path id="path1414" inkscape:connector-curvature="0" sodipodi:nodetypes="cccc" class="st0" d="M6.6-2.8c-0.1,0-0.2,0.2-0.3,0.3
				C6-1.6,7.5-1.2,7.9-1.6C8.3-2,8.2-2.7,7.6-2.7"/>
		</g>
		<g id="g1416" transform="translate(484.3938,782.3925)">
			<path id="path1418" inkscape:connector-curvature="0" sodipodi:nodetypes="cscc" class="st0" d="M6.7-2.6
				C6.4-2.5,6.4-2.2,6.4-2.1c0,0.4,0.4,0.9,0.7,0.8C7.6-1.5,7.3-2.8,6.7-2.6"/>
		</g>
		<g id="g1320" transform="translate(482.2868,781.2171)">
			<path id="path1322" inkscape:connector-curvature="0" sodipodi:nodetypes="cscc" class="st0" d="M6.7-2.6c-0.2,0.7,0.5,1.4,1,1.4
				c0.2,0,0.6-0.3,0.7-0.6C8.8-2.6,7-3.3,6.7-2.6"/>
		</g>
		<g id="g1376" transform="translate(480.503,785.3747)">
			<path id="path1378" inkscape:connector-curvature="0" sodipodi:nodetypes="cccc" class="st0" d="M6.6-2.9c-0.1,0-0.2,0.3-0.3,0.3
				c-0.4,0.8,1,1.3,1.6,0.9C8.3-2.2,7.6-3,7-3"/>
		</g>
		<g id="g1652" transform="translate(481.7099,781.2681)">
			<path id="path1654" inkscape:connector-curvature="0" sodipodi:nodetypes="cccsc" class="st0" d="M6.7-2.6C6-3.1,4.6-2,4.4-1
				C4.1-0.8,3.8,1,4.9,1.2C6,1,6.7-1.4,6.7-2.6L6.7-2.6"/>
		</g>
		<g id="g1456" transform="translate(476.6993,782.4373)">
			<path id="path1458" inkscape:connector-curvature="0" sodipodi:nodetypes="cccsccsccccc" class="st0" d="M6.7-2.6
				c-0.1,0-0.2,0-0.3,0C6.2-2.5,6.1-2.4,6-2.3c-0.2,0-0.3,0-0.3,0.1c0,0.3-0.1,0.4,0,0.7c0,0.1,0,0.1,0,0.2c0.1,0.4,0.5,0.7,0.9,0.7
				c0.1,0,0.2,0,0.3,0c0.1,0,0.1,0,0.2-0.1c0.3,0.1,0.9-0.4,0.5-1v-0.1C7.5-2.3,7.1-2.6,6.7-2.6"/>
		</g>
		<g id="g1716" transform="translate(482.8961,776.561)">
			<path id="path1718" inkscape:connector-curvature="0" sodipodi:nodetypes="cscsc" class="st0" d="M6.7-2.6
				C6.5-2.4,6.3-2.1,6.3-1.9c0,0.7,0.7,1.7,1.2,1.6c0.3-0.2,0.4-1,0.4-1.3C7.9-2.3,7.2-2.9,6.7-2.6"/>
		</g>
		<g id="g1728" transform="translate(480.006,775.3211)">
			<path id="path1730" inkscape:connector-curvature="0" sodipodi:nodetypes="cscsc" class="st0" d="M6.7-2.6
				c-0.3,0-0.3,0.3-0.3,0.5s0.1,0.4,0.3,0.4C6.9-1.7,7-1.9,7-2.1C7-2.2,6.8-2.5,6.7-2.6"/>
		</g>
		<g id="g1788" transform="translate(479.3626,774.307)">
			<path id="path1790" inkscape:connector-curvature="0" sodipodi:nodetypes="ccc" class="st0" d="M6.7-2.6c-0.2,0.4,0.1,1,0.6,0.9
				C7.5-1.9,7-2.7,6.7-2.6"/>
		</g>
		<g id="g1792" transform="translate(480.4444,772.4289)">
			<path id="path1794" inkscape:connector-curvature="0" sodipodi:nodetypes="ccsc" class="st0" d="M6.7-2.6C6.3-2.8,5.8-2.4,6-2.1
				L6.2-2C6.5-2,6.8-2.3,6.7-2.6"/>
		</g>
		<g id="g1404" transform="translate(478.1818,773.8889)">
			<path id="path1406" inkscape:connector-curvature="0" sodipodi:nodetypes="ccscc" class="st0" d="M5.9-2.8
				c-0.4,0-0.2,0.4-0.3,0.6C5.5-1.8,6.1-1.5,6.4-1.5c0.4,0,1-0.4,1-0.9c0-0.3-0.7-0.4-0.9-0.4"/>
		</g>
		<g id="g1536" transform="translate(478.3491,776.6332)">
			<path id="path1538" inkscape:connector-curvature="0" sodipodi:nodetypes="ccscc" class="st0" d="M5.8-2.7
				c-0.5,0-0.4,0.4-0.4,0.8s0.7,0.6,1.1,0.6c0.5,0,1.2-0.3,1.3-0.8c0-0.5-0.6-0.6-1-0.6"/>
		</g>
		<g id="g1688" transform="translate(476.303,775.8013)">
			<path id="path1690" inkscape:connector-curvature="0" sodipodi:nodetypes="ccc" class="st0" d="M6.7-2.6c-0.4,0.4-0.1,1,0.2,0.9
				C7.2-2,7-2.6,6.7-2.6"/>
		</g>
		<g id="g1644" transform="translate(467.775,774.654)">
			<path id="path1646" inkscape:connector-curvature="0" sodipodi:nodetypes="ccsc" class="st0" d="M6.7-2.6c-1.2,0-1,0.7-1.1,1.4
				c0.5,0.2,1.2,0,1.2-0.7C6.8-1.9,7-2.4,6.7-2.6"/>
		</g>
		<g id="g1608" transform="translate(466.421,773.3605)">
			<path id="path1610" inkscape:connector-curvature="0" sodipodi:nodetypes="ccscc" class="st0" d="M5.7-2.6c-0.6,0-0.2,0.4-0.4,1
				c0.1,0.2,0.4,0.4,0.6,0.4c0.7,0,1.5-0.5,1.5-1.1C7.2-2.5,7.3-3,7-3"/>
		</g>
		<g id="g1304" transform="translate(469.8811,771.4808)">
			<path id="path1306" inkscape:connector-curvature="0" sodipodi:nodetypes="cccc" class="st0" d="M6.7-2.6
				C6.1-2.5,5.4-1.7,5.9-1.3C6.3-1.1,7-1.5,7-2C7-2.1,7-2.6,6.7-2.6"/>
		</g>
		<g id="g1740" transform="translate(469.5753,774.5199)">
			<path id="path1742" inkscape:connector-curvature="0" sodipodi:nodetypes="csccsccsc" class="st0" d="M6.7-2.6
				C6.6-2.4,6.6-2.3,6.6-2.1V-2C6.2-1.4,6.6-1,7-1.1c0.3,0.3,0.6,0.4,1,0.4c0.1,0,0.2,0,0.3,0C8.6-1,9.1-1.7,8.9-2
				C8.7-1.9,8.5-1.9,8.2-1.9C7.6-1.9,7-2.2,6.7-2.6"/>
		</g>
		<g id="g1500" transform="translate(462.4781,776.1915)">
			<path id="path1502" inkscape:connector-curvature="0" sodipodi:nodetypes="ccsc" class="st0" d="M7.9-3.3L6.7-2.6
				C6.7-2,7-1.7,7.5-1.7C7.6-1.7,8-1.8,8.2-2"/>
		</g>
		<g id="g1496" transform="translate(462.4371,776.1919)">
			<path id="path1498" inkscape:connector-curvature="0" sodipodi:nodetypes="cccscccscsc" class="st0" d="M6.7-2.6
				c-0.5,0-1,0.2-1.4,0.5L4.8-2.4c-4-0.3-0.5,1.6-0.4,1.9c0.1,0.6-0.1,0.3,0.4,0.6c0.3,0.8,1.1,1.4,2,1.5c0.4,0.5,1.4,0,1.5-0.6
				c0.3-0.4,0.5-0.9,0.5-1.4C8.8-1,8.6-1.6,8.2-2C8.1-1.9,8-1.9,7.8-1.9C7.3-1.9,6.9-2.2,6.7-2.6"/>
		</g>
		<g id="g1512" transform="translate(453.3696,777.9885)">
			<path id="path1514" inkscape:connector-curvature="0" sodipodi:nodetypes="cccscscsc" class="st0" d="M6.7-2.6L6.7-2.6
				c-1.2,0-2,0.3-2.2,1.3C4.2-0.9,4.1-0.5,4.1,0c0,1.2,0.9,2.3,2.1,2.5c0.1,0.2,0.3,0.2,0.6,0.2c0.2,0,0.5-0.1,0.6-0.3
				c1-0.3,1.8-1.3,1.8-2.4C9.2-1.4,8.1-2.6,6.7-2.6"/>
		</g>
		<g id="g1364" transform="translate(464.0791,779.7333)">
			<path id="path1366" inkscape:connector-curvature="0" sodipodi:nodetypes="cscscsscscccsccc" class="st0" d="M6.7-2.6
				c-0.4,0.4-1,0.7-1.6,0.7l0,0C4.9-1.6,4.8-1.3,4.8-1c0,0.2,0.1,0.5,0.1,0.7C5,0.3,5.5,0.8,6.1,0.8c0.2,0,0.8-0.3,1.2-0.6
				C7.4,0.1,7.5,0,7.6-0.1c0-0.2-0.7-1.1-0.7-1.3c0-0.4,0.1-0.7,0.3-1C7-2.5,6.8-2.5,6.7-2.6 M7.4-0.1c0,0.1-0.3,0.2-0.3,0.3
				s0.1,0.2,0.3,0.1c0.1-0.1,0.1-0.1,0.2-0.2C7.5,0,7.5-0.1,7.4-0.1"/>
		</g>
		<g id="g1344" transform="translate(461.5766,782.0596)">
			<path id="path1346" inkscape:connector-curvature="0" sodipodi:nodetypes="ccscccscscc" class="st0" d="M6.7-2.6
				c-0.4,0-0.8,0.2-1.1,0.5c0,0.1,0,0.2,0,0.3c0,0.4-0.1,0.7-0.4,0.9v0.1C5.5-0.6,5.8-0.2,6,0.1c0.2,0.1,0.4,0.1,0.6,0.1
				C7.4,0.2,8-0.4,8-1.2c0.2-0.3,0-0.2,0-0.7c0,0-0.5-0.7-0.7-0.6C7.2-2.5,6.9-2.6,6.7-2.6"/>
		</g>
		<g id="g1572" transform="translate(458.0766,783.641)">
			<path id="path1574" inkscape:connector-curvature="0" sodipodi:nodetypes="ccscsscccsc" class="st0" d="M6.7-2.6
				C6.3-2.4,6-2.2,5.7-1.9c-0.4,0-0.5,0.5-0.5,0.7c0,0.4-0.1,0.7,0.1,0.9c0.1,1.2,1.1,2.1,2.3,2.1s2.3-1,2.3-2.3
				c0-0.3-0.1-0.6-0.2-0.9c0.2-0.5-0.3-0.9-0.4-1.3c0,0-0.4-0.1-0.5-0.1C8.4-2.6,8-3.1,7.6-3.1C7.1-3.1,6.8-3,6.7-2.6"/>
		</g>
		<g id="g1160" transform="translate(456.5229,789.6547)">
			<path id="path1162" inkscape:connector-curvature="0" sodipodi:nodetypes="csccc" class="st0" d="M6.7-2.6
				c0.1,0.7,0.1,1.3,0.8,1.3h0.7c0.2,0,0.2-0.1,0.4-0.2C8.8-2.1,7-3,6.7-2.6"/>
		</g>
		<g id="g1152" transform="translate(455.3504,792.6674)">
			<path id="path1154" inkscape:connector-curvature="0" sodipodi:nodetypes="ccccccc" class="st0" d="M6.6-2.7H6.4
				C6.2-2.7,6.1-2.5,6-2.4v0.1c0.1,1.2,2.6,1.4,2.8,0.7s-1.6-1-1.6-1C7.1-2.6,6.7-2.7,6.6-2.7"/>
		</g>
		<g id="g1140" transform="translate(452.8686,790.4706)">
			<path id="path1142" inkscape:connector-curvature="0" sodipodi:nodetypes="ccccc" class="st0" d="M6.7-2.6C6.4-2.5,6.3-2,6.3-1.8
				c0,0.3,0.2,0.6,0.5,0.7C7-1.3,7.1-1.6,7.1-1.8C7.1-2.1,6.9-2.5,6.7-2.6"/>
		</g>
		<g id="g1124" transform="translate(456.5129,795.0644)">
			<path id="path1126" inkscape:connector-curvature="0" sodipodi:nodetypes="ccsccc" class="st0" d="M6.5-2.7
				c-0.2,0-0.2,0.2-0.4,0.2c0,0.6,0,1.1,0.6,1.1h0.8c0.3,0,0.4-0.2,0.6-0.4c0-0.5-0.2-0.9-0.8-0.9"/>
		</g>
		<g id="g1132" transform="translate(454.9034,796.5262)">
			<path id="path1134" inkscape:connector-curvature="0" sodipodi:nodetypes="ccccc" class="st0" d="M6.7-2.6
				c-0.1,0-0.2,0.3-0.2,0.4c0,0.2,0.2,0.4,0.3,0.5C6.9-1.8,7-2,7-2.1C7-2.3,6.9-2.6,6.7-2.6"/>
		</g>
		<g id="g812" transform="translate(453.0045,800.9604)">
			<path id="path814" inkscape:connector-curvature="0" sodipodi:nodetypes="cscsc" class="st0" d="M6.7-2.6c-0.3,0.1-0.5,0.7-0.5,1
				c0,0.2,0.1,0.6,0.4,0.7c0.4,0,0.6-0.5,0.6-0.9C7.2-2,6.9-2.5,6.7-2.6"/>
		</g>
		<g id="g1084" transform="translate(458.0615,805.4606)">
			<path id="path1086" inkscape:connector-curvature="0" sodipodi:nodetypes="cccc" class="st0" d="M6.7-2.8c-0.1,0-0.4,0.2-0.5,0.3
				c0,1,1.3,1.5,1.8,1.1C7.9-2.1,7.7-2.7,7-2.7"/>
		</g>
		<g id="g1048" transform="translate(460.2237,809.2405)">
			<path id="path1050" inkscape:connector-curvature="0" sodipodi:nodetypes="ccsscc" class="st0" d="M6.3-2.8C6-2.8,6.2-2.5,6-2.4
				c0,0,0.1,0.2,0.2,0.5c0,0.1,0.9-0.1,0.9,0c0.4,0.1,0.3-0.2,0.5-0.3c0-0.3-0.3-0.6-0.7-0.6"/>
		</g>
		<g id="g1708" transform="translate(459.485,811.4468)">
			<path id="path1710" inkscape:connector-curvature="0" sodipodi:nodetypes="ccscc" class="st0" d="M6.6-2.7
				c-0.1,0-0.1,0.2-0.2,0.2C6.5-2.2,6.9-2,7.3-2c0.1,0,0.4,0,0.4-0.2c0-0.4-0.2-0.5-0.6-0.5"/>
		</g>
		<g id="g1040" transform="translate(460.5181,806.9382)">
			<path id="path1042" inkscape:connector-curvature="0" sodipodi:nodetypes="ccccc" class="st0" d="M6.5-2.6C6.4-2.2,7-2.1,7.1-2.1
				c0.2,0,0.5,0,0.4-0.1c0,0,0-0.1,0-0.2C7.4-2.5,7-2.8,6.7-2.8"/>
		</g>
		<g id="g1036" transform="translate(461.3693,807.2233)">
			<path id="path1038" inkscape:connector-curvature="0" sodipodi:nodetypes="ccsccc" class="st0" d="M6.7-2.6c-0.1,0-0.1,0-0.2,0
				c0,0.1-0.3,0.3-0.3,0.4c0,0.5,0.4,1.3,1,1.2c0.9-0.2,0.4-0.8,0.3-1C7.5-2.4,7.1-2.6,6.7-2.6"/>
		</g>
		<g id="g828" transform="translate(461.2725,804.6531)">
			<path id="path830" inkscape:connector-curvature="0" sodipodi:nodetypes="cscccscccc" class="st0" d="M6.7-2.6L6.5-2.7
				c-1.3-0.2-1.8,1.6-1,2c0.1,0.2,0.2,0.3,0.4,0.5H6l0,0c0.3,0,0.5,0.1,0.7,0.2c0,0,0.2,0.1,0.2,0.1c0.3-0.1,1.6-0.9,1-1.4
				C7.8-2,7.3-2.5,6.7-2.6"/>
		</g>
		<g id="g996" transform="translate(464.5164,807.3591)">
			<path id="path998" inkscape:connector-curvature="0" sodipodi:nodetypes="cscsc" class="st0" d="M6.7-2.6c-0.6,0.1-0.8,0.5-0.8,1
				c0,0,0.1,0.3,0.3,0.4c0.5,0,0.7-0.6,0.7-1.1C6.9-2.3,6.9-2.5,6.7-2.6"/>
		</g>
		<g id="g1000" transform="translate(465.0405,809.5371)">
			<path id="path1002" inkscape:connector-curvature="0" sodipodi:nodetypes="ccscc" class="st0" d="M6.3-2.8C6-2.8,6-2.6,5.9-2.5
				C6-1.9,6.8-1.3,7.5-1.3c0.3,0,0.7-0.1,0.8-0.4c0-0.7-1.1-1.1-1.8-1.1"/>
		</g>
		<g id="g920" transform="translate(464.2051,809.7075)">
			<path id="path922" inkscape:connector-curvature="0" sodipodi:nodetypes="ccssc" class="st0" d="M6.7-2.6c-0.8,0-1.5,0.9-1.3,1.8
				c0.1,0,0.3,0.2,0.4,0.2C6.5-0.6,7-1.3,7-2C6.9-2.2,6.9-2.4,6.7-2.6"/>
		</g>
		<g id="g940" transform="translate(465.9083,812.8584)">
			<path id="path942" inkscape:connector-curvature="0" sodipodi:nodetypes="ccscc" class="st0" d="M6-2.7c-0.6,0-0.7,0.6-0.5,1.1
				c0,0.3,0.5,0.2,0.6,0.2c0.6,0,1.4-0.5,1.3-1c0-0.3-0.4-0.4-0.6-0.4"/>
		</g>
		<g id="g1012" transform="translate(467.0717,811.0165)">
			<path id="path1014" inkscape:connector-curvature="0" sodipodi:nodetypes="cscsc" class="st0" d="M6.7-2.6
				C6.3-2.5,6.2-2.1,6.2-1.8s0.1,0.7,0.4,0.7C6.9-1.1,7-1.6,7-1.9C7-2.1,6.9-2.6,6.7-2.6"/>
		</g>
		<g id="g1864" transform="translate(479.0597,804.5766)">
			<path id="path1866" inkscape:connector-curvature="0" sodipodi:nodetypes="cczcccsccc" class="st0" d="M6.7-2.6
				C6.2-2.6,5.8-2.4,5.6-2C5.1-1.6,5.3-0.8,5.4-0.4s1,0.4,0.9,0.5c0.1,0,1-0.1,1-0.1l0.5-0.3c0,0,0.4-0.7,0.4-1S8.1-2.2,7.9-2.6
				C7.8-2.7,7.2-2.5,7.2-2.5C7-2.5,6.8-2.6,6.7-2.6"/>
		</g>
		<g id="g1852" transform="translate(478.2328,806.8511)">
			<path id="path1854" inkscape:connector-curvature="0" sodipodi:nodetypes="ccscc" class="st0" d="M6.7-2.6c-0.5-0.1-1,0.1-1,0.8
				c0.1,0,0.2,0.2,0.3,0.2c0.4,0,1.1-0.3,1-0.7C6.9-2.4,6.8-2.5,6.7-2.6"/>
		</g>
		<g id="g780" transform="translate(509.6488,785.8583)">
			<path id="path782" inkscape:connector-curvature="0" class="st0" d="M6.7-2.6c0,0.2,0.1,0.4,0.3,0.4h0.3c0.2,0,0.3-0.1,0.3-0.4
				v-4h1.7L12-2.5c0.1,0.2,0.2,0.2,0.4,0.2h0.4c0.3,0,0.4-0.2,0.2-0.4L10.2-7l0,0l3-4.9c0.2-0.2,0-0.4-0.2-0.4h-0.4
				c-0.2,0-0.3,0.1-0.4,0.2L9.4-7.5H7.7V-12c0-0.2-0.1-0.4-0.3-0.4H7c-0.2,0-0.3,0.1-0.3,0.4V-2.6z M-3.5-2.6c0,0.2,0.1,0.4,0.4,0.4
				h0.3c0.2,0,0.4-0.1,0.4-0.4v-6.2c0-1.7,1.1-2.8,2.9-2.8c1.7,0,2.9,1,2.9,2.8v6.2c0,0.2,0.1,0.4,0.4,0.4h0.3
				c0.2,0,0.3-0.1,0.3-0.4v-6.2c0-2.2-1.6-3.7-3.9-3.7S-3.4-11-3.4-8.8C-3.5-8.8-3.5-2.6-3.5-2.6z M56.5,11.2c0,0.3,0.2,0.5,0.5,0.5
				h0.5c0.3,0,0.5-0.2,0.5-0.5v-4h5.3v4c0,0.3,0.2,0.5,0.5,0.5h0.5c0.3,0,0.5-0.2,0.5-0.5V2c0-0.3-0.2-0.5-0.5-0.5h-0.5
				c-0.3,0-0.5,0.2-0.5,0.5v4H58V2c0-0.3-0.2-0.5-0.5-0.5H57c-0.3,0-0.5,0.2-0.5,0.5V11.2z M51.1,11.8c1.7,0,2.9-0.7,3.4-1.1
				c0.2-0.2,0.2-0.4,0.1-0.7l-0.2-0.3c-0.2-0.3-0.4-0.3-0.7-0.1c-0.4,0.3-1.3,0.8-2.5,0.8c-2.4,0-3.8-1.7-3.8-3.9s1.4-4,3.8-4
				c1.3,0,2.3,0.6,2.8,1c0.2,0.2,0.5,0.2,0.7-0.1l0.2-0.3c0.1,0,0.1-0.3-0.1-0.5c-0.5-0.4-1.8-1.3-3.6-1.3C48,1.3,46,3.7,46,6.6
				C46,9.6,48.1,11.8,51.1,11.8 M41.3,6.8c1.1,0,1.8,0.7,1.8,1.9c0,0.7-0.3,1.3-1,1.6c-0.3,0.1-0.6,0.2-1.2,0.2h-1.7V6.8H41.3z
				 M37.9,11.2c0,0.3,0.2,0.5,0.5,0.5h2.7c1,0,1.5-0.1,1.9-0.3c1-0.4,1.6-1.4,1.6-2.7c0-1.3-0.7-2.4-1.8-2.8l0,0
				c0,0,0.1-0.1,0.3-0.5L44.9,2c0.2-0.3,0-0.6-0.3-0.6H44c-0.3,0-0.4,0.1-0.6,0.3l-2,3.7h-2.2V2c0-0.3-0.2-0.5-0.5-0.5h-0.5
				c-0.3,0-0.5,0.2-0.5,0.5C37.9,2,37.9,11.2,37.9,11.2z M33.8,5.6l-1.1,3.2c-0.2,0.5-0.4,1.4-0.4,1.4l0,0c0,0-0.2-0.9-0.4-1.4
				l-1.1-3.2C30.7,5.6,33.8,5.6,33.8,5.6z M31.4,11.3c0.1,0.3,0.3,0.4,0.5,0.4h0.7c0.3,0,0.4-0.1,0.5-0.4l3.3-9.2
				c0.1-0.3,0-0.6-0.4-0.6h-0.5c-0.3,0-0.4,0.1-0.5,0.4l-0.9,2.5h-3.8l-0.9-2.5c-0.1-0.3-0.3-0.4-0.5-0.4h-0.5
				c-0.4,0-0.5,0.2-0.4,0.6C28.1,2.1,31.4,11.3,31.4,11.3z M20.9,11.2c0,0.3,0.2,0.5,0.5,0.5h5c0.3,0,0.5-0.2,0.5-0.5v-0.3
				c0-0.3-0.2-0.5-0.5-0.5h-4V7.3h3.2c0.3,0,0.5-0.2,0.5-0.5V6.5C26,6.2,25.8,6,25.5,6h-3.2V2.7h4.3c0.3,0,0.5-0.2,0.5-0.5V2
				c0-0.3-0.2-0.5-0.5-0.5h-5.2c-0.3,0-0.5,0.2-0.5,0.5C20.9,2,20.9,11.2,20.9,11.2z M12.7,3L13,3.4c0.2,0.2,0.4,0.3,0.6,0.1
				c0.4-0.3,1.1-0.8,2.2-0.8s1.8,0.6,1.8,1.5c0,2.3-4.9,1.7-4.9,4.9c0,1.7,1.4,2.8,3.3,2.8c1.2,0,2.2-0.5,2.6-0.8
				c0.2-0.2,0.3-0.4,0.1-0.6l-0.2-0.4c-0.2-0.3-0.4-0.3-0.6-0.1c-0.4,0.2-1,0.6-1.9,0.6c-1.1,0-1.8-0.5-1.8-1.4
				c0-2.2,4.9-1.6,4.9-4.9c0-1.6-1.2-2.9-3.2-2.9c-1.5,0-2.6,0.7-3.1,1.1C12.6,2.6,12.5,2.8,12.7,3 M5.3,11.2c0,0.3,0.2,0.5,0.5,0.5
				h5c0.3,0,0.5-0.2,0.5-0.5v-0.3c0-0.3-0.2-0.5-0.5-0.5h-4V7.3H10c0.3,0,0.5-0.2,0.5-0.5V6.5C10.5,6.2,10.3,6,10,6H6.7V2.7H11
				c0.3,0,0.5-0.2,0.5-0.5V2c0-0.3-0.2-0.5-0.5-0.5H5.8C5.4,1.5,5.3,1.7,5.3,2V11.2z M-0.1,6.8c1.1,0,1.8,0.7,1.8,1.9
				c0,0.7-0.3,1.3-1,1.6c-0.3,0.1-0.6,0.2-1.2,0.2h-1.7V6.8C-2.1,6.8-0.1,6.8-0.1,6.8z M-3.5,11.2c0,0.3,0.2,0.5,0.5,0.5h2.7
				c1,0,1.5-0.1,1.9-0.3c1-0.4,1.6-1.4,1.6-2.7c0-1.3-0.7-2.4-1.8-2.8l0,0c0,0,0.1-0.1,0.3-0.5L3.5,2c0.2-0.3,0-0.6-0.3-0.6H2.6
				C2.3,1.4,2.2,1.5,2,1.7L0,5.4h-2.2V2c0-0.3-0.2-0.5-0.5-0.5H-3c-0.3,0-0.5,0.2-0.5,0.5V11.2z M47.1,20.8c1.1,0,1.8,0.7,1.8,1.9
				c0,0.7-0.3,1.3-0.9,1.6c-0.3,0.1-0.6,0.2-1.2,0.2H45v-3.6C45,20.8,47.1,20.8,47.1,20.8z M43.6,25.2c0,0.3,0.2,0.5,0.5,0.5h2.7
				c1,0,1.5-0.1,1.9-0.3c1-0.4,1.6-1.4,1.6-2.7c0-1.3-0.7-2.4-1.8-2.8l0,0c0,0,0.1-0.1,0.3-0.5l1.8-3.4c0.2-0.3,0-0.6-0.3-0.6h-0.6
				c-0.3,0-0.4,0.1-0.6,0.3l-2,3.7H45V16c0-0.3-0.2-0.5-0.5-0.5H44c-0.3,0-0.5,0.2-0.5,0.5C43.6,16,43.6,25.2,43.6,25.2z M30.6,25.9
				c1.7,0,2.9-0.7,3.4-1c0.2-0.2,0.2-0.4,0.1-0.7l-0.2-0.3c-0.2-0.3-0.4-0.3-0.7-0.1c-0.4,0.3-1.3,0.8-2.6,0.8
				c-2.4,0-3.8-1.7-3.8-3.9s1.4-4,3.8-4c1.3,0,2.3,0.6,2.8,1c0.2,0.2,0.5,0.2,0.7-0.1l0.2-0.3c0.2-0.2,0.2-0.5-0.1-0.7
				c-0.5-0.4-1.8-1.3-3.6-1.3c-3.1,0-5.2,2.3-5.2,5.3C25.4,23.6,27.5,25.9,30.6,25.9 M15.5,25.2c0,0.3,0.2,0.5,0.5,0.5h0.5
				c0.3,0,0.4-0.1,0.6-0.3l4.3-6.3c0.4-0.5,0.8-1.5,0.8-1.5l0,0c0,0-0.1,0.9-0.1,1.5v6.1c0,0.3,0.2,0.5,0.5,0.5h0.5
				c0.3,0,0.5-0.2,0.5-0.5V16c0-0.3-0.2-0.5-0.5-0.5h-0.5c-0.3,0-0.4,0.1-0.6,0.3l-4.4,6.3c-0.4,0.6-0.8,1.5-0.8,1.5l0,0
				c0,0,0.1-0.9,0.1-1.5V16c0-0.3-0.2-0.5-0.5-0.5H16c-0.3,0-0.5,0.2-0.5,0.5V25.2z M11.5,19.7l-1.1,3.2c-0.2,0.5-0.4,1.4-0.4,1.4
				l0,0c0,0-0.2-0.9-0.4-1.4l-1.1-3.2H11.5z M9.1,25.3c0.1,0.3,0.3,0.4,0.5,0.4h0.7c0.3,0,0.4-0.1,0.5-0.4l3.3-9.2
				c0.1-0.3,0-0.5-0.4-0.5h-0.5c-0.3,0-0.4,0.1-0.5,0.4l-0.9,2.5H8L7.1,16c-0.1-0.3-0.3-0.4-0.5-0.4H6.1c-0.4,0-0.5,0.2-0.4,0.5
				C5.7,16.1,9.1,25.3,9.1,25.3z M1,25.9c1.7,0,2.9-0.7,3.4-1c0.2-0.2,0.2-0.4,0.1-0.7l-0.2-0.3c-0.2-0.3-0.4-0.3-0.7-0.1
				c-0.4,0.3-1.3,0.8-2.5,0.8c-2.4,0-3.8-1.7-3.8-3.9s1.4-4,3.8-4c1.3,0,2.3,0.6,2.8,1c0.2,0.2,0.5,0.2,0.7-0.1l0.2-0.3
				C5,17.1,5,16.8,4.7,16.6c-0.5-0.4-1.8-1.3-3.6-1.3c-3.1,0-5.2,2.3-5.2,5.3S-2,25.9,1,25.9 M36,25.2c0,0.3,0.2,0.5,0.5,0.5h5
				c0.3,0,0.5-0.2,0.5-0.5V25c0-0.3-0.2-0.5-0.5-0.5h-4v-3.2h3.2c0.3,0,0.5-0.2,0.5-0.5v-0.3c0-0.3-0.2-0.5-0.5-0.5h-3.2v-3.3h4.3
				c0.3,0,0.5-0.2,0.5-0.5V16c0-0.3-0.2-0.5-0.5-0.5h-5.2c-0.3,0-0.5,0.2-0.5,0.5L36,25.2L36,25.2z"/>
		</g>
		<g id="g784" transform="translate(471.1126,807.5795)">
			<path id="path786" inkscape:connector-curvature="0" class="st0" d="M6.7-2.6c-0.4,0-0.9,0.1-1.2,0.3C5.6-2,5.8-1.8,5.8-1.5
				c0,0.6-0.5,1.1-1.1,1.1c-0.2,0-0.3,0-0.4-0.1c0,0.1,0,0.2,0,0.4s0,0.4,0.1,0.6c0.5,0.2,0.8,0.7,0.8,1.2v0.1
				c0.4,0.4,1,0.6,1.6,0.6c1.4,0,2.5-1.1,2.5-2.5c0-0.2,0-0.3,0-0.4C8.7-0.8,8.4-1.2,8.4-1.7v-0.1C8-2.3,7.4-2.6,6.7-2.6"/>
		</g>
		<g id="g788" transform="translate(456.1915,798.6206)">
			<path id="path790" inkscape:connector-curvature="0" sodipodi:nodetypes="ccscscsscsc" class="st0" d="M6.7-2.6
				c-1.5,0-2.8,1-3.2,2.3C3.6,0,3.7,0.3,3.7,0.6S3.6,1.3,3.4,1.5C3.7,3,5.1,4.1,6.7,4.1C7.2,4.1,7.6,4,8,3.8C8.6,4,9.2,3.4,9.2,3.3
				C9.6,2.9,9.9,2.5,10,1.9L9.9,1.5C10,1.3,10,1,10,0.8C10-1.1,8.5-2.6,6.7-2.6"/>
		</g>
		<g id="g792" transform="translate(465.397,816.3)">
			<path id="path794" inkscape:connector-curvature="0" class="st0" d="M6.7-2.6c-1.1,0-2.1,0.9-2.1,2.1c0,1.1,0.9,2.1,2.1,2.1
				s2.1-0.9,2.1-2.1C8.7-1.7,7.8-2.6,6.7-2.6"/>
		</g>
		<g id="g796" transform="translate(449.5797,810.0784)">
			<path id="path798" inkscape:connector-curvature="0" class="st0" d="M6.7-2.6C6-2.6,5.5-2,5.5-1.4c0,0.7,0.5,1.2,1.2,1.2
				s1.2-0.5,1.2-1.2C7.9-2,7.3-2.6,6.7-2.6"/>
		</g>
		<g id="g816" transform="translate(463.4927,809.0849)">
			<path id="path818" inkscape:connector-curvature="0" sodipodi:nodetypes="cscsccc" class="st0" d="M6.7-2.6
				C6.6-2.8,6.3-2.8,6.1-2.8c-0.1,0-0.4,0-0.4,0.3C5.3-2.3,5-1.9,5-1.4c0,0.6,0.5,1.1,1,1.2C6.2-1,6.7-1.7,7.4-2
				C7.2-2.2,7-2.5,6.7-2.6"/>
		</g>
		<g id="g804" transform="translate(462.843,805.8552)">
			<path id="path806" inkscape:connector-curvature="0" class="st0" d="M6.7-2.6c-0.1,0-0.2,0-0.4,0l0,0c0,0.7-0.5,1.2-1.1,1.3
				C5.5-1,5.7-0.6,5.8-0.1c0,0.2,0,0.4-0.1,0.5c0.2,0.1,0.4,0.3,0.7,0.3C6.6,0.6,6.8,0.5,7,0.5c0.1,0,0.3,0,0.4,0.1
				c0.2-0.1,0.4-0.2,0.5-0.4V0.1c0-0.5,0.2-0.9,0.5-1.3C8.3-1.9,7.5-2.6,6.7-2.6"/>
		</g>
		<g id="g808" transform="translate(451.6063,800.1495)">
			<path id="path810" inkscape:connector-curvature="0" class="st0" d="M6.7-2.6C5.8-2.6,5-1.9,5-1s0.7,1.6,1.6,1.6
				c0.5,0,1-0.3,1.3-0.7c0-0.2,0-0.4,0-0.7s0.1-0.7,0.2-1C7.8-2.3,7.3-2.6,6.7-2.6"/>
		</g>
		<g id="g824" transform="translate(475.5944,808.7845)">
			<path id="path826" inkscape:connector-curvature="0" class="st0" d="M6.7-2.6L6.7-2.6C6.4-2,6-1.6,5.4-1.6c0,0.1,0,0.2,0,0.3
				C5.4-0.6,6,0,6.7,0S8-0.6,8-1.3S7.4-2.6,6.7-2.6"/>
		</g>
		<g id="g836" transform="translate(477.8233,815.6438)">
			<path id="path838" inkscape:connector-curvature="0" class="st0" d="M6.7-2.6c0,0.1,0,0.2,0,0.3c0,0.7-0.3,1.4-0.8,1.8
				C6-0.3,6.3-0.3,6.5-0.3c0.6,0,1.2-0.5,1.2-1.2C7.7-2,7.2-2.5,6.7-2.6"/>
		</g>
		<g id="g840" transform="translate(475.5573,812.3567)">
			<path id="path842" inkscape:connector-curvature="0" class="st0" d="M6.7-2.6c0,0.1,0,0.1,0,0.2C6.7-2,6.4-1.6,6-1.6
				C5.7-1.6,5.5-1.8,5.3-2C5.2-1.8,5.2-1.7,5.2-1.5s0.1,0.4,0.2,0.6c0.4-0.3,0.8-0.4,1.3-0.4c0.3,0,0.6,0.1,0.8,0.1
				c0-0.1,0.1-0.2,0.1-0.3C7.5-2,7.2-2.4,6.7-2.6"/>
		</g>
		<g id="g844" transform="translate(478.9725,813.3837)">
			<path id="path846" inkscape:connector-curvature="0" class="st0" d="M6.7-2.6C6.4-2.4,6.1-2.3,5.8-2.3c-0.1,0-0.2,0-0.3,0
				C5.3-2.1,5.1-1.9,5.1-1.5c0,0.1,0,0.2,0,0.3C5.3-1.1,5.3-1,5.4-0.9c0.2,0.3,0.5,0.4,0.9,0.4c0.3,0,0.7-0.2,0.9-0.4
				C7-1,6.9-1.2,6.9-1.4C6.9-1.7,7-2,7.2-2.2C7.1-2.4,6.9-2.5,6.7-2.6"/>
		</g>
		<g id="g852" transform="translate(477.6612,815.6326)">
			<path id="path854" inkscape:connector-curvature="0" sodipodi:nodetypes="cscscc" class="st0" d="M6.7-2.6C6-2.6,5-2.1,5-1.5
				c0,0.4,0.7,0.8,1,1c0.7-0.1,1.3-0.7,1.3-1.4c0-0.1-0.5-0.6-0.5-0.7H6.7"/>
		</g>
		<g id="g856" transform="translate(475.5503,813.6807)">
			<path id="path858" inkscape:connector-curvature="0" sodipodi:nodetypes="ccscc" class="st0" d="M5.8-2.8c-0.5,0-0.1,0.3-0.4,0.6
				c0.2,0.3,0.6,0.9,1,0.9c0.5,0,0.9-0.7,1.1-1.2c-0.3-0.1-0.7-0.4-1-0.4"/>
		</g>
		<g id="g860" transform="translate(477.4965,814.7562)">
			<path id="path862" inkscape:connector-curvature="0" class="st0" d="M6.7-2.6c0,0.1,0.1,0.2,0.2,0.3C6.8-2.4,6.7-2.5,6.7-2.6"/>
		</g>
		<g id="g864" transform="translate(474.2027,807.1611)">
			<path id="path866" inkscape:connector-curvature="0" class="st0" d="M6.7-2.6C6-2.6,5.4-2.1,5.4-1.4C5.7-1.1,5.9-0.6,6-0.1
				C6.2,0,6.4,0,6.7,0h0.1c0.1-0.5,0.6-0.9,1.1-1c0-0.1,0-0.2,0-0.3C8-1.5,7.9-1.8,7.7-2H7.6C7.2-2,6.9-2.2,6.9-2.6
				C6.8-2.6,6.7-2.6,6.7-2.6"/>
		</g>
		<g id="g868" transform="translate(472.9006,808.351)">
			<path id="path870" inkscape:connector-curvature="0" sodipodi:nodetypes="cscc" class="st0" d="M6.7-2.6C6.4-2.5,6.3-2.3,6.3-2.3
				c0,0.5,0.7,1.1,1,0.9C7.7-1.6,7.1-2.7,6.7-2.6"/>
		</g>
		<g id="g872" transform="translate(475.4745,808.79)">
			<path id="path874" inkscape:connector-curvature="0" sodipodi:nodetypes="ccc" class="st0" d="M6.7-2.6c-0.5-0.3-1.6,0.4-1.1,1
				C6-1.3,6.9-2.2,6.7-2.6"/>
		</g>
		<g id="g880" transform="translate(476.6331,818.004)">
			<path id="path882" inkscape:connector-curvature="0" sodipodi:nodetypes="ccc" class="st0" d="M6.7-2.6c-0.2,0-0.4-0.1-0.5,0.2
				C6.4-2.3,6.5-2.4,6.7-2.6"/>
		</g>
		<g id="g884" transform="translate(469.598,812.6967)">
			<path id="path886" inkscape:connector-curvature="0" class="st0" d="M6.7-2.6c-0.6,0-1,0.4-1,1c0,0.4,0.2,0.7,0.5,0.9h0.1
				c0.2,0,0.4,0.1,0.6,0.1c0.5-0.1,0.8-0.5,0.8-1S7.2-2.6,6.7-2.6"/>
		</g>
		<g id="g888" transform="translate(461.1591,813.945)">
			<path id="path890" inkscape:connector-curvature="0" sodipodi:nodetypes="ccssc" class="st0" d="M6.7-2.6C5.2-3.6,5-1.7,5.3-1.5
				c0.1,0.5,0.5,0.8,1,0.8c0.6,0,1-0.4,1-1C7.3-2.1,7-2.4,6.7-2.6"/>
		</g>
		<g id="g896" transform="translate(474.4079,807.1772)">
			<path id="path898" inkscape:connector-curvature="0" sodipodi:nodetypes="cscc" class="st0" d="M6.7-2.6C6.5-2.2,6.9-1.9,7.2-1.9
				C7.3-1.9,7.5-2,7.5-2C7.7-2.4,7-2.9,6.7-2.6"/>
		</g>
		<g id="g900" transform="translate(440.162,814.9188)">
			<path id="path902" inkscape:connector-curvature="0" class="st0" d="M6.7-2.6C6.3-2.6,6-2.3,6-1.9s0.3,0.7,0.7,0.7
				c0.4,0,0.7-0.3,0.7-0.7C7.4-2.3,7.1-2.6,6.7-2.6"/>
		</g>
		<g id="g904" transform="translate(474.8615,811.8481)">
			<path id="path906" inkscape:connector-curvature="0" class="st0" d="M6.7-2.6C6.3-2.6,6-2.3,6-1.9c0,0.1,0,0.2,0.1,0.4
				c0.2-0.4,0.6-0.6,1-0.6c0.1,0,0.2,0,0.3,0C7.3-2.4,7-2.6,6.7-2.6"/>
		</g>
		<g id="g908" transform="translate(475.2489,812.3152)">
			<path id="path910" inkscape:connector-curvature="0" sodipodi:nodetypes="ccsscc" class="st0" d="M5.9-2.6C5.5-2.6,5.8-2.3,5.6-2
				c0.1,0.3,0.5,0.6,0.8,0.6C6.8-1.4,7-1.9,7-2.3c0-0.1,0-0.2-0.1-0.2S6.4-2.7,6.3-2.7"/>
		</g>
		<g id="g912" transform="translate(452.9354,817.9664)">
			<path id="path914" inkscape:connector-curvature="0" class="st0" d="M6.7-2.6C6.3-2.6,6-2.3,6-1.9s0.3,0.7,0.7,0.7
				c0.4,0,0.7-0.3,0.7-0.7C7.4-2.3,7.1-2.6,6.7-2.6"/>
		</g>
		<g id="g916" transform="translate(464.3208,809.662)">
			<path id="path918" inkscape:connector-curvature="0" class="st0" d="M6.7-2.6L6.7-2.6c-0.1,0.2,0,0.4,0,0.6
				c0,0.7-0.5,1.2-1.2,1.2c-0.1,0-0.1,0-0.2,0c0,0.1,0,0.1,0,0.2c0,1.1,0.7,2,1.7,2.1C7.2,1,7.7,0.6,8.3,0.6c0.3,0,0.5,0.1,0.7,0.2
				c0.1-0.2,0.3-0.4,0.4-0.6C9.2,0.1,9.2-0.2,9.2-0.4c0-0.3,0.1-0.6,0.3-0.8C9.3-1.5,9.2-1.7,9.1-1.9C8.8-1.7,8.6-1.7,8.3-1.7
				C7.6-1.7,7-2,6.7-2.6"/>
		</g>
		<g id="g924" transform="translate(455.5669,808.1589)">
			<path id="path926" inkscape:connector-curvature="0" class="st0" d="M6.7-2.6c-1.2,0-2.1,1-2.1,2.1c0,0.7,0.3,1.2,0.8,1.6
				C5.7,1.2,6,1.3,6.3,1.5c0.2,0,0.3,0.1,0.5,0.1c1.2,0,2.1-1,2.1-2.1S7.8-2.6,6.7-2.6"/>
		</g>
		<g id="g928" transform="translate(459.588,809.4062)">
			<path id="path930" inkscape:connector-curvature="0" class="st0" d="M6.7-2.6C6.3-2.4,6-1.9,6-1.5s0.1,0.7,0.4,0.9
				c0.1,0,0.1,0,0.2,0c0.4,0,0.8,0.1,1.1,0.3c0.6-0.1,1-0.6,1-1.3c0-0.4-0.1-0.7-0.4-0.9C8-2.3,7.8-2.2,7.6-2.2l0,0
				C7.2-2.2,6.9-2.4,6.7-2.6"/>
		</g>
		<g id="g932" transform="translate(463.5821,774.2953)">
			<path id="path934" inkscape:connector-curvature="0" class="st0" d="M6.7-2.6C6-2.6,5.4-2,5.4-1.3c0,0.2,0.1,0.4,0.1,0.6l0,0
				c0.6,0,1.1,0.2,1.5,0.6c0.6-0.1,1-0.6,1-1.2C8-2,7.4-2.6,6.7-2.6"/>
		</g>
		<g id="g936" transform="translate(466.6383,813.0848)">
			<path id="path938" inkscape:connector-curvature="0" class="st0" d="M6.7-2.6c-0.4,0.4-1,0.7-1.6,0.7c-0.1,0-0.2,0-0.4,0
				c0,0.1-0.1,0.2-0.1,0.4c0,0.7,0.6,1.3,1.3,1.3s1.3-0.6,1.3-1.3C7.2-2,7-2.3,6.7-2.6"/>
		</g>
		<g id="g944" transform="translate(448.8479,804.9528)">
			<path id="path946" inkscape:connector-curvature="0" class="st0" d="M6.7-2.6C6-2.6,5.4-2,5.4-1.3S6,0,6.7,0S8-0.6,8-1.3
				S7.4-2.6,6.7-2.6"/>
		</g>
		<g id="g956" transform="translate(478.5638,813.3071)">
			<path id="path958" inkscape:connector-curvature="0" sodipodi:nodetypes="ccscc" class="st0" d="M5.9-2.7c-0.3,0-0.1,0.2,0,0.4
				c0,0.1,0.3,0.2,0.4,0.2c0.3,0,0.8-0.2,0.8-0.4c0-0.1-0.5-0.3-0.6-0.3"/>
		</g>
		<g id="g960" transform="translate(441.9056,808.884)">
			<path id="path962" inkscape:connector-curvature="0" class="st0" d="M6.7-2.6C6-2.6,5.4-2,5.4-1.3S6-0.1,6.6-0.1
				c0.7,0,1.2-0.6,1.2-1.2C7.9-2,7.4-2.6,6.7-2.6"/>
		</g>
		<g id="g964" transform="translate(459.4271,802.7814)">
			<path id="path966" inkscape:connector-curvature="0" class="st0" d="M6.7-2.6c-0.3,1-1,1.9-2,2.3c0,0.2,0.1,0.3,0.2,0.5
				c0.1,0,0.3-0.1,0.4-0.1l0,0c0.7,0,1.2,0.5,1.3,1.2l0,0c0.2,0,0.5,0,0.7-0.1C7.2,1,7.1,0.8,7.1,0.6c0-0.7,0.6-1.3,1.3-1.3h0.1
				C8.5-1.7,7.7-2.5,6.7-2.6"/>
		</g>
		<g id="g976" transform="translate(453.7967,811.881)">
			<path id="path978" inkscape:connector-curvature="0" class="st0" d="M6.7-2.6c-1.1,0-1.9,0.9-1.9,1.9s0.9,1.9,1.9,1.9
				C7,1.3,7.3,1.2,7.6,1c0.1-0.1,0.2-0.1,0.3-0.2c0.4-0.4,0.7-0.9,0.7-1.5S8.4-1.8,8-2.1C7.6-2.2,7.3-2.3,7.1-2.5
				C6.9-2.6,6.8-2.6,6.7-2.6"/>
		</g>
		<g id="g980" transform="translate(454.194,811.9221)">
			<path id="path982" inkscape:connector-curvature="0" class="st0" d="M6.7-2.6c0.2,0.2,0.5,0.4,0.9,0.4C7.3-2.4,7-2.5,6.7-2.6"/>
		</g>
		<g id="g984" transform="translate(447.3721,811.606)">
			<path id="path986" inkscape:connector-curvature="0" class="st0" d="M6.7-2.6C5.7-2.6,5-1.8,5-0.9s0.7,1.7,1.7,1.7S8.4,0,8.4-0.9
				S7.6-2.6,6.7-2.6"/>
		</g>
		<g id="g988" transform="translate(443.6791,803.4254)">
			<path id="path990" inkscape:connector-curvature="0" class="st0" d="M6.7-2.6C5.9-2.6,5.3-2,5.3-1.2s0.6,1.4,1.4,1.4
				s1.4-0.6,1.4-1.4C8.1-1.9,7.5-2.6,6.7-2.6"/>
		</g>
		<g id="g992" transform="translate(465.9438,806.7209)">
			<path id="path994" inkscape:connector-curvature="0" class="st0" d="M6.7-2.6C6.1-2.6,5.6-2.4,5.3-2c0,0.1,0,0.1,0,0.2
				c0,0.5-0.2,0.9-0.5,1.2c0,0.3,0.1,0.7,0.3,0.9c0.2-0.1,0.5-0.1,0.7-0.1c0.7,0,1.3,0.3,1.7,0.8c0.7-0.3,1.1-1,1.1-1.7
				C8.6-1.7,7.7-2.6,6.7-2.6"/>
		</g>
		<g id="g1004" transform="translate(468.1652,810.4666)">
			<path id="path1006" inkscape:connector-curvature="0" class="st0" d="M6.7-2.6C6.2-2.6,5.8-2.4,5.6-2c0.1,0.2,0.1,0.4,0.1,0.7
				S5.6-0.7,5.5-0.5c0.2,0.4,0.7,0.7,1.2,0.7C7.4,0.1,8-0.4,8-1.1C7.6-1.5,7.3-1.9,7.2-2.5C7.1-2.5,6.9-2.6,6.7-2.6"/>
		</g>
		<g id="g1008" transform="translate(468.7209,810.5848)">
			<path id="path1010" inkscape:connector-curvature="0" sodipodi:nodetypes="ccsc" class="st0" d="M6.5-2.5c0.2,0.5,0.3,1.1,1,1.2
				l0.2-0.3c0-0.6-0.5-1.2-1-1"/>
		</g>
		<g id="g1016" transform="translate(469.0636,814.5563)">
			<path id="path1018" inkscape:connector-curvature="0" class="st0" d="M6.7-2.6C6-2.5,5.4-1.9,5.4-1.2c0,0.4,0.1,0.7,0.4,0.9
				c0.4-0.6,1.1-1,1.9-1c0.1,0,0.3,0,0.4,0c0-0.5-0.3-1-0.8-1.2c-0.1,0-0.1,0-0.2,0C7-2.4,6.8-2.5,6.7-2.6"/>
		</g>
		<g id="g1020" transform="translate(469.1757,814.5518)">
			<path id="path1022" inkscape:connector-curvature="0" sodipodi:nodetypes="ccscc" class="st0" d="M6.7-2.7L6.6-2.5
				c0.2,0.1,0.1,0.3,0.3,0.3c0.1,0,0.3-0.1,0.4-0.1C7.2-2.5,7-2.8,6.7-2.7"/>
		</g>
		<g id="g1024" transform="translate(453.1128,792.6572)">
			<path id="path1026" inkscape:connector-curvature="0" class="st0" d="M6.7-2.6L6.7-2.6C5.9-2.6,5.4-2,5.4-1.3S5.9,0,6.7,0l0,0
				C7.4,0,8-0.6,8-1.3c0-0.1,0-0.2,0-0.3c0,0,0,0,0-0.1C7.8-2.2,7.3-2.6,6.7-2.6"/>
		</g>
		<g id="g1028" transform="translate(451.4799,789.677)">
			<path id="path1030" inkscape:connector-curvature="0" class="st0" d="M6.7-2.6L6.7-2.6C5.8-2.6,5-1.8,5-1c0,0.9,0.7,1.6,1.6,1.6
				l0,0c0.7,0,1.3-0.4,1.5-1C8-0.6,8-0.9,8-1.2c0-0.2,0-0.4,0.1-0.6C7.8-2.3,7.3-2.6,6.7-2.6"/>
		</g>
		<g id="g1032" transform="translate(460.373,806.9464)">
			<path id="path1034" inkscape:connector-curvature="0" class="st0" d="M6.7-2.6C6-2.5,5.4-1.9,5.4-1.2c0,0.4,0.2,0.8,0.5,1.1
				c0.2-0.1,0.4-0.2,0.6-0.2c0.4,0,0.7,0.1,0.9,0.4C7.7-0.1,8-0.3,8.1-0.7C7.7-1,7.5-1.4,7.5-2c0-0.1,0-0.2,0-0.3l0,0
				C7.2-2.3,6.9-2.4,6.7-2.6"/>
		</g>
		<g id="g1052" transform="translate(439.2941,797.2971)">
			<path id="path1054" inkscape:connector-curvature="0" class="st0" d="M6.7-2.6L6.7-2.6C5.9-2.6,5.4-2,5.4-1.3S6,0,6.7,0l0,0
				C7.4,0,8-0.6,8-1.3S7.4-2.6,6.7-2.6"/>
		</g>
		<g id="g1056" transform="translate(435.4392,802.678)">
			<path id="path1058" inkscape:connector-curvature="0" class="st0" d="M6.7-2.6L6.7-2.6c-0.5,0-1,0.4-1,1c0,0.5,0.4,1,1,1l0,0
				c0.5,0,1-0.4,1-1C7.6-2.1,7.2-2.6,6.7-2.6"/>
		</g>
		<g id="g1060" transform="translate(435.8984,784.3461)">
			<path id="path1062" inkscape:connector-curvature="0" class="st0" d="M6.7-2.6L6.7-2.6c-0.5,0-1,0.4-1,1c0,0.5,0.4,1,1,1
				c0.5,0,1-0.4,1-1C7.6-2.1,7.2-2.6,6.7-2.6"/>
		</g>
		<g id="g1064" transform="translate(447.9493,789.4853)">
			<path id="path1066" inkscape:connector-curvature="0" class="st0" d="M6.7-2.6L6.7-2.6C5.9-2.6,5.4-2,5.4-1.3S6,0,6.7,0
				S8-0.6,8-1.3C7.9-2,7.4-2.6,6.7-2.6"/>
		</g>
		<g id="g1068" transform="translate(468.94,770.8048)">
			<path id="path1070" inkscape:connector-curvature="0" class="st0" d="M6.7-2.6L6.7-2.6c-0.6,0-1,0.5-1,1c0,0.6,0.5,1,1,1h0.1
				c0.1-0.5,0.4-1,0.8-1.3C7.5-2.3,7.1-2.6,6.7-2.6"/>
		</g>
		<g id="g1072" transform="translate(457.5126,793.6719)">
			<path id="path1074" inkscape:connector-curvature="0" class="st0" d="M6.7-2.6C6.4-2.4,6-2.3,5.7-2.3l0,0c-0.1,0-0.1,0-0.2,0
				C5.4-2.1,5.3-1.9,5.1-1.8C5.1-1.7,5-1.5,5-1.4s0,0.2,0,0.3c0.2-0.1,0.4-0.1,0.6-0.1l0,0c0.6,0,1.1,0.3,1.4,0.7
				c0.3-0.2,0.5-0.6,0.5-1C7.5-2,7.1-2.4,6.7-2.6"/>
		</g>
		<g id="g1076" transform="translate(449.6026,795.8222)">
			<path id="path1078" inkscape:connector-curvature="0" class="st0" d="M6.7-2.6L6.7-2.6C5.9-2.6,5.4-2,5.4-1.3S5.9,0,6.7,0l0,0
				C7.4,0,8-0.6,8-1.3C7.9-2,7.4-2.6,6.7-2.6"/>
		</g>
		<g id="g1080" transform="translate(457.6322,805.5342)">
			<path id="path1082" inkscape:connector-curvature="0" class="st0" d="M6.7-2.6C6.2-2.4,5.8-1.9,5.8-1.4c0,0.7,0.6,1.3,1.3,1.3
				l0,0c0.7,0,1.3-0.6,1.3-1.3v-0.1C7.6-1.5,7-1.9,6.7-2.6"/>
		</g>
		<g id="g1088" transform="translate(451.8663,805.4212)">
			<path id="path1090" inkscape:connector-curvature="0" class="st0" d="M6.7-2.6L6.7-2.6c-1,0-1.8,0.8-1.8,1.8S5.7,1,6.7,1l0,0
				c1,0,1.8-0.8,1.8-1.8C8.4-1.8,7.6-2.6,6.7-2.6"/>
		</g>
		<g id="g1092" transform="translate(454.6588,792.9446)">
			<path id="path1094" inkscape:connector-curvature="0" class="st0" d="M6.7-2.6C6.5-2.4,6.4-2.2,6.4-1.9c0,0.1,0,0.2,0,0.3l0,0
				c0.1,0.4,0.5,0.7,1,0.7C7.6-0.9,7.8-1,8-1.1c0-0.2,0.1-0.4,0.3-0.5C7.6-1.7,7.1-2,6.7-2.6L6.7-2.6L6.7-2.6L6.7-2.6"/>
		</g>
		<g id="g1100" transform="translate(456.3011,793.9088)">
			<path id="path1102" inkscape:connector-curvature="0" class="st0" d="M6.7-2.6C6.5-2.4,6.4-2.2,6.3-2C6.5-2.2,6.6-2.4,6.7-2.6
				L6.7-2.6"/>
		</g>
		<g id="g1104" transform="translate(456.5137,789.6546)">
			<path id="path1106" inkscape:connector-curvature="0" sodipodi:nodetypes="cccccccccsccccscc" class="st0" d="M6.7-2.6L6.7-2.6
				c-0.2,0-0.3,0-0.4,0c-0.7,0-1.8,0.3-1.8,0.9c-0.3,1.3,0,2,0.4,2.4c0.4-0.3,0.9-0.2,0.9-0.2c0.4,0.1,0.7,0.5,0.7,1
				c0,0.1,0,0.2,0,0.2C6.7,1.5,7,1.4,7.3,1.4l0,0c0.1,0,0.3,0,0.4,0.1c0.7-0.4,1.1-1.1,1.1-1.9c0-0.4-0.1-0.7-0.3-1
				c-0.1,0-0.3,0-0.5,0l0,0C7.3-1.4,6.8-1.9,6.7-2.6L6.7-2.6"/>
		</g>
		<g id="g1120" transform="translate(455.9295,795.1714)">
			<path id="path1122" inkscape:connector-curvature="0" class="st0" d="M6.7-2.6c-0.6,0.2-1,0.7-1,1.4c0,0.2,0.1,0.4,0.1,0.7v0.1
				c0.3,0.6,0.8,1,1.5,1l0,0c0.9,0,1.6-0.7,1.6-1.6c0-0.3-0.1-0.6-0.3-0.9C8.4-1.8,8.1-1.7,7.9-1.7l0,0C7.3-1.7,6.8-2.1,6.7-2.6"/>
		</g>
		<g id="g1128" transform="translate(453.1266,795.3222)">
			<path id="path1130" inkscape:connector-curvature="0" class="st0" d="M6.7-2.6L6.7-2.6c-1.1,0-1.9,0.9-1.9,1.9
				c0,1.1,0.9,1.9,1.9,1.9l0,0c1,0,1.8-0.8,1.9-1.8C8.5-0.8,8.4-1,8.4-1.2c0-0.1,0-0.1,0-0.2C8.2-2.1,7.5-2.6,6.7-2.6"/>
		</g>
		<g id="g1136" transform="translate(454.7015,789.1146)">
			<path id="path1138" inkscape:connector-curvature="0" class="st0" d="M6.7-2.6L6.7-2.6C5.8-2.6,5.1-2,4.8-1.2
				C5-1,5.1-0.7,5.1-0.4c0,0.2,0,0.4-0.1,0.6c0.3,0.6,0.9,1.1,1.7,1.1l0,0C6.5,0.9,6.4,0.5,6.4,0.1c0-1,0.7-1.9,1.7-2.1
				C7.7-2.4,7.2-2.6,6.7-2.6"/>
		</g>
		<g id="g1144" transform="translate(454.7025,792.905)">
			<path id="path1146" inkscape:connector-curvature="0" class="st0" d="M6.7-2.6C6.7-2.6,6.6-2.6,6.7-2.6C6.6-2.5,6.6-2.5,6.7-2.6
				C6.7-2.5,6.7-2.5,6.7-2.6C6.7-2.5,6.7-2.5,6.7-2.6L6.7-2.6"/>
		</g>
		<g id="g1156" transform="translate(457.8747,788.136)">
			<path id="path1158" inkscape:connector-curvature="0" class="st0" d="M6.7-2.6L6.7-2.6C5.9-2.6,5.3-2,5.3-1.2c0,0.1,0,0.1,0,0.2
				c0.8,0,1.5,0.4,1.9,1.1C7.7-0.2,8-0.7,8-1.2C8-2,7.4-2.6,6.7-2.6"/>
		</g>
		<g id="g1164" transform="translate(473.6229,817.2266)">
			<path id="path1166" inkscape:connector-curvature="0" class="st0" d="M6.7-2.6C6.1-2.3,5.8-1.8,5.8-1.2c0,0.9,0.7,1.6,1.6,1.6
				c0.7,0,1.2-0.4,1.5-1c0-0.1-0.1-0.2-0.1-0.3c0-0.2,0.1-0.4,0.2-0.5c0-0.1,0-0.1,0-0.2c-0.1,0-0.2,0-0.3,0
				C7.8-1.5,7.1-1.9,6.7-2.6"/>
		</g>
		<g id="g1168" transform="translate(474.3442,817.0541)">
			<path id="path1170" inkscape:connector-curvature="0" sodipodi:nodetypes="ccscc" class="st0" d="M6.5-3C6.3-3,6.2-2.5,5.9-2.4
				C6.4-1.8,5.9-1,6.7-1c0.1,0,1.4-0.3,1.5-0.4C8-2.1,8.1-3.1,7.4-3.1"/>
		</g>
		<g id="g1172" transform="translate(475.919,818.4014)">
			<path id="path1174" inkscape:connector-curvature="0" sodipodi:nodetypes="cscsc" class="st0" d="M6.7-2.6
				C6.6-2.4,6.4-2.3,6.4-2.1c0,0.1,0.1,0.2,0.2,0.4c0.1-0.2,0.2-0.4,0.2-0.6C6.8-2.4,6.7-2.5,6.7-2.6"/>
		</g>
		<g id="g1180" transform="translate(481.444,808.7955)">
			<path id="path1182" inkscape:connector-curvature="0" sodipodi:nodetypes="cscsc" class="st0" d="M6.7-2.6C6.5-2.6,6.4-2.2,6.4-2
				c0,0.1,0.2,0.3,0.2,0.3S6.9-2,6.9-2.3C6.9-2.3,6.9-2.5,6.7-2.6"/>
		</g>
		<g id="g1176" transform="translate(479.8582,806.874)">
			<path id="path1178" inkscape:connector-curvature="0" class="st0" d="M6.7-2.6C6.4-2.4,6.2-2.3,5.9-2.3c-0.2,0-0.3,0-0.4-0.1
				C5.2-2,4.8-1.8,4.4-1.8c-0.1,0-0.2,0-0.3,0C3.8-1.5,3.6-1,3.6-0.5c0,0.6,0.2,1.2,0.6,1.6C4.4,1.1,4.7,1,4.9,1
				C5.5,1,6,1.3,6.3,1.8C7.2,1.7,7.9,1,8.2,0.2c0-0.1,0-0.2,0-0.3c0-0.2,0-0.4,0.1-0.5C8.2-1.3,7.9-1.8,7.5-2.2
				C7.2-2.2,6.9-2.3,6.7-2.6"/>
		</g>
		<g id="g1184" transform="translate(478.0917,810.4666)">
			<path id="path1186" inkscape:connector-curvature="0" sodipodi:nodetypes="ccscc" class="st0" d="M6.5-2.8C6.2-2.8,6-2.4,6-2.4
				s0.3,1.3,1,1.3c0.1,0,1-0.4,1.1-0.6c0.1-0.6-0.6-1-1.2-1"/>
		</g>
		<g id="g1196" transform="translate(470.146,815.8477)">
			<path id="path1198" inkscape:connector-curvature="0" sodipodi:nodetypes="ccsscc" class="st0" d="M6.7-2.8c-0.8,0-1.9,0.4-2,1.2
				C5-1.3,5.2-1,5.6-1c0.7,0,1.8-0.5,1.5-1.5l0,0C6.9-2.6,6.6-3,6.5-3"/>
		</g>
		<g id="g1204" transform="translate(482.1454,810.551)">
			<path id="path1206" inkscape:connector-curvature="0" sodipodi:nodetypes="cscc" class="st0" d="M6.7-2.6c0,0.1,0.1,0.2,0.3,0.2
				c0,0,0.2-0.1,0.3-0.1C7.1-2.7,6.8-2.8,6.7-2.6"/>
		</g>
		<g id="g1212" transform="translate(484.663,809.8347)">
			<path id="path1214" inkscape:connector-curvature="0" class="st0" d="M6.7-2.6c-0.6,0.2-1,0.7-1.2,1.3C5.8-1,6-0.5,6,0
				c0.2-0.1,0.5-0.2,0.7-0.2c0.7,0,1.3,0.4,1.5,1.1c0.3-0.2,0.5-0.4,0.7-0.6c-0.9-0.2-1.6-1-1.6-2c0-0.1,0-0.1,0-0.2
				C7.1-2.1,6.8-2.3,6.7-2.6"/>
		</g>
		<g id="g1216" transform="translate(484.7678,812.231)">
			<path id="path1218" inkscape:connector-curvature="0" sodipodi:nodetypes="ccscscc" class="st0" d="M6.3-2.8
				C6-2.8,5.9-2.4,5.9-2.4s0,0,0,0.1c0,0.2,0,0.4-0.1,0.5C5.9-1.3,6.5-1,7-1c0.3,0,1-0.1,1.2-0.5c0.1-0.7-0.8-1.3-1.5-1.3"/>
		</g>
		<g id="g1224" transform="translate(483.4721,811.1119)">
			<path id="path1226" inkscape:connector-curvature="0" sodipodi:nodetypes="csccc" class="st0" d="M6.7-2.6c0,0.2-0.3,0.5-0.3,0.7
				C6.4-1.5,6.6-1.1,7-1c0.1-0.1,0.5,0,0.7-0.1C7.5-1.6,7.1-2.5,6.7-2.6"/>
		</g>
		<g id="g1228" transform="translate(484.034,812.4091)">
			<path id="path1230" inkscape:connector-curvature="0" sodipodi:nodetypes="cccsc" class="st0" d="M6.7-2.6
				C6.5-2.5,6.2-2.4,6.1-2.3C6.2-2.2,6.4-2,6.6-2c0.3-0.1,0.3-0.5,0.3-0.7L6.5-2.8"/>
		</g>
		<g id="g1240" transform="translate(483.1799,813.9537)">
			<path id="path1242" inkscape:connector-curvature="0" sodipodi:nodetypes="cccc" class="st0" d="M6.7-2.6c-0.2-0.3-1,0.1-0.9,0.4
				C5.9-2,6.6-2.1,6.7-2.5C6.7-2.5,6.7-2.5,6.7-2.6"/>
		</g>
		<g id="g1244" transform="translate(483.2597,813.9512)">
			<path id="path1246" inkscape:connector-curvature="0" sodipodi:nodetypes="ccccc" class="st0" d="M6.6-2.7c0,0-0.1,0-0.2,0
				l0.1,0.4c0,0,0.3-0.3,0.4-0.3L6.7-2.7"/>
		</g>
		<g id="g1236" transform="translate(483.3311,813.9531)">
			<path id="path1238" inkscape:connector-curvature="0" sodipodi:nodetypes="cccsc" class="st0" d="M6.7-2.6L6.7-2.6
				C6.3-1.5,7.3-0.8,7.9-1.2c0-0.1,0.2-0.3,0.2-0.3C8.1-2.2,7.4-2.9,6.7-2.6"/>
		</g>
		<g id="g1248" transform="translate(480.2892,813.436)">
			<path id="path1250" inkscape:connector-curvature="0" class="st0" d="M6.7-2.6c-0.3,0-0.6,0.1-0.8,0.4C6-2,6.1-1.8,6.1-1.6
				c0,0.3-0.1,0.5-0.3,0.7l0.1,0.1C6.2-1.1,6.6-1.2,7-1.2c0.2,0,0.5,0.1,0.7,0.1c0-0.1,0.1-0.3,0.1-0.4c0-0.1,0-0.2,0-0.3
				C7.3-2,7-2.2,6.8-2.6H6.7"/>
		</g>
		<g id="g1252" transform="translate(479.4883,813.7936)">
			<path id="path1254" inkscape:connector-curvature="0" sodipodi:nodetypes="cscsc" class="st0" d="M6.7-2.6
				C6.5-2.4,6.1-2.1,6.1-1.8c0,0.2,0.2,0.6,0.5,0.6C6.9-1.3,7.1-1.7,7.1-2C7.1-2.2,6.8-2.4,6.7-2.6"/>
		</g>
		<g id="g1256" transform="translate(480.4731,813.4517)">
			<path id="path1258" inkscape:connector-curvature="0" sodipodi:nodetypes="ccc" class="st0" d="M6.7-2.6C6.5-2.2,7-1.7,7.5-1.8
				C7.7-2.1,7-2.9,6.7-2.6"/>
		</g>
		<g id="g1260" transform="translate(472.2109,812.7894)">
			<path id="path1262" inkscape:connector-curvature="0" class="st0" d="M6.7-2.6C5.9-2.6,5.3-2,5.3-1.2s0.6,1.4,1.4,1.4
				s1.4-0.6,1.4-1.4S7.4-2.6,6.7-2.6"/>
		</g>
		<g id="g1264" transform="translate(460.37,816.9027)">
			<path id="path1266" inkscape:connector-curvature="0" class="st0" d="M6.7-2.6C5.9-2.6,5.3-2,5.3-1.2s0.6,1.4,1.4,1.4
				s1.4-0.6,1.4-1.4C8.1-1.9,7.4-2.6,6.7-2.6"/>
		</g>
		<g id="g1268" transform="translate(455.4214,815.2068)">
			<path id="path1270" inkscape:connector-curvature="0" class="st0" d="M6.7-2.6c-0.2,0-0.3,0-0.4,0.1C6.1-2.4,6.1-2.4,6-2.3
				C5.8-2.1,5.6-1.8,5.6-1.5c0,0.6,0.5,1.1,1,1.1c0.6,0,1.1-0.5,1.1-1.1S7.2-2.6,6.7-2.6"/>
		</g>
		<g id="g1272" transform="translate(454.982,815.3036)">
			<path id="path1274" inkscape:connector-curvature="0" class="st0" d="M6.7-2.6c-0.1,0-0.2,0.1-0.3,0.2C6.5-2.5,6.6-2.5,6.7-2.6"
				/>
		</g>
		<g id="g1280" transform="translate(482.0312,815.6261)">
			<path id="path1282" inkscape:connector-curvature="0" class="st0" d="M6.7-2.6c0,0.1,0.1,0.1,0.1,0.2C6.7-2.4,6.7-2.5,6.7-2.6"/>
		</g>
		<g id="g1284" transform="translate(480.6319,814.7722)">
			<path id="path1286" inkscape:connector-curvature="0" sodipodi:nodetypes="ccscc" class="st0" d="M5.9-2.6
				c-0.2,0-0.4,0.5-0.4,0.5c0,0.3,0.4,0.6,0.7,0.6c0.5,0,1.2-0.4,1.1-0.9S6.8-2.8,6.6-2.8"/>
		</g>
		<g id="g1288" transform="translate(487.2012,777.6417)">
			<path id="path1290" inkscape:connector-curvature="0" class="st0" d="M6.7-2.6C6.6-2.6,6.6-2.6,6.7-2.6C6.3-1.7,5.5-1,4.5-1H4.4
				C4.3-0.7,4.3-0.5,4.3-0.2c0,0.5,0.2,1,0.5,1.4c0.1,0,0.2,0,0.4,0c0.6,0,1.1,0.4,1.3,1c0.1,0,0.2,0,0.3,0c0.6,0,1.1-0.2,1.5-0.6
				c-0.1,0-0.1,0-0.2,0C7.4,1.6,6.8,1,6.8,0.3S7.3-0.9,8-0.9c0.4,0,0.8,0.2,1,0.5C8.9-1.6,7.9-2.6,6.7-2.6"/>
		</g>
		<g id="g1292" transform="translate(471.2589,777.7952)">
			<path id="path1294" inkscape:connector-curvature="0" sodipodi:nodetypes="ccscscscscc" class="st0" d="M6.7-2.6
				C5.7-2.5,4.9-2,4.5-1.1C5-0.9,5.3-0.3,5.3,0.2c0,0.4-0.2,0.9-0.5,1.1c0.4,0.6,1.2,1,1.9,1c0.6,0,1.2-0.2,1.6-0.6
				C8.6,1.7,9,1.5,9,1.4c0-0.6,0.3-0.8,0.1-1.2c0-0.1,0-0.2,0-0.4s0-0.4-0.1-0.6C9.4-1.6,7.7-3,6.7-2.6"/>
		</g>
		<g id="g1296" transform="translate(446.6219,797.8824)">
			<path id="path1298" inkscape:connector-curvature="0" class="st0" d="M6.7-2.6C5.7-2.6,5-1.8,5-0.9c0,1,0.8,1.7,1.7,1.7
				S8.4,0,8.4-0.9S7.6-2.6,6.7-2.6"/>
		</g>
		<g id="g1300" transform="translate(471.1126,771.0721)">
			<path id="path1302" inkscape:connector-curvature="0" sodipodi:nodetypes="ccccscsccsc" class="st0" d="M6.7-2.6
				c-0.5,0-0.9,0.2-1.2,0.4c0,0.1,0.1,0.2,0.1,0.3c0,0.5-0.4,0.9-0.9,1c0,0.1,0,0.2,0,0.4c0,0.5,0.2,1,0.5,1.4
				c0.2,0.6,0.5,0.8,1.1,0.8c0.7,0,1.3,0.7,1.5-0.1c0.1-0.1,0.4-0.7,0.6-0.8C8.6,0.4,8.7,0,8.7-0.5C8.7-1.7,7.8-2.6,6.7-2.6"/>
		</g>
		<g id="g1308" transform="translate(465.5652,770.3243)">
			<path id="path1310" inkscape:connector-curvature="0" class="st0" d="M6.7-2.6c-1.1,0-2.1,0.9-2.1,2.1c0,1,0.7,1.8,1.6,2
				c0.1-0.6,0.7-1,1.3-1c0.3,0,0.6,0.1,0.8,0.3C8.6,0.5,8.7,0,8.7-0.4C8.7-1.7,7.8-2.6,6.7-2.6"/>
		</g>
		<g id="g1312" transform="translate(482.2267,781.2164)">
			<path id="path1314" inkscape:connector-curvature="0" sodipodi:nodetypes="ccsccccscsscsccscc" class="st0" d="M6.7-2.6
				c-0.2,0-0.3,0-0.5,0.1l0,0c0,1.1-0.8,2.1-1.9,2.3C4.4-0.1,4.4,0,4.5,0.2c0.1,0.4,0.1,0.7-0.1,1c0.1,0.1,0.2,0.3,0.2,0.4
				c0.1,0,0.2,0,0.3,0c0.6,0,1.1,0.4,1.3,1c0.2,0,0.3,0,0.5,0c1.4,0,2.6-1.2,2.6-2.6v-0.1C9-0.3,8.8-0.7,8.8-1.1c0-0.1,0-0.2,0-0.3
				C8.7-1.5,8.6-1.7,8.5-1.8C8.3-1.7,8.2-1.7,8-1.7C7.4-1.7,6.9-2.1,6.7-2.6L6.7-2.6"/>
		</g>
		<g id="g1316" transform="translate(483.5172,779.5336)">
			<path id="path1318" inkscape:connector-curvature="0" class="st0" d="M6.7-2.6C6-2.6,5.4-2,5.4-1.3c0,0.1,0,0.3,0.1,0.4
				c0.7,0,1.3,0.3,1.8,0.8C7.7-0.3,8-0.8,8-1.3C8-2,7.4-2.6,6.7-2.6"/>
		</g>
		<g id="g1324" transform="translate(489.5821,779.8156)">
			<path id="path1326" inkscape:connector-curvature="0" sodipodi:nodetypes="cscsc" class="st0" d="M6.7-2.6C6-2.4,5.8-1.8,5.8-1.7
				c0,0.1-0.1,0.2,0.1,1.2C6.5-0.6,7-1.1,7-1.8C6.9-2.1,6.8-2.4,6.7-2.6"/>
		</g>
		<g id="g1328" transform="translate(488.5392,779.2845)">
			<path id="path1330" inkscape:connector-curvature="0" class="st0" d="M6.7-2.6C6-2.6,5.4-2,5.4-1.3S6,0,6.7,0c0.1,0,0.1,0,0.2,0
				c0.5-0.4,0.8-1.1,0.8-1.8c0-0.1,0-0.1,0-0.2C7.5-2.4,7.1-2.6,6.7-2.6"/>
		</g>
		<g id="g1332" transform="translate(462.3258,781.9888)">
			<path id="path1334" inkscape:connector-curvature="0" sodipodi:nodetypes="ccscscsc" class="st0" d="M6.7-2.6
				c0,0.1,0,0.2-0.1,0.3C7-2.1,7.3-1.6,7.3-1c0,0,0,0,0,0.1c0.2,0.1,0.3,0.1,0.5,0.1c0.7,0,1.2-0.5,1.3-1.1c-0.5-0.2-0.6,0.4-1,0.4
				C7.5-1.6,6.9-2,6.7-2.6"/>
		</g>
		<g id="g1336" transform="translate(447.4198,779.485)">
			<path id="path1338" inkscape:connector-curvature="0" sodipodi:nodetypes="cssccsc" class="st0" d="M6.7-2.6
				C5.8-2.6,5.1-1.9,5.1-1s0.7,1.6,1.6,1.6h0.1C7.5,1,8.7,0.4,8.3-0.8c0-0.1,0-0.1,0-0.2C8.3-1.9,7.6-2.6,6.7-2.6"/>
		</g>
		<g id="g1340" transform="translate(452.2827,777.3958)">
			<path id="path1342" inkscape:connector-curvature="0" class="st0" d="M6.7-2.6C6-2.6,5.4-2,5.4-1.3c0,0.2,0.1,0.4,0.2,0.6
				C6-1.5,6.8-2,7.8-2C7.5-2.3,7.1-2.6,6.7-2.6"/>
		</g>
		<g id="g1352" transform="translate(455.9126,783.5905)">
			<path id="path1354" inkscape:connector-curvature="0" class="st0" d="M6.7-2.6C5.9-2.6,5.4-2,5.4-1.3S5.9,0,6.7,0
				C7,0,7.2-0.1,7.5-0.2c0-0.1,0-0.1,0-0.2c0-0.5,0.2-1,0.4-1.3C7.7-2.2,7.2-2.6,6.7-2.6"/>
		</g>
		<g id="g1356" transform="translate(442.048,776.1772)">
			<path id="path1358" inkscape:connector-curvature="0" class="st0" d="M6.7-2.6C6-2.6,5.4-2,5.4-1.3S6,0,6.7,0C7.4,0,8-0.6,8-1.3
				S7.4-2.6,6.7-2.6"/>
		</g>
		<g id="g1360" transform="translate(444.0797,782.8524)">
			<path id="path1362" inkscape:connector-curvature="0" class="st0" d="M6.7-2.6C6-2.6,5.4-2,5.4-1.3S6,0,6.7,0S8-0.6,8-1.3
				S7.4-2.6,6.7-2.6"/>
		</g>
		<g id="g1372" transform="translate(480.205,785.4092)">
			<path id="path1374" inkscape:connector-curvature="0" class="st0" d="M6.7-2.6c-0.6,0.1-1,0.6-1,1.3S6.3,0,7,0s1.3-0.6,1.3-1.3
				c0-0.1,0-0.2,0-0.3C7.6-1.8,7-2.1,6.7-2.6"/>
		</g>
		<g id="g1380" transform="translate(475.8531,778.9106)">
			<path id="path1382" inkscape:connector-curvature="0" sodipodi:nodetypes="cccsccssc" class="st0" d="M6.7-2.6
				c-0.1,0-0.1,0-0.2,0C6-2.8,5.5-2.4,5.6-2C5.5-1.8,5.4-1.6,5.4-1.3c0,0.1,0,0.2,0.1,0.4C5.3-0.5,6,0.1,6.3,0c0.1,0,0.2,0,0.3,0
				C7.4,0,8-0.6,8-1.3S7.4-2.6,6.7-2.6"/>
		</g>
		<g id="g1384" transform="translate(460.4017,777.8578)">
			<path id="path1386" inkscape:connector-curvature="0" sodipodi:nodetypes="cscscsc" class="st0" d="M6.7-2.6
				C6.3-2.3,6.8-4.3,6.2-4.2C4.8-4.1,4.6-2.8,5.2-2c0.2,0.4,0.6,0.7,1.1,0.7c0.1,0,0.2,0,0.4-0.1c0-0.2-0.1-0.5-0.1-0.7
				S6.6-2.4,6.7-2.6"/>
		</g>
		<g id="g1388" transform="translate(456.055,771.3277)">
			<path id="path1390" inkscape:connector-curvature="0" class="st0" d="M6.7-2.6C6-2.6,5.4-2,5.4-1.3S6,0,6.7,0S8-0.6,8-1.3
				S7.4-2.6,6.7-2.6"/>
		</g>
		<g id="g1392" transform="translate(477.919,772.3255)">
			<path id="path1394" inkscape:connector-curvature="0" class="st0" d="M6.7-2.6C6-2.6,5.5-2.1,5.5-1.4c0,0.3,0.1,0.6,0.3,0.8
				C6.1-0.9,6.5-1,6.9-1c0.3,0,0.6,0,0.8,0.1C7.8-1,7.8-1.2,7.8-1.4C7.8-2.1,7.3-2.6,6.7-2.6"/>
		</g>
		<g id="g1400" transform="translate(478.9385,774.0477)">
			<path id="path1402" inkscape:connector-curvature="0" class="st0" d="M6.7-2.6C6.5-2.2,6.1-2,5.6-2C5.3-2,5-2.1,4.8-2.4
				C4.3-2,4-1.5,4-0.9l0,0C4.2-0.6,4.2-0.3,4.3,0c0.1,0.2,0.3,0.5,0.5,0.6C5.1,0.3,5.5,0,6.1,0C6.5,0,7,0.2,7.2,0.5
				C7.5,0.3,7.6,0,7.7-0.4c0-0.1-0.1-0.3-0.1-0.4c0-0.2,0-0.3,0.1-0.5v-0.1C7.4-1.6,7.2-1.9,7.1-2.3C7-2.4,6.8-2.5,6.7-2.6"/>
		</g>
		<g id="g1408" transform="translate(485.2972,781.478)">
			<path id="path1410" inkscape:connector-curvature="0" class="st0" d="M6.7-2.6C6.2-2.5,5.9-2.1,5.8-1.7C6-1.3,6.2-0.8,6.2-0.3
				C6.4-0.1,6.7,0,7,0c0.7,0,1.3-0.6,1.3-1.3c0-0.1,0-0.2,0-0.3C7.6-1.7,7-2.1,6.7-2.6"/>
		</g>
		<g id="g1420" transform="translate(455.9126,786.734)">
			<path id="path1422" inkscape:connector-curvature="0" class="st0" d="M6.7-2.6c-0.5,0-0.9,0.4-0.9,0.9s0.4,0.9,0.9,0.9
				s0.9-0.4,0.9-0.9S7.2-2.6,6.7-2.6"/>
		</g>
		<g id="g1424" transform="translate(474.2635,780.5228)">
			<path id="path1426" inkscape:connector-curvature="0" class="st0" d="M6.7-2.6c-0.2,0-0.3,0-0.5,0.1C6.1-1.9,5.8-1.4,5.4-1
				C5.5-0.4,6,0,6.7,0C6.8,0,6.9,0,7,0c0-0.1,0-0.1,0-0.2C7-0.6,7.3-1,7.7-1c0.1,0,0.1,0,0.2,0C8-1,8-1.2,8-1.3c0-0.1,0-0.3-0.1-0.4
				C7.5-1.8,7.1-2.1,7-2.5C6.9-2.6,6.8-2.6,6.7-2.6"/>
		</g>
		<g id="g1436" transform="translate(477.9137,783.0858)">
			<path id="path1438" inkscape:connector-curvature="0" sodipodi:nodetypes="ccccsccscsc" class="st0" d="M6.7-2.6
				c-0.1,0-0.2,0.1-0.2,0.2C6.6-2,6.3-1.5,6-1.4c0,0.2,0,0.3,0.1,0.5c0.2,0.7,0.8,1.1,1.4,1.1c0.1,0,0.3,0,0.4-0.1
				C8.2,0,8.5-0.3,8.7-0.6C8.5-1,8.4-1.4,8.4-1.9c0-0.1,0-0.1,0-0.2c-0.1,0-0.2,0-0.3,0C7.6-2.1,7.1-2.3,6.7-2.6"/>
		</g>
		<g id="g1444" transform="translate(475.5278,782.1646)">
			<path id="path1446" inkscape:connector-curvature="0" sodipodi:nodetypes="ccsccc" class="st0" d="M6.7-2.6
				C5.9-3,5.2-2.3,5.8-1.7c0.1,0.3,0.4,0.5,0.7,0.5c0.1,0,0.3,0,0.4-0.1C6.8-1.6,7-1.8,7.2-2C7.1-2.3,6.9-2.5,6.7-2.6"/>
		</g>
		<g id="g1452" transform="translate(479.7708,771.4226)">
			<path id="path1454" inkscape:connector-curvature="0" class="st0" d="M6.7-2.6C6.3-2.6,6-2.3,6-1.9s0.3,0.7,0.7,0.7
				c0.2-0.2,0.4-0.4,0.7-0.4c0-0.1,0.1-0.2,0.1-0.3C7.4-2.3,7.1-2.6,6.7-2.6"/>
		</g>
		<g id="g1468" transform="translate(458.8152,778.9042)">
			<path id="path1470" inkscape:connector-curvature="0" class="st0" d="M6.7-2.6C5.8-2.6,5.1-1.9,5.1-1c0,0.6,0.4,1.2,1,1.4
				C6.3,0.2,6.7,0,7,0c0.2,0,0.4,0,0.6,0.1C8-0.1,8.2-0.6,8.2-1C8.2-1.9,7.5-2.6,6.7-2.6"/>
		</g>
		<g id="g1472" transform="translate(447.3512,775.3625)">
			<path id="path1474" inkscape:connector-curvature="0" class="st0" d="M6.7-2.6c-0.5,0-0.9,0.4-0.9,0.9s0.4,0.9,0.9,0.9
				s0.9-0.4,0.9-0.9S7.2-2.6,6.7-2.6"/>
		</g>
		<g id="g1476" transform="translate(454.0804,782.9778)">
			<path id="path1478" inkscape:connector-curvature="0" class="st0" d="M6.7-2.6C6.4-2.5,6.2-2.5,6-2.5s-0.3,0-0.5,0
				C5.4-2.4,5.4-2.3,5.4-2.1c0,0.4,0.3,0.7,0.7,0.7c0.4,0,0.7-0.3,0.7-0.7C6.8-2.3,6.8-2.5,6.7-2.6"/>
		</g>
		<g id="g1480" transform="translate(455.3955,805.6854)">
			<path id="path1482" inkscape:connector-curvature="0" class="st0" d="M6.7-2.6C6.3-2.6,6-2.3,6-1.9s0.3,0.7,0.7,0.7
				c0.4,0,0.7-0.3,0.7-0.7C7.4-2.2,7.1-2.6,6.7-2.6"/>
		</g>
		<g id="g1488" transform="translate(469.8807,807.9113)">
			<path id="path1490" inkscape:connector-curvature="0" sodipodi:nodetypes="ccssc" class="st0" d="M6.7-2.6
				c-0.9,0-1.3,0.9-1.2,1.8c0,0.1,0.3,0.2,0.5,0.2c0.6,0,1.2-0.7,1.2-1.3C7.1-2.2,7-2.5,6.7-2.6"/>
		</g>
		<g id="g1492" transform="translate(470.0907,769.1841)">
			<path id="path1494" inkscape:connector-curvature="0" class="st0" d="M6.7-2.6c-0.5,0-0.9,0.4-0.9,0.9s0.4,0.9,0.9,0.9
				s0.9-0.4,0.9-0.9S7.2-2.6,6.7-2.6"/>
		</g>
		<g id="g1524" transform="translate(485.0271,774.8652)">
			<path id="path1526" inkscape:connector-curvature="0" class="st0" d="M6.7-2.6c-1,0-1.9,0.7-2.1,1.7c0.6,0.3,1,0.8,1,1.5
				c0,0.3-0.1,0.5-0.2,0.7c0.3,0.3,0.8,0.4,1.2,0.4c0.3-0.9,1.2-1.6,2.2-1.6c0-0.1,0-0.3,0-0.5C8.8-1.6,7.9-2.6,6.7-2.6"/>
		</g>
		<g id="g1532" transform="translate(479.4934,777.1141)">
			<path id="path1534" inkscape:connector-curvature="0" sodipodi:nodetypes="cscscscsc" class="st0" d="M6.7-2.6
				C6.3-2.2,5.9-2,5.4-2S4.5-2.2,4.2-2.4C4-2.1,3.9-1.8,3.9-1.5c0,0.7,0.4,1.2,0.9,1.5C5,0.3,5.4,0.6,6.1,0.6c0.1,0,0.9-0.9,0.8-1.3
				C7-0.9,7.1-1.2,7.1-1.5C7.1-1.9,6.9-2.3,6.7-2.6"/>
		</g>
		<g id="g1540" transform="translate(468.3244,779.0152)">
			<path id="path1542" inkscape:connector-curvature="0" sodipodi:nodetypes="cccscscscc" class="st0" d="M6.7-2.6L6.7-2.6
				C5.5-2.9,5.8-2.1,5.5-1.9c0.3,0.3,0.9,0.7,0.9,1.2S6.2,0.2,6,0.5c0.2,0.1,0.4,0.1,0.6,0.1c0.4,0,0.8-0.2,1.1-0.5
				c0.5-0.1,1-0.7,1-1.3c0-0.4-0.7-1.2-1.2-1.2C7.2-2.5,7-2.6,6.7-2.6"/>
		</g>
		<g id="g1548" transform="translate(465.8212,779.0004)">
			<path id="path1550" inkscape:connector-curvature="0" sodipodi:nodetypes="ccscscscc" class="st0" d="M6.7-2.6
				c-0.5,0.1-1,0.5-1.3,0.9c0.5,0.3,0.8,0.8,0.8,1.4c0,0.4-0.1,0.8-0.4,1C6.1,1,6.5,1.1,7,1.1c0.6,0,1.1-0.3,1.5-0.7
				c0.5-0.1,0.8-0.3,0.8-1c0-0.3-0.5-1.5-1.3-2.1C7.5-2.8,7.1-2.9,6.7-2.6"/>
		</g>
		<g id="g1552" transform="translate(464.5695,779.9073)">
			<path id="path1554" inkscape:connector-curvature="0" sodipodi:nodetypes="cscccsc" class="st0" d="M6.7-2.6
				C6.5-2.3,6.4-2,6.4-1.6c0,0.2,0,0.3,0.1,0.5C6.7-0.9,6.9-0.6,7-0.3c0,0.1,0.1,0.1,0.1,0.2c0.4-0.1,0.8-0.7,0.8-1.1
				C7.9-1.8,7.3-2.7,6.7-2.6"/>
		</g>
		<g id="g1556" transform="translate(464.3757,781.3779)">
			<path id="path1558" inkscape:connector-curvature="0" class="st0" d="M6.7-2.6C6.8-2.3,6.9-2,7.1-1.8C7.1-2.1,6.9-2.4,6.7-2.6"/>
		</g>
		<g id="g1564" transform="translate(451.195,784.6439)">
			<path id="path1566" inkscape:connector-curvature="0" class="st0" d="M6.7-2.6c-1.2,0-2.3,1-2.3,2.3c0,1.2,1,2.3,2.3,2.3
				C7.9,2,9,1,9-0.3C8.9-1.6,7.9-2.6,6.7-2.6"/>
		</g>
		<g id="g1568" transform="translate(443.6491,787.948)">
			<path id="path1570" inkscape:connector-curvature="0" class="st0" d="M6.7-2.6C5.8-2.6,5.1-1.9,5.1-1s0.7,1.6,1.6,1.6
				S8.2-0.1,8.2-1S7.5-2.6,6.7-2.6"/>
		</g>
		<g id="g1584" transform="translate(467.0172,777.1044)">
			<path id="path1586" inkscape:connector-curvature="0" class="st0" d="M6.7-2.6C5.9-2.6,5.4-2,5.4-1.2c0,0.2,0,0.4,0.1,0.5
				c0.1,0,0.3,0,0.4,0c0.4,0,0.8,0.1,1.1,0.4c0.3-0.2,0.6-0.4,1-0.4C8-0.8,8.1-1,8.1-1.2c0-0.3-0.1-0.5-0.2-0.7
				C7.4-2,6.9-2.2,6.7-2.6"/>
		</g>
		<g id="g1600" transform="translate(446.3614,793.7285)">
			<path id="path1602" inkscape:connector-curvature="0" class="st0" d="M6.7-2.6c-1,0-1.8,0.8-1.8,1.7c0,1,0.8,1.8,1.7,1.8l0,0
				c1,0,1.8-0.8,1.8-1.7C8.5-1.7,7.7-2.6,6.7-2.6L6.7-2.6"/>
		</g>
		<g id="g1604" transform="translate(467.2234,773.6235)">
			<path id="path1606" inkscape:connector-curvature="0" class="st0" d="M6.7-2.6C6.3-2.1,5.7-1.7,5-1.7c-0.2,0-0.3,0-0.5-0.1
				c0,0.1,0,0.2,0,0.3c0,0.7,0.6,1.4,1.4,1.4c0.1,0,0.2,0,0.3,0c0-0.6,0.5-1.2,1.1-1.4C7.2-2,7-2.3,6.7-2.6"/>
		</g>
		<g id="g1612" transform="translate(459.7869,781.6405)">
			<path id="path1614" inkscape:connector-curvature="0" sodipodi:nodetypes="cscscsccscc" class="st0" d="M6.7-2.6
				C6.4-3,6.1-3,5.8-3C5.6-3,5.2-2.7,5.1-2.3c-0.3,0.2-0.4,0.6-0.4,1c0,0.3,0.1,0.6,0.2,0.8c0.3-0.1,0.5-0.2,0.8-0.2
				c0.4,0,0.9,0.1,1.2,0.4l0,0c0-0.1,0.5-0.1,0.5-0.2c0-0.4,0.1-0.7-0.1-1.1C7.3-2.1,7-2.4,6.7-2.6"/>
		</g>
		<g id="g1628" transform="translate(460.3391,770.6456)">
			<path id="path1630" inkscape:connector-curvature="0" class="st0" d="M6.7-2.6C5.9-2.6,5.3-2,5.3-1.2c0,0.7,0.6,1.4,1.4,1.4
				C7.4,0.1,8-0.5,8-1.2C8-2,7.4-2.6,6.7-2.6"/>
		</g>
		<g id="g1632" transform="translate(474.602,770.0424)">
			<path id="path1634" inkscape:connector-curvature="0" class="st0" d="M6.7-2.6C5.8-2.6,5.1-1.9,5.1-1s0.7,1.6,1.6,1.6
				S8.3-0.1,8.3-1S7.5-2.6,6.7-2.6"/>
		</g>
		<g id="g1636" transform="translate(468.3003,774.5651)">
			<path id="path1638" inkscape:connector-curvature="0" sodipodi:nodetypes="ccscscscssccc" class="st0" d="M6.7-2.6
				c-0.2,0-0.4,0-0.5,0.1c0,0,0,0,0,0.1c0,0.6-0.5,1.2-1.1,1.3V-1c0,0.4,0.1,0.7,0.3,0.9c0,0,0.3,0.7,0.4,0.7c0.5,0,0.6,0.2,0.9,0
				h0.1c0.9,0,1.6-0.7,1.6-1.6c0-0.1,0-0.1,0-0.2C8-1.4,7.9-1.7,7.9-2C7.6-2.4,7.1-2.6,6.7-2.6"/>
		</g>
		<g id="g1648" transform="translate(479.7507,778.9861)">
			<path id="path1650" inkscape:connector-curvature="0" sodipodi:nodetypes="cscscccccc" class="st0" d="M6.7-2.6
				C6.4-2.1,5.9-1.7,5.3-1.7C5-1.7,4.8-1.8,4.6-1.9C4.2-1.5,4-0.9,4-0.3c0,0.7,0.3,1.4,0.9,1.8c0,0.3,0.2,0.6,0.3,0.5
				c0.4,0.1,1,0.5,1.4,0V1.8c0.2-1.1,1-1.9,2-2.1C8.6-1.5,7.8-2.4,6.7-2.6"/>
		</g>
		<g id="g1668" transform="translate(473.8288,774.2)">
			<path id="path1670" inkscape:connector-curvature="0" sodipodi:nodetypes="cccscscsccsccccc" class="st0" d="M6.7-2.6
				c-0.4,0-0.8,0.1-1.1,0.2C4.8-2,4.2-1.4,4-0.4C4-0.2,3.9,0,3.9,0.1C3.9,0.4,4,0.7,4.1,1h0.1c1.1,0,2.1,0.8,2.4,1.8h0.1
				c0.3,0,0.7-0.1,1-0.2c0.2-0.3,0.5-0.5,0.8-0.5c0.5-0.5,0.9-1.2,0.9-2c0-0.1,0-0.2,0-0.2C9.2-0.4,9.1-0.7,9.1-1
				c0-0.1-0.1-0.3-0.2-0.4C8.6-2.7,7.8-2.9,7-2.6C6.9-2.6,6.8-2.6,6.7-2.6"/>
		</g>
		<g id="g1692" transform="translate(449.3406,781.2776)">
			<path id="path1694" inkscape:connector-curvature="0" class="st0" d="M6.7-2.6C6.6-2.6,6.6-2.6,6.7-2.6c-0.2,0-0.2,0-0.3,0
				C6.3-1.8,5.6-1.2,4.9-1.1c0,0.1,0,0.3,0,0.4c0,1,0.8,1.7,1.8,1.7c0,0,0,0,0.1,0c1,0,1.8-0.9,1.7-1.9C8.4-1.8,7.6-2.6,6.7-2.6"/>
		</g>
		<g id="g1700" transform="translate(459.3156,811.4547)">
			<path id="path1702" inkscape:connector-curvature="0" class="st0" d="M6.7-2.6C5.7-2.5,5-1.7,5-0.8C5,0.2,5.8,1,6.8,1
				C6.9,1,7,1,7.1,1c0-0.1,0-0.1,0-0.2c0-0.6,0.5-1,1-1c0.1,0,0.3,0,0.4,0.1c0.1-0.2,0.1-0.4,0.1-0.7c0-0.6-0.3-1.1-0.8-1.5
				c-0.1,0-0.2,0-0.3,0C7.2-2.2,6.9-2.3,6.7-2.6"/>
		</g>
		<g id="g1720" transform="translate(482.7002,773.523)">
			<path id="path1722" inkscape:connector-curvature="0" sodipodi:nodetypes="ccsccssc" class="st0" d="M6.7-2.6c-0.1,0-0.2,0-0.3,0
				c-0.4,0-0.8,0-0.8,0.2C5.6-1.9,5-1.1,5.8-1C5.9-0.8,6-0.7,6-0.6c0.2,0.1,0.4,0.2,0.7,0.2c0.6,0,1.1-0.5,1.1-1.1S7.3-2.6,6.7-2.6"
				/>
		</g>
		<g id="g1724" transform="translate(481.7531,775.2561)">
			<path id="path1726" inkscape:connector-curvature="0" sodipodi:nodetypes="csccscsccscc" class="st0" d="M6.1-3.4
				C5.9-3.2,5.7-3.2,5.4-3.2C5.1-3.2,5-2.9,4.9-2.6c0,0,0,0,0,0.1C5-2.4,5-2.2,5-2.1c0,0.2,0,0.3-0.1,0.5C5.1-1.2,5.5-1,5.9-1H6
				c0.4,0.3,0.7-0.1,0.7-0.4C6.9-1.5,7-1.8,7-2c0-0.1,0-0.2,0-0.2c0-0.2,0-0.5-0.1-0.6"/>
		</g>
		<g id="g1760" transform="translate(459.0327,774.2398)">
			<path id="path1762" inkscape:connector-curvature="0" class="st0" d="M6.7-2.6c-1,0-1.8,0.7-2,1.7C4.4,0.2,5.2,1.3,6.3,1.5
				c0.1,0,0.2,0,0.3,0C6.5,1.4,6.4,1.2,6.4,0.9c0-0.7,0.6-1.3,1.3-1.3c0.3,0,0.6,0.1,0.9,0.3l0.1-0.1c0,0,0,0,0-0.1
				c0.2-1-0.5-2-1.7-2.2C6.9-2.6,6.8-2.6,6.7-2.6"/>
		</g>
		<g id="g1776" transform="translate(439.6596,791.4898)">
			<path id="path1778" inkscape:connector-curvature="0" class="st0" d="M6.7-2.6c-0.4,0-0.8,0.3-0.9,0.7C5.7-1.4,6-0.9,6.5-0.8
				c0.1,0,0.1,0,0.2,0c0.4,0,0.8-0.3,0.9-0.7c0.1-0.5-0.2-0.9-0.7-1C6.8-2.6,6.7-2.6,6.7-2.6"/>
		</g>
		<g id="g1780" transform="translate(443.5399,798.1953)">
			<path id="path1782" inkscape:connector-curvature="0" class="st0" d="M6.7-2.6C6.3-2.6,6-2.3,6-2C5.9-1.6,6.1-1.2,6.5-1.2h0.1
				c0.3,0,0.6-0.2,0.7-0.6S7.1-2.6,6.7-2.6C6.8-2.6,6.7-2.6,6.7-2.6"/>
		</g>
		<g id="g1784" transform="translate(480.889,772.365)">
			<path id="path1786" inkscape:connector-curvature="0" class="st0" d="M6.7-2.6c-0.2,0-0.3,0-0.4,0.1C6.1-2.3,5.9-2.1,5.5-2.1l0,0
				C5.3-1.8,5.1-1.4,5.1-1c0,0.1,0,0.2,0,0.4C5.4-0.4,5.6,0,5.7,0.3c0,0,0,0,0.1,0C6,0,6.4-0.2,6.8-0.2c0.2,0,0.4,0,0.6,0.2
				c0-0.1,0-0.2,0-0.3c0-0.5,0.4-1,0.8-1.1C8-2.1,7.4-2.6,6.7-2.6"/>
		</g>
		<g id="g1812" transform="translate(487.3995,808.6038)">
			<path id="path1814" inkscape:connector-curvature="0" sodipodi:nodetypes="cccscc" class="st0" d="M6.6-2.7c-0.8,0-2,0.4-1.9,1.2
				c0,0.6,0.8,0.9,1.4,1.1c0.6-0.2,1-1.1,1-1.7c0-0.2-0.1-0.4-0.2-0.5c-0.1,0-0.5-0.1-0.6-0.1"/>
		</g>
		<g id="g1220" transform="translate(486.8545,810.491)">
			<path id="path1222" inkscape:connector-curvature="0" sodipodi:nodetypes="cscscsc" class="st0" d="M6.7-2.6
				c-0.3-0.1-0.6,0-0.9,0s-0.4-0.1-0.6,0C5-2.5,4.9-2.2,4.9-2.1c0,1,1.4,1.9,1.9,1.8c0.7-0.2,0.4-0.9,0.4-1.3
				C7.2-2.2,7.1-2.6,6.7-2.6"/>
		</g>
		<g id="g1816" transform="translate(485.3179,809.7206)">
			<path id="path1818" inkscape:connector-curvature="0" sodipodi:nodetypes="ccccc" class="st0" d="M6.7-2.6c-0.2,0-0.5,0-0.7,0.1
				c-0.1,0.6,0,1.3,0.6,1C7-1.6,7-2.1,6.9-2.5C6.8-2.6,6.7-2.6,6.7-2.6"/>
		</g>
		<g id="g1820" transform="translate(485.5565,809.7352)">
			<path id="path1822" inkscape:connector-curvature="0" class="st0" d="M6.7-2.6C6.5-2.3,6.5-2.1,6.4-1.8c0.2,0.1,0.5,0.2,0.7,0.2
				c0.3,0,0.5-0.1,0.8-0.2C7.7-2.2,7.2-2.5,6.7-2.6"/>
		</g>
		<g id="g1828" transform="translate(482.6138,808.0526)">
			<path id="path1830" inkscape:connector-curvature="0" sodipodi:nodetypes="ccscc" class="st0" d="M6.1-2.8
				c-0.4,0-0.3,0.6-0.3,0.6c0,0.5,0.5,1,1.1,1c0.2,0,1-0.1,1.1-0.4c0.3-0.5-0.7-1.3-1.3-1.3"/>
		</g>
		<g id="g1832" transform="translate(485.2916,807.7131)">
			<path id="path1834" inkscape:connector-curvature="0" sodipodi:nodetypes="ccc" class="st0" d="M6.7-2.6c-0.4-0.1-1,0.8-0.8,1
				C6.3-1.5,6.9-2.2,6.7-2.6"/>
		</g>
		<g id="g1840" transform="translate(479.9268,806.8155)">
			<path id="path1842" inkscape:connector-curvature="0" sodipodi:nodetypes="cccc" class="st0" d="M6.7-2.6
				C6.6-2.6,6.6-2.5,6.7-2.6C6.6-2.2,7.1-1.9,7.4-2.1C7.5-2.4,7-2.7,6.7-2.6"/>
		</g>
		<g id="g1844" transform="translate(481.9331,805.3665)">
			<path id="path1846" inkscape:connector-curvature="0" sodipodi:nodetypes="cscsc" class="st0" d="M6.7-2.6c-0.5,0.2-1,0.9-1,1.5
				c0,0.1,0.1,0.3,0.2,0.3c0.4,0.2,1.3-0.4,1.3-0.9C7.2-1.9,7-2.5,6.7-2.6"/>
		</g>
		<g id="g1848" transform="translate(477.5432,805.0599)">
			<path id="path1850" inkscape:connector-curvature="0" class="st0" d="M6.7-2.6C6-2.6,5.4-2,5.4-1.3c0,0.6,0.4,1.1,1,1.3
				c0.2-0.3,0.6-0.6,1-0.8C7.1-1,6.9-1.4,6.9-1.8C6.9-2,7-2.3,7.1-2.5C7-2.5,6.8-2.6,6.7-2.6"/>
		</g>
		<g id="g1856" transform="translate(480.845,803.2141)">
			<path id="path1858" inkscape:connector-curvature="0" class="st0" d="M6.7-2.6C6-2.6,5.4-2,5.4-1.3c0,0.1,0,0.1,0,0.2
				C5.6-1,5.7-0.9,5.8-0.8C6.1-1,6.3-1.1,6.6-1.1c0.4,0,0.8,0.2,1.1,0.6C7.9-0.7,8-1,8-1.3C8-2,7.4-2.6,6.7-2.6"/>
		</g>
		<g id="g1860" transform="translate(480.8124,804.7141)">
			<path id="path1862" inkscape:connector-curvature="0" sodipodi:nodetypes="cccscc" class="st0" d="M6.3-2.7
				C6-2.7,5.9-2.5,5.9-2.3C6-2.1,6.2-1.9,6.2-1.6c0.2,0.2,0.4,0.3,0.6,0.3c0.4,0,0.9-0.6,1-0.7c0-0.4-0.5-0.7-1-0.7"/>
		</g>
		<g id="g876" transform="translate(476.6704,818.0033)">
			<path id="path878" inkscape:connector-curvature="0" class="st0" d="M6.7-2.6C6.7-2.6,6.6-2.6,6.7-2.6C6.5-2.5,6.3-2.4,6.1-2.4
				C6-2.3,6-2.3,5.9-2.2c0,0.1,0,0.2,0,0.2c0,0.2,0,0.4-0.1,0.6C6-1,6.3-0.8,6.7-0.8c0.5,0,0.9-0.4,0.9-0.9S7.2-2.6,6.7-2.6"/>
		</g>
		<g id="g848" transform="translate(476.3579,813.8265)">
			<path id="path850" inkscape:connector-curvature="0" class="st0" d="M6.7-2.6C6.5-2.1,6.1-1.8,5.6-1.8c-0.4,0-0.8-0.2-1-0.6
				C4-2,3.6-1.3,3.6-0.5C3.6,0,3.7,0.4,4,0.7c0.2-0.1,0.5-0.2,0.7-0.2c0.7,0,1.4,0.5,1.5,1.2c0.1,0,0.1,0,0.2,0
				c0.1-0.1,0.3-0.2,0.5-0.2C7,1.4,7.2,1.3,7.3,1.3C7,1.1,6.8,0.8,6.8,0.4c0-0.6,0.5-1.2,1.2-1.2c0.1,0,0.1,0,0.2,0
				c0-0.2-0.1-0.4-0.1-0.5C7.9-1.4,7.8-1.5,7.8-1.6C7.5-2.1,7.1-2.4,6.7-2.6"/>
		</g>
		<g id="g1192" transform="translate(470.5325,815.8789)">
			<path id="path1194" inkscape:connector-curvature="0" class="st0" d="M6.7-2.6L6.7-2.6c0,0.8-0.6,1.4-1.4,1.4
				c-0.4,0-0.7-0.2-1-0.4C4.1-1.2,3.9-0.7,3.9-0.2c0,1.3,1.1,2.4,2.4,2.4s2.4-1.1,2.4-2.4C8.7-1.4,7.8-2.4,6.7-2.6"/>
		</g>
		<g id="g1484" transform="translate(469.1332,807.6105)">
			<path id="path1486" inkscape:connector-curvature="0" class="st0" d="M6.7-2.6c-0.6,0-1.1,0.5-1.1,1.1c0,0.4,0.3,0.8,0.6,1
				c0.1-0.8,0.6-1.4,1.2-1.8C7.2-2.5,7-2.6,6.7-2.6"/>
		</g>
		<g id="g892" transform="translate(475.1191,806.2894)">
			<path id="path894" inkscape:connector-curvature="0" class="st0" d="M6.7-2.6C6.3-2.6,6-2.3,6-1.9c0,0.1,0,0.1,0,0.2
				c0.4,0.1,0.7,0.3,0.9,0.6c0.3-0.1,0.6-0.4,0.6-0.7C7.4-2.3,7.1-2.6,6.7-2.6"/>
		</g>
		<g id="g952" transform="translate(477.4419,810.6046)">
			<path id="path954" inkscape:connector-curvature="0" class="st0" d="M6.7-2.6c-0.6,0.3-1,0.8-1,1.5c0,0.8,0.6,1.4,1.3,1.6
				c0.2-0.2,0.5-0.3,0.8-0.3c0.1,0,0.3,0,0.4,0.1C8.6,0,8.9-0.5,8.9-1c0-0.3-0.1-0.5-0.2-0.8c-0.1,0-0.2,0-0.4,0
				C7.7-1.9,7.1-2.1,6.7-2.6"/>
		</g>
		<g id="g1276" transform="translate(481.2878,814.9144)">
			<path id="path1278" inkscape:connector-curvature="0" class="st0" d="M6.7-2.6c-0.2,0.4-0.5,0.7-1,0.7C5.4-1.9,5.1-2,4.9-2.2
				C4.6-2,4.4-1.6,4.4-1.1c0,0.9,0.7,1.6,1.6,1.6s1.6-0.7,1.6-1.6c0-0.2,0-0.3-0.1-0.5c0-0.1-0.1-0.1-0.1-0.2C7.2-2.2,7-2.4,6.7-2.6
				"/>
		</g>
		<g id="g1232" transform="translate(483.1916,814.0576)">
			<path id="path1234" inkscape:connector-curvature="0" class="st0" d="M6.7-2.6C6.4-2.4,6.1-2.3,5.8-2.3C5.6-2,5.4-1.7,5.4-1.4
				c0,0.1,0,0.3,0.1,0.4c0,0.1,0.1,0.1,0.1,0.2c0.2,0.4,0.6,0.7,1.1,0.7c0.7,0,1.2-0.5,1.3-1.1C7.3-1.3,6.8-1.9,6.7-2.6"/>
		</g>
		<g id="g1200" transform="translate(482.1187,810.5507)">
			<path id="path1202" inkscape:connector-curvature="0" class="st0" d="M6.7-2.6c-1.1,0-1.9,0.9-1.9,1.9c0,0.4,0.1,0.7,0.3,1
				c0.4,0.1,0.7,0.4,0.8,0.8c0.2,0.1,0.5,0.2,0.8,0.2c0.1,0,0.1,0,0.2,0C7.1,1,7.4,0.8,7.7,0.8V0.7c0-0.5,0.2-0.9,0.5-1.2
				C8-0.8,7.9-1.1,7.9-1.5C7.9-1.7,8-1.9,8-2C7.8-2.2,7.5-2.4,7.2-2.5c0,0,0,0-0.1,0S6.8-2.5,6.7-2.6L6.7-2.6"/>
		</g>
		<g id="g1208" transform="translate(483.6891,812.6506)">
			<path id="path1210" inkscape:connector-curvature="0" sodipodi:nodetypes="cscsccc" class="st0" d="M6.7-2.6C6.2-2.7,6-1.9,6-1.5
				c0,0,0.2,0.1,0.2,0.2h0.1c0,0,0,0,0.1,0c0.6,0,1-0.3,0.6-1C6.8-2.3,6.7-2.5,6.7-2.6"/>
		</g>
		<g id="g948" transform="translate(483.9626,812.9929)">
			<path id="path950" inkscape:connector-curvature="0" class="st0" d="M6.7-2.6C6.6-2.2,6.3-1.9,6-1.6c0.7,0,1.2,0.6,1.2,1.3
				c0,0.1,0,0.1,0,0.2c0.1,0,0.2,0,0.2,0C8.3-0.1,9-0.8,9-1.7c0-0.2,0-0.4-0.1-0.5C8.7-2.1,8.4-2,8-2C7.5-2,7-2.2,6.7-2.6"/>
		</g>
		<g id="g1188" transform="translate(487.5949,808.6128)">
			<path id="path1190" inkscape:connector-curvature="0" class="st0" d="M6.7-2.6c0,0.2,0.1,0.3,0.1,0.5C6.8-1.5,6.5-1,6-0.7
				C6.2-0.4,6.3,0,6.3,0.4S6.2,1.1,6,1.4c0.2,0,0.3,0.1,0.5,0.1c1.1,0,2.1-0.9,2.1-2.1C8.5-1.6,7.7-2.5,6.7-2.6"/>
		</g>
		<g id="g1808" transform="translate(486.0742,807.5063)">
			<path id="path1810" inkscape:connector-curvature="0" class="st0" d="M6.7-2.6c-0.3,0-0.6,0.1-0.8,0.2C5.7-2,5.5-1.6,5.1-1.3
				c0,0.1,0,0.2,0,0.4c0,0.3,0.1,0.5,0.2,0.7C5.5-0.3,5.7-0.3,6-0.3c0.1,0,0.2,0,0.2,0C6.5-1,7.2-1.5,8-1.5c0.1,0,0.1,0,0.2,0
				C8-2.1,7.4-2.6,6.7-2.6"/>
		</g>
		<g id="g800" transform="translate(481.6963,808.4348)">
			<path id="path802" inkscape:connector-curvature="0" class="st0" d="M6.7-2.6C6.6-2.5,6.5-2.4,6.4-2.2c0,0.1,0,0.1,0,0.2
				c0,0.2,0,0.4-0.1,0.7c0.1,0.4,0.4,0.7,0.8,0.9c0.2,0,0.4,0,0.5,0.1c0.7,0,1.2-0.6,1.2-1.3c0-0.1,0-0.2,0-0.3c-0.1,0-0.3,0-0.6,0
				C7.6-1.9,7.1-2.1,6.7-2.6"/>
		</g>
		<g id="g1824" transform="translate(483.2795,804.887)">
			<path id="path1826" inkscape:connector-curvature="0" class="st0" d="M6.7-2.6c-0.5,0-1,0.2-1.3,0.5c0.1,0.2,0.2,0.4,0.2,0.6
				c0,0.6-0.4,1.1-0.9,1.2c0,0.5,0.2,0.9,0.5,1.2C5.3,0.7,5.6,0.6,6,0.6c0.6,0,1.1,0.4,1.3,1C7.5,1.5,7.8,1.4,8,1.3
				c0.1-0.4,0.4-0.8,0.8-1c0-0.3,0-0.5,0-0.8C8.8-1.6,7.8-2.6,6.7-2.6"/>
		</g>
		<g id="g1836" transform="translate(481.8748,805.274)">
			<path id="path1838" inkscape:connector-curvature="0" class="st0" d="M6.7-2.6c-0.2,0.3-0.6,0.5-1,0.5c-0.2,0-0.4,0-0.5-0.1
				c0,0.1,0,0.1,0,0.2c0,0.4-0.2,0.7-0.4,1C5-0.9,5.3-0.8,5.5-0.6h0.1c0.1,0,0.2,0,0.4,0c0-0.1,0-0.2,0-0.2C5.9-1.5,6.2-2.1,6.7-2.6
				C6.7-2.5,6.7-2.5,6.7-2.6"/>
		</g>
		<g id="g1396" transform="translate(475.2489,773.3337)">
			<path id="path1398" inkscape:connector-curvature="0" class="st0" d="M6.7-2.6c-0.5,0-1,0.4-1.1,0.9C6.3-1.6,7-1.2,7.5-0.6
				c0.2-0.2,0.4-0.5,0.4-0.9C7.8-2.1,7.3-2.6,6.7-2.6"/>
		</g>
		<g id="g1712" transform="translate(482.2267,776.4204)">
			<path id="path1714" inkscape:connector-curvature="0" class="st0" d="M6.7-2.6c-0.1,0-0.3,0-0.4,0.1C6.1-2.3,5.8-2.2,5.5-2.1
				C5.2-1.8,5-1.4,5-0.9C5,0,5.8,0.7,6.7,0.7c0.7,0,1.2-0.4,1.5-0.9C7.7-0.6,7.3-1.2,7.3-2c0-0.2,0-0.3,0.1-0.5
				C7.1-2.5,6.9-2.6,6.7-2.6"/>
		</g>
	</g>
</g>
<g>
	<line class="st1" x1="225.9" y1="4.6" x2="225.9" y2="81.2"/>
	<rect x="225.4" y="4.6" class="st0" width="1" height="76.6"/>
</g>
<g>
	<path id="path12" class="st0" d="M243.1,15.3c0-0.3,0.2-0.5,0.5-0.5h0.6c0.3,0,0.5,0.1,0.6,0.4l3.7,8.2c0.3,0.8,0.7,1.8,0.7,1.8h0
		c0,0,0.4-1,0.7-1.8l3.7-8.2c0.1-0.3,0.3-0.4,0.6-0.4h0.6c0.3,0,0.5,0.2,0.5,0.5l1.1,13.7c0,0.4-0.1,0.5-0.5,0.5h-0.4
		c-0.3,0-0.5-0.2-0.5-0.5l-0.8-9.8c-0.1-0.8-0.1-2-0.1-2h0c0,0-0.4,1.3-0.8,2l-3.3,7.2c-0.1,0.3-0.3,0.4-0.6,0.4H249
		c-0.3,0-0.5-0.1-0.6-0.4l-3.3-7.2c-0.3-0.7-0.8-2.1-0.8-2.1h0c0,0,0,1.3-0.1,2.1l-0.8,9.8c0,0.3-0.2,0.5-0.5,0.5h-0.4
		c-0.4,0-0.5-0.2-0.5-0.5L243.1,15.3"/>
	<path id="path14" class="st0" d="M266.7,23.6l-1.9-5.3c-0.2-0.7-0.5-1.9-0.5-1.9h0c0,0-0.3,1.2-0.6,1.9l-2,5.3H266.7z M263.3,15.2
		c0.1-0.3,0.3-0.4,0.6-0.4h0.7c0.3,0,0.5,0.1,0.6,0.4l5.1,13.7c0.1,0.4,0,0.6-0.4,0.6h-0.5c-0.3,0-0.5-0.1-0.6-0.4l-1.6-4.3h-5.9
		l-1.5,4.3c-0.1,0.3-0.3,0.4-0.6,0.4h-0.4c-0.4,0-0.5-0.2-0.4-0.6L263.3,15.2"/>
	<path id="path16" class="st0" d="M272.5,15.4c0-0.3,0.2-0.5,0.5-0.5h0.5c0.3,0,0.5,0.1,0.6,0.3l7.3,10.2c0.5,0.7,1.2,2,1.2,2h0
		c0,0-0.1-1.2-0.1-2V15.4c0-0.3,0.2-0.5,0.5-0.5h0.4c0.3,0,0.5,0.2,0.5,0.5V29c0,0.3-0.2,0.5-0.5,0.5H283c-0.3,0-0.5-0.1-0.6-0.3
		l-7.3-10.2c-0.5-0.7-1.2-2-1.2-2h0c0,0,0.1,1.2,0.1,2V29c0,0.3-0.2,0.5-0.5,0.5H273c-0.3,0-0.5-0.2-0.5-0.5V15.4"/>
	<path id="path18" class="st0" d="M294.4,14.6c2.6,0,4.3,1,4.9,1.6c0.3,0.2,0.3,0.5,0.1,0.7l-0.2,0.3c-0.2,0.3-0.4,0.3-0.7,0.1
		c-0.6-0.4-2-1.3-4.1-1.3c-3.6,0-5.9,2.7-5.9,6.1c0,3.5,2.3,6.4,6,6.4c2.2,0,3.7-1.1,4.4-1.6c0.3-0.2,0.5-0.2,0.7,0.1l0.2,0.2
		c0.2,0.3,0.2,0.5,0,0.7c-0.7,0.6-2.5,1.9-5.3,1.9c-4.5,0-7.4-3.4-7.4-7.7C287,17.8,290.1,14.6,294.4,14.6"/>
	<path id="path20" class="st0" d="M302.7,15.4c0-0.3,0.2-0.5,0.5-0.5h0.4c0.3,0,0.5,0.2,0.5,0.5v6.2h8.5v-6.2c0-0.3,0.2-0.5,0.5-0.5
		h0.4c0.3,0,0.5,0.2,0.5,0.5V29c0,0.3-0.2,0.5-0.5,0.5h-0.4c-0.3,0-0.5-0.2-0.5-0.5v-6.2h-8.5V29c0,0.3-0.2,0.5-0.5,0.5h-0.4
		c-0.3,0-0.5-0.2-0.5-0.5V15.4"/>
	<path id="path22" class="st0" d="M318.2,15.4c0-0.3,0.2-0.5,0.5-0.5h7.3c0.3,0,0.5,0.2,0.5,0.5v0.3c0,0.3-0.2,0.5-0.5,0.5h-6.3v5.4
		h5.1c0.3,0,0.5,0.2,0.5,0.5v0.3c0,0.3-0.2,0.5-0.5,0.5h-5.1v5.5h6.7c0.3,0,0.5,0.2,0.5,0.5V29c0,0.3-0.2,0.5-0.5,0.5h-7.6
		c-0.3,0-0.5-0.2-0.5-0.5V15.4"/>
	<path id="path24" class="st0" d="M328.7,27.5l0.3-0.3c0.2-0.3,0.4-0.3,0.7-0.1c0.5,0.4,1.7,1.3,3.4,1.3c1.8,0,3-1,3-2.5
		c0-3.7-7.3-2.8-7.3-7.4c0-2.4,2-3.9,4.6-3.9c1.8,0,3,0.7,3.6,1.2c0.3,0.2,0.3,0.4,0.1,0.7l-0.2,0.3c-0.2,0.3-0.5,0.3-0.7,0.1
		c-0.5-0.4-1.5-0.9-2.8-0.9c-1.7,0-3.1,0.9-3.1,2.5c0,3.5,7.3,2.6,7.3,7.3c0,2.3-1.7,4-4.5,4c-2.2,0-3.7-1-4.3-1.5
		C328.6,28,328.5,27.8,328.7,27.5"/>
	<path id="path26" class="st0" d="M343.9,16.1h-4.7c-0.3,0-0.5-0.2-0.5-0.5v-0.3c0-0.3,0.2-0.5,0.5-0.5h11c0.3,0,0.5,0.2,0.5,0.5
		v0.3c0,0.3-0.2,0.5-0.5,0.5h-4.8V29c0,0.3-0.2,0.5-0.5,0.5h-0.4c-0.3,0-0.5-0.2-0.5-0.5V16.1"/>
	<path id="path28" class="st0" d="M352.7,15.4c0-0.3,0.2-0.5,0.5-0.5h7.3c0.3,0,0.5,0.2,0.5,0.5v0.3c0,0.3-0.2,0.5-0.5,0.5h-6.3v5.4
		h5.1c0.3,0,0.5,0.2,0.5,0.5v0.3c0,0.3-0.2,0.5-0.5,0.5h-5.1v5.5h6.7c0.3,0,0.5,0.2,0.5,0.5V29c0,0.3-0.2,0.5-0.5,0.5h-7.6
		c-0.3,0-0.5-0.2-0.5-0.5V15.4"/>
	<path id="path30" class="st0" d="M369,22c1.8,0,2.9-1.2,2.9-3.1c0-1.2-0.6-2.1-1.5-2.6c-0.4-0.2-0.9-0.3-1.9-0.3h-2.9V22L369,22z
		 M364.1,15.4c0-0.3,0.2-0.5,0.5-0.5h4c1.4,0,2.1,0.1,2.7,0.4c1.3,0.6,2.2,1.9,2.2,3.7c0,2-1.1,3.6-2.8,4.1v0c0,0,0.1,0.2,0.4,0.6
		l2.9,5.3c0.2,0.4,0,0.6-0.4,0.6H373c-0.3,0-0.5-0.1-0.6-0.4l-3.1-5.8h-3.7V29c0,0.3-0.2,0.5-0.5,0.5h-0.4c-0.3,0-0.5-0.2-0.5-0.5
		V15.4"/>
	<path id="path32" class="st0" d="M242.5,35.5c0-0.3,0.2-0.5,0.5-0.5h0.4c0.3,0,0.5,0.2,0.5,0.5v13.7c0,0.3-0.2,0.5-0.5,0.5H243
		c-0.3,0-0.5-0.2-0.5-0.5V35.5"/>
	<path id="path34" class="st0" d="M247.9,35.5c0-0.3,0.2-0.5,0.5-0.5h0.5c0.3,0,0.5,0.1,0.6,0.3l7.3,10.2c0.5,0.7,1.2,2,1.2,2h0
		c0,0-0.1-1.2-0.1-2V35.5c0-0.3,0.2-0.5,0.5-0.5h0.4c0.3,0,0.5,0.2,0.5,0.5v13.7c0,0.3-0.2,0.5-0.5,0.5h-0.5c-0.3,0-0.5-0.1-0.6-0.3
		l-7.3-10.2c-0.5-0.7-1.2-2-1.2-2h0c0,0,0.1,1.2,0.1,2v10.1c0,0.3-0.2,0.5-0.5,0.5h-0.4c-0.3,0-0.5-0.2-0.5-0.5V35.5"/>
	<path id="path36" class="st0" d="M262.5,47.7l0.3-0.3c0.2-0.3,0.4-0.3,0.7-0.1c0.5,0.4,1.7,1.3,3.4,1.3c1.8,0,3-1,3-2.5
		c0-3.7-7.3-2.8-7.3-7.4c0-2.4,2-3.9,4.6-3.9c1.8,0,3,0.7,3.6,1.2c0.3,0.2,0.3,0.4,0.1,0.7l-0.2,0.3c-0.2,0.3-0.5,0.3-0.7,0.1
		c-0.5-0.4-1.5-0.9-2.8-0.9c-1.7,0-3.1,0.9-3.1,2.5c0,3.5,7.3,2.6,7.3,7.3c0,2.3-1.7,4-4.5,4c-2.2,0-3.7-1-4.3-1.5
		C262.4,48.2,262.3,48,262.5,47.7"/>
	<path id="path38" class="st0" d="M277.7,36.3h-4.7c-0.3,0-0.5-0.2-0.5-0.5v-0.3c0-0.3,0.2-0.5,0.5-0.5h11c0.3,0,0.5,0.2,0.5,0.5
		v0.3c0,0.3-0.2,0.5-0.5,0.5h-4.8v12.9c0,0.3-0.2,0.5-0.5,0.5h-0.4c-0.3,0-0.5-0.2-0.5-0.5V36.3"/>
	<path id="path40" class="st0" d="M286.5,35.5c0-0.3,0.2-0.5,0.5-0.5h0.4c0.3,0,0.5,0.2,0.5,0.5v13.7c0,0.3-0.2,0.5-0.5,0.5H287
		c-0.3,0-0.5-0.2-0.5-0.5V35.5"/>
	<path id="path42" class="st0" d="M295.2,36.3h-4.7c-0.3,0-0.5-0.2-0.5-0.5v-0.3c0-0.3,0.2-0.5,0.5-0.5h11c0.3,0,0.5,0.2,0.5,0.5
		v0.3c0,0.3-0.2,0.5-0.5,0.5h-4.8v12.9c0,0.3-0.2,0.5-0.5,0.5h-0.4c-0.3,0-0.5-0.2-0.5-0.5V36.3"/>
	<path id="path44" class="st0" d="M303.8,35.5c0-0.3,0.2-0.5,0.5-0.5h0.4c0.3,0,0.5,0.2,0.5,0.5v9c0,2.5,1.6,4,4.2,4
		c2.5,0,4.2-1.5,4.2-4.1v-9c0-0.3,0.2-0.5,0.5-0.5h0.4c0.3,0,0.5,0.2,0.5,0.5v9.1c0,3.3-2.3,5.4-5.6,5.4c-3.3,0-5.6-2.1-5.6-5.4
		L303.8,35.5"/>
	<path id="path46" class="st0" d="M322.2,36.3h-4.7c-0.3,0-0.5-0.2-0.5-0.5v-0.3c0-0.3,0.2-0.5,0.5-0.5h11c0.3,0,0.5,0.2,0.5,0.5
		v0.3c0,0.3-0.2,0.5-0.5,0.5h-4.8v12.9c0,0.3-0.2,0.5-0.5,0.5h-0.4c-0.3,0-0.5-0.2-0.5-0.5L322.2,36.3"/>
	<path id="path48" class="st0" d="M331,35.5c0-0.3,0.2-0.5,0.5-0.5h7.3c0.3,0,0.5,0.2,0.5,0.5v0.3c0,0.3-0.2,0.5-0.5,0.5h-6.3v5.4
		h5.1c0.3,0,0.5,0.2,0.5,0.5v0.3c0,0.3-0.2,0.5-0.5,0.5h-5.1v5.5h6.7c0.3,0,0.5,0.2,0.5,0.5v0.3c0,0.3-0.2,0.5-0.5,0.5h-7.6
		c-0.3,0-0.5-0.2-0.5-0.5V35.5"/>
</g>
</svg>
