<?xml version="1.0" encoding="UTF-8" standalone="no"?>
<svg
   xmlns:dc="http://purl.org/dc/elements/1.1/"
   xmlns:cc="http://creativecommons.org/ns#"
   xmlns:rdf="http://www.w3.org/1999/02/22-rdf-syntax-ns#"
   xmlns:svg="http://www.w3.org/2000/svg"
   xmlns="http://www.w3.org/2000/svg"
   viewBox="0 0 214.54668 244.98666"
   height="244.98666"
   width="214.54668"
   xml:space="preserve"
   id="svg2"
   version="1.1"><metadata
     id="metadata8"><rdf:RDF><cc:Work
         rdf:about=""><dc:format>image/svg+xml</dc:format><dc:type
           rdf:resource="http://purl.org/dc/dcmitype/StillImage" /></cc:Work></rdf:RDF></metadata><defs
     id="defs6" /><g
     transform="matrix(1.3333333,0,0,-1.3333333,0,244.98667)"
     id="g10"><g
       transform="scale(0.1)"
       id="g12"><path
         id="path14"
         style="fill:#231f20;fill-opacity:1;fill-rule:nonzero;stroke:none"
         d="M 624.73,1586.7 V 1183.39 H 395.273 v 86.28 h 86.75 l 86.223,86.2 v 115.18 H 452.648 v -85.81 H 395.273 V 1586.7 H 221.855 v -115.65 h 57.399 v -85.81 H 164.512 v 288.56 h 288.136 v -87.1 h 115.598 v 115.14 l -86.223,86.69 h -346.39 l -86.7228,-86.69 v -345.97 l 86.7228,-86.2 h 143.621 v -115.22 l 87.594,-86.68 h 287.23 l 87.594,86.68 v 316.6 h 56.461 V 1586.7 Z M 353.941,1036.94 h 313.012 l 105.684,104.4 v 298.74 h 56.574 v 177.56 H 599.098 v 97.16 L 494.723,1819.35 H 122.668 L 18.0039,1714.83 V 1343.37 L 122.668,1238.94 h 125.789 v -97.54 z m 320.414,-18 H 346.566 l -116.113,114.91 v 87.08 H 115.207 L 0,1335.88 v 386.41 l 115.207,115.06 h 387.008 l 114.887,-115.18 v -86.53 H 847.215 V 1422.07 H 790.641 V 1133.82 L 674.355,1018.94" /><path
         id="path16"
         style="fill:#231f20;fill-opacity:1;fill-rule:nonzero;stroke:none"
         d="m 22.2227,933.258 h 21.7578 v -141.43 c -0.3242,-53.117 24.957,-73.277 66.8745,-73.277 42.239,0 67.516,20.16 67.192,73.277 v 141.43 h 21.758 V 787.031 C 199.805,740 174.527,700 110.855,700 47.4961,700 22.2227,740 22.2227,787.031 v 146.227" /><path
         id="path18"
         style="fill:#231f20;fill-opacity:1;fill-rule:nonzero;stroke:none"
         d="m 239.496,869.902 h 20.164 v -28.48 h 0.641 c 7.355,19.844 29.437,33.281 52.797,33.281 46.394,0 60.472,-24.316 60.472,-63.672 v -106.23 h -20.16 v 103.027 c 0,28.473 -9.277,49.922 -41.914,49.922 -32,0 -51.195,-24.32 -51.836,-56.641 v -96.308 h -20.164 v 165.101" /><path
         id="path20"
         style="fill:#231f20;fill-opacity:1;fill-rule:nonzero;stroke:none"
         d="m 411.973,869.902 h 20.164 V 704.801 h -20.164 z m 0,63.356 h 20.164 v -32.317 h -20.164 v 32.317" /><path
         id="path22"
         style="fill:#231f20;fill-opacity:1;fill-rule:nonzero;stroke:none"
         d="m 452.297,869.902 h 22.394 l 51.836,-144.941 h 0.641 l 51.195,144.941 h 20.805 L 537.406,704.801 h -21.433 l -63.676,165.101" /><path
         id="path24"
         style="fill:#231f20;fill-opacity:1;fill-rule:nonzero;stroke:none"
         d="m 737.727,798.859 c -0.961,30.411 -19.84,58.891 -52.477,58.891 -32.957,0 -51.195,-28.809 -54.395,-58.891 z M 630.855,781.91 c 0.317,-29.43 15.68,-64.961 54.395,-64.961 29.438,0 45.434,17.281 51.836,42.242 h 20.156 C 748.605,721.75 726.848,700 685.25,700 c -52.477,0 -74.555,40.309 -74.555,87.352 0,43.507 22.078,87.351 74.555,87.351 53.113,0 74.234,-46.394 72.633,-92.793 H 630.855" /><path
         id="path26"
         style="fill:#231f20;fill-opacity:1;fill-rule:nonzero;stroke:none"
         d="m 785.094,869.902 h 18.554 v -38.711 h 0.645 c 10.234,26.559 32.637,42.231 62.395,40.954 v -20.157 c -36.477,1.914 -61.438,-24.957 -61.438,-59.199 v -87.988 h -20.156 v 165.101" /><path
         id="path28"
         style="fill:#231f20;fill-opacity:1;fill-rule:nonzero;stroke:none"
         d="m 984.766,821.59 c -0.957,24.949 -20.157,36.16 -43.203,36.16 -17.911,0 -39.024,-7.051 -39.024,-28.48 0,-17.93 20.469,-24.321 34.238,-27.848 l 26.875,-6.07 c 23.028,-3.524 47.028,-16.961 47.028,-45.762 0,-35.828 -35.504,-49.59 -66.227,-49.59 -38.398,0 -64.64,17.922 -67.836,58.238 h 20.16 c 1.602,-27.207 21.758,-41.289 48.633,-41.289 18.887,0 45.117,8.321 45.117,31.371 0,19.192 -17.929,25.59 -36.152,30.071 l -25.918,5.769 c -26.25,7.031 -46.078,15.988 -46.078,44.149 0,33.601 32.953,46.394 62.074,46.394 32.949,0 59.197,-17.285 60.467,-53.113 h -20.154" /><path
         id="path30"
         style="fill:#231f20;fill-opacity:1;fill-rule:nonzero;stroke:none"
         d="m 1040.14,869.902 h 20.15 V 704.801 h -20.15 z m 0,63.356 h 20.15 v -32.317 h -20.15 v 32.317" /><path
         id="path32"
         style="fill:#231f20;fill-opacity:1;fill-rule:nonzero;stroke:none"
         d="m 1131.02,869.902 h 33.59 v -16.957 h -33.59 V 741.602 c 0,-13.133 1.91,-20.801 16.31,-21.762 5.76,0 11.52,0.308 17.28,0.961 v -17.289 c -6.09,0 -11.84,-0.633 -17.93,-0.633 -26.87,0 -36.15,8.949 -35.84,37.121 v 112.945 h -28.79 v 16.957 h 28.79 v 49.594 h 20.18 v -49.594" /><path
         id="path34"
         style="fill:#231f20;fill-opacity:1;fill-rule:nonzero;stroke:none"
         d="m 1175.18,869.902 h 21.42 l 54.4,-140.781 50.88,140.781 h 20.15 L 1250.35,679.52 c -11.5,-27.848 -18.22,-35.829 -43.51,-35.829 -7.99,0.309 -12.15,0.309 -15.35,1.59 v 16.957 c 4.8,-0.957 9.27,-1.597 13.76,-1.597 17.92,0 22.08,10.558 28.79,25.918 l 7.04,18.871 -65.9,164.472" /><path
         id="path36"
         style="fill:#231f20;fill-opacity:1;fill-rule:nonzero;stroke:none"
         d="m 32.4609,437.352 c 0,-35.204 19.1954,-70.403 57.9141,-70.403 38.719,0 57.918,35.199 57.918,70.403 0,35.187 -19.199,70.398 -57.918,70.398 -38.7187,0 -57.9141,-35.211 -57.9141,-70.398 z m 135.9881,0 C 168.449,390 140.934,350 90.375,350 c -50.5547,0 -78.0742,40 -78.0742,87.352 0,47.347 27.5195,87.347 78.0742,87.347 50.559,0 78.074,-40 78.074,-87.347" /><path
         id="path38"
         style="fill:#231f20;fill-opacity:1;fill-rule:nonzero;stroke:none"
         d="m 262.219,502.941 h -32.645 v -148.14 h -20.152 v 148.14 h -28.16 v 16.957 h 28.16 v 15.043 c -0.324,28.469 7.68,48.321 39.992,48.321 5.762,0 10.563,-0.321 16.957,-1.282 v -17.281 c -5.437,0.961 -9.914,1.602 -14.715,1.602 -22.398,0 -21.758,-14.082 -22.082,-32 v -14.403 h 32.645 v -16.957" /><path
         id="path40"
         style="fill:#231f20;fill-opacity:1;fill-rule:nonzero;stroke:none"
         d="m 541.246,514.148 c -7.68,35.192 -36.801,55.352 -70.078,55.352 -60.473,0 -86.074,-50.559 -86.074,-100.469 0,-49.91 25.601,-100.48 86.074,-100.48 42.234,0 69.117,32.64 73.277,73.277 h 21.758 C 560.121,385.84 524.605,350 471.168,350 c -71.992,0 -107.832,56.641 -107.832,119.031 0,62.391 35.84,119.028 107.832,119.028 43.199,0 86.074,-25.918 91.836,-73.911 h -21.758" /><path
         id="path42"
         style="fill:#231f20;fill-opacity:1;fill-rule:nonzero;stroke:none"
         d="m 607.496,437.352 c 0,-35.204 19.195,-70.403 57.914,-70.403 38.719,0 57.914,35.199 57.914,70.403 0,35.187 -19.195,70.398 -57.914,70.398 -38.719,0 -57.914,-35.211 -57.914,-70.398 z m 135.984,0 C 743.48,390 715.969,350 665.41,350 c -50.555,0 -78.074,40 -78.074,87.352 0,47.347 27.519,87.347 78.074,87.347 50.559,0 78.07,-40 78.07,-87.347" /><path
         id="path44"
         style="fill:#231f20;fill-opacity:1;fill-rule:nonzero;stroke:none"
         d="m 773.895,354.801 h 20.1563 V 583.262 H 773.895 Z" /><path
         id="path46"
         style="fill:#231f20;fill-opacity:1;fill-rule:nonzero;stroke:none"
         d="m 844.605,437.352 c 0,-35.204 19.2,-70.403 57.915,-70.403 38.71,0 57.91,35.199 57.91,70.403 0,35.187 -19.2,70.398 -57.91,70.398 -38.715,0 -57.915,-35.211 -57.915,-70.398 z m 136,0 C 980.605,390 953.086,350 902.52,350 c -50.551,0 -78.071,40 -78.071,87.352 0,47.347 27.52,87.347 78.071,87.347 50.566,0 78.085,-40 78.085,-87.347" /><path
         id="path48"
         style="fill:#231f20;fill-opacity:1;fill-rule:nonzero;stroke:none"
         d="m 1010.68,519.898 h 18.56 v -38.707 h 0.64 c 10.24,26.559 32.64,42.231 62.41,40.95 v -20.153 c -36.49,1.91 -61.45,-24.957 -61.45,-59.199 v -87.988 h -20.16 v 165.097" /><path
         id="path50"
         style="fill:#231f20;fill-opacity:1;fill-rule:nonzero;stroke:none"
         d="m 1217.07,445.031 h -0.64 c -2.56,-4.801 -11.51,-6.402 -16.96,-7.359 -34.23,-6.082 -76.79,-5.762 -76.79,-38.082 0,-20.16 17.93,-32.641 36.79,-32.641 30.73,0 57.91,19.531 57.6,51.832 z m -107.52,24.321 c 1.94,38.707 29.12,55.347 66.88,55.347 29.12,0 60.8,-8.961 60.8,-53.109 v -87.68 c 0,-7.672 3.85,-12.16 11.83,-12.16 2.25,0 4.81,0.648 6.41,1.281 V 356.07 c -4.47,-0.961 -7.68,-1.269 -13.13,-1.269 -20.46,0 -23.67,11.508 -23.67,28.789 h -0.64 C 1203.95,362.148 1189.55,350 1157.87,350 c -30.39,0 -55.35,15.031 -55.35,48.32 0,46.379 45.12,47.981 88.63,53.102 16.64,1.93 25.92,4.156 25.92,22.398 0,27.211 -19.51,33.93 -43.2,33.93 -24.94,0 -43.52,-11.52 -44.14,-38.398 h -20.18" /><path
         id="path52"
         style="fill:#231f20;fill-opacity:1;fill-rule:nonzero;stroke:none"
         d="m 1344.75,366.949 c 42.87,0 57.91,36.16 57.91,70.403 0,34.238 -15.04,70.398 -57.91,70.398 -38.4,0 -54.09,-36.16 -54.09,-70.398 0,-34.243 15.69,-70.403 54.09,-70.403 z m 78.08,-12.148 h -18.57 v 31.347 h -0.63 C 1394.98,364.711 1368.75,350 1344.75,350 c -50.24,0 -74.24,40.629 -74.24,87.352 0,46.718 24,87.347 74.24,87.347 24.65,0 48.63,-12.48 57.28,-36.148 h 0.63 v 94.711 h 20.17 V 354.801" /><path
         id="path54"
         style="fill:#231f20;fill-opacity:1;fill-rule:nonzero;stroke:none"
         d="m 1473.07,437.352 c 0,-35.204 19.2,-70.403 57.91,-70.403 38.71,0 57.91,35.199 57.91,70.403 0,35.187 -19.2,70.398 -57.91,70.398 -38.71,0 -57.91,-35.211 -57.91,-70.398 z m 135.99,0 C 1609.06,390 1581.54,350 1530.98,350 c -50.55,0 -78.07,40 -78.07,87.352 0,47.347 27.52,87.347 78.07,87.347 50.56,0 78.08,-40 78.08,-87.347" /><path
         id="path56"
         style="fill:#231f20;fill-opacity:1;fill-rule:nonzero;stroke:none"
         d="m 46.2188,23.3516 h 74.8752 c 32.316,-0.3203 60.156,10.5586 60.156,47.039 0,29.1211 -22.078,44.1604 -60.156,44.1604 H 46.2188 Z m 0,109.7504 h 74.8752 c 34.879,0 51.515,17.289 51.515,38.718 0,28.489 -17.597,42.879 -51.515,42.879 H 46.2188 Z m -21.7579,100.16 h 96.6331 c 38.394,0 73.273,-13.442 73.273,-56 0,-23.992 -15.996,-46.071 -39.679,-51.192 v -0.648 c 29.441,-3.832 48.32,-25.9103 48.32,-55.672 0,-21.7617 -7.68,-64.94922 -81.914,-64.94922 H 24.4609 V 233.262" /><path
         id="path58"
         style="fill:#231f20;fill-opacity:1;fill-rule:nonzero;stroke:none"
         d="m 245.898,87.3516 c 0,-35.2032 19.196,-70.4024 57.915,-70.4024 38.718,0 57.917,35.1992 57.917,70.4024 0,35.1874 -19.199,70.3984 -57.917,70.3984 -38.719,0 -57.915,-35.211 -57.915,-70.3984 z m 135.989,0 C 381.887,40 354.371,0 303.813,0 c -50.555,0 -78.075,40 -78.075,87.3516 0,47.3474 27.52,87.3474 78.075,87.3474 50.558,0 78.074,-40 78.074,-87.3474" /><path
         id="path60"
         style="fill:#231f20;fill-opacity:1;fill-rule:nonzero;stroke:none"
         d="M 545.727,4.80078 H 527.168 V 34.5508 h -0.641 C 515.973,12.4805 494.211,0 469.574,0 427.977,0 411.656,24.3086 411.656,62.7109 V 169.898 h 20.16 V 62.3984 c 0.957,-29.7695 12.161,-45.4492 44.157,-45.4492 34.558,0 49.593,32.6406 49.593,66.2422 v 86.7066 h 20.161 V 4.80078" /><path
         id="path62"
         style="fill:#231f20;fill-opacity:1;fill-rule:nonzero;stroke:none"
         d="m 584.133,4.80078 h 20.1602 v 228.461 H 584.133 Z" /><path
         id="path64"
         style="fill:#231f20;fill-opacity:1;fill-rule:nonzero;stroke:none"
         d="m 710.207,16.9492 c 42.879,0 57.914,36.1602 57.914,70.4024 0,34.2384 -15.035,70.3984 -57.914,70.3984 -38.394,0 -54.074,-36.16 -54.074,-70.3984 0,-34.2422 15.68,-70.4024 54.074,-70.4024 z M 788.285,4.80078 H 769.723 V 36.1484 H 769.09 C 760.445,14.7109 734.203,0 710.207,0 c -50.234,0 -74.234,40.6289 -74.234,87.3516 0,46.7184 24,87.3474 74.234,87.3474 24.637,0 48.637,-12.48 57.277,-36.148 h 0.637 v 94.711 h 20.164 V 4.80078" /><path
         id="path66"
         style="fill:#231f20;fill-opacity:1;fill-rule:nonzero;stroke:none"
         d="m 945.41,98.8594 c -0.957,30.4106 -19.844,58.8906 -52.48,58.8906 -32.953,0 -51.196,-28.809 -54.399,-58.8906 z M 838.531,81.9102 c 0.324,-29.4297 15.684,-64.961 54.399,-64.961 29.433,0 45.429,17.2813 51.836,42.2422 h 20.156 C 956.289,21.75 934.531,0 892.93,0 c -52.477,0 -74.555,40.3086 -74.555,87.3516 0,43.5074 22.078,87.3474 74.555,87.3474 53.125,0 74.238,-46.39 72.636,-92.7888 H 838.531" /><path
         id="path68"
         style="fill:#231f20;fill-opacity:1;fill-rule:nonzero;stroke:none"
         d="m 992.773,169.898 h 18.557 v -38.707 h 0.64 c 10.24,26.559 32.64,42.231 62.39,40.95 v -20.153 c -36.47,1.91 -61.43,-24.957 -61.43,-59.1989 V 4.80078 H 992.773 V 169.898" /></g></g></svg>