<?xml version="1.0" encoding="utf-8"?>
<!-- Generator: Adobe Illustrator 16.0.0, SVG Export Plug-In . SVG Version: 6.00 Build 0)  -->
<!DOCTYPE svg PUBLIC "-//W3C//DTD SVG 1.1//EN" "http://www.w3.org/Graphics/SVG/1.1/DTD/svg11.dtd">
<svg version="1.1" id="Layer_1" xmlns="http://www.w3.org/2000/svg" xmlns:xlink="http://www.w3.org/1999/xlink" x="0px" y="0px"
	 width="480px" height="339px" viewBox="0 0 480 339" enable-background="new 0 0 480 339" xml:space="preserve">
<g>
	<path fill-rule="evenodd" clip-rule="evenodd" fill="#FFFFFF" d="M86.375,218.798c0-0.994,0.016-1.988-0.005-2.982
		c-0.017-0.812,0.149-1.592,0.262-2.389c0.161-1.127,0.469-2.25,0.463-3.385c-0.005-1.262,0.452-2.426,0.582-3.645
		c0.16-1.514,0.84-2.906,0.934-4.424c0.016-0.26,0.118-0.479,0.216-0.705c0.38-0.887,0.612-1.814,0.712-2.773
		c0.027-0.258,0.07-0.488,0.246-0.684c0.042-0.045,0.094-0.102,0.099-0.156c0.105-1.115,0.925-2.01,0.971-3.143
		c0.005-0.123,0.003-0.264,0.063-0.363c0.905-1.484,1.016-3.309,2.038-4.742c0.052-0.076,0.105-0.168,0.109-0.254
		c0.047-1.365,0.848-2.422,1.446-3.564c0.229-0.436,0.462-0.887,0.589-1.361c0.236-0.873,0.706-1.646,0.999-2.494
		c0.294-0.848,0.709-1.637,1.161-2.412c0.374-0.639,0.635-1.336,0.974-1.998c0.463-0.904,0.949-1.801,1.389-2.717
		c0.506-1.057,1-2.127,1.605-3.127c0.801-1.323,1.405-2.751,2.244-4.063c0.671-1.049,1.332-2.145,1.753-3.344
		c0.031-0.086,0.062-0.187,0.126-0.245c0.861-0.796,1.136-1.968,1.842-2.871c0.338-0.432,0.462-1,0.733-1.491
		c0.853-1.546,1.858-2.997,2.729-4.532c0.647-1.141,1.271-2.338,2.199-3.317c0.386-0.405,0.58-0.957,0.834-1.445
		c0.434-0.831,1.06-1.527,1.501-2.343c1.016-1.878,2.354-3.549,3.425-5.39c0.193-0.332,0.519-0.538,0.706-0.861
		c0.944-1.623,2.13-3.078,3.203-4.611c1.346-1.924,2.567-3.944,4.079-5.744c1.016-1.208,1.926-2.501,2.852-3.761
		c0.889-1.209,1.921-2.334,2.641-3.688c0.396-0.743,1.115-1.31,1.646-1.988c0.456-0.581,0.956-1.124,1.334-1.775
		c0.404-0.692,1.08-1.181,1.562-1.833c0.881-1.188,1.752-2.402,2.778-3.459c1.151-1.184,2.015-2.583,3.115-3.805
		c1.32-1.467,2.65-2.933,3.855-4.508c0.862-1.126,1.938-2.086,2.851-3.176c0.749-0.894,1.742-1.573,2.277-2.662
		c0.169-0.344,0.512-0.612,0.805-0.883c1.598-1.476,3.003-3.138,4.489-4.72c1.125-1.197,2.214-2.434,3.418-3.55
		c2.212-2.051,4.224-4.303,6.425-6.366c1.306-1.224,2.503-2.562,3.763-3.835c1.239-1.253,2.552-2.425,3.874-3.591
		c0.433-0.382,0.866-0.778,1.279-1.191c1.181-1.182,2.355-2.364,3.764-3.299c0.38-0.252,0.699-0.677,1.044-1.023
		c1.44-1.442,2.995-2.752,4.598-4.009c0.535-0.419,1.029-0.891,1.539-1.339c1.23-1.084,2.438-2.188,3.763-3.164
		c0.816-0.601,1.52-1.358,2.338-1.956c1.199-0.877,2.238-1.941,3.445-2.813c1.575-1.138,3.061-2.399,4.609-3.576
		c1.273-0.967,2.532-1.954,3.872-2.839c0.712-0.47,1.354-1.073,2.04-1.601c0.906-0.697,1.847-1.343,2.793-1.981
		c0.64-0.43,1.247-0.916,1.843-1.39c1.094-0.872,2.289-1.576,3.435-2.359c1.02-0.696,2.053-1.374,3.081-2.058
		c1.286-0.856,2.564-1.725,3.855-2.574c1.056-0.695,2.18-1.284,3.196-2.043c0.819-0.611,1.795-1.004,2.609-1.599
		c1.482-1.082,3.208-1.733,4.675-2.832c0.714-0.535,1.515-0.984,2.33-1.344c1-0.44,1.87-1.096,2.83-1.571
		c1.524-0.754,2.958-1.666,4.49-2.406c1.275-0.616,2.533-1.27,3.824-1.851c0.896-0.404,1.742-0.918,2.716-1.186
		c0.768-0.211,1.482-0.625,2.209-0.97c1.059-0.503,2.141-0.936,3.254-1.319c0.984-0.339,1.971-0.76,2.958-1.074
		c1.348-0.428,2.658-1.016,4.078-1.218c0.092-0.013,0.193-0.006,0.275-0.043c1.674-0.742,3.49-0.945,5.25-1.338
		c1.559-0.347,3.104-0.792,4.75-0.732c1.029,0.038,2.066-0.328,3.109-0.413c2.537-0.206,5.086-0.212,7.619-0.002
		c1.285,0.106,2.561,0.356,3.854,0.446c0.566,0.039,1.082,0.257,1.629,0.35c1.615,0.274,3.195,0.688,4.752,1.177
		c1.525,0.478,3.039,0.996,4.527,1.582c0.592,0.234,1.141,0.604,1.742,0.852c1.541,0.633,2.904,1.62,4.451,2.242
		c0.258,0.102,0.521,0.25,0.701,0.45c0.604,0.665,1.449,0.944,2.174,1.414c0.986,0.639,1.945,1.31,2.852,2.065
		c0.566,0.472,1.197,0.872,1.82,1.275c0.996,0.645,1.662,1.67,2.67,2.299c0.639,0.399,1.123,0.97,1.668,1.477
		c1.492,1.394,2.887,2.886,4.33,4.331c0.682,0.681,1.338,1.376,1.873,2.183c0.322,0.489,0.83,0.804,1.219,1.248
		c1.201,1.376,2.26,2.86,3.404,4.28c0.619,0.771,1.26,1.526,1.844,2.321c0.951,1.287,1.955,2.548,2.762,3.923
		c0.656,1.118,1.633,2.016,2.117,3.245c0.131,0.329,0.506,0.553,0.68,0.874c0.658,1.214,1.635,2.228,2.188,3.517
		c0.162,0.378,0.553,0.658,0.826,0.993c0.578,0.704,0.744,1.637,1.283,2.358c1.15,1.542,1.877,3.336,2.984,4.905
		c0.641,0.906,1.102,1.929,1.609,2.92c0.416,0.815,0.906,1.601,1.404,2.378c0.662,1.035,1.209,2.146,1.758,3.252
		c0.783,1.579,1.625,3.127,2.467,4.676c0.379,0.693,0.703,1.449,1.084,2.142c0.426,0.773,0.668,1.643,1.238,2.348
		c0.322,0.399,0.338,0.963,0.637,1.419c0.436,0.665,0.713,1.433,1.057,2.155c0.609,1.275,1.232,2.545,1.826,3.828
		c0.621,1.346,1.318,2.654,1.947,3.997c0.443,0.942,0.777,1.928,1.215,2.872c0.785,1.704,1.746,3.345,2.301,5.14
		c0.307,0.987,0.785,1.878,1.199,2.8c0.445,0.992,0.625,2.078,1.17,3.025c0.916,1.594,1.346,3.387,2.049,5.068
		c0.549,1.309,1.146,2.615,1.592,3.953c0.68,2.043,1.51,4.026,2.201,6.059c0.33,0.979,0.742,1.936,1.029,2.943
		c0.332,1.171,0.676,2.367,1.182,3.502c0.369,0.837,0.602,1.747,0.881,2.625c0.316,0.997,0.77,1.957,0.932,3.002
		c0.033,0.217,0.129,0.409,0.264,0.588c0.109,0.147,0.242,0.317,0.26,0.488c0.203,2.049,1.178,3.882,1.643,5.864
		c0.291,1.243,0.664,2.509,1.209,3.691c0.148,0.319,0.162,0.656,0.246,0.983c0.404,1.582,0.807,3.165,1.275,4.727
		c0.146,0.484,0.053,1.015,0.287,1.446c0.639,1.165,0.799,2.464,1.084,3.72c0.338,1.471,0.832,2.905,1.07,4.402
		c0.053,0.333,0.229,0.643,0.307,0.974c0.176,0.746,0.291,1.526,0.494,2.24c0.387,1.367,0.535,2.78,0.92,4.125
		c0.436,1.516,0.773,3.061,1.117,4.584c0.348,1.555,0.729,3.121,0.883,4.725c0.053,0.549,0.244,1.082,0.355,1.627
		c0.447,2.17,0.836,4.354,1.215,6.533c0.311,1.787,0.736,3.562,0.857,5.387c0.049,0.762,0.338,1.5,0.43,2.27
		c0.143,1.191,0.297,2.385,0.49,3.57c0.172,1.066,0.41,2.125,0.451,3.203c0.059,1.641,0.555,3.213,0.697,4.85
		c0.164,1.93,0.131,3.891,0.662,5.787c0.123,0.432,0.057,0.926,0.043,1.391c-0.037,1.088,0.143,2.148,0.307,3.221
		c0.109,0.727,0.164,1.477,0.277,2.203c0.17,1.07,0.047,2.164,0.312,3.221c0.029,0.119,0.064,0.26,0.031,0.369
		c-0.268,0.887-0.041,1.768-0.018,2.656c0.023,0.84,0.08,1.676,0.248,2.488c0.137,0.65,0.094,1.293,0.16,1.936
		c0.23,2.258,0.029,4.531,0.207,6.781c0.307,3.879,0.156,7.756,0.105,11.633c-0.023,1.664,0,3.346-0.16,5.008
		c-0.15,1.531-0.26,3.07-0.471,4.596c-0.121,0.879-0.295,1.777-0.242,2.674c0.098,1.723-0.156,3.396-0.619,5.047
		c-0.053,0.176-0.141,0.363-0.125,0.537c0.16,1.551-0.451,2.982-0.684,4.471c-0.316,2.018-0.871,3.975-1.449,5.932
		c-0.244,0.826-0.607,1.656-0.725,2.465c-0.154,1.096-0.871,1.969-0.928,3.072c-0.025,0.547-0.613,0.943-0.66,1.514
		c-0.039,0.48-0.209,0.896-0.41,1.318c-0.809,1.705-1.566,3.434-2.514,5.07c-0.23,0.398-0.416,0.838-0.559,1.273
		c-0.164,0.516-0.42,0.951-0.768,1.365c-0.762,0.893-1.277,1.949-1.883,2.951c-0.365,0.605-0.793,1.178-1.236,1.734
		c-1.102,1.373-2.059,2.869-3.41,4.037c-0.49,0.424-0.799,1.018-1.277,1.471c-0.721,0.682-1.471,1.326-2.268,1.91
		c-0.357,0.264-0.555,0.662-0.906,0.924c-0.865,0.652-1.73,1.293-2.566,1.975c-1.299,1.059-2.752,1.883-4.129,2.818
		c-0.619,0.422-1.34,0.631-1.975,1.018c-0.994,0.609-1.998,1.229-3.064,1.68c-0.705,0.297-1.346,0.76-2.127,0.885
		c-0.533,0.086-0.914,0.502-1.393,0.725c-1.801,0.844-3.703,1.404-5.584,1.996c-2.113,0.666-4.205,1.445-6.422,1.756
		c-0.395,0.055-0.777,0.211-1.156,0.344c-1.174,0.41-2.438,0.377-3.621,0.742c-1.689,0.521-3.467,0.51-5.195,0.854
		c-1.369,0.277-2.785,0.531-4.227,0.479c-0.85-0.027-1.721,0.139-2.562,0.311c-0.846,0.17-1.705,0.229-2.549,0.201
		c-1.586-0.043-3.152,0.178-4.73,0.215c-1.795,0.043-3.592,0.139-5.381,0.234c-1.236,0.066-2.473,0.082-3.709,0.135
		c-0.832,0.035-1.674,0.102-2.494,0.119c-0.941,0.02-1.912,0.133-2.834,0.018c-1.025-0.125-2.039-0.129-3.057-0.131
		c-2.295-0.006-4.586-0.139-6.873-0.24c-2.906-0.127-5.807-0.334-8.717-0.34c-0.918-0.006-1.838-0.189-2.754-0.316
		c-0.705-0.098-1.42-0.117-2.119-0.176c-1.014-0.086-2.02-0.291-3.049-0.254c-1.58,0.061-3.129-0.279-4.691-0.475
		c-1.008-0.123-2.014-0.334-3.043-0.256c-0.904,0.066-1.785-0.078-2.666-0.285c-0.66-0.154-1.35-0.209-2.016-0.25
		c-1.891-0.109-3.736-0.439-5.574-0.854c-0.15-0.035-0.303-0.1-0.451-0.096c-1.784,0.078-3.479-0.545-5.22-0.684
		c-1.617-0.131-3.146-0.625-4.737-0.799c-2.273-0.248-4.504-0.701-6.722-1.254c-0.612-0.15-1.263-0.307-1.922-0.258
		c-0.154,0.012-0.336,0.041-0.462-0.02c-1.134-0.574-2.405-0.518-3.596-0.818c-1.199-0.303-2.393-0.584-3.632-0.674
		c-0.301-0.02-0.607-0.141-0.882-0.273c-0.341-0.164-0.692-0.297-1.061-0.326c-1.455-0.113-2.783-0.807-4.248-0.9
		c-0.703-0.045-1.303-0.557-2.04-0.586c-1.491-0.055-2.835-0.812-4.327-0.916c-0.438-0.029-0.844-0.404-1.291-0.494
		c-2.056-0.422-4.06-1.035-6.088-1.561c-1.732-0.445-3.455-0.928-5.165-1.457c-1.943-0.604-3.921-1.094-5.85-1.734
		c-0.989-0.33-2.032-0.52-2.962-1.029c-0.161-0.09-0.347-0.141-0.528-0.18c-1.726-0.357-3.363-0.994-5.016-1.586
		c-2.083-0.748-4.191-1.422-6.289-2.127c-0.527-0.18-1.081-0.285-1.535-0.645c-0.116-0.092-0.277-0.152-0.424-0.174
		c-1.086-0.141-2.017-0.756-3.077-0.998c-0.683-0.152-1.319-0.508-1.977-0.773c-1.459-0.584-2.902-1.217-4.383-1.742
		c-1.84-0.66-3.582-1.547-5.41-2.227c-1.07-0.398-2.104-0.889-3.171-1.291c-1.741-0.654-3.389-1.51-5.081-2.266
		c-1.55-0.695-3.158-1.248-4.663-2.047c-1.611-0.852-3.292-1.572-4.914-2.395c-2.226-1.137-4.491-2.191-6.689-3.383
		c-1.466-0.791-2.97-1.529-4.494-2.219c-1.259-0.576-2.477-1.275-3.609-2.094c-0.224-0.164-0.476-0.295-0.73-0.408
		c-1.393-0.617-2.684-1.428-3.983-2.207c-1.639-0.986-3.294-1.949-4.915-2.969c-1.989-1.254-3.995-2.482-5.929-3.82
		c-1.321-0.914-2.627-1.85-3.92-2.801c-1.238-0.914-2.487-1.814-3.665-2.801c-1.302-1.09-2.715-2.051-3.946-3.215
		c-2.141-2.016-4.176-4.146-6.278-6.207c-1.333-1.303-2.434-2.801-3.597-4.246c-0.601-0.744-1.208-1.486-1.771-2.26
		c-0.618-0.85-1.233-1.707-1.762-2.611c-0.314-0.537-0.683-1.033-1.014-1.551c-0.85-1.332-1.438-2.791-2.208-4.158
		c-0.453-0.805-0.635-1.746-1.292-2.451c-0.293-0.314-0.316-0.801-0.444-1.203c-0.335-1.053-0.882-2.021-1.133-3.109
		c-0.194-0.836-0.586-1.633-0.727-2.475c-0.265-1.574-0.977-3.066-0.857-4.707c0.011-0.154,0.028-0.328-0.03-0.463
		c-0.472-1.1-0.301-2.326-0.682-3.445c-0.076-0.227-0.03-0.492-0.03-0.74C86.374,221.284,86.375,220.04,86.375,218.798z
		 M304.52,314.7c3.422,0.139,7.639-0.119,11.857-0.188c0.125,0,0.254,0.014,0.371-0.018c1.301-0.344,2.65-0.201,3.967-0.303
		c1.82-0.137,3.635-0.311,5.447-0.475c0.789-0.072,1.596-0.107,2.393-0.242c1.057-0.184,2.133-0.383,3.207-0.422
		c1.154-0.047,2.277-0.252,3.391-0.469c2.33-0.453,4.658-0.928,6.951-1.582c3.279-0.936,6.523-1.984,9.619-3.41
		c3.693-1.699,7.279-3.613,10.479-6.158c1.064-0.848,2.102-1.734,3.09-2.664c0.539-0.508,0.955-1.137,1.492-1.654
		c0.969-0.928,1.719-2.037,2.457-3.139c1.689-2.529,3.182-5.168,4.395-7.965c1.299-2.992,2.41-6.041,3.256-9.189
		c0.834-3.1,1.479-6.238,1.914-9.43c0.25-1.861,0.477-3.729,0.672-5.596c0.174-1.656,0.248-3.326,0.371-4.988
		c0.115-1.572,0.021-3.156,0.195-4.734c0.098-0.891,0.037-1.801,0.016-2.703c-0.09-4.061,0.172-8.127-0.16-12.189
		c-0.139-1.727-0.098-3.467-0.168-5.199c-0.066-1.607-0.332-3.209-0.234-4.822c0.006-0.092-0.006-0.189-0.027-0.279
		c-0.289-1.211-0.17-2.459-0.305-3.688c-0.115-1.07-0.205-2.154-0.273-3.234c-0.047-0.732-0.041-1.486-0.174-2.215
		c-0.271-1.52-0.324-3.062-0.496-4.596c-0.15-1.316-0.354-2.629-0.443-3.955c-0.086-1.258-0.342-2.502-0.508-3.756
		c-0.209-1.557-0.375-3.123-0.605-4.68c-0.268-1.826-0.592-3.648-0.887-5.473c-0.33-2.041-0.617-4.088-0.986-6.119
		c-0.445-2.457-0.965-4.9-1.43-7.355c-0.908-4.793-1.988-9.549-3.121-14.292c-1.082-4.541-2.289-9.049-3.555-13.544
		c-1.209-4.289-2.438-8.571-3.805-12.809c-1.686-5.219-3.42-10.422-5.344-15.561c-1.662-4.438-3.357-8.86-5.158-13.244
		c-1.576-3.841-3.219-7.652-4.92-11.437c-1.525-3.395-3.137-6.752-4.758-10.102c-1.596-3.296-3.291-6.543-5.049-9.756
		c-0.982-1.796-1.889-3.634-2.914-5.405c-1.768-3.056-3.508-6.129-5.367-9.132c-2.088-3.371-4.207-6.717-6.473-9.974
		c-2.332-3.354-4.74-6.644-7.371-9.774c-1.436-1.708-2.963-3.331-4.465-4.973c-0.586-0.638-1.281-1.174-1.908-1.768
		c-1.643-1.557-3.369-3.005-5.158-4.387c-2.633-2.033-5.445-3.77-8.387-5.313c-1.295-0.679-2.666-1.173-4.016-1.715
		c-3.131-1.252-6.418-1.834-9.76-1.995c-2.506-0.12-5.027-0.123-7.525,0.183c-0.771,0.094-1.559,0.056-2.305,0.204
		c-1.996,0.396-4.008,0.694-5.984,1.201c-2.852,0.731-5.656,1.596-8.414,2.631c-4.157,1.559-8.171,3.42-12.098,5.488
		c-2.635,1.387-5.24,2.822-7.828,4.293c-2.695,1.532-5.342,3.137-7.961,4.791c-2.643,1.669-5.265,3.37-7.84,5.146
		c-2.24,1.548-4.489,3.082-6.708,4.663c-3.451,2.46-6.84,4.998-10.188,7.595c-2.809,2.18-5.583,4.401-8.336,6.651
		c-2.659,2.172-5.255,4.415-7.875,6.63c-1.725,1.459-3.41,2.966-5.063,4.504c-1.587,1.478-3.175,2.954-4.784,4.408
		c-1.334,1.207-2.604,2.485-3.888,3.74c-2.796,2.734-5.638,5.426-8.247,8.349c-1.362,1.526-2.847,2.941-4.255,4.429
		c-1.236,1.307-2.434,2.649-3.676,3.951c-0.68,0.715-1.365,1.438-2.019,2.181c-1.123,1.278-2.215,2.582-3.333,3.864
		c-0.996,1.143-2.032,2.252-3.008,3.413c-1.393,1.655-2.747,3.343-4.117,5.018c-1.449,1.771-2.929,3.518-4.338,5.32
		c-1.751,2.24-3.435,4.533-5.167,6.791c-2.862,3.732-5.591,7.562-8.264,11.43c-1.883,2.727-3.758,5.459-5.535,8.258
		c-1.493,2.353-3.017,4.688-4.459,7.075c-1.651,2.729-3.301,5.459-4.878,8.234c-1.839,3.234-3.678,6.469-5.342,9.797
		c-1.542,3.082-3.159,6.127-4.552,9.281c-0.775,1.76-1.607,3.492-2.327,5.273c-1.427,3.531-2.792,7.088-3.778,10.771
		c-0.671,2.508-1.285,5.025-1.678,7.594c-0.238,1.557-0.429,3.115-0.603,4.68c-0.162,1.445-0.183,2.898-0.287,4.344
		c-0.146,2.033,0.152,4.068,0.318,6.104c0.197,2.42,0.711,4.76,1.446,7.061c0.92,2.883,2.274,5.553,3.787,8.162
		c2.108,3.643,4.721,6.896,7.54,9.98c2.237,2.445,4.687,4.686,7.264,6.789c2.543,2.08,5.196,3.996,7.907,5.844
		c2.1,1.43,4.231,2.812,6.387,4.156c2.998,1.873,6.058,3.633,9.138,5.359c2.244,1.258,4.505,2.49,6.792,3.67
		c4.027,2.08,8.091,4.092,12.201,6.006c2.611,1.217,5.261,2.35,7.904,3.496c2.33,1.012,4.665,2.012,7.014,2.979
		c2.12,0.869,4.265,1.678,6.393,2.527c4.086,1.633,8.233,3.1,12.389,4.541c5.383,1.867,10.825,3.559,16.299,5.143
		c3.239,0.936,6.484,1.846,9.746,2.695c4.575,1.191,9.171,2.297,13.786,3.33c2.32,0.518,4.635,1.068,6.975,1.486
		c2.916,0.516,5.814,1.121,8.738,1.605c2.097,0.348,4.196,0.688,6.296,1.029c1.43,0.234,2.872,0.396,4.304,0.617
		c1.219,0.189,2.438,0.379,3.66,0.516c1.137,0.127,2.264,0.301,3.402,0.416c1.287,0.131,2.561,0.395,3.85,0.492
		c1.51,0.115,3.016,0.268,4.516,0.434c1.656,0.182,3.318,0.301,4.973,0.484c1.654,0.182,3.324,0.268,4.988,0.377
		c2.096,0.141,4.197,0.326,6.293,0.357c2.76,0.041,5.514,0.232,8.275,0.229C299.742,314.7,301.73,314.7,304.52,314.7z"/>
	<path fill-rule="evenodd" clip-rule="evenodd" fill="#FFFFFF" d="M289.646,130.863c0.133-0.075,0.273-0.14,0.4-0.228
		c4.945-3.482,10.443-5.552,16.438-6.257c16.734-1.97,32.947,8.096,37.969,24.418c5.16,16.769-3.133,34.279-18.748,41.492
		c-5.48,2.529-11.25,3.611-17.289,3.244c-5.451-0.33-10.543-1.855-15.311-4.496c-0.162-0.09-0.33-0.168-0.496-0.252
		c0.002-0.047-0.004-0.094-0.02-0.141c2.273-1.682,4.424-3.496,6.16-5.754c0.07-0.025,0.141-0.051,0.211-0.078
		c3.113,0.119,6.209-0.139,9.289-0.539c6.053-0.797,11.924-2.326,17.576-4.646c3.566-1.461,7.023-3.137,10.17-5.393
		c1.172-0.838,2.188-1.826,3.064-2.974c1.391-1.821,1.736-3.861,1.385-6.078c-0.34-2.117-1.178-4.052-2.207-5.899
		c-6.168-11.068-14.789-19.702-25.803-25.953c-1.566-0.889-3.205-1.617-4.963-2.072c-3.24-0.839-6.074-0.172-8.514,2.142
		c-0.77,0.73-1.467,1.519-2.109,2.358c-0.359,0.465-0.619,1.002-1.062,1.4c-0.471-0.107-0.822-0.413-1.16-0.724
		c-1.047-0.964-2.207-1.782-3.389-2.559c-0.504-0.332-0.984-0.762-1.621-0.861C289.627,130.964,289.637,130.913,289.646,130.863z"/>
	<path fill-rule="evenodd" clip-rule="evenodd" fill="#FFFFFF" d="M292.59,188.644c0.016,0.047,0.021,0.094,0.02,0.141
		c-0.807,0.34-1.477,0.906-2.215,1.363c-3.549,2.184-7.367,3.697-11.439,4.549c-1.783,0.373-3.596,0.576-5.424,0.719
		c-1.621,0.127-3.221,0.018-4.822-0.074c-2.104-0.121-4.174-0.512-6.215-1.047c-3.908-1.027-7.538-2.678-10.896-4.916
		c-2.725-1.818-5.12-4.018-7.241-6.518c-3.101-3.65-5.294-7.783-6.681-12.355c-0.594-1.958-0.962-3.962-1.222-5.997
		c-0.27-2.139-0.248-4.283-0.118-6.413c0.189-3.071,0.871-6.064,1.924-8.962c1.228-3.381,2.945-6.491,5.126-9.347
		c2.688-3.52,5.948-6.397,9.735-8.682c3.981-2.4,8.296-3.913,12.862-4.682c2.512-0.422,5.062-0.569,7.604-0.395
		c4.426,0.302,8.686,1.297,12.742,3.142c1.135,0.515,2.201,1.146,3.316,1.693c-0.01,0.05-0.02,0.102-0.031,0.152
		c-0.135,0.073-0.281,0.132-0.402,0.224c-2.041,1.53-3.893,3.266-5.555,5.2c-0.803,0.937-1.633,1.863-2.211,2.972
		c-0.049,0.02-0.1,0.028-0.15,0.024c-0.383-0.127-0.754-0.281-1.145-0.378c-3.396-0.847-6.814-1.533-10.301-1.925
		c-2.191-0.247-4.383-0.345-6.576-0.467c-2.041-0.112-4.082,0.105-6.119,0.302c-1.55,0.149-3.067,0.407-4.528,0.951
		c-1.818,0.676-3.408,1.659-4.447,3.354c-1.079,1.764-1.489,3.739-1.606,5.763c-0.191,3.292,0.082,6.572,0.578,9.822
		c0.577,3.769,1.47,7.471,2.669,11.096c1.574,4.762,3.646,9.299,6.245,13.588c1.432,2.365,2.982,4.652,5.07,6.512
		c2.301,2.043,4.885,2.92,7.98,2.145c2.574-0.643,4.834-1.902,7.049-3.281c2.639-1.643,5.061-3.576,7.469-5.531
		c0.279,0.287,0.566,0.566,0.84,0.859c2.158,2.328,4.594,4.322,7.293,5.996C292.025,188.401,292.266,188.614,292.59,188.644z"/>
	<path fill-rule="evenodd" clip-rule="evenodd" fill="#FFFFFF" d="M259.832,210.302c0,0.684,0.031,1.369-0.008,2.049
		c-0.047,0.787-0.441,1.014-1.107,0.609c-2.533-1.535-5.304-2.074-8.214-1.922c-4.183,0.219-7.331,2.238-8.536,6.602
		c-0.164,0.598-0.279,1.213-0.354,1.826c-0.255,2.178-0.191,4.34,0.472,6.453c1.12,3.566,3.999,5.842,7.723,6.186
		c2.834,0.262,5.494-0.277,8.024-1.543c0.361-0.18,0.723-0.377,1.104-0.484c0.539-0.152,0.873,0.072,0.887,0.629
		c0.031,1.43,0.006,2.859,0.002,4.289c-0.002,0.516-0.371,0.758-0.76,0.965c-1.191,0.633-2.465,1.023-3.786,1.254
		c-3.648,0.637-7.293,0.682-10.909-0.203c-5.585-1.367-9.008-4.883-10.209-10.502c-0.718-3.359-0.707-6.736,0.147-10.066
		c1.377-5.377,4.809-8.812,10.153-10.225c4.388-1.158,8.79-1.002,13.143,0.311c0.238,0.072,0.475,0.15,0.707,0.236
		c1.469,0.555,1.533,0.652,1.535,2.232c0.002,0.434,0,0.869,0,1.305C259.842,210.302,259.836,210.302,259.832,210.302z"/>
	<path fill-rule="evenodd" clip-rule="evenodd" fill="#FFFFFF" d="M279.65,236.163c-0.521-0.07-0.961,0.174-1.414,0.361
		c-2.346,0.959-4.754,1.361-7.287,1.008c-3.881-0.543-6.363-3.152-6.662-7.086c-0.037-0.494-0.043-0.992-0.043-1.49
		c-0.002-4.75-0.002-9.506-0.002-14.256c0-0.188-0.01-0.375,0.002-0.561c0.041-0.592,0.189-0.744,0.799-0.793
		c0.184-0.016,0.371-0.006,0.559-0.006c1.428,0,2.855,0,4.285,0c1.381,0.002,1.436,0.053,1.436,1.393
		c0.002,4.256,0.004,8.512-0.002,12.768c-0.002,0.877,0.084,1.736,0.393,2.562c0.539,1.447,1.57,2.266,3.109,2.438
		c0.842,0.094,1.676,0.07,2.482-0.215c1.021-0.361,1.639-1.086,1.879-2.135c0.117-0.516,0.148-1.041,0.146-1.572
		c-0.004-4.596-0.002-9.195-0.002-13.793c0-0.217-0.01-0.434,0.002-0.65c0.041-0.598,0.184-0.74,0.801-0.791
		c0.154-0.012,0.311-0.004,0.467-0.004c1.551,0,3.105-0.004,4.658,0.004c0.994,0.002,1.164,0.156,1.164,1.109
		c0.004,7.238,0.004,14.477,0,21.713c0,0.955-0.178,1.119-1.154,1.125c-1.367,0.008-2.732,0.004-4.1,0.004
		C279.955,237.292,279.955,237.292,279.65,236.163z"/>
	<path fill-rule="evenodd" clip-rule="evenodd" fill="#FFFFFF" d="M340.002,226.688c-2.393,0-4.783-0.004-7.174,0.004
		c-0.66,0.002-0.66,0.016-0.658,0.668c0.002,3.02,1.98,5.145,5.107,5.48c2.832,0.307,5.494-0.209,7.975-1.631
		c1.291-0.742,1.533-0.598,1.537,0.883c0.002,0.867-0.006,1.738,0,2.607c0.004,0.779-0.354,1.242-1.1,1.525
		c-3.404,1.303-6.928,1.609-10.529,1.355c-0.773-0.055-1.545-0.148-2.297-0.338c-3.592-0.9-5.92-3.197-7.025-6.662
		c-1.133-3.559-1.062-7.168,0.115-10.713c1.133-3.416,3.512-5.553,6.994-6.451c2.416-0.625,4.855-0.715,7.281-0.129
		c4.117,0.994,6.568,3.662,7.568,7.729c0.381,1.555,0.426,3.135,0.395,4.721c-0.018,0.805-0.166,0.947-1.016,0.949
		C344.783,226.694,342.393,226.688,340.002,226.688z M336.621,222.364c1.303,0,2.609,0,3.914-0.004c0.273,0,0.574,0.055,0.604-0.377
		c0.146-2.244-0.844-3.846-2.84-4.477c-0.748-0.236-1.52-0.293-2.303-0.201c-2.566,0.303-3.918,1.873-3.869,4.463
		c0.008,0.428,0.113,0.613,0.578,0.604C334.01,222.347,335.314,222.364,336.621,222.364z"/>
	<path fill-rule="evenodd" clip-rule="evenodd" fill="#FFFFFF" d="M293.324,225.386c0-3.541,0-7.084,0-10.625
		c0-0.217-0.01-0.438,0.008-0.654c0.041-0.549,0.188-0.742,0.736-0.752c1.707-0.023,3.416-0.014,5.125-0.002
		c0.486,0.002,0.695,0.275,0.729,0.773c0.043,0.646,0.117,0.688,0.725,0.523c0.359-0.094,0.705-0.238,1.043-0.389
		c1.807-0.805,3.711-0.957,5.652-0.906c0.215,0.008,0.436,0.045,0.646,0.092c0.562,0.131,0.84,0.383,0.855,0.943
		c0.031,1.365,0.037,2.734,0.002,4.1c-0.018,0.682-0.352,0.889-1.102,0.67c-1.357-0.4-2.732-0.547-4.141-0.508
		c-0.5,0.014-0.99,0.059-1.471,0.207c-0.77,0.236-1.271,0.734-1.516,1.508c-0.189,0.602-0.205,1.221-0.205,1.842
		c0,4.537,0,9.072,0,13.609c0,0.217,0.012,0.436-0.004,0.65c-0.045,0.584-0.225,0.811-0.793,0.816c-1.834,0.021-3.668,0.021-5.502,0
		c-0.609-0.006-0.775-0.219-0.781-0.9c-0.016-1.459-0.008-2.92-0.008-4.381C293.324,229.798,293.324,227.593,293.324,225.386z"/>
	<path fill-rule="evenodd" clip-rule="evenodd" fill="#FFFFFF" d="M320.043,225.384c0.002,3.572,0.002,7.145,0,10.717
		c0,1.09-0.096,1.188-1.156,1.191c-1.615,0.006-3.23,0.008-4.848,0c-0.92-0.006-1.078-0.166-1.078-1.096
		c-0.002-7.268-0.002-14.537,0.002-21.807c0-0.873,0.162-1.037,1.027-1.045c1.678-0.012,3.355-0.012,5.033,0
		c0.881,0.008,1.016,0.15,1.02,1.045C320.049,218.056,320.043,221.72,320.043,225.384z"/>
	<path fill-rule="evenodd" clip-rule="evenodd" fill="#FFFFFF" d="M215.018,226.827c0,3.104,0.002,6.211-0.003,9.314
		c-0.001,0.393,0.123,0.879-0.353,1.066c-0.494,0.197-1.036,0.15-1.551,0.018c-0.186-0.047-0.238-0.248-0.294-0.436
		c-0.197-0.66-0.207-0.648-0.885-0.436c-0.946,0.295-1.885,0.619-2.846,0.861c-1.918,0.482-3.853,0.629-5.797,0.107
		c-2.754-0.732-4.307-2.609-4.489-5.465c-0.117-1.832-0.049-3.664-0.056-5.496c-0.01-2.949-0.004-5.9-0.001-8.85
		c0-1.182,0.054-1.234,1.182-1.24c1.361-0.008,1.362-0.008,1.362,1.332c0.001,4.16,0.003,8.32-0.001,12.482
		c-0.001,0.717,0.056,1.428,0.239,2.121c0.548,2.078,2.042,3.336,4.368,3.58c1.362,0.145,2.73,0.078,4.063-0.299
		c1.825-0.516,2.453-1.334,2.454-3.201c0.001-4.877,0.001-9.75,0.001-14.627c0-0.279-0.003-0.561,0.015-0.838
		c0.019-0.281,0.197-0.488,0.46-0.508c0.524-0.041,1.055-0.047,1.579-0.012c0.299,0.02,0.507,0.236,0.537,0.555
		c0.023,0.248,0.015,0.498,0.015,0.746C215.018,220.679,215.018,223.751,215.018,226.827z"/>
	<path fill-rule="evenodd" clip-rule="evenodd" fill="#FFFFFF" d="M125.294,226.761c0-3.045,0-6.088,0-9.131
		c0-0.248-0.002-0.496,0.007-0.746c0.015-0.371,0.234-0.566,0.586-0.598c0.277-0.025,0.559-0.008,0.838-0.012
		c0.39-0.004,0.612,0.131,0.697,0.566c0.112,0.576,0.203,0.607,0.75,0.363c1.457-0.652,2.962-1.084,4.56-1.217
		c1.348-0.111,2.671-0.008,3.964,0.355c2.751,0.773,4.261,2.637,4.676,5.428c0.128,0.859,0.188,1.727,0.185,2.6
		c-0.008,3.912-0.002,7.826-0.004,11.74c0,0.248,0.026,0.508-0.042,0.738c-0.151,0.508-0.6,0.492-1,0.449
		c-0.519-0.055-1.175,0.277-1.498-0.398c-0.111-0.232-0.054-0.549-0.054-0.83c-0.003-4.006-0.002-8.012-0.003-12.02
		c0-0.621-0.024-1.238-0.126-1.855c-0.448-2.721-1.803-4.084-4.504-4.402c-1.429-0.17-2.854-0.041-4.231,0.412
		c-0.379,0.125-0.75,0.303-1.09,0.512c-0.74,0.453-1.143,1.102-1.12,2.008c0.026,1.021,0.006,2.047,0.006,3.072
		c0,4.037,0,8.076,0,12.115c0,0.246,0.007,0.496-0.014,0.744c-0.038,0.449-0.314,0.701-0.747,0.637
		c-0.602-0.088-1.351,0.357-1.774-0.387c-0.123-0.219-0.059-0.549-0.06-0.828C125.292,232.974,125.294,229.866,125.294,226.761z"/>
	<path fill-rule="evenodd" clip-rule="evenodd" fill="#FFFFFF" d="M185.834,218.159c-0.633-0.137-1.287-0.045-1.934-0.066
		c-0.829-0.027-0.965-0.145-0.973-0.883c-0.008-0.787,0.137-0.922,1.014-0.936c0.465-0.006,0.933-0.023,1.397,0.004
		c0.445,0.027,0.592-0.141,0.584-0.584c-0.023-1.336-0.008-2.674-0.008-4.01c0.001-1.42,0.001-1.42,1.456-1.412
		c1.095,0.006,1.154,0.062,1.157,1.17c0.004,1.336,0.002,2.672,0.001,4.008c0,0.861-0.051,0.824,0.795,0.824
		c1.708-0.004,3.417-0.01,5.126,0.004c0.737,0.006,0.88,0.166,0.888,0.873c0.009,0.762-0.139,0.93-0.917,0.936
		c-1.709,0.012-3.418,0-5.126,0.006c-0.753,0.002-0.763,0.012-0.763,0.762c-0.003,4.504-0.001,9.01,0.001,13.516
		c0,0.277,0.006,0.561,0.045,0.834c0.228,1.592,1.288,2.541,2.893,2.629c0.95,0.049,1.843-0.162,2.731-0.475
		c0.332-0.115,0.728-0.549,1.064-0.031c0.251,0.383,0.049,1.244-0.328,1.529c-0.195,0.146-0.421,0.275-0.654,0.346
		c-1.76,0.543-3.547,0.686-5.307,0.072c-1.912-0.664-2.805-2.158-3.015-4.1c-0.056-0.525-0.044-1.057-0.044-1.586
		c-0.003-4.193-0.001-8.389-0.003-12.582C185.913,218.731,185.958,218.45,185.834,218.159z"/>
	<path fill-rule="evenodd" clip-rule="evenodd" fill="#FFFFFF" d="M165.894,225.724c0,2.049-0.005,4.098,0.004,6.148
		c0.002,0.465,0.022,0.934,0.088,1.393c0.217,1.516,1.222,2.441,2.744,2.559c1.012,0.078,1.97-0.131,2.912-0.49
		c0.311-0.117,0.669-0.469,1.001-0.041c0.195,0.252,0.074,1.156-0.156,1.414c-0.279,0.314-0.656,0.471-1.042,0.59
		c-0.777,0.234-1.583,0.299-2.389,0.35c-0.591,0.037-1.176-0.025-1.761-0.125c-2.17-0.365-3.622-1.842-3.904-4.031
		c-0.074-0.582-0.093-1.176-0.094-1.766c-0.007-4.162-0.004-8.324-0.004-12.484c0-0.219-0.009-0.436,0-0.652
		c0.013-0.342-0.117-0.512-0.487-0.498c-0.559,0.018-1.119,0.018-1.677-0.002c-0.667-0.023-0.85-0.242-0.837-0.938
		c0.011-0.648,0.181-0.836,0.812-0.871c0.247-0.016,0.497-0.006,0.744-0.006c1.445-0.002,1.445-0.002,1.445-1.49
		c0-1.055,0-2.111,0-3.168c0-0.186-0.009-0.371,0.004-0.557c0.045-0.633,0.164-0.754,0.784-0.781
		c0.31-0.014,0.622-0.012,0.932-0.002c0.745,0.021,0.865,0.121,0.875,0.873c0.018,1.336,0,2.67,0.008,4.006
		c0.008,1.279-0.139,1.109,1.16,1.117c1.584,0.01,3.168-0.008,4.752,0.008c0.772,0.006,0.924,0.184,0.913,0.943
		c-0.012,0.701-0.152,0.859-0.896,0.865c-1.646,0.014-3.293,0.004-4.939,0.006c-0.218,0-0.434,0.002-0.652,0.008
		c-0.228,0.006-0.327,0.139-0.332,0.354c-0.005,0.217-0.008,0.436-0.009,0.652C165.894,221.312,165.894,223.517,165.894,225.724z"/>
	<path fill-rule="evenodd" clip-rule="evenodd" fill="#FFFFFF" d="M221.763,225.765c0-2.328,0.004-4.658-0.002-6.986
		c-0.001-0.666-0.014-0.672-0.65-0.686c-0.496-0.01-0.994,0.012-1.49-0.006c-0.696-0.025-0.849-0.203-0.844-0.922
		c0.005-0.703,0.155-0.867,0.879-0.887c0.527-0.018,1.056-0.023,1.583,0c0.408,0.02,0.537-0.137,0.532-0.539
		c-0.018-1.428-0.01-2.855-0.006-4.283c0.003-1.119,0.061-1.176,1.135-1.184c1.47-0.01,1.47-0.01,1.47,1.49
		c0,1.18-0.004,2.359,0,3.539c0.005,1.014-0.132,0.969,0.931,0.971c1.676,0.002,3.354-0.01,5.03,0.006
		c0.697,0.006,0.886,0.219,0.892,0.889c0.004,0.707-0.192,0.916-0.955,0.92c-1.708,0.012-3.417,0-5.124,0.006
		c-0.761,0.002-0.772,0.012-0.772,0.756c-0.003,4.5-0.002,9.004-0.002,13.506c0,0.406,0.05,0.803,0.148,1.197
		c0.343,1.381,1.275,2.17,2.704,2.273c1.01,0.074,1.968-0.137,2.909-0.496c0.305-0.117,0.666-0.484,0.99-0.021
		c0.218,0.311,0.12,1.098-0.156,1.406c-0.234,0.264-0.544,0.422-0.874,0.518c-1.605,0.463-3.233,0.609-4.864,0.166
		c-2.178-0.594-3.416-2.316-3.452-4.834c-0.033-2.266-0.007-4.533-0.007-6.799C221.768,225.765,221.766,225.765,221.763,225.765z"/>
	<path fill-rule="evenodd" clip-rule="evenodd" fill="#FFFFFF" d="M151.292,237.683c-1.624-0.064-3.2-0.357-4.679-1.061
		c-0.759-0.361-1.067-1.166-0.777-1.922c0.095-0.246,0.284-0.336,0.519-0.242c0.372,0.148,0.739,0.316,1.096,0.5
		c1.57,0.807,3.211,1.119,4.953,0.707c1.338-0.316,2.301-1.053,2.631-2.453c0.337-1.424,0.006-2.648-1.15-3.592
		c-1.397-1.141-2.947-2.064-4.422-3.094c-0.586-0.408-1.146-0.848-1.706-1.293c-2.537-2.01-2.063-7.256,1.42-8.66
		c2.412-0.971,4.791-0.807,7.131,0.238c0.672,0.299,1.098,0.777,1.032,1.594c-0.061,0.746-0.268,0.92-0.917,0.594
		c-0.583-0.291-1.161-0.592-1.776-0.809c-1.252-0.438-2.523-0.617-3.835-0.266c-1.43,0.385-2.327,1.385-2.461,2.809
		c-0.09,0.947,0.135,1.795,0.905,2.422c0.48,0.391,0.97,0.775,1.48,1.125c1.099,0.758,2.217,1.486,3.32,2.234
		c0.513,0.35,1.017,0.713,1.514,1.084c1.963,1.471,2.559,3.447,2.019,5.773c-0.525,2.266-2.097,3.512-4.267,4.072
		C152.665,237.616,151.986,237.739,151.292,237.683z"/>
	<path fill-rule="evenodd" clip-rule="evenodd" fill="#FFFFFF" d="M119.439,226.829c0,3.076,0,6.15-0.001,9.227
		c0,0.248-0.002,0.496-0.023,0.746c-0.021,0.242-0.178,0.422-0.402,0.455c-0.583,0.084-1.176,0.098-1.758-0.006
		c-0.232-0.043-0.359-0.246-0.386-0.477c-0.028-0.248-0.032-0.496-0.033-0.744c-0.001-6.15-0.001-12.303,0-18.453
		c0-0.248-0.004-0.498,0.028-0.744c0.042-0.311,0.236-0.498,0.549-0.545c0.061-0.01,0.125-0.01,0.186-0.014
		c2.112-0.047,1.84,0.023,1.84,1.699C119.438,220.925,119.439,223.876,119.439,226.829z"/>
	<path fill-rule="evenodd" clip-rule="evenodd" fill="#FFFFFF" d="M176.551,226.788c0-3.076,0-6.15,0.001-9.225
		c0-0.25,0.006-0.498,0.022-0.744c0.019-0.285,0.202-0.492,0.459-0.512c0.524-0.039,1.055-0.039,1.58-0.004
		c0.31,0.021,0.488,0.256,0.509,0.572c0.017,0.248,0.018,0.496,0.018,0.744c0.001,6.119,0.001,12.236,0.001,18.354
		c0,0.125,0.003,0.248,0,0.373c-0.027,0.836-0.137,0.939-1.002,0.959c-1.588,0.035-1.589,0.035-1.589-1.574
		C176.55,232.751,176.551,229.769,176.551,226.788z"/>
	<path fill-rule="evenodd" clip-rule="evenodd" fill="#FFFFFF" d="M316.389,210.21c-0.729-0.043-1.496-0.105-2.215-0.445
		c-1.092-0.514-1.617-1.375-1.656-2.574c-0.043-1.201,0.395-2.15,1.477-2.68c1.58-0.773,3.227-0.832,4.85-0.117
		c1.141,0.5,1.77,1.639,1.699,2.855c-0.076,1.268-0.779,2.205-2.004,2.639C317.859,210.128,317.15,210.194,316.389,210.21z"/>
	<path fill-rule="evenodd" clip-rule="evenodd" fill="#FFFFFF" d="M177.895,208.101c1.207,0.018,1.712,0.564,1.688,1.824
		c-0.023,1.229-0.559,1.748-1.789,1.74c-1.219-0.006-1.715-0.541-1.683-1.811C176.143,208.624,176.693,208.081,177.895,208.101z"/>
	<path fill-rule="evenodd" clip-rule="evenodd" fill="#FFFFFF" d="M116.417,209.866c0.022-1.23,0.569-1.779,1.767-1.768
		c1.215,0.012,1.716,0.547,1.697,1.814c-0.019,1.264-0.585,1.795-1.866,1.752C116.853,211.628,116.395,211.112,116.417,209.866z"/>
	<path fill-rule="evenodd" clip-rule="evenodd" fill="#FFFFFF" d="M295.725,135.491c1.066,0.763,1.924,1.747,2.781,2.721
		c1.744,1.986,3.221,4.17,4.455,6.506c1.381,2.615,2.408,5.372,3.064,8.257c0.385,1.689,0.684,3.388,0.797,5.128
		c0.059,0.926,0.146,1.851,0.131,2.78c-0.074,4.439-0.893,8.731-2.596,12.844c-1.277,3.084-2.93,5.947-5.053,8.531
		c-0.135,0.168-0.23,0.367-0.344,0.553c-0.07,0.027-0.141,0.053-0.211,0.078c-1.375-0.213-2.773-0.152-4.146-0.387
		c-3.014-0.512-5.742-1.504-7.438-4.293c0.008-0.062,0.016-0.127,0.023-0.191c0.275-0.293,0.543-0.594,0.828-0.877
		c1.811-1.793,3.453-3.732,5.02-5.738c2.025-2.594,3.873-5.312,5.453-8.198c1.445-2.639,2.803-5.328,3.176-8.381
		c0.209-1.708-0.045-3.325-0.947-4.824c-0.982-1.629-2.352-2.859-3.904-3.919c-1.672-1.141-3.486-2.02-5.287-2.925
		c0.805-1.902,1.754-3.729,2.795-5.51C294.754,136.907,295.123,136.121,295.725,135.491z"/>
	<path fill-rule="evenodd" clip-rule="evenodd" fill="#FFFFFF" d="M295.725,135.491c-0.602,0.63-0.971,1.416-1.402,2.155
		c-1.041,1.781-1.99,3.608-2.795,5.511c-0.037,0.05-0.08,0.094-0.129,0.131c-0.184-0.373-0.562-0.475-0.896-0.618
		c-2.951-1.27-5.953-2.407-9.055-3.26c0.578-1.108,1.408-2.035,2.211-2.972c1.662-1.934,3.514-3.669,5.555-5.2
		c0.121-0.091,0.268-0.151,0.402-0.224c0.639,0.098,1.119,0.528,1.623,0.86c1.182,0.777,2.342,1.595,3.389,2.559
		c0.338,0.312,0.689,0.617,1.16,0.724C295.766,135.269,295.744,135.38,295.725,135.491z"/>
	<path fill-rule="evenodd" clip-rule="evenodd" fill="#FFFFFF" d="M287.166,178.21c1.695,2.789,4.424,3.781,7.438,4.293
		c1.373,0.234,2.771,0.174,4.146,0.387c-1.736,2.258-3.887,4.072-6.16,5.754c-0.324-0.029-0.564-0.242-0.822-0.404
		c-2.699-1.674-5.135-3.668-7.293-5.996c-0.273-0.293-0.561-0.572-0.84-0.859c0.002-0.057,0-0.115-0.004-0.172
		c1.084-0.619,1.836-1.607,2.734-2.436C286.605,178.556,286.781,178.233,287.166,178.21z"/>
	<path fill-rule="evenodd" clip-rule="evenodd" fill="#FFFFFF" d="M283.631,181.212c-0.643-0.547-1.104-1.252-1.596-1.924
		c-3.834-5.227-6.062-11.064-6.611-17.53c-0.672-7.895,1.258-15.131,5.543-21.765c0.119-0.182,0.221-0.372,0.33-0.559
		c0.051,0.004,0.102-0.004,0.15-0.024c3.102,0.853,6.104,1.99,9.055,3.26c0.334,0.143,0.713,0.245,0.896,0.618
		c-0.088,0.232-0.168,0.468-0.266,0.695c-1.426,3.277-2.594,6.645-3.469,10.109c-1.539,6.078-2.432,12.231-1.969,18.524
		c0.139,1.893,0.469,3.748,1.494,5.402c-0.008,0.064-0.016,0.129-0.023,0.191c-0.385,0.023-0.561,0.346-0.801,0.566
		C285.467,179.604,284.715,180.593,283.631,181.212z"/>
</g>
</svg>
