<?xml version="1.0" encoding="UTF-8" standalone="no"?>
<svg
   id="Layer_1"
   data-name="Layer 1"
   viewBox="0 0 117.42 119.47"
   version="1.1"
   sodipodi:docname="curie_white.svg"
   inkscape:version="1.2 (dc2aeda, 2022-05-15)"
   xmlns:inkscape="http://www.inkscape.org/namespaces/inkscape"
   xmlns:sodipodi="http://sodipodi.sourceforge.net/DTD/sodipodi-0.dtd"
   xmlns="http://www.w3.org/2000/svg"
   xmlns:svg="http://www.w3.org/2000/svg"
   xmlns:rdf="http://www.w3.org/1999/02/22-rdf-syntax-ns#"
   xmlns:cc="http://creativecommons.org/ns#"
   xmlns:dc="http://purl.org/dc/elements/1.1/">
  <defs
     id="defs2854" />
  <sodipodi:namedview
     id="namedview2852"
     pagecolor="#ffffff"
     bordercolor="#000000"
     borderopacity="0.25"
     inkscape:showpageshadow="2"
     inkscape:pageopacity="0.0"
     inkscape:pagecheckerboard="0"
     inkscape:deskcolor="#d1d1d1"
     showgrid="false"
     inkscape:zoom="5.7838788"
     inkscape:cx="58.697634"
     inkscape:cy="59.735"
     inkscape:window-width="1440"
     inkscape:window-height="872"
     inkscape:window-x="0"
     inkscape:window-y="0"
     inkscape:window-maximized="0"
     inkscape:current-layer="Layer_1" />
  <title
     id="title2805">LogoCurie</title>
  <path
     d="M88.77,35.7h0c.21-.25.39-.52.59-.78H89.2a18,18,0,0,1-2.9-.27,5.72,5.72,0,0,1-3.14-1.49,4.16,4.16,0,0,1-.72-1,7.25,7.25,0,0,1-.3-.71h0c-.29.31-.58.62-.87.91-.67.67-1.35,1.3-2,1.87l-.07.07c.12.16.23.33.36.48a21.54,21.54,0,0,0,5.4,4.49h0a21.72,21.72,0,0,0,3.84-3.57"
     style="fill:#ffffff"
     id="path2807" />
  <path
     d="M78.16,9.27c-.15.22-.27.46-.42.68l.2.05a38.31,38.31,0,0,1,5.85,2.18l.91.45v0c.09-.2.17-.43.26-.62a31.61,31.61,0,0,1,2.44-4.5l0-.06h0c-.2-.2-.37-.41-.57-.6a21.6,21.6,0,0,0-3.67-2.71h0a21.33,21.33,0,0,0-5,5.16"
     style="fill:#ffffff"
     id="path2809" />
  <path
     d="M116.75,15.92A21.65,21.65,0,0,0,83.21,4.11a21.6,21.6,0,0,1,3.67,2.71c.2.19.37.4.57.6A15.66,15.66,0,0,1,88.67,5.8a5.76,5.76,0,0,1,2.88-1.93A5.8,5.8,0,0,1,95,4.21a33.44,33.44,0,0,1,10.57,7.46,33,33,0,0,1,7.31,10.58,5.53,5.53,0,0,1,.25,3.41,5.61,5.61,0,0,1-2,2.78,33.27,33.27,0,0,1-11.85,5.27,38.92,38.92,0,0,1-9.92,1.21c-.2.26-.38.53-.59.78h0a21.35,21.35,0,0,1-3.84,3.57,21.69,21.69,0,0,0,16.3,2.33,21.1,21.1,0,0,0,15.52-25.68"
     style="fill:#ffffff"
     id="path2811" />
  <path
     d="M83,17.31a37.54,37.54,0,0,1,1.68-4.68l-.91-.45A39.82,39.82,0,0,0,77.94,10l-.2-.05h0A20.75,20.75,0,0,0,79.16,34.3h0l.07-.07c.67-.57,1.35-1.2,2-1.87.29-.29.58-.6.87-.91a7.78,7.78,0,0,1-.4-1.41A32.25,32.25,0,0,1,83,17.31"
     style="fill:#ffffff"
     id="path2813" />
  <path
     d="M92.68,15.85a21.15,21.15,0,0,0-5.23-8.44h0l0,.06A31.61,31.61,0,0,0,85,12c-.09.19-.17.42-.26.62v0a18.38,18.38,0,0,1,2.66,1.6A5.76,5.76,0,0,1,89.49,17a5.65,5.65,0,0,1-.15,3.43,32.72,32.72,0,0,1-7,10.8l-.25.27h0c.1.26.2.51.3.71a4.16,4.16,0,0,0,.72,1,5.8,5.8,0,0,0,3.14,1.49,18,18,0,0,0,2.9.27h.15a20.82,20.82,0,0,0,3.33-19.07"
     style="fill:#ffffff"
     id="path2815" />
  <path
     d="M79.53,34.78c-.13-.15-.24-.32-.36-.48h0A28.27,28.27,0,0,1,72.09,39a5.92,5.92,0,0,1-3.45.46,5.74,5.74,0,0,1-3-1.84,32.64,32.64,0,0,1-6-11.32A32.25,32.25,0,0,1,57.93,13.6a5.57,5.57,0,0,1,1.33-3.16,5.8,5.8,0,0,1,3.08-1.6,33.92,33.92,0,0,1,13,.52c.83.17,1.62.38,2.4.59h0c.15-.22.27-.46.42-.68a21.32,21.32,0,0,1,5-5.16h0a21.7,21.7,0,0,0-17.51-2,21,21,0,0,0-14,26.52A21.45,21.45,0,0,0,72.21,43.38a21.78,21.78,0,0,0,12.72-4.11h0a21.54,21.54,0,0,1-5.4-4.49"
     style="fill:#ffffff"
     id="path2817" />
  <path
     d="M10.54,78V58.12a.57.57,0,0,1,.55-.55h1.05a.45.45,0,0,1,.51.51v.3l.32.25.34-.08.46-.22a12.68,12.68,0,0,1,5.17-1.09,8.16,8.16,0,0,1,5.71,1.89c1.48,1.43,2.06,3.24,2.06,6.56V78a.57.57,0,0,1-.58.55H24.69a.56.56,0,0,1-.54-.55V65.1c0-4.12-1.8-6.1-5.64-6.1-3.26,0-5.42,1.1-5.42,2.78V78a.57.57,0,0,1-.58.55H11.09a.57.57,0,0,1-.55-.55"
     style="fill:#ffffff"
     id="path2819" />
  <path
     d="M37.69,69.85l-2.92-2c-2.64-1.72-3.44-2.9-3.44-5.09,0-3.44,2.36-5.54,6.14-5.54,2.53,0,5,1,5,2V60a.42.42,0,0,1-.37.46,1.73,1.73,0,0,1-.68-.26l-.3-.17a8.26,8.26,0,0,0-3.68-1c-2.35,0-3.91,1.26-3.91,3.27,0,1.4.37,1.9,2.4,3.29L39.45,68c2.64,1.77,3.4,3,3.4,5.26,0,3.39-2.57,5.67-6.43,5.67a11.94,11.94,0,0,1-4.75-1.1l-.21-.12c-.46-.25-.5-.34-.5-.8V76.1c0-.29.13-.46.37-.46a1.47,1.47,0,0,1,.64.22,7.78,7.78,0,0,0,4.1,1.21c2.61,0,4.21-1.35,4.21-3.53,0-1.56-.55-2.31-2.59-3.69"
     style="fill:#ffffff"
     id="path2821" />
  <path
     d="M51,59.34V73.58c0,2.28,1.17,3.49,3.27,3.49A6.68,6.68,0,0,0,57,76.44l.41-.13c.26,0,.38.17.38.51v.55c0,.92-1.63,1.47-4.12,1.47-3.32,0-5.24-1.94-5.24-5.3V59.34H46a.54.54,0,0,1-.53-.55v-.66a.55.55,0,0,1,.53-.56H48.4V52.12a.55.55,0,0,1,.54-.55h1.45a.56.56,0,0,1,.57.55v5.45h6.26a.57.57,0,0,1,.54.56v.66a.56.56,0,0,1-.54.55Z"
     style="fill:#ffffff"
     id="path2823" />
  <path
     d="M61.58,78V58.12a.57.57,0,0,1,.55-.55h1.44a.57.57,0,0,1,.58.55V78a.57.57,0,0,1-.58.55H62.13a.57.57,0,0,1-.55-.55"
     style="fill:#ffffff"
     id="path2825" />
  <path
     d="M2.13,78V58.12a.58.58,0,0,1,.55-.55H4.12a.57.57,0,0,1,.58.55V78a.57.57,0,0,1-.58.55H2.68A.58.58,0,0,1,2.13,78"
     style="fill:#ffffff"
     id="path2827" />
  <path
     d="M73.47,59.34V73.58c0,2.28,1.17,3.49,3.29,3.49a6.56,6.56,0,0,0,2.72-.63l.43-.13c.24,0,.38.17.38.51v.55c0,.92-1.64,1.47-4.12,1.47-3.33,0-5.26-1.94-5.26-5.3V59.34H68.48a.56.56,0,0,1-.55-.55v-.66a.57.57,0,0,1,.55-.56h2.43V52.12a.55.55,0,0,1,.55-.55h1.47a.55.55,0,0,1,.54.55v5.45h6.26a.57.57,0,0,1,.56.56v.66a.56.56,0,0,1-.56.55Z"
     style="fill:#ffffff"
     id="path2829" />
  <path
     d="M86.21,58.13V71.57c0,3.53,2,5.5,5.57,5.5s5.51-1,5.51-3V58.13a.57.57,0,0,1,.55-.56h1.42a.58.58,0,0,1,.6.56V78a.57.57,0,0,1-.6.55h-1c-.38,0-.54-.17-.54-.47v-.25l-.38-.37-.25,0-.25.08-.3.13a16.79,16.79,0,0,1-5.85,1.17,7.64,7.64,0,0,1-4.9-1.5c-1.56-1.23-2.11-2.73-2.11-5.55V58.13a.57.57,0,0,1,.55-.56h1.43a.54.54,0,0,1,.55.56"
     style="fill:#ffffff"
     id="path2831" />
  <path
     d="M109.19,59.34V73.58c0,2.28,1.18,3.49,3.28,3.49a6.64,6.64,0,0,0,2.73-.63l.41-.13c.25,0,.38.17.38.51v.55c0,.92-1.64,1.47-4.1,1.47-3.32,0-5.26-1.94-5.26-5.3V59.34h-2.45a.54.54,0,0,1-.53-.55v-.66a.55.55,0,0,1,.53-.56h2.45V52.12a.55.55,0,0,1,.55-.55h1.46a.55.55,0,0,1,.55.55v5.45h6.26a.56.56,0,0,1,.54.56v.66a.55.55,0,0,1-.54.55Z"
     style="fill:#ffffff"
     id="path2833" />
  <path
     d="M0,103.13C0,92.54,6.24,86.46,17.06,86.46A22.61,22.61,0,0,1,25.82,88c.81.38,1,.58,1,1.3v4.12c0,.57-.24.92-.63.92-.18,0-.38-.1-.82-.4a14.8,14.8,0,0,0-7.25-1.83C11.6,92.11,8,96,8,103c0,6.82,3.72,10.82,10.1,10.82a14.83,14.83,0,0,0,7.1-1.88,2.57,2.57,0,0,1,1-.33c.44,0,.68.28.68.77v4.06c0,.68-.15.92-.81,1.26-2.14,1.16-5.38,1.74-9.2,1.74-11,0-16.82-5.71-16.82-16.34"
     style="fill:#ffffff"
     id="path2835" />
  <path
     d="M31.33,110.86V95.15a.63.63,0,0,1,.63-.62h6a.63.63,0,0,1,.63.62V109c0,3.44,1.5,5.23,4.36,5.23,2.56,0,3.87-1.26,3.87-3.67V95.15a.63.63,0,0,1,.63-.62h6a.63.63,0,0,1,.63.62v23.29a.63.63,0,0,1-.63.63H47.9a.63.63,0,0,1-.62-.63v-.57h-.2a2.86,2.86,0,0,0-1,.24c-.68.3-1.07.44-1.2.48a13.72,13.72,0,0,1-4.89.88c-5.51,0-8.7-3.15-8.7-8.61"
     style="fill:#ffffff"
     id="path2837" />
  <path
     d="M61.77,119.07a.63.63,0,0,1-.62-.63V95.15a.62.62,0,0,1,.62-.62h5.52a.64.64,0,0,1,.63.62v.78h.14a2.86,2.86,0,0,0,1.5-.39,10.81,10.81,0,0,1,4-1l1.26,0h.28c1.59,0,2,.28,2,1.4v3.62c0,.68-.19,1-.68,1l-.53-.1a12.32,12.32,0,0,0-3.81-.53c-2.76,0-3.68.87-3.68,3.62v14.88a.63.63,0,0,1-.63.63Z"
     style="fill:#ffffff"
     id="path2839" />
  <path
     d="M81.94,119.08a.65.65,0,0,1-.64-.63V95.15a.64.64,0,0,1,.64-.62h6a.63.63,0,0,1,.62.62v23.3a.64.64,0,0,1-.62.63Z"
     style="fill:#ffffff"
     id="path2841" />
  <path
     d="M97.11,116.52c-2.22-2.13-3.38-5.37-3.38-9.52,0-8.36,4.25-12.91,12.18-12.91,7.19,0,11.51,4.55,11.51,12.09v1.39a.67.67,0,0,1-.64.64H101v.48c0,3.82,2.41,5.94,6.72,5.94a13.07,13.07,0,0,0,7-2,1.06,1.06,0,0,1,.63-.24c.44,0,.58.19.58.72v3.34a1.34,1.34,0,0,1-1.06,1.5,23.13,23.13,0,0,1-8.8,1.5c-4.26,0-6.87-.83-9-3m4.83-16.58c-.78.87-1,1.78-1,3.82h9.28v-.3c0-1.88-.28-2.7-1.17-3.62a4.6,4.6,0,0,0-3.47-1.3,4.77,4.77,0,0,0-3.63,1.4"
     style="fill:#ffffff"
     id="path2843" />
  <path
     d="M81,88.23a4,4,0,1,1,4,4,4,4,0,0,1-4-4"
     style="fill:#ffffff"
     id="path2845" />
  <path
     d="M1.61,51.2A1.8,1.8,0,1,1,3.41,53a1.8,1.8,0,0,1-1.8-1.8"
     style="fill:#ffffff"
     id="path2847" />
  <path
     d="M61.07,51.2a1.8,1.8,0,1,1,1.8,1.8,1.8,1.8,0,0,1-1.8-1.8"
     style="fill:#ffffff"
     id="path2849" />
  <metadata
     id="metadata2872">
    <rdf:RDF>
      <cc:Work
         rdf:about="">
        <dc:title>LogoCurie</dc:title>
      </cc:Work>
    </rdf:RDF>
  </metadata>
</svg>
