<?xml version="1.0" encoding="utf-8"?>
<!-- Generator: Adobe Illustrator 21.0.0, SVG Export Plug-In . SVG Version: 6.00 Build 0)  -->
<svg version="1.1" id="svg4834" xmlns:svg="http://www.w3.org/2000/svg"
	 xmlns="http://www.w3.org/2000/svg" xmlns:xlink="http://www.w3.org/1999/xlink" x="0px" y="0px" viewBox="0 0 1024 496"
	 style="enable-background:new 0 0 1024 496;" xml:space="preserve">
<style type="text/css">
	.st0{fill:#FFFFFF;}
</style>
<path id="path3888" class="st0" d="M295.1,160.1v12.1L240.4,257h53.1v14.9h-73.7v-13.6l54.1-83.7h-49.7v-14.6H295.1L295.1,160.1z"/>
<path id="path3896" class="st0" d="M478.3,206.5v14.9h-45.2V257h50.6v14.9h-67.9V160.1h66.6V175h-49.2v31.5L478.3,206.5L478.3,206.5
	z M326.9,160.1l49.4,85.5v-85.5h16.5v111.8h-18l-50.1-85.3v85.3h-16.5V160.1L326.9,160.1L326.9,160.1z M149.9,160.1
	c19.1,0,28.7,1.5,37.3,6c16,8.4,26.1,27.7,26.1,49.8c0,22-9.8,41.1-25.1,49.5c-9.8,5.4-17.2,6.5-40.6,6.5h-20.4V160.1L149.9,160.1
	L149.9,160.1z M153.6,257c14.7,0,20.4-1.2,27-5.4c9.4-6.4,14.7-19.1,14.7-35.9c0-16.8-5.7-29.5-16-35.9c-6.7-4.2-11.5-4.9-29.8-4.9
	h-4.9v82L153.6,257L153.6,257z"/>
<path id="path4140" class="st0" d="M990.6,383.1c0.4,1.2,0.6,2.2,0.6,4.1c2.1-3.1,5.2-4.8,9-4.8c3.8,0,7.1,1.8,8.5,4.6
	c1,1.9,1.2,3.3,1.2,8.8V413h-6.2v-16.2c0-3.6-0.2-5.1-0.8-6.3c-0.8-1.6-2.5-2.6-4.6-2.6c-2.4,0-4.7,1.3-5.7,3.4
	c-0.7,1.3-1,3.1-1,5.8V413h-6.2v-19.4c0-7.3,0-7.5-0.8-10.4H990.6z M957.9,399.4c0.3,6.1,3,9.3,8,9.3c3.1,0,5-1.1,6.3-3.9l5.6,0.4
	c-1.6,5.5-5.9,8.6-12.1,8.6c-8.5,0-14-6-14-15.4c0-9.7,5.4-16.1,13.8-16.1c8,0,13,6.1,13,15.8c0,0.2,0,0.7-0.1,1.3H957.9
	L957.9,399.4z M972.1,394.8c-0.6-5-2.8-7.5-6.8-7.5c-3.9,0-6.2,2.5-7.2,7.5H972.1z M948.6,387.6l-6.1-0.1c1.3,1.5,2,3.6,2,6
	c0,3.5-1.6,6.2-4.3,7.4c-2.1,1-2.8,1.1-8.9,2c-1.8,0.3-3.1,1.1-3.1,2.1c0,1.3,0.4,1.4,6.3,1.9c5.6,0.6,7.7,1,9.6,2.1
	c2.3,1.3,3.7,3.8,3.7,6.8c0,6.1-5.2,9.6-14.3,9.6c-8.8,0-14.3-3.3-14.3-8.7c0-3.5,1.8-5.7,6.2-7.2c-2.4-0.9-3.3-1.9-3.3-3.5
	c0-2.1,1.4-3.3,5.3-4.8c-3.8-1.7-5.5-4.3-5.5-8.6c0-6.3,4.6-10.4,11.8-10.4c1.6,0,3.2,0.3,5.2,0.8l9.5-0.3L948.6,387.6L948.6,387.6z
	 M924.7,416.5c0,2.8,3.3,4.4,9,4.4c5.2,0,8.1-1.6,8.1-4.3c0-3-3.1-4.5-9-4.5C927.6,412.1,924.7,413.7,924.7,416.5 M927.5,392.9
	c0,3.2,2.2,5.2,5.7,5.2c3.6,0,5.8-2,5.8-5.2c0-3.3-2.3-5.5-5.6-5.5C929.9,387.3,927.5,389.5,927.5,392.9 M894.1,383.1
	c0.4,1.2,0.6,2.2,0.6,4.1c2.1-3.1,5.2-4.8,9-4.8c3.8,0,7.1,1.8,8.5,4.6c1,1.9,1.2,3.3,1.2,8.8V413h-6.2v-16.2c0-3.6-0.2-5.1-0.8-6.3
	c-0.8-1.6-2.5-2.6-4.6-2.6c-2.4,0-4.7,1.3-5.7,3.4c-0.7,1.3-1,3.1-1,5.8V413h-6.2v-19.4c0-7.3,0-7.5-0.8-10.4L894.1,383.1
	L894.1,383.1z M861.5,383.1v17.6c0,2.8,0.4,4.5,1.1,5.5c1,1.2,2.6,1.9,4.5,1.9c2.4,0,4.4-1.2,5.6-3.2c0.7-1.3,1-2.9,1-5.5v-16.4h6.2
	v20.7c0,6.7,0,6.7,0.8,9.2h-5.9c-0.3-0.9-0.6-2.3-0.6-3.7c-2,3.1-4.5,4.4-8.2,4.4c-4,0-7.5-1.8-9.2-4.8c-0.9-1.7-1.4-4.1-1.4-8
	v-17.8L861.5,383.1L861.5,383.1z M830.2,413H824v-42.2h6.2V413L830.2,413z M849.6,383.1l-11.9,13.6l12.8,16.2h-8.4l-11.8-16.1
	l11.8-13.8H849.6L849.6,383.1z M795.9,383.1c0.4,1.2,0.6,2.2,0.6,4.1c2.1-3.1,5.2-4.8,9-4.8c3.8,0,7.1,1.8,8.5,4.6
	c1,1.9,1.2,3.3,1.2,8.8V413h-6.2v-16.2c0-3.6-0.2-5.1-0.8-6.3c-0.8-1.6-2.5-2.6-4.6-2.6c-2.4,0-4.7,1.3-5.7,3.4
	c-0.7,1.3-1,3.1-1,5.8V413h-6.2v-19.4c0-7.3,0-7.5-0.8-10.4H795.9z M758.7,391.5c0.4-3.1,1.3-5,3.3-6.5c2-1.6,5.4-2.6,9-2.6
	c5,0,8.7,1.7,9.9,4.7c0.8,1.7,1,3.3,1,7v11.6c0,4,0.2,5.5,0.9,7.2H777c-0.4-1.4-0.5-2.1-0.5-3.7c-1.6,2.9-4.5,4.4-8.6,4.4
	c-6.3,0-10.2-3.3-10.2-8.5c0-4.1,2.4-7.3,6.9-8.9c2.7-1.1,4.5-1.5,11.2-2.6v-0.8c0-3.8-1.5-5.3-5.3-5.3c-3.4,0-5.3,1.3-5.9,4.1
	L758.7,391.5L758.7,391.5z M775.9,397.8c-8.8,1.3-11.8,3-11.8,6.6c0,2.6,2.1,4.3,5.1,4.3c2.6,0,4.8-1.3,5.8-3.3
	c0.6-1.1,0.8-2.8,0.8-5.3V397.8L775.9,397.8z M742.5,383.1c0.3,1.6,0.4,2.9,0.4,4.6c0,0.4,0,0.9-0.1,1.7c2.2-4.7,4.9-7,8.2-7
	c0.8,0,1.8,0.2,3,0.6v6.2c-1.7-0.9-2.9-1.3-4.4-1.3c-2.4,0-4.3,1.4-5.4,4.1c-0.8,1.7-1.1,4-1.1,7.3V413h-6.3v-20.2
	c0-6.5-0.1-7-0.4-9.7L742.5,383.1L742.5,383.1z M710.9,413h-6.2v-42.2h6.2V413z M730.3,383.1l-11.9,13.6l12.8,16.2h-8.4L711,396.9
	l11.8-13.8L730.3,383.1L730.3,383.1z M688,383.1c0.3,1.6,0.4,2.9,0.4,4.6c0,0.4,0,0.9-0.1,1.7c2.2-4.7,4.9-7,8.2-7
	c0.8,0,1.8,0.2,3,0.6v6.2c-1.7-0.9-2.9-1.3-4.4-1.3c-2.4,0-4.3,1.4-5.4,4.1c-0.8,1.7-1.1,4-1.1,7.3V413h-6.3v-20.2
	c0-6.5-0.1-7-0.4-9.7L688,383.1L688,383.1z M673.9,388.5v5.6h-16.9v13.3h19v5.6h-25.5V371h25v5.6h-18.5v11.8L673.9,388.5
	L673.9,388.5z M606.4,399.4c0.2,6.1,3,9.3,8,9.3c3.1,0,5-1.1,6.3-3.9l5.6,0.4c-1.6,5.5-5.9,8.6-12.1,8.6c-8.5,0-14-6-14-15.4
	c0-9.7,5.4-16.1,13.8-16.1c8,0,13,6.1,13,15.8c0,0.2,0,0.7-0.1,1.3H606.4L606.4,399.4z M620.6,394.8c-0.6-5-2.8-7.5-6.8-7.5
	c-3.9,0-6.2,2.5-7.2,7.5H620.6z M576.3,383.1l7.6,23.1l7.6-23.1h6.5l-10.7,30.1h-6.9l-10.7-30.1H576.3z M565.4,374.3
	c0,2.3-1.6,3.9-3.9,3.9c-2.3,0-3.9-1.6-3.9-3.8c0-2.3,1.6-4,4-4C563.8,370.4,565.4,371.9,565.4,374.3 M564.6,413h-6.3v-29.9h6.3V413
	z M551.5,383.1l-0.1,4.9h-6.6l-0.2,13.2l-0.1,1.7v0.8c0,3.3,0.8,4.5,3.2,4.5c1.3,0,2.9-0.4,4.4-1l-0.1,5.2c-2.1,0.8-4,1.2-6.1,1.2
	c-3.2,0-5.7-1.2-7-3.3c-0.7-1.3-0.9-2.6-0.9-5.3c0-0.3,0-0.3,0.1-3.7l0.4-13.2h-4.6l0.1-4.9h4.7l0.2-8.5h6l-0.1,8.5H551.5
	L551.5,383.1z M505,391.5c0.4-3.1,1.3-5,3.3-6.5c2-1.6,5.4-2.6,9-2.6c5,0,8.7,1.7,9.9,4.7c0.8,1.7,1,3.3,1,7v11.6c0,4,0.2,5.5,1,7.2
	h-5.7c-0.4-1.4-0.5-2.1-0.5-3.7c-1.6,2.9-4.5,4.4-8.6,4.4c-6.3,0-10.2-3.3-10.2-8.5c0-4.1,2.4-7.3,6.9-8.9c2.7-1.1,4.5-1.5,11.2-2.6
	v-0.8c0-3.8-1.5-5.3-5.2-5.3c-3.4,0-5.3,1.3-5.9,4.1L505,391.5L505,391.5z M522.1,397.8c-8.8,1.3-11.8,3-11.8,6.6
	c0,2.6,2.1,4.3,5.1,4.3c2.6,0,4.8-1.3,5.8-3.3c0.6-1.1,0.8-2.8,0.8-5.3V397.8L522.1,397.8z M488.8,383.1c0.3,1.6,0.4,2.9,0.4,4.6
	c0,0.4,0,0.9-0.1,1.7c2.2-4.7,4.9-7,8.2-7c0.8,0,1.8,0.2,3,0.6v6.2c-1.7-0.9-2.9-1.3-4.4-1.3c-2.4,0-4.3,1.4-5.4,4.1
	c-0.8,1.7-1.1,4-1.1,7.3V413h-6.3v-20.2c0-6.5-0.1-7-0.4-9.7L488.8,383.1L488.8,383.1z M455.8,399.4c0.3,6.1,3,9.3,8,9.3
	c3.1,0,5-1.1,6.3-3.9l5.6,0.4c-1.6,5.5-5.9,8.6-12.1,8.6c-8.5,0-14-6-14-15.4c0-9.7,5.4-16.1,13.8-16.1c8,0,13,6.1,13,15.8
	c0,0.2,0,0.7-0.1,1.3H455.8L455.8,399.4z M470,394.8c-0.6-5-2.8-7.5-6.8-7.5c-3.8,0-6.2,2.5-7.2,7.5H470z M423.4,383.1
	c0.4,1.2,0.6,2.2,0.6,4.1c2.1-3.1,5.2-4.8,9-4.8c3.8,0,7.1,1.8,8.5,4.6c1,1.9,1.2,3.3,1.2,8.8V413h-6.2v-16.2c0-3.6-0.2-5.1-0.8-6.3
	c-0.8-1.6-2.5-2.6-4.6-2.6c-2.4,0-4.7,1.3-5.7,3.4c-0.7,1.3-1,3.1-1,5.8V413h-6.2v-19.4c0-7.3,0-7.5-0.8-10.4H423.4z M390.8,399.4
	c0.3,6.1,3,9.3,8,9.3c3.1,0,5-1.1,6.3-3.9l5.6,0.4c-1.6,5.5-5.9,8.6-12.1,8.6c-8.5,0-14-6-14-15.4c0-9.7,5.4-16.1,13.8-16.1
	c8,0,13,6.1,13,15.8c0,0.2,0,0.7-0.1,1.3H390.8L390.8,399.4z M405,394.8c-0.6-5-2.8-7.5-6.8-7.5c-3.8,0-6.2,2.5-7.2,7.5H405
	L405,394.8z M381.5,387.6l-6.1-0.1c1.3,1.5,2,3.6,2,6c0,3.5-1.6,6.2-4.3,7.4c-2.1,1-2.8,1.1-8.9,2c-1.8,0.3-3.1,1.1-3.1,2.1
	c0,1.3,0.4,1.4,6.3,1.9c5.6,0.6,7.7,1,9.6,2.1c2.3,1.3,3.7,3.8,3.7,6.8c0,6.1-5.2,9.6-14.3,9.6c-8.9,0-14.3-3.3-14.3-8.7
	c0-3.5,1.8-5.7,6.2-7.2c-2.4-0.9-3.3-1.9-3.3-3.5c0-2.1,1.4-3.3,5.3-4.8c-3.8-1.7-5.5-4.3-5.5-8.6c0-6.3,4.6-10.4,11.8-10.4
	c1.6,0,3.2,0.3,5.2,0.8l9.5-0.3L381.5,387.6L381.5,387.6z M357.6,416.5c0,2.8,3.4,4.4,9,4.4c5.2,0,8.2-1.6,8.2-4.3
	c0-3-3.1-4.5-9-4.5C360.5,412.1,357.6,413.7,357.6,416.5 M360.4,392.9c0,3.2,2.2,5.2,5.7,5.2c3.6,0,5.8-2,5.8-5.2
	c0-3.3-2.3-5.5-5.6-5.5C362.7,387.3,360.4,389.5,360.4,392.9 M327.7,399.4c0.3,6.1,3,9.3,8,9.3c3.1,0,5-1.1,6.3-3.9l5.6,0.4
	c-1.6,5.5-5.9,8.6-12.1,8.6c-8.5,0-14-6-14-15.4c0-9.7,5.4-16.1,13.8-16.1c8,0,13,6.1,13,15.8c0,0.2,0,0.7-0.1,1.3H327.7
	L327.7,399.4z M341.8,394.8c-0.6-5-2.8-7.5-6.8-7.5c-3.8,0-6.2,2.5-7.2,7.5H341.8L341.8,394.8z M314.5,403.8c0,5.2,0.1,7.2,0.6,9.2
	h-5.9c-0.3-1-0.4-2.2-0.4-2.9c0-0.1,0-0.4,0.1-0.8v-0.6c-2,3.5-4.5,4.9-8.5,4.9c-7.5,0-12.4-6.1-12.4-15.3c0-9.3,5.1-15.9,12.2-15.9
	c3.6,0,5.9,1.2,8.1,4.4v-16h6.2L314.5,403.8L314.5,403.8z M294.4,398.2c0,6.4,2.6,10.2,6.9,10.2c4.4,0,7.1-4.1,7.1-10.4
	c0-6.3-2.7-10.4-6.9-10.4C297.1,387.6,294.4,391.6,294.4,398.2 M283,398.1c0,9.2-5.8,15.7-14,15.7c-8.3,0-14-6.5-14-16
	c0-9,5.9-15.5,14-15.5C277.3,382.3,283,388.8,283,398.1 M261.4,397.9c0,6.5,3,10.8,7.6,10.8c4.5,0,7.6-4.3,7.6-10.7
	c0-6.5-3-10.8-7.6-10.8C264.5,387.3,261.4,391.6,261.4,397.9 M240.2,383.1c0.3,1.6,0.4,2.9,0.4,4.6c0,0.4,0,0.9-0.1,1.7
	c2.2-4.7,4.9-7,8.2-7c0.8,0,1.8,0.2,3,0.6v6.2c-1.7-0.9-2.9-1.3-4.4-1.3c-2.4,0-4.3,1.4-5.4,4.1c-0.8,1.7-1.1,4-1.1,7.3V413h-6.3
	v-20.2c0-6.5-0.1-7-0.4-9.7L240.2,383.1L240.2,383.1z M207.3,383.1v17.6c0,2.8,0.4,4.5,1.1,5.5c1,1.2,2.7,1.9,4.5,1.9
	c2.4,0,4.4-1.2,5.6-3.2c0.7-1.3,1-2.9,1-5.5v-16.4h6.2v20.7c0,6.7,0,6.7,0.8,9.2h-5.9c-0.3-0.9-0.6-2.3-0.6-3.7
	c-2,3.1-4.5,4.4-8.2,4.4c-4,0-7.5-1.8-9.2-4.8c-1-1.7-1.4-4.1-1.4-8v-17.8L207.3,383.1L207.3,383.1z M173.8,399.4
	c0.3,6.1,3,9.3,8,9.3c3.1,0,5-1.1,6.3-3.9l5.6,0.4c-1.6,5.5-5.9,8.6-12.1,8.6c-8.5,0-14-6-14-15.4c0-9.7,5.4-16.1,13.8-16.1
	c8,0,13,6.1,13,15.8c0,0.2,0,0.7-0.1,1.3H173.8L173.8,399.4z M188,394.8c-0.6-5-2.8-7.5-6.8-7.5c-3.8,0-6.2,2.5-7.2,7.5H188z
	 M135.3,371l18.5,32.1V371h6.2V413h-6.8l-18.8-32v32h-6.2V371H135.3L135.3,371z M722,315c0.3,1.6,0.4,2.9,0.4,4.6
	c0,0.4,0,0.9-0.1,1.7c2.2-4.7,4.9-7,8.2-7c0.8,0,1.8,0.2,3,0.6v6.2c-1.7-0.9-2.9-1.3-4.4-1.3c-2.4,0-4.3,1.4-5.4,4.1
	c-0.8,1.7-1.1,4-1.1,7.3v13.6h-6.3v-20.2c0-6.5-0.1-7-0.4-9.7L722,315L722,315z M689.1,315v17.6c0,2.8,0.4,4.5,1.1,5.5
	c1,1.2,2.7,1.9,4.5,1.9c2.4,0,4.4-1.2,5.6-3.2c0.7-1.3,1-2.9,1-5.5V315h6.2v20.7c0,6.7,0,6.7,0.8,9.2h-5.9c-0.3-0.9-0.6-2.3-0.6-3.7
	c-2,3.1-4.5,4.4-8.2,4.4c-4,0-7.5-1.8-9.2-4.8c-1-1.7-1.4-4.1-1.4-8V315L689.1,315L689.1,315z M693.5,306c0,2.1-1.7,3.8-3.8,3.8
	c-2.2,0-3.9-1.7-3.9-3.8c0-2.2,1.6-3.8,3.9-3.8C691.9,302.2,693.5,303.8,693.5,306 M704.5,306c0,2-1.8,3.8-3.9,3.8
	c-2.1,0-3.8-1.7-3.8-3.8s1.7-3.8,3.8-3.8C702.7,302.1,704.5,303.9,704.5,306 M677.9,315v4.9h-7.2v24.9h-6.3v-24.9h-4.1V315h4.1v-1.9
	c0-4.1,0.4-6.1,1.5-7.8c1.5-2.3,3.9-3.5,7.2-3.5c2.1,0,3.8,0.3,5.9,1.1v5.2c-2.2-0.8-3.3-1-4.7-1c-2.8,0-3.5,1.4-3.5,6.5v1.3H677.9
	L677.9,315z M602.4,315c0.4,1.1,0.6,2.4,0.6,4c2.1-3.2,4.9-4.7,8.9-4.7c4.1,0,6.8,1.6,8.5,5c2.4-3.5,5.4-5,9.5-5
	c3.8,0,6.8,1.5,8.1,4.1c1,1.9,1.1,2.7,1.1,8.6v17.8h-6.2v-17.7c0-3.1-0.2-4.3-0.8-5.3c-0.8-1.3-2.5-2-4.5-2c-2.3,0-4.2,1-5.2,2.7
	c-0.8,1.1-1.1,2.7-1.1,5.2v17.2h-6.2v-17c0-3.9-0.1-4.7-0.7-5.8c-0.8-1.4-2.5-2.3-4.5-2.3c-2.7,0-4.8,1.3-5.7,3.4
	c-0.6,1.3-0.8,2.6-0.8,4.7v17h-6.2v-21.7c0-5.1-0.1-5.9-0.8-8.1L602.4,315L602.4,315z M569.8,315v17.6c0,2.8,0.4,4.5,1.1,5.5
	c1,1.2,2.6,1.9,4.5,1.9c2.4,0,4.4-1.2,5.6-3.2c0.7-1.3,1-2.9,1-5.5V315h6.2v20.7c0,6.7,0,6.7,0.8,9.2H583c-0.3-0.9-0.6-2.3-0.6-3.7
	c-2,3.1-4.5,4.4-8.2,4.4c-4,0-7.5-1.8-9.2-4.8c-0.9-1.7-1.4-4.1-1.4-8V315L569.8,315L569.8,315z M547.1,315c0.3,1.6,0.4,2.9,0.4,4.6
	c0,0.4,0,0.9-0.1,1.7c2.2-4.7,4.9-7,8.2-7c0.8,0,1.8,0.2,3,0.6v6.2c-1.7-0.9-2.9-1.3-4.4-1.3c-2.4,0-4.3,1.4-5.4,4.1
	c-0.8,1.7-1.1,4-1.1,7.3v13.6h-6.3v-20.2c0-6.5-0.1-7-0.4-9.7L547.1,315L547.1,315z M534.8,315l-0.1,4.9h-6.6l-0.2,13.2l-0.1,1.7
	v0.8c0,3.3,0.8,4.5,3.2,4.5c1.3,0,2.9-0.4,4.4-1l-0.1,5.2c-2.2,0.8-4,1.2-6.1,1.2c-3.2,0-5.7-1.2-7-3.3c-0.7-1.3-1-2.6-1-5.3
	c0-0.3,0-0.3,0.1-3.7l0.4-13.2h-4.6l0.1-4.9h4.7l0.2-8.5h6l-0.1,8.5H534.8L534.8,315z M492.1,315c0.4,1.2,0.6,2.2,0.6,4.1
	c2.1-3.1,5.2-4.8,9-4.8c3.8,0,7.1,1.8,8.5,4.6c1,1.9,1.2,3.3,1.2,8.8v17.2h-6.2v-16.2c0-3.6-0.2-5.1-0.8-6.3
	c-0.8-1.6-2.5-2.6-4.6-2.6c-2.4,0-4.7,1.3-5.7,3.4c-0.7,1.3-1,3.1-1,5.8v15.9h-6.2v-19.4c0-7.3,0-7.5-0.8-10.4L492.1,315L492.1,315z
	 M459.5,331.3c0.3,6.1,3,9.3,8,9.3c3.1,0,5-1.1,6.3-3.9l5.6,0.4c-1.6,5.5-5.9,8.6-12.1,8.6c-8.5,0-14-6-14-15.4
	c0-9.7,5.4-16.1,13.8-16.1c8,0,13,6.1,13,15.8c0,0.2,0,0.7-0.1,1.3H459.5z M473.6,326.7c-0.6-5-2.8-7.5-6.8-7.5
	c-3.8,0-6.2,2.5-7.2,7.5H473.6z M449.2,302.9v4.5l-20.5,31.8h19.9v5.6H421v-5.1l20.3-31.4h-18.6v-5.5L449.2,302.9L449.2,302.9z
	 M394.5,323.7c-0.4-3.3-2.1-4.7-5.4-4.7c-3,0-4.9,1.5-4.9,3.8c0,2.1,0.9,2.8,7.1,4.6c4.7,1.3,6.6,2.3,7.8,3.8c1.1,1.3,1.7,3,1.7,5
	c0,5.9-4.4,9.5-11.6,9.5c-8,0-12.4-3.6-12.4-10.4h5.9c0.3,3.8,2.3,5.6,6.3,5.6c3.4,0,5.5-1.6,5.5-4.1c0-1.4-0.6-2.2-2.1-2.9
	c-1-0.5-1.6-0.8-6.4-2.2c-6-1.8-8.2-4-8.2-8.2c0-5.5,4.4-9.2,11.2-9.2c7,0,11,3.4,11.4,9.5L394.5,323.7L394.5,323.7z M351.3,331.3
	c0.3,6.1,3,9.3,8,9.3c3.1,0,5-1.1,6.3-3.9l5.6,0.4c-1.6,5.5-5.9,8.6-12.1,8.6c-8.5,0-14-6-14-15.4c0-9.7,5.4-16.1,13.8-16.1
	c8,0,13,6.1,13,15.8c0,0.2,0,0.7-0.1,1.3H351.3L351.3,331.3z M365.5,326.7c-0.6-5-2.8-7.5-6.8-7.5c-3.8,0-6.2,2.5-7.2,7.5H365.5
	L365.5,326.7z M319.8,302.7v15.7c2.2-2.7,5.1-4.1,8.7-4.1c3.7,0,7.1,1.7,8.5,4.3c1.1,1.8,1.4,3.8,1.4,9.1v17.2h-6.2v-16.2
	c0-3.4-0.3-5-0.9-6.3c-0.9-1.7-2.6-2.6-4.7-2.6c-2.4,0-4.6,1.4-5.7,3.5c-0.7,1.4-1,3.2-1,5.8v15.8h-6.2v-42.2H319.8L319.8,302.7z
	 M300.6,324.9c-0.6-4-2.3-5.7-5.6-5.7c-4.4,0-7.2,4.1-7.2,10.8c0,6.7,2.7,10.6,7.3,10.6c3.5,0,5.3-2,5.8-6.2h6.1
	c-0.4,7-5,11.2-11.9,11.2c-8.2,0-13.7-6.3-13.7-15.6c0-9.6,5.4-15.8,13.7-15.8c6.8,0,10.8,3.8,11.6,10.7H300.6L300.6,324.9z
	 M269.9,323.7c-0.4-3.3-2.1-4.7-5.4-4.7c-3,0-4.9,1.5-4.9,3.8c0,2.1,0.9,2.8,7.1,4.6c4.7,1.3,6.6,2.3,7.8,3.8c1.1,1.3,1.7,3,1.7,5
	c0,5.9-4.4,9.5-11.6,9.5c-8,0-12.4-3.6-12.4-10.4h5.9c0.3,3.8,2.3,5.6,6.3,5.6c3.4,0,5.5-1.6,5.5-4.1c0-1.4-0.6-2.2-2.1-2.9
	c-1-0.5-1.6-0.8-6.4-2.2c-6-1.8-8.2-4-8.2-8.2c0-5.5,4.4-9.2,11.2-9.2c6.9,0,11,3.4,11.4,9.5L269.9,323.7L269.9,323.7z M247.4,315
	l-0.1,4.9h-6.6l-0.2,13.2l-0.1,1.7v0.8c0,3.3,0.8,4.5,3.2,4.5c1.3,0,2.9-0.4,4.4-1l-0.1,5.2c-2.2,0.8-4,1.2-6.1,1.2
	c-3.2,0-5.7-1.2-7-3.3c-0.7-1.3-1-2.6-1-5.3c0-0.3,0-0.3,0.1-3.7l0.4-13.2h-4.6l0.1-4.9h4.7l0.2-8.5h6l-0.1,8.5H247.4L247.4,315z
	 M205.4,315v17.6c0,2.8,0.4,4.5,1.1,5.5c1,1.2,2.7,1.9,4.5,1.9c2.4,0,4.4-1.2,5.6-3.2c0.7-1.3,1-2.9,1-5.5V315h6.2v20.7
	c0,6.7,0,6.7,0.8,9.2h-5.9c-0.3-0.9-0.6-2.3-0.6-3.7c-2,3.1-4.5,4.4-8.2,4.4c-4,0-7.5-1.8-9.2-4.8c-1-1.7-1.4-4.1-1.4-8V315
	L205.4,315L205.4,315z M172,331.3c0.3,6.1,3,9.3,8,9.3c3.1,0,5-1.1,6.3-3.9l5.6,0.4c-1.6,5.5-5.9,8.6-12.1,8.6c-8.5,0-14-6-14-15.4
	c0-9.7,5.4-16.1,13.8-16.1c8,0,13,6.1,13,15.8c0,0.2,0,0.7-0.1,1.3H172L172,331.3z M186.2,326.7c-0.6-5-2.8-7.5-6.8-7.5
	c-3.8,0-6.2,2.5-7.2,7.5H186.2z M136.8,302.9c7.1,0,10.7,0.6,14,2.3c6,3.1,9.8,10.4,9.8,18.7c0,8.2-3.7,15.4-9.4,18.5
	c-3.7,2-6.4,2.5-15.2,2.5h-7.6v-41.9L136.8,302.9L136.8,302.9z M138.2,339.3c5.5,0,7.6-0.4,10.1-2c3.5-2.4,5.5-7.2,5.5-13.4
	c0-6.3-2.1-11.1-6-13.4c-2.5-1.6-4.3-1.8-11.2-1.8h-1.8v30.7H138.2z"/>
<path id="path4274" class="st0" d="M942.6,451.2l-0.1,4.9h-6.6l-0.2,13.2l-0.1,1.7v0.8c0,3.3,0.8,4.5,3.2,4.5c1.3,0,2.9-0.4,4.4-1
	l-0.1,5.2c-2.1,0.8-4,1.2-6.1,1.2c-3.2,0-5.7-1.2-7-3.3c-0.7-1.3-0.9-2.6-0.9-5.3c0-0.3,0-0.3,0.1-3.7l0.4-13.2h-4.6l0.1-4.9h4.7
	l0.2-8.5h6l-0.1,8.5L942.6,451.2L942.6,451.2z M921.5,451.2v4.9h-7.2v24.9H908v-24.9h-4.1v-4.9h4.1v-1.9c0-4.1,0.4-6.1,1.4-7.8
	c1.5-2.3,3.9-3.5,7.2-3.5c2.1,0,3.8,0.3,5.9,1.1v5.2c-2.2-0.8-3.3-1-4.7-1c-2.8,0-3.5,1.4-3.5,6.5v1.3H921.5z M875.4,459.6
	c0.4-3.1,1.3-5,3.3-6.5c2-1.6,5.4-2.6,9-2.6c5,0,8.7,1.7,9.9,4.7c0.8,1.7,0.9,3.3,0.9,7v11.6c0,4,0.2,5.5,1,7.2h-5.8
	c-0.4-1.4-0.5-2.1-0.5-3.7c-1.6,2.9-4.5,4.4-8.6,4.4c-6.3,0-10.2-3.3-10.2-8.5c0-4.1,2.4-7.3,6.9-8.9c2.7-1.1,4.5-1.5,11.2-2.6v-0.8
	c0-3.8-1.5-5.3-5.2-5.3c-3.4,0-5.3,1.3-5.9,4.1H875.4L875.4,459.6z M892.5,465.9c-8.8,1.3-11.8,3-11.8,6.6c0,2.6,2.1,4.3,5.1,4.3
	c2.6,0,4.8-1.3,5.8-3.3c0.6-1.1,0.8-2.8,0.8-5.3L892.5,465.9L892.5,465.9z M848.8,438.9v15.7c2.2-2.7,5.1-4.1,8.7-4.1
	c3.7,0,7.1,1.7,8.5,4.3c1.1,1.8,1.4,3.8,1.4,9.1v17.2h-6.2v-16.2c0-3.4-0.3-5-0.9-6.3c-0.9-1.7-2.6-2.6-4.7-2.6
	c-2.4,0-4.6,1.4-5.7,3.5c-0.7,1.4-1,3.2-1,5.8v15.8h-6.2v-42.2H848.8L848.8,438.9z M829.6,461.1c-0.6-4-2.3-5.7-5.6-5.7
	c-4.4,0-7.2,4.1-7.2,10.8c0,6.7,2.7,10.6,7.3,10.6c3.5,0,5.3-2,5.8-6.2h6.1c-0.4,7-5,11.2-11.9,11.2c-8.2,0-13.6-6.3-13.6-15.6
	c0-9.6,5.4-15.8,13.7-15.8c6.8,0,10.8,3.8,11.6,10.7H829.6z M798.9,460c-0.4-3.3-2.1-4.7-5.4-4.7c-3,0-4.9,1.5-4.9,3.8
	c0,2.1,0.9,2.8,7.1,4.6c4.7,1.3,6.6,2.3,7.8,3.8c1.1,1.3,1.7,3,1.7,5c0,5.9-4.4,9.5-11.6,9.5c-8,0-12.4-3.6-12.4-10.4h5.9
	c0.3,3.8,2.3,5.6,6.3,5.6c3.4,0,5.5-1.6,5.5-4.1c0-1.4-0.6-2.2-2.1-2.9c-0.9-0.5-1.6-0.8-6.4-2.2c-6-1.8-8.2-4-8.2-8.2
	c0-5.5,4.4-9.2,11.2-9.2c6.9,0,11,3.4,11.4,9.5L798.9,460L798.9,460z M755,451.2c0.4,1.2,0.6,2.2,0.6,4.1c2.1-3.1,5.2-4.8,9-4.8
	c3.8,0,7.1,1.8,8.5,4.6c1,1.9,1.2,3.3,1.2,8.8v17.2h-6.2v-16.2c0-3.6-0.2-5.1-0.8-6.3c-0.8-1.6-2.5-2.6-4.6-2.6
	c-2.4,0-4.7,1.3-5.7,3.4c-0.7,1.3-1,3.1-1,5.8v15.9h-6.2v-19.4c0-7.3,0-7.5-0.8-10.4L755,451.2L755,451.2z M741.6,442.4
	c0,2.3-1.6,3.9-3.9,3.9c-2.3,0-3.9-1.6-3.9-3.8c0-2.3,1.6-4,4-4C740,438.5,741.6,440,741.6,442.4 M740.8,481.1h-6.3v-29.9h6.3V481.1
	z M707.1,467.5c0.3,6.1,3,9.3,8,9.3c3.1,0,5-1.1,6.3-3.9l5.6,0.4c-1.6,5.5-5.9,8.6-12.1,8.6c-8.5,0-14-6-14-15.4
	c0-9.7,5.4-16.1,13.8-16.1c8,0,13,6.1,13,15.8c0,0.2,0,0.7-0.1,1.3H707.1z M721.2,462.9c-0.6-5-2.8-7.5-6.8-7.5
	c-3.9,0-6.2,2.4-7.2,7.5H721.2z M657.4,451.2c0.4,1.1,0.6,2.4,0.6,4c2.1-3.2,4.9-4.7,8.9-4.7c4.1,0,6.8,1.6,8.5,5
	c2.4-3.5,5.4-5,9.5-5c3.9,0,6.8,1.5,8.1,4.1c1,1.9,1.1,2.7,1.1,8.6v17.8h-6.2v-17.7c0-3.1-0.2-4.3-0.8-5.3c-0.8-1.3-2.5-2-4.5-2
	c-2.3,0-4.2,1-5.2,2.7c-0.8,1.1-1.1,2.7-1.1,5.2v17.2H670v-17c0-3.9-0.1-4.7-0.7-5.8c-0.8-1.4-2.5-2.3-4.5-2.3
	c-2.7,0-4.8,1.3-5.7,3.4c-0.6,1.3-0.8,2.6-0.8,4.7v17h-6.2v-21.7c0-5.1-0.1-5.9-0.8-8.1H657.4z M624.7,467.5c0.3,6.1,3,9.3,8,9.3
	c3.1,0,5-1.1,6.3-3.9l5.6,0.4c-1.6,5.5-5.9,8.6-12.1,8.6c-8.5,0-14-6-14-15.4c0-9.7,5.4-16.1,13.8-16.1c8,0,13,6.1,13,15.8
	c0,0.2,0,0.7-0.1,1.3H624.7z M638.8,462.9c-0.6-5-2.8-7.5-6.8-7.5c-3.8,0-6.2,2.4-7.2,7.5H638.8z M612.3,459.8v17.3
	c-4.5,3.1-9.3,4.7-14.8,4.7c-11.7,0-18.8-8.2-18.8-21.7c0-13.1,7.1-21.7,18.2-21.7c5.2,0,9.4,1.9,12.1,5.3c1.6,2.2,2.4,4.5,2.8,8.1
	H606c-0.9-5.2-3.8-7.7-8.9-7.7c-7.1,0-11.5,6-11.5,16.1c0,5.2,1.3,9.5,3.7,12.4c1.9,2.4,4.7,3.6,8.3,3.6c3.2,0,6.4-0.9,9.2-2.7v-8.5
	h-8.5v-5.1L612.3,459.8L612.3,459.8z M559.1,467.6H576V463h-16.9V467.6z M557.5,451.2v4.6L541.8,476h15.7v5.1h-23v-4.8l15.5-20h-14
	v-5.1L557.5,451.2L557.5,451.2z M530.8,451.2l-0.1,4.9h-6.6l-0.2,13.2l-0.1,1.7v0.8c0,3.3,0.8,4.5,3.2,4.5c1.3,0,2.9-0.4,4.4-1
	l-0.1,5.2c-2.2,0.8-4,1.2-6.1,1.2c-3.2,0-5.7-1.2-7-3.3c-0.7-1.3-1-2.6-1-5.3c0-0.3,0-0.3,0.1-3.7l0.4-13.2h-4.6l0.1-4.9h4.7
	l0.2-8.5h6l-0.1,8.5L530.8,451.2L530.8,451.2z M501,481.1h6.3v-42.2H501V481.1z M494,466.2c0,9.2-5.8,15.7-14,15.7
	c-8.3,0-14-6.5-14-16c0-9,5.9-15.5,14-15.5C488.2,450.4,494,456.9,494,466.2 M472.4,466.1c0,6.5,3,10.8,7.6,10.8
	c4.6,0,7.6-4.3,7.6-10.7c0-6.5-3-10.8-7.6-10.8C475.5,455.4,472.4,459.7,472.4,466.1 M440.7,438.9v15.7c2.2-2.7,5.1-4.1,8.7-4.1
	c3.7,0,7.1,1.7,8.5,4.3c1.1,1.8,1.4,3.8,1.4,9.1v17.2h-6.2v-16.2c0-3.4-0.3-5-0.9-6.3c-0.9-1.7-2.6-2.6-4.7-2.6
	c-2.4,0-4.6,1.4-5.7,3.5c-0.7,1.4-1,3.2-1,5.8v15.8h-6.2v-42.2H440.7L440.7,438.9z M389.1,451.2c0.4,1.1,0.6,2.4,0.6,4
	c2.1-3.2,4.9-4.7,8.9-4.7c4.1,0,6.8,1.6,8.5,5c2.4-3.5,5.4-5,9.5-5c3.9,0,6.8,1.5,8.1,4.1c1,1.9,1.1,2.7,1.1,8.6v17.8h-6.2v-17.7
	c0-3.1-0.2-4.3-0.8-5.3c-0.8-1.3-2.5-2-4.5-2c-2.3,0-4.2,1-5.2,2.7c-0.8,1.1-1.1,2.7-1.1,5.2v17.2h-6.2v-17c0-3.9-0.1-4.7-0.7-5.8
	c-0.8-1.4-2.5-2.3-4.6-2.3c-2.6,0-4.8,1.3-5.7,3.4c-0.6,1.3-0.8,2.6-0.8,4.7v17h-6.2v-21.7c0-5.1-0.1-5.9-0.8-8.1H389.1L389.1,451.2
	z M368.5,481.1h6.3v-42.2h-6.3V481.1z M341.1,467.5c0.3,6.1,3,9.3,8,9.3c3.1,0,5-1.1,6.3-3.9l5.6,0.4c-1.6,5.5-5.9,8.6-12.1,8.6
	c-8.5,0-14-6-14-15.4c0-9.7,5.4-16.1,13.8-16.1c8,0,13,6.1,13,15.8c0,0.2,0,0.7-0.1,1.3H341.1L341.1,467.5z M355.2,462.9
	c-0.6-5-2.8-7.5-6.8-7.5c-3.8,0-6.2,2.4-7.2,7.5H355.2L355.2,462.9z M320.6,456.5v-17.3h6.5v41.9h-6.5v-19.2h-18.2v19.2h-6.5v-41.9
	h6.5v17.3H320.6z M262.5,451.2c0.3,1.6,0.4,2.9,0.4,4.6c0,0.4,0,0.9-0.1,1.7c2.2-4.7,4.9-7,8.2-7c0.8,0,1.8,0.2,3,0.6v6.2
	c-1.7-0.9-2.9-1.3-4.4-1.3c-2.4,0-4.3,1.4-5.4,4.1c-0.8,1.7-1.1,4-1.1,7.3v13.6H257v-20.2c0-6.5-0.1-7-0.4-9.7H262.5L262.5,451.2z
	 M229.6,467.5c0.3,6.1,3,9.3,8,9.3c3.1,0,5-1.1,6.3-3.9l5.6,0.4c-1.6,5.5-5.9,8.6-12.1,8.6c-8.5,0-14-6-14-15.4
	c0-9.7,5.4-16.1,13.8-16.1c8,0,13,6.1,13,15.8c0,0.2,0,0.7-0.1,1.3H229.6L229.6,467.5z M243.8,462.9c-0.6-5-2.8-7.5-6.8-7.5
	c-3.8,0-6.2,2.4-7.2,7.5H243.8L243.8,462.9z M216.4,471.9c0,5.2,0.1,7.2,0.6,9.2h-5.9c-0.3-1-0.4-2.2-0.4-2.9c0-0.1,0-0.4,0.1-0.8
	v-0.6c-2,3.5-4.5,4.9-8.5,4.9c-7.5,0-12.4-6.1-12.4-15.3c0-9.3,5.1-15.9,12.2-15.9c3.6,0,5.9,1.2,8.1,4.4v-16h6.2L216.4,471.9
	L216.4,471.9z M196.3,466.3c0,6.4,2.6,10.2,6.9,10.2c4.4,0,7.1-4.1,7.1-10.4c0-6.3-2.7-10.4-6.9-10.4
	C199,455.8,196.3,459.7,196.3,466.3 M148,451.2c0.4,1.2,0.6,2.2,0.6,4.1c2.1-3.1,5.2-4.8,9-4.8c3.8,0,7.1,1.8,8.5,4.6
	c1,1.9,1.2,3.3,1.2,8.8v17.2h-6.2v-16.2c0-3.6-0.2-5.1-0.8-6.3c-0.8-1.6-2.5-2.6-4.6-2.6c-2.4,0-4.7,1.3-5.7,3.4
	c-0.7,1.3-1,3.1-1,5.8v15.9h-6.2v-19.4c0-7.3,0-7.5-0.8-10.4L148,451.2L148,451.2z M134.6,442.4c0,2.3-1.6,3.9-3.9,3.9
	c-2.3,0-3.9-1.6-3.9-3.8c0-2.3,1.6-4,4-4C133,438.5,134.6,440,134.6,442.4 M133.8,481.1h-6.3v-29.9h6.3V481.1z"/>
<path id="path4290" class="st0" d="M130.7,79.4c-0.2-0.2-0.5-0.3-0.9-0.3c-5.5,0.3-10.9,1.2-16.1,2.6c-11.7,4.1-22.6,9.8-32.7,16.7
	c-13,9-24.5,20.2-33.9,33c-18.1,24.5-28.9,55.1-28.9,88.4c0,15.1,2.3,29.6,6.4,43.2c0.7,2.2,1.4,4.5,2.1,6.6c-0.2,0-0.3,0.1-0.5,0.1
	l-1.1,0.2c-2.1,0-4.1-0.1-6.1-0.7c-1-0.3-5.1-3.2-5-0.5c0.1,1.5,1.3,4.8,2.4,5.7c3.1,2.7,5.7,3.8,9.3,3.8c0,0.8-0.1,1.6-0.2,2.5
	c-1.1,7.2-5.3,13.6-7.9,20.3c-2.6,6.8-3.2,13.7-2.2,20.9c1.8,17.3,15,30.4,20.2,46.7c3.9,12.3,8.1,24.4,12.1,36.7
	c1.5,4.7,3.1,9.4,4.4,14.2c1,3.7,2.7,7.4,6.4,9.2c1.9,0.6,3.5,0.8,3.7-1.7c0.5-5.4-3.8-10.9-3.8-16.5c-0.1-6.2,2.2-12.8-1.7-18.1
	c-2.9-3.9-2.4-7.5,0-11.5c3.3-5.5-6-7.2-5.8-13c0.2-7.1,3.2-12.6,1.2-19.8c-1.9-6.5-7.4-9-13.3-11.6c-20.1-9.1-9.8-28-1.4-42.4
	c0.1-0.2,0.2-0.4,0.3-0.5c4.2-7.1,8.5-14.3,11.2-22.1c2.4-6.9,2.5-13.7,2-20.6C48,238,46.5,224.3,46.5,210
	c0-24.7,4.6-47.7,12.5-66.7c9.3-22.6,23.3-39.7,39.7-47.8c2.5-1.4,5-2.8,7.6-3.9c7.4-3.1,15.4-5,23.6-5.5c0.6,0,1.1-0.6,1.1-1.2
	v-4.7C131,79.9,130.9,79.6,130.7,79.4 M220.9,54.3c-8-5.6-16.8-10-26.1-13c-9.4-3-19.1-4.5-29-4.5c-2.2,0-4.4,0.1-6,0.2
	c-0.6,0-1.1,0.6-1.1,1.2v4.7c0,0.3,0.1,0.6,0.4,0.9c0.2,0.2,0.6,0.3,0.9,0.3c2.1-0.1,4.1-0.2,5.9-0.2c18.4,0,36,5.6,51,16.2
	c18.7,13.3,31.3,33.1,35.5,55.9c0.1,0.6,0.6,1,1.2,1h4.8c0.3,0,0.7-0.2,0.9-0.4c0.2-0.3,0.3-0.6,0.3-1
	C254.9,90.5,241.3,68.7,220.9,54.3 M269.7,58c-18.3-23.4-44.8-39-74.6-43.9c-0.3-0.1-0.7,0-1,0.3c-0.3,0.2-0.4,0.5-0.4,0.9V20
	c0,0.6,0.4,1.1,1,1.2C222.4,26,247,40.6,264,62.4c17,21.8,25.2,49.1,23,77.1c0,0.3,0.1,0.6,0.3,0.9c0.2,0.2,0.5,0.4,0.9,0.4h4.7
	c0.6,0,1.1-0.5,1.2-1.1C296.3,110,287.7,81,269.7,58 M157.5,63c-0.4,0-0.8,0-1.2,0l-0.5,0c-0.6,0-1.2,0.5-1.2,1.2v4.6
	c0,0.6,0.5,1.2,1.2,1.2c0,0,0.1,0,0.1,0c0,0,1.2,0,1.2,0c18.5,0,35.7,7,48.6,19.8c11.8,11.8,18.9,27.6,19.8,44.5
	c0,0.6,0.6,1.1,1.2,1.1h4.7c0.3,0,0.6-0.1,0.9-0.4c0.2-0.2,0.3-0.5,0.3-0.9c-0.9-18.8-8.6-36.4-21.8-49.4
	C196.7,70.7,177.8,63,157.5,63"/>
</svg>
