<svg id="Marchio" xmlns="http://www.w3.org/2000/svg" viewBox="0 0 590.93 193.28"><defs><style>.cls-1{fill:#fff;}</style></defs><polygon class="cls-1" points="465.04 98.29 457.33 101.87 456.74 101.22 456.54 101.42 458.12 103.13 458.31 102.94 457.55 102.12 463.38 99.45 463.4 99.45 460.31 105.1 459.66 104.4 459.46 104.6 461.55 106.87 461.77 106.68 461.16 106.03 465.23 98.52 465.04 98.29"/><path class="cls-1" d="M610.71,274.45a4.1,4.1,0,0,1-1.71-.73c-.4-.26-.54-.65-.93-.12a9.69,9.69,0,0,0-.65,1.24,29.46,29.46,0,0,1-1.52,3,5.54,5.54,0,0,0-.78,1.43c-.09.19.78-.14,1-.2.48-.08,1-.2,1.49-.31l2.39-.45c.25,0,1-2.58,1-3.32C611.05,274.79,611.11,274.48,610.71,274.45Z" transform="translate(-137.52 -199.06)"/><polygon class="cls-1" points="457.38 88.39 457.89 89.32 458.12 89.21 456.6 86.28 456.35 86.42 456.82 87.35 450.1 90.92 449.59 90 449.37 90.11 450.88 93.03 451.14 92.89 450.66 91.97 457.38 88.39"/><path class="cls-1" d="M624.55,314.26l.65-1.86-5.77-2-.08.25,1,.36L617.83,318l-1-.37-.09.25,5.91,2.14.93-2.08-.31-.08c-.9,1.54-1.46,1.57-3,1l-1.37-.51,1.26-3.52c1.1.42,1.55.74,1.19,2l.22.06,1-2.87-.25-.09c-.59,1.16-1,1-2.11.62l1.18-3.26,1.49.53a1.72,1.72,0,0,1,1.35,2.28Z" transform="translate(-137.52 -199.06)"/><polygon class="cls-1" points="480.51 110.95 481.33 111.37 481.46 111.15 479.36 110 474.94 114.39 474.94 114.36 476.26 108.31 474.15 107.19 474.01 107.41 474.8 107.86 471.23 114.44 470.44 114.02 470.3 114.27 472.21 115.29 472.35 115.06 471.54 114.61 475.05 108.14 475.08 108.17 473.42 115.96 473.7 116.1 479.41 110.5 475.9 116.97 475.08 116.55 474.97 116.78 477.61 118.24 477.75 117.99 476.94 117.54 480.51 110.95"/><polygon class="cls-1" points="455.22 82.68 455.11 82.4 446.64 82.96 446.33 82.15 446.08 82.26 446.92 84.43 447.17 84.31 446.78 83.27 453.17 82.88 448.27 87.04 447.91 86.14 447.65 86.25 448.78 89.15 449.03 89.04 448.72 88.2 455.22 82.68"/><polygon class="cls-1" points="443.99 56.55 451.54 57.53 451.39 58.57 451.67 58.63 452.1 55.37 451.84 55.31 451.7 56.35 444.16 55.37 444.28 54.33 443.99 54.27 443.57 57.53 443.85 57.59 443.99 56.55"/><path class="cls-1" d="M581.43,262.72a2.32,2.32,0,0,0,1.38.56,2.15,2.15,0,0,0,1.91-.93c.14-.17.81-2.05,1-2.5.42-.93.76-1.07,1.47-1.07a1.94,1.94,0,0,1,1.68,2.14,2.49,2.49,0,0,1-2,2.28l0,.22,2.11.09v-.17l-.51-.54a2.56,2.56,0,0,0,.73-1.85,2.49,2.49,0,0,0-2.58-2.76c-3.35-.11-2.2,4.56-4.22,4.47a1.61,1.61,0,0,1-1.44-1.77,2.21,2.21,0,0,1,1.89-2v-.26l-1.89-.05,0,.16.34.48a3.77,3.77,0,0,0-.59,1.61A2.31,2.31,0,0,0,581.43,262.72Z" transform="translate(-137.52 -199.06)"/><path class="cls-1" d="M584,252.7c-1.13-.5-1.94-.84-1.69-2l.2-.81,7.39,1.74-.22,1,.28,0,.73-3.12-.28-.06-.23,1-7.42-1.75.14-.5c.28-1.24,1.27-1.43,2.45-1.29l0-.32-2.3-.44-1.44,6.13,2.25.64Z" transform="translate(-137.52 -199.06)"/><path class="cls-1" d="M640.17,214.39A48.64,48.64,0,1,0,688.81,263,48.63,48.63,0,0,0,640.17,214.39Zm-31.26,74.35c-.78.56-1,1.8-1.41,2.65-.19.45-.36.87-.5,1.32a2.22,2.22,0,0,0-.17.56c-.08.45-.17.9-.22,1.35a.23.23,0,0,1-.15.17l-.25.09L606,295a9,9,0,0,1-.76-.85h.88c.19,0,.25-1.15,0-1.15h-1.89c-.25-.31-.5-.65-.76-1a7.18,7.18,0,0,0,3.27-1.21,15.62,15.62,0,0,0,1.07-1.4c.25-.37.67-1.07,1.12-1.18.08,0,.17,0,.2,0s.11.09.08.23S609,288.66,608.91,288.74Zm63.16,8.5a1.71,1.71,0,0,0-2-.43c-.93.43-6.13-11.36-5.18-10.71s3.52,9,6.84,10.24c.34.11.65.22.93.28C672.49,296.81,672.27,297,672.07,297.24Zm3.51-3.69a12.83,12.83,0,0,1-.42-2.3c-.14-1.89-1.37-2.42-2.44-3-1.52-.87-5-3.6-4.84-4.13,0-.11.19-.09.28,0,4.22,3.83,7.88,5.07,10.63,5.32A43.93,43.93,0,0,1,675.58,293.55Zm8.7-26.42c.11-.19.56-.25.76-.36-.2-.51-.68-1.29-1.24-1,.73.47-1.61,1.46-2.73,2.5-.31.31-1.15,1-1.32.84-.62.23-1.07,2.09-1.44,3.1-.19.48-.17.48-.36,1a8.3,8.3,0,0,0-.51,1.72c-.06.31.14.33.48.25a16.13,16.13,0,0,1,1.66-.31,14.79,14.79,0,0,1,1.58-.25l4.41-.42c-.17.75-.36,1.46-.59,2.19,0-1.46-.45-1.52-.45-1.52A8.83,8.83,0,0,0,681,275c-.47.14-.33,1.24-.45,1.66a15.29,15.29,0,0,0-.73,2.45c0,.11.22.37.17.48-.2.28-2.14-.42-2.53-.48a19.45,19.45,0,0,0-3.12-.48h-.17a3.09,3.09,0,0,0,0,.4,4.49,4.49,0,0,1-.37,1.32c-.14.25-.42.45-.06.65a9.22,9.22,0,0,0,.91.39c.67.31,6.21,2.08,6.64,2.08a3.12,3.12,0,0,1,.89.09c-.08.19-.19.39-.28.59a1.29,1.29,0,0,0-.36.06,88,88,0,0,1-8.41-2.76c-1.58.14-1.38-.59-3.46-1.07a8.22,8.22,0,0,1-1.35-.06c-.82-.2-1.1-.53-.87-.62l-4.31-.7a.17.17,0,0,0-.2.17,4.7,4.7,0,0,0-.22,1c0,.43.08,1,.28,1,1.38.28,7.4,1.26,7.76,1.32s.59.39.28.36-4-.28-4.47-.36c-1-.14-2.42,2.11-2.5,3.88,0,1.52-.06,5.77-.11,6.92s-.2,1.69.33,1.94c1.24.08,3.1,2.34,5.94,3.63-.42.37-.87.7-1.3,1l.6-.7s-1.27-1.13-2.06-1.69a1,1,0,0,1-1,1.15,1.28,1.28,0,0,0-1.18,1.1c-.12.34,2.76.4,3.35.4a46.86,46.86,0,0,1-54.89,1.48l1.24-.25c.67-.11.62-.28.62-.31a.86.86,0,0,0-.87-.92c-.43-.06-2.73-.26-2.73-.26s2.19-.53,2.61-1.35a3.28,3.28,0,0,0,.28-1.18c.12-.73.23-1.46.31-2.2.23-1.74.43-2.56.57-4.33.05-.73.39-3,.14-2.73,0,0-.17.76-.34,1.3-.2.7-.37,1.46-.59,2.16s-.45,1.41-.7,2.11a16.72,16.72,0,0,1-2,3.91,5.87,5.87,0,0,1-1.72,1.64c-.25-.2-.5-.43-.75-.65a4.46,4.46,0,0,0,1.88-1.61,17.18,17.18,0,0,0,2.16-3.93,41.43,41.43,0,0,0,1.95-5.74c.9-3.07-.62-3.63-1.72-3.58-4.64.26-11.23,2.09-11.2,1.95s.14-.34.26-.37c1-.2,14.48-3.43,14.48-3.43s.23,0,.29-.45a12.2,12.2,0,0,0,.11-1.24c0-.14-.17-.11-.17-.11s-4.7,1.38-5.34,1.52c-.34.05-.79.22-1.33.28-.17,0-.59,0-.64,0a1.8,1.8,0,0,1-.85.59c-.56.2-5.37,1.6-5.74,1.72-.9.27-1.18.27-1.46.16l-.08,1.41s-1.58.48-2.59.87l-.34-.59c1.49-.79,1.44-2,.62-2.78a7.25,7.25,0,0,1-3.1-4.62c-.14-.78-.39-.76-.76-.9-.19,0-.36,0-.45,0a3.45,3.45,0,0,1-.14-.42c2-.06,7.71-.42,7.79-.76-.3-1-.3-3.18-1.54-4.3-2.11-1.92-3.94-3.89-4.19-4.11-.42-.08-2,.87-1.58,1.15s1.27.23,1.38.65c-.17.06-.42-.06-.59-.08a3.42,3.42,0,0,0-2.78,1.35,45.78,45.78,0,0,1-.74-8.16A46.79,46.79,0,0,1,687,263a42.68,42.68,0,0,1-.34,5.43C685.54,266.74,684,267.53,684.28,267.13Z" transform="translate(-137.52 -199.06)"/><path class="cls-1" d="M589.16,270.45l.09.93.28,0-.31-3.06-.25,0,.08.95-4,.4-.08-.76c-.14-1.52.76-1.72,1.32-1.83.73-.17,1.69-.34,1.92-.42a1.38,1.38,0,0,0,.87-1.61,3.05,3.05,0,0,0-.34-1l-.28,0a1.37,1.37,0,0,1,.14,1.07c-.09.28-.62.39-1.21.42-1.94.09-2.36,1.07-2.59,2.51h0c-.19-1.13-.64-2.51-2.22-2.37-.56.06-1.74.54-1.52,2.87l.34,3.6.28,0-.08-.93Zm-7.79-1.63c-.11-1.15.2-1.69,1.38-1.82,1.66-.15,1.86.67,2,2l0,.65-3.32.34Z" transform="translate(-137.52 -199.06)"/><path class="cls-1" d="M590.51,248.62l.29.12.81-2.25-.25-.09-.37,1-2.22-1.75.81-2.19,2.82.14-.34.93.25.08,1.07-2.87-.28-.11-.28.81-8.38-.42-.17.45,6.58,5.26Zm-4.78-5.37,0,0,3.46.23-.73,2Z" transform="translate(-137.52 -199.06)"/><path class="cls-1" d="M590.65,277.26l.26,1,.28-.05-1.49-6.19-2.28.39.08.31c1.83-.14,2.14.34,2.54,1.91l.33,1.44-3.65.9c-.29-1.18-.26-1.72,1-2.08l-.06-.28-3,.73.06.25c1.29-.14,1.41.26,1.69,1.44l-3.44.84-.36-1.55c-.25-1.07-.2-1.88,1.18-2.42l-.06-.25-1.94.45,1.46,6,.26-.06-.26-1Z" transform="translate(-137.52 -199.06)"/><path class="cls-1" d="M599.4,266.71s.4-.22.43-.22c.22,0-.12.33.11.31s.81-.2,1.07-.23.31,0,.22-.39a1.59,1.59,0,0,1,.23-1.32.91.91,0,0,1,.7-.42,1,1,0,0,1,.73.53c.14.23.14.62.51.59a1.33,1.33,0,0,0,1-.7c.06-.11.09-.34.17-.42.28-.17.2.16.31.25s.59-.28.74-.34a5.46,5.46,0,0,1,.84-.31.83.83,0,0,1,.11-.51c.14-.16.23,0,.31.17s.11.17.37.17.33.11.44.09.12-.26.23-.34.22.17.28.25.14.14.37.17c1.27.31.62-1.4.25-1.94a5.57,5.57,0,0,0-2.22-1.89,6.48,6.48,0,0,0-2.14-.33,3.89,3.89,0,0,0-1.18,0,4.71,4.71,0,0,0-3.21,2,5.66,5.66,0,0,0-.73,1.91C599,264.75,599.69,265.76,599.4,266.71Z" transform="translate(-137.52 -199.06)"/><path class="cls-1" d="M608.49,268.29c.08.34.37.42.51.73a2.43,2.43,0,0,1,.16.93h.06C609.75,269.33,609.22,267.67,608.49,268.29Z" transform="translate(-137.52 -199.06)"/><path class="cls-1" d="M608.86,266.63c-.12.39-.17.62.19.9.2.14.51.22.65.45a1.88,1.88,0,0,1,.2.62,2.27,2.27,0,0,1-.34,1.6,2.78,2.78,0,0,0-.2,2c.17.53-.11.65-.34,1.07a3.92,3.92,0,0,0,.82.5,1.3,1.3,0,0,0,.65.12c.28-.09.45-.76.53-1a11.15,11.15,0,0,0,.34-4.13c-.56-1.61-1.18-1.46-1.72-1.86C609.36,266.66,608.83,266.4,608.86,266.63Z" transform="translate(-137.52 -199.06)"/><polygon class="cls-1" points="533.74 114.56 529.91 108.08 530.81 107.58 530.67 107.33 527.86 108.98 528 109.21 528.9 108.67 532.75 115.15 531.85 115.68 531.99 115.93 534.78 114.25 534.64 114.02 533.74 114.56"/><path class="cls-1" d="M610,279.15c-.08-.11-.14-.23-.31-.26a1.64,1.64,0,0,0-.62.06,3.69,3.69,0,0,1-.62.11l-1.49.34c-.59.17-1.18.28-1.77.45a4,4,0,0,0-1.49.51c-.09.05-.51.36-.42.11s.22-.25.25-.48a3.87,3.87,0,0,0-.34-1.1c-.11-.36,0-1.6-.19-1.8s-3.18,1.05-5.24.65c.06.26.12,1.24.14,1.41a7.25,7.25,0,0,0,2.87,4.16,2.46,2.46,0,0,0,1.64.54,8.12,8.12,0,0,0,1.4-.17c.31-.09,1.83-.65,3.32-1.1a8.06,8.06,0,0,0,3-1.15c.34-.28.29-.79.23-1.21A2.82,2.82,0,0,0,610,279.15Z" transform="translate(-137.52 -199.06)"/><path class="cls-1" d="M604.83,271.61a.54.54,0,0,0,.2,0c.28,0,.39-.34.62-.54s.53-.14.34-.5c-.06-.12-.31-.26-.12-.4s.54.23.74.06c0-.06,0-.11,0-.17a.9.9,0,0,1,.2-.51c0-.05.17,0,.19,0,.26.12.51.28.65.26s.26,0,.34-.73c.05-.43.11-.88.17-1.3a6.31,6.31,0,0,0,.08-.76.6.6,0,0,0-.31-.65c-.34-.17-1.74-.28-1.74-.39a.18.18,0,0,1,.17-.2,3.71,3.71,0,0,1,.39,0,2.61,2.61,0,0,1,1.52.36s.31.25.34.14a.54.54,0,0,1,0-.2,1.48,1.48,0,0,0,.11-1c-.11-.22-.25-.61-.48-.73a.87.87,0,0,0-.59-.11,3.53,3.53,0,0,0-1.52.08,1.81,1.81,0,0,0-.84.65,1.52,1.52,0,0,1-.51.34c-.25.06-.36-.08-.53.17s-.14.34-.37.45a1.1,1.1,0,0,1-.73.19c-.42,0-.56-.39-.59-.75s-.31-.68-.68-.45a1.54,1.54,0,0,0-.28,1.85c.06,0,.65.42.34.48s-.53-.4-.9-.34-.9.12-1.18.14a1.67,1.67,0,0,0-.87.29,5.33,5.33,0,0,0-.82.75c.51.48,2.5,2.54,3.21,2.7.11,0,.42-.28.64-.36.59-.28,1.38.36,1.83.68A4.34,4.34,0,0,0,604.83,271.61Zm1.66-4.73a3.27,3.27,0,0,0,.56.09c.2,0,.37.11.37-.17s-.25-.17-.25-.28.22-.14.28-.12c.25.09.25.23.19.45a1.52,1.52,0,0,1-.5.65.35.35,0,0,1-.37.09,4.19,4.19,0,0,1-.39-.34C606.1,267,606,266.77,606.49,266.88Z" transform="translate(-137.52 -199.06)"/><path class="cls-1" d="M651.79,319.21c0,.79-.32,2.05-1.3,2.19l-2.14.34-1.1-7.43,1.1-.17-.05-.28-3.21.48,0,.28,1-.14,1.1,7.43-1,.14.06.28,6-.9-.23-2.25Z" transform="translate(-137.52 -199.06)"/><path class="cls-1" d="M641,314.31c-2.08,0-3.43,2.11-3.4,4.25s1.46,4.22,3.54,4.16,3.4-2.13,3.38-4.27S643.07,314.26,641,314.31Zm.11,8.13c-1.66,0-2.11-1.4-2.13-3.88s.36-3.94,2-4,2.11,1.4,2.14,3.91S642.81,322.42,641.12,322.44Z" transform="translate(-137.52 -199.06)"/><path class="cls-1" d="M681.91,265.31a.59.59,0,0,1-.36.08s-.2-.19-.25-.19a1.33,1.33,0,0,1-1.13.33.61.61,0,0,1-.28-.14c-.17-.08-.09-.05-.22,0a1.09,1.09,0,0,1-1-.08,2.29,2.29,0,0,1-.48-1c-.14-.34-.22-.51-.33-.56a.13.13,0,0,0-.09-.11c0-.06-.08,0-.14-.06l.23-.17c.42-.11.53.76.62,1a1.75,1.75,0,0,0,.42.7.38.38,0,0,0,.34.08s.25-.11.25-.14c-.2-.14-.51-1.15-.09-1,.12,0,.2.48.29.59.36.34,1.07.25,1.52.17.19,0,.61,0,.47-.34.23,0,.28.25.48.28s1-.2,1.07-.11c.2-.25-.59-.62-1.18-2.14a9.79,9.79,0,0,0-.79-1.52c-.81-1.83-2.47-3.26-5.85-2a5.64,5.64,0,0,0-2.42,2.08c-.37.54-1.24,1.89-.48,2.45a2.09,2.09,0,0,0,.14-.17,2.64,2.64,0,0,1,1-.87s1-.56.95-.31c0,.08,0,.23,0,.31.9,0,1,.45,1.35,1.1.12.22.85,1.18,1.21.93,0,.08-.05.19-.05.25s-.09.08-.14.08-.42-.11-.65-.31a8.67,8.67,0,0,0-2-1.37c-.4-.12-1.1-.14-1.38.25s.16,1.29.33,1.77c0,.11.06.25.09.34s.19.22.28.36.06.09.14.26.2.81.28,1,.09.45.17.76.2.73.56.56c.17-.06.28-.25.48-.31s.2.08.31.23.08.14.11.16.28.23.43.09c.39-.25.39-.31.5-.28s.31.08-.11.53c-.06.28.28.37.28.37.45,0,.45.65,1,.5a2.71,2.71,0,0,0,1.13-.89,8.18,8.18,0,0,1,.59-.74c.11-.11.31-.62.45-.36a1.13,1.13,0,0,1,.05.42c0,.36.43.25.82-.2,1.86-1.8,2.39-1.86,2.45-2.3a1.31,1.31,0,0,0-.39-.48A1,1,0,0,0,681.91,265.31Zm-6.69,1.23-.06.06s-.08.06-.17.06h0a.75.75,0,0,1-.51-.28.52.52,0,0,1-.17-.15.76.76,0,0,0-.22-.22h0c-.06,0-.09,0-.11,0a.2.2,0,0,1-.12-.25,2.92,2.92,0,0,1,1.52-1.18.17.17,0,0,1,.25.11.2.2,0,0,1-.11.28,1.06,1.06,0,0,0-.59.14,2.29,2.29,0,0,0-.53.62,3.57,3.57,0,0,1,.28.28,2,2,0,0,0,.45-.17,2,2,0,0,0,.25-.17.19.19,0,0,1,.25,0,.18.18,0,0,1,0,.26Z" transform="translate(-137.52 -199.06)"/><polygon class="cls-1" points="527.54 109.58 527.43 109.32 525.41 110.25 525.52 110.5 526.37 110.11 528.67 115.17 528.64 115.2 523.1 111.29 520.96 112.25 521.08 112.53 521.95 112.14 525.04 118.97 524.2 119.37 524.31 119.62 526.34 118.69 526.22 118.44 525.38 118.83 522.37 112.19 522.4 112.19 529.71 117.37 529.99 117.23 526.7 109.97 527.54 109.58"/><polygon class="cls-1" points="496.12 115.34 497.16 115.43 496.46 122.91 495.42 122.83 495.39 123.11 498.63 123.39 498.65 123.11 497.62 123.02 498.32 115.54 499.36 115.65 499.36 115.37 496.15 115.06 496.12 115.34"/><path class="cls-1" d="M629.33,313.36l-3.17-.65-.06.28.93.2-1.52,7.34-.9-.17-.06.25,3.12.65a3.49,3.49,0,0,0,2.68-.34,4.55,4.55,0,0,0,1.88-2.92A3.62,3.62,0,0,0,629.33,313.36Zm1.64,4.16a7.79,7.79,0,0,1-.85,2.67,2,2,0,0,1-2.3.82l-1.16-.25,1.49-7.35.9.2C631.5,314.09,631.3,315.83,631,317.52Z" transform="translate(-137.52 -199.06)"/><path class="cls-1" d="M659.41,319.21l-4.59-6.92-.45.14-.33,8.3-.93.28.08.25,2.25-.65-.05-.25-1,.28.12-2.78,2.19-.65,1.55,2.33-.93.26.06.28,2.92-.84-.08-.26Zm-4.92-1.72.11-3.43h0l1.85,2.87Z" transform="translate(-137.52 -199.06)"/><polygon class="cls-1" points="461.55 94.95 462.08 95.73 462.31 95.57 461.04 93.71 460.79 93.88 461.32 94.64 455.25 98.8 455.22 98.77 459.13 90.58 458.93 90.31 452.27 94.86 451.73 94.07 451.51 94.22 452.77 96.1 453 95.96 452.46 95.14 457.13 91.99 457.16 91.99 454.21 98.21 455.56 100.18 455.78 100.01 455.25 99.22 461.55 94.95"/><path class="cls-1" d="M671.11,222.29a2.88,2.88,0,0,0,1.94.62l0,.59.29.23,1.32-1.8-.23-.17a2.47,2.47,0,0,1-3,.28c-1.54-1.15-.84-2.5.43-4.19a8.07,8.07,0,0,1,2.39-2.33,1.9,1.9,0,0,1,1.88.16,2.26,2.26,0,0,1,.51,3l.2.17,1.26-1.66-.14-.11-.56,0a2.75,2.75,0,0,0-1-1.57c-1.38-1.05-4-.71-5.4,1.2S669.31,220.94,671.11,222.29Z" transform="translate(-137.52 -199.06)"/><polygon class="cls-1" points="561.56 68.67 553.99 67.97 554.08 66.93 553.79 66.9 553.49 70.19 553.76 70.22 553.88 69.15 561.44 69.85 561.36 70.89 561.64 70.92 561.95 67.66 561.64 67.63 561.56 68.67"/><path class="cls-1" d="M674.77,224.66l-.68-.68-.19.2,2.19,2.19.2-.19-.71-.68,2.85-2.81.5.5c1.1,1.1.51,1.83.17,2.25-.45.59-1.1,1.36-1.21,1.55a1.36,1.36,0,0,0,.34,1.77,3.49,3.49,0,0,0,.93.62l.22-.22c-.39-.17-.76-.45-.81-.71s.22-.73.67-1.12a2.46,2.46,0,0,0,1-1.83,3.55,3.55,0,0,0-.61-1.74c.9.73,2.11,1.52,3.23.39.4-.39,1-1.52-.65-3.18l-2.55-2.56-.2.2.67.67Zm7-3.72c.82.82.93,1.46.09,2.28-1.18,1.18-1.86.68-2.82-.28l-.45-.48L681,220.1Z" transform="translate(-137.52 -199.06)"/><path class="cls-1" d="M698.26,271.55a2.17,2.17,0,0,0-1.27-.73,2.1,2.1,0,0,0-2,.62c-.17.17-1.13,1.91-1.35,2.33-.57.85-.9,1-1.63.82a1.9,1.9,0,0,1-1.36-2.33,2.54,2.54,0,0,1,2.37-2l0-.23L691,269.7l0,.14.43.61a2.63,2.63,0,0,0-1,1.72,2.52,2.52,0,0,0,2.2,3.12c3.26.6,2.81-4.19,4.81-3.82a1.64,1.64,0,0,1,1.15,2,2.16,2.16,0,0,1-2.16,1.71l0,.26,1.88.34,0-.17L698,275a3.54,3.54,0,0,0,.84-1.46A2.31,2.31,0,0,0,698.26,271.55Z" transform="translate(-137.52 -199.06)"/><path class="cls-1" d="M662.08,216.11l-.14.25,2,1.15.14-.22-.89-.54,2-1.91,2.05,1.15-.59,2.76-.87-.51-.11.25,2.67,1.53.14-.23-.76-.42,1.75-8.22-.43-.22-6.24,5.65Zm6-3.86h0l-.76,3.38-1.83-1Z" transform="translate(-137.52 -199.06)"/><path class="cls-1" d="M657.72,214.19a2.61,2.61,0,0,0,1.46,1.33,2.52,2.52,0,0,0,3.49-1.52c1.24-3.1-3.54-3.61-2.78-5.49a1.64,1.64,0,0,1,2.16-.73,2.14,2.14,0,0,1,1.24,2.45l.23.08.73-1.77-.17-.06-.56.17a3.25,3.25,0,0,0-1.3-1.1,2.3,2.3,0,0,0-3.06,1.18,2.18,2.18,0,0,0,.22,2.11c.14.2,1.66,1.5,2,1.8.73.71.76,1.07.47,1.75a1.89,1.89,0,0,1-2.56.87,2.5,2.5,0,0,1-1.46-2.7l-.22-.08-.76,2,.14.05Z" transform="translate(-137.52 -199.06)"/><path class="cls-1" d="M690.47,251.52l-.17-1-.28.05.53,3.07.28-.06-.17-.95,3.94-.68.11.73c.29,1.52-.61,1.77-1.15,1.94-.73.2-1.69.45-1.88.54a1.45,1.45,0,0,0-.76,1.69,3.2,3.2,0,0,0,.42,1l.31-.06a1.25,1.25,0,0,1-.25-1c.05-.31.59-.45,1.18-.53,1.91-.2,2.27-1.24,2.39-2.71.31,1.13.84,2.48,2.42,2.2.53-.11,1.68-.65,1.29-3l-.59-3.58-.28.06.17.93Zm7.71-.14.19,1.16c.2,1.15-.08,1.71-1.26,1.94-1.64.25-1.89-.54-2.11-1.89l-.12-.65Z" transform="translate(-137.52 -199.06)"/><path class="cls-1" d="M695.36,284.1,688,281.26a.7.7,0,0,1-.48-.93c.06-.14.17-.37.31-.31s.17.31.51.45a.61.61,0,0,0,.81-.37.67.67,0,0,0-.45-.9,1.18,1.18,0,0,0-1.43.82,2,2,0,0,0,1.1,2.65l6.55,2.53-.36,1,.25.08L696,283.2l-.26-.11Z" transform="translate(-137.52 -199.06)"/><path class="cls-1" d="M640.17,199.06a64,64,0,1,0,63.94,64A64,64,0,0,0,640.17,199.06Zm0,126A62.08,62.08,0,1,1,702.25,263,62.06,62.06,0,0,1,640.17,325.09Z" transform="translate(-137.52 -199.06)"/><path class="cls-1" d="M691.59,259.31v-.92h-.28l.06,3.23a3.48,3.48,0,0,0,.93,2.56,4.61,4.61,0,0,0,3.29,1.21,3.64,3.64,0,0,0,3.93-3.88l0-3.29h-.28l0,.95Zm7.65,2c.06,2.54-1.71,2.73-3.46,2.76a7.81,7.81,0,0,1-2.81-.25,2.05,2.05,0,0,1-1.32-2.08l0-1.22,7.62-.14Z" transform="translate(-137.52 -199.06)"/><polygon class="cls-1" points="541.86 30.41 541.64 30.58 543.69 33.14 543.92 32.97 543.24 32.16 549.21 27.4 549.86 28.22 550.08 28.05 548.03 25.49 547.8 25.66 548.45 26.47 542.51 31.23 541.86 30.41"/><path class="cls-1" d="M686.22,240.89a2.74,2.74,0,0,0,1.46,1.4l-.31.54.14.28,2-1-.11-.25a2.51,2.51,0,0,1-2.84-1.12c-.85-1.75.39-2.65,2.27-3.55a8.6,8.6,0,0,1,3.21-1,2,2,0,0,1,1.6,1c.57,1.15,0,2.11-.92,2.87l.11.25,1.88-.93-.08-.14-.51-.22a3,3,0,0,0-.19-1.92c-.76-1.54-3.21-2.41-5.38-1.35S685.23,238.84,686.22,240.89Z" transform="translate(-137.52 -199.06)"/><path class="cls-1" d="M691.76,242.63c-2,.68-3.66,2.65-3,4.65s3.1,2.7,5.15,2,3.63-2.61,3-4.61S693.84,242,691.76,242.63Zm4.87,2.11c.5,1.63-.76,2.48-3.15,3.27s-3.94.78-4.45-.82.73-2.47,3.15-3.24S696.09,243.17,696.63,244.74Z" transform="translate(-137.52 -199.06)"/><polygon class="cls-1" points="497.16 4.98 497.78 12.55 496.74 12.63 496.77 12.91 500.06 12.66 500.04 12.38 498.96 12.46 498.35 4.87 499.41 4.78 499.38 4.5 496.1 4.78 496.12 5.06 497.16 4.98"/><path class="cls-1" d="M602.89,227.16l.17.23,1.77-1.61-.17-.19-.78.7-1.16-2.59,1.72-1.58,2.45,1.44-.73.67.16.23,2.31-2.08-.2-.23-.61.59-7.24-4.25-.36.32,3.37,7.7Zm-1.74-7,0,0,3,1.8-1.58,1.4Z" transform="translate(-137.52 -199.06)"/><path class="cls-1" d="M688.52,293.75a2.2,2.2,0,0,0-2.11-.28c-.19.11-1.8,1.29-2.19,1.55-.87.56-1.21.5-1.83.11a2,2,0,0,1-.25-2.73,2.54,2.54,0,0,1,3-.79l.11-.2-1.71-1.21-.09.14.12.76a2.6,2.6,0,0,0-1.64,1.13,2.51,2.51,0,0,0,.71,3.74c2.73,1.91,4.33-2.64,6-1.46a1.64,1.64,0,0,1,.23,2.28,2.18,2.18,0,0,1-2.68.65l-.14.19,1.58,1.1.08-.11,0-.63a3.35,3.35,0,0,0,1.37-1,2.28,2.28,0,0,0,.37-2.05A2,2,0,0,0,688.52,293.75Z" transform="translate(-137.52 -199.06)"/><path class="cls-1" d="M604.92,218c-.51-1.12-.9-1.89.05-2.56l.68-.48,4.39,6.22-.85.56.17.26L612,220.1l-.17-.23-.82.57-4.38-6.22.44-.31c1-.73,1.89-.2,2.68.68l.25-.2-1.43-1.89-5.13,3.63,1.24,2Z" transform="translate(-137.52 -199.06)"/><path class="cls-1" d="M601.23,229.92a3.06,3.06,0,0,0,.71-1.92l.59.06.22-.25L601,226.37l-.2.23a2.53,2.53,0,0,1,.14,3.06c-1.24,1.47-2.56.71-4.17-.64a8.35,8.35,0,0,1-2.22-2.51,1.93,1.93,0,0,1,.28-1.88,2.25,2.25,0,0,1,3-.34l.19-.22-1.6-1.33-.11.15v.56a2.71,2.71,0,0,0-1.63,1c-1.13,1.33-.93,3.91.92,5.46S599.77,231.63,601.23,229.92Z" transform="translate(-137.52 -199.06)"/><path class="cls-1" d="M588.21,238.55a2.13,2.13,0,0,0,2.13,0c.17-.09,1.61-1.5,2-1.8.79-.65,1.16-.65,1.81-.32a2,2,0,0,1,.61,2.65,2.55,2.55,0,0,1-2.87,1.18l-.08.2,1.86,1,.08-.17-.25-.7A2.52,2.52,0,0,0,595,239.2a2.48,2.48,0,0,0-1.18-3.6c-2.93-1.55-3.94,3.15-5.74,2.22a1.66,1.66,0,0,1-.51-2.25,2.22,2.22,0,0,1,2.59-1l.11-.23-1.69-.87-.08.14.08.56a3.52,3.52,0,0,0-1.21,1.18,2.32,2.32,0,0,0,.88,3.18Z" transform="translate(-137.52 -199.06)"/><polygon class="cls-1" points="473.2 12.49 476.65 19.27 475.81 19.69 475.92 19.95 478.68 18.54 478.57 18.29 477.7 18.74 476.01 15.39 479.13 13.79 480.85 17.13 480 17.55 480.12 17.81 482.87 16.4 482.76 16.15 481.92 16.6 478.45 9.82 479.3 9.4 479.16 9.14 476.4 10.55 476.54 10.8 477.39 10.36 478.99 13.48 475.84 15.08 474.24 11.96 475.11 11.54 474.97 11.28 472.21 12.69 472.35 12.94 473.2 12.49"/><path class="cls-1" d="M627.62,205.08l1.38,7.48-1,.2,0,.25,6-1.07-.28-2.28-.23.06c0,.79-.25,2.08-1.23,2.25l-2.17.39-1.35-7.48,1.1-.23,0-.28-3.26.62,0,.26Z" transform="translate(-137.52 -199.06)"/><path class="cls-1" d="M624.27,214.39c2-.68,2.67-3.13,2-5.18s-2.64-3.6-4.64-3-2.7,3.09-2,5.15S622.27,215,624.27,214.39Zm-2.56-7.88c1.61-.5,2.48.73,3.26,3.15s.82,3.91-.78,4.45-2.48-.74-3.27-3.13S620.11,207,621.71,206.51Z" transform="translate(-137.52 -199.06)"/><polygon class="cls-1" points="548.14 101.67 540.35 98.21 540.15 98.44 544.34 105.81 543.75 106.45 543.95 106.65 545.52 104.93 545.33 104.74 544.57 105.55 541.42 99.98 541.42 99.95 547.29 102.57 546.65 103.27 546.87 103.47 548.96 101.19 548.76 101 548.14 101.67"/><path class="cls-1" d="M641.57,211.89a3.09,3.09,0,0,0,1.94-.65l.34.51h.34l0-2.23h-.28a2.61,2.61,0,0,1-2.31,2c-1.91-.06-2.14-1.58-2.11-3.69a8.22,8.22,0,0,1,.56-3.29,2,2,0,0,1,1.66-1c1.27,0,1.89,1,2.14,2.11l.28,0,0-2.08H644l-.45.37a2.76,2.76,0,0,0-1.77-.71,4.08,4.08,0,0,0-3.66,4.17C638.08,209.83,639.32,211.83,641.57,211.89Z" transform="translate(-137.52 -199.06)"/><path class="cls-1" d="M647.14,211.83l-1-.17,1.3-2.51,2.3.37.4,2.82-1-.18-.05.29,3.06.48,0-.26-.84-.17-1.18-8.3-.48,0-3.91,7.45-1-.14-.06.29,2.37.36Zm2-6.11h0l.45,3.47-2-.34Z" transform="translate(-137.52 -199.06)"/><path class="cls-1" d="M693.53,288.43l-6.72-3.57.51-.93-.26-.14-3,5.63,1.94,1.2.14-.28c-1.43-1.12-1.38-1.68-.62-3.12l.71-1.29,3.34,1.74c-.59,1.07-1,1.47-2.16.9l-.11.26,2.72,1.43.15-.23c-1.08-.75-.91-1.12-.34-2.19l3.12,1.63-.73,1.41a1.76,1.76,0,0,1-2.5,1l-.12.22,1.78,1,2.89-5.51-.25-.11Z" transform="translate(-137.52 -199.06)"/><path class="cls-1" d="M621.77,274.39c1.07-.08,1.63-.25,2.11-.95a2.35,2.35,0,0,0-1.24-3.24,5.16,5.16,0,0,0-1.69-.11,2.34,2.34,0,0,0-2.11,2.42C618.84,274.06,620.56,274.51,621.77,274.39Z" transform="translate(-137.52 -199.06)"/><path class="cls-1" d="M636.59,222.29c.15.06.31.11.31.15a1.07,1.07,0,0,1-.19.59,2.12,2.12,0,0,0-.31.73c-.06.31.14.47.34.61a.8.8,0,0,1,.36.85.18.18,0,0,0,.06.14.73.73,0,0,0,.51.17.49.49,0,0,0,.5-.25.81.81,0,0,0-.42-1.19.74.74,0,0,1-.34-.31c-.06-.19.08-.42.2-.7a1.6,1.6,0,0,0,.25-1c-.09-.39-.45-.53-.79-.65s-.59-.22-.64-.47a1.65,1.65,0,0,1,.22-1.07c.06-.12.06-.17,0-.23l0-.06h-.06c-.14,0-.61.29-.84,1.16C635.44,222,636.17,222.15,636.59,222.29Z" transform="translate(-137.52 -199.06)"/><path class="cls-1" d="M629.17,231h.08a1.51,1.51,0,0,1,.51.25,1.17,1.17,0,0,0,.65.25.82.82,0,0,0,.22,0,1,1,0,0,0,.51-.51,2.49,2.49,0,0,1,.39-.48.42.42,0,0,1,.22-.08,1,1,0,0,1,.57.31,1.54,1.54,0,0,0,.39.22,1.2,1.2,0,0,0,.56.11,2.75,2.75,0,0,0,1.66-.67.41.41,0,0,0,.12-.42.69.69,0,0,0-.57-.4c-.08,0-.14.06-.22.12a1.06,1.06,0,0,1-.73.28,3.47,3.47,0,0,1-1.55-.51.82.82,0,0,0-.25-.06c-.31,0-.59.29-.82.54a.7.7,0,0,0-.14.17l-.22.22c-.09.14-.12.17-.23.17h-.06a.3.3,0,0,0-.16,0,3.76,3.76,0,0,0-.79-.11,1.13,1.13,0,0,0-.57.11,1.1,1.1,0,0,0-.5.85v.31l.2-.23A1.23,1.23,0,0,1,629.17,231Z" transform="translate(-137.52 -199.06)"/><path class="cls-1" d="M632.57,222.4a1.43,1.43,0,0,1,.7.79,3.45,3.45,0,0,1,.06,1,1.5,1.5,0,0,0,.2,1.13.87.87,0,0,0,.78.28,1.22,1.22,0,0,1,1.21.81l.06.06.08,0a.45.45,0,0,0,.34-.34c.09-.31-.17-.62-.34-.78a2.1,2.1,0,0,0-.89-.57l-.26-.14c-.34-.17-.34-.25-.28-.53a2.3,2.3,0,0,0-.28-1.44,1.39,1.39,0,0,0-1-.7,1.05,1.05,0,0,1-.7-.42l-.14-.23-.06.26C632,222,632.29,222.21,632.57,222.4Z" transform="translate(-137.52 -199.06)"/><path class="cls-1" d="M630.77,227.41a1.19,1.19,0,0,0,.7-.28.6.6,0,0,1,.28-.14,1.29,1.29,0,0,1,.37.54,2,2,0,0,0,.37.67.87.87,0,0,0,.7.34,1.69,1.69,0,0,0,.56-.09,1.78,1.78,0,0,1,.48-.08.6.6,0,0,1,.45.2l.11.05c.14,0,.28-.17.37-.31a.58.58,0,0,0,.06-.59,1,1,0,0,0-.91-.5,2.91,2.91,0,0,0-.7.11,1.46,1.46,0,0,1-.48.08H633c-.17-.08-.22-.22-.28-.45a1,1,0,0,0-.48-.76.6.6,0,0,0-.28,0,1.12,1.12,0,0,0-.62.22,1.27,1.27,0,0,1-.65.23.87.87,0,0,1-.42-.14c-.39-.26-.56-.34-.67-.34a.18.18,0,0,0-.14.06c0,.08,0,.22.28.59A1.39,1.39,0,0,0,630.77,227.41Z" transform="translate(-137.52 -199.06)"/><path class="cls-1" d="M638.87,266.85a2,2,0,0,0,.12-.33,5.11,5.11,0,0,0,.25-1c.08-.39.17-.78.2-1a4.44,4.44,0,0,1-2.65-1,1.7,1.7,0,0,1-.17-.51c0-.22,0-.5-.08-.84s-.06-1.1-.06-1.77a5.25,5.25,0,0,0-.17-1.3c-.16-.53-1.66-1.24-2.42-1.38a1.86,1.86,0,0,1-1-.45c-.11-.05-.11-.05-.17-.05a2.07,2.07,0,0,1-.28,0c-.06,0-.14,0-.25,0a4.87,4.87,0,0,1-1.75-1c-.28-.26-.76-.68-1.07-1a1.56,1.56,0,0,1-.28.34c-.39.37-.59,1.21-1,1.72s-1,.73-1.18,1.15a142.79,142.79,0,0,1,12,8.55S638.87,266.88,638.87,266.85Zm-9-8.1c-.22.12-.7,0-.48-.5a3,3,0,0,1,1-.87S630.18,258.58,629.84,258.75Zm1.41,1.8a.35.35,0,0,1-.42-.31c0-.42.9-1.35.92-1.32S631.78,260.49,631.25,260.55Zm2.53.48c-.2.09-.51,0-.51-.25a2.44,2.44,0,0,1,.79-1.21A2.63,2.63,0,0,1,633.78,261Zm1.27,1.66a.39.39,0,0,1-.48-.28c-.06-.4.62-1.24.65-1.21S635.38,262.61,635.05,262.69Z" transform="translate(-137.52 -199.06)"/><path class="cls-1" d="M641.52,273.07a1.45,1.45,0,0,0,1.38.06,7.6,7.6,0,0,1,1.06-1.21c.59-.51,7.12-6.19,15.48-6.25.25,0,.36.48.36.48h-.87c-8.24.25-14.4,6.05-15.08,6.7.65-.29,10-4.87,17.81-4.87,0,0-.45-.9-.48-.93a8.15,8.15,0,0,0-1.49-2.16c-.06-.06-.08-.06-.11-.06-9.15,0-16.66,5.71-16.8,5.82-.34.23-.48.17-.67,0a24.15,24.15,0,0,0-9.85-6.33,40.7,40.7,0,0,0-7.9-1.23,2.86,2.86,0,0,0-2.42,1c-.06.11-2.87,5.15-2.87,5.23,3.37-.79,6.75-1.94,9.23-1.94A17.11,17.11,0,0,1,641.52,273.07Zm-19.16-6.86s.17-.48.42-.51c0,0,1-.11,2.53-.11a31.11,31.11,0,0,1,5.66.48c4.44.81,6.75,2.61,6.75,2.78s-.48-.11-.54-.14a16.63,16.63,0,0,0-6.33-2.17,30.27,30.27,0,0,0-5.54-.47C623.79,266.07,622.36,266.21,622.36,266.21Z" transform="translate(-137.52 -199.06)"/><path class="cls-1" d="M636.71,265.76c-3.35-2.59-11.88-7.79-11.9-7.79a13.56,13.56,0,0,0,.39,4.58A25.38,25.38,0,0,1,636.71,265.76Z" transform="translate(-137.52 -199.06)"/><path class="cls-1" d="M612.82,279.43c-.36,0-.76-.11-1.12-.17a3.64,3.64,0,0,0-1-.17,2.22,2.22,0,0,1,.19,1.15,5.57,5.57,0,0,0-.14.85c.12.22,1.07,0,1.27,0,.62-.11,1.21-.5,1.66-.5a4.25,4.25,0,0,0,1.12-.06c.31-.09,1.38-.11,1.52-.45s-.25-.14-1.54-.37C614.26,279.63,614.06,279.63,612.82,279.43Z" transform="translate(-137.52 -199.06)"/><path class="cls-1" d="M650,228.93a1,1,0,0,1-.53.4s-.06,0-.11-.06a.58.58,0,0,0-.29-.09H649v.09c0,.23.39.42.53.48a1.14,1.14,0,0,0,.26,0c.76,0,1.18-.87,1.94-.87a.82.82,0,0,1,.25.06l.28.08-.17-.25a1,1,0,0,0-.84-.45,1.77,1.77,0,0,0-.9.28C650.27,228.71,650.15,228.82,650,228.93Z" transform="translate(-137.52 -199.06)"/><path class="cls-1" d="M634.82,234.7h-.08a1.2,1.2,0,0,0-.54.08c-.28.12-.34.31-.45.57a1.73,1.73,0,0,1-.28.56l-.11.14s.45,0,.5-.06.26-.3.45-.36a.45.45,0,0,1,.23-.06c.06,0,.11,0,.14,0h.17a.72.72,0,0,0,.45-.14,1.87,1.87,0,0,1,1.13-.62.37.37,0,0,1,.36.22l0,.12.14-.06c0-.06.11-.11.11-.25a2.16,2.16,0,0,0-.59-1.32.59.59,0,0,0-.39-.26c-.31,0-.4.4-.45.76a2.74,2.74,0,0,1-.14.45A.9.9,0,0,1,634.82,234.7Z" transform="translate(-137.52 -199.06)"/><path class="cls-1" d="M645.12,224s-.26.2-.42.34c-.68.5-1.19.9-1.19,1.24,0,.08.06.14.12.22a.81.81,0,0,0,.31.06,2.17,2.17,0,0,0,.64-.14.81.81,0,0,0,.31-.4c.09-.11.11-.22.25-.31s.12-.08.2-.11c.28-.14.65-.34.71-.73a4.84,4.84,0,0,0-.17-.85,1.9,1.9,0,0,1-.17-.67.73.73,0,0,1,.48-.11.88.88,0,0,0,.73-.31,1.5,1.5,0,0,0,.19-.73,1,1,0,0,1,0-.31,1.21,1.21,0,0,0,.06-.34,2.35,2.35,0,0,1,.2-.7l0-.09-.08-.08h-.06s-.08,0-.25.22a2.59,2.59,0,0,0-.39.73c0,.09-.06.17-.09.28-.08.31-.14.57-.45.68a.7.7,0,0,1-.36.06.85.85,0,0,0-.74.3c-.25.34-.08.68,0,1s.23.48.11.67C645.14,224,645.12,224,645.12,224Z" transform="translate(-137.52 -199.06)"/><path class="cls-1" d="M639.58,222c.19.06.3.09.3.51a2.3,2.3,0,0,1-.22.79,2.1,2.1,0,0,0-.28.92,1.61,1.61,0,0,0,1.1,1.38l.11,0,0-.08a.61.61,0,0,0-.09-.54.55.55,0,0,0,0-.17,3.51,3.51,0,0,1-.12-.78,1.2,1.2,0,0,1,.28-.79,1.22,1.22,0,0,0,.32-.88,1,1,0,0,0-.54-.84c-.2-.14-.31-.22-.31-.42s.17-.31.34-.48a1.52,1.52,0,0,0,.56-1.94,2.11,2.11,0,0,0-1.52-1.27h-.08l0,.06c0,.08,0,.11.14.2a2.38,2.38,0,0,1,.9,1.46,1.2,1.2,0,0,1-.62.9c-.36.31-.73.62-.73,1.13S639.29,222,639.58,222Z" transform="translate(-137.52 -199.06)"/><path class="cls-1" d="M641.69,225.61a.46.46,0,0,0,.28-.08c.31-.17.31-.53.33-.85v-.31c.06-.19.26-.33.45-.5s.62-.51.57-.93a2.27,2.27,0,0,0-.25-.7.62.62,0,0,1-.12-.48c0-.06.2-.09.4-.09a1.35,1.35,0,0,0,1-.36,1.58,1.58,0,0,0,.14-1.18,1.92,1.92,0,0,0-1.13-1.44h0l0,.06c-.06.06,0,.11.06.22a2.32,2.32,0,0,1,.45,1.41c-.06.25-.31.31-.76.34s-.88.11-1,.56a1.87,1.87,0,0,0,.14,1,1,1,0,0,1,.11.68,1.42,1.42,0,0,1-.39.53,1.66,1.66,0,0,0-.67,1.8A.42.42,0,0,0,641.69,225.61Z" transform="translate(-137.52 -199.06)"/><path class="cls-1" d="M634.93,231.27h-.14a2.26,2.26,0,0,0-.7.34,1.41,1.41,0,0,1-.37.22h-.19a2,2,0,0,1-.42,0,2.44,2.44,0,0,0-.48-.05,1.16,1.16,0,0,0-.56.14c-.43.19-.6.81-.71,1.29a2,2,0,0,1-.14.48,2.16,2.16,0,0,1-.62.11,1.81,1.81,0,0,0-1,.26,2.37,2.37,0,0,0-.45.89l.22.06s.2-.45.9-.51a1.63,1.63,0,0,1,.28,0,.66.66,0,0,1,.31.05.83.83,0,0,0,.28,0,1.91,1.91,0,0,0,.37,0c.51-.08.65-.64.79-1.18a1.41,1.41,0,0,1,.28-.73c.08-.11.14-.14.19-.14a.94.94,0,0,1,.45.22,2.08,2.08,0,0,0,.48.28.61.61,0,0,0,.23,0,1.22,1.22,0,0,0,.76-.42c.11-.11.22-.22.33-.31a.51.51,0,0,0,.26-.62A.4.4,0,0,0,634.93,231.27Z" transform="translate(-137.52 -199.06)"/><path class="cls-1" d="M677.75,277.6c0,.28-.37-.06-.59-.2l-.14-.08a7.2,7.2,0,0,0-1.8-.45c-.56-.06-.87-.17-1.91-.39-.59-.14-1-.59-1.3.19-.14.31-.56,1.33-.22,1.52a13.18,13.18,0,0,0,2.59,0c.47,0,4.27.68,4.5.73s.08-.39.08-.39a10.38,10.38,0,0,1-.56-2.95h-.68c-.11.42-.25.73-.36,1.15S677.47,277.29,677.75,277.6Z" transform="translate(-137.52 -199.06)"/><path class="cls-1" d="M633.16,294.62a8.22,8.22,0,0,1-2.53-2.17,35.14,35.14,0,0,1-2.28-5.12,28.09,28.09,0,0,0,.37,4c.36,2.78,2.13,5.76,5.12,6.61a4.32,4.32,0,0,0,3.32,0,4.11,4.11,0,0,1,1.51-.48c1.36,0,2.76,1,3.94,1.43a13,13,0,0,0,1.78.62,15.79,15.79,0,0,0,4.44.57c2.45,0,4.28-.93,5.18-2.31-.93.73-2.54,1.66-5.8,1.55C645.74,299.23,635.47,295.92,633.16,294.62Z" transform="translate(-137.52 -199.06)"/><path class="cls-1" d="M665.32,254.87a8.9,8.9,0,0,0-1.44.87,7.65,7.65,0,0,0-.9.71s-.25.33-.33.33.05-.33.11-.42a9.14,9.14,0,0,1,2.56-1.74c.59-.23.62-.54.53-.71s-.62.06-.62.06c-.14.19-.25.19-.56.37a6.21,6.21,0,0,0-1.63,1c-.62.36-.87,1.07-.87.84a1.33,1.33,0,0,1,.5-.82,9.15,9.15,0,0,1,1.94-1.32c.45-.08.62-.45.54-.53s-.9.14-1.52.34c-.45.19-1.3.84-1.55,1a2,2,0,0,1-.59,1.24c-.28.37-.17.48-.25.56s-.2-.25-.09-.5c0,0,0-.09.31-.48a2.35,2.35,0,0,0,.54-1.16c0-.14-.12-.42-.31-.36s-.23.25-.31.36a3.67,3.67,0,0,1-.37.43c-.22.28-.48.53-.67.81a8.76,8.76,0,0,0-.51,1.94,1.22,1.22,0,0,1-.28.71c-.11.14-.28.14-.37.31s0,.28,0,.42a2.82,2.82,0,0,0,.28.73,1.33,1.33,0,0,0,.42.64,1,1,0,0,0,1.18,0,3.87,3.87,0,0,0,1.13-.76,10.75,10.75,0,0,0,1.18-1.92,2.1,2.1,0,0,1,.22-.33c.45-.34,1.07-1,1.32-1.13s.71-.48.57-.73a13.14,13.14,0,0,0-2.34,1.63c0-.25,0-.17.23-.36a8.21,8.21,0,0,1,2.11-1.49s.64-.51.36-.76C665.68,254.56,665.51,254.79,665.32,254.87Z" transform="translate(-137.52 -199.06)"/><path class="cls-1" d="M662.45,296.45a16.58,16.58,0,0,1-3.52.48c-2.36-.06-2.28-.26-2.5-.59-.76-1.1-.45-7.57-.79-12.94-.17-2.62,1.91-10.58-3.72-11.82-3.79-.45-6.86,5.6-11.64,2.95a19.34,19.34,0,0,0-9.4-2.86c-6.21.73-5.62,5.14-5.57,5.85a19.57,19.57,0,0,1,.11,4.07c-.08,3-1,6.53-1.06,10.39.47,6.24,3.63,6.41,3.77,6.44.42.2-4.25.39-3.55.11.31-.08.42-.11.48-.28s.14-.59-.14-.73a3.55,3.55,0,0,0-.7-.28.35.35,0,0,1-.14.14,8.46,8.46,0,0,1-2.37.31c-.45,0-2.44-.25-2.75-.31-.51-.09-.57,1.09,0,1.24.87.3,2,.14,2,.36s-2.85.17-3.74.23a.91.91,0,0,0,.14,1.37c.84,0,6-.87,10.6-1.21a81.31,81.31,0,0,1,9-.05c-.14.42-.08.73-.25,1.18a.49.49,0,0,0,.31.65c.14,0,.93.31,2.28-1.1a6.42,6.42,0,0,0,.84-1c.14-.22-.05-.28-.5-.5a4.18,4.18,0,0,0-1.5-.48c-.53,0-.47.08-1,.34a5.09,5.09,0,0,1-3.23.17,11.52,11.52,0,0,1-2.51-1,9,9,0,0,1-3.12-2.25,5.75,5.75,0,0,1-1.07-2.17c-.09-.39-.06-.76-.14-.81s-.14,1.09-.14,1.21a18.87,18.87,0,0,0,.47,2.47s-.36.31-1-1.15a6.28,6.28,0,0,1,0-3.8,32.43,32.43,0,0,0,1-4.16s.08-8.92.08-8.92,0-4.81,4.14-4.81c2.78.08,5.51,4,6.75,7,0,0,2.81,7.17,6.08,8.55a5.61,5.61,0,0,0,2,.37c.45,0,.29.84-2.19,0-3-1.05-6.66-8.56-6.66-8.56-1.95-3.54-3.89-6.67-6-6.58a3.23,3.23,0,0,0-2.59,1.55,4.45,4.45,0,0,0-.81,2.87l-.12,7.54a3.41,3.41,0,0,1,3.07-1.47,3.08,3.08,0,0,1,.84.14c4.93,1.44,6.81,5.18,8.95,8s6.55,3.49,8.3,3.46c.2,0,.9.31.73.37-1.3.42-7.43-.09-7.32-.09-6.21-.39-5.14-9.59-11.36-11.14a1.7,1.7,0,0,0-2.08.74c1.07,6,3.82,7.82,5.31,8.66,3.52,1.58,8.81,3.77,13.9,3.91a9.53,9.53,0,0,0,6.19-2.33c-.14.73-.34,3.09.39,3.17s9.12.4,9.18.4c.61,0,.64-1.32.14-1.35s-4.93.25-4.93,0,2.51-.45,2.9-.51C663,297.85,662.87,296.36,662.45,296.45Zm-23-15.75c-.17-.2-.51-.54-.43-.68s.73.51,1,.68c6.61,4.36,9.79-1.95,10.52-1.95C651.45,278.75,645.88,287.17,639.44,280.7Zm15.64,3.49s-.2,2.38-.28,3.09c-.17,1.23-.51,3.06-.88,4.61a4.37,4.37,0,0,1-2.92,3s-.06-.42.14-.53c1-.57,1.46-1.24,2.11-3s1.35-7.69,1.55-7.69.3.2.28.45Z" transform="translate(-137.52 -199.06)"/><path class="cls-1" d="M667.82,276.34a8.92,8.92,0,0,0,.2-1.13c-.34.34-1.35,1.13-1.1,1.72s.48,1,.7,1.52c.37,0,.2-.88.14-1.05A1.74,1.74,0,0,1,667.82,276.34Z" transform="translate(-137.52 -199.06)"/><path class="cls-1" d="M672.88,278.67c-.31,0-.59-.06-.87-.06a6.4,6.4,0,0,0-2.19.14,5.57,5.57,0,0,0-1.77.71c-.31.19-.09.36.16.42s.62-.14,1-.09.67,0,1,0a3.38,3.38,0,0,1,.54.09c.5.11,1,.36,1.49.48a4.14,4.14,0,0,1,1.09.25c.12-.31.51-1.49.26-1.8C673.47,278.7,673.05,278.7,672.88,278.67Z" transform="translate(-137.52 -199.06)"/><path class="cls-1" d="M660.42,264.6c0,.57.08.62.4,1.07a10.57,10.57,0,0,1,.9,1.64s.5-1.95.64-2.65a.9.9,0,0,0,0-.31,14.75,14.75,0,0,0-.84-3.54,2.64,2.64,0,0,1-1,.28c.06.53.15,1,.2,1.6v.59C660.68,263.73,660.48,264.16,660.42,264.6Z" transform="translate(-137.52 -199.06)"/><path class="cls-1" d="M659,296.45a7.88,7.88,0,0,0,2.5-.23s0-.08,0-.19c0-.31-.4-.54-.4-.54s.31-19.86.34-20c0-.62,0-1.29-.42-1.21-.06,0-1.49.26-2,.26a9.69,9.69,0,0,1-1.8-.2c-.42-.06-.62.06-.62.25s.34,21.07.31,21.61A8.9,8.9,0,0,0,659,296.45Zm-1.38-21h2c.2,0,.2.28,0,.28a4.46,4.46,0,0,0-2.14.31C657.05,276.08,657,275.49,657.64,275.49Z" transform="translate(-137.52 -199.06)"/><path class="cls-1" d="M661.58,271.44a2.48,2.48,0,0,0-2.71-2,2.59,2.59,0,0,0-2.67,2.31c0,1,.28,1.49.68,1.71a3.65,3.65,0,0,0,1.8.28h.19a3.78,3.78,0,0,0,1.92-.42,1.58,1.58,0,0,0,.81-1.49A3,3,0,0,0,661.58,271.44Z" transform="translate(-137.52 -199.06)"/><path class="cls-1" d="M626.72,269c-.39-.39-1.3-.31-2-.08a2,2,0,0,0-.14,1.91c.57,1.15,1.38,2.28,1.64,1.46C624.86,270.09,625.57,269.19,626.72,269Z" transform="translate(-137.52 -199.06)"/><path class="cls-1" d="M621.54,275.18c-.75,0-2.47-.65-2.39.93,0,0,.37,20.9.37,20.9s0,0,.05,0a10.14,10.14,0,0,0,2.14.25,8.33,8.33,0,0,0,2.11-.25c.06-1.8.48-20.59.48-20.79s.11-.81-.17-1.1S622.64,275.18,621.54,275.18Zm1.89,1.66a5.69,5.69,0,0,0-2.45-.42c-.23,0-.37-.17-.17-.17h2.48C623.91,276.25,623.85,276.84,623.43,276.84Z" transform="translate(-137.52 -199.06)"/><path class="cls-1" d="M632.52,268.94c-.31-.26-.77.25-1,.5a5.24,5.24,0,0,1-1,.76c-.06.06-.67.45-.65.2a9.86,9.86,0,0,0,1.27-1.07,8.28,8.28,0,0,1,1.1-.82c.16-.17.11-.36-.26-.31a.84.84,0,0,0-.39.2,7.06,7.06,0,0,0-1,.82,5,5,0,0,1-.88.62c-.17.08-.45.31-.64.25-.45-.06.5-.56.62-.65l.76-.59a6.28,6.28,0,0,1,.64-.48c.12-.08.42-.14.39-.31s-.33-.14-.44-.11a2,2,0,0,0-1,.48,16,16,0,0,1-2,1.07c-.22-.08.53-.48.59-1,.06-.31,0-.67-.28-.59s-.17.14-.23.28-.19.28-.36.42-.54.51-.82.71c-1,.65-.56,2,.45,1.86.79-.12,1.94.25,3.07-.2a5.63,5.63,0,0,0,1.6-.82,5.09,5.09,0,0,1,.34-.53c0-.06-.08-.17-.14-.2S632.66,269.08,632.52,268.94Z" transform="translate(-137.52 -199.06)"/><path class="cls-1" d="M646.89,226.12h-.39a1,1,0,0,0-.54.11.74.74,0,0,0-.31.65.42.42,0,0,0,.34.34,1.27,1.27,0,0,0,.34.05,1.52,1.52,0,0,0,1.09-.53l.26-.26a1.19,1.19,0,0,1,.79-.56l.28,0a1.23,1.23,0,0,0,.33,0h.09c.23,0,1.18-.17,1.24-.68l-.23,0s0,.05-.34.05a7.57,7.57,0,0,1-1.12-.11c-.23,0-.37-.06-.48-.06h0a1.3,1.3,0,0,0-.76.54c-.08.08-.14.17-.22.25A.73.73,0,0,1,646.89,226.12Z" transform="translate(-137.52 -199.06)"/><path class="cls-1" d="M646.66,229c-.14.11-.67.22-.7.33l0,.06,0,0a.59.59,0,0,0,.62.37,3.16,3.16,0,0,0,1.35-.46c.23-.11.45-.36.68-.42a1.76,1.76,0,0,1,.76.06c0-.51-.54-.7-1-.7a1.61,1.61,0,0,0-1.07.42c0-.14,0-.2.08-.28C647.06,228.45,646.89,228.79,646.66,229Z" transform="translate(-137.52 -199.06)"/><path class="cls-1" d="M644,226.23a4.78,4.78,0,0,0-3.37.82A3,3,0,0,0,638,226a2.8,2.8,0,0,0-2.45,3.29c.2,2.62,4.87,7,4.87,7a.29.29,0,0,0,.45,0s4.08-3.8,4.61-7A2.62,2.62,0,0,0,644,226.23Z" transform="translate(-137.52 -199.06)"/><path class="cls-1" d="M645.43,267.31c.34,0,1.26-.23,2.64-1.95a54.68,54.68,0,0,1,4.19-4.95c1.24-1.1-.64-3.68-1.15-4.3-.08-.09-.56.39-.93.34-.11.28-.9.56-1.38.73a8.91,8.91,0,0,0-.9.47.77.77,0,0,1-.53.48c-.2.09-.45-.19-.48-.19a1.48,1.48,0,0,0-.59.14c-.48.14-1.72.84-1.77,1.29a31,31,0,0,0-.23,3.88c0,.45-.14.85-.93,1a4.79,4.79,0,0,1-.62.08c.09.23.2.51.32.88a4.93,4.93,0,0,0,.64,1.85,7.06,7.06,0,0,0,.82.82c.31.22.53.5.93.48a2.77,2.77,0,0,0,.78-.31c.2-.11.4-.23.62-.34.45-.22.9-.45,1.35-.65a32.1,32.1,0,0,1,3.21-1.23,27.6,27.6,0,0,1,7.76-1.35h.4a.71.71,0,0,1,.48.25v-.11a9.78,9.78,0,0,1,.11-1.66v-.23a8.82,8.82,0,0,0-1-2.34,3.57,3.57,0,0,1-.51-1.48c0-.34.34-.57-.14-.48a2.61,2.61,0,0,0-.93.42,12.62,12.62,0,0,0-2.7,2.25,43,43,0,0,0-3,3.52.36.36,0,0,0-.11.17c-.09.08-.4.47-.46.28s.31-.62.37-.71a18.52,18.52,0,0,1,3.6-4.33c.14-.14.37-.28.48-.42.54-.65-1.63.19-2.53.73-2,1.15-6.22,8.38-8.19,7.34C644.81,267.53,645.17,267.36,645.43,267.31Zm4.47-8.39a2.62,2.62,0,0,1,1,.68.42.42,0,0,1,.06.28.41.41,0,0,1-.7.22A1.81,1.81,0,0,1,649.9,258.92Zm-.31,2.39c.14.37-.19.76-.53.54a3.32,3.32,0,0,1-.54-1.66C648.66,260.19,649.45,261.14,649.59,261.31Zm-3.09-.5c.11-.09.87.76,1,1.09a.44.44,0,0,1-.79.31A2.73,2.73,0,0,1,646.5,260.81ZM645.37,263a2.06,2.06,0,0,1,.06-.39c.05,0,.22.34.22.34a3.1,3.1,0,0,1,.51,1.06.31.31,0,0,1-.17.26,1.06,1.06,0,0,1-.14,0c-.31,0-.51-.37-.51-.9C645.34,263.23,645.37,263.11,645.37,263Z" transform="translate(-137.52 -199.06)"/><path class="cls-1" d="M645.32,232.48l-.06.22.2-.11a1.32,1.32,0,0,1,.59-.14,3.74,3.74,0,0,1,.53.06,3.26,3.26,0,0,0,.73.08,2,2,0,0,0,.42,0,.87.87,0,0,0,.59-.48c.15-.14.26-.31.43-.36a.35.35,0,0,1,.17-.06c.16,0,.33.14.5.37a1.35,1.35,0,0,0,1,.39,4.34,4.34,0,0,0,1.07-.17,6.83,6.83,0,0,1,.68-.08l0-.23H652a3.24,3.24,0,0,1-1.71-.48,1,1,0,0,1-.26-.25,1,1,0,0,0-.42-.31.72.72,0,0,0-.37-.08,1.43,1.43,0,0,0-.81.28.78.78,0,0,0-.2.14,1.41,1.41,0,0,1-.76.34h-.17l-.25-.09a2,2,0,0,0-.67-.14,1,1,0,0,0-.59.2A1.63,1.63,0,0,0,645.32,232.48Z" transform="translate(-137.52 -199.06)"/><path class="cls-1" d="M637.16,263.11a3.83,3.83,0,0,0,2.44.9c.26,0,1.47,0,2.23-.11.14,0,1.29-.14,1.54-.2a.5.5,0,0,0,.45-.47c.06-.71.06-1.52.06-2.42,0-.74,0-1.55-.06-2.34,0,0-.31-4.05-.64-5.57,0-.11.22-.25.33-.31s.12.09.15.23.05.33.08.47a6.58,6.58,0,0,0,2-2s.06.14,0,.22a7.4,7.4,0,0,1-1.92,2.2,30.32,30.32,0,0,1,.45,4.22c.17-.06.34-.11.48-.17l.25-.06h0l.51-.11c.28-.06.59-.11.62-.11s.34-.11.5-.17a5.34,5.34,0,0,0-.39-1,7.54,7.54,0,0,0-1.77-2.48s-.06-.34,0-.31c1.29.68,2.47,3.15,2.67,3.77.08,0,1-.56,1.58-.73.42-.17,1.83-.85,1.83-.85s.56-.28.47-.5l-.42-.62a18.38,18.38,0,0,0-1.18-1.52,7.55,7.55,0,0,0-3.26-2.14l-.12-.05a12.58,12.58,0,0,0-1.23-.74h-.09a.61.61,0,0,0-.34.17l-.16.23-.54.53a4.31,4.31,0,0,1-3.12,1.47,5.7,5.7,0,0,1-2.59-.76c-.79-.48-1.49-1-1.52-1.8v0a8.61,8.61,0,0,0-1.52.42c-1.29.51-4.72,2.19-5.4,3.94a.15.15,0,0,1,0,.11s0,0,.06,0c.23.25.9.84,1.29,1.18a4.22,4.22,0,0,0,1.41.87,1.06,1.06,0,0,1,.14,0c.09,0,.17,0,.28,0h.11a9,9,0,0,1,2.34-3.6c.08-.08.39-.14.42,0a7.72,7.72,0,0,0-1.88,2.7c-.2.48-.37.87-.45,1.1h0a1.64,1.64,0,0,0,.85.34l1.46.25c.48.09.87.65.93.34,0-1.66.11-3.24.17-4-.39-.31-1.77-1.43-1.69-2.3a5.07,5.07,0,0,0,1.77,1.88c0-.11.06-.2.17-.17s.28.17.28.28c0,.43-.25,6-.25,6.42A16.65,16.65,0,0,0,637.16,263.11Z" transform="translate(-137.52 -199.06)"/><path class="cls-1" d="M643.77,244a.6.6,0,0,1-.06-.22c-.25-.76,0-1.41-.31-2.17a3.74,3.74,0,0,0-1.63-2,7.85,7.85,0,0,1-1.38-1,4.4,4.4,0,0,0-2.81-.9,6.59,6.59,0,0,0-3.21,1.12c-2,1.07-2.16,3.24-1.57,5.18a10.18,10.18,0,0,0,.39,1.32,1.73,1.73,0,0,0,.76.68c0-.17-.17-.4-.25-.57a1.27,1.27,0,0,1-.09-.59,1.2,1.2,0,0,0-.11-.53c0-.14,0-.51,0-.56s-.25.28-.39.28c0-.2.19-.34.33-.42s.63-.85.4-1-.28.11-.37.14-.25,0-.19-.11.28-.09.33-.12c.26-.11.26-.36.4-.56a.82.82,0,0,0,.14-.28,1.46,1.46,0,0,1,0-.37,4,4,0,0,0,.05-.53c0-.34,0-1.07.51-1.07,0,.23-.2.73,0,.93s.93-.06,1.18-.14a12.63,12.63,0,0,0,1.3-.59c.08-.06.11-.2.19-.11a.18.18,0,0,1,0,.28l-.25.22c-.06,0-.28.12-.31.2.25,0,.42-.11.65-.17s.5.06.7-.11.11-.17.2-.17.08.25.06.31-.43.11-.54.28a1.72,1.72,0,0,1,.93.08c.22.12.36.31.62.29a1.34,1.34,0,0,0,.31-.09.81.81,0,0,1,.45.09c.14,0,.25.14.39.11s.28-.17.36,0c.2.36-.53.34-.64.36a.11.11,0,0,1-.09,0c0,.11.31.23.4.25s.28.29.39.29a2.77,2.77,0,0,0,1.3-.14c.08,0,.08.19,0,.28a.48.48,0,0,1-.39.16,5.37,5.37,0,0,0-.53.12,5.93,5.93,0,0,1,.67,1,2.35,2.35,0,0,0,.37.73,2.1,2.1,0,0,1,.48,2.14C643.63,246.49,644.08,244.91,643.77,244Z" transform="translate(-137.52 -199.06)"/><path class="cls-1" d="M650.46,235.74a2.54,2.54,0,0,1-1.09-.25,1.33,1.33,0,0,1-.2-.14A.89.89,0,0,1,649,235c-.06-.25-.14-.56-.76-.73a.66.66,0,0,0-.34-.06,1.38,1.38,0,0,0-.79.31.58.58,0,0,1-.36.17.09.09,0,0,1-.06,0,1.81,1.81,0,0,1-.62-.53c-.28-.37-.56-.71-1-.71a.4.4,0,0,0-.2,0,.56.56,0,0,0-.37.39.36.36,0,0,0,.09.39.72.72,0,0,0,.36.25.65.65,0,0,1,.26.17,1.64,1.64,0,0,1,.28.31,1.32,1.32,0,0,0,.34.37,1.12,1.12,0,0,0,.73.28,1.43,1.43,0,0,0,.34-.06.87.87,0,0,0,.3-.14,1.28,1.28,0,0,1,.51-.17l.12,0a2.08,2.08,0,0,1,.67.62c.14.17.25.34.39.4a2.19,2.19,0,0,0,.85.22,3.67,3.67,0,0,0,1.12-.28,2.81,2.81,0,0,1,.42-.17l.34-.11-.34-.09A2.56,2.56,0,0,0,650.46,235.74Z" transform="translate(-137.52 -199.06)"/><path class="cls-1" d="M668.07,278.5c.14.14.26,0,.4-.05a3.61,3.61,0,0,1,1.55-.37c.42-.08,1-.14,1.26-.56.06-.09.39-1.3.59-1.3l-1.52-.76a11.82,11.82,0,0,0-1,1.47c.06.59-1,.7-1.21,1.09C668,278.14,668,278.39,668.07,278.5Z" transform="translate(-137.52 -199.06)"/><path class="cls-1" d="M639.21,251a4.44,4.44,0,0,1-1.29-.43c-.12,0-.34.23.39.62a5.28,5.28,0,0,0,2.28.68,4.08,4.08,0,0,0,2.76-1.21,1.47,1.47,0,0,0,.31-.48c.19-.34-.45-.11-.57,0a1.79,1.79,0,0,0-.53.34c-.06,0-.17-.11-.08-1a17.07,17.07,0,0,0-.09-4.05c0-.37-.42-.82-.48-1.18a3.18,3.18,0,0,0-.53-1.13c-.12-.17-.2-.31-.31-.48a2.77,2.77,0,0,0-.54-.39c-.28-.2-.53-.4-.79-.62s-.5-.11-.75-.25a1.28,1.28,0,0,0-.71-.31.89.89,0,0,1-.39-.06c-.17-.08-.17-.11-.37-.05a2.87,2.87,0,0,1-.78,0,4.33,4.33,0,0,0-1.47.25,2,2,0,0,1-.42.06c-.17,0-.2-.06-.31.11s-.17.45-.31.67a2.21,2.21,0,0,0-.23.87c0,.32-.19.57-.22.85a4.06,4.06,0,0,0,.11.87c0,.28.06.57.11.85,0,.11.09.28.2.33s.09,0,.2-.11a1.66,1.66,0,0,1,.82-.56c.19-.06.81-.25,1-.06a3.46,3.46,0,0,1,.79,1,2,2,0,0,1,.22.91c-.14-.12-.19-.46-.25-.65a1.79,1.79,0,0,0-.76-.9,2.12,2.12,0,0,0-.93.08,1.29,1.29,0,0,0-.79.59,8.92,8.92,0,0,0,1,1.41,13.58,13.58,0,0,0,1,1.18,3.7,3.7,0,0,0,2.54,1.1c2.67,0,2.7-3.41,2.7-3.41,0-.19,0-.42,0-.61,0,0,0-.23.09-.23s.17.39.17.39v.45C642,248.65,640.67,251,639.21,251Zm-2.59-5c-.17.09-.28.31-.56.48-.11.09-.93.51-.73,0,.25-.11.82-.33.76-.5-.4-.17-.93.31-.9.36-.2-.25.33-.53.5-.59a.88.88,0,0,1,.6-.05C636.34,245.78,636.74,246,636.62,246.06Zm.79,1.44a.18.18,0,0,1,.08-.08.48.48,0,0,0,.26-.09,3.88,3.88,0,0,0,.65-.53.12.12,0,0,1,.16,0,.14.14,0,0,1,0,.17s-.09-.05-.14,0-.18.43-.26.45a2,2,0,0,1-.47.12.52.52,0,0,0-.15,0S637.41,247.56,637.41,247.5Zm2.08-3.55c0-.08.2-.08.2,0s-.28.56-.34.67a1.21,1.21,0,0,1-.93.51c-.08,0-.28,0-.34,0a.87.87,0,0,1,0-.36c0-.15-.08-.15,0-.26a1.6,1.6,0,0,1,.31-.22,1.28,1.28,0,0,1,.78-.26c.14,0-.93.37-.81.68S639.29,244.66,639.49,244Zm-.39,4.56c-.62.45-1.16.06-1.16,0a.7.7,0,0,0,.71,0,5.37,5.37,0,0,0,.84-.53C639.63,247.84,639.55,248.17,639.1,248.51Zm.22-.87c-.22.08-.47,0-.76.45-.22.25-1,.25-.89.14a.5.5,0,0,1,.44-.22c.31,0,.26-.31.68-.45s.87-.26.87-.26C639.88,247.25,639.52,247.56,639.32,247.64Zm.4-4.28s-1.1-.73-2.31.65c-.39.45.31,1.3.31,1.3a.71.71,0,0,1-.34-.2c-.17-.17-.17-.2-.28-.56a1.33,1.33,0,0,1,0-.65,3.4,3.4,0,0,1,1.07-.84,2.63,2.63,0,0,1,1.15-.29C640.11,242.75,639.72,243.36,639.72,243.36Z" transform="translate(-137.52 -199.06)"/><path class="cls-1" d="M671.9,270.4c.11-.28.51-1.6.51-1.6-1.07-.2-2.87,1.85-3.38,3.74a25.59,25.59,0,0,0-.87,5.23c.17-.2,1.15-1.63,2.3-3.4Z" transform="translate(-137.52 -199.06)"/><path class="cls-1" d="M188.05,255.56c-3.65,0-6.62,2.36-6.62,5.24s3,5.27,6.62,5.27a7.26,7.26,0,0,0,5.21-2l3.25-3.26-3.27-3.26A7.34,7.34,0,0,0,188.05,255.56Z" transform="translate(-137.52 -199.06)"/><path class="cls-1" d="M200.05,265.06a4.67,4.67,0,0,0-4.67,4.56v22.22c0,.32,0,.62,0,.92s0,.32,0,.48a1.11,1.11,0,0,0,0,.19A12.76,12.76,0,0,1,194,297.8c-2.56,4.75-8,5.95-10.76,6.24-1.08.1-2.32.15-3.75.15h-.76l-.44,0a34.12,34.12,0,0,1-10.59-2.1,23.42,23.42,0,0,1-7.36-5.14c-7.21-7.33-11.39-20.13-11.17-34.23.43-27.87,15.38-40.34,30-40.34,8.51,0,13,1.45,15.35,2.22a7.54,7.54,0,0,0,2.12.53,1.32,1.32,0,0,0,1.26-1.23v0a1.56,1.56,0,0,0-.78-1.39c-2.25-1.38-10.59-3.4-18.55-3.4-11.16,0-21.35,4-28.69,11.3-8,7.91-12.26,19.21-12.36,32.64-.1,12.94,4.4,24.94,12.34,32.93a34.91,34.91,0,0,0,9.46,6.8h0s7.24,4.28,20.34,4.28a47.55,47.55,0,0,0,9.74-.7h0c8-1.37,15.34-6.61,15.34-14.45V269.6A4.67,4.67,0,0,0,200.05,265.06Z" transform="translate(-137.52 -199.06)"/><path class="cls-1" d="M194.82,248.81a7.4,7.4,0,0,0,2,5.18l3.28,3.26L203.3,254a7.3,7.3,0,0,0,2-5.2c0-3.64-2.36-6.62-5.25-6.62S194.82,245.17,194.82,248.81Z" transform="translate(-137.52 -199.06)"/><path class="cls-1" d="M212.08,255.56a7.24,7.24,0,0,0-5.18,2l-3.26,3.27,3.22,3.25a7.34,7.34,0,0,0,5.22,2c3.65,0,6.61-2.36,6.61-5.25S215.73,255.56,212.08,255.56Z" transform="translate(-137.52 -199.06)"/><path class="cls-1" d="M503.9,237.86c3,0,5.47-3.1,5.47-6.92S506.92,224,503.9,224s-5.47,3.1-5.47,6.91S500.88,237.86,503.9,237.86Z" transform="translate(-137.52 -199.06)"/><path class="cls-1" d="M448.23,218.64h-8.78a1.54,1.54,0,0,0-1.56,1.56,1.57,1.57,0,0,0,1.62,1.58c1.19,0,2.09,1.22,2.09,2.85V302.8a4,4,0,0,0,4.24,3.94A3.94,3.94,0,0,0,450,302.8V220.36A1.58,1.58,0,0,0,448.23,218.64Z" transform="translate(-137.52 -199.06)"/><path class="cls-1" d="M476.12,218.64h-8.78a1.54,1.54,0,0,0-1.56,1.56,1.57,1.57,0,0,0,1.62,1.58c1.19,0,2.09,1.22,2.09,2.85V302.8a4,4,0,0,0,4.24,3.94,3.94,3.94,0,0,0,4.12-3.94V220.36A1.58,1.58,0,0,0,476.12,218.64Z" transform="translate(-137.52 -199.06)"/><path class="cls-1" d="M344.38,246.81c-10.14,0-14.59,5.08-16.5,9.09-2.39-4.49-7.49-9.09-18.32-9.09-7.47,0-11.82,2.78-14.34,5.76v-4a1.6,1.6,0,0,0-1.72-1.75h-8.78a1.57,1.57,0,1,0,0,3.13c1.19,0,2.09,1.24,2.09,2.87v50a4,4,0,0,0,4.25,3.94,3.94,3.94,0,0,0,4.12-3.94V265.49a20.65,20.65,0,0,1,2.09-8.72c2.26-4.32,6.09-6.5,11.39-6.5a11.56,11.56,0,0,1,8.71,3.36c4.47,4.63,4.23,12.54,4.22,12.65v36.49a4.06,4.06,0,0,0,4.28,4,4,4,0,0,0,4.12-4V266.32c0-.18.06-.81,0-1.75.86-12.91,9.68-14.3,13.44-14.3a11.59,11.59,0,0,1,8.72,3.36c4.46,4.63,4.22,12.54,4.22,12.65v36.49a4,4,0,0,0,4.27,4,4,4,0,0,0,4.12-4V266.32c0-.7.62-8.05-4.35-13.57C357,248.81,351.53,246.81,344.38,246.81Z" transform="translate(-137.52 -199.06)"/><path class="cls-1" d="M262.24,249.45a24,24,0,0,0-11.37-2.81,30.07,30.07,0,0,0-12.53,3.26c-9.53,4.88-15,14.72-15,27,0,13,4.67,22.21,13.51,26.68l0,0a29.1,29.1,0,0,0,13.73,3.35,29.58,29.58,0,0,0,16.86-5.35l0,0a1.36,1.36,0,0,0,.43-1.82,1.27,1.27,0,0,0-1.08-.59,1.64,1.64,0,0,0-.85.25c-.07,0-7,4.06-14.6,4.06a16.24,16.24,0,0,1-13.32-6.27c-2.86-4.18-4.6-10.32-4.93-17.39a.48.48,0,0,1,.42-.52h0l38-6c.82-.12,3.31-.53,3.31-2.84,0-.55-.08-1.35-.22-2.64C273.72,259.29,269.75,253.45,262.24,249.45Zm-.68,21.78-27.82,4.41c-.7.11-.67-.69-.67-.69.1-4.49,1-14.77,6.77-20.67a14.8,14.8,0,0,1,11-4.39h.05c1.5,0,14.63.5,14.63,17.92C265.56,269.55,264.9,270.67,261.56,271.23Z" transform="translate(-137.52 -199.06)"/><path class="cls-1" d="M415.44,249.45a23.82,23.82,0,0,0-11.36-2.81,30.12,30.12,0,0,0-12.53,3.26c-9.53,4.88-15,14.72-15,27,0,13,4.68,22.21,13.52,26.68l0,0a29,29,0,0,0,13.72,3.35,29.63,29.63,0,0,0,16.87-5.35l0,0a1.39,1.39,0,0,0,.43-1.82,1.28,1.28,0,0,0-1.09-.59,1.64,1.64,0,0,0-.85.25c-.08,0-7,4.06-14.6,4.06a16.22,16.22,0,0,1-13.32-6.27c-2.86-4.18-4.59-10.32-4.94-17.39a.5.5,0,0,1,.43-.52h0l38-6c.82-.12,3.31-.53,3.31-2.84,0-.55-.08-1.35-.21-2.64C426.94,259.29,423,253.45,415.44,249.45Zm-.67,21.78L387,275.64c-.71.11-.68-.69-.68-.69h0c.11-4.49,1-14.77,6.77-20.67a14.8,14.8,0,0,1,11-4.39h.06c1.49,0,14.62.5,14.62,17.92C418.77,269.55,418.12,270.67,414.77,271.23Z" transform="translate(-137.52 -199.06)"/><path class="cls-1" d="M506.43,247.82h-8.78a1.57,1.57,0,1,0,.06,3.14c1.19,0,2.08,1.23,2.08,2.85v49a4,4,0,0,0,4.25,3.94,3.93,3.93,0,0,0,4.11-3.94V249.55A1.59,1.59,0,0,0,506.43,247.82Z" transform="translate(-137.52 -199.06)"/><path class="cls-1" d="M148.88,368.09h-3V353.78h8.2v2.48h-5.22V360h4.86v2.48h-4.86Z" transform="translate(-137.52 -199.06)"/><path class="cls-1" d="M166.45,362.6a5.89,5.89,0,0,1-1.41,4.18,5.12,5.12,0,0,1-3.92,1.5,5.46,5.46,0,0,1-2.78-.69,4.55,4.55,0,0,1-1.85-2,6.51,6.51,0,0,1-.65-3,5.86,5.86,0,0,1,1.4-4.17,5.13,5.13,0,0,1,3.93-1.49,5.59,5.59,0,0,1,2.78.68,4.58,4.58,0,0,1,1.85,2A6.64,6.64,0,0,1,166.45,362.6Zm-7.57,0a4.52,4.52,0,0,0,.54,2.45,2.2,2.2,0,0,0,3.45,0,4.63,4.63,0,0,0,.53-2.46,4.53,4.53,0,0,0-.53-2.44,2.25,2.25,0,0,0-3.46,0A4.51,4.51,0,0,0,158.88,362.6Z" transform="translate(-137.52 -199.06)"/><path class="cls-1" d="M178.86,368.09h-3V361.7a3.08,3.08,0,0,0-.42-1.78,1.54,1.54,0,0,0-1.34-.59,2,2,0,0,0-1.81.83,5.24,5.24,0,0,0-.56,2.78v5.15h-3V357.15H171l.4,1.4h.16a3.16,3.16,0,0,1,1.38-1.2,4.69,4.69,0,0,1,2-.41,3.83,3.83,0,0,1,2.9,1,4.14,4.14,0,0,1,1,3Z" transform="translate(-137.52 -199.06)"/><path class="cls-1" d="M185.23,368.28a3.58,3.58,0,0,1-3-1.49,8.41,8.41,0,0,1,0-8.35,3.65,3.65,0,0,1,3.09-1.5,3.56,3.56,0,0,1,3.15,1.61h.1a12.27,12.27,0,0,1-.22-2.19v-3.5h3v15.23H189l-.58-1.42h-.12A3.42,3.42,0,0,1,185.23,368.28Zm1.05-2.37a2,2,0,0,0,1.68-.67,3.82,3.82,0,0,0,.58-2.26v-.32a4.5,4.5,0,0,0-.54-2.53,2,2,0,0,0-1.77-.76,1.76,1.76,0,0,0-1.55.84,4.54,4.54,0,0,0-.55,2.47,4.22,4.22,0,0,0,.56,2.42A1.81,1.81,0,0,0,186.28,365.91Z" transform="translate(-137.52 -199.06)"/><path class="cls-1" d="M201.24,368.09l-.58-1.49h-.07a4.6,4.6,0,0,1-1.55,1.32,5.16,5.16,0,0,1-2.09.36,3.37,3.37,0,0,1-2.48-.9,3.46,3.46,0,0,1-.9-2.56,2.9,2.9,0,0,1,1.22-2.57,7,7,0,0,1,3.67-.92l1.9-.05v-.48a1.49,1.49,0,0,0-1.7-1.67,7.86,7.86,0,0,0-3.08.79l-1-2a8.87,8.87,0,0,1,4.19-1,5.2,5.2,0,0,1,3.37,1,3.53,3.53,0,0,1,1.18,2.92v7.29Zm-.88-5.07-1.15,0a3.61,3.61,0,0,0-1.94.47,1.45,1.45,0,0,0-.64,1.31c0,.84.48,1.26,1.45,1.26a2.29,2.29,0,0,0,1.66-.6,2.09,2.09,0,0,0,.62-1.58Z" transform="translate(-137.52 -199.06)"/><path class="cls-1" d="M213.85,368.09h-8.64v-1.76l5.07-6.9h-4.76v-2.28h8.16v1.93l-4.93,6.73h5.1Z" transform="translate(-137.52 -199.06)"/><path class="cls-1" d="M215.73,354.32c0-1,.54-1.46,1.62-1.46s1.63.48,1.63,1.46a1.43,1.43,0,0,1-.41,1.08,1.69,1.69,0,0,1-1.22.38C216.27,355.78,215.73,355.3,215.73,354.32Zm3.11,13.77h-3V357.15h3Z" transform="translate(-137.52 -199.06)"/><path class="cls-1" d="M231.76,362.6a5.89,5.89,0,0,1-1.41,4.18,5.13,5.13,0,0,1-3.93,1.5,5.51,5.51,0,0,1-2.78-.69,4.67,4.67,0,0,1-1.85-2,6.64,6.64,0,0,1-.64-3,5.81,5.81,0,0,1,1.4-4.17,5.13,5.13,0,0,1,3.93-1.49,5.59,5.59,0,0,1,2.78.68,4.58,4.58,0,0,1,1.85,2A6.64,6.64,0,0,1,231.76,362.6Zm-7.57,0a4.52,4.52,0,0,0,.54,2.45,2.2,2.2,0,0,0,3.45,0,4.64,4.64,0,0,0,.52-2.46,4.54,4.54,0,0,0-.52-2.44,1.93,1.93,0,0,0-1.74-.81,1.9,1.9,0,0,0-1.72.81A4.51,4.51,0,0,0,224.19,362.6Z" transform="translate(-137.52 -199.06)"/><path class="cls-1" d="M244.16,368.09h-3V361.7a3.08,3.08,0,0,0-.42-1.78,1.54,1.54,0,0,0-1.34-.59,2,2,0,0,0-1.81.83,5.24,5.24,0,0,0-.56,2.78v5.15h-3V357.15h2.28l.41,1.4h.16a3.11,3.11,0,0,1,1.38-1.2,4.69,4.69,0,0,1,2-.41,3.83,3.83,0,0,1,2.9,1,4.14,4.14,0,0,1,1,3Z" transform="translate(-137.52 -199.06)"/><path class="cls-1" d="M252,368.28a5.65,5.65,0,0,1-4.13-1.45,5.54,5.54,0,0,1-1.49-4.13,6.07,6.07,0,0,1,1.38-4.26,4.88,4.88,0,0,1,3.8-1.5,4.81,4.81,0,0,1,3.61,1.32,5,5,0,0,1,1.29,3.65v1.45h-7.05a2.87,2.87,0,0,0,.75,2,2.68,2.68,0,0,0,2,.71,8.65,8.65,0,0,0,1.87-.2,9.78,9.78,0,0,0,1.84-.66v2.31a6.81,6.81,0,0,1-1.68.58A10.28,10.28,0,0,1,252,368.28Zm-.42-9.22a1.88,1.88,0,0,0-1.49.61,2.75,2.75,0,0,0-.61,1.7h4.18a2.47,2.47,0,0,0-.57-1.7A2,2,0,0,0,251.61,359.06Z" transform="translate(-137.52 -199.06)"/><path class="cls-1" d="M273.93,358.24a4.37,4.37,0,0,1-1.45,3.54,6.19,6.19,0,0,1-4.1,1.22h-1.3v5.09h-3V353.78h4.57a6.05,6.05,0,0,1,4,1.12A4.07,4.07,0,0,1,273.93,358.24Zm-6.85,2.27h1a3.33,3.33,0,0,0,2.1-.55,2,2,0,0,0,.69-1.61,2,2,0,0,0-.58-1.58,2.73,2.73,0,0,0-1.82-.51h-1.38Z" transform="translate(-137.52 -199.06)"/><path class="cls-1" d="M286.18,362.6a5.89,5.89,0,0,1-1.41,4.18,5.13,5.13,0,0,1-3.93,1.5,5.51,5.51,0,0,1-2.78-.69,4.61,4.61,0,0,1-1.85-2,6.64,6.64,0,0,1-.64-3,5.81,5.81,0,0,1,1.4-4.17,5.13,5.13,0,0,1,3.93-1.49,5.59,5.59,0,0,1,2.78.68,4.64,4.64,0,0,1,1.85,2A6.64,6.64,0,0,1,286.18,362.6Zm-7.57,0a4.52,4.52,0,0,0,.54,2.45,2.2,2.2,0,0,0,3.45,0,4.64,4.64,0,0,0,.52-2.46,4.54,4.54,0,0,0-.52-2.44,1.93,1.93,0,0,0-1.74-.81,1.9,1.9,0,0,0-1.72.81A4.51,4.51,0,0,0,278.61,362.6Z" transform="translate(-137.52 -199.06)"/><path class="cls-1" d="M291.47,368.09h-3V352.86h3Z" transform="translate(-137.52 -199.06)"/><path class="cls-1" d="M294.31,354.32c0-1,.54-1.46,1.63-1.46s1.62.48,1.62,1.46a1.43,1.43,0,0,1-.4,1.08,1.7,1.7,0,0,1-1.22.38C294.85,355.78,294.31,355.3,294.31,354.32Zm3.12,13.77h-3V357.15h3Z" transform="translate(-137.52 -199.06)"/><path class="cls-1" d="M304.84,368.28q-5.11,0-5.11-5.6a6,6,0,0,1,1.39-4.27,5.23,5.23,0,0,1,4-1.47,7.66,7.66,0,0,1,3.41.74l-.88,2.31c-.47-.19-.91-.34-1.31-.46a4.29,4.29,0,0,0-1.22-.18c-1.55,0-2.32,1.1-2.32,3.31s.77,3.21,2.32,3.21a5.43,5.43,0,0,0,1.6-.23,6.24,6.24,0,0,0,1.47-.72v2.55a4.79,4.79,0,0,1-1.46.64A8.22,8.22,0,0,1,304.84,368.28Z" transform="translate(-137.52 -199.06)"/><path class="cls-1" d="M313.53,368.09h-3V352.86h3Z" transform="translate(-137.52 -199.06)"/><path class="cls-1" d="M316.37,354.32c0-1,.54-1.46,1.63-1.46s1.62.48,1.62,1.46a1.43,1.43,0,0,1-.4,1.08,1.72,1.72,0,0,1-1.22.38C316.91,355.78,316.37,355.3,316.37,354.32Zm3.11,13.77h-3V357.15h3Z" transform="translate(-137.52 -199.06)"/><path class="cls-1" d="M332.56,368.09h-3V361.7a3.08,3.08,0,0,0-.42-1.78,1.54,1.54,0,0,0-1.34-.59,2,2,0,0,0-1.81.83,5.24,5.24,0,0,0-.56,2.78v5.15h-3V357.15h2.28l.4,1.4h.16a3.22,3.22,0,0,1,1.38-1.2,4.69,4.69,0,0,1,2-.41,3.83,3.83,0,0,1,2.9,1,4.14,4.14,0,0,1,1,3Z" transform="translate(-137.52 -199.06)"/><path class="cls-1" d="M335.34,354.32c0-1,.54-1.46,1.63-1.46s1.62.48,1.62,1.46a1.43,1.43,0,0,1-.4,1.08,1.7,1.7,0,0,1-1.22.38C335.88,355.78,335.34,355.3,335.34,354.32Zm3.12,13.77h-3V357.15h3Z" transform="translate(-137.52 -199.06)"/><path class="cls-1" d="M345.87,368.28q-5.12,0-5.11-5.6a6,6,0,0,1,1.39-4.27,5.23,5.23,0,0,1,4-1.47,7.66,7.66,0,0,1,3.41.74l-.88,2.31c-.47-.19-.91-.34-1.31-.46a4.29,4.29,0,0,0-1.22-.18c-1.55,0-2.32,1.1-2.32,3.31s.77,3.21,2.32,3.21a5.43,5.43,0,0,0,1.6-.23,6.24,6.24,0,0,0,1.47-.72v2.55a4.79,4.79,0,0,1-1.46.64A8.22,8.22,0,0,1,345.87,368.28Z" transform="translate(-137.52 -199.06)"/><path class="cls-1" d="M361.52,362.6a5.89,5.89,0,0,1-1.41,4.18,5.13,5.13,0,0,1-3.93,1.5,5.51,5.51,0,0,1-2.78-.69,4.61,4.61,0,0,1-1.85-2,6.64,6.64,0,0,1-.64-3,5.81,5.81,0,0,1,1.4-4.17,5.13,5.13,0,0,1,3.93-1.49,5.59,5.59,0,0,1,2.78.68,4.64,4.64,0,0,1,1.85,2A6.64,6.64,0,0,1,361.52,362.6Zm-7.57,0a4.62,4.62,0,0,0,.53,2.45,1.91,1.91,0,0,0,1.74.84,1.88,1.88,0,0,0,1.72-.83,4.64,4.64,0,0,0,.52-2.46,4.44,4.44,0,0,0-.53-2.44,2.24,2.24,0,0,0-3.45,0A4.51,4.51,0,0,0,354,362.6Z" transform="translate(-137.52 -199.06)"/><path class="cls-1" d="M380.75,353.78V363a5.37,5.37,0,0,1-.71,2.78,4.64,4.64,0,0,1-2.05,1.83,7.38,7.38,0,0,1-3.17.63,6.1,6.1,0,0,1-4.29-1.41A5,5,0,0,1,369,363v-9.22h3v8.76a3.65,3.65,0,0,0,.67,2.43,2.77,2.77,0,0,0,2.2.77,2.71,2.71,0,0,0,2.16-.78,3.72,3.72,0,0,0,.67-2.44v-8.74Z" transform="translate(-137.52 -199.06)"/><path class="cls-1" d="M394,368.09h-3V361.7a3.07,3.07,0,0,0-.43-1.78,1.53,1.53,0,0,0-1.34-.59,2,2,0,0,0-1.81.83,5.25,5.25,0,0,0-.55,2.78v5.15h-3V357.15h2.28l.4,1.4h.17a3.14,3.14,0,0,1,1.37-1.2,4.72,4.72,0,0,1,2-.41,3.82,3.82,0,0,1,2.9,1,4.14,4.14,0,0,1,1,3Z" transform="translate(-137.52 -199.06)"/><path class="cls-1" d="M396.75,354.32c0-1,.54-1.46,1.62-1.46s1.63.48,1.63,1.46a1.43,1.43,0,0,1-.41,1.08,1.7,1.7,0,0,1-1.22.38C397.29,355.78,396.75,355.3,396.75,354.32Zm3.11,13.77h-3V357.15h3Z" transform="translate(-137.52 -199.06)"/><path class="cls-1" d="M405.43,368.09l-4.17-10.94h3.13l2.11,6.23a10.92,10.92,0,0,1,.44,2.24H407a9.73,9.73,0,0,1,.44-2.24l2.1-6.23h3.13l-4.17,10.94Z" transform="translate(-137.52 -199.06)"/><path class="cls-1" d="M419,368.28a5.67,5.67,0,0,1-4.13-1.45,5.54,5.54,0,0,1-1.48-4.13,6.11,6.11,0,0,1,1.37-4.26,4.91,4.91,0,0,1,3.8-1.5,4.85,4.85,0,0,1,3.62,1.32,5,5,0,0,1,1.29,3.65v1.45h-7.06a2.92,2.92,0,0,0,.75,2,2.68,2.68,0,0,0,2,.71,8.65,8.65,0,0,0,1.87-.2,9.54,9.54,0,0,0,1.84-.66v2.31a6.74,6.74,0,0,1-1.67.58A10.45,10.45,0,0,1,419,368.28Zm-.42-9.22a1.86,1.86,0,0,0-1.48.61,2.76,2.76,0,0,0-.62,1.7h4.19a2.47,2.47,0,0,0-.58-1.7A1.92,1.92,0,0,0,418.6,359.06Z" transform="translate(-137.52 -199.06)"/><path class="cls-1" d="M431.86,356.94a4.71,4.71,0,0,1,1,.09l-.22,2.8a3.31,3.31,0,0,0-.89-.1,3.15,3.15,0,0,0-2.22.73,2.67,2.67,0,0,0-.8,2.06v5.57h-3V357.15H428l.44,1.84h.14A4.12,4.12,0,0,1,430,357.5,3.42,3.42,0,0,1,431.86,356.94Z" transform="translate(-137.52 -199.06)"/><path class="cls-1" d="M442.33,364.84a3,3,0,0,1-1.17,2.56,5.75,5.75,0,0,1-3.5.88,10.77,10.77,0,0,1-2-.16,7.84,7.84,0,0,1-1.58-.47v-2.47a10.87,10.87,0,0,0,1.88.66,7.8,7.8,0,0,0,1.83.26c1.08,0,1.63-.31,1.63-.94a.81.81,0,0,0-.22-.57,3.08,3.08,0,0,0-.74-.5c-.36-.19-.83-.4-1.41-.65a8.73,8.73,0,0,1-1.86-1,2.78,2.78,0,0,1-.86-1A3.43,3.43,0,0,1,434,360a2.6,2.6,0,0,1,1.13-2.25,5.53,5.53,0,0,1,3.21-.8,9.1,9.1,0,0,1,3.84.86l-.9,2.15c-.54-.23-1.06-.42-1.53-.57a4.89,4.89,0,0,0-1.46-.23q-1.32,0-1.32.72a.84.84,0,0,0,.42.69,11.17,11.17,0,0,0,1.87.87,9,9,0,0,1,1.88,1,3,3,0,0,1,.88,1A3.18,3.18,0,0,1,442.33,364.84Z" transform="translate(-137.52 -199.06)"/><path class="cls-1" d="M444.37,354.32c0-1,.55-1.46,1.63-1.46s1.62.48,1.62,1.46a1.43,1.43,0,0,1-.4,1.08,1.7,1.7,0,0,1-1.22.38C444.92,355.78,444.37,355.3,444.37,354.32Zm3.12,13.77h-3V357.15h3Z" transform="translate(-137.52 -199.06)"/><path class="cls-1" d="M455.07,365.91a6.53,6.53,0,0,0,1.88-.35v2.22a6.61,6.61,0,0,1-2.74.5,3.35,3.35,0,0,1-2.61-.9,3.93,3.93,0,0,1-.82-2.72v-5.27h-1.43v-1.27l1.65-1,.86-2.31h1.9v2.33h3.07v2.24h-3.07v5.27a1.15,1.15,0,0,0,.36.94A1.43,1.43,0,0,0,455.07,365.91Z" transform="translate(-137.52 -199.06)"/><path class="cls-1" d="M466,368.09l-.58-1.49h-.08a4.5,4.5,0,0,1-1.55,1.32,5.11,5.11,0,0,1-2.08.36,3.36,3.36,0,0,1-2.48-.9,3.46,3.46,0,0,1-.91-2.56,2.9,2.9,0,0,1,1.22-2.57,7.12,7.12,0,0,1,3.68-.92l1.9-.05v-.48a1.5,1.5,0,0,0-1.71-1.67,7.9,7.9,0,0,0-3.08.79l-1-2a8.9,8.9,0,0,1,4.19-1,5.23,5.23,0,0,1,3.38,1A3.55,3.55,0,0,1,468,360.8v7.29Zm-.88-5.07-1.16,0a3.63,3.63,0,0,0-1.94.47,1.47,1.47,0,0,0-.63,1.31c0,.84.48,1.26,1.45,1.26a2.26,2.26,0,0,0,1.65-.6,2.06,2.06,0,0,0,.63-1.58Z" transform="translate(-137.52 -199.06)"/><path class="cls-1" d="M477.05,356.94a4.71,4.71,0,0,1,1,.09l-.23,2.8a3.18,3.18,0,0,0-.88-.1,3.15,3.15,0,0,0-2.22.73,2.64,2.64,0,0,0-.8,2.06v5.57h-3V357.15h2.26l.45,1.84h.14a4.12,4.12,0,0,1,1.38-1.49A3.4,3.4,0,0,1,477.05,356.94Z" transform="translate(-137.52 -199.06)"/><path class="cls-1" d="M479.76,354.32c0-1,.54-1.46,1.62-1.46s1.63.48,1.63,1.46a1.43,1.43,0,0,1-.41,1.08,1.69,1.69,0,0,1-1.22.38C480.3,355.78,479.76,355.3,479.76,354.32Zm3.11,13.77h-3V357.15h3Z" transform="translate(-137.52 -199.06)"/><path class="cls-1" d="M495.79,362.6a5.89,5.89,0,0,1-1.41,4.18,5.13,5.13,0,0,1-3.93,1.5,5.51,5.51,0,0,1-2.78-.69,4.61,4.61,0,0,1-1.85-2,6.64,6.64,0,0,1-.64-3,5.86,5.86,0,0,1,1.4-4.17,5.13,5.13,0,0,1,3.93-1.49,5.59,5.59,0,0,1,2.78.68,4.64,4.64,0,0,1,1.85,2A6.64,6.64,0,0,1,495.79,362.6Zm-7.57,0a4.52,4.52,0,0,0,.54,2.45,2.2,2.2,0,0,0,3.45,0,4.64,4.64,0,0,0,.52-2.46,4.44,4.44,0,0,0-.53-2.44,2.24,2.24,0,0,0-3.45,0A4.51,4.51,0,0,0,488.22,362.6Z" transform="translate(-137.52 -199.06)"/><path class="cls-1" d="M512.13,368.09l-1-3.41h-5.22l-1,3.41h-3.27l5.05-14.37h3.71l5.07,14.37Zm-1.76-5.95c-1-3.09-1.5-4.83-1.62-5.24s-.2-.72-.26-1c-.21.84-.83,2.9-1.85,6.2Z" transform="translate(-137.52 -199.06)"/><path class="cls-1" d="M526.33,357.15v1.51l-1.71.44a3,3,0,0,1,.47,1.65,3.31,3.31,0,0,1-1.23,2.74,5.29,5.29,0,0,1-3.41,1l-.54,0-.44-.05a1,1,0,0,0-.46.78c0,.43.55.65,1.65.65h1.86a4.26,4.26,0,0,1,2.74.77,2.77,2.77,0,0,1,1,2.27,3.39,3.39,0,0,1-1.6,3,8.4,8.4,0,0,1-4.6,1,6.39,6.39,0,0,1-3.5-.79,2.56,2.56,0,0,1-1.21-2.24,2.33,2.33,0,0,1,.62-1.65,3.44,3.44,0,0,1,1.81-1,2,2,0,0,1-.8-.65,1.54,1.54,0,0,1,0-2,4.23,4.23,0,0,1,1-.82,3,3,0,0,1-1.36-1.19,3.62,3.62,0,0,1-.51-1.94,3.4,3.4,0,0,1,1.17-2.77,5,5,0,0,1,3.33-1,9.63,9.63,0,0,1,1.09.08c.42.06.69.1.81.13Zm-8.44,12.48a1.06,1.06,0,0,0,.59,1,3.2,3.2,0,0,0,1.66.36,5.88,5.88,0,0,0,2.51-.44,1.35,1.35,0,0,0,.91-1.21.86.86,0,0,0-.53-.85,4.4,4.4,0,0,0-1.67-.23h-1.55a2.33,2.33,0,0,0-1.37.38A1.19,1.19,0,0,0,517.89,369.63Zm1.08-8.9a2.25,2.25,0,0,0,.41,1.41,1.49,1.49,0,0,0,1.24.52,1.46,1.46,0,0,0,1.23-.52,2.31,2.31,0,0,0,.39-1.41q0-2-1.62-2T519,360.73Z" transform="translate(-137.52 -199.06)"/><path class="cls-1" d="M537.92,362.6a5.89,5.89,0,0,1-1.41,4.18,5.13,5.13,0,0,1-3.93,1.5,5.51,5.51,0,0,1-2.78-.69,4.61,4.61,0,0,1-1.85-2,6.64,6.64,0,0,1-.64-3,5.81,5.81,0,0,1,1.4-4.17,5.13,5.13,0,0,1,3.93-1.49,5.59,5.59,0,0,1,2.78.68,4.64,4.64,0,0,1,1.85,2A6.64,6.64,0,0,1,537.92,362.6Zm-7.57,0a4.52,4.52,0,0,0,.54,2.45,2.2,2.2,0,0,0,3.45,0,4.64,4.64,0,0,0,.52-2.46,4.44,4.44,0,0,0-.53-2.44,2.24,2.24,0,0,0-3.45,0A4.51,4.51,0,0,0,530.35,362.6Z" transform="translate(-137.52 -199.06)"/><path class="cls-1" d="M547.86,364.84a3,3,0,0,1-1.17,2.56,5.77,5.77,0,0,1-3.5.88,10.81,10.81,0,0,1-2-.16,7.75,7.75,0,0,1-1.57-.47v-2.47a10.75,10.75,0,0,0,1.87.66,7.94,7.94,0,0,0,1.84.26c1.08,0,1.62-.31,1.62-.94a.8.8,0,0,0-.21-.57,3.18,3.18,0,0,0-.75-.5c-.35-.19-.82-.4-1.41-.65a8.61,8.61,0,0,1-1.85-1,2.69,2.69,0,0,1-.86-1,3.43,3.43,0,0,1-.27-1.44,2.57,2.57,0,0,1,1.13-2.25,5.5,5.5,0,0,1,3.2-.8,9.18,9.18,0,0,1,3.85.86l-.9,2.15c-.55-.23-1.06-.42-1.54-.57a4.79,4.79,0,0,0-1.46-.23q-1.32,0-1.32.72a.85.85,0,0,0,.43.69,10.55,10.55,0,0,0,1.86.87,8.54,8.54,0,0,1,1.88,1,2.87,2.87,0,0,1,.88,1A3.18,3.18,0,0,1,547.86,364.84Z" transform="translate(-137.52 -199.06)"/><path class="cls-1" d="M554.64,365.91a6.47,6.47,0,0,0,1.88-.35v2.22a6.61,6.61,0,0,1-2.74.5,3.35,3.35,0,0,1-2.61-.9,3.93,3.93,0,0,1-.82-2.72v-5.27h-1.43v-1.27l1.65-1,.86-2.31h1.9v2.33h3.07v2.24h-3.07v5.27a1.15,1.15,0,0,0,.36.94A1.45,1.45,0,0,0,554.64,365.91Z" transform="translate(-137.52 -199.06)"/><path class="cls-1" d="M558.44,354.32c0-1,.54-1.46,1.62-1.46s1.63.48,1.63,1.46a1.43,1.43,0,0,1-.41,1.08,1.69,1.69,0,0,1-1.22.38C559,355.78,558.44,355.3,558.44,354.32Zm3.11,13.77h-3V357.15h3Z" transform="translate(-137.52 -199.06)"/><path class="cls-1" d="M574.62,368.09h-3V361.7a3.08,3.08,0,0,0-.42-1.78,1.54,1.54,0,0,0-1.34-.59,2,2,0,0,0-1.81.83,5.24,5.24,0,0,0-.56,2.78v5.15h-3V357.15h2.29l.4,1.4h.16a3.16,3.16,0,0,1,1.38-1.2,4.69,4.69,0,0,1,2-.41,3.83,3.83,0,0,1,2.9,1,4.14,4.14,0,0,1,1,3Z" transform="translate(-137.52 -199.06)"/><path class="cls-1" d="M587.48,362.6a5.89,5.89,0,0,1-1.41,4.18,5.12,5.12,0,0,1-3.92,1.5,5.49,5.49,0,0,1-2.78-.69,4.61,4.61,0,0,1-1.85-2,6.64,6.64,0,0,1-.65-3,5.86,5.86,0,0,1,1.4-4.17,5.16,5.16,0,0,1,3.94-1.49,5.61,5.61,0,0,1,2.78.68,4.7,4.7,0,0,1,1.85,2A6.64,6.64,0,0,1,587.48,362.6Zm-7.56,0a4.53,4.53,0,0,0,.53,2.45,1.9,1.9,0,0,0,1.74.84,1.87,1.87,0,0,0,1.71-.83,4.63,4.63,0,0,0,.53-2.46,4.53,4.53,0,0,0-.53-2.44,2.25,2.25,0,0,0-3.46,0A4.52,4.52,0,0,0,579.92,362.6Z" transform="translate(-137.52 -199.06)"/><path class="cls-1" d="M600.5,360.05h5.68v7.42a16,16,0,0,1-2.6.63,17,17,0,0,1-2.49.18,6.3,6.3,0,0,1-5-1.9,7.92,7.92,0,0,1-1.71-5.47,7.2,7.2,0,0,1,2-5.4,7.56,7.56,0,0,1,5.5-1.94,10.78,10.78,0,0,1,4.25.88l-1,2.43a7.21,7.21,0,0,0-3.26-.78,4,4,0,0,0-3.15,1.32,5.11,5.11,0,0,0-1.18,3.55,5.68,5.68,0,0,0,1,3.56,3.3,3.3,0,0,0,2.77,1.23,9.81,9.81,0,0,0,1.93-.2v-3H600.5Z" transform="translate(-137.52 -199.06)"/><path class="cls-1" d="M614.14,368.28a5.65,5.65,0,0,1-4.13-1.45,5.54,5.54,0,0,1-1.49-4.13,6.07,6.07,0,0,1,1.38-4.26,4.88,4.88,0,0,1,3.8-1.5,4.81,4.81,0,0,1,3.61,1.32,5,5,0,0,1,1.29,3.65v1.45h-7.05a2.87,2.87,0,0,0,.75,2,2.68,2.68,0,0,0,2,.71,8.65,8.65,0,0,0,1.87-.2,9.78,9.78,0,0,0,1.84-.66v2.31a6.67,6.67,0,0,1-1.68.58A10.28,10.28,0,0,1,614.14,368.28Zm-.42-9.22a1.88,1.88,0,0,0-1.49.61,2.75,2.75,0,0,0-.61,1.7h4.19a2.52,2.52,0,0,0-.58-1.7A1.94,1.94,0,0,0,613.72,359.06Z" transform="translate(-137.52 -199.06)"/><path class="cls-1" d="M630.67,368.09h-3V361.7a3.26,3.26,0,0,0-.39-1.78,1.41,1.41,0,0,0-1.25-.59,1.83,1.83,0,0,0-1.67.84,5.59,5.59,0,0,0-.51,2.77v5.15h-3V357.15h2.28l.4,1.4h.17a3,3,0,0,1,1.27-1.18,4.07,4.07,0,0,1,1.91-.43,3.44,3.44,0,0,1,3.33,1.61h.26a3,3,0,0,1,1.3-1.19,4.31,4.31,0,0,1,1.93-.42,3.86,3.86,0,0,1,2.82.95,4.23,4.23,0,0,1,1,3.06v7.14h-3V361.7a3.26,3.26,0,0,0-.4-1.78,1.41,1.41,0,0,0-1.25-.59,1.86,1.86,0,0,0-1.64.78,4.46,4.46,0,0,0-.54,2.49Z" transform="translate(-137.52 -199.06)"/><path class="cls-1" d="M645.35,368.28a5.64,5.64,0,0,1-4.13-1.45,5.5,5.5,0,0,1-1.49-4.13,6.11,6.11,0,0,1,1.37-4.26,4.92,4.92,0,0,1,3.81-1.5,4.83,4.83,0,0,1,3.61,1.32,5,5,0,0,1,1.29,3.65v1.45h-7.06a2.88,2.88,0,0,0,.76,2,2.66,2.66,0,0,0,2,.71,8.65,8.65,0,0,0,1.87-.2,9.54,9.54,0,0,0,1.84-.66v2.31a6.74,6.74,0,0,1-1.67.58A10.41,10.41,0,0,1,645.35,368.28Zm-.42-9.22a1.87,1.87,0,0,0-1.49.61,2.76,2.76,0,0,0-.62,1.7H647a2.47,2.47,0,0,0-.58-1.7A1.92,1.92,0,0,0,644.93,359.06Z" transform="translate(-137.52 -199.06)"/><path class="cls-1" d="M655.06,368.09h-3V352.86h3Z" transform="translate(-137.52 -199.06)"/><path class="cls-1" d="M661,368.09h-3V352.86h3Z" transform="translate(-137.52 -199.06)"/><path class="cls-1" d="M663.86,354.32c0-1,.54-1.46,1.63-1.46s1.62.48,1.62,1.46a1.43,1.43,0,0,1-.4,1.08,1.7,1.7,0,0,1-1.22.38C664.4,355.78,663.86,355.3,663.86,354.32ZM667,368.09h-3V357.15h3Z" transform="translate(-137.52 -199.06)"/><path class="cls-1" d="M675.23,368.09V353.78h3v14.31Z" transform="translate(-137.52 -199.06)"/><path class="cls-1" d="M684.74,362.6v5.49h-3V353.78h4.17a7.12,7.12,0,0,1,4.32,1.06,3.8,3.8,0,0,1,1.4,3.23,3.73,3.73,0,0,1-.7,2.24,4.56,4.56,0,0,1-2,1.54q3.23,4.83,4.21,6.24h-3.37l-3.42-5.49Zm0-2.47h1a3.73,3.73,0,0,0,2.12-.48,1.7,1.7,0,0,0,.68-1.51,1.56,1.56,0,0,0-.69-1.44,4.22,4.22,0,0,0-2.17-.44h-.92Z" transform="translate(-137.52 -199.06)"/><path class="cls-1" d="M700.85,356.1a3.09,3.09,0,0,0-2.65,1.29,6,6,0,0,0-.94,3.58q0,4.78,3.59,4.79a11.43,11.43,0,0,0,3.66-.75v2.54a10.17,10.17,0,0,1-3.94.73,6,6,0,0,1-4.78-1.89,8,8,0,0,1-1.65-5.44A8.93,8.93,0,0,1,695,357a5.84,5.84,0,0,1,2.34-2.57,6.85,6.85,0,0,1,3.56-.9,9.65,9.65,0,0,1,4.19,1l-1,2.47a14.82,14.82,0,0,0-1.61-.67A4.78,4.78,0,0,0,700.85,356.1Z" transform="translate(-137.52 -199.06)"/><path class="cls-1" d="M713.47,356.1a3.1,3.1,0,0,0-2.66,1.29,6,6,0,0,0-.94,3.58q0,4.78,3.6,4.79a11.43,11.43,0,0,0,3.65-.75v2.54a10.17,10.17,0,0,1-3.94.73,6,6,0,0,1-4.77-1.89,8,8,0,0,1-1.66-5.44,8.93,8.93,0,0,1,.81-3.91,5.9,5.9,0,0,1,2.34-2.57,6.86,6.86,0,0,1,3.57-.9,9.69,9.69,0,0,1,4.19,1l-1,2.47a15.85,15.85,0,0,0-1.62-.67A4.76,4.76,0,0,0,713.47,356.1Z" transform="translate(-137.52 -199.06)"/><path class="cls-1" d="M728.45,364.11a3.71,3.71,0,0,1-1.4,3.06,6.07,6.07,0,0,1-3.88,1.11,9,9,0,0,1-4-.86V364.6a15.8,15.8,0,0,0,2.45.91,7.12,7.12,0,0,0,1.84.27,2.66,2.66,0,0,0,1.53-.38,1.34,1.34,0,0,0,.53-1.14,1.3,1.3,0,0,0-.23-.75,2.67,2.67,0,0,0-.69-.63c-.31-.2-.93-.52-1.86-1a8.9,8.9,0,0,1-2-1.18,4.57,4.57,0,0,1-1-1.32,3.8,3.8,0,0,1-.39-1.76,3.69,3.69,0,0,1,1.28-3,5.39,5.39,0,0,1,3.56-1.09,8.29,8.29,0,0,1,2.13.27,14.18,14.18,0,0,1,2.12.74l-1,2.36a16.3,16.3,0,0,0-1.89-.66,6.37,6.37,0,0,0-1.48-.18,2,2,0,0,0-1.32.4,1.32,1.32,0,0,0-.46,1.05,1.27,1.27,0,0,0,.19.7,1.9,1.9,0,0,0,.59.57,18.38,18.38,0,0,0,1.92,1,7.61,7.61,0,0,1,2.75,1.92A3.72,3.72,0,0,1,728.45,364.11Z" transform="translate(-137.52 -199.06)"/><path class="cls-1" d="M157.55,377.83v9.26a5.37,5.37,0,0,1-.71,2.78,4.63,4.63,0,0,1-2.05,1.83,7.28,7.28,0,0,1-3.18.64,6,6,0,0,1-4.28-1.42,5,5,0,0,1-1.53-3.87v-9.22h3v8.76a3.71,3.71,0,0,0,.66,2.43,2.78,2.78,0,0,0,2.2.77,2.7,2.7,0,0,0,2.16-.78,3.65,3.65,0,0,0,.67-2.44v-8.74Z" transform="translate(-137.52 -199.06)"/><path class="cls-1" d="M170.76,392.14h-3v-6.39a3.1,3.1,0,0,0-.42-1.78,1.54,1.54,0,0,0-1.34-.59,2,2,0,0,0-1.81.84,5.2,5.2,0,0,0-.56,2.77v5.15h-3V381.2h2.28l.4,1.4h.16a3.16,3.16,0,0,1,1.38-1.2,4.69,4.69,0,0,1,2-.41,3.84,3.84,0,0,1,2.9,1,4.12,4.12,0,0,1,1,3Z" transform="translate(-137.52 -199.06)"/><path class="cls-1" d="M173.54,378.37c0-1,.54-1.46,1.63-1.46s1.62.49,1.62,1.46a1.4,1.4,0,0,1-.41,1.08,1.68,1.68,0,0,1-1.21.39C174.08,379.84,173.54,379.35,173.54,378.37Zm3.11,13.77h-3V381.2h3Z" transform="translate(-137.52 -199.06)"/><path class="cls-1" d="M182.23,392.14l-4.17-10.94h3.12l2.12,6.23a11.63,11.63,0,0,1,.44,2.24h0a9.82,9.82,0,0,1,.45-2.24l2.1-6.23h3.12l-4.17,10.94Z" transform="translate(-137.52 -199.06)"/><path class="cls-1" d="M195.82,392.34a5.66,5.66,0,0,1-4.13-1.46,5.53,5.53,0,0,1-1.49-4.13,6.06,6.06,0,0,1,1.38-4.25,5.57,5.57,0,0,1,7.41-.19,5,5,0,0,1,1.29,3.66v1.44h-7.05a2.87,2.87,0,0,0,.75,2,2.64,2.64,0,0,0,2,.72,8.06,8.06,0,0,0,1.87-.21,9.78,9.78,0,0,0,1.84-.66v2.31a7.27,7.27,0,0,1-1.68.59A11,11,0,0,1,195.82,392.34Zm-.42-9.22a1.91,1.91,0,0,0-1.49.6,2.76,2.76,0,0,0-.61,1.71h4.18a2.48,2.48,0,0,0-.57-1.71A2,2,0,0,0,195.4,383.12Z" transform="translate(-137.52 -199.06)"/><path class="cls-1" d="M208.66,381a4.78,4.78,0,0,1,1,.09l-.23,2.8a3.62,3.62,0,0,0-.88-.1,3.18,3.18,0,0,0-2.23.74,2.65,2.65,0,0,0-.79,2.05v5.57h-3V381.2h2.26l.44,1.84h.15a4.15,4.15,0,0,1,1.37-1.48A3.38,3.38,0,0,1,208.66,381Z" transform="translate(-137.52 -199.06)"/><path class="cls-1" d="M219.13,388.89a3,3,0,0,1-1.17,2.57,5.84,5.84,0,0,1-3.5.88,11.72,11.72,0,0,1-2-.16,7.76,7.76,0,0,1-1.57-.48v-2.47a10,10,0,0,0,1.87.66,7.44,7.44,0,0,0,1.84.26q1.62,0,1.62-.93a.81.81,0,0,0-.21-.58,3.82,3.82,0,0,0-.75-.5c-.35-.18-.82-.4-1.41-.65a8.61,8.61,0,0,1-1.85-1,2.6,2.6,0,0,1-.86-1,3.38,3.38,0,0,1-.27-1.43,2.58,2.58,0,0,1,1.13-2.26,5.5,5.5,0,0,1,3.2-.8,9.18,9.18,0,0,1,3.85.86l-.9,2.16a15.14,15.14,0,0,0-1.54-.58,4.78,4.78,0,0,0-1.46-.22c-.88,0-1.32.23-1.32.71a.84.84,0,0,0,.43.7,12.3,12.3,0,0,0,1.86.87,8.84,8.84,0,0,1,1.88,1,3,3,0,0,1,.88,1A3.18,3.18,0,0,1,219.13,388.89Z" transform="translate(-137.52 -199.06)"/><path class="cls-1" d="M221.17,378.37c0-1,.54-1.46,1.62-1.46s1.63.49,1.63,1.46a1.43,1.43,0,0,1-.41,1.08,1.7,1.7,0,0,1-1.22.39Q221.17,379.84,221.17,378.37Zm3.11,13.77h-3V381.2h3Z" transform="translate(-137.52 -199.06)"/><path class="cls-1" d="M231.86,390a6.76,6.76,0,0,0,1.88-.34v2.22a6.74,6.74,0,0,1-2.74.5,3.35,3.35,0,0,1-2.61-.91,4,4,0,0,1-.81-2.71v-5.28h-1.43v-1.26l1.64-1,.86-2.31h1.91v2.33h3.06v2.24h-3.06v5.28a1.18,1.18,0,0,0,.36.94A1.41,1.41,0,0,0,231.86,390Z" transform="translate(-137.52 -199.06)"/><path class="cls-1" d="M242.74,392.14l-.58-1.49h-.07a4.32,4.32,0,0,1-1.56,1.32,4.9,4.9,0,0,1-2.08.37,3.37,3.37,0,0,1-2.48-.9,3.48,3.48,0,0,1-.9-2.57,2.87,2.87,0,0,1,1.22-2.57,7.06,7.06,0,0,1,3.67-.91l1.9-.06v-.48a1.49,1.49,0,0,0-1.7-1.66,7.77,7.77,0,0,0-3.09.79l-1-2a8.87,8.87,0,0,1,4.19-1,5.2,5.2,0,0,1,3.37,1,3.57,3.57,0,0,1,1.18,2.92v7.29ZM240.24,380c-.41-.29-1-.76-1.81-1.4s-1.42-1.18-1.86-1.61v-.21h3.34a27.06,27.06,0,0,0,2.3,3V380Zm1.62,7.07-1.15,0a3.7,3.7,0,0,0-1.94.47,1.47,1.47,0,0,0-.64,1.31c0,.84.48,1.26,1.45,1.26a2.3,2.3,0,0,0,1.66-.59,2.12,2.12,0,0,0,.62-1.59Z" transform="translate(-137.52 -199.06)"/><path class="cls-1" d="M259.1,380.15a3.08,3.08,0,0,0-2.65,1.29,6,6,0,0,0-.94,3.59c0,3.19,1.19,4.78,3.59,4.78a11.43,11.43,0,0,0,3.65-.75v2.54a10.12,10.12,0,0,1-3.93.74,6,6,0,0,1-4.78-1.9,8,8,0,0,1-1.66-5.43,8.9,8.9,0,0,1,.82-3.91,5.91,5.91,0,0,1,2.33-2.58,7,7,0,0,1,3.57-.89,9.64,9.64,0,0,1,4.19,1l-1,2.47a17.2,17.2,0,0,0-1.62-.66A4.78,4.78,0,0,0,259.1,380.15Z" transform="translate(-137.52 -199.06)"/><path class="cls-1" d="M272.35,392.14l-.58-1.49h-.08a4.29,4.29,0,0,1-1.55,1.32,4.9,4.9,0,0,1-2.08.37,3.36,3.36,0,0,1-2.48-.9,3.49,3.49,0,0,1-.91-2.57,2.9,2.9,0,0,1,1.22-2.57,7.1,7.1,0,0,1,3.68-.91l1.9-.06v-.48a1.49,1.49,0,0,0-1.71-1.66,7.73,7.73,0,0,0-3.08.79l-1-2a8.9,8.9,0,0,1,4.19-1,5.23,5.23,0,0,1,3.38,1,3.57,3.57,0,0,1,1.17,2.92v7.29Zm-.88-5.07-1.16,0a3.73,3.73,0,0,0-1.94.47,1.49,1.49,0,0,0-.63,1.31c0,.84.48,1.26,1.45,1.26a2.3,2.3,0,0,0,1.66-.59,2.12,2.12,0,0,0,.62-1.59Z" transform="translate(-137.52 -199.06)"/><path class="cls-1" d="M282,390a6.7,6.7,0,0,0,1.88-.34v2.22a6.71,6.71,0,0,1-2.74.5,3.31,3.31,0,0,1-2.6-.91,3.9,3.9,0,0,1-.82-2.71v-5.28h-1.43v-1.26l1.64-1,.86-2.31h1.91v2.33h3.07v2.24h-3.07v5.28a1.18,1.18,0,0,0,.36.94A1.41,1.41,0,0,0,282,390Z" transform="translate(-137.52 -199.06)"/><path class="cls-1" d="M290.5,390a6.7,6.7,0,0,0,1.87-.34v2.22a6.71,6.71,0,0,1-2.74.5,3.31,3.31,0,0,1-2.6-.91,3.9,3.9,0,0,1-.82-2.71v-5.28h-1.43v-1.26l1.64-1,.87-2.31h1.9v2.33h3.07v2.24h-3.07v5.28a1.18,1.18,0,0,0,.36.94A1.42,1.42,0,0,0,290.5,390Z" transform="translate(-137.52 -199.06)"/><path class="cls-1" d="M304.37,386.65a5.87,5.87,0,0,1-1.41,4.18,5.13,5.13,0,0,1-3.92,1.51,5.49,5.49,0,0,1-2.78-.69,4.55,4.55,0,0,1-1.85-2,6.71,6.71,0,0,1-.65-3,5.86,5.86,0,0,1,1.4-4.17A5.16,5.16,0,0,1,299.1,381a5.51,5.51,0,0,1,2.78.69,4.64,4.64,0,0,1,1.85,2A6.57,6.57,0,0,1,304.37,386.65Zm-7.56,0a4.59,4.59,0,0,0,.53,2.46,1.91,1.91,0,0,0,1.74.83,1.88,1.88,0,0,0,1.71-.83,4.63,4.63,0,0,0,.53-2.46,4.58,4.58,0,0,0-.53-2.44,2.25,2.25,0,0,0-3.46,0A4.54,4.54,0,0,0,296.81,386.65Z" transform="translate(-137.52 -199.06)"/><path class="cls-1" d="M309.66,392.14h-3V376.91h3Z" transform="translate(-137.52 -199.06)"/><path class="cls-1" d="M312.51,378.37c0-1,.54-1.46,1.62-1.46s1.63.49,1.63,1.46a1.43,1.43,0,0,1-.41,1.08,1.7,1.7,0,0,1-1.22.39Q312.51,379.84,312.51,378.37Zm3.11,13.77h-3V381.2h3Z" transform="translate(-137.52 -199.06)"/><path class="cls-1" d="M323,392.34c-3.4,0-5.11-1.87-5.11-5.61a6,6,0,0,1,1.4-4.26,5.17,5.17,0,0,1,4-1.48,7.52,7.52,0,0,1,3.4.75l-.88,2.31c-.47-.19-.9-.35-1.31-.47a4.22,4.22,0,0,0-1.21-.18c-1.55,0-2.33,1.1-2.33,3.31s.78,3.21,2.33,3.21a5.41,5.41,0,0,0,1.59-.23,5.55,5.55,0,0,0,1.47-.72v2.56a5,5,0,0,1-1.46.63A8.1,8.1,0,0,1,323,392.34Z" transform="translate(-137.52 -199.06)"/><path class="cls-1" d="M335.68,392.14l-.57-1.49H335a4.29,4.29,0,0,1-1.55,1.32,4.94,4.94,0,0,1-2.08.37,3.36,3.36,0,0,1-2.48-.9,3.45,3.45,0,0,1-.91-2.57,2.9,2.9,0,0,1,1.22-2.57,7.1,7.1,0,0,1,3.68-.91l1.89-.06v-.48a1.48,1.48,0,0,0-1.7-1.66A7.73,7.73,0,0,0,330,384l-1-2a8.87,8.87,0,0,1,4.19-1,5.23,5.23,0,0,1,3.38,1,3.57,3.57,0,0,1,1.17,2.92v7.29Zm-.88-5.07-1.15,0a3.73,3.73,0,0,0-1.94.47,1.49,1.49,0,0,0-.63,1.31q0,1.26,1.44,1.26a2.26,2.26,0,0,0,1.66-.59,2.09,2.09,0,0,0,.62-1.59Z" transform="translate(-137.52 -199.06)"/><path class="cls-1" d="M349.19,392.34a3.57,3.57,0,0,1-3-1.5,8.39,8.39,0,0,1,0-8.34,3.63,3.63,0,0,1,3.09-1.51,3.56,3.56,0,0,1,3.15,1.61h.1a12.17,12.17,0,0,1-.22-2.18v-3.51h3v15.23H353l-.58-1.42h-.12A3.43,3.43,0,0,1,349.19,392.34Zm1.05-2.38a2,2,0,0,0,1.68-.67,3.79,3.79,0,0,0,.58-2.26v-.32a4.5,4.5,0,0,0-.54-2.53,2,2,0,0,0-1.77-.76,1.75,1.75,0,0,0-1.55.85,4.48,4.48,0,0,0-.55,2.46,4.2,4.2,0,0,0,.56,2.42A1.81,1.81,0,0,0,350.24,390Z" transform="translate(-137.52 -199.06)"/><path class="cls-1" d="M363.21,392.34a5.64,5.64,0,0,1-4.13-1.46,5.49,5.49,0,0,1-1.49-4.13A6.1,6.1,0,0,1,359,382.5a4.89,4.89,0,0,1,3.81-1.51,4.83,4.83,0,0,1,3.61,1.32,5,5,0,0,1,1.29,3.66v1.44h-7.06a2.88,2.88,0,0,0,.76,2,2.62,2.62,0,0,0,2,.72,8,8,0,0,0,1.87-.21,9.54,9.54,0,0,0,1.84-.66v2.31a7.19,7.19,0,0,1-1.67.59A11.07,11.07,0,0,1,363.21,392.34Zm-.42-9.22a1.89,1.89,0,0,0-1.49.6,2.76,2.76,0,0,0-.62,1.71h4.19a2.48,2.48,0,0,0-.58-1.71A1.94,1.94,0,0,0,362.79,383.12Z" transform="translate(-137.52 -199.06)"/><path class="cls-1" d="M372.92,392.14h-3V376.91h3Z" transform="translate(-137.52 -199.06)"/><path class="cls-1" d="M389.62,388.17a3.69,3.69,0,0,1-1.39,3.05,6,6,0,0,1-3.88,1.12,9.21,9.21,0,0,1-4.06-.86v-2.82a17.42,17.42,0,0,0,2.46.91,7.46,7.46,0,0,0,1.83.26,2.62,2.62,0,0,0,1.53-.38,1.31,1.31,0,0,0,.54-1.14,1.19,1.19,0,0,0-.24-.74,2.88,2.88,0,0,0-.69-.64,17.7,17.7,0,0,0-1.85-1,9,9,0,0,1-2-1.19,4.44,4.44,0,0,1-1-1.32,3.77,3.77,0,0,1-.39-1.76,3.71,3.71,0,0,1,1.29-3,5.36,5.36,0,0,1,3.55-1.08,8.18,8.18,0,0,1,2.13.26,15.82,15.82,0,0,1,2.12.74l-1,2.36a13.83,13.83,0,0,0-1.89-.65,5.82,5.82,0,0,0-1.47-.19,2,2,0,0,0-1.32.4,1.44,1.44,0,0,0-.28,1.75,2.17,2.17,0,0,0,.59.58,19.68,19.68,0,0,0,1.93,1,7.8,7.8,0,0,1,2.75,1.92A3.83,3.83,0,0,1,389.62,388.17Z" transform="translate(-137.52 -199.06)"/><path class="cls-1" d="M398.77,392.14l-.58-1.49h-.08a4.29,4.29,0,0,1-1.55,1.32,4.9,4.9,0,0,1-2.08.37,3.36,3.36,0,0,1-2.48-.9,3.48,3.48,0,0,1-.9-2.57,2.89,2.89,0,0,1,1.21-2.57,7.13,7.13,0,0,1,3.68-.91l1.9-.06v-.48a1.49,1.49,0,0,0-1.71-1.66,7.73,7.73,0,0,0-3.08.79l-1-2a8.9,8.9,0,0,1,4.19-1,5.22,5.22,0,0,1,3.38,1,3.57,3.57,0,0,1,1.17,2.92v7.29Zm-.88-5.07-1.16,0a3.69,3.69,0,0,0-1.93.47,1.47,1.47,0,0,0-.64,1.31c0,.84.48,1.26,1.45,1.26a2.3,2.3,0,0,0,1.66-.59,2.12,2.12,0,0,0,.62-1.59Z" transform="translate(-137.52 -199.06)"/><path class="cls-1" d="M408.21,392.34q-5.11,0-5.11-5.61a6,6,0,0,1,1.39-4.26,5.2,5.2,0,0,1,4-1.48,7.53,7.53,0,0,1,3.41.75l-.88,2.31c-.47-.19-.91-.35-1.31-.47a4.29,4.29,0,0,0-1.22-.18c-1.55,0-2.33,1.1-2.33,3.31s.78,3.21,2.33,3.21a5.43,5.43,0,0,0,1.6-.23,5.55,5.55,0,0,0,1.47-.72v2.56a5.06,5.06,0,0,1-1.47.63A8,8,0,0,1,408.21,392.34Z" transform="translate(-137.52 -199.06)"/><path class="cls-1" d="M420,381a4.78,4.78,0,0,1,1,.09l-.23,2.8a3.62,3.62,0,0,0-.88-.1,3.19,3.19,0,0,0-2.23.74,2.65,2.65,0,0,0-.79,2.05v5.57h-3V381.2h2.26l.44,1.84h.15a4.09,4.09,0,0,1,1.38-1.48A3.33,3.33,0,0,1,420,381Z" transform="translate(-137.52 -199.06)"/><path class="cls-1" d="M432.8,386.65a5.87,5.87,0,0,1-1.41,4.18,5.14,5.14,0,0,1-3.93,1.51,5.51,5.51,0,0,1-2.78-.69,4.67,4.67,0,0,1-1.85-2,6.71,6.71,0,0,1-.64-3,5.86,5.86,0,0,1,1.4-4.17,5.13,5.13,0,0,1,3.93-1.49,5.49,5.49,0,0,1,2.78.69,4.52,4.52,0,0,1,1.85,2A6.57,6.57,0,0,1,432.8,386.65Zm-7.57,0a4.58,4.58,0,0,0,.54,2.46,2.21,2.21,0,0,0,3.45,0,4.63,4.63,0,0,0,.53-2.46,4.58,4.58,0,0,0-.53-2.44,1.93,1.93,0,0,0-1.74-.81,1.9,1.9,0,0,0-1.72.81A4.53,4.53,0,0,0,425.23,386.65Z" transform="translate(-137.52 -199.06)"/><path class="cls-1" d="M446.46,380.15a3.09,3.09,0,0,0-2.65,1.29,6,6,0,0,0-.94,3.59q0,4.79,3.59,4.78a11.43,11.43,0,0,0,3.66-.75v2.54a10.17,10.17,0,0,1-3.94.74,6,6,0,0,1-4.78-1.9,8,8,0,0,1-1.65-5.43,8.9,8.9,0,0,1,.81-3.91,5.87,5.87,0,0,1,2.34-2.58,6.94,6.94,0,0,1,3.56-.89,9.64,9.64,0,0,1,4.19,1l-1,2.47a17,17,0,0,0-1.61-.66A4.79,4.79,0,0,0,446.46,380.15Z" transform="translate(-137.52 -199.06)"/><path class="cls-1" d="M460.51,392.14l-.4-1.4H460a3.2,3.2,0,0,1-1.36,1.18,4.63,4.63,0,0,1-2,.42,3.83,3.83,0,0,1-2.91-1,4.14,4.14,0,0,1-1-3V381.2h3v6.39a3.1,3.1,0,0,0,.42,1.78,1.54,1.54,0,0,0,1.34.59,2,2,0,0,0,1.81-.84,5.2,5.2,0,0,0,.56-2.77V381.2h3v10.94Z" transform="translate(-137.52 -199.06)"/><path class="cls-1" d="M475.72,386.65a5.87,5.87,0,0,1-1.41,4.18,5.13,5.13,0,0,1-3.92,1.51,5.49,5.49,0,0,1-2.78-.69,4.55,4.55,0,0,1-1.85-2,6.71,6.71,0,0,1-.65-3,5.86,5.86,0,0,1,1.4-4.17,5.14,5.14,0,0,1,3.94-1.49,5.45,5.45,0,0,1,2.77.69,4.52,4.52,0,0,1,1.85,2A6.57,6.57,0,0,1,475.72,386.65Zm-7.57,0a4.58,4.58,0,0,0,.54,2.46,1.91,1.91,0,0,0,1.74.83,1.88,1.88,0,0,0,1.71-.83,4.63,4.63,0,0,0,.53-2.46,4.58,4.58,0,0,0-.53-2.44,2.25,2.25,0,0,0-3.46,0A4.53,4.53,0,0,0,468.15,386.65Z" transform="translate(-137.52 -199.06)"/><path class="cls-1" d="M484.13,381a4.65,4.65,0,0,1,1,.09l-.22,2.8a3.68,3.68,0,0,0-.88-.1,3.16,3.16,0,0,0-2.23.74,2.65,2.65,0,0,0-.8,2.05v5.57h-3V381.2h2.26l.44,1.84h.15a4.06,4.06,0,0,1,1.37-1.48A3.37,3.37,0,0,1,484.13,381Z" transform="translate(-137.52 -199.06)"/><path class="cls-1" d="M491.92,392.34a5.66,5.66,0,0,1-4.13-1.46,5.53,5.53,0,0,1-1.49-4.13,6.06,6.06,0,0,1,1.38-4.25,5.57,5.57,0,0,1,7.41-.19,5,5,0,0,1,1.29,3.66v1.44h-7.05a2.87,2.87,0,0,0,.75,2,2.64,2.64,0,0,0,2,.72,8.06,8.06,0,0,0,1.87-.21,9.78,9.78,0,0,0,1.84-.66v2.31a7.11,7.11,0,0,1-1.68.59A11,11,0,0,1,491.92,392.34Zm-.42-9.22a1.91,1.91,0,0,0-1.49.6,2.76,2.76,0,0,0-.61,1.71h4.19a2.53,2.53,0,0,0-.58-1.71A2,2,0,0,0,491.5,383.12Z" transform="translate(-137.52 -199.06)"/></svg>