<?xml version="1.0" encoding="UTF-8" standalone="no"?><!DOCTYPE svg PUBLIC "-//W3C//DTD SVG 1.1//EN" "http://www.w3.org/Graphics/SVG/1.1/DTD/svg11.dtd"><svg width="100%" height="100%" viewBox="0 0 1327 473" version="1.1" xmlns="http://www.w3.org/2000/svg" xmlns:xlink="http://www.w3.org/1999/xlink" xml:space="preserve" xmlns:serif="http://www.serif.com/" style="fill-rule:evenodd;clip-rule:evenodd;stroke-linejoin:round;stroke-miterlimit:2;"><g><path d="M384.042,217.792l-0,-65.542l-0.042,0c-0.583,-17.417 -11.542,-28.667 -28.917,-31.458l0,65.541l0.042,0c0.583,17.417 11.542,28.667 28.917,31.459Z" style="fill:#fff;fill-rule:nonzero;stroke:#fff;stroke-width:4.17px;"/><path d="M354.833,273.833l-0.041,0l-0,77.792c17.375,-2.792 28.333,-14.042 28.916,-31.417l0.042,0l0,-77.791c-17.375,2.791 -28.333,14.041 -28.917,31.416Z" style="fill:#fff;fill-rule:nonzero;stroke:#fff;stroke-width:4.17px;"/><path d="M499.75,320.125l0.042,0c0.583,17.417 11.541,28.667 28.916,31.458l0,-77.708l-0.041,0c-0.584,-17.417 -11.542,-28.667 -28.917,-31.458l0,77.708Z" style="fill:#fff;fill-rule:nonzero;stroke:#fff;stroke-width:4.17px;"/><path d="M499.833,152.208l-0.041,0l-0,65.625c-3,0.334 -6,0.667 -8.959,0.667l-98.083,0c-3,0 -6.292,-0.333 -8.958,-0.667c6.125,0.75 10.916,5.959 10.916,12.292c0,6.333 -4.75,11.542 -10.916,12.292c2.666,-0.292 6,-0.625 8.958,-0.625l98.083,-0c3,-0 5.959,0.333 8.959,0.666c-6.375,-0.5 -11.375,-5.791 -11.375,-12.291c-0,-6.5 5.041,-11.792 11.375,-12.25c17.375,-2.792 28.333,-14.042 28.916,-31.417l0.042,0l0,-65.667c-17.375,2.792 -28.333,14.042 -28.917,31.417l0,-0.042Z" style="fill:#fff;fill-rule:nonzero;stroke:#fff;stroke-width:4.17px;"/><path d="M899.75,143.292l-3.958,-12.584c-0,0 -0.042,-0.125 -0.084,-0.166c-0.791,-2.584 -2.041,-4.959 -3.75,-6.917l-0.041,0c-0.459,-0.583 -1,-1.083 -1.542,-1.583c-0.125,-0.125 -0.25,-0.25 -0.375,-0.334c-2.792,-2.25 -6.417,-3.666 -10.917,-3.666c-5.75,-0 -9.666,2 -12.458,5.291c-0.458,0.5 -0.833,1.042 -1.208,1.625c-0.042,0.084 -0.125,0.167 -0.167,0.25c-0.417,0.667 -0.792,1.334 -1.167,2.084c-0.041,0.125 -0.125,0.208 -0.166,0.333c-0.25,0.5 -0.459,1 -0.667,1.5c-0.125,0.333 -0.292,0.625 -0.417,1c-0.125,0.375 -0.166,0.417 -0.25,0.625l-3.958,12.583c6.125,-1.375 12.958,-2.166 20.542,-2.166c7.583,-0 14.416,0.833 20.541,2.166l0.042,-0.041Z" style="fill:#fff;fill-rule:nonzero;stroke:#fff;stroke-width:4.17px;"/><path d="M942.375,208.625c0,0 -6.125,-21.042 -9.333,-35c-3.959,-17.167 -19.667,-27.25 -33.25,-30.375l23.5,98.25c12,-5.333 22.708,-19.833 19.125,-32.917l-0.042,0.042Z" style="fill:#fff;fill-rule:nonzero;stroke:#fff;stroke-width:4.17px;"/><path d="M965.125,291.708l-0.208,-0.208l-0.375,-1.542c-5.167,-18.916 -18.334,-28.041 -35.792,-26l-0.625,0c-6.542,0 -11.958,-5.125 -11.958,-11.666c-0,-4.792 2.875,-8.917 6.958,-10.792l0.125,-0l-0.083,-0.375c-1.667,0.417 -5.584,0.292 -8,0.292c-0,-0 -56.459,0.583 -74.209,0.083c-1.958,-0.042 -4.166,0.042 -5.625,-0.292l23.417,-97.958c-13.583,3.083 -29.292,13.208 -33.25,30.375c-3.208,13.958 -9.333,35 -9.333,35c-3.584,13 6.958,27.375 18.833,32.792c4.042,1.875 6.833,5.958 6.833,10.708c0,6.542 -5.291,11.833 -11.833,11.833l-0.708,0c-16.584,-1.625 -29.375,7.042 -33.75,24.459l-1.959,7.041l-15.375,55.875c17.5,2.125 30.709,-7.041 35.917,-26l0.375,-1.541l0.167,-0.167l14.583,-59.25c2.167,-0.333 4.833,-0.583 7.25,-0.583l84.583,-0c2.417,-0 5.334,0.25 7.75,0.583l15.25,55.5l1.959,7.042c4.416,17.416 17.166,26.041 33.791,24.416l-14.708,-59.625Z" style="fill:#fff;fill-rule:nonzero;stroke:#fff;stroke-width:4.17px;"/><path d="M278.167,153.083c-1.042,-2.375 -16.292,-34.916 -55.875,-34.916c-39.959,-0 -55.417,34.166 -55.792,35.041c-1.5,0.75 -48.417,24.209 -48.417,83.459c0,60.625 47.667,82.375 48.459,82.708c1.083,2.375 16.75,34.917 55.75,34.917c38.875,-0 54.25,-31.375 55.791,-34.75c24.75,-11.5 36.5,-31.209 36.5,-56.334l0,-21.333l-74.666,0c-13.167,0 -23.792,9.458 -23.792,22.25l71.042,0l-0,11.208c-0,16.125 -2.834,31.292 -9.084,43.959c-61.75,21.041 -110,0.625 -111.541,-0c-31.459,-92.209 -0.75,-164.209 -0,-166.042c1.5,-0.667 49.833,-21.125 111.666,-0c5.625,11.958 3.584,15 4.875,25.667c2.25,18.833 17.917,26.416 32.625,26.416l4.459,-0.125c-0,0 0.75,-13.208 -4.917,-23.708c-7.458,-13.833 -23.292,-23 -37.042,-28.417l-0.041,0Z" style="fill:#fff;fill-rule:nonzero;stroke:#fff;stroke-width:4.17px;"/><path d="M722.708,153.083c-1.041,-2.375 -16.291,-34.916 -55.875,-34.916c-39.958,-0 -55.416,34.166 -55.791,35.041c-1.5,0.75 -48.417,24.209 -48.417,83.459c0,60.625 47.667,82.375 48.458,82.708c1.084,2.375 16.75,34.917 55.75,34.917c38.875,-0 54.25,-31.375 55.792,-34.75c24.75,-11.5 36.5,-31.209 36.5,-56.334l-0,-21.333l-74.667,0c-13.166,0 -23.791,9.458 -23.791,22.25l71.041,0l0,11.208c0,16.125 -2.833,31.292 -9.083,43.959c-61.75,21.041 -110,0.625 -111.542,-0c-31.458,-92.209 -0.75,-164.209 0,-166.042c1.5,-0.667 49.834,-21.125 111.667,-0c5.625,11.958 3.583,15 4.875,25.667c2.25,18.833 17.917,26.416 32.625,26.416l4.458,-0.125c0,0 0.75,-13.208 -4.916,-23.708c-7.459,-13.833 -23.292,-23 -37.042,-28.417l-0.042,0Z" style="fill:#fff;fill-rule:nonzero;stroke:#fff;stroke-width:4.17px;"/></g><g><g><path d="M1021.62,191.542l5.208,-0l0,13l4.834,-0l-0,-13l5.375,-0l-0,-4.167l-15.417,0l0,4.167Z" style="fill:#fff;fill-rule:nonzero;stroke:#fff;stroke-width:4.17px;"/><path d="M1060.83,193.833l-5.541,0l-0,-6.458l-4.834,0l0,17.167l4.834,-0l-0,-6.459l5.541,0l0,6.459l4.875,-0l0,-17.167l-4.875,0l0,6.458Z" style="fill:#fff;fill-rule:nonzero;stroke:#fff;stroke-width:4.17px;"/><path d="M1085.04,200.542l-0,-2.834l6.875,0l-0,-3.75l-6.875,0l-0,-2.583l7.833,0l0,-4l-12.458,0l-0,17.167l12.833,-0l0,-4l-8.208,-0Z" style="fill:#fff;fill-rule:nonzero;stroke:#fff;stroke-width:4.17px;"/></g><g><path d="M1032.08,252.542l-5.541,-0l-0,-6.5l-4.834,-0l0,17.166l4.834,0l-0,-6.416l5.541,-0l0,6.416l4.875,0l0,-17.166l-4.875,-0l0,6.5Z" style="fill:#fff;fill-rule:nonzero;stroke:#fff;stroke-width:4.17px;"/><path d="M1060.83,256.417c0,0.541 -0.125,1 -0.375,1.416c-0.25,0.417 -0.583,0.75 -1,1c-0.416,0.25 -0.875,0.375 -1.416,0.375c-0.5,0 -0.917,-0.125 -1.334,-0.375c-0.416,-0.25 -0.708,-0.583 -0.958,-1c-0.208,-0.416 -0.333,-0.875 -0.333,-1.416l-0,-10.334l-4.917,0l0,10.542c0,1.292 0.333,2.458 0.958,3.5c0.625,1 1.542,1.792 2.667,2.375c1.125,0.583 2.417,0.875 3.875,0.875c1.458,0 2.75,-0.292 3.875,-0.875c1.125,-0.583 2,-1.375 2.667,-2.375c0.625,-1 0.958,-2.167 0.958,-3.5l-0,-10.542l-4.75,0l0,10.334l0.083,-0Z" style="fill:#fff;fill-rule:nonzero;stroke:#fff;stroke-width:4.17px;"/><path d="M1086.88,253.542l-4.583,-7.5l-4.25,-0l-0,17.166l4.666,0l0,-4.583c0,-1.583 0,-2.958 -0.125,-4.083c0,-0.167 0,-0.375 -0.041,-0.542l3.416,5.417l1.625,-0l3.542,-5.459c0,0.25 -0.042,0.5 -0.083,0.75c-0.084,1.167 -0.125,2.5 -0.125,3.959l-0,4.583l4.666,0l0,-17.167l-4.083,0l-4.667,7.5l0.042,-0.041Z" style="fill:#fff;fill-rule:nonzero;stroke:#fff;stroke-width:4.17px;"/><path d="M1113.62,246.042l-6.833,17.166l4.708,0l1.042,-2.833l5.875,0l1.041,2.833l4.834,0l-6.792,-17.166l-3.917,-0l0.042,-0Zm0.208,10.875l0.625,-1.709c0.167,-0.458 0.334,-0.875 0.459,-1.25c0.125,-0.375 0.25,-0.75 0.375,-1.083c0.083,-0.25 0.166,-0.5 0.25,-0.75c0.083,0.25 0.166,0.5 0.25,0.75c0.125,0.375 0.25,0.708 0.375,1.083c0.125,0.375 0.291,0.792 0.458,1.209l0.625,1.708l-3.375,-0l-0.042,0.042Z" style="fill:#fff;fill-rule:nonzero;stroke:#fff;stroke-width:4.17px;"/><path d="M1147.58,246.042l0,6.833c0,0.458 0.042,0.875 0.084,1.333c-0,0.459 0.083,0.917 0.166,1.375l0,0.25l-7.125,-9.791l-4.333,-0l0,17.166l4.667,0l-0,-6.5c-0,-0.416 -0,-0.791 -0.042,-1.166c0,-0.375 -0.042,-0.75 -0.083,-1.125c-0,-0.25 -0.042,-0.542 -0.084,-0.792l7,9.583l4.375,0l0,-17.166l-4.666,-0l0.041,-0Z" style="fill:#fff;fill-rule:nonzero;stroke:#fff;stroke-width:4.17px;"/></g><g><path d="M1037.92,224.833c-0,-0.375 -0.042,-0.625 -0.042,-0.833l-8.292,0l0,3.542l3.834,-0c-0,0.291 -0.084,0.541 -0.209,0.791c-0.166,0.334 -0.375,0.667 -0.666,0.917c-0.292,0.25 -0.625,0.458 -1,0.583c-0.375,0.167 -0.834,0.209 -1.292,0.209c-0.667,-0 -1.25,-0.125 -1.833,-0.375c-0.584,-0.25 -1.042,-0.584 -1.459,-1c-0.416,-0.417 -0.708,-0.917 -0.958,-1.5c-0.208,-0.584 -0.333,-1.209 -0.333,-1.875c-0,-0.667 0.125,-1.334 0.333,-1.917c0.208,-0.583 0.542,-1.083 0.917,-1.5c0.375,-0.417 0.833,-0.75 1.375,-1c0.541,-0.25 1.125,-0.375 1.75,-0.375c0.583,-0 1.083,0.083 1.541,0.208c0.459,0.167 0.917,0.334 1.292,0.584c0.417,0.25 0.792,0.541 1.125,0.875l2.875,-3.084c-0.5,-0.541 -1.083,-1 -1.75,-1.416c-0.667,-0.417 -1.458,-0.75 -2.333,-1c-0.875,-0.25 -1.75,-0.375 -2.75,-0.375c-1.417,-0 -2.667,0.208 -3.834,0.666c-1.166,0.459 -2.166,1.042 -3,1.875c-0.833,0.792 -1.5,1.75 -1.958,2.834c-0.458,1.083 -0.667,2.291 -0.667,3.583c0,1.292 0.209,2.458 0.625,3.542c0.417,1.083 1,2.041 1.792,2.833c0.792,0.792 1.75,1.417 2.875,1.875c1.125,0.458 2.417,0.667 3.833,0.667c1.209,-0 2.292,-0.209 3.292,-0.584c1,-0.375 1.875,-0.916 2.583,-1.583c0.75,-0.667 1.292,-1.458 1.709,-2.417c0.416,-0.916 0.625,-1.958 0.625,-3.041l-0,-0.75c-0,-0.375 -0,-0.709 -0.042,-1.084l0.042,0.125Z" style="fill:#fff;fill-rule:nonzero;stroke:#fff;stroke-width:4.17px;"/><path d="M1056.33,227.208l6.834,0l-0,-3.791l-6.834,-0l0,-2.584l7.792,0l0,-4l-12.458,0l-0,17.167l12.833,0l0,-4l-8.167,0l0,-2.792Z" style="fill:#fff;fill-rule:nonzero;stroke:#fff;stroke-width:4.17px;"/><path d="M1090.54,227.417c0.916,-0.5 1.625,-1.209 2.125,-2.084c0.5,-0.875 0.791,-1.875 0.791,-3.041c0,-1.042 -0.25,-2 -0.791,-2.834c-0.5,-0.833 -1.25,-1.458 -2.125,-1.916c-0.917,-0.459 -1.959,-0.709 -3.125,-0.709l-7.917,0l0,17.167l4.542,0l-0,-5.833l1.333,-0l3.292,5.833l5.458,0l-3.792,-6.5c0,0 0.084,-0.042 0.167,-0.083l0.042,-0Zm-6.5,-6.667l2.541,0c0.459,0 0.875,0.083 1.209,0.25c0.333,0.167 0.541,0.375 0.708,0.667c0.167,0.291 0.25,0.625 0.25,1c0,0.375 -0.083,0.75 -0.25,1.083c-0.167,0.292 -0.375,0.542 -0.667,0.708c-0.291,0.167 -0.625,0.25 -1.083,0.25l-2.708,0l-0,-3.958Z" style="fill:#fff;fill-rule:nonzero;stroke:#fff;stroke-width:4.17px;"/><path d="M1115.62,224.333l-4.583,-7.5l-4.25,0l-0,17.167l4.666,0l0,-4.583c0,-1.584 0,-2.959 -0.125,-4.084c0,-0.166 0,-0.375 -0.041,-0.541l3.416,5.416l1.625,0l3.542,-5.458c0,0.25 -0.042,0.5 -0.083,0.75c-0.084,1.167 -0.125,2.5 -0.125,3.958l-0,4.584l4.666,-0l0,-17.167l-4.083,0l-4.667,7.5l0.042,-0.042Z" style="fill:#fff;fill-rule:nonzero;stroke:#fff;stroke-width:4.17px;"/><path d="M1142.38,216.833l-6.833,17.167l4.708,0l1.042,-2.833l5.875,-0l1.041,2.833l4.834,0l-6.792,-17.167l-3.917,0l0.042,0Zm0.208,10.875l0.625,-1.708c0.167,-0.458 0.334,-0.875 0.459,-1.25c0.125,-0.375 0.25,-0.75 0.375,-1.083c0.083,-0.25 0.166,-0.5 0.25,-0.75c0.083,0.25 0.166,0.5 0.25,0.75c0.125,0.375 0.25,0.708 0.375,1.083c0.125,0.375 0.291,0.792 0.458,1.208l0.625,1.709l-3.375,-0l-0.042,0.041Z" style="fill:#fff;fill-rule:nonzero;stroke:#fff;stroke-width:4.17px;"/><path d="M1176.33,216.833l0,6.834c0,0.458 0.042,0.875 0.084,1.333c-0,0.458 0.083,0.917 0.166,1.375l0,0.25l-7.125,-9.792l-4.333,0l0,17.167l4.667,0l-0,-6.5c-0,-0.417 -0,-0.792 -0.042,-1.167c0,-0.375 -0.042,-0.75 -0.083,-1.125c-0,-0.25 -0.042,-0.541 -0.084,-0.791l7,9.583l4.375,-0l0,-17.167l-4.666,0l0.041,0Z" style="fill:#fff;fill-rule:nonzero;stroke:#fff;stroke-width:4.17px;"/></g><g><path d="M1037.92,283.583c-0,-0.375 -0.042,-0.625 -0.042,-0.833l-8.292,0l0,3.542l3.834,-0c-0,0.291 -0.084,0.541 -0.209,0.791c-0.166,0.334 -0.375,0.667 -0.666,0.917c-0.292,0.25 -0.625,0.458 -1,0.583c-0.375,0.125 -0.834,0.209 -1.292,0.209c-0.667,-0 -1.25,-0.125 -1.833,-0.375c-0.584,-0.25 -1.042,-0.584 -1.459,-1c-0.416,-0.417 -0.708,-0.917 -0.958,-1.5c-0.208,-0.584 -0.333,-1.209 -0.333,-1.875c-0,-0.667 0.125,-1.334 0.333,-1.917c0.208,-0.583 0.542,-1.083 0.917,-1.5c0.375,-0.417 0.833,-0.75 1.375,-1c0.541,-0.25 1.125,-0.375 1.75,-0.375c0.583,0 1.083,0.083 1.541,0.208c0.459,0.167 0.917,0.334 1.292,0.584c0.417,0.25 0.792,0.541 1.125,0.875l2.875,-3.084c-0.5,-0.541 -1.083,-1 -1.75,-1.416c-0.667,-0.417 -1.458,-0.75 -2.333,-1c-0.875,-0.25 -1.75,-0.375 -2.75,-0.375c-1.417,-0 -2.667,0.208 -3.834,0.666c-1.166,0.459 -2.166,1.042 -3,1.875c-0.833,0.792 -1.5,1.75 -1.958,2.834c-0.458,1.083 -0.667,2.291 -0.667,3.583c0,1.292 0.209,2.458 0.625,3.542c0.417,1.083 1,2.041 1.792,2.833c0.792,0.792 1.75,1.417 2.875,1.875c1.125,0.458 2.417,0.667 3.833,0.667c1.209,-0 2.292,-0.209 3.292,-0.584c1,-0.375 1.875,-0.916 2.583,-1.583c0.75,-0.667 1.292,-1.458 1.709,-2.417c0.416,-0.916 0.625,-1.958 0.625,-3.041l-0,-0.75c-0,-0.375 -0,-0.709 -0.042,-1.084l0.042,0.125Z" style="fill:#fff;fill-rule:nonzero;stroke:#fff;stroke-width:4.17px;"/><path d="M1056.33,285.958l6.834,0l-0,-3.791l-6.834,-0l0,-2.542l7.792,-0l0,-4l-12.458,0l-0,17.125l12.833,0l0,-3.958l-8.167,-0l0,-2.834Z" style="fill:#fff;fill-rule:nonzero;stroke:#fff;stroke-width:4.17px;"/><path d="M1090.08,279.208l0,3.209c0,0.458 0.042,0.875 0.084,1.333c-0,0.458 0.083,0.917 0.166,1.375l0,0.25l-7.125,-9.792l-4.333,0l0,17.167l4.667,-0l-0,-6.5c-0,-0.417 -0,-0.792 -0.042,-1.167c0,-0.375 -0.042,-0.75 -0.083,-1.125c-0,-0.25 -0.042,-0.541 -0.084,-0.791l7,9.583l4.375,-0l0,-17.167l-4.666,0l-0,3.584l0.041,0.041Z" style="fill:#fff;fill-rule:nonzero;stroke:#fff;stroke-width:4.17px;"/><path d="M1122.12,277.708c-0.833,-0.791 -1.792,-1.416 -2.875,-1.875c-1.083,-0.458 -2.333,-0.666 -3.625,-0.666c-1.292,-0 -2.542,0.208 -3.667,0.666c-1.125,0.459 -2.083,1.042 -2.875,1.875c-0.833,0.792 -1.458,1.75 -1.916,2.834c-0.459,1.083 -0.667,2.25 -0.667,3.583c-0,1.333 0.208,2.458 0.667,3.583c0.458,1.084 1.083,2.042 1.916,2.834c0.834,0.791 1.792,1.416 2.875,1.875c1.125,0.458 2.334,0.666 3.667,0.666c1.333,0 2.542,-0.208 3.625,-0.666c1.083,-0.459 2.083,-1.042 2.875,-1.875c0.833,-0.792 1.458,-1.75 1.917,-2.834c0.458,-1.083 0.666,-2.291 0.666,-3.583c0,-1.292 -0.208,-2.458 -0.666,-3.542c-0.459,-1.083 -1.084,-2 -1.917,-2.833l0,-0.042Zm-2.708,8.167c-0.209,0.542 -0.5,1 -0.875,1.417c-0.375,0.416 -0.834,0.708 -1.334,0.916c-0.5,0.209 -1.041,0.334 -1.625,0.334c-0.583,-0 -1.166,-0.125 -1.666,-0.334c-0.5,-0.208 -0.959,-0.5 -1.334,-0.916c-0.375,-0.417 -0.666,-0.875 -0.875,-1.417c-0.208,-0.542 -0.291,-1.125 -0.291,-1.75c-0,-0.625 0.083,-1.25 0.291,-1.792c0.209,-0.541 0.5,-1 0.875,-1.416c0.375,-0.417 0.834,-0.709 1.334,-0.917c0.5,-0.208 1.041,-0.333 1.666,-0.333c0.625,-0 1.125,0.125 1.625,0.333c0.5,0.208 0.959,0.5 1.334,0.917c0.375,0.416 0.666,0.875 0.875,1.416c0.208,0.542 0.291,1.125 0.291,1.75c0,0.625 -0.083,1.209 -0.291,1.75l-0,0.042Z" style="fill:#fff;fill-rule:nonzero;stroke:#fff;stroke-width:4.17px;"/><path d="M1144.38,283.083l-4.583,-7.5l-4.25,0l-0,17.167l4.666,0l0,-4.583c0,-1.584 0,-2.959 -0.125,-4.084c0,-0.166 0,-0.375 -0.041,-0.541l3.416,5.416l1.625,0l3.542,-5.458c0,0.25 -0.042,0.5 -0.083,0.75c-0.084,1.167 -0.125,2.5 -0.125,3.958l-0,4.584l4.666,-0l0,-17.167l-4.083,0l-4.667,7.5l0.042,-0.042Z" style="fill:#fff;fill-rule:nonzero;stroke:#fff;stroke-width:4.17px;"/><path d="M1171.29,285.958l6.833,0l0,-3.791l-6.833,-0l-0,-2.542l7.833,-0l0,-4l-12.458,0l-0,17.125l12.833,0l0,-3.958l-8.208,-0l-0,-2.834Z" style="fill:#fff;fill-rule:nonzero;stroke:#fff;stroke-width:4.17px;"/><rect x="1196.12" y="283.667" width="9.083" height="4.083" style="fill:#fff;stroke:#fff;stroke-width:4.17px;"/></g><g><path d="M1033.21,305.75c-0.875,-0.5 -1.916,-0.75 -3.041,-0.75l-7.584,0l0,17.167l4.834,-0l-0,-5.334l2.75,0c1.125,0 2.125,-0.25 3.041,-0.791c0.875,-0.542 1.584,-1.25 2.125,-2.125c0.5,-0.917 0.792,-1.959 0.792,-3.084c0,-1.125 -0.25,-2.125 -0.792,-3c-0.5,-0.875 -1.208,-1.541 -2.125,-2.041l0,-0.042Zm-2.333,6.083c-0.167,0.25 -0.375,0.459 -0.625,0.584c-0.25,0.125 -0.583,0.208 -0.917,0.208l-2,-0l0,-3.417l2,0c0.334,0 0.625,0.042 0.917,0.167c0.25,0.125 0.458,0.292 0.625,0.542c0.167,0.25 0.25,0.541 0.25,0.916c0,0.375 -0.083,0.709 -0.25,0.959l0,0.041Z" style="fill:#fff;fill-rule:nonzero;stroke:#fff;stroke-width:4.17px;"/><path d="M1060.83,311.458l-5.541,0l-0,-6.458l-4.834,0l0,17.167l4.834,-0l-0,-6.459l5.541,0l0,6.459l4.875,-0l0,-17.167l-4.875,0l0,6.458Z" style="fill:#fff;fill-rule:nonzero;stroke:#fff;stroke-width:4.17px;"/><path d="M1085.04,315.333l6.875,0l-0,-3.75l-6.875,0l-0,-2.583l7.833,0l0,-4l-12.458,0l-0,17.167l12.833,-0l0,-4l-8.208,-0l-0,-2.834Z" style="fill:#fff;fill-rule:nonzero;stroke:#fff;stroke-width:4.17px;"/><path d="M1118.83,308.583l0,3.209c0,0.458 0.042,0.875 0.084,1.333c-0,0.458 0.083,0.917 0.166,1.375l0,0.25l-7.125,-9.792l-4.333,0l0,17.167l4.667,-0l-0,-6.5c-0,-0.417 -0,-0.792 -0.042,-1.167c0,-0.375 -0.042,-0.75 -0.083,-1.125c-0,-0.25 -0.042,-0.541 -0.084,-0.791l7,9.583l4.375,-0l0,-17.167l-4.666,0l-0,3.584l0.041,0.041Z" style="fill:#fff;fill-rule:nonzero;stroke:#fff;stroke-width:4.17px;"/><path d="M1150.88,307.083c-0.833,-0.791 -1.792,-1.416 -2.875,-1.875c-1.083,-0.458 -2.333,-0.666 -3.625,-0.666c-1.292,-0 -2.542,0.208 -3.667,0.666c-1.125,0.459 -2.083,1.042 -2.875,1.875c-0.833,0.792 -1.458,1.75 -1.916,2.834c-0.459,1.083 -0.667,2.25 -0.667,3.583c-0,1.333 0.208,2.458 0.667,3.583c0.458,1.084 1.083,2.042 1.916,2.834c0.834,0.791 1.792,1.416 2.875,1.875c1.125,0.458 2.334,0.666 3.667,0.666c1.333,0 2.542,-0.208 3.625,-0.666c1.083,-0.459 2.083,-1.042 2.875,-1.875c0.833,-0.792 1.458,-1.75 1.917,-2.834c0.458,-1.083 0.666,-2.291 0.666,-3.583c0,-1.292 -0.208,-2.458 -0.666,-3.542c-0.459,-1.083 -1.084,-2 -1.917,-2.833l0,-0.042Zm-2.708,8.167c-0.209,0.542 -0.5,1 -0.875,1.417c-0.375,0.416 -0.834,0.708 -1.334,0.916c-0.5,0.209 -1.041,0.334 -1.625,0.334c-0.583,-0 -1.166,-0.125 -1.666,-0.334c-0.5,-0.208 -0.959,-0.5 -1.334,-0.916c-0.375,-0.417 -0.666,-0.875 -0.875,-1.417c-0.208,-0.542 -0.291,-1.125 -0.291,-1.75c-0,-0.625 0.083,-1.25 0.291,-1.792c0.209,-0.541 0.5,-1 0.875,-1.416c0.375,-0.417 0.834,-0.709 1.334,-0.917c0.5,-0.208 1.041,-0.333 1.666,-0.333c0.625,-0 1.125,0.125 1.625,0.333c0.5,0.208 0.959,0.5 1.334,0.917c0.375,0.416 0.666,0.875 0.875,1.416c0.208,0.542 0.291,1.125 0.291,1.75c0,0.625 -0.083,1.209 -0.291,1.75l-0,0.042Z" style="fill:#fff;fill-rule:nonzero;stroke:#fff;stroke-width:4.17px;"/><path d="M1173.12,312.5l-4.583,-7.5l-4.25,0l-0,17.167l4.666,-0l0,-4.584c0,-1.583 0,-2.958 -0.125,-4.083c0,-0.167 0,-0.375 -0.041,-0.542l3.416,5.417l1.625,0l3.542,-5.458c0,0.25 -0.042,0.5 -0.083,0.75c-0.084,1.166 -0.125,2.5 -0.125,3.958l-0,4.583l4.666,0l0,-17.166l-4.083,-0l-4.667,7.5l0.042,-0.042Z" style="fill:#fff;fill-rule:nonzero;stroke:#fff;stroke-width:4.17px;"/><path d="M1200.04,318.167l-0,-2.834l6.833,0l0,-3.75l-6.833,0l-0,-2.583l7.833,0l0,-4l-12.458,0l-0,17.167l12.833,-0l0,-4l-8.208,-0Z" style="fill:#fff;fill-rule:nonzero;stroke:#fff;stroke-width:4.17px;"/></g><g><path d="M1027.38,334.375l-6.833,17.167l4.708,-0l1.042,-2.834l5.875,0l1.041,2.834l4.834,-0l-6.792,-17.167l-3.917,0l0.042,0Zm0.208,10.875l0.625,-1.708c0.167,-0.459 0.334,-0.875 0.459,-1.25c0.125,-0.375 0.25,-0.75 0.375,-1.084c0.083,-0.25 0.166,-0.5 0.25,-0.75c0.083,0.25 0.166,0.5 0.25,0.75c0.125,0.375 0.25,0.709 0.375,1.084c0.125,0.375 0.291,0.791 0.458,1.208l0.625,1.708l-3.375,0l-0.042,0.042Z" style="fill:#fff;fill-rule:nonzero;stroke:#fff;stroke-width:4.17px;"/><path d="M1061.79,344.958c0.916,-0.5 1.625,-1.208 2.125,-2.083c0.5,-0.875 0.791,-1.875 0.791,-3.042c0,-1.041 -0.25,-2 -0.791,-2.833c-0.5,-0.833 -1.25,-1.458 -2.125,-1.917c-0.917,-0.458 -1.959,-0.708 -3.125,-0.708l-7.917,0l0,17.167l4.542,-0l-0,-5.834l1.333,0l3.292,5.834l5.458,-0l-3.792,-6.5c0,-0 0.084,-0.042 0.167,-0.084l0.042,0Zm-6.5,-6.666l2.541,-0c0.459,-0 0.875,0.083 1.209,0.25c0.333,0.166 0.541,0.375 0.708,0.666c0.167,0.292 0.25,0.625 0.25,1c0,0.375 -0.083,0.75 -0.25,1.084c-0.167,0.291 -0.375,0.541 -0.667,0.708c-0.291,0.167 -0.625,0.25 -1.083,0.25l-2.708,0l-0,-3.958Z" style="fill:#fff;fill-rule:nonzero;stroke:#fff;stroke-width:4.17px;"/><path d="M1085.17,339.583c0.375,-0.375 0.833,-0.708 1.375,-0.875c0.541,-0.208 1.083,-0.291 1.708,-0.291c0.542,-0 1,0.083 1.417,0.208c0.416,0.125 0.833,0.333 1.166,0.583c0.334,0.25 0.667,0.542 0.917,0.834l2.917,-3.375c-0.542,-0.584 -1.167,-1.084 -1.834,-1.459c-0.666,-0.375 -1.416,-0.708 -2.208,-0.875c-0.792,-0.208 -1.583,-0.291 -2.375,-0.291c-1.375,-0 -2.625,0.208 -3.75,0.666c-1.125,0.459 -2.125,1.042 -2.958,1.875c-0.834,0.792 -1.5,1.75 -1.959,2.834c-0.458,1.083 -0.708,2.291 -0.708,3.583c0,1.292 0.208,2.5 0.667,3.583c0.458,1.084 1.083,2.042 1.916,2.834c0.834,0.791 1.792,1.416 2.917,1.833c1.125,0.458 2.375,0.667 3.708,0.667c0.834,-0 1.709,-0.084 2.542,-0.292c0.833,-0.208 1.625,-0.5 2.292,-0.833c0.708,-0.375 1.25,-0.75 1.666,-1.209l-2.291,-3.666c-0.292,0.291 -0.625,0.583 -1,0.791c-0.375,0.25 -0.792,0.459 -1.25,0.584c-0.459,0.166 -0.917,0.208 -1.417,0.208c-0.708,0 -1.375,-0.125 -1.958,-0.333c-0.584,-0.209 -1.084,-0.5 -1.5,-0.875c-0.417,-0.375 -0.75,-0.834 -0.959,-1.417c-0.208,-0.542 -0.333,-1.167 -0.333,-1.833c0,-0.667 0.125,-1.375 0.333,-1.917c0.209,-0.542 0.542,-1.042 0.917,-1.417l0.042,-0.125Z" style="fill:#fff;fill-rule:nonzero;stroke:#fff;stroke-width:4.17px;"/><path d="M1118.33,340.833l-5.541,0l-0,-6.458l-4.834,0l0,17.167l4.834,-0l-0,-6.417l5.541,-0l0,6.417l4.875,-0l0,-17.167l-4.875,0l0,6.458Z" style="fill:#fff;fill-rule:nonzero;stroke:#fff;stroke-width:4.17px;"/><path d="M1138.92,338.333l3,0l-0,9.209l-3,-0l-0,4l10.791,-0l0,-4l-2.958,-0l0,-9.209l2.958,0l0,-3.958l-10.791,0l-0,3.958Z" style="fill:#fff;fill-rule:nonzero;stroke:#fff;stroke-width:4.17px;"/><path d="M1174.17,342.375c-0.25,0.667 -0.459,1.208 -0.584,1.667c-0.166,0.458 -0.291,0.875 -0.416,1.333c-0.084,-0.208 -0.125,-0.458 -0.209,-0.667c-0.083,-0.333 -0.208,-0.666 -0.333,-1.041c-0.125,-0.375 -0.292,-0.792 -0.5,-1.292l-2.958,-8l-4.917,-0l6.833,17.167l3.875,-0l6.875,-17.167l-4.791,0l-2.917,8l0.042,0Z" style="fill:#fff;fill-rule:nonzero;stroke:#fff;stroke-width:4.17px;"/><path d="M1200.04,347.542l-0,-2.834l6.833,0l0,-3.75l-6.833,0l-0,-2.583l7.833,0l0,-4l-12.458,0l-0,17.167l12.833,-0l0,-4l-8.208,-0Z" style="fill:#fff;fill-rule:nonzero;stroke:#fff;stroke-width:4.17px;"/></g></g></svg>