<?xml version="1.0" encoding="utf-8"?>
<!-- Generator: Adobe Illustrator 22.0.0, SVG Export Plug-In . SVG Version: 6.00 Build 0)  -->
<svg version="1.1"
	 id="svg3719" inkscape:version="0.48.4 r9939" sodipodi:docname="New document 4" xmlns:cc="http://creativecommons.org/ns#" xmlns:dc="http://purl.org/dc/elements/1.1/" xmlns:inkscape="http://www.inkscape.org/namespaces/inkscape" xmlns:rdf="http://www.w3.org/1999/02/22-rdf-syntax-ns#" xmlns:sodipodi="http://sodipodi.sourceforge.net/DTD/sodipodi-0.dtd" xmlns:svg="http://www.w3.org/2000/svg"
	 xmlns="http://www.w3.org/2000/svg" xmlns:xlink="http://www.w3.org/1999/xlink" x="0px" y="0px" viewBox="0 0 181.8 92.5"
	 style="enable-background:new 0 0 181.8 92.5;" xml:space="preserve">
<style type="text/css">
	.st0{fill:#FFFFFF;}
</style>
<sodipodi:namedview  bordercolor="#666666" borderopacity="1.0" fit-margin-bottom="0" fit-margin-left="0" fit-margin-right="0" fit-margin-top="0" id="base" inkscape:current-layer="layer1" inkscape:cx="91.890112" inkscape:cy="49.367229" inkscape:document-units="px" inkscape:pageopacity="0.0" inkscape:pageshadow="2" inkscape:window-height="1003" inkscape:window-maximized="1" inkscape:window-width="1920" inkscape:window-x="-9" inkscape:window-y="-9" inkscape:zoom="7.0967392" pagecolor="#ffffff" showgrid="false">
	</sodipodi:namedview>
<g id="layer1" transform="translate(-346.61481,-563.03443)" inkscape:groupmode="layer" inkscape:label="Layer 1">
	<g id="g4276" transform="matrix(1.0708336,0,0,1.0708336,-24.551978,-46.437203)">
		<g id="g4221">
			<g>
				<polygon class="st0" points="385.9,591.3 387.7,594 387.7,594 388.8,593.3 389.3,589.6 386.4,590.2 				"/>
				<polygon class="st0" points="382.1,597.8 386.7,594.5 385.4,592.5 				"/>
				<path class="st0" d="M346.7,569.2v60.3c0.4-1.4,1.1-3,1.9-4.4c2.4-4,5.9-8,10.3-11.6c0.3-0.2,0.7-0.4,0.9-0.6
					c0.2-0.2,0.7-0.6,1-0.8c0.3-0.3,0.9-0.4,1.1-0.6c0.2-0.2,0.4-0.3,0.6-0.5c0.2-0.2,4-1.8,6.1-2c1.3-0.1,3.6,0.1,4.6,0.4
					c1,0.3,1.1,0.4,1.1,0.6c0,0.3-0.3,0.3-1.4,0.5c-0.6,0.1-1.7,0.2-2.7,1c-1.5,1-2.2,1.9-3.6,2.5c-0.4,0.2-1.6,1.4-3,2.2
					c-1.4,0.8-1.9,1.6-4,3.2c-3.4,2.5-6.6,5.9-8,7.5c-2.2,2.6-2.6,4.9-0.5,4.8c3.2-0.2,8.7-4.4,11-6.3c3.3-2.7,9.6-9.2,9.9-9.7
					c0.1-0.1,0.2-0.3,0.3-0.5c0.1-0.1,0.4-0.4,0.4-0.4c0.5-0.4,1.1-1,1.5-1.8c1.5-3,2.2-4.1,3.9-5.7c1.7-1.6,3.2-1.5,3.8-1.1
					c0.6,0.4,1,1.1,0.8,1.8c-0.2,0.7-1.7,1.6-2.1,2c-0.5,0.5-1.3,1.4-2,2c-0.6,1.1-1.1,1.6-2.1,2.3l-0.4,0.7c-1.1,1.8-2.1,3.6-3,7.5
					c-0.4,1.8-0.6,3.3-0.5,4.8c0.1,1.1,0.6,2.1,0.9,2.7c0.3,0.5,0.2,0.5,0.6,0.8c0.4,0.3,0.4,0.5,0.6,0.6c0.2,0.1,0.6,0.1,0.8,0.2
					c0.4,0.2,1.1,0.5,2.1,0.4c2.6-0.2,6.7-1.4,9.4-4c0.1-0.1,0.4-0.3,0.7,0c0.3,0.2,0.2,0.6,0,0.8c-4.4,4.7-9.2,6.4-12.8,6.5
					c-3.2,0.1-7-1.3-7.2-6.7c0-1.5,0-3.4,0.9-4.9c0.2-0.3,0-0.6-0.3-0.5c-0.6,0.2-9.1,9.9-15,11.9c-3.9,1.4-5.9,0.2-6.5-1v9h53.1
					v-74.1H346.7z M399.8,587.7c-0.4,0.5-9.5,6.4-9.5,6.4s-0.3,5.3-0.4,5.7c0,0.5-0.2,0.9-0.6,0.9c-0.3,0-1.1,0.1-1.3-0.9
					c-0.3-1-1-3.9-1-3.9s-4.8,3.6-5.4,3.9c-0.4,0.2-1,0.3-1.4,0c-0.4-0.3-0.5-0.9-0.3-1.4c0.2-0.3,4-6.7,4-6.7s-2.7-0.3-3.5-0.4
					c-0.8-0.1-1-0.6-1-1.1c0-0.5,0.3-1,1-1.1c0.4-0.1,5.4-0.7,5.4-0.7s3.8-7.7,3.9-7.8c0,0,0.3-0.8,1-0.8c0.7,0,1.1,0.4,1.1,0.9
					c0,0.5-0.9,6.8-0.9,6.8s7.4-1.9,8-1.9v0c0.4,0,0.8,0.1,1,0.4V587.7z"/>
				<polygon class="st0" points="389.4,588 390.1,583.2 387.3,588.4 				"/>
				<polygon class="st0" points="390.8,589.2 390.5,592.1 396.2,588 				"/>
			</g>
		</g>
	</g>
</g>
<g>
	<path class="st0" d="M70.2,54.1h3.7v4.6c-1.3,0.6-2.7,0.9-4,0.9c-1.8,0-3.3-0.5-4.3-1.6c-1.1-1.1-1.6-2.4-1.6-3.9
		c0-1.6,0.6-3,1.7-4.1c1.1-1.1,2.5-1.6,4.2-1.6c0.6,0,1.2,0.1,1.8,0.2c0.6,0.1,1.2,0.4,2.1,0.7v1.6c-1.3-0.8-2.6-1.1-3.9-1.1
		c-1.2,0-2.2,0.4-3,1.2c-0.8,0.8-1.2,1.8-1.2,3c0,1.2,0.4,2.3,1.2,3c0.8,0.8,1.9,1.2,3.2,1.2c0.6,0,1.4-0.1,2.2-0.4l0.1,0v-2.3h-2.1
		V54.1z"/>
	<path class="st0" d="M82.1,56H77c0,0.7,0.3,1.2,0.7,1.6c0.4,0.4,1,0.6,1.6,0.6c0.9,0,1.8-0.3,2.6-0.9v1.4c-0.4,0.3-0.9,0.5-1.3,0.6
		s-0.9,0.2-1.5,0.2c-0.8,0-1.4-0.2-1.9-0.5c-0.5-0.3-0.9-0.8-1.2-1.3c-0.3-0.6-0.4-1.2-0.4-1.9c0-1.1,0.3-2,0.9-2.7
		c0.6-0.7,1.4-1,2.4-1c1,0,1.7,0.3,2.3,1s0.9,1.6,0.9,2.7V56z M77.1,55.1h3.6c0-0.6-0.2-1-0.5-1.3s-0.7-0.5-1.2-0.5
		s-0.9,0.2-1.3,0.5C77.4,54.1,77.2,54.6,77.1,55.1z"/>
	<path class="st0" d="M85.1,52.3v0.9c0.6-0.7,1.4-1.1,2.2-1.1c0.4,0,0.9,0.1,1.2,0.3s0.7,0.5,0.9,1s0.3,1,0.3,1.9v4.1h-1.4v-4.1
		c0-0.7-0.1-1.3-0.3-1.6s-0.6-0.5-1.1-0.5c-0.7,0-1.2,0.3-1.7,1v5.1h-1.5v-7.2H85.1z"/>
	<path class="st0" d="M95.1,52.2c1.1,0,2,0.4,2.7,1.1s1.1,1.6,1.1,2.7c0,1-0.4,1.9-1.1,2.6s-1.7,1-2.8,1c-1.1,0-2-0.3-2.7-1
		s-1.1-1.6-1.1-2.6c0-1.1,0.4-1.9,1.1-2.6S94,52.2,95.1,52.2z M95,53.5c-0.7,0-1.2,0.2-1.7,0.7s-0.7,1-0.7,1.7
		c0,0.7,0.2,1.2,0.7,1.7s1,0.7,1.7,0.7c0.7,0,1.3-0.2,1.7-0.7s0.7-1,0.7-1.7c0-0.7-0.2-1.2-0.7-1.7S95.7,53.5,95,53.5z"/>
	<path class="st0" d="M106.4,54.2v5.2h-1.4v-4c0-0.8-0.1-1.4-0.3-1.7s-0.6-0.5-1.1-0.5c-0.3,0-0.6,0.1-0.8,0.2s-0.5,0.4-0.8,0.7v5.2
		h-1.4v-7.2h1.4v0.9c0.7-0.7,1.4-1.1,2.1-1.1c0.9,0,1.6,0.4,2.1,1.3c0.8-0.9,1.6-1.3,2.4-1.3c0.7,0,1.3,0.3,1.7,0.8s0.7,1.3,0.7,2.3
		v4.2h-1.4v-4.3c0-0.6-0.1-1.1-0.4-1.4s-0.6-0.5-1.1-0.5C107.4,53.3,106.9,53.6,106.4,54.2z"/>
	<path class="st0" d="M118.9,56h-5.1c0,0.7,0.3,1.2,0.7,1.6s1,0.6,1.6,0.6c0.9,0,1.8-0.3,2.6-0.9v1.4c-0.4,0.3-0.9,0.5-1.3,0.6
		s-0.9,0.2-1.5,0.2c-0.8,0-1.4-0.2-1.9-0.5s-0.9-0.8-1.2-1.3s-0.4-1.2-0.4-1.9c0-1.1,0.3-2,0.9-2.7s1.4-1,2.4-1c1,0,1.7,0.3,2.3,1
		s0.9,1.6,0.9,2.7V56z M113.9,55.1h3.6c0-0.6-0.2-1-0.5-1.3s-0.7-0.5-1.2-0.5s-0.9,0.2-1.3,0.5S114,54.6,113.9,55.1z"/>
	<path class="st0" d="M125.1,48.5h1.6v10.9h-1.6V48.5z"/>
	<path class="st0" d="M130.3,52.3v0.9c0.6-0.7,1.4-1.1,2.2-1.1c0.4,0,0.9,0.1,1.2,0.3s0.7,0.5,0.9,1s0.3,1,0.3,1.9v4.1h-1.4v-4.1
		c0-0.7-0.1-1.3-0.3-1.6s-0.6-0.5-1.1-0.5c-0.7,0-1.2,0.3-1.7,1v5.1h-1.5v-7.2H130.3z"/>
	<path class="st0" d="M136.6,58.9v-1.5c0.4,0.3,0.8,0.5,1.2,0.7s0.8,0.3,1.1,0.3c0.3,0,0.6-0.1,0.8-0.2s0.3-0.3,0.3-0.5
		c0-0.2-0.1-0.4-0.2-0.5s-0.4-0.3-0.9-0.6c-0.9-0.5-1.5-0.9-1.8-1.3s-0.4-0.8-0.4-1.2c0-0.6,0.2-1,0.6-1.4s1-0.5,1.7-0.5
		c0.7,0,1.4,0.2,2.2,0.6v1.4c-0.8-0.5-1.5-0.8-2.1-0.8c-0.3,0-0.5,0.1-0.7,0.2s-0.3,0.3-0.3,0.5c0,0.2,0.1,0.3,0.2,0.5
		c0.2,0.2,0.4,0.3,0.8,0.5l0.5,0.3c1.2,0.7,1.8,1.4,1.8,2.2c0,0.6-0.2,1.1-0.7,1.4c-0.5,0.4-1.1,0.6-1.8,0.6c-0.4,0-0.8,0-1.1-0.1
		S137.1,59.2,136.6,58.9z"/>
	<path class="st0" d="M142.1,53.4l2.7-2.6v1.5h2.3v1.3h-2.3v3.5c0,0.8,0.3,1.2,1,1.2c0.5,0,1-0.2,1.6-0.5v1.3
		c-0.5,0.3-1.1,0.5-1.8,0.5c-0.7,0-1.2-0.2-1.6-0.6c-0.1-0.1-0.2-0.2-0.3-0.4s-0.2-0.3-0.2-0.6s-0.1-0.7-0.1-1.3v-3.2h-1.2V53.4z"/>
	<path class="st0" d="M149.1,49.2c0.2,0,0.4,0.1,0.6,0.2s0.2,0.4,0.2,0.6c0,0.2-0.1,0.4-0.2,0.6s-0.4,0.2-0.6,0.2
		c-0.2,0-0.4-0.1-0.6-0.3s-0.2-0.4-0.2-0.6c0-0.2,0.1-0.4,0.2-0.6S148.9,49.2,149.1,49.2z M148.4,52.3h1.4v7.2h-1.4V52.3z"/>
	<path class="st0" d="M150.9,53.4l2.7-2.6v1.5h2.3v1.3h-2.3v3.5c0,0.8,0.3,1.2,1,1.2c0.5,0,1-0.2,1.6-0.5v1.3
		c-0.5,0.3-1.1,0.5-1.8,0.5c-0.7,0-1.2-0.2-1.6-0.6c-0.1-0.1-0.2-0.2-0.3-0.4s-0.2-0.3-0.2-0.6s-0.1-0.7-0.1-1.3v-3.2h-1.2V53.4z"/>
	<path class="st0" d="M161.8,59.5v-0.9c-0.3,0.3-0.6,0.6-1,0.8s-0.8,0.3-1.2,0.3c-0.5,0-0.9-0.1-1.3-0.3s-0.7-0.5-0.9-0.9
		s-0.3-1-0.3-1.9v-4.1h1.4v4.1c0,0.8,0.1,1.3,0.3,1.6c0.2,0.3,0.6,0.4,1.1,0.4c0.7,0,1.3-0.3,1.7-1v-5.1h1.4v7.2H161.8z"/>
	<path class="st0" d="M164.2,53.4l2.7-2.6v1.5h2.3v1.3h-2.3v3.5c0,0.8,0.3,1.2,1,1.2c0.5,0,1-0.2,1.6-0.5v1.3
		c-0.5,0.3-1.1,0.5-1.8,0.5c-0.7,0-1.2-0.2-1.6-0.6c-0.1-0.1-0.2-0.2-0.3-0.4s-0.2-0.3-0.2-0.6s-0.1-0.7-0.1-1.3v-3.2h-1.2V53.4z"/>
	<path class="st0" d="M176.7,56h-5.1c0,0.7,0.3,1.2,0.7,1.6s1,0.6,1.6,0.6c0.9,0,1.8-0.3,2.6-0.9v1.4c-0.4,0.3-0.9,0.5-1.3,0.6
		s-0.9,0.2-1.5,0.2c-0.8,0-1.4-0.2-1.9-0.5s-0.9-0.8-1.2-1.3s-0.4-1.2-0.4-1.9c0-1.1,0.3-2,0.9-2.7s1.4-1,2.4-1c1,0,1.7,0.3,2.3,1
		s0.9,1.6,0.9,2.7V56z M171.7,55.1h3.6c0-0.6-0.2-1-0.5-1.3s-0.7-0.5-1.2-0.5s-0.9,0.2-1.3,0.5S171.8,54.6,171.7,55.1z"/>
	<path class="st0" d="M67.6,71.4c1.1,0,2,0.4,2.7,1.1c0.7,0.7,1.1,1.6,1.1,2.7c0,1-0.4,1.9-1.1,2.6s-1.7,1-2.8,1c-1.1,0-2-0.3-2.7-1
		c-0.7-0.7-1.1-1.6-1.1-2.6c0-1.1,0.4-1.9,1.1-2.6C65.5,71.8,66.5,71.4,67.6,71.4z M67.5,72.7c-0.7,0-1.2,0.2-1.7,0.7
		s-0.7,1-0.7,1.7c0,0.7,0.2,1.2,0.7,1.7c0.4,0.4,1,0.7,1.7,0.7c0.7,0,1.3-0.2,1.7-0.7s0.7-1,0.7-1.7c0-0.7-0.2-1.2-0.7-1.7
		C68.8,73,68.2,72.7,67.5,72.7z"/>
	<path class="st0" d="M73.1,71.5V71c0-1.2,0.2-2,0.7-2.6s1.1-0.9,1.8-0.9c0.3,0,0.6,0,1.1,0.1v1.4C76.5,69,76.2,69,76,69
		c-0.6,0-0.9,0.1-1.2,0.4c-0.2,0.3-0.3,0.8-0.3,1.6v0.4h1.3v1.3h-1.3v5.9h-1.4v-5.9h-1v-1.3H73.1z"/>
	<path class="st0" d="M84.3,74.1l-1.2-0.7c-0.7-0.5-1.3-0.9-1.6-1.3S81,71.1,81,70.5c0-0.9,0.3-1.6,0.9-2.1s1.4-0.8,2.3-0.8
		c0.9,0,1.7,0.3,2.5,0.8v1.8C86,69.4,85.1,69,84.2,69c-0.5,0-0.9,0.1-1.3,0.4c-0.3,0.2-0.5,0.5-0.5,0.9c0,0.3,0.1,0.6,0.4,0.9
		c0.2,0.3,0.6,0.6,1.2,0.9l1.2,0.7c1.3,0.8,2,1.8,2,3c0,0.9-0.3,1.6-0.9,2.1S85,78.8,84,78.8c-1.1,0-2.1-0.3-2.9-1v-2
		c0.8,1.1,1.8,1.6,2.9,1.6c0.5,0,0.9-0.1,1.2-0.4s0.5-0.6,0.5-1C85.7,75.3,85.3,74.7,84.3,74.1z"/>
	<path class="st0" d="M89.5,68.4c0.2,0,0.4,0.1,0.6,0.2s0.2,0.4,0.2,0.6c0,0.2-0.1,0.4-0.2,0.6s-0.4,0.2-0.6,0.2
		c-0.2,0-0.4-0.1-0.6-0.3s-0.2-0.4-0.2-0.6c0-0.2,0.1-0.4,0.2-0.6S89.2,68.4,89.5,68.4z M88.8,71.5h1.4v7.2h-1.4V71.5z"/>
	<path class="st0" d="M93.7,71.5v0.9c0.6-0.7,1.4-1.1,2.2-1.1c0.4,0,0.9,0.1,1.2,0.3s0.7,0.5,0.9,1s0.3,1,0.3,1.9v4.1h-1.4v-4.1
		c0-0.7-0.1-1.3-0.3-1.6s-0.6-0.5-1.1-0.5c-0.7,0-1.2,0.3-1.7,1v5.1h-1.5v-7.2H93.7z"/>
	<path class="st0" d="M99.9,73.9c0-0.8,0.3-1.4,0.8-1.8s1.3-0.7,2.3-0.7h3v1.1h-1.5c0.3,0.3,0.5,0.5,0.6,0.8s0.2,0.5,0.2,0.8
		c0,0.4-0.1,0.7-0.3,1.1s-0.5,0.6-0.8,0.8s-0.9,0.3-1.7,0.5c-0.5,0.1-0.8,0.3-0.8,0.6c0,0.2,0.1,0.3,0.3,0.4s0.6,0.2,1.1,0.3
		c0.9,0.2,1.4,0.3,1.7,0.5s0.5,0.3,0.7,0.5c0.3,0.3,0.5,0.8,0.5,1.3c0,0.7-0.3,1.2-0.9,1.6s-1.4,0.6-2.4,0.6c-1,0-1.8-0.2-2.5-0.6
		c-0.6-0.4-0.9-1-0.9-1.6c0-1,0.6-1.6,1.8-1.9c-0.5-0.3-0.7-0.6-0.7-0.9c0-0.2,0.1-0.4,0.3-0.6s0.5-0.3,0.8-0.4
		C100.4,75.8,99.9,75,99.9,73.9z M102.2,79c-0.5,0-0.9,0.1-1.2,0.3s-0.5,0.5-0.5,0.8c0,0.7,0.7,1.1,2,1.1c0.6,0,1.1-0.1,1.5-0.3
		c0.3-0.2,0.5-0.4,0.5-0.8c0-0.3-0.2-0.6-0.7-0.8S102.9,79,102.2,79z M102.5,72.7c-0.4,0-0.7,0.1-1,0.4s-0.4,0.6-0.4,0.9
		c0,0.4,0.1,0.7,0.4,0.9s0.6,0.4,1,0.4c0.4,0,0.7-0.1,1-0.4s0.4-0.6,0.4-0.9c0-0.4-0.1-0.7-0.4-0.9S102.9,72.7,102.5,72.7z"/>
	<path class="st0" d="M111.6,74.3v3.1c0,0.2,0.1,0.4,0.2,0.4c0.2,0,0.4-0.1,0.8-0.4v0.9c-0.3,0.2-0.6,0.4-0.8,0.4s-0.4,0.1-0.6,0.1
		c-0.6,0-1-0.2-1.1-0.7c-0.6,0.5-1.2,0.7-1.9,0.7c-0.5,0-0.9-0.2-1.2-0.5s-0.5-0.7-0.5-1.2c0-0.5,0.2-0.9,0.5-1.2s0.8-0.6,1.4-0.8
		l1.8-0.6v-0.4c0-0.9-0.4-1.3-1.3-1.3c-0.8,0-1.5,0.4-2.3,1.2v-1.6c0.6-0.7,1.3-1,2.4-1c0.8,0,1.4,0.2,1.9,0.6
		c0.2,0.1,0.3,0.3,0.4,0.5s0.2,0.4,0.2,0.6S111.6,73.7,111.6,74.3z M110.2,77.2v-2.1l-1,0.4c-0.5,0.2-0.8,0.4-1,0.6
		s-0.3,0.4-0.3,0.7c0,0.3,0.1,0.5,0.3,0.7s0.4,0.3,0.7,0.3C109.4,77.8,109.8,77.6,110.2,77.2z"/>
	<path class="st0" d="M113.6,82.3V71.5h2.5c1.3,0,2.3,0.3,3,1s1.1,1.5,1.1,2.7c0,1.1-0.3,2-1,2.7c-0.7,0.7-1.5,1-2.6,1
		c-0.5,0-1-0.1-1.5-0.3v3.8H113.6z M116.1,72.8h-1v4.4c0.4,0.2,0.9,0.3,1.4,0.3c0.7,0,1.2-0.2,1.6-0.7c0.4-0.5,0.6-1.1,0.6-1.8
		c0-0.5-0.1-0.9-0.3-1.2s-0.5-0.6-0.8-0.8S116.8,72.8,116.1,72.8z"/>
	<path class="st0" d="M125.2,71.4c1.1,0,2,0.4,2.7,1.1s1.1,1.6,1.1,2.7c0,1-0.4,1.9-1.1,2.6s-1.7,1-2.8,1c-1.1,0-2-0.3-2.7-1
		s-1.1-1.6-1.1-2.6c0-1.1,0.4-1.9,1.1-2.6S124.1,71.4,125.2,71.4z M125.1,72.7c-0.7,0-1.2,0.2-1.7,0.7s-0.7,1-0.7,1.7
		c0,0.7,0.2,1.2,0.7,1.7s1,0.7,1.7,0.7c0.7,0,1.3-0.2,1.7-0.7s0.7-1,0.7-1.7c0-0.7-0.2-1.2-0.7-1.7S125.8,72.7,125.1,72.7z"/>
	<path class="st0" d="M132.1,71.5v1.6l0.1-0.1c0.7-1.1,1.4-1.7,2.1-1.7c0.5,0,1.1,0.3,1.7,0.8l-0.8,1.2c-0.5-0.5-1-0.7-1.4-0.7
		c-0.5,0-0.9,0.2-1.2,0.7s-0.5,1-0.5,1.6v3.8h-1.4v-7.2H132.1z"/>
	<path class="st0" d="M142.7,75.2h-5.1c0,0.7,0.3,1.2,0.7,1.6s1,0.6,1.6,0.6c0.9,0,1.8-0.3,2.6-0.9v1.4c-0.4,0.3-0.9,0.5-1.3,0.6
		s-0.9,0.2-1.5,0.2c-0.8,0-1.4-0.2-1.9-0.5s-0.9-0.8-1.2-1.3s-0.4-1.2-0.4-1.9c0-1.1,0.3-2,0.9-2.7s1.4-1,2.4-1c1,0,1.7,0.3,2.3,1
		s0.9,1.6,0.9,2.7V75.2z M137.7,74.3h3.6c0-0.6-0.2-1-0.5-1.3s-0.7-0.5-1.2-0.5s-0.9,0.2-1.3,0.5S137.8,73.8,137.7,74.3z"/>
</g>
<g>
	<path class="st0" d="M4.4,81.5h1l4.4,9.6H8.4l-1.3-2.8H2.8l-1.2,2.8H0.1L4.4,81.5z M6.5,87.1l-1.6-3.5l-1.5,3.5H6.5z"/>
	<path class="st0" d="M14.4,83.6L14.4,83.6c0.1,0,0.2,0,0.3,0.1l1.2-1.1c0.3-0.2,0.5-0.3,0.7-0.3c0.1,0,0.2,0,0.3,0.1
		s0.1,0.2,0.1,0.3c0,0.3-0.2,0.5-0.6,0.6l-0.2,0l-1.6,0.5c0,0.1,0,0.1,0,0.2s0,0.1,0,0.2l1.6,0.6l0.3,0.2c0.1,0,0.2,0.1,0.2,0.2
		s0.1,0.2,0.1,0.3c0,0.1,0,0.2-0.1,0.3c-0.1,0.1-0.2,0.2-0.3,0.2c-0.2,0-0.5-0.2-0.8-0.5l-1.1-1c-0.1,0.1-0.2,0.1-0.3,0.1l0.3,1.4
		c0,0.2,0.1,0.4,0.1,0.6c0,0.4-0.2,0.6-0.5,0.6c-0.3,0-0.5-0.2-0.5-0.7c0-0.1,0-0.2,0-0.4l0.4-1.7c-0.1,0-0.2-0.1-0.3-0.1l-1.1,1
		c-0.4,0.3-0.6,0.5-0.8,0.5c-0.1,0-0.2,0-0.3-0.1c-0.1-0.1-0.1-0.2-0.1-0.3c0-0.3,0.3-0.5,0.9-0.7l1.4-0.5c0-0.1,0-0.1,0-0.2l0-0.2
		l-1.6-0.6c-0.4-0.1-0.6-0.3-0.6-0.6c0-0.1,0-0.3,0.1-0.4c0.1-0.1,0.2-0.2,0.3-0.2c0.1,0,0.3,0.1,0.5,0.2l0.2,0.1l1.2,1.1
		c0.1-0.1,0.2-0.1,0.3-0.1l-0.3-1.4l-0.1-0.3c0-0.1,0-0.2,0-0.3c0-0.4,0.2-0.6,0.5-0.6c0.3,0,0.5,0.2,0.5,0.6c0,0.1,0,0.3-0.1,0.6
		L14.4,83.6z"/>
	<path class="st0" d="M22.3,87.1l-1.1-0.6c-0.7-0.4-1.2-0.8-1.4-1.2c-0.3-0.4-0.4-0.8-0.4-1.3c0-0.8,0.3-1.4,0.8-1.8
		s1.2-0.7,2.1-0.7c0.8,0,1.6,0.2,2.3,0.7v1.6c-0.7-0.7-1.5-1-2.3-1c-0.5,0-0.8,0.1-1.1,0.3c-0.3,0.2-0.4,0.5-0.4,0.8
		c0,0.3,0.1,0.6,0.3,0.8c0.2,0.2,0.6,0.5,1.1,0.8l1.1,0.6c1.2,0.7,1.8,1.6,1.8,2.7c0,0.8-0.3,1.4-0.8,1.9c-0.5,0.5-1.2,0.7-2.1,0.7
		c-1,0-1.9-0.3-2.7-0.9v-1.7c0.8,0.9,1.7,1.4,2.7,1.4c0.4,0,0.8-0.1,1.1-0.4s0.4-0.5,0.4-0.9C23.6,88.2,23.2,87.7,22.3,87.1z"/>
	<path class="st0" d="M27.1,81.6h8.3v1.2h-3.5v8.4h-1.4v-8.4h-3.4V81.6z"/>
	<path class="st0" d="M39.9,81.5h1l4.4,9.6h-1.5l-1.3-2.8h-4.2l-1.2,2.8h-1.5L39.9,81.5z M42,87.1l-1.6-3.5l-1.5,3.5H42z"/>
	<path class="st0" d="M47.9,91.1v-9.6h2.5c1,0,1.8,0.2,2.4,0.7s0.9,1.1,0.9,1.9c0,0.6-0.1,1-0.4,1.4c-0.3,0.4-0.7,0.7-1.2,0.9
		c0.3,0.2,0.6,0.5,0.9,0.8s0.7,1,1.3,1.8c0.3,0.5,0.6,1,0.8,1.2l0.5,0.7h-1.7l-0.4-0.6c0,0,0-0.1-0.1-0.1L53.1,90l-0.4-0.7l-0.5-0.7
		c-0.3-0.4-0.6-0.7-0.8-0.9c-0.2-0.2-0.5-0.4-0.7-0.5c-0.2-0.1-0.5-0.2-1-0.2h-0.4v4.2H47.9z M49.8,82.7h-0.4v3h0.5
		c0.7,0,1.2-0.1,1.5-0.2s0.5-0.3,0.6-0.5c0.1-0.2,0.2-0.5,0.2-0.8c0-0.3-0.1-0.6-0.2-0.8c-0.2-0.2-0.4-0.4-0.7-0.5
		C50.9,82.8,50.5,82.7,49.8,82.7z"/>
</g>
</svg>
