<?xml version="1.0" encoding="utf-8"?>
<!-- Generator: Adobe Illustrator 22.0.1, SVG Export Plug-In . SVG Version: 6.00 Build 0)  -->
<svg version="1.1" id="圖層_1" xmlns="http://www.w3.org/2000/svg" xmlns:xlink="http://www.w3.org/1999/xlink" x="0px" y="0px"
	 viewBox="0 0 800 800" style="enable-background:new 0 0 800 800;" xml:space="preserve">
<style type="text/css">
	.st0{fill:#FFFFFF;}
</style>
<title>HackMD_LOGO_vertical_black</title>
<path class="st0" d="M472.8,281.3v100.2c0,5-4.1,9.1-9.1,9.1H336.2c-5,0-9.1-4.1-9.1-9.1V229.7c0-5,4.1-9.1,9.1-9.1h75.9v51.6
	c0,5,4.1,9.1,9.1,9.1L472.8,281.3z M436.4,296.5c0-1.7-1.3-3-3-3h-66.8c-1.7,0-3,1.3-3,3v6.1c0,1.7,1.3,3,3,3h66.8c1.7,0,3-1.3,3-3
	L436.4,296.5z M436.4,320.7c0-1.7-1.3-3-3-3h-66.8c-1.7,0-3,1.3-3,3v6.1c0,1.7,1.3,3,3,3h66.8c1.7,0,3-1.3,3-3L436.4,320.7z
	 M436.4,345c0-1.7-1.3-3-3-3h-66.8c-1.7,0-3,1.3-3,3v6.1c0,1.7,1.3,3,3,3h66.8c1.7,0,3-1.3,3-3L436.4,345z M469,269.1h-44.8v-44.8
	c1.2,0.8,2.4,1.7,3.4,2.7l38.7,38.7C467.4,266.8,468.3,267.9,469,269.1z"/>
<path class="st0" d="M130.8,447.7h18.6v42h42.3v-42h18.6v104.6h-18.6v-46.4h-42.3v46.4h-18.6V447.7z"/>
<path class="st0" d="M231,531.2c0-16.8,14-25.6,46.2-29.1c-0.3-8.5-3.6-15.5-14.3-15.5c-7.8,0-15.2,3.5-22.1,7.8l-6.8-12.3
	c8.6-5.4,19.8-10.3,32.3-10.3c19.6,0,29.3,12.1,29.3,34v46.5h-15.1l-1.4-8.7h-0.5c-7,6-15.1,10.6-24.4,10.6
	C240.4,554.2,231,544.9,231,531.2z M277.2,531.2v-17.7c-21.3,2.7-28.4,8.2-28.4,16.2c0,7,4.7,10,11.3,10
	C266.5,539.8,271.4,536.6,277.2,531.2L277.2,531.2z"/>
<path class="st0" d="M312.6,513.1c0-26.2,18.5-41.3,39.4-41.3c8.5-0.1,16.7,3.1,23,8.8l-9,12c-4.2-3.6-8.1-5.8-13.1-5.8
	c-12.7,0-21.4,10.5-21.4,26.2s8.6,26.1,20.9,26.1c6.1,0,11.8-3,16.3-6.8l7.5,12.2c-7.1,6.2-16.2,9.7-25.7,9.7
	C329,554.2,312.6,539.1,312.6,513.1z"/>
<path class="st0" d="M391.6,439.3h18v70.6h0.5l29.1-36.2h20.2l-27,32l29.7,46.6h-20L422,518.2l-12.3,14.1v20h-18L391.6,439.3z"/>
<path class="st0" d="M476.7,447.7h21l18.5,51.1c2.3,6.7,4.4,13.7,6.7,20.6h0.6c2.3-6.8,4.3-13.9,6.6-20.5l18.1-51.1h21v104.6h-17
	v-47.9c0-9.7,1.5-23.6,2.4-33.3H554l-8.5,24.3l-17.2,47h-11l-17.3-47l-8.3-24.3H491c0.9,9.7,2.4,23.6,2.4,33.3v47.9h-16.7
	L476.7,447.7z"/>
<path class="st0" d="M595.8,447.7h27.9c32.1,0,51,17.3,51,51.9s-18.9,52.7-50,52.7h-28.9V447.7z M622.5,537.3
	c21,0,33.2-12,33.2-37.7s-12.1-36.9-33.2-36.9h-8.1v74.6H622.5z"/>
</svg>
