<?xml version="1.0" encoding="UTF-8" standalone="no"?>
<!-- Created with Inkscape (http://www.inkscape.org/) -->

<svg
   version="1.1"
   id="svg154"
   width="625.16803"
   height="223.06"
   viewBox="0 0 625.16803 223.06"
   xmlns="http://www.w3.org/2000/svg"
   xmlns:svg="http://www.w3.org/2000/svg">
  <defs
     id="defs158">
    <clipPath
       clipPathUnits="userSpaceOnUse"
       id="clipPath170">
      <path
         d="M 0,167.295 H 468.876 V 0 H 0 Z"
         id="path168" />
    </clipPath>
  </defs>
  <g
     id="g162"
     transform="matrix(1.3333333,0,0,-1.3333333,0,223.06)">
    <g
       id="g164">
      <g
         id="g166"
         clip-path="url(#clipPath170)">
        <g
           id="g172"
           transform="translate(34.795,25.7615)">
          <path
             d="m 0,0 c 0,-3.372 -0.185,-4.378 -1.28,-6.108 -1.183,-1.739 -3.01,-3.011 -5.649,-3.011 -2.64,0 -4.467,1.272 -5.562,3.011 -1.182,1.73 -1.368,2.736 -1.368,6.108 v 116.131 c 0,3.372 0.186,4.467 1.368,6.197 1.095,1.739 2.922,2.922 5.562,2.922 2.639,0 4.466,-1.183 5.649,-2.922 1.095,-1.73 1.28,-2.825 1.28,-6.197 v -42.75 c 6.744,7.476 15.315,11.21 25.705,11.21 20.965,0 33.279,-13.311 33.279,-34.002 V 0 c 0,-3.372 -0.195,-4.378 -1.28,-6.108 -1.183,-1.739 -3.01,-3.011 -5.65,-3.011 -2.551,0 -4.475,1.272 -5.561,3.011 -1.095,1.73 -1.368,2.736 -1.368,6.108 v 48.4 c 0,16.145 -8.386,24.072 -22.333,24.072 C 8.66,72.472 0,64.448 0,48.4 Z"
             style="fill:#16212b;fill-opacity:1;fill-rule:nonzero;stroke:none"
             id="path174" />
        </g>
        <g
           id="g176"
           transform="translate(133.9566,59.9432)">
          <path
             d="m 0,0 c 0,-20.144 9.48,-31.902 27.25,-31.902 7.026,0 13.858,1.819 19.596,6.471 2.922,2.463 4.202,3.372 6.294,3.372 3.01,0 5.835,-2.913 5.835,-5.923 0,-4.105 -5.835,-8.21 -9.578,-10.487 -5.552,-3.372 -13.488,-5.191 -22.968,-5.191 -24.24,0 -40.111,14.486 -40.111,47.032 0,30.269 14.865,47.04 37.922,47.04 23.339,0 37.383,-16.957 37.648,-42.573 0,-1.907 0,-4.282 -1.819,-6.197 C 58.242,-0.185 56.327,0 54.049,0 Z M 48.497,10.116 C 48.038,16.683 47.764,19.87 45.663,24.981 42.203,33.455 34.364,38.831 24.24,38.831 14.035,38.831 6.011,33.279 2.728,24.981 0.733,19.87 0.274,16.683 0,10.116 Z"
             style="fill:#16212b;fill-opacity:1;fill-rule:nonzero;stroke:none"
             id="path178" />
        </g>
        <g
           id="g180"
           transform="translate(244.6166,70.0601)">
          <path
             d="m 0,0 h 27.62 v 7.388 c 0,13.947 -6.382,21.327 -22.421,21.327 -9.295,0 -14.768,-2.639 -20.876,-8.201 -2.092,-1.915 -4.193,-2.462 -5.65,-2.462 -1.456,0 -3.01,0.547 -4.104,1.73 -1.095,1.094 -1.828,2.374 -1.828,4.281 0,3.381 3.381,6.753 8.942,10.213 6.744,4.193 13.674,6.02 23.516,6.02 23.79,0 36.007,-10.301 36.007,-30.63 v -53.961 c 0,-3.381 -0.186,-4.378 -1.272,-6.117 -1.094,-1.731 -3.01,-3.002 -5.658,-3.002 -2.551,0 -4.466,1.271 -5.561,3.002 -1.095,1.739 -1.095,2.736 -1.095,6.117 v 0.176 c -7.565,-7.291 -14.309,-9.657 -26.34,-9.657 -12.676,0 -20.241,2.366 -26.164,8.386 -4.378,4.555 -6.929,11.299 -6.929,18.864 C -31.813,-10.478 -20.055,0 0,0 m 2.551,-42.203 c 7.653,0 14.68,0.636 20.329,6.108 3.099,3.099 4.74,7.927 4.74,15.863 v 9.931 H 1.456 c -13.126,0 -19.958,-5.747 -19.958,-16.225 0,-10.478 7.018,-15.677 21.053,-15.677"
             style="fill:#16212b;fill-opacity:1;fill-rule:nonzero;stroke:none"
             id="path182" />
        </g>
        <g
           id="g184"
           transform="translate(327.0975,42.3479)">
          <path
             d="m 0,0 c 0,-8.386 3.831,-13.214 12.129,-13.214 2.824,0 4.828,-0.362 5.923,-1.095 1.544,-1.183 2.639,-2.463 2.639,-4.652 0,-2.277 -1.095,-3.734 -2.639,-4.917 -1.095,-0.732 -3.099,-1.094 -5.923,-1.094 H 9.666 c -15.686,0 -23.339,11.025 -23.339,24.61 v 99.907 c 0,3.372 0,4.466 1.182,6.196 1.095,1.739 2.922,2.922 5.562,2.922 2.648,0 4.466,-1.183 5.561,-2.922 C -0.185,104.011 0,102.917 0,99.545 Z"
             style="fill:#16212b;fill-opacity:1;fill-rule:nonzero;stroke:none"
             id="path186" />
        </g>
        <g
           id="g188"
           transform="translate(441.5673,16.5273)">
          <path
             d="M 0,0 C -1.863,0 -3.699,0.812 -4.961,2.366 L -27.02,29.624 c -2.216,2.737 -1.792,6.753 0.944,8.96 2.746,2.215 6.753,1.792 8.969,-0.936 L 4.952,10.39 C 7.168,7.644 6.744,3.637 4.008,1.421 2.825,0.468 1.404,0 0,0"
             style="fill:#16212b;fill-opacity:1;fill-rule:nonzero;stroke:none"
             id="path190" />
        </g>
        <g
           id="g192"
           transform="translate(398.4057,69.8562)">
          <path
             d="m 0,0 c -1.863,0 -3.699,0.812 -4.961,2.366 l -22.218,27.452 c -2.216,2.737 -1.792,6.744 0.944,8.96 2.746,2.216 6.753,1.792 8.969,-0.944 L 4.952,10.39 C 7.168,7.644 6.744,3.637 4.008,1.421 2.825,0.468 1.404,0 0,0"
             style="fill:#16212b;fill-opacity:1;fill-rule:nonzero;stroke:none"
             id="path194" />
        </g>
        <g
           id="g196"
           transform="translate(419.463,70.1405)">
          <path
             d="m 0,0 c -1.412,0 -2.834,0.468 -4.016,1.43 -2.728,2.224 -3.152,6.241 -0.927,8.968 l 22.05,27.144 c 2.216,2.728 6.232,3.152 8.969,0.927 2.736,-2.224 3.151,-6.241 0.927,-8.968 L 4.952,2.357 C 3.69,0.803 1.854,0 0,0"
             style="fill:#16212b;fill-opacity:1;fill-rule:nonzero;stroke:none"
             id="path198" />
        </g>
        <g
           id="g200"
           transform="translate(376.0683,16.5362)">
          <path
             d="m 0,0 c -1.404,0 -2.825,0.468 -4.008,1.421 -2.736,2.216 -3.16,6.223 -0.944,8.969 l 22.324,27.585 c 2.216,2.727 6.232,3.16 8.968,0.935 2.737,-2.215 3.161,-6.223 0.945,-8.959 L 4.961,2.366 C 3.699,0.812 1.863,0 0,0"
             style="fill:#16212b;fill-opacity:1;fill-rule:nonzero;stroke:none"
             id="path202" />
        </g>
      </g>
    </g>
  </g>
</svg>
