<?xml version="1.0" standalone="no"?>
<!DOCTYPE svg PUBLIC "-//W3C//DTD SVG 20010904//EN"
 "http://www.w3.org/TR/2001/REC-SVG-20010904/DTD/svg10.dtd">
<svg version="1.0" xmlns="http://www.w3.org/2000/svg"
 width="185.000000pt" height="173.000000pt" viewBox="0 0 185.000000 173.000000"
 preserveAspectRatio="xMidYMid meet">
<metadata>
Created by potrace 1.15, written by Peter Selinger 2001-2017
</metadata>
<g transform="translate(0.000000,173.000000) scale(0.100000,-0.100000)"
fill="#FFFFFF" stroke="none">
<path d="M1230 740 l0 -220 55 0 c42 0 55 3 55 15 0 20 7 19 37 -5 37 -29 94
-26 133 6 44 37 60 75 60 139 0 62 -14 97 -55 135 -37 35 -112 35 -149 1 l-26
-24 0 86 0 87 -55 0 -55 0 0 -220z m221 -2 c39 -64 6 -152 -55 -146 -24 2 -35
11 -49 40 -46 94 50 191 104 106z"/>
<path d="M920 905 c0 -43 -1 -45 -30 -45 -23 0 -30 -4 -30 -20 0 -16 7 -20 30
-20 l29 0 3 -147 3 -148 63 -3 62 -3 0 151 0 150 30 0 c23 0 30 4 30 20 0 16
-7 20 -30 20 -29 0 -30 2 -30 45 l0 45 -65 0 -65 0 0 -45z"/>
<path d="M350 640 l0 -120 65 0 65 0 0 120 0 120 -65 0 -65 0 0 -120z"/>
<path d="M540 640 l0 -120 65 0 65 0 0 120 0 120 -65 0 -65 0 0 -120z"/>
<path d="M720 640 l0 -120 65 0 65 0 0 120 0 120 -65 0 -65 0 0 -120z"/>
</g>
</svg>
