<svg xmlns="http://www.w3.org/2000/svg" viewBox="0 0 330.7 371.37"><defs><style>.a{fill:#fff;}</style></defs><title>IISER_Logo_vector_white</title><path class="a" d="M205.05,332.38H336.89c2.2,0,1.94-.2,1.94,1.9q0,21.18,0,42.36v1.49H8.14V332.42H142.8l0-.31c-2.11-.48-4.24-.91-6.34-1.45-40-10.14-71.64-32.37-95.21-66.08a159.85,159.85,0,0,1-27.35-69.2C3.38,123.81,39.58,55.63,101.61,24A156.57,156.57,0,0,1,154,8C220.07-.14,283.79,32.81,315.7,91.61a163.76,163.76,0,0,1,18.76,58.2,165.61,165.61,0,0,1-73.9,159.72A157.24,157.24,0,0,1,205.37,332a2.19,2.19,0,0,0-.33.12Zm-15.32-47.11c.52-.11.87-.2,1.22-.25a108.53,108.53,0,0,0,20.55-5.17c50.72-18.11,83.29-70.91,74.89-126.43A114.51,114.51,0,0,0,258.73,94,112.88,112.88,0,0,0,146.32,59c-54.64,14-92.55,67.14-85.19,126.59a112,112,0,0,0,18.74,49.94c17.27,25.32,40.79,41.64,70.8,48.38,2.44.55,4.92.94,7.5,1.43-2.17,15.68-4.33,31.29-6.49,47h44.56C194.07,316.55,191.91,301,189.73,285.27Zm42.75,59.83c.05.38.06.58.1.77,1,5.65,2.12,11.31,3.17,17,.52,2.82.51,2.8,3.33,2.71.7,0,1-.29,1.09-1,.45-2.35,1-4.7,1.45-7q.62-2.93,1.24-5.85c1,3.81,1.83,7.59,2.63,11.37.54,2.51.55,2.46,3.09,2.48.87,0,1.15-.32,1.3-1.13.73-4.05,1.53-8.08,2.3-12.13.44-2.34.89-4.68,1.36-7.2-.94,0-1.73,0-2.52,0s-1.05.18-1.16,1c-.33,2.21-.75,4.41-1.13,6.61q-.47,2.6-.92,5.17a3,3,0,0,1-.45-1.19c-.7-3.52-1.38-7.05-2.13-10.57a1.34,1.34,0,0,0-.77-.93c-3.09-.48-3.38-.26-4,2.72,0,.19-.07.39-.11.59-.65,3.05-1.29,6.09-1.93,9.14a1.69,1.69,0,0,1-.4-.92c-.61-3.54-1.21-7.08-1.85-10.62-.06-.34-.4-.87-.66-.9A29.74,29.74,0,0,0,232.48,345.1Zm-209.77,0v1.56c0,5.6,0,11.2,0,16.8,0,2.27-.43,2,2.13,2.08,1,0,1.22-.31,1.2-1.24-.05-3.28,0-6.56,0-9.84,0-.33,0-.66.08-1.34,1.78,3.67,3.52,7,5,10.37a2.92,2.92,0,0,0,3.43,2.07c.92-.09,1.13-.38,1.11-1.23,0-2.67,0-5.35,0-8,0-3.32,0-6.65,0-10,0-1-.32-1.36-1.3-1.26-.62.06-1.26,0-2,0v12.27a2.51,2.51,0,0,1-.76-1c-1.67-3.46-3.32-6.92-5-10.36-.18-.36-.52-.84-.84-.87A24.12,24.12,0,0,0,22.71,345.1Zm256.55-81-.16.2c-.35-.15-.71-.29-1.06-.46-2.11-1-4.21-2.11-6.35-3.1a1,1,0,0,0-1.42,1.33c.76,1.89,1.61,3.74,2.42,5.61.36.82.7,1.65,1.05,2.48l-.17.11-7-5-2.4,2.55,15,10.52c1.58-1.21,1.58-1.21.83-2.74l-3.44-7c-.37-.77-.75-1.53-1.12-2.3l.2-.15,9.93,5.4c1.59-1.24,1.59-1.24.64-2.77l-8.4-13.41c-.23-.37-.48-.72-.79-1.18l-2.37,2.51C276.21,259.2,277.73,261.64,279.26,264.07Zm-68.84,81.09v12.18a2.46,2.46,0,0,1-.77-1c-1.67-3.46-3.35-6.91-5-10.38a1.29,1.29,0,0,0-1.35-.9c-3,.09-2.41-.39-2.47,2.47,0,.72,0,1.44,0,2.16,0,4.88,0,9.76,0,14.64,0,.39.33,1.07.6,1.12a16.23,16.23,0,0,0,2.73.05V353.46c2,3.68,3.78,7.38,5.6,11.08.18.36.5.88.8.91a25.7,25.7,0,0,0,3,.05V345.16Zm-134.82.17v20.19H77c2.32,0,2,.27,2-2.06,0-2.06,0-4.13,0-6.2,1.47-.31,2.52,0,3.18,1.25,1.11,2,2.2,4.07,3.33,6.1.18.33.47.82.74.84,1.2.09,2.42,0,4,0l-5-9.06c-.12.06,0,0,.17-.08,4.2-1.36,4.1-8.11,1.43-10.2a3.15,3.15,0,0,0-1.7-.78C82,345.29,78.84,345.33,75.6,345.33Zm237.69,5.61a6.2,6.2,0,0,0-3.92-5.74,7.23,7.23,0,0,0-9.24,3.38,14,14,0,0,0,0,13.46,6.89,6.89,0,0,0,6.71,3.8,9,9,0,0,0,6.16-2.59c1.21-1.16.45-2.73.56-4.11s0-3.07,0-4.74c-1.66,0-3.13,0-4.61,0-3,.06-2.51-.59-2.6,2.69,0,.88.36,1.09,1.14,1s1.65,0,2.83,0c-.3,1.08-.27,2.17-.8,2.69a4,4,0,0,1-6.77-1.57,11.83,11.83,0,0,1-.16-7.77,5,5,0,0,1,1-1.73,3.55,3.55,0,0,1,6,1.09c.12.28.26.55.41.87Zm-30.13,14.49c2.46,0,4.89.07,7.3,0a5.22,5.22,0,0,0,4.75-3.16,16.29,16.29,0,0,0,.05-13.8,4.54,4.54,0,0,0-3.48-3c-2.83-.31-5.69-.31-8.62-.45Zm-51.37-10.08a13.17,13.17,0,0,0-1.43-6.72,7,7,0,0,0-6.53-3.9,6.56,6.56,0,0,0-6.3,4,15.15,15.15,0,0,0,0,13.1,6.59,6.59,0,0,0,6.31,4,6.81,6.81,0,0,0,6.51-3.89A13.64,13.64,0,0,0,231.79,355.35ZM163,355.28c-.07-2.54-.34-5-1.79-7.23a7.06,7.06,0,0,0-12.33.46,14.67,14.67,0,0,0,0,13.62,6.52,6.52,0,0,0,6.23,3.72,6.82,6.82,0,0,0,6.31-3.64A14.14,14.14,0,0,0,163,355.28Zm153.44-10.12a1.75,1.75,0,0,0-.14.4c0,6.4,0,12.79,0,19.19a1.08,1.08,0,0,0,.75.74c3.6.05,7.19,0,10.79,0a1,1,0,0,0,.76-.63c.48-2.75.2-3.07-2.54-3.07h-5c-.38,0-.77-.05-1.15-.07v-5.07h7.79c0-.55.06-.94.06-1.33,0-2.4,0-2.4-2.4-2.4h-5.43v-4.19h8.33v-3.57Zm-128.09,20.3a25.28,25.28,0,0,0,0-3.81c-.36-2.37,1.09-3.76,2.5-5.36,1.3,2.81,2.54,5.53,3.82,8.24.17.36.49.9.78.92,1.29.1,2.59.05,4.07.05-.27-.58-.42-.94-.6-1.28-1.41-2.78-2.67-5.65-4.3-8.29-1.29-2.09-1.2-3.63.5-5.4a65.81,65.81,0,0,0,4.19-5.44c-1.42,0-2.52,0-3.61,0a1.74,1.74,0,0,0-1.69.84c-1.6,2.29-3.27,4.54-4.91,6.8a9.15,9.15,0,0,1-.77.82v-8.33H185v20.25Zm80.12-20.3v20.25h12.13v-3.67h-8.69v-5.09h7.88c0-1.09,0-2,0-2.92,0-.66-.3-.82-.88-.81-1.6,0-3.2,0-4.8,0H272v-4.17h8.4v-3.59ZM90.42,358.76A26.56,26.56,0,0,0,92,363.13c2.08,3.6,8.36,3.74,10.7.33a6.8,6.8,0,0,0-3.07-10.22c-.71-.28-1.44-.47-2.15-.74a11.21,11.21,0,0,1-2-.84,1.64,1.64,0,0,1,.18-3,2.82,2.82,0,0,1,4.09,1.73c.11.33.49.77.78.8a21.72,21.72,0,0,0,2.67,0A5.51,5.51,0,0,0,99,344.93c-3.56-.81-6.5.58-7.46,3.51a6.08,6.08,0,0,0,3.65,7.81c1.19.47,2.41.85,3.61,1.28a2,2,0,0,1,1.51,2.06,2.41,2.41,0,0,1-1.52,2.26,3.12,3.12,0,0,1-4.27-1.67c-.26-.6-.35-1.53-.79-1.74s-1.39.05-2.1.13C91.39,358.6,91.12,358.65,90.42,358.76Zm176-303.91-10.82,14.7,2.65,2.21,6.12-8.29a2.69,2.69,0,0,1,.22,1.25c0,3.8-.05,7.59-.15,11.39a1.9,1.9,0,0,0,1.36,2l11-14.9L274.06,61c-2,2.74-3.94,5.36-5.87,8a2.46,2.46,0,0,1-.28-1.34c0-3.48-.05-7,0-10.43A2.24,2.24,0,0,0,266.38,54.85ZM124.65,292.62c-1.82,6-3.64,11.91-5.49,18l3.19,1.11c1-3.33,2-6.53,3.12-10.05,1.4,4.06,2.72,7.75,3.92,11.47a2.12,2.12,0,0,0,2.18,1.62c1.8-5.89,3.61-11.78,5.43-17.75l-3.2-1.1c-1.07,3.45-2.07,6.72-3.16,10.25-.25-.66-.42-1.05-.55-1.45-1.18-3.52-2.37-7-3.5-10.58A1.85,1.85,0,0,0,124.65,292.62ZM67.79,276.76l2.28,2.66c2.21-2.6,4.31-5.07,6.59-7.77,0,.75,0,1.15,0,1.54-.23,3.51-.42,7-.72,10.52a2.23,2.23,0,0,0,1.39,2.46l11.76-13.88-2.52-2.37-6.75,7.94c0-.69,0-1,0-1.38.27-3.79.49-7.58.85-11.36a1.92,1.92,0,0,0-1.2-2.15ZM100.68,63.45l3-1.64-4.61-9.65c.61.27,1,.42,1.3.59,3.21,1.63,6.43,3.22,9.61,4.9a1.64,1.64,0,0,0,2.33-.43c-2.68-5.58-5.35-11.14-8.07-16.82l-3,1.65,4.48,9.38c-.62-.27-1-.41-1.32-.58-3-1.47-6-2.89-8.9-4.43a2,2,0,0,0-2.8.41ZM55.49,246.12c-.15.59-.23.92-.33,1.25-1,3.47-2.08,7-3.2,10.42a2.18,2.18,0,0,0,.83,2.62L67.35,250,65.45,247,57,253.08c.18-.66.27-1,.39-1.41,1.14-3.62,2.25-7.25,3.45-10.85a1.93,1.93,0,0,0-.69-2.35L45.38,249.05,47.26,252ZM296.59,86.36l-14.4,10.72,1.93,2.92,8.13-6c-1,4.15-2.16,8.13-3.39,12.09a1.88,1.88,0,0,0,.74,2.38L304.16,97.6l-1.93-2.92L294,100.76c1.17-4.14,2.19-7.91,3.35-11.65A2.31,2.31,0,0,0,296.59,86.36Zm11.69,48.4c.56,1.58.56,1.58-.31,2.71-1.33,1.74-2.68,3.48-4,5.24-.21.27-.49.66-.43.92.3,1.21.7,2.39,1.15,3.84l5.85-7.74c.35.27.62.5.9.71a4.91,4.91,0,0,0,5.2.53,4.66,4.66,0,0,0,2.9-4.21c.18-3.26-1.34-6.07-2.3-9.13l-16.85,5.82c.4,1.28.74,2.4,1.12,3.62ZM318.61,213l-16.72-6.46-1.23,3.57,6.63,2.6a2,2,0,0,1-1.86,2c-2,.4-4,.92-5.94,1.43-.36.09-.89.23-1,.5-.49,1.13-.85,2.32-1.35,3.74l9.11-2.25c.07.3.11.45.15.61a5.44,5.44,0,0,0,4.89,4.55c2,.23,3.85-1,4.93-3.48C317.14,217.61,317.78,215.34,318.61,213ZM270.9,281.36c0-2.73-1.77-5.64-4.36-8.07-2.07-1.94-4.5-3-7.32-1.78-3,1.37-5.05,3.65-5.23,7.14s1.54,6.47,3.89,9,5.11,3.21,7.79,2.14C269,288.46,270.89,285.72,270.9,281.36ZM243.12,56.86c-.08,3.89,1.58,6.13,4.5,7.54a6.72,6.72,0,0,0,7.9-1.1,13.66,13.66,0,0,0,4.41-8c.61-3.44-.94-6.45-4.21-8.25-2.73-1.52-5.73-1.13-8.28,1.2A13.38,13.38,0,0,0,243.12,56.86ZM51.18,122.55a26.31,26.31,0,0,0-1.72-4.24,11.15,11.15,0,0,0-6.57-4.53c-3-.93-5.8-.59-8,2A8.06,8.06,0,0,0,33.68,125c2.08,3.82,5.55,5.53,9.72,5.85A6.1,6.1,0,0,0,49.74,127,38.32,38.32,0,0,0,51.18,122.55ZM162.53,42.48c2.43-.19,4.67-.19,6.84-.58a6.77,6.77,0,0,0,5.76-5.55,19.78,19.78,0,0,0,.36-6,7.4,7.4,0,0,0-6.74-6.85,53.85,53.85,0,0,0-6.22,0ZM121.87,291.8a65.92,65.92,0,0,0-6.32-2.76,6.46,6.46,0,0,0-7.6,2.33,18.81,18.81,0,0,0-2.8,5.22,7.79,7.79,0,0,0,3.19,9.25c1.75,1.15,3.71,2,5.69,3ZM291.24,111.36c1.24,2.22,2.31,4.4,3.63,6.42a6.19,6.19,0,0,0,5.21,3,10.39,10.39,0,0,0,9.05-4.51,9.15,9.15,0,0,0,1.35-4.36c.26-3.47-1.93-6.12-3.35-9.13Zm-185,233.79c0,1.45,0,2.77,0,4.08.06,3.68.09,7.35.24,11a5.51,5.51,0,0,0,2.53,4.66c4.32,2.77,9.72.19,10-4.89.22-4.75.16-9.52.21-14.27a3,3,0,0,0-.14-.6h-3.4c0,.54,0,1,0,1.47,0,4,0,8.08,0,12.12,0,2.27-.87,3.23-2.63,3.3s-2.94-.95-3.14-3.14c-.06-.63-.1-1.27-.1-1.91,0-3.52,0-7,0-10.56,0-.42,0-.85-.06-1.29ZM237.6,286.46l9.11,16.11,2.95-1.88-3.44-6.19,5.49-3.5c1.21,2.1,2.33,4.06,3.52,6.14l3-1.9c-3.06-5.4-6.06-10.7-9.12-16.13l-3,1.93c1.35,2.39,2.66,4.7,4,7.09l-5.51,3.51c-1.38-2.4-2.69-4.7-4.05-7.06Zm55.93-36.19c1.24-2,2.41-3.78,3.61-5.68l5.62,4,1.94-3.07L290,235c-.69,1.08-1.28,2-1.95,3.06l6.46,4.63c-1.26,2-2.41,3.78-3.61,5.68l-6.47-4.6-1.91,3,14.67,10.52,1.93-3ZM59.73,345.14c0,5.12-.24,10.12.07,15.08.25,4.07,2.7,5.81,6.85,5.63,3.12-.14,5.34-2,5.49-5.07.24-5.11.19-10.23.25-15.34,0-.07-.06-.14-.12-.24H69.05a3.42,3.42,0,0,0-.08.46c0,2.68,0,5.36,0,8,0,2,0,4-.19,6A2.28,2.28,0,0,1,66.5,362a2.69,2.69,0,0,1-3.18-1.91,8.46,8.46,0,0,1-.27-2.13c0-3.84,0-7.68,0-11.52v-1.32ZM48.31,358c1.53-.09,2.85-.09,4.15-.25A4.74,4.74,0,0,0,57,353.54a13,13,0,0,0,0-4.26c-.44-2.67-2.19-4.06-4.91-4.14-2-.06-4.08,0-6.11-.07-1,0-1.19.33-1.19,1.24,0,6,0,12,0,18,0,.35,0,.7.06,1.17.52,0,1,.07,1.45.07,2.28,0,2,.25,2-1.95C48.32,361.74,48.31,359.92,48.31,358ZM179.57,23.49c-.29,4.73-.68,9.27-.81,13.81a4.85,4.85,0,0,0,3.56,5.14,12.24,12.24,0,0,0,4.93.38c2.81-.38,4.46-2.43,4.69-5.27.15-1.71.27-3.43.38-5.14.17-2.59.32-5.17.49-7.93l-3.42-.25c-.06.49-.12.83-.15,1.18q-.36,5.63-.73,11.25a2.89,2.89,0,0,1-3.37,3c-1.88-.08-2.93-1.21-2.85-3.24.08-2.19.26-4.39.39-6.58.13-2,.26-4,.39-6.11ZM24.38,188.79c.22.08.29.14.36.13,4.15-.31,8.3-.55,12.43-1a4.9,4.9,0,0,0,4.47-4.22,12.68,12.68,0,0,0,.08-4c-.63-4.19-2.81-5.89-7-5.63-2.36.15-4.71.34-7.06.52-1.38.1-2.76.24-4.22.36l.26,3.61c.44,0,.76,0,1.07,0,3.59-.26,7.17-.57,10.76-.78,1.93-.11,3.07,1.12,3.19,3.24s-.89,3.26-2.83,3.41c-2.23.18-4.47.33-6.7.5l-5.07.42Zm281.18-.74,3.13.23c.2-2.84.39-5.49.59-8.27l4.69.36-.35,6,3,.2c.15-2.1.29-4,.44-6l3.55.31c-.18,2.87-.34,5.57-.51,8.4l3.14.22c.26-4.09.52-8,.78-12.1l-17.66-1.31C306.08,180.15,305.82,184,305.56,188.05ZM322,145.75l-17.55,2.63c.55,4.07,1.06,7.93,1.59,11.89l3.1-.48c-.36-2.77-.7-5.44-1.05-8.21l4.65-.7c.29,2,.57,3.94.85,6a10.48,10.48,0,0,1,1.62-.2c1.16,0,1.41-.49,1.22-1.55-.27-1.52-.41-3.06-.62-4.66l3.53-.52c.39,2.83.78,5.57,1.17,8.38l3.09-.55C323.1,153.66,322.58,149.76,322,145.75ZM41.5,142.19c-.52,2.81-1,5.42-1.52,8.14l-4.61-1c.35-2,.68-3.94,1-5.94l-2.94-.62-1.13,5.93-3.5-.72c.5-2.85,1-5.54,1.47-8.31l-3.08-.6c-.74,4-1.45,7.92-2.18,11.91l17.4,3.59,2.15-11.81ZM123.59,31.87c1.75,6.07,3.45,12,5.18,18l10.83-3.53-.92-3.16-7.48,2.39-1.38-4.8,5.43-1.83-.88-3-5.45,1.73-1-3.65,7.59-2.51c-.34-1.15-.62-2.13-.93-3.16ZM160,39.7l-7.78.83c-.17-1.71-.32-3.32-.48-5l5.66-.69-.35-3.13-5.65.55c-.13-1.36-.24-2.53-.35-3.79,2-.21,3.79-.39,5.61-.62,2.4-.31,2.38-.32,2.07-2.71-.08-.66-.33-.89-1-.8-1.43.2-2.86.33-4.29.49l-6.23.74c.62,6.28,1.23,12.43,1.85,18.68L160.35,43C160.24,41.83,160.15,40.84,160,39.7ZM92.48,59.46l-1.73-2.61-4.68,3.46L84,57.16l6.5-4.86-1.8-2.72-9.37,7c3.4,5.17,6.74,10.24,10.15,15.4l9.28-6.9L97,62.33l-6.41,4.76L87.82,63ZM222.15,51c.07-.21.15-.32.14-.42-.47-6.34-1-12.67-1.42-19-.05-.71-.33-1.21-1-1.2a1.81,1.81,0,0,0-1.22.58q-5.43,7.17-10.78,14.39a9.33,9.33,0,0,0-.5.84c.94.32,1.79.55,2.59.88a1.12,1.12,0,0,0,1.58-.51c1.61-2.38,1.63-2.36,4.34-1.48s2.57.83,2.71,3.48a2.05,2.05,0,0,0,.06.71c.14.29.33.67.59.77C220.16,50.38,221.15,50.66,222.15,51Zm14.31,235.86c-1.18.52-2,.93-2.84,1.22s-1,.76-.89,1.55c.29,2.8.27,2.8-2.33,4s-2.57,1.16-4.5-1a1.69,1.69,0,0,0-.41-.43.85.85,0,0,0-.63-.11c-1,.42-2,.88-3.1,1.38.39.44.64.75.91,1l11.82,12.72c.4.43.7.91,1.48.56s.83-.82.81-1.51q-.18-6.17-.31-12.34C236.43,291.64,236.46,289.38,236.46,286.83ZM90.39,273a5,5,0,0,0-.26.68c-1.27,6.14-2.56,12.27-3.77,18.42-.08.41.29,1,.58,1.36.42.57.88.23,1.33-.09,4.8-3.53,9.61-7,14.42-10.55a4.72,4.72,0,0,0,.53-.56c-2.77-2.36-2.77-2.36-5.49-.29-.15.12-.32.22-.53.36a16.7,16.7,0,0,0-2.07-1.44c-2.13-1.05-3-2.53-1.87-4.83a1.14,1.14,0,0,0-.12-1.06C92.3,274.26,91.37,273.66,90.39,273ZM281.47,95.81c.21-.32.31-.44.38-.58,2.73-5.6,5.44-11.21,8.2-16.79a1.07,1.07,0,0,0-.33-1.55,1.71,1.71,0,0,0-1.33-.15c-5.43,2-10.84,4.06-16.26,6.1-.27.11-.53.27-.89.45.63.77,1.22,1.42,1.71,2.14a1.21,1.21,0,0,0,1.79.44c2.37-1.08,2.28-.93,4.1,1,1.61,1.69,2.25,3.22.59,5.2a1.21,1.21,0,0,0-.05,1.14C280,94.07,280.7,94.86,281.47,95.81Zm21.32,109.42c.58-.09,1-.14,1.36-.22l16.4-3.59c.62-.13,1.15-.22,1.31-1.09s-.32-1.13-.85-1.48l-14.39-9.35c-.32-.21-.66-.38-1.11-.63-.2,1.12-.35,2.1-.56,3.07-.14.66,0,1.12.66,1.33,2.33.74,2.53,2.25,2,4.42-.67,2.8-.51,2.82-3.37,3.49a1.43,1.43,0,0,0-.93.83C303.07,203,303,204,302.79,205.23Zm-127.51,148c-2,0-3.82,0-5.65,0-.31,0-.87-.29-.88-.47-.08-1.3,0-2.6,0-4h7.55v-3.55h-11v20.25h3.41V357h6.58ZM123.51,46.59l-.4.9a4.27,4.27,0,0,1-7.5.92,9,9,0,0,1-1.93-6.51,4.5,4.5,0,0,1,3.84-4.3,12.74,12.74,0,0,1,2.32,0,21,21,0,0,1,.21-2.13c.19-1-.16-1.28-1.1-1.33a8.54,8.54,0,0,0-8.42,5.72c-1.18,3.63-.3,7,1.63,10.07,3.06,4.91,9,5.27,12.75.82,1.37-1.64,1.35-1.89-.25-3.22ZM307.42,162.08c-2,2.73-1.73,7.71.5,10a4.57,4.57,0,0,0,5,1.11,5.27,5.27,0,0,0,3.16-2.94c.61-1.21,1.17-2.45,1.84-3.63.47-.83,1.15-1.51,2.24-1.16a1.92,1.92,0,0,1,1.21,2.35,28.35,28.35,0,0,1-.85,3.45c.58.21,1.31.4,2,.71s1.11,0,1.34-.64a9.07,9.07,0,0,0,0-6.68,4.42,4.42,0,0,0-4.12-3,4.61,4.61,0,0,0-4.46,2.5c-.44.8-.79,1.65-1.21,2.47a20,20,0,0,1-1.1,2,2.18,2.18,0,0,1-2.47,1.08,1.79,1.79,0,0,1-1.16-2.13c.14-1.44.5-2.85.8-4.43Zm-1.16,78.49c.51-.41.94-.69,1.31-1a9.08,9.08,0,0,0,1.73-11.1c-2.08-3.69-7.24-6.16-11-5.25-3.3.8-5.84,4.32-6,8.25-.08,2.55.12,2.74,2.6,2.5.31,0,.62-.08,1-.13-.11-.41-.22-.74-.29-1.08-.57-2.5.89-5.22,3.08-5.77,2.71-.67,6.55,1.3,7.89,4.06,1.17,2.42.42,4.78-2.28,6.93C304.94,238.76,305.54,239.59,306.26,240.57Zm-97-212.06c-.35-.31-.62-.59-.94-.82A7.91,7.91,0,0,0,197,29.58a12.2,12.2,0,0,0-1.78,10.07,7.86,7.86,0,0,0,10.42,5.48c1.74-.66,1.85-.88,1.23-2.59-.18-.52-.39-1-.61-1.62l-.75.5a4.26,4.26,0,0,1-6.66-2.28,8.61,8.61,0,0,1,1.32-7.74,4,4,0,0,1,5.08-1.55,15.91,15.91,0,0,1,2.29,1.27ZM60.17,80.58a18.11,18.11,0,0,1-.87-1.72c-.35-.9-.89-1-1.67-.56A8.58,8.58,0,0,0,53.55,83a4.93,4.93,0,0,0,1.38,5.57,4.54,4.54,0,0,0,4.9,1c1.35-.49,2.68-1,4.05-1.46a2.21,2.21,0,0,1,2.57.83,1.84,1.84,0,0,1-.39,2.5,17.79,17.79,0,0,1-2.51,2,6.48,6.48,0,0,1-1.11.48c.39.83.77,1.53,1,2.27s.68.86,1.37.52a8.59,8.59,0,0,0,5-6.21,4.88,4.88,0,0,0-2.1-5.24,5,5,0,0,0-5-.54c-1.27.46-2.54,1-3.84,1.32a1.68,1.68,0,0,1-2.15-.83,1.87,1.87,0,0,1,.41-2.32C58,82.05,59,81.42,60.17,80.58ZM70.72,65.36a9.1,9.1,0,0,0-6.8,6.81c-.92,5,2.82,10.88,7.76,12.19,4.2,1.11,9.47-2.88,9.57-7.28a1.17,1.17,0,0,0-.47-.91,25.55,25.55,0,0,0-2.59-.81c0,.51,0,.9-.09,1.29-.25,2.44-2.53,4.48-4.7,4.2-3.35-.43-6.63-4.72-6.12-8.07.37-2.44,2-3.67,4.36-4.27ZM42,235.27c-.66.12-1.36.29-2.06.35s-1.14.52-.92,1.19a26.15,26.15,0,0,0,1.91,4.95,4.43,4.43,0,0,0,5,2,5,5,0,0,0,3.75-4.48c.09-1,0-2.08.06-3.11a11.31,11.31,0,0,1,.68-3.46,1.47,1.47,0,0,1,2.75-.13,14.31,14.31,0,0,1,1.2,3.44,6.07,6.07,0,0,1,0,1.49c1-.11,1.76-.25,2.55-.29s.87-.38.84-1a9.14,9.14,0,0,0-3.35-6.9,4.46,4.46,0,0,0-6,.13,5.45,5.45,0,0,0-2,4.2c0,1.52,0,3-.13,4.55-.08,1-.4,1.94-1.62,2.06s-1.73-.75-2-1.7S42.2,236.44,42,235.27ZM55.83,113.15,49,108.94l3-5.59-2.61-1.6-3.06,5.57-3.12-1.92c1.41-2.59,2.76-5.1,4.15-7.66l-2.74-1.65-5.88,10.85,15.34,9.4Zm79.54,235.59H140v-3.58H127.3v3.69h4.59v16.67a18.28,18.28,0,0,1,2.11,0c1.12.13,1.41-.32,1.39-1.41,0-4.59,0-9.18,0-13.78ZM24.52,154.62c-.43,5.25-.85,10.36-1.28,15.58l3.12.28.54-5.78L41.37,166l.28-3.66L27.22,161l.4-6.05Zm206-116.69-5.43,14.33,3.22,1.39c1.84-4.8,3.64-9.52,5.47-14.32l5.33,2.25,1.16-3.08-13.66-5.86-1.15,3.08ZM25,192.53c.87,5.21,1.71,10.26,2.56,15.4l3.09-.61c-.31-2-.6-3.8-.91-5.72L44,198.9l-.59-3.61-14.32,2.64-1-6Zm5.9,26.37c2,4.88,3.83,9.58,5.76,14.39L39.52,232l-2.09-5.37,13.37-6-1.36-3.38-13.39,6-2.27-5.59ZM258.41,361.82V345.21c-.79,0-1.47.06-2.13,0-1-.12-1.36.25-1.35,1.32.06,5.91,0,11.82,0,17.73,0,.38,0,.76.08,1.2H266.3v-3.63Zm-32.56-50.3c-1.84-6-3.63-11.88-5.47-17.87l-10.75,3.72c.36,1.16.67,2.13,1,3.14L218,298l4.52,14.68ZM122.06,345.17v1.53c0,5.55,0,11.1,0,16.65,0,2.43-.45,2.11,2.26,2.19,1,0,1.29-.28,1.28-1.28,0-5.95,0-11.9,0-17.85,0-.39,0-.78-.06-1.24ZM19.85,365.46V345.2H16.54v20.26Zm79.43-64.22c2.82-5.62,5.54-11.07,8.3-16.59l-3.08-1.75-8.3,16.61ZM238.43,58.52l7.47-17-3.16-1.56-7.49,17ZM207.56,297.63l-3.21.8c-.06.17-.09.21-.08.25,1.24,5.81,2.47,11.62,3.74,17.43a.87.87,0,0,0,.71.5c.93-.16,1.83-.44,2.82-.7C210.2,309.77,208.9,303.78,207.56,297.63Zm-71.25,18.5,3.42.84c1.34-6.19,2.64-12.18,4-18.29l-3.4-.86C139,304,137.66,310,136.31,316.13Zm-63-254.49c3.64,5,7.24,9.86,10.9,14.82L87,74.18c-3.65-5-7.24-9.83-10.89-14.81ZM46,206.16c-5.52,1.8-10.86,3.53-16.2,5.31a1,1,0,0,0-.53.8c.2,1,.53,1.89.85,2.92L47,209.7Zm26.08,49-2.24-2.84-13.57,12.1,2.26,2.82Z" transform="translate(-8.14 -6.76)"/><path class="a" d="M168.3,204.63c-1.24-1-2.32-1.8-3.35-2.68-5.22-4.42-9.38-9.61-11.42-16.25-2.6-8.45-.95-16.29,3.63-23.63a133.61,133.61,0,0,0,9.8-17.58c3.94-9.12,4.34-18.25.15-27.41,0-.1-.07-.22-.15-.46l2-1.22c.64-.39,1.3-.76,2-1.17a3.15,3.15,0,0,1,.45.44c10.21,13.78,18,28.74,22.31,45.45,2.24,8.74,2.48,17.38-.38,26a36.83,36.83,0,0,1-11.73,16.79l-1.49,1.26c1.83.34,3.36.7,4.9.89,6.5.82,12.45-.87,18-4.17.92-.55,1.56-.61,2.25.18l.1.07c2.5,2,2.49,2,1.28,5C201.06,220,190.68,227.85,176,228.81c-13.42.88-24.49-4.32-31.56-16.37-1.49-2.53-2.57-5.31-3.87-8a1.07,1.07,0,0,1,.46-1.58c1-.65,1.83-1.84,2.81-1.93s1.9,1,2.85,1.57A24.89,24.89,0,0,0,167.33,205C167.59,204.91,167.84,204.8,168.3,204.63ZM175,128.74c0,.42-.06.56-.07.7-.24,2.7-.26,5.45-.76,8.1-1.34,7.09-4.64,13.4-8.25,19.55-1.83,3.1-3.87,6.08-5.61,9.22-3.39,6.1-4.25,12.52-1.75,19.16,2.82,7.45,8.37,12.52,14.9,16.68a1.33,1.33,0,0,0,1.16-.08c13.47-8.79,17.81-21.76,15.45-35.67-2.23-13.13-7.51-25.22-14.34-36.62C175.54,129.49,175.32,129.23,175,128.74ZM148,208.93c3.51,9,16,16,27.19,15.26,11-.72,23.11-8.65,25.18-16.53-.3.09-.56.15-.81.24a31.85,31.85,0,0,1-22.63.21,5.55,5.55,0,0,0-4.29.1c-5.4,2.21-11,3.41-16.86,2.53C153.19,210.35,150.63,209.55,148,208.93Z" transform="translate(-8.14 -6.76)"/><path class="a" d="M180.68,261.46c-1-.39-1.84-.77-2.68-1a2.55,2.55,0,0,0-3,1,3.53,3.53,0,0,0-.07,4,2.84,2.84,0,0,0,2.92,1.47,3.49,3.49,0,0,0,3.24-3.89c-.16-2.47-.35-4.93-.54-7.49-2.55.16-5,.31-7.39.48-1.43.1-2.87.31-4.3.29-.71,0-1.4-.53-2.12-.63-3.17-.44-6.34-.81-9.59-1.22l-.2-1.09-.51,1.13-3.53-.79c-1.47,5.91-2.92,11.7-4.4,17.59l-3-.76c1.46-5.88,2.9-11.68,4.35-17.55l-7.23-2-6.47,16.82-2.88-1.12c2.16-5.65,4.29-11.23,6.48-16.93l-3.46-1.42.93-2.4c.4.14.71.22,1,.35a86.67,86.67,0,0,0,18.08,5.47c3.27.66,6.72.5,10,1.27,3.95.94,7.8.13,11.69.06a12.24,12.24,0,0,0,1.41-.22l-8.12-6.56,1.85-2.49c.7.66,1.31,1.22,1.91,1.8,2.25,2.16,4.48,4.34,6.77,6.46a2.26,2.26,0,0,0,1.56.58c2.93-.38,5.84-.86,8.76-1.31l1.44-.24.5,2.52-2.59.59a9.73,9.73,0,0,0,.72.67c1.83,1.29,3.65,2.6,5.51,3.85a2.24,2.24,0,0,1,1.15,1.82,11.43,11.43,0,0,0,.26,1.42c.37,1.9.13,2.43-1.54,3.38a6.14,6.14,0,0,1-9.24-4.21c-.32-1.69-.69-3.37-1-5.07-.12-.76-.41-1-1.18-.87s-1.56.24-2.49.37q.6,8.77,1.23,17.86l-3.06.24c-.14-1.75-.27-3.41-.42-5.27-.53.28-.92.51-1.33.71a6.35,6.35,0,0,1-7.65-1.89,5.84,5.84,0,0,1,.28-7.41,6.43,6.43,0,0,1,6.57-1.81.9.9,0,0,1,.45.49C180.08,259.35,180.34,260.31,180.68,261.46Zm10.08-4.86-.25.18c.26,1.36.51,2.73.79,4.09.39,1.91,1.07,2.69,2.51,2.93a4.11,4.11,0,0,0,4.08-2.06Z" transform="translate(-8.14 -6.76)"/><path class="a" d="M252.62,238.85c-.31.41-.61.83-1,1.32l-7.21-6.71-4,4.26c.56.55,1.06,1.05,1.56,1.53.85.81.7,2.08-.42,2.19a25,25,0,0,1-5.67-.15c-1-.13-1-1.16-.61-2a9.34,9.34,0,0,1,.88-1.3l-4.08-3.84-3.28,3.48-1.2-.87.39,1-2.95,2.05,10.14,15-2.56,1.76-10.16-15-3.08,2-1.13-1.34.55,1.6-1.14.79c.31.68.64,1.39,1,2.09.59,1.23,1.24,2.43,1.76,3.68a4.92,4.92,0,0,1-2.57,6.72,5.07,5.07,0,0,1-6.84-2.33c-.78-1.48-1.49-3-2.23-4.51-.17-.35-.37-.69-.51-1l-6.33,2.22c1.65,5.77,3.29,11.52,5,17.35l-3,.86c-1.68-5.81-3.34-11.57-5-17.43l-3.58,1c-.24-.82-.48-1.6-.75-2.49,1.53-.45,3-.93,4.43-1.29a58.51,58.51,0,0,0,11.18-4.22A122.55,122.55,0,0,0,225,236.77a31.41,31.41,0,0,0,5.58-4.87q4.43-4.74,8.84-9.49a12,12,0,0,0,.76-1l2,1.83-1.88,2.18,13.22,12.32-.95,1.15ZM211,247.79c1,2.09,2,4.08,3,6a2.11,2.11,0,0,0,2.59,1.2,1.82,1.82,0,0,0,1.21-2.4c-.86-2.25-1.94-4.41-3-6.66ZM234.15,232l4.18,3.9,4-4.32-4.18-3.89Z" transform="translate(-8.14 -6.76)"/><path class="a" d="M173.52,300.79a9.69,9.69,0,1,1-9.71,9.62A9.69,9.69,0,0,1,173.52,300.79Z" transform="translate(-8.14 -6.76)"/><path class="a" d="M94.56,235.23v4.12l-3.07-.82c.18-1.53.42-3,.48-4.44a5.65,5.65,0,0,0-.46-2,20,20,0,0,1-1-2.66,2.09,2.09,0,0,1,1.82-2.51,2.14,2.14,0,0,1,2.3,2.1c0,.32,0,.64,0,1,0,.67-.52,1.49.36,1.95a18.39,18.39,0,0,0,3.51,1.59c.42.12,1.08-.61,1.63-.95a4.89,4.89,0,0,0-.92-1.38,6.39,6.39,0,0,1-.43-9.5c1.09-1,2.46-.8,3.52.57,1.72,2.21,3.38,4.46,5.06,6.7l2.29,3,1.7-1.27L100.7,216.54l2.1-1.61L117,233.82l-2.1,1.57-1.7-2.14L98.76,244.16l-1.89-2.48c3.59-2.7,7.09-5.33,10.7-8.06l-7.3-9.7a26.26,26.26,0,0,0-.69,3.46,2.8,2.8,0,0,0,.68,1.45,3.31,3.31,0,0,0,.84.67c2,1.38,2.52,2.48,2,4a4.49,4.49,0,0,1-4.7,2.8A31.63,31.63,0,0,1,94.56,235.23Z" transform="translate(-8.14 -6.76)"/><path class="a" d="M125.9,241.65l-.65.59-3-2.07-10.65,14.66-2.54-1.8,10.68-14.71-3-2.21,1.59-2.21A100.28,100.28,0,0,0,137,245.61c-.26.49-.44.87-.64,1.24s-.41.68-.67,1.13c-3.14-1.74-6.25-3.44-9.32-5.2C126.06,242.63,126,242.05,125.9,241.65Z" transform="translate(-8.14 -6.76)"/><path class="a" d="M126.78,183.21v2c-1.12.39-2.24.71-3.29,1.18a6.15,6.15,0,0,0-3.31,3.86,19.65,19.65,0,0,1-2.49,4.59A5.73,5.73,0,0,1,113,197c-.8.05-1.6,0-2.4,0-1.7,0-1.7-.05-1.8-1.79,0-.07.08-.17.14-.19,3.64-.92,5.83-3.4,7.36-6.66,1.09-2.32,2.61-4.3,5.29-4.8A47.29,47.29,0,0,1,126.78,183.21Z" transform="translate(-8.14 -6.76)"/><path class="a" d="M144.78,84.73a10,10,0,0,0,4.52,7.84c.33.23.64.48.95.73,3.76,2.93,4.68,6.41,2.85,11l-1.65-.18c-.19-1.11-.32-2.21-.56-3.28a5.71,5.71,0,0,0-3.43-4.17c-4.31-1.95-6-5.16-5.15-9.64l.21-1.06C142.87,84.32,142.87,84.32,144.78,84.73Z" transform="translate(-8.14 -6.76)"/><path class="a" d="M249.42,164.53l-1.07,1.59c-2-.83-4.12-1.5-6.3-.92a38.86,38.86,0,0,0-4.18,1.43c-4.32,1.69-7.87.69-10.83-3.14l1-1.33c1.22.45,2.31,1,3.45,1.25a6.42,6.42,0,0,0,4.91-.86,16.58,16.58,0,0,1,5.43-2,6.83,6.83,0,0,1,3.91,1.06A26.8,26.8,0,0,1,249.42,164.53Z" transform="translate(-8.14 -6.76)"/><path class="a" d="M222.44,131.37c1.31-.31,2.57-.53,3.78-.91a6.07,6.07,0,0,0,3.39-3.18,25.62,25.62,0,0,1,3.21-4.41,4.78,4.78,0,0,1,3.93-1.47c1.62.06,3.24.34,4.81.52.29,1.86.28,1.87-1.32,2.22a9.16,9.16,0,0,0-5.47,3.42c-.73.95-1.43,1.93-2.14,2.89-2.72,3.67-6.15,3.73-9.88,2.75C221.58,132.89,222.55,132,222.44,131.37Z" transform="translate(-8.14 -6.76)"/><path class="a" d="M225.64,102.27l-.88.55a9.35,9.35,0,0,0-4.38,5.48c-.32,1.07-.61,2.15-1,3.21a8.37,8.37,0,0,1-8.86,5.82c-.64-1.57-.64-1.56.78-2.32,2.43-1.29,4.06-3,4.21-6a13.92,13.92,0,0,1,1.53-4.74,5.27,5.27,0,0,1,3.57-2.8c.95-.29,1.94-.48,2.91-.68C225.24,100.43,225.24,100.44,225.64,102.27Z" transform="translate(-8.14 -6.76)"/><path class="a" d="M232.08,204.3c-.53.35-.82.67-1.16.74s-1,0-1.09-.16c-1.81-3.34-4.92-4.55-8.37-5.38-4.37-1.05-6.66-3.9-6.87-8.34a1.12,1.12,0,0,1,.69-.81,1.59,1.59,0,0,1,1.27.29c.61.73,1,1.64,1.58,2.39a6.22,6.22,0,0,0,4.52,2.32,24.26,24.26,0,0,1,5.46,1.57,3.19,3.19,0,0,1,1.66,1.49C230.62,200.27,231.28,202.22,232.08,204.3Z" transform="translate(-8.14 -6.76)"/><path class="a" d="M123.67,133.33l-1.39,1c-.91-.7-1.72-1.41-2.61-2a6.46,6.46,0,0,0-5.37-.72,18.53,18.53,0,0,1-5.66.35,5,5,0,0,1-2.88-1.51,45.28,45.28,0,0,1-3.33-4.4l1.19-1a37.79,37.79,0,0,0,5.64,2.27,16.84,16.84,0,0,0,4.75-.07C118.91,126.94,121.66,128.62,123.67,133.33Z" transform="translate(-8.14 -6.76)"/><path class="a" d="M120,163.06c-.08,1.47-.59,1.91-2,1.74a6.61,6.61,0,0,0-6.66,2.83,14.84,14.84,0,0,1-4.1,3.42,5.51,5.51,0,0,1-4.76.24c-1-.3-1.88-.68-2.82-1-.52-.19-1.08-.3-.83-1.14.19-.66.35-1.1,1.23-1.05a9.35,9.35,0,0,0,7.2-2.7c.59-.54,1.2-1.06,1.78-1.6a7.66,7.66,0,0,1,8.53-1.7C118.44,162.38,119.24,162.73,120,163.06Z" transform="translate(-8.14 -6.76)"/><path class="a" d="M173.71,100.06c-1.62-.59-1.62-.59-1.26-2.14a7.08,7.08,0,0,0-1.83-7.24c-1.93-2-3.49-4.47-2.62-7.46a38,38,0,0,1,2.48-5.33l1.8.79c0,.36-.06.67-.12,1a9.5,9.5,0,0,0,1.44,7.43,34.39,34.39,0,0,1,2.09,3.5C177.14,93.55,176.35,97.13,173.71,100.06Z" transform="translate(-8.14 -6.76)"/><path class="a" d="M162.35,101.5c-1.47-.09-1.91-.59-1.75-2a6.57,6.57,0,0,0-2.83-6.67,14.43,14.43,0,0,1-3.36-4,5.57,5.57,0,0,1-.3-4.88c.3-.95.68-1.87,1-2.81.19-.53.31-1.08,1.14-.84.67.2,1.11.36,1.05,1.24a9.39,9.39,0,0,0,2.78,7.28c.54.59,1.06,1.2,1.61,1.78a7.63,7.63,0,0,1,1.61,8.44C163,99.9,162.68,100.7,162.35,101.5Z" transform="translate(-8.14 -6.76)"/><path class="a" d="M199.31,83.47l1.2,1.31c0,.16,0,.26,0,.31-2.28,2.83-2.62,6-2,9.49.91,5.08-.8,8.18-5.54,10.4l-1-1.3c.72-1.09,1.47-2.07,2.07-3.14a6.26,6.26,0,0,0,.32-4.85,19.35,19.35,0,0,1-.64-5.76,5.72,5.72,0,0,1,1.6-3.21A36.42,36.42,0,0,1,199.31,83.47Z" transform="translate(-8.14 -6.76)"/><path class="a" d="M201.56,108.77c.74-.94,1.47-1.89,2.24-2.82a5.85,5.85,0,0,0,1.37-4.55,20.9,20.9,0,0,1,0-3.71,6.62,6.62,0,0,1,4.16-5.83c.66-.29,1.31-.58,2-.85,1.59-.64,1.59-.64,2.3,1.17-3.37,2.32-4,5.88-4.17,9.67-.19,4.59-2.71,6.62-6.85,8C201.26,110.28,201.61,109,201.56,108.77Z" transform="translate(-8.14 -6.76)"/><path class="a" d="M246.77,179.66c-.54.51-1,.88-1.42,1.31-.27-.16-.54-.31-.79-.47a9.76,9.76,0,0,0-7.47-1.31,23.09,23.09,0,0,1-5.19.72c-3.4-.12-5.31-2.54-7-5.1,1.14-1.43,1.14-1.43,2.54-.48,2.29,1.55,4.56,2.09,7.3.86a11.87,11.87,0,0,1,5.37-.77,6.62,6.62,0,0,1,3.47,1.62A30.82,30.82,0,0,1,246.77,179.66Z" transform="translate(-8.14 -6.76)"/><path class="a" d="M228.27,142.13c2.86,0,5-.74,6.65-3.23a8.43,8.43,0,0,1,6-4.24c2.19-.27,4.15.62,6.12,1.37.2.07.3.77.21,1.11a1.28,1.28,0,0,1-.77.8c-.69.16-1.43.08-2.14.19a9,9,0,0,0-4.82,2.49c-.87.83-1.71,1.69-2.58,2.5-3,2.8-6.22,2.58-10,.9a1,1,0,0,1-.28-.94,1.76,1.76,0,0,1,.75-1C227.63,142,228.07,142.12,228.27,142.13Z" transform="translate(-8.14 -6.76)"/><path class="a" d="M135.81,116.13l-1.62.5c-.68-1-1.29-2-2-3a5.5,5.5,0,0,0-4.45-2.2c-5.14-.09-7.73-2.17-8.9-7.12-.09-.39-.17-.78-.26-1.17-.12-.56-.26-1.05.53-1.33s1.12-.26,1.55.48a9.2,9.2,0,0,0,6,4.38l1.85.47c4.54,1.1,6.56,3.33,7.2,8C135.76,115.43,135.78,115.74,135.81,116.13Z" transform="translate(-8.14 -6.76)"/><path class="a" d="M97.8,154.73c.28-1.35.7-1.93,2.07-1.55a8.84,8.84,0,0,0,6.9-1.19c1.17-.68,2.32-1.42,3.54-2,3.7-1.76,6.7-.13,9.56,2-.47,1.73-.54,1.78-2.19,1.32a7,7,0,0,0-7.18,1.58c-2.38,2.13-5.24,3.7-8.65,2.11C100.46,156.38,99.16,155.51,97.8,154.73Z" transform="translate(-8.14 -6.76)"/><path class="a" d="M109,112.44l1.65-1a9.89,9.89,0,0,0,7.76,4c.64,0,1.27.07,1.91.09a7.85,7.85,0,0,1,7.54,5.12c.31.73.58,1.47.93,2.34l-1.63.83c-.7-.76-1.33-1.53-2-2.21a5.9,5.9,0,0,0-5.47-1.68c-4.66.85-7.79-.9-9.68-5.24C109.68,114,109.38,113.27,109,112.44Z" transform="translate(-8.14 -6.76)"/><path class="a" d="M144.1,109.25c-1.26.49-1.93.32-2.33-1a6.66,6.66,0,0,0-5.41-5.1,13.43,13.43,0,0,1-4.56-2.26,5.66,5.66,0,0,1-2.25-4.46c-.11-1-.13-1.91-.2-2.86,0-.57-.11-1.1.7-1.25s1.23,0,1.54.8a9.09,9.09,0,0,0,5,5.25c.91.42,1.81.84,2.72,1.24,3.22,1.4,4.68,4,4.83,7.35C144.13,107.72,144.1,108.47,144.1,109.25Z" transform="translate(-8.14 -6.76)"/><path class="a" d="M184.54,101.07l-1.43-1.2c.5-1.39,1-2.67,1.42-4a5.58,5.58,0,0,0-.69-4.14A18.79,18.79,0,0,1,182,86.85a6.37,6.37,0,0,1,.62-3.89A30.43,30.43,0,0,1,186,78.61c1.38.56,1.77,1.15,1.15,2.44a8.55,8.55,0,0,0-.18,6.66c.33,1,.67,1.88,1,2.82a7.78,7.78,0,0,1-1.66,8.56C185.74,99.71,185.19,100.34,184.54,101.07Z" transform="translate(-8.14 -6.76)"/><path class="a" d="M234.77,110.33,235,112a1.53,1.53,0,0,1-.39.27,10,10,0,0,0-6.58,5.83c-.15.32-.33.64-.5,1-2.25,4.37-5.34,5.87-10.24,5-.45-1.7-.46-1.7,1.22-2.2,2.65-.79,4.53-2.21,5.25-5.14a13.64,13.64,0,0,1,2.36-4.25,5.06,5.06,0,0,1,3.9-2.07C231.53,110.24,233.09,110.33,234.77,110.33Z" transform="translate(-8.14 -6.76)"/><path class="a" d="M250.14,149.94l-.7,1.66c-.53-.07-1-.12-1.46-.2a9.24,9.24,0,0,0-6.74,1.47c-1.15.72-2.28,1.5-3.47,2.14-3.46,1.86-6.74.43-9.34-1.54-.27-.21.06-1.2.11-1.9,1.2.25,2.09.47,3,.6a5.81,5.81,0,0,0,5.29-1.59c3.88-4,7-4.38,11.77-1.58C249.07,149.28,249.54,149.58,250.14,149.94Z" transform="translate(-8.14 -6.76)"/><path class="a" d="M102.93,182.69c3.82-.05,6.38-2.15,8.61-5,3-3.78,5.84-4.54,10.39-3.11.62.19,1,.42.82,1.16s-.26,1-1,1a15.08,15.08,0,0,0-3.07.46A5.38,5.38,0,0,0,115.2,180a20.16,20.16,0,0,1-1.58,2.39,7.17,7.17,0,0,1-8.13,2.9l-1.4-.34C102.48,184.55,102.48,184.55,102.93,182.69Z" transform="translate(-8.14 -6.76)"/><path class="a" d="M241,193.28l-1.81,1.1a17.82,17.82,0,0,0-1.32-1.54,9.41,9.41,0,0,0-6.1-2.44c-1-.07-2.08-.1-3.11-.22a8.33,8.33,0,0,1-7.43-7.38l1.46-.76c.7.76,1.34,1.53,2.06,2.2a6.25,6.25,0,0,0,5.38,1.71,19.08,19.08,0,0,1,5.1.3,4.7,4.7,0,0,1,3.35,2.34C239.45,190.09,240.18,191.68,241,193.28Z" transform="translate(-8.14 -6.76)"/><path class="a" d="M121.05,143.77,119.88,145c-.82-.43-1.6-.9-2.42-1.28a6.16,6.16,0,0,0-6,.2c-4.09,2.34-7.56,1.75-10.79-1.64-.55-.57-1.07-1.17-1.68-1.85l1.19-1.44a9.64,9.64,0,0,0,6.78,1.5c1.21-.23,2.4-.59,3.59-.93C115.06,138.27,118.51,139.63,121.05,143.77Z" transform="translate(-8.14 -6.76)"/><path class="a" d="M164.25,262a19.71,19.71,0,0,1-.4,2.61,2,2,0,0,1-.92,1.21,1.55,1.55,0,0,1-1.32-.49,37.3,37.3,0,0,1-2.85-4.12,1.51,1.51,0,0,1,1.41-2.34c3.61.34,7.2.83,10.91,1.27l-.29,2.62Z" transform="translate(-8.14 -6.76)"/><path class="a" d="M136.71,253.15l-1.28,2.31-5.78-3.16a20.77,20.77,0,0,1-1.29,2.21,2,2,0,0,1-1.27.83,1.63,1.63,0,0,1-1.14-1,35.56,35.56,0,0,1-1.11-4.75,1.56,1.56,0,0,1,2.42-1.65C130.4,249.62,133.48,251.37,136.71,253.15Z" transform="translate(-8.14 -6.76)"/><path class="a" d="M252.59,238.88l6.22-.25c1.93-.09,1.93-.09,2.11,2.08L252.41,242c.07-1.11.14-2.12.21-3.13Z" transform="translate(-8.14 -6.76)"/><path class="a" d="M79.1,353.48v-4.61c1.56,0,3.07-.11,4.55,0,1.22.12,1.49,1.17,1.5,2.25,0,1.35-.49,2.2-1.59,2.29C82.11,353.57,80.64,353.48,79.1,353.48Z" transform="translate(-8.14 -6.76)"/><path class="a" d="M286.71,348.81c.84,0,1.55,0,2.27,0,2.3.05,3.54.87,3.76,3.15a35.16,35.16,0,0,1-.12,7.25c-.21,1.85-1.22,2.47-3.07,2.55-.91,0-1.82,0-2.84,0Z" transform="translate(-8.14 -6.76)"/><path class="a" d="M228.4,355.24a35.32,35.32,0,0,1-1,4.34,3.46,3.46,0,0,1-3.35,2.47,3.53,3.53,0,0,1-3.46-2.34,11.22,11.22,0,0,1,0-9,3.44,3.44,0,0,1,3.42-2.2,3.37,3.37,0,0,1,3.34,2.29A36.5,36.5,0,0,1,228.4,355.24Z" transform="translate(-8.14 -6.76)"/><path class="a" d="M159.6,355.27a31.59,31.59,0,0,1-.94,4.22,3.51,3.51,0,0,1-3.42,2.55,3.55,3.55,0,0,1-3.5-2.45,11.44,11.44,0,0,1,0-8.66,3.7,3.7,0,0,1,7,.12A33.21,33.21,0,0,1,159.6,355.27Z" transform="translate(-8.14 -6.76)"/><path class="a" d="M311.1,133.78l4.52-1.55c.2,1.36.46,2.58.53,3.82.05.93-.67,1.36-1.5,1.61a1.61,1.61,0,0,1-2.09-.63C312,136,311.62,135,311.1,133.78Z" transform="translate(-8.14 -6.76)"/><path class="a" d="M310.16,213.76c1.38.53,2.51.92,3.59,1.42a1.09,1.09,0,0,1,.4,1,9.88,9.88,0,0,1-.89,2.09,1.71,1.71,0,0,1-2.27,1c-1.19-.43-1.8-1.18-1.62-2.33C309.53,215.92,309.86,214.94,310.16,213.76Z" transform="translate(-8.14 -6.76)"/><path class="a" d="M267.51,282c.08,2.44-.83,3.58-2.29,4.32a3.36,3.36,0,0,1-3.91-.53,11.1,11.1,0,0,1-3.75-5.85,4.26,4.26,0,0,1,1.78-4.73,2.75,2.75,0,0,1,3.06-.28A10.12,10.12,0,0,1,267.51,282Z" transform="translate(-8.14 -6.76)"/><path class="a" d="M246.63,57.4a10.74,10.74,0,0,1,3.86-7,3.76,3.76,0,0,1,6,2.57c.35,2.64-2,7.09-4.33,8.33S246.63,60.77,246.63,57.4Z" transform="translate(-8.14 -6.76)"/><path class="a" d="M47.61,123.11c0,2.82-1.85,4.41-4.6,4a10.24,10.24,0,0,1-5.53-2.67,4,4,0,0,1-.84-5.41,3.58,3.58,0,0,1,4.75-1.65A17.58,17.58,0,0,1,46.14,120c.84.66,1.2,2,1.77,3Z" transform="translate(-8.14 -6.76)"/><path class="a" d="M165.84,38.74c0-3.78,0-7.53,0-11.29a1,1,0,0,1,.67-.71c2.73-.44,4.9.92,5.27,3.61a14.28,14.28,0,0,1-.19,5.09C171,38.14,169,39.27,165.84,38.74Z" transform="translate(-8.14 -6.76)"/><path class="a" d="M117.24,293.4c-1.65,3.6-3.28,7.14-4.89,10.66a4.49,4.49,0,0,1-4-5.19,13.6,13.6,0,0,1,1.8-4.37C111.93,291.74,114.39,291.41,117.24,293.4Z" transform="translate(-8.14 -6.76)"/><path class="a" d="M306,107.54c1.1,1.95,1.93,3.82.79,5.94s-4.65,3.79-7.09,3.45c-2.24-.3-3.14-1.94-3.82-3.91Z" transform="translate(-8.14 -6.76)"/><path class="a" d="M48.37,354.18v-5.37c1.69.22,3.51-.68,4.8,1a3,3,0,0,1-.06,3.37C51.81,354.72,50.05,354.05,48.37,354.18Z" transform="translate(-8.14 -6.76)"/><path class="a" d="M218.16,42.72l-3.29-1L217.94,37l.22.07Z" transform="translate(-8.14 -6.76)"/><path class="a" d="M233.09,295.57l.48,5.63-.21.14L229.81,297Z" transform="translate(-8.14 -6.76)"/><path class="a" d="M90.42,287.53c.47-1.76,1-3.52,1.48-5.46l2.94,2.1L90.6,287.7Z" transform="translate(-8.14 -6.76)"/><path class="a" d="M282.23,86.56l-2.34-2.85,4.89-2.21.22.16Z" transform="translate(-8.14 -6.76)"/><path class="a" d="M310.64,196.31l5.07,2.86-5.66.86C310.25,198.76,310.43,197.65,310.64,196.31Z" transform="translate(-8.14 -6.76)"/></svg>