<?xml version="1.0" encoding="UTF-8" standalone="no"?>
<svg
   xmlns:dc="http://purl.org/dc/elements/1.1/"
   xmlns:cc="http://creativecommons.org/ns#"
   xmlns:rdf="http://www.w3.org/1999/02/22-rdf-syntax-ns#"
   xmlns:svg="http://www.w3.org/2000/svg"
   xmlns="http://www.w3.org/2000/svg"
   version="1.1"
   viewBox="0 0 314.33 119.7"
   data-name="Calque 1"
   id="Calque_1">
  <metadata
     id="metadata49">
    <rdf:RDF>
      <cc:Work
         rdf:about="">
        <dc:format>image/svg+xml</dc:format>
        <dc:type
           rdf:resource="http://purl.org/dc/dcmitype/StillImage" />
        <dc:title>LogoIP</dc:title>
      </cc:Work>
    </rdf:RDF>
  </metadata>
  <defs
     id="defs4">
    <style
       id="style2">.cls-1,.cls-2{fill:#241f20;}.cls-2{stroke:#241f20;stroke-width:1.01px;}</style>
  </defs>
  <title
     id="title6">LogoIP</title>
  <g
     style="display:inline"
     id="layer2">
    <path
       id="path8"
       transform="translate(-42.41,-40.64)"
       d="m 321.89,62.43 v 22.52 c 11.65,0 19.28,-10.26 19.28,-21.4 0,-6.11 -2.76,-14.67 -10.35,-14.67 -7,0 -8.9,8 -8.9,13.55"
       class="cls-1"
       style="fill:#ffffff;stroke:none" />
    <path
       id="path10"
       transform="translate(-42.41,-40.64)"
       d="m 343.91,53.76 a 21,21 0 0 1 2.43,10 c 0,13.91 -10,27.59 -24.13,29.83 V 123 h 5.12 c 7.73,0 10.53,-1.53 13,-3.54 a 44.39,44.39 0 0 0 3.57,-65.67"
       class="cls-1"
       style="fill:#ffffff;stroke:none" />
    <path
       id="path12"
       transform="translate(-42.41,-40.64)"
       d="m 312.41,40.64 a 44.29,44.29 0 0 0 -36.86,19.7 6.89,6.89 0 0 1 1.14,3.71 5.13,5.13 0 0 1 -1.2,3.38 5.34,5.34 0 0 1 -4.12,1.79 v 0 h -0.38 a 44.48,44.48 0 0 0 13.57,50.35 c 3,2.42 5.36,3.42 13,3.42 h 2.64 c 7,0 8.81,-2 8.81,-7 0,-4.57 0,-22.32 0,-22.32 -15.29,-4.32 -25.46,-12.34 -34.72,-21.2 a 8.87,8.87 0 0 1 6.35,-3.2 c 8.35,0 16.11,10.41 28,13.89 V 69.69 c 0,-11.93 7.48,-24.39 20.57,-24.39 a 18.66,18.66 0 0 1 3.81,0.37 44.09,44.09 0 0 0 -20.61,-5.03 z"
       class="cls-1"
       style="fill:#ffffff;stroke:none" />
    <path
       style="fill:#ffffff;stroke:#ffffff;stroke-width:1.00999999px"
       id="path14"
       transform="translate(-42.41,-40.64)"
       d="m 46.58,159.67 c -0.28,-11 -0.28,-20.17 0,-31 a 18.55,18.55 0 0 1 -3.65,0 c 0.23,10.84 0.27,20 0,31 a 18.55,18.55 0 0 1 3.65,0 z"
       class="cls-2" />
    <path
       style="fill:#ffffff;stroke:#ffffff;stroke-width:1.00999999px"
       id="path16"
       transform="translate(-42.41,-40.64)"
       d="m 71.58,159.67 v -16.84 a 7.45,7.45 0 0 0 -7.5,-7.45 h -8.2 a 2.8,2.8 0 0 0 -2.82,2.82 v 21.47 a 15.82,15.82 0 0 1 3.37,0 c -0.16,-6.16 -0.24,-14.84 0,-21 0,0 3.22,-0.15 7.38,-0.08 a 4.31,4.31 0 0 1 4.43,4.41 c 0.2,2.47 0,13 -0.07,16.72 a 16.2,16.2 0 0 1 3.41,-0.05 z"
       class="cls-2" />
    <path
       style="fill:#ffffff;stroke:#ffffff;stroke-width:1.00999999px"
       id="path18"
       transform="translate(-42.41,-40.64)"
       d="m 92.54,153.39 a 6.45,6.45 0 0 0 -4.05,-5.85 l -6.39,-2.43 a 3.43,3.43 0 0 1 -2.1,-3.18 3.36,3.36 0 0 1 3.53,-3.26 70,70 0 0 1 8.48,0.08 10.33,10.33 0 0 1 0,-3.14 h -9.17 a 6.31,6.31 0 0 0 -2.43,12.13 l 6.44,2.47 a 3.19,3.19 0 0 1 2.08,3 3.45,3.45 0 0 1 -3.42,3.41 62.43,62.43 0 0 1 -8.48,-0.08 10.33,10.33 0 0 1 0,3.14 h 9.15 a 6.25,6.25 0 0 0 6.36,-6.29 z"
       class="cls-2" />
    <path
       style="fill:#ffffff;stroke:#ffffff;stroke-width:1.00999999px"
       id="path20"
       transform="translate(-42.41,-40.64)"
       d="m 107.53,159.67 a 13.74,13.74 0 0 1 0,-3.14 c -0.51,0 -1.37,0 -2.12,0 -3.65,0 -3.77,-4.2 -3.81,-4.4 -0.12,-0.7 0,-7.49 0,-13.42 a 49.49,49.49 0 0 1 6,0 10.33,10.33 0 0 1 0,-3.14 h -6 c 0,-0.94 0,-3.14 0.12,-7 a 16.57,16.57 0 0 1 -3.45,0 v 23.63 c 0,4.08 2.51,7.38 6.9,7.38 z"
       class="cls-2" />
    <path
       style="fill:#ffffff;stroke:#ffffff;stroke-width:1.00999999px"
       id="path22"
       transform="translate(-42.41,-40.64)"
       d="m 116.74,159.67 c -0.15,-7.69 -0.11,-17.23 0,-24.06 a 16.19,16.19 0 0 1 -3.41,0 c 0.16,6.83 0.16,16.41 0,24.06 a 16.2,16.2 0 0 1 3.41,0 z m 0,-28.26 a 18,18 0 0 1 0,-2.75 h -3.41 a 15.79,15.79 0 0 1 0,2.75 z"
       class="cls-2" />
    <path
       style="fill:#ffffff;stroke:#ffffff;stroke-width:1.00999999px"
       id="path24"
       transform="translate(-42.41,-40.64)"
       d="m 132.6,159.67 a 13.74,13.74 0 0 1 0,-3.14 c -0.51,0 -1.38,0 -2.12,0 -3.65,0 -3.77,-4.2 -3.81,-4.4 -0.12,-0.7 0,-7.49 0,-13.42 a 49.49,49.49 0 0 1 6,0 10.33,10.33 0 0 1 0,-3.14 h -6 c 0,-0.94 0,-3.14 0.12,-7 a 16.67,16.67 0 0 1 -3.46,0 v 23.63 c 0,4.08 2.52,7.38 6.91,7.38 z"
       class="cls-2" />
    <path
       style="fill:#ffffff;stroke:#ffffff;stroke-width:1.00999999px"
       id="path26"
       transform="translate(-42.41,-40.64)"
       d="m 156.06,156.84 v -21.23 a 16.2,16.2 0 0 1 -3.41,0 c 0.11,5.26 0.31,14.48 0,21 a 51.87,51.87 0 0 1 -5.38,0.08 6.1,6.1 0 0 1 -6.28,-6.24 c -0.08,-2.51 -0.08,-13.31 0,-14.8 a 16.29,16.29 0 0 1 -3.42,0 v 14.6 a 9.46,9.46 0 0 0 9.42,9.46 h 6.25 a 2.78,2.78 0 0 0 2.82,-2.87 z"
       class="cls-2" />
    <path
       style="fill:#ffffff;stroke:#ffffff;stroke-width:1.00999999px"
       id="path28"
       transform="translate(-42.41,-40.64)"
       d="m 172.11,159.67 a 14.33,14.33 0 0 1 0,-3.14 c -0.51,0 -1.37,0 -2.12,0 -3.65,0 -3.77,-4.2 -3.8,-4.4 -0.12,-0.7 0,-7.49 0,-13.42 a 49.32,49.32 0 0 1 6,0 11,11 0 0 1 0,-3.14 h -6 c 0,-0.94 0,-3.14 0.11,-7 a 16.58,16.58 0 0 1 -3.45,0 v 23.63 c 0,4.08 2.51,7.38 6.91,7.38 z"
       class="cls-2" />
    <path
       style="fill:#ffffff;stroke:#ffffff;stroke-width:1.00999999px"
       id="path30"
       transform="translate(-42.41,-40.64)"
       d="m 206.77,136.67 a 5.13,5.13 0 0 1 -5.1,5.26 c -1.3,0 -3.85,0 -7,0 0,-4.67 0.08,-8.83 0.2,-10.4 2.2,-0.2 5.85,-0.16 6.83,-0.16 a 5.13,5.13 0 0 1 5.07,5.3 z m 3.69,0.08 a 8.48,8.48 0 0 0 -8.64,-8.48 h -7.53 a 3.13,3.13 0 0 0 -3.14,3.18 v 28.22 a 27.78,27.78 0 0 1 3.65,0 c -0.12,-2.12 -0.2,-8.44 -0.16,-14.64 h 7.26 a 8.25,8.25 0 0 0 8.56,-8.28 z"
       class="cls-2" />
    <path
       style="fill:#ffffff;stroke:#ffffff;stroke-width:1.00999999px"
       id="path32"
       transform="translate(-42.41,-40.64)"
       d="m 228.12,150.84 a 6,6 0 0 1 -5.89,5.77 5.9,5.9 0 0 1 -5.65,-5.89 c 0,-1.84 0,-5.53 0,-7.38 a 4.69,4.69 0 0 1 3.93,-4.75 c 3.18,-0.11 7.3,0 7.53,0 0.12,3.61 0.16,7.85 0.08,12.25 z m 3.57,8.83 V 138 a 2.67,2.67 0 0 0 -2.7,-2.66 h -8 a 7.61,7.61 0 0 0 -7.69,7.49 v 7.62 a 9.36,9.36 0 0 0 9.06,9.34 7.29,7.29 0 0 0 6.05,-3.34 c 0,0.83 0,2.47 0,3.18 a 15.45,15.45 0 0 1 3.28,0.04 z"
       class="cls-2" />
    <path
       style="fill:#ffffff;stroke:#ffffff;stroke-width:1.00999999px"
       id="path34"
       transform="translate(-42.41,-40.64)"
       d="m 253.36,153.39 a 6.45,6.45 0 0 0 -4.05,-5.85 l -6.39,-2.43 a 3.44,3.44 0 0 1 -2.09,-3.18 3.37,3.37 0 0 1 3.54,-3.26 70,70 0 0 1 8.48,0.08 10.33,10.33 0 0 1 0,-3.14 h -9.19 a 6.31,6.31 0 0 0 -2.43,12.13 l 6.44,2.47 a 3.19,3.19 0 0 1 2.08,3 3.45,3.45 0 0 1 -3.42,3.41 62.43,62.43 0 0 1 -8.48,-0.08 10.33,10.33 0 0 1 0,3.14 H 247 a 6.25,6.25 0 0 0 6.36,-6.29 z"
       class="cls-2" />
    <path
       style="fill:#ffffff;stroke:#ffffff;stroke-width:1.00999999px"
       id="path36"
       transform="translate(-42.41,-40.64)"
       d="m 268.35,159.67 a 13.74,13.74 0 0 1 0,-3.14 c -0.51,0 -1.37,0 -2.12,0 -3.65,0 -3.77,-4.2 -3.81,-4.4 -0.12,-0.7 0,-7.49 0,-13.42 a 49.49,49.49 0 0 1 6,0 10.33,10.33 0 0 1 0,-3.14 h -6 c 0,-0.94 0,-3.14 0.12,-7 a 16.57,16.57 0 0 1 -3.45,0 v 23.63 c 0,4.08 2.51,7.38 6.91,7.38 z"
       class="cls-2" />
    <path
       style="fill:#ffffff;stroke:#ffffff;stroke-width:1.00999999px"
       id="path38"
       transform="translate(-42.41,-40.64)"
       d="m 287.07,145.66 c -2.71,0.16 -8.75,0.16 -11.5,0 0,-1.22 0,-2.32 0.08,-3 0.23,-2.32 1.68,-4.48 4.47,-4.44 h 2.44 c 2.78,0 4.23,2.08 4.47,4.44 a 17.62,17.62 0 0 1 0.04,3 z m 3.3,3.06 v -5.89 a 7.62,7.62 0 0 0 -7.58,-7.65 h -2.86 a 7.55,7.55 0 0 0 -7.58,7.57 v 7.54 a 9.36,9.36 0 0 0 9.38,9.38 h 7.77 a 12.4,12.4 0 0 1 0,-3.1 75.14,75.14 0 0 1 -7.65,0.12 6.19,6.19 0 0 1 -6.2,-6.32 c 0,-0.43 0,-1 0,-1.65 z"
       class="cls-2" />
    <path
       style="fill:#ffffff;stroke:#ffffff;stroke-width:1.00999999px"
       id="path40"
       transform="translate(-42.41,-40.64)"
       d="m 313.68,156.84 v -21.23 a 16.2,16.2 0 0 1 -3.41,0 c 0.11,5.26 0.31,14.48 0,21 a 51.87,51.87 0 0 1 -5.38,0.08 6.1,6.1 0 0 1 -6.28,-6.24 c -0.08,-2.51 -0.08,-13.31 0,-14.8 a 16.29,16.29 0 0 1 -3.42,0 v 14.6 a 9.46,9.46 0 0 0 9.42,9.46 h 6.25 a 2.78,2.78 0 0 0 2.82,-2.87 z"
       class="cls-2" />
    <path
       style="fill:#ffffff;stroke:#ffffff;stroke-width:1.00999999px"
       id="path42"
       transform="translate(-42.41,-40.64)"
       d="m 331.46,138.75 a 13.74,13.74 0 0 1 0,-3.14 h -3.69 a 7.38,7.38 0 0 0 -7.42,7.38 v 16.68 a 16.2,16.2 0 0 1 3.41,0 c -0.35,-10.2 -0.15,-16.41 -0.15,-16.41 a 4.43,4.43 0 0 1 4.55,-4.59 26.6,26.6 0 0 1 3.3,0.08 z"
       class="cls-2" />
    <path
       id="path44"
       transform="translate(-42.41,-40.64)"
       d="m 266.85,66.81 c 2.64,2.25 6.27,2.32 8.12,0.17 1.85,-2.15 1.19,-5.74 -1.45,-8 -2.64,-2.26 -6.27,-2.33 -8.12,-0.17 -1.85,2.16 -1.19,5.73 1.45,8"
       class="cls-1"
       style="fill:#ffffff;stroke:none" />
  </g>
</svg>
