<?xml version="1.0" encoding="UTF-8" standalone="no"?>
<!DOCTYPE svg PUBLIC "-//W3C//DTD SVG 1.1//EN" "http://www.w3.org/Graphics/SVG/1.1/DTD/svg11.dtd">
<svg width="100%" height="100%" viewBox="0 0 1689 612" version="1.1" xmlns="http://www.w3.org/2000/svg" xmlns:xlink="http://www.w3.org/1999/xlink" xml:space="preserve" xmlns:serif="http://www.serif.com/" style="fill-rule:evenodd;clip-rule:evenodd;stroke-linejoin:round;stroke-miterlimit:2;">
    <g transform="matrix(1,0,0,1,0,-712)">
        <g id="dark_bg" transform="matrix(1,0,0,1.67637,-0.0700109,709.158)">
            <rect x="0.07" y="2.08" width="1688.66" height="364.116" style="fill:none;"/>
            <g id="Layer-1" serif:id="Layer 1" transform="matrix(4.16667,0,0,2.48553,0.0700109,0.887252)">
                <g>
                    <g transform="matrix(1,0,0,1,253.552,27.28)">
                        <path d="M0,45.689L0,16.622L-5.904,16.622L-5.904,12.196L0,12.196L0,11.174C0,9.379 0.281,7.785 0.846,6.392C1.409,4.999 2.222,3.828 3.28,2.878C4.338,1.929 5.628,1.212 7.147,0.727C8.667,0.242 10.381,0 12.292,0C13.765,0 15.227,0.175 16.677,0.526L16.332,5.169C15.848,5.087 15.301,5.02 14.691,4.968C14.081,4.917 13.478,4.891 12.879,4.891C10.808,4.891 9.207,5.432 8.079,6.516C6.951,7.599 6.388,9.152 6.388,11.174L6.388,12.196L12.691,12.196L12.691,16.622L6.388,16.622L6.388,45.689L0,45.689Z" style="fill:white;fill-rule:nonzero;"/>
                    </g>
                    <g transform="matrix(1,0,0,1,143.61,39.5594)">
                        <path d="M0,22.287C0,21.234 -0.179,20.306 -0.536,19.501C-0.894,18.697 -1.525,17.959 -2.435,17.288C-3.345,16.618 -4.57,15.988 -6.111,15.4C-7.654,14.811 -9.611,14.208 -11.981,13.589C-14.469,12.949 -16.718,12.222 -18.732,11.407C-20.746,10.591 -22.461,9.652 -23.877,8.59C-25.293,7.527 -26.38,6.314 -27.14,4.953C-27.899,3.59 -28.279,2.033 -28.279,0.278C-28.279,-1.476 -27.87,-3.101 -27.054,-4.597C-26.236,-6.093 -25.079,-7.394 -23.584,-8.498C-22.087,-9.601 -20.292,-10.463 -18.197,-11.083C-16.103,-11.701 -13.766,-12.011 -11.188,-12.011C-8.356,-12.011 -5.836,-11.629 -3.626,-10.866C-1.416,-10.102 0.442,-9.091 1.95,-7.832C3.457,-6.573 4.604,-5.118 5.386,-3.467C6.168,-1.816 6.56,-0.114 6.56,1.64L-0.104,1.64C-0.104,0.382 -0.328,-0.785 -0.777,-1.858C-1.226,-2.931 -1.911,-3.859 -2.832,-4.644C-3.753,-5.428 -4.903,-6.037 -6.285,-6.47C-7.666,-6.903 -9.3,-7.12 -11.188,-7.12C-12.96,-7.12 -14.503,-6.935 -15.814,-6.563C-17.126,-6.192 -18.209,-5.681 -19.061,-5.03C-19.912,-4.38 -20.545,-3.612 -20.959,-2.725C-21.374,-1.837 -21.581,-0.867 -21.581,0.185C-21.581,1.135 -21.356,2.001 -20.908,2.785C-20.458,3.57 -19.763,4.292 -18.818,4.953C-17.875,5.613 -16.66,6.221 -15.176,6.779C-13.691,7.336 -11.913,7.872 -9.841,8.389C-6.987,9.111 -4.523,9.911 -2.452,10.787C-0.381,11.665 1.329,12.66 2.676,13.774C4.022,14.889 5.023,16.138 5.68,17.52C6.336,18.903 6.664,20.472 6.664,22.225C6.664,24.062 6.249,25.723 5.42,27.209C4.592,28.695 3.412,29.964 1.882,31.016C0.35,32.069 -1.491,32.879 -3.644,33.446C-5.796,34.014 -8.196,34.298 -10.843,34.298C-12.385,34.298 -13.927,34.169 -15.47,33.911C-17.012,33.653 -18.49,33.266 -19.905,32.75C-21.321,32.234 -22.634,31.594 -23.843,30.83C-25.051,30.067 -26.104,29.18 -27.001,28.168C-27.899,27.158 -28.602,26.023 -29.107,24.764C-29.614,23.505 -29.867,22.122 -29.867,20.616L-23.203,20.616C-23.203,22.163 -22.864,23.49 -22.185,24.593C-21.506,25.698 -20.597,26.611 -19.457,27.333C-18.317,28.056 -17.006,28.586 -15.521,28.927C-14.036,29.267 -12.478,29.438 -10.843,29.438C-7.344,29.438 -4.662,28.798 -2.798,27.518C-0.933,26.239 0,24.495 0,22.287" style="fill:white;fill-rule:nonzero;"/>
                    </g>
                    <g transform="matrix(1,0,0,1,169.922,43.7988)">
                        <path d="M0,25.384C1.128,25.384 2.21,25.219 3.247,24.889C4.282,24.559 5.197,24.105 5.991,23.527C6.785,22.949 7.43,22.263 7.925,21.468C8.42,20.674 8.714,19.812 8.806,18.884L14.848,18.884C14.756,20.369 14.301,21.788 13.484,23.14C12.667,24.492 11.59,25.678 10.256,26.699C8.92,27.721 7.373,28.536 5.611,29.145C3.851,29.753 1.98,30.058 0,30.058C-2.808,30.058 -5.253,29.609 -7.337,28.712C-9.42,27.814 -11.151,26.602 -12.532,25.074C-13.914,23.548 -14.945,21.773 -15.623,19.75C-16.303,17.728 -16.642,15.592 -16.642,13.342L-16.642,12.042C-16.642,9.793 -16.303,7.657 -15.623,5.634C-14.945,3.613 -13.914,1.838 -12.532,0.311C-11.151,-1.217 -9.425,-2.429 -7.354,-3.327C-5.282,-4.225 -2.843,-4.674 -0.034,-4.674C2.153,-4.674 4.138,-4.364 5.923,-3.745C7.706,-3.125 9.248,-2.274 10.549,-1.191C11.85,-0.108 12.868,1.177 13.605,2.663C14.341,4.149 14.756,5.748 14.848,7.461L8.806,7.461C8.714,6.429 8.442,5.465 7.994,4.567C7.545,3.669 6.941,2.885 6.182,2.214C5.422,1.544 4.519,1.012 3.471,0.62C2.424,0.228 1.255,0.032 -0.034,0.032C-2.014,0.032 -3.654,0.383 -4.954,1.084C-6.255,1.786 -7.302,2.709 -8.097,3.855C-8.891,5 -9.448,6.29 -9.771,7.724C-10.094,9.159 -10.254,10.598 -10.254,12.042L-10.254,13.342C-10.254,14.828 -10.094,16.289 -9.771,17.722C-9.448,19.157 -8.896,20.442 -8.113,21.576C-7.331,22.712 -6.283,23.631 -4.971,24.331C-3.659,25.033 -2.002,25.384 0,25.384" style="fill:white;fill-rule:nonzero;"/>
                    </g>
                    <g transform="matrix(1,0,0,1,208.656,32.4077)">
                        <path d="M0,35.97L23.825,35.97L23.825,40.83L-6.663,40.83L-6.663,-4.86L0,-4.86L0,35.97Z" style="fill:white;fill-rule:nonzero;"/>
                    </g>
                    <g transform="matrix(1,0,0,1,283.026,68.8827)">
                        <path d="M0,-25.321C-1.289,-25.321 -2.475,-25.109 -3.556,-24.686C-4.638,-24.263 -5.605,-23.65 -6.456,-22.844C-7.309,-22.04 -8.016,-21.038 -8.58,-19.842C-9.145,-18.645 -9.529,-17.272 -9.736,-15.725L8.978,-15.725L8.978,-16.158C8.908,-17.272 8.707,-18.377 8.373,-19.47C8.039,-20.564 7.521,-21.545 6.819,-22.411C6.117,-23.278 5.214,-23.979 4.109,-24.516C3.005,-25.052 1.634,-25.321 0,-25.321M0.795,4.705C-1.807,4.705 -4.16,4.303 -6.267,3.498C-8.372,2.693 -10.174,1.574 -11.67,0.139C-13.167,-1.294 -14.317,-3.002 -15.123,-4.983C-15.929,-6.965 -16.331,-9.132 -16.331,-11.484L-16.331,-12.784C-16.331,-15.508 -15.877,-17.943 -14.968,-20.09C-14.059,-22.236 -12.845,-24.041 -11.325,-25.507C-9.806,-26.972 -8.068,-28.092 -6.111,-28.865C-4.155,-29.639 -2.118,-30.026 0,-30.026C2.671,-30.026 4.973,-29.608 6.906,-28.772C8.839,-27.937 10.433,-26.786 11.688,-25.321C12.942,-23.856 13.868,-22.122 14.468,-20.12C15.065,-18.119 15.365,-15.942 15.365,-13.589L15.365,-11.02L-9.944,-11.02C-9.897,-9.472 -9.616,-8.027 -9.098,-6.686C-8.58,-5.344 -7.844,-4.179 -6.888,-3.188C-5.934,-2.197 -4.781,-1.413 -3.436,-0.835C-2.089,-0.258 -0.564,0.032 1.14,0.032C3.396,0.032 5.306,-0.381 6.872,-1.207C8.437,-2.032 9.807,-3.126 10.98,-4.488L14.882,-1.764C14.283,-0.939 13.558,-0.139 12.707,0.635C11.854,1.409 10.859,2.1 9.72,2.709C8.58,3.318 7.274,3.803 5.801,4.164C4.328,4.525 2.659,4.705 0.795,4.705" style="fill:white;fill-rule:nonzero;"/>
                    </g>
                    <g transform="matrix(1,0,0,1,309.535,32.1391)">
                        <path d="M0,35.97L23.825,35.97L23.825,40.83L-6.663,40.83L-6.663,-4.86L0,-4.86L0,35.97Z" style="fill:white;fill-rule:nonzero;"/>
                    </g>
                    <g transform="matrix(1,0,0,1,349.051,43.8402)">
                        <path d="M0,24.764C1.151,24.764 2.232,24.62 3.246,24.331C4.259,24.042 5.179,23.665 6.008,23.201C6.836,22.737 7.556,22.205 8.166,21.607C8.775,21.009 9.254,20.389 9.599,19.749L9.599,12.877L4.281,12.877C0.621,12.877 -2.198,13.389 -4.178,14.41C-6.158,15.431 -7.147,16.974 -7.147,19.037C-7.147,19.843 -6.998,20.596 -6.699,21.297C-6.399,21.999 -5.944,22.603 -5.334,23.108C-4.725,23.614 -3.977,24.017 -3.09,24.315C-2.205,24.615 -1.174,24.764 0,24.764M10.6,29.129C10.37,28.717 10.186,28.195 10.048,27.566C9.91,26.936 9.794,26.281 9.702,25.6C9.104,26.157 8.43,26.689 7.683,27.194C6.935,27.7 6.116,28.143 5.231,28.525C4.345,28.908 3.384,29.206 2.348,29.423C1.312,29.64 0.218,29.748 -0.933,29.748C-2.843,29.748 -4.574,29.49 -6.128,28.974C-7.683,28.458 -9.007,27.757 -10.1,26.869C-11.192,25.982 -12.039,24.934 -12.638,23.727C-13.236,22.52 -13.535,21.225 -13.535,19.843C-13.535,18.047 -13.145,16.464 -12.361,15.091C-11.579,13.719 -10.457,12.568 -8.994,11.639C-7.533,10.711 -5.766,10.01 -3.695,9.535C-1.623,9.06 0.69,8.823 3.246,8.823L9.599,8.823L9.599,6.191C9.599,4.19 8.932,2.596 7.596,1.409C6.261,0.222 4.293,-0.371 1.692,-0.371C0.495,-0.371 -0.599,-0.226 -1.589,0.062C-2.578,0.351 -3.424,0.738 -4.126,1.223C-4.828,1.708 -5.375,2.271 -5.766,2.91C-6.158,3.55 -6.353,4.221 -6.353,4.922L-12.775,4.922C-12.775,3.725 -12.425,2.538 -11.723,1.363C-11.021,0.186 -10.025,-0.872 -8.735,-1.811C-7.447,-2.749 -5.887,-3.513 -4.058,-4.101C-2.227,-4.69 -0.185,-4.984 2.071,-4.984C4.097,-4.984 5.968,-4.752 7.683,-4.287C9.397,-3.823 10.864,-3.121 12.085,-2.182C13.305,-1.243 14.26,-0.072 14.95,1.331C15.641,2.735 15.987,4.376 15.987,6.253L15.987,21.824C15.987,22.959 16.096,24.151 16.315,25.399C16.533,26.648 16.861,27.726 17.298,28.634L17.298,29.129L10.6,29.129Z" style="fill:white;fill-rule:nonzero;"/>
                    </g>
                    <g transform="matrix(1,0,0,1,396.113,44.9231)">
                        <path d="M0,11.021C0,9.349 -0.174,7.776 -0.519,6.3C-0.864,4.825 -1.422,3.529 -2.193,2.415C-2.964,1.301 -3.972,0.418 -5.214,-0.231C-6.457,-0.881 -7.977,-1.207 -9.771,-1.207C-10.946,-1.207 -12.006,-1.072 -12.949,-0.804C-13.893,-0.536 -14.738,-0.164 -15.486,0.31C-16.235,0.786 -16.885,1.342 -17.437,1.982C-17.989,2.622 -18.462,3.313 -18.854,4.056L-18.854,18.543C-18.438,19.286 -17.949,19.977 -17.386,20.617C-16.822,21.257 -16.166,21.814 -15.417,22.289C-14.67,22.763 -13.823,23.135 -12.88,23.403C-11.937,23.671 -10.877,23.805 -9.703,23.805C-7.977,23.805 -6.504,23.485 -5.283,22.846C-4.063,22.207 -3.063,21.339 -2.279,20.245C-1.497,19.152 -0.922,17.867 -0.553,16.392C-0.185,14.917 0,13.342 0,11.671L0,11.021ZM6.387,11.671C6.387,14.127 6.064,16.392 5.42,18.465C4.775,20.54 3.832,22.335 2.589,23.852C1.346,25.369 -0.174,26.55 -1.969,27.396C-3.764,28.242 -5.813,28.665 -8.114,28.665C-10.578,28.665 -12.707,28.278 -14.503,27.504C-16.298,26.73 -17.817,25.622 -19.061,24.177L-19.371,28.046L-25.24,28.046L-25.24,-17.644L-18.854,-17.644L-18.854,-1.764C-17.61,-3.146 -16.114,-4.209 -14.364,-4.952C-12.615,-5.695 -10.556,-6.066 -8.184,-6.066C-5.836,-6.066 -3.759,-5.653 -1.951,-4.828C-0.145,-4.003 1.375,-2.842 2.606,-1.346C3.838,0.15 4.775,1.946 5.42,4.041C6.064,6.135 6.387,8.462 6.387,11.021L6.387,11.671Z" style="fill:white;fill-rule:nonzero;"/>
                    </g>
                    <g transform="matrix(-1,0,0,1,385.8,25.0986)">
                        <rect x="189.706" y="14.646" width="6.388" height="33.493" style="fill:white;"/>
                    </g>
                    <g transform="matrix(0,-1,-1,0,192.895,27.5478)">
                        <path d="M-3.761,-3.76C-1.684,-3.76 0,-2.076 0,0.001C0,2.077 -1.684,3.761 -3.761,3.761C-5.838,3.761 -7.521,2.077 -7.521,0.001C-7.521,-2.076 -5.838,-3.76 -3.761,-3.76" style="fill:white;fill-rule:nonzero;"/>
                    </g>
                    <g transform="matrix(0,-1,-1,0,240.302,27.2798)">
                        <path d="M-3.76,-3.761C-1.683,-3.761 0,-2.077 0,-0.001C0,2.076 -1.683,3.76 -3.76,3.76C-5.837,3.76 -7.521,2.076 -7.521,-0.001C-7.521,-2.077 -5.837,-3.761 -3.76,-3.761" style="fill:white;fill-rule:nonzero;"/>
                    </g>
                    <g transform="matrix(-1,0,0,1,480.606,24.5606)">
                        <rect x="237.109" y="14.915" width="6.388" height="33.493" style="fill:white;"/>
                    </g>
                    <g transform="matrix(1,0,0,1,57.2449,8.1114)">
                        <path d="M0,43.13C0.651,41.711 0.973,40.19 0.955,38.66C0.943,37.641 0.78,36.617 0.465,35.617C0.464,35.616 0.464,35.614 0.463,35.613C0.437,35.533 0.411,35.453 0.384,35.373L0.355,35.291C0.338,35.242 0.32,35.193 0.303,35.144C0.294,35.122 0.285,35.099 0.276,35.077C-0.341,33.097 -1.812,31.299 -3.517,29.217C-5.602,26.671 -7.966,23.783 -9.192,19.897C-10.388,16.112 -10.103,12.599 -9.851,9.499C-9.635,6.844 -9.432,4.337 -10.159,2.031C-10.16,2.028 -10.161,2.024 -10.162,2.02C-10.167,2.002 -10.172,1.984 -10.176,1.965C-10.19,1.914 -10.204,1.863 -10.219,1.812L-10.241,1.728C-10.266,1.646 -10.29,1.563 -10.316,1.482C-10.37,1.311 -10.428,1.143 -10.489,0.977C-10.499,0.952 -10.509,0.929 -10.519,0.904C-10.573,0.762 -10.629,0.62 -10.689,0.48C-10.691,0.475 -10.694,0.469 -10.696,0.464C-11.647,-1.738 -13.312,-3.532 -15.469,-4.654C-17.631,-5.778 -20.061,-6.109 -22.414,-5.619L-22.416,-5.619C-22.569,-5.586 -22.722,-5.55 -22.875,-5.511C-22.896,-5.506 -22.917,-5.501 -22.937,-5.496C-23.109,-5.451 -23.28,-5.402 -23.451,-5.348C-26.117,-4.506 -28.296,-2.676 -29.586,-0.195C-29.747,0.115 -29.893,0.431 -30.021,0.751C-30.535,2.031 -30.787,3.384 -30.771,4.743C-30.759,5.763 -30.597,6.787 -30.28,7.787C-30.28,7.789 -30.279,7.791 -30.278,7.793C-30.253,7.873 -30.227,7.952 -30.2,8.03L-30.171,8.113C-30.165,8.129 -30.16,8.144 -30.154,8.159C-30.146,8.183 -30.137,8.208 -30.128,8.232C-30.123,8.247 -30.117,8.263 -30.111,8.278L-30.093,8.326C-29.478,10.298 -28.008,12.094 -26.306,14.174C-24.218,16.726 -21.852,19.618 -20.623,23.507C-19.392,27.407 -19.667,31.156 -19.91,34.463C-20.105,37.132 -20.275,39.438 -19.656,41.372C-19.655,41.375 -19.655,41.379 -19.654,41.381C-19.649,41.401 -19.645,41.421 -19.64,41.441C-19.626,41.491 -19.611,41.542 -19.598,41.592L-19.574,41.676C-19.551,41.758 -19.525,41.84 -19.5,41.922C-19.456,42.062 -19.409,42.199 -19.36,42.336C-17.833,46.557 -13.818,49.239 -9.511,49.239C-8.47,49.239 -7.41,49.082 -6.365,48.752C-3.698,47.91 -1.52,46.08 -0.23,43.599C-0.149,43.444 -0.073,43.288 0,43.13" style="fill:white;fill-rule:nonzero;"/>
                    </g>
                    <g transform="matrix(1,0,0,1,88.6638,78.6885)">
                        <path d="M0,-53.763C-1.782,-56.558 -4.547,-58.492 -7.784,-59.208C-14.467,-60.686 -21.105,-56.452 -22.584,-49.77C-22.605,-49.671 -22.626,-49.571 -22.646,-49.471L-22.664,-49.37C-22.678,-49.302 -22.689,-49.233 -22.702,-49.164L-22.703,-49.158C-22.705,-49.142 -22.708,-49.126 -22.71,-49.111C-22.711,-49.108 -22.711,-49.105 -22.712,-49.102C-23.249,-46.712 -22.804,-43.991 -22.288,-40.839C-21.653,-36.963 -20.935,-32.57 -21.984,-27.822C-23.038,-23.061 -25.555,-19.358 -27.775,-16.091C-29.562,-13.46 -31.107,-11.188 -31.619,-8.834C-31.62,-8.829 -31.622,-8.824 -31.623,-8.82C-31.629,-8.798 -31.636,-8.777 -31.641,-8.756C-31.657,-8.695 -31.674,-8.633 -31.689,-8.572L-31.715,-8.472C-31.739,-8.373 -31.763,-8.274 -31.784,-8.175C-32.501,-4.937 -31.913,-1.615 -30.131,1.18C-28.348,3.975 -25.583,5.909 -22.347,6.625C-21.446,6.824 -20.541,6.923 -19.641,6.923C-17.304,6.923 -15.01,6.258 -12.991,4.971C-12.293,4.526 -11.647,4.018 -11.063,3.458C-9.306,1.777 -8.084,-0.385 -7.547,-2.813C-7.546,-2.815 -7.546,-2.816 -7.546,-2.818C-7.524,-2.916 -7.504,-3.014 -7.484,-3.112L-7.466,-3.213C-7.453,-3.282 -7.439,-3.35 -7.428,-3.419L-7.427,-3.426C-7.424,-3.443 -7.422,-3.461 -7.419,-3.478L-7.419,-3.481C-6.879,-5.881 -7.325,-8.606 -7.842,-11.761C-8.477,-15.631 -9.194,-20.017 -8.146,-24.761C-7.123,-29.382 -4.736,-32.836 -2.63,-35.884C-0.83,-38.488 0.869,-40.948 1.488,-43.748C1.49,-43.754 1.492,-43.761 1.494,-43.767C1.5,-43.787 1.506,-43.807 1.511,-43.827C1.527,-43.888 1.543,-43.95 1.56,-44.012L1.585,-44.111C1.609,-44.21 1.633,-44.309 1.654,-44.409C2.37,-47.645 1.783,-50.968 0,-53.763" style="fill:white;fill-rule:nonzero;"/>
                    </g>
                    <g transform="matrix(1,0,0,1,18.8201,48.7741)">
                        <path d="M0,-19.436C-2.646,-20.812 -5.669,-21.075 -8.513,-20.177C-11.356,-19.279 -13.68,-17.327 -15.056,-14.681C-16.432,-12.036 -16.694,-9.013 -15.796,-6.169C-14.898,-3.325 -12.946,-1.001 -10.301,0.374C-8.687,1.213 -6.933,1.639 -5.163,1.639C-4.033,1.639 -2.897,1.465 -1.788,1.115C1.055,0.217 3.379,-1.735 4.755,-4.38C6.13,-7.026 6.394,-10.049 5.495,-12.893C4.597,-15.737 2.646,-18.061 0,-19.436" style="fill:white;fill-rule:nonzero;"/>
                    </g>
                </g>
                <g transform="matrix(0.24,0,0,0.24,-174.258,58.5708)">
                    <text x="1018.18px" y="350.205px" style="font-family:'Lato-Bold', 'Lato', sans-serif;font-weight:700;font-size:200px;fill:white;">Data Centre</text>
                </g>
            </g>
        </g>
    </g>
</svg>
