<?xml version="1.0" encoding="utf-8"?>
<!-- Generator: Adobe Illustrator 24.1.2, SVG Export Plug-In . SVG Version: 6.00 Build 0)  -->
<svg version="1.1" id="Layer_1" xmlns="http://www.w3.org/2000/svg" xmlns:xlink="http://www.w3.org/1999/xlink" x="0px" y="0px"
	 viewBox="0 0 452 82" style="enable-background:new 0 0 452 82;" xml:space="preserve">
<style type="text/css">
	.st0{fill-rule:evenodd;clip-rule:evenodd;fill:#FFFFFF;}
</style>
<g>
	<path class="st0" d="M23.92,14.85h37.62c1.61,0,2.93,1.32,2.93,2.93l0,0c0,1.61-1.32,2.93-2.93,2.93H23.92
		c-1.61,0-2.93-1.32-2.93-2.93l0,0C21,16.17,22.31,14.85,23.92,14.85z"/>
	<path class="st0" d="M72.31,14.85L72.31,14.85c1.55,0,2.82,1.27,2.82,2.82v0.23c0,1.55-1.27,2.82-2.82,2.82l0,0
		c-1.55,0-2.82-1.27-2.82-2.82v-0.23C69.49,16.11,70.76,14.85,72.31,14.85z"/>
	<path class="st0" d="M11.87,14.85h4.17c1.61,0,2.93,1.32,2.93,2.93l0,0c0,1.61-1.32,2.93-2.93,2.93h-4.17
		c-1.61,0-2.93-1.32-2.93-2.93l0,0C8.94,16.17,10.26,14.85,11.87,14.85z"/>
	<path class="st0" d="M11.87,26.45H49.5c1.61,0,2.93,1.32,2.93,2.93l0,0c0,1.61-1.32,2.93-2.93,2.93H11.87
		c-1.61,0-2.93-1.32-2.93-2.93l0,0C8.94,27.77,10.26,26.45,11.87,26.45z"/>
	<path class="st0" d="M58.79,26.45L58.79,26.45c1.55,0,2.82,1.27,2.82,2.82v0.23c0,1.55-1.27,2.82-2.82,2.82l0,0
		c-1.55,0-2.82-1.27-2.82-2.82v-0.23C55.97,27.72,57.24,26.45,58.79,26.45z"/>
	<path class="st0" d="M68.03,26.45h4.17c1.61,0,2.93,1.32,2.93,2.93l0,0c0,1.61-1.32,2.93-2.93,2.93h-4.17
		c-1.61,0-2.93-1.32-2.93-2.93l0,0C65.1,27.77,66.41,26.45,68.03,26.45z"/>
	<path class="st0" d="M24.55,38.11h37.62c1.61,0,2.93,1.32,2.93,2.93l0,0c0,1.61-1.32,2.93-2.93,2.93H24.55
		c-1.61,0-2.93-1.32-2.93-2.93l0,0C21.62,39.43,22.93,38.11,24.55,38.11z"/>
	<path class="st0" d="M72.31,38.11L72.31,38.11c1.55,0,2.82,1.27,2.82,2.82v0.23c0,1.55-1.27,2.82-2.82,2.82l0,0
		c-1.55,0-2.82-1.27-2.82-2.82v-0.23C69.49,39.38,70.76,38.11,72.31,38.11z"/>
	<path class="st0" d="M11.87,38.11h4.17c1.61,0,2.93,1.32,2.93,2.93l0,0c0,1.61-1.32,2.93-2.93,2.93h-4.17
		c-1.61,0-2.93-1.32-2.93-2.93l0,0C8.94,39.43,10.26,38.11,11.87,38.11z"/>
	<g>
		<path class="st0" d="M72.19,49.71H34.57c-1.61,0-2.93,1.32-2.93,2.93l0,0c0,1.61,1.32,2.93,2.93,2.93h37.62
			c1.61,0,2.93-1.32,2.93-2.93l0,0C75.12,51.03,73.8,49.71,72.19,49.71z"/>
		<path class="st0" d="M25.28,49.71L25.28,49.71c-1.55,0-2.82,1.27-2.82,2.82v0.23c0,1.55,1.27,2.82,2.82,2.82l0,0
			c1.55,0,2.82-1.27,2.82-2.82v-0.23C28.09,50.98,26.83,49.71,25.28,49.71z"/>
		<path class="st0" d="M16.04,49.71h-4.17c-1.61,0-2.93,1.32-2.93,2.93l0,0c0,1.61,1.32,2.93,2.93,2.93h4.17
			c1.61,0,2.93-1.32,2.93-2.93l0,0C18.97,51.03,17.65,49.71,16.04,49.71z"/>
	</g>
	<path class="st0" d="M60.14,61.31H22.52c-1.61,0-2.93,1.32-2.93,2.93l0,0c0,1.61,1.32,2.93,2.93,2.93h37.62
		c1.61,0,2.93-1.32,2.93-2.93l0,0C63.07,62.63,61.75,61.31,60.14,61.31z"/>
	<path class="st0" d="M11.76,61.31L11.76,61.31c-1.55,0-2.82,1.27-2.82,2.82v0.23c0,1.55,1.27,2.82,2.82,2.82l0,0
		c1.55,0,2.82-1.27,2.82-2.82v-0.23C14.58,62.58,13.31,61.31,11.76,61.31z"/>
	<path class="st0" d="M72.19,61.31h-4.17c-1.61,0-2.93,1.32-2.93,2.93l0,0c0,1.61,1.32,2.93,2.93,2.93h4.17
		c1.61,0,2.93-1.32,2.93-2.93l0,0C75.12,62.63,73.8,61.31,72.19,61.31z"/>
</g>
<path class="st0" d="M121.47,29.89c-3.85-3.38-7.77-4.39-12.98-4.39c-6.08,0-14.06,2.7-14.06,10.41c0,7.57,7.5,9.87,13.79,10.34
	c4.73,0.27,6.62,1.22,6.62,3.52c0,2.43-2.91,4.06-6.02,3.99c-3.72-0.07-9.13-2.03-11.49-4.66l-4.06,5.88
	c4.87,5.07,10.14,5.95,15.41,5.95c9.53,0,14.33-5.07,14.33-10.95c0-8.86-7.98-10.28-14.26-10.68c-4.26-0.27-6.22-1.49-6.22-3.65
	c0-2.1,2.16-3.31,6.08-3.31c3.18,0,5.88,0.74,8.25,2.97L121.47,29.89L121.47,29.89z M161.36,46.04
	c1.28-13.72-5.68-20.62-16.83-20.62c-10.82,0-17.71,7.3-17.71,17.44c0,10.68,6.83,17.78,18.32,17.78c5.07,0,10.82-1.76,14.33-5.41
	l-5.27-5.21c-1.89,1.96-5.88,3.11-8.92,3.11c-5.81,0-9.4-2.97-9.94-7.1H161.36L161.36,46.04z M135.47,39.22
	c1.22-4.33,4.87-6.49,9.33-6.49c4.73,0,8.11,2.16,8.65,6.49H135.47L135.47,39.22z M183.8,52.6c-5.61,0-9.46-4.26-9.46-9.46
	s3.52-9.46,9.46-9.46c5.95,0,9.46,4.26,9.46,9.46S189.41,52.6,183.8,52.6L183.8,52.6z M202.26,73.69V26.44h-7.71l-0.54,4.6
	c-2.57-3.72-7.03-5.34-10.82-5.34c-10.28,0-17.1,7.64-17.1,17.44c0,9.73,6.15,17.44,16.83,17.44c3.52,0,8.72-1.08,11.09-4.73v17.85
	H202.26L202.26,73.69z M242.55,46.04c1.28-13.72-5.68-20.62-16.83-20.62c-10.82,0-17.71,7.3-17.71,17.44
	c0,10.68,6.83,17.78,18.32,17.78c5.07,0,10.82-1.76,14.33-5.41l-5.27-5.21c-1.89,1.96-5.88,3.11-8.92,3.11
	c-5.81,0-9.4-2.97-9.94-7.1H242.55L242.55,46.04z M216.66,39.22c1.22-4.33,4.87-6.49,9.33-6.49c4.73,0,8.11,2.16,8.65,6.49H216.66
	L216.66,39.22z M248.9,26.44v33.33h8.25V42.19c0-6.15,3.99-8.45,8.32-8.45c2.7,0,4.26,0.74,5.95,2.16l3.72-7.17
	c-1.83-1.83-5.14-3.18-8.59-3.18c-3.38,0-6.83,0.61-9.4,4.73l-0.61-3.85H248.9L248.9,26.44z M304.4,31.04
	c-1.89-3.31-6.15-5.41-10.61-5.41c-9.74-0.07-17.37,5.95-17.37,17.44c0,11.7,7.3,17.78,17.17,17.71c3.72-0.07,8.92-1.96,10.82-5.88
	l0.41,4.87h7.77V26.44h-7.91L304.4,31.04L304.4,31.04z M294.53,33c12.98,0,12.98,20.21,0,20.21c-5.48,0-9.87-3.79-9.87-10.14
	C284.66,36.72,289.06,33,294.53,33z"/>
<path class="st0" d="M319.43,12.38v47.39h3.31V12.38H319.43L319.43,12.38z M360.8,26.37v7.3c-2.77-5.2-8.25-7.71-13.66-7.71
	c-9.33,0-16.97,6.9-16.97,17.1c0,10.21,7.64,17.24,16.97,17.24c5.41,0,10.41-2.43,13.66-7.64v7.1h3.31c0-11.15,0-22.24,0-33.4H360.8
	L360.8,26.37z M347.15,29.14c18.59,0,18.59,27.92,0,27.92c-7.57,0-13.66-5.61-13.66-13.99S339.57,29.14,347.15,29.14L347.15,29.14z
	 M389.4,29.01c7.5,0,13.66,4.66,13.66,14.06c0,9.26-6.15,13.99-13.66,13.99c-7.84,0-13.66-5.75-13.66-14.06
	C375.74,34.69,381.69,29.01,389.4,29.01L389.4,29.01z M372.43,12.38v47.39h3.25V52.4c2.77,5.07,8.25,7.91,13.93,7.91
	c9.33,0,16.7-6.15,16.7-17.24c0-11.02-7.44-17.24-16.77-17.24c-5.75,0-11.15,2.43-13.86,7.84V12.38H372.43L372.43,12.38z
	 M439.35,30.29c-3.31-3.11-7.57-4.46-12.44-4.46c-6.76-0.07-13.32,2.77-13.25,9.33c0.07,6.69,6.49,7.91,12.98,8.99
	c5.48,0.88,11.02,1.83,10.88,6.63c-0.2,5.27-6.35,6.35-10.41,6.35c-4.46,0-9.46-1.69-12.24-5.68l-2.43,2.16
	c2.91,4.46,8.72,6.69,14.6,6.69c5.88,0,13.52-1.96,13.72-9.33c0.34-7.77-7.84-8.79-13.79-9.8c-4.19-0.74-10.01-1.62-10.14-6.08
	c-0.14-4.26,4.87-6.22,10.07-6.15c3.72,0,7.03,0.54,10.41,3.52L439.35,30.29z"/>
</svg>
