<svg id="Layer_1" data-name="Layer 1" xmlns="http://www.w3.org/2000/svg" xmlns:xlink="http://www.w3.org/1999/xlink" viewBox="0 0 268.9 61.9"><defs><clipPath id="clip-path" transform="translate(0 0)"><rect width="269" height="61.89" style="fill:none"/></clipPath><clipPath id="clip-path-2" transform="translate(0 0)"><rect width="268.9" height="61.89" style="fill:none"/></clipPath><clipPath id="clip-path-3" transform="translate(0 0)"><path d="M14.9,31.3h-.4a10.3,10.3,0,0,0-5.2,1l-.3.8s6.2-4,10.9,1.1A8.6,8.6,0,0,0,14.9,31.3Z" style="fill:none"/></clipPath><clipPath id="clip-path-4" transform="translate(0 0)"><rect x="9" y="29" width="10.9" height="5.19" style="fill:none"/></clipPath><clipPath id="clip-path-5" transform="translate(0 0)"><rect x="9.1" y="28.9" width="10.9" height="5.19" style="fill:none"/></clipPath><linearGradient id="linear-gradient" x1="-149.62" y1="491.82" x2="-148.62" y2="491.82" gradientTransform="translate(1641.5 -5334.2) scale(10.91)" gradientUnits="userSpaceOnUse"><stop offset="0" stop-color="#fff"/><stop offset="0.16" stop-color="#e8e8f0"/><stop offset="0.5" stop-color="#acadcb"/><stop offset="0.94" stop-color="#585a96"/><stop offset="1" stop-color="#585a96"/></linearGradient><clipPath id="clip-path-7" transform="translate(0 0)"><path d="M30.8,32.3a10.9,10.9,0,0,0-5.6-.9A10.6,10.6,0,0,1,31,33Z" style="fill:none"/></clipPath><clipPath id="clip-path-8" transform="translate(0 0)"><rect x="25.2" y="31.1" width="5.8" height="1.91" style="fill:none"/></clipPath><clipPath id="clip-path-9" transform="translate(0 0)"><rect x="25.3" y="31.3" width="5.8" height="1.91" style="fill:none"/></clipPath><linearGradient id="linear-gradient-2" x1="-136.7" y1="522.82" x2="-135.7" y2="522.82" gradientTransform="translate(825 -3026.2) scale(5.85)" gradientUnits="userSpaceOnUse"><stop offset="0" stop-color="#585a96"/><stop offset="0.1" stop-color="#585a96"/><stop offset="0.22" stop-color="#696aa0"/><stop offset="0.47" stop-color="#9495bc"/><stop offset="0.82" stop-color="#d9d9e7"/><stop offset="1" stop-color="#fff"/></linearGradient><clipPath id="clip-path-11" transform="translate(0 0)"><path d="M8.9,31.8l-.3.8a10.8,10.8,0,0,1,7.5-1.1A11.1,11.1,0,0,0,8.9,31.8Z" style="fill:none"/></clipPath><clipPath id="clip-path-12" transform="translate(0 0)"><rect x="8.6" y="30.4" width="7.5" height="2.15" style="fill:none"/></clipPath><clipPath id="clip-path-13" transform="translate(0 0)"><rect x="8.4" y="30.3" width="7.5" height="2.15" style="fill:none"/></clipPath><linearGradient id="linear-gradient-3" x1="-142.77" y1="508.27" x2="-141.77" y2="508.27" gradientTransform="translate(1076.4 -3770.5) scale(7.48)" gradientUnits="userSpaceOnUse"><stop offset="0" stop-color="#fff"/><stop offset="0.27" stop-color="#dbdae8"/><stop offset="0.85" stop-color="#807dad"/><stop offset="0.94" stop-color="#726fa4"/><stop offset="1" stop-color="#726fa4"/></linearGradient><clipPath id="clip-path-15" transform="translate(0 0)"><path d="M23,32c4.2-1.8,8.5.7,8.5.7l-.3-.7A10.6,10.6,0,0,0,23,32Z" style="fill:none"/></clipPath><clipPath id="clip-path-16" transform="translate(0 0)"><rect x="23" y="30.2" width="8.5" height="2.42" style="fill:none"/></clipPath><clipPath id="clip-path-17" transform="translate(0 0)"><rect x="22.8" y="30.5" width="8.5" height="2.42" style="fill:none"/></clipPath><linearGradient id="linear-gradient-4" x1="-145.36" y1="502.05" x2="-144.36" y2="502.05" gradientTransform="translate(1256.9 -4230.8) scale(8.49)" gradientUnits="userSpaceOnUse"><stop offset="0" stop-color="#726fa4"/><stop offset="0.1" stop-color="#726fa4"/><stop offset="0.23" stop-color="#817eae"/><stop offset="0.5" stop-color="#a8a6c7"/><stop offset="0.87" stop-color="#e7e6ef"/><stop offset="1" stop-color="#fff"/></linearGradient><clipPath id="clip-path-19" transform="translate(0 0)"><path d="M8.4,32.2s6.6-3.3,11.5,2l.3-9.7s-4.7-3.4-8.8.2Z" style="fill:none"/></clipPath><clipPath id="clip-path-20" transform="translate(0 0)"><rect x="8.4" y="21.1" width="11.8" height="13.11" style="fill:none"/></clipPath><clipPath id="clip-path-21" transform="translate(0 0)"><rect x="8.5" y="21" width="11.8" height="13.11" style="fill:none"/></clipPath><linearGradient id="linear-gradient-5" x1="-150.71" y1="489.22" x2="-149.71" y2="489.22" gradientTransform="translate(1782.5 -5730.6) scale(11.77)" gradientUnits="userSpaceOnUse"><stop offset="0" stop-color="#fff"/><stop offset="0.73" stop-color="#fff"/><stop offset="0.76" stop-color="#efeff5"/><stop offset="0.93" stop-color="#a7a4c6"/><stop offset="1" stop-color="#8a87b3"/></linearGradient><clipPath id="clip-path-23" transform="translate(0 0)"><path d="M31.6,32.2s-6.6-3.4-11.7,2l.3-9.7s5-3.6,8.6.1Z" style="fill:none"/></clipPath><clipPath id="clip-path-24" transform="translate(0 0)"><rect x="19.9" y="20.9" width="11.7" height="13.27" style="fill:none"/></clipPath><clipPath id="clip-path-25" transform="translate(0 0)"><rect x="19.8" y="20.9" width="11.7" height="13.27" style="fill:none"/></clipPath><linearGradient id="linear-gradient-6" x1="-133.15" y1="531.12" x2="-132.15" y2="531.12" gradientTransform="translate(709.4 -2728.9) scale(5.19)" xlink:href="#linear-gradient-4"/></defs><g style="clip-path:url(#clip-path)"><path d="M60.6,55.3H61a2.5,2.5,0,0,0,1.8-.8,3.6,3.6,0,0,0,.8-2.3V31.1a3,3,0,0,0-.9-2.4,4.2,4.2,0,0,0-2.1-.8v-.3h9v.3a4.8,4.8,0,0,0-2.1.7,3,3,0,0,0-.9,2.5V51.5a3.1,3.1,0,0,0,.9,2.6,5.1,5.1,0,0,0,3,.7h2.4a7.3,7.3,0,0,0,2.5-.4,2.9,2.9,0,0,0,1.5-1.2A11.3,11.3,0,0,0,78,51h.3l-1.1,4.6H60.6Z" transform="translate(0 0)" style="fill:#252c5c"/><path d="M88.9,27.6v.3a4,4,0,0,0-2.1.7,3,3,0,0,0-.9,2.4V52.2a3.1,3.1,0,0,0,1,2.4,3.1,3.1,0,0,0,2,.7v.3H80v-.3a3,3,0,0,0,2.1-.7,2.7,2.7,0,0,0,.9-2.4V31a2.7,2.7,0,0,0-.9-2.4,3.8,3.8,0,0,0-2.1-.7v-.3Z" transform="translate(0 0)" style="fill:#252c5c"/><path d="M116.7,27.6v.3a3.8,3.8,0,0,0-1.7.8,3.5,3.5,0,0,0-1.2,1.5c-.4.6-.7,1.5-1.2,2.5s-.1.3-.2.4l-8.1,23.3h-.2L94.5,31.2V31A5.1,5.1,0,0,0,93,28.7a3.5,3.5,0,0,0-2.2-.8v-.3H100v.3a5.9,5.9,0,0,0-1.9.5c-.5.2-.7.8-.7,1.6a3.2,3.2,0,0,0,.3,1.4c0,.1,0,.2.1.2v.2l7.3,19.7h.1l6.3-18.3a9.5,9.5,0,0,0,.7-2.9c0-1-.2-1.6-.7-1.9a4.1,4.1,0,0,0-1.9-.5v-.3Z" transform="translate(0 0)" style="fill:#252c5c"/><path d="M118.5,27.9v-.3h16.7V32H135c0-2.3-1.6-3.5-4.8-3.5h-5.7V41.2h5.1a6.5,6.5,0,0,0,2.7-.5,2.4,2.4,0,0,0,1.4-2.2h.2v6.3h-.2a3.6,3.6,0,0,0-.7-1.7,3.1,3.1,0,0,0-.9-.7l-.9-.2h-6.7V52a3.4,3.4,0,0,0,.4,2c.3.5.9.8,2,.8H131a5.3,5.3,0,0,0,2.5-.5,2.9,2.9,0,0,0,1.5-1.2,6.6,6.6,0,0,0,.9-1.9h.3l-1,4.4H118.5v-.3h.4a2.1,2.1,0,0,0,1.7-.7,2.7,2.7,0,0,0,.9-2.4V31.1a4.6,4.6,0,0,0-.6-2.2,2,2,0,0,0-2-1Z" transform="translate(0 0)" style="fill:#252c5c"/><path d="M137.9,28h-.4v-.4h9.7a10.5,10.5,0,0,1,4,.7,7,7,0,0,1,2.6,1.9,7.6,7.6,0,0,1,1.3,2.3,10.1,10.1,0,0,1,.4,2.5,5.9,5.9,0,0,1-.7,2.9,5.8,5.8,0,0,1-2,2.4,7.5,7.5,0,0,1-3.3,1.4h0a12.3,12.3,0,0,1,4.7,4.9l2.5,4.2a12.5,12.5,0,0,0,2.8,3.7,4,4,0,0,0,2,.8v.3h-5.1a2.7,2.7,0,0,1-.7-.8l-.6-.8-.5-.9-.5-.6-3.3-5.6a17.8,17.8,0,0,0-2.1-2.7,7.5,7.5,0,0,0-2-1.5,4.4,4.4,0,0,0-1.6-.6h-1.7V52.2c0,2,1,3.1,3,3.1v.3h-9v-.3a4,4,0,0,0,1.5-.3,1.8,1.8,0,0,0,1.1-1,2.8,2.8,0,0,0,.4-1.8V31.1a3,3,0,0,0-.8-2.4A2.6,2.6,0,0,0,137.9,28Zm5.6,13.3h1.6a9.7,9.7,0,0,0,4.1-.8,5,5,0,0,0,2.3-2,7.5,7.5,0,0,0,.7-3.3,7.1,7.1,0,0,0-.7-3.2,5.5,5.5,0,0,0-2.2-2.6,7.4,7.4,0,0,0-4.1-1.1l-1.8.2Z" transform="translate(0 0)" style="fill:#252c5c"/><path d="M162.5,27.9v-.3h9.1a14,14,0,0,1,4.1.6,7.9,7.9,0,0,1,2.9,1.8,7,7,0,0,1,2.4,5.3,7.1,7.1,0,0,1-.6,2.8,5.6,5.6,0,0,1-1.7,2.4,9,9,0,0,1-3,1.7,15.4,15.4,0,0,1-4.3.6l-3-.2v9.6c0,2,1,3.1,3,3.1v.3h-8.9v-.3a3.3,3.3,0,0,0,2.1-.7,3,3,0,0,0,.9-2.4V31.1a5.1,5.1,0,0,0-.3-1.7l-.7-.9-1-.4-.7-.2Zm5.8.7V41.8l2.9.3a8.1,8.1,0,0,0,4.6-1.4c1.3-1,1.9-2.7,1.9-5.2a7.6,7.6,0,0,0-1.6-5.1,6.2,6.2,0,0,0-5.1-2A12.3,12.3,0,0,0,168.3,28.6Z" transform="translate(0 0)" style="fill:#252c5c"/><path d="M212.2,41.7a14.8,14.8,0,0,1-14.8,14.7,15.3,15.3,0,0,1-7.5-2,14.7,14.7,0,0,1-5.4-5.4,15.3,15.3,0,0,1-2-7.5A14.1,14.1,0,0,1,186.9,31a15.2,15.2,0,0,1,4.8-3.1,15,15,0,0,1,15.9,3,16.7,16.7,0,0,1,3.3,4.7A15.9,15.9,0,0,1,212.2,41.7Zm-3.4,0c0-3.7-.6-6.6-2-8.7a9.9,9.9,0,0,0-4.5-4.3,13.8,13.8,0,0,0-4.9-1,15.9,15.9,0,0,0-3.7.6,13.6,13.6,0,0,0-3.7,2.1,12.3,12.3,0,0,0-3,4.4,17.9,17.9,0,0,0-1.1,6.9,17.3,17.3,0,0,0,1,6.3,11.7,11.7,0,0,0,2.6,4.4,11,11,0,0,0,3.7,2.3,12.5,12.5,0,0,0,4.2.8,10.5,10.5,0,0,0,4-.7,10.1,10.1,0,0,0,3.7-2.3,11.7,11.7,0,0,0,2.7-4.2A18.2,18.2,0,0,0,208.8,41.7Z" transform="translate(0 0)" style="fill:#252c5c"/><path d="M244.3,41.7a14.6,14.6,0,0,1-2,7.3A14.9,14.9,0,0,1,222,54.4a15.5,15.5,0,0,1-5.4-5.4,15.3,15.3,0,0,1-2-7.5A14.6,14.6,0,0,1,219.1,31a14.8,14.8,0,0,1,4.7-3.1,15,15,0,0,1,15.9,3,16.7,16.7,0,0,1,3.3,4.7A14.2,14.2,0,0,1,244.3,41.7Zm-3.3,0a16.5,16.5,0,0,0-2-8.7,11,11,0,0,0-4.5-4.3,14.4,14.4,0,0,0-5-1,15.1,15.1,0,0,0-3.6.6,11.2,11.2,0,0,0-3.7,2.1,10.2,10.2,0,0,0-3,4.4,16.2,16.2,0,0,0-1.2,6.9,19.7,19.7,0,0,0,1,6.3,13.4,13.4,0,0,0,2.7,4.4,10.1,10.1,0,0,0,3.7,2.3,11.6,11.6,0,0,0,4.2.8,11.2,11.2,0,0,0,4-.7,11,11,0,0,0,3.7-2.3,11.7,11.7,0,0,0,2.7-4.2A20.7,20.7,0,0,0,241,41.7Z" transform="translate(0 0)" style="fill:#252c5c"/><path d="M243.5,55.3h.3a2.7,2.7,0,0,0,1.9-.8,3,3,0,0,0,.7-2.3V31.1a2.7,2.7,0,0,0-.9-2.4,3.9,3.9,0,0,0-2-.8v-.3h9v.3a4.8,4.8,0,0,0-2.1.7,2.7,2.7,0,0,0-.9,2.5V51.5a2.8,2.8,0,0,0,.9,2.6,5.1,5.1,0,0,0,3,.7h2.4a7.3,7.3,0,0,0,2.5-.4,2.9,2.9,0,0,0,1.5-1.2,11.3,11.3,0,0,0,1.1-2.2h.3l-1,4.6H243.5Z" transform="translate(0 0)" style="fill:#252c5c"/><path d="M68.6,13.8c0,.8-.2,3-3.6,3s-3.4-2.2-3.4-3V6.7h1v6.7c0,.9.1,2.7,2.4,2.7s2.6-1.8,2.6-2.7V6.7h1Z" transform="translate(0 0)" style="fill:#945f14"/><polygon points="79.6 6.7 80.9 6.7 85.8 15.6 85.8 15.6 85.8 6.7 86.8 6.7 86.8 16.7 85.4 16.7 80.6 8 80.6 8 80.6 16.7 79.6 16.7 79.6 6.7" style="fill:#945f14"/><rect x="97.9" y="6.7" width="1" height="9.98" style="fill:#945f14"/><polygon points="108.3 6.7 109.3 6.7 112.6 15.8 112.7 15.8 116.1 6.7 117.1 6.7 113.3 16.7 112 16.7 108.3 6.7" style="fill:#945f14"/><polygon points="126.5 6.7 131.5 6.7 131.5 7.5 127.4 7.5 127.4 11.1 131.3 11.1 131.3 11.9 127.4 11.9 127.4 15.9 131.6 15.9 131.6 16.7 126.5 16.7 126.5 6.7" style="fill:#945f14"/><path d="M142,6.7h2.3c1.4,0,3.7.3,3.7,2.6a2.4,2.4,0,0,1-2.3,2.4h0c1.5.4,1.6,1.2,1.9,2.2l.6,2.7h-1l-.6-2.3c-.3-1.4-.6-2.2-2.3-2.2h-1.4v4.5h-1Zm1,4.7h.8c1.6,0,3.2-.5,3.2-2.1s-2-1.8-2.8-1.8h-1.3Z" transform="translate(0 0)" style="fill:#945f14"/><path d="M162.1,11.3c1.2.6,2.4,1.2,2.4,2.7s-1.9,2.8-3.9,2.8a9.3,9.3,0,0,1-2.3-.2v-.9a5.7,5.7,0,0,0,2.6.3c1.3,0,2.6-.6,2.6-1.8s-1.3-1.7-2-2.1l-.9-.4c-1-.5-2.4-1.1-2.4-2.6s.2-2.5,3.4-2.5l2.3.2v.9a9.1,9.1,0,0,0-2.3-.3c-1.7,0-2.4.7-2.4,1.7s1,1.4,2,1.8Z" transform="translate(0 0)" style="fill:#945f14"/><rect x="174.8" y="6.7" width="1" height="9.98" style="fill:#945f14"/><polygon points="188.2 7.5 185.5 7.5 185.5 6.7 191.9 6.7 191.9 7.5 189.2 7.5 189.2 16.7 188.2 16.7 188.2 7.5" style="fill:#945f14"/><polygon points="203.6 12.1 200.1 6.7 201.2 6.7 204 11.2 207 6.7 208 6.7 204.6 12.1 204.6 16.7 203.6 16.7 203.6 12.1" style="fill:#945f14"/><path d="M229.2,11.7c0-2.3.8-5.1,4-5.1s3.8,2.8,3.8,5.1-.7,5.2-3.8,5.2S229.2,14.1,229.2,11.7Zm3.9,4.4c2.4,0,2.8-2.6,2.8-4.4s-.4-4.3-2.8-4.3-2.8,2.5-2.8,4.3.4,4.3,2.8,4.3Z" transform="translate(0 0)" style="fill:#945f14"/><polygon points="247.5 6.7 252.7 6.7 252.7 7.5 248.5 7.5 248.5 11.1 252.5 11.1 252.5 11.9 248.5 11.9 248.5 16.7 247.5 16.7 247.5 6.7" style="fill:#945f14"/><g style="clip-path:url(#clip-path-2)"><rect x="48" y="21.5" width="221" height="0.58" style="fill:#945f14"/><path d="M40.3,1.2A131.6,131.6,0,0,0,20.5,0h0A130,130,0,0,0,.7,1.2S-3.4,31.5,8.5,49.7c4,6.1,12,12.2,12,12.2h0s7.9-6.1,12-12.2C44.4,31.5,40.3,1.2,40.3,1.2Z" transform="translate(0 0)" style="fill:#252c5c"/></g><path d="M3.4,8.3v.2a1.3,1.3,0,0,1,1.2-.4A1.6,1.6,0,0,0,3.4,8.3Z" transform="translate(0 0)" style="fill:#010101"/><path d="M4.6,9.4h0Zm-.5,1.5h0Zm5,6.5.3.2h.1a.6.6,0,0,1,.2.5v-.6l-.3-.3Zm4.3-4.2.5,1.9h.3l-.3-.9ZM7.6,7.5H6.7l-.9.4.6-.2H7.6Zm1,3.4h.3l.9.3-.6-.3-.9-.3h.1Zm-3.8-.3H4.7l-.2.3h.1l.2-.2h0Zm.4-1a3,3,0,0,0,.2-1h0V8.1h0s-.1-.2-.2-.1v.6c-.1.4-.1.7-.2,1s.1.1.1.2a.4.4,0,0,1,.1.3l-.2.5c-.1,0-.1.1,0,.1h0c.1,0,0-.1.2-.2s.1-.3.2-.5a.4.4,0,0,0-.1-.3Zm10.5,2.8,1,1H15.6l-.9.4h.1a4.6,4.6,0,0,0,2.3-1.6l-.9-.5Zm3.4-4.6c0,.2-.1.4-.1.7h0V9h0v.2h0v.2h0c0,.1-.1.2-.1.4h0l-.3.6h.3a13.2,13.2,0,0,0,.9-3l-.6.4Zm-2.3,2.6,1.4.6-.2.2A5.2,5.2,0,0,1,17,13h.2A10.7,10.7,0,0,0,18.5,11l-1.3-.6Zm-6,7h-.3a4.1,4.1,0,0,0-.2,2.9h.1a6.7,6.7,0,0,1,1.8.7h.2a4.5,4.5,0,0,0-1.8-.7,4.4,4.4,0,0,1,.2-3ZM8.7,20.9H7.8c-.1.1-.1.1-.1.2a2.4,2.4,0,0,1,1.4-.5,13.1,13.1,0,0,1,2.8,0,17.1,17.1,0,0,0-3.2,0Z" transform="translate(0 0)" style="fill:#010101"/><path d="M7,7.5H6.4l-.6.2.9-.4H7ZM9.8,18.3l-.2-.4h0v-.2H9.4l-.3-.2.7.2ZM19.1,7.6c-2,1.5-6.3,1.4-7,1.6a.5.5,0,0,0-.4.7c-1,2.4-2.7,1.2-2.7,1.2s-1,0-.5,1c-2-.2-.4-3,.4-3.6a11.6,11.6,0,0,0,1.6-2.1c-.3.3-1,.8-3,.4A2.1,2.1,0,0,0,6,7.1C2.2,6.8,3.2,8.5,3.2,8.5s1.5-.4,1.5-.4a.8.8,0,0,0,.2.5,2.9,2.9,0,0,1-.2.9l-.5-.2c-.3.1-.3.5-.6.6l.3.2a.9.9,0,0,0-.1.5V11h.2a.5.5,0,0,0,.6-.4h.1c0,.1.1.2.1.3a.5.5,0,0,1,.1-.3l.3-.4c0-.2,0-.3-.1-.4H5a5.4,5.4,0,0,0,.3-1h0V7.9c.1-.1.2.1.2.1v.5h.4s1.2-.2,1.4.1.1,1.2-1,3.1a3.6,3.6,0,0,0,1.5,5l.3.2a3.5,3.5,0,0,1,1.6,3s-2.2.4-2.3,1.4l1.4-.5a12.9,12.9,0,0,1,3.4.1l-1.9-.7a4.8,4.8,0,0,1,.2-2.9h.1a3.6,3.6,0,0,1,2,.6l-.3-.8a3.2,3.2,0,0,1,2.1,1.8,6.7,6.7,0,0,0-2-3.9h1.5l-.5-1.9,1,1.8a5.1,5.1,0,0,0,2.3-1.5l-1-1,1.3.6a7.2,7.2,0,0,0,1.2-2.1l-1.3-.6,1.5.2A9.6,9.6,0,0,0,19.1,7.6Z" transform="translate(0 0)" style="fill:#fff"/><path d="M8.8,8.6c-.7.5-2.4,3.3-.4,3.6-1.5-.6,0-3,.7-3.6a8.9,8.9,0,0,0,1.6-2.2l-.5.3A6.2,6.2,0,0,1,8.8,8.6Zm3.8,6.5h-.3l.2.2h.1l.2.2h0v.2h0l.2.2h0v.2h.1l.2.2h0c0,.1,0,.2.1.2h0c0,.1,0,.2.1.2h0v.2h0v.2h0a.3.3,0,0,1,.1.2h0v.2c.1,0,.1,0,0,.1s.1,0,0,.1.1.1,0,.1h0c.1,0,.1,0,0,.1a2.1,2.1,0,0,1,.4.6A7,7,0,0,0,12.6,15.1Zm-.3,2,.2.7.4.2-.3-.8h-.3Z" transform="translate(0 0)" style="fill:#010101"/><path d="M22.5,8.3v.2a1,1,0,0,1,1.1-.4A1.6,1.6,0,0,0,22.5,8.3Z" transform="translate(0 0)" style="fill:#010101"/><path d="M23.7,9.4h0Zm-.4,1.5h0Zm5,6.5c0,.1.1.1.2.2h.2a.7.7,0,0,1,.1.5v-.6l-.2-.3Zm4.2-4.2.4,1.9h.3l-.2-.9ZM26.8,7.5h-1l-.9.4.6-.2h1.3Zm.9,3.4H28a1.7,1.7,0,0,0,1,.3.9.9,0,0,1-.7-.3l-.9-.3h.2Zm-3.8-.3h-.1l-.2.3h.2c.1-.1.1-.2.2-.2h-.1Zm.4-1a1.6,1.6,0,0,0,.2-1h0V8.1h0s-.1-.2-.2-.1v.6a2.9,2.9,0,0,1-.3,1l.2.2a.4.4,0,0,1,.1.3l-.3.5h.1v-.2l.3-.5a.6.6,0,0,0-.1-.4Zm10.5,2.8,1,1H34.7l-.9.4h.1a4.6,4.6,0,0,0,2.3-1.6l-.9-.5Zm3.4-4.6a5.6,5.6,0,0,0-.1.7h0V9h0v.2h0v.2h0l-.2.4h0a1.4,1.4,0,0,1-.2.6h.3a13.2,13.2,0,0,0,.8-3,1,1,0,0,1-.5.4Zm-2.3,2.6,1.4.6-.2.2a5.2,5.2,0,0,1-1,1.8h.3A7.2,7.2,0,0,0,37.6,11l-1.3-.6Zm-6,7h-.3a4.1,4.1,0,0,0-.2,2.9h.1a5.1,5.1,0,0,1,1.7.7h.3a4.5,4.5,0,0,0-1.8-.7,4.4,4.4,0,0,1,.2-3Zm-2,3.5h-1v.2a2.7,2.7,0,0,1,1.4-.5,14.1,14.1,0,0,1,2.9,0,18.2,18.2,0,0,0-3.3,0Z" transform="translate(0 0)" style="fill:#010101"/><path d="M26.1,7.5h-.6l-.6.2.9-.4h.3Zm2.8,10.8c-.1-.2-.1-.3-.2-.4h0v-.2h-.1a.2.2,0,0,1-.2-.2l.6.2ZM38.3,7.6c-2.1,1.5-6.4,1.4-7,1.6s-.5.7-.5.7c-1,2.4-2.7,1.2-2.7,1.2s-1,0-.5,1c-2-.2-.3-3,.4-3.6a11.6,11.6,0,0,0,1.6-2.1c-.3.2-1,.7-3,.3a1.9,1.9,0,0,0-1.5.4c-3.8-.3-2.9,1.3-2.9,1.3s1.6-.3,1.6-.3a.5.5,0,0,0,.2.4,2.9,2.9,0,0,1-.2.9h-.6c-.3,0-.2.5-.5.6l.3.2a.7.7,0,0,0-.1.5c0,.1.1.1.1.2V11h.6l.2-.3h.1v0l.3-.5a.4.4,0,0,0-.1-.3l-.2-.2a3,3,0,0,0,.2-1h0V8.1c0-.1,0-.2-.1-.2a.2.2,0,0,1,.3.1v.5h.3s1.3-.1,1.5.2.1,1.1-1,3.1a3.7,3.7,0,0,0,1.5,5h.3a3.8,3.8,0,0,1,1.7,3s-2.3.5-2.4,1.5a3.5,3.5,0,0,1,1.4-.6,19.4,19.4,0,0,1,3.4.2,6.2,6.2,0,0,0-1.9-.7,4.8,4.8,0,0,1,.2-2.9h.1a4.6,4.6,0,0,1,2,.5l-.3-.7c1.3.2,2,1.8,2,1.8a6.4,6.4,0,0,0-2-3.9h1.5l-.3-1.8,1,1.8a4.6,4.6,0,0,0,2.3-1.6l-1-1,1.3.7A8.8,8.8,0,0,0,37.3,11L36,10.4l1.5.2C37.8,9.6,38.1,8.6,38.3,7.6Z" transform="translate(0 0)" style="fill:#fff"/><path d="M27.9,8.6c-.7.5-2.3,3.3-.3,3.6-1.6-.6,0-3,.6-3.6a7.3,7.3,0,0,0,1.6-2.2.5.5,0,0,1-.4.3A9,9,0,0,1,27.9,8.6Zm3.8,6.5h-.3l.2.2h.1l.2.2h0v.2h0V16h0l.2.2h.1v.2h0v.2h0a.3.3,0,0,0,.1.2h0v.2h0v.2h0a.3.3,0,0,1,.1.2h0v.2c-.1,0-.1,0,0,.1s-.1,0,0,.1-.1.1,0,.1h0c-.1,0-.1,0,0,.1l.3.6A7,7,0,0,0,31.7,15.1Zm-.3,2,.2.7.4.2-.3-.8h-.3Z" transform="translate(0 0)" style="fill:#010101"/><path d="M11.4,39.4a.4.4,0,0,0,.1.3,1.5,1.5,0,0,1,1.4-.5A1.6,1.6,0,0,0,11.4,39.4Z" transform="translate(0 0)" style="fill:#010101"/><path d="M13,40.8h.1l-.5-.2h-.1l.4.2Zm-.6,1.9h0Zm6.2,8.2.3.2h0v.2h.1a.7.7,0,0,1,.2.6v-.7l-.3-.4ZM24,45.6l.6,2.4h.3l-.3-1.2Zm-7.2-7.2H15.6l-1.2.5.8-.3h.2c0,.2.1.2.3.2h1.1Zm1.1,4.3h.5a2.7,2.7,0,0,0,1.2.3,3.2,3.2,0,0,1-.9-.3c-.5-.4-.9-.5-1-.4h.1Zm-4.7-.3h0a.1.1,0,0,0-.1-.1l-.3.4H13a.2.2,0,0,0,.2-.2Zm.5-1.3a2.7,2.7,0,0,0,.3-1.2h0v-.6h0s-.1-.3-.3-.1v.8L13.5,41c0,.1.1.2.2.3s.1.2,0,.4a.9.9,0,0,1-.3.6h0v.2l.2-.3a1.4,1.4,0,0,0,.2-.6.5.5,0,0,0,0-.5Zm13.1,3.5,1.3,1.3v.2H26.6a2.4,2.4,0,0,1-1.1.6h0v.2a6.9,6.9,0,0,0,3-2l-.9-1Zm4.4-5.9a5.1,5.1,0,0,1-.2.9h0v.2h0v.2h0v.2h0c-.1,0-.1.1-.1.2h0c0,.2-.1.3-.2.5h0l-.3.8h.4a23.6,23.6,0,0,0,1-3.8ZM28.3,42l1.7.7-.2.4a12.7,12.7,0,0,1-1.3,2.2h.3a11.7,11.7,0,0,0,1.5-2.7L28.7,42Zm-7.6,8.7h-.4a5.9,5.9,0,0,0-.2,3.7h.1a9.2,9.2,0,0,1,2.3.9h.3a7,7,0,0,0-2.3-.8A5.5,5.5,0,0,1,20.7,50.7Zm-2.6,4.4h-.5v.2h-.6c0,.1-.1.2-.1.3a4.9,4.9,0,0,1,1.7-.6,21.7,21.7,0,0,1,3.6.1,17.9,17.9,0,0,0-4-.1Z" transform="translate(0 0)" style="fill:#010101"/><path d="M16,38.4l-.3.2c-.2,0-.3,0-.3-.2h-.2l-.8.2,1.2-.5.6.2H16ZM19.5,52c-.1-.2-.1-.4-.3-.6h-.1v-.2h0l-.3-.2.8.2ZM31.2,38.5c-2.6,1.9-8,1.8-8.8,2.1s-.6.8-.6.8c-1.2,3.1-3.3,1.5-3.3,1.5-1.7-1-1.4.1-.7,1.3-2.6-.3-.5-3.8.4-4.5a9,9,0,0,0,2-2.7c-.3.4-1.2,1-3.7.5a2,2,0,0,0-1.8.5c-4.8-.5-3.6,1.6-3.6,1.6s1.9-.4,1.9-.4a.7.7,0,0,0,.4.5l-.3,1.2-.7-.2c-.4.1-.4.6-.8.8l.4.2a1.3,1.3,0,0,0-.1.6c0,.2.1.2.1.3v.2h.7a.8.8,0,0,0,.4-.4h0c.1.1.2.2.2.3l.2-.3.3-.6c0-.2,0-.3-.1-.4s-.2-.2-.2-.3a4.3,4.3,0,0,0,.2-1.2h0v-.5a.4.4,0,0,0-.1-.3c.2-.1.3.2.3.2v.6h.6s1.5-.1,1.7.3.2,1.3-1.2,3.8.1,5.3,2.3,6.5A4.2,4.2,0,0,1,19.4,54s-2.8.6-2.9,1.9a3.6,3.6,0,0,1,1.7-.7,15.5,15.5,0,0,1,4.3.2,9.9,9.9,0,0,0-2.4-.9,6.7,6.7,0,0,1,.2-3.7h.1a5.9,5.9,0,0,1,2.6.7l-.4-1a3.9,3.9,0,0,1,2.6,2.3c0-1.7-1.2-3.4-2.5-4.9h1.9L24,45.6l1.2,2.2a5.5,5.5,0,0,0,3-2l-1.3-1.2,1.6.8A11.7,11.7,0,0,0,30,42.7L28.3,42l1.9.3A26.6,26.6,0,0,0,31.2,38.5Z" transform="translate(0 0)" style="fill:#fff"/><path d="M18.3,39.7c-.9.7-3,4.2-.5,4.5-2-.6,0-3.8.8-4.4a10.5,10.5,0,0,0,2-2.7l-.6.3A6.6,6.6,0,0,1,18.3,39.7ZM23,48h-.3a.3.3,0,0,1,.1.2h0l.2.2h0l.2.2h0l.2.2h0l.2.3h0v.2h0c.1.1.1.2.2.2h0v.3h0c.1.1.1.2.2.2h0v.3h0a.3.3,0,0,0,.1.2h0v.2h0c0,.1,0,.1.1.2h0v.2h0c.1,0,.1.1.1.2h0a2,2,0,0,1,.4.8c.4-1.5-.8-3.3-2.1-4.7Zm-.4,2.5.3.9.4.2-.3-1Z" transform="translate(0 0)" style="fill:#010101"/><g style="clip-path:url(#clip-path-3)"><g style="clip-path:url(#clip-path-4)"><g style="clip-path:url(#clip-path-5)"><g style="clip-path:url(#clip-path-5)"><rect x="9.1" y="28.9" width="10.9" height="5.19" style="fill:url(#linear-gradient)"/></g></g></g></g><g style="clip-path:url(#clip-path-7)"><g style="clip-path:url(#clip-path-8)"><g style="clip-path:url(#clip-path-9)"><g style="clip-path:url(#clip-path-9)"><rect x="25.3" y="31.3" width="5.9" height="1.91" style="fill:url(#linear-gradient-2)"/></g></g></g></g><g style="clip-path:url(#clip-path-11)"><g style="clip-path:url(#clip-path-12)"><g style="clip-path:url(#clip-path-13)"><g style="clip-path:url(#clip-path-13)"><rect x="8.4" y="30.3" width="7.5" height="2.15" style="fill:url(#linear-gradient-3)"/></g></g></g></g><g style="clip-path:url(#clip-path-15)"><g style="clip-path:url(#clip-path-16)"><g style="clip-path:url(#clip-path-17)"><g style="clip-path:url(#clip-path-17)"><rect x="22.8" y="30.5" width="8.5" height="2.42" style="fill:url(#linear-gradient-4)"/></g></g></g></g><path d="M19.9,34.1c-4-4.3-8.9-2.2-10.4-1.4l-.2.4.3.2s5.2-3.7,9.7.9c.7.7.7.5,1.3,0,5.1-4.8,9.5-.9,9.7-1l.4-.2v-.3C29,31.9,24,29.7,20,34Z" transform="translate(0 0)" style="fill:#945f14"/><g style="clip-path:url(#clip-path-19)"><g style="clip-path:url(#clip-path-20)"><g style="clip-path:url(#clip-path-21)"><g style="clip-path:url(#clip-path-21)"><rect x="8.5" y="21" width="11.8" height="13.11" style="fill:url(#linear-gradient-5)"/></g></g></g></g><g style="clip-path:url(#clip-path-23)"><g style="clip-path:url(#clip-path-24)"><g style="clip-path:url(#clip-path-25)"><g style="clip-path:url(#clip-path-25)"><rect x="19.8" y="21" width="11.7" height="13.27" style="fill:url(#linear-gradient-6)"/></g></g></g></g><path d="M12.6,26.8h.1c.2,0,.3-.2.4-.5h.1a4.3,4.3,0,0,1-.1.5.7.7,0,0,1-.1.5h-.1c0-.2,0-.4-.2-.3h-.1l-.3.6c0,.3,0,.3.4.2V28H12l-.7.2v-.2c.4,0,.4-.2.5-.4l.4-1.2c.1-.3.1-.5-.2-.4v-.2h.8l1.1-.2v.6h-.2c0-.4-.1-.4-.5-.3s-.3.1-.4.4Z" transform="translate(0 0)" style="fill:#010101"/><path d="M14.5,26.1c0-.3.1-.4-.2-.3v-.2h1c-.3,0-.3.2-.4.4l-.3,1.2c0,.4-.1.5.2.5H13.6v-.2c.3,0,.3-.1.4-.5Z" transform="translate(0 0)" style="fill:#010101"/><path d="M15.8,27.2c0,.1-.1.2-.1.3s.1.2.2.2v.2h-.8v-.2c.3,0,.5-.3.6-.5l.7-1.7h.3s.3,1.5.3,1.9a1.1,1.1,0,0,1,.1.5l.2.2h-1v-.2c.1,0,.3,0,.3-.1v-.5h-.8Zm.4-.3h.3l-.2-.9-.4.9Z" transform="translate(0 0)" style="fill:#010101"/><path d="M19,27.1h-.1c0-.4,0-.7-.2-.8s-.2,0-.2.3l-.2,1.3c0,.4,0,.5.3.6v.2l-.5-.2-.6-.2v-.2c.3.1.3,0,.4-.3V26.5c0-.3.1-.4-.1-.5s-.3.2-.4.5h-.1v-.8l.8.3.8.4Z" transform="translate(0 0)" style="fill:#010101"/><path d="M22,28.7c.3-.1.2-.3.2-.6V26.7c0-.3,0-.5-.3-.3v-.2l.4-.2.6-.2V26c-.3.1-.2.2-.2.6v1c0,.4.1.6.5.5a.9.9,0,0,0,.6-.8H24v.8l-1.5.4-.5.3Z" transform="translate(0 0)" style="fill:#010101"/><path d="M23.8,25.8h1.1c-.3,0-.2.2-.2.5v.7c.1.5.3.8.7.7s.5-.2.4-.7v-.5c0-.2-.1-.3-.2-.5s-.1-.1-.2-.1v-.2h.7V26c-.1,0-.2,0-.2.1v.8c0,.7.1,1.1-.7,1.1a.9.9,0,0,1-1.1-.8c0-.1-.1-.1-.1-.2v-.6c0-.3,0-.5-.4-.5Z" transform="translate(0 0)" style="fill:#010101"/><path d="M28.3,28.1c.1.2.2.3.4.3H27.6v-.2h.2l-.2-.3-.3-.4-.2.2c0,.1-.1.2-.1.4s.1.1.2.2h-.7V28l.3-.2.4-.6-.4-.7c-.1,0-.1-.1-.2-.2s-.1-.1-.2-.2h.8c0,.1,0,.2.1.2v.3l.2-.2a.3.3,0,0,0,.1-.2c.1-.1-.1-.1-.2-.2h.6q-.2,0-.3.3l-.3.4Z" transform="translate(0 0)" style="fill:#010101"/></g><g style="clip-path:url(#clip-path)"><path d="M60.6,55.3H61a2.5,2.5,0,0,0,1.8-.8,3.6,3.6,0,0,0,.8-2.3V31.1a3,3,0,0,0-.9-2.4,4.2,4.2,0,0,0-2.1-.8v-.3h9v.3a4.8,4.8,0,0,0-2.1.7,3,3,0,0,0-.9,2.5V51.5a3.1,3.1,0,0,0,.9,2.6,5.1,5.1,0,0,0,3,.7h2.4a7.3,7.3,0,0,0,2.5-.4,2.9,2.9,0,0,0,1.5-1.2A11.3,11.3,0,0,0,78,51h.3l-1.1,4.6H60.6Z" transform="translate(0 0)" style="fill:#fff"/><path d="M88.9,27.6v.3a4,4,0,0,0-2.1.7,3,3,0,0,0-.9,2.4V52.2a3.1,3.1,0,0,0,1,2.4,3.1,3.1,0,0,0,2,.7v.3H80v-.3a3,3,0,0,0,2.1-.7,2.7,2.7,0,0,0,.9-2.4V31a2.7,2.7,0,0,0-.9-2.4,3.8,3.8,0,0,0-2.1-.7v-.3Z" transform="translate(0 0)" style="fill:#fff"/><path d="M116.7,27.6v.3a3.8,3.8,0,0,0-1.7.8,3.5,3.5,0,0,0-1.2,1.5c-.4.6-.7,1.5-1.2,2.5s-.1.3-.2.4l-8.1,23.3h-.2L94.5,31.2V31A5.1,5.1,0,0,0,93,28.7a3.5,3.5,0,0,0-2.2-.8v-.3H100v.3a5.9,5.9,0,0,0-1.9.5c-.5.2-.7.8-.7,1.6a3.2,3.2,0,0,0,.3,1.4c0,.1,0,.2.1.2v.2l7.3,19.7h.1l6.3-18.3a9.5,9.5,0,0,0,.7-2.9c0-1-.2-1.6-.7-1.9a4.1,4.1,0,0,0-1.9-.5v-.3Z" transform="translate(0 0)" style="fill:#fff"/><path d="M118.5,27.9v-.3h16.7V32H135c0-2.3-1.6-3.5-4.8-3.5h-5.7V41.2h5.1a6.5,6.5,0,0,0,2.7-.5,2.4,2.4,0,0,0,1.4-2.2h.2v6.3h-.2a3.6,3.6,0,0,0-.7-1.7,3.1,3.1,0,0,0-.9-.7l-.9-.2h-6.7V52a3.4,3.4,0,0,0,.4,2c.3.5.9.8,2,.8H131a5.3,5.3,0,0,0,2.5-.5,2.9,2.9,0,0,0,1.5-1.2,6.6,6.6,0,0,0,.9-1.9h.3l-1,4.4H118.5v-.3h.4a2.1,2.1,0,0,0,1.7-.7,2.7,2.7,0,0,0,.9-2.4V31.1a4.6,4.6,0,0,0-.6-2.2,2,2,0,0,0-2-1Z" transform="translate(0 0)" style="fill:#fff"/><path d="M137.9,28h-.4v-.4h9.7a10.5,10.5,0,0,1,4,.7,7,7,0,0,1,2.6,1.9,7.6,7.6,0,0,1,1.3,2.3,10.1,10.1,0,0,1,.4,2.5,5.9,5.9,0,0,1-.7,2.9,5.8,5.8,0,0,1-2,2.4,7.5,7.5,0,0,1-3.3,1.4h0a12.3,12.3,0,0,1,4.7,4.9l2.5,4.2a12.5,12.5,0,0,0,2.8,3.7,4,4,0,0,0,2,.8v.3h-5.1a2.7,2.7,0,0,1-.7-.8l-.6-.8-.5-.9-.5-.6-3.3-5.6a17.8,17.8,0,0,0-2.1-2.7,7.5,7.5,0,0,0-2-1.5,4.4,4.4,0,0,0-1.6-.6h-1.7V52.2c0,2,1,3.1,3,3.1v.3h-9v-.3a4,4,0,0,0,1.5-.3,1.8,1.8,0,0,0,1.1-1,2.8,2.8,0,0,0,.4-1.8V31.1a3,3,0,0,0-.8-2.4A2.6,2.6,0,0,0,137.9,28Zm5.6,13.3h1.6a9.7,9.7,0,0,0,4.1-.8,5,5,0,0,0,2.3-2,7.5,7.5,0,0,0,.7-3.3,7.1,7.1,0,0,0-.7-3.2,5.5,5.5,0,0,0-2.2-2.6,7.4,7.4,0,0,0-4.1-1.1l-1.8.2Z" transform="translate(0 0)" style="fill:#fff"/><path d="M162.5,27.9v-.3h9.1a14,14,0,0,1,4.1.6,7.9,7.9,0,0,1,2.9,1.8,7,7,0,0,1,2.4,5.3,7.1,7.1,0,0,1-.6,2.8,5.6,5.6,0,0,1-1.7,2.4,9,9,0,0,1-3,1.7,15.4,15.4,0,0,1-4.3.6l-3-.2v9.6c0,2,1,3.1,3,3.1v.3h-8.9v-.3a3.3,3.3,0,0,0,2.1-.7,3,3,0,0,0,.9-2.4V31.1a5.1,5.1,0,0,0-.3-1.7l-.7-.9-1-.4-.7-.2Zm5.8.7V41.8l2.9.3a8.1,8.1,0,0,0,4.6-1.4c1.3-1,1.9-2.7,1.9-5.2a7.6,7.6,0,0,0-1.6-5.1,6.2,6.2,0,0,0-5.1-2A12.3,12.3,0,0,0,168.3,28.6Z" transform="translate(0 0)" style="fill:#fff"/><path d="M212.2,41.7a14.8,14.8,0,0,1-14.8,14.7,15.3,15.3,0,0,1-7.5-2,14.7,14.7,0,0,1-5.4-5.4,15.3,15.3,0,0,1-2-7.5A14.1,14.1,0,0,1,186.9,31a15.2,15.2,0,0,1,4.8-3.1,15,15,0,0,1,15.9,3,16.7,16.7,0,0,1,3.3,4.7A15.9,15.9,0,0,1,212.2,41.7Zm-3.4,0c0-3.7-.6-6.6-2-8.7a9.9,9.9,0,0,0-4.5-4.3,13.8,13.8,0,0,0-4.9-1,15.9,15.9,0,0,0-3.7.6,13.6,13.6,0,0,0-3.7,2.1,12.3,12.3,0,0,0-3,4.4,17.9,17.9,0,0,0-1.1,6.9,17.3,17.3,0,0,0,1,6.3,11.7,11.7,0,0,0,2.6,4.4,11,11,0,0,0,3.7,2.3,12.5,12.5,0,0,0,4.2.8,10.5,10.5,0,0,0,4-.7,10.1,10.1,0,0,0,3.7-2.3,11.7,11.7,0,0,0,2.7-4.2A18.2,18.2,0,0,0,208.8,41.7Z" transform="translate(0 0)" style="fill:#fff"/><path d="M244.3,41.7a14.6,14.6,0,0,1-2,7.3A14.9,14.9,0,0,1,222,54.4a15.5,15.5,0,0,1-5.4-5.4,15.3,15.3,0,0,1-2-7.5A14.6,14.6,0,0,1,219.1,31a14.8,14.8,0,0,1,4.7-3.1,15,15,0,0,1,15.9,3,16.7,16.7,0,0,1,3.3,4.7A14.2,14.2,0,0,1,244.3,41.7Zm-3.3,0a16.5,16.5,0,0,0-2-8.7,11,11,0,0,0-4.5-4.3,14.4,14.4,0,0,0-5-1,15.1,15.1,0,0,0-3.6.6,11.2,11.2,0,0,0-3.7,2.1,10.2,10.2,0,0,0-3,4.4,16.2,16.2,0,0,0-1.2,6.9,19.7,19.7,0,0,0,1,6.3,13.4,13.4,0,0,0,2.7,4.4,10.1,10.1,0,0,0,3.7,2.3,11.6,11.6,0,0,0,4.2.8,11.2,11.2,0,0,0,4-.7,11,11,0,0,0,3.7-2.3,11.7,11.7,0,0,0,2.7-4.2A20.7,20.7,0,0,0,241,41.7Z" transform="translate(0 0)" style="fill:#fff"/><path d="M243.5,55.3h.3a2.7,2.7,0,0,0,1.9-.8,3,3,0,0,0,.7-2.3V31.1a2.7,2.7,0,0,0-.9-2.4,3.9,3.9,0,0,0-2-.8v-.3h9v.3a4.8,4.8,0,0,0-2.1.7,2.7,2.7,0,0,0-.9,2.5V51.5a2.8,2.8,0,0,0,.9,2.6,5.1,5.1,0,0,0,3,.7h2.4a7.3,7.3,0,0,0,2.5-.4,2.9,2.9,0,0,0,1.5-1.2,11.3,11.3,0,0,0,1.1-2.2h.3l-1,4.6H243.5Z" transform="translate(0 0)" style="fill:#fff"/><path d="M68.6,13.8c0,.8-.2,3-3.6,3s-3.4-2.2-3.4-3V6.7h1v6.7c0,.9.1,2.7,2.4,2.7s2.6-1.8,2.6-2.7V6.7h1Z" transform="translate(0 0)" style="fill:#fff"/><polygon points="79.6 6.7 80.9 6.7 85.8 15.6 85.8 15.6 85.8 6.7 86.8 6.7 86.8 16.7 85.4 16.7 80.6 8 80.6 8 80.6 16.7 79.6 16.7 79.6 6.7" style="fill:#fff"/><rect x="97.9" y="6.7" width="1" height="9.98" style="fill:#fff"/><polygon points="108.3 6.7 109.3 6.7 112.6 15.8 112.7 15.8 116.1 6.7 117.1 6.7 113.3 16.7 112 16.7 108.3 6.7" style="fill:#fff"/><polygon points="126.5 6.7 131.5 6.7 131.5 7.5 127.4 7.5 127.4 11.1 131.3 11.1 131.3 11.9 127.4 11.9 127.4 15.9 131.6 15.9 131.6 16.7 126.5 16.7 126.5 6.7" style="fill:#fff"/><path d="M142,6.7h2.3c1.4,0,3.7.3,3.7,2.6a2.4,2.4,0,0,1-2.3,2.4h0c1.5.4,1.6,1.2,1.9,2.2l.6,2.7h-1l-.6-2.3c-.3-1.4-.6-2.2-2.3-2.2h-1.4v4.5h-1Zm1,4.7h.8c1.6,0,3.2-.5,3.2-2.1s-2-1.8-2.8-1.8h-1.3Z" transform="translate(0 0)" style="fill:#fff"/><path d="M162.1,11.3c1.2.6,2.4,1.2,2.4,2.7s-1.9,2.8-3.9,2.8a9.3,9.3,0,0,1-2.3-.2v-.9a5.7,5.7,0,0,0,2.6.3c1.3,0,2.6-.6,2.6-1.8s-1.3-1.7-2-2.1l-.9-.4c-1-.5-2.4-1.1-2.4-2.6s.2-2.5,3.4-2.5l2.3.2v.9a9.1,9.1,0,0,0-2.3-.3c-1.7,0-2.4.7-2.4,1.7s1,1.4,2,1.8Z" transform="translate(0 0)" style="fill:#fff"/><rect x="174.8" y="6.7" width="1" height="9.98" style="fill:#fff"/><polygon points="188.2 7.5 185.5 7.5 185.5 6.7 191.9 6.7 191.9 7.5 189.2 7.5 189.2 16.7 188.2 16.7 188.2 7.5" style="fill:#fff"/><polygon points="203.6 12.1 200.1 6.7 201.2 6.7 204 11.2 207 6.7 208 6.7 204.6 12.1 204.6 16.7 203.6 16.7 203.6 12.1" style="fill:#fff"/><path d="M229.2,11.7c0-2.3.8-5.1,4-5.1s3.8,2.8,3.8,5.1-.7,5.2-3.8,5.2S229.2,14.1,229.2,11.7Zm3.9,4.4c2.4,0,2.8-2.6,2.8-4.4s-.4-4.3-2.8-4.3-2.8,2.5-2.8,4.3.4,4.3,2.8,4.3Z" transform="translate(0 0)" style="fill:#fff"/><polygon points="247.5 6.7 252.7 6.7 252.7 7.5 248.5 7.5 248.5 11.1 252.5 11.1 252.5 11.9 248.5 11.9 248.5 16.7 247.5 16.7 247.5 6.7" style="fill:#fff"/><g style="clip-path:url(#clip-path-2)"><rect x="48" y="21.5" width="221" height="0.58" style="fill:#fff"/><path d="M40.3,1.2A131.6,131.6,0,0,0,20.5,0h0A130,130,0,0,0,.7,1.2S-3.4,31.5,8.5,49.7c4,6.1,12,12.2,12,12.2h0s7.9-6.1,12-12.2C44.4,31.5,40.3,1.2,40.3,1.2Z" transform="translate(0 0)" style="fill:#fff"/></g><path d="M3.4,8.3v.2a1.3,1.3,0,0,1,1.2-.4A1.6,1.6,0,0,0,3.4,8.3Z" transform="translate(0 0)" style="fill:#fff"/><path d="M4.6,9.4h0Zm-.5,1.5h0Zm5,6.5.3.2h.1a.6.6,0,0,1,.2.5v-.6l-.3-.3Zm4.3-4.2.5,1.9h.3l-.3-.9ZM7.6,7.5H6.7l-.9.4.6-.2H7.6Zm1,3.4h.3l.9.3-.6-.3-.9-.3h.1Zm-3.8-.3H4.7l-.2.3h.1l.2-.2h0Zm.4-1a3,3,0,0,0,.2-1h0V8.1h0s-.1-.2-.2-.1v.6c-.1.4-.1.7-.2,1s.1.1.1.2a.4.4,0,0,1,.1.3l-.2.5c-.1,0-.1.1,0,.1h0c.1,0,0-.1.2-.2s.1-.3.2-.5a.4.4,0,0,0-.1-.3Zm10.5,2.8,1,1H15.6l-.9.4h.1a4.6,4.6,0,0,0,2.3-1.6l-.9-.5Zm3.4-4.6c0,.2-.1.4-.1.7h0V9h0v.2h0v.2h0c0,.1-.1.2-.1.4h0l-.3.6h.3a13.2,13.2,0,0,0,.9-3l-.6.4Zm-2.3,2.6,1.4.6-.2.2A5.2,5.2,0,0,1,17,13h.2A10.7,10.7,0,0,0,18.5,11l-1.3-.6Zm-6,7h-.3a4.1,4.1,0,0,0-.2,2.9h.1a6.7,6.7,0,0,1,1.8.7h.2a4.5,4.5,0,0,0-1.8-.7,4.4,4.4,0,0,1,.2-3ZM8.7,20.9H7.8c-.1.1-.1.1-.1.2a2.4,2.4,0,0,1,1.4-.5,13.1,13.1,0,0,1,2.8,0,17.1,17.1,0,0,0-3.2,0Z" transform="translate(0 0)" style="fill:#fff"/><path d="M7,7.5H6.4l-.6.2.9-.4H7ZM9.8,18.3l-.2-.4h0v-.2H9.4l-.3-.2.7.2ZM19.1,7.6c-2,1.5-6.3,1.4-7,1.6a.5.5,0,0,0-.4.7c-1,2.4-2.7,1.2-2.7,1.2s-1,0-.5,1c-2-.2-.4-3,.4-3.6a11.6,11.6,0,0,0,1.6-2.1c-.3.3-1,.8-3,.4A2.1,2.1,0,0,0,6,7.1C2.2,6.8,3.2,8.5,3.2,8.5s1.5-.4,1.5-.4a.8.8,0,0,0,.2.5,2.9,2.9,0,0,1-.2.9l-.5-.2c-.3.1-.3.5-.6.6l.3.2a.9.9,0,0,0-.1.5V11h.2a.5.5,0,0,0,.6-.4h.1c0,.1.1.2.1.3a.5.5,0,0,1,.1-.3l.3-.4c0-.2,0-.3-.1-.4H5a5.4,5.4,0,0,0,.3-1h0V7.9c.1-.1.2.1.2.1v.5h.4s1.2-.2,1.4.1.1,1.2-1,3.1a3.6,3.6,0,0,0,1.5,5l.3.2a3.5,3.5,0,0,1,1.6,3s-2.2.4-2.3,1.4l1.4-.5a12.9,12.9,0,0,1,3.4.1l-1.9-.7a4.8,4.8,0,0,1,.2-2.9h.1a3.6,3.6,0,0,1,2,.6l-.3-.8a3.2,3.2,0,0,1,2.1,1.8,6.7,6.7,0,0,0-2-3.9h1.5l-.5-1.9,1,1.8a5.1,5.1,0,0,0,2.3-1.5l-1-1,1.3.6a7.2,7.2,0,0,0,1.2-2.1l-1.3-.6,1.5.2A9.6,9.6,0,0,0,19.1,7.6Z" transform="translate(0 0)" style="fill:#fff"/><path d="M8.8,8.6c-.7.5-2.4,3.3-.4,3.6-1.5-.6,0-3,.7-3.6a8.9,8.9,0,0,0,1.6-2.2l-.5.3A6.2,6.2,0,0,1,8.8,8.6Zm3.8,6.5h-.3l.2.2h.1l.2.2h0v.2h0l.2.2h0v.2h.1l.2.2h0c0,.1,0,.2.1.2h0c0,.1,0,.2.1.2h0v.2h0v.2h0a.3.3,0,0,1,.1.2h0v.2c.1,0,.1,0,0,.1s.1,0,0,.1.1.1,0,.1h0c.1,0,.1,0,0,.1a2.1,2.1,0,0,1,.4.6A7,7,0,0,0,12.6,15.1Zm-.3,2,.2.7.4.2-.3-.8h-.3Z" transform="translate(0 0)" style="fill:#fff"/><path d="M22.5,8.3v.2a1,1,0,0,1,1.1-.4A1.6,1.6,0,0,0,22.5,8.3Z" transform="translate(0 0)" style="fill:#fff"/><path d="M23.7,9.4h0Zm-.4,1.5h0Zm5,6.5c0,.1.1.1.2.2h.2a.7.7,0,0,1,.1.5v-.6l-.2-.3Zm4.2-4.2.4,1.9h.3l-.2-.9ZM26.8,7.5h-1l-.9.4.6-.2h1.3Zm.9,3.4H28a1.7,1.7,0,0,0,1,.3.9.9,0,0,1-.7-.3l-.9-.3h.2Zm-3.8-.3h-.1l-.2.3h.2c.1-.1.1-.2.2-.2h-.1Zm.4-1a1.6,1.6,0,0,0,.2-1h0V8.1h0s-.1-.2-.2-.1v.6a2.9,2.9,0,0,1-.3,1l.2.2a.4.4,0,0,1,.1.3l-.3.5h.1v-.2l.3-.5a.6.6,0,0,0-.1-.4Zm10.5,2.8,1,1H34.7l-.9.4h.1a4.6,4.6,0,0,0,2.3-1.6l-.9-.5Zm3.4-4.6a5.6,5.6,0,0,0-.1.7h0V9h0v.2h0v.2h0l-.2.4h0a1.4,1.4,0,0,1-.2.6h.3a13.2,13.2,0,0,0,.8-3,1,1,0,0,1-.5.4Zm-2.3,2.6,1.4.6-.2.2a5.2,5.2,0,0,1-1,1.8h.3A7.2,7.2,0,0,0,37.6,11l-1.3-.6Zm-6,7h-.3a4.1,4.1,0,0,0-.2,2.9h.1a5.1,5.1,0,0,1,1.7.7h.3a4.5,4.5,0,0,0-1.8-.7,4.4,4.4,0,0,1,.2-3Zm-2,3.5h-1v.2a2.7,2.7,0,0,1,1.4-.5,14.1,14.1,0,0,1,2.9,0,18.2,18.2,0,0,0-3.3,0Z" transform="translate(0 0)" style="fill:#fff"/><path d="M26.1,7.5h-.6l-.6.2.9-.4h.3Zm2.8,10.8c-.1-.2-.1-.3-.2-.4h0v-.2h-.1a.2.2,0,0,1-.2-.2l.6.2ZM38.3,7.6c-2.1,1.5-6.4,1.4-7,1.6s-.5.7-.5.7c-1,2.4-2.7,1.2-2.7,1.2s-1,0-.5,1c-2-.2-.3-3,.4-3.6a11.6,11.6,0,0,0,1.6-2.1c-.3.2-1,.7-3,.3a1.9,1.9,0,0,0-1.5.4c-3.8-.3-2.9,1.3-2.9,1.3s1.6-.3,1.6-.3a.5.5,0,0,0,.2.4,2.9,2.9,0,0,1-.2.9h-.6c-.3,0-.2.5-.5.6l.3.2a.7.7,0,0,0-.1.5c0,.1.1.1.1.2V11h.6l.2-.3h.1v0l.3-.5a.4.4,0,0,0-.1-.3l-.2-.2a3,3,0,0,0,.2-1h0V8.1c0-.1,0-.2-.1-.2a.2.2,0,0,1,.3.1v.5h.3s1.3-.1,1.5.2.1,1.1-1,3.1a3.7,3.7,0,0,0,1.5,5h.3a3.8,3.8,0,0,1,1.7,3s-2.3.5-2.4,1.5a3.5,3.5,0,0,1,1.4-.6,19.4,19.4,0,0,1,3.4.2,6.2,6.2,0,0,0-1.9-.7,4.8,4.8,0,0,1,.2-2.9h.1a4.6,4.6,0,0,1,2,.5l-.3-.7c1.3.2,2,1.8,2,1.8a6.4,6.4,0,0,0-2-3.9h1.5l-.3-1.8,1,1.8a4.6,4.6,0,0,0,2.3-1.6l-1-1,1.3.7A8.8,8.8,0,0,0,37.3,11L36,10.4l1.5.2C37.8,9.6,38.1,8.6,38.3,7.6Z" transform="translate(0 0)" style="fill:#fff"/><path d="M27.9,8.6c-.7.5-2.3,3.3-.3,3.6-1.6-.6,0-3,.6-3.6a7.3,7.3,0,0,0,1.6-2.2.5.5,0,0,1-.4.3A9,9,0,0,1,27.9,8.6Zm3.8,6.5h-.3l.2.2h.1l.2.2h0v.2h0V16h0l.2.2h.1v.2h0v.2h0a.3.3,0,0,0,.1.2h0v.2h0v.2h0a.3.3,0,0,1,.1.2h0v.2c-.1,0-.1,0,0,.1s-.1,0,0,.1-.1.1,0,.1h0c-.1,0-.1,0,0,.1l.3.6A7,7,0,0,0,31.7,15.1Zm-.3,2,.2.7.4.2-.3-.8h-.3Z" transform="translate(0 0)" style="fill:#fff"/><path d="M11.4,39.4a.4.4,0,0,0,.1.3,1.5,1.5,0,0,1,1.4-.5A1.6,1.6,0,0,0,11.4,39.4Z" transform="translate(0 0)" style="fill:#fff"/><path d="M13,40.8h.1l-.5-.2h-.1l.4.2Zm-.6,1.9h0Zm6.2,8.2.3.2h0v.2h.1a.7.7,0,0,1,.2.6v-.7l-.3-.4ZM24,45.6l.6,2.4h.3l-.3-1.2Zm-7.2-7.2H15.6l-1.2.5.8-.3h.2c0,.2.1.2.3.2h1.1Zm1.1,4.3h.5a2.7,2.7,0,0,0,1.2.3,3.2,3.2,0,0,1-.9-.3c-.5-.4-.9-.5-1-.4h.1Zm-4.7-.3h0a.1.1,0,0,0-.1-.1l-.3.4H13a.2.2,0,0,0,.2-.2Zm.5-1.3a2.7,2.7,0,0,0,.3-1.2h0v-.6h0s-.1-.3-.3-.1v.8L13.5,41c0,.1.1.2.2.3s.1.2,0,.4a.9.9,0,0,1-.3.6h0v.2l.2-.3a1.4,1.4,0,0,0,.2-.6.5.5,0,0,0,0-.5Zm13.1,3.5,1.3,1.3v.2H26.6a2.4,2.4,0,0,1-1.1.6h0v.2a6.9,6.9,0,0,0,3-2l-.9-1Zm4.4-5.9a5.1,5.1,0,0,1-.2.9h0v.2h0v.2h0v.2h0c-.1,0-.1.1-.1.2h0c0,.2-.1.3-.2.5h0l-.3.8h.4a23.6,23.6,0,0,0,1-3.8ZM28.3,42l1.7.7-.2.4a12.7,12.7,0,0,1-1.3,2.2h.3a11.7,11.7,0,0,0,1.5-2.7L28.7,42Zm-7.6,8.7h-.4a5.9,5.9,0,0,0-.2,3.7h.1a9.2,9.2,0,0,1,2.3.9h.3a7,7,0,0,0-2.3-.8A5.5,5.5,0,0,1,20.7,50.7Zm-2.6,4.4h-.5v.2h-.6c0,.1-.1.2-.1.3a4.9,4.9,0,0,1,1.7-.6,21.7,21.7,0,0,1,3.6.1,17.9,17.9,0,0,0-4-.1Z" transform="translate(0 0)" style="fill:#fff"/><path d="M16,38.4l-.3.2c-.2,0-.3,0-.3-.2h-.2l-.8.2,1.2-.5.6.2H16ZM19.5,52c-.1-.2-.1-.4-.3-.6h-.1v-.2h0l-.3-.2.8.2ZM31.2,38.5c-2.6,1.9-8,1.8-8.8,2.1s-.6.8-.6.8c-1.2,3.1-3.3,1.5-3.3,1.5-1.7-1-1.4.1-.7,1.3-2.6-.3-.5-3.8.4-4.5a9,9,0,0,0,2-2.7c-.3.4-1.2,1-3.7.5a2,2,0,0,0-1.8.5c-4.8-.5-3.6,1.6-3.6,1.6s1.9-.4,1.9-.4a.7.7,0,0,0,.4.5l-.3,1.2-.7-.2c-.4.1-.4.6-.8.8l.4.2a1.3,1.3,0,0,0-.1.6c0,.2.1.2.1.3v.2h.7a.8.8,0,0,0,.4-.4h0c.1.1.2.2.2.3l.2-.3.3-.6c0-.2,0-.3-.1-.4s-.2-.2-.2-.3a4.3,4.3,0,0,0,.2-1.2h0v-.5a.4.4,0,0,0-.1-.3c.2-.1.3.2.3.2v.6h.6s1.5-.1,1.7.3.2,1.3-1.2,3.8.1,5.3,2.3,6.5A4.2,4.2,0,0,1,19.4,54s-2.8.6-2.9,1.9a3.6,3.6,0,0,1,1.7-.7,15.5,15.5,0,0,1,4.3.2,9.9,9.9,0,0,0-2.4-.9,6.7,6.7,0,0,1,.2-3.7h.1a5.9,5.9,0,0,1,2.6.7l-.4-1a3.9,3.9,0,0,1,2.6,2.3c0-1.7-1.2-3.4-2.5-4.9h1.9L24,45.6l1.2,2.2a5.5,5.5,0,0,0,3-2l-1.3-1.2,1.6.8A11.7,11.7,0,0,0,30,42.7L28.3,42l1.9.3A26.6,26.6,0,0,0,31.2,38.5Z" transform="translate(0 0)" style="fill:#fff"/><path d="M18.3,39.7c-.9.7-3,4.2-.5,4.5-2-.6,0-3.8.8-4.4a10.5,10.5,0,0,0,2-2.7l-.6.3A6.6,6.6,0,0,1,18.3,39.7ZM23,48h-.3a.3.3,0,0,1,.1.2h0l.2.2h0l.2.2h0l.2.2h0l.2.3h0v.2h0c.1.1.1.2.2.2h0v.3h0c.1.1.1.2.2.2h0v.3h0a.3.3,0,0,0,.1.2h0v.2h0c0,.1,0,.1.1.2h0v.2h0c.1,0,.1.1.1.2h0a2,2,0,0,1,.4.8c.4-1.5-.8-3.3-2.1-4.7Zm-.4,2.5.3.9.4.2-.3-1Z" transform="translate(0 0)" style="fill:#fff"/><g style="clip-path:url(#clip-path-3)"><g style="clip-path:url(#clip-path-4)"><g style="clip-path:url(#clip-path-5)"><g style="clip-path:url(#clip-path-5)"><rect x="9.1" y="28.9" width="10.9" height="5.19" style="fill:#fff"/></g></g></g></g><g style="clip-path:url(#clip-path-7)"><g style="clip-path:url(#clip-path-8)"><g style="clip-path:url(#clip-path-9)"><g style="clip-path:url(#clip-path-9)"><rect x="25.3" y="31.3" width="5.9" height="1.91" style="fill:#fff"/></g></g></g></g><g style="clip-path:url(#clip-path-11)"><g style="clip-path:url(#clip-path-12)"><g style="clip-path:url(#clip-path-13)"><g style="clip-path:url(#clip-path-13)"><rect x="8.4" y="30.3" width="7.5" height="2.15" style="fill:#fff"/></g></g></g></g><g style="clip-path:url(#clip-path-15)"><g style="clip-path:url(#clip-path-16)"><g style="clip-path:url(#clip-path-17)"><g style="clip-path:url(#clip-path-17)"><rect x="22.8" y="30.5" width="8.5" height="2.42" style="fill:#fff"/></g></g></g></g><path d="M19.9,34.1c-4-4.3-8.9-2.2-10.4-1.4l-.2.4.3.2s5.2-3.7,9.7.9c.7.7.7.5,1.3,0,5.1-4.8,9.5-.9,9.7-1l.4-.2v-.3C29,31.9,24,29.7,20,34Z" transform="translate(0 0)" style="fill:#fff"/><g style="clip-path:url(#clip-path-19)"><g style="clip-path:url(#clip-path-20)"><g style="clip-path:url(#clip-path-21)"><g style="clip-path:url(#clip-path-21)"><rect x="8.5" y="21" width="11.8" height="13.11" style="fill:#fff"/></g></g></g></g><g style="clip-path:url(#clip-path-23)"><g style="clip-path:url(#clip-path-24)"><g style="clip-path:url(#clip-path-25)"><g style="clip-path:url(#clip-path-25)"><rect x="19.8" y="21" width="11.7" height="13.27" style="fill:#fff"/></g></g></g></g><path d="M12.6,26.8h.1c.2,0,.3-.2.4-.5h.1a4.3,4.3,0,0,1-.1.5.7.7,0,0,1-.1.5h-.1c0-.2,0-.4-.2-.3h-.1l-.3.6c0,.3,0,.3.4.2V28H12l-.7.2v-.2c.4,0,.4-.2.5-.4l.4-1.2c.1-.3.1-.5-.2-.4v-.2h.8l1.1-.2v.6h-.2c0-.4-.1-.4-.5-.3s-.3.1-.4.4Z" transform="translate(0 0)" style="fill:#fff"/><path d="M14.5,26.1c0-.3.1-.4-.2-.3v-.2h1c-.3,0-.3.2-.4.4l-.3,1.2c0,.4-.1.5.2.5H13.6v-.2c.3,0,.3-.1.4-.5Z" transform="translate(0 0)" style="fill:#fff"/><path d="M15.8,27.2c0,.1-.1.2-.1.3s.1.2.2.2v.2h-.8v-.2c.3,0,.5-.3.6-.5l.7-1.7h.3s.3,1.5.3,1.9a1.1,1.1,0,0,1,.1.5l.2.2h-1v-.2c.1,0,.3,0,.3-.1v-.5h-.8Zm.4-.3h.3l-.2-.9-.4.9Z" transform="translate(0 0)" style="fill:#fff"/><path d="M19,27.1h-.1c0-.4,0-.7-.2-.8s-.2,0-.2.3l-.2,1.3c0,.4,0,.5.3.6v.2l-.5-.2-.6-.2v-.2c.3.1.3,0,.4-.3V26.5c0-.3.1-.4-.1-.5s-.3.2-.4.5h-.1v-.8l.8.3.8.4Z" transform="translate(0 0)" style="fill:#fff"/><path d="M22,28.7c.3-.1.2-.3.2-.6V26.7c0-.3,0-.5-.3-.3v-.2l.4-.2.6-.2V26c-.3.1-.2.2-.2.6v1c0,.4.1.6.5.5a.9.9,0,0,0,.6-.8H24v.8l-1.5.4-.5.3Z" transform="translate(0 0)" style="fill:#fff"/><path d="M23.8,25.8h1.1c-.3,0-.2.2-.2.5v.7c.1.5.3.8.7.7s.5-.2.4-.7v-.5c0-.2-.1-.3-.2-.5s-.1-.1-.2-.1v-.2h.7V26c-.1,0-.2,0-.2.1v.8c0,.7.1,1.1-.7,1.1a.9.9,0,0,1-1.1-.8c0-.1-.1-.1-.1-.2v-.6c0-.3,0-.5-.4-.5Z" transform="translate(0 0)" style="fill:#fff"/><path d="M28.3,28.1c.1.2.2.3.4.3H27.6v-.2h.2l-.2-.3-.3-.4-.2.2c0,.1-.1.2-.1.4s.1.1.2.2h-.7V28l.3-.2.4-.6-.4-.7c-.1,0-.1-.1-.2-.2s-.1-.1-.2-.2h.8c0,.1,0,.2.1.2v.3l.2-.2a.3.3,0,0,0,.1-.2c.1-.1-.1-.1-.2-.2h.6q-.2,0-.3.3l-.3.4Z" transform="translate(0 0)" style="fill:#fff"/></g></svg>