<svg id="Layer_1" data-name="Layer 1" xmlns="http://www.w3.org/2000/svg" xmlns:xlink="http://www.w3.org/1999/xlink" viewBox="0 0 268.9 61.9"><defs><clipPath id="clip-path" transform="translate(-5.5 -2.3)"/><clipPath id="clip-path-2" transform="translate(-5.5 -2.3)"><rect x="5.5" y="2.3" width="268.9" height="61.89" style="fill:none"/></clipPath></defs><g style="clip-path:url(#clip-path)"><path d="M66.1,57.6h.4a2.5,2.5,0,0,0,1.8-.8,3.4,3.4,0,0,0,.8-2.3V33.4a3,3,0,0,0-.9-2.5,3.8,3.8,0,0,0-2.1-.7v-.3h9v.3a3.8,3.8,0,0,0-2.1.7,3,3,0,0,0-.9,2.5V53.8a2.9,2.9,0,0,0,.9,2.5,4.7,4.7,0,0,0,3,.7h2.4a8.5,8.5,0,0,0,2.5-.3,4.4,4.4,0,0,0,1.5-1.2,11.2,11.2,0,0,0,1.1-2.2h.3l-1,4.6H66.1Z" transform="translate(-5.5 -2.3)" style="fill:#fff"/><path d="M94.5,29.9v.3a3.2,3.2,0,0,0-2.2.7,3.2,3.2,0,0,0-.8,2.3V54.5a2.6,2.6,0,0,0,.9,2.3,3.2,3.2,0,0,0,2.1.8v.3H85.6v-.3a3.8,3.8,0,0,0,2.1-.7,3,3,0,0,0,.9-2.4V33.2a3,3,0,0,0-.9-2.4,3.7,3.7,0,0,0-2.1-.6v-.3Z" transform="translate(-5.5 -2.3)" style="fill:#fff"/><path d="M122.3,29.9v.3a3.3,3.3,0,0,0-1.8.7,4,4,0,0,0-1.2,1.6,22.2,22.2,0,0,0-1.1,2.5c-.1,0-.2.2-.2.4l-8.1,23.2h-.3l-9.5-25.1a.3.3,0,0,1-.1-.2,5.5,5.5,0,0,0-1.5-2.4,3.2,3.2,0,0,0-2.2-.7v-.3h9.2v.3a4.8,4.8,0,0,0-1.9.5c-.4.2-.7.7-.7,1.6a7,7,0,0,0,.3,1.4c.1.1.1.1.1.2v.2l7.4,19.6h.1l6.3-18.3a11.1,11.1,0,0,0,.7-2.8c0-1-.3-1.7-.7-1.9a4,4,0,0,0-1.9-.5v-.3Z" transform="translate(-5.5 -2.3)" style="fill:#fff"/><path d="M124.1,30.2v-.3h16.7v4.4h-.3c0-2.4-1.6-3.5-4.7-3.5h-5.9V43.5h5.2a7.6,7.6,0,0,0,2.7-.5c.8-.3,1.2-1.1,1.4-2.3h.2v6.4h-.2a5.4,5.4,0,0,0-.7-1.7,3.2,3.2,0,0,0-.9-.8h-.9l-1.4-.2h-5.4v10a3.8,3.8,0,0,0,.5,1.9c.3.6.9.8,2,.8h4.1a6.2,6.2,0,0,0,2.5-.4,4.4,4.4,0,0,0,1.5-1.2,8.5,8.5,0,0,0,1-1.9h.2l-.9,4.4H124.1v-.3h.3a2.7,2.7,0,0,0,1.8-.7,2.9,2.9,0,0,0,.8-2.4V33.4a3.8,3.8,0,0,0-.5-2.2,2.2,2.2,0,0,0-2.1-1Z" transform="translate(-5.5 -2.3)" style="fill:#fff"/><path d="M143.5,30.3h-.4v-.4h9.7a9.9,9.9,0,0,1,4,.7,8,8,0,0,1,2.5,1.8,9.4,9.4,0,0,1,1.3,2.4,10,10,0,0,1,.4,2.4,6.6,6.6,0,0,1-.7,3,6.1,6.1,0,0,1-1.9,2.4,8.2,8.2,0,0,1-3.3,1.3h0a11.9,11.9,0,0,1,4.6,4.8l2.5,4.3a14.2,14.2,0,0,0,2.8,3.6,5,5,0,0,0,2,.9v.3h-5.1l-.6-.8-.6-.8-.5-.9-.5-.7-3.3-5.5a15.9,15.9,0,0,0-2.1-2.7,12.7,12.7,0,0,0-2-1.6,5.8,5.8,0,0,0-1.6-.5H149V54.5c0,2,1,3,3,3.1v.3h-8.9v-.3a4,4,0,0,0,1.5-.3,1.9,1.9,0,0,0,1-1,3,3,0,0,0,.5-1.8V33.3a2.9,2.9,0,0,0-.8-2.3A2.7,2.7,0,0,0,143.5,30.3ZM149,43.5h1.6a10,10,0,0,0,4.1-.7,4.7,4.7,0,0,0,2.3-2.1,6.6,6.6,0,0,0,.7-3.2,8.7,8.7,0,0,0-.6-3.2,5.5,5.5,0,0,0-2.2-2.6,7.2,7.2,0,0,0-4.2-1.1l-1.7.2Z" transform="translate(-5.5 -2.3)" style="fill:#fff"/><path d="M168,30.2v-.3h9.2a12,12,0,0,1,4,.6,8.7,8.7,0,0,1,3,1.7,7,7,0,0,1,1.7,2.5,6.7,6.7,0,0,1,.6,2.8,8.7,8.7,0,0,1-.5,2.8,7.4,7.4,0,0,1-1.7,2.5,8.2,8.2,0,0,1-3.1,1.6,11.4,11.4,0,0,1-4.3.7l-3-.3v9.7c0,2,1,3,3,3.1v.3H168v-.3a3.3,3.3,0,0,0,2.2-.8,2.9,2.9,0,0,0,.8-2.3V33.3a3.8,3.8,0,0,0-.3-1.6,2.2,2.2,0,0,0-.7-.9l-.9-.4-.7-.2Zm5.9.7V44.1a14.2,14.2,0,0,0,2.9.2,7.2,7.2,0,0,0,4.6-1.4c1.2-.9,1.9-2.6,1.9-5.2a8,8,0,0,0-1.7-5.1,6.3,6.3,0,0,0-5-2A12.4,12.4,0,0,0,173.9,30.9Z" transform="translate(-5.5 -2.3)" style="fill:#fff"/><path d="M217.7,43.9a14.3,14.3,0,0,1-2,7.3,13.8,13.8,0,0,1-5.3,5.4,14.9,14.9,0,0,1-14.9,0,14,14,0,0,1-5.4-5.4,14.7,14.7,0,0,1-2-7.4,14.3,14.3,0,0,1,1.2-5.8,12.7,12.7,0,0,1,3.2-4.7,15.2,15.2,0,0,1,4.8-3.1,13.6,13.6,0,0,1,5.6-1.1,15,15,0,0,1,5.6,1,16,16,0,0,1,4.7,3.1,14.3,14.3,0,0,1,3.3,4.7A14.6,14.6,0,0,1,217.7,43.9Zm-3.3.1a16.5,16.5,0,0,0-2-8.7,10.4,10.4,0,0,0-4.6-4.3,12.6,12.6,0,0,0-4.9-1,11.6,11.6,0,0,0-3.6.5,9.6,9.6,0,0,0-3.7,2.2,11,11,0,0,0-3,4.3,17.2,17.2,0,0,0-1.1,6.9,19.9,19.9,0,0,0,.9,6.3,12.1,12.1,0,0,0,2.7,4.4,9.8,9.8,0,0,0,3.7,2.4,11.6,11.6,0,0,0,4.2.8,13.4,13.4,0,0,0,3.9-.7,9.6,9.6,0,0,0,3.7-2.3,10.9,10.9,0,0,0,2.7-4.2A18.2,18.2,0,0,0,214.4,44Z" transform="translate(-5.5 -2.3)" style="fill:#fff"/><path d="M249.8,43.9a14.2,14.2,0,0,1-1.9,7.3,14.5,14.5,0,0,1-5.3,5.4,14.9,14.9,0,0,1-20.4-5.4,14.7,14.7,0,0,1-2-7.4,14.4,14.4,0,0,1,4.5-10.5,15.2,15.2,0,0,1,4.8-3.1,13.3,13.3,0,0,1,5.6-1.1,14,14,0,0,1,10.2,4.1,14.3,14.3,0,0,1,3.3,4.7A14.6,14.6,0,0,1,249.8,43.9Zm-3.3.1a16.5,16.5,0,0,0-2-8.7A10.2,10.2,0,0,0,240,31a13.4,13.4,0,0,0-4.9-1,12.2,12.2,0,0,0-3.7.5,9.6,9.6,0,0,0-3.7,2.2,9.9,9.9,0,0,0-2.9,4.3,17.1,17.1,0,0,0-1.2,6.9,17.4,17.4,0,0,0,1,6.3,12,12,0,0,0,2.6,4.4,10.7,10.7,0,0,0,3.7,2.4,12.5,12.5,0,0,0,4.2.8,14.6,14.6,0,0,0,4-.7,10.4,10.4,0,0,0,3.7-2.3,10.9,10.9,0,0,0,2.7-4.2A18.3,18.3,0,0,0,246.5,44Z" transform="translate(-5.5 -2.3)" style="fill:#fff"/><path d="M249,57.6h.4a2.5,2.5,0,0,0,1.8-.8,3.4,3.4,0,0,0,.8-2.3V33.4a3,3,0,0,0-.9-2.5,3.8,3.8,0,0,0-2.1-.7v-.3h9v.3a3.8,3.8,0,0,0-2.1.7,3,3,0,0,0-.9,2.5V53.8a2.9,2.9,0,0,0,.9,2.5,4.7,4.7,0,0,0,3,.7h2.4a8.5,8.5,0,0,0,2.5-.3,4.4,4.4,0,0,0,1.5-1.2,11.2,11.2,0,0,0,1.1-2.2h.3l-1,4.6H249Z" transform="translate(-5.5 -2.3)" style="fill:#fff"/><path d="M74.1,16.1c0,.8-.1,3-3.5,3s-3.5-2.2-3.5-3V9h1v6.6c0,1,.1,2.7,2.5,2.7s2.6-1.7,2.6-2.7V9h.9Z" transform="translate(-5.5 -2.3)" style="fill:#fff"/><polygon points="79.6 6.7 80.9 6.7 85.8 15.6 85.8 15.6 85.8 6.7 86.8 6.7 86.8 16.7 85.4 16.7 80.6 8 80.6 8 80.6 16.7 79.6 16.7 79.6 6.7" style="fill:#fff"/><rect x="97.9" y="6.7" width="1" height="9.98" style="fill:#fff"/><polygon points="108.3 6.7 109.3 6.7 112.6 15.8 112.7 15.8 116.1 6.7 117.1 6.7 113.3 16.7 112 16.7 108.3 6.7" style="fill:#fff"/><polygon points="126.4 6.7 131.5 6.7 131.5 7.5 127.4 7.5 127.4 11.1 131.3 11.1 131.3 11.9 127.4 11.9 127.4 15.9 131.6 15.9 131.6 16.7 126.4 16.7 126.4 6.7" style="fill:#fff"/><path d="M147.5,9h2.4c1.4,0,3.6.3,3.6,2.5a2.4,2.4,0,0,1-2.3,2.5h0c1.5.4,1.7,1.2,1.9,2.3l.6,2.6h-.9l-.6-2.3c-.3-1.4-.7-2.2-2.4-2.2h-1.3v4.5h-1Zm1,4.6h.9c1.6,0,3.1-.4,3.1-2.1s-2-1.7-2.7-1.7h-1.3Z" transform="translate(-5.5 -2.3)" style="fill:#fff"/><path d="M167.7,13.6c1.1.5,2.4,1.1,2.4,2.7s-2,2.8-3.9,2.8a21.1,21.1,0,0,1-2.4-.2V18a9.2,9.2,0,0,0,2.6.3c1.4,0,2.7-.7,2.7-1.9s-1.3-1.7-2-2l-1-.5c-1-.5-2.4-1-2.4-2.5s.2-2.6,3.4-2.6a10.7,10.7,0,0,1,2.3.3V10a5.5,5.5,0,0,0-2.3-.4c-1.7,0-2.4.7-2.4,1.7s1.1,1.4,2,1.8Z" transform="translate(-5.5 -2.3)" style="fill:#fff"/><rect x="174.8" y="6.7" width="1" height="9.98" style="fill:#fff"/><polygon points="188.2 7.5 185.5 7.5 185.5 6.7 191.9 6.7 191.9 7.5 189.2 7.5 189.2 16.7 188.2 16.7 188.2 7.5" style="fill:#fff"/><polygon points="203.6 12.1 200.1 6.7 201.2 6.7 204 11.2 206.9 6.7 208 6.7 204.5 12.1 204.5 16.7 203.6 16.7 203.6 12.1" style="fill:#fff"/><path d="M234.8,14c0-2.4.8-5.2,3.9-5.2s3.8,2.8,3.8,5.2-.7,5.1-3.8,5.1S234.8,16.3,234.8,14Zm3.8,4.3c2.4,0,2.8-2.6,2.8-4.4s-.4-4.3-2.8-4.3-2.7,2.5-2.7,4.3S236.2,18.3,238.6,18.3Z" transform="translate(-5.5 -2.3)" style="fill:#fff"/><polygon points="247.5 6.7 252.7 6.7 252.7 7.5 248.5 7.5 248.5 11.1 252.5 11.1 252.5 11.9 248.5 11.9 248.5 16.7 247.5 16.7 247.5 6.7" style="fill:#fff"/><g style="clip-path:url(#clip-path-2)"><rect x="47.9" y="21.5" width="221" height="0.58" style="fill:#fff"/><path d="M45.8,3.5A140.3,140.3,0,0,0,26,2.3h0A140.3,140.3,0,0,0,6.2,3.5S2.1,33.8,14.1,51.9C18.1,58.1,26,64.1,26,64.2h0c0-.1,7.9-6.1,12-12.3C49.9,33.8,45.8,3.5,45.8,3.5Z" transform="translate(-5.5 -2.3)" style="fill:#fff"/></g><path d="M25.4,36.4C21.5,32.1,16.5,34.2,15,35l-.2.4.3.2s5.2-3.7,9.7.9c.7.7.8.5,1.3,0,5.1-4.9,9.5-.9,9.7-1a.7.7,0,0,0,.4-.2V35c-1.6-.9-6.5-3-10.5,1.2Z" transform="translate(-5.5 -2.3)" style="fill:#fff"/></g></svg>