<?xml version="1.0" encoding="utf-8"?>
<!-- Generator: Adobe Illustrator 25.0.1, SVG Export Plug-In . SVG Version: 6.00 Build 0)  -->
<svg version="1.1" id="Layer_1" xmlns="http://www.w3.org/2000/svg" xmlns:xlink="http://www.w3.org/1999/xlink" x="0px" y="0px"
	 viewBox="0 0 277.6 68.8" style="enable-background:new 0 0 277.6 68.8;" xml:space="preserve">
<style type="text/css">
	.st0{display:none;}
	.st1{display:inline;}
	.st2{display:inline;clip-path:url(#SVGID_2_);fill:#252C5C;}
	.st3{display:inline;clip-path:url(#SVGID_2_);fill:#945F14;}
	.st4{display:inline;clip-path:url(#SVGID_2_);}
	.st5{clip-path:url(#SVGID_4_);fill:#945F14;}
	.st6{clip-path:url(#SVGID_4_);fill:#252C5C;}
	.st7{display:inline;clip-path:url(#SVGID_2_);fill:#020203;}
	.st8{display:inline;clip-path:url(#SVGID_2_);fill:#FFFFFF;}
	.st9{clip-path:url(#SVGID_6_);}
	.st10{clip-path:url(#SVGID_8_);}
	.st11{clip-path:url(#SVGID_10_);}
	.st12{clip-path:url(#SVGID_12_);fill:url(#SVGID_13_);}
	.st13{clip-path:url(#SVGID_15_);}
	.st14{clip-path:url(#SVGID_17_);}
	.st15{clip-path:url(#SVGID_19_);}
	.st16{clip-path:url(#SVGID_21_);fill:url(#SVGID_22_);}
	.st17{clip-path:url(#SVGID_24_);}
	.st18{clip-path:url(#SVGID_26_);}
	.st19{clip-path:url(#SVGID_28_);}
	.st20{clip-path:url(#SVGID_30_);fill:url(#SVGID_31_);}
	.st21{clip-path:url(#SVGID_33_);}
	.st22{clip-path:url(#SVGID_35_);}
	.st23{clip-path:url(#SVGID_37_);}
	.st24{clip-path:url(#SVGID_39_);fill:url(#SVGID_40_);}
	.st25{clip-path:url(#SVGID_42_);}
	.st26{clip-path:url(#SVGID_44_);}
	.st27{clip-path:url(#SVGID_46_);}
	.st28{clip-path:url(#SVGID_48_);fill:url(#SVGID_49_);}
	.st29{clip-path:url(#SVGID_51_);}
	.st30{clip-path:url(#SVGID_53_);}
	.st31{clip-path:url(#SVGID_55_);}
	.st32{clip-path:url(#SVGID_57_);fill:url(#SVGID_58_);}
	.st33{clip-path:url(#SVGID_60_);fill:#FFFFFF;}
	.st34{clip-path:url(#SVGID_60_);}
	.st35{clip-path:url(#SVGID_62_);fill:#FFFFFF;}
	.st36{display:none;clip-path:url(#SVGID_60_);fill:#020203;}
	.st37{display:none;clip-path:url(#SVGID_60_);fill:#FFFFFF;}
	.st38{display:none;clip-path:url(#SVGID_60_);}
	.st39{display:inline;clip-path:url(#SVGID_64_);}
	.st40{clip-path:url(#SVGID_66_);}
	.st41{clip-path:url(#SVGID_68_);}
	.st42{clip-path:url(#SVGID_70_);fill:url(#SVGID_71_);}
	.st43{display:inline;clip-path:url(#SVGID_73_);}
	.st44{clip-path:url(#SVGID_75_);}
	.st45{clip-path:url(#SVGID_77_);}
	.st46{clip-path:url(#SVGID_79_);fill:url(#SVGID_80_);}
	.st47{clip-path:url(#SVGID_84_);}
	.st48{display:none;clip-path:url(#SVGID_86_);}
</style>
<g>
	<g>
		<g class="st0">
			<defs>
				<rect id="SVGID_1_" x="4.1" y="5" width="267.8" height="61.6"/>
			</defs>
			<clipPath id="SVGID_2_" class="st1">
				<use xlink:href="#SVGID_1_"  style="overflow:visible;"/>
			</clipPath>
			<path class="st2" d="M64.4,60.1h0.4c0.7,0,1.3-0.3,1.8-0.8c0.5-0.5,0.8-1.3,0.8-2.3V36c0-1.2-0.3-2-0.9-2.4
				c-0.6-0.5-1.3-0.7-2.1-0.7v-0.3h8.9v0.3c-0.8,0-1.5,0.3-2.1,0.7c-0.6,0.4-0.9,1.3-0.9,2.4v20.4c0,1.2,0.3,2.1,0.9,2.5
				c0.6,0.5,1.6,0.7,3,0.7h2.4c1,0,1.9-0.1,2.5-0.4c0.6-0.3,1.1-0.6,1.5-1.2c0.4-0.5,0.7-1.3,1.1-2.2H82L81,60.4H64.4V60.1z"/>
			<path class="st2" d="M92.6,32.5v0.3c-0.8,0-1.5,0.2-2.1,0.7c-0.6,0.5-0.9,1.2-0.9,2.3V57c0,1.1,0.3,1.8,0.9,2.3
				c0.6,0.5,1.3,0.7,2.1,0.7v0.3h-8.8v-0.3c0.8,0,1.5-0.2,2.1-0.7c0.6-0.5,0.9-1.3,0.9-2.4V35.8c0-1.2-0.3-2-0.9-2.4
				c-0.6-0.4-1.3-0.6-2.1-0.6v-0.3H92.6z"/>
			<path class="st2" d="M120.3,32.5v0.3c-0.7,0.1-1.3,0.3-1.8,0.7c-0.5,0.4-0.9,0.9-1.2,1.5c-0.3,0.6-0.7,1.5-1.1,2.5
				c-0.1,0.1-0.1,0.2-0.2,0.5L108,61.1h-0.3l-9.5-25c0-0.1,0-0.1-0.1-0.2c-0.4-1.1-0.9-1.9-1.5-2.3c-0.6-0.5-1.3-0.7-2.2-0.7v-0.3
				h9.2v0.3c-0.8,0.1-1.4,0.2-1.9,0.5c-0.5,0.2-0.7,0.8-0.7,1.6c0,0.2,0.1,0.7,0.3,1.4c0,0.1,0,0.1,0.1,0.2c0,0.1,0,0.1,0,0.2
				l7.3,19.6h0.1l6.3-18.2c0.4-1.2,0.7-2.2,0.7-2.8c0-1-0.2-1.6-0.6-1.9c-0.4-0.3-1.1-0.4-1.9-0.5v-0.3H120.3z"/>
			<path class="st2" d="M122.1,32.8v-0.3h16.6v4.4h-0.3c0-2.3-1.6-3.5-4.7-3.5h-5.8V46h5.1c1,0,1.9-0.2,2.7-0.5
				c0.8-0.3,1.2-1.1,1.4-2.3h0.3v6.3h-0.3c-0.1-0.7-0.3-1.3-0.6-1.7c-0.3-0.4-0.6-0.6-0.9-0.8c-0.3-0.1-0.6-0.2-0.8-0.2
				c-0.5-0.1-0.9-0.1-1.4-0.1h-5.3v9.9c0,0.7,0.1,1.4,0.4,1.9c0.3,0.5,0.9,0.8,2,0.8h4.1c1,0,1.8-0.1,2.5-0.4
				c0.6-0.3,1.1-0.7,1.5-1.2c0.4-0.5,0.7-1.1,0.9-1.9h0.3l-1,4.4h-16.6v-0.3h0.4c0.6,0,1.2-0.2,1.7-0.7c0.6-0.5,0.9-1.3,0.9-2.3V36
				c0-0.9-0.2-1.6-0.6-2.2c-0.4-0.6-1.1-0.9-2-0.9H122.1z"/>
			<path class="st2" d="M141.4,32.9H141v-0.4h9.7c1.6,0,2.9,0.2,3.9,0.7c1.1,0.5,1.9,1.1,2.5,1.8c0.6,0.7,1,1.5,1.3,2.3
				c0.3,0.8,0.4,1.6,0.4,2.4c0,1-0.2,2-0.6,2.9c-0.4,0.9-1.1,1.7-1.9,2.4c-0.9,0.7-2,1.1-3.3,1.4v0.1c1.7,0.8,3.2,2.4,4.6,4.8
				l2.5,4.3c1.1,1.9,2.1,3.1,2.7,3.6c0.7,0.5,1.4,0.8,2,0.8v0.3h-5.1c-0.2-0.3-0.4-0.5-0.6-0.8c-0.2-0.3-0.4-0.5-0.6-0.8
				c-0.1-0.2-0.3-0.5-0.6-0.9c-0.2-0.4-0.4-0.6-0.4-0.7l-3.3-5.5c-0.7-1.1-1.4-2-2.1-2.7c-0.7-0.7-1.4-1.2-2-1.5
				c-0.6-0.3-1.2-0.5-1.6-0.6c-0.5-0.1-1.1-0.1-1.7-0.1V57c0,2,1,3,3,3.1v0.3H141v-0.3c0.6,0,1-0.1,1.5-0.3c0.4-0.2,0.8-0.5,1.1-0.9
				c0.3-0.4,0.4-1.1,0.4-1.8V35.9c0-1.1-0.3-1.9-0.8-2.3C142.6,33.1,142,32.9,141.4,32.9z M146.9,46.1h1.6c1.7,0,3-0.2,4.1-0.7
				c1.1-0.5,1.8-1.2,2.3-2.1c0.5-0.9,0.7-2,0.7-3.3c0-1.1-0.2-2.1-0.6-3.2c-0.4-1-1.2-1.9-2.2-2.6c-1-0.7-2.4-1.1-4.2-1.1
				c-0.7,0-1.3,0.1-1.7,0.2V46.1z"/>
			<path class="st2" d="M165.8,32.8v-0.3h9.1c1.5,0,2.9,0.2,4,0.6c1.2,0.4,2.1,1,2.9,1.7c0.8,0.7,1.4,1.5,1.7,2.4
				c0.4,0.9,0.6,1.9,0.6,2.8c0,1-0.2,1.9-0.5,2.8c-0.4,0.9-0.9,1.7-1.7,2.4c-0.8,0.7-1.8,1.3-3,1.7c-1.2,0.4-2.7,0.6-4.3,0.6
				c-0.5,0-1.5-0.1-3-0.2V57c0,2,1,3,3,3.1v0.3h-8.9v-0.3c0.9,0,1.6-0.3,2.1-0.7c0.6-0.5,0.8-1.2,0.8-2.3V35.9
				c0-0.6-0.1-1.2-0.3-1.6c-0.2-0.4-0.4-0.7-0.7-0.9c-0.3-0.2-0.6-0.3-0.9-0.4c-0.3-0.1-0.6-0.1-0.7-0.2H165.8z M171.7,33.5v13.2
				c1,0.2,1.9,0.3,2.9,0.3c1.8,0,3.3-0.5,4.6-1.4c1.3-0.9,1.9-2.7,1.9-5.2c0-2.1-0.6-3.8-1.7-5.1c-1.1-1.3-2.8-2-5-2
				C173.5,33.2,172.6,33.3,171.7,33.5z"/>
			<path class="st2" d="M215.3,46.5c0,2.6-0.6,5-1.9,7.3c-1.3,2.2-3.1,4-5.3,5.4c-2.2,1.3-4.7,2-7.4,2c-2.7,0-5.2-0.7-7.5-2
				c-2.3-1.3-4.1-3.1-5.4-5.4c-1.3-2.3-2-4.7-2-7.4c0-2,0.4-4,1.2-5.8c0.8-1.8,1.9-3.4,3.3-4.7c1.4-1.3,3-2.4,4.8-3.1
				c1.8-0.7,3.6-1.1,5.6-1.1c1.9,0,3.7,0.4,5.5,1.1c1.8,0.7,3.3,1.7,4.7,3c1.4,1.3,2.5,2.9,3.3,4.7
				C214.9,42.3,215.3,44.3,215.3,46.5z M212,46.5c0-3.7-0.7-6.6-2-8.7c-1.3-2.1-2.8-3.5-4.5-4.2c-1.7-0.7-3.3-1.1-4.8-1.1
				c-1.2,0-2.4,0.2-3.7,0.6c-1.3,0.4-2.5,1.1-3.7,2.1c-1.2,1-2.2,2.5-2.9,4.3c-0.8,1.9-1.2,4.1-1.2,6.9c0,2.4,0.3,4.5,1,6.3
				c0.6,1.8,1.5,3.2,2.6,4.4c1.1,1.1,2.3,1.9,3.7,2.4c1.3,0.5,2.7,0.7,4.2,0.7c1.3,0,2.6-0.2,4-0.7c1.3-0.5,2.5-1.2,3.7-2.3
				c1.1-1,2-2.5,2.7-4.2C211.6,51.3,212,49.1,212,46.5z"/>
			<path class="st2" d="M247.3,46.5c0,2.6-0.6,5-1.9,7.3c-1.3,2.2-3.1,4-5.3,5.4c-2.2,1.3-4.7,2-7.4,2c-2.7,0-5.2-0.7-7.5-2
				c-2.3-1.3-4.1-3.1-5.4-5.4c-1.3-2.3-2-4.7-2-7.4c0-2,0.4-4,1.2-5.8c0.8-1.8,1.9-3.4,3.3-4.7c1.4-1.3,3-2.4,4.8-3.1
				c1.8-0.7,3.6-1.1,5.6-1.1c1.9,0,3.7,0.4,5.5,1.1c1.8,0.7,3.3,1.7,4.7,3c1.4,1.3,2.5,2.9,3.3,4.7
				C246.9,42.3,247.3,44.3,247.3,46.5z M244,46.5c0-3.7-0.7-6.6-2-8.7c-1.3-2.1-2.8-3.5-4.5-4.2c-1.7-0.7-3.3-1.1-4.8-1.1
				c-1.2,0-2.4,0.2-3.7,0.6c-1.3,0.4-2.5,1.1-3.7,2.1c-1.2,1-2.2,2.5-2.9,4.3c-0.8,1.9-1.2,4.1-1.2,6.9c0,2.4,0.3,4.5,1,6.3
				c0.6,1.8,1.5,3.2,2.6,4.4c1.1,1.1,2.3,1.9,3.7,2.4c1.3,0.5,2.7,0.7,4.2,0.7c1.3,0,2.6-0.2,3.9-0.7c1.3-0.5,2.6-1.2,3.7-2.3
				c1.1-1,2-2.5,2.7-4.2C243.6,51.3,244,49.1,244,46.5z"/>
			<path class="st2" d="M246.5,60.1h0.4c0.7,0,1.3-0.3,1.8-0.8c0.5-0.5,0.8-1.3,0.8-2.3V36c0-1.2-0.3-2-0.9-2.4
				c-0.6-0.5-1.3-0.7-2.1-0.7v-0.3h8.9v0.3c-0.8,0-1.5,0.3-2.1,0.7c-0.6,0.4-0.9,1.3-0.9,2.4v20.4c0,1.2,0.3,2.1,0.9,2.5
				c0.6,0.5,1.6,0.7,3,0.7h2.4c1,0,1.9-0.1,2.5-0.4c0.6-0.3,1.1-0.6,1.5-1.2c0.4-0.5,0.7-1.3,1.1-2.2h0.3l-1.1,4.6h-16.6V60.1z"/>
			<path class="st3" d="M72.4,18.7c0,0.8-0.2,3-3.6,3c-3.1,0-3.4-2.2-3.4-3v-7.1h1v6.7c0,0.9,0.1,2.6,2.4,2.6c2.6,0,2.6-1.7,2.6-2.6
				v-6.7h1V18.7z"/>
			<polygon class="st3" points="83.3,11.7 84.7,11.7 89.5,20.5 89.5,20.5 89.5,11.7 90.5,11.7 90.5,21.6 89.1,21.6 84.4,12.9 
				84.3,12.9 84.3,21.6 83.3,21.6 			"/>
			<rect x="101.5" y="11.7" class="st3" width="1" height="9.9"/>
			<polygon class="st3" points="111.9,11.7 112.9,11.7 116.2,20.7 116.3,20.7 119.7,11.7 120.7,11.7 116.9,21.6 115.6,21.6 			"/>
			<polygon class="st3" points="130,11.7 135,11.7 135,12.5 131,12.5 131,16 134.8,16 134.8,16.8 131,16.8 131,20.8 135.1,20.8 
				135.1,21.6 130,21.6 			"/>
			<path class="st3" d="M145.4,11.7h2.4c1.4,0,3.6,0.3,3.6,2.6c0,2.2-2,2.4-2.3,2.5v0c1.5,0.3,1.6,1.1,1.9,2.2l0.6,2.7h-1l-0.6-2.3
				c-0.3-1.4-0.6-2.1-2.3-2.1h-1.4v4.5h-1V11.7z M146.4,16.3h0.9c1.6,0,3.1-0.5,3.1-2.1c0-1.7-2-1.8-2.7-1.8h-1.3V16.3z"/>
			<path class="st3" d="M165.5,16.3c1.2,0.6,2.4,1.2,2.4,2.7c0,2.1-1.9,2.8-3.9,2.8c-1.3,0-2.1-0.2-2.4-0.2v-0.9
				c0.4,0.1,1.1,0.3,2.6,0.3c1.3,0,2.6-0.7,2.6-1.8c0-1.3-1.3-1.7-2-2.1l-0.9-0.4c-1-0.5-2.4-1.1-2.4-2.5c0-0.4,0.2-2.5,3.4-2.5
				c0.9,0,1.8,0.2,2.2,0.2v0.9c-0.4-0.1-1.2-0.3-2.2-0.3c-1.7,0-2.5,0.7-2.5,1.6c0,0.9,1.1,1.4,2,1.8L165.5,16.3z"/>
			<rect x="178.1" y="11.7" class="st3" width="1" height="9.9"/>
			<polygon class="st3" points="191.5,12.5 188.8,12.5 188.8,11.7 195.1,11.7 195.1,12.5 192.5,12.5 192.5,21.6 191.5,21.6 			"/>
			<polygon class="st3" points="206.8,17.1 203.3,11.7 204.4,11.7 207.2,16.2 210.1,11.7 211.2,11.7 207.7,17.1 207.7,21.6 
				206.8,21.6 			"/>
			<path class="st3" d="M232.3,16.6c0-2.4,0.8-5.1,3.9-5.1c3.1,0,3.8,2.8,3.8,5.1c0,2.4-0.7,5.1-3.8,5.1
				C233.1,21.8,232.3,19,232.3,16.6z M236.2,20.9c2.4,0,2.8-2.6,2.8-4.4c0-1.8-0.4-4.3-2.8-4.3c-2.4,0-2.8,2.5-2.8,4.3
				C233.4,18.4,233.8,20.9,236.2,20.9z"/>
			<polygon class="st3" points="250.5,11.7 255.6,11.7 255.6,12.5 251.5,12.5 251.5,16 255.5,16 255.5,16.8 251.5,16.8 251.5,21.6 
				250.5,21.6 			"/>
			<g class="st4">
				<defs>
					<rect id="SVGID_3_" x="4.1" y="5" width="267.8" height="61.6"/>
				</defs>
				<clipPath id="SVGID_4_">
					<use xlink:href="#SVGID_3_"  style="overflow:visible;"/>
				</clipPath>
				<rect x="51.8" y="26.4" class="st5" width="220" height="0.6"/>
				<path class="st6" d="M44.2,6.2c0,0-7.6-1.2-19.7-1.2h0C12.3,5,4.8,6.2,4.8,6.2s-4.1,30.1,7.8,48.2c4,6.1,11.9,12.1,11.9,12.2h0
					h0l0,0h0l0,0h0c0,0,7.9-6,11.9-12.2C48.3,36.4,44.2,6.2,44.2,6.2z"/>
			</g>
			<path class="st7" d="M7.4,13.2c0,0.1,0.1,0.2,0.1,0.2c0.2-0.4,0.7-0.4,1.1-0.4C8.3,13,7.8,12.9,7.4,13.2z"/>
			<path class="st7" d="M8.7,14.4C8.7,14.4,8.7,14.4,8.7,14.4C8.7,14.4,8.7,14.4,8.7,14.4C8.7,14.4,8.7,14.4,8.7,14.4
				c0.1,0,0.1,0,0.1,0c0,0,0,0,0,0c-0.2-0.1-0.4-0.1-0.4-0.1c0,0,0,0-0.1,0C8.4,14.3,8.5,14.4,8.7,14.4C8.7,14.4,8.7,14.4,8.7,14.4z
				 M8.2,15.9C8.2,15.9,8.2,15.9,8.2,15.9C8.2,15.9,8.2,15.9,8.2,15.9C8.1,15.9,8.1,15.9,8.2,15.9C8.1,15.9,8.1,15.9,8.2,15.9
				C8.1,15.9,8.1,15.9,8.2,15.9c-0.1,0-0.1,0-0.1,0c0,0,0,0,0,0h0c0,0,0,0,0,0.1C8.1,15.9,8.2,15.9,8.2,15.9
				C8.2,15.9,8.2,15.9,8.2,15.9C8.2,15.9,8.2,15.9,8.2,15.9z M13.1,22.3c0.1,0.1,0.2,0.1,0.2,0.2c0,0,0,0,0,0c0,0,0.1,0.1,0.1,0.1
				c0,0,0.1,0.1,0.1,0.1c0,0,0,0,0,0c0.1,0.1,0.2,0.3,0.2,0.5v-0.5c-0.1-0.1-0.2-0.2-0.3-0.3L13.1,22.3z M17.4,18.2l0.5,1.9
				c0,0-0.1,0-0.1,0c0,0,0,0,0,0c0,0-0.1,0-0.1,0c0,0,0,0,0,0c0,0-0.1,0-0.1,0c0,0,0,0-0.1,0c0,0,0,0-0.1,0c0,0-0.1,0-0.1,0
				c0,0,0,0,0,0c-0.1,0-0.3,0-0.4,0c0.1,0,0.2,0,0.3,0c0.4,0,0.7,0,1.1,0l-0.2-0.9L17.4,18.2z M11.7,12.4c0,0-0.3-0.1-0.4-0.1
				c-0.1,0-0.3-0.1-0.5-0.1c-0.2,0-0.9,0.4-0.9,0.4c0,0,0.5-0.2,0.6-0.2c0.1,0,0.1,0,0.2,0c0,0.1,0.1,0.1,0.2,0.1
				c0.1,0,0.2-0.1,0.3-0.1c0.2,0.1,0.4,0.1,0.5,0C11.7,12.5,11.7,12.5,11.7,12.4z M12.6,15.8C12.6,15.8,12.6,15.8,12.6,15.8
				C12.7,15.9,12.7,15.9,12.6,15.8c0.1,0,0.1,0.1,0.1,0.1c0,0,0,0,0.1,0c0,0,0,0,0,0c0,0,0,0,0.1,0c0,0,0,0,0,0c0,0,0.1,0,0.1,0.1
				c0,0,0,0,0,0l0,0c0,0,0,0,0,0l0,0c0.1,0.1,0.5,0.3,0.9,0.3c-0.4-0.1-0.7-0.3-0.7-0.3c-0.4-0.3-0.7-0.3-0.8-0.3
				C12.5,15.8,12.6,15.8,12.6,15.8L12.6,15.8z M8.8,15.6C8.8,15.5,8.8,15.5,8.8,15.6C8.8,15.5,8.8,15.5,8.8,15.6
				c-0.2,0.1-0.3,0.2-0.3,0.2c0,0,0,0,0,0c0,0,0,0,0,0c0,0,0,0,0,0c0,0,0,0,0,0c0,0,0,0,0,0c0,0,0,0,0,0c0.1,0,0.2,0,0.3-0.1
				C8.7,15.8,8.8,15.7,8.8,15.6C8.9,15.6,8.9,15.6,8.8,15.6C8.8,15.6,8.8,15.6,8.8,15.6z M9.3,14.6c0.1-0.2,0.2-0.6,0.2-1l0,0l0-0.4
				c0,0,0,0,0,0h0l0,0c0,0-0.1-0.2-0.2-0.1c0,0,0.1,0,0.1,0.2c0,0.2,0,0.4,0,0.4c0,0.3-0.1,0.7-0.2,1c0,0.1,0.1,0.1,0.2,0.2
				c0,0,0.1,0.2,0.1,0.3c-0.1,0.2-0.2,0.4-0.2,0.5c0,0,0,0,0,0.1c0,0.1,0.1,0.1,0.1,0.2c0,0,0-0.2,0.1-0.2c0.1-0.1,0.2-0.3,0.2-0.5
				c0.1-0.2,0-0.3-0.1-0.3C9.4,14.7,9.3,14.6,9.3,14.6z M19.7,17.4l1,1c0,0-0.1,0.1-0.1,0.1c0,0,0,0,0,0c0,0-0.1,0.1-0.1,0.1
				c0,0,0,0,0,0c0,0-0.1,0.1-0.1,0.1c0,0,0,0-0.1,0c0,0,0,0-0.1,0.1c0,0,0,0-0.1,0.1c0,0,0,0-0.1,0.1c0,0,0,0-0.1,0.1
				c0,0,0,0-0.1,0.1c0,0,0,0-0.1,0.1c0,0,0,0-0.1,0c0,0-0.1,0-0.1,0.1c0,0,0,0,0,0c0,0-0.1,0-0.1,0.1c0,0,0,0,0,0c0,0-0.1,0-0.1,0.1
				c0,0,0,0,0,0c-0.3,0.2-0.6,0.3-0.9,0.4c0,0,0,0,0,0l0.1,0.1c0.9-0.3,1.7-0.8,2.3-1.6l-0.7-0.7L19.7,17.4z M23.1,12.8
				c0,0.2-0.1,0.4-0.1,0.7c0,0,0,0,0,0c0,0,0,0.1,0,0.1c0,0,0,0.1,0,0.1c0,0,0,0,0,0.1c0,0,0,0.1,0,0.1c0,0,0,0,0,0
				c0,0.1,0,0.1,0,0.2c0,0,0,0,0,0c0,0.1,0,0.1,0,0.2c0,0,0,0,0,0c0,0.1,0,0.1-0.1,0.2c0,0,0,0,0,0c0,0.1-0.1,0.3-0.1,0.4
				c0,0,0,0,0,0c-0.1,0.2-0.2,0.4-0.2,0.7l0.3,0c0.6-1.6,0.8-3,0.8-3C23.3,12.6,23.2,12.7,23.1,12.8z M20.8,15.3l1.3,0.6
				c0,0.1-0.1,0.2-0.1,0.3c-0.3,0.6-0.6,1.2-1,1.8c0,0,0,0,0,0l0.2,0.1c0.5-0.7,0.9-1.4,1.2-2.1l-1.3-0.6L20.8,15.3z M14.8,22.3
				c0,0-0.1,0-0.1,0c0,0,0,0,0,0c0,0-0.1,0-0.1,0c0,0,0,0-0.1,0c-0.6,1.3-0.2,2.9-0.2,2.9c0,0,0.1,0,0.1,0c0.8,0.2,1.6,0.6,1.8,0.7
				c0.1,0,0.2,0,0.2,0c0,0-0.9-0.5-1.8-0.7C14.6,25.2,14.1,23.5,14.8,22.3z M12.7,25.8c0,0-0.1,0-0.1,0c0,0,0,0,0,0c0,0-0.1,0-0.1,0
				c0,0,0,0,0,0c0,0-0.1,0-0.1,0c0,0,0,0,0,0c0,0-0.1,0-0.1,0c0,0,0,0,0,0c0,0-0.1,0-0.1,0c0,0,0,0,0,0c0,0-0.1,0-0.1,0.1
				c0,0,0,0,0,0c-0.1,0-0.2,0.1-0.2,0.1c0,0.1,0,0.1-0.1,0.2c0,0,0.7-0.5,1.3-0.6c1-0.1,1.6,0,2.9,0.1
				C14.4,25.7,13.8,25.7,12.7,25.8z"/>
			<path class="st8" d="M11.1,12.5c0,0-0.1,0.1-0.3,0.1c-0.1,0-0.2,0-0.2-0.1c-0.1,0,0,0-0.2,0c-0.1,0-0.6,0.2-0.6,0.2
				c0,0,0.8-0.4,0.9-0.4c0.2,0,0.4,0.1,0.5,0.1c0.1,0,0.4,0.1,0.4,0.1c0,0,0,0-0.1,0.1C11.5,12.5,11.2,12.5,11.1,12.5z M13.8,23.2
				c0-0.1-0.1-0.3-0.2-0.5c0,0,0,0,0,0c0,0-0.1-0.1-0.1-0.1c0,0-0.1-0.1-0.1-0.1c0,0,0,0,0,0c-0.1-0.1-0.1-0.1-0.2-0.2l0.6,0.2V23.2
				z M23.1,12.5c-2.1,1.5-6.3,1.5-7,1.6c-0.7,0.2-0.5,0.6-0.5,0.6c-0.9,2.5-2.6,1.2-2.6,1.2c-1.3-0.8-1.1,0.1-0.6,1
				c-2-0.2-0.3-3,0.4-3.6c0.8-0.6,1.6-2.2,1.6-2.2c-0.2,0.3-1,0.8-2.9,0.4c-0.9-0.2-1.5,0.4-1.5,0.4c-3.8-0.3-2.8,1.3-2.8,1.3
				c0.4-0.6,1.5-0.3,1.5-0.3c0,0.2,0.1,0.4,0.3,0.4c0,0.3-0.1,0.6-0.2,0.9c-0.1,0-0.5-0.2-0.6-0.2c-0.3,0-0.3,0.5-0.6,0.6
				c0,0.1,0.2,0.2,0.3,0.2c-0.1,0.2-0.1,0.4-0.1,0.5c0,0.1,0.1,0.2,0.1,0.2c0,0.1,0,0.2,0,0.2c0.1,0,0.2-0.1,0.3-0.1
				c0.1,0,0.2,0,0.3-0.1c0.1,0,0.2-0.1,0.3-0.3c0,0,0.1,0,0.1,0C8.9,15.6,9,15.8,9,15.8c0,0,0-0.2,0.1-0.2c0.1-0.1,0.2-0.3,0.2-0.5
				c0.1-0.2,0-0.3-0.1-0.3c0,0-0.1-0.1-0.2-0.2c0.1-0.3,0.2-0.6,0.2-1l0,0c0,0,0-0.3,0-0.4c0-0.2-0.1-0.2-0.1-0.2
				c0.1-0.1,0.2,0.1,0.2,0.1l0,0.5c0.2,0,0.3-0.1,0.3-0.1s1.2-0.1,1.4,0.2c0.2,0.3,0.1,1.1-1,3.1c-1.2,2.1,0.1,4.2,1.8,5.1
				c0.6,0.4,1.8,1.5,1.7,3c0,0-2.2,0.5-2.3,1.5c0,0,0.7-0.5,1.3-0.6c1.2-0.1,1.8,0,3.4,0.1c0,0-0.9-0.5-1.9-0.7c0,0-0.4-1.6,0.2-2.9
				c0,0,0,0,0.1,0c0.7-0.2,2,0.6,2,0.6l-0.3-0.8c1.4,0.2,2,1.8,2,1.8c0-1.4-0.9-2.7-2-3.9c0.2,0,0.3,0,0.4,0.1c0.4,0,0.7,0,1.1,0
				l-0.5-1.9l0.9,1.8c0.9-0.3,1.7-0.8,2.3-1.6l-1-1l1.3,0.7c0.5-0.7,0.9-1.4,1.2-2.1l-1.3-0.6l1.5,0.2
				C22.9,13.9,23.1,12.5,23.1,12.5z"/>
			<path class="st7" d="M12.9,13.5c-0.7,0.5-2.4,3.3-0.4,3.6c-1.6-0.5,0-3,0.6-3.5c0.8-0.6,1.6-2.2,1.6-2.2
				c-0.1,0.1-0.3,0.2-0.4,0.3C14,12.2,13.4,13.1,12.9,13.5z M16.6,20c-0.1,0-0.2,0-0.2,0c0.1,0.1,0.1,0.1,0.2,0.2c0,0,0,0,0,0
				c0,0.1,0.1,0.1,0.1,0.2c0,0,0,0,0,0c0,0.1,0.1,0.1,0.1,0.2c0,0,0,0,0,0c0,0.1,0.1,0.1,0.1,0.2c0,0,0,0,0,0c0,0.1,0.1,0.1,0.1,0.2
				c0,0,0,0,0,0c0,0.1,0.1,0.1,0.1,0.2c0,0,0,0,0,0c0,0.1,0.1,0.1,0.1,0.2c0,0,0,0,0,0c0,0.1,0.1,0.1,0.1,0.2c0,0,0,0,0,0
				c0,0.1,0.1,0.1,0.1,0.2c0,0,0,0,0,0c0,0.1,0.1,0.1,0.1,0.2c0,0,0,0,0,0c0,0.1,0.1,0.1,0.1,0.2c0,0,0,0,0,0c0,0.1,0,0.1,0.1,0.2
				c0,0,0,0,0,0c0,0.1,0,0.1,0.1,0.2c0,0,0,0,0,0.1c0,0.1,0,0.1,0.1,0.2c0,0,0,0,0,0.1c0,0,0,0.1,0,0.1c0,0,0,0.1,0,0.1
				c0,0,0,0.1,0,0.1c0,0,0,0,0,0.1c0.2,0.3,0.3,0.6,0.3,0.6C18.6,22.6,17.6,21.2,16.6,20z M16.3,22.1l0.3,0.7
				c0.2,0.1,0.3,0.2,0.3,0.2l-0.3-0.8C16.5,22.1,16.4,22.1,16.3,22.1z"/>
			<path class="st7" d="M26.4,13.2c0,0.1,0.1,0.2,0.1,0.2c0.2-0.4,0.7-0.4,1.1-0.4C27.4,13,26.8,12.9,26.4,13.2z"/>
			<path class="st7" d="M27.7,14.4C27.7,14.4,27.7,14.4,27.7,14.4C27.7,14.4,27.8,14.4,27.7,14.4C27.8,14.4,27.8,14.4,27.7,14.4
				c0.1,0,0.1,0,0.1,0c0,0,0,0,0,0c-0.2-0.1-0.4-0.1-0.4-0.1c0,0,0,0-0.1,0C27.4,14.3,27.6,14.4,27.7,14.4
				C27.7,14.4,27.7,14.4,27.7,14.4z M27.2,15.9C27.2,15.9,27.2,15.9,27.2,15.9C27.2,15.9,27.2,15.9,27.2,15.9
				C27.2,15.9,27.2,15.9,27.2,15.9C27.2,15.9,27.2,15.9,27.2,15.9C27.1,15.9,27.1,15.9,27.2,15.9c-0.1,0-0.1,0-0.1,0c0,0,0,0,0,0
				l0,0c0,0,0,0,0,0.1C27.2,15.9,27.2,15.9,27.2,15.9C27.3,15.9,27.2,15.9,27.2,15.9C27.2,15.9,27.2,15.9,27.2,15.9z M32.2,22.3
				c0.1,0.1,0.2,0.1,0.2,0.2c0,0,0,0,0,0c0,0,0.1,0.1,0.1,0.1c0,0,0.1,0.1,0.1,0.1c0,0,0,0,0,0c0.1,0.1,0.2,0.3,0.2,0.5v-0.5
				c-0.1-0.1-0.2-0.2-0.3-0.3L32.2,22.3z M36.4,18.2l0.5,1.9c0,0-0.1,0-0.1,0c0,0,0,0,0,0c0,0-0.1,0-0.1,0c0,0,0,0,0,0
				c0,0-0.1,0-0.1,0c0,0,0,0-0.1,0c0,0,0,0-0.1,0c0,0-0.1,0-0.1,0c0,0,0,0,0,0c-0.1,0-0.3,0-0.4,0c0.1,0,0.2,0,0.3,0
				c0.4,0,0.7,0,1.1,0l-0.2-0.9L36.4,18.2z M30.7,12.4c0,0-0.3-0.1-0.4-0.1c-0.1,0-0.3-0.1-0.5-0.1c-0.2,0-0.9,0.4-0.9,0.4
				c0,0,0.5-0.2,0.6-0.2c0.1,0,0.1,0,0.2,0c0,0.1,0.1,0.1,0.2,0.1c0.1,0,0.2-0.1,0.3-0.1c0.2,0.1,0.4,0.1,0.5,0
				C30.7,12.5,30.7,12.5,30.7,12.4z M31.6,15.8C31.7,15.8,31.7,15.8,31.6,15.8C31.7,15.9,31.7,15.9,31.6,15.8c0.1,0,0.1,0.1,0.1,0.1
				c0,0,0,0,0.1,0c0,0,0,0,0,0c0,0,0,0,0.1,0c0,0,0,0,0,0c0,0,0.1,0,0.1,0.1c0,0,0,0,0,0l0,0c0,0,0,0,0,0l0,0
				c0.1,0.1,0.5,0.3,0.9,0.3c-0.4-0.1-0.7-0.3-0.7-0.3c-0.4-0.3-0.7-0.3-0.8-0.3C31.6,15.8,31.6,15.8,31.6,15.8L31.6,15.8z
				 M27.9,15.6C27.9,15.5,27.9,15.5,27.9,15.6C27.8,15.5,27.8,15.5,27.9,15.6c-0.2,0.1-0.3,0.2-0.3,0.2c0,0,0,0,0,0c0,0,0,0,0,0
				c0,0,0,0,0,0c0,0,0,0,0,0c0,0,0,0,0,0c0,0,0,0,0,0c0.1,0,0.2,0,0.3-0.1C27.7,15.8,27.8,15.7,27.9,15.6
				C27.9,15.6,27.9,15.6,27.9,15.6C27.9,15.6,27.9,15.6,27.9,15.6z M28.3,14.6c0.1-0.2,0.2-0.6,0.2-1l0,0l0-0.4c0,0,0,0,0,0h0v0
				c0,0-0.1-0.2-0.2-0.1c0,0,0.1,0,0.1,0.2c0,0.2,0,0.4,0,0.4c0,0.3-0.1,0.7-0.2,1c0,0.1,0.1,0.1,0.2,0.2c0,0,0.1,0.2,0.1,0.3
				c-0.1,0.2-0.2,0.4-0.2,0.5c0,0,0,0,0,0.1c0,0.1,0.1,0.1,0.1,0.2c0,0,0-0.2,0.1-0.2c0.1-0.1,0.2-0.3,0.2-0.5
				c0.1-0.2,0-0.3-0.1-0.3C28.4,14.7,28.3,14.6,28.3,14.6z M38.7,17.4l1,1c0,0-0.1,0.1-0.1,0.1c0,0,0,0,0,0c0,0-0.1,0.1-0.1,0.1
				c0,0,0,0,0,0c0,0-0.1,0.1-0.1,0.1c0,0,0,0-0.1,0c0,0,0,0-0.1,0.1c0,0,0,0-0.1,0.1c0,0,0,0-0.1,0.1c0,0,0,0-0.1,0.1
				c0,0,0,0-0.1,0.1c0,0,0,0-0.1,0.1c0,0,0,0-0.1,0c0,0-0.1,0-0.1,0.1c0,0,0,0,0,0c0,0-0.1,0-0.1,0.1c0,0,0,0,0,0c0,0-0.1,0-0.1,0.1
				c0,0,0,0,0,0c-0.3,0.2-0.6,0.3-0.9,0.4c0,0,0,0,0,0l0.1,0.1c0.9-0.3,1.7-0.8,2.3-1.6l-0.7-0.7L38.7,17.4z M42.1,12.8
				c0,0.2-0.1,0.4-0.1,0.7c0,0,0,0,0,0c0,0,0,0.1,0,0.1c0,0,0,0.1,0,0.1c0,0,0,0,0,0.1c0,0,0,0.1,0,0.1c0,0,0,0,0,0
				c0,0.1,0,0.1,0,0.2c0,0,0,0,0,0c0,0.1,0,0.1,0,0.2c0,0,0,0,0,0c0,0.1,0,0.1-0.1,0.2c0,0,0,0,0,0c0,0.1-0.1,0.3-0.1,0.4
				c0,0,0,0,0,0c-0.1,0.2-0.2,0.4-0.2,0.7l0.3,0c0.6-1.6,0.8-3,0.8-3C42.3,12.6,42.2,12.7,42.1,12.8z M39.9,15.3l1.3,0.6
				c0,0.1-0.1,0.2-0.1,0.3c-0.3,0.6-0.6,1.2-1,1.8c0,0,0,0,0,0l0.2,0.1c0.5-0.7,0.9-1.4,1.2-2.1l-1.3-0.6L39.9,15.3z M33.8,22.3
				c0,0-0.1,0-0.1,0c0,0,0,0,0,0c0,0-0.1,0-0.1,0c0,0,0,0-0.1,0c-0.6,1.3-0.2,2.9-0.2,2.9c0,0,0.1,0,0.1,0c0.8,0.2,1.6,0.6,1.8,0.7
				c0.1,0,0.2,0,0.2,0c0,0-0.9-0.5-1.8-0.7C33.6,25.2,33.2,23.5,33.8,22.3z M31.8,25.8c0,0-0.1,0-0.1,0c0,0,0,0,0,0c0,0-0.1,0-0.1,0
				c0,0,0,0,0,0c0,0-0.1,0-0.1,0c0,0,0,0,0,0c0,0-0.1,0-0.1,0c0,0,0,0,0,0c0,0-0.1,0-0.1,0c0,0,0,0,0,0c0,0-0.1,0-0.1,0.1
				c0,0,0,0,0,0c-0.1,0-0.2,0.1-0.2,0.1c0,0.1,0,0.1-0.1,0.2c0,0,0.7-0.5,1.3-0.6c1-0.1,1.6,0,2.9,0.1
				C33.5,25.7,32.9,25.7,31.8,25.8z"/>
			<path class="st8" d="M30.1,12.5c0,0-0.1,0.1-0.3,0.1c-0.1,0-0.2,0-0.2-0.1c-0.1,0,0,0-0.2,0c-0.1,0-0.6,0.2-0.6,0.2
				c0,0,0.8-0.4,0.9-0.4c0.2,0,0.4,0.1,0.5,0.1c0.1,0,0.4,0.1,0.4,0.1c0,0,0,0-0.1,0.1C30.5,12.5,30.2,12.5,30.1,12.5z M32.8,23.2
				c0-0.1-0.1-0.3-0.2-0.5c0,0,0,0,0,0c0,0-0.1-0.1-0.1-0.1c0,0-0.1-0.1-0.1-0.1c0,0,0,0,0,0c-0.1-0.1-0.1-0.1-0.2-0.2l0.6,0.2V23.2
				z M42.2,12.5c-2.1,1.5-6.3,1.5-7,1.6c-0.7,0.2-0.5,0.6-0.5,0.6c-0.9,2.5-2.6,1.2-2.6,1.2c-1.3-0.8-1.1,0.1-0.6,1
				c-2-0.2-0.3-3,0.4-3.6c0.8-0.6,1.6-2.2,1.6-2.2c-0.2,0.3-1,0.8-2.9,0.4c-0.9-0.2-1.5,0.4-1.5,0.4c-3.8-0.3-2.8,1.3-2.8,1.3
				c0.4-0.6,1.5-0.3,1.5-0.3c0,0.2,0.1,0.4,0.3,0.4c0,0.3-0.1,0.6-0.2,0.9c-0.1,0-0.5-0.2-0.6-0.2c-0.3,0-0.3,0.5-0.6,0.6
				c0,0.1,0.2,0.2,0.3,0.2c-0.1,0.2-0.1,0.4-0.1,0.5c0,0.1,0.1,0.2,0.1,0.2c0,0.1,0,0.2,0,0.2c0.1,0,0.2-0.1,0.3-0.1
				c0.1,0,0.2,0,0.3-0.1c0.1,0,0.2-0.1,0.3-0.3c0,0,0,0,0.1,0c0.1,0.1,0.1,0.2,0.1,0.2c0,0,0-0.2,0.1-0.2c0.1-0.1,0.2-0.3,0.2-0.5
				c0.1-0.2,0-0.3-0.1-0.3c0,0-0.1-0.1-0.2-0.2c0.1-0.3,0.2-0.6,0.2-1l0,0c0,0,0-0.3,0-0.4c0-0.2-0.1-0.2-0.1-0.2
				c0.1-0.1,0.2,0.1,0.2,0.1l0,0.5c0.2,0,0.3-0.1,0.3-0.1s1.2-0.1,1.4,0.2c0.2,0.3,0.1,1.1-1,3.1c-1.2,2.1,0.1,4.2,1.8,5.1
				c0.6,0.4,1.8,1.5,1.7,3c0,0-2.2,0.5-2.3,1.5c0,0,0.7-0.5,1.3-0.6c1.2-0.1,1.8,0,3.4,0.1c0,0-0.9-0.5-1.9-0.7c0,0-0.4-1.6,0.2-2.9
				c0,0,0,0,0.1,0c0.7-0.2,2,0.6,2,0.6l-0.3-0.8c1.4,0.2,2,1.8,2,1.8c0-1.4-0.9-2.7-2-3.9c0.1,0,0.3,0,0.4,0.1c0.4,0,0.7,0,1.1,0
				l-0.5-1.9l0.9,1.8c0.9-0.3,1.7-0.8,2.3-1.6l-1-1L40,18c0.5-0.7,0.9-1.4,1.2-2.1l-1.3-0.6l1.5,0.2C42,13.9,42.2,12.5,42.2,12.5z"
				/>
			<path class="st7" d="M31.9,13.5c-0.7,0.5-2.4,3.3-0.4,3.6c-1.6-0.5,0-3,0.6-3.5c0.8-0.6,1.6-2.2,1.6-2.2
				c-0.1,0.1-0.3,0.2-0.4,0.3C33,12.2,32.4,13.1,31.9,13.5z M35.6,20c-0.1,0-0.2,0-0.2,0c0.1,0.1,0.1,0.1,0.2,0.2c0,0,0,0,0,0
				c0,0.1,0.1,0.1,0.1,0.2c0,0,0,0,0,0c0,0.1,0.1,0.1,0.1,0.2c0,0,0,0,0,0c0,0.1,0.1,0.1,0.1,0.2c0,0,0,0,0,0c0,0.1,0.1,0.1,0.1,0.2
				c0,0,0,0,0,0c0,0.1,0.1,0.1,0.1,0.2c0,0,0,0,0,0c0,0.1,0.1,0.1,0.1,0.2c0,0,0,0,0,0c0,0.1,0.1,0.1,0.1,0.2c0,0,0,0,0,0
				c0,0.1,0.1,0.1,0.1,0.2c0,0,0,0,0,0c0,0.1,0.1,0.1,0.1,0.2c0,0,0,0,0,0c0,0.1,0.1,0.1,0.1,0.2c0,0,0,0,0,0c0,0.1,0.1,0.1,0.1,0.2
				c0,0,0,0,0,0c0,0.1,0,0.1,0.1,0.2c0,0,0,0,0,0.1c0,0.1,0,0.1,0.1,0.2c0,0,0,0,0,0.1c0,0,0,0.1,0,0.1c0,0,0,0.1,0,0.1
				c0,0,0,0.1,0,0.1c0,0,0,0,0,0.1c0.2,0.3,0.3,0.6,0.3,0.6C37.6,22.6,36.7,21.2,35.6,20z M35.3,22.1l0.3,0.7
				c0.2,0.1,0.3,0.2,0.3,0.2l-0.3-0.8C35.5,22.1,35.4,22.1,35.3,22.1z"/>
			<path class="st7" d="M15.4,44.2c0,0.2,0.1,0.3,0.1,0.3c0.3-0.5,0.9-0.5,1.4-0.5C16.6,43.9,15.9,43.8,15.4,44.2z"/>
			<path class="st7" d="M17,45.7C17,45.7,17,45.7,17,45.7C17,45.7,17.1,45.7,17,45.7c0.1,0,0.1,0,0.1,0c0,0,0,0,0.1,0c0,0,0,0,0-0.1
				c-0.2-0.1-0.5-0.2-0.6-0.1c0,0-0.1,0-0.1,0C16.7,45.6,16.8,45.6,17,45.7C17,45.7,17,45.7,17,45.7z M16.4,47.5
				C16.4,47.5,16.4,47.5,16.4,47.5C16.3,47.5,16.3,47.5,16.4,47.5C16.3,47.5,16.3,47.5,16.4,47.5c-0.1,0-0.1,0-0.1,0c0,0,0,0,0,0
				c0,0,0,0,0,0c0,0,0,0,0,0c0,0,0,0,0,0c0,0,0,0.1,0,0.1C16.3,47.6,16.4,47.5,16.4,47.5C16.4,47.5,16.4,47.5,16.4,47.5
				C16.4,47.5,16.4,47.5,16.4,47.5z M22.6,55.6c0.1,0.1,0.2,0.2,0.3,0.2c0,0,0,0,0,0c0,0,0.1,0.1,0.1,0.1c0,0,0.1,0.1,0.1,0.1
				c0,0,0,0,0,0c0.1,0.2,0.2,0.4,0.2,0.6v-0.7c-0.1-0.2-0.3-0.3-0.4-0.4L22.6,55.6z M27.9,50.4l0.6,2.3c-0.1,0-0.1,0-0.2,0
				c0,0,0,0,0,0c0,0-0.1,0-0.1,0c0,0,0,0,0,0c0,0-0.1,0-0.1,0c0,0-0.1,0-0.1,0c0,0,0,0-0.1,0c0,0-0.1,0-0.1,0c0,0,0,0,0,0
				c-0.2,0-0.3,0-0.5,0c0.1,0,0.2,0,0.3,0c0.5,0,0.9,0,1.3-0.1l-0.3-1.2L27.9,50.4z M20.8,43.2c0,0-0.4-0.1-0.6-0.1
				c-0.2,0-0.4-0.1-0.6-0.1c-0.2,0-1.2,0.5-1.2,0.5c0,0,0.7-0.2,0.8-0.2c0.1,0,0.1,0,0.2,0c0,0.1,0.1,0.2,0.3,0.2
				c0.2,0,0.3-0.1,0.3-0.2c0.2,0.1,0.5,0.1,0.6,0C20.7,43.3,20.8,43.2,20.8,43.2z M21.9,47.5C22,47.5,22,47.5,21.9,47.5
				C22,47.5,22,47.5,21.9,47.5c0.1,0.1,0.1,0.1,0.2,0.1c0,0,0.1,0,0.1,0c0,0,0,0,0,0c0,0,0.1,0,0.1,0c0,0,0,0,0,0c0,0,0.1,0,0.1,0.1
				c0,0,0,0,0,0l0,0c0,0,0,0,0,0l0,0c0.1,0.1,0.6,0.3,1.1,0.3c-0.5-0.1-0.8-0.3-0.8-0.3c-0.5-0.3-0.9-0.4-1-0.4
				C21.8,47.4,21.9,47.4,21.9,47.5L21.9,47.5z M17.2,47.1C17.2,47.1,17.2,47.1,17.2,47.1c0,0-0.1-0.1-0.1-0.1
				c-0.1,0.2-0.2,0.3-0.3,0.4c0,0,0,0,0,0c0,0,0,0,0,0c0,0,0,0,0,0c0,0,0,0,0,0c0,0,0,0,0,0c0,0,0,0-0.1,0c0.1,0,0.3,0,0.4-0.1
				C17,47.4,17.1,47.3,17.2,47.1C17.2,47.1,17.2,47.1,17.2,47.1C17.2,47.1,17.2,47.1,17.2,47.1z M17.7,45.9c0.1-0.3,0.2-0.7,0.3-1.2
				l0,0l0-0.5c0,0,0,0,0-0.1h0V44c0,0-0.1-0.3-0.3-0.1c0,0,0.1,0.1,0.1,0.3c0,0.2,0,0.6,0,0.6c0,0.4-0.1,0.9-0.3,1.2
				c0.1,0.1,0.2,0.2,0.2,0.2c0,0,0.2,0.2,0.1,0.4c-0.1,0.2-0.2,0.5-0.3,0.6c0,0,0,0.1-0.1,0.1c0.1,0.1,0.1,0.2,0.1,0.2
				c0,0,0.1-0.2,0.1-0.3c0.1-0.1,0.2-0.4,0.3-0.6c0.1-0.2-0.1-0.4-0.1-0.4C17.9,46,17.8,45.9,17.7,45.9z M30.8,49.4l1.3,1.3
				c0,0.1-0.1,0.1-0.1,0.2c0,0,0,0,0,0c0,0-0.1,0.1-0.1,0.1c0,0,0,0-0.1,0.1c0,0-0.1,0.1-0.1,0.1c0,0,0,0-0.1,0.1
				c0,0-0.1,0.1-0.1,0.1c0,0-0.1,0-0.1,0.1c0,0-0.1,0-0.1,0.1c0,0-0.1,0-0.1,0.1c0,0-0.1,0-0.1,0.1c0,0-0.1,0-0.1,0.1
				c0,0,0,0-0.1,0.1c0,0-0.1,0.1-0.1,0.1c0,0,0,0-0.1,0c0,0-0.1,0.1-0.1,0.1c0,0,0,0,0,0c0,0-0.1,0.1-0.1,0.1c0,0,0,0,0,0
				c-0.3,0.2-0.7,0.4-1.1,0.5c0,0,0,0,0,0l0.1,0.1c1.2-0.3,2.2-1.1,2.9-2l-0.9-0.9L30.8,49.4z M35.1,43.6c0,0.2-0.1,0.5-0.2,0.8
				c0,0,0,0,0,0c0,0.1,0,0.1,0,0.2c0,0,0,0.1,0,0.1c0,0,0,0.1,0,0.1c0,0,0,0.1,0,0.1c0,0,0,0,0,0.1c0,0.1,0,0.1-0.1,0.2
				c0,0,0,0,0,0.1c0,0.1,0,0.1-0.1,0.2c0,0,0,0,0,0c0,0.1,0,0.2-0.1,0.2c0,0,0,0,0,0c0,0.2-0.1,0.3-0.2,0.5c0,0,0,0,0,0
				c-0.1,0.3-0.2,0.5-0.3,0.8l0.3,0.1c0.8-2,1-3.8,1-3.8C35.4,43.4,35.2,43.5,35.1,43.6z M32.3,46.8l1.6,0.7c0,0.1-0.1,0.2-0.1,0.3
				c-0.3,0.8-0.8,1.5-1.3,2.2c0,0,0,0,0,0l0.3,0.1c0.6-0.8,1.1-1.8,1.5-2.7l-1.6-0.7L32.3,46.8z M24.7,55.5c0,0-0.1,0-0.1,0
				c0,0,0,0,0,0c0,0-0.1,0-0.1,0c0,0-0.1,0-0.1,0c-0.8,1.6-0.2,3.6-0.2,3.6c0,0,0.1,0,0.1,0c1.1,0.2,2,0.8,2.2,0.9
				c0.1,0,0.2,0,0.3,0c0,0-1.1-0.6-2.3-0.9C24.4,59.2,23.8,57.1,24.7,55.5z M22.1,59.9c-0.1,0-0.1,0-0.2,0c0,0,0,0,0,0
				c-0.1,0-0.1,0-0.2,0c0,0,0,0,0,0c-0.1,0-0.1,0-0.2,0c0,0,0,0,0,0c-0.1,0-0.1,0-0.2,0.1c0,0,0,0,0,0c0,0-0.1,0-0.1,0.1
				c0,0,0,0,0,0c0,0-0.1,0-0.1,0.1c0,0,0,0,0,0c-0.1,0-0.2,0.1-0.3,0.1c0,0.1-0.1,0.2-0.1,0.3c0,0,0.9-0.6,1.7-0.7
				c1.3-0.1,2,0,3.6,0.1C24.2,59.9,23.5,59.8,22.1,59.9z"/>
			<path class="st8" d="M20,43.2c0,0-0.1,0.2-0.3,0.2c-0.2,0-0.3,0-0.3-0.2c-0.1,0-0.1,0-0.2,0c-0.1,0-0.7,0.2-0.8,0.2
				c0,0,0.9-0.5,1.2-0.5c0.3,0,0.5,0.1,0.6,0.1c0.2,0,0.5,0.1,0.6,0.1c0,0,0,0.1-0.1,0.1C20.5,43.3,20.2,43.3,20,43.2z M23.4,56.8
				c0-0.2-0.1-0.4-0.2-0.6c0,0,0,0,0,0c0,0-0.1-0.1-0.1-0.1c0,0-0.1-0.1-0.1-0.1c0,0,0,0,0,0c-0.1-0.1-0.2-0.2-0.3-0.2l0.8,0.2V56.8
				z M35.2,43.3c-2.6,1.9-7.9,1.8-8.8,2.1c-0.8,0.2-0.6,0.8-0.6,0.8c-1.2,3.1-3.3,1.6-3.3,1.6c-1.6-1-1.3,0.1-0.7,1.3
				c-2.5-0.3-0.4-3.8,0.5-4.5c0.9-0.7,2-2.7,2-2.7c-0.3,0.3-1.2,1-3.7,0.5c-1.1-0.2-1.9,0.5-1.9,0.5c-4.8-0.4-3.5,1.6-3.5,1.6
				c0.5-0.8,1.9-0.4,1.9-0.4c0,0.3,0.2,0.4,0.3,0.5c0,0.3-0.1,0.7-0.3,1.2c-0.2,0-0.6-0.2-0.7-0.2c-0.4,0.1-0.3,0.6-0.7,0.8
				c0,0.1,0.2,0.2,0.4,0.3c-0.2,0.2-0.2,0.5-0.2,0.6c0,0.2,0.1,0.2,0.1,0.3c0,0.1,0,0.2,0,0.2c0.1,0,0.2-0.1,0.3-0.1
				c0.1,0,0.3,0,0.4-0.1c0.1,0,0.2-0.2,0.3-0.4c0,0,0.1,0,0.1,0.1c0.1,0.1,0.2,0.3,0.2,0.3c0,0,0.1-0.2,0.1-0.3
				c0.1-0.1,0.2-0.4,0.3-0.6c0.1-0.2-0.1-0.4-0.1-0.4c-0.1-0.1-0.2-0.1-0.2-0.2c0.1-0.4,0.2-0.8,0.3-1.2l0,0c0,0,0-0.4,0-0.6
				c0-0.2-0.1-0.3-0.1-0.3C17.9,43.7,18,44,18,44l0,0.7c0.2,0,0.4-0.1,0.4-0.1s1.5-0.2,1.8,0.2c0.2,0.4,0.1,1.4-1.2,3.8
				c-1.5,2.7,0.1,5.3,2.3,6.4c0.7,0.5,2.3,1.9,2.1,3.7c0,0-2.8,0.6-2.9,1.8c0,0,0.9-0.6,1.7-0.7c1.5-0.1,2.2,0,4.3,0.2
				c0,0-1.1-0.7-2.4-0.9c0,0-0.5-2,0.2-3.6c0,0,0.1,0,0.1,0c0.9-0.2,2.6,0.7,2.6,0.7l-0.4-1c1.7,0.3,2.6,2.3,2.6,2.3
				c-0.1-1.7-1.2-3.4-2.5-4.9c0.2,0,0.4,0.1,0.6,0.1c0.5,0,0.9,0,1.4-0.1l-0.6-2.3l1.2,2.2c1.2-0.3,2.2-1.1,2.9-2l-1.3-1.3l1.6,0.9
				c0.6-0.8,1.1-1.8,1.5-2.7l-1.6-0.7l1.8,0.3C34.9,45.1,35.2,43.3,35.2,43.3z"/>
			<path class="st7" d="M22.2,44.6c-0.9,0.7-3,4.2-0.5,4.5c-2-0.6-0.1-3.8,0.8-4.4c0.9-0.7,2-2.7,2-2.7c-0.1,0.1-0.3,0.2-0.6,0.3
				C23.7,42.9,22.9,44,22.2,44.6z M26.9,52.8c-0.1,0-0.2,0-0.3,0c0.1,0.1,0.1,0.1,0.2,0.2c0,0,0,0,0,0c0.1,0.1,0.1,0.1,0.2,0.2
				c0,0,0,0,0,0c0.1,0.1,0.1,0.1,0.2,0.2c0,0,0,0,0,0c0.1,0.1,0.1,0.2,0.2,0.2c0,0,0,0,0,0c0.1,0.1,0.1,0.2,0.2,0.2c0,0,0,0,0,0
				c0.1,0.1,0.1,0.2,0.2,0.2c0,0,0,0,0,0c0.1,0.1,0.1,0.2,0.2,0.2c0,0,0,0,0,0c0.1,0.1,0.1,0.2,0.2,0.2c0,0,0,0,0,0
				c0,0.1,0.1,0.2,0.1,0.2c0,0,0,0,0,0c0,0.1,0.1,0.2,0.1,0.2c0,0,0,0,0,0c0,0.1,0.1,0.2,0.1,0.2c0,0,0,0,0,0c0,0.1,0.1,0.1,0.1,0.2
				c0,0,0,0,0,0.1c0,0.1,0.1,0.1,0.1,0.2c0,0,0,0.1,0,0.1c0,0.1,0,0.1,0.1,0.2c0,0,0,0.1,0,0.1c0,0.1,0,0.1,0,0.2c0,0,0,0.1,0,0.1
				c0,0.1,0,0.1,0,0.2c0,0,0,0,0,0.1c0.3,0.4,0.4,0.8,0.4,0.8C29.4,56,28.2,54.2,26.9,52.8z M26.6,55.3l0.3,0.9
				c0.2,0.1,0.4,0.2,0.4,0.2l-0.4-1C26.8,55.4,26.7,55.3,26.6,55.3z"/>
			<g class="st4">
				<defs>
					<path id="SVGID_5_" d="M18.9,36.1c0,0-0.1,0-0.1,0c-0.1,0-0.2,0-0.2,0c-2.2-0.2-4.1,0.5-5.2,1L13,37.9c0,0,6.2-4,10.9,1.1
						C23.9,39,22.2,36.7,18.9,36.1z"/>
				</defs>
				<clipPath id="SVGID_6_">
					<use xlink:href="#SVGID_5_"  style="overflow:visible;"/>
				</clipPath>
				<g class="st9">
					<defs>
						<rect id="SVGID_7_" x="13" y="33.8" width="10.9" height="5.2"/>
					</defs>
					<clipPath id="SVGID_8_">
						<use xlink:href="#SVGID_7_"  style="overflow:visible;"/>
					</clipPath>
					<g class="st10">
						<g>
							<defs>
								<rect id="SVGID_9_" x="13.2" y="33.8" width="10.9" height="5.2"/>
							</defs>
							<clipPath id="SVGID_10_">
								<use xlink:href="#SVGID_9_"  style="overflow:visible;"/>
							</clipPath>
							<g class="st11">
								<defs>
									<rect id="SVGID_11_" x="13.2" y="33.8" width="10.9" height="5.2"/>
								</defs>
								<clipPath id="SVGID_12_">
									<use xlink:href="#SVGID_11_"  style="overflow:visible;"/>
								</clipPath>
								
									<linearGradient id="SVGID_13_" gradientUnits="userSpaceOnUse" x1="-1.5629" y1="-4.2814" x2="-0.5629" y2="-4.2814" gradientTransform="matrix(10.8635 0 0 -10.8631 30.1507 -9.0492)">
									<stop  offset="0" style="stop-color:#FFFFFF"/>
									<stop  offset="0.1425" style="stop-color:#EBE9F3"/>
									<stop  offset="0.4422" style="stop-color:#B7B3D2"/>
									<stop  offset="0.8713" style="stop-color:#65659D"/>
									<stop  offset="0.9382" style="stop-color:#585A96"/>
									<stop  offset="1" style="stop-color:#585A96"/>
								</linearGradient>
								<rect x="13.2" y="33.8" class="st12" width="10.9" height="5.2"/>
							</g>
						</g>
					</g>
				</g>
			</g>
			<g class="st4">
				<defs>
					<path id="SVGID_14_" d="M34.7,37.2c-1-0.5-3.2-1.2-5.6-0.9c3.2-0.2,5.8,1.6,5.8,1.6L34.7,37.2z"/>
				</defs>
				<clipPath id="SVGID_15_">
					<use xlink:href="#SVGID_14_"  style="overflow:visible;"/>
				</clipPath>
				<g class="st13">
					<defs>
						<rect id="SVGID_16_" x="29.2" y="36" width="5.8" height="1.9"/>
					</defs>
					<clipPath id="SVGID_17_">
						<use xlink:href="#SVGID_16_"  style="overflow:visible;"/>
					</clipPath>
					<g class="st14">
						<g>
							<defs>
								<rect id="SVGID_18_" x="29.2" y="36.1" width="5.8" height="1.9"/>
							</defs>
							<clipPath id="SVGID_19_">
								<use xlink:href="#SVGID_18_"  style="overflow:visible;"/>
							</clipPath>
							<g class="st15">
								<defs>
									<rect id="SVGID_20_" x="29.2" y="36.1" width="5.8" height="1.9"/>
								</defs>
								<clipPath id="SVGID_21_">
									<use xlink:href="#SVGID_20_"  style="overflow:visible;"/>
								</clipPath>
								
									<linearGradient id="SVGID_22_" gradientUnits="userSpaceOnUse" x1="-1.5629" y1="-4.2814" x2="-0.5629" y2="-4.2814" gradientTransform="matrix(5.8272 0 0 -5.827 38.3326 12.2709)">
									<stop  offset="0" style="stop-color:#585A96"/>
									<stop  offset="9.550000e-02" style="stop-color:#585A96"/>
									<stop  offset="0.2082" style="stop-color:#66669E"/>
									<stop  offset="0.4304" style="stop-color:#8B88B5"/>
									<stop  offset="0.7373" style="stop-color:#C7C4DC"/>
									<stop  offset="1" style="stop-color:#FFFFFF"/>
								</linearGradient>
								<rect x="29.2" y="36.1" class="st16" width="5.8" height="1.9"/>
							</g>
						</g>
					</g>
				</g>
			</g>
			<g class="st4">
				<defs>
					<path id="SVGID_23_" d="M12.9,36.7l-0.3,0.7c0,0,3.7-2.1,7.5-1C17.1,35.4,14.1,36.2,12.9,36.7z"/>
				</defs>
				<clipPath id="SVGID_24_">
					<use xlink:href="#SVGID_23_"  style="overflow:visible;"/>
				</clipPath>
				<g class="st17">
					<defs>
						<rect id="SVGID_25_" x="12.6" y="35.3" width="7.5" height="2.1"/>
					</defs>
					<clipPath id="SVGID_26_">
						<use xlink:href="#SVGID_25_"  style="overflow:visible;"/>
					</clipPath>
					<g class="st18">
						<g>
							<defs>
								<rect id="SVGID_27_" x="12.5" y="35.1" width="7.5" height="2.1"/>
							</defs>
							<clipPath id="SVGID_28_">
								<use xlink:href="#SVGID_27_"  style="overflow:visible;"/>
							</clipPath>
							<g class="st19">
								<defs>
									<rect id="SVGID_29_" x="12.5" y="35.1" width="7.5" height="2.1"/>
								</defs>
								<clipPath id="SVGID_30_">
									<use xlink:href="#SVGID_29_"  style="overflow:visible;"/>
								</clipPath>
								
									<linearGradient id="SVGID_31_" gradientUnits="userSpaceOnUse" x1="-1.5629" y1="-4.2814" x2="-0.5629" y2="-4.2814" gradientTransform="matrix(7.451 0 0 -7.4508 24.1172 4.6392)">
									<stop  offset="0" style="stop-color:#FFFFFF"/>
									<stop  offset="0.2367" style="stop-color:#DFDCEB"/>
									<stop  offset="0.7613" style="stop-color:#8E8AB6"/>
									<stop  offset="0.9382" style="stop-color:#726FA4"/>
									<stop  offset="1" style="stop-color:#726FA4"/>
								</linearGradient>
								<rect x="12.5" y="35.1" class="st20" width="7.5" height="2.1"/>
							</g>
						</g>
					</g>
				</g>
			</g>
			<g class="st4">
				<defs>
					<path id="SVGID_32_" d="M26.9,36.8c4.2-1.7,8.5,0.7,8.5,0.7l-0.3-0.7C33.9,36.4,30.5,35.2,26.9,36.8z"/>
				</defs>
				<clipPath id="SVGID_33_">
					<use xlink:href="#SVGID_32_"  style="overflow:visible;"/>
				</clipPath>
				<g class="st21">
					<defs>
						<rect id="SVGID_34_" x="26.9" y="35.1" width="8.5" height="2.4"/>
					</defs>
					<clipPath id="SVGID_35_">
						<use xlink:href="#SVGID_34_"  style="overflow:visible;"/>
					</clipPath>
					<g class="st22">
						<g>
							<defs>
								<rect id="SVGID_36_" x="26.8" y="35.3" width="8.5" height="2.4"/>
							</defs>
							<clipPath id="SVGID_37_">
								<use xlink:href="#SVGID_36_"  style="overflow:visible;"/>
							</clipPath>
							<g class="st23">
								<defs>
									<rect id="SVGID_38_" x="26.8" y="35.3" width="8.5" height="2.4"/>
								</defs>
								<clipPath id="SVGID_39_">
									<use xlink:href="#SVGID_38_"  style="overflow:visible;"/>
								</clipPath>
								
									<linearGradient id="SVGID_40_" gradientUnits="userSpaceOnUse" x1="-1.5629" y1="-4.2814" x2="-0.5629" y2="-4.2814" gradientTransform="matrix(8.4549 0 0 -8.4547 39.9797 0.7791)">
									<stop  offset="0" style="stop-color:#726FA4"/>
									<stop  offset="9.550000e-02" style="stop-color:#726FA4"/>
									<stop  offset="0.2202" style="stop-color:#7F7BAC"/>
									<stop  offset="0.4612" style="stop-color:#A19DC3"/>
									<stop  offset="0.791" style="stop-color:#D9D6E8"/>
									<stop  offset="1" style="stop-color:#FFFFFF"/>
								</linearGradient>
								<rect x="26.8" y="35.3" class="st24" width="8.5" height="2.4"/>
							</g>
						</g>
					</g>
				</g>
			</g>
			<path class="st3" d="M23.9,39c-3.9-4.3-8.9-2.2-10.4-1.4L13.3,38l0.3,0.2c0,0,5.2-3.7,9.7,0.9c0.7,0.7,0.7,0.5,1.3,0
				c5.1-4.8,9.5-0.9,9.6-1c0.2,0,0.4-0.2,0.4-0.2l-0.1-0.4c-1.5-0.8-6.5-3-10.5,1.2L23.9,39z"/>
			<g class="st4">
				<defs>
					<path id="SVGID_41_" d="M12.4,37c0,0,6.5-3.3,11.5,2l0.3-9.6c0,0-4.7-3.4-8.7,0.2L12.4,37z"/>
				</defs>
				<clipPath id="SVGID_42_">
					<use xlink:href="#SVGID_41_"  style="overflow:visible;"/>
				</clipPath>
				<g class="st25">
					<defs>
						<rect id="SVGID_43_" x="12.4" y="26" width="11.7" height="13.1"/>
					</defs>
					<clipPath id="SVGID_44_">
						<use xlink:href="#SVGID_43_"  style="overflow:visible;"/>
					</clipPath>
					<g class="st26">
						<g>
							<defs>
								<rect id="SVGID_45_" x="12.6" y="25.9" width="11.7" height="13.1"/>
							</defs>
							<clipPath id="SVGID_46_">
								<use xlink:href="#SVGID_45_"  style="overflow:visible;"/>
							</clipPath>
							<g class="st27">
								<defs>
									<rect id="SVGID_47_" x="12.6" y="25.9" width="11.7" height="13.1"/>
								</defs>
								<clipPath id="SVGID_48_">
									<use xlink:href="#SVGID_47_"  style="overflow:visible;"/>
								</clipPath>
								
									<linearGradient id="SVGID_49_" gradientUnits="userSpaceOnUse" x1="-1.5629" y1="-4.2814" x2="-0.5629" y2="-4.2814" gradientTransform="matrix(11.7187 0 0 -11.7183 30.8923 -16.7443)">
									<stop  offset="0" style="stop-color:#FFFFFF"/>
									<stop  offset="0.732" style="stop-color:#FFFFFF"/>
									<stop  offset="0.7885" style="stop-color:#E4E2EF"/>
									<stop  offset="0.9331" style="stop-color:#A4A0C4"/>
									<stop  offset="1" style="stop-color:#8A87B3"/>
								</linearGradient>
								<rect x="12.6" y="25.9" class="st28" width="11.7" height="13.1"/>
							</g>
						</g>
					</g>
				</g>
			</g>
			<g class="st4">
				<defs>
					<path id="SVGID_50_" d="M35.5,37c0,0-6.6-3.3-11.6,2l0.3-9.6c0,0,5-3.6,8.5,0.2L35.5,37z"/>
				</defs>
				<clipPath id="SVGID_51_">
					<use xlink:href="#SVGID_50_"  style="overflow:visible;"/>
				</clipPath>
				<g class="st29">
					<defs>
						<rect id="SVGID_52_" x="23.9" y="25.8" width="11.6" height="13.2"/>
					</defs>
					<clipPath id="SVGID_53_">
						<use xlink:href="#SVGID_52_"  style="overflow:visible;"/>
					</clipPath>
					<g class="st30">
						<g>
							<defs>
								<rect id="SVGID_54_" x="23.8" y="25.8" width="11.6" height="13.2"/>
							</defs>
							<clipPath id="SVGID_55_">
								<use xlink:href="#SVGID_54_"  style="overflow:visible;"/>
							</clipPath>
							<g class="st31">
								<defs>
									<rect id="SVGID_56_" x="23.8" y="25.8" width="11.6" height="13.2"/>
								</defs>
								<clipPath id="SVGID_57_">
									<use xlink:href="#SVGID_56_"  style="overflow:visible;"/>
								</clipPath>
								
									<linearGradient id="SVGID_58_" gradientUnits="userSpaceOnUse" x1="-1.5629" y1="-4.2814" x2="-0.5629" y2="-4.2814" gradientTransform="matrix(5.1723 0 0 -5.1722 30.3595 11.3271)">
									<stop  offset="0" style="stop-color:#726FA4"/>
									<stop  offset="9.550000e-02" style="stop-color:#726FA4"/>
									<stop  offset="0.2202" style="stop-color:#7F7BAC"/>
									<stop  offset="0.4612" style="stop-color:#A19DC3"/>
									<stop  offset="0.791" style="stop-color:#D9D6E8"/>
									<stop  offset="1" style="stop-color:#FFFFFF"/>
								</linearGradient>
								<rect x="23.8" y="25.8" class="st32" width="11.6" height="13.2"/>
							</g>
						</g>
					</g>
				</g>
			</g>
			<path class="st7" d="M16.6,31.7l0.1,0c0.2,0,0.3-0.1,0.3-0.4l0.1,0c0,0.2-0.1,0.3-0.1,0.5c0,0.2,0,0.3-0.1,0.5l-0.1,0
				c0-0.2,0-0.4-0.2-0.4l-0.1,0l-0.2,0.7c-0.1,0.3,0,0.3,0.3,0.2l0,0.1c-0.2,0-0.5,0.1-0.7,0.1c-0.2,0-0.3,0.1-0.7,0.1l0.1-0.1
				c0.4-0.1,0.4-0.2,0.5-0.5l0.4-1.2c0.1-0.3,0.1-0.5-0.2-0.4l0-0.1c0.2,0,0.5-0.1,0.8-0.1c0.4-0.1,0.7-0.2,1.1-0.3L17.8,31l-0.2,0
				c0-0.4-0.1-0.4-0.5-0.3c-0.3,0.1-0.3,0.1-0.4,0.4L16.6,31.7z"/>
			<path class="st7" d="M18.4,31c0.1-0.3,0.1-0.4-0.2-0.4l0-0.2c0.2,0,0.3,0,0.5-0.1c0.2,0,0.3-0.1,0.6-0.1l0,0.2
				c-0.3,0-0.4,0.1-0.4,0.4l-0.3,1.2c-0.1,0.4-0.1,0.5,0.2,0.5l0,0.1c-0.2,0-0.4,0-0.6,0c-0.2,0-0.4,0-0.6,0.1l0-0.1
				c0.3,0,0.4-0.2,0.4-0.5L18.4,31z"/>
			<path class="st7" d="M19.8,32.1c0,0.1-0.1,0.1-0.1,0.3c-0.1,0.2,0.1,0.2,0.2,0.2l0,0.1c-0.1,0-0.3,0-0.4,0c-0.1,0-0.2,0-0.4,0
				l0-0.1c0.3,0,0.4-0.3,0.5-0.6c0.3-0.7,0.8-1.7,0.8-1.7l0.3,0c0,0,0.3,1.5,0.4,1.9c0,0.3,0.1,0.3,0.1,0.5c0,0.1,0.1,0.2,0.2,0.2
				l0,0.1C21.1,33,21,33,20.8,32.9c-0.2,0-0.3-0.1-0.5-0.1l0-0.1c0.1,0,0.3,0,0.3-0.2c0-0.1,0-0.2,0-0.3l0-0.1c0,0-0.2,0-0.4-0.1
				c-0.2,0-0.3,0-0.3,0L19.8,32.1z M20.2,31.8c0.2,0,0.3,0,0.3,0L20.3,31l-0.4,0.8C19.9,31.8,20.1,31.8,20.2,31.8z"/>
			<path class="st7" d="M23,32l-0.1-0.1c0-0.3,0-0.6-0.2-0.7c-0.2-0.1-0.2,0-0.2,0.3l-0.1,1.3c0,0.3,0,0.5,0.2,0.6l0,0.2
				c-0.2-0.1-0.4-0.2-0.5-0.2c-0.2-0.1-0.3-0.1-0.5-0.2l0-0.1c0.3,0.1,0.3,0,0.4-0.4l0.1-1.3c0-0.3,0.1-0.4-0.1-0.5
				c-0.2-0.1-0.3,0.2-0.4,0.5l-0.1,0l0.1-0.7c0,0,0.5,0.1,0.9,0.3c0.4,0.2,0.7,0.4,0.7,0.4L23,32z"/>
			<path class="st7" d="M26,33.6c0.3-0.2,0.3-0.3,0.3-0.6l-0.1-1.3c0-0.3,0-0.5-0.3-0.4l0-0.2c0.2-0.1,0.3-0.1,0.5-0.2
				c0.2-0.1,0.4-0.1,0.6-0.2l0,0.2c-0.3,0.1-0.3,0.3-0.2,0.6l0.1,1c0,0.4,0.1,0.6,0.4,0.5c0.4-0.1,0.6-0.3,0.7-0.8l0.1,0l0,0.8
				c-0.6,0.1-1.3,0.4-1.4,0.4c-0.2,0.1-0.4,0.2-0.5,0.3L26,33.6z"/>
			<path class="st7" d="M27.7,30.7c0.3,0,0.4,0,0.6,0c0.2,0,0.4,0,0.6,0l0,0.1c-0.3,0-0.3,0.2-0.3,0.5l0.1,0.6
				c0,0.5,0.2,0.8,0.7,0.8c0.5,0,0.5-0.3,0.4-0.7l-0.1-0.5c0-0.1,0-0.3-0.1-0.4c-0.1-0.1-0.1-0.2-0.3-0.2l0-0.1c0.1,0,0.3,0,0.4,0
				c0.1,0,0.2,0,0.3,0l0,0.1c-0.1,0-0.2,0.1-0.2,0.2c0,0.1,0,0.3,0,0.4l0,0.3c0.1,0.7,0.2,1.1-0.7,1.1c-0.5,0-1.1-0.2-1.1-1
				l-0.1-0.6c0-0.3,0-0.5-0.3-0.5L27.7,30.7z"/>
			<path class="st7" d="M32.3,33c0.1,0.2,0.2,0.3,0.4,0.3l0,0.1c-0.2,0-0.3-0.1-0.5-0.1c-0.2,0-0.4,0-0.5-0.1l0-0.1c0,0,0.2,0,0.2,0
				c0,0,0,0,0-0.1c0-0.1-0.1-0.2-0.2-0.3l-0.3-0.5l-0.2,0.3c-0.1,0.1-0.1,0.2-0.1,0.3c0,0.1,0.1,0.2,0.2,0.2l0,0.1
				c-0.2,0-0.3-0.1-0.4-0.1c-0.1,0-0.2,0-0.4-0.1l0-0.1c0.2,0,0.3-0.1,0.4-0.3l0.4-0.6l-0.4-0.7c0-0.1-0.1-0.2-0.2-0.2
				c-0.1-0.1-0.1-0.1-0.2-0.2l0-0.1c0.1,0,0.3,0.1,0.5,0.1c0.2,0,0.3,0,0.5,0.1l0,0.2c-0.1,0-0.2,0-0.2,0.1c0,0.1,0,0.1,0.1,0.2
				l0.2,0.3l0.1-0.2c0.1-0.1,0.1-0.1,0.1-0.2c0.1-0.1-0.1-0.2-0.2-0.2l0-0.1c0.1,0,0.2,0,0.3,0c0.1,0,0.2,0,0.3,0l0,0.1
				c-0.2,0-0.2,0.1-0.3,0.3l-0.3,0.4L32.3,33z"/>
		</g>
	</g>
</g>
<g>
	<g>
		<g>
			<defs>
				<rect id="SVGID_59_" x="5.5" y="2.3" width="268.9" height="61.9"/>
			</defs>
			<clipPath id="SVGID_60_">
				<use xlink:href="#SVGID_59_"  style="display:none;overflow:visible;"/>
			</clipPath>
			<path class="st33" d="M66.1,57.6h0.4c0.7,0,1.3-0.3,1.8-0.8c0.5-0.5,0.8-1.3,0.8-2.3V33.4c0-1.2-0.3-2-0.9-2.4
				c-0.6-0.5-1.3-0.7-2.1-0.7v-0.3h9v0.3c-0.8,0-1.5,0.3-2.1,0.7c-0.6,0.4-0.9,1.3-0.9,2.5v20.4c0,1.2,0.3,2.1,0.9,2.5
				c0.6,0.5,1.6,0.7,3,0.7h2.4c1.1,0,1.9-0.1,2.5-0.4c0.6-0.3,1.1-0.6,1.5-1.2c0.4-0.5,0.7-1.3,1.1-2.2h0.3l-1.1,4.6H66.1V57.6z"/>
			<path class="st33" d="M94.5,29.9v0.3c-0.8,0-1.5,0.2-2.1,0.7c-0.6,0.5-0.9,1.2-0.9,2.3v21.3c0,1.1,0.3,1.9,0.9,2.3
				c0.6,0.5,1.3,0.7,2.1,0.7v0.3h-8.9v-0.3c0.8,0,1.5-0.2,2.1-0.7c0.6-0.5,0.9-1.3,0.9-2.4V33.2c0-1.2-0.3-2-0.9-2.4
				c-0.6-0.4-1.3-0.6-2.1-0.6v-0.3H94.5z"/>
			<path class="st33" d="M122.3,29.9v0.3c-0.7,0.1-1.3,0.3-1.8,0.7c-0.5,0.4-0.9,0.9-1.2,1.5c-0.3,0.6-0.7,1.5-1.1,2.5
				c-0.1,0.1-0.1,0.2-0.2,0.5l-8.1,23.2h-0.3l-9.5-25.1c0-0.1,0-0.1-0.1-0.2c-0.4-1.1-0.9-1.9-1.5-2.4c-0.6-0.5-1.4-0.7-2.3-0.7
				v-0.3h9.2v0.3c-0.8,0.1-1.4,0.2-1.9,0.5c-0.5,0.2-0.7,0.8-0.7,1.6c0,0.2,0.1,0.7,0.3,1.4c0,0.1,0,0.1,0.1,0.2c0,0.1,0,0.1,0,0.2
				l7.4,19.7h0.1l6.3-18.3c0.4-1.3,0.7-2.2,0.7-2.8c0-1-0.2-1.6-0.6-1.9c-0.4-0.3-1.1-0.4-1.9-0.5v-0.3H122.3z"/>
			<path class="st33" d="M124.1,30.2v-0.3h16.7v4.4h-0.3c0-2.4-1.6-3.5-4.7-3.5h-5.8v12.7h5.1c1,0,1.9-0.2,2.7-0.5
				c0.8-0.3,1.3-1.1,1.4-2.3h0.3v6.3h-0.3c-0.1-0.7-0.3-1.3-0.6-1.7c-0.3-0.4-0.6-0.6-0.9-0.8c-0.3-0.1-0.6-0.2-0.8-0.2
				c-0.5-0.1-0.9-0.1-1.4-0.1h-5.4v9.9c0,0.7,0.1,1.4,0.4,1.9c0.3,0.5,0.9,0.8,2,0.8h4.2c1,0,1.8-0.1,2.5-0.4
				c0.6-0.3,1.2-0.7,1.5-1.2c0.4-0.5,0.7-1.1,0.9-1.9h0.3l-1,4.4h-16.7v-0.3h0.4c0.6,0,1.2-0.2,1.7-0.7c0.6-0.5,0.9-1.3,0.9-2.4
				V33.4c0-0.9-0.2-1.6-0.6-2.2c-0.4-0.6-1.1-1-2-1H124.1z"/>
			<path class="st33" d="M143.5,30.3h-0.4v-0.4h9.7c1.6,0,2.9,0.2,4,0.7c1.1,0.5,1.9,1.1,2.5,1.8c0.6,0.7,1,1.5,1.3,2.4
				c0.3,0.8,0.4,1.6,0.4,2.4c0,1-0.2,2-0.6,2.9c-0.4,0.9-1.1,1.7-2,2.4c-0.9,0.7-2,1.1-3.3,1.4V44c1.7,0.8,3.2,2.4,4.6,4.8l2.5,4.3
				c1.1,1.9,2.1,3.1,2.7,3.6c0.7,0.5,1.4,0.8,2,0.9v0.3h-5.1c-0.2-0.3-0.4-0.5-0.6-0.8c-0.2-0.3-0.4-0.5-0.6-0.8
				c-0.1-0.2-0.3-0.5-0.6-0.9c-0.2-0.4-0.4-0.6-0.4-0.7l-3.3-5.5c-0.7-1.1-1.4-2-2.1-2.7c-0.7-0.7-1.4-1.2-2-1.5
				c-0.6-0.3-1.2-0.5-1.6-0.6c-0.5-0.1-1.1-0.1-1.7-0.1v10.2c0,2,1,3,3,3.1v0.3h-8.9v-0.3c0.6,0,1.1-0.1,1.5-0.3
				c0.4-0.2,0.8-0.5,1.1-1c0.3-0.4,0.4-1.1,0.4-1.8V33.3c0-1.1-0.3-1.9-0.8-2.4C144.7,30.5,144.1,30.3,143.5,30.3z M149,43.5h1.6
				c1.7,0,3-0.2,4.1-0.7c1.1-0.5,1.8-1.2,2.3-2.1c0.5-0.9,0.7-2,0.7-3.3c0-1.1-0.2-2.1-0.6-3.2c-0.4-1-1.2-1.9-2.2-2.6
				c-1-0.7-2.4-1.1-4.2-1.1c-0.7,0-1.3,0.1-1.7,0.2V43.5z"/>
			<path class="st33" d="M168,30.2v-0.3h9.2c1.5,0,2.9,0.2,4.1,0.6c1.2,0.4,2.1,1,2.9,1.7c0.8,0.7,1.4,1.5,1.8,2.4
				c0.4,0.9,0.6,1.9,0.6,2.9c0,1-0.2,1.9-0.5,2.8c-0.4,0.9-0.9,1.7-1.7,2.4c-0.8,0.7-1.8,1.3-3,1.7c-1.3,0.4-2.7,0.6-4.3,0.6
				c-0.5,0-1.5-0.1-3-0.2v9.7c0,2,1,3,3,3.1v0.3H168v-0.3c0.9,0,1.6-0.3,2.2-0.7c0.6-0.5,0.8-1.3,0.8-2.3V33.3
				c0-0.6-0.1-1.2-0.3-1.6c-0.2-0.4-0.4-0.7-0.7-0.9c-0.3-0.2-0.6-0.3-0.9-0.4c-0.3-0.1-0.6-0.1-0.7-0.2H168z M173.9,30.9v13.2
				c1,0.2,1.9,0.3,2.9,0.3c1.8,0,3.4-0.5,4.6-1.4c1.3-0.9,1.9-2.7,1.9-5.2c0-2.1-0.6-3.8-1.7-5.1c-1.1-1.3-2.8-2-5-2
				C175.7,30.6,174.8,30.7,173.9,30.9z"/>
			<path class="st33" d="M217.7,43.9c0,2.6-0.7,5.1-2,7.3c-1.3,2.3-3.1,4.1-5.3,5.4c-2.2,1.3-4.7,2-7.5,2c-2.7,0-5.2-0.7-7.5-2
				c-2.3-1.3-4.1-3.1-5.4-5.4c-1.3-2.3-2-4.7-2-7.4c0-2,0.4-4,1.2-5.8c0.8-1.8,1.9-3.4,3.3-4.7c1.4-1.3,3-2.4,4.8-3.1
				c1.8-0.7,3.7-1.1,5.6-1.1c1.9,0,3.7,0.4,5.5,1.1c1.8,0.7,3.3,1.7,4.7,3.1c1.4,1.3,2.5,2.9,3.3,4.7
				C217.3,39.7,217.7,41.7,217.7,43.9z M214.4,44c0-3.7-0.7-6.6-2-8.7c-1.3-2.1-2.8-3.5-4.6-4.2c-1.7-0.7-3.3-1.1-4.9-1.1
				c-1.2,0-2.4,0.2-3.7,0.6c-1.3,0.4-2.5,1.1-3.7,2.1c-1.2,1-2.2,2.5-3,4.3c-0.8,1.9-1.2,4.2-1.2,6.9c0,2.4,0.3,4.5,1,6.3
				c0.6,1.8,1.5,3.3,2.6,4.4c1.1,1.1,2.4,2,3.7,2.5c1.3,0.5,2.8,0.7,4.2,0.7c1.3,0,2.6-0.2,4-0.7c1.3-0.5,2.6-1.2,3.7-2.3
				c1.1-1,2-2.5,2.7-4.3C214,48.8,214.4,46.6,214.4,44z"/>
			<path class="st33" d="M249.8,43.9c0,2.6-0.6,5.1-1.9,7.3c-1.3,2.3-3.1,4.1-5.3,5.4c-2.2,1.3-4.7,2-7.4,2c-2.7,0-5.2-0.7-7.5-2
				c-2.3-1.3-4.1-3.1-5.4-5.4c-1.3-2.3-2-4.7-2-7.4c0-2,0.4-4,1.2-5.8c0.8-1.8,1.9-3.4,3.3-4.7c1.4-1.3,3-2.4,4.8-3.1
				c1.8-0.7,3.7-1.1,5.6-1.1c1.9,0,3.8,0.4,5.5,1.1c1.8,0.7,3.3,1.7,4.7,3.1c1.4,1.3,2.5,2.9,3.3,4.7
				C249.4,39.7,249.8,41.7,249.8,43.9z M246.5,44c0-3.7-0.7-6.6-2-8.7c-1.3-2.1-2.8-3.5-4.6-4.2c-1.7-0.7-3.3-1.1-4.9-1.1
				c-1.2,0-2.4,0.2-3.7,0.6c-1.3,0.4-2.5,1.1-3.7,2.1c-1.2,1-2.2,2.5-3,4.3c-0.8,1.9-1.2,4.2-1.2,6.9c0,2.4,0.3,4.5,1,6.3
				c0.6,1.8,1.5,3.3,2.6,4.4c1.1,1.1,2.4,2,3.7,2.5c1.4,0.5,2.8,0.7,4.2,0.7c1.3,0,2.6-0.2,4-0.7c1.3-0.5,2.6-1.2,3.7-2.3
				c1.1-1,2-2.5,2.7-4.3C246.2,48.8,246.5,46.6,246.5,44z"/>
			<path class="st33" d="M249,57.6h0.4c0.7,0,1.3-0.3,1.8-0.8c0.5-0.5,0.8-1.3,0.8-2.3V33.4c0-1.2-0.3-2-0.9-2.4
				c-0.6-0.5-1.3-0.7-2.1-0.7v-0.3h9v0.3c-0.8,0-1.5,0.3-2.1,0.7c-0.6,0.4-0.9,1.3-0.9,2.5v20.4c0,1.2,0.3,2.1,0.9,2.5
				c0.6,0.5,1.6,0.7,3,0.7h2.4c1.1,0,1.9-0.1,2.5-0.4c0.6-0.3,1.1-0.6,1.5-1.2c0.4-0.5,0.7-1.3,1.1-2.2h0.3l-1.1,4.6H249V57.6z"/>
			<path class="st33" d="M74.1,16.1c0,0.8-0.2,3.1-3.6,3.1c-3.2,0-3.4-2.2-3.4-3.1V9h1v6.7c0,0.9,0.1,2.6,2.4,2.6
				c2.6,0,2.6-1.7,2.6-2.6V9h1V16.1z"/>
			<polygon class="st33" points="85.1,9 86.5,9 91.3,17.9 91.3,17.9 91.3,9 92.3,9 92.3,18.9 90.9,18.9 86.2,10.3 86.1,10.3 
				86.1,18.9 85.1,18.9 			"/>
			<rect x="103.4" y="9" class="st33" width="1" height="10"/>
			<polygon class="st33" points="113.8,9 114.8,9 118.2,18.1 118.2,18.1 121.7,9 122.6,9 118.9,18.9 117.5,18.9 			"/>
			<polygon class="st33" points="132,9 137,9 137,9.8 133,9.8 133,13.3 136.8,13.3 136.8,14.1 133,14.1 133,18.1 137.2,18.1 
				137.2,18.9 132,18.9 			"/>
			<path class="st33" d="M147.5,9h2.4c1.4,0,3.6,0.3,3.6,2.6c0,2.2-2.1,2.4-2.3,2.5v0c1.5,0.3,1.6,1.1,1.9,2.2l0.6,2.7h-1l-0.6-2.4
				c-0.3-1.4-0.6-2.2-2.3-2.2h-1.4v4.5h-1V9z M148.5,13.6h0.9c1.6,0,3.2-0.5,3.2-2.1c0-1.8-2-1.8-2.7-1.8h-1.3V13.6z"/>
			<path class="st33" d="M167.7,13.6c1.2,0.6,2.4,1.2,2.4,2.7c0,2.1-1.9,2.8-3.9,2.8c-1.3,0-2.1-0.2-2.4-0.2V18
				c0.4,0.1,1.1,0.3,2.6,0.3c1.3,0,2.6-0.7,2.6-1.8c0-1.3-1.3-1.7-2-2.1l-0.9-0.4c-1-0.5-2.4-1.1-2.4-2.6c0-0.4,0.2-2.5,3.4-2.5
				c0.9,0,1.9,0.2,2.3,0.2V10c-0.4-0.1-1.2-0.3-2.3-0.3c-1.7,0-2.5,0.7-2.5,1.6c0,0.9,1.1,1.4,2,1.9L167.7,13.6z"/>
			<rect x="180.4" y="9" class="st33" width="1" height="10"/>
			<polygon class="st33" points="193.7,9.8 191.1,9.8 191.1,9 197.4,9 197.4,9.8 194.7,9.8 194.7,18.9 193.7,18.9 			"/>
			<polygon class="st33" points="209.1,14.4 205.7,9 206.7,9 209.6,13.5 212.5,9 213.6,9 210.1,14.4 210.1,18.9 209.1,18.9 			"/>
			<path class="st33" d="M234.8,14c0-2.4,0.8-5.1,3.9-5.1c3.1,0,3.8,2.8,3.8,5.1c0,2.4-0.7,5.1-3.8,5.1
				C235.6,19.1,234.8,16.3,234.8,14z M238.6,18.3c2.4,0,2.8-2.6,2.8-4.4c0-1.8-0.4-4.3-2.8-4.3c-2.4,0-2.8,2.5-2.8,4.3
				C235.9,15.7,236.2,18.3,238.6,18.3z"/>
			<polygon class="st33" points="253,9 258.2,9 258.2,9.8 254,9.8 254,13.3 258,13.3 258,14.1 254,14.1 254,18.9 253,18.9 			"/>
			<g class="st34">
				<defs>
					<rect id="SVGID_61_" x="5.5" y="2.3" width="268.9" height="61.9"/>
				</defs>
				<clipPath id="SVGID_62_">
					<use xlink:href="#SVGID_61_"  style="overflow:visible;"/>
				</clipPath>
				<rect x="53.5" y="23.8" class="st35" width="221" height="0.6"/>
				<path class="st35" d="M45.8,3.5c0,0-7.6-1.2-19.8-1.2h0C13.8,2.3,6.2,3.5,6.2,3.5s-4.1,30.3,7.8,48.4c4.1,6.2,11.9,12.2,12,12.2
					h0h0l0,0h0l0,0h0c0,0,7.9-6.1,12-12.2C49.9,33.8,45.8,3.5,45.8,3.5z"/>
			</g>
			<path class="st36" d="M8.9,10.5c0,0.1,0.1,0.2,0.1,0.2c0.2-0.4,0.8-0.4,1.1-0.4C9.8,10.3,9.3,10.3,8.9,10.5z"/>
			<path class="st36" d="M10.2,11.7C10.2,11.7,10.2,11.7,10.2,11.7C10.2,11.7,10.2,11.7,10.2,11.7C10.2,11.7,10.2,11.7,10.2,11.7
				c0.1,0,0.1,0,0.1,0c0,0,0,0,0,0c-0.2-0.1-0.4-0.1-0.4-0.1c0,0,0,0-0.1,0C9.9,11.6,10,11.7,10.2,11.7
				C10.1,11.7,10.1,11.7,10.2,11.7z M9.7,13.2C9.7,13.2,9.7,13.2,9.7,13.2C9.6,13.2,9.6,13.2,9.7,13.2C9.6,13.2,9.6,13.2,9.7,13.2
				C9.6,13.2,9.6,13.2,9.7,13.2C9.6,13.2,9.6,13.2,9.7,13.2c-0.1,0-0.1,0-0.1,0c0,0,0,0,0,0h0c0,0,0,0,0,0.1
				C9.6,13.2,9.7,13.2,9.7,13.2C9.7,13.2,9.7,13.2,9.7,13.2C9.7,13.2,9.7,13.2,9.7,13.2z M14.6,19.7c0.1,0.1,0.2,0.1,0.2,0.2
				c0,0,0,0,0,0c0,0,0.1,0.1,0.1,0.1c0,0,0.1,0.1,0.1,0.1c0,0,0,0,0,0c0.1,0.1,0.2,0.3,0.2,0.5V20c-0.1-0.1-0.2-0.2-0.3-0.3
				L14.6,19.7z M18.9,15.5l0.5,1.9c0,0-0.1,0-0.1,0c0,0,0,0,0,0c0,0-0.1,0-0.1,0c0,0,0,0,0,0c0,0-0.1,0-0.1,0c0,0,0,0-0.1,0
				c0,0,0,0-0.1,0c0,0-0.1,0-0.1,0c0,0,0,0,0,0c-0.1,0-0.3,0-0.4,0c0.1,0,0.2,0,0.3,0c0.4,0,0.7,0,1.1,0l-0.2-0.9L18.9,15.5z
				 M13.2,9.7c0,0-0.3-0.1-0.4-0.1c-0.1,0-0.3-0.1-0.5-0.1c-0.2,0-0.9,0.4-0.9,0.4c0,0,0.5-0.2,0.6-0.2c0.1,0,0.1,0,0.2,0
				c0,0.1,0.1,0.1,0.2,0.1c0.1,0,0.2-0.1,0.3-0.1c0.2,0.1,0.4,0.1,0.5,0C13.2,9.8,13.2,9.8,13.2,9.7z M14.1,13.1
				C14.1,13.2,14.1,13.2,14.1,13.1C14.2,13.2,14.2,13.2,14.1,13.1c0.1,0,0.1,0.1,0.1,0.1c0,0,0,0,0.1,0c0,0,0,0,0,0c0,0,0,0,0.1,0
				c0,0,0,0,0,0c0,0,0.1,0,0.1,0.1c0,0,0,0,0,0l0,0c0,0,0,0,0,0l0,0c0.1,0.1,0.5,0.3,0.9,0.3c-0.4-0.1-0.7-0.3-0.7-0.3
				c-0.4-0.3-0.7-0.3-0.8-0.3C14,13.1,14.1,13.1,14.1,13.1L14.1,13.1z M10.3,12.9C10.3,12.9,10.3,12.9,10.3,12.9
				C10.3,12.8,10.3,12.8,10.3,12.9c-0.2,0.1-0.3,0.2-0.3,0.2c0,0,0,0,0,0c0,0,0,0,0,0c0,0,0,0,0,0c0,0,0,0,0,0c0,0,0,0,0,0
				c0,0,0,0,0,0c0.1,0,0.2,0,0.3-0.1C10.2,13.1,10.3,13,10.3,12.9C10.3,12.9,10.3,12.9,10.3,12.9C10.3,12.9,10.3,12.9,10.3,12.9z
				 M10.7,11.9c0.1-0.2,0.2-0.6,0.2-1l0,0l0-0.4c0,0,0,0,0,0h0l0,0c0,0-0.1-0.2-0.2-0.1c0,0,0.1,0,0.1,0.2c0,0.2,0,0.4,0,0.4
				c0,0.3-0.1,0.7-0.2,1c0,0.1,0.1,0.1,0.2,0.2c0,0,0.1,0.2,0.1,0.3c-0.1,0.2-0.2,0.4-0.2,0.5c0,0,0,0,0,0.1c0,0.1,0.1,0.2,0.1,0.2
				c0,0,0-0.2,0.1-0.2c0.1-0.1,0.2-0.3,0.2-0.5c0.1-0.2,0-0.3-0.1-0.3C10.9,12,10.8,11.9,10.7,11.9z M21.2,14.7l1,1
				c0,0-0.1,0.1-0.1,0.1c0,0,0,0,0,0c0,0-0.1,0.1-0.1,0.1c0,0,0,0,0,0c0,0-0.1,0.1-0.1,0.1c0,0,0,0-0.1,0c0,0,0,0-0.1,0.1
				c0,0,0,0-0.1,0.1c0,0,0,0-0.1,0.1c0,0,0,0-0.1,0.1c0,0,0,0-0.1,0.1c0,0,0,0-0.1,0.1c0,0,0,0-0.1,0c0,0-0.1,0-0.1,0.1c0,0,0,0,0,0
				c0,0-0.1,0-0.1,0.1c0,0,0,0,0,0c0,0-0.1,0-0.1,0.1c0,0,0,0,0,0c-0.3,0.2-0.6,0.3-0.9,0.4c0,0,0,0,0,0l0.1,0.1
				c1-0.3,1.7-0.8,2.4-1.6L21.8,15L21.2,14.7z M24.6,10.1c0,0.2-0.1,0.4-0.1,0.7c0,0,0,0,0,0c0,0,0,0.1,0,0.1c0,0,0,0.1,0,0.1
				c0,0,0,0,0,0.1c0,0,0,0.1,0,0.1c0,0,0,0,0,0c0,0.1,0,0.1,0,0.2c0,0,0,0,0,0c0,0.1,0,0.1,0,0.2c0,0,0,0,0,0c0,0.1,0,0.1-0.1,0.2
				c0,0,0,0,0,0c0,0.1-0.1,0.3-0.1,0.4c0,0,0,0,0,0c-0.1,0.2-0.2,0.4-0.2,0.7l0.3,0c0.6-1.6,0.8-3,0.8-3C24.9,9.9,24.8,10,24.6,10.1
				z M22.4,12.6l1.3,0.6c0,0.1-0.1,0.2-0.1,0.3c-0.3,0.6-0.6,1.2-1,1.8c0,0,0,0,0,0l0.2,0.1c0.5-0.7,0.9-1.4,1.2-2.1l-1.3-0.6
				L22.4,12.6z M16.3,19.6c0,0-0.1,0-0.1,0c0,0,0,0,0,0c0,0-0.1,0-0.1,0c0,0,0,0-0.1,0c-0.6,1.3-0.2,2.9-0.2,2.9c0,0,0.1,0,0.1,0
				c0.9,0.2,1.6,0.6,1.8,0.7c0.1,0,0.2,0,0.2,0c0,0-0.9-0.5-1.8-0.7C16.1,22.6,15.6,20.9,16.3,19.6z M14.2,23.1c0,0-0.1,0-0.1,0
				c0,0,0,0,0,0c0,0-0.1,0-0.1,0c0,0,0,0,0,0c0,0-0.1,0-0.1,0c0,0,0,0,0,0c0,0-0.1,0-0.1,0c0,0,0,0,0,0c0,0-0.1,0-0.1,0c0,0,0,0,0,0
				c0,0-0.1,0-0.1,0.1c0,0,0,0,0,0c-0.1,0-0.2,0.1-0.2,0.1c0,0.1,0,0.1-0.1,0.2c0,0,0.7-0.5,1.3-0.6c1-0.1,1.6,0,2.9,0.1
				C16,23.1,15.3,23,14.2,23.1z"/>
			<path class="st33" d="M12.6,9.8c0,0-0.1,0.1-0.3,0.1c-0.1,0-0.2,0-0.2-0.1c-0.1,0,0,0-0.2,0c-0.1,0-0.6,0.2-0.6,0.2
				c0,0,0.8-0.4,0.9-0.4c0.2,0,0.4,0.1,0.5,0.1c0.1,0,0.4,0.1,0.4,0.1c0,0,0,0-0.1,0.1C13,9.8,12.7,9.8,12.6,9.8z M15.3,20.6
				c0-0.2-0.1-0.3-0.2-0.5c0,0,0,0,0,0c0,0-0.1-0.1-0.1-0.1c0,0-0.1-0.1-0.1-0.1c0,0,0,0,0,0c-0.1-0.1-0.1-0.1-0.2-0.2l0.6,0.2V20.6
				z M24.7,9.8c-2.1,1.5-6.4,1.5-7,1.7c-0.7,0.2-0.5,0.7-0.5,0.7c-0.9,2.5-2.6,1.2-2.6,1.2c-1.3-0.8-1.1,0.1-0.6,1
				c-2-0.3-0.3-3,0.4-3.6c0.8-0.6,1.6-2.2,1.6-2.2C15.7,8.9,15,9.5,13,9c-0.9-0.2-1.5,0.4-1.5,0.4c-3.8-0.3-2.8,1.3-2.8,1.3
				c0.4-0.6,1.5-0.3,1.5-0.3c0,0.2,0.1,0.4,0.3,0.4c0,0.3-0.1,0.6-0.2,0.9c-0.1,0-0.5-0.2-0.6-0.2c-0.3,0-0.3,0.5-0.6,0.6
				c0,0.1,0.2,0.2,0.3,0.2c-0.1,0.2-0.1,0.4-0.1,0.5c0,0.1,0.1,0.2,0.1,0.2c0,0.1,0,0.2,0,0.2c0.1,0,0.2-0.1,0.3-0.1
				c0.1,0,0.2,0,0.3-0.1c0.1,0,0.2-0.1,0.3-0.3c0,0,0.1,0,0.1,0c0.1,0.1,0.1,0.2,0.1,0.2c0,0,0-0.2,0.1-0.2c0.1-0.1,0.2-0.3,0.2-0.5
				c0.1-0.2,0-0.3-0.1-0.3c0,0-0.1-0.1-0.2-0.2c0.1-0.3,0.2-0.6,0.2-1l0,0c0,0,0-0.3,0-0.4c0-0.2-0.1-0.2-0.1-0.2
				c0.1-0.1,0.2,0.1,0.2,0.1l0,0.5c0.2,0,0.3-0.1,0.3-0.1s1.2-0.1,1.4,0.2c0.2,0.3,0.1,1.1-1,3.1c-1.2,2.2,0.1,4.2,1.8,5.1
				c0.6,0.4,1.8,1.5,1.7,3c0,0-2.3,0.5-2.3,1.5c0,0,0.7-0.5,1.3-0.6c1.2-0.1,1.8,0,3.4,0.1c0,0-0.9-0.5-1.9-0.7c0,0-0.4-1.6,0.2-2.9
				c0,0,0,0,0.1,0c0.7-0.2,2,0.6,2,0.6l-0.3-0.8c1.4,0.2,2.1,1.8,2.1,1.8c0-1.4-0.9-2.7-2-3.9c0.2,0,0.3,0,0.4,0.1
				c0.4,0,0.7,0,1.1,0l-0.5-1.9l0.9,1.8c1-0.3,1.7-0.8,2.4-1.6l-1-1l1.3,0.7c0.5-0.7,0.9-1.4,1.2-2.1l-1.3-0.6l1.5,0.2
				C24.5,11.2,24.7,9.8,24.7,9.8z"/>
			<path class="st36" d="M14.4,10.8c-0.7,0.5-2.4,3.3-0.4,3.6c-1.6-0.5,0-3,0.6-3.5c0.8-0.6,1.6-2.2,1.6-2.2C16.2,8.8,16,8.9,15.8,9
				C15.5,9.5,14.9,10.4,14.4,10.8z M18.1,17.4c-0.1,0-0.2,0-0.2,0c0.1,0.1,0.1,0.1,0.2,0.2c0,0,0,0,0,0c0,0.1,0.1,0.1,0.1,0.2
				c0,0,0,0,0,0c0,0.1,0.1,0.1,0.1,0.2c0,0,0,0,0,0c0,0.1,0.1,0.1,0.1,0.2c0,0,0,0,0,0c0,0.1,0.1,0.1,0.1,0.2c0,0,0,0,0,0
				c0,0.1,0.1,0.1,0.1,0.2c0,0,0,0,0,0c0,0.1,0.1,0.1,0.1,0.2c0,0,0,0,0,0c0,0.1,0.1,0.1,0.1,0.2c0,0,0,0,0,0c0,0.1,0.1,0.1,0.1,0.2
				c0,0,0,0,0,0c0,0.1,0.1,0.1,0.1,0.2c0,0,0,0,0,0c0,0.1,0.1,0.1,0.1,0.2c0,0,0,0,0,0c0,0.1,0,0.1,0.1,0.2c0,0,0,0,0,0
				c0,0.1,0,0.1,0.1,0.2c0,0,0,0,0,0.1c0,0.1,0,0.1,0.1,0.2c0,0,0,0,0,0.1c0,0,0,0.1,0,0.1c0,0,0,0.1,0,0.1c0,0,0,0.1,0,0.1
				c0,0,0,0,0,0.1c0.2,0.3,0.3,0.6,0.3,0.6C20.1,20,19.1,18.5,18.1,17.4z M17.8,19.4l0.3,0.7c0.2,0.1,0.3,0.2,0.3,0.2l-0.3-0.8
				C18,19.5,17.9,19.4,17.8,19.4z"/>
			<path class="st36" d="M28,10.5c0,0.1,0.1,0.2,0.1,0.2c0.2-0.4,0.8-0.4,1.1-0.4C28.9,10.3,28.4,10.3,28,10.5z"/>
			<path class="st36" d="M29.3,11.7C29.3,11.7,29.3,11.7,29.3,11.7C29.3,11.7,29.3,11.7,29.3,11.7C29.3,11.7,29.4,11.7,29.3,11.7
				c0.1,0,0.1,0,0.1,0c0,0,0,0,0,0c-0.2-0.1-0.4-0.1-0.4-0.1c0,0,0,0-0.1,0C29,11.6,29.1,11.7,29.3,11.7
				C29.3,11.7,29.3,11.7,29.3,11.7z M28.8,13.2C28.8,13.2,28.8,13.2,28.8,13.2C28.8,13.2,28.8,13.2,28.8,13.2
				C28.7,13.2,28.7,13.2,28.8,13.2C28.7,13.2,28.7,13.2,28.8,13.2C28.7,13.2,28.7,13.2,28.8,13.2c-0.1,0-0.1,0-0.1,0c0,0,0,0,0,0
				l0,0c0,0,0,0,0,0.1C28.7,13.2,28.8,13.2,28.8,13.2C28.8,13.2,28.8,13.2,28.8,13.2C28.8,13.2,28.8,13.2,28.8,13.2z M33.8,19.7
				c0.1,0.1,0.2,0.1,0.2,0.2c0,0,0,0,0,0c0,0,0.1,0.1,0.1,0.1c0,0,0.1,0.1,0.1,0.1c0,0,0,0,0,0c0.1,0.1,0.2,0.3,0.2,0.5V20
				c-0.1-0.1-0.2-0.2-0.3-0.3L33.8,19.7z M38,15.5l0.5,1.9c0,0-0.1,0-0.1,0c0,0,0,0,0,0c0,0-0.1,0-0.1,0c0,0,0,0,0,0
				c0,0-0.1,0-0.1,0c0,0,0,0-0.1,0c0,0,0,0-0.1,0c0,0-0.1,0-0.1,0c0,0,0,0,0,0c-0.1,0-0.3,0-0.4,0c0.1,0,0.2,0,0.3,0
				c0.4,0,0.7,0,1.1,0l-0.2-0.9L38,15.5z M32.3,9.7c0,0-0.3-0.1-0.4-0.1c-0.1,0-0.3-0.1-0.5-0.1c-0.2,0-0.9,0.4-0.9,0.4
				c0,0,0.5-0.2,0.6-0.2c0.1,0,0.1,0,0.2,0c0,0.1,0.1,0.1,0.2,0.1c0.1,0,0.2-0.1,0.3-0.1c0.2,0.1,0.4,0.1,0.5,0
				C32.3,9.8,32.3,9.8,32.3,9.7z M33.2,13.1C33.2,13.2,33.3,13.2,33.2,13.1C33.3,13.2,33.3,13.2,33.2,13.1c0.1,0,0.1,0.1,0.1,0.1
				c0,0,0,0,0.1,0c0,0,0,0,0,0c0,0,0,0,0.1,0c0,0,0,0,0,0c0,0,0.1,0,0.1,0.1c0,0,0,0,0,0l0,0c0,0,0,0,0,0l0,0
				c0.1,0.1,0.5,0.3,0.9,0.3c-0.4-0.1-0.7-0.3-0.7-0.3c-0.4-0.3-0.7-0.3-0.8-0.3C33.1,13.1,33.2,13.1,33.2,13.1L33.2,13.1z
				 M29.4,12.9C29.4,12.9,29.4,12.9,29.4,12.9C29.4,12.8,29.4,12.8,29.4,12.9c-0.2,0.1-0.3,0.2-0.3,0.2c0,0,0,0,0,0c0,0,0,0,0,0
				c0,0,0,0,0,0c0,0,0,0,0,0c0,0,0,0,0,0c0,0,0,0,0,0c0.1,0,0.2,0,0.3-0.1C29.3,13.1,29.4,13,29.4,12.9
				C29.5,12.9,29.5,12.9,29.4,12.9C29.4,12.9,29.4,12.9,29.4,12.9z M29.9,11.9c0.1-0.2,0.2-0.6,0.2-1l0,0l0-0.4c0,0,0,0,0,0h0v0
				c0,0-0.1-0.2-0.2-0.1c0,0,0.1,0,0.1,0.2c0,0.2,0,0.4,0,0.4c0,0.3-0.1,0.7-0.2,1c0,0.1,0.1,0.1,0.2,0.2c0,0,0.1,0.2,0.1,0.3
				c-0.1,0.2-0.2,0.4-0.2,0.5c0,0,0,0,0,0.1c0,0.1,0.1,0.2,0.1,0.2c0,0,0-0.2,0.1-0.2c0.1-0.1,0.2-0.3,0.2-0.5
				c0.1-0.2,0-0.3-0.1-0.3C30,12,29.9,11.9,29.9,11.9z M40.3,14.7l1,1c0,0-0.1,0.1-0.1,0.1c0,0,0,0,0,0c0,0-0.1,0.1-0.1,0.1
				c0,0,0,0,0,0c0,0-0.1,0.1-0.1,0.1c0,0,0,0-0.1,0c0,0,0,0-0.1,0.1c0,0,0,0-0.1,0.1c0,0,0,0-0.1,0.1c0,0,0,0-0.1,0.1
				c0,0,0,0-0.1,0.1c0,0,0,0-0.1,0.1c0,0,0,0-0.1,0c0,0-0.1,0-0.1,0.1c0,0,0,0,0,0c0,0-0.1,0-0.1,0.1c0,0,0,0,0,0c0,0-0.1,0-0.1,0.1
				c0,0,0,0,0,0c-0.3,0.2-0.6,0.3-0.9,0.4c0,0,0,0,0,0l0.1,0.1c1-0.3,1.7-0.8,2.4-1.6L40.9,15L40.3,14.7z M43.8,10.1
				c0,0.2-0.1,0.4-0.1,0.7c0,0,0,0,0,0c0,0,0,0.1,0,0.1c0,0,0,0.1,0,0.1c0,0,0,0,0,0.1c0,0,0,0.1,0,0.1c0,0,0,0,0,0
				c0,0.1,0,0.1,0,0.2c0,0,0,0,0,0c0,0.1,0,0.1,0,0.2c0,0,0,0,0,0c0,0.1,0,0.1-0.1,0.2c0,0,0,0,0,0c0,0.1-0.1,0.3-0.1,0.4
				c0,0,0,0,0,0c-0.1,0.2-0.2,0.4-0.2,0.7l0.3,0c0.6-1.6,0.8-3,0.8-3C44,9.9,43.9,10,43.8,10.1z M41.5,12.6l1.3,0.6
				c0,0.1-0.1,0.2-0.1,0.3c-0.3,0.6-0.6,1.2-1,1.8c0,0,0,0,0,0l0.2,0.1c0.5-0.7,0.9-1.4,1.2-2.1l-1.3-0.6L41.5,12.6z M35.4,19.6
				c0,0-0.1,0-0.1,0c0,0,0,0,0,0c0,0-0.1,0-0.1,0c0,0,0,0-0.1,0c-0.6,1.3-0.2,2.9-0.2,2.9c0,0,0.1,0,0.1,0c0.9,0.2,1.6,0.6,1.8,0.7
				c0.1,0,0.2,0,0.2,0c0,0-0.9-0.5-1.8-0.7C35.2,22.6,34.8,20.9,35.4,19.6z M33.4,23.1c0,0-0.1,0-0.1,0c0,0,0,0,0,0c0,0-0.1,0-0.1,0
				c0,0,0,0,0,0c0,0-0.1,0-0.1,0c0,0,0,0,0,0c0,0-0.1,0-0.1,0c0,0,0,0,0,0c0,0-0.1,0-0.1,0c0,0,0,0,0,0c0,0-0.1,0-0.1,0.1
				c0,0,0,0,0,0c-0.1,0-0.2,0.1-0.2,0.1c0,0.1,0,0.1-0.1,0.2c0,0,0.7-0.5,1.3-0.6c1-0.1,1.6,0,2.9,0.1C35.1,23.1,34.5,23,33.4,23.1z
				"/>
			<path class="st37" d="M31.7,9.8c0,0-0.1,0.1-0.3,0.1c-0.1,0-0.2,0-0.2-0.1c-0.1,0,0,0-0.2,0c-0.1,0-0.6,0.2-0.6,0.2
				c0,0,0.8-0.4,0.9-0.4c0.2,0,0.4,0.1,0.5,0.1c0.1,0,0.4,0.1,0.4,0.1c0,0,0,0-0.1,0.1C32.1,9.8,31.8,9.8,31.7,9.8z M34.4,20.6
				c0-0.2-0.1-0.3-0.2-0.5c0,0,0,0,0,0c0,0-0.1-0.1-0.1-0.1c0,0-0.1-0.1-0.1-0.1c0,0,0,0,0,0c-0.1-0.1-0.1-0.1-0.2-0.2l0.6,0.2V20.6
				z"/>
			<path class="st36" d="M33.5,10.8c-0.7,0.5-2.4,3.3-0.4,3.6c-1.6-0.5,0-3,0.6-3.5c0.8-0.6,1.6-2.2,1.6-2.2
				c-0.1,0.1-0.3,0.2-0.4,0.3C34.6,9.5,34,10.4,33.5,10.8z M37.2,17.4c-0.1,0-0.2,0-0.2,0c0.1,0.1,0.1,0.1,0.2,0.2c0,0,0,0,0,0
				c0,0.1,0.1,0.1,0.1,0.2c0,0,0,0,0,0c0,0.1,0.1,0.1,0.1,0.2c0,0,0,0,0,0c0,0.1,0.1,0.1,0.1,0.2c0,0,0,0,0,0c0,0.1,0.1,0.1,0.1,0.2
				c0,0,0,0,0,0c0,0.1,0.1,0.1,0.1,0.2c0,0,0,0,0,0c0,0.1,0.1,0.1,0.1,0.2c0,0,0,0,0,0c0,0.1,0.1,0.1,0.1,0.2c0,0,0,0,0,0
				c0,0.1,0.1,0.1,0.1,0.2c0,0,0,0,0,0c0,0.1,0.1,0.1,0.1,0.2c0,0,0,0,0,0c0,0.1,0.1,0.1,0.1,0.2c0,0,0,0,0,0c0,0.1,0.1,0.1,0.1,0.2
				c0,0,0,0,0,0c0,0.1,0,0.1,0.1,0.2c0,0,0,0,0,0.1c0,0.1,0,0.1,0.1,0.2c0,0,0,0,0,0.1c0,0,0,0.1,0,0.1c0,0,0,0.1,0,0.1
				c0,0,0,0.1,0,0.1c0,0,0,0,0,0.1c0.2,0.3,0.3,0.6,0.3,0.6C39.2,20,38.3,18.5,37.2,17.4z M36.9,19.4l0.3,0.7
				c0.2,0.1,0.3,0.2,0.3,0.2l-0.3-0.8C37.1,19.5,37,19.4,36.9,19.4z"/>
			<path class="st36" d="M16.9,41.6c0,0.2,0.1,0.3,0.1,0.3c0.3-0.5,0.9-0.5,1.4-0.5C18.1,41.4,17.4,41.3,16.9,41.6z"/>
			<path class="st36" d="M18.5,43.1C18.5,43.1,18.5,43.1,18.5,43.1C18.6,43.1,18.6,43.1,18.5,43.1c0.1,0,0.1,0,0.1,0c0,0,0,0,0.1,0
				c0,0,0,0,0-0.1c-0.2-0.1-0.5-0.2-0.6-0.1c0,0-0.1,0-0.1,0C18.2,43,18.4,43.1,18.5,43.1C18.5,43.1,18.5,43.1,18.5,43.1z M17.9,45
				C17.9,45,17.9,45,17.9,45C17.9,44.9,17.9,44.9,17.9,45C17.8,44.9,17.8,44.9,17.9,45c-0.1,0-0.1,0-0.1,0c0,0,0,0,0,0c0,0,0,0,0,0
				c0,0,0,0,0,0c0,0,0,0,0,0c0,0,0,0.1,0,0.1C17.8,45,17.9,45,17.9,45C18,45,17.9,45,17.9,45C17.9,45,17.9,45,17.9,45z M24.1,53.1
				c0.1,0.1,0.2,0.2,0.3,0.2c0,0,0,0,0,0c0,0,0.1,0.1,0.1,0.1c0,0,0.1,0.1,0.1,0.1c0,0,0,0,0,0c0.1,0.2,0.2,0.4,0.2,0.6v-0.7
				c-0.1-0.2-0.3-0.3-0.4-0.4L24.1,53.1z M29.5,47.8l0.6,2.4c-0.1,0-0.1,0-0.2,0c0,0,0,0,0,0c0,0-0.1,0-0.1,0c0,0,0,0,0,0
				c0,0-0.1,0-0.1,0c0,0-0.1,0-0.1,0c0,0,0,0-0.1,0c0,0-0.1,0-0.1,0c0,0,0,0,0,0c-0.2,0-0.3,0-0.5,0c0.1,0,0.2,0,0.3,0
				c0.5,0,0.9,0,1.4-0.1l-0.3-1.2L29.5,47.8z M22.3,40.6c0,0-0.4-0.1-0.6-0.1c-0.2,0-0.4-0.1-0.6-0.1c-0.2,0-1.2,0.5-1.2,0.5
				c0,0,0.7-0.2,0.8-0.2c0.1,0,0.1,0,0.2,0c0,0.1,0.1,0.2,0.3,0.2c0.2,0,0.3-0.1,0.3-0.2c0.2,0.1,0.5,0.1,0.6,0
				C22.3,40.7,22.3,40.7,22.3,40.6z M23.5,44.9C23.5,44.9,23.5,44.9,23.5,44.9C23.6,44.9,23.6,45,23.5,44.9c0.1,0.1,0.1,0.1,0.2,0.1
				c0,0,0.1,0,0.1,0c0,0,0,0,0,0c0,0,0.1,0,0.1,0c0,0,0,0,0,0c0,0,0.1,0,0.1,0.1c0,0,0,0,0,0l0,0c0,0,0,0,0,0l0,0
				c0.1,0.1,0.6,0.3,1.1,0.3c-0.5-0.1-0.9-0.3-0.9-0.3c-0.5-0.3-0.9-0.4-1-0.4C23.4,44.9,23.4,44.9,23.5,44.9L23.5,44.9z M18.7,44.6
				C18.7,44.6,18.7,44.5,18.7,44.6c0,0-0.1-0.1-0.1-0.1c-0.1,0.2-0.2,0.3-0.3,0.4c0,0,0,0,0,0c0,0,0,0,0,0c0,0,0,0,0,0c0,0,0,0,0,0
				c0,0,0,0,0,0c0,0,0,0-0.1,0c0.1,0,0.3,0,0.4-0.1C18.6,44.8,18.7,44.7,18.7,44.6C18.7,44.6,18.7,44.6,18.7,44.6
				C18.7,44.6,18.7,44.6,18.7,44.6z M19.2,43.3c0.1-0.3,0.2-0.7,0.3-1.3l0,0l0-0.5c0,0,0,0,0-0.1h0v-0.1c0,0-0.1-0.3-0.3-0.1
				c0,0,0.1,0.1,0.1,0.3c0,0.2,0,0.6,0,0.6c0,0.4-0.1,0.9-0.3,1.2c0.1,0.1,0.2,0.2,0.2,0.2c0,0,0.2,0.2,0.1,0.4
				c-0.1,0.2-0.2,0.5-0.3,0.6c0,0,0,0.1-0.1,0.1c0.1,0.1,0.1,0.2,0.1,0.2c0,0,0.1-0.2,0.1-0.3c0.1-0.1,0.2-0.4,0.3-0.6
				c0.1-0.2-0.1-0.4-0.1-0.4C19.4,43.5,19.3,43.4,19.2,43.3z M32.4,46.8l1.3,1.3c0,0.1-0.1,0.1-0.1,0.2c0,0,0,0,0,0
				c0,0-0.1,0.1-0.1,0.1c0,0,0,0-0.1,0.1c0,0-0.1,0.1-0.1,0.1c0,0,0,0-0.1,0.1c0,0-0.1,0.1-0.1,0.1c0,0-0.1,0-0.1,0.1
				c0,0-0.1,0-0.1,0.1c0,0-0.1,0-0.1,0.1c0,0-0.1,0-0.1,0.1c0,0-0.1,0-0.1,0.1c0,0,0,0-0.1,0.1c0,0-0.1,0.1-0.1,0.1c0,0,0,0-0.1,0
				c0,0-0.1,0.1-0.1,0.1c0,0,0,0,0,0c0,0-0.1,0.1-0.1,0.1c0,0,0,0,0,0c-0.3,0.2-0.7,0.4-1.1,0.5c0,0,0,0,0,0l0.1,0.1
				c1.2-0.3,2.2-1.1,3-2l-0.9-0.9L32.4,46.8z M36.7,41c0,0.2-0.1,0.5-0.2,0.8c0,0,0,0,0,0c0,0.1,0,0.1,0,0.2c0,0,0,0.1,0,0.1
				c0,0,0,0.1,0,0.1c0,0,0,0.1,0,0.1c0,0,0,0,0,0.1c0,0.1,0,0.1-0.1,0.2c0,0,0,0,0,0.1c0,0.1,0,0.1-0.1,0.2c0,0,0,0,0,0
				c0,0.1,0,0.2-0.1,0.2c0,0,0,0,0,0c0,0.2-0.1,0.3-0.2,0.5c0,0,0,0,0,0c-0.1,0.3-0.2,0.5-0.3,0.8l0.3,0.1c0.8-2,1.1-3.8,1.1-3.8
				C37,40.9,36.8,41,36.7,41z M33.9,44.3l1.7,0.7c0,0.1-0.1,0.2-0.1,0.3c-0.3,0.8-0.8,1.5-1.3,2.2c0,0,0,0,0,0l0.3,0.1
				c0.6-0.8,1.1-1.8,1.5-2.7l-1.6-0.7L33.9,44.3z M26.2,53c0,0-0.1,0-0.1,0c0,0,0,0,0,0c0,0-0.1,0-0.1,0c0,0-0.1,0-0.1,0
				c-0.8,1.6-0.2,3.6-0.2,3.6c0,0,0.1,0,0.1,0c1.1,0.2,2.1,0.8,2.2,0.9c0.1,0,0.2,0,0.3,0c0,0-1.1-0.6-2.3-0.9
				C26,56.7,25.4,54.6,26.2,53z M23.7,57.4c-0.1,0-0.1,0-0.2,0c0,0,0,0,0,0c-0.1,0-0.1,0-0.2,0c0,0,0,0,0,0c-0.1,0-0.1,0-0.2,0
				c0,0,0,0,0,0c-0.1,0-0.1,0-0.2,0.1c0,0,0,0,0,0c0,0-0.1,0-0.1,0.1c0,0,0,0,0,0c0,0-0.1,0-0.1,0.1c0,0,0,0,0,0
				c-0.1,0-0.2,0.1-0.3,0.1c0,0.1-0.1,0.2-0.1,0.3c0,0,0.9-0.6,1.7-0.7c1.3-0.1,2,0,3.6,0.1C25.8,57.4,25,57.3,23.7,57.4z"/>
			<path class="st33" d="M21.5,40.7c0,0-0.1,0.2-0.3,0.2c-0.2,0-0.3,0-0.3-0.2c-0.1,0-0.1,0-0.2,0c-0.1,0-0.7,0.2-0.8,0.2
				c0,0,1-0.5,1.2-0.5c0.3,0,0.5,0.1,0.6,0.1c0.2,0,0.5,0.1,0.6,0.1c0,0,0,0.1-0.1,0.1C22,40.7,21.7,40.7,21.5,40.7z M25,54.2
				c0-0.2-0.1-0.4-0.2-0.6c0,0,0,0,0,0c0,0-0.1-0.1-0.1-0.1c0,0-0.1-0.1-0.1-0.1c0,0,0,0,0,0c-0.1-0.1-0.2-0.2-0.3-0.2l0.8,0.2V54.2
				z M36.8,40.7c-2.6,1.9-8,1.9-8.8,2.1c-0.9,0.2-0.6,0.8-0.6,0.8c-1.2,3.1-3.3,1.6-3.3,1.6c-1.6-1-1.3,0.1-0.7,1.3
				c-2.5-0.3-0.4-3.8,0.5-4.5c0.9-0.7,2-2.7,2-2.7c-0.3,0.3-1.2,1-3.7,0.5c-1.1-0.2-1.9,0.5-1.9,0.5c-4.8-0.4-3.6,1.7-3.6,1.7
				c0.5-0.8,1.9-0.4,1.9-0.4c0,0.3,0.2,0.4,0.3,0.5c0,0.3-0.1,0.8-0.3,1.2c-0.2,0-0.6-0.2-0.7-0.2c-0.4,0.1-0.3,0.6-0.7,0.8
				c0,0.1,0.2,0.2,0.4,0.3c-0.2,0.2-0.2,0.5-0.2,0.6c0,0.2,0.1,0.2,0.1,0.3c0,0.1,0,0.2,0,0.2c0.1,0,0.2-0.1,0.3-0.1
				c0.1,0,0.3,0,0.4-0.1c0.1,0,0.2-0.2,0.3-0.4c0,0,0.1,0,0.1,0.1c0.1,0.1,0.2,0.3,0.2,0.3c0,0,0.1-0.2,0.1-0.3
				c0.1-0.1,0.2-0.4,0.3-0.6c0.1-0.2-0.1-0.4-0.1-0.4c-0.1-0.1-0.2-0.1-0.2-0.2c0.1-0.4,0.2-0.8,0.3-1.2l0,0c0,0,0-0.4,0-0.6
				c0-0.2-0.1-0.3-0.1-0.3c0.2-0.1,0.3,0.1,0.3,0.1l0,0.7C19.8,42,20,42,20,42s1.5-0.2,1.8,0.2c0.2,0.4,0.1,1.4-1.2,3.9
				c-1.5,2.7,0.1,5.3,2.3,6.5c0.7,0.5,2.3,1.9,2.1,3.8c0,0-2.8,0.6-2.9,1.8c0,0,0.9-0.6,1.7-0.7c1.5-0.1,2.2,0,4.3,0.2
				c0,0-1.1-0.7-2.4-0.9c0,0-0.5-2.1,0.2-3.6c0,0,0.1,0,0.1,0c0.9-0.2,2.6,0.7,2.6,0.7l-0.4-1c1.7,0.3,2.6,2.3,2.6,2.3
				c-0.1-1.7-1.2-3.4-2.5-4.9c0.2,0,0.4,0.1,0.6,0.1c0.5,0,0.9,0,1.4-0.1l-0.6-2.4l1.2,2.2c1.2-0.3,2.2-1.1,3-2l-1.3-1.3l1.6,0.9
				c0.6-0.8,1.1-1.8,1.5-2.7l-1.7-0.7l1.8,0.3C36.5,42.5,36.8,40.7,36.8,40.7z"/>
			<path class="st36" d="M23.8,42c-0.9,0.7-3,4.2-0.5,4.5c-2-0.6-0.1-3.8,0.8-4.5c0.9-0.7,2-2.7,2-2.7c-0.1,0.1-0.3,0.2-0.6,0.3
				C25.2,40.3,24.5,41.5,23.8,42z M28.5,50.2c-0.1,0-0.2,0-0.3,0c0.1,0.1,0.1,0.1,0.2,0.2c0,0,0,0,0,0c0.1,0.1,0.1,0.1,0.2,0.2
				c0,0,0,0,0,0c0.1,0.1,0.1,0.1,0.2,0.2c0,0,0,0,0,0c0.1,0.1,0.1,0.2,0.2,0.2c0,0,0,0,0,0c0.1,0.1,0.1,0.2,0.2,0.2c0,0,0,0,0,0
				c0.1,0.1,0.1,0.2,0.2,0.2c0,0,0,0,0,0c0.1,0.1,0.1,0.2,0.2,0.2c0,0,0,0,0,0c0.1,0.1,0.1,0.2,0.2,0.2c0,0,0,0,0,0
				c0,0.1,0.1,0.2,0.1,0.2c0,0,0,0,0,0c0,0.1,0.1,0.2,0.1,0.2c0,0,0,0,0,0c0,0.1,0.1,0.2,0.1,0.2c0,0,0,0,0,0c0,0.1,0.1,0.1,0.1,0.2
				c0,0,0,0,0,0.1c0,0.1,0.1,0.1,0.1,0.2c0,0,0,0.1,0,0.1c0,0.1,0,0.1,0.1,0.2c0,0,0,0.1,0,0.1c0,0.1,0,0.1,0,0.2c0,0,0,0.1,0,0.1
				c0,0.1,0,0.1,0,0.2c0,0,0,0,0,0.1c0.3,0.4,0.4,0.8,0.4,0.8C31,53.5,29.8,51.7,28.5,50.2z M28.1,52.8l0.3,0.9
				c0.2,0.1,0.4,0.2,0.4,0.2l-0.4-1C28.4,52.8,28.3,52.8,28.1,52.8z"/>
			<g class="st38">
				<defs>
					<path id="SVGID_63_" d="M20.4,33.5c0,0-0.1,0-0.2,0c-0.1,0-0.2,0-0.2,0c-2.2-0.2-4.2,0.5-5.2,1l-0.3,0.8c0,0,6.2-4,10.9,1.1
						C25.4,36.4,23.7,34.1,20.4,33.5z"/>
				</defs>
				<clipPath id="SVGID_64_" class="st1">
					<use xlink:href="#SVGID_63_"  style="overflow:visible;"/>
				</clipPath>
				<g class="st39">
					<defs>
						<rect id="SVGID_65_" x="14.5" y="31.2" width="10.9" height="5.2"/>
					</defs>
					<clipPath id="SVGID_66_">
						<use xlink:href="#SVGID_65_"  style="overflow:visible;"/>
					</clipPath>
					<g class="st40">
						<g>
							<defs>
								<rect id="SVGID_67_" x="14.7" y="31.2" width="10.9" height="5.2"/>
							</defs>
							<clipPath id="SVGID_68_">
								<use xlink:href="#SVGID_67_"  style="overflow:visible;"/>
							</clipPath>
							<g class="st41">
								<defs>
									<rect id="SVGID_69_" x="14.7" y="31.2" width="10.9" height="5.2"/>
								</defs>
								<clipPath id="SVGID_70_">
									<use xlink:href="#SVGID_69_"  style="overflow:visible;"/>
								</clipPath>
								
									<linearGradient id="SVGID_71_" gradientUnits="userSpaceOnUse" x1="-1.5629" y1="-4.2814" x2="-0.5629" y2="-4.2814" gradientTransform="matrix(10.9105 0 0 -10.9101 31.7301 -11.8395)">
									<stop  offset="0" style="stop-color:#FFFFFF"/>
									<stop  offset="0.1425" style="stop-color:#EBE9F3"/>
									<stop  offset="0.4422" style="stop-color:#B7B3D2"/>
									<stop  offset="0.8713" style="stop-color:#65659D"/>
									<stop  offset="0.9382" style="stop-color:#585A96"/>
									<stop  offset="1" style="stop-color:#585A96"/>
								</linearGradient>
								<rect x="14.7" y="31.2" class="st42" width="10.9" height="5.2"/>
							</g>
						</g>
					</g>
				</g>
			</g>
			<g class="st38">
				<defs>
					<path id="SVGID_72_" d="M36.3,34.6c-1-0.5-3.2-1.2-5.6-0.9c3.2-0.2,5.9,1.6,5.9,1.6L36.3,34.6z"/>
				</defs>
				<clipPath id="SVGID_73_" class="st1">
					<use xlink:href="#SVGID_72_"  style="overflow:visible;"/>
				</clipPath>
				<g class="st43">
					<defs>
						<rect id="SVGID_74_" x="30.7" y="33.4" width="5.9" height="1.9"/>
					</defs>
					<clipPath id="SVGID_75_">
						<use xlink:href="#SVGID_74_"  style="overflow:visible;"/>
					</clipPath>
					<g class="st44">
						<g>
							<defs>
								<rect id="SVGID_76_" x="30.8" y="33.5" width="5.9" height="1.9"/>
							</defs>
							<clipPath id="SVGID_77_">
								<use xlink:href="#SVGID_76_"  style="overflow:visible;"/>
							</clipPath>
							<g class="st45">
								<defs>
									<rect id="SVGID_78_" x="30.8" y="33.5" width="5.9" height="1.9"/>
								</defs>
								<clipPath id="SVGID_79_">
									<use xlink:href="#SVGID_78_"  style="overflow:visible;"/>
								</clipPath>
								
									<linearGradient id="SVGID_80_" gradientUnits="userSpaceOnUse" x1="-1.5629" y1="-4.2814" x2="-0.5629" y2="-4.2814" gradientTransform="matrix(5.8524 0 0 -5.8522 39.9478 9.573)">
									<stop  offset="0" style="stop-color:#585A96"/>
									<stop  offset="9.550000e-02" style="stop-color:#585A96"/>
									<stop  offset="0.2082" style="stop-color:#66669E"/>
									<stop  offset="0.4304" style="stop-color:#8B88B5"/>
									<stop  offset="0.7373" style="stop-color:#C7C4DC"/>
									<stop  offset="1" style="stop-color:#FFFFFF"/>
								</linearGradient>
								<rect x="30.8" y="33.5" class="st46" width="5.9" height="1.9"/>
							</g>
						</g>
					</g>
				</g>
			</g>
			<g class="st34">
				<defs>
					<path id="SVGID_81_" d="M28.5,34.3c4.2-1.7,8.5,0.7,8.5,0.7l-0.3-0.7C35.5,33.8,32,32.6,28.5,34.3z"/>
				</defs>
				<clipPath id="SVGID_82_">
					<use xlink:href="#SVGID_81_"  style="overflow:visible;"/>
				</clipPath>
			</g>
			<path class="st33" d="M25.4,36.4c-3.9-4.3-8.9-2.2-10.4-1.4l-0.2,0.4l0.3,0.2c0,0,5.2-3.7,9.7,0.9c0.7,0.7,0.8,0.5,1.3,0
				c5.1-4.8,9.5-0.9,9.7-1c0.2,0,0.4-0.2,0.4-0.2L36.1,35c-1.6-0.8-6.5-3-10.5,1.2L25.4,36.4z"/>
			<g class="st34">
				<defs>
					<path id="SVGID_83_" d="M37.1,34.4c0,0-6.6-3.3-11.7,2l0.3-9.7c0,0,5-3.6,8.6,0.2L37.1,34.4z"/>
				</defs>
				<clipPath id="SVGID_84_">
					<use xlink:href="#SVGID_83_"  style="overflow:visible;"/>
				</clipPath>
				<g class="st47">
					<defs>
						<rect id="SVGID_85_" x="25.4" y="23.2" width="11.7" height="13.3"/>
					</defs>
					<clipPath id="SVGID_86_">
						<use xlink:href="#SVGID_85_"  style="overflow:visible;"/>
					</clipPath>
					<g class="st48">
					</g>
				</g>
			</g>
			<path class="st36" d="M18.1,29.1l0.1,0c0.2,0,0.3-0.1,0.3-0.4l0.1,0c0,0.2-0.1,0.3-0.1,0.5c0,0.2,0,0.3-0.1,0.5l-0.1,0
				c0-0.2,0-0.4-0.2-0.4l-0.1,0l-0.2,0.7c-0.1,0.3,0,0.3,0.3,0.2l0,0.1c-0.2,0-0.5,0.1-0.7,0.1c-0.2,0-0.3,0.1-0.7,0.1l0.1-0.1
				c0.4-0.1,0.4-0.2,0.5-0.5l0.4-1.2c0.1-0.3,0.1-0.5-0.2-0.4l0-0.1c0.2,0,0.5-0.1,0.8-0.1c0.4-0.1,0.7-0.2,1.1-0.3l-0.1,0.6l-0.2,0
				c0-0.4-0.1-0.4-0.5-0.3c-0.3,0.1-0.3,0.1-0.4,0.4L18.1,29.1z"/>
			<path class="st36" d="M20,28.4c0.1-0.3,0.1-0.4-0.2-0.4l0-0.2c0.2,0,0.3,0,0.5-0.1c0.2,0,0.3-0.1,0.6-0.1l0,0.2
				c-0.3,0-0.4,0.1-0.4,0.4l-0.3,1.2c-0.1,0.4-0.1,0.5,0.2,0.5l0,0.1c-0.2,0-0.4,0-0.6,0c-0.2,0-0.4,0-0.6,0.1l0-0.1
				c0.3,0,0.4-0.2,0.4-0.5L20,28.4z"/>
			<path class="st36" d="M21.3,29.5c0,0.1-0.1,0.1-0.1,0.3C21.1,30,21.3,30,21.4,30l0,0.1c-0.1,0-0.3,0-0.4,0c-0.1,0-0.2,0-0.4,0
				l0-0.1c0.3,0,0.4-0.3,0.5-0.6c0.3-0.7,0.8-1.7,0.8-1.7l0.3,0c0,0,0.3,1.5,0.4,1.9c0,0.3,0.1,0.3,0.1,0.5c0,0.1,0.1,0.2,0.2,0.2
				l0,0.1c-0.2-0.1-0.3-0.1-0.5-0.1c-0.2,0-0.3-0.1-0.5-0.1l0-0.2c0.1,0,0.3,0,0.3-0.2c0-0.1,0-0.2,0-0.3l0-0.2c0,0-0.2,0-0.4-0.1
				c-0.2,0-0.3,0-0.3,0L21.3,29.5z M21.7,29.2c0.2,0,0.3,0,0.3,0l-0.2-0.9l-0.4,0.8C21.5,29.2,21.6,29.2,21.7,29.2z"/>
			<path class="st36" d="M24.6,29.4l-0.1-0.1c0-0.3,0-0.6-0.2-0.7c-0.2-0.1-0.2,0-0.2,0.3l-0.1,1.3c0,0.3,0,0.5,0.2,0.6l0,0.2
				c-0.2-0.1-0.4-0.2-0.5-0.2c-0.2-0.1-0.3-0.1-0.5-0.2l0-0.1c0.3,0.1,0.3,0,0.4-0.4l0.1-1.3c0-0.3,0.1-0.4-0.1-0.5
				c-0.2-0.1-0.3,0.2-0.4,0.5l-0.1,0L23,28c0,0,0.5,0.1,0.9,0.3c0.4,0.2,0.7,0.4,0.7,0.4L24.6,29.4z"/>
			<path class="st36" d="M27.5,30.9c0.3-0.2,0.3-0.3,0.3-0.6L27.7,29c0-0.3,0-0.5-0.3-0.4l0-0.2c0.2-0.1,0.3-0.1,0.5-0.2
				c0.2-0.1,0.4-0.1,0.6-0.2l0,0.2c-0.3,0.1-0.3,0.3-0.2,0.6l0.1,1.1c0,0.4,0.1,0.6,0.4,0.5c0.5-0.1,0.6-0.3,0.7-0.8l0.1,0l0,0.8
				c-0.6,0.1-1.3,0.4-1.4,0.4c-0.2,0.1-0.4,0.2-0.6,0.3L27.5,30.9z"/>
			<path class="st36" d="M29.3,28c0.3,0,0.4,0,0.6,0c0.2,0,0.4,0,0.6,0l0,0.1c-0.3,0-0.3,0.2-0.3,0.5l0.1,0.6c0,0.5,0.2,0.8,0.7,0.8
				c0.5,0,0.5-0.3,0.4-0.7l-0.1-0.5c0-0.1,0-0.3-0.1-0.4c-0.1-0.1-0.1-0.2-0.3-0.2l0-0.1c0.1,0,0.3,0,0.4,0c0.1,0,0.2,0,0.3,0l0,0.1
				c-0.1,0-0.2,0.1-0.2,0.2c0,0.1,0,0.3,0,0.4l0,0.3c0.1,0.7,0.2,1.1-0.7,1.1c-0.5,0-1.1-0.2-1.1-1l-0.1-0.6c0-0.3,0-0.5-0.3-0.5
				L29.3,28z"/>
			<path class="st36" d="M33.8,30.4c0.1,0.2,0.2,0.3,0.4,0.3l0,0.1c-0.2,0-0.3-0.1-0.5-0.1c-0.2,0-0.4,0-0.5-0.1l0-0.1
				c0,0,0.2,0,0.2,0c0,0,0,0,0-0.1c0-0.1-0.1-0.2-0.2-0.3l-0.3-0.5l-0.2,0.3c-0.1,0.1-0.1,0.2-0.1,0.3c0,0.1,0.1,0.2,0.2,0.2l0,0.1
				c-0.2,0-0.3-0.1-0.4-0.1c-0.1,0-0.2,0-0.4-0.1l0-0.1c0.2,0,0.3-0.1,0.4-0.3l0.4-0.6l-0.4-0.7c0-0.1-0.1-0.2-0.2-0.2
				c-0.1-0.1-0.1-0.1-0.2-0.2l0-0.1c0.2,0,0.3,0.1,0.5,0.1c0.2,0,0.3,0,0.5,0.1l0,0.2c-0.1,0-0.2,0-0.2,0.1c0,0.1,0,0.1,0.1,0.2
				l0.2,0.3l0.1-0.2c0.1-0.1,0.1-0.1,0.1-0.2c0.1-0.1-0.1-0.2-0.2-0.2l0-0.1c0.1,0,0.2,0,0.3,0c0.1,0,0.2,0,0.3,0l0,0.1
				c-0.2,0-0.2,0.1-0.3,0.3l-0.3,0.4L33.8,30.4z"/>
		</g>
	</g>
</g>
<g>
</g>
<g>
</g>
<g>
</g>
<g>
</g>
<g>
</g>
<g>
</g>
</svg>
