<?xml version="1.0" encoding="utf-8"?>
<!-- Generator: Adobe Illustrator 25.0.0, SVG Export Plug-In . SVG Version: 6.00 Build 0)  -->
<svg version="1.1"
	 id="svg1252" xmlns:cc="http://creativecommons.org/ns#" xmlns:dc="http://purl.org/dc/elements/1.1/" xmlns:inkscape="http://www.inkscape.org/namespaces/inkscape" xmlns:rdf="http://www.w3.org/1999/02/22-rdf-syntax-ns#" xmlns:sodipodi="http://sodipodi.sourceforge.net/DTD/sodipodi-0.dtd" xmlns:svg="http://www.w3.org/2000/svg"
	 xmlns="http://www.w3.org/2000/svg" xmlns:xlink="http://www.w3.org/1999/xlink" x="0px" y="0px" viewBox="0 0 112.5 112.5"
	 style="enable-background:new 0 0 112.5 112.5;" xml:space="preserve">
<style type="text/css">
	.st0{fill:#FFFFFF;}
</style>
<g id="layer1" transform="translate(-70.870535,-104.80655)" inkscape:groupmode="layer" inkscape:label="Layer 1">
	<g id="g402" transform="matrix(0.99132009,0,0,-0.99132009,92.356407,120.08874)">
		<path id="path400" inkscape:connector-curvature="0" class="st0" d="M39.8-28.3c-0.1,0-0.1,0.1-0.1,0.2c0.2,1.1,0.8,3.6,1.3,4.3
			c0.8,1.2,1.7,1.6,2.5,1s0.8-1.5-0.1-2.7C42.9-26.2,40.8-27.6,39.8-28.3C39.9-28.3,39.8-28.3,39.8-28.3 M30.2-28.3
			c-1,0.6-3,2-3.6,2.8c-0.8,1.2-0.9,2.1-0.1,2.7s1.7,0.2,2.5-1c0.5-0.7,1.1-3.2,1.3-4.3C30.3-28.2,30.3-28.2,30.2-28.3
			C30.4-28.3,30.3-28.3,30.2-28.3 M39.8-13.4c-0.1,0-0.1,0.1-0.1,0.2c0.2,1.1,0.8,3.6,1.3,4.3c0.8,1.2,1.7,1.6,2.5,1
			s0.8-1.5-0.1-2.7c-0.5-0.7-2.6-2.1-3.6-2.7C39.9-13.5,39.8-13.5,39.8-13.4 M30.2-13.4c-1,0.6-3,2-3.6,2.7
			c-0.8,1.2-0.9,2.1-0.1,2.7s1.7,0.2,2.5-1C29.5-9.7,30.1-12.2,30.2-13.4c0.1,0,0.1,0,0-0.1C30.4-13.5,30.3-13.5,30.2-13.4
			 M64.9-23.4c-1.1,0.4-3.4,1.4-4,2.1c-1,1-1.2,1.9-0.5,2.7c0.7,0.7,1.6,0.5,2.7-0.5c0.6-0.6,1.6-2.9,2.1-4c0-0.1,0-0.1,0-0.2
			C65-23.4,65-23.4,64.9-23.4 M73.8-23.9c0,0.1-0.1,0.1,0,0.2c0.5,1.1,1.7,3.6,2.4,4.2c1.1,1.1,2.1,1.3,2.9,0.5
			c0.7-0.8,0.5-1.8-0.7-2.8c-0.7-0.7-3.2-1.6-4.4-2.1C73.9-24,73.8-24,73.8-23.9 M69.3-13.6c-0.1,0-0.1,0-0.2,0.1
			c-0.5,1.2-1.5,3.7-1.5,4.6c0,1.5,0.5,2.4,1.6,2.4s1.6-0.9,1.6-2.4c0-1-1-3.5-1.5-4.6C69.4-13.5,69.4-13.6,69.3-13.6 M5.3-23.4
			c1.1,0.4,3.4,1.4,4,2.1c1,1,1.3,1.9,0.5,2.7c-0.7,0.7-1.6,0.5-2.7-0.5c-0.6-0.6-1.6-2.9-2.1-4c0-0.1,0-0.1,0-0.2
			C5.1-23.4,5.2-23.4,5.3-23.4 M-3.6-23.9c0.1,0.1,0.1,0.1,0,0.2c-0.5,1.1-1.7,3.6-2.4,4.2c-1.1,1.1-2.1,1.3-2.9,0.5
			c-0.7-0.8-0.5-1.8,0.7-2.8c0.7-0.7,3.2-1.6,4.4-2.1C-3.7-24-3.6-24-3.6-23.9 M0.9-13.6c0.1,0,0.1,0,0.2,0.1
			c0.5,1.2,1.5,3.7,1.5,4.6c0,1.5-0.5,2.4-1.6,2.4s-1.6-0.9-1.6-2.4c0-1,1-3.5,1.5-4.6C0.7-13.5,0.8-13.6,0.9-13.6 M34.9,0.1
			c-0.5,1.1-1.4,3.6-1.4,4.5C33.5,6.1,34,7,35.1,7s1.6-0.9,1.6-2.4c0-0.9-1-3.4-1.4-4.5C35.2,0,35.1,0,35.1,0C35,0,34.9,0,34.9,0.1
			 M33.7-15.2L33.7-15.2L33.7-15.2z M36.5-15.2L36.5-15.2L36.5-15.2L36.5-15.2z M39.2-15.6L39.2-15.6L39.2-15.6z M31-15.7L31-15.7
			L31-15.7L31-15.7z M34.7-93.5c-0.1,6.4-0.1,15.7-0.2,24.8c-3.1-1.1-5.2-4.7-5.5-10.6c-0.2-4.1,0.5-8.2,1.9-11.7
			c0.2-0.5,0.6-1.3,0.4-1.4s-0.7,0.6-0.9,1.1c-1.4,2.9-2.4,7-2.3,12.2c0.1,5.5,2.1,10.7,6.5,11.8c0,1.7,0,3.4,0,5
			c-4.8-1.1-8.8-5-10.4-11.3c-1.1-4.4-1-8.8,0.4-12.5c0.2-0.5,0.4-1.3,0.2-1.4c-0.2-0.1-0.6,0.8-0.8,1.2c-1.3,3.1-1.8,7.5-0.6,13
			c1.2,5.9,5,11.4,11.2,12.5c0,1.8,0,3.5,0,5.2c-6.8-1.7-12.2-5.6-14.7-13.9c-1.5-4.9-1.3-9.5,0.3-13.6c0.2-0.5,0.4-1.3,0.2-1.4
			c-0.2-0.1-0.5,0.7-0.7,1.2c-1.7,3.8-1.9,8.9-0.6,14.1c1.7,6.9,6.9,13.5,15.6,15.4c0,1.9,0,3.7,0,5.3c-8.2-1.9-14-6.1-17.7-13.8
			c-2.3-4.9-3.1-9.6-2.1-14c0.1-0.5,0.4-1.3,0.1-1.4c-0.2-0.1-0.6,0.7-0.7,1.2c-1.3,4-0.5,9.3,1.7,14.7c2.9,6.8,9.4,13.3,18.6,15.1
			c0,1.4,0,2.7,0,3.7c-0.9,0.2-1.8,0.6-2.5,1.3c-13-4.6-23.5-16.4-23.5-30.9c0-4.3,1.8-6.6,6.1-8.6c0,0-0.4-4.8,2.8-7.5
			c3.3-2.7,7.4-2.9,7.5-2.9l0,0C26-96,30.8-98,35-98s9,2,10,6.4l0,0c0,0,4.2,0.3,7.5,2.9c3.3,2.7,2.8,7.4,2.8,7.5
			c4.3,2.1,6.1,4.3,6.1,8.6c0,14.5-10.5,26.3-23.2,30.8c-0.7-0.7-1.6-1.2-2.5-1.3c0-1,0-2.2,0-3.7c9.2-1.8,15.7-8.3,18.6-15.1
			c2.3-5.3,3-10.7,1.7-14.7c-0.2-0.5-0.5-1.3-0.7-1.2c-0.2,0.1,0,0.9,0.1,1.4c1,4.3,0.3,9.1-2.1,14c-3.7,7.7-9.4,11.9-17.7,13.8
			c0-1.6,0-3.4,0-5.3c8.6-1.8,13.9-8.5,15.6-15.4c1.3-5.2,1.1-10.3-0.6-14.1c-0.2-0.5-0.5-1.3-0.7-1.2c-0.2,0.1,0,0.9,0.2,1.4
			c1.6,4.1,1.7,8.8,0.3,13.6c-2.5,8.3-7.9,12.2-14.7,13.9c0-1.6,0-3.4,0-5.2c6.2-1.1,10-6.7,11.2-12.5c1.2-5.5,0.7-9.9-0.6-13
			c-0.2-0.5-0.6-1.3-0.8-1.2c-0.2,0.1,0,0.9,0.2,1.4c1.4,3.7,1.5,8.1,0.4,12.5c-1.6,6.4-5.6,10.2-10.4,11.3c0-1.6,0-3.3,0-5
			c4.4-1.1,6.3-6.3,6.5-11.8c0.1-5.2-0.9-9.3-2.3-12.2c-0.2-0.5-0.7-1.2-0.9-1.1s0.2,0.9,0.4,1.4c1.4,3.5,2.1,7.5,1.9,11.7
			c-0.3,5.9-2.4,9.5-5.5,10.6c-0.1-9-0.1-18.3-0.2-24.8c0-2-0.1-2.4-0.4-2.4C34.9-95.8,34.7-95.5,34.7-93.5 M43.3-39.3
			c-1.6,0.2-2.7,0.3-3.9,0.3c0-0.6-0.1-1.2-0.4-1.7c1.7-0.6,3.4-1.4,5-2.3C43.6-41.5,43.3-39.9,43.3-39.3 M50.8-47.5
			c-0.5,1.4-0.7,2.8-0.7,4.1s0.3,2.2,0.4,2.5c-2.2,0.8-3.8,1.1-5.7,1.4c0-0.6,0.1-3,0.8-4.3C47.4-44.9,49.2-46.1,50.8-47.5
			 M26.1-42.9c1.6,0.9,3.3,1.6,5,2.3c-0.2,0.5-0.4,1.1-0.4,1.7c-1.1,0-2.3-0.1-3.9-0.3C26.8-39.9,26.6-41.5,26.1-42.9 M52.2-48.9
			c6.3-6.1,10.5-14.5,10.5-23.9l0.6-0.1c0.9-0.2,1.9-0.4,2.8-0.4c1.8,0,4.1,1.3,4.2,1.3l0,0l0,0c2.1-0.8,7.2-2.5,12,1.4
			c4.7,3.9,3.6,9.7,3.5,9.8l0,0l0,0c3.9,0.5,5.8,4.1,5.8,8.1c0,3.9-0.7,5.6-4.1,7.9c1,2,1.2,3.5,0.6,5.7c-1.6,7-14,13.3-29.6,12.6
			c-5.6-0.2-10.5-1.8-14.8-4.2c-3.4-1.9-5.4-3.9-6.1-4.7c0.7-0.6,1.2-1.3,1.4-2.2c1.1,0,2.4,0,4.4-0.3c0.5,0.5,1.8,1.7,4.4,3.2
			c3.1,1.8,8.3,3.9,14.9,3.7c3-0.1,6.2-0.6,9.3-1.8c2.9-1,5.2-2.3,6.6-3.2c3.2-2,5.1-4,5.6-4.6l0,0c0.1-0.1,0.3-0.4,0.6-0.8
			c0.5-0.7,0.4-0.8,0.4-0.8s0,0-0.1,0c-0.3,0-1.3,1.1-1.4,1.1c-0.1,0.1-8.1,8.6-20.7,8.9c-10.2,0.2-15.8-4-17.8-5.9
			c1.8-0.3,3.5-0.8,5.7-1.5c0.2,0.1,2.1,1.3,5.1,2.3c1.7,0.5,3.4,0.9,5,1c2.1,0.2,4,0.1,6.1-0.4c2.9-0.7,5.3-1.6,7.8-3
			c1.9-1.1,4.2-2.7,6-4.2c2.8-2.4,4.4-4.8,4.9-5.5l0,0c0.1-0.1,0.3-0.5,0.6-1c0.5-0.9,0.4-1,0.4-1s0,0-0.1,0c-0.3,0-0.7,0.6-0.7,0.6
			c-0.3,0.5-6.6,10.1-18.5,13c-3.2,0.8-6.3,0.6-9.6-0.2c-2.7-0.7-4.7-1.7-5.4-2.1c2.1-0.8,3.5-1.5,5.5-2.6c0.2,0.1,1.1,0.6,2.6,1
			c1.7,0.4,3.5,0.5,5.3,0.2s3.6-0.8,5.2-1.5s3.2-1.6,4.6-2.7c2.8-2.2,5.4-5.3,7.6-9.2c0.1-0.1,0.2-0.6,0.4-1c0.3-0.9,0.2-1,0.1-1
			c0,0,0,0-0.1,0s-0.5,0.6-1.1,1.6l0,0c-4.3,7.6-9.5,11.7-16.5,12.7C62.5-42,60-43,59.3-43.4c1.9-1.1,3.3-2.1,5.1-3.7
			c1.2,0.3,2.5,0.2,3.8-0.1c2.2-0.6,4.5-1.9,6.7-4.1c2.5-2.4,4.4-5.4,5.6-8.7c0.9-2.6,1-4.4,1-4.4s0-1.5-0.2-1.5h-0.1
			C81-66.1,81-65.3,81-65.1c0,0.3-0.4,6.6-6.1,12.2c-4.3,4.2-7.7,4.5-9.1,4.4c0.1-0.1,0.2-0.2,0.3-0.3c0.1-0.1,0.2-0.2,0.3-0.3
			c4.8-4.4,8.6-10.1,12-18c0-0.1,0.3-0.8,0.6-1.6c0.5-1.5,0.4-1.5,0.4-1.5c-0.1,0-0.2-0.1-0.8,1.3c-0.3,0.6-0.7,1.3-0.7,1.5
			c-3.5,7.6-7.7,13.5-13,18.1c0.1-1.6,0.4-4.7,1.6-8.2c1.7-4.6,4.4-8.3,8.2-10.9c0.1-0.1,0.5-0.4,0.9-0.7c0.7-0.6,0.7-0.7,0.7-0.8
			c0,0,0,0-0.1,0c-0.3-0.1-1.7,0.8-1.8,0.9c-2.5,1.7-4.6,3.9-6.4,6.5c-1.7,2.6-2.7,5-3.2,6.6c-1.2,3.9-1.2,6.4-1.1,7.5v0.1
			c-1.8,1.5-3.2,2.4-5,3.4c-2.1-8.1,4.5-18,9.6-23.2c0,0,1.1-1.2,0.9-1.4c0,0,0,0-0.1,0c-0.3,0-1.2,0.8-1.3,0.9
			c-3.2,2.9-6.7,7.8-8.7,12.8c-1.9,4.8-2.4,8.6-1.6,11.7c-2.1,1.2-3.6,1.9-5.6,2.6C51.1-43.5,51.3-46.1,52.2-48.9 M18.2-41.4
			c-2-0.7-3.5-1.4-5.6-2.6c0.8-3.1,0.3-6.9-1.6-11.7c-2-4.9-5.4-9.8-8.7-12.8c-0.1-0.1-1-0.9-1.3-0.9H0.9C0.7-69.2,1.8-68,1.8-68
			c5.1,5.3,11.7,15.1,9.6,23.2c-1.7-1-3.1-1.9-5-3.4c0,0,0,0,0-0.1c0.1-1.2,0.2-3.7-1.1-7.5c-0.5-1.6-1.5-4-3.2-6.6
			c-1.8-2.6-3.9-4.8-6.4-6.5c0-0.1-1.4-0.9-1.7-0.9c0,0,0,0-0.1,0c0,0-0.1,0.1,0.7,0.8c0.4,0.3,0.8,0.6,0.9,0.7
			C-0.7-65.7,2-62,3.7-57.4c1.2,3.4,1.6,6.5,1.6,8.2C0-53.8-4.2-59.8-7.7-67.3c-0.1-0.1-0.4-0.8-0.7-1.5c-0.7-1.4-0.8-1.3-0.8-1.3
			c-0.1,0-0.2,0.1,0.4,1.5c0.3,0.7,0.6,1.5,0.6,1.6c3.4,7.8,7.2,13.5,12,18c0.1,0,0.2,0.1,0.3,0.2c0.1,0.1,0.2,0.2,0.3,0.3
			C3-48.4-0.4-48.7-4.7-53c-5.7-5.6-6.1-11.9-6.1-12.2c0-0.2-0.1-1-0.2-1.1h-0.1c-0.3,0-0.2,1.5-0.2,1.5s0.1,1.9,1,4.4
			c1.2,3.2,3.1,6.2,5.6,8.7c2.2,2.1,4.4,3.5,6.7,4.1c1.3,0.3,2.6,0.4,3.8,0.1c1.8,1.6,3.2,2.6,5.1,3.7c-0.7,0.4-3.2,1.4-6.8,0.8
			C-3-44-8.2-48.1-12.5-55.7l0,0c-0.6-1-1-1.6-1.1-1.6c0,0,0,0-0.1,0c0,0-0.1,0.1,0.1,1c0.1,0.5,0.3,0.9,0.4,1
			c2.2,3.9,4.7,7,7.6,9.2c1.4,1.1,3,2,4.6,2.7s3.4,1.2,5.2,1.5C6-41.5,7.8-41.6,9.5-42c1.5-0.4,2.4-0.9,2.6-1
			c1.9,1.1,3.4,1.8,5.5,2.6c-0.8,0.4-2.8,1.4-5.4,2.1c-3.3,0.8-6.4,1-9.6,0.2c-12-2.9-18.2-12.5-18.5-13c0,0-0.4-0.5-0.7-0.6h-0.1
			c0,0-0.1,0.1,0.4,1c0.2,0.4,0.5,0.9,0.6,1l0,0c0.4,0.7,2.1,3.1,4.9,5.5c1.8,1.5,4,3.2,5.9,4.2c2.5,1.4,4.9,2.3,7.8,3
			c2,0.5,4,0.5,6.1,0.4c1.7-0.1,3.4-0.5,5-1c3-0.9,5-2.1,5.1-2.3c2.2,0.8,3.9,1.2,5.7,1.5c-2,1.9-7.6,6.1-17.8,5.9
			c-12.6-0.2-20.6-8.8-20.7-8.9s-1.1-1.1-1.4-1.1h-0.1c0,0-0.1,0.1,0.4,0.8c0.3,0.4,0.5,0.7,0.6,0.8l0,0c0.5,0.6,2.4,2.7,5.6,4.6
			c1.4,0.9,3.8,2.2,6.6,3.2c3.1,1.1,6.2,1.7,9.3,1.8c6.6,0.1,11.7-2,14.9-3.7c2.6-1.5,3.9-2.7,4.4-3.2c2,0.3,3.3,0.3,4.4,0.3
			c0.2,0.9,0.7,1.6,1.4,2.2c-0.7,0.8-2.7,2.8-6.1,4.7c-4.3,2.4-9.3,4-14.8,4.2c-15.6,0.7-28-5.6-29.6-12.6c-0.5-2.2-0.4-3.7,0.6-5.7
			c-3.4-2.3-4.1-4-4.1-7.9s1.9-7.6,5.8-8.1l0,0l0,0c0-0.1-1.2-5.9,3.5-9.8c4.8-3.9,9.9-2.2,12-1.4l0,0l0,0c0,0,2.4-1.3,4.2-1.3
			c0.9,0,1.9,0.2,2.8,0.4l0.6,0.1c0,9.5,4.2,17.8,10.5,23.9C18.9-46.1,19-43.5,18.2-41.4 M35.1-42c1.8,0,3.2,1.4,3.2,3.2
			s-1.4,3.2-3.2,3.2s-3.2-1.4-3.2-3.2C31.9-40.6,33.3-42,35.1-42 M66-25.5c1.7-0.1,5-0.6,6.4-1c1.8,1,2.5,1.1,5.3,1
			c2.4,0,5-0.1,7.2,1.9c1.1,1,1.6,2,1.6,3.1C86.2-19,84.6-18,84.6-18l0,0l0,0c0,0,1.3,1.1,1.4,2.5c0,0.7-0.3,1.4-0.9,2l0,0
			c-2.7,2.4-5.4-0.3-5.5-0.3l0,0l0,0c0,0-1,1.4-2.5,1.5c-1.1,0.1-2.3-0.5-3.4-1.7c-2.2-2.4-2.2-5.1-2.2-7.2c0-1.2,0-2.2-0.4-2.8
			c-0.3-0.5-0.7-1.3-0.7-1.3h-0.1c0,0.1,0.1,7.8,0.4,9.2c0.4,1.7,1.5,2.9,2.7,4.1c1.5,1.5,3,3.1,3.1,5.9c0.1,1.6-0.3,2.8-1.1,3.5
			c-1.2,1.1-3,0.8-3,0.8h-0.1v0.1c0,0,0.2,2-0.8,3.2c-0.5,0.6-1.3,0.9-2.2,0.9l0,0c-1,0-1.7-0.3-2.2-0.9c-1-1.2-0.8-3.2-0.8-3.2
			v-0.1h-0.1c0,0-1.8,0.3-3-0.8c-0.8-0.7-1.2-1.9-1.1-3.5c0.2-2.8,1.7-4.4,3.1-5.9c1.2-1.2,2.3-2.3,2.7-4.1c0.3-1.3,0.4-8.6,0.4-8.6
			h-0.1c0,0-0.1,0.4-0.8,1.3C67-22.9,67-21.9,67-20.6c0,2,0.1,4.5-1.9,6.7c-1,1.1-2,1.6-3,1.6c-1.5-0.1-2.5-1.4-2.5-1.4l0,0l0,0
			c0,0-1.1,1.5-2.6,1.6c-0.7,0.1-1.5-0.2-2.1-0.9l0,0c-0.7-0.6-1-1.3-0.9-2c0.1-1.4,1.5-2.6,1.5-2.6l0,0l0,0c0,0-1.4-1-1.5-2.5
			c-0.1-1,0.5-2,1.5-3c2-1.7,4-1.6,6.1-1.5C64.2-24.5,65.2-24.7,66-25.5 M48.7-20.8L48.7-20.8L48.7-20.8c0,0.1,1.2,1.6,1,3
			c-0.1,0.7-0.5,1.3-1.3,1.8l0,0c-0.8,0.5-1.5,0.7-2.2,0.5c-1.4-0.4-2.3-2-2.3-2l0,0l0,0c0,0-1.3,1.2-2.8,1c-1-0.2-1.9-0.9-2.6-2.1
			c-1.3-2.3-1.2-5.3-1.1-7.8c0-1.2,0.1-2.2-0.1-2.8c0-0.2-0.6-0.7-0.7-0.8c0,0-0.2-0.2-0.2-0.4h-0.1v8.8c0,0.1,0,0.2,0,0.2
			c0,0.5-0.1,1.1,0.3,2.6c0.5,1.8,2.6,3.1,2.6,3.1c1.3,1.1,2.9,1.4,4.6,1.7c2.1,0.4,4.2,0.8,5.7,2.7c0.8,1,1.1,2,1,3
			C50.2-6.8,48.7-6,48.7-6l0,0l0,0c0,0,1.2,1.5,1,3c-0.1,0.7-0.5,1.3-1.3,1.8l0,0c-0.8,0.5-1.5,0.7-2.2,0.5c-1.4-0.4-2.3-2-2.3-2
			v-0.1l0,0c0,0-1.4,1.2-2.9,1c-1-0.2-1.8-0.9-2.5-2.1c-1.3-2.4-1.2-6-1.2-8.3c0-1.2,0.1-2.1-0.1-2.5c-0.1-0.2-0.6-0.5-0.7-0.6
			c0,0-0.2-0.2-0.2-0.4h-0.1v8.8c0,0,0.1,2.7,0.4,4c0.4,1.7,1.5,2.8,2.7,4.1c1.5,1.5,3,3.1,3.1,5.9c0.1,1.6-0.3,2.8-1.1,3.5
			c-1.2,1.1-3,0.8-3,0.8h-0.1v0.1c0,0,0.2,1.9-0.8,3.1c-0.5,0.6-1.3,0.9-2.3,0.9l0,0H35l0,0c-1,0-1.7-0.3-2.3-0.9
			c-1-1.2-0.8-3-0.8-3.1v-0.1h-0.1c0,0-1.8,0.3-3-0.8c-0.8-0.7-1.2-1.9-1.1-3.5c0.2-2.8,1.7-4.4,3.1-5.9C32,0,33.1-1.1,33.5-2.9
			c0.3-1.3,0.4-4,0.4-4v-8.8h-0.1c0,0.2-0.2,0.4-0.2,0.4c-0.1,0-0.6,0.4-0.7,0.6c-0.1,0.4-0.1,1.3-0.1,2.5c0.1,2.4,0.1,5.9-1.2,8.3
			c-0.7,1.3-1.5,2-2.5,2.1c-1.5,0.2-2.9-1-2.9-1l0,0v0.1c0,0-0.9,1.6-2.3,2c-0.7,0.2-1.5,0-2.2-0.5l0,0C21-1.7,20.5-2.3,20.4-3
			c-0.2-1.5,1-3,1-3l0,0l0,0c0,0-1.5-0.8-1.8-2.3c-0.2-0.9,0.1-1.9,1-3c1.5-1.9,3.6-2.3,5.7-2.7c1.7-0.3,3.3-0.7,4.6-1.7
			c0,0,2.2-1.4,2.6-3.1C34-20.3,34-21,34-21.4c0-0.1,0-0.2,0-0.2v-8.8h-0.1c0,0.3-0.2,0.4-0.2,0.4c-0.1,0.1-0.7,0.6-0.7,0.8
			c-0.1,0.6-0.1,1.7-0.1,2.8c0.1,2.4,0.2,5.5-1.1,7.8c-0.7,1.3-1.6,2-2.6,2.1c-1.5,0.2-2.8-1-2.8-1l0,0l0,0c0,0-0.9,1.6-2.3,2
			c-0.7,0.2-1.5,0-2.2-0.5l0,0c-0.7-0.5-1.2-1.1-1.3-1.8c-0.2-1.5,1-3,1-3l0,0l0,0c0,0-1.5-0.8-1.8-2.3c-0.2-0.9,0.1-1.9,1-3
			c1.5-1.9,3.6-2.3,5.7-2.7c1.7-0.3,3.3-0.7,4.6-1.7c0,0,2.2-1.4,2.6-3.1c0,0,0.1-0.5,0.2-1c0.4,0.1,0.8,0.2,1.2,0.2
			s0.8-0.1,1.2-0.2c0.1,0.5,0.2,1,0.2,1c0.5,1.8,2.6,3.1,2.6,3.1c1.3,1.1,2.9,1.4,4.6,1.7c2.1,0.4,4.2,0.8,5.7,2.7c0.8,1,1.1,2,1,3
			C50.2-21.6,48.7-20.8,48.7-20.8 M39.2-30.5L39.2-30.5L39.2-30.5z M31-30.5L31-30.5L31-30.5L31-30.5z M24.5-43.8
			c0.7,1.3,0.8,3.7,0.8,4.3c-1.9-0.3-3.4-0.7-5.7-1.4c0.1-0.3,0.4-1.2,0.4-2.5s-0.2-2.7-0.7-4.1C21-46.1,22.7-44.9,24.5-43.8
			 M4.2-25.5c-1.7-0.1-5-0.6-6.4-1c-1.8,1-2.5,1.1-5.3,1c-2.4,0-5-0.1-7.2,1.9c-1.1,1-1.6,2-1.6,3.1c0.1,1.6,1.7,2.6,1.8,2.6l0,0
			l0,0c0,0-1.3,1.1-1.4,2.5c0,0.7,0.3,1.4,0.9,2l0,0c2.7,2.4,5.4-0.3,5.5-0.3l0,0l0,0c0,0,1,1.4,2.5,1.5c1.1,0.1,2.3-0.5,3.4-1.7
			c2.2-2.4,2.2-5.1,2.2-7.2c0-1.2,0-2.2,0.4-2.8c0.3-0.5,0.7-1.3,0.7-1.3h0.1c0,0.1-0.1,7.8-0.4,9.2c-0.4,1.7-1.5,2.9-2.7,4.1
			c-1.5,1.5-3,3.1-3.1,5.9c0,1.4,0.4,2.6,1.2,3.3c1.2,1.1,3,0.8,3,0.8h0.1v0.1c0,0-0.2,2,0.8,3.2C-0.8,2,0,2.3,0.9,2.3l0,0
			c1,0,1.7-0.3,2.2-0.9c1-1.2,0.8-3.2,0.8-3.2v-0.1H4c0,0,1.8,0.3,3-0.8c0.8-0.7,1.2-1.9,1.1-3.5C7.9-9,6.4-10.6,4.9-12.1
			c-1.2-1.2-2.3-2.3-2.7-4.1c-0.3-1.3-0.4-8.6-0.4-8.6h0.1c0,0,0.1,0.4,0.8,1.3c0.5,0.6,0.4,1.6,0.4,2.8c0,2-0.1,4.5,1.9,6.7
			c1,1.1,2,1.6,3,1.6c1.5-0.1,2.5-1.4,2.5-1.4l0,0l0,0c0,0,1.1,1.5,2.6,1.6c0.7,0.1,1.5-0.2,2.1-0.9l0,0c0.7-0.6,1-1.3,0.9-2
			c-0.1-1.4-1.5-2.6-1.5-2.6l0,0l0,0c0,0,1.4-1,1.5-2.5c0.1-1-0.5-2-1.5-3c-2-1.7-4-1.6-6.1-1.5C5.9-24.5,5-24.7,4.2-25.5"/>
	</g>
</g>
</svg>
