<?xml version="1.0" encoding="UTF-8" standalone="no"?>
<!DOCTYPE svg PUBLIC "-//W3C//DTD SVG 1.1//EN" "http://www.w3.org/Graphics/SVG/1.1/DTD/svg11.dtd">
<svg width="100%" height="100%" viewBox="0 0 1022 266" version="1.1" xmlns="http://www.w3.org/2000/svg" xmlns:xlink="http://www.w3.org/1999/xlink" xml:space="preserve" xmlns:serif="http://www.serif.com/" style="fill-rule:evenodd;clip-rule:evenodd;stroke-linejoin:round;stroke-miterlimit:2;">
    <defs>
        <linearGradient id="Linear1" x1="0" y1="0" x2="1" y2="0" gradientUnits="userSpaceOnUse" gradientTransform="matrix(37.8786,29.594,-29.594,37.8786,275.463,129.752)"><stop offset="0" style="stop-color:rgb(13,85,43);stop-opacity:1"/><stop offset="0.21" style="stop-color:rgb(13,85,43);stop-opacity:1"/><stop offset="0.31" style="stop-color:rgb(23,104,55);stop-opacity:1"/><stop offset="0.46" style="stop-color:rgb(31,132,72);stop-opacity:1"/><stop offset="0.6" style="stop-color:rgb(35,154,86);stop-opacity:1"/><stop offset="0.74" style="stop-color:rgb(36,168,96);stop-opacity:1"/><stop offset="0.85" style="stop-color:rgb(37,175,100);stop-opacity:1"/><stop offset="1" style="stop-color:rgb(37,175,100);stop-opacity:1"/></linearGradient>
    </defs>
    <g transform="matrix(1,0,0,1,239.145,204.737)">
        <text x="0px" y="0px" style="font-family:'MavenPro-Bold', 'Maven Pro';font-size:209.867px;fill:rgb(33,175,98);">-</text>
    </g>
    <g>
        <path d="M67.5,99.4C78.7,96.9 88.7,95.6 97.5,95.6C112.5,95.6 123.7,98.5 131.3,104.4C138.9,110.3 142.6,119.9 142.6,133.4L142.6,204.8L111.3,204.8L111.3,139.7C111.3,127.5 104.4,121.4 90.7,121.4C87.6,121.4 84.5,121.8 81.3,122.4C78.1,123.1 75.6,123.9 73.7,124.9L73.7,204.6L42.5,204.6L42.5,107.4C48,104.6 56.3,101.9 67.5,99.4Z" style="fill:rgb(36,175,99);fill-rule:nonzero;"/>
        <path d="M178.3,122.5L162.8,122.5L162.8,98.5L178.5,98.5L178.5,96C178.6,80.1 182.3,69 189.5,62.7C196.7,56.5 206.5,53.4 219,53.4C221.2,53.4 223.7,53.6 226.3,54C229,54.4 231.1,54.9 232.8,55.5L232.8,83C231.3,81.5 229.7,80.3 228.2,79.5C226.7,78.7 224.7,78.3 222.3,78.3C218.4,78.3 215.3,79.3 213.1,81.4C210.9,83.5 209.7,87.1 209.7,92.1L209.7,98.4L232.8,98.4L232.8,122.3L209.5,122.3L209.5,204.6L178.2,204.6L178.2,122.5L178.3,122.5Z" style="fill:rgb(36,175,99);fill-rule:nonzero;"/>
        <rect x="255.7" y="129.6" width="64" height="21.6" style="fill:rgb(33,175,98);fill-rule:nonzero;"/>
        <path d="M372,201.4C363.6,197.3 356.9,191.2 352,183C347,174.8 344.5,164.8 344.5,153.1C344.5,134.2 349.5,119.9 359.6,110.2C369.7,100.5 383.1,95.6 399.9,95.6C405.8,95.6 411.7,96.2 417.7,97.4C423.7,98.6 429,100.2 433.7,102.3L433.7,129.2C428,126.7 422.9,124.8 418.4,123.4C413.9,122.1 409.4,121.4 405,121.4C395.8,121.4 388.6,123.7 383.4,128.2C378.2,132.7 375.6,139.8 375.6,149.5C375.6,160.3 378,168.3 382.8,173.4C387.6,178.6 395.5,181.2 406.4,181.2C414.7,181.2 423.8,178.4 433.9,172.8L433.9,199.5C428.9,202.2 423.7,204.2 418.3,205.5C412.9,206.8 406.9,207.5 400.1,207.5C389.8,207.5 380.4,205.4 372,201.4Z" style="fill-rule:nonzero;"/>
        <path d="M463.3,193.6C454.3,184.1 449.9,170 449.9,151.2C449.9,131.6 454.3,117.3 463.2,108.4C472.1,99.4 485.6,95 503.6,95C521.6,95 535.2,99.6 544.3,108.7C553.4,117.9 557.9,132 557.9,151.2C557.9,169.7 553.2,183.7 543.8,193.4C534.4,203.1 521,207.9 503.5,207.9C485.7,207.9 472.2,203.1 463.3,193.6ZM521,174.8C524.9,169.4 526.9,161.5 526.9,151.2C526.9,139.9 525,131.8 521.1,127C517.3,122.2 511.4,119.8 503.6,119.8C495.5,119.8 489.6,122.2 486.1,127C482.5,131.8 480.7,139.9 480.7,151.2C480.7,162 482.6,170 486.3,175.1C490,180.3 495.8,182.9 503.6,182.9C511.3,182.9 517.1,180.2 521,174.8Z" style="fill-rule:nonzero;"/>
        <path d="M579.5,109.7C581.6,107.9 585.3,105.9 590.5,103.6C595.7,101.4 601.6,99.4 608.1,97.8C614.6,96.2 620.9,95.4 626.9,95.4C638.5,95.4 646.6,97.2 651,100.6L651,123.5C645.4,122.2 637.4,121.6 626.9,121.6C620.3,121.6 614.9,122 610.7,122.6L610.7,204.7L579.4,204.7L579.4,109.7L579.5,109.7Z" style="fill-rule:nonzero;"/>
        <path d="M761.7,159.8L691.6,159.8C694.3,174.5 704.1,181.8 721.2,181.8C726.4,181.8 731.4,181.1 736.4,179.6C741.4,178.1 746.6,176.2 752.2,173.8L752.2,200.7C740.7,205.5 727.9,207.8 713.6,207.8C702.8,207.8 693.4,205.6 685.3,201.2C677.2,196.8 670.9,190.5 666.4,182.2C661.9,173.9 659.7,164.2 659.7,153C659.7,134.5 664.3,120.2 673.4,110.1C682.6,100 695.7,95 712.6,95C745.8,95 762.1,116.6 761.7,159.8ZM691.4,139.9L730.6,139.9C729.6,132.3 727.6,127 724.6,123.7C721.6,120.5 717.1,118.9 711.3,118.9C700.1,118.9 693.5,125.9 691.4,139.9Z" style="fill-rule:nonzero;"/>
    </g>
    <path d="M319.7,129.7L319.7,151.2L258.7,151.2L280.2,129.7L319.7,129.7Z" style="fill:url(#Linear1);fill-rule:nonzero;"/>
    <g id="UR4fCq.tif">
        <g>
            <path d="M967.2,117.7L967.2,121.1C967.1,121.1 967.1,121.1 967,121.2C966.4,120.7 965.8,120.3 965.3,119.8C961.5,116.6 957.4,113.7 952.9,111.5C952.1,111.1 951.4,110.7 950.5,110.5C950.4,110.4 950.3,110.3 950.2,110.3C948.5,109.6 946.8,109 945,108.6C941.1,107.7 937.2,107.6 933.3,108.4C928.3,109.4 923.8,111.6 919.6,114.4C915.4,117.2 911.7,120.5 908.2,124.1C907.6,124.7 907.6,124.7 907.2,123.9C905.3,120 903.3,116.2 900.7,112.7C898.7,110 896.5,107.6 893.7,105.8C890.8,104 887.7,103.4 884.4,104.2C880.3,105.2 877,107.6 873.9,110.3C872,111.8 870.3,113.4 868.6,115C867,116.4 865.5,117.9 863.8,119.3C863.5,119.6 863.3,119.5 863.1,119.3C861.5,117.6 859.8,116.1 857.8,115C854.9,113.4 851.8,113.2 848.7,114.3C846.1,115.2 843.7,116.6 841.4,118C840.5,118.6 839.6,119.2 838.6,119.7L838.6,119.5C838.7,119.3 838.7,119.1 838.7,119C838.8,114.8 839.2,110.6 839.9,106.4C840.8,100.7 842.2,95.1 844.8,89.8C846.7,85.9 849.2,82.4 852.5,79.4C856.8,75.5 861.8,73.1 867.3,71.5C873.2,69.8 879.3,69.1 885.5,68.8C887.9,68.7 890.4,68.6 892.8,68.5C894,69 895.2,69.3 896.5,69.7C898.3,70.2 900.1,70.8 901.8,71.3C902.7,71.6 903.6,72 904.5,72.3C908,73.6 911.4,75.2 914.4,77.5C915.2,78.1 915.9,78.7 916.7,79.4C916.5,78.8 916.3,78.3 916.1,77.8C914.8,74.3 912.8,71.4 909.6,69.5C908.3,68.7 906.8,68 905.5,67.3C905.6,67.3 905.8,67.3 905.9,67.2C910.2,66.5 914.5,66.1 918.8,65.9C922.5,65.8 926.3,65.8 930,66.2C934.3,66.7 938.6,67.5 942.7,69C948.8,71.2 954,74.8 958,79.9C961.5,84.4 963.7,89.5 965.2,94.9C966.6,100.3 967.2,105.9 967.4,111.4C967.2,113.5 967.2,115.6 967.2,117.7Z" style="fill:rgb(36,175,99);fill-rule:nonzero;"/>
            <rect x="967.2" y="111.4" width="0.1" height="6.3" style="fill:rgb(236,220,134);fill-rule:nonzero;"/>
            <rect x="928.5" y="21.7" width="4.2" height="0.1" style="fill:rgb(160,145,143);fill-rule:nonzero;"/>
            <path d="M935.5,199.9C937.9,198.9 940.2,197.8 942.4,196.5C945,194.9 947.5,193.2 950,191.4C952.1,189.8 954.1,188.2 956,186.6C957.1,185.6 958.3,184.7 959.4,183.7C959.6,183.5 959.6,183.6 959.7,183.8C960.1,185.4 960.4,186.9 960.7,188.5C961.1,190.6 961.5,192.8 961.7,195C962,197.5 962.1,200 961.9,202.6C961.7,205.7 961.1,208.8 960.1,211.8C959.4,213.6 958.6,215.3 957.6,216.9C956.3,219 954.7,220.8 952.9,222.5C950.7,224.5 948.3,226.2 945.7,227.6C942.2,229.6 938.4,231 934.6,232.2C930.9,233.3 927.2,234.1 923.4,234.8C922.4,235 921.3,235.2 920.3,235.1C918.1,235 916,234.5 913.9,233.7C910.8,232.5 908,230.6 905,229.2C903.3,228.4 901.6,227.9 899.8,227.7C897.4,227.5 895.4,228.4 893.7,230C892.4,231.2 891.2,232.5 890,233.7C887.9,235.8 885.4,237.2 882.5,237.6C880.6,237.9 878.6,237.8 876.7,237.5C874,237.1 871.3,236.5 868.7,235.7C864.9,234.5 861.4,232.7 858.2,230.3C855.2,228 852.8,225.2 850.8,221.9C848.9,218.6 847.6,215.1 846.8,211.4C846.4,209.8 846.2,208.1 846.1,206.5C845.9,204.2 845.7,201.9 845.8,199.5C845.9,196.2 846.1,193 846.6,189.6C847,189.9 847.3,190.3 847.7,190.6C849.8,192.5 852.1,194.2 854.6,195.7C857.4,197.3 860.3,198.6 863.5,199.4C865.6,200 867.8,200.3 870,200.5C871.8,200.6 873.6,200.7 875.4,200.6C877.5,200.5 879.6,200.3 881.7,199.8C882,199.8 882.2,199.8 882.5,199.7C884.4,199.3 886.3,198.9 888.1,198.3C890.2,197.7 892.4,197 894.4,196.2C896.4,195.4 898.4,194.6 900.4,193.8C901,193.5 901.3,193.7 901.8,194C905.1,196.6 908.7,198.8 912.6,200.3C916.9,202 921.4,202.8 926,202.4C929.2,201.9 932.4,201.1 935.5,199.9Z" style="fill:rgb(36,175,99);fill-rule:nonzero;"/>
            <path d="M935.5,199.9C932.4,201.1 929.2,202 925.8,202.3C921.1,202.7 916.7,201.9 912.4,200.2C908.5,198.7 904.9,196.5 901.6,193.9C901.1,193.5 900.8,193.4 900.2,193.7C898.2,194.6 896.2,195.4 894.2,196.1C892.1,196.9 890,197.6 887.9,198.2C886,198.7 884.2,199.2 882.3,199.6C882,199.7 881.8,199.7 881.5,199.7C882.2,198.9 882.8,198.2 883.5,197.4C886.2,194.3 888,190.8 889.1,186.9C890.6,181.6 892.2,176.2 893.4,170.8C894.3,166.8 895.1,162.8 895.7,158.8C896.1,155.9 896.3,153 896.5,150.1C896.7,147.4 896.6,144.7 896.4,142.1C895.9,134 894.1,126.2 890.8,118.8C888.8,114.4 885.5,111.3 880.6,110.1C878.5,109.6 876.5,109.7 874.4,110.4C874.2,110.5 874.1,110.5 873.9,110.5C877,107.8 880.3,105.4 884.4,104.4C887.7,103.6 890.8,104.2 893.7,106C896.6,107.8 898.8,110.2 900.7,112.9C903.3,116.4 905.3,120.2 907.2,124.1C907.6,124.9 907.6,124.9 908.2,124.3C911.7,120.7 915.5,117.4 919.6,114.6C923.8,111.8 928.3,109.6 933.3,108.6C937.2,107.8 941.1,107.9 945,108.8C946.8,109.2 948.5,109.8 950.2,110.5C950.3,110.6 950.5,110.6 950.5,110.7C945.5,110.8 941.2,112.7 937.3,115.6C935.4,117 933.7,118.6 932.4,120.6C931.3,122.2 930.5,124 929.6,125.8C927.9,129.4 926.5,133.1 925.5,137C924.6,140.3 924.1,143.7 923.8,147.1C923.6,149.7 923.5,152.4 923.6,155C923.7,158.2 924,161.5 924.4,164.7C925.1,170.1 926.1,175.5 926.9,180.8C927.4,183.8 927.8,186.8 928.3,189.7C929,194 931.4,197.3 934.9,199.8C935.2,199.7 935.3,199.8 935.5,199.9Z" style="fill:rgb(236,220,134);fill-rule:nonzero;"/>
            <path d="M928.5,21.8L932.7,21.8C936.1,22 939.5,22.5 942.8,23.6C945.3,24.5 945.9,26.1 944.4,28.3C943.3,29.9 941.8,31 940.3,32C938.3,33.4 936.1,34.5 933.8,35.3C931.4,36.2 929.1,35.3 927.7,32.9C927.2,32.2 926.9,31.4 926.7,30.5C926.6,30.2 926.5,30.1 926.3,30.1C921,29.2 916.3,30.4 912.4,34.2C909.2,37.3 907.3,41.1 906,45.3C904.8,49.1 904.2,52.9 904,56.8C903.8,60.3 904.1,63.8 904.6,67.2C904.7,67.8 904.9,68.4 904.9,69C905,69.7 904.8,70.4 904.1,70.8C903.4,71.3 902.7,71.2 901.9,71.2C900.1,70.7 898.3,70.1 896.6,69.6L896.6,68.3C896.6,66.5 896.6,64.6 896.7,62.8C897.1,55.5 898.2,48.3 901,41.5C903.1,36.4 906.1,32 910.3,28.5C913.8,25.6 917.8,23.7 922.2,22.7C924.2,22.2 926.3,21.9 928.5,21.8Z" style="fill:rgb(63,43,41);fill-rule:nonzero;"/>
            <path d="M901.7,71.3C902.5,71.3 903.2,71.4 903.9,70.9C904.5,70.4 904.8,69.8 904.7,69.1C904.6,68.5 904.5,67.9 904.4,67.3C904.7,67.3 905.1,67.2 905.4,67.2C906.8,68 908.2,68.6 909.5,69.4C912.7,71.4 914.7,74.3 916,77.7C916.2,78.2 916.4,78.8 916.6,79.3C915.8,78.7 915.1,78 914.3,77.4C911.3,75.1 908,73.5 904.4,72.2C903.5,72 902.6,71.6 901.7,71.3Z" style="fill:rgb(57,110,53);fill-rule:nonzero;"/>
            <path d="M896.3,68.4L896.3,69.7C895.1,69.3 893.8,69 892.6,68.5C893.9,68.5 895.1,68.4 896.3,68.4Z" style="fill:rgb(57,110,53);fill-rule:nonzero;"/>
        </g>
    </g>
</svg>
