<svg xmlns="http://www.w3.org/2000/svg" xml:space="preserve" id="Layer_1" x="0" y="0" style="enable-background:new 0 0 1022 266" version="1.1" viewBox="0 0 1022 266"><style>.st2{font-family:&quot;MavenPro-Bold&quot;}.st3{font-size:209.8672px}.st6{fill:#24af63}.st9{fill:#ecdc86}.st12{fill:#396e35}</style><path d="M67.5 99.4c11.2-2.5 21.2-3.8 30-3.8 15 0 26.2 2.9 33.8 8.8 7.6 5.9 11.3 15.5 11.3 29v71.4h-31.3v-65.1c0-12.2-6.9-18.3-20.6-18.3-3.1 0-6.2.4-9.4 1-3.2.7-5.7 1.5-7.6 2.5v79.7H42.5v-97.2c5.5-2.8 13.8-5.5 25-8zM178.3 122.5h-15.5v-24h15.7V96c.1-15.9 3.8-27 11-33.3 7.2-6.2 17-9.3 29.5-9.3 2.2 0 4.7.2 7.3.6 2.7.4 4.8.9 6.5 1.5V83c-1.5-1.5-3.1-2.7-4.6-3.5-1.5-.8-3.5-1.2-5.9-1.2-3.9 0-7 1-9.2 3.1-2.2 2.1-3.4 5.7-3.4 10.7v6.3h23.1v23.9h-23.3v82.3h-31.3v-82.1z" class="st6"/><path d="M255.7 129.6h64v21.6h-64v-21.6z" style="fill:#21af62"/><path d="M372 201.4c-8.4-4.1-15.1-10.2-20-18.4-5-8.2-7.5-18.2-7.5-29.9 0-18.9 5-33.2 15.1-42.9 10.1-9.7 23.5-14.6 40.3-14.6 5.9 0 11.8.6 17.8 1.8 6 1.2 11.3 2.8 16 4.9v26.9c-5.7-2.5-10.8-4.4-15.3-5.8-4.5-1.3-9-2-13.4-2-9.2 0-16.4 2.3-21.6 6.8-5.2 4.5-7.8 11.6-7.8 21.3 0 10.8 2.4 18.8 7.2 23.9 4.8 5.2 12.7 7.8 23.6 7.8 8.3 0 17.4-2.8 27.5-8.4v26.7c-5 2.7-10.2 4.7-15.6 6-5.4 1.3-11.4 2-18.2 2-10.3 0-19.7-2.1-28.1-6.1zM463.3 193.6c-9-9.5-13.4-23.6-13.4-42.4 0-19.6 4.4-33.9 13.3-42.8 8.9-9 22.4-13.4 40.4-13.4s31.6 4.6 40.7 13.7c9.1 9.2 13.6 23.3 13.6 42.5 0 18.5-4.7 32.5-14.1 42.2-9.4 9.7-22.8 14.5-40.3 14.5-17.8 0-31.3-4.8-40.2-14.3zm57.7-18.8c3.9-5.4 5.9-13.3 5.9-23.6 0-11.3-1.9-19.4-5.8-24.2-3.8-4.8-9.7-7.2-17.5-7.2-8.1 0-14 2.4-17.5 7.2-3.6 4.8-5.4 12.9-5.4 24.2 0 10.8 1.9 18.8 5.6 23.9 3.7 5.2 9.5 7.8 17.3 7.8 7.7 0 13.5-2.7 17.4-8.1zM579.5 109.7c2.1-1.8 5.8-3.8 11-6.1 5.2-2.2 11.1-4.2 17.6-5.8 6.5-1.6 12.8-2.4 18.8-2.4 11.6 0 19.7 1.8 24.1 5.2v22.9c-5.6-1.3-13.6-1.9-24.1-1.9-6.6 0-12 .4-16.2 1v82.1h-31.3v-95zM761.7 159.8h-70.1c2.7 14.7 12.5 22 29.6 22 5.2 0 10.2-.7 15.2-2.2 5-1.5 10.2-3.4 15.8-5.8v26.9c-11.5 4.8-24.3 7.1-38.6 7.1-10.8 0-20.2-2.2-28.3-6.6-8.1-4.4-14.4-10.7-18.9-19-4.5-8.3-6.7-18-6.7-29.2 0-18.5 4.6-32.8 13.7-42.9C682.6 100 695.7 95 712.6 95c33.2 0 49.5 21.6 49.1 64.8zm-70.3-19.9h39.2c-1-7.6-3-12.9-6-16.2-3-3.2-7.5-4.8-13.3-4.8-11.2 0-17.8 7-19.9 21z"/><linearGradient id="SVGID_1_" x1="275.463" x2="313.341" y1="129.752" y2="159.346" gradientUnits="userSpaceOnUse"><stop offset=".215" style="stop-color:#0d552b"/><stop offset=".311" style="stop-color:#176837"/><stop offset=".461" style="stop-color:#1f8448"/><stop offset=".604" style="stop-color:#239a56"/><stop offset=".736" style="stop-color:#24a860"/><stop offset=".847" style="stop-color:#25af64"/></linearGradient><path d="M319.7 129.7v21.5h-61l21.5-21.5z" style="fill:url(#SVGID_1_)"/><g id="UR4fCq.tif"><path d="M967.2 117.7v3.4c-.1 0-.1 0-.2.1-.6-.5-1.2-.9-1.7-1.4-3.8-3.2-7.9-6.1-12.4-8.3-.8-.4-1.5-.8-2.4-1-.1-.1-.2-.2-.3-.2-1.7-.7-3.4-1.3-5.2-1.7-3.9-.9-7.8-1-11.7-.2-5 1-9.5 3.2-13.7 6-4.2 2.8-7.9 6.1-11.4 9.7-.6.6-.6.6-1-.2-1.9-3.9-3.9-7.7-6.5-11.2-2-2.7-4.2-5.1-7-6.9-2.9-1.8-6-2.4-9.3-1.6-4.1 1-7.4 3.4-10.5 6.1-1.9 1.5-3.6 3.1-5.3 4.7-1.6 1.4-3.1 2.9-4.8 4.3-.3.3-.5.2-.7 0-1.6-1.7-3.3-3.2-5.3-4.3-2.9-1.6-6-1.8-9.1-.7-2.6.9-5 2.3-7.3 3.7-.9.6-1.8 1.2-2.8 1.7v-.2c.1-.2.1-.4.1-.5.1-4.2.5-8.4 1.2-12.6.9-5.7 2.3-11.3 4.9-16.6 1.9-3.9 4.4-7.4 7.7-10.4 4.3-3.9 9.3-6.3 14.8-7.9 5.9-1.7 12-2.4 18.2-2.7 2.4-.1 4.9-.2 7.3-.3 1.2.5 2.4.8 3.7 1.2 1.8.5 3.6 1.1 5.3 1.6.9.3 1.8.7 2.7 1 3.5 1.3 6.9 2.9 9.9 5.2.8.6 1.5 1.2 2.3 1.9-.2-.6-.4-1.1-.6-1.6-1.3-3.5-3.3-6.4-6.5-8.3-1.3-.8-2.8-1.5-4.1-2.2.1 0 .3 0 .4-.1 4.3-.7 8.6-1.1 12.9-1.3 3.7-.1 7.5-.1 11.2.3 4.3.5 8.6 1.3 12.7 2.8 6.1 2.2 11.3 5.8 15.3 10.9 3.5 4.5 5.7 9.6 7.2 15 1.4 5.4 2 11 2.2 16.5-.2 2.1-.2 4.2-.2 6.3z" class="st6"/><path d="M967.2 111.4h.1v6.3h-.1v-6.3z" class="st9"/><path d="M932.7 21.7v.1h-4.2v-.1h4.2z" style="fill:#a0918f"/><path d="M935.5 199.9c2.4-1 4.7-2.1 6.9-3.4 2.6-1.6 5.1-3.3 7.6-5.1 2.1-1.6 4.1-3.2 6-4.8 1.1-1 2.3-1.9 3.4-2.9.2-.2.2-.1.3.1.4 1.6.7 3.1 1 4.7.4 2.1.8 4.3 1 6.5.3 2.5.4 5 .2 7.6-.2 3.1-.8 6.2-1.8 9.2-.7 1.8-1.5 3.5-2.5 5.1-1.3 2.1-2.9 3.9-4.7 5.6-2.2 2-4.6 3.7-7.2 5.1-3.5 2-7.3 3.4-11.1 4.6-3.7 1.1-7.4 1.9-11.2 2.6-1 .2-2.1.4-3.1.3-2.2-.1-4.3-.6-6.4-1.4-3.1-1.2-5.9-3.1-8.9-4.5-1.7-.8-3.4-1.3-5.2-1.5-2.4-.2-4.4.7-6.1 2.3-1.3 1.2-2.5 2.5-3.7 3.7-2.1 2.1-4.6 3.5-7.5 3.9-1.9.3-3.9.2-5.8-.1-2.7-.4-5.4-1-8-1.8-3.8-1.2-7.3-3-10.5-5.4-3-2.3-5.4-5.1-7.4-8.4-1.9-3.3-3.2-6.8-4-10.5-.4-1.6-.6-3.3-.7-4.9-.2-2.3-.4-4.6-.3-7 .1-3.3.3-6.5.8-9.9.4.3.7.7 1.1 1 2.1 1.9 4.4 3.6 6.9 5.1 2.8 1.6 5.7 2.9 8.9 3.7 2.1.6 4.3.9 6.5 1.1 1.8.1 3.6.2 5.4.1 2.1-.1 4.2-.3 6.3-.8.3 0 .5 0 .8-.1 1.9-.4 3.8-.8 5.6-1.4 2.1-.6 4.3-1.3 6.3-2.1l6-2.4c.6-.3.9-.1 1.4.2 3.3 2.6 6.9 4.8 10.8 6.3 4.3 1.7 8.8 2.5 13.4 2.1 3.2-.5 6.4-1.3 9.5-2.5z" class="st6"/><path d="M935.5 199.9c-3.1 1.2-6.3 2.1-9.7 2.4-4.7.4-9.1-.4-13.4-2.1-3.9-1.5-7.5-3.7-10.8-6.3-.5-.4-.8-.5-1.4-.2-2 .9-4 1.7-6 2.4-2.1.8-4.2 1.5-6.3 2.1-1.9.5-3.7 1-5.6 1.4-.3.1-.5.1-.8.1.7-.8 1.3-1.5 2-2.3 2.7-3.1 4.5-6.6 5.6-10.5 1.5-5.3 3.1-10.7 4.3-16.1.9-4 1.7-8 2.3-12 .4-2.9.6-5.8.8-8.7.2-2.7.1-5.4-.1-8-.5-8.1-2.3-15.9-5.6-23.3-2-4.4-5.3-7.5-10.2-8.7-2.1-.5-4.1-.4-6.2.3-.2.1-.3.1-.5.1 3.1-2.7 6.4-5.1 10.5-6.1 3.3-.8 6.4-.2 9.3 1.6 2.9 1.8 5.1 4.2 7 6.9 2.6 3.5 4.6 7.3 6.5 11.2.4.8.4.8 1 .2 3.5-3.6 7.3-6.9 11.4-9.7 4.2-2.8 8.7-5 13.7-6 3.9-.8 7.8-.7 11.7.2 1.8.4 3.5 1 5.2 1.7.1.1.3.1.3.2-5 .1-9.3 2-13.2 4.9-1.9 1.4-3.6 3-4.9 5-1.1 1.6-1.9 3.4-2.8 5.2-1.7 3.6-3.1 7.3-4.1 11.2-.9 3.3-1.4 6.7-1.7 10.1-.2 2.6-.3 5.3-.2 7.9.1 3.2.4 6.5.8 9.7.7 5.4 1.7 10.8 2.5 16.1.5 3 .9 6 1.4 8.9.7 4.3 3.1 7.6 6.6 10.1.3-.1.4 0 .6.1z" class="st9"/><path d="M928.5 21.8h4.2c3.4.2 6.8.7 10.1 1.8 2.5.9 3.1 2.5 1.6 4.7-1.1 1.6-2.6 2.7-4.1 3.7-2 1.4-4.2 2.5-6.5 3.3-2.4.9-4.7 0-6.1-2.4-.5-.7-.8-1.5-1-2.4-.1-.3-.2-.4-.4-.4-5.3-.9-10 .3-13.9 4.1-3.2 3.1-5.1 6.9-6.4 11.1-1.2 3.8-1.8 7.6-2 11.5-.2 3.5.1 7 .6 10.4.1.6.3 1.2.3 1.8.1.7-.1 1.4-.8 1.8-.7.5-1.4.4-2.2.4-1.8-.5-3.6-1.1-5.3-1.6v-1.3c0-1.8 0-3.7.1-5.5.4-7.3 1.5-14.5 4.3-21.3 2.1-5.1 5.1-9.5 9.3-13 3.5-2.9 7.5-4.8 11.9-5.8 2-.5 4.1-.8 6.3-.9z" style="fill:#3f2b29"/><path d="M901.7 71.3c.8 0 1.5.1 2.2-.4.6-.5.9-1.1.8-1.8l-.3-1.8c.3 0 .7-.1 1-.1 1.4.8 2.8 1.4 4.1 2.2 3.2 2 5.2 4.9 6.5 8.3.2.5.4 1.1.6 1.6-.8-.6-1.5-1.3-2.3-1.9-3-2.3-6.3-3.9-9.9-5.2-.9-.2-1.8-.6-2.7-.9zM896.3 68.4v1.3c-1.2-.4-2.5-.7-3.7-1.2 1.3 0 2.5-.1 3.7-.1z" class="st12"/></g></svg>
