<svg id="Layer_1" data-name="Layer 1" xmlns="http://www.w3.org/2000/svg" viewBox="0 0 51.1 51.1"><defs><style>.cls-1{fill:#690f32;}.cls-2{fill:#00634c;}</style></defs><title>slu</title><path class="cls-1" d="M51,27.6c-3.5,2.3-6.9,5.1-11.9,5.1-5.9,0-10.8-2.7-11.8-8.6-.7-4.3-.8-15.7-.8-19.6V0h.1c2.3,4.8,6.5,7.7,6.5,12.7,0,2.5-.8,4.1-2,6.4-.6,1.2-1.6,2.8-1.6,4.2,0,.8.4,1.7,1.9,1.7,2.9,0,4.5-1.5,8.2-1.5,4.3,0,7.3,1.5,11.5,4v.1Z"/><path class="cls-2" d="M0,27.5c4.1-2.5,7.2-4,11.5-4,3.7,0,5.4,1.5,8.2,1.5,1.5,0,1.9-.8,1.9-1.7A9.42,9.42,0,0,0,20,19.1c-1.2-2.3-2-3.9-2-6.4,0-5,4.1-7.8,6.5-12.7h.1V4.4c0,3.9-.1,15.3-.8,19.6-.9,5.9-5.9,8.6-11.8,8.6-5.1,0-8.4-2.8-11.9-5.1H0Z"/><path class="cls-2" d="M14.5,40.3c-.5-.8-1.7-1.5-3.6-1.5-1.5,0-2.5.4-2.5,1.7,0,2.7,6.8,2.2,6.8,6.5,0,2.5-1.8,4.1-5.3,4.1a12.42,12.42,0,0,1-4.3-.7,7.57,7.57,0,0,1-.1-1.5,6.15,6.15,0,0,1,.1-1.4h.1A5.33,5.33,0,0,0,10,49.3c1.6,0,2.5-.7,2.5-1.8,0-2.8-6.8-2-6.8-6.4,0-2.4,1.8-3.9,5.3-3.9a10.6,10.6,0,0,1,3.5.5,4.51,4.51,0,0,1,.1,1.3,7.59,7.59,0,0,1-.1,1.6h0Z"/><path class="cls-2" d="M26,48.8c2.1,0,3.1-.2,3.7-.8h.1a11.48,11.48,0,0,1-.7,2.8H19.2v-.1a1.73,1.73,0,0,0,.9-1.8V41.2c0-2.6,0-3.3-.8-3.9v-.1c.4,0,1.1-.1,1.9-.1a13.52,13.52,0,0,1,2.3.1v.1c-.9.7-1,1.2-1,3.9v7.6Z"/><path class="cls-2" d="M32.9,41.2c0-2.6,0-3.2-.9-3.9v-.1c.3,0,1.2-.1,2.1-.1h1.4c0,.5-.1,1.3-.1,4v4.6c0,2,.3,3,2.3,3a7.06,7.06,0,0,0,3.7-1.1.83.83,0,0,0,.3-.8V41.2c0-2.7,0-3.2-.9-3.9v-.1c.3,0,1.2-.1,2.2-.1h1.4c0,.5-.1,1.3-.1,4v6.3c0,1.2.1,2.6,1.1,3.2v.1H42.5a6.12,6.12,0,0,1-.5-1.2,8.15,8.15,0,0,1-4.7,1.4c-3.2,0-4.2-1.6-4.2-4.1V41.2Z"/></svg>