<svg xmlns="http://www.w3.org/2000/svg" viewBox="0 0 576 576"><defs><style>.cls-1{fill:#f4792a;}</style></defs><title>monogram-flame-rgb</title><g id="monogram"><path class="cls-1" d="M425.43,167l-6.69,1.83c-3.35-6.7-7.61-10.35-18.26-10.35H300.23V430.27c0,11,4.87,14.91,11.56,14.91l1.33,5.48h-65l1.33-5.48c6.39,0,11.87-4.26,11.87-14.91V158.51H161.33c-10.34,0-16.12,4.26-18.56,10.35L136.08,167l9.74-41.69c2.43.92,7.91,1.52,16.12,1.52H402.31c4.56,0,10.95-.6,13.38-1.52Zm-36,244.79c-27.74,0-62.34-1-71-2v-6.19c6.68,0,11-4.56,11-10.42V199.19c0-6.51-4.35-10.74-11-10.74v-6.51c10.69-1,46.3-2.28,70.36-2.28C440.26,179.66,468,207,468,289.39,468,373.72,444.94,411.82,389.46,411.82Zm7-198.63c-4.68,0-24.25,0-26.25.33V378.28c2,.32,21.91.32,24.24.32,21.39,0,31.42-25.07,31.42-89.21C425.89,229.15,413.19,213.19,396.48,213.19ZM243.29,188.75v-6.51s-26.4.19-47.47.15c0,0-4.6,5.32-4.6,18.43V363c0,13-9.36,19.21-20.39,19.21-10.36,0-20.05-5.21-20.05-19.21V200.82c0-8.14,4.68-12.38,11-12.38v-6.18H117s-6.66,6.28-6.66,18.56V366.88c0,8.79-.34,13.35-2.34,18.89,11,13.34,31.41,29.62,62.83,29.62,27.74,0,63.77-4.25,72.46-5.23V404c-6.68,0-11-4.56-11-10.42V199.5C232.26,193,236.61,188.75,243.29,188.75Z"/></g></svg>