<?xml version="1.0" encoding="UTF-8"?><svg xmlns="http://www.w3.org/2000/svg" xmlns:xlink="http://www.w3.org/1999/xlink" viewBox="0 0 48 48" version="1.1"><g id="surface1"><path d="M39 6H9a3 3 0 0 0-3 3v33l8.555-7H39a3 3 0 0 0 3-3V9a3 3 0 0 0-3-3z" fill="#CFD8DC"/><path d="M12 9h24a3 3 0 0 1 3 3v30L27 32H12a3 3 0 0 1-3-3V12a3 3 0 0 1 3-3z" fill="#42A5F5"/><path d="M31 19a1.999 1.999 0 1 1-4 0 1.999 1.999 0 1 1 4 0" fill="#BBDEFB"/><path d="M33 24.668S31.895 22 29 22s-4 2.668-4 2.668V26h8z" fill="#BBDEFB"/><path d="M24 17a3 3 0 1 1-6.002-.002A3 3 0 0 1 24 17" fill="#E3F2FD"/><path d="M27 24.336S25.34 21 21 21s-6 3.336-6 3.336V26h12z" fill="#E3F2FD"/></g><metadata><rdf:RDF xmlns:rdf="http://www.w3.org/1999/02/22-rdf-syntax-ns#" xmlns:rdfs="http://www.w3.org/2000/01/rdf-schema#" xmlns:dc="http://purl.org/dc/elements/1.1/"><rdf:Description about="https://iconscout.com/legal#licenses" dc:title="google,groups" dc:description="google,groups" dc:publisher="Iconscout" dc:date="2017-12-15" dc:format="image/svg+xml" dc:language="en"><dc:creator><rdf:Bag><rdf:li>Icons8</rdf:li></rdf:Bag></dc:creator></rdf:Description></rdf:RDF></metadata></svg>