<?xml version="1.0" encoding="UTF-8"?>
<svg id="Layer_1" data-name="Layer 1" xmlns="http://www.w3.org/2000/svg" viewBox="0 0 66.18 52.32">
  <defs>
    <style>
      .cls-1 {
        fill: #f57f27;
      }

      .cls-1, .cls-2, .cls-3, .cls-4, .cls-5 {
        fill-rule: evenodd;
      }

      .cls-2 {
        fill: #64bc4d;
      }

      .cls-3 {
        fill: #8e4199;
      }

      .cls-4 {
        fill: #e5383d;
      }

      .cls-5 {
        fill: #009fdb;
      }
    </style>
  </defs>
  <path class="cls-2" d="m14.98,0h37.62c1.61,0,2.93,1.32,2.93,2.93h0c0,1.61-1.32,2.93-2.93,2.93H14.98c-1.61,0-2.93-1.32-2.93-2.93h0c0-1.61,1.32-2.93,2.93-2.93Z"/>
  <path class="cls-2" d="m63.36,0h0c1.55,0,2.82,1.27,2.82,2.82v.23c0,1.55-1.27,2.82-2.82,2.82h0c-1.55,0-2.82-1.27-2.82-2.82v-.23c0-1.55,1.27-2.82,2.82-2.82Z"/>
  <path class="cls-2" d="m2.93,0h4.17c1.61,0,2.93,1.32,2.93,2.93h0c0,1.61-1.32,2.93-2.93,2.93H2.93c-1.61,0-2.93-1.32-2.93-2.93h0C0,1.32,1.32,0,2.93,0Z"/>
  <path class="cls-1" d="m2.93,11.6h37.62c1.61,0,2.93,1.32,2.93,2.93h0c0,1.61-1.32,2.93-2.93,2.93H2.93c-1.61,0-2.93-1.32-2.93-2.93h0c0-1.61,1.32-2.93,2.93-2.93Z"/>
  <path class="cls-1" d="m49.85,11.6h0c1.55,0,2.82,1.27,2.82,2.82v.23c0,1.55-1.27,2.82-2.82,2.82h0c-1.55,0-2.82-1.27-2.82-2.82v-.23c0-1.55,1.27-2.82,2.82-2.82Z"/>
  <path class="cls-1" d="m59.08,11.6h4.17c1.61,0,2.93,1.32,2.93,2.93h0c0,1.61-1.32,2.93-2.93,2.93h-4.17c-1.61,0-2.93-1.32-2.93-2.93h0c0-1.61,1.32-2.93,2.93-2.93Z"/>
  <path class="cls-4" d="m15.6,23.26h37.62c1.61,0,2.93,1.32,2.93,2.93h0c0,1.61-1.32,2.93-2.93,2.93H15.6c-1.61,0-2.93-1.32-2.93-2.93h0c0-1.61,1.32-2.93,2.93-2.93Z"/>
  <path class="cls-4" d="m63.36,23.26h0c1.55,0,2.82,1.27,2.82,2.82v.23c0,1.55-1.27,2.82-2.82,2.82h0c-1.55,0-2.82-1.27-2.82-2.82v-.23c0-1.55,1.27-2.82,2.82-2.82Z"/>
  <path class="cls-4" d="m2.93,23.26h4.17c1.61,0,2.93,1.32,2.93,2.93h0c0,1.61-1.32,2.93-2.93,2.93H2.93c-1.61,0-2.93-1.32-2.93-2.93h0c0-1.61,1.32-2.93,2.93-2.93Z"/>
  <g>
    <path class="cls-3" d="m63.25,34.86H25.63c-1.61,0-2.93,1.32-2.93,2.93h0c0,1.61,1.32,2.93,2.93,2.93h37.62c1.61,0,2.93-1.32,2.93-2.93h0c0-1.61-1.32-2.93-2.93-2.93Z"/>
    <path class="cls-3" d="m16.33,34.86h0c-1.55,0-2.82,1.27-2.82,2.82v.23c0,1.55,1.27,2.82,2.82,2.82h0c1.55,0,2.82-1.27,2.82-2.82v-.23c0-1.55-1.27-2.82-2.82-2.82Z"/>
    <path class="cls-3" d="m7.1,34.86H2.93C1.32,34.86,0,36.18,0,37.79H0c0,1.61,1.32,2.93,2.93,2.93h4.17c1.61,0,2.93-1.32,2.93-2.93h0c0-1.61-1.32-2.93-2.93-2.93Z"/>
  </g>
  <path class="cls-5" d="m51.2,46.46H13.58c-1.61,0-2.93,1.32-2.93,2.93h0c0,1.61,1.32,2.93,2.93,2.93h37.62c1.61,0,2.93-1.32,2.93-2.93h0c0-1.61-1.32-2.93-2.93-2.93Z"/>
  <path class="cls-5" d="m2.82,46.46h0C1.27,46.46,0,47.73,0,49.28v.23c0,1.55,1.27,2.82,2.82,2.82h0c1.55,0,2.82-1.27,2.82-2.82v-.23c0-1.55-1.27-2.82-2.82-2.82Z"/>
  <path class="cls-5" d="m63.25,46.46h-4.17c-1.61,0-2.93,1.32-2.93,2.93h0c0,1.61,1.32,2.93,2.93,2.93h4.17c1.61,0,2.93-1.32,2.93-2.93h0c0-1.61-1.32-2.93-2.93-2.93Z"/>
</svg>