<?xml version="1.0" encoding="UTF-8" standalone="no"?>
<!-- Created with Inkscape (http://www.inkscape.org/) -->

<svg
   xmlns:dc="http://purl.org/dc/elements/1.1/"
   xmlns:cc="http://creativecommons.org/ns#"
   xmlns:rdf="http://www.w3.org/1999/02/22-rdf-syntax-ns#"
   xmlns:svg="http://www.w3.org/2000/svg"
   xmlns="http://www.w3.org/2000/svg"
   xmlns:sodipodi="http://sodipodi.sourceforge.net/DTD/sodipodi-0.dtd"
   xmlns:inkscape="http://www.inkscape.org/namespaces/inkscape"
   version="1.1"
   id="svg2"
   xml:space="preserve"
   width="533.33331"
   height="533.33331"
   viewBox="0 0 533.33331 533.33331"
   sodipodi:docname="Singularity.svg"
   inkscape:version="0.92.3 (2405546, 2018-03-11)"><metadata
     id="metadata8"><rdf:RDF><cc:Work
         rdf:about=""><dc:format>image/svg+xml</dc:format><dc:type
           rdf:resource="http://purl.org/dc/dcmitype/StillImage" /><dc:title></dc:title></cc:Work></rdf:RDF></metadata><defs
     id="defs6" /><sodipodi:namedview
     pagecolor="#ffffff"
     bordercolor="#666666"
     borderopacity="1"
     objecttolerance="10"
     gridtolerance="10"
     guidetolerance="10"
     inkscape:pageopacity="0"
     inkscape:pageshadow="2"
     inkscape:window-width="751"
     inkscape:window-height="480"
     id="namedview4"
     showgrid="false"
     inkscape:zoom="0.44250002"
     inkscape:cx="266.66666"
     inkscape:cy="266.66666"
     inkscape:window-x="530"
     inkscape:window-y="294"
     inkscape:window-maximized="0"
     inkscape:current-layer="g10" /><g
     id="g10"
     inkscape:groupmode="layer"
     inkscape:label="Singularity"
     transform="matrix(1.3333333,0,0,-1.3333333,0,533.33333)"><g
       id="g12"><path
         d="M 395.734,200 C 395.734,310.508 308.102,400.094 200,400.094 91.898,400.094 4.266,310.508 4.266,200 4.266,89.492 91.898,-0.094 200,-0.094 308.102,-0.094 395.734,89.492 395.734,200 Z"
         style="fill:#ffffff;fill-opacity:1;fill-rule:nonzero;stroke:none"
         id="path14"
         inkscape:connector-curvature="0" /><path
         d="M 348.828,191.848 C 344.824,114.254 284.031,52.055 208.152,47.871 V 8.344 c 97.168,4.25 175.184,84.101 179.25,183.504 z"
         style="fill:#f3931f;fill-opacity:1;fill-rule:nonzero;stroke:none"
         id="path16"
         inkscape:connector-curvature="0" /><path
         d="M 208.152,391.637 V 352.129 C 286.672,347.801 349.039,281.348 349.039,200 h 38.543 l -0.238,9.703 c -0.008,0.199 -0.024,0.395 -0.035,0.594 l -0.684,9.152 c -0.02,0.184 -0.039,0.363 -0.059,0.547 l -1.109,8.934 c -0.043,0.285 -0.09,0.57 -0.137,0.855 l -1.496,8.574 c -0.058,0.282 -0.117,0.559 -0.176,0.84 l -1.878,8.34 c -0.09,0.352 -0.184,0.699 -0.27,1.047 l -2.23,8.023 c -0.106,0.356 -0.219,0.707 -0.325,1.059 l -2.582,7.797 c -0.133,0.375 -0.265,0.746 -0.402,1.121 l -2.899,7.512 c -0.167,0.41 -0.339,0.824 -0.511,1.234 l -3.16,7.156 c -0.211,0.453 -0.426,0.907 -0.641,1.36 l -3.516,7.007 c -0.195,0.379 -0.394,0.754 -0.597,1.129 l -3.828,6.817 c -0.247,0.414 -0.489,0.828 -0.735,1.238 l -4.07,6.5 c -0.274,0.414 -0.543,0.832 -0.816,1.242 l -4.438,6.375 c -0.246,0.344 -0.492,0.692 -0.746,1.032 l -4.762,6.199 c -0.273,0.34 -0.543,0.687 -0.82,1.027 l -5,5.91 c -0.301,0.34 -0.594,0.684 -0.895,1.02 l -5.32,5.707 c -0.285,0.289 -0.562,0.586 -0.848,0.879 l -5.742,5.601 c -0.238,0.219 -0.469,0.446 -0.707,0.664 l -6.035,5.352 c -0.348,0.297 -0.695,0.594 -1.047,0.891 l -6.039,4.851 c -0.414,0.32 -0.832,0.633 -1.25,0.949 l -6.32,4.594 c -0.012,0.012 -0.024,0.02 -0.039,0.031 -0.36,0.246 -0.723,0.485 -1.082,0.731 l -6.356,4.172 c -0.488,0.304 -0.984,0.597 -1.476,0.898 l -6.34,3.727 c -0.485,0.269 -0.977,0.531 -1.465,0.797 l -6.523,3.421 c -0.551,0.274 -1.106,0.536 -1.657,0.805 l -6.508,3.008 c -0.628,0.277 -1.265,0.543 -1.898,0.812 l -6.586,2.653 c -0.621,0.234 -1.25,0.465 -1.875,0.695 l -6.691,2.316 c -0.696,0.223 -1.391,0.442 -2.09,0.657 l -6.723,1.957 c -0.715,0.191 -1.433,0.379 -2.152,0.562 l -6.93,1.633 c -0.672,0.145 -1.344,0.285 -2.019,0.426 l -7.106,1.297 c -0.719,0.117 -1.437,0.23 -2.156,0.34 l -7.117,0.925 c -0.742,0.086 -1.489,0.168 -2.235,0.243 l -7.293,0.562 c -0.711,0.043 -1.418,0.09 -2.129,0.121 z"
         style="fill:#8ac13f;fill-opacity:1;fill-rule:nonzero;stroke:none"
         id="path18"
         inkscape:connector-curvature="0" /><path
         d="M 12.598,191.848 C 16.777,89.68 99.074,8.152 200,8.152 v 39.489 c -79.637,0 -144.684,63.851 -148.828,144.207 z"
         style="fill:#bcbdc0;fill-opacity:1;fill-rule:nonzero;stroke:none"
         id="path20"
         inkscape:connector-curvature="0" /><path
         d="M 349.039,200 C 349.039,284.145 282.312,352.359 200,352.359 117.688,352.359 50.961,284.145 50.961,200 50.961,115.855 117.688,47.641 200,47.641 c 82.312,0 149.039,68.214 149.039,152.359 z"
         style="fill:#ffffff;fill-opacity:1;fill-rule:nonzero;stroke:none"
         id="path22"
         inkscape:connector-curvature="0" /><path
         d="m 209.73,304.059 c 6.872,0 13.832,-0.332 20.879,-0.993 7.047,-0.66 14.313,-1.609 21.801,-2.839 7.488,-1.235 14.402,-2.645 20.746,-4.231 6.344,-1.586 12.156,-3.391 17.442,-5.418 l -22.2,-63.555 c -6.957,9.336 -14.71,16.582 -23.253,21.735 -8.547,5.152 -17.489,7.73 -26.825,7.73 -5.55,0 -9.558,-1.125 -12.023,-3.371 -2.469,-2.246 -3.699,-5.043 -3.699,-8.39 0,-3.172 2.398,-6.211 7.199,-9.118 4.801,-2.906 12.223,-6.254 22.265,-10.043 26.165,-9.601 43.075,-19.156 50.739,-28.671 7.488,-9.336 11.234,-20.879 11.234,-34.622 0,-21.402 -8.129,-37.812 -24.379,-49.218 -16.254,-11.407 -40.457,-17.114 -72.609,-17.114 -16.738,0 -32.637,1.149 -47.703,3.438 -15.063,2.289 -29.86,6.211 -44.395,11.762 l 21.801,67.386 c 6.168,-9.687 13.961,-17.484 23.387,-23.386 9.34,-5.903 18.367,-8.856 27.09,-8.856 4.316,0 7.906,1.082 10.769,3.238 2.863,2.161 4.293,4.868 4.293,8.129 0,3.875 -2.004,7.243 -6.012,10.106 -4.007,2.863 -10.242,5.926 -18.699,9.183 -20.789,7.84 -35.058,16.34 -42.808,25.504 -7.665,9.25 -11.497,20.567 -11.497,33.957 0,22.465 8.102,39.356 24.313,50.676 16.207,11.32 40.258,16.981 72.144,16.981 z"
         style="fill:#1d315f;fill-opacity:1;fill-rule:nonzero;stroke:none"
         id="path24"
         inkscape:connector-curvature="0" /><path
         d="M 200,391.848 C 96.402,391.848 12.418,305.953 12.418,200 h 38.543 c 0,84.145 66.727,152.359 149.039,152.359 z"
         style="fill:#21a1db;fill-opacity:1;fill-rule:nonzero;stroke:none"
         id="path26"
         inkscape:connector-curvature="0" /></g></g></svg>