<?xml version="1.0" encoding="utf-8"?>
<!-- Generator: Adobe Illustrator 21.1.0, SVG Export Plug-In . SVG Version: 6.00 Build 0)  -->
<svg version="1.1" id="Layer_1" xmlns="http://www.w3.org/2000/svg" xmlns:xlink="http://www.w3.org/1999/xlink" x="0px" y="0px"
	 viewBox="0 0 283.5 50.9" style="enable-background:new 0 0 283.5 50.9;" xml:space="preserve">
<style type="text/css">
	.st0{fill:#696C71;}
	.st1{fill:#007B9A;}
</style>
<g>
	<path class="st0" d="M45.4,22.9c0,0-1.2,2.8-2.9,5.4c-1.5,2.2-4.4,6.4-10.4,8.8c5.1-3.2,6.7-5.1,8.5-7.9c2-3.1,2.8-5.3,3.4-8.5
		c0.6-3.2,0.7-8.4,0.7-8.4l-2.7,0c0,0,0.4,3,0.1,6.1c-0.2,2.6-0.6,7.9-4.8,13c-1.6,2-3.5,3.8-6.1,5.3c-3.6,2-7.4,2.7-7.4,2.7
		c6.4-0.2,8.8-1.1,11.8-2.6c3.3-1.7,5.1-3.2,7.2-5.7c2.1-2.5,4.8-6.9,4.8-6.9L45.4,22.9z"/>
	<path class="st0" d="M54.1,12.9h8.7L73.2,27h0.1V12.9h7.3v22.5h-8.3L61.4,21.2h-0.1v14.2h-7.3V12.9z"/>
	<path class="st0" d="M91.7,12.9h9.2l9.7,22.5h-8.1l-1.4-3.7h-9.9l-1.4,3.7h-8.1L91.7,12.9z M96.2,18.6L96.2,18.6L93,27.1h6.3
		L96.2,18.6z"/>
	<path class="st0" d="M111.9,12.9h8.7L131,27h0.1V12.9h7.3v22.5h-8.3l-10.8-14.2h-0.1v14.2h-7.3V12.9z"/>
	<path class="st0" d="M155.7,12.2c8,0,14.7,2.6,14.7,12c0,9.3-6.7,12-14.7,12c-8,0-14.7-2.6-14.7-12C141,14.8,147.7,12.2,155.7,12.2
		z M155.7,31.1c4,0,6.7-2.2,6.7-6.9c0-4.7-2.7-6.9-6.7-6.9c-4,0-6.7,2.2-6.7,6.9C148.9,28.9,151.6,31.1,155.7,31.1z"/>
	<path class="st0" d="M172.9,12.9h16.7c6.1,0,8.3,3.3,8.3,7.5c0,3.7-1.9,7.5-8,7.5h-9.5v7.5h-7.5V12.9z M180.5,23.3h6.7
		c2.1,0,3-0.9,3-2.8c0-2-0.9-2.8-3-2.8h-6.7V23.3z"/>
	<path class="st0" d="M214.5,12.2c8,0,14.7,2.6,14.7,12c0,9.3-6.7,12-14.7,12c-8,0-14.7-2.6-14.7-12
		C199.8,14.8,206.6,12.2,214.5,12.2z M214.5,31.1c4,0,6.7-2.2,6.7-6.9c0-4.7-2.7-6.9-6.7-6.9c-4,0-6.7,2.2-6.7,6.9
		C207.8,28.9,210.5,31.1,214.5,31.1z"/>
	<path class="st0" d="M232,12.9H250c5.5,0,7.5,2.5,7.5,6.3c0,3-1.6,4.6-3.6,5.1v0.1c1.4,0.5,2.5,1.6,2.7,4c0.3,4.5,0.5,5.9,1.4,7
		h-8.2c-0.4-1-0.4-2.3-0.4-3.3c0-3.5-1.2-4.2-3.1-4.2h-6.9v7.5H232V12.9z M239.5,22.9h7.2c1.8,0,2.8-0.9,2.8-2.5
		c0-1.5-1-2.4-2.8-2.4h-7.2V22.9z"/>
	<path class="st0" d="M260.4,12.9H283v4.9H268v4.1h14.1v4.7H268v4.1H283v4.9h-22.6V12.9z"/>
	<g>
		<g>
			<polygon class="st1" points="202.5,48 202.5,39.1 198.6,39.1 198.6,38.4 207,38.4 207,39.1 203.2,39.1 203.2,48 			"/>
			<path class="st1" d="M209.2,48.2c-2.4,0-3.8-1.4-3.8-3.7c0-1.3,0.8-3.6,3.9-3.6c2.3,0,3.8,1.5,3.8,3.8v0.1h-6.9
				c0.1,1.7,1.3,2.8,3.2,2.8c2.1,0,2.6-1.3,2.8-1.9l0.7,0h0.1l0,0.1C212.2,47.4,211,48.2,209.2,48.2z M212.1,44.1
				c-0.2-1.6-1.4-2.5-3-2.5c-1.6,0-2.7,0.9-3,2.5H212.1z"/>
			<path class="st1" d="M217.7,48.2c-2.3,0-3.9-1.5-3.9-3.6c0-2.6,2-3.7,3.9-3.7c2.1,0,3.5,1.2,3.6,2.4l0,0.1h-0.7
				c-0.1-0.9-1.3-1.8-2.9-1.8c-2.2,0-3.2,1.5-3.2,3.1c0,1.2,0.8,2.9,3.2,2.9c1.2,0,2.6-0.5,2.9-2l0.7-0.1h0.1l0,0.1
				C221,47.2,219.6,48.2,217.7,48.2z"/>
			<path class="st1" d="M228.4,48v-4.2c0-1.1-0.3-2.2-2.4-2.2c-2.1,0-2.8,1.3-2.8,2.4v4h-0.8v-9.6h0.8v3.9c0.3-0.6,1.1-1.4,2.8-1.4
				c3.2,0,3.2,2.1,3.2,2.9V48H228.4z"/>
			<path class="st1" d="M236.5,48v-4.2c0-1.1-0.3-2.2-2.4-2.2c-2.1,0-2.8,1.3-2.8,2.4v4h-0.8v-6.9h0.8v1.2c0.3-0.6,1.1-1.4,2.8-1.4
				c3.2,0,3.2,2.1,3.2,2.9V48H236.5z"/>
			<path class="st1" d="M242.2,48.2c-2.6,0-3.9-1.8-3.9-3.7s1.3-3.7,3.9-3.7c2.6,0,3.9,1.8,3.9,3.7S244.8,48.2,242.2,48.2z
				 M242.2,41.5c-2.2,0-3.2,1.6-3.2,3s1,3,3.2,3s3.2-1.6,3.2-3S244.4,41.5,242.2,41.5z"/>
			<rect x="247.2" y="38.4" class="st1" width="0.8" height="9.6"/>
			<path class="st1" d="M252.9,48.2c-2.6,0-3.9-1.8-3.9-3.7s1.3-3.7,3.9-3.7c2.6,0,3.9,1.8,3.9,3.7S255.5,48.2,252.9,48.2z
				 M252.9,41.5c-2.2,0-3.2,1.6-3.2,3s1,3,3.2,3c2.2,0,3.2-1.6,3.2-3S255.1,41.5,252.9,41.5z"/>
			<path class="st1" d="M261.4,50.9c-2.3,0-3.4-0.7-3.6-2.3l0-0.1h0.7c0.2,1.2,1.1,1.8,2.9,1.8c2,0,3-0.9,3-2.6v-1.2
				c-0.6,1-1.7,1.5-3.1,1.5c-2.8,0-3.8-1.8-3.8-3.6c0-1.6,1-3.5,3.8-3.5c1.5,0,2.5,0.5,3.1,1.4v-1.2h0.8v6.5
				C265.2,49.8,264,50.9,261.4,50.9z M261.3,41.5c-1.4,0-3,0.7-3,2.8c0,1.9,1.1,2.9,3.1,2.9c1.9,0,3.1-1.1,3.1-2.9
				C264.5,42.6,263.3,41.5,261.3,41.5z"/>
			<path class="st1" d="M266.7,48v-6.9h0.8V48H266.7z M266.7,39.9v-1.5h0.8v1.5H266.7z"/>
			<path class="st1" d="M272.4,48.2c-2.4,0-3.8-1.4-3.8-3.7c0-1.3,0.8-3.6,3.9-3.6c2.3,0,3.8,1.5,3.8,3.8v0.1h-6.9
				c0.1,1.7,1.3,2.8,3.2,2.8c2.1,0,2.6-1.3,2.8-1.9l0.7,0h0.1l0,0.1C275.4,47.4,274.2,48.2,272.4,48.2z M275.3,44.1
				c-0.2-1.6-1.4-2.5-3-2.5c-1.6,0-2.7,0.9-3,2.5H275.3z"/>
			<path class="st1" d="M280.1,48.2c-2.1,0-3.3-0.8-3.4-2.4l0-0.1h0.7c0.1,0.8,0.3,1.8,2.9,1.8c1.7,0,2.4-0.4,2.4-1.4
				c0-0.7-0.4-1-1.3-1.2l-2.4-0.3c-0.7-0.1-2-0.4-2-1.8c0-1,0.8-2,2.9-2c2.1,0,3.1,0.7,3.2,2.3l0,0.1h-0.7c-0.2-1.2-0.9-1.7-2.6-1.7
				c-1.4,0-2.1,0.5-2.1,1.3c0,0.6,0.4,1,1.3,1.1l2.2,0.3c1.5,0.2,2.2,0.8,2.2,1.9C283.5,47.1,282.9,48.2,280.1,48.2z"/>
		</g>
	</g>
	<g>
		<g>
			<path class="st1" d="M58.5,10.2c-4,0-5.1-3.3-5.1-5s1.1-5,5.1-5s5.1,3.3,5.1,5S62.5,10.2,58.5,10.2z M58.5,0.8
				c-2.9,0-4.3,2.2-4.3,4.3c0,2.2,1.5,4.3,4.3,4.3s4.3-2.2,4.3-4.3C62.8,3,61.3,0.8,58.5,0.8z"/>
			<polygon class="st1" points="70.4,9.9 67.6,6.9 64.7,9.9 63.9,9.9 63.7,9.9 67.1,6.3 64,3 65,3 67.6,5.8 70.1,3 71,3 71.1,3 
				68,6.3 71.5,9.9 			"/>
			<path class="st1" d="M73.4,9.9V3.7h-1.6V3h1.6v-1c0-0.9,0.2-1.8,1.8-1.8c0.3,0,0.7,0,1,0.1l0.1,0l0,0.1V1l-0.1,0
				c-0.3,0-0.6-0.1-1-0.1c-0.3,0-1.1,0-1.1,1V3h2v0.7h-2v6.3H73.4z"/>
			<path class="st1" d="M80.1,10.2c-2.6,0-3.9-1.8-3.9-3.7s1.3-3.7,3.9-3.7S84,4.7,84,6.5S82.7,10.2,80.1,10.2z M80.1,3.5
				C78,3.5,77,5,77,6.5s1,3,3.2,3c2.2,0,3.2-1.6,3.2-3S82.3,3.5,80.1,3.5z"/>
			<path class="st1" d="M85.4,9.9V3h0.8v1.4c0.4-1,1.5-1.6,2.8-1.6c0.2,0,0.3,0,0.5,0.1l0.1,0.7v0.1l-0.1,0c-0.1,0-0.3-0.1-0.7-0.1
				c-1.8,0-2.6,1.4-2.6,2.6v3.7H85.4z"/>
			<path class="st1" d="M93.4,10.2c-2.5,0-3.7-1.9-3.7-3.7c0-2.2,1.5-3.7,3.7-3.7c1.8,0,2.6,1,3,1.5v-4h0.8v9.6h-0.8V8.6
				C96,9.4,95,10.2,93.4,10.2z M93.4,3.5c-1.5,0-3,0.9-3,3c0,1.8,1.2,3,2.9,3c2.3,0,3.1-1.5,3.1-2.9C96.4,4.3,94.9,3.5,93.4,3.5z"/>
		</g>
	</g>
	<path class="st1" d="M36.8,39.7c3.1-1.1,7.6-3.5,7.6-3.5l-1.3-2.4c0,0-2.4,1.8-5.2,3.2c-2.4,1.1-7.1,3.4-13.5,2.4
		c5.5-0.2,10.3-3.2,12.9-7.7l0,0c0,0,0,0,0-0.1c0.2-0.3,0.3-0.6,0.5-1c2.6-5,3-7.4,3.1-10.5c0.2-3.7-0.2-6-1.3-9.1
		c-1.1-3.1-3.5-7.6-3.5-7.6l-2.4,1.3c0,0,1.8,2.4,3.2,5.2c1.1,2.4,3.4,7,2.4,13.4c-0.3-6-1.1-8.4-2.6-11.3c-1.7-3.3-3.2-5.1-5.7-7.2
		C28.6,2.7,24.2,0,24.2,0l-1.4,2.3c0,0,2.8,1.2,5.4,2.9c2.2,1.5,6.4,4.4,8.8,10.5c0-0.1-0.1-0.1-0.1-0.2c-0.1-0.1-0.2-0.3-0.3-0.4
		c-3-4.7-4.9-6.2-7.5-7.9c-3.1-2-5.3-2.8-8.5-3.4c-3.2-0.6-8.4-0.7-8.4-0.7l0,2.7c0,0,3-0.4,6.1-0.1c2.6,0.2,7.7,0.6,12.8,4.6
		c0,0,0,0,0,0c-5.3-2.8-7.7-3.2-11-3.4c-3.7-0.2-6,0.2-9.1,1.3c-3.1,1.1-7.6,3.5-7.6,3.5L4.7,14c0,0,2.4-1.8,5.2-3.2
		c2.4-1.1,7-3.4,13.5-2.4c-0.4,0-0.8,0-1.2,0.1c-5.2,0.3-7.4,1.1-10.2,2.5c-3.3,1.7-5.1,3.2-7.2,5.7C2.7,19.2,0,23.6,0,23.6L2.3,25
		c0,0,1.2-2.8,2.9-5.4c1.5-2.1,4.3-6.4,10.3-8.7c-0.2,0.1-0.5,0.3-0.7,0.5c-4.5,2.9-6,4.8-7.7,7.4c-2,3.1-2.8,5.3-3.4,8.5
		C3.2,30.4,3,35.6,3,35.6l2.7,0c0,0-0.4-3-0.1-6.1c0.2-2.6,0.6-7.7,4.6-12.7c0,0.1-0.1,0.1-0.1,0.2C7.4,22.1,7,24.6,6.8,27.7
		c-0.2,3.7,0.2,6,1.3,9.1c1.1,3.1,3.5,7.6,3.5,7.6l2.4-1.3c0,0-1.8-2.4-3.2-5.2c-1.1-2.4-3.4-7-2.4-13.4c0.3,6,1.1,8.4,2.6,11.3
		c1.7,3.3,3.2,5.1,5.7,7.2c2.5,2.1,6.9,4.8,6.9,4.8l1.4-2.3c0,0-2.8-1.2-5.4-2.9c-2.2-1.5-6.4-4.4-8.8-10.5c3.2,5.1,5.1,6.7,7.9,8.5
		c3.1,2,5.3,2.8,8.5,3.4c3.2,0.6,8.4,0.7,8.4,0.7l0-2.7c0,0-3,0.4-6.1,0.1c-2.6-0.2-7.7-0.6-12.8-4.6c5.3,2.8,7.8,3.2,11,3.4
		C31.4,41.2,33.7,40.8,36.8,39.7z M23.9,9.9c7.7,0,14,6.3,14,14s-6.3,14-14,14s-14-6.3-14-14S16.2,9.9,23.9,9.9z"/>
</g>
</svg>
