<svg width="100%" height="100%" viewBox="0 0 237 42" version="1.1" xmlns="http://www.w3.org/2000/svg" xmlns:xlink="http://www.w3.org/1999/xlink">
 <title>
  Oxford Nanopore Technologies logo
 </title>
 <defs>
  <polygon id="path-1" points="0.0499931295 0.0798823529 236.188374 0.0798823529 236.188374 42 0.0499931295 42">
  </polygon>
 </defs>
 <g id="Page-1" stroke="none" stroke-width="1" fill="none" fill-rule="evenodd">
  <g id="ONT-logo">
   <g id="ONT_logo_PMS_negative">
    <path d="M37.8356336,18.9123529 C37.8356336,18.9123529 36.8399371,21.2272941 35.3818042,23.3412941 C34.1578057,25.1168235 31.737305,28.6209412 26.7221609,30.5587059 C30.956579,27.8937647 32.3047271,26.334 33.7761915,24.0907059 C35.4709586,21.5072941 36.1308679,19.7350588 36.6424643,17.0808235 C37.1532274,14.4298824 37.265712,10.1697647 37.265712,10.1697647 L34.9985235,10.15 C34.9985235,10.15 35.3068145,12.6461176 35.1135077,15.1974118 C34.9493636,17.3756471 34.6244083,21.7123529 31.1023923,25.9345882 C29.7584103,27.5445882 28.1986247,29.0747059 26.0114253,30.2935294 C22.991007,31.9751765 19.8764351,32.5170588 19.8764351,32.5170588 C25.2481968,32.3251765 27.2404231,31.6350588 29.7242484,30.3816471 C32.4997003,28.9824706 33.9678318,27.7735294 35.7534198,25.7278824 C37.5365081,23.6838824 39.7895318,20.0504706 39.7895318,20.0504706 L37.8356336,18.9123529" id="Fill-1" fill="#FFFFFF">
    </path>
    <polyline id="Fill-2" fill="#FFFFFF" points="45.0371439 10.7108235 52.2461532 10.7108235 60.9549564 22.3332941 61.0074492 22.3332941 61.0074492 10.7108235 67.0582843 10.7108235 67.0582843 29.2772941 60.1392351 29.2772941 51.141305 17.5494118 51.0888123 17.5494118 51.0888123 29.2772941 45.0371439 29.2772941 45.0371439 10.7108235">
    </polyline>
    <path d="M80.1873133,15.3909412 L80.1339873,15.3909412 L77.5293452,22.4123529 L82.7911221,22.4123529 L80.1873133,15.3909412 L80.1873133,15.3909412 Z M76.3720043,10.7108235 L84.0284521,10.7108235 L92.1056754,29.2772941 L85.3957642,29.2772941 L84.2650862,26.2607059 L76.0562144,26.2607059 L74.9247032,29.2772941 L68.2164584,29.2772941 L76.3720043,10.7108235 L76.3720043,10.7108235 Z" id="Fill-3" fill="#FFFFFF">
    </path>
    <polyline id="Fill-4" fill="#FFFFFF" points="93.2630163 10.7108235 100.471192 10.7108235 109.179996 22.3332941 109.232488 22.3332941 109.232488 10.7108235 115.284157 10.7108235 115.284157 29.2772941 108.364274 29.2772941 99.3663442 17.5494118 99.3138514 17.5494118 99.3138514 29.2772941 93.2630163 29.2772941 93.2630163 10.7108235">
    </polyline>
    <path d="M129.691343,25.6883529 C133.058381,25.6883529 135.29474,23.8947059 135.29474,19.9936471 C135.29474,16.1189412 133.058381,14.2989412 129.691343,14.2989412 C126.349303,14.2989412 124.08628,16.1189412 124.08628,19.9936471 C124.08628,23.8947059 126.349303,25.6883529 129.691343,25.6883529 L129.691343,25.6883529 Z M129.691343,10.1384706 C136.320432,10.1384706 141.924662,12.2961176 141.924662,19.9936471 C141.924662,27.6903529 136.320432,29.8488235 129.691343,29.8488235 C123.060588,29.8488235 117.456358,27.6903529 117.456358,19.9936471 C117.456358,12.2961176 123.060588,10.1384706 129.691343,10.1384706 L129.691343,10.1384706 Z" id="Fill-5" fill="#FFFFFF">
    </path>
    <path d="M150.359336,19.2392941 L155.936903,19.2392941 C157.674164,19.2392941 158.43656,18.5376471 158.43656,16.8996471 C158.43656,15.2608235 157.674164,14.5583529 155.936903,14.5583529 L150.359336,14.5583529 L150.359336,19.2392941 L150.359336,19.2392941 Z M144.097697,10.7108235 L157.989121,10.7108235 C163.09342,10.7108235 164.909003,13.3889412 164.909003,16.8996471 C164.909003,19.9681176 163.330054,23.0884706 158.279081,23.0884706 L150.359336,23.0884706 L150.359336,29.2772941 L144.097697,29.2772941 L144.097697,10.7108235 L144.097697,10.7108235 Z" id="Fill-6" fill="#FFFFFF">
    </path>
    <path d="M178.747102,25.6883529 C182.114972,25.6883529 184.351332,23.8947059 184.351332,19.9936471 C184.351332,16.1189412 182.114972,14.2989412 178.747102,14.2989412 C175.405894,14.2989412 173.143705,16.1189412 173.143705,19.9936471 C173.143705,23.8947059 175.405894,25.6883529 178.747102,25.6883529 L178.747102,25.6883529 Z M178.747102,10.1384706 C185.377857,10.1384706 190.981254,12.2961176 190.981254,19.9936471 C190.981254,27.6903529 185.377857,29.8488235 178.747102,29.8488235 C172.118013,29.8488235 166.513783,27.6903529 166.513783,19.9936471 C166.513783,12.2961176 172.118013,10.1384706 178.747102,10.1384706 L178.747102,10.1384706 Z" id="Fill-7" fill="#FFFFFF">
    </path>
    <path d="M199.544244,18.928 L205.569249,18.928 C207.095706,18.928 207.911427,18.1472941 207.911427,16.8732941 C207.911427,15.6511765 207.095706,14.8712941 205.569249,14.8712941 L199.544244,14.8712941 L199.544244,18.928 L199.544244,18.928 Z M193.282604,10.7108235 L208.331369,10.7108235 C212.93657,10.7108235 214.620505,12.7910588 214.620505,15.8850588 C214.620505,18.3556471 213.304852,19.7070588 211.620917,20.1237647 L211.620917,20.1756471 C212.804921,20.566 213.725628,21.5023529 213.883106,23.5043529 C214.172233,27.1707059 214.278052,28.3409412 215.06711,29.2772941 L208.200554,29.2772941 C207.858934,28.4710588 207.832271,27.3790588 207.832271,26.5209412 C207.832271,23.6081176 206.858238,23.0884706 205.280122,23.0884706 L199.544244,23.0884706 L199.544244,29.2772941 L193.282604,29.2772941 L193.282604,10.7108235 L193.282604,10.7108235 Z" id="Fill-8" fill="#FFFFFF">
    </path>
    <polyline id="Fill-9" fill="#FFFFFF" points="217.002678 10.7108235 235.814259 10.7108235 235.814259 14.7148235 223.26515 14.7148235 223.26515 18.0698824 235.025201 18.0698824 235.025201 21.9182353 223.26515 21.9182353 223.26515 25.2724706 235.814259 25.2724706 235.814259 29.2772941 217.002678 29.2772941 217.002678 10.7108235">
    </polyline>
    <polyline id="Fill-10" fill="#7EBCD6" points="168.685984 39.5977647 168.685984 32.2395294 165.504755 32.2395294 165.504755 31.6852941 172.493794 31.6852941 172.493794 32.2395294 169.311732 32.2395294 169.311732 39.5977647 168.685984 39.5977647">
    </polyline>
    <path d="M176.766541,36.3588235 C176.559069,35.0296471 175.640029,34.2695294 174.238555,34.2695294 C172.896239,34.2695294 171.956368,35.0494118 171.711402,36.3588235 L176.766541,36.3588235 L176.766541,36.3588235 Z M174.282715,39.7723529 C172.303821,39.7723529 171.074823,38.5955294 171.074823,36.7005882 C171.074823,35.5921176 171.753896,33.7169412 174.293547,33.7169412 C176.198285,33.7169412 177.443947,34.9481176 177.467278,36.8529412 L177.467278,36.9114118 L171.702237,36.9114118 C171.763061,38.3377647 172.76709,39.2197647 174.337708,39.2197647 C176.074136,39.2197647 176.506576,38.1285882 176.691551,37.6632941 L177.253974,37.6254118 L177.335629,37.6254118 L177.309799,37.702 C176.839864,39.0954118 175.85,39.7723529 174.282715,39.7723529 L174.282715,39.7723529 Z" id="Fill-11" fill="#7EBCD6">
    </path>
    <path d="M181.373407,39.7723529 C179.459504,39.7723529 178.122188,38.5502353 178.122188,36.7994118 C178.122188,34.6705882 179.755296,33.7169412 181.373407,33.7169412 C183.141498,33.7169412 184.268843,34.7265882 184.336334,35.7032941 L184.341333,35.7658824 L183.770578,35.7658824 C183.646428,35.0156471 182.69156,34.2695294 181.373407,34.2695294 C179.55949,34.2695294 178.747935,35.5394118 178.747935,36.7994118 C178.747935,37.7728235 179.446172,39.2197647 181.373407,39.2197647 C182.366604,39.2197647 183.524778,38.7874118 183.790575,37.5735294 L184.355498,37.5274118 L184.427988,37.5274118 L184.41299,37.5965882 C184.135528,38.9595294 182.999017,39.7723529 181.373407,39.7723529" id="Fill-12" fill="#7EBCD6">
    </path>
    <path d="M190.268018,39.5977647 L190.268018,36.1109412 C190.268018,35.2001176 190.026385,34.2695294 188.229132,34.2695294 C186.502703,34.2695294 185.890287,35.3491765 185.890287,36.2748235 L185.890287,39.5977647 L185.264539,39.5977647 L185.264539,31.6852941 L185.890287,31.6852941 L185.890287,34.8970588 C186.165249,34.426 186.839323,33.7169412 188.239964,33.7169412 C190.895432,33.7169412 190.895432,35.4405882 190.895432,36.0895294 L190.895432,39.5977647 L190.268018,39.5977647" id="Fill-13" fill="#7EBCD6">
    </path>
    <path d="M197.080415,39.5977647 L197.080415,36.1109412 C197.080415,35.2001176 196.838782,34.2695294 195.039863,34.2695294 C193.3151,34.2695294 192.702684,35.3491765 192.702684,36.2748235 L192.702684,39.5977647 L192.076103,39.5977647 L192.076103,33.8907059 L192.702684,33.8907059 L192.702684,34.8970588 C192.977646,34.426 193.650887,33.7169412 195.051528,33.7169412 C197.706163,33.7169412 197.706163,35.4405882 197.706163,36.0895294 L197.706163,39.5977647 L197.080415,39.5977647" id="Fill-14" fill="#7EBCD6">
    </path>
    <path d="M201.807266,34.2695294 C200.003347,34.2695294 199.181793,35.5525882 199.181793,36.7450588 C199.181793,37.9367059 200.003347,39.2197647 201.807266,39.2197647 C203.611185,39.2197647 204.432738,37.9367059 204.432738,36.7450588 C204.432738,35.5525882 203.611185,34.2695294 201.807266,34.2695294 L201.807266,34.2695294 Z M201.807266,39.7723529 C199.672559,39.7723529 198.556046,38.2496471 198.556046,36.7450588 C198.556046,35.2396471 199.672559,33.7169412 201.807266,33.7169412 C203.941139,33.7169412 205.059319,35.2396471 205.059319,36.7450588 C205.059319,38.2496471 203.941139,39.7723529 201.807266,39.7723529 L201.807266,39.7723529 Z" id="Fill-15" fill="#7EBCD6">
    </path>
    <polygon id="Fill-16" fill="#7EBCD6" points="205.95253 31.6852941 206.578277 31.6852941 206.578277 39.5977647 205.95253 39.5977647">
    </polygon>
    <path d="M210.723541,34.2695294 C208.919622,34.2695294 208.098901,35.5525882 208.098901,36.7450588 C208.098901,37.9367059 208.919622,39.2197647 210.723541,39.2197647 C212.527459,39.2197647 213.349013,37.9367059 213.349013,36.7450588 C213.349013,35.5525882 212.527459,34.2695294 210.723541,34.2695294 L210.723541,34.2695294 Z M210.723541,39.7723529 C208.589667,39.7723529 207.472321,38.2496471 207.472321,36.7450588 C207.472321,35.2396471 208.589667,33.7169412 210.723541,33.7169412 C212.858247,33.7169412 213.975594,35.2396471 213.975594,36.7450588 C213.975594,38.2496471 212.858247,39.7723529 210.723541,39.7723529 L210.723541,39.7723529 Z" id="Fill-17" fill="#7EBCD6">
    </path>
    <path d="M217.752575,34.2695294 C216.592734,34.2695294 215.237087,34.8715294 215.237087,36.5696471 C215.237087,38.1244706 216.150295,38.9792941 217.807567,38.9792941 C219.404014,38.9792941 220.356383,38.0742353 220.356383,36.5597647 C220.356383,35.126 219.383184,34.2695294 217.752575,34.2695294 L217.752575,34.2695294 Z M217.829231,42 C215.947823,42 215.027949,41.4045882 214.844641,40.0712941 L214.835475,40.0054118 L215.410396,40.0054118 C215.598704,41.0051765 216.349434,41.4465882 217.829231,41.4465882 C219.52983,41.4465882 220.356383,40.7416471 220.356383,39.2889412 L220.356383,38.2949412 C219.884782,39.0962353 218.974907,39.5318824 217.741743,39.5318824 C215.433727,39.5318824 214.61134,38.0132941 214.61134,36.5918824 C214.61134,35.2651765 215.43456,33.7169412 217.752575,33.7169412 C218.994904,33.7169412 219.869784,34.1130588 220.356383,34.8937647 L220.356383,33.8907059 L220.982131,33.8907059 L220.982131,39.2667059 C220.982131,41.1056471 219.950606,42 217.829231,42 L217.829231,42 Z" id="Fill-18" fill="#7EBCD6">
    </path>
    <path d="M222.206962,31.6852941 L222.833543,31.6852941 L222.833543,32.9592941 L222.206962,32.9592941 L222.206962,31.6852941 Z M222.206962,33.8907059 L222.833543,33.8907059 L222.833543,39.5977647 L222.206962,39.5977647 L222.206962,33.8907059 Z" id="Fill-19" fill="#7EBCD6">
    </path>
    <path d="M229.418471,36.3588235 C229.211,35.0296471 228.291959,34.2695294 226.890485,34.2695294 C225.54817,34.2695294 224.608299,35.0494118 224.363333,36.3588235 L229.418471,36.3588235 L229.418471,36.3588235 Z M226.934646,39.7723529 C224.956585,39.7723529 223.727587,38.5955294 223.727587,36.7005882 C223.727587,35.5921176 224.405827,33.7169412 226.945478,33.7169412 C228.850216,33.7169412 230.095878,34.9481176 230.120042,36.8529412 L230.120042,36.9114118 L224.355001,36.9114118 C224.414992,38.3377647 225.419854,39.2197647 226.989638,39.2197647 C228.7269,39.2197647 229.15934,38.1285882 229.343482,37.6632941 L229.905904,37.6254118 L229.98756,37.6254118 L229.96173,37.702 C229.492628,39.0954118 228.502764,39.7723529 226.934646,39.7723529 L226.934646,39.7723529 Z" id="Fill-20" fill="#7EBCD6">
    </path>
    <path d="M233.422088,39.7723529 C231.648165,39.7723529 230.673299,39.0896471 230.602475,37.7967059 L230.598309,37.7349412 L231.168231,37.7349412 C231.29238,38.3575294 231.391533,39.2197647 233.55457,39.2197647 C234.941879,39.2197647 235.56096,38.8574118 235.56096,38.0445882 C235.56096,37.4952941 235.206009,37.1815294 234.47361,37.086 L232.48555,36.8241176 C231.873967,36.7475294 230.844109,36.4543529 230.844109,35.3582353 C230.844109,34.5651765 231.484021,33.7169412 233.277941,33.7169412 C234.991039,33.7169412 235.870085,34.3271765 235.965905,35.5830588 L235.970904,35.6448235 L235.398483,35.6448235 C235.263501,34.6648235 234.640254,34.2695294 233.256277,34.2695294 C232.103936,34.2695294 231.469856,34.6442353 231.469856,35.3252941 C231.469856,35.8375294 231.815642,36.1216471 232.556373,36.2171765 L234.357793,36.4576471 C235.622619,36.6272941 236.188374,37.1172941 236.188374,38.0445882 C236.188374,38.8327059 235.707607,39.7723529 233.422088,39.7723529" id="Fill-21" fill="#7EBCD6">
    </path>
    <path d="M48.715805,0.735411765 C46.339465,0.735411765 45.0954693,2.53482353 45.0954693,4.31282353 C45.0954693,6.09082353 46.339465,7.89023529 48.715805,7.89023529 C51.0921451,7.89023529 52.3353076,6.09082353 52.3353076,4.31282353 C52.3353076,2.53482353 51.0921451,0.735411765 48.715805,0.735411765 L48.715805,0.735411765 Z M48.715805,8.44364706 C45.3579332,8.44364706 44.4697219,5.74164706 44.4697219,4.31282353 C44.4697219,2.884 45.3579332,0.182 48.715805,0.182 C52.0736769,0.182 52.961055,2.884 52.961055,4.31282353 C52.961055,5.74164706 52.0736769,8.44364706 48.715805,8.44364706 L48.715805,8.44364706 Z" id="Fill-22" fill="#7EBCD6">
    </path>
    <polyline id="Fill-23" fill="#7EBCD6" points="58.6977666 8.26905882 56.288931 5.72929412 53.9125909 8.25011765 53.2293514 8.26905882 53.0952032 8.26905882 55.9264808 5.25658824 53.326838 2.562 54.168389 2.562 56.3222597 4.83905882 58.4453013 2.58176471 59.1277075 2.562 59.2635222 2.562 56.6855431 5.30188235 59.5384844 8.26905882 58.6977666 8.26905882">
    </polyline>
    <path d="M61.1540957,8.26905882 L61.1540957,3.11541176 L59.8292777,3.11541176 L59.8292777,2.562 L61.1540957,2.562 L61.1540957,1.77964706 C61.1540957,1.00635294 61.3349042,0.291529412 62.6488902,0.291529412 C62.8905237,0.291529412 63.1979814,0.322823529 63.5171043,0.355764706 L63.5704303,0.360705882 L63.5804289,0.414235294 L63.5804289,0.920705882 L63.5112717,0.908352941 C63.2904687,0.868823529 62.9780117,0.844117647 62.7155477,0.844117647 C62.4589164,0.844117647 61.779843,0.844117647 61.779843,1.62647059 L61.779843,2.562 L63.4146183,2.562 L63.4146183,3.11541176 L61.779843,3.11541176 L61.779843,8.26905882 L61.1540957,8.26905882" id="Fill-24" fill="#7EBCD6">
    </path>
    <path d="M66.7583255,2.94 C64.9544067,2.94 64.132853,4.22305882 64.132853,5.41552941 C64.132853,6.608 64.9544067,7.89023529 66.7583255,7.89023529 C68.5622442,7.89023529 69.383798,6.608 69.383798,5.41552941 C69.383798,4.22305882 68.5622442,2.94 66.7583255,2.94 L66.7583255,2.94 Z M66.7583255,8.44364706 C64.6236189,8.44364706 63.5071056,6.92011765 63.5071056,5.41552941 C63.5071056,3.91094118 64.6236189,2.38741176 66.7583255,2.38741176 C68.8930321,2.38741176 70.0095453,3.91094118 70.0095453,5.41552941 C70.0095453,6.92011765 68.8930321,8.44364706 66.7583255,8.44364706 L66.7583255,8.44364706 Z" id="Fill-25" fill="#7EBCD6">
    </path>
    <path d="M71.1602205,8.26905882 L71.1602205,2.562 L71.7868011,2.562 L71.7868011,3.73717647 C72.1600831,2.88811765 73.0016341,2.38741176 74.0914844,2.38741176 C74.253962,2.38741176 74.3697795,2.41129412 74.5272578,2.45494118 L74.569752,3.01329412 L74.569752,3.09564706 L74.4905962,3.06764706 C74.383111,3.02894118 74.2514624,3.00588235 73.926507,3.00588235 C72.456709,3.00588235 71.7868011,4.13576471 71.7868011,5.18576471 L71.7868011,8.26905882 L71.1602205,8.26905882" id="Fill-26" fill="#7EBCD6">
    </path>
    <g id="Group-30">
     <mask id="mask-2" fill="white">
      <use href="#path-1">
      </use>
     </mask>
     <g id="Clip-28">
     </g>
     <path d="M77.8143061,2.94 C76.5894744,2.94 75.3538109,3.69847059 75.3538109,5.39411765 C75.3538109,6.88717647 76.3153454,7.89023529 77.7476486,7.89023529 C79.6590526,7.89023529 80.3397923,6.64011765 80.3397923,5.46988235 C80.3397923,3.60458824 79.0358049,2.94 77.8143061,2.94 L77.8143061,2.94 Z M77.8034742,8.44364706 C75.6787662,8.44364706 74.7280636,6.91682353 74.7280636,5.40482353 C74.7280636,3.62847059 75.9928897,2.38741176 77.8034742,2.38741176 C79.2757719,2.38741176 80.0006723,3.21423529 80.2739681,3.63670588 L80.2739681,0.355764706 L80.8997154,0.355764706 L80.8997154,8.26905882 L80.2739681,8.26905882 L80.2739681,7.182 C79.9731761,7.80047059 79.1699531,8.44364706 77.8034742,8.44364706 L77.8034742,8.44364706 Z" id="Fill-27" fill="#7EBCD6" mask="url(#mask-2)">
     </path>
     <path d="M19.9014316,8.25670588 C26.3413799,8.25670588 31.5623291,13.4169412 31.5623291,19.7828235 C31.5623291,26.1478824 26.3413799,31.3089412 19.9014316,31.3089412 C13.4606501,31.3089412 8.23970096,26.1478824 8.23970096,19.7828235 C8.23970096,13.4169412 13.4606501,8.25670588 19.9014316,8.25670588 L19.9014316,8.25670588 Z M30.6399559,32.7978824 C33.2187681,31.9092941 37.0074141,29.876 37.0074141,29.876 L35.8917341,27.9250588 C35.8917341,27.9250588 33.857847,29.4370588 31.5265007,30.5471765 C29.5551049,31.486 25.6498083,33.3447059 20.2738805,32.5047059 C24.890746,32.3737647 28.8918628,29.8438824 31.0598981,26.1297647 L31.0582317,26.138 C31.0665639,26.1231765 31.0723964,26.1108235 31.0807286,26.096 C31.2290416,25.8390588 31.3648562,25.5747059 31.4965048,25.3062353 C33.6228793,21.1910588 33.976164,19.2252941 34.1111455,16.6410588 C34.2719567,13.566 33.9478346,11.7048235 33.047125,9.15352941 C32.1480819,6.60470588 30.0908647,2.86011765 30.0908647,2.86011765 L28.1169693,3.96364706 C28.1169693,3.96364706 29.6475922,5.97305882 30.7707712,8.27811765 C31.7148081,10.2134118 33.5745526,14.0378824 32.7646639,19.2985882 C32.5471937,14.3417647 31.8539557,12.4089412 30.6249579,10.0272941 C29.2084859,7.28494118 27.9853207,5.83388235 25.9156051,4.06905882 C23.847556,2.30670588 20.1722278,0.0798823529 20.1722278,0.0798823529 L19.0207193,2.01105882 C19.0207193,2.01105882 21.3620642,2.99517647 23.500937,4.43552941 C25.3040225,5.65023529 28.8685326,8.05411765 30.8240972,13.0463529 C30.796601,13.0035294 30.7691048,12.9607059 30.7416086,12.9178824 C30.6716182,12.81 30.6057939,12.6988235 30.5316374,12.5934118 C27.9986522,8.73435294 26.4546977,7.45129412 24.262499,6.04635294 C21.6486915,4.37129412 19.8556046,3.71905882 17.1701403,3.21341176 C14.4880089,2.70858824 10.1777679,2.59741176 10.1777679,2.59741176 L10.1577707,4.83823529 C10.1577707,4.83823529 12.683257,4.53352941 15.2645689,4.72458824 C17.431771,4.88435294 21.7086833,5.20388235 25.9122722,8.52352941 C25.899774,8.51694118 25.8856092,8.51117647 25.8722777,8.50458824 C21.4520519,6.23329412 19.4164983,5.86188235 16.7243683,5.72435294 C13.6131292,5.56541176 11.7300546,5.88658824 9.14957592,6.776 C6.57076366,7.66458824 2.78211766,9.69788235 2.78211766,9.69788235 L3.89779766,11.6488235 C3.89779766,11.6488235 5.93168482,10.1368235 8.26303109,9.02588235 C10.2335936,8.08788235 14.1355574,6.23082353 19.5081524,7.06835294 C19.1781977,7.07823529 18.848243,7.08894118 18.5249541,7.12270588 C14.179718,7.38047059 12.3208068,8.05329412 10.0644502,9.19141176 C7.2898315,10.5914118 5.82169993,11.7995294 4.03611199,13.846 C2.25219048,15.89 0,19.5225882 0,19.5225882 L1.95306493,20.6607059 C1.95306493,20.6607059 2.94959464,18.3465882 4.40689437,16.2325882 C5.62589351,14.4644706 8.03056304,10.9858824 12.9982137,9.04235294 C12.8040737,9.16505882 12.6140998,9.29105882 12.4274588,9.42282353 C8.69047235,11.8448235 7.40814857,13.356 6.01334026,15.4823529 C4.31857317,18.0665882 3.65783064,19.838 3.1470675,22.4922353 C2.63630436,25.144 2.52381982,29.4032941 2.52381982,29.4032941 L4.79100824,29.4238824 C4.79100824,29.4238824 4.48271728,26.9269412 4.67519083,24.3764706 C4.83683528,22.2427059 5.15929097,18.0410588 8.47966798,13.9028235 C8.45633786,13.9464706 8.43717382,13.9925882 8.41467692,14.0362353 C6.18415012,18.3054118 5.8158674,20.3016471 5.67755307,22.9328235 C5.51674184,26.0078824 5.84169718,27.8690588 6.74157351,30.4195294 C7.64061663,32.9683529 9.69783391,36.7129412 9.69783391,36.7129412 L11.6717293,35.6102353 C11.6717293,35.6102353 10.1419395,33.6 9.01876056,31.2957647 C8.07472363,29.3596471 6.21497922,25.536 7.02486791,20.2744706 C7.24233803,25.2312941 7.93474287,27.1649412 9.16457386,29.5457647 C10.5810459,32.2889412 11.8033779,33.74 13.8730934,35.504 C15.9411426,37.2671765 19.617304,39.494 19.617304,39.494 L20.7688124,37.5628235 C20.7688124,37.5628235 18.4274675,36.5787059 16.2885948,35.1375294 C14.4855093,33.9236471 10.9226656,31.5197647 8.967101,26.53 C11.6733957,30.7349412 13.2523454,32.0698824 15.5261996,33.5267059 C18.1408403,35.2025882 19.9339272,35.8548235 22.6185582,36.3596471 C25.3015228,36.8644706 29.6117638,36.9764706 29.6117638,36.9764706 L29.6317611,34.7356471 C29.6317611,34.7356471 27.1062748,35.0395294 24.5249629,34.8492941 C22.3569275,34.6887059 18.0758492,34.3691765 13.8705938,31.0454118 C18.3233152,33.3372941 20.3638681,33.7111765 23.0643303,33.8495294 C26.1764026,34.0084706 28.0586439,33.6872941 30.6399559,32.7978824 L30.6399559,32.7978824 Z" id="Fill-29" fill="#7EBCD6" mask="url(#mask-2)">
     </path>
    </g>
   </g>
  </g>
 </g>
</svg>