<?xml version="1.0" encoding="utf-8"?>
<!-- Generator: Adobe Illustrator 23.0.1, SVG Export Plug-In . SVG Version: 6.00 Build 0)  -->
<svg version="1.1" id="artwork" xmlns="http://www.w3.org/2000/svg" xmlns:xlink="http://www.w3.org/1999/xlink" x="0px" y="0px"
	 viewBox="0 0 792 612" style="enable-background:new 0 0 792 612;" xml:space="preserve">
<style type="text/css">
	.st0{fill:#FFFFFF;}
	.st1{fill:none;}
	.st2{fill:#817A67;}
	.st3{fill:#0074BC;}
</style>
<rect x="279.12" y="242.12" class="st0" width="91.88" height="91.88"/>
<g>
	<rect x="238.15" y="201.1" class="st1" width="315.7" height="173.8"/>
	<g>
		<g>
			<g>
				<path class="st2" d="M404.81,283.51c-11.07,0-18.53-8.53-18.53-21.14c0-12.55,7.58-21.25,18.83-21.25
					c4.62,0,8.4,1.36,11.48,3.49l-0.65,4.15c-3.2-2.31-6.75-3.97-10.89-3.97c-9,0-14.57,7.11-14.57,17.47
					c0,10.48,5.62,17.52,14.5,17.52c4.38,0,8.35-1.72,11.66-4.26l0.59,3.91C414.16,281.73,409.66,283.51,404.81,283.51z"/>
				<path class="st2" d="M426.15,248.05c-1.54,0-2.84-1.3-2.84-2.84c0-1.54,1.3-2.84,2.84-2.84c1.54,0,2.79,1.3,2.79,2.84
					C428.94,246.74,427.69,248.05,426.15,248.05z M424.2,282.74v-28h3.85v28H424.2z"/>
				<path class="st2" d="M446.74,283.21c-4.38,0-7.28-1.72-7.28-6.87v-18.29h-4.32v-3.31h4.32v-9.71l3.85-0.65v10.36h6.46l0.53,3.31
					h-6.99v17.64c0,2.84,1.13,4.08,4.14,4.08c0.89,0,1.96-0.18,2.61-0.3l0.59,3.26C449.82,282.97,448.4,283.21,446.74,283.21z"/>
				<path class="st2" d="M466.79,286.23c-2.01,5.45-4.5,7.16-8.64,7.16c-0.59,0-1.13-0.12-1.54-0.18l-0.53-3.43
					c0.59,0.12,1.42,0.24,2.31,0.24c2.31,0,3.67-1,4.74-3.73l1.31-3.38l-10.6-27.82l3.79-0.71l8.71,23.86l8.29-23.5h4.02
					L466.79,286.23z"/>
				<g>
					<path class="st2" d="M490.37,261.31c-5.63,0-9.43,4.39-9.43,10.93c0,6.51,3.79,10.89,9.43,10.89c5.72,0,9.56-4.38,9.56-10.89
						C499.93,265.7,496.09,261.31,490.37,261.31z M490.37,280.08c-3.58,0-5.9-3.08-5.9-7.84c0-4.86,2.26-7.88,5.9-7.88
						s5.99,3.09,5.99,7.88C496.36,277.15,494.12,280.08,490.37,280.08z"/>
				</g>
				<g>
					<path class="st2" d="M504.74,257.12c0,0,0,4.05,0,4.62c-0.52,0-3.09,0-3.09,0v3.05c0,0,2.58,0,3.09,0c0,0.62,0,17.91,0,17.91
						h3.43v-17.91h4.82l-0.49-3.05h-4.33v-4.4c0-1.92,0.86-2.77,2.78-2.77c0,0,0.25-0.02,2.06,0.15l-0.79-3.25
						c-0.86-0.1-1.44-0.12-1.44-0.12C506.88,251.35,504.74,253.4,504.74,257.12z"/>
				</g>
				<path class="st2" d="M414.87,334.02v-19.53H392.2v19.53h-4.08v-40.85h4.08v17.64h22.67v-17.64h4.09v40.85H414.87z"/>
				<path class="st2" d="M439.79,334.61c-7.16,0-12.55-5.33-12.55-14.56c0-9.3,5.51-14.62,12.55-14.62
					c7.28,0,12.73,5.33,12.73,14.62C452.52,329.29,446.95,334.61,439.79,334.61z M439.79,308.75c-5.57,0-8.58,4.67-8.58,11.3
					c0,6.45,3.08,11.25,8.58,11.25c5.68,0,8.7-4.62,8.7-11.25C448.5,313.6,445.42,308.75,439.79,308.75z"/>
				<path class="st2" d="M471.11,334.38c-2.78,0-5.27-0.54-7.28-1.37v11.19l-3.91,0.65v-38.84h3.02l0.65,4.03
					c2.19-2.49,4.97-4.62,9.05-4.62c6.1,0,11.25,4.44,11.25,13.79C483.9,329.47,477.92,334.38,471.11,334.38z M472.24,308.93
					c-3.32,0-5.86,1.95-8.41,5.03v15.46c2.19,1.06,4.26,1.66,7.17,1.66c5.03,0,8.94-3.85,8.94-11.66
					C479.93,312.59,476.67,308.93,472.24,308.93z"/>
				<path class="st2" d="M513.03,320.29h-19.48c0.12,6.87,3.32,10.96,8.94,10.96c3.73,0,6.98-1.66,9.89-4.15l0.59,3.55
					c-2.78,2.36-6.39,3.96-10.71,3.96c-7.34,0-12.61-4.97-12.61-14.62c0-9,5.21-14.57,12.08-14.57c7.63,0,11.31,6.27,11.31,14.03
					C513.03,319.7,513.03,320,513.03,320.29z M501.72,308.57c-4.38,0-7.22,3.26-7.99,8.64H509
					C508.58,312.18,506.22,308.57,501.72,308.57z"/>
			</g>
			<path class="st3" d="M334.55,282.57c-0.06-3.28,0-6.39,0.23-9.21c0.28-3.96,0.63-6.8,1.4-8.9c-4.47-4.25-8.35-8.63-11.22-12.08
				c-2.95,3.34-6.87,7.55-11.27,11.74c0.77,2.1,1.45,5.28,1.72,9.24c0.1,1.26,0.17,2.57,0.2,3.93c2.93,2.37,6.54,4.93,9.54,5.85
				C327.82,283.59,331.34,283.19,334.55,282.57z M324.03,277.68c0-1.58,1.28-2.85,2.85-2.85c1.57,0,2.85,1.27,2.85,2.85
				c0,1.57-1.28,2.85-2.85,2.85C325.31,280.52,324.03,279.25,324.03,277.68z M326.67,287.19c-0.55,2.5-0.72,5.94-0.11,10.63
				c1.27,9.65,8.66,19.43,11.96,23.38c-1.48-8.84-3.55-23.81-3.94-36.76C332.21,285.39,329.49,286.36,326.67,287.19z M279.03,241.89
				v92.14h92.14v-92.14H279.03z M344.03,248.7c2.28,0,4.12,1.84,4.12,4.12c0,2.27-1.84,4.12-4.12,4.12c-2.27,0-4.12-1.84-4.12-4.12
				C339.91,250.55,341.76,248.7,344.03,248.7z M306.16,248.7c2.27,0,4.12,1.84,4.12,4.12c0,2.27-1.84,4.12-4.12,4.12
				c-2.27,0-4.12-1.84-4.12-4.12C302.04,250.55,303.88,248.7,306.16,248.7z M367.03,257.34c-2.21,1.13-11.12,6.79-23.31,9.23
				c-0.8,3.61-1.04,8.59-0.15,15.36c2.34,17.82,19.55,36.52,20,36.98c0.19,0.2,0,0.54-0.22,0.39c-1.41-0.99-14.38-9.79-22.54-24.4
				c-1.4,13.92-0.48,32.88-0.4,33.6c0.05,0.45-0.4,0.36-0.45,0.16c-0.2-0.7-0.64-2.89-1.19-6.06c-2.72-2-9.44-7.42-14.11-15.79
				c-0.96,9.63-0.25,22.71-0.19,23.2c0.03,0.31-0.36,0.29-0.4,0.16c-0.63-2.2-4.62-25-3.59-38.26c0.19-2.74,0.67-4.94,1.2-6.39
				c-2.23-2.12-4.28-4.25-6.02-6.15c0.17,19.34-4.61,46.43-5.42,49.29c-0.05,0.2-0.5,0.29-0.45-0.16c0.08-0.71,1-19.68-0.4-33.6
				c-8.17,14.61-21.13,23.42-22.54,24.4c-0.22,0.15-0.42-0.18-0.22-0.39c0.45-0.46,17.66-19.16,20-36.98
				c0.89-6.77,0.64-11.75-0.15-15.36c-11.12-3.26-21.09-8.1-23.3-9.23c-0.24-0.1-0.18-0.5,0.21-0.41c2.45,0.76,16.85,5.2,25.27,3.81
				c4.84-1.49,10.81-5.94,15.24-9.66c-1.95-2.4-3.32-4.21-3.9-4.99c-0.2-0.25,0.06-0.58,0.31-0.33c0.71,0.64,2.45,2.31,4.76,4.33
				c2.34-2.01,4.12-3.68,4.83-4.33c0.25-0.24,0.51,0.09,0.31,0.33c-0.59,0.79-2.02,2.56-4.07,4.93c4.44,3.81,10.48,8.43,15.39,9.94
				c8.42,1.39,22.85-3.28,25.3-4.04C367.21,256.83,367.26,257.24,367.03,257.34z"/>
		</g>
		<path class="st2" d="M522.05,334.6c-2.66,0-4.5-1.84-4.5-4.59c0-2.73,1.88-4.62,4.5-4.62c2.65,0,4.49,1.86,4.49,4.62
			C526.54,332.74,524.66,334.6,522.05,334.6z M522.05,325.92c-2.14,0-3.84,1.47-3.84,4.08c0,2.59,1.7,4.06,3.84,4.06
			c2.15,0,3.86-1.46,3.86-4.06C525.91,327.39,524.18,325.92,522.05,325.92z M523.37,332.46l-1.53-2.18h-0.49v2.1h-0.87v-5.09h1.54
			c1.07,0,1.79,0.53,1.79,1.48c0,0.73-0.4,1.21-1.03,1.41l1.46,2.08L523.37,332.46z M522.02,328.08h-0.67v1.5h0.63
			c0.58,0,0.93-0.24,0.93-0.75C522.92,328.34,522.6,328.08,522.02,328.08z"/>
	</g>
</g>
</svg>
