<?xml version="1.0" encoding="utf-8"?>
<!-- Generator: Adobe Illustrator 16.0.0, SVG Export Plug-In . SVG Version: 6.00 Build 0)  -->
<!DOCTYPE svg PUBLIC "-//W3C//DTD SVG 1.1//EN" "http://www.w3.org/Graphics/SVG/1.1/DTD/svg11.dtd">
<svg version="1.1" id="Layer_1" xmlns="http://www.w3.org/2000/svg" xmlns:xlink="http://www.w3.org/1999/xlink" x="0px" y="0px"
	 width="480px" height="339px" viewBox="0 0 480 339" enable-background="new 0 0 480 339" xml:space="preserve">
<path fill-rule="evenodd" clip-rule="evenodd" fill="#E7E6E7" d="M90.978,211.863c0-0.983,0.016-1.969-0.006-2.952
	c-0.016-0.803,0.148-1.576,0.26-2.363c0.16-1.115,0.464-2.228,0.458-3.35c-0.004-1.249,0.447-2.399,0.575-3.606
	c0.159-1.499,0.832-2.876,0.924-4.379c0.016-0.258,0.118-0.472,0.214-0.698c0.377-0.878,0.606-1.796,0.705-2.743
	c0.026-0.254,0.07-0.483,0.244-0.678c0.041-0.044,0.092-0.099,0.098-0.153c0.104-1.104,0.916-1.989,0.961-3.109
	c0.005-0.124,0.004-0.265,0.062-0.361c0.896-1.467,1.005-3.275,2.017-4.692c0.052-0.074,0.104-0.165,0.107-0.25
	c0.047-1.354,0.84-2.397,1.432-3.528c0.227-0.433,0.458-0.88,0.583-1.348c0.233-0.865,0.698-1.629,0.988-2.468
	c0.292-0.84,0.701-1.62,1.15-2.387c0.369-0.633,0.628-1.324,0.963-1.98c0.458-0.893,0.94-1.779,1.375-2.685
	c0.501-1.048,0.99-2.107,1.588-3.096c0.793-1.312,1.391-2.724,2.221-4.024c0.664-1.039,1.318-2.122,1.735-3.31
	c0.03-0.085,0.062-0.184,0.125-0.242c0.852-0.789,1.125-1.948,1.823-2.841c0.335-0.427,0.457-0.988,0.726-1.475
	c0.843-1.53,1.838-2.967,2.7-4.486c0.641-1.129,1.257-2.314,2.176-3.283c0.38-0.4,0.573-0.946,0.825-1.43
	c0.43-0.822,1.049-1.511,1.486-2.319c1.005-1.859,2.329-3.513,3.39-5.334c0.191-0.329,0.513-0.532,0.699-0.852
	c0.934-1.607,2.108-3.047,3.17-4.563c1.332-1.905,2.541-3.903,4.037-5.684c1.004-1.195,1.906-2.476,2.822-3.722
	c0.88-1.196,1.901-2.31,2.613-3.648c0.392-0.736,1.104-1.296,1.629-1.967c0.451-0.575,0.946-1.113,1.321-1.757
	c0.4-0.685,1.068-1.169,1.547-1.814c0.871-1.176,1.733-2.377,2.75-3.423c1.138-1.172,1.994-2.556,3.083-3.766
	c1.306-1.453,2.623-2.902,3.815-4.461c0.853-1.114,1.918-2.064,2.822-3.144c0.741-0.884,1.724-1.557,2.253-2.634
	c0.167-0.341,0.507-0.606,0.796-0.875c1.582-1.461,2.972-3.105,4.443-4.67c1.114-1.185,2.191-2.409,3.383-3.513
	c2.189-2.03,4.18-4.258,6.358-6.3c1.292-1.211,2.478-2.536,3.724-3.796c1.227-1.24,2.526-2.399,3.834-3.554
	c0.428-0.377,0.857-0.77,1.266-1.178c1.168-1.17,2.331-2.339,3.725-3.265c0.376-0.25,0.691-0.67,1.033-1.013
	c1.425-1.427,2.964-2.724,4.551-3.967c0.529-0.414,1.019-0.881,1.523-1.326c1.218-1.073,2.413-2.165,3.724-3.13
	c0.808-0.595,1.504-1.344,2.313-1.936c1.187-0.869,2.215-1.921,3.41-2.784c1.558-1.126,3.029-2.374,4.561-3.539
	c1.26-0.958,2.506-1.934,3.831-2.81c0.706-0.465,1.34-1.062,2.019-1.584c0.898-0.69,1.828-1.33,2.765-1.961
	c0.633-0.426,1.234-0.906,1.823-1.375c1.084-0.864,2.265-1.56,3.401-2.335c1.008-0.689,2.031-1.36,3.049-2.037
	c1.273-0.848,2.537-1.708,3.814-2.547c1.045-0.688,2.158-1.271,3.164-2.022c0.811-0.605,1.776-0.994,2.582-1.583
	c1.467-1.07,3.175-1.715,4.628-2.802c0.707-0.529,1.499-0.974,2.306-1.33c0.989-0.436,1.851-1.084,2.8-1.554
	c1.508-0.747,2.928-1.648,4.444-2.381c1.261-0.609,2.507-1.256,3.785-1.831c0.887-0.4,1.724-0.909,2.686-1.174
	c0.76-0.208,1.468-0.618,2.188-0.959c1.048-0.499,2.117-0.926,3.221-1.305c0.973-0.335,1.948-0.752,2.927-1.062
	c1.333-0.424,2.632-1.006,4.034-1.206c0.092-0.013,0.192-0.006,0.274-0.042c1.657-0.735,3.452-0.936,5.195-1.324
	c1.541-0.343,3.07-0.784,4.701-0.725c1.02,0.038,2.046-0.324,3.076-0.408c2.511-0.204,5.034-0.21,7.54-0.003
	c1.272,0.106,2.536,0.353,3.815,0.442c0.561,0.038,1.07,0.254,1.611,0.345c1.597,0.272,3.161,0.682,4.703,1.166
	c1.509,0.473,3.009,0.985,4.479,1.566c0.587,0.231,1.131,0.598,1.725,0.843c1.524,0.626,2.875,1.603,4.406,2.219
	c0.253,0.101,0.515,0.249,0.693,0.446c0.597,0.658,1.434,0.935,2.15,1.399c0.977,0.633,1.927,1.297,2.821,2.044
	c0.562,0.467,1.188,0.863,1.803,1.261c0.985,0.639,1.645,1.653,2.643,2.275c0.633,0.396,1.112,0.961,1.649,1.462
	c1.479,1.379,2.858,2.855,4.287,4.286c0.673,0.673,1.323,1.362,1.852,2.16c0.321,0.484,0.823,0.796,1.207,1.235
	c1.188,1.362,2.237,2.83,3.37,4.235c0.612,0.763,1.245,1.51,1.824,2.297c0.941,1.274,1.935,2.522,2.731,3.882
	c0.649,1.107,1.616,1.995,2.097,3.211c0.129,0.326,0.501,0.547,0.672,0.865c0.652,1.202,1.619,2.206,2.164,3.48
	c0.162,0.375,0.548,0.651,0.819,0.983c0.572,0.697,0.736,1.62,1.271,2.334c1.137,1.525,1.856,3.301,2.953,4.855
	c0.634,0.896,1.09,1.908,1.592,2.889c0.412,0.806,0.896,1.585,1.39,2.354c0.656,1.023,1.195,2.124,1.74,3.218
	c0.774,1.562,1.608,3.094,2.442,4.627c0.372,0.686,0.694,1.435,1.072,2.119c0.42,0.766,0.66,1.626,1.226,2.323
	c0.319,0.396,0.332,0.954,0.629,1.405c0.43,0.658,0.705,1.417,1.048,2.133c0.602,1.262,1.22,2.518,1.805,3.788
	c0.616,1.332,1.307,2.626,1.929,3.955c0.438,0.933,0.77,1.908,1.201,2.842c0.778,1.686,1.728,3.311,2.277,5.086
	c0.304,0.977,0.778,1.859,1.187,2.771c0.441,0.981,0.617,2.057,1.158,2.994c0.907,1.577,1.332,3.352,2.027,5.016
	c0.544,1.295,1.135,2.588,1.576,3.912c0.673,2.022,1.493,3.984,2.178,5.997c0.327,0.969,0.734,1.916,1.018,2.913
	c0.33,1.159,0.669,2.343,1.17,3.466c0.366,0.829,0.595,1.729,0.873,2.599c0.312,0.987,0.761,1.937,0.92,2.971
	c0.036,0.216,0.128,0.405,0.262,0.583c0.108,0.146,0.24,0.313,0.257,0.482c0.201,2.028,1.167,3.843,1.626,5.804
	c0.29,1.229,0.658,2.482,1.196,3.653c0.146,0.315,0.161,0.649,0.244,0.972c0.4,1.566,0.797,3.133,1.263,4.678
	c0.145,0.479,0.052,1.004,0.284,1.433c0.631,1.152,0.789,2.438,1.073,3.68c0.334,1.457,0.822,2.875,1.058,4.356
	c0.053,0.329,0.227,0.637,0.304,0.964c0.175,0.738,0.289,1.51,0.488,2.217c0.384,1.353,0.529,2.751,0.911,4.084
	c0.431,1.499,0.766,3.025,1.105,4.535c0.344,1.537,0.722,3.091,0.874,4.675c0.054,0.543,0.242,1.072,0.353,1.611
	c0.441,2.147,0.828,4.307,1.202,6.466c0.307,1.768,0.728,3.523,0.847,5.329c0.05,0.756,0.334,1.486,0.427,2.248
	c0.142,1.18,0.294,2.36,0.484,3.532c0.17,1.056,0.406,2.103,0.446,3.17c0.06,1.626,0.551,3.18,0.691,4.802
	c0.162,1.908,0.128,3.847,0.655,5.724c0.121,0.429,0.057,0.918,0.042,1.379c-0.037,1.076,0.142,2.125,0.304,3.188
	c0.107,0.72,0.162,1.46,0.273,2.179c0.168,1.061,0.047,2.143,0.309,3.188c0.031,0.116,0.065,0.254,0.033,0.363
	c-0.266,0.88-0.042,1.75-0.018,2.631c0.023,0.83,0.079,1.658,0.246,2.461c0.134,0.644,0.091,1.282,0.157,1.917
	c0.229,2.234,0.029,4.484,0.205,6.71c0.304,3.841,0.154,7.678,0.103,11.513c-0.021,1.647,0.003,3.312-0.157,4.956
	c-0.147,1.517-0.256,3.038-0.466,4.549c-0.119,0.868-0.291,1.759-0.239,2.646c0.097,1.704-0.155,3.361-0.612,4.994
	c-0.052,0.175-0.141,0.36-0.123,0.532c0.157,1.536-0.447,2.951-0.678,4.426c-0.312,1.996-0.861,3.932-1.435,5.869
	c-0.242,0.816-0.602,1.638-0.716,2.438c-0.152,1.085-0.862,1.949-0.919,3.041c-0.025,0.54-0.606,0.932-0.654,1.499
	c-0.038,0.475-0.205,0.887-0.404,1.304c-0.802,1.688-1.55,3.398-2.488,5.018c-0.229,0.394-0.41,0.829-0.553,1.261
	c-0.162,0.51-0.416,0.942-0.761,1.351c-0.754,0.883-1.263,1.931-1.862,2.92c-0.361,0.602-0.785,1.167-1.224,1.717
	c-1.09,1.357-2.036,2.84-3.374,3.996c-0.487,0.42-0.792,1.007-1.266,1.455c-0.712,0.675-1.454,1.313-2.243,1.892
	c-0.354,0.259-0.55,0.654-0.896,0.914c-0.855,0.644-1.714,1.279-2.54,1.954c-1.285,1.047-2.724,1.862-4.086,2.788
	c-0.613,0.418-1.326,0.624-1.955,1.007c-0.985,0.604-1.977,1.217-3.032,1.662c-0.698,0.295-1.331,0.752-2.105,0.876
	c-0.527,0.085-0.904,0.497-1.379,0.718c-1.781,0.835-3.664,1.391-5.526,1.977c-2.091,0.657-4.16,1.43-6.354,1.736
	c-0.389,0.055-0.77,0.208-1.145,0.34c-1.161,0.406-2.411,0.374-3.583,0.734c-1.671,0.517-3.433,0.504-5.142,0.845
	c-1.354,0.274-2.757,0.526-4.183,0.476c-0.842-0.029-1.703,0.136-2.535,0.305c-0.838,0.17-1.688,0.227-2.523,0.201
	c-1.57-0.044-3.12,0.175-4.682,0.211c-1.776,0.043-3.555,0.138-5.326,0.232c-1.223,0.065-2.445,0.083-3.67,0.134
	c-0.823,0.034-1.655,0.101-2.468,0.118c-0.931,0.019-1.892,0.131-2.805,0.016c-1.014-0.122-2.019-0.125-3.025-0.128
	c-2.271-0.006-4.538-0.137-6.802-0.237c-2.875-0.125-5.746-0.332-8.627-0.338c-0.909-0.006-1.819-0.186-2.726-0.311
	c-0.695-0.099-1.403-0.118-2.098-0.176c-1.003-0.085-1.996-0.289-3.016-0.252c-1.565,0.061-3.098-0.276-4.643-0.469
	c-0.998-0.123-1.994-0.332-3.012-0.254c-0.896,0.065-1.769-0.078-2.639-0.28c-0.653-0.155-1.335-0.209-1.995-0.249
	c-1.87-0.108-3.697-0.436-5.517-0.845c-0.147-0.034-0.3-0.099-0.446-0.095c-1.766,0.078-3.443-0.539-5.165-0.677
	c-1.601-0.13-3.115-0.617-4.688-0.789c-2.25-0.247-4.459-0.695-6.652-1.242c-0.605-0.148-1.25-0.303-1.902-0.254
	c-0.152,0.011-0.333,0.04-0.458-0.021c-1.121-0.569-2.38-0.512-3.559-0.81c-1.187-0.301-2.368-0.577-3.595-0.667
	c-0.298-0.02-0.601-0.14-0.873-0.271c-0.337-0.163-0.685-0.295-1.05-0.324c-1.439-0.11-2.754-0.797-4.204-0.89
	c-0.695-0.045-1.289-0.552-2.019-0.581c-1.474-0.054-2.806-0.803-4.281-0.906c-0.433-0.027-0.835-0.399-1.277-0.489
	c-2.034-0.418-4.019-1.023-6.025-1.544c-1.715-0.44-3.42-0.918-5.112-1.442c-1.923-0.597-3.879-1.08-5.789-1.715
	c-0.979-0.327-2.011-0.515-2.932-1.019c-0.159-0.09-0.344-0.14-0.523-0.178c-1.708-0.354-3.328-0.983-4.964-1.57
	c-2.061-0.74-4.147-1.406-6.224-2.104c-0.521-0.178-1.069-0.284-1.519-0.638c-0.115-0.093-0.273-0.152-0.419-0.172
	c-1.076-0.14-1.996-0.749-3.046-0.987c-0.674-0.151-1.304-0.504-1.955-0.766c-1.445-0.578-2.873-1.205-4.338-1.726
	c-1.821-0.651-3.545-1.53-5.354-2.202c-1.058-0.396-2.082-0.881-3.139-1.279c-1.723-0.646-3.354-1.492-5.028-2.242
	c-1.534-0.687-3.125-1.235-4.614-2.023c-1.595-0.846-3.257-1.558-4.862-2.372c-2.203-1.125-4.444-2.168-6.62-3.347
	c-1.451-0.783-2.94-1.513-4.448-2.197c-1.246-0.569-2.451-1.261-3.572-2.07c-0.221-0.164-0.471-0.292-0.723-0.404
	c-1.378-0.611-2.656-1.412-3.942-2.185c-1.622-0.976-3.26-1.928-4.864-2.938c-1.968-1.24-3.954-2.457-5.868-3.781
	c-1.307-0.904-2.6-1.831-3.88-2.772c-1.224-0.903-2.46-1.795-3.626-2.771c-1.289-1.078-2.687-2.03-3.906-3.18
	c-2.119-1.996-4.133-4.104-6.213-6.144c-1.319-1.29-2.409-2.771-3.56-4.202c-0.594-0.738-1.196-1.47-1.753-2.236
	c-0.611-0.842-1.22-1.688-1.743-2.583c-0.312-0.531-0.676-1.024-1.003-1.537c-0.841-1.317-1.422-2.764-2.184-4.115
	c-0.449-0.796-0.629-1.727-1.278-2.427c-0.291-0.311-0.313-0.792-0.439-1.189c-0.332-1.041-0.873-2.003-1.122-3.077
	c-0.192-0.827-0.581-1.616-0.72-2.449c-0.261-1.558-0.967-3.035-0.848-4.659c0.01-0.151,0.028-0.322-0.03-0.456
	c-0.467-1.089-0.298-2.304-0.675-3.411c-0.075-0.222-0.03-0.486-0.03-0.732C90.976,214.324,90.978,213.093,90.978,211.863z
	 M306.862,306.773c3.387,0.137,7.561-0.118,11.736-0.186c0.123,0,0.249,0.013,0.367-0.018c1.288-0.341,2.623-0.2,3.926-0.301
	c1.799-0.134,3.597-0.306,5.391-0.469c0.779-0.071,1.579-0.106,2.367-0.24c1.047-0.18,2.112-0.377,3.174-0.418
	c1.143-0.046,2.255-0.249,3.356-0.463c2.305-0.449,4.61-0.918,6.878-1.565c3.247-0.926,6.456-1.964,9.521-3.374
	c3.654-1.683,7.204-3.576,10.369-6.096c1.053-0.838,2.081-1.716,3.059-2.638c0.532-0.5,0.944-1.123,1.476-1.636
	c0.958-0.918,1.703-2.017,2.432-3.105c1.672-2.504,3.149-5.114,4.351-7.883c1.284-2.961,2.384-5.979,3.221-9.094
	c0.825-3.069,1.465-6.175,1.894-9.333c0.249-1.842,0.472-3.689,0.667-5.538c0.171-1.638,0.246-3.292,0.367-4.936
	c0.113-1.557,0.021-3.124,0.192-4.686c0.096-0.881,0.036-1.783,0.017-2.675c-0.091-4.02,0.169-8.044-0.159-12.065
	c-0.138-1.705-0.098-3.43-0.167-5.143c-0.064-1.593-0.327-3.177-0.229-4.774c0.004-0.092-0.007-0.186-0.027-0.274
	c-0.289-1.201-0.169-2.435-0.303-3.652c-0.114-1.058-0.204-2.131-0.271-3.197c-0.046-0.727-0.04-1.472-0.172-2.193
	c-0.27-1.506-0.319-3.033-0.492-4.549c-0.146-1.303-0.349-2.602-0.438-3.916c-0.085-1.242-0.337-2.474-0.503-3.714
	c-0.207-1.543-0.369-3.091-0.599-4.631c-0.265-1.81-0.586-3.61-0.877-5.418c-0.326-2.019-0.612-4.044-0.977-6.056
	c-0.44-2.432-0.954-4.852-1.415-7.28c-0.898-4.741-1.968-9.45-3.089-14.144c-1.07-4.493-2.267-8.955-3.519-13.403
	c-1.195-4.244-2.411-8.482-3.765-12.677c-1.667-5.165-3.383-10.313-5.289-15.399c-1.644-4.393-3.323-8.768-5.103-13.107
	c-1.561-3.802-3.188-7.573-4.871-11.319c-1.51-3.359-3.104-6.682-4.707-9.997c-1.58-3.262-3.258-6.475-4.996-9.655
	c-0.974-1.777-1.87-3.596-2.885-5.349c-1.75-3.024-3.472-6.065-5.312-9.037c-2.066-3.336-4.163-6.647-6.405-9.871
	c-2.309-3.32-4.691-6.575-7.294-9.673c-1.421-1.69-2.933-3.296-4.421-4.921c-0.579-0.632-1.266-1.162-1.886-1.75
	c-1.627-1.54-3.336-2.974-5.105-4.342c-2.606-2.011-5.389-3.73-8.302-5.258c-1.279-0.672-2.637-1.161-3.973-1.697
	c-3.099-1.24-6.351-1.815-9.661-1.973c-2.478-0.119-4.973-0.122-7.446,0.181c-0.762,0.093-1.542,0.055-2.281,0.201
	c-1.973,0.391-3.965,0.688-5.92,1.188c-2.823,0.724-5.6,1.58-8.328,2.604c-4.115,1.542-8.086,3.384-11.972,5.432
	c-2.607,1.373-5.186,2.793-7.747,4.249c-2.667,1.516-5.287,3.104-7.879,4.741c-2.615,1.652-5.211,3.335-7.758,5.094
	c-2.216,1.531-4.443,3.049-6.637,4.614c-3.416,2.434-6.771,4.946-10.084,7.517c-2.781,2.157-5.524,4.355-8.25,6.582
	c-2.631,2.15-5.201,4.37-7.793,6.562c-1.707,1.443-3.375,2.935-5.012,4.458c-1.571,1.462-3.143,2.923-4.734,4.362
	c-1.32,1.193-2.577,2.458-3.848,3.701c-2.767,2.707-5.58,5.37-8.162,8.262c-1.348,1.51-2.817,2.911-4.21,4.383
	c-1.223,1.293-2.409,2.621-3.638,3.91c-0.673,0.708-1.351,1.422-1.998,2.158c-1.112,1.264-2.192,2.555-3.298,3.824
	c-0.986,1.131-2.012,2.229-2.978,3.377c-1.378,1.639-2.718,3.309-4.074,4.966c-1.434,1.752-2.898,3.481-4.292,5.265
	c-1.734,2.217-3.4,4.486-5.113,6.72c-2.833,3.694-5.533,7.484-8.179,11.312c-1.864,2.698-3.719,5.402-5.478,8.172
	c-1.478,2.33-2.985,4.64-4.412,7.001c-1.634,2.702-3.268,5.403-4.829,8.148c-1.82,3.202-3.64,6.404-5.287,9.696
	c-1.525,3.051-3.126,6.064-4.504,9.187c-0.768,1.74-1.591,3.456-2.303,5.218c-1.413,3.494-2.763,7.014-3.739,10.662
	c-0.665,2.481-1.272,4.973-1.661,7.514c-0.236,1.54-0.424,3.082-0.597,4.63c-0.16,1.432-0.181,2.868-0.283,4.298
	c-0.145,2.014,0.15,4.028,0.314,6.043c0.194,2.394,0.704,4.71,1.431,6.988c0.91,2.85,2.25,5.492,3.747,8.076
	c2.086,3.604,4.672,6.825,7.462,9.877c2.213,2.419,4.638,4.636,7.188,6.719c2.517,2.06,5.143,3.956,7.825,5.782
	c2.078,1.417,4.188,2.784,6.321,4.114c2.967,1.853,5.996,3.595,9.043,5.303c2.221,1.247,4.459,2.466,6.723,3.633
	c3.986,2.06,8.007,4.051,12.074,5.942c2.584,1.206,5.207,2.327,7.823,3.462c2.306,1.001,4.617,1.991,6.941,2.946
	c2.099,0.861,4.221,1.662,6.326,2.503c4.044,1.617,8.148,3.065,12.261,4.493c5.327,1.849,10.713,3.521,16.13,5.089
	c3.205,0.927,6.417,1.827,9.645,2.668c4.528,1.18,9.076,2.274,13.644,3.296c2.296,0.512,4.587,1.058,6.903,1.47
	c2.886,0.512,5.755,1.109,8.646,1.59c2.077,0.344,4.155,0.681,6.233,1.019c1.413,0.231,2.841,0.393,4.259,0.611
	c1.205,0.187,2.412,0.376,3.623,0.511c1.123,0.125,2.239,0.296,3.366,0.411c1.272,0.129,2.533,0.389,3.809,0.487
	c1.494,0.113,2.984,0.265,4.47,0.428c1.638,0.181,3.283,0.298,4.921,0.48c1.637,0.181,3.29,0.264,4.936,0.373
	c2.075,0.14,4.155,0.322,6.229,0.354c2.731,0.041,5.458,0.229,8.189,0.227C302.135,306.773,304.103,306.773,306.862,306.773z"/>
<path fill-rule="evenodd" clip-rule="evenodd" fill="#FEFEFE" d="M306.862,306.773c-2.76,0-4.728,0-6.695,0
	c-2.731,0.003-5.458-0.186-8.189-0.227c-2.073-0.031-4.153-0.214-6.229-0.354c-1.646-0.109-3.299-0.192-4.936-0.373
	c-1.638-0.183-3.283-0.3-4.921-0.48c-1.485-0.163-2.976-0.314-4.47-0.428c-1.275-0.099-2.536-0.358-3.809-0.487
	c-1.127-0.115-2.243-0.286-3.366-0.411c-1.211-0.135-2.418-0.324-3.623-0.511c-1.418-0.219-2.846-0.38-4.259-0.611
	c-2.078-0.338-4.156-0.675-6.233-1.019c-2.891-0.48-5.76-1.078-8.646-1.59c-2.316-0.412-4.607-0.958-6.903-1.47
	c-4.567-1.021-9.116-2.116-13.644-3.296c-3.227-0.841-6.439-1.741-9.645-2.668c-5.417-1.567-10.803-3.24-16.13-5.089
	c-4.113-1.428-8.217-2.876-12.261-4.493c-2.105-0.841-4.228-1.642-6.326-2.503c-2.324-0.955-4.636-1.945-6.941-2.946
	c-2.616-1.135-5.238-2.256-7.823-3.462c-4.067-1.892-8.088-3.883-12.074-5.942c-2.263-1.167-4.501-2.386-6.723-3.633
	c-3.047-1.708-6.076-3.45-9.043-5.303c-2.133-1.33-4.243-2.697-6.321-4.114c-2.683-1.826-5.308-3.723-7.825-5.782
	c-2.55-2.083-4.975-4.3-7.188-6.719c-2.79-3.052-5.376-6.273-7.462-9.877c-1.497-2.584-2.837-5.227-3.747-8.076
	c-0.727-2.278-1.237-4.595-1.431-6.988c-0.164-2.015-0.459-4.029-0.314-6.043c0.103-1.43,0.123-2.866,0.283-4.298
	c0.172-1.548,0.361-3.09,0.597-4.63c0.389-2.541,0.997-5.032,1.661-7.514c0.976-3.648,2.326-7.168,3.739-10.662
	c0.712-1.762,1.535-3.478,2.303-5.218c1.378-3.122,2.979-6.136,4.504-9.187c1.647-3.292,3.466-6.494,5.287-9.696
	c1.561-2.746,3.194-5.447,4.829-8.148c1.427-2.361,2.935-4.672,4.412-7.001c1.759-2.77,3.614-5.474,5.478-8.172
	c2.646-3.828,5.346-7.618,8.179-11.312c1.713-2.234,3.379-4.503,5.113-6.72c1.395-1.784,2.859-3.512,4.292-5.265
	c1.356-1.657,2.696-3.327,4.074-4.966c0.966-1.148,1.992-2.246,2.978-3.377c1.105-1.269,2.186-2.56,3.298-3.824
	c0.647-0.735,1.325-1.45,1.998-2.158c1.229-1.289,2.415-2.617,3.638-3.91c1.393-1.473,2.863-2.873,4.21-4.383
	c2.582-2.893,5.396-5.556,8.162-8.262c1.271-1.243,2.528-2.508,3.848-3.701c1.592-1.439,3.164-2.9,4.734-4.362
	c1.637-1.523,3.305-3.015,5.012-4.458c2.592-2.193,5.162-4.413,7.793-6.562c2.726-2.227,5.469-4.424,8.25-6.582
	c3.313-2.571,6.668-5.083,10.084-7.517c2.194-1.565,4.421-3.083,6.637-4.614c2.547-1.758,5.143-3.442,7.758-5.094
	c2.592-1.637,5.211-3.225,7.879-4.741c2.562-1.456,5.14-2.876,7.747-4.249c3.886-2.047,7.856-3.89,11.972-5.432
	c2.729-1.024,5.505-1.88,8.328-2.604c1.955-0.501,3.947-0.797,5.92-1.188c0.739-0.146,1.52-0.108,2.281-0.201
	c2.474-0.303,4.969-0.3,7.446-0.181c3.311,0.158,6.562,0.733,9.661,1.973c1.336,0.536,2.693,1.024,3.973,1.697
	c2.913,1.527,5.695,3.247,8.302,5.258c1.77,1.368,3.479,2.802,5.105,4.342c0.62,0.588,1.307,1.118,1.886,1.75
	c1.488,1.625,3,3.231,4.421,4.921c2.603,3.098,4.985,6.353,7.294,9.673c2.242,3.224,4.339,6.535,6.405,9.871
	c1.841,2.972,3.562,6.013,5.312,9.037c1.015,1.752,1.911,3.572,2.885,5.349c1.738,3.18,3.416,6.393,4.996,9.655
	c1.604,3.314,3.197,6.637,4.707,9.997c1.684,3.746,3.311,7.517,4.871,11.319c1.779,4.339,3.459,8.715,5.103,13.107
	c1.906,5.085,3.622,10.234,5.289,15.399c1.354,4.194,2.569,8.433,3.765,12.677c1.252,4.448,2.448,8.91,3.519,13.403
	c1.121,4.693,2.19,9.402,3.089,14.144c0.461,2.429,0.975,4.849,1.415,7.28c0.364,2.012,0.65,4.037,0.977,6.056
	c0.291,1.808,0.612,3.608,0.877,5.418c0.229,1.54,0.392,3.088,0.599,4.631c0.166,1.24,0.418,2.472,0.503,3.714
	c0.089,1.314,0.291,2.613,0.438,3.916c0.173,1.516,0.223,3.043,0.492,4.549c0.132,0.722,0.126,1.467,0.172,2.193
	c0.067,1.066,0.157,2.14,0.271,3.197c0.134,1.218,0.014,2.451,0.303,3.652c0.021,0.089,0.031,0.183,0.027,0.274
	c-0.098,1.598,0.165,3.182,0.229,4.774c0.069,1.713,0.029,3.438,0.167,5.143c0.328,4.021,0.068,8.046,0.159,12.065
	c0.02,0.892,0.079,1.794-0.017,2.675c-0.171,1.562-0.079,3.129-0.192,4.686c-0.121,1.644-0.196,3.298-0.367,4.936
	c-0.195,1.849-0.418,3.696-0.667,5.538c-0.429,3.158-1.068,6.264-1.894,9.333c-0.837,3.115-1.937,6.133-3.221,9.094
	c-1.201,2.769-2.679,5.379-4.351,7.883c-0.729,1.089-1.474,2.188-2.432,3.105c-0.531,0.513-0.943,1.136-1.476,1.636
	c-0.978,0.922-2.006,1.8-3.059,2.638c-3.165,2.52-6.715,4.413-10.369,6.096c-3.064,1.41-6.273,2.448-9.521,3.374
	c-2.268,0.647-4.573,1.116-6.878,1.565c-1.102,0.214-2.214,0.417-3.356,0.463c-1.062,0.041-2.127,0.238-3.174,0.418
	c-0.788,0.134-1.588,0.169-2.367,0.24c-1.794,0.163-3.592,0.335-5.391,0.469c-1.303,0.101-2.638-0.04-3.926,0.301
	c-0.118,0.03-0.244,0.018-0.367,0.018C314.423,306.655,310.249,306.91,306.862,306.773z M295.075,182.161
	c0.164,0.084,0.332,0.16,0.492,0.248c4.719,2.614,9.757,4.122,15.15,4.45c5.979,0.363,11.688-0.706,17.112-3.211
	c15.453-7.139,23.66-24.468,18.554-41.063c-4.97-16.153-21.015-26.114-37.577-24.166c-5.932,0.699-11.371,2.746-16.267,6.193
	c-0.124,0.087-0.265,0.151-0.396,0.225c-1.103-0.541-2.157-1.166-3.279-1.676c-4.016-1.825-8.233-2.81-12.612-3.109
	c-2.516-0.172-5.04-0.027-7.525,0.391c-4.519,0.76-8.787,2.257-12.728,4.633c-3.749,2.26-6.976,5.108-9.636,8.592
	c-2.16,2.826-3.858,5.905-5.074,9.25c-1.041,2.87-1.716,5.831-1.903,8.869c-0.129,2.108-0.15,4.231,0.118,6.348
	c0.255,2.013,0.621,3.998,1.208,5.935c1.373,4.524,3.545,8.614,6.613,12.229c2.1,2.473,4.468,4.649,7.167,6.45
	c3.321,2.215,6.914,3.847,10.782,4.863c2.021,0.531,4.068,0.916,6.149,1.035c1.586,0.092,3.167,0.2,4.773,0.075
	c1.809-0.144,3.603-0.343,5.367-0.713c4.029-0.844,7.809-2.339,11.321-4.502C293.616,183.06,294.277,182.496,295.075,182.161z
	 M262.639,203.456c0.002,0,0.009,0,0.013,0c0-0.432,0.002-0.861,0-1.293c-0.001-1.564-0.065-1.658-1.52-2.208
	c-0.23-0.086-0.464-0.163-0.699-0.232c-4.308-1.3-8.665-1.455-13.008-0.309c-5.288,1.396-8.684,4.797-10.047,10.118
	c-0.845,3.296-0.856,6.64-0.146,9.962c1.188,5.562,4.575,9.04,10.105,10.395c3.578,0.874,7.185,0.831,10.795,0.2
	c1.308-0.229,2.567-0.615,3.746-1.238c0.386-0.207,0.751-0.447,0.752-0.959c0.006-1.413,0.029-2.829-0.001-4.242
	c-0.014-0.552-0.345-0.773-0.876-0.623c-0.379,0.105-0.736,0.3-1.095,0.479c-2.503,1.251-5.137,1.786-7.941,1.526
	c-3.685-0.34-6.533-2.591-7.643-6.12c-0.655-2.092-0.719-4.23-0.466-6.385c0.071-0.609,0.188-1.22,0.349-1.809
	c1.193-4.316,4.309-6.318,8.448-6.534c2.881-0.149,5.622,0.384,8.129,1.9c0.659,0.401,1.05,0.178,1.096-0.601
	C262.669,204.81,262.639,204.131,262.639,203.456z M282.25,229.047c0.304,1.119,0.304,1.12,1.502,1.121
	c1.352,0,2.702,0.006,4.057-0.001c0.967-0.005,1.142-0.17,1.144-1.114c0.003-7.162,0.003-14.324,0-21.488
	c-0.002-0.941-0.169-1.096-1.153-1.1c-1.536-0.006-3.075-0.003-4.61-0.002c-0.154,0-0.31-0.009-0.461,0.005
	c-0.61,0.049-0.753,0.189-0.792,0.78c-0.013,0.216-0.003,0.43-0.003,0.646c0,4.55-0.003,9.1,0.003,13.649
	c0.001,0.525-0.031,1.045-0.148,1.558c-0.234,1.035-0.847,1.755-1.856,2.11c-0.8,0.284-1.625,0.308-2.457,0.215
	c-1.523-0.172-2.544-0.98-3.078-2.414c-0.304-0.818-0.389-1.667-0.387-2.535c0.004-4.213,0.002-8.423,0.001-12.636
	c0-1.324-0.055-1.376-1.42-1.378c-1.415-0.001-2.828-0.001-4.242,0c-0.185,0-0.37-0.009-0.554,0.005
	c-0.601,0.049-0.749,0.2-0.789,0.786c-0.012,0.185-0.003,0.369-0.003,0.553c0,4.704,0,9.408,0.003,14.109
	c0,0.492,0.006,0.986,0.043,1.476c0.295,3.894,2.751,6.473,6.593,7.011c2.507,0.353,4.892-0.045,7.212-0.994
	C281.301,229.223,281.735,228.979,282.25,229.047z M341.979,219.674c2.365,0,4.731,0.004,7.099-0.003
	c0.842-0.003,0.987-0.143,1.005-0.941c0.03-1.568-0.012-3.132-0.39-4.669c-0.989-4.025-3.414-6.667-7.489-7.65
	c-2.4-0.581-4.816-0.492-7.207,0.126c-3.446,0.891-5.8,3.006-6.921,6.388c-1.167,3.508-1.236,7.079-0.114,10.6
	c1.095,3.432,3.397,5.704,6.953,6.593c0.744,0.189,1.509,0.282,2.272,0.335c3.565,0.252,7.052-0.052,10.421-1.34
	c0.738-0.281,1.092-0.737,1.087-1.511c-0.006-0.859,0.003-1.72,0-2.58c-0.003-1.464-0.243-1.606-1.52-0.874
	c-2.456,1.408-5.09,1.917-7.894,1.615c-3.096-0.333-5.052-2.436-5.054-5.422c-0.002-0.647-0.002-0.662,0.652-0.663
	C337.244,219.67,339.61,219.674,341.979,219.674z M295.785,218.384c0,2.183,0,4.365,0,6.548c0,1.446-0.009,2.891,0.006,4.336
	c0.005,0.675,0.172,0.883,0.774,0.892c1.813,0.021,3.629,0.021,5.443,0c0.563-0.009,0.74-0.231,0.785-0.807
	c0.016-0.214,0.004-0.432,0.004-0.646c0-4.49,0-8.979,0-13.469c0-0.616,0.015-1.228,0.203-1.823
	c0.243-0.763,0.738-1.258,1.501-1.493c0.475-0.146,0.96-0.189,1.454-0.202c1.394-0.04,2.756,0.106,4.099,0.5
	c0.741,0.218,1.073,0.012,1.091-0.662c0.034-1.352,0.028-2.704-0.004-4.058c-0.014-0.554-0.288-0.804-0.847-0.932
	c-0.208-0.049-0.426-0.085-0.64-0.092c-1.921-0.051-3.807,0.101-5.593,0.895c-0.334,0.149-0.678,0.293-1.032,0.387
	c-0.602,0.162-0.675,0.122-0.717-0.518c-0.033-0.492-0.238-0.764-0.722-0.767c-1.691-0.012-3.381-0.02-5.071,0.003
	c-0.545,0.009-0.688,0.2-0.729,0.745c-0.018,0.215-0.006,0.431-0.006,0.646C295.785,211.373,295.785,214.877,295.785,218.384z
	 M322.227,218.383c0-3.627,0.005-7.256-0.002-10.883c-0.003-0.886-0.136-1.026-1.01-1.032c-1.658-0.012-3.319-0.012-4.979,0
	c-0.857,0.006-1.017,0.168-1.017,1.034c-0.005,7.192-0.005,14.386-0.003,21.58c0,0.92,0.156,1.078,1.068,1.084
	c1.599,0.008,3.197,0.006,4.796,0.001c1.05-0.004,1.144-0.103,1.144-1.179C322.228,225.452,322.228,221.917,322.227,218.383z
	 M218.287,219.809c0-3.044,0-6.084,0-9.127c0-0.246,0.008-0.493-0.015-0.738c-0.03-0.314-0.234-0.529-0.532-0.549
	c-0.517-0.035-1.042-0.027-1.562,0.011c-0.26,0.021-0.438,0.227-0.455,0.504c-0.02,0.275-0.016,0.554-0.016,0.829
	c-0.001,4.825,0,9.651-0.001,14.477c0,1.848-0.622,2.657-2.428,3.165c-1.319,0.375-2.673,0.443-4.022,0.3
	c-2.301-0.245-3.78-1.489-4.322-3.545c-0.181-0.687-0.237-1.39-0.237-2.1c0.005-4.118,0.003-8.235,0.002-12.354
	c0-1.323-0.002-1.323-1.348-1.316c-1.116,0.006-1.169,0.058-1.17,1.227c-0.003,2.918-0.008,5.839,0.001,8.759
	c0.007,1.813-0.061,3.627,0.055,5.438c0.181,2.827,1.717,4.686,4.442,5.41c1.925,0.514,3.838,0.37,5.738-0.107
	c0.95-0.239,1.879-0.561,2.816-0.853c0.67-0.211,0.681-0.223,0.877,0.429c0.055,0.188,0.105,0.387,0.291,0.435
	c0.508,0.13,1.045,0.179,1.534-0.019c0.473-0.187,0.349-0.667,0.349-1.056C218.29,225.955,218.287,222.882,218.287,219.809z
	 M129.493,219.746c0,3.071-0.001,6.146,0.001,9.22c0.001,0.275-0.062,0.602,0.06,0.816c0.419,0.738,1.16,0.298,1.755,0.385
	c0.427,0.062,0.701-0.188,0.739-0.632c0.021-0.246,0.014-0.49,0.014-0.736c0-3.997,0-7.992,0-11.987c0-1.017,0.02-2.03-0.005-3.044
	c-0.022-0.894,0.376-1.536,1.108-1.986c0.337-0.205,0.704-0.383,1.078-0.506c1.363-0.449,2.773-0.574,4.188-0.408
	c2.672,0.314,4.015,1.665,4.458,4.359c0.1,0.608,0.125,1.222,0.125,1.837c0,3.964,0,7.929,0.003,11.894
	c0,0.276-0.056,0.591,0.053,0.819c0.32,0.669,0.969,0.34,1.482,0.395c0.397,0.044,0.841,0.058,0.99-0.443
	c0.067-0.229,0.042-0.486,0.042-0.731c0.002-3.873-0.004-7.746,0.004-11.619c0.002-0.864-0.056-1.721-0.183-2.571
	c-0.411-2.763-1.905-4.607-4.627-5.372c-1.281-0.358-2.59-0.463-3.923-0.352c-1.582,0.131-3.071,0.56-4.513,1.205
	c-0.542,0.239-0.631,0.207-0.742-0.359c-0.084-0.435-0.305-0.565-0.69-0.562c-0.277,0.003-0.556-0.013-0.829,0.012
	c-0.349,0.03-0.566,0.225-0.581,0.591c-0.009,0.246-0.007,0.493-0.007,0.739C129.492,213.719,129.493,216.732,129.493,219.746z
	 M189.406,211.231c0.123,0.288,0.079,0.565,0.08,0.84c0.002,4.149,0,8.3,0.003,12.452c0,0.521-0.012,1.048,0.043,1.565
	c0.208,1.926,1.091,3.401,2.984,4.059c1.741,0.607,3.51,0.468,5.252-0.069c0.23-0.07,0.454-0.198,0.647-0.345
	c0.373-0.279,0.573-1.131,0.325-1.513c-0.333-0.512-0.726-0.083-1.054,0.032c-0.879,0.309-1.763,0.519-2.702,0.468
	c-1.589-0.084-2.638-1.024-2.863-2.599c-0.039-0.272-0.044-0.552-0.044-0.828c-0.003-4.458-0.004-8.916-0.001-13.374
	c0-0.744,0.01-0.753,0.755-0.754c1.692-0.005,3.383,0.006,5.074-0.006c0.77-0.006,0.917-0.173,0.907-0.925
	c-0.008-0.7-0.149-0.858-0.878-0.864c-1.691-0.015-3.382-0.007-5.073-0.006c-0.837,0-0.787,0.039-0.787-0.814
	c0.001-1.322,0.004-2.646,0-3.968c-0.003-1.097-0.062-1.15-1.146-1.155c-1.439-0.009-1.439-0.009-1.44,1.396
	c0,1.324-0.015,2.645,0.007,3.966c0.007,0.44-0.137,0.606-0.578,0.581c-0.46-0.028-0.922-0.012-1.383-0.006
	c-0.869,0.015-1.012,0.148-1.004,0.927c0.008,0.73,0.143,0.847,0.963,0.874C188.133,211.188,188.779,211.096,189.406,211.231z
	 M169.673,218.716c0-2.182,0-4.365,0-6.548c0-0.214,0.003-0.429,0.008-0.645c0.004-0.213,0.103-0.343,0.329-0.351
	c0.215-0.004,0.43-0.009,0.645-0.009c1.629,0,3.258,0.009,4.887-0.005c0.737-0.006,0.876-0.161,0.888-0.856
	c0.011-0.751-0.139-0.926-0.903-0.935c-1.567-0.012-3.135,0.003-4.703-0.006c-1.286-0.006-1.141,0.161-1.148-1.107
	c-0.009-1.32,0.009-2.643-0.008-3.964c-0.01-0.743-0.129-0.841-0.866-0.863c-0.308-0.009-0.616-0.012-0.923,0.003
	c-0.613,0.026-0.73,0.146-0.775,0.771c-0.014,0.185-0.005,0.369-0.005,0.553c0,1.047,0,2.091,0,3.137c0,1.473,0,1.473-1.429,1.474
	c-0.245,0-0.493-0.012-0.737,0.003c-0.625,0.037-0.792,0.223-0.803,0.864c-0.012,0.688,0.167,0.903,0.829,0.928
	c0.553,0.019,1.106,0.021,1.66,0.001c0.367-0.013,0.495,0.155,0.481,0.492c-0.008,0.216,0,0.431,0,0.647
	c0,4.117-0.002,8.237,0.005,12.356c0.001,0.582,0.019,1.169,0.092,1.747c0.279,2.166,1.716,3.627,3.864,3.989
	c0.579,0.098,1.158,0.158,1.743,0.124c0.797-0.05,1.595-0.115,2.364-0.35c0.382-0.117,0.755-0.271,1.032-0.581
	c0.227-0.255,0.347-1.152,0.154-1.399c-0.328-0.422-0.682-0.076-0.991,0.041c-0.932,0.354-1.88,0.562-2.881,0.485
	c-1.507-0.117-2.501-1.034-2.716-2.532c-0.065-0.455-0.085-0.919-0.087-1.38C169.667,222.774,169.673,220.744,169.673,218.716z
	 M224.963,218.758c0.003,0,0.005,0,0.005,0c0,2.243-0.025,4.485,0.009,6.728c0.035,2.491,1.26,4.197,3.416,4.786
	c1.613,0.438,3.225,0.295,4.813-0.166c0.326-0.093,0.632-0.251,0.864-0.513c0.273-0.307,0.371-1.083,0.154-1.39
	c-0.32-0.457-0.677-0.095-0.979,0.021c-0.931,0.354-1.879,0.563-2.879,0.491c-1.413-0.103-2.336-0.884-2.676-2.251
	c-0.096-0.389-0.147-0.783-0.147-1.185c0.001-4.456,0-8.91,0.003-13.365c0-0.736,0.012-0.745,0.764-0.748
	c1.69-0.005,3.381,0.006,5.072-0.005c0.755-0.005,0.949-0.211,0.945-0.911c-0.006-0.663-0.193-0.873-0.882-0.88
	c-1.659-0.014-3.32-0.005-4.979-0.005c-1.051-0.001-0.917,0.04-0.921-0.962c-0.004-1.165-0.001-2.334-0.001-3.503
	c0-1.483,0-1.483-1.454-1.473c-1.062,0.005-1.12,0.062-1.123,1.169c-0.004,1.413-0.013,2.826,0.005,4.239
	c0.004,0.397-0.123,0.554-0.526,0.535c-0.521-0.025-1.045-0.021-1.567-0.003c-0.716,0.023-0.864,0.184-0.87,0.879
	c-0.004,0.712,0.146,0.889,0.834,0.913c0.491,0.019,0.984-0.004,1.475,0.006c0.629,0.013,0.642,0.019,0.644,0.68
	C224.968,214.147,224.963,216.454,224.963,218.758z M155.221,230.553c0.687,0.057,1.359-0.067,2.009-0.235
	c2.148-0.555,3.703-1.789,4.223-4.031c0.535-2.302-0.055-4.258-1.998-5.715c-0.491-0.365-0.99-0.727-1.497-1.07
	c-1.093-0.743-2.199-1.464-3.287-2.211c-0.504-0.349-0.989-0.727-1.465-1.114c-0.761-0.621-0.983-1.458-0.895-2.396
	c0.133-1.408,1.021-2.397,2.436-2.781c1.299-0.349,2.557-0.167,3.796,0.266c0.608,0.212,1.18,0.511,1.757,0.799
	c0.643,0.323,0.848,0.15,0.908-0.589c0.065-0.807-0.355-1.28-1.021-1.576c-2.317-1.032-4.671-1.196-7.058-0.234
	c-3.448,1.387-3.917,6.581-1.406,8.57c0.554,0.439,1.108,0.874,1.688,1.276c1.46,1.022,2.993,1.937,4.376,3.064
	c1.144,0.933,1.472,2.146,1.139,3.556c-0.327,1.385-1.281,2.113-2.604,2.426c-1.723,0.408-3.347,0.1-4.901-0.699
	c-0.353-0.183-0.717-0.347-1.084-0.494c-0.232-0.095-0.42-0.005-0.514,0.24c-0.288,0.747,0.018,1.541,0.769,1.899
	C152.054,230.199,153.614,230.49,155.221,230.553z M123.699,219.811c0-2.921-0.001-5.842,0-8.763c0-1.656,0.269-1.727-1.821-1.681
	c-0.061,0.001-0.124,0.003-0.185,0.013c-0.31,0.047-0.503,0.232-0.543,0.539c-0.033,0.241-0.028,0.49-0.028,0.736
	c-0.001,6.086-0.001,12.174,0,18.263c0.001,0.245,0.005,0.492,0.032,0.735c0.027,0.229,0.153,0.43,0.382,0.472
	c0.576,0.104,1.163,0.09,1.74,0.007c0.222-0.033,0.378-0.213,0.398-0.453c0.02-0.244,0.023-0.49,0.023-0.736
	C123.699,225.898,123.699,222.854,123.699,219.811z M180.219,219.771c0,2.948-0.001,5.9,0,8.849c0,1.595,0,1.595,1.572,1.56
	c0.855-0.02,0.964-0.123,0.992-0.948c0.004-0.123,0-0.246,0-0.369c0-6.054,0-12.109-0.001-18.162c0-0.246,0-0.492-0.018-0.737
	c-0.021-0.314-0.197-0.546-0.504-0.567c-0.52-0.036-1.044-0.036-1.564,0.004c-0.254,0.021-0.436,0.224-0.455,0.507
	c-0.016,0.244-0.022,0.49-0.022,0.734C180.218,213.686,180.219,216.729,180.219,219.771z M318.61,203.364
	c0.752-0.018,1.454-0.082,2.126-0.319c1.213-0.429,1.909-1.354,1.984-2.61c0.07-1.206-0.553-2.33-1.683-2.827
	c-1.604-0.708-3.234-0.647-4.799,0.116c-1.07,0.523-1.503,1.464-1.462,2.652c0.039,1.187,0.562,2.039,1.64,2.548
	C317.129,203.259,317.889,203.321,318.61,203.364z M181.548,201.276c-1.188-0.018-1.733,0.519-1.765,1.735
	c-0.031,1.256,0.459,1.785,1.666,1.795c1.217,0.007,1.748-0.511,1.771-1.724C183.243,201.834,182.744,201.294,181.548,201.276z
	 M120.708,203.024c-0.022,1.232,0.431,1.742,1.582,1.782c1.268,0.04,1.828-0.487,1.846-1.737c0.019-1.252-0.477-1.781-1.68-1.795
	C121.271,201.264,120.729,201.806,120.708,203.024z"/>
<path fill-rule="evenodd" clip-rule="evenodd" fill="#EF8023" d="M292.144,124.838c0.132-0.074,0.272-0.138,0.396-0.225
	c4.896-3.447,10.335-5.494,16.267-6.193c16.562-1.949,32.607,8.013,37.577,24.166c5.106,16.595-3.101,33.924-18.554,41.063
	c-5.425,2.505-11.134,3.574-17.112,3.211c-5.394-0.328-10.432-1.836-15.15-4.45c-0.16-0.088-0.328-0.164-0.492-0.248
	c0.003-0.047-0.003-0.095-0.019-0.139c2.25-1.666,4.378-3.462,6.098-5.695c0.069-0.026,0.139-0.052,0.208-0.078
	c3.081,0.117,6.145-0.136,9.191-0.534c5.991-0.787,11.8-2.301,17.395-4.598c3.53-1.447,6.95-3.104,10.066-5.336
	c1.158-0.828,2.165-1.809,3.031-2.943c1.378-1.803,1.72-3.823,1.371-6.015c-0.335-2.096-1.166-4.011-2.185-5.839
	c-6.102-10.953-14.637-19.498-25.535-25.683c-1.55-0.88-3.173-1.6-4.911-2.051c-3.207-0.831-6.012-0.17-8.426,2.12
	c-0.763,0.722-1.451,1.503-2.09,2.333c-0.353,0.46-0.611,0.993-1.05,1.386c-0.465-0.106-0.814-0.409-1.147-0.717
	c-1.037-0.955-2.185-1.764-3.354-2.533c-0.498-0.329-0.974-0.754-1.605-0.852C292.125,124.939,292.135,124.888,292.144,124.838z"/>
<path fill-rule="evenodd" clip-rule="evenodd" fill="#B6B2B3" d="M295.057,182.022c0.016,0.044,0.021,0.092,0.019,0.139
	c-0.798,0.335-1.459,0.898-2.19,1.348c-3.513,2.163-7.292,3.658-11.321,4.502c-1.765,0.37-3.559,0.569-5.367,0.713
	c-1.606,0.125-3.188,0.017-4.773-0.075c-2.081-0.119-4.129-0.504-6.149-1.035c-3.868-1.017-7.461-2.648-10.782-4.863
	c-2.699-1.801-5.067-3.978-7.167-6.45c-3.068-3.615-5.24-7.705-6.613-12.229c-0.587-1.937-0.952-3.922-1.208-5.935
	c-0.268-2.117-0.247-4.24-0.118-6.348c0.188-3.039,0.863-6,1.903-8.869c1.216-3.345,2.914-6.423,5.074-9.25
	c2.66-3.484,5.887-6.332,9.636-8.592c3.94-2.376,8.209-3.873,12.728-4.633c2.485-0.418,5.01-0.563,7.525-0.391
	c4.379,0.3,8.597,1.284,12.612,3.109c1.122,0.51,2.177,1.135,3.279,1.676c-0.009,0.05-0.019,0.101-0.031,0.151
	c-0.132,0.072-0.277,0.13-0.397,0.221c-2.02,1.514-3.853,3.232-5.497,5.147c-0.796,0.926-1.616,1.842-2.188,2.939
	c-0.048,0.02-0.098,0.028-0.147,0.024c-0.379-0.126-0.748-0.278-1.134-0.375c-3.361-0.838-6.745-1.517-10.194-1.905
	c-2.168-0.245-4.338-0.342-6.508-0.462c-2.021-0.111-4.039,0.104-6.057,0.299c-1.531,0.148-3.034,0.403-4.481,0.942
	c-1.797,0.668-3.373,1.641-4.399,3.318c-1.067,1.745-1.474,3.7-1.591,5.704c-0.188,3.258,0.081,6.503,0.573,9.721
	c0.57,3.729,1.454,7.394,2.64,10.981c1.559,4.714,3.61,9.202,6.181,13.447c1.418,2.34,2.952,4.604,5.019,6.444
	c2.275,2.023,4.834,2.888,7.897,2.123c2.549-0.636,4.784-1.883,6.977-3.249c2.611-1.624,5.009-3.537,7.392-5.474
	c0.277,0.283,0.56,0.561,0.83,0.852c2.137,2.305,4.547,4.277,7.218,5.934C294.499,181.78,294.734,181.993,295.057,182.022z"/>
<path fill-rule="evenodd" clip-rule="evenodd" fill="#EF8023" d="M262.639,203.456c0,0.675,0.03,1.354-0.009,2.027
	c-0.046,0.778-0.437,1.002-1.096,0.601c-2.507-1.517-5.248-2.05-8.129-1.9c-4.14,0.216-7.255,2.218-8.448,6.534
	c-0.16,0.589-0.277,1.199-0.349,1.809c-0.253,2.154-0.189,4.293,0.466,6.385c1.109,3.529,3.958,5.78,7.643,6.12
	c2.805,0.26,5.438-0.275,7.941-1.526c0.358-0.179,0.716-0.373,1.095-0.479c0.531-0.15,0.862,0.071,0.876,0.623
	c0.03,1.413,0.007,2.829,0.001,4.242c-0.001,0.512-0.366,0.752-0.752,0.959c-1.179,0.623-2.438,1.009-3.746,1.238
	c-3.61,0.631-7.217,0.674-10.795-0.2c-5.53-1.354-8.917-4.832-10.105-10.395c-0.71-3.322-0.699-6.666,0.146-9.962
	c1.363-5.321,4.759-8.723,10.047-10.118c4.343-1.146,8.7-0.991,13.008,0.309c0.235,0.069,0.469,0.146,0.699,0.232
	c1.454,0.55,1.519,0.644,1.52,2.208c0.002,0.432,0,0.861,0,1.293C262.647,203.456,262.641,203.456,262.639,203.456z"/>
<path fill-rule="evenodd" clip-rule="evenodd" fill="#EF8023" d="M282.25,229.047c-0.515-0.068-0.949,0.176-1.397,0.361
	c-2.32,0.949-4.705,1.347-7.212,0.994c-3.842-0.538-6.298-3.117-6.593-7.011c-0.037-0.489-0.043-0.983-0.043-1.476
	c-0.003-4.701-0.003-9.405-0.003-14.109c0-0.184-0.009-0.368,0.003-0.553c0.04-0.586,0.188-0.737,0.789-0.786
	c0.184-0.014,0.369-0.005,0.554-0.005c1.414-0.001,2.827-0.001,4.242,0c1.365,0.002,1.42,0.054,1.42,1.378
	c0.001,4.213,0.003,8.423-0.001,12.636c-0.002,0.868,0.083,1.717,0.387,2.535c0.534,1.434,1.555,2.242,3.078,2.414
	c0.832,0.093,1.657,0.069,2.457-0.215c1.01-0.355,1.622-1.075,1.856-2.11c0.117-0.513,0.149-1.032,0.148-1.558
	c-0.006-4.55-0.003-9.1-0.003-13.649c0-0.216-0.01-0.43,0.003-0.646c0.039-0.591,0.182-0.731,0.792-0.78
	c0.151-0.014,0.307-0.005,0.461-0.005c1.535-0.001,3.074-0.004,4.61,0.002c0.984,0.004,1.151,0.158,1.153,1.1
	c0.003,7.164,0.003,14.326,0,21.488c-0.002,0.944-0.177,1.109-1.144,1.114c-1.354,0.007-2.705,0.001-4.057,0.001
	C282.554,230.167,282.554,230.166,282.25,229.047z"/>
<path fill-rule="evenodd" clip-rule="evenodd" fill="#EF8023" d="M341.979,219.674c-2.368,0-4.734-0.004-7.099,0.003
	c-0.654,0.001-0.654,0.016-0.652,0.663c0.002,2.986,1.958,5.089,5.054,5.422c2.804,0.302,5.438-0.207,7.894-1.615
	c1.276-0.732,1.517-0.59,1.52,0.874c0.003,0.86-0.006,1.721,0,2.58c0.005,0.773-0.349,1.229-1.087,1.511
	c-3.369,1.288-6.855,1.592-10.421,1.34c-0.764-0.053-1.528-0.146-2.272-0.335c-3.556-0.889-5.858-3.161-6.953-6.593
	c-1.122-3.521-1.053-7.092,0.114-10.6c1.121-3.382,3.475-5.497,6.921-6.388c2.391-0.618,4.807-0.707,7.207-0.126
	c4.075,0.983,6.5,3.625,7.489,7.65c0.378,1.537,0.42,3.101,0.39,4.669c-0.018,0.799-0.163,0.938-1.005,0.941
	C346.71,219.678,344.344,219.674,341.979,219.674z M338.632,215.393c1.29,0,2.583,0.001,3.874-0.003
	c0.271,0,0.568,0.055,0.597-0.372c0.146-2.223-0.835-3.806-2.811-4.43c-0.739-0.236-1.502-0.293-2.277-0.201
	c-2.541,0.3-3.879,1.854-3.83,4.418c0.008,0.423,0.111,0.604,0.571,0.597C336.048,215.375,337.339,215.393,338.632,215.393z"/>
<path fill-rule="evenodd" clip-rule="evenodd" fill="#EF8023" d="M295.785,218.384c0-3.507,0-7.011,0-10.517
	c0-0.215-0.012-0.431,0.006-0.646c0.041-0.545,0.185-0.736,0.729-0.745c1.69-0.022,3.38-0.015,5.071-0.003
	c0.483,0.003,0.688,0.274,0.722,0.767c0.042,0.64,0.115,0.68,0.717,0.518c0.354-0.094,0.698-0.237,1.032-0.387
	c1.786-0.794,3.672-0.945,5.593-0.895c0.214,0.007,0.432,0.043,0.64,0.092c0.559,0.128,0.833,0.378,0.847,0.932
	c0.032,1.354,0.038,2.706,0.004,4.058c-0.018,0.674-0.35,0.88-1.091,0.662c-1.343-0.394-2.705-0.54-4.099-0.5
	c-0.494,0.013-0.979,0.057-1.454,0.202c-0.763,0.235-1.258,0.73-1.501,1.493c-0.188,0.596-0.203,1.207-0.203,1.823
	c0,4.49,0,8.979,0,13.469c0,0.214,0.012,0.432-0.004,0.646c-0.045,0.575-0.222,0.798-0.785,0.807c-1.814,0.021-3.63,0.021-5.443,0
	c-0.603-0.009-0.77-0.217-0.774-0.892c-0.015-1.445-0.006-2.89-0.006-4.336C295.785,222.749,295.785,220.566,295.785,218.384z"/>
<path fill-rule="evenodd" clip-rule="evenodd" fill="#EF8023" d="M322.227,218.383c0.001,3.534,0.001,7.069-0.002,10.605
	c0,1.076-0.094,1.175-1.144,1.179c-1.599,0.005-3.197,0.007-4.796-0.001c-0.912-0.006-1.068-0.164-1.068-1.084
	c-0.002-7.194-0.002-14.388,0.003-21.58c0-0.866,0.159-1.028,1.017-1.034c1.659-0.012,3.32-0.012,4.979,0
	c0.874,0.006,1.007,0.146,1.01,1.032C322.231,211.127,322.227,214.756,322.227,218.383z"/>
<path fill-rule="evenodd" clip-rule="evenodd" fill="#5A5A5E" d="M218.287,219.809c0,3.073,0.002,6.146-0.003,9.219
	c0,0.389,0.124,0.869-0.349,1.056c-0.489,0.197-1.026,0.148-1.534,0.019c-0.185-0.048-0.236-0.246-0.291-0.435
	c-0.196-0.651-0.207-0.64-0.877-0.429c-0.937,0.292-1.866,0.613-2.816,0.853c-1.899,0.478-3.812,0.621-5.738,0.107
	c-2.725-0.725-4.262-2.583-4.442-5.41c-0.116-1.811-0.048-3.624-0.055-5.438c-0.01-2.92-0.004-5.841-0.001-8.759
	c0.001-1.169,0.054-1.221,1.17-1.227c1.346-0.007,1.348-0.007,1.348,1.316c0.001,4.118,0.003,8.235-0.002,12.354
	c0,0.71,0.056,1.413,0.237,2.1c0.542,2.056,2.021,3.3,4.322,3.545c1.349,0.144,2.703,0.075,4.022-0.3
	c1.806-0.508,2.428-1.317,2.428-3.165c0.001-4.825,0-9.651,0.001-14.477c0-0.275-0.004-0.554,0.016-0.829
	c0.017-0.277,0.194-0.483,0.455-0.504c0.519-0.038,1.044-0.046,1.562-0.011c0.298,0.02,0.502,0.234,0.532,0.549
	c0.022,0.245,0.015,0.492,0.015,0.738C218.287,213.725,218.287,216.765,218.287,219.809z"/>
<path fill-rule="evenodd" clip-rule="evenodd" fill="#5A5A5E" d="M129.493,219.746c0-3.014,0-6.027,0-9.039
	c0-0.246-0.002-0.493,0.007-0.739c0.015-0.366,0.232-0.561,0.581-0.591c0.273-0.024,0.552-0.009,0.829-0.012
	c0.385-0.003,0.606,0.128,0.69,0.562c0.111,0.566,0.201,0.599,0.742,0.359c1.442-0.646,2.932-1.074,4.513-1.205
	c1.333-0.111,2.643-0.007,3.923,0.352c2.722,0.765,4.216,2.609,4.627,5.372c0.126,0.851,0.185,1.707,0.183,2.571
	c-0.008,3.873-0.002,7.746-0.004,11.619c0,0.245,0.025,0.503-0.042,0.731c-0.149,0.501-0.593,0.487-0.99,0.443
	c-0.513-0.055-1.163,0.274-1.482-0.395c-0.109-0.229-0.053-0.543-0.053-0.819c-0.003-3.965-0.002-7.93-0.003-11.894
	c0-0.615-0.024-1.229-0.125-1.837c-0.443-2.694-1.785-4.045-4.458-4.359c-1.415-0.166-2.825-0.041-4.188,0.408
	c-0.375,0.123-0.741,0.301-1.078,0.506c-0.732,0.45-1.13,1.093-1.108,1.986c0.025,1.014,0.005,2.027,0.005,3.044
	c0,3.995,0,7.99,0,11.987c0,0.246,0.007,0.49-0.014,0.736c-0.038,0.444-0.312,0.694-0.739,0.632
	c-0.596-0.087-1.336,0.354-1.755-0.385c-0.122-0.215-0.059-0.541-0.06-0.816C129.491,225.893,129.493,222.817,129.493,219.746z"/>
<path fill-rule="evenodd" clip-rule="evenodd" fill="#5A5A5E" d="M189.406,211.231c-0.626-0.136-1.273-0.044-1.914-0.065
	c-0.821-0.027-0.955-0.144-0.963-0.874c-0.007-0.778,0.136-0.912,1.004-0.927c0.46-0.006,0.923-0.022,1.383,0.006
	c0.441,0.025,0.585-0.141,0.578-0.581c-0.022-1.321-0.008-2.642-0.007-3.966c0-1.405,0.001-1.405,1.44-1.396
	c1.083,0.005,1.142,0.059,1.146,1.155c0.004,1.322,0.001,2.646,0,3.968c0,0.854-0.05,0.814,0.787,0.814
	c1.69-0.001,3.382-0.009,5.073,0.006c0.729,0.006,0.871,0.164,0.878,0.864c0.009,0.752-0.137,0.919-0.907,0.925
	c-1.691,0.012-3.382,0.001-5.074,0.006c-0.745,0.001-0.755,0.01-0.755,0.754c-0.003,4.458-0.001,8.916,0.001,13.374
	c0,0.276,0.005,0.556,0.044,0.828c0.225,1.574,1.274,2.515,2.863,2.599c0.939,0.051,1.823-0.159,2.702-0.468
	c0.329-0.115,0.721-0.544,1.054-0.032c0.249,0.382,0.048,1.233-0.325,1.513c-0.193,0.146-0.417,0.274-0.647,0.345
	c-1.742,0.537-3.511,0.677-5.252,0.069c-1.894-0.657-2.776-2.133-2.984-4.059c-0.056-0.518-0.043-1.044-0.043-1.565
	c-0.003-4.152-0.001-8.303-0.003-12.452C189.485,211.797,189.529,211.52,189.406,211.231z"/>
<path fill-rule="evenodd" clip-rule="evenodd" fill="#5A5A5E" d="M169.673,218.716c0,2.028-0.005,4.059,0.003,6.086
	c0.002,0.461,0.022,0.925,0.087,1.38c0.215,1.498,1.209,2.415,2.716,2.532c1,0.077,1.949-0.131,2.881-0.485
	c0.309-0.117,0.663-0.463,0.991-0.041c0.193,0.247,0.073,1.145-0.154,1.399c-0.276,0.31-0.65,0.464-1.032,0.581
	c-0.769,0.234-1.566,0.3-2.364,0.35c-0.584,0.034-1.164-0.026-1.743-0.124c-2.148-0.362-3.584-1.823-3.864-3.989
	c-0.073-0.578-0.091-1.165-0.092-1.747c-0.007-4.119-0.005-8.239-0.005-12.356c0-0.217-0.008-0.432,0-0.647
	c0.013-0.337-0.115-0.505-0.481-0.492c-0.553,0.02-1.107,0.018-1.66-0.001c-0.661-0.024-0.841-0.239-0.829-0.928
	c0.011-0.642,0.179-0.827,0.803-0.864c0.245-0.015,0.492-0.003,0.737-0.003c1.429-0.001,1.429-0.001,1.429-1.474
	c0-1.046,0-2.09,0-3.137c0-0.184-0.009-0.368,0.005-0.553c0.045-0.626,0.162-0.745,0.775-0.771c0.307-0.015,0.615-0.012,0.923-0.003
	c0.737,0.022,0.856,0.12,0.866,0.863c0.017,1.321-0.001,2.644,0.008,3.964c0.008,1.269-0.137,1.102,1.148,1.107
	c1.568,0.009,3.136-0.006,4.703,0.006c0.764,0.009,0.914,0.184,0.903,0.935c-0.012,0.695-0.15,0.851-0.888,0.856
	c-1.629,0.014-3.258,0.005-4.887,0.005c-0.215,0-0.43,0.005-0.645,0.009c-0.226,0.008-0.324,0.138-0.329,0.351
	c-0.005,0.216-0.008,0.431-0.008,0.645C169.673,214.351,169.673,216.534,169.673,218.716z"/>
<path fill-rule="evenodd" clip-rule="evenodd" fill="#5A5A5E" d="M224.963,218.758c0-2.304,0.005-4.61-0.001-6.912
	c-0.001-0.661-0.015-0.667-0.644-0.68c-0.491-0.01-0.984,0.013-1.475-0.006c-0.689-0.024-0.839-0.201-0.834-0.913
	c0.005-0.695,0.154-0.855,0.87-0.879c0.521-0.018,1.045-0.022,1.567,0.003c0.403,0.019,0.531-0.138,0.526-0.535
	c-0.019-1.413-0.01-2.826-0.005-4.239c0.002-1.107,0.06-1.164,1.123-1.169c1.454-0.011,1.454-0.011,1.454,1.473
	c0,1.169-0.002,2.338,0.001,3.503c0.004,1.002-0.13,0.961,0.921,0.962c1.659,0,3.32-0.009,4.979,0.005
	c0.689,0.007,0.876,0.217,0.882,0.88c0.004,0.7-0.19,0.906-0.945,0.911c-1.69,0.011-3.381,0-5.072,0.005
	c-0.752,0.003-0.764,0.012-0.764,0.748c-0.003,4.455-0.001,8.909-0.003,13.365c0,0.401,0.052,0.796,0.147,1.185
	c0.339,1.367,1.263,2.148,2.676,2.251c1,0.072,1.948-0.137,2.879-0.491c0.302-0.115,0.66-0.478,0.979-0.021
	c0.216,0.307,0.119,1.083-0.154,1.39c-0.231,0.262-0.538,0.42-0.864,0.513c-1.588,0.461-3.201,0.604-4.813,0.166
	c-2.156-0.589-3.381-2.295-3.416-4.786c-0.034-2.242-0.009-4.484-0.009-6.728C224.968,218.758,224.966,218.758,224.963,218.758z"/>
<path fill-rule="evenodd" clip-rule="evenodd" fill="#5A5A5E" d="M155.221,230.553c-1.607-0.062-3.167-0.354-4.63-1.051
	c-0.75-0.358-1.056-1.152-0.769-1.899c0.094-0.245,0.281-0.335,0.514-0.24c0.368,0.147,0.731,0.312,1.084,0.494
	c1.555,0.799,3.179,1.107,4.901,0.699c1.324-0.312,2.277-1.041,2.604-2.426c0.333-1.41,0.005-2.623-1.139-3.556
	c-1.383-1.128-2.916-2.042-4.376-3.064c-0.58-0.402-1.134-0.837-1.688-1.276c-2.511-1.989-2.042-7.184,1.406-8.57
	c2.387-0.962,4.74-0.798,7.058,0.234c0.665,0.296,1.086,0.77,1.021,1.576c-0.06,0.739-0.265,0.912-0.908,0.589
	c-0.577-0.288-1.148-0.587-1.757-0.799c-1.239-0.433-2.497-0.614-3.796-0.266c-1.415,0.384-2.303,1.373-2.436,2.781
	c-0.088,0.938,0.134,1.775,0.895,2.396c0.476,0.388,0.96,0.766,1.465,1.114c1.088,0.747,2.194,1.468,3.287,2.211
	c0.507,0.344,1.006,0.705,1.497,1.07c1.943,1.457,2.533,3.413,1.998,5.715c-0.52,2.242-2.075,3.477-4.223,4.031
	C156.581,230.485,155.908,230.609,155.221,230.553z"/>
<path fill-rule="evenodd" clip-rule="evenodd" fill="#5A5A5E" d="M123.699,219.811c0,3.044,0,6.088-0.001,9.132
	c0,0.246-0.003,0.492-0.023,0.736c-0.02,0.24-0.176,0.42-0.398,0.453c-0.577,0.083-1.164,0.097-1.74-0.007
	c-0.229-0.042-0.355-0.242-0.382-0.472c-0.027-0.243-0.031-0.49-0.032-0.735c-0.001-6.089-0.001-12.177,0-18.263
	c0-0.246-0.004-0.495,0.028-0.736c0.04-0.307,0.233-0.492,0.543-0.539c0.061-0.01,0.124-0.012,0.185-0.013
	c2.089-0.046,1.821,0.024,1.821,1.681C123.698,213.969,123.699,216.89,123.699,219.811z"/>
<path fill-rule="evenodd" clip-rule="evenodd" fill="#5A5A5E" d="M180.219,219.771c0-3.043-0.001-6.086,0-9.131
	c0-0.244,0.006-0.49,0.022-0.734c0.019-0.283,0.2-0.486,0.455-0.507c0.52-0.04,1.044-0.04,1.564-0.004
	c0.307,0.021,0.483,0.253,0.504,0.567c0.017,0.245,0.018,0.491,0.018,0.737c0.001,6.053,0.001,12.108,0.001,18.162
	c0,0.123,0.003,0.246,0,0.369c-0.027,0.825-0.136,0.929-0.992,0.948c-1.572,0.035-1.572,0.035-1.572-1.56
	C180.218,225.672,180.219,222.72,180.219,219.771z"/>
<path fill-rule="evenodd" clip-rule="evenodd" fill="#EF8023" d="M318.61,203.364c-0.722-0.043-1.481-0.105-2.193-0.44
	c-1.078-0.509-1.601-1.361-1.64-2.548c-0.041-1.188,0.392-2.129,1.462-2.652c1.564-0.764,3.194-0.824,4.799-0.116
	c1.13,0.497,1.753,1.621,1.683,2.827c-0.075,1.256-0.771,2.182-1.984,2.61C320.064,203.282,319.362,203.347,318.61,203.364z"/>
<path fill-rule="evenodd" clip-rule="evenodd" fill="#5A5A5E" d="M181.548,201.276c1.195,0.018,1.695,0.558,1.671,1.807
	c-0.023,1.213-0.554,1.73-1.771,1.724c-1.207-0.01-1.697-0.539-1.666-1.795C179.815,201.795,180.36,201.259,181.548,201.276z"/>
<path fill-rule="evenodd" clip-rule="evenodd" fill="#5A5A5E" d="M120.708,203.024c0.021-1.219,0.563-1.761,1.749-1.75
	c1.203,0.014,1.698,0.543,1.68,1.795c-0.019,1.25-0.579,1.777-1.846,1.737C121.139,204.767,120.686,204.257,120.708,203.024z"/>
<path fill-rule="evenodd" clip-rule="evenodd" fill="#FEFEFE" d="M298.221,129.089c0.438-0.394,0.697-0.926,1.05-1.386
	c0.639-0.83,1.327-1.611,2.09-2.333c2.414-2.291,5.219-2.951,8.426-2.12c1.738,0.451,3.361,1.171,4.911,2.051
	c10.898,6.185,19.434,14.73,25.535,25.683c1.019,1.829,1.85,3.744,2.185,5.839c0.349,2.192,0.007,4.212-1.371,6.015
	c-0.866,1.134-1.873,2.115-3.031,2.943c-3.116,2.232-6.536,3.889-10.066,5.336c-5.595,2.297-11.403,3.811-17.395,4.598
	c-3.047,0.398-6.11,0.651-9.191,0.534c0.111-0.184,0.206-0.381,0.34-0.546c2.101-2.558,3.736-5.391,5-8.444
	c1.686-4.071,2.494-8.317,2.569-12.711c0.016-0.919-0.072-1.834-0.129-2.751c-0.111-1.721-0.409-3.403-0.789-5.074
	c-0.649-2.856-1.667-5.583-3.032-8.172c-1.222-2.312-2.683-4.474-4.411-6.439c-0.846-0.964-1.695-1.938-2.751-2.693
	C298.179,129.309,298.199,129.199,298.221,129.089z"/>
<path fill-rule="evenodd" clip-rule="evenodd" fill="#B6B2B3" d="M298.159,129.418c1.056,0.755,1.905,1.729,2.751,2.693
	c1.729,1.966,3.189,4.127,4.411,6.439c1.365,2.588,2.383,5.316,3.032,8.172c0.38,1.671,0.678,3.353,0.789,5.074
	c0.057,0.917,0.145,1.833,0.129,2.751c-0.075,4.395-0.884,8.641-2.569,12.711c-1.264,3.053-2.899,5.886-5,8.444
	c-0.134,0.165-0.229,0.362-0.34,0.546c-0.069,0.026-0.139,0.052-0.208,0.078c-1.36-0.213-2.745-0.152-4.104-0.384
	c-2.982-0.507-5.683-1.487-7.36-4.248c0.008-0.063,0.016-0.125,0.023-0.188c0.273-0.29,0.537-0.589,0.82-0.87
	c1.791-1.773,3.417-3.69,4.967-5.676c2.004-2.569,3.831-5.26,5.396-8.115c1.43-2.612,2.774-5.273,3.143-8.294
	c0.206-1.69-0.046-3.291-0.938-4.774c-0.973-1.613-2.327-2.83-3.864-3.878c-1.653-1.129-3.449-1.999-5.231-2.895
	c0.795-1.882,1.736-3.691,2.767-5.453C297.199,130.82,297.563,130.042,298.159,129.418z"/>
<path fill-rule="evenodd" clip-rule="evenodd" fill="#CC602A" d="M298.159,129.418c-0.596,0.624-0.96,1.402-1.387,2.133
	c-1.03,1.762-1.972,3.571-2.767,5.454c-0.037,0.049-0.08,0.093-0.129,0.13c-0.18-0.369-0.556-0.47-0.887-0.612
	c-2.92-1.257-5.891-2.382-8.961-3.227c0.572-1.097,1.393-2.013,2.188-2.939c1.645-1.915,3.478-3.633,5.497-5.147
	c0.12-0.09,0.266-0.149,0.397-0.221c0.634,0.096,1.109,0.522,1.607,0.851c1.169,0.769,2.316,1.578,3.354,2.533
	c0.333,0.308,0.683,0.61,1.147,0.717C298.199,129.199,298.179,129.309,298.159,129.418z"/>
<path fill-rule="evenodd" clip-rule="evenodd" fill="#CC602A" d="M289.689,171.695c1.678,2.761,4.378,3.741,7.36,4.248
	c1.359,0.231,2.744,0.171,4.104,0.384c-1.72,2.233-3.848,4.029-6.098,5.695c-0.322-0.029-0.558-0.242-0.813-0.401
	c-2.671-1.656-5.081-3.629-7.218-5.934c-0.271-0.291-0.553-0.568-0.83-0.852c0-0.058,0-0.113-0.003-0.169
	c1.071-0.612,1.815-1.593,2.703-2.409C289.135,172.036,289.31,171.719,289.689,171.695z"/>
<path fill-rule="evenodd" clip-rule="evenodd" fill="#FEFEFE" d="M286.192,174.667c0.003,0.056,0.003,0.111,0.003,0.169
	c-2.383,1.937-4.78,3.85-7.392,5.474c-2.192,1.366-4.428,2.613-6.977,3.249c-3.063,0.765-5.622-0.1-7.897-2.123
	c-2.066-1.84-3.601-4.104-5.019-6.444c-2.57-4.245-4.622-8.733-6.181-13.447c-1.186-3.587-2.069-7.251-2.64-10.981
	c-0.492-3.217-0.761-6.463-0.573-9.721c0.117-2.003,0.523-3.958,1.591-5.704c1.026-1.678,2.603-2.65,4.399-3.318
	c1.447-0.539,2.95-0.794,4.481-0.942c2.018-0.195,4.036-0.411,6.057-0.299c2.17,0.12,4.34,0.218,6.508,0.462
	c3.449,0.388,6.833,1.067,10.194,1.905c0.386,0.096,0.755,0.248,1.134,0.375c-0.108,0.185-0.21,0.374-0.328,0.553
	c-4.239,6.566-6.149,13.728-5.485,21.54c0.543,6.399,2.748,12.178,6.542,17.349C285.1,173.43,285.554,174.124,286.192,174.667z"/>
<path fill-rule="evenodd" clip-rule="evenodd" fill="#EF8023" d="M286.192,174.667c-0.639-0.543-1.093-1.237-1.582-1.904
	c-3.794-5.171-5.999-10.95-6.542-17.349c-0.664-7.812,1.246-14.974,5.485-21.54c0.118-0.179,0.22-0.368,0.328-0.553
	c0.05,0.004,0.1-0.004,0.147-0.024c3.07,0.845,6.041,1.97,8.961,3.227c0.331,0.142,0.707,0.243,0.887,0.612
	c-0.087,0.229-0.166,0.462-0.263,0.687c-1.41,3.244-2.565,6.577-3.433,10.005c-1.521,6.015-2.405,12.104-1.947,18.33
	c0.137,1.877,0.463,3.71,1.479,5.35c-0.008,0.063-0.016,0.125-0.023,0.188c-0.38,0.023-0.555,0.341-0.794,0.562
	C288.008,173.074,287.264,174.055,286.192,174.667z"/>
<path fill-rule="evenodd" clip-rule="evenodd" fill="#FEFEFE" d="M338.632,215.393c-1.293,0-2.584-0.018-3.876,0.009
	c-0.46,0.007-0.563-0.174-0.571-0.597c-0.049-2.564,1.289-4.118,3.83-4.418c0.775-0.092,1.538-0.035,2.277,0.201
	c1.976,0.624,2.956,2.207,2.811,4.43c-0.028,0.427-0.326,0.372-0.597,0.372C341.215,215.394,339.922,215.393,338.632,215.393z"/>
<path fill-rule="evenodd" clip-rule="evenodd" fill="#FEFEFE" d="M289.713,171.507c-1.016-1.64-1.342-3.472-1.479-5.35
	c-0.458-6.226,0.426-12.315,1.947-18.33c0.867-3.428,2.022-6.761,3.433-10.005c0.097-0.225,0.176-0.458,0.263-0.687
	c0.049-0.038,0.092-0.082,0.129-0.131c1.782,0.896,3.578,1.766,5.231,2.895c1.537,1.048,2.892,2.266,3.864,3.878
	c0.892,1.483,1.144,3.083,0.938,4.774c-0.368,3.021-1.713,5.683-3.143,8.294c-1.565,2.855-3.393,5.546-5.396,8.115
	c-1.55,1.985-3.176,3.902-4.967,5.676C290.25,170.918,289.986,171.217,289.713,171.507z"/>
</svg>
