<svg xmlns="http://www.w3.org/2000/svg" viewBox="0 0 357.92 80" class="logo"><title>Element Biosciences</title><path d="M128.91,32.36H109.5V0h19.28V2.72H112.59V14.27H127.5V17H112.59V29.64h16.32ZM139.26.86h-3v31.5h3Zm9.36,28.7a12.31,12.31,0,0,1-3.25-8.72,12.07,12.07,0,0,1,3.3-8.67,10.69,10.69,0,0,1,8.08-3.48,10.31,10.31,0,0,1,8,3.21,11.68,11.68,0,0,1,3,8.3v1H148.38a10.38,10.38,0,0,0,2.42,6.49,7.56,7.56,0,0,0,5.95,2.64c3.66,0,6.38-1.82,8.08-5.39l.08-.17,2.22,1.32-.07.14c-2.17,4.46-5.68,6.73-10.45,6.73A10.72,10.72,0,0,1,148.62,29.56Zm-.22-10.95h16.09a6.88,6.88,0,0,0-2.32-5.32,8.34,8.34,0,0,0-11,.18A8.73,8.73,0,0,0,148.4,18.61ZM201.09,16V32.36h3v-17c0-4-2.74-6.62-7-6.62A8.38,8.38,0,0,0,190,13a6.44,6.44,0,0,0-6.26-4.32,7.86,7.86,0,0,0-6.74,3.9V9.33h-3v23h3V20a10,10,0,0,1,1.8-6.34,5.27,5.27,0,0,1,4.3-2.36c2.75,0,4.4,1.8,4.4,4.81V32.36h3V20.25c0-5.26,2.47-8.93,6-8.93C199.57,11.32,201.09,12.83,201.09,16Zm30.45,10.32c-2.17,4.46-5.68,6.73-10.45,6.73a10.72,10.72,0,0,1-8-3.44,12.31,12.31,0,0,1-3.25-8.72,12.07,12.07,0,0,1,3.3-8.67,10.69,10.69,0,0,1,8.08-3.48,10.31,10.31,0,0,1,8,3.21,11.72,11.72,0,0,1,3,8.3v1H212.86a10.32,10.32,0,0,0,2.42,6.49,7.56,7.56,0,0,0,5.95,2.64c3.66,0,6.38-1.82,8.08-5.39l.08-.17,2.21,1.32Zm-18.66-7.66H229a6.84,6.84,0,0,0-2.31-5.32,8.35,8.35,0,0,0-11,.18A8.77,8.77,0,0,0,212.88,18.61Zm42.18-7.91a8.44,8.44,0,0,0-5.78-2,9.38,9.38,0,0,0-7.79,4.39V9.33h-3v23h3v-13a8.09,8.09,0,0,1,2.15-5.64,6.53,6.53,0,0,1,5-2.37c3.56,0,5.77,2.19,5.77,5.73V32.36h3V16.77C257.41,14.06,256.62,12,255.06,10.7Zm10.5,16c0,3.86,2.12,6.26,5.53,6.26a7.89,7.89,0,0,0,2.52-.38l.13,0L273.48,30l-.2.06a5.56,5.56,0,0,1-1.64.27c-2,0-3.08-1.18-3.08-3.49V11.68h5.67V9.33h-5.67V3.2h-3V9.33h-4v2.35h4ZM131.84,70.13a8.12,8.12,0,0,1-3.22,6.68,12.26,12.26,0,0,1-7.88,2.55H109.5V47h11.1a11.2,11.2,0,0,1,7.33,2.24,6.7,6.7,0,0,1,2.77,5.44,7.94,7.94,0,0,1-5.33,7.44C129.66,63.52,131.84,66.21,131.84,70.13Zm-4.23-14.86c0-3.58-2.52-5.55-7.1-5.55h-7.92v11.1h7.92C125,60.82,127.61,58.79,127.61,55.27Zm-15,21.37h7.55A10.65,10.65,0,0,0,126.31,75a5.48,5.48,0,0,0,2.44-4.89c0-4.17-3.14-6.55-8.61-6.55h-7.55Zm26.12,2.72h3v-23h-3ZM167.64,59a11.72,11.72,0,0,1,3.44,8.82,11.92,11.92,0,0,1-20.14,8.86,11.76,11.76,0,0,1-3.44-8.86A11.76,11.76,0,0,1,150.94,59a11.59,11.59,0,0,1,8.3-3.3A11.76,11.76,0,0,1,167.64,59Zm-2.07,15.65a10.56,10.56,0,0,0,0-13.67,8.13,8.13,0,0,0-6.28-2.69A8.29,8.29,0,0,0,153,61a9.71,9.71,0,0,0-2.47,6.84A9.7,9.7,0,0,0,153,74.68a8.25,8.25,0,0,0,6.32,2.69A8.13,8.13,0,0,0,165.57,74.68ZM185.69,66c-4.15-.76-6.26-2.19-6.26-4.27s2-3.44,4.95-3.44a6.15,6.15,0,0,1,6.25,4.28l.07.19,2.45-1.41-.06-.14c-1.53-3.68-4.48-5.55-8.75-5.55a9.18,9.18,0,0,0-5.5,1.64,5.17,5.17,0,0,0-2.22,4.34c0,3.61,2.6,5.88,7.74,6.76,4.19.67,6,2,6,4.49,0,2.7-2.14,4.45-5.45,4.45s-5.7-1.79-6.93-5.46l-.07-.21-2.59,1.56,0,.14a9.91,9.91,0,0,0,9.54,6.6,8.48,8.48,0,0,0,6.2-2.15,6.89,6.89,0,0,0,2.25-5.06C193.34,69.23,190.76,67,185.69,66Zm31.61,5.9c-2,3.7-4.38,5.35-7.8,5.35a8,8,0,0,1-6.24-2.6,9.59,9.59,0,0,1-2.42-6.83A9.44,9.44,0,0,1,203.31,61a8.52,8.52,0,0,1,13.9,2.43l.08.17,2.3-1.46-.06-.13c-1.79-4.08-5.39-6.33-10.13-6.33a11.17,11.17,0,0,0-8.26,3.48,11.81,11.81,0,0,0-3.39,8.68,12.12,12.12,0,0,0,3.3,8.71,11.4,11.4,0,0,0,18.52-3.2l.07-.13-2.25-1.47Zm8.19,7.43h3v-23h-3ZM253.64,58.9a11.75,11.75,0,0,1,3,8.31v1H237.27a10.36,10.36,0,0,0,2.43,6.48,7.54,7.54,0,0,0,6,2.64c3.66,0,6.38-1.81,8.07-5.39l.09-.17L256,73.13l-.06.14c-2.17,4.47-5.68,6.73-10.45,6.73a10.72,10.72,0,0,1-8-3.44,12.24,12.24,0,0,1-3.25-8.71,12.08,12.08,0,0,1,3.3-8.68,10.69,10.69,0,0,1,8.08-3.48A10.31,10.31,0,0,1,253.64,58.9ZM237.3,65.62h16.08a6.9,6.9,0,0,0-2.31-5.33,8.35,8.35,0,0,0-11,.18A8.83,8.83,0,0,0,237.3,65.62Zm42.21-7.92a8.47,8.47,0,0,0-5.78-2,9.37,9.37,0,0,0-7.79,4.4V56.33h-3v23h3v-13a8.14,8.14,0,0,1,2.15-5.65,6.56,6.56,0,0,1,5-2.37c3.56,0,5.77,2.2,5.77,5.73V79.36h3V63.78C281.86,61.07,281.07,59,279.51,57.7Zm27.61,14.23c-2,3.7-4.39,5.35-7.81,5.35a8,8,0,0,1-6.23-2.6,9.6,9.6,0,0,1-2.43-6.83A9.44,9.44,0,0,1,293.12,61,8.52,8.52,0,0,1,307,63.44l.09.17,2.3-1.46-.06-.13c-1.8-4.08-5.4-6.33-10.13-6.33A11.17,11.17,0,0,0,291,59.17a11.81,11.81,0,0,0-3.39,8.68,12.15,12.15,0,0,0,3.29,8.71,11.41,11.41,0,0,0,18.53-3.2l.07-.13-2.26-1.47Zm25.65-13a11.75,11.75,0,0,1,3,8.31v1H316.41a10.29,10.29,0,0,0,2.42,6.48,7.56,7.56,0,0,0,5.95,2.64c3.66,0,6.38-1.81,8.08-5.39l.08-.17,2.21,1.32-.06.14c-2.17,4.47-5.68,6.73-10.45,6.73a10.72,10.72,0,0,1-8-3.44,12.28,12.28,0,0,1-3.25-8.71,12.08,12.08,0,0,1,3.3-8.68,10.69,10.69,0,0,1,8.08-3.48A10.31,10.31,0,0,1,332.77,58.9Zm-16.34,6.72h16.08a6.86,6.86,0,0,0-2.31-5.33,8.35,8.35,0,0,0-11,.18A8.77,8.77,0,0,0,316.43,65.62Zm33.85.41c-4.15-.76-6.26-2.19-6.26-4.27s2-3.44,5-3.44a6.13,6.13,0,0,1,6.24,4.28l.07.19,2.46-1.41-.06-.14c-1.54-3.68-4.48-5.55-8.76-5.55a9.18,9.18,0,0,0-5.5,1.64,5.16,5.16,0,0,0-2.21,4.34c0,3.61,2.6,5.88,7.73,6.76,4.2.67,6,2,6,4.49,0,2.7-2.14,4.45-5.46,4.45s-5.7-1.79-6.92-5.46l-.07-.2-2.59,1.55.05.14a9.89,9.89,0,0,0,9.53,6.6,8.45,8.45,0,0,0,6.2-2.15,6.85,6.85,0,0,0,2.25-5.06C357.92,69.23,355.35,67,350.28,66ZM75,0V62.88C75,73.2,68.6,80,57.88,80H0V0ZM23,23H63.75V11.25H11.25v57.5H23ZM64.59,62.87A5.87,5.87,0,0,0,58.72,57H34.25V68.75H58.72A5.87,5.87,0,0,0,64.59,62.87Zm0-23A5.87,5.87,0,0,0,58.72,34H34.25V45.75H58.72A5.87,5.87,0,0,0,64.59,39.87Zm75.62,8.51a2,2,0,1,0,2,2A2,2,0,0,0,140.21,48.38Zm86.77,0a2,2,0,1,0,2,2A2,2,0,0,0,227,48.38Z"/></svg>
