<?xml version="1.0" encoding="UTF-8" standalone="no"?>
<!-- Created with Inkscape (http://www.inkscape.org/) -->

<svg
   xmlns:dc="http://purl.org/dc/elements/1.1/"
   xmlns:cc="http://creativecommons.org/ns#"
   xmlns:rdf="http://www.w3.org/1999/02/22-rdf-syntax-ns#"
   xmlns:svg="http://www.w3.org/2000/svg"
   xmlns="http://www.w3.org/2000/svg"
   xmlns:sodipodi="http://sodipodi.sourceforge.net/DTD/sodipodi-0.dtd"
   xmlns:inkscape="http://www.inkscape.org/namespaces/inkscape"
   version="1.1"
   id="svg3767"
   xml:space="preserve"
   width="370.45734"
   height="71.928131"
   viewBox="0 0 370.45734 71.928131"
   sodipodi:docname="Flomics_blue.svg"
   inkscape:version="0.92.4 (fd57863, 2020-04-02)"><metadata
     id="metadata3773"><rdf:RDF><cc:Work
         rdf:about=""><dc:format>image/svg+xml</dc:format><dc:type
           rdf:resource="http://purl.org/dc/dcmitype/StillImage" /><dc:title></dc:title></cc:Work></rdf:RDF></metadata><defs
     id="defs3771"><clipPath
       clipPathUnits="userSpaceOnUse"
       id="clipPath3785"><path
         d="M 0,512 H 512 V 0 H 0 Z"
         id="path3783"
         inkscape:connector-curvature="0" /></clipPath></defs><sodipodi:namedview
     pagecolor="#ffffff"
     bordercolor="#666666"
     borderopacity="1"
     objecttolerance="10"
     gridtolerance="10"
     guidetolerance="10"
     inkscape:pageopacity="0"
     inkscape:pageshadow="2"
     inkscape:window-width="1850"
     inkscape:window-height="1015"
     id="namedview3769"
     showgrid="false"
     inkscape:zoom="1.2260742"
     inkscape:cx="186.42388"
     inkscape:cy="-58.718795"
     inkscape:window-x="1670"
     inkscape:window-y="28"
     inkscape:window-maximized="1"
     inkscape:current-layer="g3775" /><g
     id="g3775"
     inkscape:groupmode="layer"
     inkscape:label="Flomics"
     transform="matrix(1.3333333,0,0,-1.3333333,-154.90946,471.98025)"><g
       id="g3779"><g
         id="g3781"
         clip-path="url(#clipPath3785)"><g
           id="g3787"
           transform="translate(306.0928,201.1875)"><path
             d="m 0,0 c -12.725,0 -17.501,35.002 -24.5,35 -0.002,0 -2.225,0.002 -3.501,0.002 C -40.727,35.002 -41.886,5.27 -52.502,0 h -3.5 c -12.724,0 -17.501,35.002 -24.5,35.002 h -3.501 C -98.004,35.002 -98.004,0 -105.004,0 c 12.725,0 17.5,35.002 24.5,35.004 0.002,0 2.226,-0.002 3.5,-0.002 12.725,0 14.216,-28.145 24.5,-35.001 C -52.502,0 -50.278,0 -49.002,0 c 12.726,0 17.501,35.002 24.5,35.002 h 3.501 C -7.001,35.002 -7.001,0 0,0"
             style="fill:#ffffff;fill-opacity:1;fill-rule:nonzero;stroke:none"
             id="path3789"
             inkscape:connector-curvature="0" /></g><g
           id="g3791"
           transform="translate(283.8174,235.6895)"><path
             d="m 0,0 c 2.328,-2.046 4.351,-7.023 6.757,-12.949 3.306,-8.14 7.312,-18.007 12.869,-20.473 -1.71,2.243 -2.96,6.66 -4.421,11.826 C 12.484,-11.975 9.097,0 1.274,0 Z m -61.728,0 c -7.823,0 -11.21,-11.976 -13.932,-21.598 -1.46,-5.164 -2.71,-9.581 -4.419,-11.825 5.557,2.466 9.563,12.335 12.869,20.476 2.408,5.928 4.426,10.9 6.714,12.947 z m 5.727,0.001 c 2.329,-2.047 4.35,-7.024 6.755,-12.949 3.81,-9.38 8.551,-21.054 15.519,-21.054 h 2.044 c -3.948,3.46 -6.556,9.964 -9.085,16.273 C -44.423,-8.612 -47.876,0 -54.729,0 Z m 27.507,-34.003 h 1.767 c 6.97,0 11.711,11.675 15.52,21.055 2.407,5.929 4.426,10.901 6.714,12.946 L -5.726,0 c -6.649,0 -10.142,-8.956 -13.521,-17.617 -2.549,-6.536 -5.176,-13.273 -9.247,-16.385 m 50.769,-1 c -7.642,0 -12.319,11.517 -16.445,21.678 -2.782,6.85 -5.41,13.322 -8.054,13.322 -0.023,0 -0.047,0.001 -0.07,0.001 -2.622,-0.11 -5.227,-6.528 -7.986,-13.322 -4.126,-10.161 -8.803,-21.679 -16.447,-21.679 -1.185,0 -3.185,0 -3.471,0.001 -0.01,-0.001 -0.019,-0.001 -0.029,-0.001 h -3.5 c -7.642,0 -12.318,11.517 -16.445,21.678 C -52.955,-6.472 -55.583,0 -58.227,0 c -0.023,0.001 -0.046,0.004 -0.07,0 -2.622,-0.112 -5.227,-6.529 -7.986,-13.323 -4.126,-10.161 -8.803,-21.679 -16.446,-21.679 -0.276,0 -0.5,0.224 -0.5,0.5 0,0.276 0.224,0.5 0.5,0.5 2.522,0 4.263,6.157 6.107,12.677 C -73.809,-11.379 -70.308,1 -61.728,1 h 3.406 c 0.03,10e-4 0.088,0.002 0.093,0.002 L -54.729,1 c 7.53,0 11.271,-9.332 14.889,-18.357 2.676,-6.674 5.441,-13.572 9.649,-16.563 4.461,2.432 7.283,9.666 10.012,16.666 C -16.678,-8.279 -13.059,1 -5.726,1 L -2.319,0.998 C -2.289,0.999 -2.231,1 -2.227,1 h 3.501 c 8.58,0 12.08,-12.378 14.894,-22.324 1.844,-6.52 3.586,-12.678 6.107,-12.678 0.277,0 0.5,-0.224 0.5,-0.5 0,-0.276 -0.223,-0.5 -0.5,-0.5"
             style="fill:#ffffff;fill-opacity:1;fill-rule:nonzero;stroke:none"
             id="path3793"
             inkscape:connector-curvature="0" /></g><g
           id="g3795"
           transform="translate(148.5601,243.9766)"><path
             d="m 0,0 v -4.718 h -26.928 v -13.387 h 23.616 v -4.719 h -23.616 v -19.285 h -6.84 V 0 Z"
             style="fill:#ffffff;fill-opacity:1;fill-rule:nonzero;stroke:none"
             id="path3797"
             inkscape:connector-curvature="0" /></g><g
           id="g3799"
           transform="translate(115.2925,202.3672)"><path
             d="m 0,0 h 5.84 v 18.785 c 0,0.277 0.223,0.5 0.5,0.5 h 23.116 v 3.719 H 6.34 c -0.277,0 -0.5,0.224 -0.5,0.5 v 13.388 c 0,0.276 0.223,0.5 0.5,0.5 h 26.428 v 3.717 H 0 Z M 6.34,-1 H -0.5 C -0.776,-1 -1,-0.776 -1,-0.5 v 42.109 c 0,0.277 0.224,0.5 0.5,0.5 h 33.768 c 0.276,0 0.5,-0.223 0.5,-0.5 v -4.717 c 0,-0.277 -0.224,-0.5 -0.5,-0.5 H 6.84 V 24.004 h 23.116 c 0.276,0 0.5,-0.224 0.5,-0.5 v -4.719 c 0,-0.276 -0.224,-0.5 -0.5,-0.5 H 6.84 V -0.5 C 6.84,-0.776 6.616,-1 6.34,-1"
             style="fill:#ffffff;fill-opacity:1;fill-rule:nonzero;stroke:none"
             id="path3801"
             inkscape:connector-curvature="0" /></g><g
           id="g3803"
           transform="translate(171.4585,212.5762)"><path
             d="m 0,0 c 0.6,-1.51 1.427,-2.77 2.484,-3.782 1.055,-1.014 2.291,-1.788 3.708,-2.324 1.415,-0.539 2.916,-0.807 4.5,-0.807 1.584,0 3.083,0.268 4.5,0.807 1.415,0.536 2.651,1.31 3.708,2.324 1.055,1.012 1.883,2.272 2.484,3.782 0.6,1.508 0.9,3.233 0.9,5.177 0,1.942 -0.3,3.668 -0.9,5.177 -0.601,1.508 -1.429,2.779 -2.484,3.812 -1.057,1.033 -2.293,1.818 -3.708,2.356 -1.417,0.538 -2.916,0.806 -4.5,0.806 -1.584,0 -3.085,-0.268 -4.5,-0.806 C 4.775,15.984 3.539,15.199 2.484,14.166 1.427,13.133 0.6,11.862 0,10.354 -0.601,8.845 -0.9,7.119 -0.9,5.177 -0.9,3.233 -0.601,1.508 0,0 m -6.228,11.78 c 0.767,2.046 1.919,3.823 3.456,5.331 1.536,1.509 3.431,2.698 5.688,3.566 2.255,0.868 4.848,1.302 7.776,1.302 2.975,0 5.58,-0.434 7.811,-1.302 2.233,-0.868 4.116,-2.057 5.653,-3.566 1.535,-1.508 2.687,-3.285 3.456,-5.331 0.766,-2.046 1.151,-4.247 1.151,-6.603 0,-2.357 -0.385,-4.548 -1.151,-6.573 -0.769,-2.025 -1.921,-3.792 -3.456,-5.3 -1.537,-1.509 -3.42,-2.687 -5.653,-3.534 -2.231,-0.846 -4.836,-1.271 -7.811,-1.271 -2.928,0 -5.521,0.425 -7.776,1.271 -2.257,0.847 -4.152,2.025 -5.688,3.534 -1.537,1.508 -2.689,3.275 -3.456,5.3 -0.769,2.025 -1.152,4.216 -1.152,6.573 0,2.356 0.383,4.557 1.152,6.603"
             style="fill:#ffffff;fill-opacity:1;fill-rule:nonzero;stroke:none"
             id="path3805"
             inkscape:connector-curvature="0" /></g><g
           id="g3807"
           transform="translate(182.1504,229.4043)"><path
             d="m 0,0 c -1.517,0 -2.971,-0.26 -4.323,-0.773 -1.345,-0.511 -2.535,-1.267 -3.535,-2.247 -1.001,-0.978 -1.798,-2.203 -2.369,-3.639 -0.574,-1.442 -0.865,-3.12 -0.865,-4.992 0,-1.873 0.291,-3.552 0.864,-4.992 0.571,-1.435 1.366,-2.648 2.366,-3.606 1.001,-0.962 2.192,-1.708 3.539,-2.218 2.701,-1.026 5.938,-1.028 8.645,0 1.347,0.51 2.538,1.256 3.54,2.217 0.998,0.959 1.794,2.173 2.366,3.607 0.573,1.442 0.864,3.121 0.864,4.992 0,1.87 -0.291,3.549 -0.864,4.992 -0.573,1.435 -1.37,2.66 -2.37,3.639 C 6.857,-2.04 5.667,-1.284 4.322,-0.773 2.969,-0.26 1.515,0 0,0 m 0,-24.241 c -1.639,0 -3.213,0.282 -4.678,0.839 -1.473,0.558 -2.778,1.376 -3.876,2.431 -1.104,1.058 -1.98,2.39 -2.603,3.958 -0.62,1.558 -0.935,3.362 -0.935,5.362 0,1.999 0.315,3.802 0.936,5.361 0.622,1.567 1.497,2.908 2.598,3.985 1.099,1.076 2.405,1.907 3.88,2.467 2.929,1.111 6.418,1.113 9.355,0 1.475,-0.56 2.78,-1.391 3.881,-2.467 1.1,-1.078 1.974,-2.419 2.599,-3.984 0.62,-1.562 0.935,-3.365 0.935,-5.362 0,-1.998 -0.315,-3.802 -0.935,-5.362 -0.625,-1.568 -1.5,-2.9 -2.603,-3.958 C 7.455,-22.026 6.15,-22.844 4.677,-23.402 3.211,-23.959 1.637,-24.241 0,-24.241 M 0,4.65 c -2.854,0 -5.41,-0.426 -7.596,-1.268 -2.181,-0.839 -4.038,-2.002 -5.517,-3.455 -1.478,-1.451 -2.601,-3.184 -3.339,-5.151 -0.743,-1.979 -1.12,-4.141 -1.12,-6.427 0,-2.287 0.377,-4.438 1.119,-6.395 0.739,-1.949 1.862,-3.673 3.339,-5.121 1.479,-1.453 3.334,-2.604 5.514,-3.424 2.192,-0.821 4.749,-1.238 7.6,-1.238 2.898,0 5.467,0.417 7.634,1.238 2.156,0.819 3.999,1.97 5.48,3.423 1.476,1.45 2.599,3.173 3.339,5.122 0.742,1.96 1.118,4.111 1.118,6.395 0,2.282 -0.376,4.445 -1.119,6.427 -0.739,1.966 -1.862,3.7 -3.339,5.151 C 11.631,1.381 9.787,2.544 7.63,3.383 5.468,4.224 2.901,4.65 0,4.65 m 0,-33.479 c -2.972,0 -5.647,0.438 -7.952,1.303 -2.312,0.868 -4.284,2.094 -5.862,3.645 -1.582,1.551 -2.784,3.395 -3.574,5.481 -0.786,2.07 -1.184,4.34 -1.184,6.749 0,2.406 0.398,4.687 1.184,6.779 0.789,2.104 1.992,3.959 3.574,5.512 1.578,1.55 3.549,2.787 5.858,3.675 C -5.654,5.201 -2.978,5.65 0,5.65 3.025,5.65 5.714,5.201 7.993,4.314 10.276,3.427 12.235,2.19 13.814,0.64 c 1.582,-1.554 2.784,-3.409 3.574,-5.512 0.785,-2.096 1.183,-4.376 1.183,-6.779 0,-2.405 -0.398,-4.675 -1.183,-6.749 -0.791,-2.085 -1.994,-3.929 -3.574,-5.481 -1.58,-1.551 -3.54,-2.777 -5.825,-3.645 C 5.708,-28.391 3.02,-28.829 0,-28.829"
             style="fill:#ffffff;fill-opacity:1;fill-rule:nonzero;stroke:none"
             id="path3809"
             inkscape:connector-curvature="0" /></g><g
           id="g3811"
           transform="translate(316.1855,236.1914)"><path
             d="m 0,0 v -35.116 c 0,0 -6.119,1.994 -6.119,9.074 V 0 Z"
             style="fill:#ffffff;fill-opacity:1;fill-rule:nonzero;stroke:none"
             id="path3813"
             inkscape:connector-curvature="0" /></g><g
           id="g3815"
           transform="translate(310.5645,235.6934)"><path
             d="m 0,0 v -25.544 c 0,-5.279 3.612,-7.589 5.123,-8.323 V 0 Z m 5.621,-35.116 c -0.052,0 -0.103,0.009 -0.154,0.025 -0.065,0.021 -6.463,2.191 -6.463,9.547 V 0.498 c 0,0.274 0.224,0.498 0.498,0.498 h 6.119 c 0.275,0 0.498,-0.224 0.498,-0.498 v -35.116 c 0,-0.159 -0.077,-0.309 -0.206,-0.403 -0.086,-0.062 -0.188,-0.095 -0.292,-0.095"
             style="fill:#ffffff;fill-opacity:1;fill-rule:nonzero;stroke:none"
             id="path3817"
             inkscape:connector-curvature="0" /></g><g
           id="g3819"
           transform="translate(345.6553,228.2305)"><path
             d="m 0,0 c -1.537,1.116 -3.6,1.674 -6.191,1.674 -2.209,0 -4.057,-0.352 -5.545,-1.054 -1.489,-0.703 -2.676,-1.633 -3.565,-2.789 -0.888,-1.159 -1.523,-2.49 -1.906,-3.999 -0.385,-1.51 -0.576,-3.07 -0.576,-4.681 0,-1.488 0.203,-2.936 0.611,-4.341 0.406,-1.405 1.043,-2.656 1.908,-3.75 0.864,-1.096 1.991,-1.974 3.383,-2.635 1.393,-0.661 3.049,-0.991 4.969,-0.991 3.023,0 5.389,0.681 7.092,2.045 1.703,1.364 2.748,3.286 3.133,5.765 h 6.263 c -0.674,-3.968 -2.388,-7.027 -5.148,-9.176 -2.76,-2.149 -6.516,-3.223 -11.268,-3.223 -2.832,0 -5.34,0.392 -7.523,1.177 -2.186,0.786 -4.01,1.901 -5.473,3.349 -1.465,1.445 -2.568,3.171 -3.312,5.178 -0.745,2.003 -1.116,4.204 -1.116,6.602 0,2.397 0.36,4.638 1.08,6.726 0.719,2.087 1.811,3.907 3.276,5.456 1.465,1.55 3.301,2.77 5.508,3.658 2.207,0.89 4.775,1.333 7.705,1.333 2.111,0 4.091,-0.218 5.939,-0.651 C 1.092,5.239 2.725,4.567 4.141,3.659 5.555,2.749 6.719,1.602 7.633,0.218 8.543,-1.169 9.119,-2.811 9.359,-4.712 H 3.023 C 2.543,-2.687 1.535,-1.115 0,0"
             style="fill:#ffffff;fill-opacity:1;fill-rule:nonzero;stroke:none"
             id="path3821"
             inkscape:connector-curvature="0" /></g><g
           id="g3823"
           transform="translate(338.96,234.0547)"><path
             d="m 0,0 c -2.854,0 -5.384,-0.437 -7.519,-1.297 -2.128,-0.857 -3.921,-2.048 -5.331,-3.538 -1.408,-1.488 -2.472,-3.264 -3.166,-5.275 -0.698,-2.024 -1.052,-4.232 -1.052,-6.563 0,-2.33 0.364,-4.492 1.084,-6.429 0.714,-1.928 1.79,-3.609 3.195,-4.996 1.402,-1.388 3.183,-2.476 5.29,-3.233 2.119,-0.762 4.594,-1.148 7.354,-1.148 4.617,0 8.304,1.048 10.96,3.118 2.508,1.952 4.14,4.736 4.855,8.281 h -5.241 c -0.454,-2.395 -1.544,-4.296 -3.241,-5.656 -1.787,-1.43 -4.278,-2.155 -7.405,-2.155 -1.986,0 -3.73,0.35 -5.183,1.039 -1.455,0.692 -2.654,1.626 -3.561,2.778 -0.901,1.14 -1.573,2.46 -1.996,3.921 -0.419,1.441 -0.631,2.948 -0.631,4.48 0,1.648 0.199,3.264 0.592,4.804 0.397,1.566 1.068,2.973 1.994,4.181 0.934,1.214 2.194,2.203 3.747,2.936 1.55,0.731 3.487,1.102 5.759,1.102 2.686,0 4.868,-0.596 6.485,-1.77 1.529,-1.11 2.575,-2.662 3.117,-4.616 h 5.37 c -0.266,1.58 -0.791,2.975 -1.566,4.155 -0.871,1.318 -1.996,2.428 -3.345,3.295 -1.362,0.874 -2.957,1.529 -4.74,1.948 C 4.021,-0.215 2.061,0 0,0 m -0.145,-33.479 c -2.876,0 -5.464,0.406 -7.692,1.207 -2.246,0.806 -4.148,1.972 -5.655,3.463 -1.509,1.49 -2.663,3.292 -3.43,5.36 -0.761,2.048 -1.146,4.327 -1.146,6.776 0,2.443 0.373,4.76 1.107,6.889 0.739,2.147 1.878,4.044 3.385,5.637 1.508,1.595 3.421,2.867 5.684,3.778 C -5.638,0.539 -2.982,1 0,1 2.138,1 4.175,0.776 6.054,0.335 c 1.893,-0.444 3.593,-1.144 5.051,-2.079 1.467,-0.944 2.692,-2.151 3.64,-3.587 0.95,-1.447 1.558,-3.177 1.806,-5.143 0.017,-0.142 -0.027,-0.285 -0.121,-0.393 -0.095,-0.108 -0.232,-0.169 -0.375,-0.169 H 9.719 c -0.232,0 -0.433,0.159 -0.487,0.385 -0.45,1.896 -1.402,3.384 -2.831,4.422 -1.442,1.047 -3.426,1.579 -5.897,1.579 -2.123,0 -3.917,-0.339 -5.332,-1.006 -1.407,-0.665 -2.545,-1.554 -3.381,-2.642 -0.843,-1.098 -1.454,-2.384 -1.818,-3.817 -0.372,-1.46 -0.561,-2.993 -0.561,-4.558 0,-1.437 0.199,-2.851 0.592,-4.202 0.386,-1.336 0.999,-2.54 1.82,-3.58 0.812,-1.029 1.89,-1.868 3.205,-2.492 1.318,-0.626 2.917,-0.944 4.754,-0.944 2.895,0 5.175,0.652 6.78,1.936 1.594,1.277 2.587,3.111 2.951,5.452 0.038,0.243 0.248,0.423 0.494,0.423 h 6.263 c 0.148,0 0.288,-0.065 0.382,-0.178 0.095,-0.112 0.136,-0.261 0.112,-0.406 -0.694,-4.078 -2.488,-7.271 -5.334,-9.486 -2.837,-2.209 -6.732,-3.329 -11.576,-3.329"
             style="fill:#ffffff;fill-opacity:1;fill-rule:nonzero;stroke:none"
             id="path3825"
             inkscape:connector-curvature="0" /></g><g
           id="g3827"
           transform="translate(367.085,209.2236)"><path
             d="m 0,0 c 0.576,-0.796 1.332,-1.431 2.268,-1.899 0.935,-0.471 1.99,-0.808 3.168,-1.011 1.175,-0.206 2.386,-0.307 3.636,-0.307 0.959,0 1.967,0.061 3.024,0.184 1.054,0.123 2.027,0.346 2.916,0.675 0.886,0.326 1.619,0.804 2.195,1.439 0.576,0.633 0.865,1.44 0.865,2.421 0,1.349 -0.601,2.369 -1.801,3.063 -1.201,0.696 -2.699,1.257 -4.5,1.686 -1.8,0.43 -3.755,0.816 -5.867,1.164 -2.113,0.348 -4.068,0.837 -5.869,1.471 -1.799,0.634 -3.301,1.521 -4.5,2.667 -1.199,1.142 -1.799,2.736 -1.799,4.779 0,1.594 0.418,2.962 1.26,4.106 0.838,1.144 1.918,2.073 3.24,2.788 1.319,0.715 2.807,1.246 4.463,1.594 1.656,0.346 3.301,0.521 4.932,0.521 2.111,0 4.057,-0.153 5.832,-0.46 1.775,-0.307 3.348,-0.837 4.717,-1.594 1.367,-0.756 2.459,-1.776 3.275,-3.063 0.816,-1.287 1.297,-2.891 1.44,-4.812 h -6.12 c -0.097,1.022 -0.408,1.869 -0.935,2.544 -0.529,0.674 -1.201,1.215 -2.016,1.624 -0.818,0.408 -1.717,0.705 -2.701,0.888 -0.984,0.184 -1.98,0.276 -2.988,0.276 -0.912,0 -1.836,-0.06 -2.772,-0.183 C 4.428,20.438 3.574,20.224 2.807,19.917 2.039,19.609 1.414,19.201 0.936,18.69 0.455,18.181 0.215,17.516 0.215,16.699 c 0,-0.899 0.371,-1.643 1.117,-2.235 0.742,-0.594 1.691,-1.084 2.844,-1.471 1.152,-0.39 2.447,-0.716 3.887,-0.981 1.441,-0.266 2.88,-0.542 4.32,-0.827 1.537,-0.288 3.035,-0.634 4.5,-1.042 1.465,-0.41 2.76,-0.951 3.888,-1.624 1.127,-0.674 2.04,-1.523 2.737,-2.543 0.695,-1.022 1.043,-2.289 1.043,-3.8 0,-1.921 -0.467,-3.514 -1.405,-4.78 -0.935,-1.267 -2.158,-2.289 -3.671,-3.064 -1.512,-0.776 -3.215,-1.318 -5.112,-1.624 -1.896,-0.307 -3.779,-0.46 -5.652,-0.46 -2.065,0 -4.031,0.184 -5.904,0.551 -1.871,0.368 -3.528,0.971 -4.967,1.809 -1.44,0.836 -2.592,1.94 -3.457,3.309 -0.863,1.368 -1.344,3.032 -1.44,4.994 h 6.119 C -0.889,1.768 -0.576,0.797 0,0"
             style="fill:#ffffff;fill-opacity:1;fill-rule:nonzero;stroke:none"
             id="path3829"
             inkscape:connector-curvature="0" /></g><g
           id="g3831"
           transform="translate(360.5635,211.6348)"><path
             d="m 0,0 c 0.146,-1.641 0.591,-3.061 1.327,-4.228 0.819,-1.294 1.924,-2.351 3.285,-3.142 1.383,-0.807 3.002,-1.396 4.813,-1.752 3.495,-0.684 7.469,-0.72 11.38,-0.088 1.833,0.296 3.503,0.826 4.963,1.575 1.435,0.736 2.612,1.717 3.498,2.916 0.867,1.172 1.306,2.68 1.306,4.484 0,1.402 -0.321,2.586 -0.956,3.518 -0.653,0.956 -1.521,1.763 -2.58,2.396 -1.085,0.647 -2.352,1.175 -3.766,1.571 -1.441,0.401 -2.941,0.749 -4.457,1.032 -1.443,0.285 -2.88,0.562 -4.32,0.826 -1.468,0.272 -2.799,0.608 -3.956,1 -1.204,0.405 -2.212,0.927 -2.996,1.554 -0.865,0.687 -1.305,1.57 -1.305,2.626 0,0.945 0.288,1.731 0.857,2.334 0.524,0.56 1.214,1.013 2.05,1.348 0.803,0.321 1.704,0.549 2.677,0.676 1.997,0.262 3.998,0.263 5.916,-0.098 1.019,-0.189 1.972,-0.502 2.833,-0.932 0.878,-0.441 1.614,-1.034 2.186,-1.762 0.503,-0.644 0.832,-1.434 0.981,-2.353 h 5.131 c -0.179,1.594 -0.62,2.952 -1.312,4.044 -0.767,1.208 -1.809,2.182 -3.096,2.893 -1.311,0.725 -2.845,1.243 -4.56,1.539 -3.066,0.53 -6.83,0.724 -10.576,-0.057 C 7.718,21.582 6.262,21.063 4.996,20.375 3.745,19.698 2.71,18.81 1.921,17.731 1.149,16.683 0.758,15.4 0.758,13.921 c 0,-1.892 0.553,-3.378 1.643,-4.417 1.14,-1.089 2.593,-1.949 4.322,-2.558 1.76,-0.62 3.707,-1.107 5.784,-1.449 2.129,-0.351 4.114,-0.744 5.902,-1.171 1.837,-0.437 3.397,-1.022 4.634,-1.739 1.361,-0.788 2.051,-1.964 2.051,-3.496 0,-1.105 -0.335,-2.032 -0.995,-2.758 C 23.473,-4.355 22.668,-4.885 21.706,-5.239 20.79,-5.577 19.771,-5.813 18.675,-5.941 16.216,-6.228 13.97,-6.182 11.871,-5.813 10.653,-5.604 9.54,-5.248 8.564,-4.757 7.563,-4.256 6.739,-3.564 6.116,-2.704 5.567,-1.945 5.233,-1.037 5.12,0 Z m 15.232,-10.663 c -2.086,0 -4.104,0.188 -6,0.56 -1.92,0.377 -3.643,1.006 -5.123,1.869 -1.502,0.872 -2.722,2.041 -3.628,3.472 -0.906,1.438 -1.417,3.199 -1.515,5.238 -0.007,0.136 0.043,0.27 0.137,0.369 C -0.803,0.944 -0.672,1 -0.535,1 h 6.119 c 0.268,0 0.488,-0.211 0.5,-0.479 0.044,-1.039 0.327,-1.926 0.843,-2.639 0.527,-0.729 1.229,-1.317 2.086,-1.745 0.888,-0.448 1.907,-0.772 3.029,-0.965 2.005,-0.353 4.154,-0.396 6.518,-0.119 1.016,0.118 1.959,0.336 2.8,0.646 0.81,0.298 1.482,0.738 1.998,1.307 0.496,0.544 0.736,1.225 0.736,2.085 0,1.166 -0.508,2.026 -1.552,2.631 C 21.389,2.39 19.92,2.938 18.177,3.354 16.412,3.774 14.45,4.164 12.345,4.511 10.21,4.861 8.206,5.364 6.391,6.003 4.527,6.659 2.953,7.594 1.711,8.78 c -1.296,1.235 -1.953,2.965 -1.953,5.141 0,1.697 0.457,3.179 1.357,4.402 0.877,1.198 2.023,2.184 3.406,2.931 1.349,0.733 2.896,1.286 4.597,1.644 3.865,0.807 7.765,0.615 10.951,0.065 1.826,-0.316 3.465,-0.87 4.874,-1.65 1.436,-0.793 2.598,-1.881 3.455,-3.233 0.859,-1.352 1.369,-3.049 1.517,-5.042 0.01,-0.139 -0.038,-0.275 -0.133,-0.377 -0.094,-0.102 -0.227,-0.16 -0.366,-0.16 h -6.119 c -0.258,0 -0.474,0.196 -0.498,0.452 -0.088,0.922 -0.367,1.691 -0.831,2.284 -0.481,0.611 -1.102,1.111 -1.847,1.486 -0.775,0.386 -1.64,0.67 -2.567,0.842 -1.819,0.342 -3.711,0.338 -5.604,0.088 C 11.059,17.537 10.239,17.331 9.514,17.042 8.815,16.762 8.246,16.391 7.822,15.938 7.428,15.519 7.236,14.979 7.236,14.288 c 0,-0.745 0.304,-1.349 0.928,-1.844 0.693,-0.554 1.599,-1.021 2.692,-1.388 1.115,-0.377 2.399,-0.702 3.819,-0.963 1.443,-0.267 2.885,-0.543 4.326,-0.829 1.54,-0.287 3.068,-0.642 4.537,-1.051 1.5,-0.419 2.85,-0.983 4.011,-1.676 1.183,-0.708 2.157,-1.613 2.893,-2.69 0.75,-1.103 1.13,-2.476 1.13,-4.082 0,-2.023 -0.506,-3.731 -1.502,-5.078 -0.978,-1.325 -2.272,-2.405 -3.846,-3.211 -1.553,-0.797 -3.323,-1.361 -5.26,-1.672 -1.913,-0.31 -3.842,-0.467 -5.732,-0.467"
             style="fill:#ffffff;fill-opacity:1;fill-rule:nonzero;stroke:none"
             id="path3833"
             inkscape:connector-curvature="0" /></g><g
           id="g3835"
           transform="translate(317.7373,245.0898)"><path
             d="m 0,0 c 0,2.548 -4.611,9.224 -4.611,9.224 0,0 -4.613,-6.676 -4.613,-9.224 0,-2.547 2.065,-4.611 4.613,-4.611 C -2.064,-4.611 0,-2.547 0,0"
             style="fill:#ffffff;fill-opacity:1;fill-rule:nonzero;stroke:none"
             id="path3837"
             inkscape:connector-curvature="0" /></g><g
           id="g3839"
           transform="translate(159.5908,242.3467)"><path
             d="m 0,0 v -41.479 c 0,0 -6.119,1.901 -6.119,8.651 V 0 Z"
             style="fill:#ffffff;fill-opacity:1;fill-rule:nonzero;stroke:none"
             id="path3841"
             inkscape:connector-curvature="0" /></g><g
           id="g3843"
           transform="translate(153.9717,241.8467)"><path
             d="m 0,0 v -32.328 c 0,-5.076 3.605,-7.235 5.119,-7.918 V 0 Z m 5.619,-41.479 c -0.05,0 -0.099,0.007 -0.148,0.022 C 5.406,-41.437 -1,-39.365 -1,-32.328 V 0.5 C -1,0.776 -0.776,1 -0.5,1 h 6.119 c 0.277,0 0.5,-0.224 0.5,-0.5 v -41.479 c 0,-0.16 -0.076,-0.309 -0.203,-0.403 -0.087,-0.064 -0.191,-0.097 -0.297,-0.097"
             style="fill:#ffffff;fill-opacity:1;fill-rule:nonzero;stroke:none"
             id="path3845"
             inkscape:connector-curvature="0" /></g><g
           id="g3847"
           transform="translate(204.7383,235.1123)"><path
             d="m 0,0 c 1.709,-2.244 2.959,-6.661 4.419,-11.825 2.722,-9.622 6.109,-21.598 13.933,-21.598 h 1.231 c -2.288,2.047 -4.306,7.019 -6.714,12.947 C 9.563,-12.335 5.557,-2.466 0,0 m 51.585,0.579 c 4.071,-3.112 6.698,-9.849 9.247,-16.385 3.379,-8.661 6.872,-17.617 13.522,-17.617 l 1.232,0.001 c -2.288,2.045 -4.307,7.017 -6.714,12.946 -3.809,9.38 -8.55,21.055 -15.519,21.055 -0.503,-0.004 -1.161,0 -1.768,0 m 28.534,-34.001 1.235,-0.001 c 7.822,0 11.209,11.975 13.93,21.596 1.461,5.166 2.711,9.583 4.421,11.827 -5.557,-2.467 -9.564,-12.335 -12.87,-20.475 -2.406,-5.923 -4.428,-10.902 -6.716,-12.947 M 46.353,0.579 c -6.969,0 -11.71,-11.674 -15.52,-21.054 -2.405,-5.924 -4.426,-10.902 -6.715,-12.949 l 1.233,10e-4 c 6.852,0 10.305,8.612 13.96,17.73 2.535,6.323 5.148,12.841 9.072,16.272 z M 21.851,-34.425 c -0.006,0 -0.064,10e-4 -0.094,0.002 h -3.405 c -8.581,0 -12.081,12.379 -14.894,22.325 -1.845,6.52 -3.586,12.677 -6.107,12.677 -0.277,0 -0.5,0.224 -0.5,0.5 0,0.276 0.223,0.5 0.5,0.5 7.642,0 12.319,-11.517 16.445,-21.679 2.755,-6.784 5.357,-13.193 7.975,-13.323 2.732,0.017 5.357,6.481 8.136,13.324 4.127,10.161 8.803,21.678 16.446,21.678 h 3.5 c 0.009,0 0.019,0 0.028,-10e-4 0.286,10e-4 2.286,10e-4 3.472,10e-4 7.643,0 12.32,-11.517 16.446,-21.679 2.755,-6.785 5.357,-13.194 7.975,-13.321 2.731,0.019 5.356,6.482 8.134,13.323 4.127,10.16 8.804,21.677 16.446,21.677 0.277,0 0.5,-0.224 0.5,-0.5 0,-0.276 -0.223,-0.5 -0.5,-0.5 -2.521,0 -4.263,-6.158 -6.107,-12.678 -2.813,-9.946 -6.314,-22.324 -14.893,-22.324 h -3.501 c -0.005,0 -0.063,0.001 -0.093,0.002 l -3.406,-0.002 c -7.333,0 -10.953,9.279 -14.454,18.254 C 57.169,-9.166 54.347,-1.929 49.883,0.5 45.701,-2.443 42.925,-9.367 40.239,-16.065 36.621,-25.091 32.88,-34.423 25.351,-34.423 l -3.491,-0.002 z"
             style="fill:#ffffff;fill-opacity:1;fill-rule:nonzero;stroke:none"
             id="path3849"
             inkscape:connector-curvature="0" /></g><g
           id="g3851"
           transform="translate(307.9824,300.8589)"><path
             d="m 0,0 c -12.725,0 -17.501,35.002 -24.5,35 -0.002,0 -2.225,0.002 -3.501,0.002 C -40.727,35.002 -41.886,5.27 -52.502,0 h -3.5 c -12.724,0 -17.501,35.002 -24.5,35.002 h -3.501 C -98.004,35.002 -98.004,0 -105.004,0 c 12.725,0 17.5,35.002 24.5,35.004 0.002,0 2.226,-0.002 3.5,-0.002 12.725,0 14.216,-28.145 24.5,-35.001 C -52.502,0 -50.278,0 -49.002,0 c 12.726,0 17.501,35.002 24.5,35.002 h 3.501 C -7.001,35.002 -7.001,0 0,0"
             style="fill:#00aeef;fill-opacity:1;fill-rule:nonzero;stroke:none"
             id="path3853"
             inkscape:connector-curvature="0" /></g><g
           id="g3855"
           transform="translate(285.707,335.3608)"><path
             d="m 0,0 c 2.328,-2.046 4.351,-7.023 6.757,-12.949 3.306,-8.14 7.312,-18.007 12.869,-20.473 -1.71,2.243 -2.96,6.66 -4.421,11.826 C 12.484,-11.975 9.097,0 1.274,0 Z m -61.728,0 c -7.823,0 -11.21,-11.976 -13.932,-21.598 -1.46,-5.164 -2.71,-9.581 -4.419,-11.825 5.557,2.466 9.563,12.335 12.869,20.476 2.408,5.928 4.426,10.9 6.714,12.947 z m 5.727,0.001 c 2.329,-2.047 4.35,-7.024 6.755,-12.949 3.81,-9.38 8.551,-21.054 15.519,-21.054 h 2.044 c -3.948,3.46 -6.556,9.964 -9.085,16.273 C -44.423,-8.612 -47.876,0 -54.729,0 Z m 27.507,-34.003 h 1.767 c 6.97,0 11.711,11.675 15.52,21.055 2.407,5.929 4.426,10.901 6.714,12.946 L -5.726,0 c -6.649,0 -10.142,-8.956 -13.521,-17.617 -2.549,-6.536 -5.177,-13.273 -9.247,-16.385 m 50.769,-1 c -7.642,0 -12.319,11.517 -16.445,21.678 -2.782,6.85 -5.41,13.322 -8.054,13.322 -0.023,0 -0.047,0.001 -0.07,0.001 -2.622,-0.11 -5.227,-6.528 -7.986,-13.322 -4.126,-10.161 -8.803,-21.679 -16.447,-21.679 -1.185,0 -3.185,0 -3.471,0.001 -0.01,-0.001 -0.019,-0.001 -0.029,-0.001 h -3.5 c -7.642,0 -12.318,11.517 -16.445,21.678 C -52.955,-6.472 -55.583,0 -58.227,0 c -0.023,0.001 -0.046,0.004 -0.07,0 -2.622,-0.112 -5.227,-6.529 -7.986,-13.323 -4.126,-10.161 -8.803,-21.679 -16.446,-21.679 -0.276,0 -0.5,0.224 -0.5,0.5 0,0.276 0.224,0.5 0.5,0.5 2.522,0 4.263,6.157 6.107,12.677 C -73.809,-11.379 -70.308,1 -61.728,1 h 3.406 c 0.03,10e-4 0.088,0.002 0.093,0.002 L -54.729,1 c 7.53,0 11.271,-9.332 14.889,-18.357 2.676,-6.674 5.441,-13.572 9.649,-16.563 4.461,2.432 7.283,9.666 10.012,16.666 C -16.678,-8.279 -13.059,1 -5.726,1 L -2.319,0.998 C -2.289,0.999 -2.231,1 -2.227,1 h 3.501 c 8.58,0 12.08,-12.378 14.894,-22.324 1.844,-6.52 3.586,-12.678 6.107,-12.678 0.277,0 0.5,-0.224 0.5,-0.5 0,-0.276 -0.223,-0.5 -0.5,-0.5"
             style="fill:#00aeef;fill-opacity:1;fill-rule:nonzero;stroke:none"
             id="path3857"
             inkscape:connector-curvature="0" /></g><g
           id="g3859"
           transform="translate(150.4497,343.6479)"><path
             d="m 0,0 v -4.718 h -26.928 v -13.387 h 23.616 v -4.719 h -23.616 v -19.285 h -6.84 V 0 Z"
             style="fill:#00aeef;fill-opacity:1;fill-rule:nonzero;stroke:none"
             id="path3861"
             inkscape:connector-curvature="0" /></g><g
           id="g3863"
           transform="translate(117.1821,302.0386)"><path
             d="m 0,0 h 5.84 v 18.785 c 0,0.277 0.223,0.5 0.5,0.5 h 23.116 v 3.719 H 6.34 c -0.277,0 -0.5,0.224 -0.5,0.5 v 13.388 c 0,0.276 0.223,0.5 0.5,0.5 h 26.428 v 3.717 H 0 Z M 6.34,-1 H -0.5 C -0.776,-1 -1,-0.776 -1,-0.5 v 42.109 c 0,0.277 0.224,0.5 0.5,0.5 h 33.768 c 0.276,0 0.5,-0.223 0.5,-0.5 v -4.717 c 0,-0.277 -0.224,-0.5 -0.5,-0.5 H 6.84 V 24.004 h 23.116 c 0.276,0 0.5,-0.224 0.5,-0.5 v -4.719 c 0,-0.276 -0.224,-0.5 -0.5,-0.5 H 6.84 V -0.5 C 6.84,-0.776 6.616,-1 6.34,-1"
             style="fill:#00aeef;fill-opacity:1;fill-rule:nonzero;stroke:none"
             id="path3865"
             inkscape:connector-curvature="0" /></g><g
           id="g3867"
           transform="translate(173.3481,312.2476)"><path
             d="m 0,0 c 0.6,-1.51 1.427,-2.77 2.484,-3.782 1.055,-1.014 2.291,-1.788 3.708,-2.324 1.415,-0.539 2.916,-0.807 4.5,-0.807 1.584,0 3.083,0.268 4.5,0.807 1.415,0.536 2.651,1.31 3.708,2.324 1.055,1.012 1.883,2.272 2.484,3.782 0.6,1.508 0.9,3.233 0.9,5.177 0,1.942 -0.3,3.668 -0.9,5.177 -0.601,1.508 -1.429,2.779 -2.484,3.812 -1.057,1.033 -2.293,1.818 -3.708,2.356 -1.417,0.538 -2.916,0.806 -4.5,0.806 -1.584,0 -3.085,-0.268 -4.5,-0.806 C 4.775,15.984 3.539,15.199 2.484,14.166 1.427,13.133 0.6,11.862 0,10.354 -0.601,8.845 -0.9,7.119 -0.9,5.177 -0.9,3.233 -0.601,1.508 0,0 m -6.228,11.78 c 0.767,2.046 1.919,3.823 3.456,5.331 1.536,1.509 3.431,2.698 5.688,3.566 2.255,0.868 4.848,1.302 7.776,1.302 2.975,0 5.58,-0.434 7.811,-1.302 2.233,-0.868 4.116,-2.057 5.653,-3.566 1.535,-1.508 2.687,-3.285 3.456,-5.331 0.766,-2.046 1.151,-4.247 1.151,-6.603 0,-2.357 -0.385,-4.548 -1.151,-6.573 -0.769,-2.025 -1.921,-3.792 -3.456,-5.3 -1.537,-1.509 -3.42,-2.687 -5.653,-3.534 -2.231,-0.846 -4.836,-1.271 -7.811,-1.271 -2.928,0 -5.521,0.425 -7.776,1.271 -2.257,0.847 -4.152,2.025 -5.688,3.534 -1.537,1.508 -2.689,3.275 -3.456,5.3 -0.769,2.025 -1.152,4.216 -1.152,6.573 0,2.356 0.383,4.557 1.152,6.603"
             style="fill:#00aeef;fill-opacity:1;fill-rule:nonzero;stroke:none"
             id="path3869"
             inkscape:connector-curvature="0" /></g><g
           id="g3871"
           transform="translate(184.04,329.0757)"><path
             d="m 0,0 c -1.517,0 -2.971,-0.26 -4.323,-0.773 -1.345,-0.511 -2.535,-1.267 -3.535,-2.247 -1.001,-0.978 -1.798,-2.203 -2.369,-3.639 -0.574,-1.442 -0.865,-3.12 -0.865,-4.992 0,-1.873 0.291,-3.552 0.864,-4.992 0.571,-1.435 1.366,-2.648 2.366,-3.606 1.001,-0.962 2.192,-1.708 3.539,-2.218 2.701,-1.026 5.938,-1.028 8.645,0 1.347,0.51 2.538,1.256 3.54,2.217 0.998,0.959 1.794,2.173 2.366,3.607 0.573,1.442 0.864,3.121 0.864,4.992 0,1.87 -0.291,3.549 -0.864,4.992 -0.573,1.435 -1.37,2.66 -2.37,3.639 C 6.857,-2.04 5.667,-1.284 4.322,-0.773 2.969,-0.26 1.515,0 0,0 m 0,-24.241 c -1.639,0 -3.213,0.282 -4.678,0.839 -1.473,0.558 -2.778,1.376 -3.876,2.431 -1.104,1.058 -1.98,2.39 -2.603,3.958 -0.62,1.558 -0.935,3.362 -0.935,5.362 0,1.999 0.315,3.802 0.936,5.361 0.622,1.567 1.497,2.908 2.598,3.985 1.099,1.076 2.405,1.907 3.88,2.467 2.929,1.111 6.418,1.113 9.355,0 1.475,-0.56 2.78,-1.391 3.881,-2.467 1.1,-1.078 1.974,-2.419 2.599,-3.984 0.62,-1.562 0.935,-3.365 0.935,-5.362 0,-1.998 -0.315,-3.802 -0.935,-5.362 -0.625,-1.568 -1.5,-2.9 -2.603,-3.958 C 7.455,-22.026 6.15,-22.844 4.677,-23.402 3.211,-23.959 1.637,-24.241 0,-24.241 M 0,4.65 c -2.854,0 -5.41,-0.426 -7.596,-1.268 -2.181,-0.839 -4.038,-2.002 -5.517,-3.455 -1.478,-1.451 -2.601,-3.184 -3.339,-5.151 -0.743,-1.979 -1.12,-4.141 -1.12,-6.427 0,-2.287 0.377,-4.438 1.119,-6.395 0.739,-1.949 1.862,-3.673 3.339,-5.121 1.479,-1.453 3.334,-2.604 5.514,-3.424 2.192,-0.821 4.749,-1.238 7.6,-1.238 2.898,0 5.467,0.417 7.634,1.238 2.156,0.819 3.999,1.97 5.48,3.423 1.476,1.45 2.599,3.173 3.339,5.122 0.742,1.96 1.118,4.111 1.118,6.395 0,2.282 -0.376,4.445 -1.119,6.427 -0.739,1.966 -1.862,3.7 -3.339,5.151 C 11.631,1.381 9.787,2.544 7.63,3.383 5.468,4.224 2.901,4.65 0,4.65 m 0,-33.479 c -2.972,0 -5.647,0.438 -7.952,1.303 -2.312,0.868 -4.284,2.094 -5.862,3.645 -1.582,1.551 -2.784,3.395 -3.574,5.481 -0.786,2.07 -1.184,4.34 -1.184,6.749 0,2.406 0.398,4.687 1.184,6.779 0.789,2.104 1.992,3.959 3.574,5.512 1.578,1.55 3.549,2.787 5.858,3.675 C -5.654,5.201 -2.978,5.65 0,5.65 3.025,5.65 5.714,5.201 7.993,4.314 10.276,3.427 12.235,2.19 13.814,0.64 c 1.582,-1.554 2.784,-3.409 3.574,-5.512 0.785,-2.096 1.183,-4.376 1.183,-6.779 0,-2.405 -0.398,-4.675 -1.183,-6.749 -0.791,-2.085 -1.994,-3.929 -3.574,-5.481 -1.58,-1.551 -3.54,-2.777 -5.825,-3.645 C 5.708,-28.391 3.02,-28.829 0,-28.829"
             style="fill:#00aeef;fill-opacity:1;fill-rule:nonzero;stroke:none"
             id="path3873"
             inkscape:connector-curvature="0" /></g><g
           id="g3875"
           transform="translate(318.0752,335.8628)"><path
             d="m 0,0 v -35.116 c 0,0 -6.119,1.994 -6.119,9.074 V 0 Z"
             style="fill:#00aeef;fill-opacity:1;fill-rule:nonzero;stroke:none"
             id="path3877"
             inkscape:connector-curvature="0" /></g><g
           id="g3879"
           transform="translate(312.4541,335.3647)"><path
             d="m 0,0 v -25.544 c 0,-5.279 3.612,-7.589 5.123,-8.323 V 0 Z m 5.621,-35.116 c -0.052,0 -0.103,0.009 -0.154,0.025 -0.065,0.021 -6.463,2.191 -6.463,9.547 V 0.498 c 0,0.274 0.224,0.498 0.498,0.498 h 6.119 c 0.275,0 0.498,-0.224 0.498,-0.498 v -35.116 c 0,-0.159 -0.077,-0.309 -0.206,-0.403 -0.086,-0.062 -0.188,-0.095 -0.292,-0.095"
             style="fill:#00aeef;fill-opacity:1;fill-rule:nonzero;stroke:none"
             id="path3881"
             inkscape:connector-curvature="0" /></g><g
           id="g3883"
           transform="translate(347.5449,327.9019)"><path
             d="m 0,0 c -1.537,1.116 -3.6,1.674 -6.191,1.674 -2.209,0 -4.057,-0.352 -5.545,-1.054 -1.489,-0.703 -2.676,-1.633 -3.565,-2.789 -0.888,-1.159 -1.523,-2.49 -1.906,-3.999 -0.385,-1.51 -0.576,-3.07 -0.576,-4.681 0,-1.488 0.203,-2.936 0.611,-4.341 0.406,-1.405 1.043,-2.656 1.908,-3.75 0.864,-1.096 1.991,-1.974 3.383,-2.635 1.393,-0.661 3.049,-0.991 4.969,-0.991 3.023,0 5.389,0.681 7.092,2.045 1.703,1.364 2.748,3.286 3.133,5.765 h 6.263 c -0.674,-3.968 -2.388,-7.027 -5.148,-9.176 -2.76,-2.149 -6.516,-3.223 -11.268,-3.223 -2.832,0 -5.34,0.392 -7.523,1.177 -2.186,0.786 -4.01,1.901 -5.473,3.349 -1.465,1.445 -2.568,3.171 -3.312,5.178 -0.745,2.003 -1.116,4.204 -1.116,6.602 0,2.397 0.36,4.638 1.08,6.726 0.719,2.087 1.811,3.907 3.276,5.456 1.465,1.55 3.301,2.77 5.508,3.658 2.207,0.89 4.775,1.333 7.705,1.333 2.111,0 4.091,-0.218 5.939,-0.651 C 1.092,5.239 2.725,4.567 4.141,3.659 5.555,2.749 6.719,1.602 7.633,0.218 8.543,-1.169 9.119,-2.811 9.359,-4.712 H 3.023 C 2.543,-2.687 1.535,-1.115 0,0"
             style="fill:#00aeef;fill-opacity:1;fill-rule:nonzero;stroke:none"
             id="path3885"
             inkscape:connector-curvature="0" /></g><g
           id="g3887"
           transform="translate(340.8496,333.7261)"><path
             d="m 0,0 c -2.854,0 -5.384,-0.437 -7.519,-1.297 -2.128,-0.857 -3.921,-2.048 -5.331,-3.538 -1.408,-1.488 -2.472,-3.264 -3.166,-5.275 -0.698,-2.024 -1.052,-4.232 -1.052,-6.563 0,-2.33 0.364,-4.492 1.084,-6.429 0.714,-1.928 1.79,-3.609 3.195,-4.996 1.402,-1.388 3.183,-2.476 5.29,-3.233 2.119,-0.762 4.594,-1.148 7.354,-1.148 4.617,0 8.304,1.048 10.96,3.118 2.508,1.952 4.14,4.736 4.855,8.281 h -5.241 c -0.454,-2.395 -1.544,-4.296 -3.241,-5.656 -1.787,-1.43 -4.278,-2.155 -7.405,-2.155 -1.986,0 -3.73,0.35 -5.183,1.039 -1.455,0.692 -2.654,1.626 -3.561,2.778 -0.901,1.14 -1.573,2.46 -1.996,3.921 -0.419,1.441 -0.631,2.948 -0.631,4.48 0,1.648 0.199,3.264 0.592,4.804 0.397,1.566 1.068,2.973 1.994,4.181 0.934,1.214 2.194,2.203 3.747,2.936 1.55,0.731 3.487,1.102 5.759,1.102 2.686,0 4.868,-0.596 6.485,-1.77 1.529,-1.11 2.575,-2.662 3.117,-4.616 h 5.37 c -0.266,1.58 -0.791,2.975 -1.566,4.155 -0.871,1.318 -1.996,2.428 -3.345,3.295 -1.362,0.874 -2.957,1.529 -4.74,1.948 C 4.021,-0.215 2.061,0 0,0 m -0.145,-33.479 c -2.876,0 -5.464,0.406 -7.692,1.207 -2.246,0.806 -4.148,1.972 -5.655,3.463 -1.509,1.49 -2.663,3.292 -3.43,5.36 -0.761,2.048 -1.146,4.327 -1.146,6.776 0,2.443 0.373,4.76 1.107,6.889 0.739,2.147 1.878,4.044 3.385,5.637 1.508,1.595 3.421,2.867 5.684,3.778 C -5.638,0.539 -2.982,1 0,1 2.138,1 4.175,0.776 6.054,0.335 c 1.893,-0.444 3.593,-1.144 5.051,-2.079 1.467,-0.944 2.692,-2.151 3.64,-3.587 0.95,-1.447 1.558,-3.177 1.806,-5.143 0.017,-0.142 -0.027,-0.285 -0.121,-0.393 -0.095,-0.108 -0.232,-0.169 -0.375,-0.169 H 9.719 c -0.232,0 -0.433,0.159 -0.487,0.385 -0.45,1.896 -1.402,3.384 -2.831,4.422 -1.442,1.047 -3.426,1.579 -5.897,1.579 -2.123,0 -3.917,-0.339 -5.332,-1.006 -1.407,-0.665 -2.545,-1.554 -3.381,-2.642 -0.843,-1.098 -1.454,-2.384 -1.818,-3.817 -0.372,-1.46 -0.561,-2.993 -0.561,-4.558 0,-1.437 0.199,-2.851 0.592,-4.202 0.386,-1.336 0.999,-2.54 1.82,-3.58 0.812,-1.029 1.89,-1.868 3.205,-2.492 1.318,-0.626 2.917,-0.944 4.754,-0.944 2.895,0 5.175,0.652 6.78,1.936 1.594,1.277 2.587,3.111 2.951,5.452 0.038,0.243 0.248,0.423 0.494,0.423 h 6.263 c 0.148,0 0.288,-0.065 0.382,-0.178 0.095,-0.112 0.136,-0.261 0.112,-0.406 -0.694,-4.078 -2.488,-7.271 -5.334,-9.486 -2.837,-2.209 -6.732,-3.329 -11.576,-3.329"
             style="fill:#00aeef;fill-opacity:1;fill-rule:nonzero;stroke:none"
             id="path3889"
             inkscape:connector-curvature="0" /></g><g
           id="g3891"
           transform="translate(368.9746,308.895)"><path
             d="m 0,0 c 0.576,-0.796 1.332,-1.431 2.268,-1.899 0.935,-0.471 1.99,-0.808 3.168,-1.011 1.175,-0.206 2.386,-0.307 3.636,-0.307 0.959,0 1.967,0.061 3.024,0.184 1.054,0.123 2.027,0.346 2.916,0.675 0.886,0.326 1.619,0.804 2.195,1.439 0.576,0.633 0.865,1.44 0.865,2.421 0,1.349 -0.601,2.369 -1.801,3.063 -1.201,0.696 -2.699,1.257 -4.5,1.686 -1.8,0.43 -3.755,0.816 -5.867,1.164 -2.113,0.348 -4.068,0.837 -5.869,1.471 -1.799,0.634 -3.301,1.521 -4.5,2.667 -1.199,1.142 -1.799,2.736 -1.799,4.779 0,1.594 0.418,2.962 1.26,4.106 0.838,1.144 1.918,2.073 3.24,2.788 1.319,0.715 2.807,1.246 4.463,1.594 1.656,0.346 3.301,0.521 4.932,0.521 2.111,0 4.057,-0.153 5.832,-0.46 1.775,-0.307 3.348,-0.837 4.717,-1.594 1.367,-0.756 2.459,-1.776 3.275,-3.063 0.816,-1.287 1.297,-2.891 1.44,-4.812 h -6.12 c -0.097,1.022 -0.408,1.869 -0.935,2.544 -0.529,0.674 -1.201,1.215 -2.016,1.624 -0.818,0.408 -1.717,0.705 -2.701,0.888 -0.984,0.184 -1.98,0.276 -2.988,0.276 -0.912,0 -1.836,-0.06 -2.772,-0.183 C 4.428,20.438 3.574,20.224 2.807,19.917 2.039,19.609 1.414,19.201 0.936,18.69 0.455,18.181 0.215,17.516 0.215,16.699 c 0,-0.899 0.371,-1.643 1.117,-2.235 0.742,-0.594 1.691,-1.084 2.844,-1.471 1.152,-0.39 2.447,-0.716 3.887,-0.981 1.441,-0.266 2.88,-0.542 4.32,-0.827 1.537,-0.288 3.035,-0.634 4.5,-1.042 1.465,-0.41 2.76,-0.951 3.888,-1.624 1.127,-0.674 2.04,-1.523 2.737,-2.543 0.695,-1.022 1.043,-2.289 1.043,-3.8 0,-1.921 -0.467,-3.514 -1.405,-4.78 -0.935,-1.267 -2.158,-2.289 -3.671,-3.064 -1.512,-0.776 -3.215,-1.318 -5.112,-1.624 -1.896,-0.307 -3.779,-0.46 -5.652,-0.46 -2.065,0 -4.031,0.184 -5.904,0.551 -1.871,0.368 -3.528,0.971 -4.967,1.809 -1.44,0.836 -2.592,1.94 -3.457,3.309 -0.863,1.368 -1.344,3.032 -1.44,4.994 h 6.119 C -0.889,1.768 -0.576,0.797 0,0"
             style="fill:#00aeef;fill-opacity:1;fill-rule:nonzero;stroke:none"
             id="path3893"
             inkscape:connector-curvature="0" /></g><g
           id="g3895"
           transform="translate(362.4531,311.3062)"><path
             d="m 0,0 c 0.146,-1.641 0.591,-3.061 1.327,-4.228 0.819,-1.294 1.924,-2.351 3.285,-3.142 1.383,-0.807 3.002,-1.396 4.813,-1.752 3.495,-0.684 7.469,-0.72 11.38,-0.088 1.833,0.296 3.503,0.826 4.963,1.575 1.435,0.736 2.612,1.717 3.498,2.916 0.867,1.172 1.306,2.68 1.306,4.484 0,1.402 -0.321,2.586 -0.956,3.518 -0.653,0.956 -1.521,1.763 -2.58,2.396 -1.085,0.647 -2.352,1.175 -3.766,1.571 -1.441,0.401 -2.941,0.749 -4.457,1.032 -1.443,0.285 -2.88,0.562 -4.32,0.826 -1.468,0.272 -2.799,0.608 -3.956,1 -1.204,0.405 -2.212,0.927 -2.996,1.554 -0.865,0.687 -1.305,1.57 -1.305,2.626 0,0.945 0.288,1.731 0.857,2.334 0.524,0.56 1.214,1.013 2.05,1.348 0.803,0.321 1.704,0.549 2.677,0.676 1.997,0.262 3.998,0.263 5.916,-0.098 1.019,-0.189 1.972,-0.502 2.833,-0.932 0.878,-0.441 1.614,-1.034 2.186,-1.762 0.503,-0.644 0.832,-1.434 0.981,-2.353 h 5.131 c -0.179,1.594 -0.62,2.952 -1.312,4.044 -0.767,1.208 -1.809,2.182 -3.096,2.893 -1.311,0.725 -2.845,1.243 -4.56,1.539 -3.066,0.53 -6.83,0.724 -10.576,-0.057 C 7.718,21.582 6.262,21.063 4.996,20.375 3.745,19.698 2.71,18.81 1.921,17.731 1.149,16.683 0.758,15.4 0.758,13.921 c 0,-1.892 0.553,-3.378 1.643,-4.417 1.14,-1.089 2.593,-1.949 4.322,-2.558 1.76,-0.62 3.707,-1.107 5.784,-1.449 2.129,-0.351 4.114,-0.744 5.902,-1.171 1.837,-0.437 3.397,-1.022 4.634,-1.739 1.361,-0.788 2.051,-1.964 2.051,-3.496 0,-1.105 -0.335,-2.032 -0.995,-2.758 C 23.473,-4.355 22.668,-4.885 21.706,-5.239 20.79,-5.577 19.771,-5.813 18.675,-5.941 16.216,-6.228 13.97,-6.182 11.871,-5.813 10.653,-5.604 9.54,-5.248 8.564,-4.757 7.563,-4.256 6.739,-3.564 6.116,-2.704 5.567,-1.945 5.233,-1.037 5.12,0 Z m 15.232,-10.663 c -2.086,0 -4.104,0.188 -6,0.56 -1.92,0.377 -3.643,1.006 -5.123,1.869 -1.502,0.872 -2.722,2.041 -3.628,3.472 -0.906,1.438 -1.417,3.199 -1.515,5.238 -0.007,0.136 0.043,0.27 0.137,0.369 C -0.803,0.944 -0.672,1 -0.535,1 h 6.119 c 0.268,0 0.488,-0.211 0.5,-0.479 0.044,-1.039 0.327,-1.926 0.843,-2.639 0.527,-0.729 1.229,-1.317 2.086,-1.745 0.888,-0.448 1.907,-0.772 3.029,-0.965 2.005,-0.353 4.154,-0.396 6.518,-0.119 1.016,0.118 1.959,0.336 2.8,0.646 0.81,0.298 1.482,0.738 1.998,1.307 0.496,0.544 0.736,1.225 0.736,2.085 0,1.166 -0.508,2.026 -1.552,2.631 C 21.389,2.39 19.92,2.938 18.177,3.354 16.412,3.774 14.45,4.164 12.345,4.511 10.21,4.861 8.206,5.364 6.391,6.003 4.527,6.659 2.953,7.594 1.711,8.78 c -1.296,1.235 -1.953,2.965 -1.953,5.141 0,1.697 0.457,3.179 1.357,4.402 0.877,1.198 2.023,2.184 3.406,2.931 1.349,0.733 2.896,1.286 4.597,1.644 3.865,0.807 7.765,0.615 10.951,0.065 1.826,-0.316 3.465,-0.87 4.874,-1.65 1.436,-0.793 2.598,-1.881 3.455,-3.233 0.859,-1.352 1.369,-3.049 1.517,-5.042 0.01,-0.139 -0.038,-0.275 -0.133,-0.377 -0.094,-0.102 -0.227,-0.16 -0.366,-0.16 h -6.119 c -0.258,0 -0.474,0.196 -0.498,0.452 -0.088,0.922 -0.367,1.691 -0.831,2.284 -0.481,0.611 -1.102,1.111 -1.847,1.486 -0.775,0.386 -1.64,0.67 -2.567,0.842 -1.819,0.342 -3.711,0.338 -5.604,0.088 C 11.059,17.537 10.239,17.331 9.514,17.042 8.815,16.762 8.246,16.391 7.822,15.938 7.428,15.519 7.236,14.979 7.236,14.288 c 0,-0.745 0.304,-1.349 0.928,-1.844 0.693,-0.554 1.599,-1.021 2.692,-1.388 1.115,-0.377 2.399,-0.702 3.819,-0.963 1.443,-0.267 2.885,-0.543 4.326,-0.829 1.54,-0.287 3.068,-0.642 4.537,-1.051 1.5,-0.419 2.85,-0.983 4.011,-1.676 1.183,-0.708 2.157,-1.613 2.893,-2.69 0.75,-1.103 1.13,-2.476 1.13,-4.082 0,-2.023 -0.506,-3.731 -1.502,-5.078 -0.978,-1.325 -2.272,-2.405 -3.846,-3.211 -1.553,-0.797 -3.323,-1.361 -5.26,-1.672 -1.913,-0.31 -3.842,-0.467 -5.732,-0.467"
             style="fill:#00aeef;fill-opacity:1;fill-rule:nonzero;stroke:none"
             id="path3897"
             inkscape:connector-curvature="0" /></g><g
           id="g3899"
           transform="translate(319.627,344.7612)"><path
             d="m 0,0 c 0,2.548 -4.611,9.224 -4.611,9.224 0,0 -4.613,-6.676 -4.613,-9.224 0,-2.547 2.065,-4.611 4.613,-4.611 C -2.064,-4.611 0,-2.547 0,0"
             style="fill:#00aeef;fill-opacity:1;fill-rule:nonzero;stroke:none"
             id="path3901"
             inkscape:connector-curvature="0" /></g><g
           id="g3903"
           transform="translate(161.4805,342.0181)"><path
             d="m 0,0 v -41.479 c 0,0 -6.119,1.901 -6.119,8.651 V 0 Z"
             style="fill:#00aeef;fill-opacity:1;fill-rule:nonzero;stroke:none"
             id="path3905"
             inkscape:connector-curvature="0" /></g><g
           id="g3907"
           transform="translate(155.8613,341.5181)"><path
             d="m 0,0 v -32.328 c 0,-5.076 3.605,-7.235 5.119,-7.918 V 0 Z m 5.619,-41.479 c -0.05,0 -0.099,0.007 -0.148,0.022 C 5.406,-41.437 -1,-39.365 -1,-32.328 V 0.5 C -1,0.776 -0.776,1 -0.5,1 h 6.119 c 0.277,0 0.5,-0.224 0.5,-0.5 v -41.479 c 0,-0.16 -0.076,-0.309 -0.203,-0.403 -0.087,-0.064 -0.191,-0.097 -0.297,-0.097"
             style="fill:#00aeef;fill-opacity:1;fill-rule:nonzero;stroke:none"
             id="path3909"
             inkscape:connector-curvature="0" /></g><g
           id="g3911"
           transform="translate(206.6279,334.7837)"><path
             d="m 0,0 c 1.709,-2.244 2.959,-6.661 4.419,-11.825 2.722,-9.622 6.109,-21.598 13.933,-21.598 h 1.231 c -2.288,2.047 -4.306,7.019 -6.714,12.947 C 9.563,-12.335 5.557,-2.466 0,0 m 51.585,0.579 c 4.07,-3.112 6.698,-9.849 9.247,-16.385 3.379,-8.661 6.872,-17.617 13.522,-17.617 l 1.232,0.001 c -2.288,2.045 -4.307,7.017 -6.714,12.946 -3.809,9.38 -8.55,21.055 -15.519,21.055 -0.503,-0.004 -1.161,0 -1.768,0 m 28.534,-34.001 1.235,-0.001 c 7.822,0 11.209,11.975 13.93,21.596 1.461,5.166 2.711,9.583 4.421,11.827 -5.557,-2.467 -9.564,-12.335 -12.87,-20.475 -2.406,-5.923 -4.428,-10.902 -6.716,-12.947 M 46.353,0.579 c -6.969,0 -11.71,-11.674 -15.52,-21.054 -2.405,-5.924 -4.426,-10.902 -6.715,-12.949 l 1.233,10e-4 c 6.852,0 10.305,8.612 13.96,17.73 2.535,6.323 5.148,12.841 9.072,16.272 z M 21.851,-34.425 c -0.006,0 -0.064,10e-4 -0.094,0.002 h -3.405 c -8.581,0 -12.081,12.379 -14.894,22.325 -1.845,6.52 -3.586,12.677 -6.107,12.677 -0.277,0 -0.5,0.224 -0.5,0.5 0,0.276 0.223,0.5 0.5,0.5 7.642,0 12.319,-11.517 16.445,-21.679 2.755,-6.784 5.357,-13.193 7.975,-13.323 2.732,0.017 5.357,6.481 8.136,13.324 4.127,10.161 8.803,21.678 16.446,21.678 h 3.5 c 0.009,0 0.019,0 0.028,-10e-4 0.286,10e-4 2.286,10e-4 3.472,10e-4 7.643,0 12.32,-11.517 16.446,-21.679 2.755,-6.785 5.357,-13.194 7.975,-13.321 2.731,0.019 5.356,6.482 8.134,13.323 4.127,10.16 8.804,21.677 16.446,21.677 0.277,0 0.5,-0.224 0.5,-0.5 0,-0.276 -0.223,-0.5 -0.5,-0.5 -2.521,0 -4.263,-6.158 -6.107,-12.678 -2.813,-9.946 -6.314,-22.324 -14.893,-22.324 h -3.501 c -0.005,0 -0.063,0.001 -0.093,0.002 l -3.406,-0.002 c -7.333,0 -10.953,9.279 -14.454,18.254 C 57.169,-9.166 54.347,-1.929 49.883,0.5 45.701,-2.443 42.925,-9.367 40.239,-16.065 36.621,-25.091 32.88,-34.423 25.351,-34.423 l -3.491,-0.002 z"
             style="fill:#00aeef;fill-opacity:1;fill-rule:nonzero;stroke:none"
             id="path3913"
             inkscape:connector-curvature="0" /></g></g></g></g></svg>