<svg id="Livello_1" data-name="Livello 1" xmlns="http://www.w3.org/2000/svg" viewBox="0 0 590.58 193.41"><defs><style>.cls-1{fill:none;stroke:#fff;stroke-miterlimit:10;stroke-width:1.25px;}.cls-2{fill:#fff;}.cls-3{fill:#005a9b;}.cls-4{fill:#e29c00;}</style></defs><path class="cls-1" d="M641,201A62.06,62.06,0,1,0,703.05,263,62.07,62.07,0,0,0,641,201Z" transform="translate(-137.92 -199.04)"/><path class="cls-2" d="M640.9,326.91A63.94,63.94,0,1,1,704.84,263,64,64,0,0,1,640.9,326.91Z" transform="translate(-137.92 -199.04)"/><path class="cls-2" d="M640.9,200.91A62.07,62.07,0,1,0,703,263,62.07,62.07,0,0,0,640.9,200.91Z" transform="translate(-137.92 -199.04)"/><path class="cls-3" d="M646.09,263.31c0-.12,0-.24,0-.39a1.73,1.73,0,0,1,0-.38s.22.32.22.32a3.17,3.17,0,0,1,.51,1.08.26.26,0,0,1-.15.24l-.15,0C646.27,264.19,646.09,263.86,646.09,263.31Zm2.1-1.46c-.08-.32-.85-1.18-1-1.1a2.94,2.94,0,0,0,.18,1.42A.45.45,0,0,0,648.19,261.85Zm-41,32.87a.17.17,0,0,0,.14-.15c.07-.45.14-.9.23-1.34a3.43,3.43,0,0,1,.17-.58,11,11,0,0,1,.52-1.3c.41-.85.62-2.09,1.4-2.65.12-.1.25-.15.29-.29s0-.21-.06-.24a.22.22,0,0,0-.2,0c-.45.12-.87.81-1.12,1.18s-1,1.37-1.08,1.42a7.33,7.33,0,0,1-3.27,1.21c.26.32.52.66.78,1h1.87c.3,0,.23,1.14,0,1.14l-.89,0c.25.29.5.57.77.84l.17-.11Zm65.29,1.55c-3.31-1.23-5.88-9.61-6.84-10.24s4.24,11.17,5.18,10.73a1.68,1.68,0,0,1,2,.42l.64-.62A6.18,6.18,0,0,1,672.49,296.27ZM668.89,284c-.07-.06-.25-.08-.27,0-.12.54,3.29,3.27,4.82,4.13,1.08.59,2.31,1.12,2.45,3a12,12,0,0,0,.43,2.31,51.73,51.73,0,0,0,3.21-4.16C676.76,289.08,673.11,287.85,668.89,284Zm-17.17-24.2a.56.56,0,0,0-.08-.27,2.58,2.58,0,0,0-1-.68,1.66,1.66,0,0,0,.36,1.19A.42.42,0,0,0,651.72,259.82Zm24.34,5.78a2.07,2.07,0,0,1-.24.16,1.19,1.19,0,0,1-.48.16,2.79,2.79,0,0,0-.28-.26,2.57,2.57,0,0,1,.55-.62,1.14,1.14,0,0,1,.59-.15.21.21,0,0,0-.14-.4h0a3,3,0,0,0-1.51,1.18.21.21,0,0,0,.09.28l.12,0h0a.9.9,0,0,1,.22.22.69.69,0,0,0,.2.15.65.65,0,0,0,.5.29h0a.27.27,0,0,0,.17-.07l.06-.06.41-.6a.21.21,0,0,0,0-.27A.23.23,0,0,0,676.06,265.6Zm11.6-2.62a46.13,46.13,0,0,1-.32,5.42c-1.08-1.7-2.59-.93-2.33-1.32.12-.18.54-.25.74-.37-.18-.49-.65-1.27-1.22-1,.72.49-1.61,1.49-2.74,2.53-.31.28-1.15,1-1.32.83-.62.21-1.06,2.09-1.44,3.08-.18.5-.17.48-.37,1a12.6,12.6,0,0,0-.51,1.72c0,.32.16.33.49.25.59-.15,1.08-.18,1.68-.29s1.08-.21,1.57-.27l4.41-.4c-.18.73-.37,1.46-.59,2.18,0-1.48-.46-1.52-.46-1.52a8.93,8.93,0,0,0-3.47.08c-.49.15-.35,1.26-.47,1.68a16,16,0,0,0-.73,2.42c0,.13.24.39.18.5-.2.28-2.15-.43-2.53-.49a22.23,22.23,0,0,0-3.12-.49,1.09,1.09,0,0,0-.17,0c0,.06,0,.13,0,.39a4.08,4.08,0,0,1-.37,1.31c-.13.27-.4.46,0,.66a8.87,8.87,0,0,0,.89.39c.68.3,6.32,2.1,6.65,2.09a4.06,4.06,0,0,1,.9.07l-.3.6-.37,0a78.21,78.21,0,0,1-8.38-2.75c-1.57.15-1.38-.6-3.47-1.05a9.78,9.78,0,0,1-1.36-.06c-.8-.2-1.08-.55-.86-.63l-4.32-.7s-.16,0-.19.17a4.21,4.21,0,0,0-.21,1c0,.42.06,1,.28,1,1.35.28,7.38,1.27,7.74,1.33s.61.4.28.36-4-.28-4.45-.36c-1.06-.13-2.43,2.1-2.52,3.88,0,1.51,0,5.76-.09,6.91s-.21,1.7.31,1.94c1.24.09,3.1,2.35,5.94,3.64l-1.27,1,.57-.7s-1.25-1.11-2-1.67a1,1,0,0,1-1,1.13A1.26,1.26,0,0,0,666,299.7c-.11.33,2.74.37,3.33.37a46.73,46.73,0,0,1-54.86,1.5l1.24-.26c.66-.12.61-.28.61-.3a.84.84,0,0,0-.87-.92c-.43-.06-2.74-.26-2.74-.26s2.21-.53,2.64-1.36a3.85,3.85,0,0,0,.27-1.16c.13-.74.22-1.46.31-2.2.22-1.74.42-2.57.55-4.33,0-.73.41-3,.16-2.74,0-.1-.19.73-.35,1.31s-.37,1.44-.58,2.15-.46,1.41-.72,2.1a16.12,16.12,0,0,1-2,3.91,5.66,5.66,0,0,1-1.71,1.65c-.26-.21-.51-.44-.77-.64a4.51,4.51,0,0,0,1.9-1.61,18.34,18.34,0,0,0,2.16-3.94,45.16,45.16,0,0,0,1.95-5.75c.89-3.05-.63-3.62-1.74-3.57-4.63.26-11.2,2.09-11.18,2s.14-.35.25-.37c.94-.2,14.47-3.43,14.47-3.43s.24,0,.3-.46a9.24,9.24,0,0,0,.11-1.22c0-.15-.16-.11-.16-.11s-4.71,1.36-5.35,1.51c-.33.06-.79.22-1.31.29a4.45,4.45,0,0,0-.66,0,1.8,1.8,0,0,1-.85.6c-.56.2-5.36,1.6-5.74,1.72-.9.29-1.18.28-1.46.15l-.08,1.43c.08,0-1.54.46-2.59.85l-.33-.58c1.49-.78,1.44-2,.6-2.79a7.1,7.1,0,0,1-3.07-4.61c-.14-.78-.41-.75-.78-.89-.2,0-.34,0-.45-.05s-.1-.26-.14-.41c2-.05,7.72-.42,7.79-.76-.29-1-.29-3.17-1.53-4.31-2.1-1.91-3.94-3.88-4.18-4.09-.44-.08-2,.88-1.58,1.14.31.18,1.25.25,1.37.64-.18.08-.41-.05-.59-.08a3.57,3.57,0,0,0-2.79,1.35,47.6,47.6,0,0,1-.72-8.15,46.76,46.76,0,1,1,93.52,0Zm-77.27,3.85c-.28-.22-.81-.46-.8-.25-.11.41-.14.64.2.9s.51.22.65.44a2.83,2.83,0,0,1,.21.62,2.27,2.27,0,0,1-.36,1.63,2.65,2.65,0,0,0-.18,2c.16.53-.11.66-.34,1.06a4.72,4.72,0,0,0,.82.52,1.36,1.36,0,0,0,.63.12c.29-.1.47-.77.56-1a12.45,12.45,0,0,0,.33-4.14C611.56,267.1,610.92,267.24,610.39,266.83Zm-.49,3.08H610c.52-.63,0-2.3-.74-1.66.08.32.37.43.51.72A2.69,2.69,0,0,1,609.9,269.91Zm-9.74-3.24s.38-.23.41-.22c.23,0-.12.33.11.3s.81-.19,1.08-.22.3,0,.23-.38a1.53,1.53,0,0,1,.22-1.33.91.91,0,0,1,.7-.44,1,1,0,0,1,.73.54c.13.24.13.61.5.61a1.38,1.38,0,0,0,1-.71c0-.12.06-.34.17-.42.27-.19.18.16.29.24s.6-.27.74-.34a4.87,4.87,0,0,1,.85-.3.87.87,0,0,1,.1-.51c.15-.18.22,0,.31.17s.13.18.36.18.35.09.47.07.1-.26.22-.34.22.18.27.25.16.14.37.18c1.26.32.63-1.41.25-2a5.58,5.58,0,0,0-2.2-1.86,6.24,6.24,0,0,0-2.16-.35,3.83,3.83,0,0,0-1.17,0,4.61,4.61,0,0,0-3.22,2,6.07,6.07,0,0,0-.72,1.89C599.79,264.69,600.43,265.7,600.16,266.67Zm4.53,4.36a4,4,0,0,0,.88.54.51.51,0,0,0,.21,0c.26,0,.39-.33.61-.51s.54-.17.35-.51c-.06-.13-.31-.27-.12-.41s.54.23.73.06,0-.11,0-.18a1,1,0,0,1,.2-.48c.07-.07.18,0,.22,0,.25.09.5.27.63.25s.28,0,.34-.75c.07-.43.12-.85.18-1.28A6.53,6.53,0,0,0,609,267a.61.61,0,0,0-.32-.66c-.33-.17-1.73-.28-1.73-.38a.19.19,0,0,1,.17-.22,3.48,3.48,0,0,1,.39,0,2.76,2.76,0,0,1,1.51.37s.32.27.35.14a.54.54,0,0,1,0-.19,1.54,1.54,0,0,0-.38-1.78,1.25,1.25,0,0,0-.61-.11,3.27,3.27,0,0,0-1.52.1,1.73,1.73,0,0,0-.83.63,1.33,1.33,0,0,1-.51.35c-.24.05-.34-.09-.52.15s-.16.35-.36.47a1.36,1.36,0,0,1-.74.19c-.43,0-.56-.4-.61-.76s-.29-.66-.67-.44a1.53,1.53,0,0,0-.27,1.84c.07.05.65.44.35.49s-.55-.39-.91-.36-.89.11-1.19.15a1.68,1.68,0,0,0-.86.3,4.54,4.54,0,0,0-.83.75c.5.46,2.51,2.52,3.22,2.69.12,0,.42-.27.64-.36C603.44,270.08,604.23,270.72,604.69,271Zm6.37,9.15a3.13,3.13,0,0,0-.34-1.07c-.09-.12-.13-.23-.3-.27a1.44,1.44,0,0,0-.62.05c-.22.06-.42.09-.63.13-.5.1-1,.21-1.48.34s-1.18.28-1.77.44a4,4,0,0,0-1.48.52c-.09.06-.52.36-.44.09s.23-.26.27-.47a4.83,4.83,0,0,0-.34-1.08c-.13-.39-.06-1.62-.21-1.81s-3.19,1-5.23.65c.06.25.1,1.23.14,1.39a7.25,7.25,0,0,0,2.86,4.16,2.46,2.46,0,0,0,1.65.55,7.14,7.14,0,0,0,1.39-.17c.33-.08,1.83-.64,3.31-1.1a8.27,8.27,0,0,0,3-1.16A1.28,1.28,0,0,0,611.06,280.18Zm.72-5.21c0-.24.07-.55-.32-.57a4.18,4.18,0,0,1-1.73-.74c-.39-.25-.53-.62-.9-.11a13.31,13.31,0,0,0-.68,1.23,25.84,25.84,0,0,1-1.51,3,6,6,0,0,0-.79,1.41c-.07.22.8-.14,1-.18l1.49-.31c.8-.16,1.6-.3,2.4-.45C611,278.25,611.72,275.7,611.78,275Zm3.71,4.66c-.48-.05-.68-.06-1.92-.24-.38-.05-.76-.12-1.13-.18a3.43,3.43,0,0,0-1.05-.16,2.34,2.34,0,0,1,.2,1.14c0,.17-.19.7-.13.84s1.06,0,1.27,0a14.85,14.85,0,0,1,1.64-.52,3.88,3.88,0,0,0,1.13-.06c.32-.07,1.38-.1,1.53-.43S616.77,279.87,615.49,279.63Zm53.4-1.92c.17-.19,1.15-1.61,2.31-3.39l1.44-4c.1-.28.49-1.6.49-1.6-1-.21-2.85,1.85-3.38,3.72A27.81,27.81,0,0,0,668.89,277.71Zm-.07.28a.42.42,0,0,0,0,.47c.14.14.26,0,.41-.07a4.19,4.19,0,0,1,1.53-.37c.42-.07,1-.13,1.28-.55.05-.08.41-1.4.6-1.31l-1.53-.76a10.86,10.86,0,0,0-1.05,1.48C670.09,277.48,669.08,277.58,668.82,278Zm-22.66-10.72c.33,0,1.26-.24,2.64-2a51.79,51.79,0,0,1,4.2-4.93c1.23-1.12-.66-3.7-1.16-4.33-.08-.07-.56.4-.92.35-.11.3-.89.57-1.38.75a6.34,6.34,0,0,0-.91.46.74.74,0,0,1-.52.49c-.22.07-.47-.2-.48-.21a1.82,1.82,0,0,0-.6.14c-.47.16-1.71.85-1.76,1.28a27.83,27.83,0,0,0-.23,3.91c0,.43-.16.83-.93.94l-.63.1a6.48,6.48,0,0,1,.32.87,5,5,0,0,0,.64,1.84,6.51,6.51,0,0,0,.83.83c.29.23.53.5.93.46a2.42,2.42,0,0,0,.77-.3l.62-.33c.45-.23.91-.45,1.37-.65a30,30,0,0,1,3.19-1.23,26.91,26.91,0,0,1,7.76-1.35h.41a.69.69,0,0,1,.46.24v-.11a12.84,12.84,0,0,1,.11-1.66,1.36,1.36,0,0,0,0-.21,8.5,8.5,0,0,0-1-2.34c-.38-.81-.54-1.19-.5-1.49s.32-.57-.15-.48a3.07,3.07,0,0,0-.92.42,12.21,12.21,0,0,0-2.71,2.26,39.88,39.88,0,0,0-3,3.52,1.83,1.83,0,0,1-.13.16c-.06.09-.37.47-.44.29s.32-.63.39-.72a18,18,0,0,1,3.58-4.33c.14-.13.37-.27.49-.41.54-.66-1.64.2-2.53.72-2,1.17-6.23,8.37-8.2,7.35C645.55,267.47,645.9,267.3,646.16,267.27Zm-8.26-4.2h0a4,4,0,0,0,2.44.89c.25,0,1.46,0,2.21-.11l1.56-.19a.53.53,0,0,0,.45-.49c.05-.71.07-1.53.07-2.4s0-1.56,0-2.36c0,0-.33-4-.66-5.55,0-.13.21-.27.33-.31s.11.07.14.2.06.34.09.51a6.19,6.19,0,0,0,1.95-2c0,.08.07.15,0,.24a7.29,7.29,0,0,1-1.9,2.18,38.63,38.63,0,0,1,.45,4.23c.15,0,.32-.11.46-.16l.25-.06h0l.53-.1.6-.12a2.91,2.91,0,0,1,.52-.16c-.08-.24-.21-.59-.39-1a8.14,8.14,0,0,0-1.77-2.5s-.08-.33,0-.28c1.26.67,2.47,3.14,2.66,3.76,0,0,1-.56,1.56-.75s1.84-.82,1.84-.82.57-.3.47-.5a5.43,5.43,0,0,0-.41-.62,13.59,13.59,0,0,0-1.2-1.52,7.24,7.24,0,0,0-3.25-2.15l-.1,0a12.15,12.15,0,0,0-1.24-.73h-.11a.59.59,0,0,0-.32.17l-.18.21-.52.56a4.29,4.29,0,0,1-3.13,1.44,5.68,5.68,0,0,1-2.58-.75c-.8-.46-1.5-1-1.52-1.8v0a8.17,8.17,0,0,0-1.52.42c-1.3.53-4.73,2.21-5.39,3.94h0a.62.62,0,0,1,0,.1s0,0,.05,0c.23.23.91.84,1.28,1.19a4.79,4.79,0,0,0,1.42.86h.52a9,9,0,0,1,2.34-3.59c.1-.1.4-.14.43,0a7.69,7.69,0,0,0-1.89,2.69c-.2.5-.36.88-.43,1.1,0,0,0,0,0,0a1.74,1.74,0,0,0,.84.33l1.44.24c.49.1.9.66.94.35,0-1.66.12-3.24.19-4-.4-.31-1.79-1.45-1.7-2.31a5.11,5.11,0,0,0,1.76,1.88c0-.12.06-.21.17-.17s.3.18.29.28c0,.42-.25,6-.25,6.42A16.09,16.09,0,0,0,637.9,263.07Zm10.16-34.39c0-.14,0-.19.1-.3-.36,0-.52.38-.77.59s-.66.24-.7.34l0,.05,0,0a.63.63,0,0,0,.63.36,3.06,3.06,0,0,0,1.35-.45,6.39,6.39,0,0,1,.68-.43,2.4,2.4,0,0,1,.76.06c0-.49-.54-.7-1-.7A1.68,1.68,0,0,0,648.06,228.68Zm-1.56,2.84a1.55,1.55,0,0,0-.46.93l0,.21.18-.1a1.17,1.17,0,0,1,.58-.15,3.48,3.48,0,0,1,.54.07,3.33,3.33,0,0,0,.73.08c.15,0,.29,0,.44,0a1,1,0,0,0,.59-.47,1,1,0,0,1,.42-.39.47.47,0,0,1,.16,0c.18,0,.33.14.52.35a1.21,1.21,0,0,0,1,.39h0a5.52,5.52,0,0,0,1.07-.15c.25,0,.49-.09.68-.1v-.21h-.19a3.16,3.16,0,0,1-1.7-.5,1.42,1.42,0,0,1-.26-.24,1.14,1.14,0,0,0-.42-.32.77.77,0,0,0-.37-.08,1.51,1.51,0,0,0-.82.28l-.21.15a1.35,1.35,0,0,1-.74.34.52.52,0,0,1-.17,0l-.27-.08a2.17,2.17,0,0,0-.65-.14A.92.92,0,0,0,646.5,231.52Zm5.57,4.29a3.33,3.33,0,0,0-.87-.12,2.26,2.26,0,0,1-1.11-.26.55.55,0,0,1-.17-.13.69.69,0,0,1-.18-.36c-.06-.26-.13-.56-.76-.74a.83.83,0,0,0-.34,0,1.33,1.33,0,0,0-.78.3.76.76,0,0,1-.36.18h-.07c-.21-.06-.41-.32-.62-.56s-.56-.7-.95-.7l-.2,0a.58.58,0,0,0-.37.39.41.41,0,0,0,.07.39.84.84,0,0,0,.39.27,1.06,1.06,0,0,1,.26.17,1.93,1.93,0,0,1,.26.3,1.94,1.94,0,0,0,.33.37,1.15,1.15,0,0,0,.76.28,1.06,1.06,0,0,0,.31-.05,1.17,1.17,0,0,0,.33-.14,1.18,1.18,0,0,1,.49-.16l.13,0a2,2,0,0,1,.66.61,1.5,1.5,0,0,0,.4.4,1.86,1.86,0,0,0,.84.21,3.53,3.53,0,0,0,1.12-.28c.13,0,.27-.11.44-.16l.31-.11Zm-7.38-9.61c-.71-.23-1.86,0-3.37.8a3,3,0,0,0-2.59-1.05,2.76,2.76,0,0,0-2.43,3.27c.18,2.63,4.86,7,4.86,7a.25.25,0,0,0,.43,0s4.1-3.81,4.62-7A2.59,2.59,0,0,0,644.69,226.2Zm-2,20.12c0,2.3-1.31,4.65-2.77,4.65a4.1,4.1,0,0,1-1.28-.42c-.12,0-.35.22.39.63a5.24,5.24,0,0,0,2.27.66,4,4,0,0,0,2.75-1.2,2.64,2.64,0,0,0,.33-.47c.2-.36-.47-.11-.57,0a1.47,1.47,0,0,0-.52.36c.09-.12-.25.33-.09-1.06a17.55,17.55,0,0,0-.08-4c0-.37-.43-.8-.5-1.18a3.19,3.19,0,0,0-.54-1.13,4.13,4.13,0,0,0-.31-.46,2,2,0,0,0-.51-.39,9.65,9.65,0,0,1-.81-.62c-.23-.2-.48-.12-.74-.27a1.16,1.16,0,0,0-.7-.29,1.2,1.2,0,0,1-.42-.07c-.15-.08-.14-.1-.33-.07a2.74,2.74,0,0,1-.81,0,4.32,4.32,0,0,0-1.47.24,2.83,2.83,0,0,1-.42.07c-.17,0-.2-.05-.29.12s-.19.44-.33.66a2,2,0,0,0-.22.88c0,.3-.19.55-.22.85a4.14,4.14,0,0,0,.11.87,5.79,5.79,0,0,0,.12.82.7.7,0,0,0,.19.37c.13.11.1,0,.18-.14a1.64,1.64,0,0,1,.84-.54c.19-.06.82-.25,1-.08a3.39,3.39,0,0,1,.77,1,1.82,1.82,0,0,1,.22.88c-.13-.1-.19-.45-.25-.62a1.79,1.79,0,0,0-.74-.91,1.74,1.74,0,0,0-.93.09,1.12,1.12,0,0,0-.79.59,10.72,10.72,0,0,0,.95,1.4c.37.47.76.92,1,1.19a3.74,3.74,0,0,0,2.53,1.08c2.68,0,2.71-3.39,2.71-3.39,0-.2,0-.43,0-.64,0,0,0-.22.11-.22s.14.39.14.39C642.71,246.1,642.71,246.32,642.71,246.32Zm1.79-2.39-.06-.2c-.24-.77,0-1.41-.31-2.19a3.83,3.83,0,0,0-1.63-2,6.29,6.29,0,0,1-1.36-1,4.59,4.59,0,0,0-2.83-.88,6.49,6.49,0,0,0-3.2,1.12c-2,1.07-2.17,3.24-1.56,5.18a9.48,9.48,0,0,0,.37,1.3,1.88,1.88,0,0,0,.77.68c0-.17-.18-.39-.25-.55a1.42,1.42,0,0,1-.1-.58,1.46,1.46,0,0,0-.09-.56c0-.13,0-.49,0-.55s-.27.29-.4.27c0-.2.19-.32.33-.42s.61-.84.4-.94-.28.11-.37.12-.24,0-.19-.1.26-.09.33-.12c.25-.11.27-.35.39-.55a.61.61,0,0,0,.14-.29c0-.14,0-.24,0-.37a2.31,2.31,0,0,0,.07-.51c0-.34,0-1.07.51-1.09,0,.23-.2.74,0,.92s.92,0,1.19-.13a13,13,0,0,0,1.27-.58c.09-.08.14-.19.21-.12a.19.19,0,0,1,0,.28l-.23.21c-.07.06-.3.12-.32.21.25,0,.43-.11.65-.15s.49.05.7-.12c0,0,.11-.18.18-.17s.11.24.06.31-.41.11-.52.28a1.64,1.64,0,0,1,.93.07c.22.11.37.3.62.29a1,1,0,0,0,.3-.09,1,1,0,0,1,.45.09.62.62,0,0,0,.4.1c.12,0,.27-.15.35,0,.21.37-.51.33-.63.38h-.1c0,.13.32.22.4.27s.27.28.39.28A3.07,3.07,0,0,0,643,242c.1,0,.1.2,0,.28a.5.5,0,0,1-.38.18,3.52,3.52,0,0,0-.54.1,6.15,6.15,0,0,1,.67,1,2.56,2.56,0,0,0,.38.73,2.13,2.13,0,0,1,.47,2.14C644.36,246.46,644.81,244.87,644.5,243.93Zm-8.27-9.48a.76.76,0,0,1-.66.21h-.09a1.36,1.36,0,0,0-.54.07c-.29.12-.34.31-.44.57a1.85,1.85,0,0,1-.29.58l-.1.13c0,.05.44,0,.5,0s.25-.3.45-.38a.57.57,0,0,1,.22,0h.31a.7.7,0,0,0,.45-.14c.58-.51.92-.62,1.12-.62a.39.39,0,0,1,.36.22l.05.13.12-.08a.31.31,0,0,0,.12-.24,2.26,2.26,0,0,0-.58-1.33.64.64,0,0,0-.42-.24c-.29,0-.38.4-.45.75A1.22,1.22,0,0,1,636.23,234.45Zm-.17-2.85a.39.39,0,0,0-.4-.38l-.14,0a1.89,1.89,0,0,0-.68.34,1.68,1.68,0,0,1-.37.21.71.71,0,0,1-.21,0,3,3,0,0,1-.41,0,2.63,2.63,0,0,0-.48-.06,1.28,1.28,0,0,0-.56.13c-.42.21-.59.84-.7,1.3a1.73,1.73,0,0,1-.16.48,1.83,1.83,0,0,1-.6.11,1.82,1.82,0,0,0-1,.26,2,2,0,0,0-.45.89l.2.06a1.06,1.06,0,0,1,.91-.52h.28a1.08,1.08,0,0,1,.32,0,.67.67,0,0,0,.28.05,1.69,1.69,0,0,0,.34,0c.51-.09.67-.65.8-1.18a2.12,2.12,0,0,1,.28-.74c.09-.11.16-.13.21-.13a1,1,0,0,1,.43.22,1.89,1.89,0,0,0,.5.28.52.52,0,0,0,.21,0,1.19,1.19,0,0,0,.76-.44,2,2,0,0,1,.34-.28A.54.54,0,0,0,636.06,231.6Zm16-3.3a1.84,1.84,0,0,0-.89.28,2,2,0,0,0-.33.32,1.08,1.08,0,0,1-.54.38.27.27,0,0,1-.13,0,.4.4,0,0,0-.26-.09h-.09v.09c0,.21.39.43.54.47a1.17,1.17,0,0,0,.26,0c.75,0,1.16-.88,1.92-.88a.75.75,0,0,1,.26,0l.29.09-.17-.24A1,1,0,0,0,652,228.3Zm-3.83-2.65c-.07.08-.14.18-.22.26a.76.76,0,0,1-.32.17h-.42a.9.9,0,0,0-.52.12.68.68,0,0,0-.31.63.41.41,0,0,0,.33.35,1,1,0,0,0,.33,0,1.58,1.58,0,0,0,1.11-.53l.24-.26a1.17,1.17,0,0,1,.79-.55l.31,0a3.11,3.11,0,0,0,.33,0h.06c.24,0,1.21-.17,1.24-.67l-.2,0s0,.05-.34.05a9.3,9.3,0,0,1-1.15-.11,4,4,0,0,0-.47-.05h0A1.17,1.17,0,0,0,648.18,225.65Zm-2.29-1.75,0,.07a3.29,3.29,0,0,1-.43.34c-.66.51-1.17.91-1.17,1.23a.28.28,0,0,0,.13.23.66.66,0,0,0,.29.06,1.55,1.55,0,0,0,.64-.15.91.91,0,0,0,.32-.39.67.67,0,0,1,.25-.3l.2-.12c.29-.14.64-.33.69-.72a2.39,2.39,0,0,0-.17-.84,2.24,2.24,0,0,1-.16-.68.78.78,0,0,1,.48-.12.84.84,0,0,0,.74-.32,1.73,1.73,0,0,0,.18-.71,2.19,2.19,0,0,1,0-.3c0-.11,0-.23.06-.34a2.55,2.55,0,0,1,.18-.71l0-.09-.07-.1H648s-.09,0-.26.24a2.28,2.28,0,0,0-.4.73,2.13,2.13,0,0,0-.08.27c-.08.31-.14.58-.44.7a1.52,1.52,0,0,1-.38.05.83.83,0,0,0-.72.3.91.91,0,0,0,0,1C645.88,223.46,646,223.69,645.89,223.9ZM642,225.27a.42.42,0,0,0,.43.32.56.56,0,0,0,.3-.08c.3-.19.31-.57.32-.87a1.42,1.42,0,0,1,0-.3c0-.19.23-.34.44-.5s.62-.5.56-.94a1.92,1.92,0,0,0-.24-.69.71.71,0,0,1-.13-.49c0-.06.21-.07.4-.08a1.29,1.29,0,0,0,1-.37,1.39,1.39,0,0,0,.13-1.17,1.91,1.91,0,0,0-1.11-1.44H644l0,0c0,.07,0,.12.06.23a2.21,2.21,0,0,1,.45,1.4c0,.27-.32.32-.75.36s-.9.09-1,.56a1.59,1.59,0,0,0,.14,1,1.08,1.08,0,0,1,.1.68,1.29,1.29,0,0,1-.41.52A1.69,1.69,0,0,0,642,225.27Zm-.81-6.14c0,.38-.3.64-.63.91s-.74.6-.74,1.12.23.75.51.82.32.08.32.49a2,2,0,0,1-.24.79,2.13,2.13,0,0,0-.26.94,1.57,1.57,0,0,0,1.1,1.37l.08,0,.05-.08a.66.66,0,0,0-.07-.55.64.64,0,0,1-.06-.16,2.59,2.59,0,0,1-.12-.78,1.2,1.2,0,0,1,.28-.79,1.32,1.32,0,0,0,.31-.87,1,1,0,0,0-.54-.86c-.2-.13-.32-.23-.32-.41s.16-.32.36-.5a1.52,1.52,0,0,0,.55-1.93,2.2,2.2,0,0,0-1.51-1.27h0l-.07,0,0,0c0,.08,0,.11.13.2S641.17,218.5,641.17,219.13Zm-3.84,3.13c.15.05.31.1.31.15a1,1,0,0,1-.2.58,2.33,2.33,0,0,0-.31.73.64.64,0,0,0,.34.62.78.78,0,0,1,.37.84.17.17,0,0,0,0,.15.77.77,0,0,0,.51.17.5.5,0,0,0,.51-.26.79.79,0,0,0-.42-1.17c-.16-.09-.3-.17-.34-.31a1.08,1.08,0,0,1,.2-.7,1.72,1.72,0,0,0,.26-1.06c-.09-.4-.47-.54-.81-.65s-.58-.21-.64-.46a1.87,1.87,0,0,1,.22-1.09c0-.11.07-.16,0-.22l0-.05h-.06c-.13,0-.6.29-.85,1.15C636.18,221.91,636.9,222.13,637.33,222.26Zm-4,.11a1.31,1.31,0,0,1,.69.8,2.7,2.7,0,0,1,.06.94,1.61,1.61,0,0,0,.2,1.12.89.89,0,0,0,.79.3,1.23,1.23,0,0,1,1.23.79l0,.08.09,0a.54.54,0,0,0,.33-.35c.07-.3-.18-.61-.33-.78a2.33,2.33,0,0,0-.91-.57l-.24-.14c-.35-.17-.34-.26-.3-.53a2.17,2.17,0,0,0-.29-1.44,1.26,1.26,0,0,0-.95-.68,1.08,1.08,0,0,1-.69-.44l-.14-.23,0,.26A.76.76,0,0,0,633.31,222.37Zm-2.82,4.35a1.36,1.36,0,0,0,1,.65,1.16,1.16,0,0,0,.7-.28.58.58,0,0,1,.28-.13h0a1.05,1.05,0,0,1,.35.53,3,3,0,0,0,.37.67.9.9,0,0,0,.72.35,2.05,2.05,0,0,0,.55-.1,1.75,1.75,0,0,1,.48-.09.6.6,0,0,1,.45.21.19.19,0,0,0,.13.05c.14,0,.27-.16.35-.3a.59.59,0,0,0,.06-.58,1,1,0,0,0-.89-.53,2.78,2.78,0,0,0-.72.13,2.63,2.63,0,0,1-.48.09l-.12,0c-.17-.07-.21-.22-.27-.45a.93.93,0,0,0-.5-.75.48.48,0,0,0-.26-.07,1.28,1.28,0,0,0-.61.23,1.29,1.29,0,0,1-.65.24.89.89,0,0,1-.44-.15c-.39-.25-.56-.34-.66-.34a.13.13,0,0,0-.13.07C630.18,226.24,630.21,226.36,630.49,226.72ZM629,231.55l.19-.22a1.21,1.21,0,0,1,.74-.41H630a1.28,1.28,0,0,1,.5.24,1.17,1.17,0,0,0,.65.27.78.78,0,0,0,.22,0,.92.92,0,0,0,.52-.5,1.78,1.78,0,0,1,.38-.48.4.4,0,0,1,.24-.09,1.17,1.17,0,0,1,.57.3,2.47,2.47,0,0,0,.38.25,1.69,1.69,0,0,0,.56.09,2.75,2.75,0,0,0,1.65-.67.36.36,0,0,0,.13-.42.72.72,0,0,0-.57-.4c-.09,0-.15.06-.23.12a1,1,0,0,1-.73.28,3.31,3.31,0,0,1-1.54-.51.57.57,0,0,0-.25-.06c-.31,0-.59.29-.82.54l-.15.17a1.31,1.31,0,0,0-.2.23c-.11.12-.14.15-.24.15H631l-.16,0a5.75,5.75,0,0,0-.79-.09,1.12,1.12,0,0,0-.56.11,1,1,0,0,0-.49.85Zm-1.37,26.75a138.54,138.54,0,0,1,12,8.54l0,0a2.51,2.51,0,0,0,.13-.33c.08-.27.17-.63.24-1s.16-.79.2-1.06a4.4,4.4,0,0,1-2.65-1,1.19,1.19,0,0,1-.17-.51c0-.22-.06-.5-.08-.82,0-.5,0-1.12-.06-1.8a4.93,4.93,0,0,0-.16-1.29c-.17-.53-1.68-1.23-2.42-1.38a1.87,1.87,0,0,1-1-.43c-.11-.07-.1-.06-.17-.07s-.13,0-.27,0l-.26,0a5,5,0,0,1-1.74-1l-1.07-1-.28.32c-.41.37-.6,1.23-1,1.71S627.79,257.87,627.61,258.3Zm-1.67,4.19a25.73,25.73,0,0,1,11.49,3.21c-3.32-2.59-11.86-7.77-11.89-7.78A13.37,13.37,0,0,0,625.94,262.49Zm-6.12,6.78c3.35-.82,6.75-2,9.21-2A17,17,0,0,1,642.25,273a1.44,1.44,0,0,0,1.39,0,7.42,7.42,0,0,1,1.07-1.19c.59-.51,7.11-6.21,15.46-6.25.25,0,.35.48.35.48h-.85c-8.35.24-14.55,6.15-15.1,6.71-.06.05,9.71-4.88,17.82-4.88,0,0-.44-.89-.47-.94a9.54,9.54,0,0,0-1.5-2.15c-.06-.06-.09-.06-.09-.06-9.16,0-16.67,5.7-16.8,5.8-.34.25-.5.18-.69,0a24.09,24.09,0,0,0-9.85-6.32,42.19,42.19,0,0,0-7.88-1.23,2.86,2.86,0,0,0-2.43,1C622.62,264.13,619.71,269.3,619.82,269.27Zm41.6-6c0,.45-.21.87-.26,1.32s.08.63.4,1.06a8.9,8.9,0,0,1,.88,1.65s.5-1.94.66-2.63a1.48,1.48,0,0,0,0-.33,14.87,14.87,0,0,0-.86-3.55,2.08,2.08,0,0,1-1,.28c0,.54.15,1.05.19,1.61A3.87,3.87,0,0,1,661.42,263.23Zm-3.72,32.89a9.42,9.42,0,0,0,2,.27,8.25,8.25,0,0,0,2.52-.23s0,.12,0-.19-.4-.52-.4-.52.33-19.88.34-20c0-.63,0-1.28-.41-1.21-.06,0-1.48.25-2,.25a13.14,13.14,0,0,1-1.8-.18c-.43-.07-.63.05-.63.23S657.72,295.58,657.7,296.12Zm4.64-24.3a3.46,3.46,0,0,0,0-.43,2.46,2.46,0,0,0-2.7-2,2.61,2.61,0,0,0-2.69,2.3c0,1,.28,1.5.69,1.73a3.58,3.58,0,0,0,1.79.28h.21a3.79,3.79,0,0,0,1.9-.43A1.56,1.56,0,0,0,662.34,271.82Zm-29.46-2.41c.09-.16.53-.38.37-.53s-.75.26-1,.52a6.27,6.27,0,0,1-1,.76c-.06,0-.68.43-.64.2a11.85,11.85,0,0,0,1.26-1.07,12.49,12.49,0,0,1,1.08-.84c.19-.15.13-.36-.25-.28a.7.7,0,0,0-.39.18,6.73,6.73,0,0,0-1,.82,4.58,4.58,0,0,1-.89.62c-.15.09-.44.3-.63.26-.44-.07.5-.57.61-.65s.52-.39.77-.59a4.85,4.85,0,0,1,.63-.49c.11-.07.43-.14.41-.31s-.34-.13-.45-.12a2.05,2.05,0,0,0-1,.5,20.1,20.1,0,0,1-2,1.08c-.22-.1.53-.49.61-1,.05-.32,0-.68-.3-.61-.15,0-.17.16-.21.29s-.2.27-.37.41-.53.52-.83.73c-.94.65-.55,2,.46,1.84.78-.1,2,.26,3.08-.18a5.28,5.28,0,0,0,1.58-.83c.09-.11.21-.38.34-.54S633,269.44,632.88,269.41Zm-5.43-.43c-.38-.39-1.28-.31-2-.08a2,2,0,0,0-.14,1.9c.56,1.15,1.39,2.28,1.62,1.46C625.62,270,626.3,269.13,627.45,269Zm-7.88,3.48c0,1.54,1.73,2,2.94,1.88s1.64-.24,2.1-1a2.33,2.33,0,0,0-1.24-3.24,4.53,4.53,0,0,0-1.67-.09A2.35,2.35,0,0,0,619.57,272.46Zm5.29,2.64c-.16-.28-1.49,0-2.56,0-.78,0-2.49-.63-2.42.94,0,0,.38,20.89.38,20.89a.09.09,0,0,1,0,0,9,9,0,0,0,2.14.26,8.51,8.51,0,0,0,2.12-.25c0-1.8.47-20.59.48-20.78S625.14,275.38,624.86,275.1Zm29.89,22.64c-.93.73-2.54,1.67-5.81,1.54-2.46-.09-12.74-3.43-15-4.72a8.15,8.15,0,0,1-2.55-2.15,33.05,33.05,0,0,1-2.27-5.12,29.56,29.56,0,0,0,.36,4c.38,2.78,2.13,5.76,5.13,6.62a4.42,4.42,0,0,0,3.31,0,4.72,4.72,0,0,1,1.52-.48c1.34,0,2.75,1,3.93,1.44a14.49,14.49,0,0,0,1.78.63,18.11,18.11,0,0,0,4.44.56C652,300,653.85,299.14,654.75,297.74Zm8.42-1.35a15.23,15.23,0,0,1-3.51.48c-2.37-.07-2.28-.26-2.51-.59-.75-1.09-.45-7.55-.77-12.93-.16-2.62,1.9-10.58-3.71-11.8-3.8-.46-6.87,5.57-11.67,2.95a18.89,18.89,0,0,0-9.37-2.88c-6.22.72-5.65,5.14-5.57,5.85a19,19,0,0,1,.09,4.09c-.06,3-1,6.52-1.06,10.36.48,6.24,3.64,6.43,3.79,6.45.4.2-4.26.4-3.55.1.31-.08.43-.1.46-.28s.16-.59-.12-.72a2.85,2.85,0,0,0-.7-.27.28.28,0,0,1-.15.13,8.46,8.46,0,0,1-2.37.31c-.46,0-2.44-.27-2.74-.31-.53-.09-.58,1.1,0,1.24.88.3,2,.13,2,.37s-2.84.14-3.75.2a1,1,0,0,0,.12,1.4c.85,0,6-.89,10.61-1.21a84.78,84.78,0,0,1,9-.07c-.14.41-.1.74-.26,1.17a.48.48,0,0,0,.29.65c.17,0,.94.31,2.3-1.08a8.4,8.4,0,0,0,.83-1c.14-.22-.05-.29-.5-.51a4.09,4.09,0,0,0-1.49-.46c-.54,0-.48.07-1,.31a4.86,4.86,0,0,1-3.24.17,10.08,10.08,0,0,1-2.51-1,8.62,8.62,0,0,1-3.11-2.24,5.45,5.45,0,0,1-1.06-2.17c-.11-.38-.07-.74-.16-.8s-.13,1.1-.12,1.21a16.18,16.18,0,0,0,.47,2.48s-.38.29-1.06-1.17a6.41,6.41,0,0,1,0-3.81,28.8,28.8,0,0,0,1-4.14s.08-8.91.08-8.91,0-4.81,4.14-4.81c2.79.07,5.52,4,6.74,6.95,0,0,2.84,7.15,6.07,8.55a6.32,6.32,0,0,0,2,.35c.46,0,.29.86-2.18,0-3-1-6.67-8.54-6.67-8.54-2-3.55-3.89-6.66-6-6.6a3.24,3.24,0,0,0-2.6,1.57,4.46,4.46,0,0,0-.82,2.87l-.09,7.52a3.47,3.47,0,0,1,3.07-1.45,2.72,2.72,0,0,1,.84.13c4.92,1.43,6.79,5.19,8.93,8s6.56,3.49,8.29,3.48c.2,0,.92.29.73.35-1.29.44-7.42-.09-7.3-.08-6.22-.38-5.14-9.6-11.35-11.13a1.71,1.71,0,0,0-2.1.72c1.08,6,3.82,7.83,5.33,8.68,3.5,1.55,8.78,3.76,13.87,3.89a9.55,9.55,0,0,0,6.21-2.32c-.15.73-.33,3.09.39,3.16s9.12.42,9.16.41c.63,0,.65-1.32.14-1.34s-4.91.23-4.91,0,2.49-.47,2.89-.52C663.69,297.8,663.6,296.31,663.17,296.39Zm3.38-41.81c-.13-.06-.29.15-.51.25a8.22,8.22,0,0,0-1.41.86c-.49.36-.76.56-.92.71s-.28.38-.33.34,0-.33.12-.42a8.79,8.79,0,0,1,2.55-1.75c.58-.23.63-.54.52-.71s-.61.07-.61.07c-.15.18-.26.18-.56.35a7.32,7.32,0,0,0-1.63,1c-.61.38-.87,1.1-.87.84a1.29,1.29,0,0,1,.51-.79,8.06,8.06,0,0,1,1.92-1.32c.47-.09.64-.47.53-.55s-.87.13-1.49.35c-.46.18-1.32.84-1.55.94a1.92,1.92,0,0,1-.59,1.23c-.28.39-.17.49-.26.58s-.19-.26-.07-.49c0,0,0-.1.29-.49a2.06,2.06,0,0,0,.53-1.15c0-.15-.11-.44-.3-.38s-.22.27-.3.37-.25.29-.37.43-.49.53-.7.81a10.65,10.65,0,0,0-.49,1.93,1.12,1.12,0,0,1-.29.7c-.09.15-.27.16-.36.31s0,.3,0,.44a3.13,3.13,0,0,0,.27.72,1.8,1.8,0,0,0,.43.65c.39.33.78.19,1.19,0a3.49,3.49,0,0,0,1.1-.78,10.6,10.6,0,0,0,1.2-1.89,1.52,1.52,0,0,1,.22-.34c.46-.34,1.08-1,1.31-1.14s.71-.46.57-.71a13.57,13.57,0,0,0-2.33,1.61c0-.23,0-.15.22-.35a9.53,9.53,0,0,1,2.11-1.5C666.24,255.32,666.83,254.81,666.55,254.58Zm2,22.76a1.61,1.61,0,0,1,.06-1.06,8.3,8.3,0,0,0,.19-1.11c-.35.34-1.34,1.11-1.1,1.71s.49,1,.69,1.52C668.73,278.4,668.56,277.53,668.5,277.34Zm5.81,1.43c-.12-.12-.54-.12-.7-.14s-.59-.05-.88-.08a6.82,6.82,0,0,0-4,.85c-.3.19-.09.37.17.43s.62-.13.95-.1.66,0,1,0a1.9,1.9,0,0,1,.53.09c.52.11,1,.36,1.5.46a5.36,5.36,0,0,1,1.1.26C674.19,280.26,674.57,279.08,674.31,278.77Zm3.77-2.09c-.11.49.13.56.4.86,0,.3-.37,0-.58-.18a.48.48,0,0,0-.16-.08,6.1,6.1,0,0,0-1.8-.45c-.56-.07-.85-.18-1.9-.41-.59-.13-1-.58-1.3.2-.15.33-.57,1.33-.22,1.53a14,14,0,0,0,2.59,0c.47,0,4.27.66,4.5.73s.07-.39.07-.39a11,11,0,0,1-.56-3h-.67C678.33,276,678.19,276.25,678.08,276.68Zm5.85-10.93a1.3,1.3,0,0,0-.39-.49c-.26-.19-.62-.07-.89,0a.62.62,0,0,1-.37.07s-.23-.21-.25-.18a1.39,1.39,0,0,1-1.13.32c-.15,0-.18-.08-.3-.14s-.08,0-.2,0a1.06,1.06,0,0,1-1.06-.08,2.41,2.41,0,0,1-.48-1c-.13-.33-.22-.5-.32-.56a.38.38,0,0,0-.08-.11c-.05-.05-.1,0-.14-.05a.72.72,0,0,1,.22-.17c.41-.12.53.75.63,1a1.5,1.5,0,0,0,.4.69.35.35,0,0,0,.33.1s.28-.12.25-.13-.48-1.17-.06-1c.09,0,.17.48.28.59.36.36,1,.26,1.5.19.21,0,.64,0,.49-.35.23,0,.27.25.49.3s1-.21,1-.13c.2-.26-.58-.61-1.17-2.15a11.91,11.91,0,0,0-.8-1.52c-.81-1.8-2.48-3.25-5.84-2a5.52,5.52,0,0,0-2.41,2.08c-.38.53-1.24,1.9-.49,2.45a1.15,1.15,0,0,0,.14-.17,2.75,2.75,0,0,1,1-.86s1-.56,1-.3c0,.08,0,.21,0,.29.9.05,1,.44,1.34,1.1.13.24.86,1.17,1.22.92,0,.1-.06.21-.07.25a.45.45,0,0,1-.14.11c-.18.06-.41-.13-.64-.32a7.83,7.83,0,0,0-2-1.37,1.35,1.35,0,0,0-1.39.25c-.35.49.17,1.27.35,1.77a2.79,2.79,0,0,0,.09.34c.06.14.19.22.26.36a2.09,2.09,0,0,1,.13.26c.09.22.23.81.29,1s.11.44.17.74.21.73.57.58c.17-.08.28-.27.49-.32s.19.08.29.23l.12.17c.06.09.28.22.41.08.41-.25.4-.31.51-.27s.3.08-.1.54c-.06.27.27.34.27.34.46,0,.46.67,1,.52a2.5,2.5,0,0,0,1.11-.9c.19-.22.31-.41.59-.74.11-.12.33-.61.48-.37a1.52,1.52,0,0,1,0,.44c0,.34.4.23.82-.2C683.33,266.24,683.88,266.18,683.93,265.75Zm-76.8,1.46c.16.13.26.28.4.33s.2,0,.35-.09a1.47,1.47,0,0,0,.51-.63c.07-.24.05-.38-.19-.46-.07,0-.31,0-.29.11s.24.11.25.28-.16.21-.37.17a3.43,3.43,0,0,1-.56-.08C606.77,266.73,606.86,267,607.13,267.21Zm43.2-5.94c-.13-.17-1-1.2-1.07-1.14a3.37,3.37,0,0,0,.52,1.68C650.14,262,650.46,261.64,650.33,261.27ZM624,276.2h-2.47c-.2,0-.06.17.17.17a5.89,5.89,0,0,1,2.46.41C624.6,276.78,624.65,276.2,624,276.2Zm31.51,7.46c-.21-.06-1,6-1.55,7.68s-1.12,2.43-2.1,3c-.19.1-.15.54-.15.54a4.43,4.43,0,0,0,2.94-3c.35-1.54.69-3.37.85-4.61.09-.69.31-3.09.31-3.11h0C655.83,283.84,655.74,283.71,655.53,283.66Zm-17.61-15c.05,0,.41.27.53.13s-2.21-1.92-6.76-2.78a31.46,31.46,0,0,0-5.63-.47c-1.55,0-2.55.1-2.55.1-.24,0-.41.5-.41.5s1.44-.13,3-.13a31.51,31.51,0,0,1,5.55.47A16.54,16.54,0,0,1,637.92,268.67Zm2.16-25.93a2.61,2.61,0,0,0-1.16.28,3.73,3.73,0,0,0-1,.84,1.07,1.07,0,0,0,0,.66c.12.36.12.37.27.54a.66.66,0,0,0,.36.19s-.73-.83-.33-1.28c1.22-1.37,2.3-.64,2.3-.64S640.85,242.7,640.08,242.74Zm-4.79,19.63a.44.44,0,0,0,.5.29c.32-.09.19-1.49.17-1.51A2.58,2.58,0,0,0,635.29,262.37Zm-5.19-4.17c-.22.49.25.63.47.51s.57-1.36.53-1.39A3.78,3.78,0,0,0,630.1,258.2Zm3.91,2.54c0,.19.31.34.5.25a2.81,2.81,0,0,0,.29-1.47A2.59,2.59,0,0,0,634,260.74Zm-2.44-.53a.36.36,0,0,0,.42.31c.54-.06.54-1.6.51-1.64S631.54,259.79,631.57,260.21ZM658.19,276a5,5,0,0,1,2.16-.29.15.15,0,1,0,0-.3h-2C657.72,275.44,657.77,276,658.19,276ZM640.4,247.26l-.88.25c-.43.16-.36.45-.68.46a.65.65,0,0,0-.45.23c-.06.11.67.1.91-.16.28-.46.54-.35.76-.44S640.61,247.2,640.4,247.26ZM637,245.72a1,1,0,0,0-.59,0c-.15.07-.71.35-.51.6a.89.89,0,0,1,.91-.37c.06.17-.51.4-.77.52-.2.51.62.08.74,0,.29-.18.39-.4.55-.47S637.07,245.75,637,245.72Zm14.22,33c-.72,0-3.88,6.29-10.5,1.93-.27-.17-.89-.81-1-.67s.24.49.42.67C646.61,287.11,652.19,278.71,651.24,278.71ZM639.13,247c.06,0,.13,0,.13,0a.12.12,0,0,0-.12-.21,3.72,3.72,0,0,1-.64.52.6.6,0,0,1-.27.1.14.14,0,0,0-.09.07.12.12,0,0,0,.12.09l.13,0a2.42,2.42,0,0,0,.48-.1A1.85,1.85,0,0,0,639.13,247Zm1.11,1a5.22,5.22,0,0,1-.86.55.72.72,0,0,1-.68,0c0,.1.51.5,1.12,0C640.28,248.14,640.38,247.79,640.24,247.9Zm-.35-4a1.6,1.6,0,0,0-.79.25,1.37,1.37,0,0,0-.29.24c-.07.11,0,.11,0,.24s0,.26,0,.36.25,0,.35,0a1.22,1.22,0,0,0,.92-.51c.06-.09.37-.55.34-.65s-.18-.07-.2,0c-.19.7-1,1-1.15.69S640,243.94,639.89,243.94Z" transform="translate(-137.92 -199.04)"/><path class="cls-4" d="M640.9,200.91A62.07,62.07,0,1,0,703,263,62.07,62.07,0,0,0,640.9,200.91Zm0,110.69A48.63,48.63,0,1,1,689.53,263,48.62,48.62,0,0,1,640.9,311.6Z" transform="translate(-137.92 -199.04)"/><path class="cls-2" d="M599.82,305.86l-2.1-2.27.21-.19.65.7,3.09-5.65h0l-5.82,2.69.75.82-.2.19-1.58-1.72.21-.19.59.64,7.69-3.57.21.22-4.08,7.5.61.65Zm-6.31-7.63.54.79-.23.16-1.35-2,2.94-6.2,0,0-4.65,3.17.53.79-.23.15-1.27-1.87.23-.15.53.78,6.67-4.54.18.26-3.89,8.19,0,0,6.08-4.15-.52-.77.23-.17,1.27,1.87-.23.17-.54-.8Zm1.34-12.93,1.54,2.91-.25.12-.49-.93L588.92,291l.49.91-.25.13-1.53-2.9.25-.13.49.93,6.73-3.56-.5-.93Zm-7.8,2.84-1.14-2.88.27-.11.34.89,4.93-4.14v0l-6.4.41.41,1-.26.11-.86-2.16.27-.1.31.8,8.46-.55.12.29-6.5,5.5.32.83Zm4.89-9.93-.28.06-.25-1L584,279l.25,1-.28.07-1.45-6,1.94-.47.06.26a1.73,1.73,0,0,0-1.17,2.42l.37,1.55,3.43-.83c-.3-1.2-.4-1.57-1.7-1.44l-.07-.26,3-.73.06.27c-1.25.38-1.28.91-1,2.09l3.67-.89-.35-1.43c-.38-1.57-.7-2.06-2.52-1.94l-.09-.3,2.27-.39Zm-1.66-6.89-.28,0-.09-.94-7.57.72.09.93-.28,0-.34-3.59c-.22-2.34,1-2.81,1.52-2.87,1.59-.14,2,1.23,2.23,2.37h0c.22-1.44.64-2.43,2.58-2.5.58,0,1.12-.15,1.21-.43a1.37,1.37,0,0,0-.15-1.08l.3,0a3.36,3.36,0,0,1,.33,1.06,1.42,1.42,0,0,1-.87,1.6c-.22.09-1.19.26-1.92.41-.56.11-1.46.31-1.31,1.84l.07.74,4-.38-.08-1,.27,0Zm-4.73-1.69-.06-.66c-.14-1.33-.32-2.17-2-2-1.18.12-1.49.66-1.38,1.83l.11,1.15Zm4.14-6.33v.16l-2.09-.07v-.24a2.5,2.5,0,0,0,2.06-2.28,1.92,1.92,0,0,0-1.69-2.12c-.73,0-1.07.13-1.48,1.06-.19.44-.88,2.32-1,2.49a2.21,2.21,0,0,1-3.28.37,2.27,2.27,0,0,1-.8-1.92,3.41,3.41,0,0,1,.6-1.58l-.33-.48v-.18l1.9.07v.25a2.18,2.18,0,0,0-1.88,2,1.64,1.64,0,0,0,1.43,1.79c2,.08.89-4.6,4.21-4.48a2.51,2.51,0,0,1,2.62,2.76,2.57,2.57,0,0,1-.76,1.83Zm.69-8.93-.44,3.26-.27,0,.13-1-7.54-1-.14,1-.28,0,.44-3.26.27,0-.13,1,7.54,1,.14-1Zm.31-1.7-.28-.06.24-1-7.4-1.73-.2.81c-.26,1.12.56,1.44,1.68,2l-.07.31-2.27-.67,1.44-6.14,2.32.46-.07.31c-1.17-.14-2.15.05-2.44,1.28l-.13.53,7.41,1.74.23-1,.27.07Zm.85-4-.27-.1.34-.9L585,242.43l.16-.44,8.38.4.29-.81.26.11-1.06,2.88-.26-.1.34-.92-2.82-.15-.8,2.2,2.22,1.74.37-1,.25.11ZM590,243.4l-3.45-.21v0l2.74,2.16Zm4.5-2.18-.08.15-1.86-1,.11-.2a2.52,2.52,0,0,0,2.84-1.18,1.9,1.9,0,0,0-.61-2.63c-.64-.35-1-.35-1.79.31-.36.32-1.8,1.71-2,1.81a2.21,2.21,0,0,1-3.11-1.09,2.22,2.22,0,0,1,.11-2.08,3.59,3.59,0,0,1,1.22-1.17l-.1-.57.08-.15,1.69.89-.11.21a2.19,2.19,0,0,0-2.57,1,1.64,1.64,0,0,0,.51,2.24c1.79.95,2.79-3.77,5.73-2.22a2.52,2.52,0,0,1,1.18,3.62,2.64,2.64,0,0,1-1.48,1.34ZM598.79,224l-.18.21a2.24,2.24,0,0,0-3,.34,1.91,1.91,0,0,0-.29,1.88,8.55,8.55,0,0,0,2.22,2.52c1.61,1.34,2.94,2.11,4.18.63a2.5,2.5,0,0,0-.15-3.05l.19-.23,1.71,1.43-.21.25-.61-.05a2.84,2.84,0,0,1-.7,1.91c-1.45,1.73-3.78,1.45-5.58-.06s-2-4.13-.94-5.46a2.89,2.89,0,0,1,1.65-1l0-.55.12-.14Zm5,3.3-.19-.2.72-.65L601,218.77l.35-.32,7.23,4.26.63-.58.19.21-2.29,2.07-.19-.21.74-.67-2.43-1.44-1.74,1.57,1.16,2.59.78-.71.19.2Zm1-5.42-3-1.79,0,0,1.41,3.19Zm5.24,0-.17-.24.83-.57-4.38-6.22-.68.48c-1,.67-.55,1.45,0,2.57l-.26.19-1.25-2,5.14-3.63,1.43,1.88-.26.18c-.78-.86-1.64-1.38-2.68-.65l-.43.31,4.38,6.21.83-.58.16.22Zm7.13-9.41-1.59-3.11-.85.42-.13-.24,2.76-1.41.12.25-.84.43,3.45,6.78.85-.43.13.24-2.76,1.41-.12-.25.85-.43-1.71-3.34-3.14,1.59,1.7,3.34.86-.43.12.25L614.19,219l-.12-.26.84-.42-3.45-6.77-.85.43-.13-.25,2.75-1.41.13.25-.85.44,1.59,3.12Zm3.11-1.13c-.67-2.05,0-4.49,2-5.14s4,.9,4.66,3,0,4.5-2,5.15S621,213.43,620.35,211.37Zm5.36-1.74c-.79-2.41-1.65-3.65-3.26-3.14s-1.56,2-.78,4.46,1.66,3.66,3.27,3.13S626.48,212,625.71,209.63Zm3.08,3.36,0-.27,1-.18-1.36-7.49-1,.18,0-.28,3.26-.6,0,.29-1.11.2,1.36,7.49,2.15-.39c1-.18,1.24-1.47,1.24-2.26l.23-.05.28,2.28Zm9.52-1.32L635,212l0-.28,1-.1-.61-7.57-1.06.09,0-.29,3.28-.26,0,.27-1,.09.62,7.59,1-.08Zm6.57-5.95h-.28c-.23-1.17-.85-2.1-2.13-2.13a1.93,1.93,0,0,0-1.64,1,8.26,8.26,0,0,0-.57,3.3c0,2.1.18,3.63,2.11,3.66a2.5,2.5,0,0,0,2.29-2h.3l-.05,2.23h-.33l-.33-.52a2.88,2.88,0,0,1-1.93.65c-2.27,0-3.5-2.05-3.45-4.39a4.06,4.06,0,0,1,3.67-4.14,2.85,2.85,0,0,1,1.78.68l.43-.36h.18Zm.59,6,0-.29,1,.15,3.9-7.46.48.07,1.19,8.31.85.14,0,.27-3.05-.5.05-.27,1,.16-.39-2.79-2.31-.37-1.29,2.51,1,.17,0,.28Zm4.89-2.57-.46-3.43h0l-1.6,3.1Zm7.39,5.32-.15-.06.78-2,.22.08a2.52,2.52,0,0,0,1.46,2.72,1.91,1.91,0,0,0,2.56-.88c.27-.67.24-1.05-.5-1.76-.35-.31-1.88-1.6-2-1.78a2.13,2.13,0,0,1-.22-2.11,2.18,2.18,0,0,1,1-1.11,2.28,2.28,0,0,1,2.08-.09,3.45,3.45,0,0,1,1.29,1.1l.56-.16.16.07-.71,1.76-.22-.09a2.2,2.2,0,0,0-1.26-2.45,1.64,1.64,0,0,0-2.17.73c-.76,1.9,4,2.41,2.79,5.49a2.51,2.51,0,0,1-3.48,1.53,2.55,2.55,0,0,1-1.47-1.34Zm4.91,1.86.14-.24.84.48,6.23-5.68.41.24-1.72,8.2.75.42-.14.24-2.68-1.51.13-.25.86.49.59-2.75-2-1.15L664,216.73l.91.52-.13.23Zm5.47-.72.75-3.38h0l-2.55,2.36Zm9.38,3.2-.23-.16c.49-1.1.54-2.21-.49-3a1.93,1.93,0,0,0-1.89-.19,8.24,8.24,0,0,0-2.39,2.35c-1.27,1.67-2,3-.43,4.19a2.5,2.5,0,0,0,3-.29l.23.18L674,223.68l-.26-.2,0-.6a2.87,2.87,0,0,1-1.95-.61c-1.81-1.36-1.64-3.7-.24-5.59s4-2.24,5.41-1.21a2.87,2.87,0,0,1,1,1.6l.55,0,.14.11Zm-2.89,5.35.2-.21.67.67,5.38-5.38-.67-.66.2-.19,2.55,2.54c1.66,1.67,1,2.79.65,3.19-1.14,1.12-2.35.34-3.23-.4h0c.74,1.26,1,2.29-.39,3.58-.44.39-.78.83-.67,1.1s.41.55.81.73l-.22.22a3.94,3.94,0,0,1-.93-.61,1.42,1.42,0,0,1-.34-1.8c.11-.19.76-.95,1.22-1.53a1.43,1.43,0,0,0-.17-2.25l-.52-.52-2.81,2.81.67.68-.2.2Zm4.72-1.71.47.46c1,.95,1.62,1.47,2.81.29.84-.83.74-1.46-.09-2.28l-.83-.83Zm2.6,9.73-2.06-2.57.22-.18.66.83,5.94-4.75-.66-.83.22-.17,2.06,2.56-.23.19-.65-.83-5.94,4.75.65.83Zm11.62,8.16-.12-.25a2.24,2.24,0,0,0,.91-2.87,1.94,1.94,0,0,0-1.59-1,8.67,8.67,0,0,0-3.2,1c-1.89.91-3.13,1.8-2.29,3.54a2.54,2.54,0,0,0,2.85,1.13l.12.25-2,1-.15-.29.31-.52a2.91,2.91,0,0,1-1.46-1.43c-1-2,.23-4,2.34-5.07s4.6-.17,5.36,1.38a2.8,2.8,0,0,1,.2,1.89l.51.22.08.16Zm-1.07,2.26c2.06-.67,4.49,0,5.12,2s-.92,4-3,4.64-4.51,0-5.15-2S690.43,243.26,692.49,242.59ZM694.2,248c2.4-.77,3.66-1.62,3.15-3.23s-2-1.57-4.45-.8-3.67,1.62-3.15,3.24S691.79,248.72,694.2,248Zm-3.44,2.64.27-.06.16.94,7.49-1.28-.15-.94.27-.05.62,3.56c.39,2.31-.76,2.87-1.31,3-1.58.27-2.11-1.06-2.4-2.18h0c-.11,1.45-.45,2.47-2.38,2.69-.58.07-1.11.23-1.19.51a1.39,1.39,0,0,0,.25,1.07l-.3.05a3.92,3.92,0,0,1-.42-1,1.45,1.45,0,0,1,.76-1.68c.2-.09,1.17-.33,1.87-.53s1.44-.43,1.18-1.95l-.13-.72-3.93.67.17,1-.28,0Zm4.84,1.32.11.65c.22,1.33.48,2.14,2.13,1.86,1.17-.2,1.44-.76,1.24-1.93l-.2-1.14Zm4.33,7.23,0-.95h.28l.06,3.28a3.65,3.65,0,0,1-3.93,3.88,4.64,4.64,0,0,1-3.3-1.21,3.58,3.58,0,0,1-.93-2.55l-.06-3.25h.28v.94Zm-7.58,1.32,0,1.2a2.07,2.07,0,0,0,1.32,2.1,8.42,8.42,0,0,0,2.82.24c1.73,0,3.51-.23,3.46-2.77l0-.91Zm-.62,8.73.31-3.27.28,0-.1,1.05,7.58.69.09-1,.29,0-.3,3.28-.29,0,.1-1.05-7.58-.69-.09,1.05Zm-.08.61,0-.16,2.07.38,0,.22a2.53,2.53,0,0,0-2.36,2,1.92,1.92,0,0,0,1.37,2.34c.71.13,1.06,0,1.61-.83.24-.42,1.2-2.17,1.36-2.33a2.27,2.27,0,0,1,3.3.11,2.28,2.28,0,0,1,.51,2,3.49,3.49,0,0,1-.82,1.48l.26.53,0,.16-1.88-.34.05-.24a2.19,2.19,0,0,0,2.16-1.72,1.65,1.65,0,0,0-1.16-2c-2-.36-1.55,4.43-4.82,3.83a2.52,2.52,0,0,1-2.19-3.11,2.58,2.58,0,0,1,1-1.71Zm3.88,16.41-.26-.09.37-1-6.56-2.54A2,2,0,0,1,688,280a1.18,1.18,0,0,1,1.45-.8c.41.18.6.48.45.88a.61.61,0,0,1-.82.37c-.34-.12-.36-.39-.5-.43s-.27.16-.31.29a.71.71,0,0,0,.49.93l7.34,2.85.39-1,.26.11Zm-7.75-2.48.25.14-.5.95,6.72,3.55.5-.95.25.13L692.1,293l-1.76-.94.13-.23a1.74,1.74,0,0,0,2.48-1l.74-1.4-3.11-1.65c-.58,1.09-.75,1.44.32,2.2l-.12.24L688,288.77l.12-.24c1.2.54,1.58.17,2.15-.9L687,285.87l-.69,1.3c-.76,1.43-.83,2,.62,3.13l-.15.28-2-1.21Zm-3.63,6.57.1-.14,1.72,1.2-.14.2a2.5,2.5,0,0,0-3,.8,1.92,1.92,0,0,0,.27,2.7c.59.41,1,.47,1.81-.1.39-.25,2-1.44,2.21-1.53a2.24,2.24,0,0,1,3,1.48,2.26,2.26,0,0,1-.38,2,3.37,3.37,0,0,1-1.36,1l0,.6-.1.13-1.56-1.09.15-.2a2.18,2.18,0,0,0,2.67-.67,1.64,1.64,0,0,0-.22-2.27c-1.66-1.17-3.26,3.37-6,1.46a2.51,2.51,0,0,1-.69-3.74,2.61,2.61,0,0,1,1.63-1.13Zm3.05,9.9-2.1,2.27-.2-.19.64-.7L679.66,299v0l3.16,5.57.75-.81.2.19-1.57,1.71-.2-.19.58-.64-4.18-7.37.21-.23,7.79,3.45.6-.66Zm-74.92,6.21.13-.24,2.12,1.15-1.34,6h0l4.4-4.38,2.11,1.15-.13.24-.81-.44-3.58,6.6.81.44-.14.25-2.65-1.45.13-.24.82.44,3.51-6.47h0L612,315.11l-.26-.16,1.65-7.79h0l-3.51,6.47.8.43-.14.24-1.91-1,.14-.24.79.43,3.58-6.6Zm5.19,11.46.1-.26,1,.36,2.53-7.07-1-.36.1-.26,5.76,2.07-.66,1.85-.25-.1c.28-1.41-.33-1.9-1.37-2.28l-1.47-.52L621,314.56c1.15.42,1.51.54,2.1-.61l.25.09-1,2.87-.25-.08c.37-1.25-.06-1.57-1.18-2l-1.25,3.51,1.37.5c1.5.53,2.07.53,3-1.05l.29.11-.91,2.07Zm10.29-4.75-.91-.19.06-.27,3.16.65A3.63,3.63,0,0,1,633,318a4.51,4.51,0,0,1-1.88,2.9,3.51,3.51,0,0,1-2.66.36l-3.15-.64.06-.28.91.19Zm-.36,7.58,1.16.25a2,2,0,0,0,2.31-.83,8.06,8.06,0,0,0,.84-2.65c.35-1.69.53-3.43-1.92-3.93l-.89-.18Zm9.49,1.68-3.24-.29,0-.28,1,.09.7-7.47-1-.1,0-.26,3.23.29,0,.28-1-.1-.7,7.47,1,.1Zm1.45-3.88c0-2.14,1.32-4.22,3.4-4.25s3.49,2,3.53,4.14-1.32,4.24-3.39,4.28S638.38,320.64,638.34,318.5Zm5.55-.07c0-2.5-.48-3.93-2.15-3.91s-2.06,1.48-2,4,.48,3.93,2.15,3.9S643.93,320.91,643.89,318.43Zm3.11,3.83,0-.27,1-.15-1.11-7.42-1,.14-.05-.28,3.23-.47.05.27-1.1.17,1.11,7.42,2.13-.31c1-.15,1.27-1.42,1.3-2.2l.22,0,.21,2.26Zm6.93-1.05-.08-.27.92-.27.35-8.3.44-.13,4.57,6.91.8-.24.09.27-2.93.84-.07-.27.94-.28-1.54-2.32-2.21.64-.09,2.79,1-.29.08.28Zm3.29-4.34L655.37,314h0l-.12,3.44Zm3-5.74-.86.39-.11-.26,2.14-1,5.54,3.91,0,0-2.3-5.06-.86.39-.11-.26,2-.92.11.25L665,309l3.29,7.25-.29.13-7.31-5.17h0l3,6.62.84-.38.11.25-2,.93-.11-.25.85-.4ZM673,313.25l-2.79,1.67-.15-.24.9-.54-3.84-6.46-.89.54-.15-.25,2.79-1.65.15.24-.89.53,3.83,6.46.89-.53Z" transform="translate(-137.92 -199.04)"/><path class="cls-3" d="M188.45,255.69c-3.66,0-6.63,2.36-6.63,5.24s3,5.27,6.63,5.27a7.24,7.24,0,0,0,5.2-2l3.25-3.26-3.27-3.25A7.3,7.3,0,0,0,188.45,255.69Z" transform="translate(-137.92 -199.04)"/><path class="cls-3" d="M200.44,265.19a4.67,4.67,0,0,0-4.67,4.56V292c0,.32,0,.61,0,.92l0,.48,0,.18a12.63,12.63,0,0,1-1.28,4.37c-2.55,4.76-8,5.95-10.76,6.24-1.08.1-2.31.16-3.74.16h-1.2a34.35,34.35,0,0,1-10.59-2.11,23.26,23.26,0,0,1-7.36-5.14c-7.21-7.33-11.39-20.12-11.17-34.22.43-27.86,15.37-40.34,30-40.34,8.5,0,13,1.46,15.35,2.23a7.74,7.74,0,0,0,2.12.53,1.31,1.31,0,0,0,1.25-1.23V224a1.56,1.56,0,0,0-.78-1.39c-2.25-1.39-10.59-3.4-18.55-3.4-11.16,0-21.34,4-28.68,11.29-8,7.92-12.26,19.21-12.36,32.64-.1,12.93,4.4,24.94,12.34,32.93a35.09,35.09,0,0,0,9.46,6.79h0s7.24,4.29,20.34,4.29a46.84,46.84,0,0,0,9.73-.71h0c8-1.36,15.33-6.6,15.33-14.44V269.73A4.66,4.66,0,0,0,200.44,265.19Z" transform="translate(-137.92 -199.04)"/><path class="cls-3" d="M195.21,249a7.39,7.39,0,0,0,2,5.17l3.28,3.26,3.23-3.24a7.25,7.25,0,0,0,2-5.19c0-3.65-2.36-6.62-5.25-6.62S195.21,245.3,195.21,249Z" transform="translate(-137.92 -199.04)"/><path class="cls-3" d="M212.47,255.69a7.3,7.3,0,0,0-5.18,2L204,260.94l3.22,3.25a7.34,7.34,0,0,0,5.22,2c3.65,0,6.61-2.36,6.61-5.25S216.12,255.69,212.47,255.69Z" transform="translate(-137.92 -199.04)"/><path class="cls-3" d="M504.25,238c3,0,5.46-3.11,5.46-6.93s-2.44-6.91-5.46-6.91-5.48,3.1-5.48,6.91S501.23,238,504.25,238Z" transform="translate(-137.92 -199.04)"/><path class="cls-3" d="M448.59,218.78h-8.78a1.54,1.54,0,0,0-1.56,1.55,1.56,1.56,0,0,0,1.62,1.58c1.19,0,2.09,1.23,2.09,2.85v78.17a4,4,0,0,0,4.24,3.94,4,4,0,0,0,4.12-3.94V220.5A1.58,1.58,0,0,0,448.59,218.78Z" transform="translate(-137.92 -199.04)"/><path class="cls-3" d="M476.48,218.78h-8.79a1.54,1.54,0,0,0-1.56,1.55,1.56,1.56,0,0,0,1.62,1.58c1.2,0,2.09,1.23,2.09,2.85v78.17a4,4,0,0,0,4.25,3.94,3.94,3.94,0,0,0,4.11-3.94V220.5A1.58,1.58,0,0,0,476.48,218.78Z" transform="translate(-137.92 -199.04)"/><path class="cls-3" d="M344.75,246.94c-10.14,0-14.58,5.08-16.5,9.09-2.39-4.49-7.49-9.09-18.31-9.09-7.47,0-11.82,2.78-14.34,5.77v-4a1.61,1.61,0,0,0-1.73-1.75H285.1a1.57,1.57,0,1,0,0,3.13c1.19,0,2.09,1.24,2.09,2.87v50a4,4,0,0,0,4.25,3.94,4,4,0,0,0,4.12-3.94V265.62a20.5,20.5,0,0,1,2.09-8.72c2.26-4.32,6.09-6.5,11.39-6.5a11.58,11.58,0,0,1,8.71,3.36c4.46,4.63,4.22,12.54,4.22,12.65v36.48a4.05,4.05,0,0,0,4.28,4,4,4,0,0,0,4.11-4V266.45a14.83,14.83,0,0,0,.05-1.75c.85-12.91,9.67-14.3,13.43-14.3a11.57,11.57,0,0,1,8.72,3.36c4.46,4.63,4.22,12.54,4.22,12.65v36.48a4,4,0,0,0,4.27,4,4,4,0,0,0,4.12-4V266.45c0-.7.62-8.05-4.35-13.57C357.32,249,351.9,246.94,344.75,246.94Z" transform="translate(-137.92 -199.04)"/><path class="cls-3" d="M262.62,249.59a23.74,23.74,0,0,0-11.37-2.82A29.83,29.83,0,0,0,238.73,250c-9.53,4.88-15,14.71-15,27,0,13,4.67,22.21,13.51,26.67l0,0A28.91,28.91,0,0,0,251,307.06a29.56,29.56,0,0,0,16.85-5.36l0,0a1.36,1.36,0,0,0,.42-1.81,1.24,1.24,0,0,0-1.08-.59,1.78,1.78,0,0,0-.85.24c-.07,0-7,4.06-14.6,4.06a16.25,16.25,0,0,1-13.32-6.27c-2.85-4.17-4.59-10.32-4.93-17.39a.5.5,0,0,1,.43-.51h0l38-6c.81-.12,3.3-.53,3.3-2.84,0-.56-.08-1.35-.22-2.64C274.11,259.42,270.14,253.58,262.62,249.59Zm-.68,21.76-27.81,4.42c-.7.11-.67-.69-.67-.69.1-4.49,1-14.77,6.76-20.67A14.83,14.83,0,0,1,251.27,250h0c1.49,0,14.62.5,14.62,17.92C265.94,269.68,265.29,270.8,261.94,271.35Z" transform="translate(-137.92 -199.04)"/><path class="cls-3" d="M415.81,249.59a23.73,23.73,0,0,0-11.36-2.82A29.78,29.78,0,0,0,391.92,250c-9.53,4.88-15,14.71-15,27,0,13,4.67,22.21,13.51,26.67l0,0a28.84,28.84,0,0,0,13.72,3.36,29.62,29.62,0,0,0,16.87-5.36l0,0a1.38,1.38,0,0,0,.43-1.81,1.27,1.27,0,0,0-1.09-.59,1.78,1.78,0,0,0-.85.24c-.07,0-7,4.06-14.59,4.06a16.21,16.21,0,0,1-13.32-6.27c-2.86-4.17-4.6-10.32-4.94-17.39a.49.49,0,0,1,.43-.51h0l38-6c.82-.12,3.31-.53,3.31-2.84,0-.56-.08-1.35-.21-2.64C427.29,259.42,423.32,253.58,415.81,249.59Zm-.68,21.76-27.81,4.42c-.7.11-.67-.69-.67-.69h0c.1-4.49,1-14.77,6.76-20.67a14.81,14.81,0,0,1,11-4.39h.05c1.5,0,14.62.5,14.62,17.92C419.13,269.68,418.48,270.8,415.13,271.35Z" transform="translate(-137.92 -199.04)"/><path class="cls-3" d="M506.78,248H498a1.55,1.55,0,0,0-1.56,1.57,1.57,1.57,0,0,0,1.62,1.58c1.19,0,2.09,1.22,2.09,2.84v49a4,4,0,0,0,4.25,3.94,3.94,3.94,0,0,0,4.11-3.94V249.68A1.59,1.59,0,0,0,506.78,248Z" transform="translate(-137.92 -199.04)"/><path class="cls-3" d="M148.94,368.2h-3V353.89h8.2v2.49h-5.21v3.69h4.85v2.47h-4.85Z" transform="translate(-137.92 -199.04)"/><path class="cls-3" d="M166.5,362.71a5.89,5.89,0,0,1-1.41,4.18,5.11,5.11,0,0,1-3.92,1.51,5.49,5.49,0,0,1-2.78-.69,4.58,4.58,0,0,1-1.85-2,6.64,6.64,0,0,1-.65-3,5.86,5.86,0,0,1,1.4-4.17,5.17,5.17,0,0,1,3.94-1.49,5.51,5.51,0,0,1,2.78.69,4.56,4.56,0,0,1,1.85,2A6.64,6.64,0,0,1,166.5,362.71Zm-7.56,0a4.68,4.68,0,0,0,.53,2.46,1.93,1.93,0,0,0,1.74.83,1.89,1.89,0,0,0,1.72-.83,4.64,4.64,0,0,0,.52-2.46,4.56,4.56,0,0,0-.53-2.44,2.24,2.24,0,0,0-3.45,0A4.44,4.44,0,0,0,158.94,362.71Z" transform="translate(-137.92 -199.04)"/><path class="cls-3" d="M178.91,368.2h-3v-6.39a3.1,3.1,0,0,0-.42-1.78,1.53,1.53,0,0,0-1.34-.59,2,2,0,0,0-1.81.84,5.2,5.2,0,0,0-.56,2.77v5.15h-3V357.26h2.28l.4,1.4h.17a3.14,3.14,0,0,1,1.37-1.2,4.72,4.72,0,0,1,2-.41,3.82,3.82,0,0,1,2.9,1,4.12,4.12,0,0,1,1,3Z" transform="translate(-137.92 -199.04)"/><path class="cls-3" d="M185.29,368.4a3.54,3.54,0,0,1-3-1.5,8.41,8.41,0,0,1,0-8.35,3.63,3.63,0,0,1,3.09-1.5,3.59,3.59,0,0,1,3.15,1.61h.1a12.36,12.36,0,0,1-.23-2.18V353h3V368.2h-2.3l-.57-1.42h-.13A3.41,3.41,0,0,1,185.29,368.4Zm1-2.38a2,2,0,0,0,1.68-.67,3.88,3.88,0,0,0,.59-2.26v-.32a4.49,4.49,0,0,0-.55-2.53,2,2,0,0,0-1.76-.76,1.75,1.75,0,0,0-1.56.85,4.57,4.57,0,0,0-.55,2.46,4.28,4.28,0,0,0,.56,2.42A1.81,1.81,0,0,0,186.33,366Z" transform="translate(-137.92 -199.04)"/><path class="cls-3" d="M201.3,368.2l-.58-1.49h-.08a4.4,4.4,0,0,1-1.55,1.32,5.1,5.1,0,0,1-2.08.37,3.36,3.36,0,0,1-2.48-.9,3.45,3.45,0,0,1-.91-2.57,2.9,2.9,0,0,1,1.22-2.57,7.1,7.1,0,0,1,3.68-.91l1.9-.06v-.48a1.49,1.49,0,0,0-1.71-1.66,7.73,7.73,0,0,0-3.08.79l-1-2a8.9,8.9,0,0,1,4.19-1,5.23,5.23,0,0,1,3.38,1,3.55,3.55,0,0,1,1.17,2.92v7.29Zm-.88-5.07-1.16,0a3.73,3.73,0,0,0-1.94.47,1.48,1.48,0,0,0-.63,1.31q0,1.26,1.44,1.26a2.26,2.26,0,0,0,1.66-.59,2.09,2.09,0,0,0,.63-1.59Z" transform="translate(-137.92 -199.04)"/><path class="cls-3" d="M213.91,368.2h-8.64v-1.76l5.07-6.9h-4.77v-2.28h8.16v1.94l-4.93,6.72h5.11Z" transform="translate(-137.92 -199.04)"/><path class="cls-3" d="M215.78,354.43c0-1,.55-1.46,1.63-1.46s1.62.49,1.62,1.46a1.43,1.43,0,0,1-.4,1.08,1.7,1.7,0,0,1-1.22.39C216.33,355.9,215.78,355.41,215.78,354.43Zm3.12,13.77h-3V357.26h3Z" transform="translate(-137.92 -199.04)"/><path class="cls-3" d="M231.81,362.71a5.89,5.89,0,0,1-1.41,4.18,5.13,5.13,0,0,1-3.92,1.51,5.49,5.49,0,0,1-2.78-.69,4.58,4.58,0,0,1-1.85-2,6.64,6.64,0,0,1-.65-3,5.86,5.86,0,0,1,1.4-4.17,5.16,5.16,0,0,1,3.94-1.49,5.51,5.51,0,0,1,2.78.69,4.56,4.56,0,0,1,1.85,2A6.64,6.64,0,0,1,231.81,362.71Zm-7.56,0a4.59,4.59,0,0,0,.53,2.46,1.92,1.92,0,0,0,1.74.83,1.87,1.87,0,0,0,1.71-.83,4.63,4.63,0,0,0,.53-2.46,4.56,4.56,0,0,0-.53-2.44,2.25,2.25,0,0,0-3.46,0A4.54,4.54,0,0,0,224.25,362.71Z" transform="translate(-137.92 -199.04)"/><path class="cls-3" d="M244.22,368.2h-3v-6.39a3.1,3.1,0,0,0-.42-1.78,1.54,1.54,0,0,0-1.34-.59,2,2,0,0,0-1.81.84,5.2,5.2,0,0,0-.56,2.77v5.15h-3V357.26h2.28l.4,1.4H237a3.14,3.14,0,0,1,1.37-1.2,4.72,4.72,0,0,1,2-.41,3.82,3.82,0,0,1,2.9,1,4.12,4.12,0,0,1,1,3Z" transform="translate(-137.92 -199.04)"/><path class="cls-3" d="M252.08,368.4a5.67,5.67,0,0,1-4.13-1.46,5.52,5.52,0,0,1-1.48-4.13,6.08,6.08,0,0,1,1.37-4.26,4.91,4.91,0,0,1,3.8-1.5,4.85,4.85,0,0,1,3.62,1.32,5,5,0,0,1,1.29,3.65v1.45h-7.06a2.87,2.87,0,0,0,.75,2,2.64,2.64,0,0,0,2,.72,8.06,8.06,0,0,0,1.87-.21,9.54,9.54,0,0,0,1.84-.66v2.31a7.19,7.19,0,0,1-1.67.59A11.18,11.18,0,0,1,252.08,368.4Zm-.42-9.22a1.87,1.87,0,0,0-1.48.6,2.76,2.76,0,0,0-.62,1.71h4.19a2.53,2.53,0,0,0-.58-1.71A2,2,0,0,0,251.66,359.18Z" transform="translate(-137.92 -199.04)"/><path class="cls-3" d="M274,358.35a4.39,4.39,0,0,1-1.44,3.54,6.22,6.22,0,0,1-4.11,1.22h-1.3v5.09h-3V353.89h4.57a6.09,6.09,0,0,1,4,1.12A4.09,4.09,0,0,1,274,358.35Zm-6.85,2.28h1a3.3,3.3,0,0,0,2.09-.56,1.91,1.91,0,0,0,.7-1.61,2,2,0,0,0-.59-1.57,2.69,2.69,0,0,0-1.82-.51h-1.38Z" transform="translate(-137.92 -199.04)"/><path class="cls-3" d="M286.23,362.71a5.89,5.89,0,0,1-1.41,4.18,5.13,5.13,0,0,1-3.92,1.51,5.49,5.49,0,0,1-2.78-.69,4.52,4.52,0,0,1-1.85-2,6.64,6.64,0,0,1-.65-3,5.86,5.86,0,0,1,1.4-4.17,5.16,5.16,0,0,1,3.94-1.49,5.51,5.51,0,0,1,2.78.69,4.61,4.61,0,0,1,1.85,2A6.64,6.64,0,0,1,286.23,362.71Zm-7.56,0a4.59,4.59,0,0,0,.53,2.46,1.91,1.91,0,0,0,1.74.83,1.88,1.88,0,0,0,1.71-.83,4.63,4.63,0,0,0,.53-2.46,4.56,4.56,0,0,0-.53-2.44,2.25,2.25,0,0,0-3.46,0A4.54,4.54,0,0,0,278.67,362.71Z" transform="translate(-137.92 -199.04)"/><path class="cls-3" d="M291.52,368.2h-3V353h3Z" transform="translate(-137.92 -199.04)"/><path class="cls-3" d="M294.37,354.43c0-1,.54-1.46,1.62-1.46s1.63.49,1.63,1.46a1.43,1.43,0,0,1-.41,1.08,1.7,1.7,0,0,1-1.22.39Q294.37,355.9,294.37,354.43Zm3.11,13.77h-3V357.26h3Z" transform="translate(-137.92 -199.04)"/><path class="cls-3" d="M304.89,368.4q-5.1,0-5.1-5.61a6,6,0,0,1,1.39-4.26,5.17,5.17,0,0,1,4-1.48,7.52,7.52,0,0,1,3.4.75l-.88,2.31c-.47-.19-.9-.35-1.31-.47a4.22,4.22,0,0,0-1.21-.18c-1.55,0-2.33,1.1-2.33,3.31s.78,3.21,2.33,3.21a5.41,5.41,0,0,0,1.59-.23,5.55,5.55,0,0,0,1.47-.72v2.55a4.79,4.79,0,0,1-1.46.64A8.1,8.1,0,0,1,304.89,368.4Z" transform="translate(-137.92 -199.04)"/><path class="cls-3" d="M313.58,368.2h-3V353h3Z" transform="translate(-137.92 -199.04)"/><path class="cls-3" d="M316.43,354.43c0-1,.54-1.46,1.62-1.46s1.63.49,1.63,1.46a1.43,1.43,0,0,1-.41,1.08,1.7,1.7,0,0,1-1.22.39Q316.43,355.9,316.43,354.43Zm3.11,13.77h-3V357.26h3Z" transform="translate(-137.92 -199.04)"/><path class="cls-3" d="M332.61,368.2h-3v-6.39a3.1,3.1,0,0,0-.42-1.78,1.56,1.56,0,0,0-1.35-.59,2,2,0,0,0-1.81.84,5.21,5.21,0,0,0-.55,2.77v5.15h-3V357.26h2.28l.4,1.4h.17a3.14,3.14,0,0,1,1.37-1.2,4.73,4.73,0,0,1,2-.41,3.81,3.81,0,0,1,2.89,1,4.12,4.12,0,0,1,1,3Z" transform="translate(-137.92 -199.04)"/><path class="cls-3" d="M335.4,354.43c0-1,.54-1.46,1.62-1.46s1.63.49,1.63,1.46a1.43,1.43,0,0,1-.41,1.08,1.7,1.7,0,0,1-1.22.39Q335.4,355.9,335.4,354.43Zm3.11,13.77h-3V357.26h3Z" transform="translate(-137.92 -199.04)"/><path class="cls-3" d="M345.92,368.4q-5.1,0-5.1-5.61a6,6,0,0,1,1.39-4.26,5.17,5.17,0,0,1,4-1.48,7.52,7.52,0,0,1,3.4.75l-.88,2.31c-.47-.19-.9-.35-1.31-.47a4.22,4.22,0,0,0-1.21-.18c-1.55,0-2.33,1.1-2.33,3.31s.78,3.21,2.33,3.21a5.41,5.41,0,0,0,1.59-.23,5.55,5.55,0,0,0,1.47-.72v2.55a4.79,4.79,0,0,1-1.46.64A8.1,8.1,0,0,1,345.92,368.4Z" transform="translate(-137.92 -199.04)"/><path class="cls-3" d="M361.57,362.71a5.89,5.89,0,0,1-1.41,4.18,5.13,5.13,0,0,1-3.92,1.51,5.49,5.49,0,0,1-2.78-.69,4.52,4.52,0,0,1-1.85-2,6.64,6.64,0,0,1-.65-3,5.86,5.86,0,0,1,1.4-4.17,5.13,5.13,0,0,1,3.93-1.49,5.46,5.46,0,0,1,2.78.69,4.5,4.5,0,0,1,1.85,2A6.51,6.51,0,0,1,361.57,362.71Zm-7.57,0a4.58,4.58,0,0,0,.54,2.46,1.91,1.91,0,0,0,1.74.83,1.88,1.88,0,0,0,1.71-.83,4.63,4.63,0,0,0,.53-2.46,4.56,4.56,0,0,0-.53-2.44,2.25,2.25,0,0,0-3.46,0A4.53,4.53,0,0,0,354,362.71Z" transform="translate(-137.92 -199.04)"/><path class="cls-3" d="M380.81,353.89v9.26a5.37,5.37,0,0,1-.71,2.78,4.63,4.63,0,0,1-2.05,1.83,7.45,7.45,0,0,1-3.18.64,6,6,0,0,1-4.28-1.42,5,5,0,0,1-1.53-3.87v-9.22h3v8.76a3.71,3.71,0,0,0,.67,2.43,2.78,2.78,0,0,0,2.2.77,2.71,2.71,0,0,0,2.16-.78,3.67,3.67,0,0,0,.67-2.44v-8.74Z" transform="translate(-137.92 -199.04)"/><path class="cls-3" d="M394,368.2h-3v-6.39a3.1,3.1,0,0,0-.42-1.78,1.54,1.54,0,0,0-1.34-.59,2,2,0,0,0-1.81.84,5.1,5.1,0,0,0-.56,2.77v5.15h-3V357.26h2.28l.41,1.4h.16a3.11,3.11,0,0,1,1.38-1.2,4.65,4.65,0,0,1,2-.41,3.84,3.84,0,0,1,2.9,1,4.16,4.16,0,0,1,1,3Z" transform="translate(-137.92 -199.04)"/><path class="cls-3" d="M396.8,354.43c0-1,.54-1.46,1.62-1.46s1.63.49,1.63,1.46a1.43,1.43,0,0,1-.41,1.08,1.69,1.69,0,0,1-1.22.39Q396.8,355.9,396.8,354.43Zm3.11,13.77h-3V357.26h3Z" transform="translate(-137.92 -199.04)"/><path class="cls-3" d="M405.49,368.2l-4.17-10.94h3.12l2.11,6.23a11,11,0,0,1,.45,2.24h.05a10.3,10.3,0,0,1,.44-2.24l2.11-6.23h3.12l-4.17,10.94Z" transform="translate(-137.92 -199.04)"/><path class="cls-3" d="M419.08,368.4a5.66,5.66,0,0,1-4.13-1.46,5.53,5.53,0,0,1-1.49-4.13,6.08,6.08,0,0,1,1.38-4.26,4.88,4.88,0,0,1,3.8-1.5,4.83,4.83,0,0,1,3.61,1.32,5,5,0,0,1,1.29,3.65v1.45h-7.05a2.87,2.87,0,0,0,.75,2,2.64,2.64,0,0,0,2,.72,8.12,8.12,0,0,0,1.87-.21,9.78,9.78,0,0,0,1.84-.66v2.31a7.27,7.27,0,0,1-1.68.59A11.07,11.07,0,0,1,419.08,368.4Zm-.42-9.22a1.89,1.89,0,0,0-1.49.6,2.82,2.82,0,0,0-.62,1.71h4.19a2.48,2.48,0,0,0-.57-1.71A2,2,0,0,0,418.66,359.18Z" transform="translate(-137.92 -199.04)"/><path class="cls-3" d="M431.92,357.05a4.61,4.61,0,0,1,1,.09l-.22,2.8a3.23,3.23,0,0,0-.88-.1,3.18,3.18,0,0,0-2.23.74,2.65,2.65,0,0,0-.8,2.05v5.57h-3V357.26h2.26l.44,1.84h.15a4.06,4.06,0,0,1,1.37-1.48A3.38,3.38,0,0,1,431.92,357.05Z" transform="translate(-137.92 -199.04)"/><path class="cls-3" d="M442.39,365a3,3,0,0,1-1.18,2.57,5.79,5.79,0,0,1-3.49.88,11.72,11.72,0,0,1-2-.16,7.85,7.85,0,0,1-1.58-.48v-2.47A10.87,10.87,0,0,0,436,366a7.36,7.36,0,0,0,1.83.26c1.09,0,1.63-.31,1.63-.94a.77.77,0,0,0-.22-.57,3.08,3.08,0,0,0-.74-.5c-.35-.18-.82-.4-1.41-.65a8.61,8.61,0,0,1-1.85-1,2.72,2.72,0,0,1-.87-1,3.41,3.41,0,0,1-.27-1.43,2.59,2.59,0,0,1,1.14-2.26,5.5,5.5,0,0,1,3.2-.8,9.18,9.18,0,0,1,3.85.86l-.9,2.16a15.14,15.14,0,0,0-1.54-.58,4.84,4.84,0,0,0-1.46-.23q-1.32,0-1.32.72a.81.81,0,0,0,.43.69,11.12,11.12,0,0,0,1.86.88,8.39,8.39,0,0,1,1.88,1,2.87,2.87,0,0,1,.88,1A3.18,3.18,0,0,1,442.39,365Z" transform="translate(-137.92 -199.04)"/><path class="cls-3" d="M444.43,354.43c0-1,.54-1.46,1.62-1.46s1.63.49,1.63,1.46a1.43,1.43,0,0,1-.41,1.08,1.7,1.7,0,0,1-1.22.39Q444.43,355.9,444.43,354.43Zm3.11,13.77h-3V357.26h3Z" transform="translate(-137.92 -199.04)"/><path class="cls-3" d="M455.12,366a6.76,6.76,0,0,0,1.88-.34v2.22a6.74,6.74,0,0,1-2.74.5,3.37,3.37,0,0,1-2.61-.91,4,4,0,0,1-.82-2.71V359.5H449.4v-1.26l1.65-1,.86-2.31h1.91v2.33h3.06v2.24h-3.06v5.28a1.14,1.14,0,0,0,.36.93A1.35,1.35,0,0,0,455.12,366Z" transform="translate(-137.92 -199.04)"/><path class="cls-3" d="M466,368.2l-.58-1.49h-.07a4.42,4.42,0,0,1-1.56,1.32,5.06,5.06,0,0,1-2.08.37,3.37,3.37,0,0,1-2.48-.9,3.48,3.48,0,0,1-.9-2.57,2.87,2.87,0,0,1,1.22-2.57,7.06,7.06,0,0,1,3.67-.91l1.9-.06v-.48a1.49,1.49,0,0,0-1.7-1.66,7.73,7.73,0,0,0-3.09.79l-1-2a8.9,8.9,0,0,1,4.19-1,5.22,5.22,0,0,1,3.38,1,3.56,3.56,0,0,1,1.18,2.92v7.29Zm-.88-5.07-1.16,0a3.69,3.69,0,0,0-1.93.47,1.46,1.46,0,0,0-.64,1.31c0,.84.48,1.26,1.45,1.26a2.3,2.3,0,0,0,1.66-.59,2.12,2.12,0,0,0,.62-1.59Z" transform="translate(-137.92 -199.04)"/><path class="cls-3" d="M477.11,357.05a4.61,4.61,0,0,1,1,.09l-.22,2.8a3.23,3.23,0,0,0-.88-.1,3.16,3.16,0,0,0-2.23.74,2.65,2.65,0,0,0-.8,2.05v5.57h-3V357.26h2.26l.44,1.84h.15a4.06,4.06,0,0,1,1.37-1.48A3.38,3.38,0,0,1,477.11,357.05Z" transform="translate(-137.92 -199.04)"/><path class="cls-3" d="M479.81,354.43c0-1,.54-1.46,1.63-1.46s1.62.49,1.62,1.46a1.43,1.43,0,0,1-.4,1.08,1.7,1.7,0,0,1-1.22.39C480.35,355.9,479.81,355.41,479.81,354.43Zm3.11,13.77h-3V357.26h3Z" transform="translate(-137.92 -199.04)"/><path class="cls-3" d="M495.84,362.71a5.89,5.89,0,0,1-1.41,4.18,5.13,5.13,0,0,1-3.92,1.51,5.49,5.49,0,0,1-2.78-.69,4.58,4.58,0,0,1-1.85-2,6.64,6.64,0,0,1-.65-3,5.86,5.86,0,0,1,1.4-4.17,5.16,5.16,0,0,1,3.94-1.49,5.51,5.51,0,0,1,2.78.69,4.61,4.61,0,0,1,1.85,2A6.64,6.64,0,0,1,495.84,362.71Zm-7.56,0a4.59,4.59,0,0,0,.53,2.46,1.92,1.92,0,0,0,1.74.83,1.87,1.87,0,0,0,1.71-.83,4.63,4.63,0,0,0,.53-2.46,4.56,4.56,0,0,0-.53-2.44,2.25,2.25,0,0,0-3.46,0A4.54,4.54,0,0,0,488.28,362.71Z" transform="translate(-137.92 -199.04)"/><path class="cls-3" d="M512.19,368.2l-1-3.41h-5.22l-1,3.41h-3.27l5.05-14.37h3.71l5.07,14.37Zm-1.76-5.95c-1-3.09-1.5-4.83-1.62-5.24s-.21-.72-.26-1c-.22.84-.83,2.9-1.85,6.2Z" transform="translate(-137.92 -199.04)"/><path class="cls-3" d="M526.39,357.26v1.52l-1.72.44a2.89,2.89,0,0,1,.47,1.64,3.36,3.36,0,0,1-1.22,2.75,5.37,5.37,0,0,1-3.42,1l-.53,0-.44-.05a1,1,0,0,0-.46.78c0,.43.54.65,1.64.65h1.86a4.29,4.29,0,0,1,2.75.77,2.81,2.81,0,0,1,.94,2.27,3.37,3.37,0,0,1-1.6,3,8.39,8.39,0,0,1-4.6,1.06,6.34,6.34,0,0,1-3.49-.8,2.53,2.53,0,0,1-1.21-2.24,2.32,2.32,0,0,1,.61-1.65,3.48,3.48,0,0,1,1.81-.95,2.1,2.1,0,0,1-.8-.64,1.52,1.52,0,0,1-.34-.95,1.55,1.55,0,0,1,.36-1,4.12,4.12,0,0,1,1-.82,2.88,2.88,0,0,1-1.37-1.19,3.68,3.68,0,0,1-.5-1.94,3.44,3.44,0,0,1,1.16-2.77,5.07,5.07,0,0,1,3.33-1,7.82,7.82,0,0,1,1.09.09q.63.08.81.12Zm-8.45,12.49a1.1,1.1,0,0,0,.59,1,3.33,3.33,0,0,0,1.66.35,6,6,0,0,0,2.52-.44,1.37,1.37,0,0,0,.91-1.21.85.85,0,0,0-.54-.85,4.61,4.61,0,0,0-1.67-.23h-1.54a2.41,2.41,0,0,0-1.38.38A1.19,1.19,0,0,0,517.94,369.75Zm1.09-8.91a2.25,2.25,0,0,0,.4,1.41,1.47,1.47,0,0,0,1.24.52,1.43,1.43,0,0,0,1.23-.52,2.31,2.31,0,0,0,.4-1.41c0-1.32-.55-2-1.63-2S519,359.52,519,360.84Z" transform="translate(-137.92 -199.04)"/><path class="cls-3" d="M538,362.71a5.89,5.89,0,0,1-1.41,4.18,5.13,5.13,0,0,1-3.92,1.51,5.49,5.49,0,0,1-2.78-.69,4.58,4.58,0,0,1-1.85-2,6.64,6.64,0,0,1-.65-3,5.86,5.86,0,0,1,1.4-4.17,5.16,5.16,0,0,1,3.94-1.49,5.45,5.45,0,0,1,2.77.69,4.58,4.58,0,0,1,1.86,2A6.64,6.64,0,0,1,538,362.71Zm-7.56,0a4.59,4.59,0,0,0,.53,2.46,1.91,1.91,0,0,0,1.74.83,1.88,1.88,0,0,0,1.71-.83,4.63,4.63,0,0,0,.53-2.46,4.56,4.56,0,0,0-.53-2.44,2.25,2.25,0,0,0-3.46,0A4.54,4.54,0,0,0,530.41,362.71Z" transform="translate(-137.92 -199.04)"/><path class="cls-3" d="M547.91,365a3,3,0,0,1-1.17,2.57,5.82,5.82,0,0,1-3.5.88,11.68,11.68,0,0,1-2-.16,7.85,7.85,0,0,1-1.58-.48v-2.47a10.87,10.87,0,0,0,1.88.66,7.3,7.3,0,0,0,1.83.26c1.08,0,1.63-.31,1.63-.94a.81.81,0,0,0-.22-.57,3.08,3.08,0,0,0-.74-.5c-.36-.18-.83-.4-1.41-.65a8.73,8.73,0,0,1-1.86-1,2.78,2.78,0,0,1-.86-1,3.41,3.41,0,0,1-.27-1.43,2.6,2.6,0,0,1,1.13-2.26,5.53,5.53,0,0,1,3.21-.8,9.1,9.1,0,0,1,3.84.86l-.9,2.16a15,15,0,0,0-1.53-.58,4.89,4.89,0,0,0-1.46-.23q-1.32,0-1.32.72a.82.82,0,0,0,.42.69,11.8,11.8,0,0,0,1.87.88,8.63,8.63,0,0,1,1.88,1,3,3,0,0,1,.88,1A3.18,3.18,0,0,1,547.91,365Z" transform="translate(-137.92 -199.04)"/><path class="cls-3" d="M554.69,366a6.76,6.76,0,0,0,1.88-.34v2.22a6.74,6.74,0,0,1-2.74.5,3.39,3.39,0,0,1-2.61-.91,4,4,0,0,1-.82-2.71V359.5H549v-1.26l1.64-1,.86-2.31h1.91v2.33h3.06v2.24h-3.06v5.28a1.14,1.14,0,0,0,.36.93A1.35,1.35,0,0,0,554.69,366Z" transform="translate(-137.92 -199.04)"/><path class="cls-3" d="M558.49,354.43c0-1,.55-1.46,1.63-1.46s1.62.49,1.62,1.46a1.43,1.43,0,0,1-.4,1.08,1.7,1.7,0,0,1-1.22.39C559,355.9,558.49,355.41,558.49,354.43Zm3.12,13.77h-3V357.26h3Z" transform="translate(-137.92 -199.04)"/><path class="cls-3" d="M574.68,368.2h-3v-6.39a3.1,3.1,0,0,0-.42-1.78,1.53,1.53,0,0,0-1.34-.59,2,2,0,0,0-1.81.84,5.2,5.2,0,0,0-.56,2.77v5.15h-3V357.26h2.28l.4,1.4h.17a3.14,3.14,0,0,1,1.37-1.2,4.72,4.72,0,0,1,2-.41,3.82,3.82,0,0,1,2.9,1,4.12,4.12,0,0,1,1,3Z" transform="translate(-137.92 -199.04)"/><path class="cls-3" d="M587.53,362.71a5.89,5.89,0,0,1-1.4,4.18,5.14,5.14,0,0,1-3.93,1.51,5.49,5.49,0,0,1-2.78-.69,4.58,4.58,0,0,1-1.85-2,6.64,6.64,0,0,1-.64-3,5.81,5.81,0,0,1,1.4-4.17,5.13,5.13,0,0,1,3.93-1.49,5.49,5.49,0,0,1,2.78.69,4.56,4.56,0,0,1,1.85,2A6.64,6.64,0,0,1,587.53,362.71Zm-7.56,0a4.68,4.68,0,0,0,.53,2.46,1.93,1.93,0,0,0,1.74.83,1.88,1.88,0,0,0,1.72-.83,4.64,4.64,0,0,0,.52-2.46,4.46,4.46,0,0,0-.53-2.44,2.24,2.24,0,0,0-3.45,0A4.53,4.53,0,0,0,580,362.71Z" transform="translate(-137.92 -199.04)"/><path class="cls-3" d="M600.56,360.17h5.67v7.41a15.31,15.31,0,0,1-5.09.82,6.27,6.27,0,0,1-4.94-1.91,7.91,7.91,0,0,1-1.71-5.46,7.24,7.24,0,0,1,2-5.41,7.52,7.52,0,0,1,5.49-1.93,10.58,10.58,0,0,1,4.25.88l-1,2.42a7.21,7.21,0,0,0-3.26-.78,4,4,0,0,0-3.15,1.32,5.13,5.13,0,0,0-1.18,3.56,5.73,5.73,0,0,0,.95,3.55,3.31,3.31,0,0,0,2.78,1.23,9.94,9.94,0,0,0,1.93-.19v-3h-2.71Z" transform="translate(-137.92 -199.04)"/><path class="cls-3" d="M614.2,368.4a5.68,5.68,0,0,1-4.14-1.46,5.52,5.52,0,0,1-1.48-4.13,6.13,6.13,0,0,1,1.37-4.26,4.91,4.91,0,0,1,3.8-1.5,4.85,4.85,0,0,1,3.62,1.32,5,5,0,0,1,1.29,3.65v1.45H611.6a2.92,2.92,0,0,0,.75,2,2.64,2.64,0,0,0,2,.72,8.06,8.06,0,0,0,1.87-.21,9.54,9.54,0,0,0,1.84-.66v2.31a7.19,7.19,0,0,1-1.67.59A11.14,11.14,0,0,1,614.2,368.4Zm-.43-9.22a1.89,1.89,0,0,0-1.48.6,2.76,2.76,0,0,0-.62,1.71h4.19a2.48,2.48,0,0,0-.58-1.71A2,2,0,0,0,613.77,359.18Z" transform="translate(-137.92 -199.04)"/><path class="cls-3" d="M630.72,368.2h-3v-6.39a3.19,3.19,0,0,0-.4-1.78,1.4,1.4,0,0,0-1.25-.59,1.8,1.8,0,0,0-1.66.84,5.48,5.48,0,0,0-.52,2.77v5.15h-3V357.26h2.28l.4,1.4h.16a3.05,3.05,0,0,1,1.28-1.18,4,4,0,0,1,1.9-.43,3.44,3.44,0,0,1,3.33,1.61h.27a2.93,2.93,0,0,1,1.29-1.19,4.35,4.35,0,0,1,1.94-.42,3.8,3.8,0,0,1,2.81,1,4.16,4.16,0,0,1,.95,3.06v7.13h-3v-6.39a3.19,3.19,0,0,0-.4-1.78,1.39,1.39,0,0,0-1.24-.59,1.85,1.85,0,0,0-1.64.78,4.39,4.39,0,0,0-.55,2.49Z" transform="translate(-137.92 -199.04)"/><path class="cls-3" d="M645.4,368.4a5.66,5.66,0,0,1-4.13-1.46,5.53,5.53,0,0,1-1.49-4.13,6.08,6.08,0,0,1,1.38-4.26,4.88,4.88,0,0,1,3.8-1.5,4.81,4.81,0,0,1,3.61,1.32,5,5,0,0,1,1.29,3.65v1.45h-7.05a2.87,2.87,0,0,0,.75,2,2.64,2.64,0,0,0,2,.72,8.06,8.06,0,0,0,1.87-.21,9.78,9.78,0,0,0,1.84-.66v2.31a7.27,7.27,0,0,1-1.68.59A11.07,11.07,0,0,1,645.4,368.4Zm-.42-9.22a1.91,1.91,0,0,0-1.49.6,2.82,2.82,0,0,0-.62,1.71h4.19a2.48,2.48,0,0,0-.57-1.71A2,2,0,0,0,645,359.18Z" transform="translate(-137.92 -199.04)"/><path class="cls-3" d="M655.11,368.2h-3V353h3Z" transform="translate(-137.92 -199.04)"/><path class="cls-3" d="M661.07,368.2h-3V353h3Z" transform="translate(-137.92 -199.04)"/><path class="cls-3" d="M663.92,354.43c0-1,.54-1.46,1.62-1.46s1.63.49,1.63,1.46a1.43,1.43,0,0,1-.41,1.08,1.7,1.7,0,0,1-1.22.39Q663.92,355.9,663.92,354.43ZM667,368.2h-3V357.26h3Z" transform="translate(-137.92 -199.04)"/><path class="cls-3" d="M675.28,368.2V353.89h3V368.2Z" transform="translate(-137.92 -199.04)"/><path class="cls-3" d="M684.79,362.71v5.49h-3V353.89h4.17a7.17,7.17,0,0,1,4.31,1.06,4.24,4.24,0,0,1,.71,5.47,4.68,4.68,0,0,1-2,1.55c2.15,3.21,3.56,5.29,4.21,6.23h-3.37l-3.41-5.49Zm0-2.47h1a3.71,3.71,0,0,0,2.12-.48,1.7,1.7,0,0,0,.69-1.5,1.56,1.56,0,0,0-.7-1.45,4.23,4.23,0,0,0-2.17-.43h-.92Z" transform="translate(-137.92 -199.04)"/><path class="cls-3" d="M700.91,356.21a3.11,3.11,0,0,0-2.66,1.29,6,6,0,0,0-.93,3.59c0,3.19,1.19,4.78,3.59,4.78a11.43,11.43,0,0,0,3.65-.75v2.54a10.17,10.17,0,0,1-3.94.74,6,6,0,0,1-4.77-1.9,8,8,0,0,1-1.66-5.43,8.73,8.73,0,0,1,.82-3.91,5.91,5.91,0,0,1,2.33-2.58,6.86,6.86,0,0,1,3.57-.89,9.67,9.67,0,0,1,4.19,1l-1,2.47c-.54-.25-1.08-.48-1.62-.67A5,5,0,0,0,700.91,356.21Z" transform="translate(-137.92 -199.04)"/><path class="cls-3" d="M713.52,356.21a3.08,3.08,0,0,0-2.65,1.29,6,6,0,0,0-.94,3.59q0,4.79,3.59,4.78a11.43,11.43,0,0,0,3.65-.75v2.54a10.12,10.12,0,0,1-3.93.74,6,6,0,0,1-4.78-1.9,8,8,0,0,1-1.65-5.43,8.87,8.87,0,0,1,.81-3.91,5.91,5.91,0,0,1,2.33-2.58,6.91,6.91,0,0,1,3.57-.89,9.64,9.64,0,0,1,4.19,1l-1,2.47a17.3,17.3,0,0,0-1.62-.67A5,5,0,0,0,713.52,356.21Z" transform="translate(-137.92 -199.04)"/><path class="cls-3" d="M728.5,364.23a3.69,3.69,0,0,1-1.39,3,6.09,6.09,0,0,1-3.88,1.12,9.08,9.08,0,0,1-4.06-.87v-2.81a17.82,17.82,0,0,0,2.45.91,7.6,7.6,0,0,0,1.84.26,2.62,2.62,0,0,0,1.53-.38,1.31,1.31,0,0,0,.54-1.14,1.19,1.19,0,0,0-.24-.74,2.88,2.88,0,0,0-.69-.64,19.26,19.26,0,0,0-1.85-1,8.45,8.45,0,0,1-2-1.18,4.44,4.44,0,0,1-1-1.32,3.77,3.77,0,0,1-.39-1.76,3.71,3.71,0,0,1,1.29-3,5.34,5.34,0,0,1,3.55-1.08,8.18,8.18,0,0,1,2.13.26,15,15,0,0,1,2.12.74l-1,2.36a13.83,13.83,0,0,0-1.89-.65,5.82,5.82,0,0,0-1.47-.19,2,2,0,0,0-1.33.4,1.35,1.35,0,0,0-.45,1.05,1.33,1.33,0,0,0,.18.7,2,2,0,0,0,.59.58,18.5,18.5,0,0,0,1.93,1,7.8,7.8,0,0,1,2.75,1.92A3.81,3.81,0,0,1,728.5,364.23Z" transform="translate(-137.92 -199.04)"/><path class="cls-3" d="M157.6,378v9.25a5.35,5.35,0,0,1-.71,2.78,4.57,4.57,0,0,1-2,1.83,7.23,7.23,0,0,1-3.17.64,6.1,6.1,0,0,1-4.29-1.41,5,5,0,0,1-1.52-3.88V378h3v8.75a3.68,3.68,0,0,0,.66,2.43,2.77,2.77,0,0,0,2.21.78,2.71,2.71,0,0,0,2.16-.78,3.74,3.74,0,0,0,.67-2.44V378Z" transform="translate(-137.92 -199.04)"/><path class="cls-3" d="M170.81,392.25h-3v-6.39a3,3,0,0,0-.42-1.77,1.51,1.51,0,0,0-1.34-.6,2,2,0,0,0-1.81.84,5.21,5.21,0,0,0-.56,2.78v5.14h-3V381.31H163l.4,1.4h.17a3.14,3.14,0,0,1,1.37-1.2,4.72,4.72,0,0,1,2-.4,3.82,3.82,0,0,1,2.9,1,4.14,4.14,0,0,1,1,3Z" transform="translate(-137.92 -199.04)"/><path class="cls-3" d="M173.6,378.48c0-1,.54-1.45,1.62-1.45s1.62.48,1.62,1.45a1.4,1.4,0,0,1-.4,1.08,1.7,1.7,0,0,1-1.22.39Q173.6,380,173.6,378.48Zm3.11,13.77h-3V381.31h3Z" transform="translate(-137.92 -199.04)"/><path class="cls-3" d="M182.28,392.25l-4.17-10.94h3.13l2.11,6.24a11.49,11.49,0,0,1,.44,2.24h.06a9.54,9.54,0,0,1,.44-2.24l2.1-6.24h3.13l-4.17,10.94Z" transform="translate(-137.92 -199.04)"/><path class="cls-3" d="M195.87,392.45a5.67,5.67,0,0,1-4.13-1.46,5.52,5.52,0,0,1-1.48-4.13,6.05,6.05,0,0,1,1.37-4.25,4.91,4.91,0,0,1,3.8-1.5,4.85,4.85,0,0,1,3.62,1.32,5,5,0,0,1,1.29,3.65v1.45h-7.06a2.83,2.83,0,0,0,.75,2,2.64,2.64,0,0,0,2,.72,8.06,8.06,0,0,0,1.87-.21,8.85,8.85,0,0,0,1.84-.65v2.31a7.17,7.17,0,0,1-1.67.58A10.45,10.45,0,0,1,195.87,392.45Zm-.42-9.22a1.87,1.87,0,0,0-1.48.6,2.76,2.76,0,0,0-.62,1.71h4.19a2.53,2.53,0,0,0-.58-1.71A2,2,0,0,0,195.45,383.23Z" transform="translate(-137.92 -199.04)"/><path class="cls-3" d="M208.71,381.11a5.57,5.57,0,0,1,1,.08l-.23,2.8a3.67,3.67,0,0,0-.88-.09,3.15,3.15,0,0,0-2.22.73,2.62,2.62,0,0,0-.8,2.06v5.56h-3V381.31h2.26l.45,1.84h.14a4.09,4.09,0,0,1,1.38-1.48A3.32,3.32,0,0,1,208.71,381.11Z" transform="translate(-137.92 -199.04)"/><path class="cls-3" d="M219.18,389a3,3,0,0,1-1.17,2.56,5.77,5.77,0,0,1-3.5.88,10.77,10.77,0,0,1-2-.16,7.66,7.66,0,0,1-1.58-.48v-2.46a10,10,0,0,0,1.87.65,7.5,7.5,0,0,0,1.84.27c1.08,0,1.62-.32,1.62-.94a.77.77,0,0,0-.21-.57,2.73,2.73,0,0,0-.75-.5,15.24,15.24,0,0,0-1.4-.65,9.22,9.22,0,0,1-1.86-1,2.81,2.81,0,0,1-.86-1,3.35,3.35,0,0,1-.27-1.43A2.63,2.63,0,0,1,212,381.9a5.52,5.52,0,0,1,3.21-.79,9,9,0,0,1,3.84.86l-.9,2.15c-.55-.23-1.06-.43-1.53-.58a4.88,4.88,0,0,0-1.46-.22c-.88,0-1.32.24-1.32.71a.85.85,0,0,0,.42.7,13.13,13.13,0,0,0,1.87.87,9,9,0,0,1,1.88,1,2.89,2.89,0,0,1,.88,1A3.15,3.15,0,0,1,219.18,389Z" transform="translate(-137.92 -199.04)"/><path class="cls-3" d="M221.22,378.48c0-1,.54-1.45,1.63-1.45s1.62.48,1.62,1.45a1.4,1.4,0,0,1-.4,1.08,1.72,1.72,0,0,1-1.22.39C221.76,380,221.22,379.46,221.22,378.48Zm3.11,13.77h-3V381.31h3Z" transform="translate(-137.92 -199.04)"/><path class="cls-3" d="M231.92,390.07a6.47,6.47,0,0,0,1.88-.34V392a6.79,6.79,0,0,1-2.75.5,3.34,3.34,0,0,1-2.6-.9,3.93,3.93,0,0,1-.82-2.72v-5.28H226.2v-1.26l1.64-1,.87-2.31h1.9v2.33h3.07v2.24h-3.07v5.28a1.16,1.16,0,0,0,.36.94A1.42,1.42,0,0,0,231.92,390.07Z" transform="translate(-137.92 -199.04)"/><path class="cls-3" d="M242.8,392.25l-.58-1.48h-.08a4.36,4.36,0,0,1-1.55,1.31,4.94,4.94,0,0,1-2.08.37,3.36,3.36,0,0,1-2.48-.9,3.44,3.44,0,0,1-.91-2.56,2.88,2.88,0,0,1,1.22-2.57,7.09,7.09,0,0,1,3.68-.92l1.89-.06V385a1.48,1.48,0,0,0-1.7-1.66,7.73,7.73,0,0,0-3.08.79l-1-2a8.9,8.9,0,0,1,4.19-1,5.23,5.23,0,0,1,3.38,1,3.54,3.54,0,0,1,1.17,2.91v7.29Zm-2.51-12.14c-.41-.29-1-.75-1.81-1.4s-1.42-1.18-1.86-1.61v-.2H240a26,26,0,0,0,2.3,2.94v.27Zm1.62,7.07-1.15,0a3.83,3.83,0,0,0-1.94.47,1.5,1.5,0,0,0-.63,1.32q0,1.26,1.44,1.26a2.27,2.27,0,0,0,1.66-.6,2.08,2.08,0,0,0,.62-1.58Z" transform="translate(-137.92 -199.04)"/><path class="cls-3" d="M259.15,380.26a3.09,3.09,0,0,0-2.65,1.29,6,6,0,0,0-.94,3.59q0,4.78,3.59,4.79a11.43,11.43,0,0,0,3.65-.76v2.55a10.08,10.08,0,0,1-3.93.73,6,6,0,0,1-4.78-1.89,8.06,8.06,0,0,1-1.65-5.44,8.9,8.9,0,0,1,.81-3.91,5.87,5.87,0,0,1,2.34-2.58,6.94,6.94,0,0,1,3.56-.89,9.65,9.65,0,0,1,4.19,1l-1,2.46a17,17,0,0,0-1.61-.66A4.84,4.84,0,0,0,259.15,380.26Z" transform="translate(-137.92 -199.04)"/><path class="cls-3" d="M272.4,392.25l-.58-1.48h-.07a4.38,4.38,0,0,1-1.56,1.31,4.9,4.9,0,0,1-2.08.37,3.37,3.37,0,0,1-2.48-.9,3.47,3.47,0,0,1-.9-2.56,2.86,2.86,0,0,1,1.22-2.57,7,7,0,0,1,3.67-.92l1.9-.06V385a1.49,1.49,0,0,0-1.7-1.66,7.77,7.77,0,0,0-3.09.79l-1-2a8.86,8.86,0,0,1,4.18-1,5.22,5.22,0,0,1,3.38,1,3.55,3.55,0,0,1,1.18,2.91v7.29Zm-.88-5.07-1.15,0a3.8,3.8,0,0,0-1.94.47,1.48,1.48,0,0,0-.64,1.32c0,.84.48,1.26,1.45,1.26a2.3,2.3,0,0,0,1.66-.6,2.12,2.12,0,0,0,.62-1.58Z" transform="translate(-137.92 -199.04)"/><path class="cls-3" d="M282,390.07a6.41,6.41,0,0,0,1.88-.34V392a6.77,6.77,0,0,1-2.74.5,3.35,3.35,0,0,1-2.61-.9,3.93,3.93,0,0,1-.82-2.72v-5.28h-1.43v-1.26l1.65-1,.86-2.31h1.91v2.33h3.06v2.24h-3.06v5.28a1.19,1.19,0,0,0,.35.94A1.44,1.44,0,0,0,282,390.07Z" transform="translate(-137.92 -199.04)"/><path class="cls-3" d="M290.55,390.07a6.41,6.41,0,0,0,1.88-.34V392a6.77,6.77,0,0,1-2.74.5,3.35,3.35,0,0,1-2.61-.9,3.93,3.93,0,0,1-.82-2.72v-5.28h-1.43v-1.26l1.65-1,.86-2.31h1.91v2.33h3.06v2.24h-3.06v5.28a1.16,1.16,0,0,0,.36.94A1.4,1.4,0,0,0,290.55,390.07Z" transform="translate(-137.92 -199.04)"/><path class="cls-3" d="M304.42,386.76a5.92,5.92,0,0,1-1.4,4.18,5.1,5.1,0,0,1-3.93,1.51,5.49,5.49,0,0,1-2.78-.69,4.61,4.61,0,0,1-1.85-2,6.68,6.68,0,0,1-.65-3,5.89,5.89,0,0,1,1.4-4.17,5.16,5.16,0,0,1,3.94-1.48,5.59,5.59,0,0,1,2.78.68,4.58,4.58,0,0,1,1.85,2A6.6,6.6,0,0,1,304.42,386.76Zm-7.56,0a4.63,4.63,0,0,0,.53,2.46,1.93,1.93,0,0,0,1.74.83,1.88,1.88,0,0,0,1.72-.82,4.71,4.71,0,0,0,.52-2.47,4.52,4.52,0,0,0-.53-2.43,1.92,1.92,0,0,0-1.73-.82,1.89,1.89,0,0,0-1.72.81A4.44,4.44,0,0,0,296.86,386.76Z" transform="translate(-137.92 -199.04)"/><path class="cls-3" d="M309.72,392.25h-3V377h3Z" transform="translate(-137.92 -199.04)"/><path class="cls-3" d="M312.56,378.48c0-1,.54-1.45,1.62-1.45s1.63.48,1.63,1.45a1.4,1.4,0,0,1-.41,1.08,1.69,1.69,0,0,1-1.22.39Q312.56,380,312.56,378.48Zm3.11,13.77h-3V381.31h3Z" transform="translate(-137.92 -199.04)"/><path class="cls-3" d="M323.09,392.45q-5.11,0-5.11-5.61a6,6,0,0,1,1.39-4.26,5.22,5.22,0,0,1,4-1.47,7.56,7.56,0,0,1,3.41.74l-.88,2.31c-.47-.19-.91-.34-1.31-.46a4,4,0,0,0-1.22-.19c-1.55,0-2.33,1.11-2.33,3.31s.78,3.21,2.33,3.21a5.12,5.12,0,0,0,1.6-.23,5.55,5.55,0,0,0,1.47-.72v2.56a4.8,4.8,0,0,1-1.47.63A8,8,0,0,1,323.09,392.45Z" transform="translate(-137.92 -199.04)"/><path class="cls-3" d="M335.74,392.25l-.58-1.48h-.08a4.36,4.36,0,0,1-1.55,1.31,4.9,4.9,0,0,1-2.08.37,3.36,3.36,0,0,1-2.48-.9,3.47,3.47,0,0,1-.9-2.56,2.88,2.88,0,0,1,1.21-2.57,7.12,7.12,0,0,1,3.68-.92l1.9-.06V385a1.49,1.49,0,0,0-1.71-1.66,7.73,7.73,0,0,0-3.08.79l-1-2a8.9,8.9,0,0,1,4.19-1,5.22,5.22,0,0,1,3.38,1,3.54,3.54,0,0,1,1.17,2.91v7.29Zm-.88-5.07-1.16,0a3.78,3.78,0,0,0-1.93.47,1.48,1.48,0,0,0-.64,1.32c0,.84.48,1.26,1.45,1.26a2.3,2.3,0,0,0,1.66-.6,2.12,2.12,0,0,0,.62-1.58Z" transform="translate(-137.92 -199.04)"/><path class="cls-3" d="M349.25,392.45a3.54,3.54,0,0,1-3-1.5,8.39,8.39,0,0,1,0-8.34,3.65,3.65,0,0,1,3.09-1.5,3.58,3.58,0,0,1,3.15,1.6h.1a12.17,12.17,0,0,1-.23-2.18V377h3v15.22h-2.29l-.58-1.41h-.13A3.42,3.42,0,0,1,349.25,392.45Zm1.05-2.38a2,2,0,0,0,1.67-.66,3.92,3.92,0,0,0,.59-2.27v-.32a4.4,4.4,0,0,0-.55-2.52,2,2,0,0,0-1.76-.77,1.78,1.78,0,0,0-1.56.85,4.62,4.62,0,0,0-.55,2.46,4.26,4.26,0,0,0,.56,2.42A1.82,1.82,0,0,0,350.3,390.07Z" transform="translate(-137.92 -199.04)"/><path class="cls-3" d="M363.26,392.45a5.66,5.66,0,0,1-4.13-1.46,5.53,5.53,0,0,1-1.49-4.13,6.06,6.06,0,0,1,1.38-4.25,4.88,4.88,0,0,1,3.8-1.5,4.81,4.81,0,0,1,3.61,1.32,5,5,0,0,1,1.29,3.65v1.45h-7.05a2.83,2.83,0,0,0,.75,2,2.64,2.64,0,0,0,2,.72,8.06,8.06,0,0,0,1.87-.21,9.06,9.06,0,0,0,1.84-.65v2.31a7.25,7.25,0,0,1-1.68.58A10.35,10.35,0,0,1,363.26,392.45Zm-.42-9.22a1.91,1.91,0,0,0-1.49.6,2.82,2.82,0,0,0-.62,1.71h4.19a2.48,2.48,0,0,0-.57-1.71A2,2,0,0,0,362.84,383.23Z" transform="translate(-137.92 -199.04)"/><path class="cls-3" d="M373,392.25h-3V377h3Z" transform="translate(-137.92 -199.04)"/><path class="cls-3" d="M389.68,388.28a3.69,3.69,0,0,1-1.4,3.05,6,6,0,0,1-3.88,1.12,9.14,9.14,0,0,1-4-.86v-2.82a16.91,16.91,0,0,0,2.45.91,7.07,7.07,0,0,0,1.83.26,2.6,2.6,0,0,0,1.54-.38,1.3,1.3,0,0,0,.53-1.13,1.24,1.24,0,0,0-.24-.75,2.38,2.38,0,0,0-.69-.63,17.15,17.15,0,0,0-1.85-1,8.88,8.88,0,0,1-2-1.19,4.32,4.32,0,0,1-1-1.32,4.08,4.08,0,0,1,.89-4.74,5.32,5.32,0,0,1,3.56-1.09,8.75,8.75,0,0,1,2.13.26,15.51,15.51,0,0,1,2.12.75l-1,2.36a14.65,14.65,0,0,0-1.9-.66,6.31,6.31,0,0,0-1.47-.19,2,2,0,0,0-1.32.41,1.29,1.29,0,0,0-.46,1,1.25,1.25,0,0,0,.19.7,1.92,1.92,0,0,0,.59.58,17.09,17.09,0,0,0,1.92,1,7.5,7.5,0,0,1,2.75,1.93A3.72,3.72,0,0,1,389.68,388.28Z" transform="translate(-137.92 -199.04)"/><path class="cls-3" d="M398.82,392.25l-.57-1.48h-.08a4.44,4.44,0,0,1-1.55,1.31,5,5,0,0,1-2.08.37,3.38,3.38,0,0,1-2.49-.9,3.47,3.47,0,0,1-.9-2.56,2.88,2.88,0,0,1,1.22-2.57,7.08,7.08,0,0,1,3.67-.92l1.9-.06V385a1.49,1.49,0,0,0-1.7-1.66,7.69,7.69,0,0,0-3.08.79l-1-2a8.87,8.87,0,0,1,4.19-1,5.2,5.2,0,0,1,3.37,1,3.52,3.52,0,0,1,1.18,2.91v7.29Zm-.88-5.07-1.15,0a3.8,3.8,0,0,0-1.94.47,1.48,1.48,0,0,0-.64,1.32c0,.84.49,1.26,1.45,1.26a2.29,2.29,0,0,0,1.66-.6,2.12,2.12,0,0,0,.62-1.58Z" transform="translate(-137.92 -199.04)"/><path class="cls-3" d="M408.26,392.45c-3.4,0-5.11-1.87-5.11-5.61a6,6,0,0,1,1.39-4.26,5.24,5.24,0,0,1,4-1.47,7.52,7.52,0,0,1,3.4.74l-.88,2.31c-.47-.19-.9-.34-1.31-.46a3.92,3.92,0,0,0-1.21-.19c-1.55,0-2.33,1.11-2.33,3.31S407,390,408.53,390a5.09,5.09,0,0,0,1.59-.23,5.55,5.55,0,0,0,1.47-.72v2.56a4.75,4.75,0,0,1-1.46.63A8.1,8.1,0,0,1,408.26,392.45Z" transform="translate(-137.92 -199.04)"/><path class="cls-3" d="M420.07,381.11a5.57,5.57,0,0,1,1,.08l-.22,2.8a3.78,3.78,0,0,0-.88-.09,3.15,3.15,0,0,0-2.23.73,2.66,2.66,0,0,0-.8,2.06v5.56h-3V381.31h2.26l.44,1.84h.14a4.09,4.09,0,0,1,1.38-1.48A3.34,3.34,0,0,1,420.07,381.11Z" transform="translate(-137.92 -199.04)"/><path class="cls-3" d="M432.85,386.76a5.87,5.87,0,0,1-1.41,4.18,5.09,5.09,0,0,1-3.92,1.51,5.49,5.49,0,0,1-2.78-.69,4.61,4.61,0,0,1-1.85-2,6.68,6.68,0,0,1-.65-3,5.89,5.89,0,0,1,1.4-4.17,5.16,5.16,0,0,1,3.94-1.48,5.61,5.61,0,0,1,2.78.68,4.58,4.58,0,0,1,1.85,2A6.6,6.6,0,0,1,432.85,386.76Zm-7.56,0a4.54,4.54,0,0,0,.53,2.46,1.92,1.92,0,0,0,1.74.83,1.86,1.86,0,0,0,1.71-.82,4.7,4.7,0,0,0,.53-2.47,4.52,4.52,0,0,0-.53-2.43,1.92,1.92,0,0,0-1.73-.82,1.89,1.89,0,0,0-1.72.81A4.44,4.44,0,0,0,425.29,386.76Z" transform="translate(-137.92 -199.04)"/><path class="cls-3" d="M446.52,380.26a3.08,3.08,0,0,0-2.65,1.29,6,6,0,0,0-.94,3.59c0,3.19,1.19,4.79,3.59,4.79a11.48,11.48,0,0,0,3.65-.76v2.55a10.17,10.17,0,0,1-3.94.73,6,6,0,0,1-4.77-1.89,8.06,8.06,0,0,1-1.66-5.44,8.76,8.76,0,0,1,.82-3.91,5.91,5.91,0,0,1,2.33-2.58,7,7,0,0,1,3.57-.89,9.69,9.69,0,0,1,4.19,1l-1,2.46q-.81-.37-1.62-.66A4.78,4.78,0,0,0,446.52,380.26Z" transform="translate(-137.92 -199.04)"/><path class="cls-3" d="M460.57,392.25l-.4-1.4H460a3.08,3.08,0,0,1-1.36,1.18,4.63,4.63,0,0,1-2,.42,3.8,3.8,0,0,1-2.9-1,4.13,4.13,0,0,1-1-3v-7.14h3v6.39a3.08,3.08,0,0,0,.42,1.78,1.55,1.55,0,0,0,1.35.59,2,2,0,0,0,1.81-.83,5.25,5.25,0,0,0,.55-2.78v-5.15h3v10.94Z" transform="translate(-137.92 -199.04)"/><path class="cls-3" d="M475.77,386.76a5.92,5.92,0,0,1-1.4,4.18,5.12,5.12,0,0,1-3.93,1.51,5.49,5.49,0,0,1-2.78-.69,4.61,4.61,0,0,1-1.85-2,6.68,6.68,0,0,1-.65-3,5.89,5.89,0,0,1,1.4-4.17,5.16,5.16,0,0,1,3.94-1.48,5.59,5.59,0,0,1,2.78.68,4.58,4.58,0,0,1,1.85,2A6.6,6.6,0,0,1,475.77,386.76Zm-7.56,0a4.63,4.63,0,0,0,.53,2.46,1.93,1.93,0,0,0,1.74.83,1.89,1.89,0,0,0,1.72-.82,4.71,4.71,0,0,0,.52-2.47,4.52,4.52,0,0,0-.53-2.43,1.92,1.92,0,0,0-1.73-.82,1.89,1.89,0,0,0-1.72.81A4.44,4.44,0,0,0,468.21,386.76Z" transform="translate(-137.92 -199.04)"/><path class="cls-3" d="M484.19,381.11a5.65,5.65,0,0,1,1,.08L485,384a3.67,3.67,0,0,0-.88-.09,3.19,3.19,0,0,0-2.23.73,2.65,2.65,0,0,0-.79,2.06v5.56h-3V381.31h2.26l.44,1.84h.15a4.15,4.15,0,0,1,1.37-1.48A3.37,3.37,0,0,1,484.19,381.11Z" transform="translate(-137.92 -199.04)"/><path class="cls-3" d="M492,392.45a5.68,5.68,0,0,1-4.14-1.46,5.52,5.52,0,0,1-1.48-4.13,6.1,6.1,0,0,1,1.37-4.25,4.91,4.91,0,0,1,3.8-1.5,4.85,4.85,0,0,1,3.62,1.32,5,5,0,0,1,1.29,3.65v1.45h-7.06a2.87,2.87,0,0,0,.75,2,2.64,2.64,0,0,0,2,.72A8.06,8.06,0,0,0,494,390a8.85,8.85,0,0,0,1.84-.65v2.31a7.17,7.17,0,0,1-1.67.58A10.41,10.41,0,0,1,492,392.45Zm-.43-9.22a1.89,1.89,0,0,0-1.48.6,2.76,2.76,0,0,0-.62,1.71h4.19a2.48,2.48,0,0,0-.58-1.71A2,2,0,0,0,491.55,383.23Z" transform="translate(-137.92 -199.04)"/></svg>