<svg xmlns="http://www.w3.org/2000/svg" xmlns:xlink="http://www.w3.org/1999/xlink" viewBox="0 0 642.99 115.6"><defs><style>.cls-1,.cls-4,.cls-8,.cls-9{fill:none;}.cls-2{isolation:isolate;}.cls-3{fill:#836891;}.cls-4{stroke:#836891;stroke-width:0.7px;}.cls-5{clip-path:url(#clip-path);}.cls-6{fill:#847267;}.cls-7{fill:#fff;}.cls-8,.cls-9{stroke:#fff;stroke-miterlimit:10;}.cls-8{stroke-width:0.54px;}.cls-9{stroke-width:0.54px;}.cls-10,.cls-11{fill:#372678;}.cls-11,.cls-12,.cls-13,.cls-14,.cls-16{fill-rule:evenodd;}.cls-11,.cls-12,.cls-13,.cls-14,.cls-15{mix-blend-mode:multiply;}.cls-12{fill:#e4007f;}.cls-13{fill:#c7c6c8;}.cls-14,.cls-16{fill:#3bbaec;}.cls-17{fill:#18223f;}.cls-18{fill:#d80e29;}</style><clipPath id="clip-path"><rect class="cls-1" x="225.43" y="23.85" width="77.37" height="33.97"/></clipPath></defs><g class="cls-2"><g id="Layer_2" data-name="Layer 2"><g id="Layer_1-2" data-name="Layer 1"><path class="cls-3" d="M40.82,53.34c-3.53-.33-9.75-1.22-9.75-4.2,0-1.11,1-2,2.53-2.62l.41-.17a22.47,22.47,0,0,1,4.34-1.16c1.47-.33,3.29-.63,5.47-1a21.65,21.65,0,0,0,7.64-3A12.37,12.37,0,0,0,53,40a10.81,10.81,0,0,0,3.67-7.9,10.89,10.89,0,0,0-3.07-7.41,25,25,0,0,0-2.31-1.92,18.32,18.32,0,0,0-10.58-3.18c-8.78,0-16,5.62-16,12.51,0,3.73,2.05,6.94,5.33,9.24a10.32,10.32,0,0,0,1.56,1,13.64,13.64,0,0,0,2,.83l-.46.17-1.47.56c-4.17,1.84-6.65,4.58-6.65,8,0,6.63,6.42,9.39,15.21,10.28,9,.88,14.35,2.54,14.35,7.73S48,78.31,41.36,78.31c-3.81,0-8-1-10.69-3a8.53,8.53,0,0,1-2.22-2.9,6.19,6.19,0,0,1-.53-2.47c.29-3.6,5.36-5.57,7.15-6.15l2.07-.55a30.57,30.57,0,0,1-3.47-.76,29.29,29.29,0,0,1-3.19-1.1s-5.64,2.17-7.3,6.65c-2.82,6.86,4.54,14.63,18.18,14.63,10.49,0,19-5.63,19-14.81C60.32,61.07,55.6,54.55,40.82,53.34Zm-8-21.27c0-5.42,2.57-9.56,7.82-9.56s7.72,4.14,7.72,9.56-2.47,9.48-7.72,9.48S32.87,37.41,32.87,32.07Z"/><path class="cls-3" d="M51.44,21c1.81-.57,6.49-2.15,7.31-3.45,0,0-6-2.39-6.66-2.79A11.75,11.75,0,0,1,46,18.7,18.64,18.64,0,0,1,51.44,21Z"/><path class="cls-3" d="M56.16,51.22c-.46-4.33-5.13-6.76-6.5-7.38a24,24,0,0,1-3.88,1.44c-.57.15-1,.22-1,.24A25.09,25.09,0,0,1,49.17,47c1.5.79,2.29,1.88,1.85,3.19-.37,1.13-1.83,2.09-3.15,2.76a25.41,25.41,0,0,1,6.41,2.44A5.14,5.14,0,0,0,56.16,51.22Z"/><path class="cls-3" d="M0,57.75V55.5c6,0,7.21-1.82,7.21-12.53V37.61C7.21,26.9,6,25.19,0,25.19V22.94l13.68-2.68V43c0,10.71,1.09,12.53,7.2,12.53v2.25Z"/><path class="cls-3" d="M99.41,43c0,11.35.65,12.53,5.88,12.53v2.25H87V55.5c5.14,0,5.88-1.18,5.88-12.53V36.75c0-7-1.86-11.46-6.72-11.46-3.26,0-9.61,4.07-9.61,10.71v7c0,11.14.66,12.53,5.79,12.53v2.25H62.54V55.5c6.16,0,7.38-1.82,7.38-12.53V37.61c0-10.71-1.22-12.42-7.38-12.42V22.94L75,20.26A49.47,49.47,0,0,1,76.54,28c2.52-3.64,6.72-7.71,12.14-7.71,5.69,0,8.58,3.1,9.89,8,2.14-3.53,7.55-8,13.06-8,8.31,0,10.73,6.85,10.73,16V43c0,10.71,1.22,12.53,7.38,12.53v2.25H110V55.5c5.14,0,5.79-1.18,5.79-12.53V36.75c0-7-1.78-11.46-6.63-11.46-3.17,0-9.7,4.07-9.7,10.71Z"/><path class="cls-3" d="M169.45,43c0,11.35.66,12.53,5.88,12.53v2.25H157V55.5c5.13,0,5.88-1.18,5.88-12.53V36.75c0-7-1.87-11.46-6.72-11.46-3.27,0-9.61,4.07-9.61,10.71v7c0,11.14.65,12.53,5.78,12.53v2.25H132.59V55.5c6.16,0,7.37-1.82,7.37-12.53V37.61c0-10.71-1.21-12.42-7.37-12.42V22.94L145,20.26A48.2,48.2,0,0,1,146.59,28c2.52-3.64,6.72-7.71,12.13-7.71,5.69,0,8.59,3.1,9.89,8,2.15-3.53,7.56-8,13.07-8,8.3,0,10.73,6.85,10.73,16V43c0,10.71,1.21,12.53,7.37,12.53v2.25H180V55.5c5.13,0,5.78-1.18,5.78-12.53V36.75c0-7-1.77-11.46-6.62-11.46-3.17,0-9.71,4.07-9.71,10.71Z"/><path class="cls-3" d="M9.7,9.53A4.77,4.77,0,0,1,9.7,0a4.77,4.77,0,0,1,0,9.53Z"/><path class="cls-3" d="M8.36,92.33c0-1.07,0-1.39-.6-1.44-.43,0-.58,0-.58-.23s.18-.24.34-.24c.33,0,1.4.07,1.51.07.33,0,1.29-.07,1.51-.07s.29,0,.29.21-.13.2-.51.23c-.7.07-.7.41-.7,1.47v5.59c0,.94,0,1.4.58,1.46s.63.08.63.28-.08.21-.4.21-1.13-.06-1.37-.06c-.5,0-1.44.06-1.6.06s-.28-.06-.28-.17.09-.19.53-.29.65-.17.65-1.24Z"/><path class="cls-3" d="M21.08,92.11c0-1.06-.18-1.17-.62-1.22s-.58-.09-.58-.25a.25.25,0,0,1,.27-.22c.16,0,1,.07,1.32.07s1-.07,1.29-.07c.16,0,.25,0,.25.24s0,.19-.75.25c-.41,0-.52.43-.52,1.09v7.49c0,.5,0,.65-.24.65s-.17,0-.42-.33l-6.79-8v6.5c0,.81.08,1.06.55,1.12s.65.09.65.27-.1.22-.33.22-.85-.06-1.28-.06-1.27.06-1.3.06c-.22,0-.26-.06-.26-.21s.08-.2.78-.26.53-.65.53-1.2v-7a2,2,0,0,0-1.12-.33.2.2,0,0,1-.19-.22c0-.12.11-.22.35-.22s.72.07,1.09.07.75-.07.91-.07.2.1.42.35l6,7.11Z"/><path class="cls-3" d="M29.84,92.74a.22.22,0,0,1-.22.25c-.18,0-.17-.14-.23-.27-.32-1.21-.79-2-2.1-2a1.45,1.45,0,0,0-1.55,1.43c0,.68.33.91,2.22,2.25,1.21.87,2.12,1.61,2.12,2.93s-1.12,2.74-3.27,2.74a8.39,8.39,0,0,1-2.59-.47c-.06-.05-.06-.08-.06-.41V97.57c0-.36,0-.53.21-.53s.17.06.36.62a2.48,2.48,0,0,0,2.41,1.89,1.69,1.69,0,0,0,1.73-1.71c0-1-.52-1.37-2.76-3a2.93,2.93,0,0,1-1.55-2.33c0-.92.66-2.35,2.81-2.35a9.87,9.87,0,0,1,2.33.36c.14,0,.14.08.14.51Z"/><path class="cls-3" d="M33.75,91.08a1.69,1.69,0,0,0-1.89,1.42.23.23,0,0,1-.22.22.2.2,0,0,1-.19-.22s.05-.35.05-.41l.22-1.79c.05-.35.06-.51.25-.51s.16.07.25.22c.29.48.68.48,1.45.48h4.8c1,0,1.2,0,1.51-.54.08-.11.14-.17.24-.17s.19.16.22.45l.24,1.91c0,.06,0,.33,0,.36,0,.22-.08.22-.19.22s-.18-.14-.2-.22a1.77,1.77,0,0,0-2-1.42H36.71V98.2c0,.68,0,1.13.77,1.18.5,0,.65.05.65.24s-.16.25-.73.25c-.14,0-1.13-.06-1.53-.06s-1.35.06-1.46.06-.35-.05-.35-.24.24-.22.32-.22c1,0,1.07-.23,1.07-1.13v-7.2Z"/><path class="cls-3" d="M43.37,92.33c0-1.07,0-1.39-.6-1.44s-.58,0-.58-.23.19-.24.34-.24c.33,0,1.4.07,1.51.07.34,0,1.3-.07,1.52-.07s.28,0,.28.21-.13.2-.5.23c-.71.07-.71.41-.71,1.47v5.59c0,.94,0,1.4.58,1.46s.63.08.63.28-.08.21-.39.21-1.14-.06-1.37-.06c-.51,0-1.45.06-1.61.06s-.28-.06-.28-.17.09-.19.53-.29.65-.17.65-1.24Z"/><path class="cls-3" d="M49.29,91.08A1.68,1.68,0,0,0,47.4,92.5a.23.23,0,0,1-.22.22A.2.2,0,0,1,47,92.5s0-.35,0-.41l.22-1.79c0-.35.06-.51.25-.51s.16.07.25.22c.28.48.68.48,1.45.48H54c.94,0,1.2,0,1.51-.54.08-.11.14-.17.24-.17s.19.16.22.45l.23,1.91a2.8,2.8,0,0,1,0,.36c0,.22-.08.22-.19.22s-.19-.14-.2-.22a1.77,1.77,0,0,0-2-1.42H52.25V98.2c0,.68,0,1.13.77,1.18.5,0,.64.05.64.24s-.15.25-.72.25c-.14,0-1.13-.06-1.53-.06s-1.35.06-1.46.06-.35-.05-.35-.24.24-.22.32-.22c1,0,1.07-.23,1.07-1.13v-7.2Z"/><path class="cls-3" d="M58.61,92.2c0-.77,0-1.24-.55-1.29s-.67-.11-.67-.27.19-.22.4-.22,1.43.07,1.54.07.87,0,1.43-.07c.11,0,.3.07.3.22s-.2.21-.34.22c-.82,0-.85.37-.85,1.18v3.51c0,2,.23,2.46.63,2.92a2.71,2.71,0,0,0,2.18.88,2.52,2.52,0,0,0,2.55-1.42,4.7,4.7,0,0,0,.37-2.06v-3c0-1.42-.15-1.89-1-2-.58,0-.65,0-.65-.24s.07-.22.29-.22,1.3.07,1.57.07,1-.07,1.28-.07.34,0,.34.22,0,.18-.47.24c-.64.09-.72.28-.72,1.24v3.95c0,2.1-.66,2.74-1.14,3.14a4.25,4.25,0,0,1-2.75.88,3.68,3.68,0,0,1-3.29-1.61,5.51,5.51,0,0,1-.47-2.78Z"/><path class="cls-3" d="M70.89,91.08A1.68,1.68,0,0,0,69,92.5a.23.23,0,0,1-.22.22.2.2,0,0,1-.19-.22s0-.35,0-.41l.22-1.79c.05-.35.07-.51.26-.51s.15.07.25.22c.28.48.68.48,1.45.48h4.8c.94,0,1.19,0,1.51-.54.08-.11.14-.17.24-.17s.18.16.22.45l.23,1.91a2.8,2.8,0,0,1,0,.36c0,.22-.08.22-.19.22s-.19-.14-.2-.22a1.78,1.78,0,0,0-2-1.42H73.85V98.2c0,.68,0,1.13.77,1.18.5,0,.64.05.64.24s-.16.25-.72.25c-.14,0-1.14-.06-1.53-.06s-1.35.06-1.46.06-.35-.05-.35-.24.24-.22.32-.22c1,0,1.07-.23,1.07-1.13v-7.2Z"/><path class="cls-3" d="M81.84,94.89H84c.71,0,1.58,0,1.65-1,0-.1,0-.38.23-.38s.2.11.18.38,0,.83,0,1.35c0,.24,0,1.26,0,1.47s0,.28-.18.28-.21-.16-.24-.55c-.08-.9-.93-.9-1.72-.9h-2v3.72h2.52a2.34,2.34,0,0,0,2.44-1.15,3.55,3.55,0,0,1,.32-.47.29.29,0,0,1,.2-.11c.1,0,.17.06.17.11a2.36,2.36,0,0,1-.2.58l-.52,1.18c-.17.39-.24.55-.42.55-.75,0-1.26,0-2,0s-1.86-.06-2.24-.06H80.85l-1.21,0c-.14,0-.25-.06-.25-.2s.08-.19.52-.25c.61-.1.67-.26.67-1.23V92.23c0-.93,0-1.26-.55-1.32s-.63-.06-.63-.24.22-.21.57-.21l1.26,0H86.6c.14,0,.22.06.2.12-.08.3-.16.57-.28,1l-.27.85c-.09.29-.14.43-.28.43s-.18-.13-.22-.57l-.13-1.2H81.84Z"/><path class="cls-3" d="M98.39,100.09a4.95,4.95,0,1,1,5.07-5A4.84,4.84,0,0,1,98.39,100.09Zm0-9.29c-2.35,0-3.51,1.92-3.51,4.24,0,2.74,1.43,4.45,3.57,4.45,2,0,3.53-1.49,3.53-4.25C102,93.13,101,90.8,98.36,90.8Z"/><path class="cls-3" d="M107.27,91.08v3.81h2c.47,0,1.28,0,1.37-.91,0-.46.06-.5.25-.5s.21.14.21.28-.06,1.28-.06,1.48.06,1.18.06,1.38,0,.32-.22.32-.18-.06-.25-.68c-.1-.77-.84-.77-1.85-.77h-1.52v2.22c0,1.12,0,1.29.15,1.45a1.21,1.21,0,0,0,.92.27c.27,0,.49,0,.49.22s-.1.22-.38.22-1.07-.06-1.76-.06c-.3,0-1.26.06-1.61.06-.16,0-.28,0-.28-.22s.07-.19.52-.24c.66-.08.69-.36.69-1.4v-5.7c0-1,0-1.32-.63-1.42s-.57-.07-.57-.25.28-.22.35-.22.53,0,.93,0l.91,0h4.79c.11,0,.2,0,.2.14a2.93,2.93,0,0,1-.11.38l-.42,1.36c-.15.45-.16.49-.3.49s-.21-.19-.24-.55l-.11-1.23Z"/><path class="cls-3" d="M125.58,97.43c0-.77-.07-.84-1.15-.93-.49,0-.59,0-.59-.24s.21-.19.37-.19l1.73,0,1.37,0s.28,0,.28.19-.19.21-.28.24c-.51.08-.51.36-.51,1.24v1.92a18.69,18.69,0,0,1-3.73.43c-3.9,0-5.29-2.66-5.29-4.87s1.4-5,5.47-5a22.71,22.71,0,0,1,3.38.38c.16,0,.16.09.17.49l.07,1.75c0,.4,0,.53-.21.53s-.19,0-.33-.55-.79-2-3.21-2c-2.94,0-3.83,2.55-3.83,4.6,0,2.8,1.61,4.09,4,4.09a8.29,8.29,0,0,0,2.26-.31Z"/><path class="cls-3" d="M131.4,94.89h2.11c.71,0,1.57,0,1.65-1,0-.1,0-.38.22-.38s.21.11.19.38,0,.83,0,1.35c0,.24,0,1.26,0,1.47s0,.28-.19.28-.2-.16-.23-.55c-.08-.9-.93-.9-1.72-.9h-2v3.72h2.52a2.34,2.34,0,0,0,2.44-1.15,4.76,4.76,0,0,1,.31-.47.33.33,0,0,1,.21-.11c.09,0,.17.06.17.11a2.36,2.36,0,0,1-.2.58l-.52,1.18c-.17.39-.24.55-.43.55-.74,0-1.26,0-2,0s-1.86-.06-2.24-.06h-1.21l-1.21,0c-.14,0-.26-.06-.26-.2s.08-.19.52-.25c.62-.1.68-.26.68-1.23V92.23c0-.93,0-1.26-.55-1.32s-.63-.06-.63-.24.22-.21.57-.21l1.26,0h5.37c.14,0,.22.06.2.12-.08.3-.16.57-.28,1l-.27.85c-.1.29-.14.43-.28.43s-.18-.13-.22-.57l-.13-1.2H131.4Z"/><path class="cls-3" d="M147.21,92.11c0-1.06-.18-1.17-.62-1.22s-.58-.09-.58-.25a.25.25,0,0,1,.27-.22c.15,0,1,.07,1.32.07s1-.07,1.29-.07c.16,0,.25,0,.25.24s0,.19-.75.25c-.41,0-.52.43-.52,1.09v7.49c0,.5,0,.65-.24.65s-.17,0-.42-.33l-6.79-8v6.5c0,.81.08,1.06.55,1.12s.65.09.65.27-.1.22-.33.22-.85-.06-1.28-.06-1.27.06-1.3.06c-.23,0-.26-.06-.26-.21s.08-.2.77-.26.54-.65.54-1.2v-7a2,2,0,0,0-1.12-.33.2.2,0,0,1-.19-.22c0-.12.11-.22.35-.22s.72.07,1.09.07.75-.07.91-.07.2.1.42.35l6,7.11Z"/><path class="cls-3" d="M153,94.89h2.11c.71,0,1.57,0,1.65-1,0-.1,0-.38.22-.38s.21.11.19.38,0,.83,0,1.35c0,.24,0,1.26,0,1.47s0,.28-.19.28-.2-.16-.23-.55c-.08-.9-.93-.9-1.72-.9h-2v3.72h2.52A2.34,2.34,0,0,0,158,98.06a3.46,3.46,0,0,1,.31-.47.33.33,0,0,1,.21-.11c.09,0,.17.06.17.11a2.87,2.87,0,0,1-.2.58l-.52,1.18c-.18.39-.24.55-.43.55-.74,0-1.26,0-2,0s-1.86-.06-2.24-.06H152l-1.21,0c-.15,0-.26-.06-.26-.2s.08-.19.52-.25c.62-.1.68-.26.68-1.23V92.23c0-.93,0-1.26-.55-1.32s-.63-.06-.63-.24.22-.21.57-.21l1.26,0h5.36c.15,0,.22.06.21.12-.08.3-.16.57-.29,1l-.26.85c-.1.29-.14.43-.29.43s-.17-.13-.22-.57l-.12-1.2H153Z"/><path class="cls-3" d="M161.85,91.08A1.68,1.68,0,0,0,160,92.5a.23.23,0,0,1-.22.22.2.2,0,0,1-.19-.22s0-.35,0-.41l.22-1.79c0-.35.06-.51.25-.51s.16.07.25.22c.28.48.68.48,1.45.48h4.8c.94,0,1.2,0,1.51-.54.08-.11.14-.17.24-.17s.19.16.22.45l.23,1.91a2.8,2.8,0,0,1,0,.36c0,.22-.08.22-.19.22s-.19-.14-.2-.22a1.77,1.77,0,0,0-2.05-1.42h-1.57V98.2c0,.68,0,1.13.77,1.18.5,0,.64.05.64.24s-.15.25-.72.25c-.14,0-1.13-.06-1.53-.06s-1.35.06-1.46.06-.35-.05-.35-.24.24-.22.32-.22c1,0,1.07-.23,1.07-1.13v-7.2Z"/><path class="cls-3" d="M171.47,92.33c0-1.07,0-1.39-.6-1.44s-.59,0-.59-.23.19-.24.35-.24c.33,0,1.4.07,1.51.07.33,0,1.29-.07,1.51-.07s.29,0,.29.21-.13.2-.51.23c-.7.07-.7.41-.7,1.47v5.59c0,.94,0,1.4.58,1.46s.63.08.63.28-.08.21-.4.21-1.13-.06-1.37-.06c-.5,0-1.44.06-1.6.06s-.29-.06-.29-.17.1-.19.54-.29.65-.17.65-1.24Z"/><path class="cls-3" d="M184.34,92.44c0,.52,0,.74-.26.74s-.21-.05-.27-.55a1.27,1.27,0,0,0-.4-.95A3.69,3.69,0,0,0,181,90.8c-2,0-3.7,1.48-3.7,4.38,0,2.3,1.19,4.31,3.72,4.31a3,3,0,0,0,2.93-1.83c.08-.18.14-.26.25-.26s.19.12.17.56l0,1c0,.36,0,.39-.19.47a9,9,0,0,1-3.34.63,4.76,4.76,0,0,1-5-5,4.84,4.84,0,0,1,5.21-4.93,9.87,9.87,0,0,1,3.26.57c.08,0,.08.08.1.41Z"/><path class="cls-3" d="M192.28,92.74a.23.23,0,0,1-.22.25c-.19,0-.18-.14-.24-.27-.31-1.21-.79-2-2.09-2a1.46,1.46,0,0,0-1.56,1.43c0,.68.33.91,2.22,2.25,1.21.87,2.12,1.61,2.12,2.93s-1.11,2.74-3.27,2.74a8.24,8.24,0,0,1-2.58-.47c-.07-.05-.07-.08-.07-.41V97.57c0-.36,0-.53.21-.53s.17.06.36.62a2.48,2.48,0,0,0,2.41,1.89,1.69,1.69,0,0,0,1.73-1.71c0-1-.52-1.37-2.75-3A2.92,2.92,0,0,1,187,92.55c0-.92.66-2.35,2.82-2.35a10,10,0,0,1,2.33.36c.14,0,.14.08.14.51Z"/><path class="cls-3" d="M14,112c.05.09,1.5,2.44,2.9,2.44a1,1,0,0,0,.49-.11s.11,0,.17,0,.19.06.19.17-.64.77-1.48.77c-1.07,0-1.87-.68-3-2.14-1.18,1.6-2.2,2.22-3.43,2.22a2.62,2.62,0,0,1-2.68-2.74,3.57,3.57,0,0,1,2.57-3.21,2,2,0,0,1-1.17-1.81,2.15,2.15,0,0,1,2.29-2.13,2,2,0,0,1,2.09,1.91,2,2,0,0,1-1.31,1.86c.48.26,1,.56,2.05,2.28,1.28-1.8,2.22-3.17,2.22-3.7,0-.24-.25-.29-.49-.32s-.28-.06-.28-.23.17-.21.28-.21l1.42,0,.85,0a.24.24,0,0,1,.25.24c0,.09-.06.16-.25.22-.53.14-.72.3-1.46,1.37Zm-5.68,0a2.13,2.13,0,0,0,2.06,2.24c.93,0,1.59-.51,2.49-1.65-.35-.59-1.09-1.63-1.13-1.69a3.7,3.7,0,0,0-1.53-1.26A2.5,2.5,0,0,0,8.34,112Zm2.93-3.15a1.41,1.41,0,0,0,.82-1.19,1.55,1.55,0,0,0-1.59-1.48,1.34,1.34,0,0,0-1.37,1.32c0,1,1.19,1.29,1.92,1.47Z"/><path class="cls-3" d="M32.16,107a8,8,0,0,0,.42-1c.08-.24.11-.32.24-.32s.88.07,1.12.07.75-.07,1-.07a.23.23,0,0,1,.25.22c0,.18-.08.18-.52.24s-.71.24-.71,1.34v6c0,.74,0,1.16.77,1.21.33,0,.44,0,.44.23s-.09.21-.28.21c-.43,0-1.13-.06-1.53-.06s-1.27.06-1.6.06-.25-.11-.25-.19,0-.19.51-.25.68-.3.68-1.28v-6.07h0l-3.53,7.38c-.18.41-.22.44-.33.44s-.15,0-.34-.44L25,107.29h0v6.13c0,.66,0,1.22.9,1.22.12,0,.39,0,.39.22s-.23.21-.38.21c-.33,0-1-.06-1.3-.06-.48,0-.93.06-1.25.06s-.3,0-.3-.21.18-.22.67-.25.61-.33.61-1.32v-6c0-.74,0-1.12-.69-1.21-.46-.07-.49-.1-.49-.24s.05-.24.31-.24.71.07,1.07.07.81-.07,1-.07.12.07.14.13a8.26,8.26,0,0,0,.41,1l3,6.49Z"/><path class="cls-3" d="M41,115.29a4.95,4.95,0,1,1,5.07-5A4.85,4.85,0,0,1,41,115.29ZM41,106c-2.35,0-3.51,1.92-3.51,4.24,0,2.73,1.43,4.45,3.57,4.45,2,0,3.53-1.49,3.53-4.25C44.6,108.33,43.67,106,41,106Z"/><path class="cls-3" d="M53.57,114.41l.91-1.36c.19-.31.22-.34.35-.34a.18.18,0,0,1,.17.17,2.25,2.25,0,0,1-.17.55l-.62,1.72c-.14.41-.17.45-.31.45s-.14,0-.27-.33l-.12-.26H49.18l-.9,0-.91,0c-.16,0-.33,0-.33-.21s.12-.22.5-.25c.63,0,.69-.31.69-1.18v-6.22c0-.59,0-1-.55-1.1s-.63-.06-.63-.24,0-.25.21-.25c.39,0,1.51.07,1.68.07.36,0,1.12-.07,1.42-.07s.34,0,.34.24-.06.17-.55.24-.66.28-.66,1.07v7.24Z"/><path class="cls-3" d="M58.12,110.09h2.11c.71,0,1.57,0,1.65-1,0-.09,0-.38.22-.38s.21.11.19.38,0,.83,0,1.35c0,.24,0,1.26,0,1.47s0,.28-.19.28-.2-.16-.23-.55c-.08-.9-.93-.9-1.72-.9h-2v3.72h2.52a2.34,2.34,0,0,0,2.44-1.15,4.22,4.22,0,0,1,.31-.47.33.33,0,0,1,.21-.11c.09,0,.17.06.17.11a2.87,2.87,0,0,1-.2.58l-.52,1.18c-.18.39-.24.55-.43.55-.74,0-1.26,0-2,0s-1.85-.06-2.23-.06H57.13l-1.22,0c-.14,0-.25-.06-.25-.2s.08-.19.52-.25c.62-.1.68-.26.68-1.23v-5.94c0-.93,0-1.26-.55-1.32s-.63-.06-.63-.24.22-.22.57-.22l1.25,0h5.37c.15,0,.22.06.21.12-.08.3-.16.57-.29,1l-.26.85c-.1.29-.14.43-.29.43s-.17-.13-.22-.57l-.12-1.2H58.12Z"/><path class="cls-3" d="M73.67,107.64c0,.52,0,.74-.27.74s-.2,0-.26-.55a1.27,1.27,0,0,0-.4-1A3.69,3.69,0,0,0,70.3,106c-2,0-3.7,1.48-3.7,4.38,0,2.3,1.18,4.31,3.72,4.31a3,3,0,0,0,2.93-1.82c.08-.19.14-.27.25-.27s.19.12.17.56l0,1c0,.36,0,.39-.19.47a9,9,0,0,1-3.34.63,4.76,4.76,0,0,1-5-5,4.84,4.84,0,0,1,5.21-4.93,9.87,9.87,0,0,1,3.26.57c.08,0,.08.08.1.41Z"/><path class="cls-3" d="M76.11,107.4c0-.77,0-1.24-.55-1.29s-.66-.11-.66-.27.19-.22.39-.22,1.44.07,1.55.07.86,0,1.43-.07c.11,0,.3.07.3.22s-.21.21-.35.22c-.82,0-.85.37-.85,1.19v3.5c0,2,.24,2.46.63,2.92a2.72,2.72,0,0,0,2.19.88,2.53,2.53,0,0,0,2.55-1.42,4.81,4.81,0,0,0,.36-2.06v-3c0-1.41-.14-1.89-1-2-.59,0-.65,0-.65-.24s.06-.22.28-.22,1.31.07,1.58.07,1-.07,1.27-.07.35,0,.35.22,0,.18-.47.24c-.65.09-.73.28-.73,1.24v4c0,2.1-.66,2.74-1.13,3.14a4.27,4.27,0,0,1-2.75.88,3.68,3.68,0,0,1-3.29-1.61,5.53,5.53,0,0,1-.48-2.78Z"/><path class="cls-3" d="M92.67,114.41l.92-1.36c.19-.31.22-.34.34-.34a.18.18,0,0,1,.18.17,2.07,2.07,0,0,1-.18.55l-.61,1.72c-.14.41-.17.45-.32.45s-.14,0-.26-.33l-.13-.26H88.28l-.9,0-.91,0c-.16,0-.33,0-.33-.21s.13-.22.5-.25c.63,0,.7-.31.7-1.18v-6.22c0-.59,0-1-.55-1.1s-.63-.06-.63-.24,0-.25.2-.25c.39,0,1.51.07,1.69.07.36,0,1.11-.07,1.41-.07s.35,0,.35.24-.06.17-.55.24-.66.28-.66,1.07v7.24Z"/><path class="cls-3" d="M97.27,111.21l-.52,1.39a4.73,4.73,0,0,0-.36,1.32c0,.58.61.68.85.69s.46,0,.46.24,0,.22-.26.22-.92-.06-1.35-.06c-.6,0-1.43.06-1.67.06a.2.2,0,0,1-.23-.21c0-.2.18-.22.39-.25.87-.12,1.12-.85,1.57-2.09l1.53-4.17c.32-.87.63-1.73.91-2.6,0-.16.11-.19.35-.19h.79c.17,0,.25,0,.3.16s.37,1.29.45,1.53l1.66,5.13c.63,2,.81,2.09,1.46,2.22.47.09.5.11.5.25s-.12.22-.25.22c-.38,0-1.21-.06-1.56-.06-.63,0-1.51.06-1.89.06-.17,0-.39,0-.39-.22s.13-.22.44-.24c.55,0,.88-.28.88-.64a4.71,4.71,0,0,0-.37-1.37l-.45-1.39ZM99,106.5h0l-1.48,4.11h2.82Z"/><path class="cls-3" d="M107.46,113.35c0,.76,0,1.15.61,1.23s.57.09.57.27-.21.22-.44.22-1.37-.06-1.39-.06c-.25,0-1.23.06-1.53.06-.12,0-.28,0-.28-.21s0-.2.61-.26.59-.44.59-1.28v-5.78c0-.92,0-1.35-.63-1.44s-.57-.08-.57-.26.14-.22.35-.22c.37,0,1,.07,1.3.07s.82,0,1.06-.07.86-.08,1.42-.08c2.8,0,3.22,1.72,3.22,2.55a2.66,2.66,0,0,1-1.95,2.45c.6,1,2.57,3.82,3.62,4.23a3.07,3.07,0,0,1,.36.11.26.26,0,0,1,.07.14c0,.22-.48.24-.7.24-1,0-1.76-.25-3-2l-1.69-2.41a4.06,4.06,0,0,1-.64.05,8.64,8.64,0,0,1-1-.05Zm0-3c.2,0,.39,0,.75,0,1.51,0,2.69-.57,2.69-2.16,0-1.21-.81-2.08-2.4-2.08a4.73,4.73,0,0,0-1,.1Z"/><path class="cls-3" d="M128,107a8,8,0,0,0,.42-1c.08-.24.11-.32.24-.32s.88.07,1.12.07.75-.07,1-.07a.23.23,0,0,1,.25.22c0,.18-.08.18-.52.24s-.71.24-.71,1.34v6c0,.74,0,1.16.77,1.21.33,0,.44,0,.44.23s-.09.21-.28.21c-.43,0-1.13-.06-1.53-.06s-1.27.06-1.6.06-.25-.11-.25-.19,0-.19.51-.25c.62-.08.68-.3.68-1.28v-6.07h0L125,114.66c-.18.41-.22.44-.33.44s-.15,0-.34-.44l-3.5-7.37h0v6.13c0,.66,0,1.22.9,1.22.12,0,.39,0,.39.22s-.23.21-.38.21c-.33,0-1-.06-1.3-.06-.48,0-.93.06-1.25.06s-.3,0-.3-.21.18-.22.67-.25.61-.33.61-1.32v-6c0-.74,0-1.12-.69-1.21-.46-.07-.49-.1-.49-.24s0-.24.31-.24.71.07,1.07.07.81-.07,1-.07.12.07.14.13a8.26,8.26,0,0,0,.41,1l3,6.49Z"/><path class="cls-3" d="M134.9,110.09H137c.7,0,1.57,0,1.65-1,0-.09,0-.38.22-.38s.2.11.19.38,0,.83,0,1.35c0,.24,0,1.26,0,1.47s0,.28-.19.28-.21-.16-.24-.55c-.08-.9-.93-.9-1.71-.9h-2v3.72h2.51a2.35,2.35,0,0,0,2.45-1.15,3.17,3.17,0,0,1,.31-.47.33.33,0,0,1,.2-.11c.1,0,.18.06.18.11a2.45,2.45,0,0,1-.21.58l-.52,1.18c-.17.39-.23.55-.42.55-.74,0-1.26,0-2.05,0l-2.23-.06H133.9l-1.21,0c-.14,0-.25-.06-.25-.2s.08-.19.52-.25c.61-.1.68-.26.68-1.23v-5.94c0-.93,0-1.26-.55-1.32s-.63-.06-.63-.24.22-.22.56-.22l1.26,0h5.37c.14,0,.22.06.21.12-.08.3-.16.57-.29,1l-.27.85c-.09.29-.14.43-.28.43s-.17-.13-.22-.57l-.13-1.2H134.9Z"/><path class="cls-3" d="M142.48,107.35c0-.83,0-1.19-.63-1.25s-.56-.11-.56-.27.34-.21.47-.21l.55,0c.24,0,.5,0,.69,0,.51,0,.81,0,1.56,0s1.42,0,1.81,0a5.75,5.75,0,0,1,3.7,1.11,4.56,4.56,0,0,1,1.43,3.43,5.17,5.17,0,0,1-1.66,3.82,4.8,4.8,0,0,1-3.56,1.21c-.25,0-1.21-.07-1.94-.12-.57,0-.79-.06-1.2-.06s-1.16.06-1.46.06-.41,0-.41-.19.27-.25.55-.27c.62,0,.66-.45.66-1.18Zm1.26,5.58c0,.83,0,1.08.18,1.27.33.35,1.68.4,2,.4a4.34,4.34,0,0,0,2.41-.59,4.06,4.06,0,0,0,1.7-3.55,4.2,4.2,0,0,0-1.38-3.28,4.75,4.75,0,0,0-3.3-1,4,4,0,0,0-1.54.22,2.77,2.77,0,0,0-.08.88Z"/><path class="cls-3" d="M153.71,107.53c0-1.07,0-1.39-.6-1.43-.42,0-.58,0-.58-.24s.19-.24.34-.24c.34,0,1.41.07,1.52.07.33,0,1.29-.07,1.51-.07s.28,0,.28.21-.13.2-.5.23c-.71.07-.71.41-.71,1.47v5.59c0,.94,0,1.4.58,1.46s.63.08.63.28-.08.21-.39.21-1.14-.06-1.37-.06c-.51,0-1.45.06-1.61.06s-.28-.06-.28-.17.09-.19.53-.29.65-.17.65-1.24Z"/><path class="cls-3" d="M166,107.64c0,.52,0,.74-.27.74s-.2,0-.27-.55a1.23,1.23,0,0,0-.39-1,3.69,3.69,0,0,0-2.44-.88c-2,0-3.7,1.48-3.7,4.38,0,2.3,1.18,4.31,3.72,4.31a3,3,0,0,0,2.92-1.82c.08-.19.15-.27.26-.27s.19.12.17.56l-.05,1c0,.36,0,.39-.19.47a9,9,0,0,1-3.33.63,4.76,4.76,0,0,1-5-5,4.84,4.84,0,0,1,5.21-4.93,9.92,9.92,0,0,1,3.26.57c.08,0,.08.08.09.41Z"/><path class="cls-3" d="M168.92,107.53c0-1.07,0-1.39-.6-1.43-.43,0-.58,0-.58-.24s.18-.24.34-.24c.33,0,1.4.07,1.51.07.33,0,1.29-.07,1.51-.07s.29,0,.29.21-.13.2-.51.23c-.7.07-.7.41-.7,1.47v5.59c0,.94,0,1.4.58,1.46s.63.08.63.28-.08.21-.4.21-1.13-.06-1.37-.06c-.5,0-1.44.06-1.6.06s-.28-.06-.28-.17.09-.19.53-.29.65-.17.65-1.24Z"/><path class="cls-3" d="M181.38,107.31c0-1.06-.17-1.17-.61-1.21s-.58-.1-.58-.26a.24.24,0,0,1,.27-.22c.15,0,1,.07,1.32.07s1-.07,1.29-.07c.16,0,.25,0,.25.24s0,.19-.76.25c-.4,0-.51.43-.51,1.09v7.49c0,.5,0,.65-.24.65s-.17,0-.43-.33L174.6,107v6.5c0,.81.08,1.06.55,1.12s.65.09.65.27-.1.22-.34.22-.85-.06-1.27-.06-1.28.06-1.31.06c-.22,0-.25-.06-.25-.21s.08-.2.77-.26.54-.65.54-1.2v-7a2,2,0,0,0-1.12-.33.2.2,0,0,1-.19-.22c0-.12.11-.22.35-.22s.72.07,1.08.07.76-.07.92-.07.2.1.42.35l6,7.11Z"/><path class="cls-3" d="M186.93,110.09H189c.71,0,1.58,0,1.66-1,0-.09,0-.38.22-.38s.2.11.19.38,0,.83,0,1.35c0,.24,0,1.26,0,1.47s0,.28-.19.28-.21-.16-.24-.55c-.08-.9-.93-.9-1.71-.9h-2v3.72h2.51a2.33,2.33,0,0,0,2.44-1.15,4.35,4.35,0,0,1,.32-.47.33.33,0,0,1,.2-.11c.1,0,.18.06.18.11a2.45,2.45,0,0,1-.21.58l-.52,1.18c-.17.39-.23.55-.42.55-.74,0-1.26,0-2.05,0l-2.23-.06h-1.22l-1.21,0c-.14,0-.25-.06-.25-.2s.08-.19.52-.25c.61-.1.68-.26.68-1.23v-5.94c0-.93,0-1.26-.56-1.32s-.63-.06-.63-.24.23-.22.57-.22l1.26,0h5.37c.14,0,.22.06.2.12-.07.3-.15.57-.28,1l-.27.85c-.09.29-.14.43-.28.43s-.17-.13-.22-.57l-.13-1.2h-3.77Z"/><path class="cls-3" d="M46.23,28.17c0,.32-.17.57-.38.57H35.45c-.2,0-.37-.25-.37-.57h0c0-.32.17-.58.37-.58h10.4c.21,0,.38.26.38.58Z"/><path class="cls-3" d="M46.88,32.09c0,.32-.17.57-.38.57H34.78c-.21,0-.37-.25-.37-.57h0c0-.32.16-.58.37-.58H46.5c.21,0,.38.26.38.58Z"/><path class="cls-3" d="M46.21,36c0,.32-.17.57-.37.57H35.47c-.2,0-.37-.25-.37-.57h0c0-.32.17-.58.37-.58H45.84c.2,0,.37.26.37.58Z"/><path class="cls-3" d="M49.32,49.23c0,.32-.16.58-.37.58H33.14c-.2,0-.37-.26-.37-.58h0c0-.32.17-.57.37-.57H49c.21,0,.37.25.37.57Z"/><path class="cls-3" d="M50.9,66.48c0,.32-.17.58-.38.58H33.79c-.21,0-.37-.26-.37-.58h0c0-.31.16-.57.37-.57H50.52c.21,0,.38.26.38.57Z"/><path class="cls-3" d="M49.63,74.34c0,.32-.17.58-.37.58H33.06c-.21,0-.37-.26-.37-.58h0c0-.32.16-.58.37-.58h16.2c.2,0,.37.26.37.58Z"/><path class="cls-3" d="M53.06,70.41c0,.31-.17.57-.37.57H29.82c-.2,0-.37-.26-.37-.57h0c0-.32.17-.58.37-.58H52.69c.2,0,.37.26.37.58Z"/><line class="cls-4" x1="213.26" y1="17.31" x2="213.26" y2="114.29"/><g class="cls-5"><path class="cls-6" d="M298.5,23.85H229.73c-3,0-4.3,1.37-4.3,4.33V53.5c0,3,1.3,4.33,4.3,4.33H298.5c3,0,4.3-1.37,4.3-4.33V28.18c0-3-1.3-4.33-4.3-4.33"/><path class="cls-7" d="M252.54,47.34a3.9,3.9,0,0,0,3.1,3.94,3.85,3.85,0,0,0,1.13.07,5.22,5.22,0,0,0,2.49-.85l0,1.35a5.58,5.58,0,0,1-3,.76,5.25,5.25,0,0,1,0-10.5,5.58,5.58,0,0,1,3,.76l0,1.35a5.22,5.22,0,0,0-2.49-.89,4.22,4.22,0,0,0-1.13.07,3.9,3.9,0,0,0-3.1,3.94"/><path class="cls-7" d="M248.19,45.19a2,2,0,0,0-.19-.83,1.3,1.3,0,0,0-.52-.55,2.19,2.19,0,0,0-.72-.25,6.67,6.67,0,0,0-1-.07H244V47.2h1.57a4.91,4.91,0,0,0,1.16-.11,2,2,0,0,0,.83-.4,1.68,1.68,0,0,0,.47-.63,2.16,2.16,0,0,0,.15-.87m3,7.28H249.4l-3.24-4H244v4H242.7V42.28h3a9.65,9.65,0,0,1,1.54.09,2.86,2.86,0,0,1,1.18.46,2.29,2.29,0,0,1,.8.86,3.34,3.34,0,0,1-.12,3.27,2.81,2.81,0,0,1-1.48,1.17Z"/><path class="cls-7" d="M240.05,42.28H238.2l-1.75,4.93c-.38,1.13-.69,2.19-.95,3.16h0c-.25-1-.56-2-.95-3.16l-1.74-4.93h-1.85l-.72,10.19h1.36l.27-4.37c.09-1.54.17-3.24.2-4.51h0c.29,1.21.68,2.51,1.17,4l1.67,4.86h1.16l1.67-4.86c.48-1.45.88-2.75,1.17-4h0c0,1.27.1,3,.2,4.51l.27,4.37h1.36Z"/><polygon class="cls-7" points="264.72 54.78 263.93 54.78 263.93 26.89 264.72 26.89 264.72 54.75 264.72 54.78"/><path class="cls-7" d="M276.38,31.94a1,1,0,0,0-.22-.67.79.79,0,0,0-.63-.24.94.94,0,0,0-.69.26,1.06,1.06,0,0,0-.29.65Zm.53.41h-2.36a1.36,1.36,0,0,0,.09.51,1,1,0,0,0,.24.36.91.91,0,0,0,.36.2,1.25,1.25,0,0,0,.45.07,1.71,1.71,0,0,0,.65-.13,1.5,1.5,0,0,0,.47-.26h0v.59a3.73,3.73,0,0,1-.56.2,2.27,2.27,0,0,1-.59.07,1.71,1.71,0,0,1-1.25-.43,1.59,1.59,0,0,1-.45-1.22,1.74,1.74,0,0,1,.43-1.25,1.46,1.46,0,0,1,1.13-.46,1.25,1.25,0,0,1,1,.38,1.49,1.49,0,0,1,.36,1.07Z"/><path class="cls-7" d="M280.43,33.1V31.27a2.36,2.36,0,0,0-.39-.14,2.22,2.22,0,0,0-.38,0,.86.86,0,0,0-.71.32,1.37,1.37,0,0,0-.26.89,1.46,1.46,0,0,0,.19.83.76.76,0,0,0,.64.33,1.37,1.37,0,0,0,.47-.1,2.43,2.43,0,0,0,.44-.26m.54.79h-.54v-.34a1.91,1.91,0,0,1-.47.31,1.53,1.53,0,0,1-.57.12,1.11,1.11,0,0,1-.92-.44,2,2,0,0,1-.34-1.23,2,2,0,0,1,.12-.72,1.42,1.42,0,0,1,.31-.54,1.48,1.48,0,0,1,.46-.34,1.31,1.31,0,0,1,.54-.11,1.62,1.62,0,0,1,.46,0,2.66,2.66,0,0,1,.41.16V29.42H281Z"/><path class="cls-7" d="M283,33.89h-.54V30.68H283Zm0-3.75h-.6v-.56h.6Z"/><path class="cls-7" d="M286.86,33.69a2.55,2.55,0,0,1-.51.2,1.77,1.77,0,0,1-.52.07,1.91,1.91,0,0,1-.64-.1,1.14,1.14,0,0,1-.49-.31,1.37,1.37,0,0,1-.33-.52,2.35,2.35,0,0,1-.11-.74,1.7,1.7,0,0,1,.43-1.24,1.51,1.51,0,0,1,1.14-.45,1.9,1.9,0,0,1,.54.07,4.56,4.56,0,0,1,.49.19v.6h0a2.16,2.16,0,0,0-.51-.29,1.54,1.54,0,0,0-.51-.1.9.9,0,0,0-.73.31,1.41,1.41,0,0,0-.26.91,1.39,1.39,0,0,0,.26.89.89.89,0,0,0,.73.31,1.5,1.5,0,0,0,.64-.15l.22-.12.16-.12h0Z"/><path class="cls-7" d="M290.24,33.1v-.9l-.58,0a2.62,2.62,0,0,0-.52.09.86.86,0,0,0-.38.2.56.56,0,0,0-.14.39.49.49,0,0,0,.17.42.71.71,0,0,0,.5.14,1.13,1.13,0,0,0,.52-.11,1.94,1.94,0,0,0,.43-.27m.54.79h-.54v-.34l-.19.14-.24.14a1.85,1.85,0,0,1-.31.11,1.68,1.68,0,0,1-.41,0,1,1,0,0,1-.73-.29,1,1,0,0,1-.3-.73,1.05,1.05,0,0,1,.15-.59,1.16,1.16,0,0,1,.45-.36,2.25,2.25,0,0,1,.7-.17c.27,0,.57-.06.88-.07v-.09a.56.56,0,0,0-.07-.3.41.41,0,0,0-.18-.19.62.62,0,0,0-.28-.09,1.72,1.72,0,0,0-.33,0,2,2,0,0,0-.47.05,3.68,3.68,0,0,0-.54.16h0v-.54l.45-.1a4,4,0,0,1,.59,0,2.49,2.49,0,0,1,.59.06,1.18,1.18,0,0,1,.44.19.82.82,0,0,1,.27.34,1.18,1.18,0,0,1,.1.52Z"/><line class="cls-8" x1="292.54" y1="33.89" x2="292.54" y2="29.43"/><path class="cls-7" d="M275.19,40.92a1,1,0,0,0-.22-.67.79.79,0,0,0-.63-.24.94.94,0,0,0-.69.26,1,1,0,0,0-.29.65Zm.52.41h-2.35a1.29,1.29,0,0,0,.09.51,1,1,0,0,0,.24.36,1.07,1.07,0,0,0,.36.21,1.51,1.51,0,0,0,.44.06,1.72,1.72,0,0,0,.66-.13,1.52,1.52,0,0,0,.47-.25h0v.59a5.27,5.27,0,0,1-.56.19,2.35,2.35,0,0,1-.6.08,1.7,1.7,0,0,1-1.24-.43,1.63,1.63,0,0,1-.45-1.23,1.76,1.76,0,0,1,.43-1.25,1.46,1.46,0,0,1,1.13-.46,1.3,1.3,0,0,1,1,.38,1.5,1.5,0,0,1,.35,1.08Z"/><path class="cls-7" d="M279.54,42a.89.89,0,0,1-.37.72,1.57,1.57,0,0,1-1,.28,2.71,2.71,0,0,1-.66-.08,3.1,3.1,0,0,1-.5-.19v-.61h0a2,2,0,0,0,.57.31,1.69,1.69,0,0,0,.6.12,1.07,1.07,0,0,0,.55-.12A.39.39,0,0,0,279,42a.36.36,0,0,0-.1-.28.93.93,0,0,0-.42-.17l-.31-.06-.33-.08a1,1,0,0,1-.6-.33.79.79,0,0,1-.18-.53.91.91,0,0,1,.08-.37,1.07,1.07,0,0,1,.25-.32,1.22,1.22,0,0,1,.41-.21,1.94,1.94,0,0,1,.56-.08,2.3,2.3,0,0,1,.58.07,2.89,2.89,0,0,1,.5.17v.58h0a2,2,0,0,0-.51-.26,1.7,1.7,0,0,0-.58-.11.94.94,0,0,0-.49.12.36.36,0,0,0-.21.34.35.35,0,0,0,.13.3.9.9,0,0,0,.39.16l.33.07.31.06a1.19,1.19,0,0,1,.58.3.77.77,0,0,1,.21.57"/><path class="cls-7" d="M283.13,40.92a1,1,0,0,0-.21-.67.8.8,0,0,0-.64-.24.93.93,0,0,0-.68.26,1,1,0,0,0-.29.65Zm.53.41h-2.35a1.29,1.29,0,0,0,.09.51.85.85,0,0,0,.24.36,1.13,1.13,0,0,0,.35.21,1.63,1.63,0,0,0,.45.06,1.72,1.72,0,0,0,.66-.13,1.65,1.65,0,0,0,.47-.25h0v.59a5.27,5.27,0,0,1-.56.19,2.35,2.35,0,0,1-.6.08,1.73,1.73,0,0,1-1.25-.43,1.67,1.67,0,0,1-.44-1.23,1.76,1.76,0,0,1,.43-1.25,1.45,1.45,0,0,1,1.13-.46,1.3,1.3,0,0,1,1,.38,1.54,1.54,0,0,1,.35,1.08Z"/><path class="cls-7" d="M287.07,42.08v-.9l-.58,0a2.62,2.62,0,0,0-.52.09.86.86,0,0,0-.38.2.56.56,0,0,0-.14.39.51.51,0,0,0,.17.42.71.71,0,0,0,.5.14,1.13,1.13,0,0,0,.52-.11,1.94,1.94,0,0,0,.43-.27m.54.79h-.54v-.34l-.19.14-.24.14a1.85,1.85,0,0,1-.31.11,1.62,1.62,0,0,1-.41,0,1,1,0,0,1-.73-.29,1.09,1.09,0,0,1-.14-1.32,1.06,1.06,0,0,1,.44-.36,2.32,2.32,0,0,1,.7-.17,7.85,7.85,0,0,1,.88-.07v-.09a.67.67,0,0,0-.06-.3.5.5,0,0,0-.19-.19.58.58,0,0,0-.27-.09,1.88,1.88,0,0,0-.34,0,2,2,0,0,0-.47,0,4.08,4.08,0,0,0-.54.16h0v-.54l.46-.1a3.92,3.92,0,0,1,.59-.05,2.61,2.61,0,0,1,.59.06,1,1,0,0,1,.43.19.93.93,0,0,1,.28.34,1.31,1.31,0,0,1,.09.52Z"/><path class="cls-7" d="M291.05,40.25h0l-.24,0h-.27a1.05,1.05,0,0,0-.48.11,2.11,2.11,0,0,0-.45.28v2.28H289v-3.2h.54v.47a2.85,2.85,0,0,1,.57-.37,1.24,1.24,0,0,1,.5-.1h.21l.19,0Z"/><path class="cls-7" d="M294.43,42.68a4.12,4.12,0,0,1-.51.2,1.7,1.7,0,0,1-.51.07,1.83,1.83,0,0,1-.64-.1,1.36,1.36,0,0,1-.5-.31A1.35,1.35,0,0,1,292,42a2.09,2.09,0,0,1-.12-.74,1.71,1.71,0,0,1,.44-1.24,1.48,1.48,0,0,1,1.14-.45,2,2,0,0,1,.54.08,2.29,2.29,0,0,1,.48.19v.59h0a2.15,2.15,0,0,0-.51-.28,1.41,1.41,0,0,0-.52-.1.92.92,0,0,0-.72.3,1.35,1.35,0,0,0-.27.91,1.37,1.37,0,0,0,.26.89.9.9,0,0,0,.73.31,1.37,1.37,0,0,0,.34,0,1.33,1.33,0,0,0,.3-.11l.22-.12.17-.11h0Z"/><path class="cls-7" d="M298.47,42.87h-.54V41.05c0-.14,0-.28,0-.41a.7.7,0,0,0-.1-.3.42.42,0,0,0-.21-.18.85.85,0,0,0-.35-.06,1,1,0,0,0-.46.11,2.48,2.48,0,0,0-.47.27v2.39h-.54V38.4h.54V40a2.27,2.27,0,0,1,.53-.32,1.33,1.33,0,0,1,.55-.12,1,1,0,0,1,.8.31,1.34,1.34,0,0,1,.27.9Z"/><path class="cls-7" d="M275.37,50.25a1.43,1.43,0,0,0-.24-.91.92.92,0,0,0-1.36,0,1.43,1.43,0,0,0-.24.91,1.47,1.47,0,0,0,.24.91.83.83,0,0,0,.68.31.82.82,0,0,0,.68-.31,1.43,1.43,0,0,0,.24-.91m.56,0a1.78,1.78,0,0,1-.4,1.24,1.38,1.38,0,0,1-1.08.45,1.37,1.37,0,0,1-1.08-.45,2.11,2.11,0,0,1,0-2.47,1.34,1.34,0,0,1,1.08-.46,1.36,1.36,0,0,1,1.08.46,1.77,1.77,0,0,1,.4,1.23"/><path class="cls-7" d="M279.85,51.86h-.54V51.5a3.22,3.22,0,0,1-.53.33,1.38,1.38,0,0,1-.55.11,1,1,0,0,1-.79-.31,1.26,1.26,0,0,1-.28-.9V48.65h.54v1.82c0,.16,0,.3,0,.42a.83.83,0,0,0,.1.29.46.46,0,0,0,.2.19.89.89,0,0,0,.36.05,1.16,1.16,0,0,0,.46-.1,2.78,2.78,0,0,0,.47-.28V48.65h.54Z"/><path class="cls-7" d="M284,51.86h-.54V50a2.82,2.82,0,0,0,0-.42.7.7,0,0,0-.1-.3.39.39,0,0,0-.2-.18.88.88,0,0,0-.35-.06,1.19,1.19,0,0,0-.47.11,2.46,2.46,0,0,0-.46.28v2.39h-.54V48.65h.54V49a2.27,2.27,0,0,1,.52-.33,1.38,1.38,0,0,1,.56-.12,1,1,0,0,1,.79.32,1.31,1.31,0,0,1,.27.9Z"/><path class="cls-7" d="M287.89,51.66a3.34,3.34,0,0,1-.51.2,1.7,1.7,0,0,1-.51.07,1.87,1.87,0,0,1-.64-.1,1.29,1.29,0,0,1-.82-.84,2,2,0,0,1-.12-.74,1.76,1.76,0,0,1,.43-1.24,1.52,1.52,0,0,1,1.15-.45,2,2,0,0,1,.54.08,3,3,0,0,1,.48.19v.6h0a2.21,2.21,0,0,0-.51-.29,1.41,1.41,0,0,0-.52-.1.9.9,0,0,0-.72.31,1.33,1.33,0,0,0-.27.9,1.4,1.4,0,0,0,.26.9.94.94,0,0,0,.73.31,1.42,1.42,0,0,0,.64-.15l.22-.13.17-.11h0Z"/><path class="cls-7" d="M289.84,51.86h-.54V48.65h.54Zm0-3.75h-.6v-.56h.6Z"/><line class="cls-9" x1="291.6" y1="51.86" x2="291.6" y2="47.39"/><path class="cls-7" d="M269,49.74a1.63,1.63,0,0,0,1.3,1.65,1.83,1.83,0,0,0,.47,0,2.2,2.2,0,0,0,1-.36v.57a2.29,2.29,0,0,1-1.24.32,2.2,2.2,0,0,1,0-4.4,2.4,2.4,0,0,1,1.24.31v.57a2.2,2.2,0,0,0-1-.37,1.83,1.83,0,0,0-.47,0,1.64,1.64,0,0,0-1.3,1.65"/><path class="cls-7" d="M270.92,39.82a1,1,0,0,0-.08-.35.54.54,0,0,0-.22-.23.81.81,0,0,0-.3-.1,2.46,2.46,0,0,0-.41,0h-.74v1.55h.65a2.31,2.31,0,0,0,.49,0,1,1,0,0,0,.35-.17.7.7,0,0,0,.19-.27.74.74,0,0,0,.07-.36m1.26,3h-.76l-1.35-1.66h-.9v1.66h-.55V38.6h1.24a3.9,3.9,0,0,1,.64,0,1.09,1.09,0,0,1,.49.19.9.9,0,0,1,.34.36,1.33,1.33,0,0,1,.15.63,1.3,1.3,0,0,1-.2.74,1.13,1.13,0,0,1-.62.49Z"/><path class="cls-7" d="M272.58,29.62h-.78l-.73,2.06c-.16.48-.29.92-.4,1.33h0c-.11-.41-.24-.85-.4-1.33l-.73-2.06h-.78l-.3,4.27H269l.11-1.83c0-.65.07-1.36.09-1.89h0c.12.51.29,1,.49,1.66l.7,2h.49l.7-2c.2-.61.37-1.15.49-1.66h0c0,.53,0,1.24.08,1.89l.12,1.83h.57Z"/></g><path class="cls-10" d="M619.69,26.05a.34.34,0,0,1,.39-.39h4a.34.34,0,0,1,.39.39v.23a.35.35,0,0,1-.39.39h-3.26v2.59h2.59a.34.34,0,0,1,.38.38v.23a.35.35,0,0,1-.38.39h-2.59v2.66h3.46a.34.34,0,0,1,.39.38v.24a.34.34,0,0,1-.39.39h-4.22a.34.34,0,0,1-.39-.39Zm-28.37-.53a4.51,4.51,0,0,1,2.74.86.37.37,0,0,1,.07.53l-.15.24a.35.35,0,0,1-.54.09,3.8,3.8,0,0,0-2.08-.65,3,3,0,0,0-3.05,3.15A3.07,3.07,0,0,0,591.38,33a3.7,3.7,0,0,0,2.24-.81.34.34,0,0,1,.54.05l.18.23a.36.36,0,0,1-.06.54,4.53,4.53,0,0,1-2.94,1.06,4.12,4.12,0,0,1-4.22-4.32A4.09,4.09,0,0,1,591.32,25.52Zm6.54.46a.41.41,0,0,1,.43-.32h.56a.43.43,0,0,1,.44.32l2.71,7.5c.09.27,0,.45-.31.45h-.4a.43.43,0,0,1-.44-.32l-.73-2.06H597l-.72,2.06a.41.41,0,0,1-.42.32h-.4c-.29,0-.41-.18-.32-.45Zm1.95,4.61L598.9,28c-.14-.42-.32-1.17-.32-1.17h0s-.19.75-.33,1.17l-.92,2.62Zm3.3-4.54a.34.34,0,0,1,.39-.39h.44a.48.48,0,0,1,.47.26L607.93,31a13.6,13.6,0,0,1,.68,1.19h0s-.07-.74-.07-1.19v-5a.35.35,0,0,1,.38-.39h.38a.34.34,0,0,1,.38.39v7.49a.34.34,0,0,1-.38.39h-.45a.45.45,0,0,1-.45-.26l-3.54-5.1c-.29-.46-.68-1.21-.68-1.21h0s.07.74.07,1.21v5a.34.34,0,0,1-.39.39h-.37a.34.34,0,0,1-.39-.39Zm12.2-.53a4.48,4.48,0,0,1,2.74.86.35.35,0,0,1,.07.53l-.15.24a.35.35,0,0,1-.54.09,3.77,3.77,0,0,0-2.07-.65,3,3,0,0,0-3.06,3.15A3.07,3.07,0,0,0,615.37,33a3.67,3.67,0,0,0,2.24-.81.34.34,0,0,1,.54.05l.18.23a.36.36,0,0,1-.06.54,4.53,4.53,0,0,1-2.94,1.06,4.12,4.12,0,0,1-4.22-4.32A4.09,4.09,0,0,1,615.31,25.52Zm10.59.53a.34.34,0,0,1,.39-.39h2.22a3.49,3.49,0,0,1,1.55.23,2.25,2.25,0,0,1,1.3,2.16,2.31,2.31,0,0,1-1.48,2.27v0a2,2,0,0,1,.25.38l1.48,2.75c.16.27,0,.46-.25.46h-.47a.48.48,0,0,1-.46-.27l-1.61-3h-1.77v2.9a.34.34,0,0,1-.38.39h-.38a.34.34,0,0,1-.39-.39Zm2.81,3.58a1.42,1.42,0,0,0,1.48-1.53,1.31,1.31,0,0,0-.77-1.29,2.42,2.42,0,0,0-1-.14h-1.38v3Zm-41.08,7.83a.34.34,0,0,1,.39-.39h2.22a3.68,3.68,0,0,1,1.55.22,2.26,2.26,0,0,1,1.29,2.17,2.31,2.31,0,0,1-1.47,2.27v0a2,2,0,0,1,.25.38l1.48,2.75c.15.27,0,.45-.26.45h-.46a.45.45,0,0,1-.46-.26l-1.61-3h-1.77V45c0,.26-.13.38-.39.38H588c-.26,0-.39-.12-.39-.38ZM590.44,41a1.41,1.41,0,0,0,1.47-1.54,1.29,1.29,0,0,0-.77-1.28,2.18,2.18,0,0,0-1-.14h-1.38v3Zm4.33-3.58a.34.34,0,0,1,.39-.39h4a.34.34,0,0,1,.38.39v.23a.35.35,0,0,1-.38.39h-3.27v2.58h2.59a.35.35,0,0,1,.39.39v.23a.35.35,0,0,1-.39.39h-2.59v2.66h3.47a.33.33,0,0,1,.38.38V45a.33.33,0,0,1-.38.38h-4.23c-.26,0-.39-.12-.39-.38Zm6.06,6.62.2-.28c.14-.19.3-.21.52-.07a3.09,3.09,0,0,0,1.81.67c.87,0,1.45-.47,1.45-1.18,0-1.83-4-1.42-4-4a2.41,2.41,0,0,1,2.68-2.29,3.54,3.54,0,0,1,2.07.63.38.38,0,0,1,.12.53l-.17.29c-.14.25-.32.23-.52.11a2.87,2.87,0,0,0-1.53-.48c-.85,0-1.48.44-1.48,1.16,0,1.77,4,1.29,4,3.95a2.38,2.38,0,0,1-2.62,2.35,4.09,4.09,0,0,1-2.48-.85A.35.35,0,0,1,600.83,44.08Zm6.63-6.62a.34.34,0,0,1,.39-.39h4a.34.34,0,0,1,.39.39v.23a.35.35,0,0,1-.39.39h-3.26v2.58h2.58a.35.35,0,0,1,.39.39v.23a.35.35,0,0,1-.39.39h-2.58v2.66h3.46a.34.34,0,0,1,.39.38V45c0,.26-.13.38-.39.38h-4.22c-.26,0-.39-.12-.39-.38Zm8.53-.07a.42.42,0,0,1,.44-.32H617a.42.42,0,0,1,.43.32l2.72,7.5c.09.27,0,.44-.32.44h-.4A.41.41,0,0,1,619,45L618.25,43h-3.11L614.41,45a.39.39,0,0,1-.42.31h-.39c-.3,0-.41-.17-.32-.44ZM618,42,617,39.38c-.15-.42-.32-1.17-.32-1.17h0s-.19.75-.33,1.17L615.44,42Zm3.3-4.54a.34.34,0,0,1,.39-.39h2.22a3.66,3.66,0,0,1,1.54.22,2.25,2.25,0,0,1,1.3,2.17,2.31,2.31,0,0,1-1.47,2.27v0a2.5,2.5,0,0,1,.24.38L627,44.88c.15.27,0,.45-.26.45h-.47a.45.45,0,0,1-.45-.26l-1.62-3H622.4V45c0,.26-.13.38-.39.38h-.37c-.26,0-.39-.12-.39-.38ZM624.06,41a1.41,1.41,0,0,0,1.47-1.54,1.29,1.29,0,0,0-.77-1.28,2.18,2.18,0,0,0-1-.14H622.4v3Zm8-4.11a4.48,4.48,0,0,1,2.74.86.36.36,0,0,1,.08.53l-.16.24c-.14.21-.31.23-.54.09a3.73,3.73,0,0,0-2.07-.65A3,3,0,0,0,629,41.14a3.07,3.07,0,0,0,3.06,3.27,3.71,3.71,0,0,0,2.25-.81.34.34,0,0,1,.54,0l.18.23a.36.36,0,0,1-.07.54,4.53,4.53,0,0,1-2.93,1,4.27,4.27,0,0,1,0-8.54Zm4.39.53a.34.34,0,0,1,.38-.39h.38c.26,0,.38.13.38.39v3.25h4.3V37.46a.35.35,0,0,1,.39-.39h.38c.25,0,.37.13.37.39V45c0,.26-.12.38-.37.38h-.38a.34.34,0,0,1-.39-.38V41.71h-4.3V45a.33.33,0,0,1-.38.38h-.38a.33.33,0,0,1-.38-.38Zm-48.8,11.19a.26.26,0,0,1,.29-.29h.23a.27.27,0,0,1,.3.29V53.7a2.34,2.34,0,0,0,4.67,0v-5a.26.26,0,0,1,.29-.29h.23c.19,0,.28.1.28.29v5.07a3.15,3.15,0,0,1-6.29,0Zm8.29,0c0-.19.09-.29.28-.29h.24a.26.26,0,0,1,.28.29v3.28h1.4l2.09-3.37a.35.35,0,0,1,.34-.2h.3c.23,0,.31.15.19.35l-2.25,3.53v0l2.42,4c.12.19,0,.34-.19.34h-.33a.37.37,0,0,1-.34-.2l-2.23-3.73h-1.4v3.64a.26.26,0,0,1-.28.29h-.24c-.19,0-.28-.1-.28-.29Z"/><path class="cls-11" d="M566.6,29a2,2,0,1,1-2-2A2,2,0,0,1,566.6,29Z"/><path class="cls-11" d="M555.19,35.57a2.71,2.71,0,1,1-2.71-2.71A2.71,2.71,0,0,1,555.19,35.57Z"/><path class="cls-11" d="M561.64,22.25A1.68,1.68,0,1,1,560,20.56,1.68,1.68,0,0,1,561.64,22.25Z"/><path class="cls-12" d="M548.09,28a1,1,0,1,1-1-1A1,1,0,0,1,548.09,28Z"/><path class="cls-13" d="M575,29.57a1,1,0,1,1-1-1.05A1,1,0,0,1,575,29.57Z"/><path class="cls-12" d="M559.25,31a1.37,1.37,0,1,1-1.37-1.36A1.37,1.37,0,0,1,559.25,31Z"/><path class="cls-13" d="M550.07,35.73a1.32,1.32,0,1,1-1.31-1.31A1.31,1.31,0,0,1,550.07,35.73Z"/><path class="cls-11" d="M559.09,28.84a1,1,0,0,1-2,0,1,1,0,1,1,2,0Z"/><path class="cls-11" d="M569.29,29a1,1,0,1,1-1-1.05A1,1,0,0,1,569.29,29Z"/><path class="cls-11" d="M557.59,32.34a1.05,1.05,0,1,1-1.05-1.05A1,1,0,0,1,557.59,32.34Z"/><path class="cls-11" d="M570.86,23.52a.95.95,0,1,1-.94-.94A.95.95,0,0,1,570.86,23.52Z"/><path class="cls-11" d="M568.9,26.22a.94.94,0,1,1-.94-.95A.94.94,0,0,1,568.9,26.22Z"/><path class="cls-11" d="M571.56,25.44a.91.91,0,1,1-1.81,0,.91.91,0,0,1,1.81,0Z"/><path class="cls-12" d="M570.07,24.19a1.87,1.87,0,1,1-1.86-1.87A1.86,1.86,0,0,1,570.07,24.19Z"/><path class="cls-11" d="M568.17,30.28a1.06,1.06,0,1,1-1.06-1.06A1.06,1.06,0,0,1,568.17,30.28Z"/><path class="cls-12" d="M569.85,22.81a.74.74,0,1,1-.74-.74A.74.74,0,0,1,569.85,22.81Z"/><path class="cls-11" d="M564.19,26a.82.82,0,1,1-.82-.81A.82.82,0,0,1,564.19,26Z"/><path class="cls-11" d="M557,25.09a.82.82,0,1,1-.82-.82A.82.82,0,0,1,557,25.09Z"/><path class="cls-12" d="M568.45,31.46a.6.6,0,1,1-.6-.59A.6.6,0,0,1,568.45,31.46Z"/><path class="cls-13" d="M540.05,24.46a.59.59,0,0,1-.59.59.6.6,0,1,1,.59-.59Z"/><path class="cls-11" d="M568.24,27a.6.6,0,1,1-.59-.59A.59.59,0,0,1,568.24,27Z"/><path class="cls-12" d="M550.43,23a.59.59,0,0,1-.59.59.58.58,0,0,1-.59-.59.59.59,0,0,1,.59-.59A.6.6,0,0,1,550.43,23Z"/><path class="cls-13" d="M561.4,27.68A1.73,1.73,0,1,1,559.67,26,1.73,1.73,0,0,1,561.4,27.68Z"/><path class="cls-12" d="M553.71,28.8A1.74,1.74,0,1,1,552,27.07,1.74,1.74,0,0,1,553.71,28.8Z"/><path class="cls-13" d="M556.8,28.61a1.05,1.05,0,1,1-1-1.05A1,1,0,0,1,556.8,28.61Z"/><path class="cls-13" d="M559.53,57a1.05,1.05,0,1,1-1-1.05A1,1,0,0,1,559.53,57Z"/><path class="cls-14" d="M561.42,25.67a1,1,0,1,1-1-1.05A1,1,0,0,1,561.42,25.67Z"/><path class="cls-12" d="M547.57,32.09A1.05,1.05,0,1,1,546.52,31,1,1,0,0,1,547.57,32.09Z"/><path class="cls-12" d="M577,25.93a1.29,1.29,0,1,1-1.29-1.29A1.3,1.3,0,0,1,577,25.93Z"/><path class="cls-12" d="M571.56,27.37a1.3,1.3,0,1,1-1.29-1.29A1.29,1.29,0,0,1,571.56,27.37Z"/><path class="cls-12" d="M541.89,28.93a1,1,0,1,1-1-1A1,1,0,0,1,541.89,28.93Z"/><path class="cls-11" d="M556.61,33.35a1.56,1.56,0,1,1-1.56-1.56A1.56,1.56,0,0,1,556.61,33.35Z"/><path class="cls-13" d="M552.09,26A1.56,1.56,0,0,1,549,26a1.56,1.56,0,1,1,3.11,0Z"/><path class="cls-12" d="M546.69,26.37A1.37,1.37,0,1,1,545.32,25,1.38,1.38,0,0,1,546.69,26.37Z"/><path class="cls-13" d="M543.48,33.21a1.17,1.17,0,1,1-1.16-1.16A1.16,1.16,0,0,1,543.48,33.21Z"/><path class="cls-14" d="M562,30.15a1.56,1.56,0,1,1-1.56-1.56A1.56,1.56,0,0,1,562,30.15Z"/><path class="cls-11" d="M563.31,27.56a1.11,1.11,0,1,1-1.1-1.1A1.1,1.1,0,0,1,563.31,27.56Z"/><path class="cls-11" d="M564.13,24.24a1.1,1.1,0,1,1-1.1-1.1A1.1,1.1,0,0,1,564.13,24.24Z"/><path class="cls-11" d="M550,43.13a1.05,1.05,0,1,1,1-1.05A1,1,0,0,1,550,43.13Z"/><path class="cls-13" d="M548.64,45.55A1.32,1.32,0,1,1,550,44.24,1.31,1.31,0,0,1,548.64,45.55Z"/><path class="cls-13" d="M556,31.53a1.15,1.15,0,1,1,0-2.29,1.15,1.15,0,0,1,0,2.29Z"/><path class="cls-11" d="M538.75,39.36a1.05,1.05,0,1,1,0-2.1,1.05,1.05,0,0,1,0,2.1Z"/><path class="cls-12" d="M535.62,35a.79.79,0,1,1,.79-.79A.79.79,0,0,1,535.62,35Z"/><path class="cls-14" d="M536,49.88a.8.8,0,0,1-.78-.8.79.79,0,0,1,.79-.78.79.79,0,1,1,0,1.58Z"/><path class="cls-14" d="M545.78,45.7a1,1,0,0,1-1-1.05,1.05,1.05,0,1,1,2.1,0A1,1,0,0,1,545.78,45.7Z"/><path class="cls-14" d="M562.83,60.87a.81.81,0,1,1,.81-.8A.8.8,0,0,1,562.83,60.87Z"/><path class="cls-13" d="M553.22,42.36a1,1,0,1,1,1-1A1,1,0,0,1,553.22,42.36Z"/><path class="cls-11" d="M547.11,40.56a1.05,1.05,0,1,1,1.06-1A1,1,0,0,1,547.11,40.56Z"/><path class="cls-13" d="M554,32.73a1.05,1.05,0,1,1,0-2.1,1.05,1.05,0,0,1,0,2.1Z"/><path class="cls-11" d="M549,32.76a1.45,1.45,0,1,1,1.45-1.44A1.44,1.44,0,0,1,549,32.76Z"/><path class="cls-13" d="M551.79,43.12a.81.81,0,1,1,.81-.81A.81.81,0,0,1,551.79,43.12Z"/><path class="cls-11" d="M552.74,45.57a1.74,1.74,0,1,1,1.74-1.73A1.73,1.73,0,0,1,552.74,45.57Z"/><path class="cls-13" d="M552.74,41.17a1.32,1.32,0,1,1,1.32-1.31A1.31,1.31,0,0,1,552.74,41.17Z"/><path class="cls-11" d="M550,41a1.56,1.56,0,1,1,1.57-1.55A1.55,1.55,0,0,1,550,41Z"/><path class="cls-12" d="M551.26,46a1.56,1.56,0,0,1,0-3.11,1.56,1.56,0,1,1,0,3.11Z"/><path class="cls-13" d="M553.84,46.8A1.1,1.1,0,1,1,555,45.7,1.11,1.11,0,0,1,553.84,46.8Z"/><path class="cls-11" d="M568.52,23a1.3,1.3,0,1,1-1.29-1.3A1.29,1.29,0,0,1,568.52,23Z"/><path class="cls-12" d="M573,29.85A1.89,1.89,0,1,1,571.11,28,1.89,1.89,0,0,1,573,29.85Z"/><path class="cls-12" d="M579.51,28.5a1.68,1.68,0,1,1-1.68-1.68A1.68,1.68,0,0,1,579.51,28.5Z"/><path class="cls-12" d="M565.75,22.35a1.94,1.94,0,1,1-1.94-1.94A1.94,1.94,0,0,1,565.75,22.35Z"/><path class="cls-11" d="M575.1,27a1.56,1.56,0,1,1-1.56-1.55A1.56,1.56,0,0,1,575.1,27Z"/><path class="cls-11" d="M577.69,27.71a1.56,1.56,0,1,1-1.55-1.55A1.55,1.55,0,0,1,577.69,27.71Z"/><path class="cls-13" d="M575.51,24.79a1,1,0,1,1-1-1.05A1,1,0,0,1,575.51,24.79Z"/><path class="cls-11" d="M572.93,25.38a.88.88,0,1,1-.88-.88A.88.88,0,0,1,572.93,25.38Z"/><path class="cls-13" d="M566.63,25.64a1.14,1.14,0,1,1-1.14-1.14A1.14,1.14,0,0,1,566.63,25.64Z"/><path class="cls-14" d="M557,23.3a1.14,1.14,0,1,1-1.13-1.14A1.14,1.14,0,0,1,557,23.3Z"/><path class="cls-11" d="M552.71,24a.85.85,0,0,1-.85.85.85.85,0,1,1,0-1.7A.85.85,0,0,1,552.71,24Z"/><path class="cls-12" d="M573.61,23.89a1.28,1.28,0,1,1-1.28-1.28A1.28,1.28,0,0,1,573.61,23.89Z"/><path class="cls-13" d="M579.61,53.38a1.94,1.94,0,1,0-1.94,1.94A1.94,1.94,0,0,0,579.61,53.38Z"/><path class="cls-11" d="M566.81,53.21a2,2,0,1,0-2,2A2,2,0,0,0,566.81,53.21Z"/><path class="cls-12" d="M546.11,37.48a1.4,1.4,0,1,0-1.4,1.4A1.4,1.4,0,0,0,546.11,37.48Z"/><path class="cls-12" d="M566.28,59a1.68,1.68,0,1,0-1.68,1.68A1.68,1.68,0,0,0,566.28,59Z"/><path class="cls-12" d="M561.77,59.59a1.68,1.68,0,1,0-1.68,1.67A1.68,1.68,0,0,0,561.77,59.59Z"/><path class="cls-13" d="M575.73,50.32a2.1,2.1,0,1,0-2.1,2.1A2.11,2.11,0,0,0,575.73,50.32Z"/><path class="cls-12" d="M575.73,52.74a1.05,1.05,0,1,0-1.06,1A1.06,1.06,0,0,0,575.73,52.74Z"/><path class="cls-12" d="M579.8,52.94a1,1,0,1,0-1,1.05A1,1,0,0,0,579.8,52.94Z"/><path class="cls-12" d="M559.51,51.47a1,1,0,0,0-1-1,1.05,1.05,0,1,0,0,2.1A1,1,0,0,0,559.51,51.47Z"/><path class="cls-12" d="M546.67,52.51a1.31,1.31,0,1,0-1.31,1.31A1.31,1.31,0,0,0,546.67,52.51Z"/><path class="cls-14" d="M550.36,54.47a1.05,1.05,0,1,0-1.05,1.05A1,1,0,0,0,550.36,54.47Z"/><path class="cls-11" d="M558,50.56a1.17,1.17,0,1,0-1.16,1.17A1.16,1.16,0,0,0,558,50.56Z"/><path class="cls-12" d="M553.3,49.44a1,1,0,1,0-1,1.05A1,1,0,0,0,553.3,49.44Z"/><path class="cls-11" d="M542,55.46a1,1,0,1,0-1,1A1,1,0,0,0,542,55.46Z"/><path class="cls-12" d="M543.69,50a1,1,0,1,0-1,1.05A1,1,0,0,0,543.69,50Z"/><path class="cls-12" d="M560,52.33a1.31,1.31,0,1,0-1.31,1.31A1.31,1.31,0,0,0,560,52.33Z"/><path class="cls-12" d="M573.28,48a1,1,0,1,0-1,1A1,1,0,0,0,573.28,48Z"/><path class="cls-11" d="M569.5,53.24a1,1,0,1,0-1,1A1,1,0,0,0,569.5,53.24Z"/><path class="cls-11" d="M556.7,55.22a1,1,0,1,0-1.05,1.05A1,1,0,0,0,556.7,55.22Z"/><path class="cls-12" d="M553.42,59.4a1,1,0,1,0-1,1.05A1,1,0,0,0,553.42,59.4Z"/><path class="cls-11" d="M571.07,58.7a.95.95,0,1,0-.94.94A.95.95,0,0,0,571.07,58.7Z"/><path class="cls-12" d="M568.9,57.88a.94.94,0,1,0-.94.94A.95.95,0,0,0,568.9,57.88Z"/><path class="cls-13" d="M571.86,56.84a1.53,1.53,0,1,0-1.52,1.53A1.52,1.52,0,0,0,571.86,56.84Z"/><path class="cls-12" d="M577.46,51.19a1.06,1.06,0,1,0-1.06,1.06A1.06,1.06,0,0,0,577.46,51.19Z"/><path class="cls-12" d="M553,47.2a.74.74,0,1,0-.74.74A.74.74,0,0,0,553,47.2Z"/><path class="cls-12" d="M568.22,51.92A1.06,1.06,0,1,0,567.16,53,1.06,1.06,0,0,0,568.22,51.92Z"/><path class="cls-12" d="M571.85,50.16a1.21,1.21,0,0,0-2.32-.66,1.21,1.21,0,1,0,2.32.66Z"/><path class="cls-12" d="M568.62,51.08a.59.59,0,0,0-.59-.59.58.58,0,0,0-.59.59.59.59,0,0,0,.59.59A.6.6,0,0,0,568.62,51.08Z"/><path class="cls-13" d="M572.22,59.78a.59.59,0,0,0-.59-.59.6.6,0,0,0-.59.59.59.59,0,0,0,.59.59A.58.58,0,0,0,572.22,59.78Z"/><path class="cls-11" d="M569.9,50.85a.79.79,0,1,0-1,.55A.8.8,0,0,0,569.9,50.85Z"/><path class="cls-11" d="M555.86,53.05a1.25,1.25,0,1,0-1.25,1.25A1.25,1.25,0,0,0,555.86,53.05Z"/><path class="cls-12" d="M546.07,56.4a.77.77,0,1,0-.77.77A.78.78,0,0,0,546.07,56.4Z"/><path class="cls-12" d="M550.89,50.63a.6.6,0,1,0-.6.59A.59.59,0,0,0,550.89,50.63Z"/><path class="cls-12" d="M552.42,32a.58.58,0,0,0-.58-.59.59.59,0,0,0-.6.59.6.6,0,0,0,.6.6A.59.59,0,0,0,552.42,32Z"/><path class="cls-12" d="M563.87,30.1A.88.88,0,1,0,563,31,.88.88,0,0,0,563.87,30.1Z"/><path class="cls-12" d="M564.53,61.43a.76.76,0,1,0-.76.76A.76.76,0,0,0,564.53,61.43Z"/><path class="cls-11" d="M559.32,54.77a1.73,1.73,0,1,0-1.73,1.73A1.73,1.73,0,0,0,559.32,54.77Z"/><path class="cls-11" d="M552.26,53A2.07,2.07,0,1,0,550.19,55,2.07,2.07,0,0,0,552.26,53Z"/><path class="cls-12" d="M577.67,55.8a1.77,1.77,0,1,0-1.77,1.78A1.77,1.77,0,0,0,577.67,55.8Z"/><path class="cls-11" d="M571.77,54.85a1.3,1.3,0,1,0-1.29,1.29A1.3,1.3,0,0,0,571.77,54.85Z"/><path class="cls-11" d="M563.63,52.91a1.3,1.3,0,1,0-1.3,1.3A1.29,1.29,0,0,0,563.63,52.91Z"/><path class="cls-11" d="M562.19,52.7a1.56,1.56,0,1,0-1.56,1.55A1.56,1.56,0,0,0,562.19,52.7Z"/><path class="cls-11" d="M550.26,47.8a1.84,1.84,0,1,0-1.84,1.83A1.84,1.84,0,0,0,550.26,47.8Z"/><path class="cls-11" d="M543.57,45.67A1.28,1.28,0,1,0,542.29,47,1.27,1.27,0,0,0,543.57,45.67Z"/><path class="cls-11" d="M556.53,48.75a1.84,1.84,0,1,0-1.83,1.83A1.83,1.83,0,0,0,556.53,48.75Z"/><path class="cls-12" d="M562.42,54.65a1.11,1.11,0,1,0-1.11,1.11A1.11,1.11,0,0,0,562.42,54.65Z"/><path class="cls-13" d="M545.94,40.78a1.44,1.44,0,0,0-1.47-1.42,1.45,1.45,0,0,0,.06,2.9A1.44,1.44,0,0,0,545.94,40.78Z"/><path class="cls-14" d="M561.89,57.7a1.1,1.1,0,1,0-1.1,1.1A1.1,1.1,0,0,0,561.89,57.7Z"/><path class="cls-11" d="M556,51.09a1.11,1.11,0,1,0-1.11,1.1A1.11,1.11,0,0,0,556,51.09Z"/><path class="cls-11" d="M557,59.9a1.1,1.1,0,1,0-1.1,1.1A1.1,1.1,0,0,0,557,59.9Z"/><path class="cls-12" d="M568.73,60.2a1.3,1.3,0,1,0-1.3,1.29A1.29,1.29,0,0,0,568.73,60.2Z"/><path class="cls-12" d="M563.61,56.52a1.3,1.3,0,1,0-1.29,1.3A1.29,1.29,0,0,0,563.61,56.52Z"/><path class="cls-12" d="M573.21,52.36a1.89,1.89,0,1,0-1.89,1.89A1.89,1.89,0,0,0,573.21,52.36Z"/><path class="cls-11" d="M569,55.91a2.21,2.21,0,1,0-2.2,2.21A2.21,2.21,0,0,0,569,55.91Z"/><path class="cls-12" d="M548.38,51a1.47,1.47,0,1,0-1.52,1.42A1.47,1.47,0,0,0,548.38,51Z"/><path class="cls-12" d="M556.63,26.39a1.47,1.47,0,1,0-1.48,1.47A1.47,1.47,0,0,0,556.63,26.39Z"/><path class="cls-12" d="M575,55a1.35,1.35,0,1,0-1.34,1.34A1.34,1.34,0,0,0,575,55Z"/><path class="cls-11" d="M574.93,57.75a.92.92,0,1,0-.92.92A.92.92,0,0,0,574.93,57.75Z"/><path class="cls-11" d="M573.48,56.83a.87.87,0,1,0-.87.87A.87.87,0,0,0,573.48,56.83Z"/><path class="cls-12" d="M565.56,57.47a1.14,1.14,0,1,0-1.14,1.13A1.14,1.14,0,0,0,565.56,57.47Z"/><path class="cls-12" d="M553.14,56.71a1.68,1.68,0,1,0,1.34-2A1.69,1.69,0,0,0,553.14,56.71Z"/><path class="cls-12" d="M538.36,43.49a.71.71,0,0,0,.83.57.71.71,0,1,0-.26-1.4A.7.7,0,0,0,538.36,43.49Z"/><path class="cls-14" d="M541.63,38.15a.58.58,0,1,0,.47-.68A.6.6,0,0,0,541.63,38.15Z"/><path class="cls-12" d="M573.82,58.33a1.28,1.28,0,1,0-2.56,0,1.28,1.28,0,1,0,2.56,0Z"/><path class="cls-12" d="M578.05,29.77a1.3,1.3,0,1,1-1.3-1.29A1.3,1.3,0,0,1,578.05,29.77Z"/><g class="cls-15"><path class="cls-11" d="M576.21,31.47a1.73,1.73,0,1,1-1.73-1.73A1.72,1.72,0,0,1,576.21,31.47Z"/><path class="cls-12" d="M573.53,32.28a1.05,1.05,0,1,1-1-1A1,1,0,0,1,573.53,32.28Z"/><path class="cls-16" d="M570.87,32a1,1,0,1,1-1-1A1,1,0,0,1,570.87,32Z"/><path class="cls-12" d="M573.55,33.5a1,1,0,1,1-1-1A1,1,0,0,1,573.55,33.5Z"/><path class="cls-11" d="M572.1,32.4a1,1,0,1,1-1.05-1A1,1,0,0,1,572.1,32.4Z"/></g><path class="cls-1" d="M369.93,42a23.87,23.87,0,1,1-23.87-23.86A23.86,23.86,0,0,1,369.93,42Z"/><path class="cls-17" d="M325.75,37.21c.41.1.55,0,.61-.25l.11,0-.28,1.22-.1,0c.05-.24,0-.4-.46-.51L323,37.08l-.12.5c-.1.46,0,.7.34.81l0,.11-.79-.18,0-.1a.63.63,0,0,0,.14-.17,1.76,1.76,0,0,0,.1-.32l.41-1.81a.83.83,0,0,0,0-.58l0-.1.79.17,0,.07c-.3,0-.53.07-.66.62l-.11.52Z"/><path class="cls-17" d="M325.94,33.29l.92.45c.38.18.55.15.68-.12l.09,0-.56,1.15-.09,0c.12-.25.09-.41-.33-.61l-2-1c-.38-.18-.54-.17-.68.12l-.1-.05.56-1.15.1,0c-.12.25-.08.41.33.61l.9.44.84-1.73-.9-.44c-.39-.19-.55-.17-.68.11l-.09,0L325.5,30l.1.05c-.14.27-.05.42.33.61l2,1c.37.19.55.16.68-.11l.09.05-.55,1.13-.1,0c.12-.25.09-.4-.33-.6l-.92-.46Z"/><path class="cls-17" d="M330.12,27.47l-.07.08c-.28-.14-.34-.12-.58.16l-.56.68,1,.81c.14.11.23.1.36-.05l.39-.47c.33-.4.4-.52.18-1l.06-.09.41.55-1.63,2-.08-.07c.17-.21.18-.36-.17-.66L327.7,28c-.34-.29-.5-.29-.69-.06l-.08-.06,1.63-2,.45.38,0,.05c-.35-.19-.45-.11-.7.19l-.65.78,1.16,1,.63-.76c.16-.19.18-.29,0-.52l.07-.08Z"/><path class="cls-17" d="M336.75,23.48a1.51,1.51,0,0,1-.75,1.09,1.13,1.13,0,0,1-1.64-.47l-.86-1.52c-.23-.41-.38-.43-.62-.29l-.05-.09,1.11-.63.05.09c-.25.14-.3.29-.08.69l.88,1.56a.85.85,0,0,0,1.24.37,1.19,1.19,0,0,0,.6-1l-1.05-1.86c-.2-.35-.35-.43-.6-.3l-.06-.09L336,20.4l.05.09c-.26.15-.28.32-.07.69l1.08,1.92c.23.41.39.43.63.3l.05.09-.76.42Z"/><path class="cls-17" d="M342.36,22.08l-.11,0-3.18-2.36h0l.62,2.41c.09.35.26.44.57.36l0,.1-1,.26,0-.1c.28-.07.4-.2.27-.69l-.51-2c-.1-.38-.26-.57-.67-.5l0-.1.88-.23L342,21.37h0l-.52-2c-.11-.45-.26-.54-.56-.46l0-.1,1-.27,0,.11c-.34.08-.41.25-.31.65Z"/><path class="cls-17" d="M345.24,21.14c0,.43.13.56.43.54v.11l-1.27.06v-.11c.29,0,.39-.13.37-.58l-.11-2.2c0-.44-.12-.55-.43-.54v-.1l1.27-.07v.11c-.29,0-.39.15-.37.58Z"/><path class="cls-17" d="M348.81,22h-.09L348,19c-.11-.45-.17-.62-.5-.68v-.1l1.28.17,0,.1c-.25,0-.39.09-.32.38l.56,2.37,1.1-2.07c.15-.29.12-.49-.2-.53l0-.1,1,.13,0,.11c-.26,0-.48.15-.72.6Z"/><path class="cls-17" d="M354.4,22.1l-.1,0c0-.31,0-.36-.35-.49l-.82-.3-.44,1.19c-.06.16,0,.25.16.31l.58.22c.49.17.62.2,1-.17l.09,0-.37.56-2.4-.87,0-.1c.26.1.4.06.57-.38L353.1,20c.15-.41.1-.56-.19-.67l0-.09,2.39.87-.2.56-.07,0c.06-.4,0-.47-.41-.6l-1-.35-.52,1.42.92.34c.23.08.33.07.48-.2l.1,0Z"/><path class="cls-17" d="M358.41,21.86l.31.2a.81.81,0,0,1,.31,1.17.76.76,0,0,1-1.14.22l-.37-.24Zm-1,1.47.24.16c.54.36.24,1.15.35,2.19l.6.39.06-.08c-.47-.36,0-1.46-.33-2.18a.89.89,0,0,0,1.09-.32c.26-.4.19-1-.48-1.43l-1.21-.79-.05.08c.23.16.28.3,0,.68l-1.22,1.85c-.26.4-.42.4-.65.25l-.05.09,1.06.7.06-.09c-.25-.16-.27-.33,0-.69Z"/><path class="cls-17" d="M363.08,26.54l-.08-.08a.75.75,0,0,0,0-1.07.56.56,0,0,0-.82-.08c-.47.46,0,1.23,0,1.94a1,1,0,0,1-.29.72,1,1,0,0,1-1.42,0,4.17,4.17,0,0,1-.44-.71s-.1-.05-.19,0l-.07-.08.68-.67.07.08a.84.84,0,0,0,0,1.21.63.63,0,0,0,.95.07c.43-.43,0-1.31,0-1.87a1,1,0,0,1,.32-.73.89.89,0,0,1,1.32,0,2.77,2.77,0,0,1,.39.59s.06,0,.14,0l.07.07Z"/><path class="cls-17" d="M363.38,30.32c-.36.25-.4.41-.24.65l-.08.06-.73-1,.09-.06c.17.24.32.27.69,0l1.81-1.26c.37-.25.41-.4.24-.65l.08-.06L366,29l-.09.06c-.17-.24-.34-.25-.69,0Z"/><path class="cls-17" d="M365.14,33.53c-.39.18-.46.3-.33.58l-.1,0L364.19,33l.09,0c.11.23.24.33.68.13L367.41,32l-.21-.47c-.2-.43-.41-.57-.76-.45l0-.09.73-.34,0,.1a.69.69,0,0,0,0,.21,2.35,2.35,0,0,0,.12.33l.77,1.68c.13.28.22.39.35.46l.05.1-.74.33,0-.06c.25-.18.39-.38.15-.89l-.22-.49Z"/><path class="cls-17" d="M366.53,37.84c-.41.09-.53.2-.46.49l-.11,0-.27-1.26.11,0c.05.27.14.41.64.31l1.08-.24,1-1c.33-.32.39-.44.34-.71l.1,0,.29,1.36-.1,0c-.08-.38-.22-.4-.4-.21l-.91.91,1,.36c.31.11.56.07.5-.22l.1,0,.21.94-.11,0c-.07-.27-.16-.34-.51-.47l-1.39-.52Z"/><path class="cls-17" d="M324.57,46.81c1-.28,1.79,0,2,.84s-.23,1.44-1.3,1.75a1.5,1.5,0,0,1-2-.83C323.06,47.8,323.58,47.1,324.57,46.81Zm-.15-.52a1.88,1.88,0,0,0,1.05,3.62,1.89,1.89,0,0,0-1.05-3.62Z"/><path class="cls-17" d="M325.83,53.15c-.37.22-.43.38-.28.63l-.1.06-.63-1.11.09,0c.15.26.31.28.69.07l1.92-1.09c.38-.22.43-.37.29-.63l.09-.06,1.2,2.11-.55.31,0-.06c.33-.29.31-.4.11-.73l-.44-.78-1.29.73.46.8c.13.23.3.25.56.14l0,.08-.87.49,0-.08c.22-.14.29-.32.16-.53l-.46-.81Z"/><path class="cls-17" d="M332.62,60l-.08-.07c.13-.28.11-.34-.17-.57l-.68-.56-.8,1c-.11.13-.1.22.05.35l.48.39c.4.33.51.39,1,.17l.08.06-.54.41-2-1.61.06-.09c.22.18.37.19.66-.17l1.41-1.71c.27-.34.28-.5,0-.69l.07-.08,2,1.62-.38.46-.05,0c.19-.35.11-.45-.19-.7l-.79-.64-1,1.17.77.62c.18.15.28.18.51,0l.08.06Z"/><path class="cls-17" d="M336.65,60.09l.61.28a1.51,1.51,0,0,1,.69,2.19,1.37,1.37,0,0,1-1.93.84l-.33-.15c-.29-.14-.36-.29-.13-.79Zm-1.57,2.29c-.18.4-.34.46-.6.34l0,.1,1.52.7a1.7,1.7,0,0,0,2.49-.74,1.82,1.82,0,0,0-1.05-2.49l-1.48-.68-.05.09c.27.12.31.29.13.68Z"/><path class="cls-17" d="M341.3,64.61c-.09.42,0,.58.28.64l0,.1-1.24-.27,0-.11c.29.06.42,0,.52-.46l.47-2.15c.1-.43,0-.57-.27-.64l0-.1,1.24.27,0,.11c-.29-.07-.42,0-.51.46Z"/><path class="cls-17" d="M347.7,65.75h-.1l-2.53-3.06h0l0,2.48c0,.36.14.48.46.48v.11h-1.07v-.11c.29,0,.44-.09.43-.61l0-2.06c0-.4-.11-.62-.53-.65v-.11h.9L347.5,65h0l0-2.07c0-.46-.13-.58-.44-.57v-.11h1.07v.1c-.34,0-.45.15-.45.56Z"/><path class="cls-17" d="M351.4,63.22,351,61.77l.34-.09a.72.72,0,0,1,1,.51.73.73,0,0,1-.6.93Zm-.12,1.31c.11.42.05.57-.24.65l0,.1,1.57-.43c.64-.18,1-.63.87-1.14a1.07,1.07,0,0,0-1.15-.71h0c.43-.29.58-.59.47-1s-.59-.73-1.41-.5l-1.29.35,0,.1c.28-.08.42,0,.54.44Zm.16-1.18.32-.09a.91.91,0,0,1,1.22.57.68.68,0,0,1-.48.91l-.27.08c-.27.08-.39,0-.51-.47Z"/><path class="cls-17" d="M358.6,61.64a1.44,1.44,0,0,1-.73,1.09,1.13,1.13,0,0,1-1.65-.44l-.88-1.51c-.23-.4-.39-.42-.63-.28l0-.09,1.1-.64.06.09c-.25.14-.3.29-.07.68l.9,1.55a.85.85,0,0,0,1.25.35,1.16,1.16,0,0,0,.57-1l-1.07-1.84c-.2-.35-.36-.43-.61-.29l-.05-.09,1.08-.63.05.09c-.26.15-.28.32-.06.69l1.11,1.9c.23.4.39.42.63.28l.05.09-.75.44Z"/><path class="cls-17" d="M360,56.84l.26-.26a.81.81,0,0,1,1.2-.08.77.77,0,0,1,0,1.17l-.3.31Zm1.25,1.24.2-.2c.46-.46,1.18,0,2.22.08l.51-.51-.08-.08c-.44.39-1.43-.27-2.2-.09a.89.89,0,0,0-.1-1.14c-.34-.33-.93-.37-1.49.19l-1,1,.07.07c.2-.2.35-.23.68.1l1.58,1.56c.33.33.3.48.11.68l.08.07.89-.91-.07-.07c-.21.21-.38.19-.68-.11Z"/><path class="cls-17" d="M367.1,53.15a6.71,6.71,0,0,1-.44.89,1.78,1.78,0,0,1-2.58.86,1.86,1.86,0,0,1-.72-2.57c.26-.43.5-.5.64-.73s.06-.16,0-.23l.06-.1.89.54-.05.09a1.13,1.13,0,0,0-1.43.5,1.41,1.41,0,0,0,.71,1.93,1.61,1.61,0,0,0,2.3-.31c.13-.22.25-.54,0-.7l-.33-.2c-.36-.22-.55-.22-.7,0l-.07.11-.09,0L366,52l.09,0c-.18.3-.09.46.17.62Z"/><path class="cls-17" d="M367,49.07l1,.29c.41.12.57,0,.65-.24l.11,0-.36,1.23-.1,0c.08-.26,0-.41-.43-.54l-2.12-.61c-.4-.12-.56-.08-.65.23l-.1,0,.36-1.23.1,0c-.08.26,0,.42.42.54l1,.28.54-1.85-1-.28c-.42-.11-.57-.06-.65.23l-.1,0,.35-1.22.1,0c-.08.29,0,.43.43.54l2.12.61c.4.12.56.07.65-.23l.1,0-.35,1.22-.1,0c.07-.27,0-.4-.43-.53l-1-.29Z"/><path class="cls-17" d="M324.25,42.33a.31.31,0,0,1-.31.31.31.31,0,0,1,0-.62A.31.31,0,0,1,324.25,42.33Z"/><path class="cls-17" d="M368.49,42.34a.32.32,0,0,1-.63,0,.32.32,0,0,1,.32-.31A.31.31,0,0,1,368.49,42.34Z"/><path class="cls-17" d="M355.13,58.39a7.82,7.82,0,0,0,.72-.45l.61-.37c.18-.14.35-.29.54-.42l.58-.43.13-.12.13-.07c.17-.13.34-.28.5-.43s.22-.24.35-.36l.41-.35s.08-.11.13-.16.22-.2.32-.31l.21-.25a9.58,9.58,0,0,0,.67-.76l.49-.59.33-.47.17-.18.54-.75c.05-.08.08-.17.13-.26l.12-.17.1-.21.35-.62c.09-.16.18-.32.28-.48s.12-.34.2-.5l.24-.51c.27-.74.54-1.48.76-2.24,0-.09,0-.18.05-.27.06-.28.14-.57.19-.85s0-.3.05-.44.09-.5.12-.74,0-.39.05-.59,0-.15,0-.22l0-.5c0-.08,0-.15,0-.24s0-.23,0-.34a19.28,19.28,0,0,0,0-2.28c0-.38-.11-.75-.15-1.12s-.08-.79-.15-1.16a20.91,20.91,0,0,0-.87-3c-.05-.14-.14-.27-.19-.41s-.25-.55-.39-.82l-.14-.24c-.11-.24-.19-.5-.32-.73a4.53,4.53,0,0,0-.26-.4l-.21-.45c-.26-.4-.53-.8-.8-1.2l-.31-.36-.34-.44a3.43,3.43,0,0,1-.33-.33c-.06-.07-.09-.14-.15-.21s-.17-.19-.25-.28l-.16-.14-.38-.45-.36-.33-.34-.35-.47-.36-.49-.43-.33-.21-.42-.3c-.1-.07-.19-.16-.29-.24l-.23-.14-.31-.21c-.33-.21-.69-.36-1-.54l-.38-.24L354,25l-.55-.22-.27-.15-.21-.07-.32-.14c-.35-.13-.71-.22-1.06-.33l-.51-.17c-.37-.1-.74-.16-1.12-.25l-.76-.17-.48-.06a8.11,8.11,0,0,0-.86-.14h-.32l-.23,0h-.44c-.33,0-.68-.05-1-.05a1.92,1.92,0,0,1-.48,0h-.54l-.14,0h-.38l-.2,0-.19,0a.36.36,0,0,0-.18,0h-.11a.56.56,0,0,0-.23,0,1.36,1.36,0,0,0-.58.1h-.11a.81.81,0,0,0-.35.07,3,3,0,0,0-.78.18,1.52,1.52,0,0,0-.43.12.69.69,0,0,0-.32.08,1.24,1.24,0,0,0-.5.17,1,1,0,0,0-.29.09,1.19,1.19,0,0,0-.49.17l-.31.13c-.57.24-1.11.51-1.65.79l-.28.17a10.76,10.76,0,0,0-1.85,1.15L335,27l-.26.24c-.17.12-.34.23-.5.36-.32.27-.63.58-.93.88l-.56.51-.19.21-.25.24c-.13.14-.23.3-.36.43s-.22.22-.32.35l-.14.19a5,5,0,0,0-.55.67c-.12.18-.24.36-.35.54a5.63,5.63,0,0,0-.48.72l-.12.23-.33.56c-.1.2-.17.4-.26.6l-.14.22a5.36,5.36,0,0,1-.28.53c0,.11-.09.22-.13.34a3.78,3.78,0,0,0-.17.35c0,.13-.09.26-.14.4s-.11.28-.16.43a26.14,26.14,0,0,0-.7,2.74c0,.18,0,.36,0,.54s-.1.43-.11.63a2.63,2.63,0,0,1-.06.49l0,.38c0,.77,0,1.5,0,2.24,0,.35.08.71.11,1.06l0,.46c0,.48.13,1,.2,1.44,0,.12.07.24.1.36.08.37.17.74.27,1.1a2.44,2.44,0,0,1,.1.24l.06.26.42,1.19.21.45c0,.1.07.21.11.31s.26.48.39.73.22.39.32.59l.09.21.11.13c0,.09.07.17.11.25a3.91,3.91,0,0,0,.34.49l.2.28c.1.13.21.24.3.37l.21.31.4.48.34.42.41.43c.12.13.21.29.34.41l.55.52.27.28c.15.13.33.23.48.36l.42.41.31.24a4,4,0,0,0,.37.33c.16.11.32.24.49.34s.23.1.34.17l.38.27.4.22a15,15,0,0,0,1.47.8c.23.1.44.24.67.32l.66.26.24.06.64.25.17,0a3.9,3.9,0,0,0,.57.21l.7.14c.34.07.7.18,1.06.23l.39,0a4.34,4.34,0,0,0,.52.08l.41,0,.26,0h.28l.64.1h.32l.2,0,.62,0h.36a4,4,0,0,0,.7-.07h.31l.43,0c.51-.05,1-.11,1.49-.2l.49-.13.62-.13a2.68,2.68,0,0,0,.3-.12l.5-.15.22-.08c.12,0,.23,0,.35-.08l.75-.26.44-.21.42-.19.12-.07.45-.21.5-.29C355,58.46,355,58.44,355.13,58.39Z"/><path class="cls-7" d="M345.86,59.16h0v0s0,0-.05,0-.13-.2-.19-.3l-.4-.47a4.86,4.86,0,0,0-1.35-.91l-.3-.11-.33-.15a2.09,2.09,0,0,0-.34-.08l-.36-.08-.76-.17-.73-.09-.57,0c-.89-.09-1.76-.17-2.62-.31-.29,0-.57,0-.86-.1a6.1,6.1,0,0,1-.84-.22c-.15,0-.3-.08-.45-.14l-.42-.19-.3-.13a1.37,1.37,0,0,0-.2-.13l-.1-.06a3.79,3.79,0,0,1-.6-.67,1.63,1.63,0,0,1-.27-.6,2.81,2.81,0,0,1-.1-.31,7.72,7.72,0,0,1-.1-1.54l0-.31c0-.39,0-.8.05-1.19,0-.09,0-.17,0-.26,0-.4,0-.8,0-1.19s0-.52,0-.77c0-1.07,0-2.16,0-3.24l0-.46c0-.17,0-.33,0-.49a1.85,1.85,0,0,0,0-.23c0-.24,0-.48.06-.73s0-.38,0-.56,0-.26,0-.4,0-.22,0-.35,0-.2,0-.31,0-.43,0-.65,0-.26,0-.39,0-.29,0-.45,0-.36.05-.54,0-.34,0-.5c0-.37,0-.76,0-1.15a1.62,1.62,0,0,0,0-.22c0-.17,0-.33,0-.5s0-.28,0-.42c0-.68,0-1.38,0-2v-.69c0-.16,0-.32,0-.49s0-.22,0-.33c0-.57,0-1.15,0-1.73,0-.21,0-.4,0-.6s0-.48,0-.72,0-.31,0-.48a1.17,1.17,0,0,1,0-.42s0,0,.06,0a3,3,0,0,1,.79,0,5.9,5.9,0,0,0,.94,0h.87l.52,0,1,0h1.2l.34,0,.49,0c.13,0,.26,0,.41,0h.52l.83,0,.39,0,1.17,0,.76,0c.22,0,.44,0,.66,0h.93l.51,0,.39,0,.77,0,.36,0c.69,0,1.35,0,2.06,0l.45,0c.32,0,.65,0,1,0l.2,0c.26,0,.57,0,.85,0,.11,0,.21,0,.32,0l.38,0,.64,0c.14,0,.28,0,.42,0l.31,0c.15,0,.31,0,.46,0l.31.05.26,0,.28,0h.28c.17,0,.34,0,.51,0s.52,0,.8,0l.39,0,.26,0a.67.67,0,0,1,.25,0h0a.72.72,0,0,1,0,.36c0,.38,0,.74,0,1.1v.72a1.62,1.62,0,0,1,0,.22c0,.17,0,.33,0,.49l0,.5c0,.21,0,.42,0,.63l0,.25c0,.14,0,.27,0,.41l0,.42c0,.18,0,.35,0,.52l0,.4c0,.21,0,.42.05.63s0,.16,0,.23,0,.36,0,.53,0,.64,0,.93a1.23,1.23,0,0,1,0,.19c0,.14,0,.28,0,.41s0,.34,0,.51,0,.24,0,.36l0,.19a2.44,2.44,0,0,1,0,.27c0,.32,0,.64,0,1,0,.16,0,.32,0,.49l0,.19c0,.11,0,.22,0,.33s0,.14,0,.21l0,.36c0,.16,0,.34,0,.51,0,.48,0,.93-.05,1.4,0,.2,0,.37,0,.56l0,.31c0,.22,0,.45,0,.67l0,.36c0,.45,0,.9,0,1.36s0,.65,0,1,0,.34,0,.51a1.21,1.21,0,0,1,0,.19v.37c0,.29,0,.58,0,.86s0,.7,0,1.06c0,.1,0,.2,0,.29a1.37,1.37,0,0,1,0,.19l0,.62c0,.17,0,.36,0,.54l-.06.32c0,.12,0,.24,0,.36a2.51,2.51,0,0,1-.3.67c-.09.15-.25.23-.37.35A2,2,0,0,1,357,55a2.73,2.73,0,0,1-.43.33l-.31.11-.61.25c-.19.08-.4.13-.59.2l-.14.05a.71.71,0,0,0-.33.1.55.55,0,0,0-.26.05,1,1,0,0,0-.35.08l-.11,0a.27.27,0,0,0-.16,0,1.29,1.29,0,0,0-.45.1.93.93,0,0,0-.29,0,.38.38,0,0,0-.16,0,.59.59,0,0,0-.27,0l-.13,0a.38.38,0,0,0-.19,0,.52.52,0,0,0-.18,0,.78.78,0,0,0-.38,0h-.13c-.11,0-.25,0-.34,0a.43.43,0,0,0-.2,0h-.1a.84.84,0,0,0-.32,0l-.14,0h-.09l-.1,0h-.15a.64.64,0,0,0-.2,0l-.13,0a.49.49,0,0,0-.21,0,.38.38,0,0,0-.19,0,.43.43,0,0,0-.17,0,.26.26,0,0,0-.15,0H349a.76.76,0,0,0-.27.06.23.23,0,0,0-.14,0,1.27,1.27,0,0,0-.47.13l-.34.12a1.2,1.2,0,0,0-.61.34c-.14.12-.32.17-.46.3A3.71,3.71,0,0,0,345.86,59.16Z"/><path class="cls-17" d="M347.69,56.83l.3-.12c.2-.06.41-.1.62-.15.39-.08.77-.18,1.16-.27h.29a3.4,3.4,0,0,1,.46-.08l.62,0c.25,0,.51-.07.76-.09s.44,0,.67,0l.59-.09.19,0c.3-.05.6-.12.89-.19l.29-.06c.28-.08.55-.19.82-.28a4.7,4.7,0,0,0,.66-.24,4.46,4.46,0,0,0,.52-.31,2.46,2.46,0,0,0,.84-.73,1.86,1.86,0,0,0,.19-.53,2.29,2.29,0,0,1,0-.25,6.71,6.71,0,0,0,0-1.1c0-.13,0-.27,0-.4a1.48,1.48,0,0,1,0-.21c0-.14,0-.28,0-.42a1,1,0,0,0,0-.17c0-.05,0-.09,0-.14s0-.1,0-.15,0-.18,0-.28,0-.19,0-.29,0-.22,0-.35c0-.43,0-.85,0-1.27,0-.11,0-.21,0-.31,0-.38,0-.75,0-1.13,0-1,0-2.11,0-3.14,0-.11,0-.22,0-.33s0-.06,0-.09,0-.18,0-.26,0-.12,0-.18,0-.17,0-.27,0-.35,0-.54,0-.24,0-.35a1.15,1.15,0,0,1,0-.18l0-.18,0-.22,0-.24c0-.08,0-.14,0-.22,0-.44,0-.89,0-1.33,0-.11,0-.19,0-.28a2.46,2.46,0,0,1,0-.26.77.77,0,0,1,0-.15c0-.15,0-.29,0-.44s0-.47,0-.71l0-.22c0-.19,0-.35,0-.53s0-.27,0-.41c0-1,0-2.06,0-3.1,0-.57,0-1.15,0-1.72,0-.31,0-.64,0-1s0-.58,0-.89h0s-.15,0-.18,0h-.91a5.93,5.93,0,0,0-.61,0,.55.55,0,0,0-.18,0l-.22,0-.33,0h-1.15a2.25,2.25,0,0,0-.45,0H353a1.25,1.25,0,0,0-.51,0H352c-.21,0-.42-.05-.64-.05s-.4,0-.56,0h-.63a.78.78,0,0,0-.27,0,.42.42,0,0,0-.16,0c-.14,0-.26,0-.39,0h-1a1.1,1.1,0,0,0-.41,0h-.12l-.14,0a2.22,2.22,0,0,0-.67,0l-.1,0a.53.53,0,0,0-.22,0l-1.43,0h-.38a.45.45,0,0,0-.2,0h-.36a2.23,2.23,0,0,0-.68,0h-.33a.45.45,0,0,0-.23,0,.81.81,0,0,0-.31,0c-.19,0-.36,0-.57,0a.67.67,0,0,0-.2,0,1.25,1.25,0,0,0-.39,0H341a.86.86,0,0,0-.28,0h-.7a1.89,1.89,0,0,0-.58,0,1.81,1.81,0,0,0-.52,0c-.31,0-.59,0-.9,0a.92.92,0,0,0-.37,0,.35.35,0,0,0-.18,0,1.19,1.19,0,0,0-.38,0,1,1,0,0,0-.34,0l-1.21,0a1.07,1.07,0,0,0-.4,0,1.86,1.86,0,0,0-.58,0c-.09,0-.24,0-.3,0s0,.51,0,.65,0,.22,0,.33,0,.2,0,.31v.46c0,.41,0,.81,0,1.24,0,.12,0,.2,0,.31s0,.22,0,.33,0,.2,0,.31,0,.43,0,.65,0,.77,0,1.16c0,.15,0,.31,0,.46a.77.77,0,0,0,0,.15,2.51,2.51,0,0,0,0,.27c0,.67,0,1.31,0,2,0,.3,0,.57,0,.85l0,.43c0,.21,0,.42,0,.64,0,.42,0,.85,0,1.29,0,.15,0,.3,0,.45l0,.59c0,.77,0,1.58,0,2.36,0,.19,0,.35,0,.55v.62c0,.1,0,.19,0,.28,0,.7,0,1.38,0,2.09,0,.32,0,.61,0,.92V50c0,.06,0,.11,0,.17a.88.88,0,0,0,0,.16c0,.16,0,.32,0,.47s0,.41,0,.61,0,.17,0,.26,0,.17,0,.26,0,.2,0,.31a4.45,4.45,0,0,0,.38,2.31,2.58,2.58,0,0,0,1.19.9,6.12,6.12,0,0,0,1,.36c.24.06.49.09.75.14s.4.08.6.1l.59,0,1.26.18.6,0,.26.05h.48l.5,0h.26l.23.05.64.1.2.07.42.13L344,57l.45.22.24.16a4.8,4.8,0,0,1,.48.3,4.58,4.58,0,0,1,.47.51c.05.06.08.13.15.17s0,0,0,0,.09-.08.11-.11l.1-.15a3.91,3.91,0,0,1,1.43-1.19Z"/><path class="cls-7" d="M347.78,31.94h0v-.16c0-.16.16-.24.25-.36C348.15,31.58,347.88,31.82,347.78,31.94Z"/><path class="cls-7" d="M348.63,30.57a2.07,2.07,0,0,0,.17-.24l.15-.15c.12,0,.23,0,.36,0v.05c-.17,0-.64.58-.75.72s-.11.21-.18.25a.19.19,0,0,1-.15,0c-.11-.07,0-.19,0-.27s0-.11.06-.15l.14-.07Z"/><path class="cls-7" d="M347.52,31a1.49,1.49,0,0,1,.07-.25c.05-.1.18-.13.25-.2a1.35,1.35,0,0,0,.14-.22c.06-.08.14-.09.22-.13h.2c0,.09-.11.17-.15.23s-.11.19-.16.27l-.19.26c0,.07-.06.14-.12.2l-.12.1-.1.12a.52.52,0,0,0-.11.1c-.07.08-.07.2-.16.27a.38.38,0,0,1-.33.06h0a2,2,0,0,1,.27-.42s.11,0,.14-.09,0-.11.06-.16S347.5,31,347.52,31Z"/><path class="cls-7" d="M346.28,30.74c0-.08.1-.14.12-.22s0-.17.06-.25.49,0,.63-.09h.26v0s0,0,0,0a4.41,4.41,0,0,0-.28.58l-.12.22a2.44,2.44,0,0,0-.1.24c-.09.15-.3.42-.48.46v0s0-.15,0-.18a.71.71,0,0,1,0-.21c0-.09.06-.15.06-.24S346.25,30.86,346.28,30.74Z"/><path class="cls-7" d="M345,30.19c.06-.06.3,0,.39-.05a2.63,2.63,0,0,0,.49,0c0,.07,0,.14,0,.21s0,.11,0,.16l0,.18c0,.26,0,.52-.05.77s0,.32,0,.47h0c-.21,0-.45-.64-.53-.78a1.81,1.81,0,0,0-.18-.21C345,30.8,344.8,30.38,345,30.19Z"/><path class="cls-7" d="M343.66,30.32v0c0-.1.29-.1.39-.15a.75.75,0,0,1,.3,0c.23.12.31.45.4.67s.14.27.21.41l.13.22a.61.61,0,0,1,0,.24c0,.06,0,.17,0,.2a.18.18,0,0,1-.16,0,13.42,13.42,0,0,1-1.27-1.57h0Z"/><path class="cls-7" d="M343,30.16a.5.5,0,0,1,.28.14,4.58,4.58,0,0,1,.35.42,1.76,1.76,0,0,0,.14.23l.25.27.21.27a.83.83,0,0,1,.08.12l.16.14a1.11,1.11,0,0,1,.27.37s0,0,0,0a.45.45,0,0,1-.26-.08l-.31-.32c-.07-.07-.15-.09-.21-.17a5,5,0,0,0-.33-.47c-.08-.07-.2-.09-.28-.17h0a2,2,0,0,1-.19-.31c-.08-.11-.21-.18-.28-.29s0,0,0,0h0C342.83,30.23,343,30.19,343,30.16Z"/><path class="cls-7" d="M346.68,33.56l.14,0A.37.37,0,0,1,347,34a.52.52,0,0,1-.19.2.34.34,0,0,1-.18.09c-.1,0-.06-.21,0-.27s.11-.09.12-.18S346.68,33.67,346.68,33.56Z"/><path class="cls-7" d="M346.91,32.89c-.06,0-.12.13-.2.12s-.14-.14-.2-.21-.23-.1-.21-.23.06-.08.11-.1v0a1.39,1.39,0,0,1,.28.12c.11,0,.23.07.35.12a0,0,0,0,1,0,.06C347,32.82,347,32.86,346.91,32.89Z"/><path class="cls-7" d="M346.69,34.92c0,.12-.29.17-.38.11s.12-.26.18-.31S346.71,34.82,346.69,34.92Z"/><path class="cls-7" d="M346,34.81s-.07,0-.1-.05a.26.26,0,0,1-.11-.07c-.09-.09-.06-.19-.07-.31a.72.72,0,0,1,0-.21c0-.05.07-.07.11-.1a.21.21,0,0,1,.14,0,3.54,3.54,0,0,1,.39.38C346.37,34.6,346.08,34.79,346,34.81Z"/><path class="cls-7" d="M347.9,33.77a.34.34,0,0,1-.16.29s-.06,0-.09,0,.16-.2.24-.27Z"/><path class="cls-7" d="M347.59,33.56a.2.2,0,0,1-.13.06c-.06,0-.08,0-.1-.09s0-.56,0-.61.1-.11.14-.15.12.11.16.22S347.8,33.4,347.59,33.56Z"/><path class="cls-7" d="M347.39,34.5s0,0,0,0-.21.2-.28.14,0-.18.08-.24S347.35,34.43,347.39,34.5Z"/><path class="cls-7" d="M345.9,32.78h.17c.1,0,.43.3.39.43s-.14.18-.22.27a.6.6,0,0,1-.31.19c-.13,0-.3-.53-.28-.62a1.06,1.06,0,0,1,.25-.27Z"/><path class="cls-7" d="M345.52,34.1c-.07.06-.15.15-.24.16s-.1,0-.14-.08a.49.49,0,0,1-.15-.44c0-.05.05-.09.07-.14s0-.15.13-.26c.14.07.54.37.5.56S345.57,34.05,345.52,34.1Z"/><path class="cls-7" d="M345.59,35h0s-.06,0-.08,0c-.24,0-.51-.11-.31-.41a.14.14,0,0,1,.11,0,.64.64,0,0,1,.11.16C345.47,34.86,345.56,34.9,345.59,35Z"/><path class="cls-7" d="M344.46,32.92a1.16,1.16,0,0,1,.16-.17h0c.21.13.37.37.16.59a.39.39,0,0,1-.17.11c-.19,0-.11-.21-.11-.31A.65.65,0,0,0,344.46,32.92Z"/><path class="cls-7" d="M344.84,32.61v0l.09,0a1.38,1.38,0,0,0,.51-.15c.05,0,.14,0,.17.07s-.34.43-.46.42S344.93,32.69,344.84,32.61Z"/><path class="cls-7" d="M344.58,34l.09,0a1.31,1.31,0,0,1,.38.4c0,.09-.24.26-.31.28s-.09-.05-.11-.1A.85.85,0,0,1,344.58,34Z"/><path class="cls-7" d="M344.25,33.79c-.16,0-.13-.27-.12-.37S344.48,33.73,344.25,33.79Z"/><path class="cls-7" d="M346.27,50.79a6.07,6.07,0,0,1,.41-.63.18.18,0,0,1,.1-.07v0H347a2.3,2.3,0,0,1-.49.72,1,1,0,0,1-.25,0v0Z"/><path class="cls-7" d="M343.78,50.74a1.25,1.25,0,0,1-.34,0c0-.15.6-.58.73-.7h.24A2.14,2.14,0,0,1,343.78,50.74Z"/><path class="cls-7" d="M348.24,54a.31.31,0,0,1-.31-.13,1.18,1.18,0,0,1-.12-.28c-.05-.15-.1-.32-.16-.47a.75.75,0,0,1-.1-.36c0-.08.08-.11.13-.15a.16.16,0,0,1,.11.07.76.76,0,0,1,.06.16l.15.45a3.39,3.39,0,0,0,.2.53S348.29,53.94,348.24,54Z"/><path class="cls-7" d="M347.69,50.05c.08.11.54.63.52.73s0,0-.06,0H347v0h0a.35.35,0,0,1,.06-.14c.08-.15.39-.57.37-.72a.12.12,0,0,0-.09-.1,2.34,2.34,0,0,0-.65,0,1.5,1.5,0,0,0-.47,0c-.22,0-1-.1-1.05.08a.17.17,0,0,0,0,.14,3.82,3.82,0,0,0,.33.49l.19.28v0l-.05,0c-.46,0-.91,0-1.37,0v0s.67-.79.74-.88,0,0,0,0l-.24,0-.41,0c-.39,0-.8,0-1.18,0a6.46,6.46,0,0,1,.64-.66c.47-.5,1-1,1.46-1.47l.51-.52a.43.43,0,0,1,.17-.13v0a1.48,1.48,0,0,1,.3.26l.44.46.28.26c.42.44.87.85,1.3,1.28a5.79,5.79,0,0,1,.54.57l-.1,0h-.57a1.42,1.42,0,0,0-.55.05C347.57,49.92,347.65,50,347.69,50.05Z"/><path class="cls-7" d="M343.06,51.91a6.48,6.48,0,0,1,1.54,0c.32,0,.61,0,.93,0s.87,0,1.31,0h.68c.52,0,1.05,0,1.55,0h0s0-.15,0-.18c0-.33,0-.67,0-1a5,5,0,0,1,0-.68c.27.14.23.47.24.77a5.71,5.71,0,0,1,0,.59l0,.31a1.47,1.47,0,0,1,0,.47v0h0s-.11,0-.13,0c-.26,0-.51,0-.77,0a1.19,1.19,0,0,0-.38,0,.79.79,0,0,0-.31,0c-.3,0-.58,0-.88,0-.14,0-.32-.07-.44,0l-.66,0s-.11,0-.14,0a1.67,1.67,0,0,0-.5,0,.72.72,0,0,0-.21,0h-.62l-.39,0h-.13l-.15,0c-.24,0-.43.05-.55-.15C343.07,52,343.05,51.93,343.06,51.91Z"/><path class="cls-7" d="M349.29,56a.48.48,0,0,1-.27.09c0-.4,0-.84,0-1.26,0-.12,0-.26,0-.37a.12.12,0,0,1,.06-.08.58.58,0,0,1,.23,0s0,.18,0,.21a2.72,2.72,0,0,0,0,.28c0,.15,0,.28,0,.43A1.66,1.66,0,0,1,349.29,56Z"/><path class="cls-7" d="M354.2,55.46a.41.41,0,0,0-.16,0,.79.79,0,0,0-.31.08,1.75,1.75,0,0,0-.41.09l-.28.05a.48.48,0,0,0-.2,0h-.11l-.11,0a.59.59,0,0,0-.3,0h-.11a1.08,1.08,0,0,0-.48,0h-.18a.58.58,0,0,1-.19,0s-.2.06-.23.08a1,1,0,0,0-.34,0h-.12a.89.89,0,0,0-.33,0,.49.49,0,0,0-.21,0,1.22,1.22,0,0,1-.44,0,4.71,4.71,0,0,1,0-1.32c0-.1,0-.19,0-.29s0-.45-.14-.4a1.23,1.23,0,0,0-.39,0c-.11,0-.4,0-.46,0s-.17-.49-.23-.65a2.87,2.87,0,0,1-.26-.71s0-.07,0-.09.27,0,.35,0,1.07,0,1.14-.12a1.28,1.28,0,0,0,0-.44c0-.16,0-.32,0-.47a3.1,3.1,0,0,1,0-.75c.56.59,1.19,1.15,1.77,1.74a1.56,1.56,0,0,0,.16.2c.14.15.3.28.45.42.39.39.76.81,1.15,1.2s.6.6.9.9a.65.65,0,0,1,.18.19C354.33,55.41,354.23,55.44,354.2,55.46Z"/><path class="cls-7" d="M353.12,39.94l.27-.32c.11-.11.23-.2.34-.3l.43-.44.48-.46.95-1c.48-.46,1-.92,1.42-1.42a2.73,2.73,0,0,0,.38-.38c.08.12,0,.41,0,.56,0,.36,0,.75,0,1.13,0,.19,0,.38,0,.57l0,.59,0,.34a.92.92,0,0,0,0,.16c0,.07,0,.14,0,.2l0,.16c0,.31,0,.61,0,.92s0,.32,0,.47a1.24,1.24,0,0,1,0,.27v.58a1.34,1.34,0,0,0,0,.2c0,.13,0,.25,0,.38s-.05.35,0,.54,0,.44,0,.67l0,.4s0,.1,0,.15,0,.3,0,.44,0,.21,0,.32,0,.15,0,.22a3.45,3.45,0,0,0,0,.46,3.76,3.76,0,0,1,0,.75,1,1,0,0,0,0,.17c0,.13,0,.25,0,.39l0,.23a1.93,1.93,0,0,1,0,.24c0,.11,0,.22,0,.33s.06.69,0,.69a6.82,6.82,0,0,1-.67-.66l-2-2c-.1-.11-.19-.23-.29-.33l-.28-.26a1.15,1.15,0,0,0-.14-.17l-1.89-1.86c-.11-.11-.92-.92-.93-1a.11.11,0,0,0,0,0c.06-.15.32-.33.45-.45s.24-.28.37-.41l.36-.36.14-.11.3-.31Z"/><path class="cls-7" d="M349.37,30.83c.05,0,.11,0,.15-.1a1.3,1.3,0,0,0,.1-.15,2.45,2.45,0,0,1,.29-.35l.12-.11a.64.64,0,0,1,.28,0,4.7,4.7,0,0,0,.54,0,.85.85,0,0,0,.23,0h.37a3.12,3.12,0,0,0,.44.05c.14,0,.25-.05.38,0l.13,0a1.13,1.13,0,0,0,.49,0v0h0s0,0,0,0v0a5.9,5.9,0,0,1-.57.55l-1.05,1-.25.22c-.31.33-.6.67-.92,1l-.35.34-.19.17-.22.25c-.19.21-.4.41-.61.6s-.19.23-.29.35l-.65.63-1.1,1.09a4,4,0,0,1-.36.35v0h0v0h0c0-.05,0-.1,0-.15s0-.23,0-.34,0-.12,0-.18,0-.21,0-.3.11-.09.16-.14a1.73,1.73,0,0,1,.26-.28,2.83,2.83,0,0,1,.4-.17,1.77,1.77,0,0,0,.22-.16,1.61,1.61,0,0,0,.51-.39l.11-.21c0-.07.09-.13.13-.19a2.56,2.56,0,0,0,.05-.27,1.26,1.26,0,0,0,.1-.38c0-.13,0-.25-.05-.38a.81.81,0,0,0-.2-.43,1,1,0,0,1-.12-.16s0,0,0-.06a.44.44,0,0,0,.08-.11,1.64,1.64,0,0,1,.4-.47c.08-.07.09-.16.16-.24s.19-.13.27-.23a1.83,1.83,0,0,1,.13-.16.69.69,0,0,1,.1-.19l.16-.13Z"/><path class="cls-7" d="M339.9,30.11a2.07,2.07,0,0,0,.5,0c.12,0,.25,0,.38,0h.7l.18,0c.13,0,.27-.08.39,0a1.08,1.08,0,0,1,.38.33L343,31c.11.12.22.27.34.39s.31.26.46.41.14.19.22.28l.15.12a.92.92,0,0,1,.23.29c-.05,0-.13.11-.16.15a1,1,0,0,0-.29.47l0,.22a1,1,0,0,0,0,.38l.06.26c0,.09.08.18.11.27a2,2,0,0,0,.14.3,1.43,1.43,0,0,0,.2.14c.06,0,.09.12.15.17l.19.08a2.2,2.2,0,0,0,.25.17,1.94,1.94,0,0,1,.34.21l.2.27c0,.07.15.12.19.21a.42.42,0,0,1,.05.2,1.27,1.27,0,0,0,0,.2,1.4,1.4,0,0,1,.06.5c-.13,0-.4-.33-.5-.42l-.61-.57c-.15-.16-.29-.32-.44-.47-.29-.31-.61-.59-.9-.89l-.46-.48-.2-.23L341.09,32c-.14-.16-.29-.31-.43-.46-.3-.31-.58-.61-.9-.91-.16-.14-.49-.34-.55-.55Z"/><path class="cls-7" d="M336.45,46.22c-.24.22-.43.48-.67.7l-1,1a3.12,3.12,0,0,0-.36.37h0s0,0,0-.08,0-.24,0-.36l0-1.08v-.86c0-.1,0-.2,0-.3,0-.26,0-.56,0-.85,0-.12,0-.24,0-.36s0-.35,0-.54,0-.21,0-.32v-.93c0-.1,0-.19,0-.28l0-.34c0-.26,0-.51,0-.76l0-.57c0-.41,0-.81,0-1.22l0-.59a3,3,0,0,0,0-.31c0-.42,0-.85,0-1.25,0-.08,0-.17,0-.26a3,3,0,0,0,0-.31c0-.12,0-.23,0-.36l0-.21c0-.19,0-.39,0-.59a1.66,1.66,0,0,1,.43.37l.84.83c.1.1.2.2.29.31a7.25,7.25,0,0,1,.62.62,1.43,1.43,0,0,0,.2.23c.14.13.29.25.42.39s.09.13.16.19c.32.31.67.6,1,.92l.94,1c.2.19,1.45,1.36,1.38,1.55a.36.36,0,0,0-.07.1,4.18,4.18,0,0,1-.72.74,2.31,2.31,0,0,0-.2.24l-.56.55-.77.77-.51.52-.13.14Z"/><path class="cls-7" d="M343.39,54a3.07,3.07,0,0,0-.69,0,.11.11,0,0,0,0,.1c0,.44,0,.88,0,1.31a3.51,3.51,0,0,1,0,.65.19.19,0,0,1-.07.12v0a2.57,2.57,0,0,1-.38-.08,2,2,0,0,0-.35,0l-.26,0-.51,0a.44.44,0,0,0-.23,0A10.55,10.55,0,0,1,339.7,56l-.5,0-.41-.07-.18,0-.26,0-.59-.1a1.45,1.45,0,0,1-.47-.09h0v0s0,0,0,0a3.55,3.55,0,0,1,.38-.4l.35-.34.54-.51.26-.25.22-.24c.45-.44.91-.86,1.35-1.3.27-.28.52-.57.8-.84s.77-.73,1.13-1.12l.33-.33a1.71,1.71,0,0,1,0,.6c0,.21,0,.42,0,.64a1.38,1.38,0,0,0,0,.41,1.87,1.87,0,0,0,.2.32.41.41,0,0,0,.12.17,1.63,1.63,0,0,0,.55.07c.23,0,.47,0,.72,0a1.46,1.46,0,0,1-.16.5c-.09.24-.19.49-.28.74a1,1,0,0,1-.14.3c-.05,0-.12,0-.18,0Z"/><path class="cls-7" d="M344.5,56.92a2,2,0,0,1-.47-.2c-.13,0-.26-.08-.38-.14h0v0h0s0,0,0,0a6.87,6.87,0,0,0,1.47,0c.05-.05.05-.26.05-.35,0-.52-.06-1.23.43-1.5a1.43,1.43,0,0,1,.22-.08c.13,0,.47,0,.45.23s-.05,0-.09.05c-.32,0-.38.21-.52.46a1.93,1.93,0,0,0-.09.81c0,.26,0,.51,0,.77h0s-.16,0-.2,0a1.75,1.75,0,0,0-.24,0Z"/><path class="cls-7" d="M346.34,57.26c-.06.06-.11.13-.17.2a2.27,2.27,0,0,0-.38.45h0l-.3-.33a2.57,2.57,0,0,0-.41-.26v0h0s0,0,.05,0l.18,0,.57,0a.3.3,0,0,0,0-.1l0-.24,0-.23a1.77,1.77,0,0,0,0-.23c0-.16,0-.34,0-.51l.06-.28a.74.74,0,0,1,.13-.33c.08-.09.19-.08.29-.12a.11.11,0,0,1,.08.07,1.14,1.14,0,0,1,0,.37c0,.28,0,.57,0,.85a.49.49,0,0,0,.08.18l.12.28s0,0,0,0A1.29,1.29,0,0,1,346.34,57.26Z"/><path class="cls-7" d="M347,56.81a.59.59,0,0,1-.14-.31,1,1,0,0,0,.25,0l.55,0v0a.42.42,0,0,0-.18.08l-.45.2S347,56.82,347,56.81Z"/><path class="cls-7" d="M341.33,43.39c0-.15,0-.3,0-.46l0-.5c0-.28,0-.55,0-.82l0-.49c0-.13,0-.25,0-.38l0-.37c0-.21.06-.39.06-.59s0-.23,0-.34a1.27,1.27,0,0,1,0-.2c0-.24,0-.47,0-.72a2.15,2.15,0,0,1,0-.57,2.2,2.2,0,0,1,.64-.72h0a1.48,1.48,0,0,1,0,.42,3.93,3.93,0,0,0,0,.49l0,.33v.62c0,.09,0,.19,0,.28s0,.22,0,.32c0,.29,0,.62,0,.92s0,.66,0,1l0,.36v.74c0,.11,0,.22,0,.34s0,.38,0,.57a3.75,3.75,0,0,1,0,.83c0,.06-.1.1-.13.15l-.16.22-.16.15c-.05.11-.11.21-.16.31h0v0h0c0-.31,0-.64,0-1a4.93,4.93,0,0,1,0-.55C341.36,43.63,341.33,43.52,341.33,43.39Z"/><path class="cls-7" d="M341.64,45.42a.78.78,0,0,1,.3-.39,2.61,2.61,0,0,1,.25-.23,2.29,2.29,0,0,1,1.6-.16l.29.08A2.53,2.53,0,0,1,345,45a3.56,3.56,0,0,1,.5.39l.13.08c.08.06.16.19.27.19s.25-.2.36-.28a2.75,2.75,0,0,1,.4-.26,6.21,6.21,0,0,1,1.19-.49l.46-.1a2,2,0,0,0,.26,0H349a1.4,1.4,0,0,1,.61.26l.23.25a.84.84,0,0,1,.27.45h0s-.13,0-.16,0h-1a1,1,0,0,0-.39,0c-.12,0-.28-.07-.38,0l-.11,0a1.05,1.05,0,0,0-.4,0,.45.45,0,0,0-.16,0,1.45,1.45,0,0,0-.42,0l-.15,0h-.15a.35.35,0,0,0-.23.07s0,.09,0,.12a.52.52,0,0,1-.51.54.49.49,0,0,1-.48-.39c0-.08,0-.18,0-.24a.1.1,0,0,0-.1,0l-.34,0-.08,0c-.27,0-.51,0-.78,0a.55.55,0,0,0-.23,0l-.59,0a.73.73,0,0,0-.3,0l-.86,0a.9.9,0,0,0-.33,0,.61.61,0,0,1-.24,0A.35.35,0,0,1,341.64,45.42Z"/><path class="cls-7" d="M350.54,38.93c0-.15,0-.31-.05-.46s0-.16,0-.24,0-.18,0-.18v0h0c0,.32,0,.67,0,1,0,.14-.06.23-.07.35v.19c0,.06,0,.12,0,.18a.11.11,0,0,1-.15-.08,1.55,1.55,0,0,1,0-.31l0-.21c0-.39,0-.8,0-1.18,0-.06,0-.13,0-.2a.29.29,0,0,1,0-.09h-.07c0,.28,0,.53-.06.8l0,.15h-.05a2.29,2.29,0,0,1-.06-.75,1.21,1.21,0,0,0,0-.39.65.65,0,0,0,0,.29c0,.13,0,.29,0,.42a3.55,3.55,0,0,1,0,.46c-.08.94,0,1.86-.05,2.81,0,.19,0,.38,0,.57s0,.34,0,.51,0,.49,0,.74,0,.49,0,.73c0,0,0,.12.05.12h0a1.72,1.72,0,0,0,0-.46c0-.26,0-.52,0-.79a1.58,1.58,0,0,1,0-.53,0,0,0,0,1,.06,0c.06,0,.08.12.09.17a3.14,3.14,0,0,1,0,.61v.49a4.82,4.82,0,0,0,0,.54.81.81,0,0,0,0,.27s0,.17.1.17c0-.27,0-.57,0-.85s0-.26,0-.39,0-.26,0-.39,0-.18,0-.27,0-.23-.05-.34a3.37,3.37,0,0,1,0-.56.92.92,0,0,1,0-.29s0,0,0-.08h0a.25.25,0,0,1,.1.18,3.53,3.53,0,0,1,0,.65,1.66,1.66,0,0,0,0,.22c0,.18.05.37.05.55s0,.16,0,.23c0,.33,0,.63,0,1a5.68,5.68,0,0,0,.05.72s0,.08,0,.13h.07a1.54,1.54,0,0,0,.05-.49,3.88,3.88,0,0,0,0-.59c0-.13,0-.25-.05-.38s0-.25.05-.39,0-.39,0-.59l0-.64v-.49a1.23,1.23,0,0,0,0-.19c0-.11,0-.19,0-.3s0-.33,0-.5,0-.52,0-.79S350.54,39.2,350.54,38.93ZM350,41.45s-.11.15-.11.06a.53.53,0,0,1,0-.18c0-.15,0-.32,0-.47v-.63a1,1,0,0,1,.05-.47.17.17,0,0,1,.1.12,2.25,2.25,0,0,1,0,.58A3.26,3.26,0,0,1,350,41.45Zm0-2.39h0c-.13,0-.15-.12-.08-.22S350.06,39.06,350,39.06Zm.25,2h0a.91.91,0,0,1,0-.41,1,1,0,0,1,.06-.55c.05,0,.09,0,.11.07S350.39,41.07,350.25,41.07Z"/><path class="cls-7" d="M349.51,40.67l0-.29c0-.41,0-.83,0-1.23,0-.12,0-.25,0-.37,0-.32,0-.62,0-.92a2.33,2.33,0,0,1-.05-.28,1.29,1.29,0,0,1,0-.34s0-.15,0-.15a.74.74,0,0,0-.26,0,3.11,3.11,0,0,0-.33,0c-.12,0-.27,0-.4.06a5.94,5.94,0,0,0-1.7.47,1.5,1.5,0,0,0-.36.26.5.5,0,0,0-.09.32,6.33,6.33,0,0,0-.06.89l0,.46c0,.22,0,.44,0,.66s0,.18,0,.27,0,.43,0,.63,0,.64,0,.94,0,.59,0,.89c0,.09,0,.17,0,.25s0,.1,0,.15,0,.27,0,.42a3,3,0,0,0,.14,1.24s.06.09.06,0a5.24,5.24,0,0,0,.51-.3c.15-.08.32-.13.47-.21a.8.8,0,0,1,.51-.16.86.86,0,0,1,.36-.08l.12,0,.09,0a1.63,1.63,0,0,1,.76,0l.26.07a4.17,4.17,0,0,0,0-.79l0-.42c0-.18,0-.36,0-.52l0-.27c0-.2,0-.4,0-.6l0-.36C349.51,41.13,349.52,40.91,349.51,40.67Zm-3,.62a4.1,4.1,0,0,1,1.38-.74,1.3,1.3,0,0,1,.51-.18.69.69,0,0,1,.28-.11v0c.09,0,.17.06.17.17a.22.22,0,0,1-.12.21,1.56,1.56,0,0,1-.47.17l-.57.19c-.13,0-.25.07-.37.12a3.57,3.57,0,0,0-.65.32.68.68,0,0,1-.24.12l-.06,0C346.26,41.44,346.43,41.33,346.48,41.29Zm2.28,1.33a1.41,1.41,0,0,1-.47.11l-.42.11a4.36,4.36,0,0,0-1.31.56c-.05,0-.19.16-.24.06s.07-.13.11-.17a4.1,4.1,0,0,1,.5-.35,3.5,3.5,0,0,1,.61-.31l.2-.11c.27-.11.55-.17.82-.27a.57.57,0,0,1,.22,0C348.91,42.36,348.87,42.55,348.76,42.62Zm0-4a.65.65,0,0,1-.23.09l-.55.16a5,5,0,0,0-.76.3l-.5.29s-.25.13-.25.07h0c0-.17.22-.29.36-.37L347,39a4.51,4.51,0,0,1,.52-.29c.19-.09.39-.13.58-.2l.2-.09.27-.09a.67.67,0,0,1,.2,0C348.93,38.41,348.87,38.56,348.79,38.62Z"/><path class="cls-7" d="M345.75,38.49a1.32,1.32,0,0,0-.12-.67,2,2,0,0,0-1-.62l-.3-.1L344,37a2.52,2.52,0,0,0-.56-.09h-.78c-.08,0-.21,0-.26.1a1.56,1.56,0,0,0,0,.49c0,.44,0,.88,0,1.34v.8c0,.22,0,.45-.05.67s.06.3.06.47c0,.33,0,.69,0,1,0,.14,0,.29,0,.43s0,.56,0,.85l0,.42c0,.14,0,.25,0,.38s0,.29,0,.44h.18a.45.45,0,0,1,.16,0,.47.47,0,0,1,.17,0l.11,0a1.86,1.86,0,0,1,.74,0,5.41,5.41,0,0,1,.58.07,2.63,2.63,0,0,1,.78.3c.08,0,.48.35.51.35v0a1.24,1.24,0,0,0,.13-.55c0-.24,0-.49,0-.75s0-.77,0-1.15c0-.16,0-.33,0-.49,0-.47,0-.93,0-1.39A18.11,18.11,0,0,0,345.75,38.49Zm-.59,5a8.39,8.39,0,0,0-.88-.33l-.32-.07-.49-.1c-.19,0-.38,0-.56-.08l-.06,0c-.14-.08-.15-.37.07-.37h0a1.21,1.21,0,0,1,.34.06l.36.06.29.11a5.93,5.93,0,0,1,.83.32l.2.07a1.59,1.59,0,0,1,.49.37s.11.08.11.15S345.27,43.51,345.16,43.45Zm.39-1.79,0,0h0c-.11,0-.57-.36-.71-.42l-.51-.21a2.72,2.72,0,0,0-.7-.22l-.3,0c-.13,0-.34,0-.44-.06a.22.22,0,0,1,.12-.36h0a4.59,4.59,0,0,1,1.93.71,2.17,2.17,0,0,1,.65.5S345.58,41.67,345.55,41.66Zm.07-2s-.08,0-.12,0-.17-.11-.25-.15l-.29-.17a8.93,8.93,0,0,0-1.63-.55,1.93,1.93,0,0,1-.5-.13.18.18,0,0,1,0-.3,2.21,2.21,0,0,1,.64.14l.19,0a3.17,3.17,0,0,1,.4.14l.35.12a.65.65,0,0,0,.16.09l.48.23C345.13,39.16,345.68,39.5,345.62,39.62Z"/><path class="cls-18" d="M344.74,24.12l-.75.09a6.62,6.62,0,0,1-.66.08l-1.52.29a11.85,11.85,0,0,0-2.05.72,20.32,20.32,0,0,0-3.49,1.82,13.06,13.06,0,0,0-2.1,1.67l.9.07c.72,0,1.47,0,2.19,0l1.33.07a1.84,1.84,0,0,1,.67,0c.6,0,1.18,0,1.76,0a2.72,2.72,0,0,1,1.1,0h2.93l3.29.07,6.07-.08a1.69,1.69,0,0,1,.55,0L356,29l.55,0c.34,0,.72,0,1.09,0h.39c.25,0-.19-.35-.27-.44a4.47,4.47,0,0,0-.84-.68l-.54-.43-1.11-.74a16.88,16.88,0,0,0-7.42-2.51l-1.26,0Z"/><path class="cls-18" d="M333.19,29.69l-.87.89c-.53.7-1.05,1.4-1.57,2.11a19.2,19.2,0,0,0-2.24,5.93,8.66,8.66,0,0,0-.11,1.05,22.23,22.23,0,0,0,.07,5.53c.08.29.15.58.23.87a9.64,9.64,0,0,0,.31,1.36l.45,1.11a10.62,10.62,0,0,0,.71,1.53,20.12,20.12,0,0,0,2.18,3.39c.13.15.44.59.66.59v0a4.93,4.93,0,0,0,0-1.72v-2c0-.61,0-1.25,0-1.88.06-1.35,0-2.75,0-4.11,0-1.16.08-2.34.08-3.53s-.07-2.32,0-3.4l0-.36c0-.34,0-.68,0-1l.06-1.41c0-1,0-2-.06-3.06C333.13,30.77,333.22,30.08,333.19,29.69Z"/><path class="cls-18" d="M359,29.8c-.06.69.06,1.76.05,2.49,0,1.56,0,3.12,0,4.74,0,2.65,0,5,0,7.6,0,1.43-.08,2.85,0,4.31,0,.58,0,1.17,0,1.76a16,16,0,0,1-.1,3.25c0,.06-.16.52-.05.52.37,0,2.07-2.45,2.31-2.84l.51-.94c.1-.21.19-.42.29-.64a11.9,11.9,0,0,0,.92-1.94,20.85,20.85,0,0,0,.94-4.25,12.13,12.13,0,0,0,.06-1.49l0-.82a17.26,17.26,0,0,0-.57-4.32,18.72,18.72,0,0,0-1.6-3.7c-.23-.41-.51-.78-.76-1.17S359.24,29.64,359,29.8Z"/><path class="cls-18" d="M356.67,56.34c-1,.75-3.1.83-4.42,1l-1,.13c-1.65.08-3.83.24-4.43,1.94-.06.18-.05.22-.12.4s.74,0,1.09,0a1,1,0,0,1,.4,0l.23,0a1.65,1.65,0,0,1,.74-.11,1.29,1.29,0,0,1,.59-.09,3,3,0,0,1,1-.19l1.4-.48a15.32,15.32,0,0,0,3.88-2A2.61,2.61,0,0,0,356.67,56.34Z"/><path class="cls-18" d="M336,56.67c.29.36.71.44,1.08.69.21.15.51.31.72.46a16.72,16.72,0,0,0,2.23,1,18.88,18.88,0,0,0,2.75.76c.33.07,2.56.47,2.65.26s-.6-1.17-.85-1.38a4.49,4.49,0,0,0-.78-.47,3.48,3.48,0,0,0-.82-.29c-.37-.1-.72-.22-1.11-.29s-.74-.06-1.13-.1l-1-.16c-.44-.06-.89-.06-1.33-.11C337.61,56.91,336.86,56.72,336,56.67Z"/><path class="cls-17" d="M388.91,28.88h-1.7v8.64a2.53,2.53,0,0,0,.25,1.37,1.08,1.08,0,0,0,1,.36v.32h-4v-.32a1.1,1.1,0,0,0,1-.41,2.6,2.6,0,0,0,.27-1.38V28.88h-1.63a3,3,0,0,0-1.7.37,1.59,1.59,0,0,0-.6,1.24h-.33V27.91h.33a2.52,2.52,0,0,0,1.69.42h5.89a2.83,2.83,0,0,0,1.78-.42h.36v2.58h-.22a1.92,1.92,0,0,0-.75-1.27A3.12,3.12,0,0,0,388.91,28.88Z"/><path class="cls-17" d="M401.77,37.46V34.2h-6.13v3.26a2.45,2.45,0,0,0,.29,1.39,1.15,1.15,0,0,0,1,.4v.32h-4.07v-.32a1.12,1.12,0,0,0,1-.4,2.62,2.62,0,0,0,.27-1.39v-7a2.48,2.48,0,0,0-.28-1.41,1.13,1.13,0,0,0-1-.38v-.33H397v.33a1.15,1.15,0,0,0-1,.4,2.55,2.55,0,0,0-.29,1.39v3.2h6.13v-3.2A2.59,2.59,0,0,0,401.5,29a1.1,1.1,0,0,0-1-.38v-.33h4v.33a1.16,1.16,0,0,0-1,.39,2.6,2.6,0,0,0-.28,1.4v7a2.57,2.57,0,0,0,.28,1.4,1.16,1.16,0,0,0,1,.39v.32h-4v-.32a1.11,1.11,0,0,0,1-.39A2.73,2.73,0,0,0,401.77,37.46Z"/><path class="cls-17" d="M413.31,32.59h.34v2.73h-.34a1.61,1.61,0,0,0-.44-.9,2.27,2.27,0,0,0-1.13-.18H409v4a.79.79,0,0,0,.19.6,1,1,0,0,0,.64.17h2a6,6,0,0,0,1.46-.12,1.42,1.42,0,0,0,.68-.42,4.47,4.47,0,0,0,.59-1h.34l-.52,2.09h-8.1v-.32a1.14,1.14,0,0,0,1-.39,2.67,2.67,0,0,0,.26-1.38v-7A2.63,2.63,0,0,0,407.2,29a1.18,1.18,0,0,0-1-.38v-.33h8.1v1.88h-.21a2,2,0,0,0-.49-1.07,2.52,2.52,0,0,0-1.4-.26H409v4.81h3.15a1.26,1.26,0,0,0,.87-.23A1.55,1.55,0,0,0,413.31,32.59Z"/><path class="cls-17" d="M429.32,37.22V30.45a2.57,2.57,0,0,0-.26-1.38,1.14,1.14,0,0,0-.93-.41v-.33h4v.33a1.12,1.12,0,0,0-1,.39,2.51,2.51,0,0,0-.28,1.4v7a2.62,2.62,0,0,0,.27,1.39,1.12,1.12,0,0,0,1,.4v.32h-2.77V38a4.75,4.75,0,0,1-3.74,1.85,3.71,3.71,0,0,1-2.81-1.06,3.9,3.9,0,0,1-1-2.81V30.45a2.73,2.73,0,0,0-.26-1.4,1.14,1.14,0,0,0-1-.39v-.33h4.06v.33a1.17,1.17,0,0,0-1,.38,2.57,2.57,0,0,0-.27,1.39v5.69a3,3,0,0,0,.75,2.17,2.79,2.79,0,0,0,2.11.8A3.67,3.67,0,0,0,429.32,37.22Z"/><path class="cls-17" d="M442.19,28.66v-.33h3.39v.33a1.42,1.42,0,0,0-1.13.38,2.27,2.27,0,0,0-.32,1.39v9.14h-.34l-8-9.77v7.89a1.76,1.76,0,0,0,.33,1.2,1.53,1.53,0,0,0,1.14.36v.32h-3.41v-.32a1.22,1.22,0,0,0,1.1-.43,2.83,2.83,0,0,0,.29-1.5V30.74a2.38,2.38,0,0,0-.39-1.53,1.82,1.82,0,0,0-1.28-.55v-.33h2.89l7.06,8.75V30.51a2.69,2.69,0,0,0-.29-1.45A1.26,1.26,0,0,0,442.19,28.66Z"/><path class="cls-17" d="M451.23,28.33v.33a1.16,1.16,0,0,0-1,.39,2.51,2.51,0,0,0-.28,1.4v7a2.49,2.49,0,0,0,.28,1.4,1.16,1.16,0,0,0,1,.39v.32h-4.05v-.32a1.15,1.15,0,0,0,1-.39,2.57,2.57,0,0,0,.27-1.4v-7a2.59,2.59,0,0,0-.27-1.41,1.13,1.13,0,0,0-1-.38v-.33Z"/><path class="cls-17" d="M463.62,28.33v.35c-.82,0-1.51.73-2,2.18l-3.32,8.87h-.32l-3.48-9.13a5.07,5.07,0,0,0-.84-1.59,1.51,1.51,0,0,0-1-.35v-.33h4.08v.33c-.65,0-1,.25-1,.75a1.62,1.62,0,0,0,.12.57l2.75,7.26,2.62-7a2.57,2.57,0,0,0,.16-.78c0-.53-.34-.79-1-.79v-.33Z"/><path class="cls-17" d="M471.86,32.59h.33v2.73h-.33a1.61,1.61,0,0,0-.44-.9,2.3,2.3,0,0,0-1.13-.18H467.5v4a.83.83,0,0,0,.18.6,1,1,0,0,0,.64.17h2a5.86,5.86,0,0,0,1.45-.12,1.38,1.38,0,0,0,.68-.42,4.1,4.1,0,0,0,.6-1h.33l-.52,2.09h-8.09v-.32a1.13,1.13,0,0,0,1-.39,2.67,2.67,0,0,0,.26-1.38v-7a2.63,2.63,0,0,0-.27-1.41,1.15,1.15,0,0,0-1-.38v-.33h8.09v1.88h-.21a1.9,1.9,0,0,0-.49-1.07,2.47,2.47,0,0,0-1.39-.26H467.5v4.81h3.14a1.29,1.29,0,0,0,.88-.23A1.63,1.63,0,0,0,471.86,32.59Z"/><path class="cls-17" d="M478.49,34.37h-.91v3.09a2.47,2.47,0,0,0,.28,1.39,1.13,1.13,0,0,0,1,.4v.32h-4v-.32a1.12,1.12,0,0,0,1-.4,2.69,2.69,0,0,0,.26-1.39v-7a2.51,2.51,0,0,0-.26-1.37,1.13,1.13,0,0,0-1-.38v-.33h4.61a4.2,4.2,0,0,1,2.72.83,2.6,2.6,0,0,1,1,2.11A2.76,2.76,0,0,1,480.85,34a4.57,4.57,0,0,1,1,.9,14.43,14.43,0,0,1,1.27,1.9,9.57,9.57,0,0,0,1.38,1.92,1.72,1.72,0,0,0,1,.5v.32h-2.3a22.4,22.4,0,0,1-1.71-2.5,9.43,9.43,0,0,0-1.69-2.22A2.1,2.1,0,0,0,478.49,34.37Zm.27-5.61h-1.18V33.9H479a2.63,2.63,0,0,0,1.94-.71,2.54,2.54,0,0,0,.7-1.88,2.36,2.36,0,0,0-.78-1.84A3,3,0,0,0,478.76,28.76Z"/><path class="cls-17" d="M492.19,28.17h.31V30.8h-.33a2.59,2.59,0,0,0-.79-1.7,2.45,2.45,0,0,0-1.71-.62,2.21,2.21,0,0,0-1.46.47,1.5,1.5,0,0,0-.56,1.22,2.08,2.08,0,0,0,.46,1.3,7.82,7.82,0,0,0,2,1.5,9,9,0,0,1,2.39,1.86,2.91,2.91,0,0,1,.62,1.82,3.21,3.21,0,0,1-3.2,3.2,6.12,6.12,0,0,1-1.95-.42,3.11,3.11,0,0,0-.62-.17c-.19,0-.33.14-.43.43h-.34v-3h.34a2.61,2.61,0,0,0,.81,2,2.66,2.66,0,0,0,1.89.76,2.36,2.36,0,0,0,1.64-.55,1.85,1.85,0,0,0,.62-1.45,2,2,0,0,0-.51-1.31,9.14,9.14,0,0,0-2.12-1.61,9.13,9.13,0,0,1-1.75-1.28,2.9,2.9,0,0,1-.65-1,3.45,3.45,0,0,1-.21-1.23,2.79,2.79,0,0,1,.84-2.1,3.09,3.09,0,0,1,2.21-.81,5,5,0,0,1,1.63.3,2.21,2.21,0,0,0,.58.13c.09,0,.15,0,.18-.05A1,1,0,0,0,492.19,28.17Z"/><path class="cls-17" d="M499,28.33v.33a1.16,1.16,0,0,0-1,.39,2.6,2.6,0,0,0-.28,1.4v7a2.57,2.57,0,0,0,.28,1.4,1.16,1.16,0,0,0,1,.39v.32H495v-.32a1.14,1.14,0,0,0,1-.39,2.57,2.57,0,0,0,.27-1.4v-7A2.59,2.59,0,0,0,496,29a1.13,1.13,0,0,0-1-.38v-.33Z"/><path class="cls-17" d="M508,28.88h-1.71v8.64a2.63,2.63,0,0,0,.25,1.37,1.11,1.11,0,0,0,1,.36v.32h-4v-.32a1.12,1.12,0,0,0,1-.41,2.6,2.6,0,0,0,.27-1.38V28.88h-1.63a3,3,0,0,0-1.7.37,1.54,1.54,0,0,0-.6,1.24h-.34V27.91h.34a2.52,2.52,0,0,0,1.69.42h5.89a2.85,2.85,0,0,0,1.78-.42h.36v2.58h-.22a1.93,1.93,0,0,0-.76-1.27A3.05,3.05,0,0,0,508,28.88Z"/><path class="cls-17" d="M520,29.93l-2.53,4v3.54a2.7,2.7,0,0,0,.26,1.41,1.12,1.12,0,0,0,1,.38v.32h-4.11v-.32a1.28,1.28,0,0,0,1.11-.4,2.62,2.62,0,0,0,.27-1.39V33.92l-2.39-3.73a5.42,5.42,0,0,0-1-1.22,1.8,1.8,0,0,0-1-.31v-.33H516v.33c-.77,0-1.15.17-1.15.52a1.14,1.14,0,0,0,.23.6l2.22,3.4,1.78-2.82a2.16,2.16,0,0,0,.39-1.08c0-.41-.25-.62-.74-.62v-.33h3.08v.33a1.82,1.82,0,0,0-1,.27A3.73,3.73,0,0,0,520,29.93Z"/><path class="cls-17" d="M385.5,48.22a1.83,1.83,0,0,1,1.38.67,2.21,2.21,0,0,1,.59,1.55,5.19,5.19,0,0,1-1.17,3.12,3.45,3.45,0,0,1-2.8,1.56,1.88,1.88,0,0,1-1.47-.65,2.36,2.36,0,0,1-.57-1.64,4.68,4.68,0,0,1,1.26-3.17A3.65,3.65,0,0,1,385.5,48.22Zm-1.57,6.32a2,2,0,0,0,1.67-1.18,5.33,5.33,0,0,0,.72-2.82,2,2,0,0,0-.38-1.24,1.16,1.16,0,0,0-1-.5A2,2,0,0,0,383.33,50a5.16,5.16,0,0,0-.72,2.76,2.21,2.21,0,0,0,.35,1.31A1.14,1.14,0,0,0,383.93,54.54Z"/><path class="cls-17" d="M392.31,48.44l-.06.53h-1.37l-1.09,5.73a14,14,0,0,1-1,3.38,3.92,3.92,0,0,1-1.46,1.63,3.79,3.79,0,0,1-2,.58,4.2,4.2,0,0,1-2.29-.53l.3-1.37h.34a1.64,1.64,0,0,0,1.71,1.51,2.63,2.63,0,0,0,1.85-.76,7.19,7.19,0,0,0,1.32-3.54L389.81,49h-1.38l.06-.53h1.38l.49-2.38a4.43,4.43,0,0,1,1.25-2.62,3.14,3.14,0,0,1,2.07-.72A4.47,4.47,0,0,1,395,43l.05-.24h.4l-.38,1.78h-.39c-.08-.94-.5-1.4-1.24-1.4-.95,0-1.59.79-1.92,2.39l-.61,2.93Z"/><path class="cls-17" d="M405.85,47.91h.33v2.73h-.33a1.61,1.61,0,0,0-.44-.9,2.27,2.27,0,0,0-1.13-.18h-2.79v4a.83.83,0,0,0,.18.6,1,1,0,0,0,.64.17h2a5.8,5.8,0,0,0,1.45-.12,1.38,1.38,0,0,0,.68-.42,4.1,4.1,0,0,0,.6-1h.33l-.51,2.1h-8.1v-.33a1.13,1.13,0,0,0,1-.39A2.57,2.57,0,0,0,400,52.8v-7a2.63,2.63,0,0,0-.27-1.41,1.14,1.14,0,0,0-1-.38v-.33h8.1v1.88h-.21a1.9,1.9,0,0,0-.5-1.07,2.47,2.47,0,0,0-1.39-.26h-3.24V49h3.14a1.29,1.29,0,0,0,.88-.23A1.63,1.63,0,0,0,405.85,47.91Z"/><path class="cls-17" d="M408.91,54.9v-.33a1.12,1.12,0,0,0,1-.4,2.58,2.58,0,0,0,.28-1.39v-7a2.6,2.6,0,0,0-.28-1.4,1.14,1.14,0,0,0-1-.39v-.33h5.2a6.43,6.43,0,0,1,4.61,1.64,5.5,5.5,0,0,1,1.73,4.17,5.06,5.06,0,0,1-1.64,4,6.58,6.58,0,0,1-4.56,1.48Zm4.9-10.82h-2.14v8.3A3.26,3.26,0,0,0,412,54a1.26,1.26,0,0,0,1.15.44h1.16a4.15,4.15,0,0,0,3.26-1.33,5.31,5.31,0,0,0,1.19-3.65,5.72,5.72,0,0,0-1.3-3.92A4.55,4.55,0,0,0,413.81,44.08Z"/><path class="cls-17" d="M426,43.65V44a1.16,1.16,0,0,0-1,.39,2.62,2.62,0,0,0-.27,1.4v7a2.59,2.59,0,0,0,.27,1.4,1.16,1.16,0,0,0,1,.39v.33h-4v-.33a1.15,1.15,0,0,0,1-.38,2.63,2.63,0,0,0,.27-1.41v-7a2.7,2.7,0,0,0-.26-1.41,1.16,1.16,0,0,0-1-.38v-.33Z"/><path class="cls-17" d="M436,44v-.33h3.39V44a1.42,1.42,0,0,0-1.13.38,2.28,2.28,0,0,0-.31,1.39V54.9h-.35l-8-9.78V53a1.69,1.69,0,0,0,.34,1.19,1.49,1.49,0,0,0,1.13.36v.33h-3.41v-.33a1.22,1.22,0,0,0,1.1-.43,2.83,2.83,0,0,0,.29-1.5V46.06a2.38,2.38,0,0,0-.39-1.53,1.82,1.82,0,0,0-1.28-.55v-.33h2.89l7.06,8.75V45.83a2.63,2.63,0,0,0-.29-1.44A1.24,1.24,0,0,0,436,44Z"/><path class="cls-17" d="M445.79,54.9H440.6v-.33a1.14,1.14,0,0,0,1-.39,2.49,2.49,0,0,0,.28-1.4v-7a2.75,2.75,0,0,0-.26-1.41,1.18,1.18,0,0,0-1-.38v-.33h4.25a4.81,4.81,0,0,1,2.86.75,2.35,2.35,0,0,1,1.05,2c0,1.21-.75,2.06-2.26,2.55V49a3.76,3.76,0,0,1,2.09,1.13,2.9,2.9,0,0,1,.81,2,2.39,2.39,0,0,1-1,2A4.24,4.24,0,0,1,445.79,54.9Zm-2.43-10.82v4.77h1.17a2.8,2.8,0,0,0,1.94-.64,2.18,2.18,0,0,0,.72-1.72,2.25,2.25,0,0,0-.71-1.77,2.88,2.88,0,0,0-2-.64Zm1.07,5.2h-1.07v3.3a3.35,3.35,0,0,0,.24,1.49,1,1,0,0,0,.93.39h.93a2.12,2.12,0,0,0,1.6-.65,2.76,2.76,0,0,0-.27-3.77A3.49,3.49,0,0,0,444.43,49.28Z"/><path class="cls-17" d="M459.41,52.54V45.77a2.51,2.51,0,0,0-.26-1.37,1.1,1.1,0,0,0-.93-.42v-.33h4V44a1.13,1.13,0,0,0-1,.39,2.51,2.51,0,0,0-.28,1.4v7a2.6,2.6,0,0,0,.27,1.39,1.13,1.13,0,0,0,1,.4v.33h-2.77V53.32a4.75,4.75,0,0,1-3.74,1.85,3.71,3.71,0,0,1-2.81-1.06,3.9,3.9,0,0,1-1-2.81V45.77a2.63,2.63,0,0,0-.26-1.4,1.14,1.14,0,0,0-1-.39v-.33h4.06V44a1.18,1.18,0,0,0-1,.38,2.57,2.57,0,0,0-.27,1.39v5.7a3,3,0,0,0,.76,2.17,2.78,2.78,0,0,0,2.1.79A3.67,3.67,0,0,0,459.41,52.54Z"/><path class="cls-17" d="M467.52,49.69h-.91v3.09a2.53,2.53,0,0,0,.28,1.4,1.16,1.16,0,0,0,1,.39v.33h-4v-.33a1.14,1.14,0,0,0,1-.39,2.76,2.76,0,0,0,.26-1.4V45.73a2.51,2.51,0,0,0-.26-1.37,1.15,1.15,0,0,0-1-.38v-.33h4.61a4.19,4.19,0,0,1,2.72.83,2.62,2.62,0,0,1,1,2.12,2.77,2.77,0,0,1-2.32,2.76,4.24,4.24,0,0,1,1,.89,14.43,14.43,0,0,1,1.27,1.9,9.57,9.57,0,0,0,1.38,1.92,1.72,1.72,0,0,0,1,.5v.33h-2.3a22.7,22.7,0,0,1-1.71-2.51,9.43,9.43,0,0,0-1.69-2.22A2.1,2.1,0,0,0,467.52,49.69Zm.27-5.61h-1.18v5.14H468a2.59,2.59,0,0,0,1.94-.71,2.54,2.54,0,0,0,.7-1.88,2.36,2.36,0,0,0-.78-1.84A3,3,0,0,0,467.79,44.08Z"/><path class="cls-17" d="M485.73,50v.32a1.43,1.43,0,0,0-1.06.34,1.68,1.68,0,0,0-.33,1.18v3a9.68,9.68,0,0,1-1.47.2c-.72,0-1.27.08-1.67.08a7.09,7.09,0,0,1-4.85-1.53,5.13,5.13,0,0,1-1.74-4,6.53,6.53,0,0,1,.76-3.16,5.78,5.78,0,0,1,2.13-2.23,5.5,5.5,0,0,1,2.9-.83,6.9,6.9,0,0,1,2,.33,3.86,3.86,0,0,0,1.05.2.63.63,0,0,0,.64-.37h.35v3.31h-.32a3.24,3.24,0,0,0-1.25-2.21,3.89,3.89,0,0,0-2.47-.82,3.59,3.59,0,0,0-2.93,1.42,5.7,5.7,0,0,0-1.14,3.68,6.32,6.32,0,0,0,1.32,4.1A4.1,4.1,0,0,0,481,54.64q1.89,0,1.89-1.2V52.22a2.84,2.84,0,0,0-.27-1.46,1.1,1.1,0,0,0-1-.41h-.43V50Z"/><path class="cls-17" d="M495.54,52.78V49.52h-6.12v3.26a2.53,2.53,0,0,0,.28,1.4,1.18,1.18,0,0,0,1,.39v.33h-4.06v-.33a1.11,1.11,0,0,0,1-.4,2.6,2.6,0,0,0,.27-1.39v-7a2.59,2.59,0,0,0-.27-1.41,1.18,1.18,0,0,0-1-.38v-.33h4.06V44a1.14,1.14,0,0,0-1,.41,2.5,2.5,0,0,0-.28,1.38V49h6.12v-3.2a2.7,2.7,0,0,0-.26-1.41,1.15,1.15,0,0,0-1-.38v-.33h4V44a1.16,1.16,0,0,0-1,.39,2.6,2.6,0,0,0-.28,1.4v7a2.57,2.57,0,0,0,.28,1.4,1.16,1.16,0,0,0,1,.39v.33h-4v-.33a1.13,1.13,0,0,0,1-.39A2.84,2.84,0,0,0,495.54,52.78Z"/></g></g></g></svg>