<svg xmlns="http://www.w3.org/2000/svg" viewBox="0 0 136.06 59.75"><defs><style>.cls-1{fill:#908270;}.cls-2{fill:#fff;}</style></defs><g id="Layer_2" data-name="Layer 2"><g id="HuGe_SMALL" data-name="HuGe SMALL"><path class="cls-1" d="M128.49,0H7.57C2.29,0,0,2.4,0,7.6V52.14c0,5.21,2.29,7.61,7.57,7.61H128.49c5.28,0,7.57-2.4,7.57-7.61V7.6C136.06,2.4,133.77,0,128.49,0Z"/><path class="cls-2" d="M47.67,41.31a6.88,6.88,0,0,0,5.45,6.93,7.33,7.33,0,0,0,2,.12,9.2,9.2,0,0,0,4.39-1.51l0,2.39a9.83,9.83,0,0,1-5.19,1.33h0a9,9,0,0,1-9.07-9.23,9,9,0,0,1,9.07-9.24h0a9.72,9.72,0,0,1,5.19,1.34l0,2.38a9.3,9.3,0,0,0-4.39-1.57,7.76,7.76,0,0,0-2,.13A6.87,6.87,0,0,0,47.67,41.31Z"/><path class="cls-2" d="M45.3,50.32H42.15l-5.7-7H32.68v7H30.37V32.4h5.2a16,16,0,0,1,2.7.17,5,5,0,0,1,2.07.8,4,4,0,0,1,1.41,1.52,5.92,5.92,0,0,1-.22,5.75,4.9,4.9,0,0,1-2.59,2l6.36,7.63h0M40,37.52a3.6,3.6,0,0,0-.33-1.46,2.2,2.2,0,0,0-.91-1,3.66,3.66,0,0,0-1.27-.44,10.51,10.51,0,0,0-1.7-.12H32.68v6.51h2.75a8.93,8.93,0,0,0,2-.18,3.42,3.42,0,0,0,1.46-.7,3.15,3.15,0,0,0,.82-1.12A3.86,3.86,0,0,0,40,37.52Z"/><path class="cls-2" d="M25.71,32.4H22.46l-3.08,8.67c-.67,2-1.21,3.86-1.67,5.56h-.05c-.45-1.7-1-3.57-1.67-5.56L12.92,32.4H9.67L8.4,50.33h2.39l.48-7.69c.16-2.71.3-5.69.35-7.93h.05c.51,2.13,1.21,4.42,2.06,7l2.94,8.54h2l2.94-8.54c.85-2.55,1.54-4.84,2.05-7h.06c0,2.24.18,5.22.34,7.93l.48,7.69H27Z"/><polygon class="cls-2" points="69.09 54.39 67.71 54.39 67.71 5.35 69.09 5.35 69.09 54.34 69.09 54.39"/><path class="cls-2" d="M82.73,18.08H81.67V14.17h-4v3.91H76.62v-8h1.06v3.14h4V10.08h1.06Z"/><path class="cls-2" d="M90.44,18.08h-1v-.66a4.94,4.94,0,0,1-1,.62,2.45,2.45,0,0,1-1,.21A1.87,1.87,0,0,1,86,17.67,2.43,2.43,0,0,1,85.42,16v-3.9h1v3.41a6,6,0,0,0,0,.79,1.49,1.49,0,0,0,.18.55.83.83,0,0,0,.38.34,1.46,1.46,0,0,0,.66.11,2.27,2.27,0,0,0,.86-.2,4.19,4.19,0,0,0,.86-.52V12.08h1Z"/><path class="cls-2" d="M101.84,18.08h-1V14.66c0-.25,0-.5,0-.74a2,2,0,0,0-.15-.58.84.84,0,0,0-.35-.35,1.69,1.69,0,0,0-.67-.11,1.94,1.94,0,0,0-.85.21,5,5,0,0,0-.84.54,2.3,2.3,0,0,1,0,.28c0,.11,0,.22,0,.33v3.84H97V14.66a6.06,6.06,0,0,0,0-.75,1.39,1.39,0,0,0-.15-.57.79.79,0,0,0-.35-.35,1.46,1.46,0,0,0-.66-.11,1.78,1.78,0,0,0-.83.2,5,5,0,0,0-.83.52v4.48h-1v-6h1v.67a4.23,4.23,0,0,1,.94-.62,2.28,2.28,0,0,1,1-.22,1.89,1.89,0,0,1,1,.26,1.57,1.57,0,0,1,.64.71,5,5,0,0,1,1.12-.74,2.5,2.5,0,0,1,1.08-.23,1.75,1.75,0,0,1,1.46.6,2.65,2.65,0,0,1,.47,1.67Z"/><path class="cls-2" d="M109.1,18.08h-1v-.63l-.36.25a2.3,2.3,0,0,1-.44.26,3.91,3.91,0,0,1-.58.21,3.5,3.5,0,0,1-.77.08,1.91,1.91,0,0,1-1.37-.54,1.8,1.8,0,0,1-.56-1.36,1.94,1.94,0,0,1,.29-1.11,2,2,0,0,1,.83-.66,4.63,4.63,0,0,1,1.32-.33c.51-.05,1-.1,1.64-.12V14a1.22,1.22,0,0,0-.12-.58.81.81,0,0,0-.35-.36,1.28,1.28,0,0,0-.51-.17,3.74,3.74,0,0,0-1.51.06,6.49,6.49,0,0,0-1,.32h0v-1l.85-.18a7,7,0,0,1,1.11-.09,5.09,5.09,0,0,1,1.1.1,2.14,2.14,0,0,1,.81.36,1.55,1.55,0,0,1,.52.64,2.48,2.48,0,0,1,.17,1Zm-1-1.47V14.94L107,15a7,7,0,0,0-1,.15,1.75,1.75,0,0,0-.7.39,1,1,0,0,0-.26.72.93.93,0,0,0,.31.77,1.39,1.39,0,0,0,.94.26,2.37,2.37,0,0,0,1-.2A4.76,4.76,0,0,0,108.09,16.61Z"/><path class="cls-2" d="M116.73,18.08h-1V14.66a6.29,6.29,0,0,0,0-.77,1.74,1.74,0,0,0-.18-.57.79.79,0,0,0-.39-.33,1.49,1.49,0,0,0-.65-.11,2,2,0,0,0-.86.2,4.48,4.48,0,0,0-.86.52v4.48h-1v-6h1v.66a3.79,3.79,0,0,1,1-.61,2.48,2.48,0,0,1,1-.22,1.85,1.85,0,0,1,1.48.58,2.51,2.51,0,0,1,.51,1.69Z"/><path class="cls-2" d="M83.29,33.5a10.39,10.39,0,0,1-1.43.53,5.39,5.39,0,0,1-1.5.22A5.48,5.48,0,0,1,78.65,34a3.58,3.58,0,0,1-1.33-.77,3.42,3.42,0,0,1-.85-1.31,5.09,5.09,0,0,1-.3-1.83,4.06,4.06,0,0,1,1.12-3,4.16,4.16,0,0,1,3.07-1.11,6.2,6.2,0,0,1,1.4.16,7.8,7.8,0,0,1,1.53.56v1.26h-.1l-.48-.33a4.38,4.38,0,0,0-.62-.35,4.6,4.6,0,0,0-.84-.27,5,5,0,0,0-1.07-.11,2.74,2.74,0,0,0-2.12.86,3.35,3.35,0,0,0-.78,2.33,3.4,3.4,0,0,0,.81,2.42,3,3,0,0,0,2.23.86,5,5,0,0,0,1-.1,5.16,5.16,0,0,0,.9-.26V31H80.1v-1h3.19Z"/><path class="cls-2" d="M90.75,31.19H86.34a2.54,2.54,0,0,0,.16,1,2,2,0,0,0,.46.68,1.89,1.89,0,0,0,.66.39,2.84,2.84,0,0,0,.84.12,3.36,3.36,0,0,0,1.23-.24,3.22,3.22,0,0,0,.88-.49h.05v1.1a6.74,6.74,0,0,1-1,.36,4.15,4.15,0,0,1-1.12.15,3.22,3.22,0,0,1-2.33-.81,3.05,3.05,0,0,1-.84-2.3,3.3,3.3,0,0,1,.81-2.34,2.76,2.76,0,0,1,2.11-.86,2.42,2.42,0,0,1,1.88.71,2.86,2.86,0,0,1,.66,2Zm-1-.78a1.77,1.77,0,0,0-.4-1.25,1.53,1.53,0,0,0-1.19-.44,1.74,1.74,0,0,0-1.29.48,1.91,1.91,0,0,0-.54,1.21Z"/><path class="cls-2" d="M98,34.08h-1V30.66a4.75,4.75,0,0,0,0-.77,1.54,1.54,0,0,0-.17-.57.79.79,0,0,0-.39-.33,1.49,1.49,0,0,0-.65-.11,2,2,0,0,0-.86.2,4.48,4.48,0,0,0-.86.52v4.48h-1v-6h1v.66a3.92,3.92,0,0,1,1-.61,2.56,2.56,0,0,1,1-.22,1.85,1.85,0,0,1,1.48.58A2.51,2.51,0,0,1,98,30.18Z"/><path class="cls-2" d="M105.58,31.19h-4.41a2.53,2.53,0,0,0,.17,1,1.84,1.84,0,0,0,.45.68,2,2,0,0,0,.66.39,2.84,2.84,0,0,0,.84.12,3.36,3.36,0,0,0,1.23-.24,3.07,3.07,0,0,0,.88-.49h.06v1.1a6.86,6.86,0,0,1-1,.36,4,4,0,0,1-1.11.15,3.23,3.23,0,0,1-2.34-.81,3.09,3.09,0,0,1-.83-2.3,3.29,3.29,0,0,1,.8-2.34,2.78,2.78,0,0,1,2.12-.86,2.4,2.4,0,0,1,1.87.71,2.86,2.86,0,0,1,.66,2Zm-1-.78a1.87,1.87,0,0,0-.4-1.25,1.55,1.55,0,0,0-1.2-.44,1.72,1.72,0,0,0-1.28.48,2,2,0,0,0-.55,1.21Z"/><path class="cls-2" d="M110.89,34.05a5.25,5.25,0,0,1-.62.12,4.83,4.83,0,0,1-.6,0,1.85,1.85,0,0,1-1.4-.5,2.22,2.22,0,0,1-.48-1.59V28.92h-.69v-.84h.69V26.36h1v1.72h2.08v.84h-2.08v2.76c0,.32,0,.57,0,.75a1.16,1.16,0,0,0,.15.5.73.73,0,0,0,.32.31,1.47,1.47,0,0,0,.63.1,1.91,1.91,0,0,0,.52-.07,2.77,2.77,0,0,0,.38-.11h.06Z"/><path class="cls-2" d="M113.85,26h-1.14v1h1.14Zm-.06,2h-1v6h1Z"/><path class="cls-2" d="M120.89,33.71a7,7,0,0,1-1,.38,3.85,3.85,0,0,1-1,.13,3.5,3.5,0,0,1-1.19-.19,2.34,2.34,0,0,1-.93-.58,2.44,2.44,0,0,1-.61-1,3.84,3.84,0,0,1-.22-1.38,3.19,3.19,0,0,1,.81-2.31,2.85,2.85,0,0,1,2.14-.84,3.92,3.92,0,0,1,1,.14,5.75,5.75,0,0,1,.91.36v1.12h-.06a3.83,3.83,0,0,0-1-.55,2.62,2.62,0,0,0-1-.2,1.71,1.71,0,0,0-1.36.58,2.55,2.55,0,0,0-.5,1.7,2.52,2.52,0,0,0,.49,1.67,1.67,1.67,0,0,0,1.37.58,2.25,2.25,0,0,0,.62-.08,2.4,2.4,0,0,0,.57-.21,2.86,2.86,0,0,0,.42-.24,1.67,1.67,0,0,0,.3-.22h.06Z"/><path class="cls-2" d="M127.12,32.35a1.61,1.61,0,0,1-.68,1.34,3,3,0,0,1-1.85.53,4.24,4.24,0,0,1-1.22-.16,4.78,4.78,0,0,1-.94-.35V32.58h.06a3.88,3.88,0,0,0,1.06.58,3.27,3.27,0,0,0,1.11.22,2.12,2.12,0,0,0,1-.22.74.74,0,0,0,.38-.68.67.67,0,0,0-.21-.54,1.72,1.72,0,0,0-.78-.31l-.56-.11-.62-.14a2.09,2.09,0,0,1-1.12-.62,1.57,1.57,0,0,1-.32-1,1.66,1.66,0,0,1,.15-.7,1.69,1.69,0,0,1,.46-.58,2.08,2.08,0,0,1,.77-.4,3.35,3.35,0,0,1,1-.15,4.49,4.49,0,0,1,1.08.13,4.09,4.09,0,0,1,.92.32v1.08h-.06a3.39,3.39,0,0,0-.93-.49,3.26,3.26,0,0,0-1.08-.2,1.78,1.78,0,0,0-.93.22.75.75,0,0,0-.15,1.19,1.73,1.73,0,0,0,.73.31l.62.13.57.11a2.14,2.14,0,0,1,1.08.56A1.41,1.41,0,0,1,127.12,32.35Z"/><path class="cls-2" d="M82.63,46.87a5.3,5.3,0,0,1-.19,1.52,2.42,2.42,0,0,1-.62,1.08,2.49,2.49,0,0,1-1,.59,3.89,3.89,0,0,1-1.29.19,4,4,0,0,1-1.31-.2,2.57,2.57,0,0,1-.94-.58,2.62,2.62,0,0,1-.63-1.07,5.5,5.5,0,0,1-.19-1.53V42.08h1.07v4.84a4.56,4.56,0,0,0,.09,1,1.91,1.91,0,0,0,.29.69,1.52,1.52,0,0,0,.65.52,2.73,2.73,0,0,0,2,0,1.51,1.51,0,0,0,.65-.52,2,2,0,0,0,.29-.71,4.48,4.48,0,0,0,.09-1V42.08h1.06Z"/><path class="cls-2" d="M90.27,50.08h-1V46.66a4.75,4.75,0,0,0,0-.77,1.54,1.54,0,0,0-.17-.57.79.79,0,0,0-.39-.33,1.52,1.52,0,0,0-.65-.11,2,2,0,0,0-.86.2,4.48,4.48,0,0,0-.86.52v4.48h-1v-6h1v.66a3.92,3.92,0,0,1,1-.61,2.52,2.52,0,0,1,1-.22,1.85,1.85,0,0,1,1.48.58,2.51,2.51,0,0,1,.51,1.69Z"/><path class="cls-2" d="M94,42H92.81v1H94Zm-.06,2h-1v6h1Z"/><path class="cls-2" d="M99.66,50.05a5.25,5.25,0,0,1-.62.12,4.54,4.54,0,0,1-.6,0,1.83,1.83,0,0,1-1.39-.5,2.22,2.22,0,0,1-.48-1.59V44.92h-.69v-.84h.69V42.36h1v1.72h2.08v.84H97.58v2.76c0,.32,0,.57,0,.75a1.52,1.52,0,0,0,.15.5.71.71,0,0,0,.33.31,1.47,1.47,0,0,0,.63.1,1.89,1.89,0,0,0,.51-.07,3,3,0,0,0,.39-.11h0Z"/></g></g></svg>