<?xml version="1.0" encoding="UTF-8"?> <!-- Generator: Adobe Illustrator 22.0.1, SVG Export Plug-In . SVG Version: 6.00 Build 0) --> <svg xmlns="http://www.w3.org/2000/svg" xmlns:xlink="http://www.w3.org/1999/xlink" version="1.1" id="Layer_1" x="0px" y="0px" viewBox="0 0 633 926" style="enable-background:new 0 0 633 926;" xml:space="preserve"> <style type="text/css"> .st0{fill:#264691;} </style> <g> <path class="st0" d="M50.832,155.343H25.637c-3.871,0-7.009-3.138-7.009-7.009v-25.195c0-3.871,3.138-7.009,7.009-7.009h25.195 c3.871,0,7.009,3.138,7.009,7.009v25.195C57.84,152.205,54.702,155.343,50.832,155.343z"></path> <path class="st0" d="M339.474,170.592h-44.791c-6.881,0-12.46-5.578-12.46-12.46v-44.791c0-6.881,5.578-12.46,12.46-12.46h44.791 c6.881,0,12.46,5.578,12.46,12.46v44.791C351.934,165.014,346.355,170.592,339.474,170.592z"></path> <path class="st0" d="M426.823,68.93h-33.593c-5.161,0-9.345-4.184-9.345-9.345V25.992c0-5.161,4.184-9.345,9.345-9.345h33.593 c5.161,0,9.345,4.184,9.345,9.345v33.593C436.168,64.746,431.984,68.93,426.823,68.93z"></path> <path class="st0" d="M432.422,170.592H387.63c-6.881,0-12.46-5.578-12.46-12.46v-44.791c0-6.881,5.578-12.46,12.46-12.46h44.791 c6.881,0,12.46,5.578,12.46,12.46v44.791C444.882,165.014,439.303,170.592,432.422,170.592z"></path> <path class="st0" d="M515.572,62.395h-25.195c-3.871,0-7.009-3.138-7.009-7.009V30.191c0-3.871,3.138-7.009,7.009-7.009h25.195 c3.871,0,7.009,3.138,7.009,7.009v25.195C522.58,59.257,519.442,62.395,515.572,62.395z"></path> <path class="st0" d="M612.719,161.878h-33.593c-5.161,0-9.345-4.184-9.345-9.345V118.94c0-5.161,4.184-9.345,9.345-9.345h33.593 c5.161,0,9.345,4.184,9.345,9.345v33.593C622.064,157.694,617.88,161.878,612.719,161.878z"></path> <path class="st0" d="M55.031,347.774H21.437c-5.161,0-9.345-4.184-9.345-9.345v-33.593c0-5.161,4.184-9.345,9.345-9.345h33.593 c5.161,0,9.345,4.184,9.345,9.345v33.593C64.376,343.59,60.192,347.774,55.031,347.774z"></path> <path class="st0" d="M153.578,263.54h-44.791c-6.881,0-12.46-5.578-12.46-12.46v-44.791c0-6.881,5.578-12.46,12.46-12.46h44.791 c6.881,0,12.46,5.578,12.46,12.46v44.791C166.038,257.962,160.459,263.54,153.578,263.54z"></path> <path class="st0" d="M153.578,356.488h-44.791c-6.881,0-12.46-5.578-12.46-12.46v-44.791c0-6.881,5.578-12.46,12.46-12.46h44.791 c6.881,0,12.46,5.578,12.46,12.46v44.791C166.038,350.91,160.459,356.488,153.578,356.488z"></path> <path class="st0" d="M251.005,363.459h-53.75c-8.258,0-14.952-6.694-14.952-14.952v-53.75c0-8.258,6.694-14.952,14.952-14.952 h53.75c8.258,0,14.952,6.694,14.952,14.952v53.75C265.957,356.765,259.262,363.459,251.005,363.459z"></path> <path class="st0" d="M343.953,270.511h-53.75c-8.258,0-14.952-6.694-14.952-14.952v-53.75c0-8.258,6.694-14.952,14.952-14.952 h53.75c8.258,0,14.952,6.694,14.952,14.952v53.75C358.905,263.817,352.21,270.511,343.953,270.511z"></path> <path class="st0" d="M343.953,363.459h-53.75c-8.258,0-14.952-6.694-14.952-14.952v-53.75c0-8.258,6.694-14.952,14.952-14.952 h53.75c8.258,0,14.952,6.694,14.952,14.952v53.75C358.905,356.765,352.21,363.459,343.953,363.459z"></path> <path class="st0" d="M436.901,270.511h-53.75c-8.258,0-14.952-6.694-14.952-14.952v-53.75c0-8.258,6.694-14.952,14.952-14.952 h53.75c8.258,0,14.952,6.694,14.952,14.952v53.75C451.853,263.817,445.158,270.511,436.901,270.511z"></path> <path class="st0" d="M525.37,356.488h-44.791c-6.881,0-12.46-5.578-12.46-12.46v-44.791c0-6.881,5.578-12.46,12.46-12.46h44.791 c6.881,0,12.46,5.578,12.46,12.46v44.791C537.83,350.91,532.251,356.488,525.37,356.488z"></path> <path class="st0" d="M153.578,542.384h-44.791c-6.881,0-12.46-5.578-12.46-12.46v-44.791c0-6.881,5.578-12.46,12.46-12.46h44.791 c6.881,0,12.46,5.578,12.46,12.46v44.791C166.038,536.806,160.459,542.384,153.578,542.384z"></path> <path class="st0" d="M251.005,456.407h-53.75c-8.258,0-14.952-6.694-14.952-14.952v-53.75c0-8.258,6.694-14.952,14.952-14.952 h53.75c8.258,0,14.952,6.694,14.952,14.952v53.75C265.957,449.713,259.262,456.407,251.005,456.407z"></path> <path class="st0" d="M339.474,542.384h-44.791c-6.881,0-12.46-5.578-12.46-12.46v-44.791c0-6.881,5.578-12.46,12.46-12.46h44.791 c6.881,0,12.46,5.578,12.46,12.46v44.791C351.934,536.806,346.355,542.384,339.474,542.384z"></path> <path class="st0" d="M436.901,456.407h-53.75c-8.258,0-14.952-6.694-14.952-14.952v-53.75c0-8.258,6.694-14.952,14.952-14.952 h53.75c8.258,0,14.952,6.694,14.952,14.952v53.75C451.853,449.713,445.158,456.407,436.901,456.407z"></path> <path class="st0" d="M432.422,542.384H387.63c-6.881,0-12.46-5.578-12.46-12.46v-44.791c0-6.881,5.578-12.46,12.46-12.46h44.791 c6.881,0,12.46,5.578,12.46,12.46v44.791C444.882,536.806,439.303,542.384,432.422,542.384z"></path> <path class="st0" d="M525.37,449.436h-44.791c-6.881,0-12.46-5.578-12.46-12.46v-44.791c0-6.881,5.578-12.46,12.46-12.46h44.791 c6.881,0,12.46,5.578,12.46,12.46v44.791C537.83,443.858,532.251,449.436,525.37,449.436z"></path> <path class="st0" d="M608.52,527.135h-25.195c-3.871,0-7.009-3.138-7.009-7.009v-25.195c0-3.871,3.138-7.009,7.009-7.009h25.195 c3.871,0,7.009,3.138,7.009,7.009v25.195C615.528,523.997,612.39,527.135,608.52,527.135z"></path> <path class="st0" d="M50.832,620.083H25.637c-3.871,0-7.009-3.138-7.009-7.009v-25.195c0-3.871,3.138-7.009,7.009-7.009h25.195 c3.871,0,7.009,3.138,7.009,7.009v25.195C57.84,616.945,54.702,620.083,50.832,620.083z"></path> <path class="st0" d="M519.771,626.618h-33.593c-5.161,0-9.345-4.184-9.345-9.345V583.68c0-5.161,4.184-9.345,9.345-9.345h33.593 c5.161,0,9.345,4.184,9.345,9.345v33.593C529.116,622.434,524.932,626.618,519.771,626.618z"></path> <g> <path class="st0" d="M77.434,771.906c-0.187-3.184-1.874-5.618-4.308-7.306c-2.248-1.871-5.245-2.809-8.243-2.809 c-5.245,0-11.24,1.126-11.24,7.494c0,2.809,2.248,4.122,4.308,5.058c6.181,2.622,20.231,3.373,32.595,7.494 c12.364,3.935,23.23,11.24,23.23,27.163c0,26.975-25.852,34.282-49.456,34.282c-22.854,0-47.957-9.179-48.519-34.282h35.406 c0.187,3.371,1.686,6.181,4.497,8.618c1.872,1.684,5.431,2.809,9.928,2.809c4.87,0,12.55-1.874,12.55-7.494 c0-5.62-3.184-7.306-20.419-10.302c-28.287-4.872-39.713-13.864-39.713-30.537c0-24.541,26.412-30.909,45.895-30.909 c20.982,0,46.271,5.806,47.208,30.721H77.434z"></path> <path class="st0" d="M212.668,819.112c0,7.308,0.375,15.551,4.496,21.732h-37.84c-0.937-2.622-1.499-6.555-1.31-9.18h-0.376 c-7.867,8.993-19.294,11.615-31.284,11.615c-18.734,0-34.282-8.99-34.282-29.41c0-30.723,35.968-29.599,54.887-33.159 c5.058-0.935,10.116-2.433,10.116-8.617c0-6.555-6.182-8.993-12.177-8.993c-11.427,0-13.674,5.807-13.863,9.93h-34.468 c1.124-27.35,26.975-31.846,50.018-31.846c46.457,0,46.082,19.294,46.082,38.028V819.112z M177.074,797.196 c-4.496,2.247-9.553,3.56-14.611,4.684c-8.242,1.871-12.551,3.934-12.551,10.489c0,4.496,4.87,8.993,11.615,8.993 c8.431,0,14.987-5.059,15.548-15.175V797.196z"></path> <path class="st0" d="M221.062,743.618h35.781v12.364h0.375c6.93-9.739,16.858-14.797,31.658-14.797 c17.422,0,33.345,10.676,33.345,32.97v66.689H285.13V789.89c0-11.24-1.312-19.107-12.177-19.107c-6.369,0-14.8,3.184-14.8,18.733 v51.327h-37.091V743.618z"></path> <path class="st0" d="M430.462,828.293c0,19.294-5.058,46.46-50.579,46.46c-23.042,0-47.395-6.183-50.767-32.409h36.716 c0.375,0.936,1.312,2.247,2.061,3.371c2.248,3.371,6.182,7.118,10.865,7.118c11.989,0,14.613-14.235,14.613-22.291v-8.993h-0.376 c-5.995,8.618-14.985,13.487-26.038,13.487c-28.662,0-41.588-21.355-41.588-47.395c0-25.288,14.425-46.457,42.15-46.457 c10.865,0,21.168,4.31,25.476,14.236h0.376v-11.802h37.091V828.293z M379.133,811.245c13.676,0,15.173-13.111,15.173-23.977 c0-10.678-5.245-19.108-16.11-19.108c-10.49,0-15.735,8.993-15.735,19.294C362.461,798.507,365.832,811.245,379.133,811.245"></path> <path class="st0" d="M469.259,800.567c0.937,11.052,7.306,18.919,18.921,18.919c5.995,0,12.551-2.246,15.548-6.93h34.656 c-7.494,20.982-27.912,30.723-50.017,30.723c-31.099,0-54.514-18.359-54.514-50.767c0-28.287,20.607-51.329,51.329-51.329 c38.59,0,55.264,21.544,55.264,59.383H469.259z M504.851,781.273c0-8.991-6.743-16.298-16.296-16.298 c-11.054,0-17.423,5.809-19.108,16.298H504.851z"></path> <path class="st0" d="M544.172,743.618h35.593v15.548h0.375c5.995-11.613,13.863-17.981,27.35-17.981 c3.746,0,7.306,0.562,10.865,1.498v32.783c-3.746-1.31-7.119-2.435-14.611-2.435c-14.613,0-22.48,8.618-22.48,29.411v38.402 h-37.092V743.618z"></path> <path class="st0" d="M39.468,872.89H24.125v-10.772h15.343V872.89z M24.125,877.227h15.343v40.217H24.125V877.227z"></path> <path class="st0" d="M43.191,877.228h14.801v5.114h0.156c2.866-4.03,6.974-6.122,13.095-6.122c7.207,0,13.793,4.416,13.793,13.637 v27.588H69.693v-21.076c0-4.65-0.542-7.904-5.036-7.904c-2.636,0-6.122,1.318-6.122,7.75v21.23H43.191V877.228z"></path> <path class="st0" d="M111.949,888.929c-0.076-1.318-0.774-2.323-1.782-3.019c-0.928-0.777-2.17-1.165-3.409-1.165 c-2.172,0-4.65,0.466-4.65,3.1c0,1.164,0.93,1.704,1.782,2.092c2.558,1.086,8.369,1.394,13.483,3.1 c5.116,1.628,9.609,4.65,9.609,11.237c0,11.157-10.693,14.181-20.458,14.181c-9.453,0-19.837-3.798-20.068-14.181H101.1 c0.078,1.393,0.698,2.556,1.86,3.563c0.776,0.7,2.248,1.164,4.106,1.164c2.016,0,5.192-0.776,5.192-3.099 c0-2.326-1.316-3.025-8.447-4.264c-11.701-2.014-16.427-5.734-16.427-12.629c0-10.152,10.927-12.788,18.985-12.788 c8.679,0,19.141,2.404,19.528,12.709H111.949z"></path> <path class="st0" d="M147.24,877.228h8.213v9.453h-8.213v14.025c0,3.722,0.852,5.348,4.726,5.348c1.162,0,2.324-0.078,3.486-0.234 v11.625c-3.099,0-6.587,0.464-9.841,0.464c-6.509,0-13.715-1.006-13.715-12.009v-19.219h-6.819v-9.453h6.819v-12.241h15.343 V877.228z"></path> <path class="st0" d="M173.272,872.89h-15.343v-10.772h15.343V872.89z M157.928,877.227h15.343v40.217h-15.343V877.227z"></path> <path class="st0" d="M197.755,877.228h8.213v9.453h-8.213v14.025c0,3.722,0.851,5.348,4.726,5.348 c1.162,0,2.324-0.078,3.486-0.234v11.625c-3.099,0-6.587,0.464-9.841,0.464c-6.51,0-13.715-1.006-13.715-12.009v-19.219h-6.82 v-9.453h6.82v-12.241h15.343V877.228z"></path> <path class="st0" d="M249.978,917.446h-14.799v-5.114h-0.156c-2.866,4.03-6.974,6.122-13.097,6.122 c-7.205,0-13.793-4.416-13.793-13.637v-27.588h15.343v21.076c0,4.65,0.542,7.904,5.038,7.904c2.634,0,6.121-1.318,6.121-7.75 v-21.23h15.343V917.446z"></path> <path class="st0" d="M272.236,877.228h8.213v9.453h-8.213v14.025c0,3.722,0.85,5.348,4.726,5.348c1.162,0,2.324-0.078,3.486-0.234 v11.625c-3.099,0-6.587,0.464-9.841,0.464c-6.51,0-13.715-1.006-13.715-12.009v-19.219h-6.82v-9.453h6.82v-12.241h15.343V877.228z "></path> <path class="st0" d="M295.554,900.786c0.386,4.572,3.022,7.825,7.827,7.825c2.48,0,5.192-0.928,6.431-2.865h14.335 c-3.099,8.676-11.545,12.709-20.688,12.709c-12.863,0-22.55-7.596-22.55-21.001c0-11.699,8.523-21.235,21.232-21.235 c15.963,0,22.86,8.914,22.86,24.567H295.554z M310.277,892.804c0-3.72-2.79-6.741-6.741-6.741c-4.574,0-7.208,2.402-7.904,6.741 H310.277z"></path> <g> <path class="st0" d="M147.69,680.277c-3.386-11.331-11.746-17.584-26.017-17.584c-11.009,0-19.401,5.588-23.648,13.824 l3.895-12.546H82.352l-6.979,31.698h-0.384l-6.719-31.698H50.644l-6.335,31.698h-0.291l-7.467-31.698H17.004l15.517,50.963 h19.266l7.467-31.532h0.291l7.27,31.532h19.276l9.15-29.454c-0.187,1.35-0.312,2.721-0.312,4.123 c0,16.981,11.716,26.609,27.606,26.609c10.936,0,20.814-4.539,25.155-14.27v12.992h18.684v-70.115H147.69V680.277z M122.537,674.861c5.474,0,9.015,3.937,9.015,9.046h-18.695C113.814,677.998,117.168,674.861,122.537,674.861z M147.693,700.385 h-16.825c-1.63,2.472-5.068,3.645-8.143,3.645c-6.117,0-9.462-4.237-9.95-10.313h34.917V700.385z"></path> <path class="st0" d="M403.267,704.029c-6.149,0-9.483-4.238-9.961-10.314H430c-0.083-19.733-8.62-31.023-27.792-31.023 c-13.336,0-22.818,8.184-25.757,19.359v-2.17c0-8.257-4.3-17.189-16.97-17.189c-7.364,0-11.892,2.638-14.478,5.193 c-0.27,0.302-0.56,0.603-0.747,0.883c-0.966,0.997-1.454,1.682-1.828,2.077c-2.389-5.307-8.153-8.153-13.419-8.153 c-6.896,0-12.452,2.16-16.378,8.153h-0.302v-6.875h-18.113v25.425v25.539h18.694v-27.606c0-5.39,1.63-9.41,6.616-9.41 c6.034,0,6.408,4.601,6.408,9.41v27.606h18.798v-27.606c0-5.39,1.62-9.41,6.595-9.41c5.951,0,6.429,4.601,6.429,9.41v27.606 h18.695v-17.448c3.085,12.026,13.377,18.726,26.619,18.726c11.508,0,21.863-5.006,25.789-15.828h-17.469 C409.778,702.855,406.331,704.029,403.267,704.029z M403.072,674.861c5.463,0,8.984,3.937,8.984,9.046h-18.663 C394.357,677.998,397.712,674.861,403.072,674.861z"></path> <path class="st0" d="M267.097,662.693c-13.959,0-22.195,7.021-25.477,16.462c-2.742-11.455-13.211-16.462-24.241-16.462 c-13.876,0-24.428,8.236-26.806,21.105v-38.978h-18.695v70.115h18.695V695.71c2.347,13.522,12.567,20.502,26.235,20.502 c11.684,0,21.312-5.816,24.874-16.389c3.324,9.389,11.539,16.389,25.415,16.389c18.684,0,27.118-12.671,27.118-26.816 C294.215,675.27,285.781,662.693,267.097,662.693z M224.959,694.784c-0.499,4.134-3.064,7.571-7.956,7.571 c-6.034,0-8.246-4.705-8.246-12.868c0-6.19,1.526-12.951,8.631-12.951c4.414,0,7.072,2.95,7.072,8.059h15.86 c-0.229,1.568-0.353,3.178-0.353,4.799c0,1.828,0.145,3.635,0.436,5.39H224.959z M267.1,702.358 c-7.374,0-8.444-7.467-8.444-12.962c0-5.494,1.069-12.857,8.444-12.857c7.363,0,8.423,7.363,8.423,12.857 C275.523,694.891,274.464,702.358,267.1,702.358z"></path> </g> </g> </g> </svg> 