<?xml version="1.0" encoding="utf-8"?>
<!-- Generator: Adobe Illustrator 21.0.0, SVG Export Plug-In . SVG Version: 6.00 Build 0)  -->
<svg version="1.1" id="Ebene_1" xmlns="http://www.w3.org/2000/svg" xmlns:xlink="http://www.w3.org/1999/xlink" x="0px" y="0px"
	 viewBox="0 0 1113 355" style="enable-background:new 0 0 1113 355;" xml:space="preserve">
<g transform="translate(0.000000,712.000000) scale(0.100000,-0.100000)">
	<path d="M1609,7015c-631-86-1166-529-1367-1130c-65-195-77-277-77-530c0-204,3-242,23-333c74-329,218-600,443-833
		c365-377,894-562,1411-494c188,24,328,66,505,150c477,226,811,651,925,1175c20,92,23,133,23,335c0,253-13,339-76,530
		C3168,6641,2396,7122,1609,7015z M2126,6951c604-111,1110-574,1269-1161c76-281,74-624-6-893c-153-515-548-919-1064-1086
		c-656-213-1379,18-1795,574c-212,283-320,609-320,967c0,170,11,263,47,403c90,351,300,668,583,885c248,189,481,282,845,334
		C1755,6984,2020,6970,2126,6951z"/>
	<path d="M1684,6820c-471-50-901-330-1131-735c-44-78-105-218-128-291c-57-181-80-437-55-617c56-417,285-791,634-1038
		c74-53,90-58,100-33c4,11-9,33-39,66c-26,26-61,79-78,116c-27,58-32,78-32,147s4,88,29,137l29,57l41-32c67-52,117-100,133-131
		c33-62,12-155-42-190c-15-10-33-33-41-51c-19-45-5-80,41-102c19-9,35-22,35-29c0-21,68-73,112-86c24-6,60-23,80-36l38-25l347,2
		c309,1,489-7,576-25c38-8,45,17,19,70c-12,23-28,62-37,85c-17,50-20,187-5,242l10,37l108,4c84,3,119,9,162,28
		c128,55,164,109,153,234c-6,76-5,78,24,109c26,27,30,40,31,87c0,30-6,76-15,102c-20,64-9,81,73,108c89,30,108,50,101,105
		c-4,24-25,83-48,132c-90,193-109,244-109,293c0,33-11,75-35,130c-32,77-33,84-19,106c11,16,14,33,8,56c-4,18-7,52-6,75
		c2,32-2,45-20,60c-13,10-38,38-57,62c-29,37-32,46-22,67c15,35,14,76-5,102c-19,28-68,29-109,2c-16-11-38-20-48-20c-16,0-16,2-1,25
		c26,39,10,48-72,42c-41-3-76-2-79,3s-1,30,5,56c8,37,29,68,103,153c50,58,94,108,97,111c38,36,36,38-71,89
		C2210,6802,1951,6848,1684,6820z M1961,6769c116-11,230-36,334-72c68-24,184-73,193-82c4-4-48-66-144-174c-10-11-22-9-75,12
		c-301,120-664,106-954-37c-392-194-640-567-662-997c-14-277,60-533,216-749c33-47,59-90,57-97c-30-79-25-228,10-295
		c14-28,14-29-3-19c-33,17-216,214-262,281c-107,157-197,365-237,550c-15,67-19,126-19,275c1,181,2,196,33,316
		c48,186,108,325,205,468c236,350,627,583,1042,620C1827,6781,1848,6781,1961,6769z M1938,6479c53-5,124-17,157-25
		c75-19,205-66,205-75c0-4-13-12-29-19c-25-10-40-9-93,9c-279,92-565,73-823-55c-485-239-714-804-535-1321c33-96,95-217,141-274
		c26-33,28-40,17-58c-7-12-16-21-20-21c-13,0-104,137-141,212c-214,436-129,955,213,1299c47,47,124,111,171,142
		c187,124,350,175,622,196C1833,6489,1884,6485,1938,6479z M1949,6370c77-10,216-45,240-59c11-7,10-14-8-39c-11-16-25-40-30-53
		c-9-23-10-22-10,9c-1,40-15,41-72,2c-48-32-84-79-104-136l-12-36l-6,31c-8,38-20,39-68,5c-45-31-86-91-98-142c-8-37-10-36-26,14
		c-5,15-8,15-33-1c-55-35-102-105-117-174l-7-34l-14,33l-15,34l-40-40c-48-46-68-82-85-149c-7-27-13-43-13-34c-1,9-8,23-17,30
		c-35,29-123-110-124-195l-1-31l-15,28c-8,15-18,27-23,27s-25-24-44-52c-38-56-63-134-54-168c7-26,0-25-23,3c-19,22-19,22-35,2
		c-36-45-69-130-69-182c-1-31-4-46-9-37c-20,36-48,11-82-71l-23-56l-30,73c-55,135-67,206-66,388c1,184,14,254,77,399
		C1071,6169,1515,6426,1949,6370z M2310,6321c-16-59-43-101-90-145c-78-73-86-59-32,54c17,35,43,67,70,87
		C2311,6357,2321,6358,2310,6321z M2455,6240c19-31-126-110-202-110h-36l24,26c38,41,77,66,127,79C2427,6252,2447,6253,2455,6240z
		 M2113,6187c-8-46-44-105-94-155c-52-51-59-41-34,45c13,44,29,70,65,106C2103,6236,2123,6237,2113,6187z M2624,6174
		c9-25,7-33-14-54l-21-21l62-72c34-39,66-73,71-75c4-2,8-12,8-22c0-14-11-22-37-29c-242-64-338-102-449-179c-54-36-132-110-199-187
		c-14-16-74-101-131-188c-58-86-109-159-113-161c-3-2-19,7-35,21l-29,25l18,31c160,276,519,688,765,876
		C2589,6192,2614,6200,2624,6174z M2459,6161c10-6,2-19-35-52c-120-108-204-193-309-314c-141-162-206-246-320-413
		c-81-121-91-132-119-132c-42,0-88-30-117-76c-25-41-31-121-15-200c8-39,6-44-28-81c-40-45-43-53-20-53c9,0,31,16,49,36
		c24,26,35,32,41,23c10-16-55-73-155-137c-65-42-71-47-48-50c31-4,144,56,200,107c21,18,39,32,41,30c17-20,26-58,26-112
		c0-36,9-109,20-162c37-181,29-195-113-195c-90,0-222-24-233-42c-13-21,13-26,66-12c32,8,102,14,173,14c112,0,119,1,142,25
		c31,30,32,60,5,197c-11,57-20,122-20,145c0,42,0,42,25,31c14-6,28-23,31-37s17-62,29-106c36-119,48-215,36-263c-19-70-39-75-253-60
		c-109,7-181,7-235,0c-43-6-81-7-86-3c-4,4-1,27,8,50c8,24,15,55,15,69c0,45-43,112-122,190c-43,42-78,80-78,84s10,8,23,8
		c83,0,181,59,218,131c31,62,27,69-38,69l-58,1l38,13c56,20,102,55,131,100c33,51,33,74,0,82l-26,7l36,16c62,29,126,103,126,146
		c0,11-10,15-36,15c-40,0-38,15,5,25c58,13,151,115,137,151c-3,8-16,14-28,15c-14,0-1,8,32,19c89,30,195,158,133,161
		c-13,0-11,3,7,11c106,46,150,79,171,130c9,22,9,32,1,37c-7,4,7,12,31,18c60,16,126,68,146,113c13,31,26,42,69,60
		c34,14,68,40,100,74c26,29,63,59,82,66s44,20,55,27C2438,6172,2441,6173,2459,6161z M2270,6091c0-35-156-111-228-111
		c-26,0-26,0,13,40c21,22,57,49,79,60C2176,6100,2270,6108,2270,6091z M1920,6050c0-23-9-59-20-81c-22-43-87-119-101-119
		c-13,0-11,40,6,97c14,47,85,143,106,143C1916,6090,1920,6072,1920,6050z M1936,5955c-3-8-10-15-15-15s-4,11,2,25
		C1935,5990,1946,5981,1936,5955z M2081,5933c-28-53-118-101-204-109l-52-5l57,54c58,56,98,74,171,76C2086,5950,2090,5948,2081,5933
		z M1743,5911c11-52-31-148-87-200c-24-23-26-23-27-5c-2,49,4,102,16,130c13,32,72,104,85,104C1734,5940,1740,5927,1743,5911z
		 M1788,5806c12-7,8-11-18-22c-42-18-41-18-24,14c7,15,14,34,15,42c1,9,3,7,6-5C1770,5824,1779,5811,1788,5806z M2730,5824
		c0-8-5-12-10-9c-6,4-8,11-5,16C2724,5845,2730,5842,2730,5824z M2680,5822c0-18-39-43-75-49c-34-6-37-4-33,18c2,15,12,26,28,30
		C2636,5831,2680,5831,2680,5822z M2520,5788c0-42-79-108-129-108c-20,0-21,4-15,38c8,46,9,47,64,66C2495,5802,2520,5804,2520,5788z
		 M1575,5738c4-28,1-58-9-86c-19-54-74-134-87-127c-14,9-11,121,4,158c15,36,64,97,77,97C1565,5780,1572,5761,1575,5738z M1910,5772
		c0-5-16-25-37-45c-42-42-125-77-185-77h-42l49,50c27,27,67,56,89,64C1829,5780,1910,5785,1910,5772z M2703,5758
		c61-147,77-195,77-229c0-44,28-121,97-269c79-168,78-175-27-215c-39-15-78-34-86-43c-16-15-16-58,0-94c5-12,1-18-14-23
		c-12-4-39-22-60-41s-49-35-64-36c-32-3-35-18-2-18c21,0,58,22,94,57c14,13,62,18,62,6c0-3-7-15-17-25c-15-17-15-19,1-37
		c15-16,15-20,1-31s-38-10-82,7c-16,6-16,5-4-10c7-9,21-17,31-17c26,0,31-11,15-34c-10-14-15-47-15-102c0-68-4-86-21-108
		c-77-98-265-131-432-75c-107,36-292,164-407,283c-37,39-44,51-42,81c2,19-2,35-8,35c-5,0-10-4-10-10c0-5-11-17-25-26
		c-23-15-27-15-49-1c-13,9-33,35-46,59c-12,23-34,56-48,73c-14,16-31,45-39,64c-19,45-18,142,1,180c20,37,62,71,90,71
		c55,0,110-65,123-146c3-19,9-36,13-39c17-11,65-13,81-4c15,7,23,5,36-12c37-44,101-61,144-39c25,14,47,57,60,122c6,29,22,64,35,78
		c53,57,66,131,37,219c-18,58-8,101,24,101c28,0,89,46,113,85c14,22,29,35,43,35c35,0,124,46,142,73c12,18,28,26,64,31
		c26,3,56,13,67,21C2680,5773,2696,5774,2703,5758z M2320,5680c0-53-58-127-106-136c-20-4-36-14-39-25c-4-10-15-24-27-30
		c-24-13-68-4-68,14c0,22,93,113,159,156C2312,5706,2320,5708,2320,5680z M1612,5660c1-14,10-28,18-31c11-5,5-11-20-21
		c-19-8-36-15-37-14s5,23,14,49C1604,5695,1606,5697,1612,5660z M1420,5524c0-39-8-68-32-115c-36-69-52-81-62-47
		c-20,74-3,153,48,221c19,26,21,27,33,11C1414,5584,1420,5553,1420,5524z M1740,5594c0-18-47-67-83-88c-32-19-130-46-164-46
		c-2,0-3,6-3,13c0,20,80,94,120,111C1644,5599,1740,5606,1740,5594z M1456,5475c-6-32-5-35,16-35c19-1,17-3-11-16c-19-8-35-13-36-12
		c-3,6,26,98,32,98C1460,5510,1459,5494,1456,5475z M2074,5414c14-37,5-66-38-112c-47-51-66-82-66-106c0-14,3-14,20-4
		c11,7,23,21,26,30c3,10,25,32,50,50c44,32,57,56,58,113c1,43,29,44,44,2c25-68,16-100-49-178c-34-40-39-54-39-96c0-67-21-96-63-87
		c-18,3-41,18-53,31c-12,15-30,26-46,26c-24,0-25,1-12,26c8,15,14,57,14,98c0,69,1,73,46,132c42,56,79,91,95,91
		C2065,5430,2071,5423,2074,5414z M1268,5395c21-47,15-126-15-185c-16-30-33-56-39-57c-21-7-40,67-35,137c1,28,57,130,70,130
		C1253,5420,1262,5409,1268,5395z M1583,5414c16-16-40-80-96-110c-35-19-138-37-149-26s57,89,93,107C1479,5411,1569,5427,1583,5414z
		 M1317,5308c-3-8-6-5-6,6c-1,11,2,17,5,13C1319,5324,1320,5315,1317,5308z M1345,5238c-16-6-36-15-42-21c-9-7-13-5-13,5
		c0,22,10,28,49,27l36-1L1345,5238z M1480,5222c0-25-56-83-102-106c-50-25-148-37-148-18c0,20,40,65,88,99
		C1355,5223,1480,5243,1480,5222z M1142,5173c15-35,19-58,15-95c-6-50-44-130-62-132c-17-2-45,67-45,113c0,45,45,161,62,161
		C1117,5220,1130,5199,1142,5173z M1886,5168c-7-37-32-78-46-78c-17,0-11,41,11,76C1877,5209,1895,5210,1886,5168z M1198,5092
		c-3-22,2-27,24-32c27-5,27-5-13-22c-36-15-40-15-35-2c3,9,6,34,6,55c0,25,4,38,10,34S1199,5107,1198,5092z M1370,5035
		c0-4-7-19-15-36c-23-43-89-86-148-98c-97-18-106-10-58,56c25,35,57,56,111,76C1280,5040,1370,5041,1370,5035z M1040,4932
		c5-20,10-51,10-68c0-35-24-109-42-131c-17-21-45,10-63,69c-12,42-12,55,1,105c8,32,22,69,31,82l16,25l18-23
		C1021,4979,1034,4952,1040,4932z M1086,4895c-6-17,15-25,72-26c26-1,38-3,27-6c-37-8-80-26-97-41c-17-14-18-11-18,42
		c0,38,4,55,11,51C1087,4911,1089,4902,1086,4895z M1287,4834c5-14-52-85-80-101c-66-38-167-49-167-19c0,22,51,86,82,102
		C1177,4845,1280,4856,1287,4834z M1951,4568c87-78,195-147,279-178c33-12,60-28,60-36c0-7-7-39-15-71c-21-80-19-178,5-248
		c11-32,18-60,16-63c-3-2-30,2-62,8c-63,13-205,15-378,4l-109-7l6,33c4,18,7,39,7,46c0,8,10,14,24,14c28,0,74,43,83,78
		c3,15-2,48-12,77c-15,44-15,58-5,90c15,47,7,117-31,252c-16,57-29,115-29,130c0,27,1,26,43-18C1857,4655,1910,4605,1951,4568z
		 M1436,4131c-1-68,3-104,12-112c18-19,15-39-7-39c-60,0-85,46-85,151c0,41,4,81,8,87c4,7,22,12,40,12h33L1436,4131z M1621,4188
		c7-47,32-84,69-103c69-36,3-115-96-115c-70,0-123,92-109,188c11,73,11,73,74,70l56-3L1621,4188z M1813,4193c11-67-36-103-95-72
		c-20,11-54,77-43,87c3,3,24,5,48,4c23-1,49,2,57,8C1803,4235,1807,4232,1813,4193z M1185,4188c-9-42-9-42-34-28c-26,13-27,35-3,49
		C1181,4229,1192,4222,1185,4188z M1310,4135c0-83-1-85-24-85c-64,0-87,137-27,159C1309,4227,1310,4226,1310,4135z"/>
	<path d="M1855,6740c-4-6-9-47-12-91c-5-66-3-79,9-79c16,0,28,56,28,131C1880,6739,1867,6759,1855,6740z"/>
	<path d="M1600,6709c0-48,25-151,37-156c24-9,25,2,9,87c-9,45-16,84-16,86s-7,4-15,4C1606,6730,1600,6721,1600,6709z"/>
	<path d="M2081,6633c-19-47-28-80-22-86c14-14,28-1,44,46c8,23,22,59,31,80c16,35,15,37-3,37C2117,6710,2105,6691,2081,6633z"/>
	<path d="M1362,6661c-10-6-5-25,25-84c37-77,49-89,59-63c4,11-60,156-69,156C1376,6670,1369,6666,1362,6661z"/>
	<path d="M2278,6578c-39-50-53-75-45-80c19-12,19-12,75,62c47,61,58,90,34,90C2338,6650,2309,6617,2278,6578z"/>
	<path d="M1123,6549c-9-9-2-22,27-53c21-22,47-52,58-66c16-19,23-22,33-13c13,13,3,28-66,104C1135,6565,1138,6564,1123,6549z"/>
	<path d="M905,6390c-3-5,27-32,66-59c56-40,75-48,86-40c10,9-1,21-56,60C930,6401,916,6407,905,6390z"/>
	<path d="M725,6200c-4-7-3-15,1-19c18-16,147-62,160-57c28,11,13,24-53,49c-38,14-75,28-84,32C739,6208,729,6206,725,6200z"/>
	<path d="M585,5970c-12-20,7-27,90-37c76-10,94-6,95,19c0,3-28,9-62,13c-35,3-75,8-90,11C604,5979,589,5976,585,5970z"/>
	<path d="M538,5733c-40-3-48-7-48-24c0-18,5-20,45-15c25,3,65,8,89,11c25,4,47,12,50,20C680,5741,655,5742,538,5733z"/>
	<path d="M523,5488c-49-18-83-36-83-44c0-19,16-18,100,11c68,23,89,37,90,58C630,5525,610,5520,523,5488z"/>
	<path d="M528,5239c-68-45-98-79-69-79c23,0,161,96,161,113c0,9-3,17-7,17C608,5290,570,5267,528,5239z"/>
	<path d="M584,5002c-72-81-75-84-65-101c6-10,19-2,49,30c80,88,94,108,85,123C647,5066,631,5054,584,5002z"/>
	<path d="M709,4818c-7-13-27-51-45-85c-30-54-36-93-15-93c8,0,91,161,91,177C740,4840,721,4840,709,4818z"/>
	<path d="M821,4623c-34-132-40-163-35-177c10-26,23-18,33,22c37,143,40,156,30,174C835,4667,832,4665,821,4623z"/>
	<path d="M2574,5587c-37-14-182-109-183-119c-2-16,18-7,90,42c83,57,135,72,154,46c15-20,25-21,25-2c0,14-37,47-50,45
		C2607,5599,2591,5593,2574,5587z"/>
	<path d="M2617,5501c-3-14-13-21-30-21c-14,0-62-25-108-55s-91-55-101-55c-23,0-24-20,0-21c9,0,53-4,97-8c44-5,95-7,113-4
		c32,6,32,6,32,63c0,42,4,59,15,64c19,7,19,17,2,41C2624,5522,2623,5522,2617,5501z M2595,5404v-29l-70-2c-66-3-69-2-50,13
		c27,22,98,54,110,50C2591,5435,2595,5420,2595,5404z"/>
	<path d="M1647,5189c-48-28-64-145-27-203c10-18,31-39,46-46c14-8,32-27,40-42c18-34,54-39,54-7c0,18-3,19-15,9s-17-7-26,14
		c-7,14-15,26-19,26c-3,0-23,15-43,34c-35,32-37,37-37,94c0,49,4,66,23,88c45,52,81,7,64-78c-8-40-7-52,6-65c20-20,43-8,26,13
		c-7,9-11,40-10,78C1732,5188,1701,5220,1647,5189z"/>
	<path d="M2674,5143c-12-47-8-93,9-110c16-16,22-15,87,17c38,19,70,37,70,42c0,13-17,9-74-19c-80-39-98-22-70,69c3,9,0,19-5,23
		C2685,5168,2677,5158,2674,5143z"/>
	<path d="M5882,6482c-30-2-50-7-47-13c4-5,15-9,26-9c10,0,19-6,20-12c0-7,0-101,0-208v-195l-28-6c-36-8-33-9,55-13c40-2,75,0,78,5
		s-6,9-20,9h-26l-2,223l-3,222L5882,6482z"/>
	<path d="M6950,6470c0-5,9-10,20-10c19,0,20-7,20-210c0-209,0-210-22-210c-45,0-7-12,47-15c55-2,82,8,45,18c-17,4-20,14-20,61
		c0,31,3,56,8,55c15-1,95-113,84-117c-7-2-12-8-12-12c0-7,98-7,118-1c2,1-10,12-26,26c-16,13-49,50-73,81l-43,56l42,39
		c22,22,50,39,62,39c11,0,20,5,20,10c0,6-25,10-55,10s-55-4-55-10c0-5,8-10,18-10c12-1,2-15-33-46l-50-45l-3,151l-3,150h-44
		C6970,6480,6950,6476,6950,6470z"/>
	<path d="M4170,6461c0-5,10-11,23-13c22-3,22-3,22-203v-199l-25-6c-37-9-12-18,42-16c47,2,82,16,39,16c-12,0-24,6-27,13
		c-2,7-3,91-2,187l3,175l19-60c10-33,36-118,58-190c38-127,51-155,61-138c2,4,30,94,62,198c31,105,59,192,61,194s4-82,4-187v-192
		h-26c-14,0-23-3-21-7c7-12,157-10,157,2c0,5-9,10-20,10s-20,3-20,8c0,4,0,95,0,202v195h26c14,0,23,4,19,10c-3,6-35,10-70,10h-63
		l-20-67c-11-38-31-104-43-148s-25-83-29-88c-4-4-27,61-51,145l-45,153l-67,3C4198,6470,4170,6467,4170,6461z"/>
	<path d="M5480,6461c0-6,11-11,25-11h25v-205v-205h-32c-17,0-29-3-25-6c9-9,178-10,183-2c3,5-9,8-25,8h-31v88v88l69,10
		c78,13,113,34,137,83s6,102-43,132c-32,20-54,24-160,27C5516,6471,5480,6469,5480,6461z M5721,6424c21-19,27-111,9-144
		c-11-21-60-40-101-40h-29v106v107l51-6C5680,6443,5711,6433,5721,6424z"/>
	<path d="M7465,6460c-4-6,7-10,24-10h31v-205v-205h-31c-16,0-28-3-26-7c6-10,164-9,173,0c4,4-5,7-19,7h-27v205v205h25
		c14,0,25,5,25,10c0,6-35,10-84,10C7509,6470,7468,6466,7465,6460z"/>
	<path d="M8530,6446c-27-33,18-72,48-42c13,13,14,20,6,34C8569,6461,8546,6464,8530,6446z"/>
	<path d="M8320,6330c0-33-3-40-20-40c-11,0-20-4-20-10c0-5,9-10,20-10c19,0,20-7,20-109c0-60,3-116,6-125c8-20,73-21,100-2
		c23,17,13,32-13,18c-37-19-43-5-43,109v109h30c17,0,30,5,30,10c0,6-13,10-30,10c-28,0-30,2-30,40c0,36-2,40-25,40
		C8323,6370,8320,6366,8320,6330z"/>
	<path d="M8690,6330c0-33-3-40-20-40c-11,0-20-4-20-10c0-5,9-10,20-10c18,0,20-8,22-122l3-123l40-2c24-2,48,3,59,12
		c25,19,15,30-13,15c-12-6-26-8-31-5c-6,3-10,55-10,116v109h30c17,0,30,5,30,10c0,6-13,10-30,10c-28,0-30,2-30,40c0,36-2,40-25,40
		C8693,6370,8690,6366,8690,6330z"/>
	<path d="M9210,6330c0-33-3-40-20-40c-26,0-26-16,0-23c18-5,20-15,22-123l3-119l36-3c25-2,43,3,60,18c20,19,21,21,4,15
		c-50-17-50-17-53,103l-3,112h31c18,0,29,4,25,10c-3,6-17,10-31,10c-21,0-24,4-24,40s-2,40-25,40C9213,6370,9210,6366,9210,6330z"/>
	<path d="M6136,6292c-47-6-78-31-74-61c2-19,10-27,27-29c22-4,23-1,18,31s-3,35,25,41c46,9,68-8,68-54c0-34-3-40-21-40
		c-39,0-98-23-120-46c-28-30-30-82-4-100c25-18,95-18,122,1c18,13,22,13,33,0c19-23,67-19,80,6c14,25,3,41-11,16c-20-35-29-3-29,103
		c0,69-4,111-11,116C6220,6287,6167,6296,6136,6292z M6200,6121c0-49-22-73-63-69c-83,8-51,105,36,107
		C6198,6160,6200,6157,6200,6121z"/>
	<path d="M4738,6279c-41-23-45-79-7-79c25,0,35,26,19,45c-10,12-8,16,15,25c14,5,32,10,40,10c24,0,45-30,45-64c0-32-2-34-47-40
		c-96-13-146-74-109-131c14-21,25-25,64-25c27,0,57,7,70,16c20,14,23,14,28,0c9-23,57-20,79,4c10,11,15,23,10,28c-4,4-10,1-12-5
		c-3-7-11-13-19-13c-11,0-14,21-14,104c0,127-6,136-88,136C4781,6290,4747,6285,4738,6279z M4848,6129c4-48-21-79-63-79
		c-29,0-37,5-45,26c-18,45,18,82,80,83C4842,6160,4846,6155,4848,6129z"/>
	<path d="M4980,6280c0-5,8-10,18-10c17,0,71-70,87-112c9-23-62-118-88-118c-11,0-17-3-13-7c10-10,86-11,92-1c3,4-2,8-10,8
		c-9,0-16,2-16,5c0,6,51,85,55,85s55-79,55-85c0-3-7-5-17-5c-9,0-14-3-10-6c3-4,31-6,62-6c71,1,74,2,48,12c-19,8-103,118-103,135
		c0,20,64,95,80,95c11,0,20,5,20,10c0,6-22,10-50,10c-27,0-50-4-50-10c0-5,7-10,15-10c20,0,19-6-6-41c-29-41-31-40-67,34
		c-2,4,4,7,13,7s13,5,10,10c-3,6-33,10-66,10S4980,6286,4980,6280z"/>
	<path d="M6340,6280c0-5,8-10,18-10c17,0,19-9,17-112c-2-99-4-113-21-119c-24-10-21-10,49-13c32-2,60,1,63,6c3,4-5,8-16,8
		c-21,0-22,3-19,84c4,94,26,138,69,144c39,6,50-22,50-125c0-88-1-94-22-103c-28-11-27-11,45-13c33-1,61,1,64,6c2,4-5,7-16,7
		c-20,0-21,6-21,108c0,127-8,142-79,142c-33,0-47-6-66-26l-25-27v27c0,24-3,26-45,26C6360,6290,6340,6286,6340,6280z"/>
	<path d="M6741,6277c-59-30-88-124-57-184c26-51,62-73,118-73c41,0,54,5,79,29c16,16,29,37,29,47c0,12-10,6-33-21
		c-27-31-40-38-67-37c-55,1-75,31-75,111c0,103,31,142,101,125c18-5,23-11,18-23c-15-35-10-56,15-59c44-7,54,36,16,73
		c-19,20-34,25-72,25C6787,6290,6754,6284,6741,6277z"/>
	<path d="M7700,6280c0-5,7-10,15-10c12,0,15-19,15-115s-3-115-15-115c-8,0-15-4-15-9c0-10,106-8,116,2c4,4,0,7-9,7
		c-15,0-17,12-17,84c0,77,2,87,26,116c20,23,34,30,53,28l26-3l3-112c2-101,1-113-14-113c-10,0-14-3-10-7c10-10,116-11,116-1
		c0,4-7,8-15,8c-12,0-15,18-15,103c0,129-10,147-80,147c-41,0-52-4-69-26l-21-27v27c0,24-3,26-45,26C7720,6290,7700,6286,7700,6280z
		"/>
	<path d="M8079,6280c-9-5-22-23-29-39c-19-46,4-83,60-99c87-26,100-33,100-57c0-50-72-66-115-25c-14,13-25,29-25,37c0,7-7,13-15,13
		c-11,0-15-11-15-40c0-36,2-39,28-39c15-1,48-3,73-7c61-8,100,23,102,78c1,46-22,74-71,83c-57,11-102,32-102,49c0,9,11,23,25,32
		c33,22,72,11,93-26c23-40,32-38,32,8v38l-62,2C8123,6289,8088,6285,8079,6280z"/>
	<path d="M8490,6280c0-5,9-10,20-10c19,0,20-7,20-115v-115h-27c-14,0-23-3-20-7c9-9,127-10,133-2c2,4-5,9-16,12c-19,5-20,14-20,126
		v121h-45C8510,6290,8490,6286,8490,6280z"/>
	<path d="M8845,6280c-3-5,3-10,14-10c20,0,21-6,21-108c0-93,3-111,18-125c27-25,106-23,132,3c25,25,32,25,28,3c-2-15,5-19,40-21
		c25-2,42,1,42,7s-7,11-15,11c-13,0-15,21-15,125v125h-44c-25,0-48-4-51-10c-3-5,3-10,14-10c20,0,21-6,21-90c0-83-2-93-25-115
		c-30-31-70-33-85-5c-6,12-11,58-10,103c2,137,5,127-39,127C8869,6290,8848,6286,8845,6280z"/>
	<path d="M5270,6165c0-25,1-25,80-25s80,0,80,25s-1,25-80,25S5270,6190,5270,6165z"/>
	<path d="M7252,6168c3-22,8-23,83-23s80,1,83,23c3,21,1,22-83,22S7249,6189,7252,6168z"/>
	<path d="M6820,5690c-32-7-33-8-12-15c22-7,22-9,22-211c0-197-1-204-20-204c-11,0-20-4-20-10s28-10,65-10s65,4,65,10s-9,10-20,10
		c-18,0-20,7-20,65c0,75,17,125,51,149c29,20,34,20,53,0c23-22,23-214,1-214c-8,0-15-4-15-10s27-10,60-10s60,4,60,10s-9,10-20,10
		c-19,0-20,7-20,109c0,125-6,136-77,136c-38,0-49-5-69-30l-24-30v128c0,96-3,127-12,126C6861,5698,6839,5694,6820,5690z"/>
	<path d="M7133,5687c-3-5,4-11,16-14c20-5,21-11,21-208c0-201,0-203-22-210c-21-7-20-8,9-12c18-2,50-2,70,0c30,3,34,5,18,11
		c-18,6-20,15-18,87c1,86,16,123,56,138c12,5,30,5,40-1c14-7,17-24,17-113c0-87-3-105-15-105c-8,0-15-4-15-10s27-10,60-10
		s60,4,60,10s-6,10-14,10c-11,0-15,24-18,104c-4,115-12,132-63,142c-34,6-95-17-95-36c0-6-3-10-7-10c-5,0-8,53-8,117v118h-43
		C7158,5695,7136,5691,7133,5687z"/>
	<path d="M9525,5690c-29-7-29-8-7-15s22-9,22-211c0-171-2-204-14-204c-8,0-18-4-21-10c-4-6,18-10,59-10c37,0,66,4,66,10
		s-10,10-21,10c-21,0-21,4-17,79c5,85,23,126,61,140c12,5,30,5,40-1c14-7,17-24,17-113c0-87-3-105-15-105c-8,0-15-4-15-10
		s27-10,60-10s60,4,60,10s-9,10-20,10c-19,0-20,7-20,109c0,118-3,126-57,137c-34,7-70-8-95-40c-17-20-18-16-18,107
		C9590,5713,9593,5707,9525,5690z"/>
	<path d="M10325,5690c-29-7-29-8-7-15s22-9,22-211c0-171-2-204-14-204c-8,0-18-4-21-10c-4-6,18-10,59-10c37,0,66,4,66,10
		s-10,10-21,10c-21,0-22,3-16,80c6,86,22,125,60,139c12,5,30,5,40-1c14-7,17-24,17-113c0-87-3-105-15-105c-8,0-15-4-15-10
		s27-10,60-10s60,4,60,10s-7,10-15,10c-12,0-15,18-15,100c0,94-2,103-25,125c-38,39-96,30-136-19c-17-20-18-16-17,104
		C10392,5708,10392,5708,10325,5690z"/>
	<path d="M4252,5674c-33-23-53-69-54-125c0-45-2-49-24-49c-13,0-24-4-24-10c0-5,11-10,25-10h25v-110v-110h-25c-14,0-25-4-25-10
		s32-10,75-10s75,4,75,10s-11,10-25,10h-25v110v110h25c14,0,25,5,25,10c0,6-12,10-26,10c-26,0-26,0-22,71c3,61,7,74,28,91l25,20
		l5-23c7-30,50-40,50-12c0,11-5,24-12,31C4331,5695,4279,5693,4252,5674z"/>
	<path d="M5120,5670c0-5,11-10,25-10h25v-200v-200h-25c-14,0-25-4-25-10s27-10,60-10s60,4,60,10s-11,10-25,10h-25l1,188
		c0,106,4,178,8,167c5-11,32-100,61-198c32-106,57-176,64-174c10,3,104,282,114,340c2,15,8,30,13,33s9-73,9-175v-181h-25
		c-14,0-25-4-25-10s35-10,86-10c54,0,83,4,79,10c-3,6-14,10-24,10c-25,0-26,10-23,218c3,173,4,182,22,182c11,0,20,5,20,10
		c0,6-28,10-65,10h-64l-17-57c-9-32-30-103-46-158l-31-100l-27,85c-14,47-35,118-45,158l-19,72h-68C5149,5680,5120,5676,5120,5670z"
		/>
	<path d="M9896,5662c-14-16-14-20,0-40c12-18,19-20,35-12c24,14,25,46,0,59C9917,5677,9909,5675,9896,5662z"/>
	<path d="M7797,5663c-14-13-7-43,12-53c23-12,56,14,47,37c-3,8-6,17-6,19C7850,5673,7804,5671,7797,5663z"/>
	<path d="M4412,5573c3-29,32-43,50-25s-1,52-28,52C4412,5600,4409,5596,4412,5573z"/>
	<path d="M4536,5585c-9-24,4-45,29-45s38,21,29,45c-4,8-16,15-29,15S4540,5593,4536,5585z"/>
	<path d="M7953,5543c2-32-2-38-23-44l-25-7l23-7c21-7,22-12,22-115c0-120,8-140,60-140c30,0,80,34,67,46c-4,4-13,2-19-4
		c-7-7-20-12-30-12c-16,0-18,11-18,110c0,110,0,110,24,110c14,0,28,5,31,10c4,6-7,10-24,10c-29,0-31,2-31,40s-2,40-29,40
		C7953,5580,7952,5578,7953,5543z"/>
	<path d="M10660,5541c0-33-4-40-22-44l-23-4l23-8c21-7,22-12,22-115c0-116,9-140,51-140c25,0,79,27,79,40s-17,13-25,0
		c-3-5-15-10-26-10c-18,0-19,8-19,110v110h25c14,0,25,5,25,10c0,6-11,10-25,10c-22,0-25,4-25,40c0,38-2,40-30,40
		S10660,5578,10660,5541z"/>
	<path d="M4388,5503c-39-4-54-23-18-23c19,0,20-7,20-108c0-122,9-142,68-142c34,0,82,18,82,32c0,4,5,8,10,8c6,0,10-9,10-21
		c0-15,4-19,16-15c9,3,29,6,45,6s29,5,29,10c0,6-9,10-20,10c-19,0-20,7-20,126c0,111-2,125-16,120c-9-3-29-6-45-6s-29-4-29-10
		c0-5,10-10,21-10c21,0,21-4,17-89c-3-56-9-95-18-106c-21-26-58-37-81-25c-17,10-19,22-19,130c0,66-3,119-7,118
		C4428,5507,4408,5505,4388,5503z"/>
	<path d="M4732,5503c-41-4-51-23-11-23c18,0,19-8,19-110v-110h-25c-14,0-25-4-25-10s32-10,75-10s75,4,75,10s-12,10-26,10h-26l3,83
		c3,60,9,91,23,112l19,28l16-22c21-27,51-19,51,14c0,41-49,47-85,10l-25-24v24c0,14-3,24-7,23C4778,5507,4756,5505,4732,5503z"/>
	<path d="M5693,5490c-93-56-94-192-2-242c55-29,105-24,145,16c33,33,43,56,26,56c-5,0-14-11-21-24c-25-46-96-61-131-26
		c-15,15-20,33-20,70v50h90c99,0,104,4,75,60C5825,5507,5751,5526,5693,5490z M5792,5473c10-9,18-27,18-40c0-22-4-23-60-23
		c-51,0-60,3-60,18C5690,5480,5753,5509,5792,5473z"/>
	<path d="M5948,5503c-39-4-54-23-18-23c19,0,20-7,20-110s-1-110-20-110c-11,0-20-4-20-10s28-10,65-10s65,4,65,10s-9,10-20,10
		c-18,0-20,7-20,70c0,77,15,118,52,144c28,20,33,20,52,0c12-12,16-38,16-114c0-92-1-98-22-105c-20-7-18-9,15-12c20-2,52-2,70,0
		c29,4,30,5,10,12c-22,7-23,13-23,109c0,108-3,117-37,135c-35,18-69,13-102-15l-31-26v26c0,14-3,25-7,24
		C5988,5507,5968,5505,5948,5503z"/>
	<path d="M6303,5500c-27-11-43-40-43-78c0-37,18-52,93-77c72-24,90-45,63-74c-38-42-102-22-143,45c-10,16-12,13-12-27
		c-1-44,1-46,27-47c15-1,46-4,69-8c38-5,46-3,73,24c59,60,28,133-63,146c-25,4-55,15-67,24c-19,16-20,19-5,40c20,28,68,29,95,2
		c11-11,20-24,20-30c0-5,5-10,10-10c6,0,10,15,10,34c0,28-4,34-22,34c-13,1-36,3-53,6C6339,5507,6315,5505,6303,5500z"/>
	<path d="M6585,5491c-48-29-67-57-72-103c-15-135,138-214,219-114c32,38,19,48-16,12c-62-66-128-42-141,52c-12,92,18,152,77,152
		c39,0,52-14,37-38c-23-36,23-71,50-38c20,23,3,62-35,79C6659,5515,6622,5514,6585,5491z"/>
	<path d="M7543,5494c-98-48-99-199-3-249c73-38,170,4,170,72c0,13-6,9-20-14c-55-91-160-63-160,43v44h95c52,0,95,2,95,5
		c0,25-35,78-62,95C7618,5514,7586,5515,7543,5494z M7631,5480c12-7,19-21,19-40c0-30,0-30-60-30c-63,0-68,5-49,43
		C7561,5491,7592,5500,7631,5480z"/>
	<path d="M7792,5502c-40-3-51-22-13-22c17,0,19-11,20-110c2-104,1-110-18-110c-11,0-23-4-26-10c-4-6,20-10,64-10c41,0,71,4,71,10
		s-9,10-20,10c-19,0-20,7-20,119c0,66-3,121-7,123C7838,5504,7816,5504,7792,5502z"/>
	<path d="M8165,5499c-32-18-45-40-45-74c0-41,22-60,85-76c79-19,103-49,67-82c-29-26-77-21-107,10c-14,15-25,33-25,40s-4,13-10,13
		c-5,0-10-20-10-45c0-42,11-58,25-35c4,7,14,5,28-5c58-40,147,7,147,78c0,43-21,62-85,78c-67,16-85,26-85,47c0,46,66,57,105,17
		c14-13,25-29,25-35s4-9,9-6s8,20,6,38c-2,25-7,32-26,34c-13,2-37,6-54,9C8199,5508,8176,5505,8165,5499z"/>
	<path d="M8433,5490c-44-26-54-80-24-120c20-28,20-29,1-35c-33-10-44-42-25-71c8-13,23-24,33-24c12,0,8-7-15-26
		c-81-63,8-143,133-119c83,15,125,113,71,163c-20,19-35,22-110,22c-83,0-111,10-90,31c5,5,38,14,74,20c83,12,114,43,105,101
		c-6,37-5,38,19,32c29-7,48,22,24,37c-19,12-25,11-43-6c-14-14-18-14-45,0C8501,5515,8472,5514,8433,5490z M8518,5478
		c17-17,15-103-3-118c-8-7-25-10-40-6c-22,6-25,11-25,55c0,27,3,56,6,65C8463,5493,8501,5495,8518,5478z M8574,5225
		c46-9,36-77-14-102c-32-16-102-17-122,0c-32,24-23,76,15,95C8498,5240,8502,5240,8574,5225z"/>
	<path d="M8735,5491c-94-57-96-193-4-243c55-29,105-24,145,16c34,34,43,56,24,56c-5,0-10-4-10-10c0-23-52-60-85-60
		c-51,0-75,28-75,90v50h91h92l-7,32c-8,40-23,58-63,75C8799,5515,8771,5513,8735,5491z M8832,5473c10-9,18-27,18-40c0-22-4-23-60-23
		c-53,0-60,2-60,20c0,26,34,60,62,60C8804,5490,8822,5483,8832,5473z"/>
	<path d="M8997,5486c-19-18-27-35-27-59c0-40,21-62,70-72c54-12,100-37,100-55c0-26-33-50-68-50c-32,0-82,41-82,67c0,7-4,13-10,13
		c-5,0-10-20-10-45c0-42,11-58,25-35c4,7,14,5,28-5c36-25,85-19,118,14c57,57,26,131-60,145c-24,4-52,11-62,17c-27,14-24,47,5,60
		c35,16,73,3,91-31c20-39,25-38,25,8c0,31-4,37-22,39c-13,1-39,5-58,8C9031,5511,9020,5507,8997,5486z"/>
	<path d="M9304,5496c-70-31-99-113-66-189c42-95,172-104,218-16c19,39,10,36-30-6s-84-47-116-13c-16,18-20,35-20,98
		c0,85,19,120,65,120c44,0,54-9,48-46c-7-40,18-57,44-31c24,23,9,62-31,81C9375,5513,9345,5514,9304,5496z"/>
	<path d="M9893,5502c-42-3-62-22-23-22c19,0,20-7,20-110s-1-110-20-110c-11,0-20-4-20-10s30-10,71-10c44,0,68,4,64,10
		c-3,6-14,10-23,10c-16,0-17,11-14,119c2,65,0,120-4,122C9939,5503,9916,5504,9893,5502z"/>
	<path d="M10101,5492c-51-26-75-63-75-119c1-63,26-111,69-129c66-27,132-9,160,46c20,40,11,38-29-5c-42-44-85-48-115-9
		c-17,21-21,41-21,94c0,79,23,120,68,120c39,0,48-10,48-50c-1-29,3-36,22-38c46-7,41,62-7,91C10184,5515,10144,5515,10101,5492z"/>
	<path d="M10894,5493c-40-20-74-79-74-130c0-121,162-181,227-84c32,47,21,51-20,7c-27-28-42-36-70-36c-45,0-67,29-70,92l-2,43l93,3
		c75,2,92,6,92,18c0,28-34,73-66,89C10964,5514,10934,5513,10894,5493z M10988,5477c6-6,13-24,17-40l7-27h-61c-56,0-61,2-61,22
		C10890,5478,10960,5511,10988,5477z"/>
	<path d="M4215,4842c-3-3-5-63-5-134c0-121,1-128,20-128c18,0,20,8,22,103l3,102l29-102c40-146,57-146,100,1c14,49,28,91,31,94
		s5-40,5-95c0-80,3-102,15-107c13-5,15,14,15,133v138l-28-5c-25-3-29-10-56-109c-17-62-32-100-36-92s-17,52-30,99s-27,89-31,94
		C4259,4845,4223,4850,4215,4842z"/>
	<path d="M5168,4714c-3-122-1-134,15-134c15,0,17,13,17,129c0,103-3,130-14,134C5173,4848,5171,4827,5168,4714z"/>
	<path d="M5797,4843c-12-11-8-261,4-269c16-9,26,11,24,51c0,19,2,35,5,35s17-20,31-44c14-23,34-43,43-43c21,0,21,2-15,60l-30,49
		l27,39c15,22,24,42,21,45c-9,10-42-13-57-40c-21-40-27-31-25,39C5827,4826,5814,4861,5797,4843z"/>
	<path d="M6626,4843c-13-14-5-33,14-33c11,0,20,6,20,14C6660,4839,6636,4852,6626,4843z"/>
	<path d="M4963,4708c2-111,5-133,17-133c11,0,16,14,18,58l3,57h34c50,0,75,29,75,85c0,54-16,65-94,65h-55L4963,4708z M5070,4795
		c17-21,4-65-19-65c-11,0-26-3-35-6c-13-5-16,2-16,40c0,44,1,46,29,46C5045,4810,5063,4803,5070,4795z"/>
	<path d="M6050,4710c0-123,1-130,20-130s20,7,20,130s-1,130-20,130S6050,4833,6050,4710z"/>
	<path d="M6517,4803c-4-3-7-14-7-24c0-9-6-20-12-23c-10-5-10-7,0-12c8-4,12-29,12-74c0-75,16-104,53-98c28,4,34,28,8,28
		c-19,0-21,6-21,70s2,70,21,70c12,0,19,5,16,13c-2,6-12,11-21,11c-11-1-16,6-16,22C6550,4809,6531,4818,6517,4803z"/>
	<path d="M6720,4785c-5-14-15-25-22-25c-8-1-7-6,5-14c13-10,17-28,17-79c0-72,16-100,53-95c28,4,34,28,8,28c-19,0-21,6-21,70
		s2,70,21,70c12,0,19,5,16,13c-2,6-11,11-21,9c-11-2-16,4-16,23C6760,4818,6733,4818,6720,4785z"/>
	<path d="M7033,4793c-4-10-12-22-20-26c-18-11-17-27,2-27c12,0,15-15,15-74c0-77,12-101,46-94c25,5,28,25,4,31c-18,4-20,13-20,71
		c0,60,2,66,21,66c12,0,19,5,17,13c-3,6-11,12-19,12s-15,10-17,23C7058,4814,7042,4817,7033,4793z"/>
	<path d="M4538,4759c-21-12-24-49-4-49c8,0,16,7,20,15c8,22,43,18,49-4c6-25,0-31-33-31c-53,0-80-68-42-103c12-11,30-15,57-12
		c22,2,44,4,48,4c4,1,7,35,6,77c-2,60-6,81-20,95C4598,4772,4565,4775,4538,4759z M4602,4640c-5-35-19-47-39-34c-24,15-26,29-7,48
		C4580,4678,4606,4670,4602,4640z"/>
	<path d="M4690,4759c0-5,10-27,22-48l22-38l-27-46c-24-44-24-47-7-47c11,0,26,13,35,30s18,30,20,30s11-13,19-29c14-27,56-50,56-30
		c0,5-11,28-26,50l-25,40l25,44c14,26,20,47,15,51c-13,7-37-12-44-37c-9-27-22-24-40,11C4720,4769,4690,4782,4690,4759z"/>
	<path d="M5266,4748c-9-12-16-26-16-30c0-14,29-8,38,8c13,23,46,13,50-14c3-18-1-22-23-22c-47,0-65-17-65-59c0-49,15-61,75-57l48,2
		l-2,85c-1,65-6,87-18,97C5326,4778,5283,4773,5266,4748z M5340,4646c0-28-24-51-45-42c-32,12-10,66,27,66
		C5334,4670,5340,4662,5340,4646z"/>
	<path d="M5437,4763c-4-3-7-46-7-95c0-72,3-88,15-88s15,13,15,61c0,68,12,99,39,99c25,0,31-19,31-101c0-55,3-69,15-69
		c22,0,22,162-1,184c-18,19-38,20-65,6c-13-7-19-7-19,0C5460,4771,5447,4773,5437,4763z"/>
	<path d="M5639,4751c-21-16-24-28-24-79c1-67,21-102,59-102c30,0,66,28,66,51c0,25-30,25-37-1c-6-24-38-27-47-4c-3,9-6,37-6,64
		c0,56,25,77,49,41c17-26,41-27,41-3s-31,52-57,52C5671,4770,5652,4761,5639,4751z"/>
	<path d="M6152,4675c4-113,20-126,30-24c7,79,19,100,46,83c13-8,18-30,22-85c3-41,10-74,15-74c11,0,19,127,10,162c-6,27-45,39-73,24
		c-14-7-23-8-27-1C6157,4789,6150,4762,6152,4675z"/>
	<path d="M6352,4754c-36-25-26-63,23-91c44-25,54-56,18-61c-14-2-23,3-28,17c-10,32-37,27-33-6c4-34,44-52,86-37c23,8,27,15,27,49
		c0,36-4,42-37,60c-41,22-52,55-18,55c11,0,23-7,26-15c9-22,34-18,34,5C6450,4767,6391,4782,6352,4754z"/>
	<path d="M6628,4675c-2-54-1-98,2-100s12,0,18,4c17,10,12,183-5,188C6635,4770,6630,4743,6628,4675z"/>
	<path d="M6837,4763c-12-19-5-149,9-170c15-24,58-31,69-13c5,8,11,8,19,1c22-18,26-1,26,97c0,70-3,93-12,90s-14-30-16-75
		c-3-73-17-101-46-90c-11,5-16,27-18,83c-2,47-7,79-15,81C6847,4769,6840,4767,6837,4763z"/>
	<path d="M7159,4751c-20-16-24-28-24-79c0-70,21-102,67-102c27,0,68,30,68,49c0,22-24,22-40,1c-23-30-54-23-58,13c-3,26-2,27,49,27
		h52l-6,42C7258,4768,7208,4791,7159,4751z M7229,4718c11-30,6-38-30-38c-29,0-35,12-23,44C7185,4748,7219,4743,7229,4718z"/>
	<path d="M5332,4400c-27-11-45-55-37-87c3-14,28-38,60-59c55-35,67-58,43-82c-23-23-59-14-71,18c-15,38-37,39-37,2c0-39,28-62,77-62
		s73,23,73,72c0,37-10,49-85,101c-35,25-31,61,8,65c22,3,30-1,34-17c7-26,43-28,43-3C5440,4392,5381,4420,5332,4400z"/>
	<path d="M4227,4393c-4-3-7-21-7-40c0-23-5-33-15-33c-8,0-15-7-15-15s6-14,13-12c9,1,12-20,13-78c1-65,5-81,18-83c14-3,16,8,16,77
		c0,65,3,81,15,81c8,0,15,7,15,15s-7,15-15,15c-24,0-19,51,5,57c11,3,17,9,14,14C4278,4401,4236,4403,4227,4393z"/>
	<path d="M4830,4264c0-122,2-135,17-132c14,2,17,16,19,72c3,73,18,102,47,90c14-5,17-20,17-85c0-64,3-79,15-79s15,16,15,83
		c0,45-4,88-9,95c-9,15-37,18-68,8c-21-7-22-5-19,25c5,40-2,59-20,59C4833,4400,4830,4374,4830,4264z"/>
	<path d="M5670,4385c0-8,9-15,20-15s20,7,20,15s-9,15-20,15S5670,4393,5670,4385z"/>
	<path d="M6781,4378c-5-13-6-27-3-32s-3-15-13-22c-14-10-15-17-7-27c6-7,12-46,14-87c2-59,6-75,18-75s16,17,18,78c2,59,6,77,17,77
		c8,0,15,7,15,15s-7,15-15,15c-9,0-15,9-15,24c0,13,7,26,15,30c24,9,17,26-10,26C6798,4400,6787,4393,6781,4378z"/>
	<path d="M6970,4265c0-125,2-136,18-133c13,2,18,15,20,61l3,57h39h40v-60c0-53,2-60,20-60c19,0,20,7,20,135s-1,135-20,135
		c-18,0-20-7-20-55v-55h-42h-43v52c0,42-4,53-17,56C6972,4401,6970,4390,6970,4265z"/>
	<path d="M8092,4268c3-117,5-133,21-136c15-3,17,5,17,57v61h45h45v-60c0-47,3-60,15-60c13,0,15,22,15,135s-2,135-15,135
		c-12,0-15-13-15-55v-55h-45h-45v55c0,49-2,55-20,55C8090,4400,8090,4395,8092,4268z"/>
	<path d="M8310,4385c0-8,9-15,20-15s20,7,20,15s-9,15-20,15S8310,4393,8310,4385z"/>
	<path d="M4733,4363c-7-2-13-13-13-24s-7-19-16-19s-14-6-11-12c2-7,10-12,16-10c7,1,11-22,11-71c0-78,9-97,46-97c31,0,41,20,15,27
		c-19,5-21,13-21,74c0,57,3,67,15,63c9-4,15,0,15,10c0,9-7,16-15,16c-9,0-15,9-15,25C4760,4370,4756,4373,4733,4363z"/>
	<path d="M8593,4363c-7-3-13-13-13-24c0-10-7-19-15-19s-15-7-15-15s7-15,15-15c11,0,15-18,17-77l3-78l33-3c36-4,47,22,12,31
		c-17,4-20,14-20,65s3,60,20,65c26,7,26,27,1,27c-13,0-21,8-23,23C8606,4357,8600,4365,8593,4363z"/>
	<path d="M4561,4321c-7-5-22-6-32-4c-18,5-19-1-19-91c0-77,3-96,15-96c11,0,15,17,17,72c3,66,5,74,28,85c25,12,33,34,15,40
		C4580,4328,4569,4326,4561,4321z"/>
	<path d="M5062,4322c-27-4-50-49-47-90c1-15,3-37,3-49c4-53,86-74,116-31c9,12,16,26,16,30c0,15-38,8-44-8c-3-9-15-14-28-12
		c-17,2-23,10-23,28c0,23,3,25,43,22c49-2,58,9,48,62C5139,4311,5107,4329,5062,4322z M5108,4267c3-24,0-27-27-27c-23,0-31,5-31,18
		C5050,4304,5103,4313,5108,4267z"/>
	<path d="M5810,4322c-37-12-50-35-50-91c0-72,19-101,65-101c35,0,65,21,65,46c0,18-24,18-40-1c-18-22-47-18-53,7c-9,32-2,37,48,32
		l45-3v37C5890,4304,5855,4336,5810,4322z M5850,4281c17-32,12-41-25-41c-39,0-39-1-25,34C5811,4305,5835,4308,5850,4281z"/>
	<path d="M6016,4322c-3-3-22-5-41-4l-36,1l3-92c3-78,6-92,21-95s17,5,17,71c0,78,12,103,44,91c13-5,16-21,16-86c0-69,2-79,17-76
		c14,3,16,16,14,88c-1,46-4,87-7,91C6059,4320,6022,4329,6016,4322z"/>
	<path d="M6180,4323c-38-6-50-30-50-98c0-47,4-66,18-78c37-34,102-12,102,34c0,10-7,19-15,19s-15-7-15-15c0-9-7-18-16-22
		c-24-9-44,23-44,68c0,55,45,94,57,49c7-27,35-26,31,1S6212,4328,6180,4323z"/>
	<path d="M6331,4314c-37-26-40-134-5-169c24-23,80-19,98,7c9,12,16,26,16,30c0,15-38,8-44-8c-10-26-50-13-54,17c-3,25-1,26,45,25
		l48-1l-1,43c-1,50-2,51-48,62C6361,4325,6345,4324,6331,4314z M6387,4292c6-4,13-16,15-27c2-16-3-21-29-23c-27-3-33,0-33,15
		c0,18,18,43,30,43C6373,4300,6380,4296,6387,4292z"/>
	<path d="M7437,4324c-4-4-20-7-37-6l-30,1v-95c0-77,3-94,15-94s15,14,15,68c0,75,15,107,43,96c14-5,17-20,17-85c0-64,3-79,15-79
		s15,15,15,74c0,81,15,111,45,86c11-9,15-33,15-86c0-59,3-74,15-74s15,16,15,83c0,93-7,110-44,108c-14-1-34-2-43-3c-10,0-25,2-34,6
		C7451,4328,7441,4328,7437,4324z"/>
	<path d="M7886,4323c-3-4-22-6-42-5c-33,1-36-1-30-21c3-12,6-55,6-94c0-58,3-73,15-73s15,15,15,74c0,77,12,102,44,90
		c13-5,16-21,16-86c0-69,2-79,17-76c14,2,17,16,19,65c1,35-1,75-5,89C7934,4312,7899,4335,7886,4323z"/>
	<path d="M8441,4320c-59-14-57-77,3-105c43-21,50-55,11-55c-16,0-25,6-25,15c0,8-9,15-20,15s-20-6-20-14c0-44,82-63,115-26
		c26,29,12,65-35,92c-42,24-51,44-24,55c10,4,22-1,30-12c18-24,49-13,35,14C8499,4321,8474,4329,8441,4320z"/>
	<path d="M8730,4321c-36-10-52-47-46-109c6-67,18-82,67-82c50,0,69,27,69,98c0,43-5,58-25,77C8769,4332,8769,4332,8730,4321z
		 M8768,4291c19-11,27-83,12-110c-7-15-19-21-33-19c-19,3-22,10-25,56C8718,4285,8735,4312,8768,4291z"/>
	<path d="M4330,4301c-5-11-10-46-10-79c0-70,18-92,73-92c27,0,39,6,49,23c15,28,14,133-2,152C4421,4328,4343,4325,4330,4301z
		 M4409,4286c7-8,11-37,9-68c-3-47-6-53-27-56c-30-5-41,12-41,65C4350,4285,4383,4318,4409,4286z"/>
	<path d="M5510,4301c-5-11-10-46-10-79c0-44,5-63,18-75c37-34,102-12,102,34c0,25-26,25-33-1c-6-24-42-27-51-4c-11,29-6,90,9,110
		c15,19,15,19,34-3c23-28,41-30,41-5c0,28-21,42-62,42C5531,4320,5518,4315,5510,4301z"/>
	<path d="M5670,4225c0-88,1-95,20-95s20,7,20,95s-1,95-20,95S5670,4313,5670,4225z"/>
	<path d="M6590,4301c-5-11-10-46-10-79c0-68,18-92,68-92c47,0,62,22,62,91c0,83-10,99-65,99C6611,4320,6598,4315,6590,4301z
		 M6668,4288c13-13,16-85,6-112c-3-9-16-16-29-16s-26,7-29,16c-12,30-6,93,10,108C6645,4303,6652,4304,6668,4288z"/>
	<path d="M7190,4236c0-59,4-87,14-95c14-12,106-10,106,2c0,4,0,45,0,92c0,68-3,85-15,85c-11,0-15-18-17-77c-3-76-4-78-28-78
		s-25,2-28,78c-2,59-6,77-17,77C7193,4320,7190,4303,7190,4236z"/>
	<path d="M7650,4305c-7-8-9-23-5-32c6-16,8-15,24,6c21,28,51,23,51-9c0-15-7-20-25-20c-49,0-79-55-55-100c8-16,21-19,65-18l55,2v73
		c0,95-9,113-59,113C7679,4320,7657,4314,7650,4305z M7716,4174c-7-18-42-18-49,0c-6,16,11,42,33,48C7716,4227,7726,4199,7716,4174z
		"/>
	<path d="M8310,4225c0-78,3-95,15-95s15,17,15,95s-3,95-15,95S8310,4303,8310,4225z"/>
	<path d="M8872,4226c2-72,6-91,18-91c11,0,13,12,11,50c-3,64,12,105,39,105c11,0,20,6,20,14c0,10-13,14-45,14l-46-1L8872,4226z"/>
	<path d="M8995,4303c3-10,18-53,32-96c20-64,23-83,14-109c-14-39-14-38,3-38c20,0,22,3,61,132c40,130,40,128,20,128
		c-13,0-45-82-45-117c0-34-19-6-35,52c-14,52-21,65-37,65C8993,4320,8990,4316,8995,4303z"/>
</g>
</svg>
