<?xml version="1.0" standalone="no"?>
<!DOCTYPE svg PUBLIC "-//W3C//DTD SVG 20010904//EN"
 "http://www.w3.org/TR/2001/REC-SVG-20010904/DTD/svg10.dtd">
<svg version="1.0" xmlns="http://www.w3.org/2000/svg"
 width="1200.000000pt" height="712.000000pt" viewBox="0 0 1200.000000 712.000000"
 preserveAspectRatio="xMidYMid meet">

<g transform="translate(0.000000,712.000000) scale(0.100000,-0.100000)"
fill="#000000" stroke="none">
<path d="M1969 5125 c-631 -86 -1166 -529 -1367 -1130 -65 -195 -77 -277 -77
-530 0 -204 3 -242 23 -333 74 -329 218 -600 443 -833 365 -377 894 -562 1411
-494 188 24 328 66 505 150 477 226 811 651 925 1175 20 92 23 133 23 335 0
253 -13 339 -76 530 -251 756 -1023 1237 -1810 1130z m517 -64 c604 -111 1110
-574 1269 -1161 76 -281 74 -624 -6 -893 -153 -515 -548 -919 -1064 -1086
-656 -213 -1379 18 -1795 574 -212 283 -320 609 -320 967 0 170 11 263 47 403
90 351 300 668 583 885 248 189 481 282 845 334 70 10 335 -4 441 -23z"/>
<path d="M2044 4930 c-471 -50 -901 -330 -1131 -735 -44 -78 -105 -218 -128
-291 -57 -181 -80 -437 -55 -617 56 -417 285 -791 634 -1038 74 -53 90 -58
100 -33 4 11 -9 33 -39 66 -26 26 -61 79 -78 116 -27 58 -32 78 -32 147 0 69
4 88 29 137 l29 57 41 -32 c67 -52 117 -100 133 -131 33 -62 12 -155 -42 -190
-15 -10 -33 -33 -41 -51 -19 -45 -5 -80 41 -102 19 -9 35 -22 35 -29 0 -21 68
-73 112 -86 24 -6 60 -23 80 -36 l38 -25 347 2 c309 1 489 -7 576 -25 38 -8
45 17 19 70 -12 23 -28 62 -37 85 -17 50 -20 187 -5 242 l10 37 108 4 c84 3
119 9 162 28 128 55 164 109 153 234 -6 76 -5 78 24 109 26 27 30 40 31 87 0
30 -6 76 -15 102 -20 64 -9 81 73 108 89 30 108 50 101 105 -4 24 -25 83 -48
132 -90 193 -109 244 -109 293 0 33 -11 75 -35 130 -32 77 -33 84 -19 106 11
16 14 33 8 56 -4 18 -7 52 -6 75 2 32 -2 45 -20 60 -13 10 -38 38 -57 62 -29
37 -32 46 -22 67 15 35 14 76 -5 102 -19 28 -68 29 -109 2 -16 -11 -38 -20
-48 -20 -16 0 -16 2 -1 25 26 39 10 48 -72 42 -41 -3 -76 -2 -79 3 -3 5 -1 30
5 56 8 37 29 68 103 153 50 58 94 108 97 111 38 36 36 38 -71 89 -259 123
-518 169 -785 141z m277 -51 c116 -11 230 -36 334 -72 68 -24 184 -73 193 -82
4 -4 -48 -66 -144 -174 -10 -11 -22 -9 -75 12 -301 120 -664 106 -954 -37
-392 -194 -640 -567 -662 -997 -14 -277 60 -533 216 -749 33 -47 59 -90 57
-97 -30 -79 -25 -228 10 -295 14 -28 14 -29 -3 -19 -33 17 -216 214 -262 281
-107 157 -197 365 -237 550 -15 67 -19 126 -19 275 1 181 2 196 33 316 48 186
108 325 205 468 236 350 627 583 1042 620 132 12 153 12 266 0z m-23 -290 c53
-5 124 -17 157 -25 75 -19 205 -66 205 -75 0 -4 -13 -12 -29 -19 -25 -10 -40
-9 -93 9 -279 92 -565 73 -823 -55 -485 -239 -714 -804 -535 -1321 33 -96 95
-217 141 -274 26 -33 28 -40 17 -58 -7 -12 -16 -21 -20 -21 -13 0 -104 137
-141 212 -214 436 -129 955 213 1299 47 47 124 111 171 142 187 124 350 175
622 196 10 0 61 -4 115 -10z m11 -109 c77 -10 216 -45 240 -59 11 -7 10 -14
-8 -39 -11 -16 -25 -40 -30 -53 -9 -23 -10 -22 -10 9 -1 40 -15 41 -72 2 -48
-32 -84 -79 -104 -136 l-12 -36 -6 31 c-8 38 -20 39 -68 5 -45 -31 -86 -91
-98 -142 -8 -37 -10 -36 -26 14 -5 15 -8 15 -33 -1 -55 -35 -102 -105 -117
-174 l-7 -34 -14 33 -15 34 -40 -40 c-48 -46 -68 -82 -85 -149 -7 -27 -13 -43
-13 -34 -1 9 -8 23 -17 30 -35 29 -123 -110 -124 -195 l-1 -31 -15 28 c-8 15
-18 27 -23 27 -5 0 -25 -24 -44 -52 -38 -56 -63 -134 -54 -168 7 -26 0 -25
-23 3 -19 22 -19 22 -35 2 -36 -45 -69 -130 -69 -182 -1 -31 -4 -46 -9 -37
-20 36 -48 11 -82 -71 l-23 -56 -30 73 c-55 135 -67 206 -66 388 1 184 14 254
77 399 178 410 622 667 1056 611z m361 -49 c-16 -59 -43 -101 -90 -145 -78
-73 -86 -59 -32 54 17 35 43 67 70 87 53 40 63 41 52 4z m145 -81 c19 -31
-126 -110 -202 -110 l-36 0 24 26 c38 41 77 66 127 79 59 17 79 18 87 5z
m-342 -53 c-8 -46 -44 -105 -94 -155 -52 -51 -59 -41 -34 45 13 44 29 70 65
106 53 53 73 54 63 4z m511 -13 c9 -25 7 -33 -14 -54 l-21 -21 62 -72 c34 -39
66 -73 71 -75 4 -2 8 -12 8 -22 0 -14 -11 -22 -37 -29 -242 -64 -338 -102
-449 -179 -54 -36 -132 -110 -199 -187 -14 -16 -74 -101 -131 -188 -58 -86
-109 -159 -113 -161 -3 -2 -19 7 -35 21 l-29 25 18 31 c160 276 519 688 765
876 69 53 94 61 104 35z m-165 -13 c10 -6 2 -19 -35 -52 -120 -108 -204 -193
-309 -314 -141 -162 -206 -246 -320 -413 -81 -121 -91 -132 -119 -132 -42 0
-88 -30 -117 -76 -25 -41 -31 -121 -15 -200 8 -39 6 -44 -28 -81 -40 -45 -43
-53 -20 -53 9 0 31 16 49 36 24 26 35 32 41 23 10 -16 -55 -73 -155 -137 -65
-42 -71 -47 -48 -50 31 -4 144 56 200 107 21 18 39 32 41 30 17 -20 26 -58 26
-112 0 -36 9 -109 20 -162 37 -181 29 -195 -113 -195 -90 0 -222 -24 -233 -42
-13 -21 13 -26 66 -12 32 8 102 14 173 14 112 0 119 1 142 25 31 30 32 60 5
197 -11 57 -20 122 -20 145 0 42 0 42 25 31 14 -6 28 -23 31 -37 3 -14 17 -62
29 -106 36 -119 48 -215 36 -263 -19 -70 -39 -75 -253 -60 -109 7 -181 7 -235
0 -43 -6 -81 -7 -86 -3 -4 4 -1 27 8 50 8 24 15 55 15 69 0 45 -43 112 -122
190 -43 42 -78 80 -78 84 0 4 10 8 23 8 83 0 181 59 218 131 31 62 27 69 -38
69 l-58 1 38 13 c56 20 102 55 131 100 33 51 33 74 0 82 l-26 7 36 16 c62 29
126 103 126 146 0 11 -10 15 -36 15 -40 0 -38 15 5 25 58 13 151 115 137 151
-3 8 -16 14 -28 15 -14 0 -1 8 32 19 89 30 195 158 133 161 -13 0 -11 3 7 11
106 46 150 79 171 130 9 22 9 32 1 37 -7 4 7 12 31 18 60 16 126 68 146 113
13 31 26 42 69 60 34 14 68 40 100 74 26 29 63 59 82 66 19 7 44 20 55 27 23
15 26 16 44 4z m-189 -70 c0 -35 -156 -111 -228 -111 -26 0 -26 0 13 40 21 22
57 49 79 60 42 20 136 28 136 11z m-350 -41 c0 -23 -9 -59 -20 -81 -22 -43
-87 -119 -101 -119 -13 0 -11 40 6 97 14 47 85 143 106 143 5 0 9 -18 9 -40z
m16 -95 c-3 -8 -10 -15 -15 -15 -5 0 -4 11 2 25 12 25 23 16 13 -10z m145 -22
c-28 -53 -118 -101 -204 -109 l-52 -5 57 54 c58 56 98 74 171 76 33 1 37 -1
28 -16z m-338 -22 c11 -52 -31 -148 -87 -200 -24 -23 -26 -23 -27 -5 -2 49 4
102 16 130 13 32 72 104 85 104 4 0 10 -13 13 -29z m45 -105 c12 -7 8 -11 -18
-22 -42 -18 -41 -18 -24 14 7 15 14 34 15 42 1 9 3 7 6 -5 3 -11 12 -24 21
-29z m942 18 c0 -8 -5 -12 -10 -9 -6 4 -8 11 -5 16 9 14 15 11 15 -7z m-50 -2
c0 -18 -39 -43 -75 -49 -34 -6 -37 -4 -33 18 2 15 12 26 28 30 36 10 80 10 80
1z m-160 -34 c0 -42 -79 -108 -129 -108 -20 0 -21 4 -15 38 8 46 9 47 64 66
55 18 80 20 80 4z m-945 -50 c4 -28 1 -58 -9 -86 -19 -54 -74 -134 -87 -127
-14 9 -11 121 4 158 15 36 64 97 77 97 5 0 12 -19 15 -42z m335 34 c0 -5 -16
-25 -37 -45 -42 -42 -125 -77 -185 -77 l-42 0 49 50 c27 27 67 56 89 64 45 16
126 21 126 8z m793 -14 c61 -147 77 -195 77 -229 0 -44 28 -121 97 -269 79
-168 78 -175 -27 -215 -39 -15 -78 -34 -86 -43 -16 -15 -16 -58 0 -94 5 -12 1
-18 -14 -23 -12 -4 -39 -22 -60 -41 -21 -19 -49 -35 -64 -36 -32 -3 -35 -18
-2 -18 21 0 58 22 94 57 14 13 62 18 62 6 0 -3 -7 -15 -17 -25 -15 -17 -15
-19 1 -37 15 -16 15 -20 1 -31 -14 -11 -38 -10 -82 7 -16 6 -16 5 -4 -10 7 -9
21 -17 31 -17 26 0 31 -11 15 -34 -10 -14 -15 -47 -15 -102 0 -68 -4 -86 -21
-108 -77 -98 -265 -131 -432 -75 -107 36 -292 164 -407 283 -37 39 -44 51 -42
81 2 19 -2 35 -8 35 -5 0 -10 -4 -10 -10 0 -5 -11 -17 -25 -26 -23 -15 -27
-15 -49 -1 -13 9 -33 35 -46 59 -12 23 -34 56 -48 73 -14 16 -31 45 -39 64
-19 45 -18 142 1 180 20 37 62 71 90 71 55 0 110 -65 123 -146 3 -19 9 -36 13
-39 17 -11 65 -13 81 -4 15 7 23 5 36 -12 37 -44 101 -61 144 -39 25 14 47 57
60 122 6 29 22 64 35 78 53 57 66 131 37 219 -18 58 -8 101 24 101 28 0 89 46
113 85 14 22 29 35 43 35 35 0 124 46 142 73 12 18 28 26 64 31 26 3 56 13 67
21 24 18 40 19 47 3z m-383 -78 c0 -53 -58 -127 -106 -136 -20 -4 -36 -14 -39
-25 -4 -10 -15 -24 -27 -30 -24 -13 -68 -4 -68 14 0 22 93 113 159 156 73 47
81 49 81 21z m-708 -20 c1 -14 10 -28 18 -31 11 -5 5 -11 -20 -21 -19 -8 -36
-15 -37 -14 -1 1 5 23 14 49 17 52 19 54 25 17z m-192 -136 c0 -39 -8 -68 -32
-115 -36 -69 -52 -81 -62 -47 -20 74 -3 153 48 221 19 26 21 27 33 11 7 -10
13 -41 13 -70z m320 70 c0 -18 -47 -67 -83 -88 -32 -19 -130 -46 -164 -46 -2
0 -3 6 -3 13 0 20 80 94 120 111 34 15 130 22 130 10z m-284 -119 c-6 -32 -5
-35 16 -35 19 -1 17 -3 -11 -16 -19 -8 -35 -13 -36 -12 -3 6 26 98 32 98 3 0
2 -16 -1 -35z m618 -61 c14 -37 5 -66 -38 -112 -47 -51 -66 -82 -66 -106 0
-14 3 -14 20 -4 11 7 23 21 26 30 3 10 25 32 50 50 44 32 57 56 58 113 1 43
29 44 44 2 25 -68 16 -100 -49 -178 -34 -40 -39 -54 -39 -96 0 -67 -21 -96
-63 -87 -18 3 -41 18 -53 31 -12 15 -30 26 -46 26 -24 0 -25 1 -12 26 8 15 14
57 14 98 0 69 1 73 46 132 42 56 79 91 95 91 4 0 10 -7 13 -16z m-806 -19 c21
-47 15 -126 -15 -185 -16 -30 -33 -56 -39 -57 -21 -7 -40 67 -35 137 1 28 57
130 70 130 4 0 13 -11 19 -25z m315 19 c16 -16 -40 -80 -96 -110 -35 -19 -138
-37 -149 -26 -11 11 57 89 93 107 48 26 138 42 152 29z m-266 -106 c-3 -8 -6
-5 -6 6 -1 11 2 17 5 13 3 -3 4 -12 1 -19z m28 -70 c-16 -6 -36 -15 -42 -21
-9 -7 -13 -5 -13 5 0 22 10 28 49 27 l36 -1 -30 -10z m135 -16 c0 -25 -56 -83
-102 -106 -50 -25 -148 -37 -148 -18 0 20 40 65 88 99 37 26 162 46 162 25z
m-338 -49 c15 -35 19 -58 15 -95 -6 -50 -44 -130 -62 -132 -17 -2 -45 67 -45
113 0 45 45 161 62 161 5 0 18 -21 30 -47z m744 -5 c-7 -37 -32 -78 -46 -78
-17 0 -11 41 11 76 26 43 44 44 35 2z m-688 -76 c-3 -22 2 -27 24 -32 27 -5
27 -5 -13 -22 -36 -15 -40 -15 -35 -2 3 9 6 34 6 55 0 25 4 38 10 34 6 -4 9
-18 8 -33z m172 -57 c0 -4 -7 -19 -15 -36 -23 -43 -89 -86 -148 -98 -97 -18
-106 -10 -58 56 25 35 57 56 111 76 20 7 110 8 110 2z m-330 -103 c5 -20 10
-51 10 -68 0 -35 -24 -109 -42 -131 -17 -21 -45 10 -63 69 -12 42 -12 55 1
105 8 32 22 69 31 82 l16 25 18 -23 c10 -12 23 -39 29 -59z m46 -37 c-6 -17
15 -25 72 -26 26 -1 38 -3 27 -6 -37 -8 -80 -26 -97 -41 -17 -14 -18 -11 -18
42 0 38 4 55 11 51 6 -4 8 -13 5 -20z m201 -61 c5 -14 -52 -85 -80 -101 -66
-38 -167 -49 -167 -19 0 22 51 86 82 102 55 29 158 40 165 18z m664 -266 c87
-78 195 -147 279 -178 33 -12 60 -28 60 -36 0 -7 -7 -39 -15 -71 -21 -80 -19
-178 5 -248 11 -32 18 -60 16 -63 -3 -2 -30 2 -62 8 -63 13 -205 15 -378 4
l-109 -7 6 33 c4 18 7 39 7 46 0 8 10 14 24 14 28 0 74 43 83 78 3 15 -2 48
-12 77 -15 44 -15 58 -5 90 15 47 7 117 -31 252 -16 57 -29 115 -29 130 0 27
1 26 43 -18 24 -24 77 -74 118 -111z m-515 -437 c-1 -68 3 -104 12 -112 18
-19 15 -39 -7 -39 -60 0 -85 46 -85 151 0 41 4 81 8 87 4 7 22 12 40 12 l33 0
-1 -99z m185 57 c7 -47 32 -84 69 -103 69 -36 3 -115 -96 -115 -70 0 -123 92
-109 188 11 73 11 73 74 70 l56 -3 6 -37z m192 5 c11 -67 -36 -103 -95 -72
-20 11 -54 77 -43 87 3 3 24 5 48 4 23 -1 49 2 57 8 23 15 27 12 33 -27z
m-628 -5 c-9 -42 -9 -42 -34 -28 -26 13 -27 35 -3 49 33 20 44 13 37 -21z
m125 -53 c0 -83 -1 -85 -24 -85 -64 0 -87 137 -27 159 50 18 51 17 51 -74z"/>
<path d="M2215 4850 c-4 -6 -9 -47 -12 -91 -5 -66 -3 -79 9 -79 16 0 28 56 28
131 0 38 -13 58 -25 39z"/>
<path d="M1960 4819 c0 -48 25 -151 37 -156 24 -9 25 2 9 87 -9 45 -16 84 -16
86 0 2 -7 4 -15 4 -9 0 -15 -9 -15 -21z"/>
<path d="M2441 4743 c-19 -47 -28 -80 -22 -86 14 -14 28 -1 44 46 8 23 22 59
31 80 16 35 15 37 -3 37 -14 0 -26 -19 -50 -77z"/>
<path d="M1722 4771 c-10 -6 -5 -25 25 -84 37 -77 49 -89 59 -63 4 11 -60 156
-69 156 -1 0 -8 -4 -15 -9z"/>
<path d="M2638 4688 c-39 -50 -53 -75 -45 -80 19 -12 19 -12 75 62 47 61 58
90 34 90 -4 0 -33 -33 -64 -72z"/>
<path d="M1483 4659 c-9 -9 -2 -22 27 -53 21 -22 47 -52 58 -66 16 -19 23 -22
33 -13 13 13 3 28 -66 104 -40 44 -37 43 -52 28z"/>
<path d="M1265 4500 c-3 -5 27 -32 66 -59 56 -40 75 -48 86 -40 10 9 -1 21
-56 60 -71 50 -85 56 -96 39z"/>
<path d="M1085 4310 c-4 -7 -3 -15 1 -19 18 -16 147 -62 160 -57 28 11 13 24
-53 49 -38 14 -75 28 -84 32 -10 3 -20 1 -24 -5z"/>
<path d="M945 4080 c-12 -20 7 -27 90 -37 76 -10 94 -6 95 19 0 3 -28 9 -62
13 -35 3 -75 8 -90 11 -14 3 -29 0 -33 -6z"/>
<path d="M898 3843 c-40 -3 -48 -7 -48 -24 0 -18 5 -20 45 -15 25 3 65 8 89
11 25 4 47 12 50 20 6 16 -19 17 -136 8z"/>
<path d="M883 3598 c-49 -18 -83 -36 -83 -44 0 -19 16 -18 100 11 68 23 89 37
90 58 0 12 -20 7 -107 -25z"/>
<path d="M888 3349 c-68 -45 -98 -79 -69 -79 23 0 161 96 161 113 0 9 -3 17
-7 17 -5 0 -43 -23 -85 -51z"/>
<path d="M944 3112 c-72 -81 -75 -84 -65 -101 6 -10 19 -2 49 30 80 88 94 108
85 123 -6 12 -22 0 -69 -52z"/>
<path d="M1069 2928 c-7 -13 -27 -51 -45 -85 -30 -54 -36 -93 -15 -93 8 0 91
161 91 177 0 23 -19 23 -31 1z"/>
<path d="M1181 2733 c-34 -132 -40 -163 -35 -177 10 -26 23 -18 33 22 37 143
40 156 30 174 -14 25 -17 23 -28 -19z"/>
<path d="M2934 3697 c-37 -14 -182 -109 -183 -119 -2 -16 18 -7 90 42 83 57
135 72 154 46 15 -20 25 -21 25 -2 0 14 -37 47 -50 45 -3 0 -19 -6 -36 -12z"/>
<path d="M2977 3611 c-3 -14 -13 -21 -30 -21 -14 0 -62 -25 -108 -55 -46 -30
-91 -55 -101 -55 -23 0 -24 -20 0 -21 9 0 53 -4 97 -8 44 -5 95 -7 113 -4 32
6 32 6 32 63 0 42 4 59 15 64 19 7 19 17 2 41 -13 17 -14 17 -20 -4z m-22 -97
l0 -29 -70 -2 c-66 -3 -69 -2 -50 13 27 22 98 54 110 50 6 -1 10 -16 10 -32z"/>
<path d="M2007 3299 c-48 -28 -64 -145 -27 -203 10 -18 31 -39 46 -46 14 -8
32 -27 40 -42 18 -34 54 -39 54 -7 0 18 -3 19 -15 9 -12 -10 -17 -7 -26 14 -7
14 -15 26 -19 26 -3 0 -23 15 -43 34 -35 32 -37 37 -37 94 0 49 4 66 23 88 45
52 81 7 64 -78 -8 -40 -7 -52 6 -65 20 -20 43 -8 26 13 -7 9 -11 40 -10 78 3
84 -28 116 -82 85z"/>
<path d="M3034 3253 c-12 -47 -8 -93 9 -110 16 -16 22 -15 87 17 38 19 70 37
70 42 0 13 -17 9 -74 -19 -80 -39 -98 -22 -70 69 3 9 0 19 -5 23 -6 3 -14 -7
-17 -22z"/>
<path d="M6242 4592 c-30 -2 -50 -7 -47 -13 4 -5 15 -9 26 -9 10 0 19 -6 20
-12 0 -7 0 -101 0 -208 l0 -195 -28 -6 c-36 -8 -33 -9 55 -13 40 -2 75 0 78 5
3 5 -6 9 -20 9 l-26 0 -2 223 -3 222 -53 -3z"/>
<path d="M7310 4580 c0 -5 9 -10 20 -10 19 0 20 -7 20 -210 0 -209 0 -210 -22
-210 -45 0 -7 -12 47 -15 55 -2 82 8 45 18 -17 4 -20 14 -20 61 0 31 3 56 8
55 15 -1 95 -113 84 -117 -7 -2 -12 -8 -12 -12 0 -7 98 -7 118 -1 2 1 -10 12
-26 26 -16 13 -49 50 -73 81 l-43 56 42 39 c22 22 50 39 62 39 11 0 20 5 20
10 0 6 -25 10 -55 10 -30 0 -55 -4 -55 -10 0 -5 8 -10 18 -10 12 -1 2 -15 -33
-46 l-50 -45 -3 151 -3 150 -44 0 c-25 0 -45 -4 -45 -10z"/>
<path d="M4530 4571 c0 -5 10 -11 23 -13 22 -3 22 -3 22 -203 l0 -199 -25 -6
c-37 -9 -12 -18 42 -16 47 2 82 16 39 16 -12 0 -24 6 -27 13 -2 7 -3 91 -2
187 l3 175 19 -60 c10 -33 36 -118 58 -190 38 -127 51 -155 61 -138 2 4 30 94
62 198 31 105 59 192 61 194 2 2 4 -82 4 -187 l0 -192 -26 0 c-14 0 -23 -3
-21 -7 7 -12 157 -10 157 2 0 5 -9 10 -20 10 -11 0 -20 3 -20 8 0 4 0 95 0
202 l0 195 26 0 c14 0 23 4 19 10 -3 6 -35 10 -70 10 l-63 0 -20 -67 c-11 -38
-31 -104 -43 -148 -12 -44 -25 -83 -29 -88 -4 -4 -27 61 -51 145 l-45 153 -67
3 c-39 2 -67 -1 -67 -7z"/>
<path d="M5840 4571 c0 -6 11 -11 25 -11 l25 0 0 -205 0 -205 -32 0 c-17 0
-29 -3 -25 -6 9 -9 178 -10 183 -2 3 5 -9 8 -25 8 l-31 0 0 88 0 88 69 10 c78
13 113 34 137 83 24 49 6 102 -43 132 -32 20 -54 24 -160 27 -87 3 -123 1
-123 -7z m241 -37 c21 -19 27 -111 9 -144 -11 -21 -60 -40 -101 -40 l-29 0 0
106 0 107 51 -6 c29 -4 60 -14 70 -23z"/>
<path d="M7825 4570 c-4 -6 7 -10 24 -10 l31 0 0 -205 0 -205 -31 0 c-16 0
-28 -3 -26 -7 6 -10 164 -9 173 0 4 4 -5 7 -19 7 l-27 0 0 205 0 205 25 0 c14
0 25 5 25 10 0 6 -35 10 -84 10 -47 0 -88 -4 -91 -10z"/>
<path d="M8890 4556 c-27 -33 18 -72 48 -42 13 13 14 20 6 34 -15 23 -38 26
-54 8z"/>
<path d="M8680 4440 c0 -33 -3 -40 -20 -40 -11 0 -20 -4 -20 -10 0 -5 9 -10
20 -10 19 0 20 -7 20 -109 0 -60 3 -116 6 -125 8 -20 73 -21 100 -2 23 17 13
32 -13 18 -37 -19 -43 -5 -43 109 l0 109 30 0 c17 0 30 5 30 10 0 6 -13 10
-30 10 -28 0 -30 2 -30 40 0 36 -2 40 -25 40 -22 0 -25 -4 -25 -40z"/>
<path d="M9050 4440 c0 -33 -3 -40 -20 -40 -11 0 -20 -4 -20 -10 0 -5 9 -10
20 -10 18 0 20 -8 22 -122 l3 -123 40 -2 c24 -2 48 3 59 12 25 19 15 30 -13
15 -12 -6 -26 -8 -31 -5 -6 3 -10 55 -10 116 l0 109 30 0 c17 0 30 5 30 10 0
6 -13 10 -30 10 -28 0 -30 2 -30 40 0 36 -2 40 -25 40 -22 0 -25 -4 -25 -40z"/>
<path d="M9570 4440 c0 -33 -3 -40 -20 -40 -26 0 -26 -16 0 -23 18 -5 20 -15
22 -123 l3 -119 36 -3 c25 -2 43 3 60 18 20 19 21 21 4 15 -50 -17 -50 -17
-53 103 l-3 112 31 0 c18 0 29 4 25 10 -3 6 -17 10 -31 10 -21 0 -24 4 -24 40
0 36 -2 40 -25 40 -22 0 -25 -4 -25 -40z"/>
<path d="M6496 4402 c-47 -6 -78 -31 -74 -61 2 -19 10 -27 27 -29 22 -4 23 -1
18 31 -5 32 -3 35 25 41 46 9 68 -8 68 -54 0 -34 -3 -40 -21 -40 -39 0 -98
-23 -120 -46 -28 -30 -30 -82 -4 -100 25 -18 95 -18 122 1 18 13 22 13 33 0
19 -23 67 -19 80 6 14 25 3 41 -11 16 -20 -35 -29 -3 -29 103 0 69 -4 111 -11
116 -19 11 -72 20 -103 16z m64 -171 c0 -49 -22 -73 -63 -69 -83 8 -51 105 36
107 25 1 27 -2 27 -38z"/>
<path d="M5098 4389 c-41 -23 -45 -79 -7 -79 25 0 35 26 19 45 -10 12 -8 16
15 25 14 5 32 10 40 10 24 0 45 -30 45 -64 0 -32 -2 -34 -47 -40 -96 -13 -146
-74 -109 -131 14 -21 25 -25 64 -25 27 0 57 7 70 16 20 14 23 14 28 0 9 -23
57 -20 79 4 10 11 15 23 10 28 -4 4 -10 1 -12 -5 -3 -7 -11 -13 -19 -13 -11 0
-14 21 -14 104 0 127 -6 136 -88 136 -31 0 -65 -5 -74 -11z m110 -150 c4 -48
-21 -79 -63 -79 -29 0 -37 5 -45 26 -18 45 18 82 80 83 22 1 26 -4 28 -30z"/>
<path d="M5340 4390 c0 -5 8 -10 18 -10 17 0 71 -70 87 -112 9 -23 -62 -118
-88 -118 -11 0 -17 -3 -13 -7 10 -10 86 -11 92 -1 3 4 -2 8 -10 8 -9 0 -16 2
-16 5 0 6 51 85 55 85 4 0 55 -79 55 -85 0 -3 -7 -5 -17 -5 -9 0 -14 -3 -10
-6 3 -4 31 -6 62 -6 71 1 74 2 48 12 -19 8 -103 118 -103 135 0 20 64 95 80
95 11 0 20 5 20 10 0 6 -22 10 -50 10 -27 0 -50 -4 -50 -10 0 -5 7 -10 15 -10
20 0 19 -6 -6 -41 -29 -41 -31 -40 -67 34 -2 4 4 7 13 7 9 0 13 5 10 10 -3 6
-33 10 -66 10 -33 0 -59 -4 -59 -10z"/>
<path d="M6700 4390 c0 -5 8 -10 18 -10 17 0 19 -9 17 -112 -2 -99 -4 -113
-21 -119 -24 -10 -21 -10 49 -13 32 -2 60 1 63 6 3 4 -5 8 -16 8 -21 0 -22 3
-19 84 4 94 26 138 69 144 39 6 50 -22 50 -125 0 -88 -1 -94 -22 -103 -28 -11
-27 -11 45 -13 33 -1 61 1 64 6 2 4 -5 7 -16 7 -20 0 -21 6 -21 108 0 127 -8
142 -79 142 -33 0 -47 -6 -66 -26 l-25 -27 0 27 c0 24 -3 26 -45 26 -25 0 -45
-4 -45 -10z"/>
<path d="M7101 4387 c-59 -30 -88 -124 -57 -184 26 -51 62 -73 118 -73 41 0
54 5 79 29 16 16 29 37 29 47 0 12 -10 6 -33 -21 -27 -31 -40 -38 -67 -37 -55
1 -75 31 -75 111 0 103 31 142 101 125 18 -5 23 -11 18 -23 -15 -35 -10 -56
15 -59 44 -7 54 36 16 73 -19 20 -34 25 -72 25 -26 0 -59 -6 -72 -13z"/>
<path d="M8060 4390 c0 -5 7 -10 15 -10 12 0 15 -19 15 -115 0 -96 -3 -115
-15 -115 -8 0 -15 -4 -15 -9 0 -10 106 -8 116 2 4 4 0 7 -9 7 -15 0 -17 12
-17 84 0 77 2 87 26 116 20 23 34 30 53 28 l26 -3 3 -112 c2 -101 1 -113 -14
-113 -10 0 -14 -3 -10 -7 10 -10 116 -11 116 -1 0 4 -7 8 -15 8 -12 0 -15 18
-15 103 0 129 -10 147 -80 147 -41 0 -52 -4 -69 -26 l-21 -27 0 27 c0 24 -3
26 -45 26 -25 0 -45 -4 -45 -10z"/>
<path d="M8439 4390 c-9 -5 -22 -23 -29 -39 -19 -46 4 -83 60 -99 87 -26 100
-33 100 -57 0 -50 -72 -66 -115 -25 -14 13 -25 29 -25 37 0 7 -7 13 -15 13
-11 0 -15 -11 -15 -40 0 -36 2 -39 28 -39 15 -1 48 -3 73 -7 61 -8 100 23 102
78 1 46 -22 74 -71 83 -57 11 -102 32 -102 49 0 9 11 23 25 32 33 22 72 11 93
-26 23 -40 32 -38 32 8 l0 38 -62 2 c-35 1 -70 -3 -79 -8z"/>
<path d="M8850 4390 c0 -5 9 -10 20 -10 19 0 20 -7 20 -115 l0 -115 -27 0
c-14 0 -23 -3 -20 -7 9 -9 127 -10 133 -2 2 4 -5 9 -16 12 -19 5 -20 14 -20
126 l0 121 -45 0 c-25 0 -45 -4 -45 -10z"/>
<path d="M9205 4390 c-3 -5 3 -10 14 -10 20 0 21 -6 21 -108 0 -93 3 -111 18
-125 27 -25 106 -23 132 3 25 25 32 25 28 3 -2 -15 5 -19 40 -21 25 -2 42 1
42 7 0 6 -7 11 -15 11 -13 0 -15 21 -15 125 l0 125 -44 0 c-25 0 -48 -4 -51
-10 -3 -5 3 -10 14 -10 20 0 21 -6 21 -90 0 -83 -2 -93 -25 -115 -30 -31 -70
-33 -85 -5 -6 12 -11 58 -10 103 2 137 5 127 -39 127 -22 0 -43 -4 -46 -10z"/>
<path d="M5630 4275 c0 -25 1 -25 80 -25 79 0 80 0 80 25 0 25 -1 25 -80 25
-79 0 -80 0 -80 -25z"/>
<path d="M7612 4278 c3 -22 8 -23 83 -23 75 0 80 1 83 23 3 21 1 22 -83 22
-84 0 -86 -1 -83 -22z"/>
<path d="M7180 3800 c-32 -7 -33 -8 -12 -15 22 -7 22 -9 22 -211 0 -197 -1
-204 -20 -204 -11 0 -20 -4 -20 -10 0 -6 28 -10 65 -10 37 0 65 4 65 10 0 6
-9 10 -20 10 -18 0 -20 7 -20 65 0 75 17 125 51 149 29 20 34 20 53 0 23 -22
23 -214 1 -214 -8 0 -15 -4 -15 -10 0 -6 27 -10 60 -10 33 0 60 4 60 10 0 6
-9 10 -20 10 -19 0 -20 7 -20 109 0 125 -6 136 -77 136 -38 0 -49 -5 -69 -30
l-24 -30 0 128 c0 96 -3 127 -12 126 -7 -1 -29 -5 -48 -9z"/>
<path d="M7493 3797 c-3 -5 4 -11 16 -14 20 -5 21 -11 21 -208 0 -201 0 -203
-22 -210 -21 -7 -20 -8 9 -12 18 -2 50 -2 70 0 30 3 34 5 18 11 -18 6 -20 15
-18 87 1 86 16 123 56 138 12 5 30 5 40 -1 14 -7 17 -24 17 -113 0 -87 -3
-105 -15 -105 -8 0 -15 -4 -15 -10 0 -6 27 -10 60 -10 33 0 60 4 60 10 0 6 -6
10 -14 10 -11 0 -15 24 -18 104 -4 115 -12 132 -63 142 -34 6 -95 -17 -95 -36
0 -6 -3 -10 -7 -10 -5 0 -8 53 -8 117 l0 118 -43 0 c-24 0 -46 -4 -49 -8z"/>
<path d="M9885 3800 c-29 -7 -29 -8 -7 -15 22 -7 22 -9 22 -211 0 -171 -2
-204 -14 -204 -8 0 -18 -4 -21 -10 -4 -6 18 -10 59 -10 37 0 66 4 66 10 0 6
-10 10 -21 10 -21 0 -21 4 -17 79 5 85 23 126 61 140 12 5 30 5 40 -1 14 -7
17 -24 17 -113 0 -87 -3 -105 -15 -105 -8 0 -15 -4 -15 -10 0 -6 27 -10 60
-10 33 0 60 4 60 10 0 6 -9 10 -20 10 -19 0 -20 7 -20 109 0 118 -3 126 -57
137 -34 7 -70 -8 -95 -40 -17 -20 -18 -16 -18 107 0 140 3 134 -65 117z"/>
<path d="M10685 3800 c-29 -7 -29 -8 -7 -15 22 -7 22 -9 22 -211 0 -171 -2
-204 -14 -204 -8 0 -18 -4 -21 -10 -4 -6 18 -10 59 -10 37 0 66 4 66 10 0 6
-10 10 -21 10 -21 0 -22 3 -16 80 6 86 22 125 60 139 12 5 30 5 40 -1 14 -7
17 -24 17 -113 0 -87 -3 -105 -15 -105 -8 0 -15 -4 -15 -10 0 -6 27 -10 60
-10 33 0 60 4 60 10 0 6 -7 10 -15 10 -12 0 -15 18 -15 100 0 94 -2 103 -25
125 -38 39 -96 30 -136 -19 -17 -20 -18 -16 -17 104 0 138 0 138 -67 120z"/>
<path d="M4612 3784 c-33 -23 -53 -69 -54 -125 0 -45 -2 -49 -24 -49 -13 0
-24 -4 -24 -10 0 -5 11 -10 25 -10 l25 0 0 -110 0 -110 -25 0 c-14 0 -25 -4
-25 -10 0 -6 32 -10 75 -10 43 0 75 4 75 10 0 6 -11 10 -25 10 l-25 0 0 110 0
110 25 0 c14 0 25 5 25 10 0 6 -12 10 -26 10 -26 0 -26 0 -22 71 3 61 7 74 28
91 l25 20 5 -23 c7 -30 50 -40 50 -12 0 11 -5 24 -12 31 -17 17 -69 15 -96 -4z"/>
<path d="M5480 3780 c0 -5 11 -10 25 -10 l25 0 0 -200 0 -200 -25 0 c-14 0
-25 -4 -25 -10 0 -6 27 -10 60 -10 33 0 60 4 60 10 0 6 -11 10 -25 10 l-25 0
1 188 c0 106 4 178 8 167 5 -11 32 -100 61 -198 32 -106 57 -176 64 -174 10 3
104 282 114 340 2 15 8 30 13 33 5 3 9 -73 9 -175 l0 -181 -25 0 c-14 0 -25
-4 -25 -10 0 -6 35 -10 86 -10 54 0 83 4 79 10 -3 6 -14 10 -24 10 -25 0 -26
10 -23 218 3 173 4 182 22 182 11 0 20 5 20 10 0 6 -28 10 -65 10 l-64 0 -17
-57 c-9 -32 -30 -103 -46 -158 l-31 -100 -27 85 c-14 47 -35 118 -45 158 l-19
72 -68 0 c-39 0 -68 -4 -68 -10z"/>
<path d="M10256 3772 c-14 -16 -14 -20 0 -40 12 -18 19 -20 35 -12 24 14 25
46 0 59 -14 8 -22 6 -35 -7z"/>
<path d="M8157 3773 c-14 -13 -7 -43 12 -53 23 -12 56 14 47 37 -3 8 -6 17 -6
19 0 7 -46 5 -53 -3z"/>
<path d="M4772 3683 c3 -29 32 -43 50 -25 18 18 -1 52 -28 52 -22 0 -25 -4
-22 -27z"/>
<path d="M4896 3695 c-9 -24 4 -45 29 -45 25 0 38 21 29 45 -4 8 -16 15 -29
15 -13 0 -25 -7 -29 -15z"/>
<path d="M8313 3653 c2 -32 -2 -38 -23 -44 l-25 -7 23 -7 c21 -7 22 -12 22
-115 0 -120 8 -140 60 -140 30 0 80 34 67 46 -4 4 -13 2 -19 -4 -7 -7 -20 -12
-30 -12 -16 0 -18 11 -18 110 0 110 0 110 24 110 14 0 28 5 31 10 4 6 -7 10
-24 10 -29 0 -31 2 -31 40 0 38 -2 40 -29 40 -28 0 -29 -2 -28 -37z"/>
<path d="M11020 3651 c0 -33 -4 -40 -22 -44 l-23 -4 23 -8 c21 -7 22 -12 22
-115 0 -116 9 -140 51 -140 25 0 79 27 79 40 0 13 -17 13 -25 0 -3 -5 -15 -10
-26 -10 -18 0 -19 8 -19 110 l0 110 25 0 c14 0 25 5 25 10 0 6 -11 10 -25 10
-22 0 -25 4 -25 40 0 38 -2 40 -30 40 -28 0 -30 -2 -30 -39z"/>
<path d="M4748 3613 c-39 -4 -54 -23 -18 -23 19 0 20 -7 20 -108 0 -122 9
-142 68 -142 34 0 82 18 82 32 0 4 5 8 10 8 6 0 10 -9 10 -21 0 -15 4 -19 16
-15 9 3 29 6 45 6 16 0 29 5 29 10 0 6 -9 10 -20 10 -19 0 -20 7 -20 126 0
111 -2 125 -16 120 -9 -3 -29 -6 -45 -6 -16 0 -29 -4 -29 -10 0 -5 10 -10 21
-10 21 0 21 -4 17 -89 -3 -56 -9 -95 -18 -106 -21 -26 -58 -37 -81 -25 -17 10
-19 22 -19 130 0 66 -3 119 -7 118 -5 -1 -25 -3 -45 -5z"/>
<path d="M5092 3613 c-41 -4 -51 -23 -11 -23 18 0 19 -8 19 -110 l0 -110 -25
0 c-14 0 -25 -4 -25 -10 0 -6 32 -10 75 -10 43 0 75 4 75 10 0 6 -12 10 -26
10 l-26 0 3 83 c3 60 9 91 23 112 l19 28 16 -22 c21 -27 51 -19 51 14 0 41
-49 47 -85 10 l-25 -24 0 24 c0 14 -3 24 -7 23 -5 -1 -27 -3 -51 -5z"/>
<path d="M6053 3600 c-93 -56 -94 -192 -2 -242 55 -29 105 -24 145 16 33 33
43 56 26 56 -5 0 -14 -11 -21 -24 -25 -46 -96 -61 -131 -26 -15 15 -20 33 -20
70 l0 50 90 0 c99 0 104 4 75 60 -30 57 -104 76 -162 40z m99 -17 c10 -9 18
-27 18 -40 0 -22 -4 -23 -60 -23 -51 0 -60 3 -60 18 0 52 63 81 102 45z"/>
<path d="M6308 3613 c-39 -4 -54 -23 -18 -23 19 0 20 -7 20 -110 0 -103 -1
-110 -20 -110 -11 0 -20 -4 -20 -10 0 -6 28 -10 65 -10 37 0 65 4 65 10 0 6
-9 10 -20 10 -18 0 -20 7 -20 70 0 77 15 118 52 144 28 20 33 20 52 0 12 -12
16 -38 16 -114 0 -92 -1 -98 -22 -105 -20 -7 -18 -9 15 -12 20 -2 52 -2 70 0
29 4 30 5 10 12 -22 7 -23 13 -23 109 0 108 -3 117 -37 135 -35 18 -69 13
-102 -15 l-31 -26 0 26 c0 14 -3 25 -7 24 -5 -1 -25 -3 -45 -5z"/>
<path d="M6663 3610 c-27 -11 -43 -40 -43 -78 0 -37 18 -52 93 -77 72 -24 90
-45 63 -74 -38 -42 -102 -22 -143 45 -10 16 -12 13 -12 -27 -1 -44 1 -46 27
-47 15 -1 46 -4 69 -8 38 -5 46 -3 73 24 59 60 28 133 -63 146 -25 4 -55 15
-67 24 -19 16 -20 19 -5 40 20 28 68 29 95 2 11 -11 20 -24 20 -30 0 -5 5 -10
10 -10 6 0 10 15 10 34 0 28 -4 34 -22 34 -13 1 -36 3 -53 6 -16 3 -40 1 -52
-4z"/>
<path d="M6945 3601 c-48 -29 -67 -57 -72 -103 -15 -135 138 -214 219 -114 32
38 19 48 -16 12 -62 -66 -128 -42 -141 52 -12 92 18 152 77 152 39 0 52 -14
37 -38 -23 -36 23 -71 50 -38 20 23 3 62 -35 79 -45 22 -82 21 -119 -2z"/>
<path d="M7903 3604 c-98 -48 -99 -199 -3 -249 73 -38 170 4 170 72 0 13 -6 9
-20 -14 -55 -91 -160 -63 -160 43 l0 44 95 0 c52 0 95 2 95 5 0 25 -35 78 -62
95 -40 24 -72 25 -115 4z m88 -14 c12 -7 19 -21 19 -40 0 -30 0 -30 -60 -30
-63 0 -68 5 -49 43 20 38 51 47 90 27z"/>
<path d="M8152 3612 c-40 -3 -51 -22 -13 -22 17 0 19 -11 20 -110 2 -104 1
-110 -18 -110 -11 0 -23 -4 -26 -10 -4 -6 20 -10 64 -10 41 0 71 4 71 10 0 6
-9 10 -20 10 -19 0 -20 7 -20 119 0 66 -3 121 -7 123 -5 2 -27 2 -51 0z"/>
<path d="M8525 3609 c-32 -18 -45 -40 -45 -74 0 -41 22 -60 85 -76 79 -19 103
-49 67 -82 -29 -26 -77 -21 -107 10 -14 15 -25 33 -25 40 0 7 -4 13 -10 13 -5
0 -10 -20 -10 -45 0 -42 11 -58 25 -35 4 7 14 5 28 -5 58 -40 147 7 147 78 0
43 -21 62 -85 78 -67 16 -85 26 -85 47 0 46 66 57 105 17 14 -13 25 -29 25
-35 0 -6 4 -9 9 -6 5 3 8 20 6 38 -2 25 -7 32 -26 34 -13 2 -37 6 -54 9 -16 3
-39 0 -50 -6z"/>
<path d="M8793 3600 c-44 -26 -54 -80 -24 -120 20 -28 20 -29 1 -35 -33 -10
-44 -42 -25 -71 8 -13 23 -24 33 -24 12 0 8 -7 -15 -26 -81 -63 8 -143 133
-119 83 15 125 113 71 163 -20 19 -35 22 -110 22 -83 0 -111 10 -90 31 5 5 38
14 74 20 83 12 114 43 105 101 -6 37 -5 38 19 32 29 -7 48 22 24 37 -19 12
-25 11 -43 -6 -14 -14 -18 -14 -45 0 -40 20 -69 19 -108 -5z m85 -12 c17 -17
15 -103 -3 -118 -8 -7 -25 -10 -40 -6 -22 6 -25 11 -25 55 0 27 3 56 6 65 7
19 45 21 62 4z m56 -253 c46 -9 36 -77 -14 -102 -32 -16 -102 -17 -122 0 -32
24 -23 76 15 95 45 22 49 22 121 7z"/>
<path d="M9095 3601 c-94 -57 -96 -193 -4 -243 55 -29 105 -24 145 16 34 34
43 56 24 56 -5 0 -10 -4 -10 -10 0 -23 -52 -60 -85 -60 -51 0 -75 28 -75 90
l0 50 91 0 92 0 -7 32 c-8 40 -23 58 -63 75 -44 18 -72 16 -108 -6z m97 -18
c10 -9 18 -27 18 -40 0 -22 -4 -23 -60 -23 -53 0 -60 2 -60 20 0 26 34 60 62
60 12 0 30 -7 40 -17z"/>
<path d="M9357 3596 c-19 -18 -27 -35 -27 -59 0 -40 21 -62 70 -72 54 -12 100
-37 100 -55 0 -26 -33 -50 -68 -50 -32 0 -82 41 -82 67 0 7 -4 13 -10 13 -5 0
-10 -20 -10 -45 0 -42 11 -58 25 -35 4 7 14 5 28 -5 36 -25 85 -19 118 14 57
57 26 131 -60 145 -24 4 -52 11 -62 17 -27 14 -24 47 5 60 35 16 73 3 91 -31
20 -39 25 -38 25 8 0 31 -4 37 -22 39 -13 1 -39 5 -58 8 -29 6 -40 2 -63 -19z"/>
<path d="M9664 3606 c-70 -31 -99 -113 -66 -189 42 -95 172 -104 218 -16 19
39 10 36 -30 -6 -40 -42 -84 -47 -116 -13 -16 18 -20 35 -20 98 0 85 19 120
65 120 44 0 54 -9 48 -46 -7 -40 18 -57 44 -31 24 23 9 62 -31 81 -41 19 -71
20 -112 2z"/>
<path d="M10253 3612 c-42 -3 -62 -22 -23 -22 19 0 20 -7 20 -110 0 -103 -1
-110 -20 -110 -11 0 -20 -4 -20 -10 0 -6 30 -10 71 -10 44 0 68 4 64 10 -3 6
-14 10 -23 10 -16 0 -17 11 -14 119 2 65 0 120 -4 122 -5 2 -28 3 -51 1z"/>
<path d="M10461 3602 c-51 -26 -75 -63 -75 -119 1 -63 26 -111 69 -129 66 -27
132 -9 160 46 20 40 11 38 -29 -5 -42 -44 -85 -48 -115 -9 -17 21 -21 41 -21
94 0 79 23 120 68 120 39 0 48 -10 48 -50 -1 -29 3 -36 22 -38 46 -7 41 62 -7
91 -37 22 -77 22 -120 -1z"/>
<path d="M11254 3603 c-40 -20 -74 -79 -74 -130 0 -121 162 -181 227 -84 32
47 21 51 -20 7 -27 -28 -42 -36 -70 -36 -45 0 -67 29 -70 92 l-2 43 93 3 c75
2 92 6 92 18 0 28 -34 73 -66 89 -40 19 -70 18 -110 -2z m94 -16 c6 -6 13 -24
17 -40 l7 -27 -61 0 c-56 0 -61 2 -61 22 0 46 70 79 98 45z"/>
<path d="M4575 2952 c-3 -3 -5 -63 -5 -134 0 -121 1 -128 20 -128 18 0 20 8
22 103 l3 102 29 -102 c40 -146 57 -146 100 1 14 49 28 91 31 94 3 3 5 -40 5
-95 0 -80 3 -102 15 -107 13 -5 15 14 15 133 l0 138 -28 -5 c-25 -3 -29 -10
-56 -109 -17 -62 -32 -100 -36 -92 -4 8 -17 52 -30 99 -13 47 -27 89 -31 94
-10 11 -46 16 -54 8z"/>
<path d="M5528 2824 c-3 -122 -1 -134 15 -134 15 0 17 13 17 129 0 103 -3 130
-14 134 -13 5 -15 -16 -18 -129z"/>
<path d="M6157 2953 c-12 -11 -8 -261 4 -269 16 -9 26 11 24 51 0 19 2 35 5
35 3 0 17 -20 31 -44 14 -23 34 -43 43 -43 21 0 21 2 -15 60 l-30 49 27 39
c15 22 24 42 21 45 -9 10 -42 -13 -57 -40 -21 -40 -27 -31 -25 39 2 61 -11 96
-28 78z"/>
<path d="M6986 2953 c-13 -14 -5 -33 14 -33 11 0 20 6 20 14 0 15 -24 28 -34
19z"/>
<path d="M5323 2818 c2 -111 5 -133 17 -133 11 0 16 14 18 58 l3 57 34 0 c50
0 75 29 75 85 0 54 -16 65 -94 65 l-55 0 2 -132z m107 87 c17 -21 4 -65 -19
-65 -11 0 -26 -3 -35 -6 -13 -5 -16 2 -16 40 0 44 1 46 29 46 16 0 34 -7 41
-15z"/>
<path d="M6410 2820 c0 -123 1 -130 20 -130 19 0 20 7 20 130 0 123 -1 130
-20 130 -19 0 -20 -7 -20 -130z"/>
<path d="M6877 2913 c-4 -3 -7 -14 -7 -24 0 -9 -6 -20 -12 -23 -10 -5 -10 -7
0 -12 8 -4 12 -29 12 -74 0 -75 16 -104 53 -98 28 4 34 28 8 28 -19 0 -21 6
-21 70 0 64 2 70 21 70 12 0 19 5 16 13 -2 6 -12 11 -21 11 -11 -1 -16 6 -16
22 0 23 -19 32 -33 17z"/>
<path d="M7080 2895 c-5 -14 -15 -25 -22 -25 -8 -1 -7 -6 5 -14 13 -10 17 -28
17 -79 0 -72 16 -100 53 -95 28 4 34 28 8 28 -19 0 -21 6 -21 70 0 64 2 70 21
70 12 0 19 5 16 13 -2 6 -11 11 -21 9 -11 -2 -16 4 -16 23 0 33 -27 33 -40 0z"/>
<path d="M7393 2903 c-4 -10 -12 -22 -20 -26 -18 -11 -17 -27 2 -27 12 0 15
-15 15 -74 0 -77 12 -101 46 -94 25 5 28 25 4 31 -18 4 -20 13 -20 71 0 60 2
66 21 66 12 0 19 5 17 13 -3 6 -11 12 -19 12 -8 0 -15 10 -17 23 -4 26 -20 29
-29 5z"/>
<path d="M4898 2869 c-21 -12 -24 -49 -4 -49 8 0 16 7 20 15 8 22 43 18 49 -4
6 -25 0 -31 -33 -31 -53 0 -80 -68 -42 -103 12 -11 30 -15 57 -12 22 2 44 4
48 4 4 1 7 35 6 77 -2 60 -6 81 -20 95 -21 21 -54 24 -81 8z m64 -119 c-5 -35
-19 -47 -39 -34 -24 15 -26 29 -7 48 24 24 50 16 46 -14z"/>
<path d="M5050 2869 c0 -5 10 -27 22 -48 l22 -38 -27 -46 c-24 -44 -24 -47 -7
-47 11 0 26 13 35 30 9 17 18 30 20 30 2 0 11 -13 19 -29 14 -27 56 -50 56
-30 0 5 -11 28 -26 50 l-25 40 25 44 c14 26 20 47 15 51 -13 7 -37 -12 -44
-37 -9 -27 -22 -24 -40 11 -15 29 -45 42 -45 19z"/>
<path d="M5626 2858 c-9 -12 -16 -26 -16 -30 0 -14 29 -8 38 8 13 23 46 13 50
-14 3 -18 -1 -22 -23 -22 -47 0 -65 -17 -65 -59 0 -49 15 -61 75 -57 l48 2 -2
85 c-1 65 -6 87 -18 97 -27 20 -70 15 -87 -10z m74 -102 c0 -28 -24 -51 -45
-42 -32 12 -10 66 27 66 12 0 18 -8 18 -24z"/>
<path d="M5797 2873 c-4 -3 -7 -46 -7 -95 0 -72 3 -88 15 -88 12 0 15 13 15
61 0 68 12 99 39 99 25 0 31 -19 31 -101 0 -55 3 -69 15 -69 22 0 22 162 -1
184 -18 19 -38 20 -65 6 -13 -7 -19 -7 -19 0 0 11 -13 13 -23 3z"/>
<path d="M5999 2861 c-21 -16 -24 -28 -24 -79 1 -67 21 -102 59 -102 30 0 66
28 66 51 0 25 -30 25 -37 -1 -6 -24 -38 -27 -47 -4 -3 9 -6 37 -6 64 0 56 25
77 49 41 17 -26 41 -27 41 -3 0 24 -31 52 -57 52 -12 0 -31 -9 -44 -19z"/>
<path d="M6512 2785 c4 -113 20 -126 30 -24 7 79 19 100 46 83 13 -8 18 -30
22 -85 3 -41 10 -74 15 -74 11 0 19 127 10 162 -6 27 -45 39 -73 24 -14 -7
-23 -8 -27 -1 -18 29 -25 2 -23 -85z"/>
<path d="M6712 2864 c-36 -25 -26 -63 23 -91 44 -25 54 -56 18 -61 -14 -2 -23
3 -28 17 -10 32 -37 27 -33 -6 4 -34 44 -52 86 -37 23 8 27 15 27 49 0 36 -4
42 -37 60 -41 22 -52 55 -18 55 11 0 23 -7 26 -15 9 -22 34 -18 34 5 0 37 -59
52 -98 24z"/>
<path d="M6988 2785 c-2 -54 -1 -98 2 -100 3 -2 12 0 18 4 17 10 12 183 -5
188 -8 3 -13 -24 -15 -92z"/>
<path d="M7197 2873 c-12 -19 -5 -149 9 -170 15 -24 58 -31 69 -13 5 8 11 8
19 1 22 -18 26 -1 26 97 0 70 -3 93 -12 90 -9 -3 -14 -30 -16 -75 -3 -73 -17
-101 -46 -90 -11 5 -16 27 -18 83 -2 47 -7 79 -15 81 -6 2 -13 0 -16 -4z"/>
<path d="M7519 2861 c-20 -16 -24 -28 -24 -79 0 -70 21 -102 67 -102 27 0 68
30 68 49 0 22 -24 22 -40 1 -23 -30 -54 -23 -58 13 -3 26 -2 27 49 27 l52 0
-6 42 c-9 66 -59 89 -108 49z m70 -33 c11 -30 6 -38 -30 -38 -29 0 -35 12 -23
44 9 24 43 19 53 -6z"/>
<path d="M5692 2510 c-27 -11 -45 -55 -37 -87 3 -14 28 -38 60 -59 55 -35 67
-58 43 -82 -23 -23 -59 -14 -71 18 -15 38 -37 39 -37 2 0 -39 28 -62 77 -62
49 0 73 23 73 72 0 37 -10 49 -85 101 -35 25 -31 61 8 65 22 3 30 -1 34 -17 7
-26 43 -28 43 -3 0 44 -59 72 -108 52z"/>
<path d="M4587 2503 c-4 -3 -7 -21 -7 -40 0 -23 -5 -33 -15 -33 -8 0 -15 -7
-15 -15 0 -8 6 -14 13 -12 9 1 12 -20 13 -78 1 -65 5 -81 18 -83 14 -3 16 8
16 77 0 65 3 81 15 81 8 0 15 7 15 15 0 8 -7 15 -15 15 -24 0 -19 51 5 57 11
3 17 9 14 14 -6 10 -48 12 -57 2z"/>
<path d="M5190 2374 c0 -122 2 -135 17 -132 14 2 17 16 19 72 3 73 18 102 47
90 14 -5 17 -20 17 -85 0 -64 3 -79 15 -79 12 0 15 16 15 83 0 45 -4 88 -9 95
-9 15 -37 18 -68 8 -21 -7 -22 -5 -19 25 5 40 -2 59 -20 59 -11 0 -14 -26 -14
-136z"/>
<path d="M6030 2495 c0 -8 9 -15 20 -15 11 0 20 7 20 15 0 8 -9 15 -20 15 -11
0 -20 -7 -20 -15z"/>
<path d="M7141 2488 c-5 -13 -6 -27 -3 -32 3 -5 -3 -15 -13 -22 -14 -10 -15
-17 -7 -27 6 -7 12 -46 14 -87 2 -59 6 -75 18 -75 12 0 16 17 18 78 2 59 6 77
17 77 8 0 15 7 15 15 0 8 -7 15 -15 15 -9 0 -15 9 -15 24 0 13 7 26 15 30 24
9 17 26 -10 26 -17 0 -28 -7 -34 -22z"/>
<path d="M7330 2375 c0 -125 2 -136 18 -133 13 2 18 15 20 61 l3 57 39 0 40 0
0 -60 c0 -53 2 -60 20 -60 19 0 20 7 20 135 0 128 -1 135 -20 135 -18 0 -20
-7 -20 -55 l0 -55 -42 0 -43 0 0 52 c0 42 -4 53 -17 56 -16 3 -18 -8 -18 -133z"/>
<path d="M8452 2378 c3 -117 5 -133 21 -136 15 -3 17 5 17 57 l0 61 45 0 45 0
0 -60 c0 -47 3 -60 15 -60 13 0 15 22 15 135 0 113 -2 135 -15 135 -12 0 -15
-13 -15 -55 l0 -55 -45 0 -45 0 0 55 c0 49 -2 55 -20 55 -20 0 -20 -5 -18
-132z"/>
<path d="M8670 2495 c0 -8 9 -15 20 -15 11 0 20 7 20 15 0 8 -9 15 -20 15 -11
0 -20 -7 -20 -15z"/>
<path d="M5093 2473 c-7 -2 -13 -13 -13 -24 0 -11 -7 -19 -16 -19 -9 0 -14 -6
-11 -12 2 -7 10 -12 16 -10 7 1 11 -22 11 -71 0 -78 9 -97 46 -97 31 0 41 20
15 27 -19 5 -21 13 -21 74 0 57 3 67 15 63 9 -4 15 0 15 10 0 9 -7 16 -15 16
-9 0 -15 9 -15 25 0 25 -4 28 -27 18z"/>
<path d="M8953 2473 c-7 -3 -13 -13 -13 -24 0 -10 -7 -19 -15 -19 -8 0 -15 -7
-15 -15 0 -8 7 -15 15 -15 11 0 15 -18 17 -77 l3 -78 33 -3 c36 -4 47 22 12
31 -17 4 -20 14 -20 65 0 51 3 60 20 65 26 7 26 27 1 27 -13 0 -21 8 -23 23
-2 14 -8 22 -15 20z"/>
<path d="M4921 2431 c-7 -5 -22 -6 -32 -4 -18 5 -19 -1 -19 -91 0 -77 3 -96
15 -96 11 0 15 17 17 72 3 66 5 74 28 85 25 12 33 34 15 40 -5 1 -16 -1 -24
-6z"/>
<path d="M5422 2432 c-27 -4 -50 -49 -47 -90 1 -15 3 -37 3 -49 4 -53 86 -74
116 -31 9 12 16 26 16 30 0 15 -38 8 -44 -8 -3 -9 -15 -14 -28 -12 -17 2 -23
10 -23 28 0 23 3 25 43 22 49 -2 58 9 48 62 -7 37 -39 55 -84 48z m46 -55 c3
-24 0 -27 -27 -27 -23 0 -31 5 -31 18 0 46 53 55 58 9z"/>
<path d="M6170 2432 c-37 -12 -50 -35 -50 -91 0 -72 19 -101 65 -101 35 0 65
21 65 46 0 18 -24 18 -40 -1 -18 -22 -47 -18 -53 7 -9 32 -2 37 48 32 l45 -3
0 37 c0 56 -35 88 -80 74z m40 -41 c17 -32 12 -41 -25 -41 -39 0 -39 -1 -25
34 11 31 35 34 50 7z"/>
<path d="M6376 2432 c-3 -3 -22 -5 -41 -4 l-36 1 3 -92 c3 -78 6 -92 21 -95
15 -3 17 5 17 71 0 78 12 103 44 91 13 -5 16 -21 16 -86 0 -69 2 -79 17 -76
14 3 16 16 14 88 -1 46 -4 87 -7 91 -5 9 -42 18 -48 11z"/>
<path d="M6540 2433 c-38 -6 -50 -30 -50 -98 0 -47 4 -66 18 -78 37 -34 102
-12 102 34 0 10 -7 19 -15 19 -8 0 -15 -7 -15 -15 0 -9 -7 -18 -16 -22 -24 -9
-44 23 -44 68 0 55 45 94 57 49 7 -27 35 -26 31 1 -4 27 -36 47 -68 42z"/>
<path d="M6691 2424 c-37 -26 -40 -134 -5 -169 24 -23 80 -19 98 7 9 12 16 26
16 30 0 15 -38 8 -44 -8 -10 -26 -50 -13 -54 17 -3 25 -1 26 45 25 l48 -1 -1
43 c-1 50 -2 51 -48 62 -25 5 -41 4 -55 -6z m56 -22 c6 -4 13 -16 15 -27 2
-16 -3 -21 -29 -23 -27 -3 -33 0 -33 15 0 18 18 43 30 43 3 0 10 -4 17 -8z"/>
<path d="M7797 2434 c-4 -4 -20 -7 -37 -6 l-30 1 0 -95 c0 -77 3 -94 15 -94
12 0 15 14 15 68 0 75 15 107 43 96 14 -5 17 -20 17 -85 0 -64 3 -79 15 -79
12 0 15 15 15 74 0 81 15 111 45 86 11 -9 15 -33 15 -86 0 -59 3 -74 15 -74
12 0 15 16 15 83 0 93 -7 110 -44 108 -14 -1 -34 -2 -43 -3 -10 0 -25 2 -34 6
-8 4 -18 4 -22 0z"/>
<path d="M8246 2433 c-3 -4 -22 -6 -42 -5 -33 1 -36 -1 -30 -21 3 -12 6 -55 6
-94 0 -58 3 -73 15 -73 12 0 15 15 15 74 0 77 12 102 44 90 13 -5 16 -21 16
-86 0 -69 2 -79 17 -76 14 2 17 16 19 65 1 35 -1 75 -5 89 -7 26 -42 49 -55
37z"/>
<path d="M8801 2430 c-59 -14 -57 -77 3 -105 43 -21 50 -55 11 -55 -16 0 -25
6 -25 15 0 8 -9 15 -20 15 -11 0 -20 -6 -20 -14 0 -44 82 -63 115 -26 26 29
12 65 -35 92 -42 24 -51 44 -24 55 10 4 22 -1 30 -12 18 -24 49 -13 35 14 -12
22 -37 30 -70 21z"/>
<path d="M9090 2431 c-36 -10 -52 -47 -46 -109 6 -67 18 -82 67 -82 50 0 69
27 69 98 0 43 -5 58 -25 77 -26 27 -26 27 -65 16z m38 -30 c19 -11 27 -83 12
-110 -7 -15 -19 -21 -33 -19 -19 3 -22 10 -25 56 -4 67 13 94 46 73z"/>
<path d="M4690 2411 c-5 -11 -10 -46 -10 -79 0 -70 18 -92 73 -92 27 0 39 6
49 23 15 28 14 133 -2 152 -19 23 -97 20 -110 -4z m79 -15 c7 -8 11 -37 9 -68
-3 -47 -6 -53 -27 -56 -30 -5 -41 12 -41 65 0 58 33 91 59 59z"/>
<path d="M5870 2411 c-5 -11 -10 -46 -10 -79 0 -44 5 -63 18 -75 37 -34 102
-12 102 34 0 25 -26 25 -33 -1 -6 -24 -42 -27 -51 -4 -11 29 -6 90 9 110 15
19 15 19 34 -3 23 -28 41 -30 41 -5 0 28 -21 42 -62 42 -27 0 -40 -5 -48 -19z"/>
<path d="M6030 2335 c0 -88 1 -95 20 -95 19 0 20 7 20 95 0 88 -1 95 -20 95
-19 0 -20 -7 -20 -95z"/>
<path d="M6950 2411 c-5 -11 -10 -46 -10 -79 0 -68 18 -92 68 -92 47 0 62 22
62 91 0 83 -10 99 -65 99 -34 0 -47 -5 -55 -19z m78 -13 c13 -13 16 -85 6
-112 -3 -9 -16 -16 -29 -16 -13 0 -26 7 -29 16 -12 30 -6 93 10 108 19 19 26
20 42 4z"/>
<path d="M7550 2346 c0 -59 4 -87 14 -95 14 -12 106 -10 106 2 0 4 0 45 0 92
0 68 -3 85 -15 85 -11 0 -15 -18 -17 -77 -3 -76 -4 -78 -28 -78 -24 0 -25 2
-28 78 -2 59 -6 77 -17 77 -12 0 -15 -17 -15 -84z"/>
<path d="M8010 2415 c-7 -8 -9 -23 -5 -32 6 -16 8 -15 24 6 21 28 51 23 51 -9
0 -15 -7 -20 -25 -20 -49 0 -79 -55 -55 -100 8 -16 21 -19 65 -18 l55 2 0 73
c0 95 -9 113 -59 113 -22 0 -44 -6 -51 -15z m66 -131 c-7 -18 -42 -18 -49 0
-6 16 11 42 33 48 16 5 26 -23 16 -48z"/>
<path d="M8670 2335 c0 -78 3 -95 15 -95 12 0 15 17 15 95 0 78 -3 95 -15 95
-12 0 -15 -17 -15 -95z"/>
<path d="M9232 2336 c2 -72 6 -91 18 -91 11 0 13 12 11 50 -3 64 12 105 39
105 11 0 20 6 20 14 0 10 -13 14 -45 14 l-46 -1 3 -91z"/>
<path d="M9355 2413 c3 -10 18 -53 32 -96 20 -64 23 -83 14 -109 -14 -39 -14
-38 3 -38 20 0 22 3 61 132 40 130 40 128 20 128 -13 0 -45 -82 -45 -117 0
-34 -19 -6 -35 52 -14 52 -21 65 -37 65 -15 0 -18 -4 -13 -17z"/>
</g>
</svg>
