<?xml version="1.0" encoding="utf-8"?>
<!-- Generator: Adobe Illustrator 22.1.0, SVG Export Plug-In . SVG Version: 6.00 Build 0)  -->
<svg version="1.1" id="Layer_1" xmlns="http://www.w3.org/2000/svg" xmlns:xlink="http://www.w3.org/1999/xlink" x="0px" y="0px"
	 viewBox="0 0 612 792" style="enable-background:new 0 0 612 792;" xml:space="preserve">
<style type="text/css">
	.st0{fill:#690F32;}
	.st1{fill:#00634C;}
</style>
<g>
	<path class="st0" d="M331,398.6c-3.5,2.3-6.9,5.1-11.9,5.1c-5.9,0-10.8-2.7-11.8-8.6c-0.7-4.3-0.8-15.7-0.8-19.6V371h0.1
		c2.3,4.8,6.5,7.7,6.5,12.7c0,2.5-0.8,4.1-2,6.4c-0.6,1.2-1.6,2.8-1.6,4.2c0,0.8,0.4,1.7,1.9,1.7c2.9,0,4.5-1.5,8.2-1.5
		c4.3,0,7.3,1.5,11.5,4V398.6L331,398.6z"/>
	<path class="st1" d="M280,398.5c4.1-2.5,7.2-4,11.5-4c3.7,0,5.4,1.5,8.2,1.5c1.5,0,1.9-0.8,1.9-1.7c0-1.4-0.9-3-1.6-4.2
		c-1.2-2.3-2-3.9-2-6.4c0-5,4.1-7.8,6.5-12.7h0.1v4.4c0,3.9-0.1,15.3-0.8,19.6c-0.9,5.9-5.9,8.6-11.8,8.6c-5.1,0-8.4-2.8-11.9-5.1
		V398.5L280,398.5z"/>
	<path class="st1" d="M294.5,411.3c-0.5-0.8-1.7-1.5-3.6-1.5c-1.5,0-2.5,0.4-2.5,1.7c0,2.7,6.8,2.2,6.8,6.5c0,2.5-1.8,4.1-5.3,4.1
		c-1.7,0-3.3-0.3-4.3-0.7c-0.1-0.5-0.1-1-0.1-1.5c0-0.5,0-1,0.1-1.4h0.1c1,1.3,2.7,1.8,4.3,1.8c1.6,0,2.5-0.7,2.5-1.8
		c0-2.8-6.8-2-6.8-6.4c0-2.4,1.8-3.9,5.3-3.9c0.9,0,2.6,0.1,3.5,0.5c0.1,0.2,0.1,0.8,0.1,1.3c0,0.6,0,1.2-0.1,1.6H294.5L294.5,411.3
		z"/>
	<path class="st1" d="M306,419.8c2.1,0,3.1-0.2,3.7-0.8h0.1c-0.1,0.7-0.4,2.3-0.7,2.8h-9.9v-0.1c0.6-0.4,0.9-0.7,0.9-1.8v-7.7
		c0-2.6,0-3.3-0.8-3.9v-0.1c0.4,0,1.1-0.1,1.9-0.1c1,0,1.9,0,2.3,0.1v0.1c-0.9,0.7-1,1.2-1,3.9v7.6H306L306,419.8z"/>
	<path class="st1" d="M312.9,412.2c0-2.6,0-3.2-0.9-3.9v-0.1c0.3,0,1.2-0.1,2.1-0.1c0.5,0,1,0,1.4,0c0,0.5-0.1,1.3-0.1,4v4.6
		c0,2,0.3,3,2.3,3c1.5,0,3-0.6,3.7-1.1c0.3-0.2,0.3-0.5,0.3-0.8v-5.6c0-2.7,0-3.2-0.9-3.9v-0.1c0.3,0,1.2-0.1,2.2-0.1
		c0.5,0,0.9,0,1.4,0c0,0.5-0.1,1.3-0.1,4v6.3c0,1.2,0.1,2.6,1.1,3.2v0.1h-2.9c-0.2-0.2-0.4-1-0.5-1.2c-1.4,0.9-2.8,1.4-4.7,1.4
		c-3.2,0-4.2-1.6-4.2-4.1V412.2L312.9,412.2z"/>
</g>
</svg>
