<svg xmlns="http://www.w3.org/2000/svg" width="2500" height="2500" viewBox="0 0 192.756 192.756"><path fill-rule="evenodd" clip-rule="evenodd" fill="#fff" fill-opacity="0" d="M0 0h192.756v192.756H0V0z"/><path d="M81.699 85.533v-1.792c-2.532.465-5.411 1.449-6.546 2.239-.101.05-.202.151-.302.201.453.252 1.36.302 2.166.151.806-.151 2.87-.806 3.928-.856.259 0 .511.021.754.057zM83.462 86.018v-2.002c-.604-.252-1.108-.353-1.611-.302l-.101.018v1.809c.665.103 1.257.311 1.712.477z" fill-rule="evenodd" clip-rule="evenodd" fill="#213a79"/><path d="M85.174 86.584v-1.855c-.661-.137-1.319-.538-1.712-.713v2.002c.172.063.324.12.454.163.32.117.775.283 1.258.403z" fill-rule="evenodd" clip-rule="evenodd" fill="#767eac"/><path d="M86.534 86.707v-2c-.35.053-.717.086-1.058.065a2.435 2.435 0 0 1-.302-.042v1.855c.351.087.718.151 1.057.151.097-.007.197-.016.303-.029z" fill-rule="evenodd" clip-rule="evenodd" fill="#767eac"/><path d="M87.893 86.462v-2.033l-.151.04c-.29.058-.732.166-1.208.237v2c.42-.049.9-.147 1.359-.244zM87.893 84.429v2.033c.449-.094.877-.187 1.209-.23.705-.101 1.259-.101 1.863 0a20 20 0 0 1-1.712-1.964c-.503 0-.881.041-1.36.161zM117.955 83.765v1.997c.51-.155 1.098-.285 1.713-.285 1.107.051 3.121.705 3.928.856.805.151 1.762.101 2.215-.151-.102-.05-.201-.151-.303-.201-1.207-.806-4.18-1.813-6.697-2.266a2.784 2.784 0 0 0-.856.05zM117.955 85.761v-1.997a3.662 3.662 0 0 0-.756.251c-.238.106-.574.295-.955.458v1.878l.502-.171c.297-.098.717-.27 1.209-.419z" fill-rule="evenodd" clip-rule="evenodd" fill="#213a79"/><path d="M116.244 86.352v-1.878c-.346.147-.727.273-1.109.297a4.23 4.23 0 0 1-.604-.011v1.971c.596-.027 1.205-.209 1.713-.379z" fill-rule="evenodd" clip-rule="evenodd" fill="#767eac"/><path d="M114.531 86.731V84.76a10.56 10.56 0 0 1-1.359-.228v2.018c.436.087.867.163 1.209.185.049 0 .099-.001.15-.004z" fill-rule="evenodd" clip-rule="evenodd" fill="#767eac"/><path d="M113.172 86.551v-2.018a18.928 18.928 0 0 0-.303-.064 4.365 4.365 0 0 0-1.057-.189v1.993c.385.07.876.181 1.36.278zM111.812 86.273V84.28a7.944 7.944 0 0 0-.453-.012c-.453.654-1.059 1.309-1.713 1.964.604-.101 1.209-.101 1.914 0 .077.011.161.025.252.041z" fill-rule="evenodd" clip-rule="evenodd" fill="#213a79"/><path d="M100.33 92.626c8.812-3.827 12.086-8.51 13.346-12.236 1.309-3.726 1.309-10.876 1.309-13.395 0-2.618.252-11.027.051-11.229-.252-.403-7.705-1.359-14.705-1.359-6.948 0-14.451.957-14.703 1.359-.202.202.101 8.611.101 11.229 0 2.519 0 9.669 1.259 13.395 1.258 3.727 4.581 8.41 13.342 12.236z" fill-rule="evenodd" clip-rule="evenodd" fill="#bb2449"/><path d="M100.33 91.72c-8.358-3.625-11.43-8.157-12.638-11.732-1.209-3.525-1.209-10.373-1.209-12.791 0-2.518-.251-10.474-.101-10.726.252-.302 7.302-1.359 13.948-1.359 6.648 0 13.697 1.057 13.949 1.359.15.252-.102 8.208-.102 10.726 0 2.417 0 9.265-1.207 12.791-1.208 3.575-4.23 8.107-12.64 11.732z" fill-rule="evenodd" clip-rule="evenodd" fill="#ecb731"/><path d="M100.33 55.817c-6.344 0-13.041 1.007-13.293 1.36-.151.202.101 7.805.101 10.222 0 2.316 0 8.812 1.158 12.236 1.158 3.374 4.028 7.704 12.034 11.179 8.008-3.475 10.877-7.805 12.035-11.179 1.158-3.424 1.158-9.92 1.158-12.236 0-2.417.252-10.021.102-10.222-.252-.353-6.949-1.36-13.295-1.36z" fill-rule="evenodd" clip-rule="evenodd" fill="#254185"/><path d="M87.275 77.296l1.6 3.825a4.292 4.292 0 0 0-.024-.228c-.051-.554-.202-1.108-.202-1.662-.05-.554-.05-1.359-.05-2.115v-1.259c-.001.648-.498 1.097-1.324 1.439z" fill-rule="evenodd" clip-rule="evenodd" fill="#e5a430"/><path d="M81.249 66.895h5.939c.051-.101 0-.201-.05-.352-.158-.433-.601-.682-1.149-.806h-2.206c-.17.029-.329.064-.472.101-.739.185-1.572.614-2.062 1.057zM83.783 65.737h2.206c-.684-.154-1.532-.115-2.206 0z" fill-rule="evenodd" clip-rule="evenodd" fill="#c36465"/><path d="M114.57 67.953h2.314l-.189.604c-.201-.05-.502-.101-.654-.151a7.993 7.993 0 0 1-1.471-.453zm4.078 0h.787c-.208.068-.49.06-.787 0zM113.424 66.845h5.959c.314.282.482.57.385.806-.051.153-.17.25-.332.302h-.787c-.598-.121-1.256-.456-1.498-.806l-.201.604-.064.201h-2.314c-.613-.266-1.121-.632-1.148-1.107z" fill-rule="evenodd" clip-rule="evenodd" fill="#ac284a"/><path d="M114.621 65.687h2.207c.17.029.33.063.473.101.738.185 1.59.613 2.082 1.058h-5.959c0-.101 0-.252.049-.353.158-.433.599-.682 1.148-.806zM116.828 65.687h-2.207c.684-.154 1.533-.116 2.207 0z" fill-rule="evenodd" clip-rule="evenodd" fill="#c36465"/><path d="M76.916 78.293v-1.396c-.479.332-.767.689-.654 1.026.104.192.347.304.654.37zM78.125 78.383v-2.13a7.038 7.038 0 0 0-1.209.644v1.396c.356.078.798.091 1.209.09z" fill-rule="evenodd" clip-rule="evenodd" fill="#ac284a"/><path d="M79.383 78.376v-2.588l-.202.07c-.343.11-.707.244-1.057.395v2.13c.257-.001.502-.007.705-.007h.554z" fill-rule="evenodd" clip-rule="evenodd" fill="#b23e52"/><path d="M80.591 78.396v-3c-.453.144-.867.277-1.208.393v2.588c.399.001.823.005 1.208.019z" fill-rule="evenodd" clip-rule="evenodd" fill="#bb515b"/><path d="M81.851 78.436V75l-1.259.396v3c.4.015.759.04 1.007.081l.252-.041zM83.059 78.245v-3.631c-.396.129-.805.259-1.208.386v3.437c.41-.067.814-.13 1.208-.192z" fill-rule="evenodd" clip-rule="evenodd" fill="#c36465"/><path d="M84.318 78.037v-3.56c-.313-.02-.576-.028-.755-.028-.164.055-.333.109-.503.165v3.631c.433-.07.854-.138 1.258-.208z" fill-rule="evenodd" clip-rule="evenodd" fill="#bb515b"/><path d="M85.526 77.804V74.59a20.13 20.13 0 0 0-1.208-.113v3.56c.424-.074.829-.151 1.208-.233z" fill-rule="evenodd" clip-rule="evenodd" fill="#b23e52"/><path d="M86.785 77.475v-2.674a13.946 13.946 0 0 0-1.259-.211v3.214c.461-.099.884-.207 1.259-.329zM86.785 74.801v2.674c1.116-.362 1.813-.85 1.813-1.616 0-.503-.819-.84-1.813-1.058z" fill-rule="evenodd" clip-rule="evenodd" fill="#ac284a"/><path d="M79.887 88.873v-2.204c-1.375.236-3.198.698-3.777.771-.755.101-1.309-.05-1.913-.352-.907.856-1.562 1.914-.705 2.618.554.302 3.021-.202 3.827-.403.721-.18 1.7-.361 2.568-.43zM81.196 88.893v-2.359c-.298-.014-.769.043-1.309.136v2.204c.344-.027.671-.037.957-.023.094.004.212.019.352.042z" fill-rule="evenodd" clip-rule="evenodd" fill="#213a79"/><path d="M82.555 89.185v-2.41a5.918 5.918 0 0 0-1.359-.241v2.359c.347.058.825.166 1.359.292z" fill-rule="evenodd" clip-rule="evenodd" fill="#3c4d87"/><path d="M83.865 89.493v-2.286c-.408-.133-.843-.298-1.31-.432v2.41c.412.097.86.204 1.31.308z" fill-rule="evenodd" clip-rule="evenodd" fill="#586499"/><path d="M85.174 89.772v-2.181c-.399-.099-.798-.231-1.209-.352l-.101-.032v2.286c.445.101.891.2 1.31.279zM86.584 89.958V87.74l-.101.002c-.445.026-.877-.044-1.309-.152v2.181c.537.103 1.03.175 1.41.187z" fill-rule="evenodd" clip-rule="evenodd" fill="#767eac"/><path d="M87.994 89.791v-2.315c-.496.131-.998.247-1.41.265v2.217c.071.002.139.003.201 0 .394-.014.803-.08 1.209-.167z" fill-rule="evenodd" clip-rule="evenodd" fill="#4a578f"/><path d="M89.404 89.426v-2.307c-.399.074-.903.223-1.41.356v2.315c.487-.105.968-.243 1.41-.364zM89.404 87.119v2.307c.506-.139.96-.255 1.309-.274.907-.101 3.475.151 3.475.151-.957-.705-1.813-1.359-2.568-2.064-.554-.101-1.259-.201-2.015-.151a3.556 3.556 0 0 0-.201.031z" fill-rule="evenodd" clip-rule="evenodd" fill="#213a79"/><path d="M87.416 77.235l.276.623c.444-.224.745-.479.907-.791v-1.208c-.001.609-.442 1.042-1.183 1.376z" fill-rule="evenodd" clip-rule="evenodd" fill="#4c5a93"/><path d="M113.383 77.308l-1.604 3.834c.01-.083.021-.167.033-.249.051-.554.15-1.108.201-1.662.051-.554 0-1.359 0-2.115v-1.259c.001.656.516 1.107 1.37 1.451zM114.521 67.974l-1.441 3.151c.059-.536.191-1.182.191-1.561.051-.403.102-1.107.152-1.762v-.907c.054.458.526.815 1.098 1.079z" fill-rule="evenodd" clip-rule="evenodd" fill="#e5a430"/><path d="M123.746 78.286v-1.377c.475.329.766.682.654 1.015-.117.184-.357.295-.654.362zM123.746 76.909v1.377c-.375.085-.84.099-1.26.097v-2.142c.463.198.912.427 1.26.668z" fill-rule="evenodd" clip-rule="evenodd" fill="#ac284a"/><path d="M122.486 76.241v2.142c-.242 0-.469-.006-.654-.006h-.553v-2.585l.201.067c.321.107.668.236 1.006.382z" fill-rule="evenodd" clip-rule="evenodd" fill="#b23e52"/><path d="M121.279 75.792v2.585c-.416.002-.859.006-1.26.021v-3.006c.469.147.901.282 1.26.4z" fill-rule="evenodd" clip-rule="evenodd" fill="#bb515b"/><path d="M120.02 75.392v3.006a8.326 8.326 0 0 0-.957.079l-.252-.041v-3.421l1.209.377zM118.811 75.015v3.421l-1.258-.199v-3.623c.41.133.838.269 1.258.401z" fill-rule="evenodd" clip-rule="evenodd" fill="#c36465"/><path d="M117.553 74.614v3.623c-.416-.065-.82-.131-1.209-.198v-3.565c.291-.018.535-.024.705-.024l.504.164z" fill-rule="evenodd" clip-rule="evenodd" fill="#bb515b"/><path d="M116.344 74.473v3.565a33.101 33.101 0 0 1-1.258-.241V74.59c.455-.057.893-.094 1.258-.117z" fill-rule="evenodd" clip-rule="evenodd" fill="#b23e52"/><path d="M115.086 74.59v3.208a13.52 13.52 0 0 1-1.209-.313V74.79c.391-.084.807-.15 1.209-.2zM113.877 74.79v2.694c-1.145-.363-1.863-.853-1.863-1.625 0-.512.845-.852 1.863-1.069z" fill-rule="evenodd" clip-rule="evenodd" fill="#ac284a"/><path d="M120.725 88.873v-2.211c1.377.233 3.229.706 3.777.778.805.101 1.359-.05 1.912-.352.957.856 1.562 1.914.756 2.618-.553.302-3.021-.202-3.877-.403a15.884 15.884 0 0 0-2.568-.43zM120.725 86.662v2.211a7.523 7.523 0 0 0-.957-.022 3.287 3.287 0 0 0-.352.045v-2.359l.051-.002c.289-.015.74.039 1.258.127z" fill-rule="evenodd" clip-rule="evenodd" fill="#213a79"/><path d="M119.416 86.536v2.359c-.334.057-.793.161-1.311.282v-2.414a6.12 6.12 0 0 1 1.311-.227z" fill-rule="evenodd" clip-rule="evenodd" fill="#3c4d87"/><path d="M118.105 86.763v2.414c-.41.097-.857.204-1.309.308V87.19c.407-.133.839-.296 1.309-.427z" fill-rule="evenodd" clip-rule="evenodd" fill="#586499"/><path d="M116.797 87.19v2.295a37.92 37.92 0 0 1-1.309.279v-2.176c.393-.099.775-.229 1.158-.349l.151-.049zM115.488 87.587v2.176c-.535.102-1.025.175-1.41.192v-2.214l.051.001c.476.027.924-.045 1.359-.155z" fill-rule="evenodd" clip-rule="evenodd" fill="#767eac"/><path d="M114.078 87.742v2.214c-.09.004-.174.005-.252.002a6.655 6.655 0 0 1-1.158-.164v-2.312c.508.134 1.018.25 1.41.26z" fill-rule="evenodd" clip-rule="evenodd" fill="#4a578f"/><path d="M112.668 87.483v2.312c-.484-.105-.967-.245-1.41-.367v-2.306c.388.075.898.227 1.41.361zM111.258 87.122v2.306c-.504-.139-.959-.256-1.309-.275-.957-.101-3.525.151-3.525.151 1.008-.705 1.863-1.359 2.619-2.064a7.986 7.986 0 0 1 2.014-.151c.062.007.131.018.201.033z" fill-rule="evenodd" clip-rule="evenodd" fill="#213a79"/><path d="M114.557 67.989l-.307.653c-.408-.207-.693-.465-.826-.84v-.907c.055.467.543.829 1.133 1.094zM113.211 77.235l-.279.613c-.441-.221-.744-.475-.918-.781v-1.208c0 .609.447 1.042 1.197 1.376z" fill-rule="evenodd" clip-rule="evenodd" fill="#4c5a93"/><path d="M90.512 75.304v.252h8.863c.201 0 .201 0 .15.101 0 .101-.102.251 0 .453.102.151.504.251.805.251.303 0 .705-.101.807-.251.1-.202 0-.353 0-.453-.051-.101 0-.101.15-.101h8.863v-.252l-.906-4.582-8.914.252-8.912-.252-.906 4.582z" fill-rule="evenodd" clip-rule="evenodd" fill="#ecb731"/><path d="M109.244 74.65c.201 0 .402-.101.402-.251 0-.151-.201-.302-.402-.302s-.453.151-.453.302c0 .15.252.251.453.251z" fill-rule="evenodd" clip-rule="evenodd" fill="#f2ce8f"/><path d="M109.244 74.65c.201 0 .402-.101.402-.251 0-.151-.201-.302-.402-.302s-.453.151-.453.302c0 .15.252.251.453.251" fill="none" stroke="#213a79" stroke-width=".141" stroke-miterlimit="2.613"/><path d="M109.143 74.146c.201 0 .402-.151.402-.302s-.201-.251-.402-.251-.453.101-.453.251c-.001.152.251.302.453.302z" fill-rule="evenodd" clip-rule="evenodd" fill="#f2ce8f"/><path d="M109.143 74.146c.201 0 .402-.151.402-.302s-.201-.251-.402-.251-.453.101-.453.251c-.001.152.251.302.453.302" fill="none" stroke="#213a79" stroke-width=".141" stroke-miterlimit="2.613"/><path d="M109.043 73.593c.201 0 .402-.101.402-.252s-.201-.302-.402-.302-.453.151-.453.302.252.252.453.252z" fill-rule="evenodd" clip-rule="evenodd" fill="#f2ce8f"/><path d="M109.043 73.593c.201 0 .402-.101.402-.252s-.201-.302-.402-.302-.453.151-.453.302.252.252.453.252" fill="none" stroke="#213a79" stroke-width=".141" stroke-miterlimit="2.613"/><path d="M108.941 73.039c.201 0 .402-.101.402-.252s-.201-.251-.402-.251-.453.101-.453.251c0 .151.252.252.453.252z" fill-rule="evenodd" clip-rule="evenodd" fill="#f2ce8f"/><path d="M108.941 73.039c.201 0 .402-.101.402-.252s-.201-.251-.402-.251-.453.101-.453.251c0 .151.252.252.453.252" fill="none" stroke="#213a79" stroke-width=".141" stroke-miterlimit="2.613"/><path d="M108.842 72.535c.201 0 .402-.151.402-.302s-.201-.252-.402-.252-.453.101-.453.252.252.302.453.302z" fill-rule="evenodd" clip-rule="evenodd" fill="#f2ce8f"/><path d="M108.842 72.535c.201 0 .402-.151.402-.302s-.201-.252-.402-.252-.453.101-.453.252.252.302.453.302" fill="none" stroke="#213a79" stroke-width=".141" stroke-miterlimit="2.613"/><path d="M108.74 71.981c.201 0 .402-.101.402-.251s-.201-.302-.402-.302-.453.151-.453.302.252.251.453.251z" fill-rule="evenodd" clip-rule="evenodd" fill="#f2ce8f"/><path d="M108.74 71.981c.201 0 .402-.101.402-.251s-.201-.302-.402-.302-.453.151-.453.302.252.251.453.251" fill="none" stroke="#213a79" stroke-width=".141" stroke-miterlimit="2.613"/><path d="M108.641 71.478c.201 0 .402-.151.402-.303 0-.151-.201-.251-.402-.251-.252 0-.455.101-.455.251 0 .152.203.303.455.303z" fill-rule="evenodd" clip-rule="evenodd" fill="#f2ce8f"/><path d="M108.641 71.478c.201 0 .402-.151.402-.303 0-.151-.201-.251-.402-.251-.252 0-.455.101-.455.251 0 .152.203.303.455.303" fill="none" stroke="#213a79" stroke-width=".141" stroke-miterlimit="2.613"/><path d="M100.33 75.456h.354c1.107-.806 2.416-.906 3.072-.906.654 0 2.266.302 2.971.353.754.101 1.914-.05 2.266-.201l-.807-4.381a2.469 2.469 0 0 1-.855.252c-.402 0-4.18-.403-5.338 0-1.207.453-1.309 1.007-1.309 1.007h-.654s-.152-.554-1.359-1.007c-1.158-.403-4.936 0-5.338 0-.403-.05-.655-.151-.806-.252l-.856 4.381c.352.151 1.511.302 2.266.201.755-.05 2.317-.353 2.971-.353.656 0 1.964.101 3.123.906h.299z" fill-rule="evenodd" clip-rule="evenodd" fill="#fff"/><path d="M100.33 75.456h.354c1.107-.806 2.416-.906 3.072-.906.654 0 2.266.302 2.971.353.754.101 1.914-.05 2.266-.201l-.807-4.381a2.469 2.469 0 0 1-.855.252c-.402 0-4.18-.403-5.338 0-1.207.453-1.309 1.007-1.309 1.007h-.654s-.152-.554-1.359-1.007c-1.158-.403-4.936 0-5.338 0-.403-.05-.655-.151-.806-.252l-.856 4.381c.352.151 1.511.302 2.266.201.755-.05 2.317-.353 2.971-.353.656 0 1.964.101 3.123.906h.299" fill="none" stroke="#213a79" stroke-width=".141" stroke-miterlimit="2.613"/><path d="M100.33 75.204c1.41-1.007 2.619-1.208 3.225-1.208.654 0 1.609.151 2.668.352 1.057.202 1.561.101 2.014-.05l-.855-4.079c-.252.101-.555.151-.957.151-.352 0-2.82-.252-3.525-.252-.754.051-1.863.353-2.215 1.158h-.654c-.402-.805-1.512-1.107-2.266-1.158-.705 0-3.123.252-3.526.252s-.705-.05-.957-.151l-.806 4.079c.453.151.906.252 1.964.05 1.057-.201 2.064-.352 2.668-.352.605 0 1.814.201 3.222 1.208z" fill-rule="evenodd" clip-rule="evenodd" fill="#fff"/><path d="M100.33 75.204c1.41-1.007 2.619-1.208 3.225-1.208.654 0 1.609.151 2.668.352 1.057.202 1.561.101 2.014-.05l-.855-4.079c-.252.101-.555.151-.957.151-.352 0-2.82-.252-3.525-.252-.754.051-1.863.353-2.215 1.158h-.654c-.402-.805-1.512-1.107-2.266-1.158-.705 0-3.123.252-3.526.252s-.705-.05-.957-.151l-.806 4.079c.453.151.906.252 1.964.05 1.057-.201 2.064-.352 2.668-.352.605 0 1.814.201 3.222 1.208" fill="none" stroke="#213a79" stroke-width=".141" stroke-miterlimit="2.613"/><path d="M100.33 74.902c2.217-1.813 4.281-1.359 4.936-1.208s1.561.403 2.215.251l-.805-3.877c-.453.151-1.309.101-2.166-.101-.855-.201-3.121-.503-4.18 1.007-1.057-1.511-3.271-1.208-4.128-1.007-.906.202-1.712.252-2.216.101l-.805 3.877c.654.151 1.561-.101 2.215-.251.705-.152 2.719-.605 4.934 1.208z" fill-rule="evenodd" clip-rule="evenodd" fill="#fff"/><path d="M100.33 74.902c2.217-1.813 4.281-1.359 4.936-1.208s1.561.403 2.215.251l-.805-3.877c-.453.151-1.309.101-2.166-.101-.855-.201-3.121-.503-4.18 1.007-1.057-1.511-3.271-1.208-4.128-1.007-.906.202-1.712.252-2.216.101l-.805 3.877c.654.151 1.561-.101 2.215-.251.705-.152 2.719-.605 4.934 1.208" fill="none" stroke="#213a79" stroke-width=".141" stroke-miterlimit="2.613"/><path d="M100.33 74.902c.051.151.303.402.354.554 0 .101-.15.202-.354.202-.201 0-.352-.101-.301-.202 0-.152.252-.403.301-.554z" fill-rule="evenodd" clip-rule="evenodd" fill="#213a79"/><path d="M100.33 74.902c.051.151.303.402.354.554 0 .101-.15.202-.354.202-.201 0-.352-.101-.301-.202 0-.152.252-.403.301-.554" fill="none" stroke="#213a79" stroke-width=".04" stroke-miterlimit="2.613"/><path fill="none" stroke="#213a79" stroke-width=".141" stroke-miterlimit="2.613" d="M100.33 74.902v-3.928"/><path d="M94.943 71.78h.101c.151-.05.202-.151.302-.403h.101c0 .151-.051.302-.051.453-.05.151-.05.302-.05.453h-.151c.05-.202 0-.403-.202-.353h-.101l-.151.604c-.051.251.05.251.302.251l-.05.101c-.151.05-.353.05-.554.101-.202 0-.302.05-.554.05v-.101c.303-.05.303-.151.403-.403l.251-1.108c.05-.302.05-.453-.201-.453v-.151c.201.051.503.051.755.051.302-.051.655-.101.957-.151l-.05.606h-.151c0-.403-.151-.353-.503-.302-.201 0-.252 0-.302.251l-.101.504zM96.454 71.175c0-.251 0-.353-.201-.353v-.101c.151-.05.251-.05.402-.05.202-.05.303-.05.503-.05v.101c-.251.051-.301.151-.352.403l-.151 1.007c0 .353 0 .453.202.453v.101h-.454c-.101 0-.302.051-.454.051v-.101c.252-.05.303-.151.303-.453l.202-1.008zM97.611 72.183c-.049.101-.1.101-.15.251-.051.151.102.202.201.202v.151c-.1-.05-.201-.05-.303-.05h-.301v-.151c.201 0 .352-.302.402-.504.303-.654.604-1.51.604-1.51l.201.05s.252 1.359.303 1.662c.051.252.051.302.102.454 0 .05.1.151.15.201l-.051.101c-.15-.05-.201-.101-.352-.101-.152-.05-.303-.101-.453-.101l.049-.151c.051.051.203 0 .203-.151v-.252l-.051-.151s-.152 0-.252-.051h-.303v.101h.001zm.303-.252h.252l-.152-.755-.301.705a.47.47 0 0 1 .201.05zM100.08 72.032l-.102-.051c0-.302-.051-.604-.201-.705-.15-.05-.15.051-.15.303v1.208c0 .302 0 .453.25.604v.151c-.201-.101-.352-.202-.453-.252-.15-.051-.301-.101-.453-.202v-.101c.252.05.252-.05.252-.353v-1.208c0-.252.051-.353-.15-.453-.201-.05-.201.151-.252.453h-.102l.051-.705s.354.101.705.252c.354.151.605.353.605.353v.706zM101.035 73.291c.201-.151.201-.252.201-.554v-1.209c0-.302.051-.453-.201-.353v-.151c.152-.05.252-.101.354-.151.201-.051.352-.101.504-.151v.151c-.201.05-.201.201-.201.503v1.007c0 .353.049.554.301.454.402-.101.555-.252.605-.705h.1v.705c-.504.101-1.057.302-1.209.352-.15.101-.301.151-.453.252v-.15h-.001zM102.748 70.622H103.705v.151c-.252 0-.252.151-.252.453l.051.554c0 .503.15.755.504.755.402 0 .402-.202.352-.655v-.503a.941.941 0 0 0-.102-.403.383.383 0 0 0-.201-.201v-.101c.102 0 .201.05.303.05.1 0 .15 0 .303.051v.101c-.102 0-.152.05-.203.201v.403l.051.302c0 .654.051 1.007-.604 1.007-.453 0-.855-.251-.906-1.007v-.554c-.051-.302-.051-.453-.252-.503v-.101h-.001zM106.373 72.636c.051.151.152.302.252.302v.151c-.201-.05-.252-.05-.453-.101-.1 0-.303 0-.453-.05v-.151c.051.051.15 0 .15 0 .051 0 .051-.05.051-.101.051-.05-.051-.201-.1-.252l-.201-.453-.152.252c-.051.101-.15.252-.15.353 0 .151.1.151.15.151v.151c-.1 0-.201-.05-.303-.05-.1 0-.201-.051-.301-.051v-.151c.15.05.201-.101.301-.252l.354-.554-.303-.554c-.051-.101-.1-.151-.15-.251s-.102-.101-.201-.101v-.151c.15.05.301.05.453.05.15.051.303.051.453.051v.151c-.102 0-.201-.05-.201.101 0 .05 0 .101.051.151l.15.252.15-.201.152-.151c.049-.101-.051-.151-.203-.201v-.101h.303c.102 0 .201-.051.303-.051v.151c-.152 0-.201.101-.303.302l-.303.403.504.956z" fill-rule="evenodd" clip-rule="evenodd"/><path fill-rule="evenodd" clip-rule="evenodd" fill="#fff" d="M95.195 66.241h.05-.05z"/><path fill="none" stroke="#000" stroke-width=".021" stroke-miterlimit="2.613" d="M95.195 66.241h.05-.05"/><path d="M92.576 68.154c.05.051.05.151 0 .252-.101 0-.151-.05-.202-.101-.05.051-.05.051-.201.051s-.201-.051-.201-.101c-.051 0-.202-.05-.252-.05-.05.05-.151.101-.252.101h-.101s-.05.101-.151.151c-.101-.051-.101-.202-.101-.202-.151.101-.353.05-.353 0-.05 0-.151.05-.151.101-.151 0-.202-.353 0-.454.05-.302.453-.151.503-.151 0 0 0 .05-.05.101 0 .101.05.101.05.101s.051 0 .051-.05.05-.151.101-.151h.101c.101 0 .151.05.201.101.051 0 .101-.05.051-.101 0-.051-.051-.051-.101-.101.05 0 .05-.051.101-.051.101-.151.353-1.158.353-1.662 0-.302-.101-.604-.202-.755-.05-.05-.05-.101-.101-.151-.05-.05-.05-.101-.101-.15-.151-.151-.302-.252-.352-.252s-.05.151-.101.101c-.05 0-.05 0-.05-.05-.05 0-.05 0-.05-.05-.101-.151-.252-.453-.302-.504l-.101.101h-.05c-.201-.353-.353-.604-.353-1.36 0-1.259 1.41-2.014 1.41-2.971 0-.302-.554-.453-.806-.503l.101-.252h.151v-.05s-.856-.051-1.007-.051c-.101-.05-.202 0-.252.051-.101.05-.101.05-.151.101v-.151c.05-.101.05-.151.101-.201.05-.101.252-.151.554-.151h.202v-.202c.05-.05.302-.251.302-.251.05 0 .05.302 0 .403.101 0 .151 0 .201-.051.05-.05.151-.201.202-.201.101-.05.251-.05.453-.05.251.05.655.05.856.05.252.05.604 0 .705-.05.05 0 .101.05.151.101.05 0 .302-.101.353-.05.05 0 .101.05 0 .151-.05.05-.101.05-.151.101-.051 0-.101.05-.151.05-.151.05-.353.05-.353.101s.604-.05.604.05c0 .05-.353.101-.353.151 0 .05.201.101.201.151 0 .101-.201.05-.251.151 0 .051-.202.554-.252.655-.151.353-.554 1.057-.604 1.662-.051.252 0 .403.201.503.151.101.403.101.604.05.151-.353.101-.755 0-.906s-.202-.252-.151-.503c.151-.403.252-.503.504-.604.302-.101 1.107-.755 1.46-1.108.504-.402 1.763-1.762 1.863-1.762.152.05.152.151.201.302v.453c0 .101.051.302.051.403v.101c-.15.251-.705.654-.805.755-.101.101.05.051.151 0l.705-.604s.15.251.15.352c0 .051-.1.101-.15.101-.15.151-.906.604-1.46.806-.604.202-1.309.453-1.561.453-.202 0-.303 0-.454.101-.101.05-.302.302-.251.554.101.201.302.453.251.806-.05.251-.251.503-.251.503-.051.151-.252.353-.302.403s-.101.101 0 .101c.05 0 .403-.353.554-.755.201-.453.05-.705-.05-.906-.101-.303 0-.504.101-.604.151-.101.302-.101.504-.101a14.72 14.72 0 0 0 1.812-.604c.654-.252 2.014-1.108 2.116-1.208.15-.101.553-.403.604-.302.051.302 0 1.058-.102 1.158 0 .05-.1.05-.1.101-.15.101-1.107.655-1.107.655-.051 0-.051.05-.051.05.051 0 1.008-.453 1.107-.504l.15-.101c.051.202.051.604-.049.705-.051 0-.152.051-.252.101-.453.252-1.311.504-1.41.554-.05 0-.151.102-.101.102.101-.051 1.41-.504 1.511-.504.051.554-.201.705-.252.705-.354.151-.957.251-1.008.251-.051.05-.051.05-.051.101.051 0 .906-.202 1.008-.202 0 .202 0 .503-.15.604-.201.151-1.007.151-1.058.151-.101 0-.151 0-.151.05H97.864c-.051.202-.15.655-.352.705-.102.051-1.008-.101-1.108-.151-.05 0-.101 0-.101.05 0 .051.855.202.957.202h.049c-.15.302-.452.705-.654.604-.201-.05-.554-.352-.604-.402-.05-.05-.151-.101-.151-.05 0 .101.504.453.604.554-.151.151-.554.302-.604.251-.05-.05-.251-.503-.302-.503 0 .05.101.302.151.453 0 .05-.453.101-.503.05-.05-.05-.05-.302-.05-.353 0-.101-.05-.101-.05-.05v.453c.05.05.352.101.654 0 .05.101.151.101.251.05.051 0 .101-.05.202-.101.101.101.201.202.251.303l.555.554c.049.151.15.453.25.705l.254.503c.049.051 0 .151-.102.303-.102.151-.354.201-.453.201-.05 0-.101-.05-.101-.101a3.759 3.759 0 0 0-.453-.655c-.101-.151-.252-.353-.302-.353-.05-.05 0 .05.05.101 0 .05.453.705.504.806v.05c-.101 0-.202.05-.252.05l-.05-.05c-.202-.202-.655-.806-.755-.856-.05-.051 0 .05 0 .05.049.046.351.499.351.549-.101 0-.202.05-.252 0-.101-.05-.302-.302-.403-.403-.252-.353-.353-.252-.101.05 0 .05.101.302 0 .302h-.151c-.201-.051-.403-.252-.403-.252-.05-.05-.151-.05-.05 0 .05.101.252.252.302.302-.101.05-.151.101-.201.151-.051-.05-.151-.151-.151-.201-.05 0-.151-.051-.151 0l.101.101c.05.051.05.101.101.151v.755c0 .202.05.353.101.403-.101.05-.101.151-.101.201 0 .151.151.151.101.05-.051-.05 0-.101.05-.151 0 0 .051-.051.202-.051.101.051.202.101.252.151 0 0 .05.05.05.101s.101 0 .05-.05V67.8c0-.05.05-.05.151-.05.101.05.151.101.202.201.251.05.151.302.101.302s-.101-.05-.151-.05c-.151.201-.403 0-.403 0-.05.05-.05.05-.05.101 0 0-.05.151-.101.101-.05 0-.05-.05-.101-.101-.151.051-.353 0-.353 0s-.101.051-.251.051c-.101 0-.252-.101-.252-.101-.05.05-.202.05-.252.05a.377.377 0 0 1-.201.101v-.05c-.05 0-.05-.051-.05-.051-.05.051-.202 0-.252-.05 0 .05-.101.101-.151.101-.101-.101 0-.252.05-.303 0-.151.151-.201.251-.201 0 .05-.05.101 0 .101.051 0 .051-.05.101-.101s.151-.101.251-.101c.101-.051.151 0 .252.05.051 0 .051.05.101.101.051 0 .101-.05.051-.101 0-.05-.051-.05-.051-.101v-.05c.051-.302-.151-.957-.201-1.108.05-.05.151-.151.101-.151-.101 0-.151.101-.202.101-.101-.101-.151-.202-.201-.303h.05c.101 0 .201-.05.101-.101-.201 0-.302-.101-.402-.251-.202-.403-.353-.655-.504-.655-.05-.05-.101 0-.101 0 0 .051.05.051.05.051.05.05.101.05.151.101.151.201.302.604.453.755-.05.051-.101.051-.201.051h-.05c-.101-.051-.252-.202-.252-.252-.05-.05-.101 0-.05.05v.101s-.151.05-.302-.151c-.201-.151-.201-.201-.201-.151 0 .051.05.151.101.252l.151.151c-.705.906-.604 1.259-.554 1.46v.051c-.101 0-.151.05-.151.101-.05.05.051.101.051.101.05-.05.101-.101.252-.101 0 .05.05.05.05.05.051 0 .051.05.051.05.05 0 .05.05.101.05 0-.05.05-.05 0-.151.101 0 .353-.151.403.151.05.05.151.151.101.302-.05 0-.151-.051-.151-.051-.054.053-.205.053-.306.002z" fill-rule="evenodd" clip-rule="evenodd" fill="#fff"/><path d="M92.576 68.154s.05.151 0 .252c-.101 0-.151-.05-.202-.101-.05.051-.05.051-.201.051s-.201-.051-.201-.101c-.051 0-.202-.05-.252-.05-.05.05-.151.101-.252.101h-.101s-.05.101-.151.151c-.101-.051-.101-.202-.101-.202-.151.101-.353.05-.353 0 0 0-.151.05-.151.101-.151 0-.202-.353 0-.454.05-.302.453-.151.503-.151 0 0 0 .05-.05.101 0 .101.05.101.05.101s.051 0 .051-.05.101-.151.101-.151h.101c.101 0 .151.05.201.101.051 0 .101-.05.051-.101 0-.051-.051-.051-.101-.101.05 0 .05-.051.101-.051.101-.151.353-1.158.353-1.662 0-.302-.101-.604-.202-.755-.05-.05-.05-.101-.101-.151-.05-.05-.05-.101-.101-.15-.151-.151-.352-.252-.352-.252-.05 0-.05.151-.101.101 0 0-.05 0-.05-.05l-.05-.05c-.101-.151-.252-.453-.302-.504l-.101.101h-.05c-.201-.353-.353-.604-.353-1.36 0-1.259 1.41-2.014 1.41-2.971 0-.302-.554-.453-.806-.503l.101-.252h.151v-.05s-.856-.051-1.007-.051c-.101-.05-.202 0-.252.051-.101.05-.101.05-.151.101v-.151c0-.101.05-.151.101-.201.05-.101.252-.151.554-.151h.202v-.202c.05-.05.302-.251.302-.251v.403c.101 0 .151 0 .201-.051.05-.05.151-.201.202-.201.101-.05.251-.05.453-.05.251.05.655.05.856.05.252.05.604 0 .705-.05.05 0 .101.05.151.101 0 0 .302-.101.353-.05.05 0 .101.05 0 .151-.05.05-.101.05-.151.101-.051 0-.101.05-.151.05-.151.05-.353.101-.353.101s.604-.05.604.05c0 .05-.353.151-.353.151l.201.151c0 .101-.201.05-.251.151 0 .051-.202.554-.252.655-.151.353-.554 1.057-.604 1.662-.051.252 0 .403.201.503.151.101.403.101.604.05.151-.353.101-.755 0-.906s-.202-.252-.151-.503c.151-.403.252-.503.504-.604.302-.101 1.107-.755 1.46-1.108.504-.402 1.763-1.762 1.863-1.762.152.05.201.151.201.302v.453c0 .101.051.302.051.403v.101c-.15.251-.705.654-.805.755-.101.101.05.051.151 0l.705-.604s.15.251.15.352c0 .051-.1.101-.15.101-.15.151-.906.604-1.46.806-.604.202-1.309.453-1.561.453-.202 0-.303 0-.454.101-.101.05-.302.302-.251.554.101.201.302.453.251.806-.05.251-.251.503-.251.503-.051.151-.252.353-.302.403s-.101.101 0 .101c.05 0 .403-.353.554-.755.201-.453.05-.705-.05-.906-.101-.303 0-.504.101-.604.151-.101.302-.101.504-.101a14.72 14.72 0 0 0 1.812-.604c.654-.252 2.014-1.108 2.116-1.208.15-.101.553-.403.604-.302.051.302 0 1.058-.102 1.158l-.1.101c-.15.101-1.107.655-1.107.655-.051 0-.051.05-.051.05s1.008-.453 1.107-.504l.15-.101c.051.202.051.604-.049.705-.051 0-.152.051-.252.101-.453.252-1.311.504-1.41.554-.05 0-.151.102-.101.102.101-.051 1.41-.504 1.511-.504.051.554-.201.705-.252.705-.354.151-1.008.251-1.008.251s-.051.05-.051.101c.051 0 .906-.202 1.008-.202 0 .202 0 .503-.15.604-.201.151-1.007.151-1.058.151-.101 0-.151 0-.151.05H97.864c-.051.202-.15.655-.352.705-.102.051-1.008-.101-1.108-.151-.05 0-.101.05-.101.05s.855.202.957.202h.049c-.15.302-.452.705-.654.604-.201-.05-.554-.352-.604-.402-.05-.05-.151-.101-.151-.05 0 .101.504.453.604.554-.151.151-.554.302-.604.251-.05-.05-.251-.503-.302-.503 0 .05.101.302.151.453 0 .05-.453.101-.503.05-.05-.05-.05-.302-.05-.353 0-.101-.05-.05-.05-.05v.453c.05.05.352.101.654 0 .05.101.151.101.251.05l.202-.101c.101.101.201.202.251.303l.555.554c.049.151.15.453.25.705l.254.503c.049.051 0 .151-.102.303-.102.151-.354.201-.453.201 0 0-.101-.05-.101-.101a3.759 3.759 0 0 0-.453-.655c-.101-.151-.252-.353-.302-.353-.05-.05 0 .05.05.101 0 .05.453.705.504.806v.05c-.101 0-.252.05-.252.05l-.05-.05c-.202-.202-.655-.806-.755-.856-.05-.051 0 .05 0 .05.049.046.351.549.351.549-.101 0-.202.05-.252 0-.101-.05-.302-.302-.403-.403-.252-.353-.353-.252-.101.05 0 .05.101.302 0 .302h-.151c-.201-.051-.403-.252-.403-.252-.05-.05-.151-.05-.05 0 .05.101.252.252.302.302-.101.05-.151.101-.201.151-.051-.05-.151-.151-.151-.201h-.151l.101.101c.05.051.05.101.101.151v.755c0 .202.05.353.101.403-.101.05-.101.151-.101.201 0 .151.151.151.101.05-.051-.05 0-.101.05-.151 0 0 .051-.051.202-.051.101.051.202.101.252.151l.05.101c0 .05.101 0 .05-.05V67.8c0-.05.05-.05.151-.05.101.05.151.101.202.201.251.05.151.302.101.302s-.101-.05-.151-.05c-.151.201-.403 0-.403 0-.05.05-.05.101-.05.101s-.05.151-.101.101c-.05 0-.05-.05-.101-.101-.151.051-.353 0-.353 0s-.101.051-.251.051c-.101 0-.252-.101-.252-.101-.05.05-.202.05-.252.05a.377.377 0 0 1-.201.101v-.05c-.05 0-.05-.051-.05-.051-.05.051-.202 0-.252-.05 0 .05-.101.101-.151.101-.101-.101 0-.252.05-.303 0-.151.151-.201.251-.201 0 .05-.05.101 0 .101.051 0 .051-.05.101-.101s.151-.101.251-.101c.101-.051.151 0 .252.05.051 0 .051.05.101.101.051 0 .101-.05.051-.101 0-.05-.051-.05-.051-.101v-.05c.051-.302-.151-.957-.201-1.108.05-.05.101-.151.101-.151-.101 0-.151.101-.202.101-.101-.101-.151-.202-.201-.303h.05c.101 0 .201-.05.101-.101-.201 0-.302-.101-.402-.251-.202-.403-.353-.655-.504-.655-.05-.05-.101 0-.101 0l.05.051c.05.05.101.05.151.101.151.201.302.604.453.755-.05.051-.101.051-.201.051h-.05c-.101-.051-.252-.202-.252-.252-.05-.05-.101 0-.05.05v.101s-.151.05-.302-.151l-.201-.151s.05.151.101.252l.151.151c-.705.906-.604 1.259-.554 1.46v.051c-.101 0-.151.05-.151.101-.05.05.051.101.051.101.05-.05.101-.101.252-.101l.05.05c.051 0 .051.05.051.05l.101.05s.05-.05 0-.151c.101 0 .353-.151.403.151.05.05.151.151.101.302l-.151-.051c-.054.053-.205.053-.306.002" fill="none" stroke="#213a79" stroke-width=".101" stroke-miterlimit="2.613"/><path d="M90.763 59.141h.051-.403s-.05.101-.101.151h.051c-.051.101-.101.252-.252.453-.101.051-.403-.101-.554-.101-.151 0-.453.504-.554.554H89.203s.151 0 .201.05c0 0 .151.101.201.101.051 0 .151-.101.202-.101s.05 0 0 .05c0 0-.101.151-.202.151-.151-.05-.251-.101-.302-.151h-.201v.05c-.101.101-.151.302-.303.302-.05 0 0 .05 0 .05.051 0 .051 0 .101.05.05 0 .202.151.251.151.051 0 .202-.05.202 0 .05 0-.05.101-.101.101h-.151H89v.101c0 .102.05.151.05.202 0 .101-.05.251-.05.302.05.05.151-.101.252-.101.05.05.201.101.302.05.05-.05.15-.151.201-.251l-.051-.051c-.05-.05-.101-.101-.101-.151.051-.05.051-.151.101-.151v.101c0 .05 0 .101.101.151h.05c.05.05.05.05.101.151.05 0 .05 0 .05.05 0 0 .05.05.05.101.05 0 0-.05.101-.151.05-.101.151-.202.202-.302v-.051c-.051 0-.151-.101-.151-.101-.05-.05-.251-.151-.251-.251 0-.101.05-.101.101-.202.05 0 0 .101 0 .151 0 .05.05.101.151.151s.201.151.201.151c.051.05.101.05.101.101 0-.05.05-.151.05-.201.05-.05.101-.151.101-.302s0-.252-.101-.353c-.05-.101-.151-.202-.151-.252.101-.151.252-.453.252-.554h.05a.982.982 0 0 0 .051-.199z" fill-rule="evenodd" clip-rule="evenodd" fill="#fff"/><path d="M90.763 59.141h.051-.403s-.05.101-.101.151h.051c-.051.101-.101.252-.252.453-.101.051-.403-.101-.554-.101-.151 0-.453.504-.554.554H89.203s.151 0 .201.05c0 0 .151.101.201.101.051 0 .202-.101.202-.101s.05 0 0 .05c0 0-.101.151-.202.151-.151-.05-.251-.101-.302-.151h-.201v.05c-.101.101-.151.302-.303.302v.05s.051 0 .101.05c.05 0 .202.151.251.151.051 0 .202-.05.202 0 .05 0-.05.101-.101.101h-.151H89v.101c0 .102.05.151.05.202 0 .101-.05.302-.05.302.05.05.151-.101.252-.101.05.05.201.101.302.05.05-.05.15-.151.201-.251l-.051-.051c-.05-.05-.101-.101-.101-.151.051-.05.101-.151.101-.151v.101s0 .101.101.151h.05c.05.05.05.05.101.151.05 0 .05.05.05.05s.05.05.05.101c0 0 0-.05.101-.151.05-.101.151-.202.202-.302v-.051c-.051 0-.151-.101-.151-.101-.05-.05-.251-.151-.251-.251 0-.101.05-.101.101-.202v.151c0 .05.05.101.151.151s.201.151.201.151c.051.05.101.05.101.101 0-.05.05-.151.05-.201.05-.05.101-.151.101-.302s0-.252-.101-.353c-.05-.101-.151-.202-.151-.252.101-.151.252-.453.252-.554h.05a.982.982 0 0 0 .051-.199" fill="none" stroke="#213a79" stroke-width=".101" stroke-miterlimit="2.613"/><path d="M90.109 59.09c-.151 0-.202.05-.302.101 0 0 0 .051.101.051.051.05.202.05.302.05l.101-.151c-.102-.051-.202-.051-.202-.051z" fill-rule="evenodd" clip-rule="evenodd" fill="#fff"/><path d="M91.317 58.738s.302-.101.403-.101c.151 0 .252.101.353.151.101 0 .302.05.302.05s0 .05-.101.05c-.05 0-.252 0-.353-.101 0 .05-.05.101-.151.101s-.151-.101-.151-.151h-.202c-.049.051-.049.001-.1.001z" fill-rule="evenodd" clip-rule="evenodd" fill="#213a79"/><path d="M91.771 58.838c.05 0 .05-.05.101-.05-.101-.101-.151-.05-.201-.05-.001.05.049.1.1.1z" fill-rule="evenodd" clip-rule="evenodd" fill="#fff"/><path d="M91.771 58.788s.05 0 .05-.05-.05-.05-.05-.05c-.05 0-.101 0-.101.05 0 0 .05.05.101.05z" fill-rule="evenodd" clip-rule="evenodd" fill="#254185"/><path d="M90.915 58.537c-.504.151-.051.201-.504.05" fill="none" stroke="#254185" stroke-width=".105" stroke-miterlimit="2.613"/><path d="M101.842 86.081h.051-.051z" fill-rule="evenodd" clip-rule="evenodd" fill="#fff"/><path fill="none" stroke="#000" stroke-width=".021" stroke-miterlimit="2.613" d="M101.842 86.081h.051-.051"/><path d="M99.223 87.994s0 .101-.051.202a.391.391 0 0 1-.201-.101c0 .05-.049.05-.15.05-.15 0-.201-.05-.252-.05-.051-.05-.15-.05-.201-.101a.276.276 0 0 1-.252.151c-.15 0-.15-.05-.15-.05s-.051.101-.102.151c-.1-.05-.1-.201-.1-.201-.152.101-.354.05-.404 0 0 0-.15.05-.15.151-.102-.051-.15-.403.051-.453 0-.303.453-.202.504-.202 0 0-.051.051-.051.151 0 .051.051.051.051.051s.049 0 0-.051c0-.05.049-.101.1-.151h.15c.102 0 .152.051.152.101.051 0 .15-.05.1-.101-.049 0-.049-.05-.1-.101 0 0 .051 0 .051-.05.1-.101.352-1.108.402-1.611 0-.353-.15-.655-.252-.806 0-.051-.051-.101-.051-.151h-.051c0-.05-.049-.101-.1-.101-.152-.151-.303-.302-.354-.302-.049 0 0 .151-.1.101l-.051-.05c-.1-.201-.252-.503-.303-.503-.051-.05-.051 0-.15.05v.05c-.251-.403-.403-.655-.352-1.41 0-1.209 1.409-2.015 1.409-2.971 0-.302-.553-.454-.855-.503l.102-.252c.1.05.201.05.201.05v-.05s-.907-.101-1.007-.101c-.151 0-.202 0-.302.05-.05.05-.05.101-.151.101.05-.05.05-.101.05-.151s0-.101.05-.201c.101-.051.251-.151.554-.151h.201v-.202c.051-.05.303-.251.354-.251v.402c.102 0 .15 0 .15-.05.102 0 .152-.151.252-.202.102-.05.201 0 .453 0 .201 0 .654 0 .855.05.203 0 .605-.05.656-.101.1.05.15.05.201.101 0 0 .301-.101.352-.05s.051.101-.051.151c0 .051-.049.101-.1.101-.051.051-.102.051-.201.051-.152.101-.303.101-.303.101 0 .051.555 0 .555.051 0 .101-.303.151-.303.151 0 .05.201.151.201.151-.051.101-.201.101-.252.151-.051.05-.252.554-.301.654-.152.353-.504 1.108-.605 1.662 0 .252.051.403.252.503.15.101.354.101.555.101.201-.403.1-.755 0-.907-.102-.201-.201-.302-.102-.554.102-.403.201-.453.504-.604.252-.101 1.107-.755 1.461-1.057.453-.454 1.711-1.813 1.863-1.763.1 0 .15.101.15.252 0 .101.051.302.051.453s.049.302.049.453c0 0-.049.05-.049.101-.152.201-.656.654-.756.705-.102.101 0 .101.1 0l.756-.554c0-.05.152.252.102.302 0 .05-.102.101-.102.151-.201.101-.957.554-1.51.755-.555.201-1.311.453-1.512.453s-.352 0-.453.101c-.1.051-.301.353-.252.554.051.202.303.453.201.806a2.634 2.634 0 0 1-.201.554c-.1.101-.252.302-.352.403 0 .051-.051.051 0 .051s.453-.353.604-.756c.152-.403 0-.705-.051-.906-.15-.302 0-.504.051-.554.152-.151.354-.101.504-.151.252 0 1.158-.302 1.863-.554.654-.302 1.965-1.158 2.115-1.259s.553-.403.553-.302c.102.353.051 1.057-.1 1.208l-.051.05c-.15.151-1.107.655-1.158.655-.051.05-.051.05 0 .05.051.05.957-.453 1.057-.503.051 0 .152-.05.203-.101 0 .202.049.604-.102.705-.051.05-.102.101-.201.151-.504.202-1.359.504-1.41.504-.051.05-.201.101-.1.101.1 0 1.359-.504 1.459-.504.102.555-.15.705-.252.756-.303.101-.957.251-.957.251-.049 0-.1 0-.049.05.049 0 .906-.201.957-.201h.049c0 .201 0 .504-.15.604-.252.151-1.057.151-1.107.151s-.102.05-.102.05c0 .05.957 0 1.057 0h.051c-.051.201-.201.655-.402.705-.1.05-1.008-.101-1.057-.101-.051 0-.102-.05-.102 0s.855.201.957.252h.051c-.201.251-.504.654-.705.554-.201-.051-.555-.353-.605-.403-.049-.05-.1-.05-.15-.05.051.101.504.503.654.554-.15.151-.604.302-.604.252-.051-.051-.303-.504-.303-.454 0 0 .051.252.15.403-.049.051-.453.101-.502.051-.051-.051-.102-.252-.102-.353 0-.101-.051-.101-.051-.051 0 .051 0 .353.051.454.051.101.354.101.654 0 0 .101.102.101.252.05 0 0 .102-.05.201-.05l.252.251c.152.202.453.453.555.604.051.101.15.403.252.654.1.252.15.454.201.504.051.101.051.151-.051.302-.1.151-.402.202-.453.202s-.1-.05-.15-.101c-.102-.151-.354-.503-.404-.655-.1-.151-.25-.302-.301-.353-.051 0-.051.05 0 .101.051.101.504.756.504.806 0 .051.049.051.049.051-.1.05-.252.05-.301.05l-.051-.05c-.15-.151-.654-.806-.705-.856-.051-.05-.051.051 0 .101 0 0 .303.454.303.504-.102.05-.203.05-.252 0-.102-.05-.252-.302-.404-.403-.25-.353-.301-.252-.049.05 0 .051.049.302 0 .302-.051.05-.102 0-.152 0a1.2 1.2 0 0 1-.453-.251s-.1-.051-.051.05c.051.05.252.201.303.251-.051.05-.15.101-.201.151-.051-.051-.102-.151-.15-.151 0-.05-.102-.101-.102-.05s.051.05.102.101c0 .05.049.101.1.151-.051.151 0 .504-.051.806 0 .151.102.302.152.352-.102.101-.152.151-.152.252.051.101.152.101.102 0 0-.05 0-.101.102-.151 0 0 .049-.05.201 0 .1 0 .201.051.201.101.051.05.051.101.051.101.049.05.15 0 .1-.051 0-.05-.051-.05-.051-.101h.152c.15 0 .201.05.252.151.201.05.1.302.049.302-.049 0-.1 0-.1-.05-.15.202-.453 0-.453 0v.101c-.051.05-.102.151-.15.101 0 0-.051 0-.102-.051-.102.051-.303-.05-.303-.05s-.1.05-.252.05c-.15 0-.25-.101-.25-.101-.051.101-.252.101-.303.05 0 .05-.102.101-.152.151 0-.05-.049-.05-.049-.05v-.101c-.102.05-.252 0-.252-.05-.051.05-.102.101-.152.101-.1-.05-.049-.251 0-.302.051-.151.203-.202.303-.202-.051.05-.051.101 0 .101l.051-.051c.1-.101.15-.151.252-.151.15 0 .201 0 .252.051.051.05.1.05.1.101.051.051.102-.05.102-.101-.051 0-.051-.051-.102-.051.051-.05.051-.05.051-.101.051-.302-.201-.906-.201-1.107l.102-.101c-.102-.051-.203.05-.252.05-.051-.05-.152-.201-.203-.251 0-.05.051-.05.102-.05.102 0 .15-.05.102-.05a.438.438 0 0 1-.404-.302c-.201-.403-.402-.604-.502-.654-.051 0-.102 0-.102.05-.051 0 0 0 .051.051.051 0 .1.05.15.101.15.151.252.554.402.755h.051c-.1 0-.15 0-.201.05h-.051v-.05c-.1 0-.252-.202-.301-.252 0-.05-.051 0-.051.05 0 .051.051.101 0 .101 0 .05-.102.05-.303-.101-.15-.201-.201-.201-.201-.201 0 .05.1.201.15.252l.152.151c-.705.906-.605 1.309-.605 1.46 0 .05 0 .05.051.05-.102.051-.15.101-.15.101-.051.051 0 .151.049.101 0-.05.102-.101.203-.05h.049c.051 0 .102.05.102.05 0 .05.051.05.051.05.049 0 .049-.05.049-.101.051-.051.303-.151.404.101.051.051.1.151.051.302l-.102-.05c-.053.049-.204.099-.305.049z" fill-rule="evenodd" clip-rule="evenodd" fill="#fff"/><path d="M99.223 87.994s0 .101-.051.202a.391.391 0 0 1-.201-.101c0 .05-.049.05-.15.05-.15 0-.201-.05-.252-.05-.051-.05-.15-.05-.201-.101a.276.276 0 0 1-.252.151c-.15 0-.15-.05-.15-.05s-.051.101-.102.151c-.1-.05-.1-.201-.1-.201-.152.101-.354.05-.404 0 0 0-.15.05-.15.151-.102-.051-.15-.403.051-.453 0-.303.453-.202.504-.202 0 0-.051.051-.051.151 0 .051.051.051.051.051v-.051c0-.05.1-.151.1-.151h.15c.102 0 .152.051.152.101.051 0 .15-.05.1-.101-.049 0-.049-.05-.1-.101 0 0 .051 0 .051-.05.1-.101.402-1.108.402-1.611 0-.353-.15-.655-.252-.806 0-.051-.051-.101-.051-.151h-.051c0-.05-.049-.101-.1-.101a3.925 3.925 0 0 0-.354-.302c-.049 0 0 .151-.1.101l-.051-.05c-.1-.201-.252-.503-.303-.503-.051-.05-.051 0-.15.05v.05c-.251-.403-.352-.655-.352-1.41 0-1.209 1.409-2.015 1.409-2.971 0-.302-.553-.454-.855-.503l.102-.252c.1.05.201.05.201.05v-.05s-.907-.101-1.007-.101c-.151 0-.202 0-.302.05-.05.05-.05.101-.151.101 0-.05.05-.151.05-.151 0-.05 0-.101.05-.201.101-.051.251-.151.554-.151h.201v-.202c.051-.05.354-.251.354-.251v.402c.102 0 .15 0 .15-.05.102 0 .152-.151.252-.202.102-.05.201 0 .453 0 .201 0 .654 0 .855.05.203 0 .605-.05.656-.101.1.05.15.05.201.101 0 0 .301-.101.352-.05s.051.101-.051.151c0 .051-.049.101-.1.101-.051.051-.102.051-.201.051-.152.101-.303.101-.303.101s.555 0 .555.051c0 .101-.303.151-.303.151l.201.151c-.051.101-.201.101-.252.151-.051.05-.252.554-.301.654-.152.353-.504 1.108-.605 1.662 0 .252.051.403.252.503.15.101.354.101.555.101.201-.403.1-.755 0-.907-.102-.201-.201-.302-.102-.554.102-.403.201-.453.504-.604.252-.101 1.107-.755 1.461-1.057.453-.454 1.711-1.813 1.863-1.763.1 0 .15.101.15.252 0 .101.051.302.051.453s.049.302.049.453l-.049.101c-.152.201-.656.654-.756.705-.102.101 0 .101.1 0l.756-.554c0-.05.152.252.102.302 0 .05-.102.101-.102.151-.201.101-.957.554-1.51.755-.555.201-1.311.453-1.512.453s-.352 0-.453.101c-.1.051-.301.353-.252.554.051.202.303.453.201.806a2.634 2.634 0 0 1-.201.554c-.1.101-.252.302-.352.403 0 .051-.051.051 0 .051s.453-.353.604-.756c.152-.403 0-.705-.051-.906-.15-.302 0-.504.051-.554.152-.151.354-.101.504-.151.252 0 1.158-.302 1.863-.554.654-.302 1.965-1.158 2.115-1.259s.553-.403.553-.302c.102.353.051 1.057-.1 1.208l-.051.05c-.15.151-1.107.655-1.158.655-.051.05 0 .05 0 .05s.957-.453 1.057-.503l.203-.101c0 .202.049.604-.102.705-.051.05-.102.101-.201.151-.504.202-1.359.504-1.41.504-.051.05-.201.101-.1.101.1 0 1.359-.504 1.459-.504.102.555-.15.705-.252.756-.303.101-.957.251-.957.251s-.1 0-.049.05c.049 0 .906-.201.957-.201h.049c0 .201 0 .504-.15.604-.252.151-1.057.151-1.107.151s-.102.05-.102.05c0 .05.957 0 1.057 0h.051c-.051.201-.201.655-.402.705-.1.05-1.008-.101-1.057-.101h-.102s.855.201.957.252h.051c-.201.251-.504.654-.705.554-.201-.051-.555-.353-.605-.403-.049-.05-.1-.05-.15-.05.051.101.504.503.654.554-.15.151-.604.302-.604.252-.051-.051-.303-.504-.303-.454 0 0 .051.252.15.403-.049.051-.453.101-.502.051-.051-.051-.102-.252-.102-.353 0-.101-.051-.051-.051-.051s0 .353.051.454c.051.101.354.101.654 0 0 .101.102.101.252.05 0 0 .102-.05.201-.05l.252.251c.152.202.453.453.555.604.051.101.15.403.252.654.1.252.15.454.201.504.051.101.051.151-.051.302-.1.151-.402.202-.453.202 0 0-.1-.05-.15-.101-.102-.151-.354-.503-.404-.655-.1-.151-.25-.302-.301-.353-.051 0-.051.05 0 .101.051.101.504.756.504.806l.049.051c-.1.05-.301.05-.301.05l-.051-.05c-.15-.151-.654-.806-.705-.856-.051-.05-.051.051 0 .101l.303.504c-.102.05-.203.05-.252 0-.102-.05-.252-.302-.404-.403-.25-.353-.301-.252-.049.05 0 .051.049.302 0 .302h-.152a1.2 1.2 0 0 1-.453-.251s-.1-.051-.051.05c.051.05.252.201.303.251-.051.05-.15.101-.201.151-.051-.051-.102-.151-.15-.151 0-.05-.102-.05-.102-.05l.102.101c0 .05.049.101.1.151-.051.151-.051.504-.051.806 0 .151.102.302.152.352-.102.101-.152.151-.152.252s.152.101.102 0c0-.05 0-.101.102-.151 0 0 .049-.05.201 0 .1 0 .201.051.201.101.051.05.051.101.051.101.049.05.15 0 .1-.051 0 0-.051-.05-.051-.101h.152c.15 0 .201.05.252.151.201.05.1.302.049.302-.049 0-.1 0-.1-.05-.15.202-.453 0-.453 0v.101s-.102.151-.15.101c0 0-.051 0-.102-.051-.102.051-.303-.05-.303-.05s-.1.05-.252.05c-.15 0-.25-.101-.25-.101-.051.101-.252.101-.303.05 0 .05-.102.101-.152.151l-.049-.05v-.101c-.102.05-.252 0-.252-.05-.051.05-.102.101-.152.101-.1-.05-.049-.251 0-.302 0-.151.203-.202.303-.202-.051.05-.051.101 0 .101l.051-.051c.1-.101.15-.151.252-.151.15 0 .201 0 .252.051.051.05.1.05.1.101.051.051.102-.05.102-.101-.051 0-.051-.051-.102-.051.051-.05.051-.101.051-.101.051-.302-.201-.906-.201-1.107l.102-.101c-.102-.051-.203.05-.252.05-.051-.05-.152-.201-.203-.251 0-.05.102-.05.102-.05.102 0 .15-.05.102-.05a.438.438 0 0 1-.404-.302c-.201-.403-.402-.604-.502-.654-.051 0-.102.05-.102.05l.051.051c.051 0 .1.05.15.101.15.151.252.554.402.755h.051c-.1 0-.15 0-.201.05h-.051v-.05c-.1 0-.252-.202-.301-.252 0-.05-.051 0-.051.05v.101s-.102.05-.303-.101c-.15-.201-.201-.201-.201-.201s.1.201.15.252l.152.151c-.705.906-.605 1.309-.605 1.46l.051.05c-.102.051-.15.101-.15.101-.051.051 0 .151.049.101 0-.05.102-.101.203-.05h.049c.051 0 .102.05.102.05l.051.05s.049-.05.049-.101c.051-.051.303-.151.404.101.051.051.1.151.051.302l-.102-.05c-.053.049-.204.099-.305.049" fill="none" stroke="#213a79" stroke-width=".101" stroke-miterlimit="2.613"/><path d="M97.41 78.98l.051-.05h-.402c-.051.05-.051.101-.101.201-.051.051-.051.202-.252.403-.051.051-.403-.101-.554-.101-.151.05-.403.503-.503.554h.151c.05 0 .151 0 .202.05.05.05.201.101.252.101.05 0 .151-.101.151-.101.05 0 .05.05.05.05s-.101.151-.201.151c-.151 0-.252-.101-.303-.151h-.201c0 .05-.05.05-.05.05-.05.151-.151.302-.302.302l.051.05s.05.051.101.051c.05.05.201.151.251.151h.202s-.051.101-.151.101h-.101-.101c-.051 0-.05.05-.05.101 0 .151.05.151.101.252 0 .101-.101.251-.101.251.101.05.201-.101.251-.05.101 0 .201.05.302 0s.151-.151.252-.252c-.05 0-.05-.05-.101-.05 0-.051-.05-.051-.05-.151 0-.05.05-.151.05-.151.05 0 0 .101 0 .101 0 .05 0 .101.101.151.05 0 .05 0 .05.051.05 0 .101 0 .151.101 0 0 0 .05.05.05h-.05c.05 0 .05.051.101.101 0 0 0-.05.05-.151.102-.101.202-.202.202-.302v-.05s-.101-.101-.151-.101c0-.051-.202-.101-.202-.202 0-.15.05-.15.101-.251v.151c-.051.051 0 .151.101.202.101 0 .252.101.252.151.049 0 .049.05.049.05.051 0 .051-.101.102-.151 0-.05.1-.201.1-.353a.727.727 0 0 0-.1-.353c-.102-.101-.201-.151-.15-.251.049-.151.201-.454.25-.554l.099-.152z" fill-rule="evenodd" clip-rule="evenodd" fill="#fff"/><path d="M97.41 78.98l.051-.05h-.402c-.051.05-.051.101-.101.201-.051.051-.051.202-.252.403-.051.051-.403-.101-.554-.101-.151.05-.403.503-.503.554h.151s.151 0 .202.05c.05.05.201.101.252.101.05 0 .151-.101.151-.101l.05.05s-.101.151-.201.151c-.151 0-.252-.101-.303-.151h-.201c0 .05-.05.05-.05.05-.05.151-.151.302-.302.302l.051.05s.05.051.101.051c.05.05.201.151.251.151h.202s-.051.101-.151.101h-.101-.101c-.051 0-.05.101-.05.101 0 .151.101.151.101.252s-.101.251-.101.251c.101.05.201-.101.251-.05.101 0 .201.05.302 0s.151-.151.252-.252c0 0-.05-.05-.101-.05 0-.051-.05-.051-.05-.151 0-.05.05-.151.05-.151v.101s0 .101.101.151l.05.051c.05 0 .101 0 .151.101l.05.05h-.05c.05 0 .05.051.101.101 0 0 0-.05.05-.151.102-.101.202-.202.202-.302v-.05s-.101-.101-.151-.101c0-.051-.202-.101-.202-.202 0-.15.05-.15.101-.251v.151c-.051.051 0 .151.101.202.101 0 .252.101.252.151.049 0 .049.05.049.05.051 0 .051-.101.102-.151 0-.05.1-.201.1-.353a.727.727 0 0 0-.1-.353c-.102-.101-.201-.151-.15-.251.049-.151.201-.454.25-.554l.099-.152" fill="none" stroke="#213a79" stroke-width=".101" stroke-miterlimit="2.613"/><path d="M96.706 78.93c-.151-.05-.202 0-.302.05v.05h.101c.101.051.202.051.302.051l.101-.151h-.202z" fill-rule="evenodd" clip-rule="evenodd" fill="#fff"/><path d="M97.965 78.527s.252-.101.402-.101l.303.151c.1.051.301.051.352.051 0 0-.051.05-.1.05-.102 0-.252 0-.354-.05-.051 0-.1.05-.201.05s-.15-.101-.15-.151c-.051 0-.051 0-.152.05-.051.001-.1.001-.1-.05z" fill-rule="evenodd" clip-rule="evenodd" fill="#213a79"/><path d="M98.367 78.628c.051 0 .102 0 .15-.051-.1-.05-.201-.05-.201-.05 0 .051 0 .101.051.101z" fill-rule="evenodd" clip-rule="evenodd" fill="#fff"/><path d="M98.367 78.578c.051 0 .051 0 .051-.05 0 0 0-.05-.051-.05l-.051.05c0 .05.051.05.051.05z" fill-rule="evenodd" clip-rule="evenodd" fill="#254185"/><path d="M97.512 78.426c-.102 0-.404.051-.504.051" fill="none" stroke="#254185" stroke-width=".105" stroke-miterlimit="2.613"/><path d="M107.984 66.241h.051-.051z" fill-rule="evenodd" clip-rule="evenodd" fill="#fff"/><path fill="none" stroke="#000" stroke-width=".021" stroke-miterlimit="2.613" d="M107.984 66.241h.051-.051"/><path d="M105.367 68.154c0 .051 0 .151-.051.252-.051 0-.102-.05-.201-.101 0 .051-.051.051-.152.051-.15 0-.201-.051-.25-.101-.051 0-.152-.05-.203-.05a.386.386 0 0 1-.252.101h-.1s-.102.101-.15.151c-.102-.051-.102-.202-.102-.202-.15.101-.352.05-.402 0 0 0-.152.05-.152.101-.1 0-.15-.353.051-.454 0-.302.453-.151.504-.151 0 0-.051.05-.051.101 0 .101.051.101.051.101s.051 0 0-.05c0-.05.102-.151.102-.151h.15c.1 0 .15.05.15.101.051 0 .15-.05.102-.101l-.102-.101.051-.051c.1-.151.354-1.158.402-1.662 0-.302-.15-.604-.252-.755 0-.05-.051-.101-.051-.151h-.049c0-.05-.051-.101-.102-.15-.15-.151-.301-.252-.352-.252s0 .151-.102.101l-.051-.05v-.05c-.1-.151-.25-.453-.301-.504-.051 0-.051.051-.152.101-.25-.354-.35-.606-.35-1.361 0-1.259 1.41-2.014 1.41-2.971 0-.302-.555-.453-.855-.503l.1-.252h.201v-.05s-.906-.051-1.006-.051c-.152-.05-.203 0-.303.051-.051.05-.051.05-.152.101.051-.05.051-.101.051-.151 0-.101 0-.151.051-.201.102-.101.252-.151.555-.151h.201v-.202c.051-.05.303-.251.352-.251v.403c.102 0 .152 0 .152-.051.1-.05.15-.201.252-.201.1-.05.201-.05.451-.05.203.05.656.05.857.05.201.05.604 0 .654-.05.102 0 .15.05.201.101 0 0 .303-.101.354-.05.049 0 .049.05-.051.151 0 .05-.051.05-.102.101-.051 0-.1.05-.201.05-.15.05-.303.05-.303.101s.555-.05.555.05c0 .05-.303.101-.303.151 0 .05.201.101.201.151-.049.101-.201.05-.25.151-.051.051-.252.554-.303.655-.15.353-.504 1.057-.605 1.662 0 .252.051.403.252.503.152.101.354.101.555.05.201-.353.102-.755 0-.906s-.201-.252-.102-.503c.102-.403.203-.503.504-.604.252-.101 1.107-.755 1.461-1.108.453-.402 1.762-1.762 1.863-1.762.1.05.15.151.15.302 0 .101.051.302.051.453 0 .101.051.302.051.403 0 .05-.051.101-.051.101-.15.251-.654.654-.756.755-.1.101 0 .051.102 0l.756-.607s.15.251.1.352c0 .051-.1.101-.1.101-.203.151-.957.604-1.512.806-.553.202-1.309.453-1.51.453s-.354 0-.453.101c-.102.05-.303.302-.252.554.049.201.301.453.201.806a1.887 1.887 0 0 1-.201.503c-.102.151-.252.353-.354.403 0 .05-.051.101 0 .101.102 0 .453-.353.605-.755.15-.453 0-.705-.051-.906-.152-.303 0-.504.051-.604.15-.101.352-.101.502-.101a12.438 12.438 0 0 0 1.863-.604c.654-.252 1.965-1.108 2.115-1.208.152-.101.555-.403.555-.302.1.302.051 1.058-.102 1.158 0 .05-.051.05-.051.101-.15.101-1.107.655-1.158.655 0 0-.049.05 0 .05.051 0 .957-.453 1.059-.504.051 0 .15-.101.201-.101 0 .202.051.604-.102.705-.049 0-.1.051-.201.101-.504.252-1.359.504-1.41.554-.049 0-.201.102-.1.102.1-.051 1.359-.504 1.51-.504.051.554-.201.705-.301.705-.303.151-.957.251-.957.251-.051.05-.102.05-.051.101.051 0 .906-.202.957-.202h.051c0 .202 0 .503-.152.604-.252.151-1.057.151-1.107.151s-.102 0-.102.05H110.653c-.051.202-.201.655-.404.705-.1.051-1.006-.101-1.057-.151-.051 0-.1 0-.1.05 0 .051.855.202.955.202h.051c-.201.302-.504.705-.705.604-.201-.05-.553-.352-.604-.402s-.102-.101-.15-.05c.049.101.553.453.654.554-.152.151-.555.302-.605.251-.049-.05-.301-.503-.301-.503 0 .05.049.302.15.453-.051.05-.453.101-.504.05-.051-.05-.1-.302-.1-.353 0-.101-.051-.101-.051-.05 0 0 0 .352.051.453.049.05.352.101.654 0 0 .101.1.101.252.05l.201-.101c.051.101.15.202.252.303.15.201.453.453.553.554.051.151.152.453.252.705.102.201.15.402.201.503.051.051.051.151-.051.303-.1.151-.402.201-.453.201-.049 0-.1-.05-.15-.101-.102-.201-.352-.554-.402-.655-.102-.151-.252-.353-.303-.353-.051-.05-.051.05 0 .101.051.05.504.705.504.806l.051.05c-.102 0-.252.05-.252.05-.051 0-.051-.05-.102-.05-.15-.202-.654-.806-.705-.856-.049-.051-.049.05 0 .05 0 .051.303.504.303.554-.1 0-.201.05-.252 0-.1-.05-.252-.302-.402-.403-.252-.353-.303-.252-.051.05 0 .05.051.302 0 .302h-.15c-.201-.051-.404-.252-.453-.252 0-.05-.102-.05-.051 0 .051.101.252.252.303.302-.051.05-.152.101-.203.151-.049-.05-.1-.151-.15-.201 0 0-.1-.051-.1 0l.1.101c0 .051.051.101.102.151-.051.151 0 .503 0 .755a.43.43 0 0 0 .1.403c-.1.05-.15.151-.15.201.051.151.15.151.1.05 0-.05 0-.101.102-.151 0 0 .051-.051.201-.051.102.051.201.101.201.151.051 0 .051.05.051.101.051.05.15 0 .102-.05 0-.05 0-.101-.051-.101.051-.05.1-.05.15-.05.152.05.201.101.252.201.201.05.152.302.051.302-.051 0-.102-.05-.102-.05-.15.201-.453 0-.453 0v.101c-.049 0-.1.151-.15.101l-.102-.101c-.1.051-.301 0-.301 0s-.102.051-.252.051c-.152 0-.252-.101-.252-.101-.051.05-.252.05-.303.05 0 .051-.1.101-.15.101 0 0-.051 0-.051-.05v-.051c-.102.051-.252 0-.252-.05-.051.05-.1.101-.15.101-.102-.101-.051-.252.051-.303 0-.151.15-.201.25-.201-.049.05-.049.101 0 .101 0 0 .051-.05.051-.101.102-.05.152-.101.252-.101.152-.051.201 0 .252.05.051 0 .102.05.102.101.049 0 .1-.05.1-.101-.051-.05-.051-.05-.1-.101.049 0 .049 0 .049-.05.051-.302-.15-.957-.201-1.108.051-.05.102-.151.102-.151-.102 0-.201.101-.252.101-.051-.101-.15-.202-.201-.303h.1c.102 0 .152-.05.102-.101-.201 0-.354-.101-.402-.251-.201-.403-.404-.655-.504-.655-.051-.05-.102 0-.102 0-.049.051 0 .051.051.051.051.05.102.05.15.101.152.201.252.604.404.755h.049c-.049.051-.15.051-.201.051h-.049c-.102-.051-.252-.202-.303-.252 0-.05-.051 0-.051.05 0 0 .051.101 0 .101 0 0-.1.05-.303-.151-.15-.151-.201-.201-.201-.151 0 .051.102.151.152.252l.15.151c-.705.906-.604 1.259-.604 1.46 0 0 0 .051.049.051-.1 0-.15.05-.15.101-.051.05 0 .101.051.101 0-.05.1-.101.201-.101h.051v.05c.049 0 .1.05.1.05l.051.05c.051-.05.102-.05.051-.151.051 0 .303-.151.402.151.051.05.102.151.102.302-.051 0-.152-.051-.152-.051-.052.052-.204.052-.304.001z" fill-rule="evenodd" clip-rule="evenodd" fill="#fff"/><path d="M105.367 68.154s0 .151-.051.252c-.051 0-.102-.05-.201-.101 0 .051-.051.051-.152.051-.15 0-.201-.051-.25-.101-.051 0-.152-.05-.203-.05a.386.386 0 0 1-.252.101h-.1s-.102.101-.15.151c-.102-.051-.102-.202-.102-.202-.15.101-.352.05-.402 0 0 0-.152.05-.152.101-.1 0-.15-.353.051-.454 0-.302.453-.151.504-.151 0 0-.051.05-.051.101 0 .101.051.101.051.101v-.05c0-.05.102-.151.102-.151h.15c.1 0 .15.05.15.101.051 0 .15-.05.102-.101l-.102-.101.051-.051c.1-.151.402-1.158.402-1.662 0-.302-.15-.604-.252-.755 0-.05-.051-.101-.051-.151h-.049c0-.05-.051-.101-.102-.15-.15-.151-.352-.252-.352-.252-.051 0 0 .151-.102.101l-.051-.05v-.05c-.1-.151-.25-.453-.301-.504-.051 0-.051.051-.152.101-.25-.354-.35-.606-.35-1.361 0-1.259 1.41-2.014 1.41-2.971 0-.302-.555-.453-.855-.503l.1-.252h.201v-.05s-.906-.051-1.006-.051c-.152-.05-.203 0-.303.051-.051.05-.051.05-.152.101 0-.05.051-.151.051-.151 0-.101 0-.151.051-.201.102-.101.252-.151.555-.151h.201v-.202c.051-.05.352-.251.352-.251v.403c.102 0 .152 0 .152-.051.1-.05.15-.201.252-.201.1-.05.201-.05.451-.05.203.05.656.05.857.05.201.05.604 0 .654-.05.102 0 .15.05.201.101 0 0 .303-.101.354-.05.049 0 .049.05-.051.151 0 .05-.051.05-.102.101-.051 0-.1.05-.201.05l-.303.101s.555-.05.555.05c0 .05-.303.151-.303.151l.201.151c-.049.101-.201.05-.25.151-.051.051-.252.554-.303.655-.15.353-.504 1.057-.605 1.662 0 .252.051.403.252.503.152.101.354.101.555.05.201-.353.102-.755 0-.906s-.201-.252-.102-.503c.102-.403.203-.503.504-.604.252-.101 1.107-.755 1.461-1.108.453-.402 1.762-1.762 1.863-1.762.1.05.15.151.15.302 0 .101.051.302.051.453 0 .101.051.302.051.403l-.051.101c-.15.251-.654.654-.756.755-.1.101 0 .051.102 0l.756-.607s.15.251.1.352c0 .051-.1.101-.1.101-.203.151-.957.604-1.512.806-.553.202-1.309.453-1.51.453s-.354 0-.453.101c-.102.05-.303.302-.252.554.049.201.301.453.201.806a1.887 1.887 0 0 1-.201.503c-.102.151-.252.353-.354.403 0 .05-.051.101 0 .101.102 0 .453-.353.605-.755.15-.453 0-.705-.051-.906-.152-.303 0-.504.051-.604.15-.101.352-.101.502-.101a12.438 12.438 0 0 0 1.863-.604c.654-.252 1.965-1.108 2.115-1.208.152-.101.555-.403.555-.302.1.302.051 1.058-.102 1.158l-.051.101c-.15.101-1.107.655-1.158.655v.05s.957-.453 1.059-.504l.201-.101c0 .202.051.604-.102.705-.049 0-.1.051-.201.101-.504.252-1.359.504-1.41.554-.049 0-.201.102-.1.102.1-.051 1.359-.504 1.51-.504.051.554-.201.705-.301.705-.303.151-.957.251-.957.251s-.102.05-.051.101c.051 0 .906-.202.957-.202h.051c0 .202 0 .503-.152.604-.252.151-1.057.151-1.107.151s-.102 0-.102.05H110.653c-.051.202-.201.655-.404.705-.1.051-1.006-.101-1.057-.151-.051 0-.1.05-.1.05s.855.202.955.202h.051c-.201.302-.504.705-.705.604-.201-.05-.553-.352-.604-.402s-.102-.101-.15-.05c.049.101.553.453.654.554-.152.151-.555.302-.605.251-.049-.05-.301-.503-.301-.503 0 .05.049.302.15.453-.051.05-.453.101-.504.05-.051-.05-.1-.302-.1-.353 0-.101-.051-.05-.051-.05s0 .352.051.453c.049.05.352.101.654 0 0 .101.1.101.252.05l.201-.101c.051.101.15.202.252.303.15.201.453.453.553.554.051.151.152.453.252.705.102.201.15.402.201.503.051.051.051.151-.051.303-.1.151-.402.201-.453.201 0 0-.1-.05-.15-.101-.102-.201-.352-.554-.402-.655-.102-.151-.252-.353-.303-.353-.051-.05-.051.05 0 .101.051.05.504.705.504.806l.051.05c-.102 0-.252.05-.252.05s-.051-.05-.102-.05c-.15-.202-.654-.806-.705-.856-.049-.051-.049.05 0 .05 0 .051.303.554.303.554-.1 0-.201.05-.252 0-.1-.05-.252-.302-.402-.403-.252-.353-.303-.252-.051.05 0 .05.051.302 0 .302h-.15c-.201-.051-.404-.252-.453-.252 0-.05-.102-.05-.051 0 .051.101.252.252.303.302-.051.05-.152.101-.203.151-.049-.05-.1-.151-.15-.201h-.1l.1.101c0 .051.051.101.102.151-.051.151 0 .503 0 .755 0 .202.049.353.1.403-.1.05-.15.151-.15.201 0 .151.15.151.1.05 0-.05 0-.101.102-.151 0 0 .051-.051.201-.051.102.051.201.101.201.151.051 0 .051.101.051.101.051.05.15 0 .102-.05 0 0 0-.101-.051-.101.051-.05.1-.05.15-.05.152.05.201.101.252.201.201.05.152.302.051.302-.051 0-.102-.05-.102-.05-.15.201-.453 0-.453 0v.101s-.1.151-.15.101l-.102-.101c-.1.051-.301 0-.301 0s-.102.051-.252.051c-.152 0-.252-.101-.252-.101-.051.05-.252.05-.303.05 0 .051-.1.101-.15.101 0 0-.051 0-.051-.05v-.051c-.102.051-.252 0-.252-.05-.051.05-.1.101-.15.101-.102-.101-.051-.252.051-.303 0-.151.15-.201.25-.201-.049.05-.049.101 0 .101 0 0 .051-.05.051-.101.102-.05.152-.101.252-.101.152-.051.201 0 .252.05.051 0 .102.05.102.101.049 0 .1-.05.1-.101-.051-.05-.051-.05-.1-.101.049 0 .049-.05.049-.05.051-.302-.15-.957-.201-1.108.051-.05.102-.151.102-.151-.102 0-.201.101-.252.101-.051-.101-.15-.202-.201-.303h.1c.102 0 .152-.05.102-.101-.201 0-.354-.101-.402-.251-.201-.403-.404-.655-.504-.655-.051-.05-.102 0-.102 0s0 .051.051.051c.051.05.102.05.15.101.152.201.252.604.404.755h.049c-.049.051-.15.051-.201.051h-.049c-.102-.051-.252-.202-.303-.252 0-.05-.051 0-.051.05v.101s-.1.05-.303-.151c-.15-.151-.201-.151-.201-.151s.102.151.152.252l.15.151c-.705.906-.604 1.259-.604 1.46l.049.051c-.1 0-.15.05-.15.101-.051.05 0 .101.051.101 0-.05.1-.101.201-.101h.051v.05c.049 0 .1.05.1.05l.051.05s.102-.05.051-.151c.051 0 .303-.151.402.151.051.05.102.151.102.302l-.152-.051c-.052.052-.204.052-.304.001" fill="none" stroke="#213a79" stroke-width=".101" stroke-miterlimit="2.613"/><path d="M103.555 59.141h.049-.402c-.051 0-.051.101-.102.151-.049.101-.049.252-.25.453-.051.051-.404-.101-.555-.101s-.402.504-.504.554h.15c.051 0 .152 0 .203.05.049 0 .201.101.25.101.051 0 .152-.101.152-.101.051 0 .051 0 .051.05 0 0-.102.151-.203.151-.15-.05-.25-.101-.301-.151h-.201l-.051.05c-.051.101-.15.302-.252.302-.051 0 0 .05 0 .05s.051 0 .102.05c.049 0 .201.151.25.151.051 0 .152-.05.203 0 0 0-.051.101-.152.101h-.1-.102c-.051 0-.051.051-.051.101 0 .102.102.151.102.202 0 .101-.102.251-.102.302.102.05.201-.101.252-.101.102.05.201.101.303.05.1-.05.201-.151.252-.251-.051 0-.051-.051-.102-.051 0-.05-.051-.101-.051-.151 0-.05.051-.151.051-.151.051 0 0 .05 0 .101 0 .05 0 .101.102.151h.051c.049.05.1.05.15.151l.051.05s0 .05.051.101c0 0 0-.05.049-.151.102-.101.201-.202.201-.302v-.051s-.1-.101-.15-.101c0-.05-.201-.151-.201-.251 0-.101.051-.101.102-.202v.151c-.051.05 0 .101.1.151.102.05.252.151.252.151.051.05.051.05.051.101.051-.05.051-.151.1-.201 0-.05.102-.151.102-.302s-.051-.252-.102-.353c-.1-.101-.201-.202-.15-.252a5.95 5.95 0 0 1 .252-.554c-.002.002.1-.149.1-.199z" fill-rule="evenodd" clip-rule="evenodd" fill="#fff"/><path d="M103.555 59.141h.049-.402c-.051 0-.051.101-.102.151-.049.101-.049.252-.25.453-.051.051-.404-.101-.555-.101s-.402.504-.504.554h.15s.152 0 .203.05c.049 0 .201.101.25.101.051 0 .152-.101.152-.101s.051 0 .051.05c0 0-.102.151-.203.151-.15-.05-.25-.101-.301-.151h-.201l-.051.05c-.051.101-.15.302-.252.302v.05s.051 0 .102.05c.049 0 .201.151.25.151.051 0 .152-.05.203 0 0 0-.051.101-.152.101h-.1-.102c-.051 0-.051.101-.051.101 0 .102.102.151.102.202 0 .101-.102.302-.102.302.102.05.201-.101.252-.101.102.05.201.101.303.05.1-.05.201-.151.252-.251 0 0-.051-.051-.102-.051 0-.05-.051-.101-.051-.151 0-.05.051-.151.051-.151v.101s0 .101.102.151h.051c.049.05.1.05.15.151l.051.05s0 .05.051.101c0 0 0-.05.049-.151.102-.101.201-.202.201-.302v-.051s-.1-.101-.15-.101c0-.05-.201-.151-.201-.251 0-.101.051-.101.102-.202v.151c-.051.05 0 .101.1.151.102.05.252.151.252.151.051.05.051.05.051.101.051-.05.051-.151.1-.201 0-.05.102-.151.102-.302s-.051-.252-.102-.353c-.1-.101-.201-.202-.15-.252a5.95 5.95 0 0 1 .252-.554c-.002.002.1-.149.1-.199" fill="none" stroke="#213a79" stroke-width=".101" stroke-miterlimit="2.613"/><path d="M102.85 59.09c-.152 0-.203.05-.303.101.051 0 .051.051.1.051.102.05.203.05.303.05l.102-.151c-.103-.051-.154-.051-.202-.051z" fill-rule="evenodd" clip-rule="evenodd" fill="#fff"/><path d="M104.107 58.738s.252-.101.402-.101c.102 0 .203.101.303.151.102 0 .303.05.352.05 0 0-.049.05-.1.05-.102 0-.252 0-.352-.101-.051.05-.102.101-.203.101-.1 0-.15-.101-.15-.151h-.15c-.051.051-.102.001-.102.001z" fill-rule="evenodd" clip-rule="evenodd" fill="#213a79"/><path d="M104.51 58.838c.051 0 .102-.05.152-.05-.102-.101-.203-.05-.203-.05 0 .05 0 .1.051.1z" fill-rule="evenodd" clip-rule="evenodd" fill="#fff"/><path d="M104.51 58.788c.051 0 .051 0 .051-.05s0-.05-.051-.05c0 0-.051 0-.051.05l.051.05z" fill-rule="evenodd" clip-rule="evenodd" fill="#254185"/><path d="M103.654 58.637c-.1 0-.402.05-.453.05" fill="none" stroke="#254185" stroke-width=".105" stroke-miterlimit="2.613"/><path d="M23.69 107.078h-.454c-.05-1.51-.654-1.912-2.064-1.912-.554 0-1.51-.051-1.51.453v7.201c0 1.107.251 1.51 1.712 1.609v.354c-.856-.051-1.712-.051-2.518-.102-.806.051-1.612.051-2.417.102v-.354c1.46-.1 1.662-.502 1.662-1.609v-7.201c0-.453-.655-.453-1.259-.453-1.511 0-2.216.1-2.316 1.912h-.353v-2.365h9.366l.151 2.365zM30.438 111.863c0 .502 0 1.611.151 2.014.202.553.806.553 1.31.553v.354c-.705-.051-1.46-.051-2.216-.102-.755.051-1.511.051-2.266.102v-.354c.504 0 1.108 0 1.31-.553.151-.402.151-1.512.151-2.014v-4.281c0-.504 0-1.611-.151-2.014-.202-.504-.806-.504-1.31-.504v-.352c.705 0 1.46.049 2.166.049.806 0 1.561-.049 2.316-.049v.352c-.504 0-1.108 0-1.31.504-.151.402-.151 1.51-.151 2.014v1.762h5.438v-1.762c0-.504 0-1.611-.151-2.014-.201-.504-.806-.504-1.309-.504v-.352c.755 0 1.46.049 2.215.049.756 0 1.511-.049 2.267-.049v.352c-.504 0-1.108 0-1.31.504-.151.402-.151 1.51-.151 2.014v4.281c0 .502 0 1.611.151 2.014.201.553.806.553 1.31.553v.354c-.756-.051-1.461-.051-2.216-.102-.755.051-1.511.051-2.266.102v-.354c.503 0 1.108 0 1.309-.553.151-.402.151-1.512.151-2.014v-2.016h-5.438v2.016zM43.933 107.633c0-.453 0-1.611-.151-2.014-.201-.504-.805-.504-1.309-.504v-.402h7.553v2.266h-.353c-.251-1.764-1.057-1.863-2.669-1.863h-1.107c-.453 0-.403-.051-.403.604v3.625c2.115.102 2.417-.805 2.467-1.861h.353c0 .654 0 1.359-.05 2.064.05.604.05 1.258.05 1.863h-.353c-.201-1.562-1.007-1.662-2.467-1.662v2.518c0 .453 0 1.158.302 1.51.403.555 1.309.555 1.913.555 1.612-.051 2.619-.252 2.82-2.064h.353l-.151 2.467h-8.258v-.352c.503 0 1.107 0 1.309-.504.151-.402.151-1.561.151-2.014v-4.232zM71.125 110.754c0 2.77-1.058 4.18-3.978 4.18-2.719 0-4.028-.957-4.028-3.727v-3.625c0-.504 0-1.611-.151-2.014-.201-.504-.806-.504-1.309-.504v-.352c.705 0 1.46.049 2.166.049.755 0 1.51-.049 2.316-.049v.352c-.503 0-1.158-.051-1.309.504-.151.402-.151 1.51-.151 2.014v3.727c0 1.963.755 3.072 2.87 3.072 2.064 0 3.122-1.109 3.122-3.123v-3.322c0-.555 0-1.713-.151-2.166-.202-.654-.805-.705-1.41-.705v-.352c.604 0 1.158.049 1.763.049.554 0 1.107-.049 1.711-.049v.352c-.503 0-1.007 0-1.259.555-.201.502-.201 1.711-.201 2.316v2.818h-.001zM78.074 105.971c-.453-.654-.806-.906-1.662-.906v-.352c.503 0 .957.049 1.46.049.403 0 .806-.049 1.208-.049l6.395 7.805h.05v-4.23c0-.654 0-1.711-.151-2.316-.151-.855-.604-.805-1.359-.906v-.352c.604 0 1.107.049 1.712.049.503 0 1.007-.049 1.611-.049v.352c-.604.051-.957 0-1.158.654-.151.504-.201 2.064-.201 2.67v6.545h-.454c-.352-.402-.654-.855-1.007-1.258l-5.941-7.201h-.051v5.086c0 .555 0 1.711.252 2.215.252.605.755.555 1.31.654v.354c-.554-.051-1.158-.051-1.763-.102-.554.051-1.108.051-1.662.102v-.354c.604-.1 1.159-.1 1.31-.754.101-.555.101-1.512.101-2.115v-5.591zM92.626 107.582c0-.504 0-1.611-.151-2.014-.202-.504-.806-.504-1.309-.504v-.352c.705 0 1.46.049 2.165.049.806 0 1.561-.049 2.316-.049v.352c-.503 0-1.108 0-1.309.504-.151.402-.151 1.51-.151 2.014v4.281c0 .502 0 1.611.151 2.014.201.553.806.553 1.309.553v.354c-.705-.051-1.46-.051-2.165-.102-.806.051-1.562.051-2.316.102v-.354c.503 0 1.107 0 1.309-.553.151-.402.151-1.512.151-2.014v-4.281zM100.533 106.928c-.404-.957-.605-1.812-1.863-1.863v-.352c.754 0 1.459.049 2.164.049.756 0 1.461-.049 2.217-.049v.352c-.404 0-1.158 0-1.158.604 0 .555.906 2.871 1.158 3.525l1.51 3.828 1.461-3.525c.301-.756 1.158-3.021 1.158-3.676 0-.807-.605-.756-1.209-.756v-.352c.604 0 1.158.049 1.762.049.504 0 1.059-.049 1.562-.049v.352c-1.311-.051-1.562 1.26-1.965 2.316l-3.072 7.654h-.453l-3.272-8.107zM113.625 107.633c0-.453 0-1.611-.152-2.014-.201-.504-.855-.504-1.309-.504v-.402h7.553v2.266h-.352c-.303-1.764-1.107-1.863-2.719-1.863h-1.059c-.502 0-.402-.051-.402.604v3.625c2.064.102 2.367-.805 2.467-1.861h.354c0 .654-.051 1.359-.051 2.064 0 .604.051 1.258.051 1.863h-.354c-.201-1.562-1.006-1.662-2.467-1.662v2.518c0 .453 0 1.158.252 1.51.402.555 1.359.555 1.963.555 1.562-.051 2.619-.252 2.82-2.064h.354l-.152 2.467h-8.258v-.352c.453 0 1.107 0 1.309-.504.152-.402.152-1.561.152-2.014v-4.232zM133.111 113.523c.504.555.705.756 1.512.906v.354c-.453-.051-.957-.051-1.41-.102-.354.051-.756.051-1.107.102l-.705-.906-2.568-3.123c-.453-.604-.402-.654-1.209-.654v1.764c0 .502 0 1.611.102 2.014.201.553.805.553 1.309.553v.354c-.705-.051-1.41-.051-2.115-.102-.805.051-1.561.051-2.316.102v-.354c.504 0 1.158 0 1.311-.553.15-.402.15-1.512.15-2.014v-4.281c0-.504 0-1.611-.15-2.014-.152-.555-.807-.504-1.311-.504v-.352c.857 0 1.764.049 2.619.049.654 0 1.309-.049 1.965-.049 1.711 0 3.473.402 3.473 2.518 0 1.611-1.258 2.467-2.77 2.617l3.22 3.675zm-5.488-3.877c1.863 0 3.273 0 3.273-2.215 0-1.359-.756-2.266-2.115-2.266-.201 0-.855-.051-1.006 0-.203.1-.152.352-.152.553v3.928zM137.896 111.711h.352c.303 1.512 1.158 2.82 2.871 2.82 1.207 0 2.215-.654 2.215-1.914 0-1.359-1.209-1.912-2.316-2.365-1.41-.555-2.869-1.26-2.869-2.973 0-1.762 1.359-2.768 3.02-2.768.807 0 1.613.301 2.268.805l.352-.604h.201l.051 2.617h-.352c-.354-1.258-1.059-2.416-2.52-2.416-1.006 0-1.812.654-1.812 1.611 0 1.209 1.109 1.611 2.064 2.014 1.562.654 3.324 1.461 3.324 3.424 0 2.014-1.863 2.971-3.625 2.971-1.059 0-1.863-.301-2.67-.906l-.352.654h-.201v-2.97h-.001zM150.082 107.582c0-.504 0-1.611-.15-2.014-.152-.504-.807-.504-1.311-.504v-.352c.756 0 1.461.049 2.217.049.754 0 1.51-.049 2.316-.049v.352c-.504 0-1.158 0-1.311.504-.15.402-.15 1.51-.15 2.014v4.281c0 .502 0 1.611.15 2.014.152.553.807.553 1.311.553v.354c-.756-.051-1.461-.051-2.217-.102-.756.051-1.51.051-2.316.102v-.354c.504 0 1.158 0 1.311-.553.15-.402.15-1.512.15-2.014v-4.281zM166.396 107.078h-.402c-.102-1.51-.654-1.912-2.064-1.912-.604 0-1.512-.051-1.512.453v7.201c0 1.107.203 1.51 1.713 1.609v.354c-.855-.051-1.713-.051-2.518-.102-.807.051-1.611.051-2.418.102v-.354c1.461-.1 1.662-.502 1.662-1.609v-7.201c0-.453-.654-.453-1.258-.453-1.512 0-2.268.1-2.316 1.912h-.354v-2.365h9.367l.1 2.365zM174.354 112.77c0 1.459.051 1.51 1.51 1.66v.354c-.756-.051-1.51-.051-2.316-.102-.756.051-1.51.051-2.316.102v-.354c1.512-.15 1.561-.25 1.561-1.66v-1.863l-1.408-2.418c-.152-.301-1.311-2.617-1.863-3.172-.252-.303-.504-.201-.857-.252v-.352c.656 0 1.359.049 2.064.049s1.41-.049 2.115-.049v.352c-.301 0-1.107-.051-1.107.453 0 .402.201.756.402 1.107l1.965 3.627.957-1.562c.301-.502 1.51-2.467 1.51-3.021 0-.553-.705-.553-1.107-.604v-.352c.553 0 1.107.049 1.662.049.453 0 .957-.049 1.459-.049v.352c-.855.051-1.207.654-1.611 1.359l-2.617 4.33v2.016h-.003zM55.212 126.666c0-.553 0-1.861-.151-2.365-.251-.605-.957-.605-1.561-.605v-.402c.856 0 1.712.051 2.568.051.906 0 1.762-.051 2.669-.051v.402c-.554 0-1.31 0-1.511.605-.202.504-.202 1.812-.202 2.365v5.238c0 2.266.353 2.668 2.619 2.668.856 0 1.813 0 2.518-.453.906-.553 1.007-1.209 1.158-2.215h.453l-.151 3.121c-.302 0-.655 0-.957-.051-3.021.051-6.093.051-9.165.051v-.402c.604 0 1.31 0 1.561-.604.151-.453.151-1.764.151-2.367v-4.986h.001zM68.658 127.875c0-.504 0-1.611-.151-2.014-.201-.555-.856-.555-1.309-.555v-.352c.705.051 1.46.051 2.165.102.755-.051 1.511-.051 2.317-.102v.352c-.504 0-1.108 0-1.31.555-.151.402-.151 1.51-.151 2.014v4.281c0 .453 0 1.611.151 2.014.201.504.806.504 1.31.504v.352c-.756 0-1.461-.051-2.216-.051-.755 0-1.511.051-2.266.051v-.352c.453 0 1.108 0 1.309-.504.151-.402.151-1.561.151-2.014v-4.281z" fill-rule="evenodd" clip-rule="evenodd"/><path d="M76.362 127.17c-.353-.957-.554-1.812-1.813-1.863v-.352c.705.051 1.41.051 2.115.102.756-.051 1.511-.051 2.267-.102v.352c-.454 0-1.209 0-1.209.656 0 .502.906 2.818 1.159 3.473l1.561 3.879 1.46-3.525c.252-.756 1.108-3.072 1.108-3.727 0-.756-.604-.756-1.158-.756v-.352c.554.051 1.158.051 1.712.102.554-.051 1.058-.051 1.612-.102v.352c-1.31 0-1.562 1.311-1.964 2.316l-3.122 7.705h-.454l-3.274-8.158z" fill-rule="evenodd" clip-rule="evenodd" fill="#254185"/><path d="M89.454 127.926c0-.504 0-1.611-.151-2.014-.201-.555-.806-.555-1.31-.555v-.402h7.554v2.316h-.353c-.252-1.764-1.058-1.914-2.669-1.914h-1.108c-.453 0-.403 0-.403.654v3.576c2.115.1 2.417-.756 2.518-1.863h.353c-.05.705-.05 1.41-.101 2.064.05.654.05 1.26.101 1.914h-.353c-.251-1.611-1.057-1.662-2.518-1.662v2.467c0 .453 0 1.158.302 1.561.403.504 1.309.555 1.964.504 1.561 0 2.568-.201 2.769-2.014h.353l-.101 2.467h-8.309v-.352c.504 0 1.108 0 1.31-.555.151-.402.151-1.51.151-2.014v-4.178h.001zM108.992 133.768c.453.604.705.805 1.461.906v.352c-.453 0-.908-.051-1.359-.051-.404 0-.756.051-1.158.051l-.705-.855-2.518-3.172c-.504-.555-.455-.654-1.26-.654v1.812c0 .453 0 1.611.15 2.014.201.555.807.504 1.311.504v.352c-.705 0-1.41-.051-2.166-.051s-1.512.051-2.266.051v-.352c.504 0 1.107 0 1.309-.504.102-.402.102-1.561.102-2.014v-4.281c0-.504 0-1.611-.102-2.014-.201-.555-.805-.555-1.309-.555v-.352c.855.051 1.762.051 2.617.102.605-.051 1.26-.051 1.914-.102 1.764 0 3.475.402 3.475 2.518 0 1.662-1.209 2.467-2.719 2.619l3.223 3.676zm-5.539-3.829c1.914 0 3.324-.049 3.324-2.266 0-1.309-.807-2.266-2.166-2.266-.152 0-.855-.051-.957 0-.201.1-.201.402-.201.555v3.977zM116.494 132.156c0 .453 0 1.611.152 2.014.252.604.957.504 1.459.504v.352c-.754 0-1.561-.051-2.365-.051-.756 0-1.461.051-2.217.051v-.352c.504 0 1.107 0 1.311-.504.1-.402.1-1.561.1-2.014v-4.281c0-.504 0-1.611-.1-2.014-.203-.555-.807-.555-1.311-.555v-.352c.756.051 1.512.051 2.266.102.756-.051 1.461-.051 2.217-.102 1.611.102 3.475.705 3.475 2.668 0 2.217-2.166 2.721-3.928 2.721-.303 0-.957-.051-1.059-.051v1.864zm0-2.265c.303 0 .605.049.906.049 1.562 0 2.316-.654 2.316-2.316 0-1.459-.703-2.215-2.164-2.215-1.107.051-1.059-.051-1.059.705v3.777h.001zM124.553 130.041c0-3.021 2.668-5.236 5.588-5.236 2.922 0 5.439 2.113 5.439 5.135 0 3.123-2.418 5.238-5.49 5.238-2.971 0-5.537-2.065-5.537-5.137zm1.912 0c0 2.367.957 4.732 3.727 4.732 2.668 0 3.525-2.518 3.525-4.783s-.957-4.783-3.627-4.783c-2.617 0-3.625 2.568-3.625 4.834zM138.35 130.041c0-3.021 2.668-5.236 5.59-5.236 2.92 0 5.488 2.113 5.488 5.135 0 3.123-2.469 5.238-5.539 5.238-2.971 0-5.539-2.065-5.539-5.137zm1.912 0c0 2.367.957 4.732 3.727 4.732 2.67 0 3.525-2.518 3.525-4.783s-.957-4.783-3.625-4.783c-2.619 0-3.627 2.568-3.627 4.834zM154.211 127.875c0-.504 0-1.611-.15-2.014-.201-.555-.807-.555-1.311-.555v-.352c.756.051 1.461.051 2.166.102.807-.051 1.561-.051 2.316-.102v.352c-.453 0-1.107 0-1.309.555-.152.402-.152 1.51-.152 2.014v4.482c0 1.963.303 2.266 2.266 2.266.705 0 1.512.051 2.166-.402.756-.453.807-1.008.957-1.863h.402l-.15 2.668c-.252 0-.555 0-.807-.051-2.617.051-5.236.051-7.855.051v-.352c.504 0 1.109 0 1.311-.504.15-.402.15-1.561.15-2.014v-4.281z" fill-rule="evenodd" clip-rule="evenodd"/><path d="M41.667 132.961c-.453 1.713-1.158 5.389-3.625 5.389-.554 0-1.359-.252-1.359-.906a.45.45 0 0 1 .453-.453c.705 0 .302 1.006 1.058 1.006.705 0 1.107-1.158 1.309-1.66l2.215-8.561h-1.309l.101-.354h1.309c.705-2.215 1.612-5.689 3.626-5.689.554 0 1.359.303 1.359.957 0 .252-.151.453-.402.453-.403 0-.504-.303-.554-.555-.101-.303-.151-.504-.503-.504-1.208 0-2.115 4.482-2.316 5.338h1.359l-.101.354h-1.36l-1.26 5.185z" fill-rule="evenodd" clip-rule="evenodd" fill="#254185"/><path d="M31.042 131.904c0-1.914 1.561-4.885 3.776-4.885 1.511 0 2.266 1.309 2.266 2.668 0 1.914-1.662 4.584-3.777 4.584-1.409 0-2.265-.957-2.265-2.367zm4.834-3.324c0-.553-.302-1.209-.957-1.209-1.712 0-2.669 3.979-2.669 5.338 0 .705.302 1.209 1.108 1.209 1.763 0 2.518-3.928 2.518-5.338z" fill-rule="evenodd" clip-rule="evenodd"/><path d="M80.335 84.411l-2.188-5.232c-4.076 1.104-7.225 3.339-7.405 5.092-.05.202.101.554.251.957.202.402.403.907.604 1.359.202.454.604 1.511.957 2.266.251.503.604.705.906.856-.806-.705-.201-1.762.755-2.619.202-.151.402-.352.604-.503.101-.051.201-.151.303-.201.978-.626 3.108-1.434 5.213-1.975zM88.853 81.145L87.25 77.31c-1.312.529-3.423.803-5.681 1.169-.604.1-1.259.202-1.914.353-.514.097-1.017.213-1.507.346l2.188 5.232a23.24 23.24 0 0 1 1.788-.392c.151 0 .302 0 .403-.051 2.668-.403 5.992-1.208 6.294-2.115.076-.154.064-.428.032-.707zM81.95 74.977l-2.351-5.096a21.68 21.68 0 0 0-1.556.592c-1.611.704-3.424 1.712-3.877 2.971-.051.151.151.604.302.906.201.403.403.604.604 1.057.252.454.554 1.31.806 1.914.151.303.251.504.353.605-.252-.755 1.561-1.611 2.92-2.064.695-.233 1.738-.551 2.799-.885z" fill-rule="evenodd" clip-rule="evenodd" fill="#e5a430"/><path d="M87.551 71.127l-1.442-3.15a7.48 7.48 0 0 1-1.519.482 6.119 6.119 0 0 1-.504.151c-.654.151-1.662.403-2.669.705-.615.173-1.243.369-1.818.566l2.351 5.096a103.72 103.72 0 0 0 1.632-.526c.806-.251 1.562-.553 1.964-.755 1.058-.504 1.914-1.31 2.014-1.812.051-.152.051-.403 0-.655l-.009-.102z" fill-rule="evenodd" clip-rule="evenodd" fill="#e5a430"/><path d="M82.207 69.088l-.312-1.068c-.498.085-.948.018-1.082-.316.051.15.151.453.252.806.151.302.251.604.353.805.274-.082.538-.158.789-.227z" fill-rule="evenodd" clip-rule="evenodd" fill="#e5a430"/><path d="M83.332 68.783l-.323-1.176c-.32.194-.731.349-1.114.413l.312 1.068c.409-.114.786-.212 1.125-.305z" fill-rule="evenodd" clip-rule="evenodd" fill="#e5a430"/><path d="M82.005 74.959l-.309-.636c-.92.276-1.893.569-2.797.883-2.316.806-3.071 1.611-3.021 2.114.151.303.251.504.353.605-.252-.755 1.561-1.611 2.92-2.064.707-.236 1.774-.562 2.854-.902z" fill-rule="evenodd" clip-rule="evenodd" fill="#9ba4c2"/><path d="M81.696 74.323l.309.636c.537-.169 1.076-.342 1.577-.508.806-.252 1.562-.554 1.964-.755 1.058-.504 1.914-1.31 2.014-1.812.051-.152.051-.403 0-.655v-.051c-.251.807-1.057 1.31-2.165 1.863-.67.383-2.107.806-3.699 1.282zM79.9 70.579l-.324-.69c-.592.204-1.126.407-1.533.585-1.611.705-3.424 1.712-3.877 2.971-.051.151.151.604.302.906-.151-.705 1.611-2.316 3.828-3.173a25.796 25.796 0 0 1 1.604-.599z" fill-rule="evenodd" clip-rule="evenodd" fill="#9ba4c2"/><path d="M86.381 68.645l-.306-.653a7.628 7.628 0 0 1-1.485.467 6.119 6.119 0 0 1-.504.151c-.654.151-1.662.403-2.669.705-.624.175-1.259.375-1.841.574l.324.69c1.661-.563 3.366-.999 4.387-1.264.849-.227 1.571-.405 2.094-.67zM80.477 84.375l-.289-.653c-2.227.528-4.59 1.374-5.921 2.362-1.46 1.107-1.762 1.913-1.711 2.769.251.503.604.705.906.856-.806-.705-.201-1.762.755-2.619.202-.151.402-.352.604-.503.101-.051.202-.151.303-.201.998-.64 3.203-1.47 5.353-2.011zM80.188 83.721l.289.653c.56-.141 1.115-.262 1.646-.355.151 0 .302 0 .403-.051 2.668-.402 5.992-1.208 6.294-2.115.1-.202.05-.604 0-.957-.201 1.158-3.827 2.014-6.546 2.417a26.13 26.13 0 0 0-2.086.408zM78.457 79.872l-.312-.693c-4.075 1.104-7.223 3.338-7.402 5.091-.051.202.101.554.251.957.214-1.967 3.371-4.226 7.463-5.355z" fill-rule="evenodd" clip-rule="evenodd" fill="#9ba4c2"/><path d="M87.7 77.851l-.279-.613c-1.295.577-3.493.859-5.852 1.242-.604.1-1.259.202-1.914.353-.514.097-1.019.213-1.51.347l.312.693a20.34 20.34 0 0 1 2.256-.486c3.479-.556 5.762-.922 6.987-1.536z" fill-rule="evenodd" clip-rule="evenodd" fill="#9ba4c2"/><path d="M120.297 84.408l2.188-5.232c4.076 1.104 7.225 3.339 7.404 5.092.051.202-.1.554-.252.956-.201.403-.402.907-.604 1.36-.201.454-.605 1.511-.957 2.267-.252.503-.604.705-.906.855.807-.705.201-1.762-.756-2.619-.201-.15-.402-.353-.604-.503-.102-.05-.201-.151-.303-.201-.976-.625-3.107-1.433-5.21-1.975z" fill-rule="evenodd" clip-rule="evenodd" fill="#e5a430"/><path d="M111.777 81.143l1.604-3.834c1.312.528 3.424.803 5.682 1.169.605.101 1.26.202 1.914.353.514.097 1.018.214 1.508.346l-2.188 5.232a23.426 23.426 0 0 0-1.787-.392c-.152 0-.303 0-.404-.05-2.668-.403-5.992-1.208-6.293-2.115-.079-.156-.067-.431-.036-.709zM118.682 74.974l2.352-5.096c.6.206 1.143.413 1.555.592 1.611.705 3.424 1.712 3.877 2.971.051.152-.15.604-.301.906-.203.403-.404.605-.605 1.058-.252.454-.555 1.309-.807 1.914-.15.302-.25.503-.352.604.252-.755-1.561-1.611-2.92-2.064-.696-.232-1.739-.551-2.799-.885zM113.08 71.125l1.441-3.15c.5.229 1.076.389 1.52.482.152.05.303.101.504.151.654.151 1.662.403 2.67.705.615.173 1.242.369 1.818.566l-2.352 5.096c-.555-.175-1.115-.353-1.633-.526-.807-.251-1.562-.553-1.963-.754-1.059-.504-1.914-1.31-2.016-1.813-.049-.152-.049-.403 0-.655.005-.034.007-.068.011-.102z" fill-rule="evenodd" clip-rule="evenodd" fill="#e5a430"/><path d="M118.424 69.085l.312-1.067c.498.084.947.017 1.082-.317-.051.151-.15.454-.252.806-.15.302-.252.604-.354.805a33.547 33.547 0 0 0-.788-.227z" fill-rule="evenodd" clip-rule="evenodd" fill="#e5a430"/><path d="M117.299 68.781l.324-1.176c.32.193.732.348 1.113.413l-.312 1.067c-.408-.113-.785-.211-1.125-.304z" fill-rule="evenodd" clip-rule="evenodd" fill="#e5a430"/><path d="M118.625 74.957l.311-.636c.92.275 1.893.569 2.797.883 2.316.805 3.07 1.611 3.02 2.115-.15.302-.25.503-.352.604.252-.755-1.561-1.611-2.92-2.064-.708-.236-1.774-.562-2.856-.902z" fill-rule="evenodd" clip-rule="evenodd" fill="#9ba4c2"/><path d="M118.936 74.321l-.311.636a125.71 125.71 0 0 1-1.576-.508c-.807-.252-1.562-.554-1.963-.755-1.059-.504-1.914-1.31-2.016-1.813-.049-.152-.049-.403 0-.655v-.05c.252.806 1.059 1.31 2.166 1.863.67.383 2.108.805 3.7 1.282zM120.73 70.576l.324-.69c.592.204 1.127.407 1.533.585 1.611.706 3.424 1.712 3.877 2.971.051.151-.15.604-.301.906.15-.705-1.611-2.316-3.828-3.172a25.99 25.99 0 0 0-1.605-.6z" fill-rule="evenodd" clip-rule="evenodd" fill="#9ba4c2"/><path d="M114.25 68.642l.307-.653a7.62 7.62 0 0 0 1.484.467c.152.05.303.101.504.151a44.81 44.81 0 0 1 2.668.705c.625.175 1.26.375 1.842.574l-.324.69c-1.66-.563-3.365-.999-4.387-1.264-.85-.226-1.571-.405-2.094-.67zM120.154 84.372l.289-.653c2.227.528 4.59 1.373 5.922 2.361 1.459 1.108 1.762 1.913 1.711 2.77-.252.503-.604.705-.906.855.807-.705.201-1.762-.756-2.619-.201-.15-.402-.353-.604-.503-.102-.05-.203-.151-.303-.201-.997-.638-3.202-1.468-5.353-2.01z" fill-rule="evenodd" clip-rule="evenodd" fill="#9ba4c2"/><path d="M120.443 83.719l-.289.653a23.978 23.978 0 0 0-1.645-.356c-.152 0-.303 0-.404-.05-2.668-.402-5.992-1.208-6.293-2.115-.102-.202-.051-.604 0-.957.201 1.159 3.826 2.015 6.545 2.417a25.61 25.61 0 0 1 2.086.408zM122.174 79.87l.312-.693c4.074 1.104 7.223 3.338 7.402 5.091.051.202-.1.554-.252.956-.212-1.967-3.368-4.224-7.462-5.354z" fill-rule="evenodd" clip-rule="evenodd" fill="#9ba4c2"/><path d="M112.932 77.848l.279-.613c1.295.577 3.492.859 5.852 1.242.605.101 1.26.202 1.914.353.514.098 1.018.214 1.51.347l-.312.693c-.725-.2-1.48-.364-2.256-.486-3.48-.556-5.763-.921-6.987-1.536z" fill-rule="evenodd" clip-rule="evenodd" fill="#9ba4c2"/><path d="M117.623 67.605l-.324 1.176c-.217-.06-.418-.116-.604-.173l.254-.806.201-.604c.098.142.266.282.473.407z" fill-rule="evenodd" clip-rule="evenodd" fill="#e5a430"/><path d="M119.668 68.167v-.268a.474.474 0 0 0 .15-.199c-.033.101-.088.265-.15.467z" fill-rule="evenodd" clip-rule="evenodd" fill="#4c5a93"/><path d="M119.668 67.899v.268c-.033.104-.066.219-.102.34-.113.142-.334.204-.604.204v-.665c.288.021.542-.02.706-.147z" fill-rule="evenodd" clip-rule="evenodd" fill="#9ba4c2"/><path d="M118.963 68.046v.665c-.215 0-.461-.039-.705-.108v-.707c.236.079.48.133.705.15z" fill-rule="evenodd" clip-rule="evenodd" fill="#9ba4c2"/><path d="M118.258 67.895v.707a3.334 3.334 0 0 1-.705-.288v-.753c.203.131.449.248.705.334zM117.553 67.561v.753c-.262-.145-.482-.321-.604-.512l.201-.604c.086.126.229.25.403.363z" fill-rule="evenodd" clip-rule="evenodd" fill="#4c5a93"/><path d="M117.604 73.139l-.152-2.064c0-.302 0-.353-.252-.453l.051-.151c.15.05.354.101.504.151.201.05.402.101.555.151v.151c-.152-.05-.303-.101-.303.101-.051.05-.051.151-.051.251l.051 1.31.553-.755c.102-.201.252-.403.303-.554 0-.151-.1-.201-.201-.251v-.151c.15.05.252.101.402.151.152.05.252.05.404.101l-.051.101c-.201-.05-.303.101-.453.302l-1.209 1.662-.151-.053zM119.014 73.391c.301.101.352-.05.402-.353l.301-1.208c.102-.302.152-.453-.15-.554v-.151c.201.101.402.151.555.202.402.151.855.302 1.258.403l-.15.604-.15-.05c.049-.353-.152-.503-.455-.604-.049-.05-.25-.101-.25-.05-.051 0-.102.151-.102.151l-.15.705c.252.101.453.101.553-.202l.102.05-.152.453c0 .151-.049.302-.1.453l-.102-.05c0-.352-.049-.403-.352-.503l-.102.403c-.1.302-.15.504.203.655.402.101.553.05.754-.302h.102a.941.941 0 0 1-.102.403c0 .101-.051.201-.051.302l-1.359-.453c-.201-.101-.352-.101-.553-.202l.05-.102zM122.438 73.542c-.152-.353-.453-.957-.453-.957l-.252 1.108c-.102.251-.152.503.15.654l-.051.101c-.1-.05-.252-.101-.402-.151-.102-.05-.201-.05-.352-.101l.049-.151c.252.101.303-.05.404-.302l.352-1.41c-.051-.201-.102-.252-.252-.353v-.15c.102.05.252.101.354.151.1.051.201.101.352.151 0 0 .303.654.402 1.007.152.353.404 1.108.404 1.108l.252-.957c.1-.252.15-.504-.152-.655l.051-.101c.102.05.252.101.352.151.152.101.252.151.354.202l-.051.151c-.051-.05-.201-.101-.252-.05-.051.101-.1.302-.15.403l-.453 1.611-.15-.05c-.003 0-.356-1.057-.506-1.41zM115.236 70.974c.051-.755.553-1.058 1.057-.856.555.202.957.907.906 1.662-.1.755-.553 1.058-1.107.806-.504-.202-.906-.857-.856-1.612zm.453.151c-.051.504 0 1.158.402 1.309.453.202.604-.302.654-.805 0-.504 0-1.158-.453-1.36-.401-.151-.552.403-.603.856zM114.279 70.471l.102.05c.15.101.25.05.301-.252l.152.101c-.051.151-.051.302-.102.453v.453l-.102-.05c0-.251-.049-.453-.25-.554l-.102-.05-.051.503c-.051.353-.051.454.201.655v.101l-.453-.302a3.647 3.647 0 0 1-.453-.353v-.151c.201.151.252 0 .303-.302l.102-1.108c0-.251 0-.352-.203-.554v-.101l.453.302c.354.202.705.403 1.008.503l-.051.655-.1-.05c0-.454-.201-.604-.504-.756-.201-.101-.15-.05-.201.202l-.05.605zM125.459 74.952l-.102-.101c.102-.302.102-.655-.102-.856-.15-.151-.201 0-.252.251l-.402 1.108c-.1.302-.1.403.102.604l-.051.151c-.1-.151-.252-.252-.402-.353l-.453-.302.051-.151c.252.202.301.101.402-.201l.402-1.158c.051-.251.102-.352-.051-.453-.252-.201-.352 0-.502.252l-.152-.101.201-.655s.404.201.906.604c.404.352.654.806.654.806l-.249.555zM118.357 80.693h-.15c0-.303-.15-.504-.504-.604-.252-.05-.201-.05-.252.252l-.1 1.309c-.051.353-.051.453.352.554l-.051.101a12.03 12.03 0 0 0-.654-.151c-.201-.05-.402-.05-.654-.101v-.101c.402.05.402-.051.453-.403l.102-1.359c0-.252.051-.252-.203-.302-.352-.101-.502.101-.604.402l-.15-.05.051-.705 2.416.504-.052.654zM118.559 80.038c.203.05.455.101.656.151s.402.101.654.101v.151c-.402-.101-.402.101-.402.403l-.102.856c-.051.453.051.806.604.906.453.101.705-.151.756-.554l.102-.755c0-.151.049-.403 0-.503-.051-.151-.152-.202-.252-.252v-.101c.15 0 .301.05.402.101.15.05.303.05.453.101v.101c-.102 0-.252 0-.303.101-.1.101-.1.352-.1.503l-.102.655c-.1.655-.453.957-1.107.806s-1.107-.454-1.008-1.208l.051-.856c.051-.302.051-.454-.303-.554v-.153h.001zM121.229 82.858c.352.101.352-.05.402-.353l.252-1.208c.051-.251.051-.403-.303-.503l.051-.151 1.059.302c.402.101.805.251 1.006.503.252.303.303.705.201 1.158-.1.302-.252.554-.553.705-.303.151-.654.101-.957 0l-.605-.151c-.201-.101-.402-.151-.604-.202l.051-.1zm1.007-.403c0 .101-.051.353-.051.453.051.151.15.252.252.252.504.151.705-.353.805-.755.051-.252.102-.554.051-.806-.102-.302-.352-.403-.604-.504h-.152c-.051 0-.051.051-.051.051l-.25 1.309zM124.602 82.203c.051-.302.152-.453-.201-.604l.051-.101c.201.101.352.151.553.252l.605.302-.051.101c-.303-.151-.352 0-.453.302l-.352 1.158c-.102.303-.152.403.201.554l-.051.151-.604-.302c-.202-.101-.404-.151-.605-.252l.051-.101c.354.151.402 0 .504-.302l.352-1.158zM125.912 84.167c-.051.101-.152.151-.152.202-.051.201.051.251.152.353l-.051.101c-.102-.05-.201-.151-.354-.252-.15-.05-.252-.101-.402-.151l.051-.151c.252.201.453-.101.654-.252l1.158-1.208.15.101.051 2.166c0 .151 0 .352.051.453.051.101.102.201.15.252v.151a4.572 4.572 0 0 1-.504-.454c-.201-.101-.402-.251-.553-.352l.051-.101c.1.051.252.151.301 0v-.455s-.1-.101-.352-.252a1.368 1.368 0 0 0-.354-.201l-.047.05zm.453 0c.201.101.301.202.301.202v-.957l-.553.604s.1.05.252.151zM113.877 81.448l-.152-.05.102-.755.15.051c.051.353.201.705.605.805.201.101.402 0 .453-.201.051-.353-.303-.554-.555-.705-.303-.251-.504-.503-.453-.906.051-.454.453-.604.855-.454.203.051.404.151.504.302l.102-.101.15.05-.1.655-.152-.05a.757.757 0 0 0-.504-.705c-.201-.05-.352 0-.402.202-.051.251.201.403.402.604.404.252.705.554.656 1.007-.102.504-.504.604-.957.504-.252-.05-.453-.202-.605-.453l-.099.2z" fill-rule="evenodd" clip-rule="evenodd"/><path d="M86.104 67.984l1.48 3.175c-.056-.543-.197-1.208-.245-1.595 0-.403-.05-1.107-.101-1.762-.051-.302 0-.655-.051-.907-.026.464-.497.824-1.083 1.089z" fill-rule="evenodd" clip-rule="evenodd" fill="#e5a430"/><path d="M86.061 68.003h-2.334l.189.604c.201 0 .554-.101.654-.151a7.468 7.468 0 0 0 1.491-.453zm-4.061 0h-.8c.217.068.503.06.8 0zM81.199 68.003H82c.601-.121 1.247-.456 1.462-.806l.201.604.063.201h2.334c.606-.266 1.1-.632 1.127-1.108h-5.939c-.312.282-.484.571-.405.806a.527.527 0 0 0 .356.303z" fill-rule="evenodd" clip-rule="evenodd" fill="#ac284a"/><path d="M86.085 67.992l.315.645c.398-.206.685-.463.838-.834-.051-.302 0-.655-.051-.907-.026.468-.507.831-1.102 1.096z" fill-rule="evenodd" clip-rule="evenodd" fill="#4c5a93"/><path d="M77.47 74.398c.101.302.101.453.453.302l.05.101c-.201.101-.403.151-.604.251-.201.101-.402.202-.554.302l-.05-.101c.302-.202.251-.302.201-.554l-.303-1.007c-.101-.252-.201-.454-.503-.252v-.151c.201-.151.352-.252.503-.353.202-.101.353-.252.604-.403v.151c-.251.151-.251.252-.201.503l.201.604s.252-.101.504-.251c.201-.101.453-.252.453-.252l-.151-.504c-.101-.302-.151-.403-.503-.302v-.101c.202-.101.403-.201.554-.251.251-.101.402-.202.604-.302l.05.151c-.302.101-.252.353-.151.604l.403 1.259c.101.302.101.453.453.302l.05.101c-.202.101-.453.151-.654.202-.202.101-.353.151-.554.252l-.05-.151c.352-.101.302-.252.201-.504l-.201-.554s-.251.101-.453.252c-.252.101-.503.252-.503.252l.151.404zM80.189 73.441c0 .101-.05.202 0 .252 0 .201.201.151.302.101l.051.151c-.151.051-.302.051-.453.101-.151.051-.302.101-.403.151l-.05-.101c.302-.101.353-.453.403-.705l.302-2.064.202-.101 1.158 1.813c.05.05.151.201.252.252.101.05.151.05.251 0l.05.151c-.252.05-.453.101-.655.151-.201.05-.403.151-.604.201v-.101c.101-.05.302-.101.252-.252a.39.39 0 0 0-.101-.202l-.151-.201-.806.252v.151zm.705-.503l-.504-.806-.151.957.655-.151zM82.304 73.24c.353-.101.302-.251.251-.554l-.251-1.259c-.05-.302-.05-.453-.403-.353l-.05-.101c.202-.101.403-.151.655-.201.403-.151.856-.302 1.309-.454l.151.655-.151.05c-.151-.353-.353-.403-.705-.302-.05 0-.302.101-.302.151 0 0 0 .151.051.201l.101.655c.302-.05.503-.202.453-.554l.101-.05c.05.202.05.353.101.554.05.151.05.302.101.453h-.151c-.101-.302-.201-.302-.554-.202l.101.403c.05.353.101.604.503.453.403-.151.554-.353.554-.806l.151-.05c0 .151 0 .302.05.453 0 .101.05.202.05.302-.453.151-.957.302-1.46.453-.202.101-.403.151-.604.252l-.052-.149zm2.064-.856c0 .101.05.202.05.302l-.05-.302zm.05.302c-.503.151-.957.302-1.46.453l1.46-.453zM86.282 71.528c-.101.302-.302.453-.554.604-.655.302-1.259-.051-1.36-.705-.101-.705.252-1.46.957-1.662.251-.101.453-.101.655 0l.05-.202.151-.101.101.705-.201.101c-.05-.353-.302-.503-.655-.403-.503.202-.554.856-.453 1.309.05.454.353.957.856.705.353-.151.453-.554.453-.957l.151-.101.101.756-.151.101-.101-.15z" fill-rule="evenodd" clip-rule="evenodd"/><path d="M83.006 67.61l.349 1.161c.199-.056.385-.109.561-.163l-.252-.806-.201-.604c-.09.144-.254.286-.457.412z" fill-rule="evenodd" clip-rule="evenodd" fill="#e5a430"/><path d="M80.944 68.009v-.153a.448.448 0 0 1-.101-.155c.025.072.06.178.101.308z" fill-rule="evenodd" clip-rule="evenodd" fill="#4c5a93"/><path d="M81.649 68.709v-.661c-.296.016-.554-.04-.705-.193v.153c.045.143.098.313.151.498.108.135.308.198.554.203zM82.354 68.609v-.7a2.744 2.744 0 0 1-.705.14v.661c.212.005.458-.032.705-.101z" fill-rule="evenodd" clip-rule="evenodd" fill="#9ba4c2"/><path d="M83.059 68.319v-.743a3 3 0 0 1-.705.333v.7c.244-.068.488-.169.705-.29zM83.059 67.576v.743c.261-.146.48-.324.604-.517l-.201-.604c-.082.132-.225.26-.403.378z" fill-rule="evenodd" clip-rule="evenodd" fill="#4c5a93"/><path d="M74.902 83.462c-.202-.755.251-1.46.906-1.711.705-.303 1.41-.051 1.611.705.251.755-.202 1.46-.907 1.712-.704.301-1.409.049-1.61-.706zm.604-.252c.101.453.403 1.007.957.806.554-.201.554-.806.403-1.309-.151-.504-.454-1.007-1.007-.806-.555.202-.504.856-.353 1.309zM79.887 81.196l-.151.051c-.101-.302-.302-.453-.604-.403-.251.05-.251.05-.151.352l.302 1.36c.05.302.101.403.453.353l.05.151c-.252.051-.454.051-.655.101-.201.101-.403.151-.604.201l-.05-.101c.353-.151.302-.251.252-.604l-.302-1.36c-.05-.251-.05-.202-.302-.202-.353.051-.403.302-.403.655l-.152.05-.151-.705s.755-.201 1.158-.352c.453-.101 1.158-.252 1.158-.252l.152.705zM80.692 80.894c0-.302-.05-.504-.403-.403v-.15c.201 0 .403-.051.604-.101.251-.05.453-.05.654-.101v.101c-.353.101-.302.251-.252.554l.151 1.259c0 .302.05.453.403.403v.101c-.202.05-.453.101-.655.101l-.604.151v-.101c.353-.101.303-.252.252-.554l-.15-1.26zM82.807 81.75c0 .101-.05.251-.05.352 0 .151.202.151.302.101l.05.151c-.151 0-.302.051-.503.051-.101.05-.252.101-.403.151v-.151c.302-.051.352-.453.453-.705l.604-1.863.151-.05.906 1.712c.05.101.151.252.201.302.101.051.202.051.303.051v.101c-.252.05-.454.101-.655.151l-.604.151v-.151c.101-.05.302-.05.302-.202 0-.101-.101-.201-.101-.251l-.101-.202-.805.202-.05.099zm.755-.453l-.352-.755-.302.906.654-.151z" fill-rule="evenodd" clip-rule="evenodd"/></svg>
