<?xml version="1.0" encoding="UTF-8" standalone="no"?>
<!-- Created with Inkscape (http://www.inkscape.org/) -->

<svg
   xmlns:dc="http://purl.org/dc/elements/1.1/"
   xmlns:cc="http://creativecommons.org/ns#"
   xmlns:rdf="http://www.w3.org/1999/02/22-rdf-syntax-ns#"
   xmlns:svg="http://www.w3.org/2000/svg"
   xmlns="http://www.w3.org/2000/svg"
   xmlns:sodipodi="http://sodipodi.sourceforge.net/DTD/sodipodi-0.dtd"
   xmlns:inkscape="http://www.inkscape.org/namespaces/inkscape"
   width="39.6875mm"
   height="39.67263mm"
   viewBox="0 0 39.6875 39.67263"
   version="1.1"
   id="svg1252"
   inkscape:version="0.92.1 r15371"
   sodipodi:docname="tsukuba.svg">
  <defs
     id="defs1246" />
  <sodipodi:namedview
     id="base"
     pagecolor="#ffffff"
     bordercolor="#666666"
     borderopacity="1.0"
     inkscape:pageopacity="0.0"
     inkscape:pageshadow="2"
     inkscape:zoom="1.979899"
     inkscape:cx="-0.36353886"
     inkscape:cy="-6.6448756"
     inkscape:document-units="mm"
     inkscape:current-layer="layer1"
     showgrid="false"
     fit-margin-top="0"
     fit-margin-left="0"
     fit-margin-right="0"
     fit-margin-bottom="0"
     inkscape:window-width="1600"
     inkscape:window-height="838"
     inkscape:window-x="-8"
     inkscape:window-y="-8"
     inkscape:window-maximized="1" />
  <metadata
     id="metadata1249">
    <rdf:RDF>
      <cc:Work
         rdf:about="">
        <dc:format>image/svg+xml</dc:format>
        <dc:type
           rdf:resource="http://purl.org/dc/dcmitype/StillImage" />
        <dc:title></dc:title>
      </cc:Work>
    </rdf:RDF>
  </metadata>
  <g
     inkscape:label="Layer 1"
     inkscape:groupmode="layer"
     id="layer1"
     transform="translate(-70.870535,-104.80655)">
    <g
       transform="matrix(0.99132009,0,0,-0.99132009,92.356407,120.08874)"
       id="g402">
      <path
         d="M 0,0 C -0.019,0.014 -0.027,0.037 -0.023,0.06 0.065,0.46 0.268,1.314 0.447,1.573 0.736,1.989 1.046,2.127 1.336,1.924 1.628,1.722 1.606,1.385 1.318,0.969 1.138,0.709 0.41,0.222 0.064,-0.002 0.045,-0.013 0.02,-0.014 0,0 m -3.363,-0.002 c -0.346,0.224 -1.074,0.711 -1.255,0.971 -0.289,0.416 -0.31,0.753 -0.019,0.955 0.292,0.203 0.602,0.065 0.891,-0.351 C -3.566,1.314 -3.365,0.46 -3.277,0.06 -3.273,0.037 -3.281,0.014 -3.301,0 -3.32,-0.014 -3.345,-0.013 -3.363,-0.002 M 0,5.244 C -0.019,5.258 -0.027,5.281 -0.023,5.303 0.065,5.705 0.268,6.558 0.447,6.817 0.736,7.232 1.046,7.371 1.336,7.169 1.628,6.966 1.606,6.629 1.318,6.213 1.138,5.952 0.41,5.467 0.064,5.243 0.045,5.231 0.02,5.231 0,5.244 M -3.363,5.243 c -0.346,0.224 -1.074,0.709 -1.255,0.97 -0.289,0.416 -0.31,0.753 -0.019,0.956 0.292,0.202 0.602,0.063 0.891,-0.352 0.18,-0.259 0.381,-1.112 0.469,-1.514 C -3.273,5.281 -3.281,5.258 -3.301,5.244 -3.32,5.231 -3.345,5.231 -3.363,5.243 M 8.868,1.716 C 8.488,1.873 7.685,2.221 7.461,2.443 7.102,2.802 7.021,3.13 7.27,3.381 7.522,3.632 7.85,3.552 8.208,3.194 8.433,2.972 8.783,2.169 8.942,1.791 8.95,1.771 8.946,1.744 8.93,1.728 8.914,1.712 8.89,1.708 8.868,1.716 m 3.124,-0.18 c -0.017,0.019 -0.021,0.045 -0.012,0.067 0.186,0.403 0.594,1.254 0.844,1.487 0.4,0.372 0.756,0.446 1.017,0.165 C 14.102,2.975 14.002,2.624 13.602,2.253 13.352,2.021 12.474,1.675 12.059,1.521 12.035,1.512 12.01,1.518 11.992,1.536 M 10.42,5.197 c -0.026,0 -0.048,0.016 -0.057,0.037 -0.169,0.409 -0.514,1.289 -0.514,1.63 0,0.545 0.189,0.858 0.571,0.858 0.383,0 0.571,-0.313 0.571,-0.858 0,-0.341 -0.346,-1.221 -0.514,-1.63 C 10.468,5.213 10.445,5.197 10.42,5.197 M -12.168,1.716 c 0.381,0.157 1.184,0.505 1.407,0.727 0.36,0.359 0.441,0.687 0.19,0.938 -0.25,0.251 -0.578,0.171 -0.937,-0.187 -0.224,-0.222 -0.576,-1.025 -0.734,-1.403 -0.008,-0.023 -0.004,-0.047 0.012,-0.063 0.017,-0.016 0.041,-0.02 0.062,-0.012 m -3.123,-0.18 c 0.018,0.019 0.021,0.045 0.01,0.067 -0.184,0.403 -0.592,1.254 -0.842,1.487 -0.4,0.372 -0.757,0.446 -1.018,0.165 -0.26,-0.28 -0.16,-0.631 0.24,-1.002 0.249,-0.232 1.128,-0.578 1.544,-0.732 0.022,-0.009 0.048,-0.003 0.066,0.015 m 1.572,3.661 c 0.026,0 0.047,0.016 0.056,0.037 0.17,0.409 0.515,1.289 0.515,1.63 0,0.545 -0.189,0.858 -0.571,0.858 -0.383,0 -0.571,-0.313 -0.571,-0.858 0,-0.341 0.345,-1.221 0.514,-1.63 0.009,-0.021 0.031,-0.037 0.057,-0.037 m 12.008,4.811 c -0.165,0.4 -0.503,1.258 -0.503,1.591 0,0.531 0.185,0.836 0.558,0.836 0.373,0 0.558,-0.305 0.558,-0.836 0,-0.333 -0.338,-1.191 -0.504,-1.591 -0.007,-0.022 -0.029,-0.037 -0.054,-0.037 -0.025,0 -0.047,0.015 -0.055,0.037 M -2.151,4.63 -2.152,4.631 Z m 1.003,0.001 v 0 V 4.63 Z M -0.215,4.457 -0.217,4.456 Z M -3.082,4.456 h -0.001 l -10e-4,10e-4 z m 1.301,-27.458 c -0.024,2.263 -0.05,5.547 -0.074,8.734 -1.076,-0.386 -1.835,-1.647 -1.942,-3.737 -0.073,-1.461 0.174,-2.886 0.661,-4.12 0.066,-0.164 0.21,-0.442 0.135,-0.482 -0.076,-0.039 -0.245,0.222 -0.322,0.382 -0.495,1.035 -0.864,2.473 -0.818,4.306 0.047,1.947 0.748,3.775 2.284,4.171 -0.005,0.598 -0.009,1.19 -0.013,1.769 -1.688,-0.398 -3.103,-1.758 -3.667,-3.999 -0.391,-1.553 -0.352,-3.087 0.133,-4.402 0.061,-0.165 0.154,-0.461 0.073,-0.485 -0.082,-0.026 -0.208,0.265 -0.277,0.428 -0.471,1.095 -0.642,2.634 -0.229,4.573 0.44,2.078 1.776,4.035 3.964,4.426 -0.005,0.628 -0.009,1.24 -0.013,1.821 -2.404,-0.605 -4.3,-1.97 -5.178,-4.911 -0.512,-1.711 -0.467,-3.36 0.1,-4.808 0.065,-0.164 0.141,-0.467 0.061,-0.495 -0.081,-0.028 -0.189,0.264 -0.261,0.427 -0.599,1.337 -0.663,3.149 -0.214,4.976 0.601,2.434 2.449,4.772 5.489,5.417 -0.006,0.678 -0.009,1.31 -0.012,1.875 -2.904,-0.666 -4.928,-2.148 -6.232,-4.877 -0.82,-1.714 -1.098,-3.395 -0.73,-4.927 0.04,-0.171 0.128,-0.472 0.047,-0.496 -0.082,-0.027 -0.196,0.263 -0.25,0.431 -0.46,1.41 -0.191,3.297 0.602,5.175 1.008,2.387 3.316,4.68 6.56,5.311 -0.003,0.505 -0.005,0.941 -0.006,1.29 -0.324,0.055 -0.637,0.211 -0.875,0.47 -4.497,-1.583 -8.192,-5.762 -8.192,-10.864 0,-1.516 0.618,-2.312 2.143,-3.046 -0.002,-0.017 -0.153,-1.695 0.997,-2.638 1.153,-0.943 2.623,-1.039 2.638,-1.039 l 0.012,-0.001 c 0.339,-1.542 2.054,-2.257 3.531,-2.257 1.476,0 3.191,0.715 3.531,2.257 l 0.012,0.001 c 0.015,0 1.485,0.096 2.637,1.039 1.151,0.943 0.999,2.621 0.998,2.638 1.525,0.734 2.142,1.53 2.142,3.046 0,5.102 -3.694,9.281 -8.19,10.864 -0.24,-0.259 -0.552,-0.415 -0.875,-0.47 -10e-4,-0.349 -0.004,-0.785 -0.006,-1.29 3.243,-0.631 5.55,-2.924 6.557,-5.311 0.794,-1.878 1.063,-3.765 0.604,-5.175 -0.055,-0.168 -0.168,-0.458 -0.249,-0.431 -0.081,0.024 0.005,0.325 0.047,0.496 0.366,1.532 0.089,3.213 -0.732,4.927 -1.302,2.729 -3.326,4.211 -6.231,4.877 -0.004,-0.565 -0.007,-1.197 -0.012,-1.875 3.039,-0.645 4.889,-2.983 5.488,-5.417 0.45,-1.827 0.386,-3.639 -0.213,-4.976 -0.072,-0.163 -0.18,-0.455 -0.261,-0.427 -0.079,0.028 -0.004,0.331 0.061,0.495 0.567,1.448 0.612,3.097 0.1,4.808 -0.879,2.941 -2.774,4.306 -5.178,4.911 -0.004,-0.581 -0.008,-1.193 -0.011,-1.821 2.185,-0.391 3.52,-2.348 3.962,-4.426 0.413,-1.939 0.242,-3.478 -0.229,-4.573 -0.069,-0.163 -0.195,-0.454 -0.277,-0.428 -0.082,0.024 0.011,0.32 0.073,0.485 0.485,1.315 0.524,2.849 0.133,4.402 -0.565,2.241 -1.979,3.601 -3.666,3.999 -0.005,-0.579 -0.009,-1.171 -0.013,-1.769 1.536,-0.396 2.235,-2.224 2.282,-4.171 0.046,-1.833 -0.321,-3.271 -0.816,-4.306 -0.077,-0.16 -0.247,-0.421 -0.323,-0.382 -0.075,0.04 0.069,0.318 0.134,0.482 0.488,1.234 0.736,2.659 0.66,4.12 -0.105,2.09 -0.864,3.351 -1.942,3.737 -0.022,-3.187 -0.049,-6.471 -0.072,-8.734 -0.008,-0.719 -0.051,-0.832 -0.125,-0.832 -0.075,0 -0.117,0.113 -0.125,0.832 M 1.247,-3.87 c -0.576,0.086 -0.969,0.109 -1.372,0.117 -0.004,-0.206 -0.051,-0.408 -0.136,-0.599 0.609,-0.22 1.203,-0.487 1.778,-0.798 -0.168,0.502 -0.271,1.041 -0.27,1.28 m 2.639,-2.921 c -0.163,0.489 -0.247,0.977 -0.244,1.441 0.003,0.473 0.096,0.777 0.14,0.895 -0.791,0.269 -1.336,0.388 -1.998,0.5 -0.002,-0.204 0.021,-1.047 0.271,-1.504 0.645,-0.39 1.259,-0.836 1.831,-1.332 m -8.714,1.641 c 0.572,0.311 1.168,0.578 1.777,0.798 -0.086,0.191 -0.132,0.393 -0.137,0.599 -0.404,-0.008 -0.794,-0.031 -1.373,-0.117 0.003,-0.239 -0.099,-0.778 -0.267,-1.28 m 9.226,-2.111 c 2.227,-2.151 3.704,-5.105 3.704,-8.439 l 0.226,-0.047 c 0.33,-0.07 0.672,-0.144 0.996,-0.144 0.629,0 1.461,0.445 1.469,0.451 l 0.006,10e-4 0.006,-10e-4 c 0.758,-0.265 2.537,-0.886 4.247,0.504 1.672,1.36 1.253,3.433 1.248,3.454 l -0.003,0.015 0.014,0.001 c 1.373,0.163 2.05,1.46 2.05,2.847 0,1.367 -0.244,1.961 -1.435,2.79 0.353,0.691 0.406,1.23 0.226,1.998 C 16.574,-1.352 12.211,0.865 6.707,0.627 4.742,0.542 2.986,-0.013 1.469,-0.859 0.265,-1.533 -0.437,-2.239 -0.69,-2.522 c 0.248,-0.205 0.423,-0.476 0.507,-0.785 0.39,-0.004 0.83,-0.016 1.538,-0.123 0.162,0.169 0.625,0.604 1.543,1.121 1.111,0.626 2.922,1.362 5.247,1.319 1.074,-0.02 2.173,-0.228 3.27,-0.619 1.012,-0.362 1.832,-0.813 2.343,-1.128 1.123,-0.696 1.786,-1.427 1.963,-1.635 0.003,-0.005 0.006,-0.007 0.007,-0.008 0.022,-0.024 0.123,-0.152 0.214,-0.286 0.18,-0.26 0.152,-0.286 0.138,-0.299 -0.006,-0.006 -0.014,-0.009 -0.024,-0.007 -0.098,0.005 -0.468,0.372 -0.49,0.397 -0.028,0.03 -2.854,3.049 -7.297,3.131 -3.598,0.065 -5.585,-1.415 -6.291,-2.078 0.645,-0.113 1.235,-0.27 2.025,-0.54 0.064,0.04 0.757,0.469 1.811,0.794 0.594,0.184 1.193,0.301 1.779,0.349 0.724,0.058 1.422,0.042 2.141,-0.134 1.026,-0.249 1.872,-0.569 2.762,-1.059 0.673,-0.371 1.479,-0.946 2.1,-1.488 0.973,-0.848 1.557,-1.689 1.713,-1.925 0.002,-0.004 0.005,-0.008 0.006,-0.01 0.022,-0.032 0.122,-0.194 0.207,-0.352 0.174,-0.321 0.144,-0.345 0.126,-0.357 -0.004,-0.003 -0.011,-0.008 -0.023,-0.005 -0.102,0.017 -0.256,0.197 -0.26,0.202 -0.118,0.181 -2.321,3.55 -6.543,4.578 -1.134,0.276 -2.231,0.213 -3.38,-0.077 -0.948,-0.239 -1.641,-0.593 -1.92,-0.75 0.726,-0.269 1.251,-0.515 1.929,-0.9 0.074,0.044 0.395,0.222 0.924,0.351 0.604,0.148 1.236,0.171 1.88,0.073 0.639,-0.097 1.253,-0.271 1.825,-0.519 0.568,-0.246 1.112,-0.572 1.619,-0.969 0.999,-0.781 1.897,-1.879 2.671,-3.262 0.02,-0.032 0.08,-0.204 0.129,-0.367 0.099,-0.335 0.063,-0.355 0.05,-0.363 -0.005,-0.003 -0.013,-0.004 -0.024,-10e-4 -0.052,0.014 -0.184,0.209 -0.39,0.579 l -0.008,0.014 c -1.503,2.685 -3.354,4.111 -5.823,4.486 -1.281,0.195 -2.136,-0.155 -2.401,-0.285 0.671,-0.402 1.163,-0.758 1.807,-1.307 0.422,0.089 0.87,0.076 1.336,-0.042 0.786,-0.198 1.579,-0.682 2.355,-1.437 0.881,-0.857 1.562,-1.914 1.968,-3.06 0.325,-0.912 0.364,-1.561 0.364,-1.567 0,-0.006 0.013,-0.52 -0.083,-0.525 -0.01,0 -0.02,0.003 -0.029,0.012 -0.059,0.052 -0.077,0.312 -0.082,0.391 -0.004,0.094 -0.136,2.321 -2.159,4.289 -1.531,1.489 -2.727,1.592 -3.2,1.558 0.03,-0.027 0.061,-0.059 0.092,-0.092 0.036,-0.036 0.071,-0.072 0.101,-0.102 1.693,-1.561 3.043,-3.575 4.249,-6.337 0.014,-0.031 0.119,-0.294 0.213,-0.551 0.188,-0.521 0.156,-0.535 0.136,-0.544 -0.021,-0.009 -0.053,-0.023 -0.295,0.454 -0.115,0.224 -0.23,0.465 -0.251,0.514 -1.233,2.671 -2.733,4.764 -4.585,6.397 0.027,-0.567 0.138,-1.665 0.579,-2.877 0.593,-1.629 1.569,-2.921 2.9,-3.84 0.028,-0.019 0.169,-0.125 0.302,-0.237 0.263,-0.221 0.242,-0.252 0.231,-0.269 -0.003,-0.004 -0.009,-0.01 -0.02,-0.012 -0.098,-0.018 -0.601,0.293 -0.633,0.317 -0.875,0.603 -1.633,1.376 -2.251,2.297 -0.608,0.906 -0.951,1.761 -1.131,2.319 -0.438,1.363 -0.423,2.251 -0.373,2.659 10e-4,0.012 0.003,0.021 0.003,0.025 -0.645,0.54 -1.136,0.831 -1.752,1.196 -0.748,-2.873 1.588,-6.339 3.396,-8.195 0.003,-0.004 0.374,-0.415 0.305,-0.483 -0.006,-0.006 -0.015,-0.01 -0.027,-0.01 -0.096,0 -0.412,0.279 -0.455,0.317 -1.144,1.039 -2.371,2.766 -3.063,4.512 C 6.172,-7.982 5.988,-6.67 6.269,-5.56 5.53,-5.141 4.989,-4.889 4.286,-4.635 4.014,-5.365 4.057,-6.291 4.398,-7.261 m -11.996,2.626 c -0.703,-0.254 -1.244,-0.506 -1.984,-0.925 0.281,-1.11 0.098,-2.422 -0.58,-4.129 -0.694,-1.746 -1.922,-3.473 -3.065,-4.512 -0.042,-0.038 -0.359,-0.317 -0.454,-0.317 -0.012,0 -0.022,0.004 -0.028,0.01 -0.067,0.068 0.302,0.479 0.306,0.483 1.806,1.856 4.142,5.322 3.395,8.195 -0.615,-0.365 -1.105,-0.656 -1.751,-1.196 0,-0.004 0.001,-0.013 0.001,-0.025 0.051,-0.408 0.068,-1.296 -0.372,-2.659 -0.179,-0.558 -0.521,-1.413 -1.131,-2.319 -0.618,-0.921 -1.375,-1.694 -2.25,-2.297 -0.032,-0.024 -0.536,-0.335 -0.633,-0.317 -0.011,0.002 -0.016,0.008 -0.02,0.012 -0.011,0.017 -0.031,0.048 0.23,0.269 0.133,0.112 0.275,0.218 0.301,0.237 1.333,0.919 2.309,2.211 2.902,3.84 0.44,1.212 0.551,2.31 0.579,2.877 -1.853,-1.633 -3.353,-3.726 -4.585,-6.397 -0.022,-0.049 -0.136,-0.29 -0.251,-0.514 -0.243,-0.477 -0.275,-0.463 -0.295,-0.454 -0.02,0.009 -0.053,0.023 0.136,0.544 0.094,0.257 0.199,0.52 0.213,0.551 1.205,2.762 2.555,4.776 4.248,6.337 0.031,0.03 0.066,0.066 0.101,0.102 0.03,0.033 0.062,0.065 0.092,0.092 -0.473,0.034 -1.667,-0.069 -3.198,-1.558 -2.025,-1.968 -2.157,-4.195 -2.161,-4.289 -0.004,-0.079 -0.023,-0.339 -0.082,-0.391 -0.008,-0.009 -0.019,-0.012 -0.03,-0.012 -0.095,0.005 -0.083,0.519 -0.081,0.525 0,0.006 0.039,0.655 0.363,1.567 0.408,1.146 1.087,2.203 1.968,3.06 0.776,0.755 1.569,1.239 2.357,1.437 0.464,0.118 0.914,0.131 1.334,0.042 0.644,0.549 1.137,0.905 1.806,1.307 -0.263,0.13 -1.119,0.48 -2.398,0.285 -2.471,-0.375 -4.322,-1.801 -5.824,-4.486 l -0.007,-0.014 c -0.206,-0.37 -0.338,-0.565 -0.393,-0.579 -0.009,-0.003 -0.017,-0.002 -0.021,10e-4 -0.015,0.008 -0.05,0.028 0.049,0.363 0.049,0.163 0.111,0.335 0.128,0.367 0.774,1.383 1.672,2.481 2.671,3.262 0.507,0.397 1.051,0.723 1.62,0.969 0.573,0.248 1.186,0.422 1.825,0.519 0.644,0.098 1.275,0.075 1.878,-0.073 0.532,-0.129 0.852,-0.307 0.925,-0.351 0.678,0.385 1.203,0.631 1.929,0.9 -0.278,0.157 -0.973,0.511 -1.919,0.75 -1.148,0.29 -2.247,0.353 -3.382,0.077 -4.221,-1.028 -6.423,-4.397 -6.542,-4.578 -0.004,-0.005 -0.158,-0.185 -0.259,-0.202 -0.012,-0.003 -0.02,0.002 -0.025,0.005 -0.016,0.012 -0.047,0.036 0.128,0.357 0.084,0.158 0.185,0.32 0.206,0.352 0.001,0.002 0.003,0.006 0.007,0.01 0.155,0.236 0.738,1.077 1.714,1.925 0.622,0.542 1.426,1.117 2.098,1.488 0.891,0.49 1.737,0.81 2.762,1.059 0.719,0.176 1.418,0.192 2.142,0.134 0.586,-0.048 1.184,-0.165 1.777,-0.349 1.057,-0.325 1.749,-0.754 1.813,-0.794 0.79,0.27 1.379,0.427 2.025,0.54 -0.706,0.663 -2.693,2.143 -6.292,2.078 -4.441,-0.082 -7.268,-3.101 -7.295,-3.131 -0.021,-0.025 -0.393,-0.392 -0.491,-0.397 -0.01,-0.002 -0.018,0.001 -0.024,0.007 -0.014,0.013 -0.042,0.039 0.137,0.299 0.093,0.134 0.191,0.262 0.215,0.286 0,0 0.003,0.003 0.007,0.008 0.177,0.208 0.841,0.939 1.963,1.635 0.51,0.315 1.331,0.766 2.342,1.128 1.097,0.391 2.197,0.599 3.271,0.619 2.324,0.043 4.136,-0.693 5.246,-1.319 0.918,-0.517 1.383,-0.952 1.543,-1.121 0.709,0.107 1.149,0.119 1.539,0.123 0.084,0.309 0.259,0.58 0.508,0.785 -0.255,0.283 -0.956,0.989 -2.16,1.663 -1.517,0.846 -3.274,1.401 -5.238,1.486 -5.504,0.238 -9.867,-1.979 -10.445,-4.458 -0.18,-0.768 -0.128,-1.307 0.226,-1.998 -1.192,-0.829 -1.436,-1.423 -1.436,-2.79 0,-1.387 0.679,-2.684 2.049,-2.847 l 0.016,-0.001 -0.003,-0.015 c -0.005,-0.021 -0.424,-2.094 1.249,-3.454 1.71,-1.39 3.487,-0.769 4.246,-0.504 l 0.007,10e-4 0.004,-10e-4 c 0.009,-0.006 0.84,-0.451 1.47,-0.451 0.323,0 0.666,0.074 0.997,0.144 0,0 0.225,0.047 0.227,0.047 0,3.334 1.473,6.288 3.701,8.439 0.343,0.97 0.385,1.896 0.113,2.626 m 5.942,-0.215 c 0.627,0 1.134,0.509 1.134,1.135 0,0.627 -0.507,1.135 -1.134,1.135 -0.626,0 -1.135,-0.508 -1.135,-1.135 0,-0.626 0.509,-1.135 1.135,-1.135 M 9.258,0.966 c 0.592,-0.024 1.75,-0.205 2.254,-0.359 0.649,0.338 0.877,0.38 1.864,0.37 0.863,-0.01 1.757,-0.019 2.523,0.673 0.397,0.36 0.581,0.721 0.548,1.078 -0.052,0.553 -0.617,0.907 -0.623,0.91 l -0.016,0.01 0.014,0.013 c 0.005,0.003 0.463,0.399 0.482,0.894 0.01,0.25 -0.093,0.484 -0.308,0.697 V 5.253 C 15.047,6.1 14.077,5.149 14.067,5.139 L 14.055,5.127 14.045,5.141 C 14.043,5.146 13.7,5.619 13.154,5.659 12.76,5.686 12.356,5.486 11.957,5.062 11.164,4.226 11.172,3.275 11.176,2.51 11.179,2.096 11.182,1.737 11.041,1.514 10.924,1.325 10.785,1.045 10.783,1.041 l -0.026,0.008 c 0,0.027 0.049,2.768 0.153,3.229 0.136,0.607 0.526,1.008 0.939,1.431 0.515,0.53 1.049,1.077 1.108,2.077 0.032,0.564 -0.098,0.98 -0.384,1.235 -0.425,0.379 -1.055,0.273 -1.061,0.273 l -0.02,-0.005 0.002,0.021 c 0.002,0.005 0.087,0.708 -0.282,1.128 -0.184,0.208 -0.449,0.314 -0.79,0.314 H 10.42 c -0.34,0 -0.606,-0.106 -0.79,-0.314 C 9.262,10.018 9.348,9.315 9.348,9.31 L 9.351,9.289 9.332,9.294 C 9.325,9.294 8.694,9.4 8.269,9.021 7.982,8.766 7.853,8.35 7.887,7.786 7.944,6.786 8.477,6.239 8.992,5.709 9.406,5.286 9.797,4.885 9.933,4.278 10.036,3.817 10.074,1.257 10.074,1.231 L 10.046,1.229 c 0,0 -0.024,0.14 -0.289,0.472 C 9.594,1.904 9.599,2.256 9.603,2.698 9.61,3.414 9.621,4.303 8.944,5.065 8.601,5.453 8.245,5.642 7.887,5.627 7.352,5.603 6.991,5.125 6.988,5.12 L 6.977,5.104 6.965,5.12 C 6.961,5.125 6.565,5.633 6.047,5.674 5.785,5.693 5.535,5.593 5.303,5.372 L 5.301,5.37 C 5.07,5.15 4.96,4.909 4.973,4.653 4.999,4.143 5.512,3.743 5.516,3.739 L 5.531,3.727 5.516,3.716 C 5.51,3.713 5.012,3.371 4.976,2.847 4.95,2.498 5.135,2.146 5.52,1.802 6.212,1.185 6.947,1.228 7.658,1.271 8.63,1.328 8.96,1.263 9.258,0.966 M 3.141,2.643 3.125,2.651 3.138,2.664 C 3.141,2.67 3.578,3.19 3.504,3.717 3.468,3.974 3.317,4.19 3.058,4.362 L 3.055,4.364 C 2.789,4.539 2.525,4.596 2.271,4.529 1.768,4.397 1.466,3.825 1.462,3.818 L 1.453,3.803 1.44,3.814 C 1.436,3.819 0.978,4.24 0.441,4.161 0.09,4.108 -0.22,3.857 -0.477,3.414 -0.943,2.607 -0.906,1.533 -0.878,0.67 c 0.015,-0.412 0.026,-0.768 -0.024,-0.996 -0.015,-0.065 -0.221,-0.25 -0.246,-0.272 0,-0.001 -0.077,-0.068 -0.077,-0.158 h -0.029 v 3.092 c 0,0.026 -0.002,0.055 -0.004,0.088 -0.009,0.159 -0.023,0.399 0.116,0.925 0.165,0.629 0.911,1.098 0.925,1.107 0.453,0.38 1.026,0.492 1.63,0.61 C 2.144,5.21 2.899,5.357 3.43,6.018 3.72,6.38 3.833,6.731 3.768,7.06 3.665,7.578 3.145,7.869 3.141,7.87 L 3.125,7.88 3.138,7.893 C 3.141,7.898 3.578,8.42 3.504,8.946 3.468,9.201 3.317,9.419 3.058,9.591 L 3.055,9.592 C 2.789,9.768 2.525,9.823 2.271,9.758 1.768,9.627 1.466,9.054 1.462,9.049 L 1.453,9.031 1.44,9.044 C 1.436,9.049 0.959,9.482 0.415,9.395 0.069,9.339 -0.231,9.086 -0.477,8.643 -0.939,7.805 -0.909,6.542 -0.889,5.708 -0.879,5.302 -0.871,4.982 -0.918,4.828 -0.937,4.766 -1.123,4.646 -1.148,4.631 -1.151,4.628 -1.225,4.561 -1.225,4.473 h -0.029 l -0.015,3.101 c 10e-4,0.01 0.039,0.958 0.143,1.42 0.137,0.605 0.526,1.005 0.939,1.43 0.515,0.529 1.05,1.077 1.108,2.076 0.032,0.564 -0.097,0.979 -0.384,1.236 -0.424,0.378 -1.056,0.273 -1.061,0.272 l -0.019,-0.005 0.002,0.02 c 0.001,0.007 0.085,0.67 -0.271,1.077 -0.184,0.21 -0.454,0.316 -0.801,0.316 h -0.003 -0.068 -0.003 c -0.347,0 -0.617,-0.106 -0.8,-0.316 -0.357,-0.407 -0.272,-1.07 -0.271,-1.077 l 0.002,-0.02 -0.018,0.005 c -0.007,0.001 -0.638,0.106 -1.062,-0.272 -0.288,-0.257 -0.417,-0.672 -0.384,-1.236 0.058,-0.999 0.591,-1.547 1.108,-2.076 0.413,-0.425 0.802,-0.825 0.939,-1.43 0.103,-0.462 0.142,-1.41 0.142,-1.421 l -0.014,-3.1 h -0.028 c 0,0.088 -0.075,0.155 -0.079,0.158 -0.024,0.015 -0.21,0.135 -0.23,0.197 -0.048,0.154 -0.04,0.474 -0.028,0.88 0.019,0.834 0.05,2.097 -0.413,2.935 C -3.068,9.086 -3.367,9.339 -3.715,9.395 -4.258,9.482 -4.734,9.049 -4.739,9.044 L -4.753,9.031 -4.762,9.049 C -4.766,9.054 -5.066,9.627 -5.57,9.758 -5.824,9.823 -6.089,9.768 -6.355,9.592 L -6.356,9.591 C -6.617,9.419 -6.767,9.201 -6.804,8.946 -6.878,8.42 -6.441,7.898 -6.437,7.893 L -6.426,7.88 -6.44,7.87 C -6.445,7.869 -6.965,7.578 -7.066,7.06 -7.133,6.731 -7.02,6.38 -6.73,6.018 -6.199,5.357 -5.443,5.21 -4.714,5.066 -4.107,4.948 -3.535,4.836 -3.083,4.456 -3.068,4.447 -2.323,3.978 -2.157,3.349 -2.019,2.823 -2.032,2.583 -2.042,2.424 -2.044,2.391 -2.045,2.362 -2.045,2.336 v -3.092 h -0.028 c 0,0.09 -0.078,0.157 -0.079,0.158 -0.024,0.022 -0.231,0.207 -0.246,0.272 -0.05,0.228 -0.039,0.584 -0.025,0.996 0.03,0.863 0.067,1.937 -0.4,2.744 C -3.079,3.857 -3.389,4.107 -3.74,4.161 -4.277,4.24 -4.734,3.819 -4.739,3.814 L -4.753,3.803 -4.762,3.818 C -4.766,3.825 -5.066,4.397 -5.57,4.529 -5.824,4.596 -6.089,4.539 -6.355,4.364 L -6.356,4.362 C -6.617,4.19 -6.767,3.974 -6.804,3.717 -6.878,3.19 -6.441,2.67 -6.437,2.664 L -6.426,2.651 -6.44,2.643 C -6.445,2.639 -6.965,2.35 -7.066,1.831 -7.133,1.502 -7.02,1.151 -6.73,0.789 c 0.531,-0.66 1.287,-0.808 2.016,-0.951 0.607,-0.118 1.179,-0.231 1.631,-0.61 0.015,-0.009 0.76,-0.479 0.926,-1.108 0,-0.002 0.048,-0.188 0.078,-0.352 0.156,0.046 0.292,0.067 0.426,0.067 0.134,0 0.277,-0.023 0.433,-0.069 0.029,0.165 0.078,0.352 0.078,0.354 0.165,0.629 0.911,1.099 0.925,1.108 0.453,0.379 1.026,0.492 1.631,0.61 0.73,0.143 1.485,0.291 2.016,0.951 C 3.72,1.151 3.833,1.502 3.768,1.831 3.665,2.35 3.145,2.639 3.141,2.643 m -3.356,-3.415 h -0.002 z m -2.867,0 h -0.001 -10e-4 z m -2.286,-4.687 c 0.252,0.457 0.273,1.3 0.271,1.504 -0.662,-0.112 -1.206,-0.231 -1.998,-0.5 0.045,-0.118 0.138,-0.422 0.141,-0.895 0.005,-0.464 -0.081,-0.952 -0.244,-1.441 0.572,0.496 1.185,0.942 1.83,1.332 m -7.189,6.425 c -0.591,-0.024 -1.75,-0.205 -2.254,-0.359 -0.65,0.338 -0.877,0.38 -1.865,0.37 -0.863,-0.01 -1.757,-0.019 -2.523,0.673 -0.396,0.36 -0.58,0.721 -0.547,1.078 0.051,0.553 0.617,0.907 0.623,0.91 l 0.017,0.01 -0.015,0.013 c -0.005,0.003 -0.463,0.399 -0.483,0.894 -0.009,0.25 0.094,0.484 0.307,0.697 l 0.002,0.001 c 0.949,0.847 1.919,-0.104 1.928,-0.114 l 0.012,-0.012 0.01,0.014 c 0.003,0.005 0.345,0.478 0.892,0.518 0.394,0.027 0.797,-0.173 1.197,-0.597 0.792,-0.836 0.785,-1.787 0.78,-2.552 -0.002,-0.414 -0.005,-0.773 0.136,-0.996 0.117,-0.189 0.256,-0.469 0.258,-0.473 l 0.026,0.008 c -0.001,0.027 -0.05,2.768 -0.153,3.229 -0.136,0.607 -0.526,1.006 -0.939,1.431 -0.517,0.53 -1.049,1.077 -1.108,2.077 -0.033,0.564 0.096,0.98 0.384,1.235 0.424,0.379 1.056,0.273 1.061,0.273 l 0.02,-0.005 -0.002,0.021 c -0.002,0.005 -0.087,0.708 0.281,1.128 0.184,0.208 0.449,0.314 0.79,0.314 h 0.003 c 0.34,0 0.606,-0.106 0.789,-0.314 0.369,-0.42 0.283,-1.123 0.283,-1.128 l -0.002,-0.021 0.018,0.005 c 0.006,0 0.638,0.106 1.063,-0.273 0.287,-0.255 0.416,-0.671 0.382,-1.235 -0.057,-1 -0.59,-1.547 -1.107,-2.077 -0.413,-0.423 -0.804,-0.824 -0.938,-1.431 -0.105,-0.461 -0.143,-3.021 -0.143,-3.047 l 0.027,-0.002 c 0,0 0.026,0.14 0.291,0.472 0.162,0.203 0.158,0.555 0.154,0.997 -0.008,0.716 -0.018,1.605 0.659,2.367 0.342,0.388 0.698,0.577 1.057,0.562 0.536,-0.024 0.896,-0.502 0.899,-0.507 l 0.012,-0.016 0.01,0.016 c 0.004,0.005 0.401,0.513 0.919,0.554 0.262,0.019 0.512,-0.082 0.744,-0.302 V 5.37 C -8.369,5.15 -8.259,4.909 -8.273,4.653 -8.299,4.143 -8.811,3.743 -8.815,3.739 L -8.831,3.727 -8.814,3.716 C -8.809,3.713 -8.311,3.371 -8.274,2.847 -8.25,2.498 -8.434,2.146 -8.82,1.802 -9.512,1.185 -10.247,1.228 -10.959,1.271 c -0.971,0.057 -1.3,-0.008 -1.598,-0.305"
         style="fill:#56479f;fill-opacity:1;fill-rule:nonzero;stroke:none"
         id="path400"
         inkscape:connector-curvature="0" />
    </g>
  </g>
</svg>
