<?xml version="1.0"?>
<svg xmlns="http://www.w3.org/2000/svg" viewBox="0 0 181.42 181.42">
  <path fill="#1d1d1b" d="M181.42 181.42H0V0h181.42Zm-55-150.33-12.17 46.08c-4.62-17.57-8.86-33.46-9.57-36.07-1.85-6.75-6.35-10-13-10H79.27L67.13 77.2 55 31.09l-27.22 3.17s15 56.92 17.68 67.25c1.75 6.61 5.25 11.08 11.93 12.89 6.91 1.88 21.14 6.11 21.14 6.11l12.16-46.24c3.69 14 6.51 24.31 7.61 28.36 1.65 6 5.62 9.9 12.54 11.93 9.35 2.75 20.07 5.95 20.07 5.95l22.73-86.43Zm-21.47 109.38c-4.3 0-6.84 2.16-7.85 5.07-.85-3.53-4.07-5.07-7.47-5.07-4.28 0-7.53 2.54-8.26 6.5V135h-5.76v21.6h5.76v-5.92c.72 4.17 3.88 6.32 8.08 6.32 3.6 0 6.57-1.79 7.67-5 1 2.89 3.55 5 7.83 5 5.76 0 8.35-3.9 8.35-8.26s-2.6-8.27-8.35-8.27Zm-13 9.89a2.4 2.4 0 0 1-2.45 2.33c-1.86 0-2.54-1.45-2.54-4 0-1.91.47-4 2.66-4 1.36 0 2.18.91 2.18 2.48h4.88a10.34 10.34 0 0 0 0 3.14Zm13 2.33c-2.27 0-2.6-2.3-2.6-4s.33-4 2.6-4 2.6 2.27 2.6 4-.34 4-2.6 4Zm42 .52c-1.89 0-2.92-1.3-3.07-3.18h11.31c0-6.08-2.66-9.56-8.56-9.56a7.9 7.9 0 0 0-7.94 6v-.67c0-2.54-1.33-5.3-5.23-5.3a6.11 6.11 0 0 0-4.46 1.6 3 3 0 0 0-.23.27c-.29.31-.45.52-.56.64a4.55 4.55 0 0 0-4.13-2.51 5.53 5.53 0 0 0-5 2.51h-.09v-2.12h-5.69v15.7h5.76v-8.5c0-1.66.5-2.9 2-2.9 1.86 0 2 1.42 2 2.9v8.5h5.79v-8.5c0-1.66.5-2.9 2-2.9 1.83 0 2 1.42 2 2.9v8.5h5.76v-5.37c1 3.71 4.12 5.77 8.2 5.77 3.55 0 6.74-1.54 7.95-4.87h-5.36a3 3 0 0 1-2.5 1.08Zm-.06-9a2.67 2.67 0 0 1 2.77 2.79h-5.75c.24-1.82 1.28-2.78 2.93-2.78Zm-78.68 1.67c-1-3.49-3.62-5.42-8-5.42a7.92 7.92 0 0 0-7.29 4.26l1.2-3.87H48l-2.15 9.77h-.12l-2.07-9.77h-5.41l-2 9.77h-.09l-2.3-9.77h-6l4.78 15.7h5.94l2.3-9.71H41l2.24 9.71h5.94l2.82-9.06a9.36 9.36 0 0 0-.1 1.27c0 5.23 3.61 8.2 8.51 8.2 3.37 0 6.41-1.4 7.75-4.4v4h5.76V135h-5.76Zm-7.75-1.67a2.67 2.67 0 0 1 2.72 2.79h-5.76c.3-1.82 1.33-2.78 2.98-2.78Zm2.54 7.87a3 3 0 0 1-2.51 1.12c-1.88 0-2.91-1.3-3.07-3.18h10.74v2.06Z"/>
</svg>