<?xml version="1.0" encoding="utf-8"?>
<!-- Generator: Adobe Illustrator 21.1.0, SVG Export Plug-In . SVG Version: 6.00 Build 0)  -->
<svg version="1.1"
	 id="svg3719" inkscape:version="0.48.4 r9939" sodipodi:docname="New document 4" xmlns:cc="http://creativecommons.org/ns#" xmlns:dc="http://purl.org/dc/elements/1.1/" xmlns:inkscape="http://www.inkscape.org/namespaces/inkscape" xmlns:rdf="http://www.w3.org/1999/02/22-rdf-syntax-ns#" xmlns:sodipodi="http://sodipodi.sourceforge.net/DTD/sodipodi-0.dtd" xmlns:svg="http://www.w3.org/2000/svg"
	 xmlns="http://www.w3.org/2000/svg" xmlns:xlink="http://www.w3.org/1999/xlink" x="0px" y="0px" viewBox="0 0 184 92.5"
	 style="enable-background:new 0 0 184 92.5;" xml:space="preserve">
<style type="text/css">
	.st0{fill:#004FA3;}
	.st1{fill:#EF3E33;}
</style>
<sodipodi:namedview  bordercolor="#666666" borderopacity="1.0" fit-margin-bottom="0" fit-margin-left="0" fit-margin-right="0" fit-margin-top="0" id="base" inkscape:current-layer="layer1" inkscape:cx="91.890112" inkscape:cy="49.367229" inkscape:document-units="px" inkscape:pageopacity="0.0" inkscape:pageshadow="2" inkscape:window-height="1003" inkscape:window-maximized="1" inkscape:window-width="1920" inkscape:window-x="-9" inkscape:window-y="-9" inkscape:zoom="7.0967392" pagecolor="#ffffff" showgrid="false">
	</sodipodi:namedview>
<g id="layer1" transform="translate(-346.61481,-563.03443)" inkscape:groupmode="layer" inkscape:label="Layer 1">
	<g id="g4276" transform="matrix(1.0708336,0,0,1.0708336,-24.551978,-46.437203)">
		<g id="g4221">
			<g id="g4206">
				<path id="path202" inkscape:connector-curvature="0" class="st0" d="M346.7,569.2v60.3c0.4-1.4,1.1-3,1.9-4.4
					c2.4-4,5.9-8,10.3-11.6c0.3-0.2,0.7-0.4,0.9-0.6c0.2-0.2,0.7-0.6,1-0.8c0.3-0.3,0.9-0.4,1.1-0.6c0.2-0.2,0.4-0.3,0.6-0.5
					c0.2-0.2,4-1.8,6.1-2c1.3-0.1,3.6,0.1,4.6,0.4c1,0.3,1.1,0.4,1.1,0.6c0,0.3-0.3,0.3-1.4,0.5c-0.6,0.1-1.7,0.2-2.8,1
					c-1.5,1-2.2,1.9-3.6,2.5c-0.4,0.2-1.6,1.4-3,2.2c-1.4,0.8-1.9,1.6-4,3.2c-3.4,2.5-6.6,5.9-8,7.5c-2.2,2.6-2.6,4.9-0.5,4.8
					c3.2-0.2,8.7-4.4,11-6.2c3.3-2.7,9.6-9.2,9.9-9.7c0.1-0.1,0.2-0.3,0.3-0.5c0.1-0.1,0.4-0.4,0.4-0.4c0.5-0.4,1.1-1,1.5-1.8
					c1.5-3,2.2-4.1,3.9-5.7c1.7-1.6,3.2-1.5,3.8-1.1c0.6,0.4,1,1.1,0.8,1.8c-0.2,0.7-1.7,1.6-2.1,2c-0.5,0.5-1.3,1.4-2,2
					c-0.6,1.1-1.1,1.6-2.1,2.3l-0.4,0.7c-1.1,1.8-2.1,3.6-3,7.5c-0.4,1.8-0.6,3.3-0.5,4.8c0.1,1.1,0.6,2.1,0.9,2.7
					c0.3,0.5,0.2,0.5,0.6,0.8c0.4,0.3,0.4,0.5,0.6,0.6c0.2,0.1,0.6,0.1,0.8,0.2c0.4,0.2,1.1,0.5,2.1,0.4c2.6-0.2,6.7-1.4,9.4-4
					c0.1-0.1,0.4-0.3,0.7,0c0.3,0.2,0.2,0.6,0,0.8c-4.4,4.7-9.2,6.4-12.8,6.5c-3.2,0.1-7-1.3-7.2-6.7c0-1.5,0-3.4,0.9-4.9
					c0.2-0.3,0-0.6-0.3-0.5c-0.6,0.2-9.1,9.9-15,11.9c-3.9,1.4-5.9,0.2-6.5-1v9h53.1v-74.1H346.7z"/>
				<path id="path218" inkscape:connector-curvature="0" class="st1" d="M398.9,585.8c-0.6,0-8,1.9-8,1.9s0.9-6.3,0.9-6.8
					c0-0.5-0.4-1-1.1-0.9c-0.7,0-1,0.8-1,0.8c-0.1,0.1-3.9,7.8-3.9,7.8s-4.9,0.7-5.4,0.7c-0.6,0.1-0.9,0.6-1,1.1c0,0.5,0.2,1,1,1.1
					c0.8,0.1,3.5,0.4,3.5,0.4s-3.8,6.4-4,6.7c-0.2,0.4-0.1,1,0.3,1.4c0.3,0.3,1,0.2,1.4,0c0.6-0.3,5.4-3.9,5.4-3.9s0.7,2.9,1,3.9
					c0.2,1,1,0.9,1.3,0.9c0.4-0.1,0.6-0.5,0.6-0.9c0-0.4,0.4-5.7,0.4-5.7s9.1-6,9.5-6.4v-1.5C399.6,585.9,399.3,585.8,398.9,585.8
					 M396.2,588l-5.7,4.1l0.3-2.8L396.2,588L396.2,588z M387.7,594l-1.8-2.7l0.5-1.1l2.9-0.6l-0.5,3.7L387.7,594L387.7,594z
					 M386.7,594.5l-4.6,3.3l3.2-5.3L386.7,594.5z M387.3,588.4l2.7-5.2l-0.7,4.8L387.3,588.4L387.3,588.4z"/>
			</g>
			<g>
				<path class="st0" d="M350.7,645.3h0.9l4.1,9h-1.3l-1.2-2.6h-4l-1.1,2.6h-1.4L350.7,645.3z M352.7,650.5l-1.5-3.3l-1.4,3.3H352.7
					z"/>
				<path class="st0" d="M360.1,647.2L360.1,647.2c0.1,0,0.2,0,0.3,0.1l1.1-1c0.3-0.2,0.5-0.3,0.7-0.3c0.1,0,0.2,0,0.3,0.1
					s0.1,0.2,0.1,0.3c0,0.3-0.2,0.5-0.6,0.6h-0.2l-1.5,0.5c0,0.1,0,0.1,0,0.2s0,0.1,0,0.2l1.5,0.6l0.3,0.2c0.1,0,0.2,0.1,0.2,0.2
					s0.1,0.2,0.1,0.3s0,0.2-0.1,0.3s-0.2,0.2-0.3,0.2c-0.2,0-0.5-0.2-0.7-0.5l-1-0.9c-0.1,0.1-0.2,0.1-0.3,0.1l0.3,1.3
					c0,0.2,0.1,0.4,0.1,0.6c0,0.4-0.2,0.6-0.5,0.6s-0.5-0.2-0.5-0.7c0-0.1,0-0.2,0-0.4l0.4-1.6c-0.1,0-0.2-0.1-0.3-0.1l-1,0.9
					c-0.4,0.3-0.6,0.5-0.7,0.5c-0.1,0-0.2,0-0.3-0.1s-0.1-0.2-0.1-0.3c0-0.3,0.3-0.5,0.8-0.7l1.3-0.5c0-0.1,0-0.1,0-0.2v-0.2
					l-1.5-0.6c-0.4-0.1-0.6-0.3-0.6-0.6c0-0.1,0-0.3,0.1-0.4s0.2-0.2,0.3-0.2s0.3,0.1,0.5,0.2l0.2,0.1l1.1,1
					c0.1-0.1,0.2-0.1,0.3-0.1l-0.3-1.3l-0.1-0.3c0-0.1,0-0.2,0-0.3c0-0.4,0.2-0.6,0.5-0.6s0.5,0.2,0.5,0.6c0,0.1,0,0.3-0.1,0.6
					L360.1,647.2z"/>
				<path class="st0" d="M367.4,650.5l-1-0.6c-0.7-0.4-1.1-0.7-1.3-1.1c-0.3-0.4-0.4-0.7-0.4-1.2c0-0.7,0.3-1.3,0.7-1.7
					c0.5-0.4,1.1-0.7,2-0.7c0.7,0,1.5,0.2,2.1,0.7v1.5c-0.7-0.7-1.4-0.9-2.1-0.9c-0.5,0-0.7,0.1-1,0.3s-0.4,0.5-0.4,0.7
					s0.1,0.6,0.3,0.7s0.6,0.5,1,0.7l1,0.6c1.1,0.7,1.7,1.5,1.7,2.5c0,0.7-0.3,1.3-0.7,1.8c-0.5,0.5-1.1,0.7-2,0.7
					c-0.9,0-1.8-0.3-2.5-0.8v-1.6c0.7,0.8,1.6,1.3,2.5,1.3c0.4,0,0.7-0.1,1-0.4s0.4-0.5,0.4-0.8
					C368.7,651.5,368.3,651.1,367.4,650.5z"/>
				<path class="st0" d="M371.9,645.4h7.8v1.1h-3.3v7.8h-1.3v-7.8h-3.2C371.9,646.5,371.9,645.4,371.9,645.4z"/>
				<path class="st0" d="M383.9,645.3h0.9l4.1,9h-1.4l-1.2-2.6h-3.9l-1.1,2.6h-1.4L383.9,645.3z M385.8,650.5l-1.5-3.3l-1.4,3.3
					H385.8z"/>
				<path class="st0" d="M391.3,654.2v-9h2.3c0.9,0,1.7,0.2,2.2,0.7c0.6,0.5,0.8,1,0.8,1.8c0,0.6-0.1,0.9-0.4,1.3s-0.7,0.7-1.1,0.8
					c0.3,0.2,0.6,0.5,0.8,0.7c0.3,0.3,0.7,0.9,1.2,1.7c0.3,0.5,0.6,0.9,0.7,1.1l0.5,0.7h-1.6l-0.4-0.6c0,0,0-0.1-0.1-0.1l-0.3-0.2
					l-0.4-0.7l-0.5-0.7c-0.3-0.4-0.6-0.7-0.7-0.8s-0.5-0.4-0.7-0.5c-0.2-0.1-0.5-0.2-0.9-0.2h-0.4v3.9L391.3,654.2L391.3,654.2z
					 M393.1,646.4h-0.4v2.8h0.5c0.7,0,1.1-0.1,1.4-0.2s0.5-0.3,0.6-0.5s0.2-0.5,0.2-0.7s-0.1-0.6-0.2-0.7c-0.2-0.2-0.4-0.4-0.7-0.5
					C394.1,646.5,393.8,646.4,393.1,646.4z"/>
			</g>
		</g>
	</g>
	<g>
		<path class="st0" d="M416.8,617.1h3.7v4.6c-1.3,0.6-2.7,0.9-4,0.9c-1.8,0-3.3-0.5-4.3-1.6c-1.1-1.1-1.6-2.4-1.6-3.9
			c0-1.6,0.6-3,1.7-4.1c1.1-1.1,2.5-1.6,4.2-1.6c0.6,0,1.2,0.1,1.8,0.2c0.6,0.1,1.2,0.4,2.1,0.7v1.6c-1.3-0.8-2.6-1.1-3.9-1.1
			c-1.2,0-2.2,0.4-3,1.2c-0.8,0.8-1.2,1.8-1.2,3s0.4,2.3,1.2,3c0.8,0.8,1.9,1.2,3.2,1.2c0.6,0,1.4-0.1,2.2-0.4h0.1v-2.3h-2.1v-1.4
			H416.8z"/>
		<path class="st0" d="M428.7,619h-5.1c0,0.7,0.3,1.2,0.7,1.6c0.4,0.4,1,0.6,1.6,0.6c0.9,0,1.8-0.3,2.6-0.9v1.4
			c-0.4,0.3-0.9,0.5-1.3,0.6c-0.4,0.1-0.9,0.2-1.5,0.2c-0.8,0-1.4-0.2-1.9-0.5s-0.9-0.8-1.2-1.3c-0.3-0.6-0.4-1.2-0.4-1.9
			c0-1.1,0.3-2,0.9-2.7c0.6-0.7,1.4-1,2.4-1s1.7,0.3,2.3,1s0.9,1.6,0.9,2.7V619z M423.7,618.1h3.6c0-0.6-0.2-1-0.5-1.3
			c-0.3-0.3-0.7-0.5-1.2-0.5s-0.9,0.2-1.3,0.5C424,617.1,423.8,617.6,423.7,618.1z"/>
		<path class="st0" d="M431.7,615.3v0.9c0.6-0.7,1.4-1.1,2.2-1.1c0.4,0,0.9,0.1,1.2,0.3c0.3,0.2,0.7,0.5,0.9,1s0.3,1,0.3,1.9v4.1
			h-1.4v-4.1c0-0.7-0.1-1.3-0.3-1.6c-0.2-0.3-0.6-0.5-1.1-0.5c-0.7,0-1.2,0.3-1.7,1v5.1h-1.5v-7.2h1.4V615.3z"/>
		<path class="st0" d="M441.7,615.2c1.1,0,2,0.4,2.7,1.1c0.7,0.7,1.1,1.6,1.1,2.7c0,1-0.4,1.9-1.1,2.6c-0.7,0.7-1.7,1-2.8,1
			s-2-0.3-2.7-1c-0.7-0.7-1.1-1.6-1.1-2.6c0-1.1,0.4-1.9,1.1-2.6C439.6,615.7,440.6,615.2,441.7,615.2z M441.6,616.5
			c-0.7,0-1.2,0.2-1.7,0.7s-0.7,1-0.7,1.7c0,0.7,0.2,1.2,0.7,1.7s1,0.7,1.7,0.7c0.7,0,1.3-0.2,1.7-0.7s0.7-1,0.7-1.7
			c0-0.7-0.2-1.2-0.7-1.7S442.3,616.5,441.6,616.5z"/>
		<path class="st0" d="M453,617.2v5.2h-1.4v-4c0-0.8-0.1-1.4-0.3-1.7c-0.2-0.3-0.6-0.5-1.1-0.5c-0.3,0-0.6,0.1-0.8,0.2
			c-0.2,0.1-0.5,0.4-0.8,0.7v5.2h-1.4v-7.2h1.4v0.9c0.7-0.7,1.4-1.1,2.1-1.1c0.9,0,1.6,0.4,2.1,1.3c0.8-0.9,1.6-1.3,2.4-1.3
			c0.7,0,1.3,0.3,1.7,0.8s0.7,1.3,0.7,2.3v4.2h-1.4v-4.3c0-0.6-0.1-1.1-0.4-1.4c-0.3-0.3-0.6-0.5-1.1-0.5
			C454,616.3,453.5,616.6,453,617.2z"/>
		<path class="st0" d="M465.5,619h-5.1c0,0.7,0.3,1.2,0.7,1.6c0.4,0.4,1,0.6,1.6,0.6c0.9,0,1.8-0.3,2.6-0.9v1.4
			c-0.4,0.3-0.9,0.5-1.3,0.6s-0.9,0.2-1.5,0.2c-0.8,0-1.4-0.2-1.9-0.5s-0.9-0.8-1.2-1.3s-0.4-1.2-0.4-1.9c0-1.1,0.3-2,0.9-2.7
			s1.4-1,2.4-1s1.7,0.3,2.3,1s0.9,1.6,0.9,2.7V619z M460.5,618.1h3.6c0-0.6-0.2-1-0.5-1.3c-0.3-0.3-0.7-0.5-1.2-0.5
			s-0.9,0.2-1.3,0.5S460.6,617.6,460.5,618.1z"/>
		<path class="st0" d="M471.7,611.5h1.6v10.9h-1.6V611.5z"/>
		<path class="st0" d="M476.9,615.3v0.9c0.6-0.7,1.4-1.1,2.2-1.1c0.4,0,0.9,0.1,1.2,0.3c0.3,0.2,0.7,0.5,0.9,1
			c0.2,0.5,0.3,1,0.3,1.9v4.1h-1.4v-4.1c0-0.7-0.1-1.3-0.3-1.6c-0.2-0.3-0.6-0.5-1.1-0.5c-0.7,0-1.2,0.3-1.7,1v5.1h-1.5v-7.2h1.4
			V615.3z"/>
		<path class="st0" d="M483.2,621.9v-1.5c0.4,0.3,0.8,0.5,1.2,0.7s0.8,0.3,1.1,0.3c0.3,0,0.6-0.1,0.8-0.2c0.2-0.1,0.3-0.3,0.3-0.5
			c0-0.2-0.1-0.4-0.2-0.5c-0.1-0.1-0.4-0.3-0.9-0.6c-0.9-0.5-1.5-0.9-1.8-1.3c-0.3-0.4-0.4-0.8-0.4-1.2c0-0.6,0.2-1,0.6-1.4
			c0.4-0.4,1-0.5,1.7-0.5c0.7,0,1.4,0.2,2.2,0.6v1.4c-0.8-0.5-1.5-0.8-2.1-0.8c-0.3,0-0.5,0.1-0.7,0.2c-0.2,0.1-0.3,0.3-0.3,0.5
			s0.1,0.3,0.2,0.5c0.2,0.2,0.4,0.3,0.8,0.5l0.5,0.3c1.2,0.7,1.8,1.4,1.8,2.2c0,0.6-0.2,1.1-0.7,1.4c-0.5,0.4-1.1,0.6-1.8,0.6
			c-0.4,0-0.8,0-1.1-0.1C484.1,622.4,483.7,622.2,483.2,621.9z"/>
		<path class="st0" d="M488.7,616.4l2.7-2.6v1.5h2.3v1.3h-2.3v3.5c0,0.8,0.3,1.2,1,1.2c0.5,0,1-0.2,1.6-0.5v1.3
			c-0.5,0.3-1.1,0.5-1.8,0.5c-0.7,0-1.2-0.2-1.6-0.6c-0.1-0.1-0.2-0.2-0.3-0.4s-0.2-0.3-0.2-0.6s-0.1-0.7-0.1-1.3v-3.2h-1.2
			L488.7,616.4L488.7,616.4z"/>
		<path class="st0" d="M495.7,612.2c0.2,0,0.4,0.1,0.6,0.2c0.2,0.1,0.2,0.4,0.2,0.6s-0.1,0.4-0.2,0.6c-0.1,0.2-0.4,0.2-0.6,0.2
			s-0.4-0.1-0.6-0.3s-0.2-0.4-0.2-0.6c0-0.2,0.1-0.4,0.2-0.6C495.2,612.1,495.5,612.2,495.7,612.2z M495,615.3h1.4v7.2H495V615.3z"
			/>
		<path class="st0" d="M497.5,616.4l2.7-2.6v1.5h2.3v1.3h-2.3v3.5c0,0.8,0.3,1.2,1,1.2c0.5,0,1-0.2,1.6-0.5v1.3
			c-0.5,0.3-1.1,0.5-1.8,0.5c-0.7,0-1.2-0.2-1.6-0.6c-0.1-0.1-0.2-0.2-0.3-0.4s-0.2-0.3-0.2-0.6s-0.1-0.7-0.1-1.3v-3.2h-1.2
			L497.5,616.4L497.5,616.4z"/>
		<path class="st0" d="M508.4,622.5v-0.9c-0.3,0.3-0.6,0.6-1,0.8c-0.4,0.2-0.8,0.3-1.2,0.3c-0.5,0-0.9-0.1-1.3-0.3
			c-0.4-0.2-0.7-0.5-0.9-0.9c-0.2-0.4-0.3-1-0.3-1.9v-4.1h1.4v4.1c0,0.8,0.1,1.3,0.3,1.6c0.2,0.3,0.6,0.4,1.1,0.4
			c0.7,0,1.3-0.3,1.7-1v-5.1h1.4v7.2h-1.2V622.5z"/>
		<path class="st0" d="M510.8,616.4l2.7-2.6v1.5h2.3v1.3h-2.3v3.5c0,0.8,0.3,1.2,1,1.2c0.5,0,1-0.2,1.6-0.5v1.3
			c-0.5,0.3-1.1,0.5-1.8,0.5c-0.7,0-1.2-0.2-1.6-0.6c-0.1-0.1-0.2-0.2-0.3-0.4c-0.1-0.2-0.2-0.3-0.2-0.6s-0.1-0.7-0.1-1.3v-3.2h-1.2
			v-0.1H510.8z"/>
		<path class="st0" d="M523.3,619h-5.1c0,0.7,0.3,1.2,0.7,1.6c0.4,0.4,1,0.6,1.6,0.6c0.9,0,1.8-0.3,2.6-0.9v1.4
			c-0.4,0.3-0.9,0.5-1.3,0.6c-0.4,0.1-0.9,0.2-1.5,0.2c-0.8,0-1.4-0.2-1.9-0.5s-0.9-0.8-1.2-1.3c-0.3-0.5-0.4-1.2-0.4-1.9
			c0-1.1,0.3-2,0.9-2.7c0.6-0.7,1.4-1,2.4-1s1.7,0.3,2.3,1c0.6,0.7,0.9,1.6,0.9,2.7V619z M518.3,618.1h3.6c0-0.6-0.2-1-0.5-1.3
			s-0.7-0.5-1.2-0.5s-0.9,0.2-1.3,0.5S518.4,617.6,518.3,618.1z"/>
		<path class="st0" d="M414.2,634.4c1.1,0,2,0.4,2.7,1.1c0.7,0.7,1.1,1.6,1.1,2.7c0,1-0.4,1.9-1.1,2.6c-0.7,0.7-1.7,1-2.8,1
			s-2-0.3-2.7-1c-0.7-0.7-1.1-1.6-1.1-2.6c0-1.1,0.4-1.9,1.1-2.6C412.1,634.8,413.1,634.4,414.2,634.4z M414.1,635.7
			c-0.7,0-1.2,0.2-1.7,0.7s-0.7,1-0.7,1.7s0.2,1.2,0.7,1.7c0.4,0.4,1,0.7,1.7,0.7c0.7,0,1.3-0.2,1.7-0.7s0.7-1,0.7-1.7
			s-0.2-1.2-0.7-1.7C415.4,636,414.8,635.7,414.1,635.7z"/>
		<path class="st0" d="M419.7,634.5V634c0-1.2,0.2-2,0.7-2.6c0.5-0.6,1.1-0.9,1.8-0.9c0.3,0,0.6,0,1.1,0.1v1.4c-0.2,0-0.5,0-0.7,0
			c-0.6,0-0.9,0.1-1.2,0.4c-0.2,0.3-0.3,0.8-0.3,1.6v0.4h1.3v1.3h-1.3v5.9h-1.4v-5.9h-1v-1.3h1V634.5z"/>
		<path class="st0" d="M430.9,637.1l-1.2-0.7c-0.7-0.5-1.3-0.9-1.6-1.3c-0.3-0.4-0.5-1-0.5-1.6c0-0.9,0.3-1.6,0.9-2.1
			s1.4-0.8,2.3-0.8c0.9,0,1.7,0.3,2.5,0.8v1.8c-0.7-0.8-1.6-1.2-2.5-1.2c-0.5,0-0.9,0.1-1.3,0.4c-0.3,0.2-0.5,0.5-0.5,0.9
			c0,0.3,0.1,0.6,0.4,0.9c0.2,0.3,0.6,0.6,1.2,0.9l1.2,0.7c1.3,0.8,2,1.8,2,3c0,0.9-0.3,1.6-0.9,2.1s-1.3,0.9-2.3,0.9
			c-1.1,0-2.1-0.3-2.9-1v-2c0.8,1.1,1.8,1.6,2.9,1.6c0.5,0,0.9-0.1,1.2-0.4c0.3-0.3,0.5-0.6,0.5-1
			C432.3,638.3,431.9,637.7,430.9,637.1z"/>
		<path class="st0" d="M436.1,631.4c0.2,0,0.4,0.1,0.6,0.2c0.2,0.1,0.2,0.4,0.2,0.6c0,0.2-0.1,0.4-0.2,0.6c-0.1,0.2-0.4,0.2-0.6,0.2
			c-0.2,0-0.4-0.1-0.6-0.3c-0.2-0.2-0.2-0.4-0.2-0.6s0.1-0.4,0.2-0.6C435.6,631.3,435.8,631.4,436.1,631.4z M435.4,634.5h1.4v7.2
			h-1.4V634.5z"/>
		<path class="st0" d="M440.3,634.5v0.9c0.6-0.7,1.4-1.1,2.2-1.1c0.4,0,0.9,0.1,1.2,0.3c0.3,0.2,0.7,0.5,0.9,1
			c0.2,0.5,0.3,1,0.3,1.9v4.1h-1.4v-4.1c0-0.7-0.1-1.3-0.3-1.6c-0.2-0.3-0.6-0.5-1.1-0.5c-0.7,0-1.2,0.3-1.7,1v5.1h-1.5v-7.2h1.4
			V634.5z"/>
		<path class="st0" d="M446.5,636.9c0-0.8,0.3-1.4,0.8-1.8c0.5-0.4,1.3-0.7,2.3-0.7h3v1.1h-1.5c0.3,0.3,0.5,0.5,0.6,0.8
			s0.2,0.5,0.2,0.8c0,0.4-0.1,0.7-0.3,1.1c-0.2,0.4-0.5,0.6-0.8,0.8c-0.3,0.2-0.9,0.3-1.7,0.5c-0.5,0.1-0.8,0.3-0.8,0.6
			c0,0.2,0.1,0.3,0.3,0.4s0.6,0.2,1.1,0.3c0.9,0.2,1.4,0.3,1.7,0.5s0.5,0.3,0.7,0.5c0.3,0.3,0.5,0.8,0.5,1.3c0,0.7-0.3,1.2-0.9,1.6
			c-0.6,0.4-1.4,0.6-2.4,0.6s-1.8-0.2-2.5-0.6c-0.6-0.4-0.9-1-0.9-1.6c0-1,0.6-1.6,1.8-1.9c-0.5-0.3-0.7-0.6-0.7-0.9
			c0-0.2,0.1-0.4,0.3-0.6c0.2-0.2,0.5-0.3,0.8-0.4C447,638.8,446.5,638,446.5,636.9z M448.8,642c-0.5,0-0.9,0.1-1.2,0.3
			s-0.5,0.5-0.5,0.8c0,0.7,0.7,1.1,2,1.1c0.6,0,1.1-0.1,1.5-0.3c0.3-0.2,0.5-0.4,0.5-0.8c0-0.3-0.2-0.6-0.7-0.8S449.5,642,448.8,642
			z M449.1,635.7c-0.4,0-0.7,0.1-1,0.4c-0.3,0.3-0.4,0.6-0.4,0.9c0,0.4,0.1,0.7,0.4,0.9c0.3,0.2,0.6,0.4,1,0.4s0.7-0.1,1-0.4
			c0.3-0.3,0.4-0.6,0.4-0.9c0-0.4-0.1-0.7-0.4-0.9C449.8,635.9,449.5,635.7,449.1,635.7z"/>
		<path class="st0" d="M458.2,637.3v3.1c0,0.2,0.1,0.4,0.2,0.4c0.2,0,0.4-0.1,0.8-0.4v0.9c-0.3,0.2-0.6,0.4-0.8,0.4
			s-0.4,0.1-0.6,0.1c-0.6,0-1-0.2-1.1-0.7c-0.6,0.5-1.2,0.7-1.9,0.7c-0.5,0-0.9-0.2-1.2-0.5s-0.5-0.7-0.5-1.2s0.2-0.9,0.5-1.2
			c0.3-0.3,0.8-0.6,1.4-0.8l1.8-0.6v-0.4c0-0.9-0.4-1.3-1.3-1.3c-0.8,0-1.5,0.4-2.3,1.2v-1.6c0.6-0.7,1.3-1,2.4-1
			c0.8,0,1.4,0.2,1.9,0.6c0.2,0.1,0.3,0.3,0.4,0.5c0.1,0.2,0.2,0.4,0.2,0.6S458.2,636.7,458.2,637.3z M456.8,640.2v-2.1l-1,0.4
			c-0.5,0.2-0.8,0.4-1,0.6c-0.2,0.2-0.3,0.4-0.3,0.7s0.1,0.5,0.3,0.7c0.2,0.2,0.4,0.3,0.7,0.3C456,640.8,456.4,640.6,456.8,640.2z"
			/>
		<path class="st0" d="M460.2,645.3v-10.8h2.5c1.3,0,2.3,0.3,3,1c0.7,0.7,1.1,1.5,1.1,2.7c0,1.1-0.3,2-1,2.7c-0.7,0.7-1.5,1-2.6,1
			c-0.5,0-1-0.1-1.5-0.3v3.8L460.2,645.3L460.2,645.3z M462.7,635.8h-1v4.4c0.4,0.2,0.9,0.3,1.4,0.3c0.7,0,1.2-0.2,1.6-0.7
			c0.4-0.5,0.6-1.1,0.6-1.8c0-0.5-0.1-0.9-0.3-1.2s-0.5-0.6-0.8-0.8C463.9,635.8,463.4,635.8,462.7,635.8z"/>
		<path class="st0" d="M471.8,634.4c1.1,0,2,0.4,2.7,1.1c0.7,0.7,1.1,1.6,1.1,2.7c0,1-0.4,1.9-1.1,2.6s-1.7,1-2.8,1s-2-0.3-2.7-1
			c-0.7-0.7-1.1-1.6-1.1-2.6c0-1.1,0.4-1.9,1.1-2.6C469.7,634.9,470.7,634.4,471.8,634.4z M471.7,635.7c-0.7,0-1.2,0.2-1.7,0.7
			s-0.7,1-0.7,1.7s0.2,1.2,0.7,1.7s1,0.7,1.7,0.7c0.7,0,1.3-0.2,1.7-0.7s0.7-1,0.7-1.7s-0.2-1.2-0.7-1.7S472.4,635.7,471.7,635.7z"
			/>
		<path class="st0" d="M478.7,634.5v1.6l0.1-0.1c0.7-1.1,1.4-1.7,2.1-1.7c0.5,0,1.1,0.3,1.7,0.8l-0.8,1.2c-0.5-0.5-1-0.7-1.4-0.7
			c-0.5,0-0.9,0.2-1.2,0.7c-0.3,0.5-0.5,1-0.5,1.6v3.8h-1.4v-7.2C477.3,634.5,478.7,634.5,478.7,634.5z"/>
		<path class="st0" d="M489.3,638.2h-5.1c0,0.7,0.3,1.2,0.7,1.6s1,0.6,1.6,0.6c0.9,0,1.8-0.3,2.6-0.9v1.4c-0.4,0.3-0.9,0.5-1.3,0.6
			c-0.4,0.1-0.9,0.2-1.5,0.2c-0.8,0-1.4-0.2-1.9-0.5c-0.5-0.3-0.9-0.8-1.2-1.3c-0.3-0.5-0.4-1.2-0.4-1.9c0-1.1,0.3-2,0.9-2.7
			c0.6-0.7,1.4-1,2.4-1s1.7,0.3,2.3,1s0.9,1.6,0.9,2.7V638.2z M484.3,637.3h3.6c0-0.6-0.2-1-0.5-1.3c-0.3-0.3-0.7-0.5-1.2-0.5
			s-0.9,0.2-1.3,0.5C484.5,636.3,484.4,636.8,484.3,637.3z"/>
	</g>
</g>
</svg>
