<?xml version="1.0" encoding="UTF-8" standalone="no"?>
<svg
   xmlns:dc="http://purl.org/dc/elements/1.1/"
   xmlns:cc="http://creativecommons.org/ns#"
   xmlns:rdf="http://www.w3.org/1999/02/22-rdf-syntax-ns#"
   xmlns:svg="http://www.w3.org/2000/svg"
   xmlns="http://www.w3.org/2000/svg"
   xmlns:sodipodi="http://sodipodi.sourceforge.net/DTD/sodipodi-0.dtd"
   xmlns:inkscape="http://www.inkscape.org/namespaces/inkscape"
   inkscape:version="1.0 (1.0+r73+1)"
   sodipodi:docname="HIRI.svg"
   id="svg2488"
   version="1.1"
   viewBox="0 0 95.499947 7.4000788"
   height="7.4000788mm"
   width="95.499947mm">
  <defs
     id="defs2482">
    <clipPath
       clipPathUnits="userSpaceOnUse"
       id="clipPath1184">
      <path
         d="M 0,0 H 3401.57 V 850.395 H 0 Z"
         id="path1182" />
    </clipPath>
  </defs>
  <sodipodi:namedview
     fit-margin-bottom="0"
     fit-margin-right="0"
     fit-margin-left="0"
     fit-margin-top="0"
     inkscape:window-maximized="1"
     inkscape:window-y="27"
     inkscape:window-x="1920"
     inkscape:window-height="1025"
     inkscape:window-width="1920"
     showgrid="false"
     inkscape:document-rotation="0"
     inkscape:current-layer="layer1"
     inkscape:document-units="mm"
     inkscape:cy="146.76709"
     inkscape:cx="329.02338"
     inkscape:zoom="1.9843683"
     inkscape:pageshadow="2"
     inkscape:pageopacity="0.0"
     borderopacity="1.0"
     bordercolor="#666666"
     pagecolor="#ffffff"
     id="base" />
  <metadata
     id="metadata2485">
    <rdf:RDF>
      <cc:Work
         rdf:about="">
        <dc:format>image/svg+xml</dc:format>
        <dc:type
           rdf:resource="http://purl.org/dc/dcmitype/StillImage" />
        <dc:title></dc:title>
      </cc:Work>
    </rdf:RDF>
  </metadata>
  <g
     transform="translate(-42.043499,-75.503553)"
     id="layer1"
     inkscape:groupmode="layer"
     inkscape:label="Layer 1">
    <g
       id="g1180"
       clip-path="url(#clipPath1184)"
       transform="matrix(0.03527778,0,0,-0.03527778,32.043483,95.503585)">
      <path
         d="m 982.109,530.875 v 35.969 h 17.059 v -88.871 h -17.059 v 35.847 h -30.457 v -35.847 h -17.043 v 88.871 h 17.043 v -35.969 h 30.457"
         style="fill:#125e9d;fill-opacity:1;fill-rule:nonzero;stroke:none"
         id="path1186" />
      <path
         d="m 1074.3,566.844 v -17.047 h -38.99 v -18.922 h 33.85 V 513.82 h -33.85 v -18.8 h 38.99 v -17.047 h -47.64 c -0.75,0 -1.51,0.254 -2.01,0.879 l -5.51,5.507 c -0.62,0.504 -0.88,1.258 -0.88,2.012 v 72.086 c 0,0.742 0.26,1.496 0.88,1.996 l 5.51,5.516 c 0.5,0.508 1.26,0.875 2.01,0.875 h 47.64"
         style="fill:#125e9d;fill-opacity:1;fill-rule:nonzero;stroke:none"
         id="path1188" />
      <path
         d="m 1100.66,477.973 c -0.75,0 -1.51,0.254 -2.01,0.879 l -5.51,5.507 c -0.63,0.504 -0.88,1.258 -0.88,2.012 v 80.473 h 17.05 V 495.02 h 37.1 v -17.047 h -45.75"
         style="fill:#125e9d;fill-opacity:1;fill-rule:nonzero;stroke:none"
         id="path1190" />
      <path
         d="m 1237.95,566.844 v -88.871 h -17.05 v 49.136 l -13.91,-29.078 c -0.5,-1 -1.5,-1.633 -2.51,-1.633 h -10.02 c -1.14,0 -2.14,0.633 -2.64,1.633 l -13.91,29.078 v -49.136 h -17.05 v 88.871 h 17.05 l 21.56,-45.125 21.43,45.125 h 17.05"
         style="fill:#125e9d;fill-opacity:1;fill-rule:nonzero;stroke:none"
         id="path1192" />
      <path
         d="m 1303.43,530.875 v 35.969 h 17.06 v -88.871 h -17.06 v 35.847 h -30.45 v -35.847 h -17.05 v 88.871 h 17.05 v -35.969 h 30.45"
         style="fill:#125e9d;fill-opacity:1;fill-rule:nonzero;stroke:none"
         id="path1194" />
      <path
         d="m 1388.98,562.59 8.9,-8.781 c 2.63,-2.629 4.13,-6.266 4.13,-10.02 v -42.75 c 0,-3.766 -1.5,-7.398 -4.13,-10.031 l -8.9,-8.903 c -2.63,-2.632 -6.27,-4.132 -10.04,-4.132 h -19.92 c -3.76,0 -7.52,1.379 -10.15,4.132 l -8.78,8.903 c -2.64,2.633 -4.14,6.265 -4.14,10.031 v 42.75 c 0,3.754 1.5,7.391 4.14,10.02 l 8.78,8.781 c 2.75,2.754 6.39,4.254 10.15,4.254 h 19.92 c 3.77,0 7.28,-1.621 10.04,-4.254 z m -4.01,-59.293 v 38.101 c 0,0.754 -0.38,1.512 -0.88,2.012 l -5.39,5.512 c -0.63,0.5 -1.38,0.875 -2.13,0.875 h -15.29 c -0.76,0 -1.38,-0.375 -2.01,-0.875 l -5.39,-5.512 c -0.63,-0.5 -0.88,-1.258 -0.88,-2.012 v -38.101 c 0,-0.758 0.25,-1.379 0.88,-2.012 l 5.39,-5.39 c 0.63,-0.622 1.25,-0.875 2.01,-0.875 h 15.29 c 0.75,0 1.5,0.253 2.13,0.875 l 5.39,5.39 c 0.5,0.633 0.88,1.254 0.88,2.012"
         style="fill:#125e9d;fill-opacity:1;fill-rule:nonzero;stroke:none"
         id="path1196" />
      <path
         d="m 1425.5,477.973 c -0.76,0 -1.51,0.254 -2.01,0.879 l -5.51,5.507 c -0.64,0.504 -0.88,1.258 -0.88,2.012 v 80.473 h 17.04 V 495.02 h 37.11 v -17.047 h -45.75"
         style="fill:#125e9d;fill-opacity:1;fill-rule:nonzero;stroke:none"
         id="path1198" />
      <path
         d="m 1470.02,549.797 v 17.047 h 64.18 v -17.047 h -23.57 v -71.824 h -17.04 v 71.824 h -23.57"
         style="fill:#125e9d;fill-opacity:1;fill-rule:nonzero;stroke:none"
         id="path1200" />
      <path
         d="m 1600.19,565.969 5.51,-5.516 c 0.5,-0.5 0.88,-1.254 0.88,-1.996 v -4.391 l -37.36,-59.046 h 36.86 v -17.047 h -50.89 c -0.76,0 -1.51,0.254 -2.01,0.879 l -5.51,5.507 c -0.5,0.504 -0.88,1.258 -0.88,2.012 v 5.137 l 36.85,58.289 h -37.35 v 17.047 h 51.89 c 0.75,0 1.51,-0.367 2.01,-0.875"
         style="fill:#125e9d;fill-opacity:1;fill-rule:nonzero;stroke:none"
         id="path1202" />
      <path
         d="M 394.363,482.949 V 566.93 H 434.16 V 359.465 h -39.797 v 83.687 H 323.258 V 359.465 H 283.465 V 566.93 h 39.793 v -83.981 h 71.105"
         style="fill:#125e9d;fill-opacity:1;fill-rule:nonzero;stroke:none"
         id="path1204" />
      <path
         d="M 521.648,359.465 H 481.855 V 566.93 h 39.793 V 359.465"
         style="fill:#125e9d;fill-opacity:1;fill-rule:nonzero;stroke:none"
         id="path1206" />
      <path
         d="m 722.953,359.465 h -45.512 l -33.207,59.945 h -35.953 v -59.945 h -39.812 v 207.367 h 94.933 c 8.801,0 17.243,-3.5 23.461,-9.723 l 20.567,-20.566 c 6.222,-6.223 9.715,-14.656 9.715,-23.457 v -39.93 c 0,-8.801 -3.493,-17.242 -9.715,-23.461 L 685.254,427.52 Z m -114.672,99.758 h 49.621 c 1.762,0 3.45,0.699 4.692,1.945 l 12.793,12.793 c 1.242,1.242 1.941,2.93 1.941,4.691 v 28.938 c 0,1.758 -0.699,3.449 -1.941,4.691 l -12.789,12.789 c -1.243,1.243 -2.93,1.946 -4.692,1.946 h -49.625 v -67.793"
         style="fill:#125e9d;fill-opacity:1;fill-rule:nonzero;stroke:none"
         id="path1208" />
      <path
         d="M 805.492,359.465 H 765.695 V 566.93 h 39.797 V 359.465"
         style="fill:#125e9d;fill-opacity:1;fill-rule:nonzero;stroke:none"
         id="path1210" />
      <path
         d="m 943.879,358.617 v 80.574 h -9.289 v -80.574 z m 17.531,57.254 c 1.328,-5.301 1.328,-5.785 1.328,-19.441 v -37.813 h 8.446 v 32.012 c 0,5.437 0.843,9.184 2.539,12.207 2.66,4.473 7.375,7.129 12.57,7.129 4.715,0 8.102,-1.934 9.914,-5.438 1.332,-2.781 1.57,-4.836 1.57,-13.535 v -32.375 h 8.443 v 32.856 c 0,11.363 -0.24,12.933 -1.81,16.679 -2.53,5.914 -8.445,9.289 -16.422,9.289 -7.738,0 -13.422,-3.253 -17.289,-9.89 0,3.625 -0.359,5.918 -1.207,8.32 z m 100.27,-15.695 c -0.6,11.238 -7.6,17.265 -19.81,17.265 -11.72,0 -19.68,-6.507 -19.68,-16.175 0,-7.981 4.22,-12.332 15.33,-15.715 9.67,-3.02 10.52,-3.262 12.57,-4.473 2.54,-1.57 3.87,-3.867 3.87,-6.765 0,-6.286 -4.59,-10.036 -12.21,-10.036 -8.34,0 -12.57,3.871 -13.29,12.09 h -8.21 c 0,-12.449 7.6,-19.203 21.62,-19.203 12.82,0 20.78,6.875 20.78,17.871 0,3.867 -1.21,7.375 -3.26,9.91 -2.41,2.782 -5.91,4.473 -15.34,7.254 -10.88,3.262 -13.3,4.953 -13.3,9.668 0,5.078 4.47,8.582 11,8.582 7.14,0 10.88,-3.261 11.73,-10.273 z m 26.71,15.695 0.36,16.555 h -8.34 l -0.36,-16.555 h -8.7 L 1071.23,409 h 8.7 l -0.73,-28.766 c -0.24,-5.558 -0.24,-6.89 -0.24,-9.187 0,-4.711 0.24,-6.164 1.33,-8.215 1.93,-3.375 6.28,-5.426 11.96,-5.426 3.26,0 6.53,0.606 10.03,1.93 l 0.12,7.48 c -2.66,-1.207 -5.92,-2.054 -8.34,-2.054 -4.22,0 -6.28,2.176 -6.28,6.648 v 2.781 l -0.12,1.45 0.12,4.351 0.49,29.008 h 13.65 l 0.12,6.871 z m 26.34,0 v -57.254 h 8.93 v 57.254 z m 4.59,24.406 c -3.62,0 -6.28,-2.656 -6.28,-6.273 0,-3.379 2.66,-6.035 6.16,-6.035 3.49,0 6.15,2.656 6.15,6.156 0,3.496 -2.54,6.152 -6.03,6.152 z m 33.71,-24.406 0.36,16.555 h -8.34 l -0.36,-16.555 h -8.7 L 1135.87,409 h 8.7 l -0.73,-28.766 c -0.24,-5.558 -0.24,-6.89 -0.24,-9.187 0,-4.711 0.24,-6.164 1.33,-8.215 1.93,-3.375 6.28,-5.426 11.96,-5.426 3.26,0 6.53,0.606 10.03,1.93 l 0.12,7.48 c -2.66,-1.207 -5.92,-2.054 -8.34,-2.054 -4.22,0 -6.28,2.176 -6.28,6.648 v 2.781 l -0.12,1.45 0.12,4.351 0.49,29.008 h 13.65 l 0.12,6.871 z m 26.1,0 v -35.035 c 0,-7.856 0.48,-11.359 2.29,-14.5 3.02,-5.793 9.3,-9.172 16.91,-9.172 7.38,0 11.85,2.656 15.24,9.051 0.12,-3.02 0.36,-5.07 1.2,-7.602 h 8.33 c -1.33,4.219 -1.33,4.946 -1.33,17.391 v 39.867 h -8.45 v -32.496 c 0,-5.68 -0.6,-9.184 -2.29,-11.965 -2.54,-4.351 -6.53,-6.648 -11.73,-6.648 -4.35,0 -7.49,1.332 -9.55,4.23 -1.57,2.297 -2.18,5.442 -2.18,11.844 v 35.035 z m 71.88,0 0.37,16.555 h -8.34 l -0.36,-16.555 h -8.7 L 1233.86,409 h 8.7 l -0.73,-28.766 c -0.24,-5.558 -0.24,-6.89 -0.24,-9.187 0,-4.711 0.24,-6.164 1.33,-8.215 1.93,-3.375 6.28,-5.426 11.96,-5.426 3.26,0 6.52,0.606 10.03,1.93 l 0.12,7.48 c -2.66,-1.207 -5.92,-2.054 -8.34,-2.054 -4.23,0 -6.28,2.176 -6.28,6.648 v 2.781 l -0.12,1.45 0.12,4.351 0.48,29.008 h 13.66 l 0.12,6.871 z m 69,-30.07 c 0.13,1.086 0.13,2.051 0.13,2.41 0,17.766 -9.19,29.23 -23.2,29.23 -14.99,0 -24.65,-12.07 -24.65,-30.796 0,-18.133 9.66,-29.481 25.13,-29.481 10.63,0 17.76,5.066 21.27,14.973 l -7.86,0.968 c -3.26,-6.41 -6.89,-8.707 -13.29,-8.707 -10.51,0 -16.19,7.379 -16.55,21.403 z m -38.78,6.633 c 1.69,11.726 7.01,17.894 15.34,17.894 8.58,0 13.78,-6.289 14.75,-17.894 z m 93.15,23.437 v 3.871 c 0,4.473 0.24,7.133 0.84,8.707 0.97,3.145 3.51,4.957 6.89,4.957 2.42,0 4.95,-0.605 7.97,-2.176 v 7.844 c -3.26,1.207 -6.4,1.809 -9.06,1.809 -5.43,0 -10.38,-2.531 -12.79,-6.633 -1.93,-3.262 -2.42,-6.164 -2.42,-14.75 v -3.629 h -8.09 V 409 h 8.09 v -50.383 h 8.93 V 409 h 13.89 v 6.871 z m 45.69,1.57 c -14.63,0 -25.01,-12.308 -25.01,-29.714 0,-18.25 10.02,-30.563 25.01,-30.563 14.74,0 25,12.313 25,30.078 0,17.891 -10.26,30.199 -25,30.199 z m 0,-7.234 c 9.79,0 16.32,-9.184 16.32,-22.965 0,-13.656 -6.53,-22.844 -16.32,-22.844 -9.91,0 -16.32,9.188 -16.32,23.207 0,13.418 6.65,22.602 16.32,22.602 z m 38.43,5.664 c 0.84,-5.543 0.96,-6.633 0.96,-19.683 v -37.571 h 8.57 v 25.606 c 0,7.613 0.72,12.449 2.53,16.437 2.54,5.563 6.53,8.824 11,8.824 2.3,0 3.75,-0.484 7.61,-2.296 v 8.445 c -2.54,1.328 -4.59,1.808 -6.89,1.808 -6.16,0 -10.75,-4.218 -14.74,-13.878 0.13,1.57 0.13,2.781 0.13,3.503 0,2.661 -0.37,5.922 -1.09,8.805 z m 72.13,23.32 v -80.574 h 9.05 v 34.434 h 14.02 l 20.3,-34.434 h 10.86 l -21.13,35.879 c 10.99,3.981 16.54,11.231 16.54,21.867 0,9.551 -4.94,17.282 -13.03,20.293 -5.32,2.055 -9.91,2.535 -22.37,2.535 z m 9.05,-38.3 v 30.461 h 5.44 c 11.48,0 14.14,-0.243 18.01,-1.934 4.71,-2.055 7.61,-6.891 7.61,-12.934 0,-6.769 -3.38,-11.968 -9.06,-14.023 -3.75,-1.328 -6.53,-1.57 -16.32,-1.57 z m 58.73,38.3 v -80.574 h 8.56 v 66.934 l 38.44,-66.934 h 9.89 v 80.574 h -8.44 v -67.054 l -38.68,67.054 z m 97.26,0.485 -27.79,-81.059 h 9.31 l 7.25,21.387 h 30.32 l 7.13,-21.387 h 9.43 l -27.79,81.059 z m 16.55,-51.836 h -25.37 l 12.69,40.125 z m 25.38,4.473 v -6.633 h 33.1 v 6.633 z m 41.93,47.242 v -64.762 c 0,-9.91 -0.12,-12.684 -0.97,-16.18 h 8.09 c 0.84,2.774 0.96,3.86 0.96,8.082 3.99,-6.757 8.58,-9.531 15.84,-9.531 13.9,0 23.19,12.07 23.19,30.32 0,17.891 -8.93,29.957 -22.23,29.957 -7.13,0 -12.09,-2.89 -16.44,-9.89 v 32.004 z m 24.04,-29.469 c 8.7,0 14.38,-8.82 14.38,-22.602 0,-14.019 -5.92,-22.964 -14.99,-22.964 -9.06,0 -15.11,8.945 -15.11,22.484 0,14.019 6.17,23.082 15.72,23.082 z m 44.45,-9.184 c 1.21,6.407 5.08,9.305 12.7,9.305 8.7,0 11.72,-3.141 11.72,-11.844 v -2.418 c -10.63,-1.812 -15.95,-3.019 -21.52,-5.074 -8.57,-3.266 -13.27,-9.308 -13.27,-17.285 0,-9.91 7.23,-16.422 18.47,-16.422 7.98,0 13.42,3.016 16.81,9.172 0.36,-3.746 0.48,-5.07 1.32,-7.723 h 8.09 c -1.33,3.977 -1.57,5.785 -1.57,15.094 v 21.516 c 0,7.129 -0.25,9.91 -1.33,12.808 -2.17,6.035 -8.93,9.41 -18.36,9.41 -12.81,0 -20.18,-5.668 -21.38,-16.539 z m 24.42,-16.922 c 0,-5.921 -0.72,-9.91 -2.17,-12.57 -2.42,-4.594 -7.13,-7.133 -12.82,-7.133 -6.53,0 -11.12,4.114 -11.12,10.036 0,7.855 7.01,11.964 26.11,15.347 z m 63.91,16.196 c -0.61,11.238 -7.6,17.265 -19.81,17.265 -11.73,0 -19.69,-6.507 -19.69,-16.175 0,-7.981 4.22,-12.332 15.33,-15.715 9.68,-3.02 10.52,-3.262 12.58,-4.473 2.54,-1.57 3.87,-3.867 3.87,-6.765 0,-6.286 -4.6,-10.036 -12.21,-10.036 -8.35,0 -12.57,3.871 -13.3,12.09 h -8.2 c 0,-12.449 7.6,-19.203 21.62,-19.203 12.81,0 20.77,6.875 20.77,17.871 0,3.867 -1.2,7.375 -3.25,9.91 -2.42,2.782 -5.92,4.473 -15.35,7.254 -10.88,3.262 -13.3,4.953 -13.3,9.668 0,5.078 4.48,8.582 11.01,8.582 7.13,0 10.88,-3.261 11.72,-10.273 z m 59.33,-14.375 c 0.12,1.086 0.12,2.051 0.12,2.41 0,17.766 -9.19,29.23 -23.2,29.23 -14.98,0 -24.65,-12.07 -24.65,-30.796 0,-18.133 9.67,-29.481 25.13,-29.481 10.63,0 17.76,5.066 21.27,14.973 l -7.86,0.968 c -3.26,-6.41 -6.88,-8.707 -13.29,-8.707 -10.51,0 -16.19,7.379 -16.55,21.403 z m -38.79,6.633 c 1.69,11.726 7.01,17.894 15.35,17.894 8.57,0 13.77,-6.289 14.74,-17.894 z m 96.77,47.121 h -8.44 v -31.766 c -3.99,6.879 -8.7,9.652 -16.2,9.652 -13.42,0 -22.46,-12.429 -22.46,-30.679 0,-18.012 9.04,-29.598 23.07,-29.598 7.37,0 11.96,2.652 16.07,9.652 -0.12,-0.964 -0.12,-1.207 -0.12,-2.054 0,-2.168 0.24,-3.86 0.85,-6.149 h 8.32 c -0.84,3.375 -1.09,6.754 -1.09,16.907 z m -23.07,-29.469 c 9.07,0 14.75,-8.82 14.75,-22.844 0,-14.019 -5.8,-22.722 -15.11,-22.722 -4.11,0 -7.74,1.695 -9.91,4.714 -3.27,4.352 -5.08,10.879 -5.08,17.77 0,14.262 5.8,23.082 15.35,23.082 z m 81.79,-51.469 v 80.574 h -9.28 v -80.574 z m 17.54,57.254 c 1.33,-5.301 1.33,-5.785 1.33,-19.441 v -37.813 h 8.44 v 32.012 c 0,5.437 0.85,9.184 2.54,12.207 2.66,4.473 7.37,7.129 12.57,7.129 4.72,0 8.1,-1.934 9.91,-5.438 1.33,-2.781 1.58,-4.836 1.58,-13.535 v -32.375 h 8.44 v 32.856 c 0,11.363 -0.24,12.933 -1.81,16.679 -2.53,5.914 -8.45,9.289 -16.43,9.289 -7.73,0 -13.42,-3.253 -17.28,-9.89 0,3.625 -0.36,5.918 -1.21,8.32 z m 72.12,0 v 3.871 c 0,4.473 0.24,7.133 0.84,8.707 0.97,3.145 3.5,4.957 6.89,4.957 2.41,0 4.95,-0.605 7.97,-2.176 v 7.844 c -3.26,1.207 -6.4,1.809 -9.06,1.809 -5.44,0 -10.38,-2.531 -12.8,-6.633 -1.93,-3.262 -2.41,-6.164 -2.41,-14.75 v -3.629 h -8.09 V 409 h 8.09 v -50.383 h 8.93 V 409 h 13.89 v 6.871 z m 68.4,-30.07 c 0.12,1.086 0.12,2.051 0.12,2.41 0,17.766 -9.18,29.23 -23.2,29.23 -14.98,0 -24.65,-12.07 -24.65,-30.796 0,-18.133 9.67,-29.481 25.14,-29.481 10.63,0 17.76,5.066 21.26,14.973 l -7.85,0.968 c -3.26,-6.41 -6.89,-8.707 -13.29,-8.707 -10.52,0 -16.19,7.379 -16.56,21.403 z m -38.78,6.633 c 1.69,11.726 7,17.894 15.34,17.894 8.58,0 13.77,-6.289 14.74,-17.894 z m 94.59,4.843 c -1.21,13.172 -8.45,20.164 -20.54,20.164 -14.86,0 -24.27,-11.707 -24.27,-30.32 0,-18.129 9.53,-29.957 24.27,-29.957 12.57,0 19.94,7.356 21.03,21.137 h -8.46 c -0.97,-9.672 -4.83,-13.903 -12.57,-13.903 -3.86,0 -7.01,1.09 -9.06,3.145 -4.23,4.23 -6.52,11.238 -6.52,19.699 0,14.266 5.8,22.965 15.34,22.965 7.37,0 10.88,-3.625 12.45,-12.93 z m 26.35,18.594 0.36,16.555 h -8.33 l -0.37,-16.555 h -8.7 L 2335.44,409 h 8.7 l -0.72,-28.766 c -0.24,-5.558 -0.24,-6.89 -0.24,-9.187 0,-4.711 0.24,-6.164 1.32,-8.215 1.94,-3.375 6.29,-5.426 11.97,-5.426 3.26,0 6.52,0.606 10.02,1.93 l 0.13,7.48 c -2.66,-1.207 -5.92,-2.054 -8.34,-2.054 -4.23,0 -6.28,2.176 -6.28,6.648 v 2.781 l -0.12,1.45 0.12,4.351 0.48,29.008 h 13.65 l 0.12,6.871 z m 26.35,0 v -57.254 h 8.92 v 57.254 z m 4.58,24.406 c -3.62,0 -6.27,-2.656 -6.27,-6.273 0,-3.379 2.65,-6.035 6.15,-6.035 3.5,0 6.15,2.656 6.15,6.156 0,3.496 -2.53,6.152 -6.03,6.152 z m 43.74,-22.836 c -14.63,0 -25,-12.308 -25,-29.714 0,-18.25 10.01,-30.563 25,-30.563 14.75,0 25,12.313 25,30.078 0,17.891 -10.25,30.199 -25,30.199 z m 0,-7.234 c 9.79,0 16.32,-9.184 16.32,-22.965 0,-13.656 -6.53,-22.844 -16.32,-22.844 -9.91,0 -16.32,9.188 -16.32,23.207 0,13.418 6.65,22.602 16.32,22.602 z m 37.82,5.664 c 1.33,-5.301 1.33,-5.785 1.33,-19.441 v -37.813 h 8.45 v 32.012 c 0,5.437 0.84,9.184 2.53,12.207 2.66,4.473 7.38,7.129 12.58,7.129 4.71,0 8.1,-1.934 9.91,-5.438 1.33,-2.781 1.57,-4.836 1.57,-13.535 v -32.375 h 8.44 v 32.856 c 0,11.363 -0.24,12.933 -1.8,16.679 -2.54,5.914 -8.45,9.289 -16.43,9.289 -7.74,0 -13.42,-3.253 -17.29,-9.89 0,3.625 -0.36,5.918 -1.2,8.32 z m 94.13,23.32 v -80.574 h 9.04 v 34.434 h 14.03 l 20.3,-34.434 h 10.86 l -21.13,35.879 c 10.99,3.981 16.54,11.231 16.54,21.867 0,9.551 -4.95,17.282 -13.04,20.293 -5.31,2.055 -9.91,2.535 -22.36,2.535 z m 9.04,-38.3 v 30.461 h 5.44 c 11.49,0 14.15,-0.243 18.01,-1.934 4.72,-2.055 7.62,-6.891 7.62,-12.934 0,-6.769 -3.38,-11.968 -9.07,-14.023 -3.74,-1.328 -6.52,-1.57 -16.32,-1.57 z m 99.82,-15.09 c 0.12,1.086 0.12,2.051 0.12,2.41 0,17.766 -9.18,29.23 -23.2,29.23 -14.98,0 -24.65,-12.07 -24.65,-30.796 0,-18.133 9.67,-29.481 25.14,-29.481 10.63,0 17.76,5.066 21.26,14.973 l -7.85,0.968 c -3.26,-6.41 -6.89,-8.707 -13.29,-8.707 -10.51,0 -16.19,7.379 -16.56,21.403 z m -38.78,6.633 c 1.69,11.726 7,17.894 15.34,17.894 8.58,0 13.77,-6.289 14.74,-17.894 z m 91.09,7.742 c -0.6,11.238 -7.6,17.265 -19.81,17.265 -11.72,0 -19.68,-6.507 -19.68,-16.175 0,-7.981 4.22,-12.332 15.33,-15.715 9.67,-3.02 10.52,-3.262 12.57,-4.473 2.54,-1.57 3.87,-3.867 3.87,-6.765 0,-6.286 -4.59,-10.036 -12.21,-10.036 -8.34,0 -12.57,3.871 -13.29,12.09 h -8.21 c 0,-12.449 7.6,-19.203 21.62,-19.203 12.82,0 20.78,6.875 20.78,17.871 0,3.867 -1.21,7.375 -3.26,9.91 -2.41,2.782 -5.91,4.473 -15.34,7.254 -10.88,3.262 -13.3,4.953 -13.3,9.668 0,5.078 4.47,8.582 11,8.582 7.13,0 10.88,-3.261 11.73,-10.273 z m 59.33,-14.375 c 0.12,1.086 0.12,2.051 0.12,2.41 0,17.766 -9.18,29.23 -23.2,29.23 -14.98,0 -24.64,-12.07 -24.64,-30.796 0,-18.133 9.66,-29.481 25.13,-29.481 10.63,0 17.76,5.066 21.26,14.973 l -7.85,0.968 c -3.26,-6.41 -6.89,-8.707 -13.29,-8.707 -10.51,0 -16.19,7.379 -16.56,21.403 z m -38.78,6.633 c 1.69,11.726 7,17.894 15.34,17.894 8.58,0 13.78,-6.289 14.74,-17.894 z m 60.28,8.468 c 1.21,6.407 5.08,9.305 12.69,9.305 8.71,0 11.73,-3.141 11.73,-11.844 v -2.418 c -10.64,-1.812 -15.96,-3.019 -21.52,-5.074 -8.57,-3.266 -13.28,-9.308 -13.28,-17.285 0,-9.91 7.24,-16.422 18.48,-16.422 7.98,0 13.42,3.016 16.8,9.172 0.37,-3.746 0.49,-5.07 1.33,-7.723 h 8.08 c -1.33,3.977 -1.57,5.785 -1.57,15.094 v 21.516 c 0,7.129 -0.24,9.91 -1.32,12.808 -2.17,6.035 -8.93,9.41 -18.36,9.41 -12.82,0 -20.18,-5.668 -21.39,-16.539 z m 24.42,-16.922 c 0,-5.921 -0.72,-9.91 -2.17,-12.57 -2.42,-4.594 -7.14,-7.133 -12.82,-7.133 -6.53,0 -11.12,4.114 -11.12,10.036 0,7.855 7.01,11.964 26.11,15.347 z m 25.13,31.891 c 0.85,-5.543 0.97,-6.633 0.97,-19.683 v -37.571 h 8.56 v 25.606 c 0,7.613 0.73,12.449 2.54,16.437 2.54,5.563 6.52,8.824 11,8.824 2.29,0 3.74,-0.484 7.61,-2.296 v 8.445 c -2.54,1.328 -4.59,1.808 -6.89,1.808 -6.16,0 -10.75,-4.218 -14.74,-13.878 0.12,1.57 0.12,2.781 0.12,3.503 0,2.661 -0.36,5.922 -1.08,8.805 z m 82.26,-18.594 c -1.21,13.172 -8.46,20.164 -20.54,20.164 -14.86,0 -24.27,-11.707 -24.27,-30.32 0,-18.129 9.53,-29.957 24.27,-29.957 12.56,0 19.93,7.356 21.02,21.137 h -8.46 c -0.96,-9.672 -4.83,-13.903 -12.56,-13.903 -3.87,0 -7.01,1.09 -9.06,3.145 -4.23,4.23 -6.53,11.238 -6.53,19.699 0,14.266 5.8,22.965 15.35,22.965 7.37,0 10.87,-3.625 12.44,-12.93 z m 14.28,42.278 v -80.938 h 8.44 v 31.528 c 0,5.558 0.73,9.668 2.42,12.691 2.54,4.473 7.13,7.129 12.21,7.129 4.6,0 7.98,-1.934 9.92,-5.438 1.45,-2.66 1.81,-5.199 1.81,-13.535 v -32.375 h 8.44 v 32.856 c 0,11.363 -0.48,14.625 -2.53,18.132 -2.9,4.942 -8.81,7.836 -15.82,7.836 -7.14,0 -12.09,-2.531 -16.45,-8.32 v 30.434 h -8.44"
         style="fill:#125e9d;fill-opacity:1;fill-rule:nonzero;stroke:none"
         id="path1212" />
    </g>
  </g>
</svg>
