<?xml version="1.0" encoding="utf-8"?>
<!-- Generator: Adobe Illustrator 21.1.0, SVG Export Plug-In . SVG Version: 6.00 Build 0)  -->
<svg version="1.1" id="Calque_1" xmlns="http://www.w3.org/2000/svg" xmlns:xlink="http://www.w3.org/1999/xlink" x="0px" y="0px"
	 viewBox="0 0 1096.8 285.9" style="enable-background:new 0 0 1096.8 285.9;" xml:space="preserve">
<style type="text/css">
	.st0{fill:#5391C9;}
	.st1{font-family:'Arial-BoldMT';}
	.st2{font-size:48px;}
	.st3{fill:none;stroke:#5391C9;stroke-width:2;stroke-miterlimit:10;}
</style>
<g>
	<path class="st0" d="M225.2,155.8h-0.1l-6,32.6H211l-7.7-39.8h6.5l5.3,30.7h0.1l5.7-30.7h8.5l5.6,30.7h0.1l5.5-30.7h6.3l-7.8,39.8
		h-8.3L225.2,155.8z"/>
	<path class="st0" d="M258.5,158.6c5.7,0,12.3,3.1,12.3,15.1c0,12.3-6.6,15.2-12.3,15.2c-5.7,0-12.3-2.8-12.3-15.2
		C246.2,161.7,252.8,158.6,258.5,158.6z M258.5,183.8c4.3,0,5.3-5.2,5.3-10.1c0-4.9-1-10.1-5.3-10.1c-4.3,0-5.4,5.2-5.4,10.1
		C253.2,178.6,254.2,183.8,258.5,183.8z"/>
	<path class="st0" d="M275,163.9c0-1.8-0.1-3.5-0.2-4.8h6.1c0.1,1.8,0.2,3.6,0.2,5.4h0.1c0.8-2.3,2.9-5.8,7.1-5.8
		c0.4,0,0.8,0.1,1.1,0.2v6.6c-0.6-0.2-1.2-0.3-1.9-0.3c-2.8,0-5.8,1.8-5.8,7.2v16.1H275V163.9z"/>
	<path class="st0" d="M293.7,145.7h6.7v42.7h-6.7V145.7z"/>
	<path class="st0" d="M328.5,145.7v37.7c0,2.1,0.1,3.9,0.2,5h-6.3c-0.1-0.9-0.2-2.6-0.2-4.6H322c-1.1,2.5-3.1,5-7.4,5
		c-6.9,0-9.8-7-9.8-15.1c0-9.6,3.6-15.2,9.7-15.2c4,0,6.2,2.4,7.2,4.7h0.1v-17.6H328.5z M316.4,183.7c4,0,5.3-4.5,5.3-10
		c0-5.7-1.5-9.9-5.2-9.9c-3.7,0-5,3.8-5,9.7C311.5,180.3,312.5,183.7,316.4,183.7z"/>
	<path class="st0" d="M350.6,148.6h6.9v16.2h11.2v-16.2h6.9v39.8h-6.9v-17.5h-11.2v17.5h-6.9V148.6z"/>
	<path class="st0" d="M401.5,187c-1.4,0.6-4.3,1.9-8.4,1.9c-9,0-12.9-6.8-12.9-14.7c0-8.8,4.4-15.6,11.5-15.6
		c6,0,11.2,3.7,11.2,15.7v1.4h-16.2c0,5,1.9,8,7.1,8c4.1,0,6.1-1.3,7.3-2.3L401.5,187z M396.4,171.2c0-5.2-1.6-7.8-4.7-7.8
		c-3.5,0-5,3.9-5,7.8H396.4z"/>
	<path class="st0" d="M409,160.8c1.9-0.9,4.6-2.2,8.8-2.2c8.7,0,10.7,4.4,10.7,11.8v12.8c0,2.1,0.2,4,0.4,5.2h-6.1
		c-0.3-1.1-0.4-2.6-0.4-4h-0.1c-1.7,2.4-3.8,4.4-7.8,4.4c-4.3,0-8.4-3.1-8.4-8.6c0-8,6.2-10,14.7-10h1.4v-1.1c0-2.9-1.4-5.6-5.2-5.6
		c-3.4,0-6.3,1.7-7.7,2.8L409,160.8z M422.2,174h-0.6c-5.8,0-9.2,1.3-9.2,5.5c0,2.7,1.7,4.5,4.3,4.5c4,0,5.5-3.1,5.5-8.4V174z"/>
	<path class="st0" d="M435.1,145.7h6.7v42.7h-6.7V145.7z"/>
	<path class="st0" d="M450.3,153l6.7-2.2v8.2h5.6v5.2H457v15.2c0,3.1,1.1,4,3,4c1.2,0,2.1-0.3,2.5-0.6v5c-1,0.5-2.5,1-4.5,1
		c-5,0-7.8-2.4-7.8-8.5v-16.1h-4.4v-5.2h4.4V153z"/>
	<path class="st0" d="M466.1,145.7h6.7v17.2h0.2c1.2-1.8,2.8-4.2,6.9-4.2c6.4,0,8.2,5,8.2,10.9v18.9h-6.7v-17.6
		c0-4.5-1.1-6.4-3.9-6.4c-3.5,0-4.8,3.1-4.8,6.9v17.1h-6.7V145.7z"/>
</g>
<g>
	<path class="st0" d="M218.1,198.9c7.9,0,15.1,6.2,15.1,20.5c0,14.3-7.2,20.5-15.1,20.5c-7.9,0-15.1-6.2-15.1-20.5
		C203,205,210.2,198.9,218.1,198.9z M218.1,234.2c4.4,0,7.9-3.9,7.9-14.9c0-10.9-3.5-14.9-7.9-14.9c-4.4,0-7.9,3.9-7.9,14.9
		C210.2,230.3,213.7,234.2,218.1,234.2z"/>
	<path class="st0" d="M237.7,214.7c0-1.8-0.1-3.5-0.2-4.8h6.1c0.1,1.8,0.2,3.6,0.2,5.4h0.1c0.8-2.3,2.9-5.8,7.1-5.8
		c0.4,0,0.8,0.1,1.1,0.2v6.6c-0.6-0.2-1.2-0.3-1.9-0.3c-2.8,0-5.8,1.8-5.8,7.2v16.1h-6.7V214.7z"/>
	<path class="st0" d="M256.3,243.8c1.6,0.9,4.7,2.5,8.2,2.5c6.3,0,7.4-4.6,7.4-9.2v-2.8h-0.1c-1.1,2.3-3,5-7.4,5
		c-3.9,0-9.8-2.7-9.8-14.6c0-8.1,2.8-15.2,10.1-15.2c4.1,0,6,2.5,7.4,5h0.2c0-1.5,0.2-3,0.2-4.6h6.1c-0.1,1.5-0.2,3.1-0.2,4.6v21.7
		c0,9.2-2.7,15.7-12.9,15.7c-4.4,0-8-1.2-9.6-1.8L256.3,243.8z M266.8,234c4.2,0,5.9-3.2,5.9-9.9c0-6.2-2.2-9.5-5.4-9.4
		c-3.5,0.1-4.9,3.5-4.9,9.5C262.4,231.1,264.5,234,266.8,234z"/>
	<path class="st0" d="M285.8,211.6c1.9-0.9,4.6-2.2,8.8-2.2c8.7,0,10.7,4.4,10.7,11.8V234c0,2.1,0.2,4,0.4,5.2h-6.1
		c-0.3-1.1-0.4-2.6-0.4-4h-0.1c-1.7,2.4-3.8,4.4-7.8,4.4c-4.3,0-8.4-3.1-8.4-8.6c0-8,6.2-10,14.7-10h1.4V220c0-2.9-1.4-5.6-5.2-5.6
		c-3.4,0-6.3,1.7-7.7,2.8L285.8,211.6z M299,224.8h-0.6c-5.8,0-9.2,1.3-9.2,5.5c0,2.7,1.7,4.5,4.3,4.5c4,0,5.5-3.1,5.5-8.4V224.8z"
		/>
	<path class="st0" d="M312.1,214.7c0-1.8-0.1-3.5-0.2-4.8h6.3c0.1,1.5,0.2,3,0.2,4.5h0.2h-0.1c1-1.8,2.9-5,7.4-5
		c6.3,0,8.2,5,8.2,10.9v18.9h-6.7v-17.6c0-4.5-1.1-6.4-3.9-6.4c-3.5,0-4.8,3.1-4.8,6.9v17.1h-6.7V214.7z"/>
	<path class="st0" d="M340.2,197.4h6.9v7h-6.9V197.4z M340.3,209.9h6.7v29.3h-6.7V209.9z"/>
	<path class="st0" d="M353.3,233.1l11.9-17.9h-11.6v-5.4H372v6l-11.7,17.9h12.1v5.4h-19V233.1z"/>
	<path class="st0" d="M378.8,211.6c1.9-0.9,4.6-2.2,8.8-2.2c8.7,0,10.7,4.4,10.7,11.8V234c0,2.1,0.2,4,0.4,5.2h-6.1
		c-0.3-1.1-0.4-2.6-0.4-4h-0.1c-1.7,2.4-3.8,4.4-7.8,4.4c-4.3,0-8.4-3.1-8.4-8.6c0-8,6.2-10,14.7-10h1.4V220c0-2.9-1.4-5.6-5.2-5.6
		c-3.4,0-6.3,1.7-7.6,2.8L378.8,211.6z M392,224.8h-0.6c-5.8,0-9.2,1.3-9.2,5.5c0,2.7,1.7,4.5,4.3,4.5c4,0,5.5-3.1,5.5-8.4V224.8z"
		/>
	<path class="st0" d="M406,203.8l6.7-2.2v8.2h5.6v5.2h-5.6v15.2c0,3.1,1.1,4,3,4c1.2,0,2.1-0.3,2.6-0.6v5c-1,0.5-2.5,1-4.5,1
		c-5,0-7.8-2.4-7.8-8.5V215h-4.4v-5.2h4.4V203.8z"/>
	<path class="st0" d="M423,197.4h6.9v7H423V197.4z M423.8,209.9h6.7v29.3h-6.7V209.9z"/>
	<path class="st0" d="M448,209.4c5.7,0,12.3,3.1,12.3,15.1c0,12.3-6.6,15.2-12.3,15.2c-5.7,0-12.3-2.8-12.3-15.2
		C435.7,212.5,442.3,209.4,448,209.4z M448,234.6c4.3,0,5.3-5.2,5.3-10.1c0-4.9-1-10.1-5.3-10.1c-4.3,0-5.4,5.2-5.4,10.1
		C442.7,229.4,443.7,234.6,448,234.6z"/>
	<path class="st0" d="M466.2,214.7c0-1.8-0.1-3.5-0.2-4.8h6.3c0.1,1.5,0.2,3,0.2,4.5h0.2h-0.1c1-1.8,2.9-5,7.4-5
		c6.3,0,8.2,5,8.2,10.9v18.9h-6.7v-17.6c0-4.5-1.1-6.4-3.9-6.4c-3.5,0-4.8,3.1-4.8,6.9v17.1h-6.7V214.7z"/>
</g>
<g>
	<path class="st0" d="M122.7,158.9c-2.6-1.1-5.3-1.8-8.2-2.2c0,0.3,0,0.5,0,0.7c2.7,0.4,5.3,1.1,7.8,2.1
		C122.4,159.4,122.6,159.1,122.7,158.9z M115.7,176l-1,0l-0.3,0.5h-0.2l0,1.6l1-0.5L115.7,176z M119.1,176.6l-0.3,0.2l-0.1-0.2
		l-0.9,1.6l0.8-0.1l0-0.6l0.6-0.6l0.5-0.4l-0.3-0.4L119.1,176.6z M120.3,175.8h0.7l0.1-0.3l-0.6-0.1l-0.2-0.4l-0.8,0.1l0.4,0.5v0.6
		L120.3,175.8z M114.3,199.2l0.1,0.4l0,0.2c1.6-0.8,1.8-1.2,1.8-1.5c-0.1-0.6-1-1.3-2.3-1.9c0,0.5,0,0.9,0,1.3l0.3,0.3
		c-0.1,0-0.2,0.1-0.3,0.1c0,0.3,0,0.6,0,0.8c0.2-0.1,0.3-0.1,0.5-0.2L114.3,199.2z M114.9,197.6L114.9,197.6
		C114.9,197.6,114.9,197.6,114.9,197.6L114.9,197.6z M86,190.7l0.4,1.1l-0.3,0.4l0.1,0.6l-0.2,0.9l-0.3,0.2l0.5,1.4l0.2-0.1
		l-0.2-1.2l0.4-2.1l-0.3-1.1L86,190.7z M86.5,195.5l-0.2,0.2l-0.2,0.2l-0.4-0.8l-0.2,0.2l0.2,0.7l0.2,0.4l-0.2,0.3l0.4,0.5l0.3,0.6
		l0.2-0.1l0.1-0.9l-0.2-0.5L86.5,195.5z M113.5,220.5C113.5,220.6,113.5,220.6,113.5,220.5C113.5,220.6,113.5,220.6,113.5,220.5
		C113.5,220.6,113.5,220.6,113.5,220.5z M105.2,178.4l0.1,0.3c-0.7,0.3-1.3,0.7-1.8,1.2c0,0.8,0.3,1.6,0.9,2.4
		c0.3,0.3,0.5,0.6,0.9,0.9l1.1-0.5l-0.1-4.5l-0.4,0l0.1-0.5l0.2-0.4l0-0.5L106,177l-0.5,0.7L105.2,178.4z M105.3,179.7l0-0.1
		c0,0,0,0,0.1,0L105.3,179.7z M84.9,164.2c0-0.3,0.1-0.6,0.2-0.9l-0.4-0.4c-0.3,0.1-0.6,0.1-1,0.1L84.9,164.2z M102.1,192.3
		c-0.2-0.1-0.4-0.2-0.6-0.3l0.1,0.6L102.1,192.3z M101.4,192.1c-0.1-0.1-0.3-0.1-0.4-0.2l-0.1,1L101.4,192.1z M139.2,192.9l-1.4,0.5
		l0.3,0.5l1,0.1L139.2,192.9z M159.3,167.8c-2.7-6.4-6.5-12.1-11.4-17c-4.9-4.9-10.6-8.8-17-11.4c-5-2.1-10.3-3.4-15.7-4
		c0,0.3-0.1,0.5-0.1,0.7c5.4,0.5,10.6,1.8,15.5,3.9c6.2,2.6,11.8,6.4,16.6,11.2l-6.1,6.1l0-0.4l-0.5,0.1l-0.6-0.3l-0.9-0.3l1.3-0.2
		l-0.3-0.4h-0.7l0.2-0.6l-0.6-1.5l-1.6-2l-1.6-1l-0.9-0.5l-0.7,0.2v-0.4l-1.5-0.7l-0.6,0.6c1.1,1.9,1.7,3.8,1.8,5.6
		c0.1,1.3,0,2.6-0.2,3.8l0.5-0.3l1.6,2.9l-1.1,0.1l0.8,0.8l-1.9,1.9l-1-1.2l0.1-0.9c-0.3,0.6-0.6,1.2-0.9,1.8l0.1,0.2l1.2,0.1
		l0.1,0.3l-0.6,0.6c-0.3-0.3-0.7-0.6-1-1c-0.1,0.2-0.3,0.4-0.4,0.6c0.3,0.3,0.6,0.6,0.9,0.9l-6.9,6.9c-0.6-0.6-1.2-1.1-1.8-1.6
		c-0.3,0.1-0.5,0.2-0.8,0.3c0.7,0.5,1.4,1.1,2,1.8l-0.9,0.9l0,0l0.1-0.5l-0.7,0.2l-0.7-0.1v-0.6l-0.8,0.5l-0.8,0.8l0.4,0.2l0.8-0.5
		l0.8,0.3v0.1l0.6-0.1l-1.9,1.9l-2.3,0.5l-0.6,0.8l-0.4,0.3l-0.1,0.4l0.3,0l0.3,0.3l-0.1,0.5l-0.2,0.2l-0.6-0.1l-1.3,0.2
		c-0.3-0.2-0.5-0.4-0.8-0.6l-0.1-0.1l-0.4-0.2c-0.5-0.3-0.9-0.5-1.4-0.7l0,2.8c0,0.9,0,1.7,0,2.5l0.3-0.2l0.3,0.3l-0.6,0.6
		c0,0.4,0,0.7,0,1.1l1.1-1.1l-0.2,0.8l0.3,0.1l0.2,1.2l0.6,0.6l-1.5-0.8l-0.1,0.6c1.9,0.8,4.6,2,6.7,3.6c3.2,2.4,4.9,5.8,4.5,9
		c-0.3,2.3-1.7,4.3-3.9,5.8l0.1,0.2l-0.4,0.5l-0.8,0.1l-0.3,0.5l-1.5,0.6l-1.4,0l-0.4,0.6l0.2,0.4l0,0c-0.2,0.1-0.4,0.1-0.6,0.2
		l-1,0.1l-0.2-0.4l-1.1,0.1l0,0c-0.2,0.1-0.4,0.1-0.6,0.2l0,0.8c0,0.2,0,2-0.1,4.5c3.5,1.8,7.9,4.7,7.7,12.3c0,0-0.1,1.4-0.5,2.4
		l0,0l1.5,0.4c-3,0.9-6.1,1.5-9.2,1.7c0,0.3,0,0.5,0,0.7c3.3-0.2,6.6-0.8,9.8-1.8l0.7,0.2l0.7,0.6l0.8-0.3l1.3-0.3l0.5-0.5l1.5-0.6
		l1.5-1l1.7-1.7l0.1-0.2c3-1.8,5.8-3.9,8.3-6.3l6.9,6.9c-4.7,4.6-10.2,8.3-16.3,10.9c-6.5,2.7-13.4,4.1-20.5,4.1
		c-7.1,0-14-1.4-20.5-4.1c-6.1-2.6-11.6-6.2-16.3-10.9l6.9-6.9c3.8,3.7,8.3,6.7,13.2,8.8c4.4,1.9,9.1,3,13.9,3.3c0-0.2,0-0.5,0-0.7
		c-10-0.7-19.3-4.8-26.5-11.8l1.5-1.5l1.3,1.1l2.6-0.2l1.1-1.1l1.4,0.1l1.3,0.2l0.7-0.5l-0.1-0.6l-0.7-0.9l-0.9-1.8l-0.9-0.4
		l-0.6-1.1l0.3-0.3c5.3,5.1,12,8.2,19.2,8.9c0-0.3,0-0.5,0-0.8c-7-0.7-13.6-3.7-18.7-8.7l6.9-6.9c1.8,1.7,4,3.2,6.3,4.2
		c0.1-0.2,0.1-0.5,0.2-0.7c-2.2-1-4.2-2.3-6-4l7-7c1.1,1,2.4,1.8,3.8,2.2l0-0.8c-1.2-0.5-2.3-1.1-3.3-2l0.5-0.5l0.2,0l0.4-0.4
		l0.9,0.1l0.5-0.3l0.6-0.1l0-1.2l-2.1-0.7l-0.1,0.1l-0.9,0.2l-0.6,0.9l-0.3,1.1l0,0.1c-0.9-1-1.6-2.1-2-3.3l0.1-0.3
		c-0.6-0.3-1.2-0.6-1.8-0.9l-0.5,0.2l-0.5-0.3L97,191l-0.4-0.4l0.5-0.5l0.6-0.1c-2.2-1.6-3.5-3.7-4.2-6.5c-0.4-1.7-0.5-3.3-0.4-4.8
		l-1,0.4l-0.6,0.1c0.6-1.3,1.4-2.5,2.3-3.6c0.3-0.9,0.7-1.7,1.2-2.5c0,0,0,0-0.1,0.1l-6.9-6.9c4.8-4.8,11-7.8,17.6-8.8
		c0-0.2,0-0.5,0-0.7c-6.8,1-13.1,4.1-18.1,9l-1.7-1.7c0,0,0,0,0,0c-0.1,0.3-0.2,0.5-0.3,0.7l1.5,1.5c-5.8,6-9,13.9-9,22.2H68
		c0-11,4.3-21.4,11.9-29.3l2.7,2.7c0.2,0,0.4,0,0.6,0c0.1,0,0.3,0,0.4-0.1l-3.2-3.2c2.2-2.1,4.5-4,7-5.6c0.1-0.4,0.3-0.8,0.6-1.2
		c-2.9,1.8-5.7,3.9-8.1,6.3l-6.9-6.9c4.8-4.8,10.4-8.5,16.6-11.2c4.9-2.1,10.1-3.4,15.4-3.9l-0.1-0.7c-5.4,0.5-10.6,1.8-15.6,3.9
		c-6.4,2.7-12.1,6.5-17,11.4c-4.9,4.9-8.8,10.6-11.4,17c-2.8,6.6-4.2,13.6-4.2,20.8c0,7.2,1.4,14.2,4.2,20.8
		c2.7,6.4,6.5,12.1,11.4,17c4.9,4.9,10.6,8.8,17,11.4c6.6,2.8,13.6,4.2,20.8,4.2c7.2,0,14.2-1.4,20.8-4.2c6.4-2.7,12.1-6.5,17-11.4
		c4.9-4.9,8.8-10.6,11.4-17c2.8-6.6,4.2-13.6,4.2-20.8C163.5,181.4,162.1,174.4,159.3,167.8z M80.2,218.2c-0.7-0.7-1.4-1.5-2.1-2.3
		l0.6,0.3l0.6-0.4l1.8,1.1l0.3,0.1L80.2,218.2z M81.4,194.7l-1.1,0.3l-0.5-0.5l-0.3-0.2l-0.3-0.4c-0.3-1.5-0.4-3.1-0.4-4.7h4.2
		l-0.1,0.2l-0.6,1l-0.4,0.1l-0.7,2.2l0.6,1L81.4,194.7z M84.5,208.7l-0.1-0.3l0.5,0.1c0.1,0.1,0.2,0.3,0.3,0.4L84.5,208.7z
		 M87.1,211.4l-0.4-0.8c0.2,0.2,0.4,0.4,0.6,0.6L87.1,211.4z M87.8,210.7c-0.6-0.6-1.2-1.3-1.8-1.9l0,0l0.3-1.1l-0.1-1.3l-1-1.8
		v-1.8l-0.4-1.2l0.3-0.5l-1.1-1.9l0.1-0.7l-0.6-1.1l-0.6-0.2l1-0.2l-0.3-0.4l-0.6-1.4L82,195l0.3-0.9l-0.4-1.4l0.5-1.2l1.3-0.1
		l0.4-0.6l-0.1-1.5h0.8l0.5,0.2l0.6,0.3l0-0.5h2.6c0,0.7,0.1,1.3,0.2,2l0,0l-0.6-0.1l-0.9,1l0.7,0.2l0.8-0.5c0.7,4.6,2.8,8.7,6,11.9
		L87.8,210.7z M84.9,187.7l0.3-1.8l1.4-0.7l1.7,0.4l0.4,0.6c-0.1,0.7-0.1,1.5-0.1,2.2h-2.6l0-0.2L84.9,187.7z M92.3,193.1l1,0.4
		l0.7,0.9l0.3-0.2l1.2,0.7l0.4,0.5l-0.8-0.3l-0.2,0.3l0.7,0.4l0.7,0.6V196l-0.2-0.6l0.3-0.5l0.4-0.2l-0.7-0.9l0.9,0.4l0.5,0.7l0.4,1
		l0.7,0.2l-1.6,0.3l0.6,1.3l0.5,0.1l0.1-0.5l-0.2-0.6l0.7-0.1l0.5-0.9l0.2-1.3l0.4-0.2l0.3-0.5c0.5,1,1.2,2,1.9,2.8l-7,7
		c-3.1-3.1-5.1-7.2-5.8-11.7l0.4,0l1.3,1.3L92.3,193.1z M91,180.3c0.1-0.1,0.1-0.3,0.2-0.4l0.2,0l-0.2,0.4L91,180.3z M87.5,166.8
		l6.9,6.9c-1.6,1.7-2.9,3.6-3.9,5.8l-0.4-0.1l0.3-0.4l-0.8,0.7l-0.6,0.4l-0.2-0.3l-1.1,0.4l0.1,0.4l0.6-0.4l1-0.1l0.9-0.2
		c0,0.1-0.1,0.2-0.1,0.3l-1.2,0.8l-0.3-0.3l-1.4,1l-1.2-0.2l-0.8,1l-1.2,2.7l0.2,0.7l-1,1.3l-0.2,1l0,0.1h-4.4
		C78.7,180.3,81.8,172.6,87.5,166.8z M78,189.2c0,1.5,0.2,3,0.4,4.5l-0.5-0.3v0.7l-0.4-0.2l-0.3-0.5l-0.7,0.3l-0.1,0.6l-1.7,2.6
		l-0.5,0.1l-0.2,4.4l-1.2,0.6l-0.4-0.2l-0.6,0.3l-1.4-0.1l-0.1-0.1c-1.4-4.1-2.1-8.3-2.2-12.7H78z M61.6,168.1
		c2.6-6.1,6.2-11.6,10.9-16.3l6.9,6.9c-3.7,3.8-6.7,8.3-8.8,13.2c-2.2,5.3-3.4,10.8-3.4,16.6h-9.8C57.5,181.4,58.9,174.6,61.6,168.1
		z M61.6,209.1c-2.7-6.3-4-13-4.1-19.8h9.8c0.1,4.3,0.8,8.6,2.1,12.6l-0.7,0.5l-1.9-1.1l-0.4,0.4l-0.5-0.3l-0.3,0.3l0.2,0.7
		l-1.1-0.1l-0.6-0.4l0.1-0.6l-0.2-0.5h-0.3l0.1,0.5l-0.1,0.3l-0.3-0.1l-0.8,0.4l0.5,0.4l-0.7-0.2l-0.3,0.4l0.4,0.2h-0.5v0.8l0.2,0.4
		l0.3,0.2h-0.4l0.2,0.7l0.4,0.2l0.2,0.3l0.3,0.5l0.2,0.4l-1-0.6l0.4,1l-0.6-1.4v0.9l0.6,1.4l0.5,1.2l1.5,2.9l-0.2-0.6l-1.2-2.8v-1.1
		l0.6-1l1.9,2.3l0.3-0.2l-0.3-1.4l0.4,0.3l0.6,1l1,0.3l0.4,0.6l0.4,0.1l-0.3-0.8l0.3-0.4l0.3,1.1l0.7,1.1l0.6-0.1l1.7,2.9l1,0.3
		l0.3-1.2l0.4,0.5l1.4,2.1l1.8,0.5c1,1.3,2.1,2.5,3.2,3.7l-6.9,6.9C68,220.9,64.3,215.3,61.6,209.1z M147.7,151.8
		c4.6,4.7,8.3,10.2,10.9,16.3c2.7,6.5,4.1,13.3,4.1,20.4H153c0-5.8-1.1-11.3-3.4-16.6c-0.2-0.5-0.4-1-0.7-1.5l0.3-0.5l0.6,0.4
		l0.2-0.6l-3.3-5.3l-0.7-0.2l-4.8-5.6l0-0.1L147.7,151.8z M133.3,166.2l0.9,0.9l0.4-1.4l-0.7-0.1v-0.1l2.2-2.2l1.4,1.5l1.4-0.1
		l0.5,0.8l0.2,1.2l2.7,1.6l0.8-0.1l1.8,2.1l0.4,1.1l1.3,1.3l1.5-0.1l0.6-1.4c2.4,5.3,3.7,11.2,3.7,17.2h-9.9c0-1.9-0.2-3.7-0.5-5.6
		l0.5-0.7h0.2l0.5-2.3l-0.4-0.1l0.1-0.4l-1,0l-0.2-0.2l-0.2,0.4l0.6,0.5l-0.4,0.1l-0.2,0.4c-0.2-1-0.5-1.9-0.8-2.8l0.6-0.8l-0.1-1
		l-0.5-0.1l-0.2-1.1l0.3-0.2l-0.5-0.7L139,174l-0.3-0.2c-0.2-0.4-0.4-0.8-0.6-1.2h1l-0.2-0.5l0.6-0.2v-0.5l-0.4,0l-0.6,0.5l-0.2-0.2
		l0.5-0.8l-0.4-0.3l-0.5,0.8l-0.7-0.3c-0.5-0.8-1.1-1.6-1.7-2.3l0-0.2l-0.1,0.1C134.7,167.8,134,167,133.3,166.2L133.3,166.2z
		 M135.7,185.5l1.4-0.9l1.7-0.1l0.4-0.9l0.5-0.3l0.7-1.3l0.2-0.7c0.1,0.2,0.1,0.5,0.2,0.7l-0.3,0.8l0.1,0.2l-0.4,0.8l0,0.4l-0.8,1.1
		l0.1,0.7l0.3,0l0.8-1.2V184l0.4-0.1l0-0.1c0.2,1.5,0.3,3.1,0.4,4.6h-7.5l-0.2-0.1l0-0.6l0.6-0.2l0.5-0.7l1.2-0.1v-0.5L135.7,185.5z
		 M137.7,171.8l0,0.1c0-0.1-0.1-0.1-0.1-0.2L137.7,171.8z M132.8,166.8c0.7,0.8,1.4,1.6,2.1,2.4l-0.4,0.2l-0.4,0.1l0.7,0.2l0.3-0.3
		c0.3,0.4,0.6,0.8,0.9,1.2h-0.3v0.2l0.3,0.1l1,1.6l0.3,0.1c0.1,0.2,0.2,0.4,0.4,0.6v0.7l-0.7,0.7l-0.2-0.5l-0.6-0.1l0.2,0.6
		l-0.4,0.4l1.1,0.4l0.4,0.6l0.9,0.2l0.1,0.4l0.8,0.2l0.1,1.2l0.5-0.1c0.3,0.8,0.5,1.6,0.7,2.4l0,0l-0.5,0.8l-0.7,0.3l-0.5,1.4
		l-1.3,0.7l-0.4-0.8l0.4-1.9l0.6-0.4l-2-1.5l-1,0.5l-0.9,1.9l-1-0.5l-0.3-0.8l0.5-0.2l0.2,0.3l0.4-0.1l-0.1-0.6l-0.6-0.2l0,0.4h-0.4
		l-0.5-0.7l-1.1-1.1l-1.3-0.9l-1.2-0.1l-0.1,0.2c-0.8-1.3-1.7-2.5-2.8-3.6L132.8,166.8z M124.7,174.8l0.6-0.6
		c0.2,0.2,0.4,0.4,0.6,0.7l-0.6,0.5l-0.5,0l-0.2-0.2l0.4-0.3L124.7,174.8z M124.8,179.5l0.8-0.3l-0.9-0.6l0.5-0.6l-0.1-0.3l0.9-0.4
		l-0.8-1l-1,0.9l-0.1,0.6l-0.6-0.3l-0.7,0.1l-0.2-0.4l0,0l1.6-1.6l0.1,0.2l1.4,0l0.5-0.6c0.7,0.8,1.3,1.6,1.8,2.5l0,0l-0.7,1.5
		l-1.1-0.6l-0.3,0l0.3,0.6l0.3,0.2l-0.3,0.8l-0.1-0.4L124.8,179.5z M131,207.4l-1.6,1.3l-0.2,0.2l-0.1-0.2h-0.8l-1.1,0.2l-1.1-0.4
		h-0.5l-0.8-0.6l-0.5,0.1l-0.5-0.4l-0.8-0.1l-0.4-0.5l-0.3-0.1c0,0,0,0,0.1,0l0.5,0.1v-0.2l1.1,0.2l0.4,0.2l1.2,0.2l0.1,0.3h1
		l1.3,0.4l0.4,0.6l0.8,0l0.6-0.6l0.5-1l0.7-1.9l-0.1-0.3l0.3-0.3l0.3-1.2l-0.2-0.5l0.2-0.4l-0.3-0.4l-0.1-1.2l-0.8,0.2l-0.5,0.7
		l-0.7,0l0.1,0.9l-0.6,0.7l-0.5-0.2l-0.4,0.4l-1.1,0.1l0,0c0.2-0.3,0.5-0.6,0.7-0.8h0.5l0.6-0.1l0.5-0.6l0.1-0.5l0.5,0l1-1.5
		l0.8-1.8l2.2-1l0-0.6l-0.3-0.3l0.1-0.2l0.7,0.3l1.5,0.3l1.2-0.5l1.9-0.4l-0.5-1.4l-0.8-0.8l-1,0l-1.3-3.2l-0.2,0.1l-0.5-0.4
		l0.4-0.2l0-0.1h7.2c-0.2,8.1-3.4,15.7-9.1,21.5l-0.2-0.2l0.1-0.2l0.2-1.2l-0.2-1.9l-0.4-1.1l-0.3,0.3L131,207V207.4z M132.2,224.5
		L132.2,224.5l0.4-0.6l-0.3-0.9l1.3-1.1l-0.1-0.7l-0.9-0.5l0.9-1.8l1.1-1.8l-1.3-1.6l-0.4,0.1l-0.6-0.1l-0.5-1.2l-0.2,0.1l0.3-1.1
		l0.2-0.9c0.2-0.2,0.4-0.4,0.6-0.6l4.3,4.3l0,0l0,0l2.7,2.7C137.2,221,134.8,222.9,132.2,224.5z M139.1,217.4l0.1-0.4l0.5-0.4
		l-0.4-2.2l0.1-0.6l-0.5-0.9l-0.3-0.3l0.3,0l-0.4-0.5l-0.9,0v0.7l-0.3,0.3l0.2,0.6l-0.4,1.1l-0.3,0.2l0.1,0.2l-3.8-3.8
		c5.9-5.9,9.1-13.7,9.3-22h9.9c-0.2,10.9-4.5,21.2-12.2,29L139.1,217.4z M158.6,209.1c-2.6,6.2-6.4,11.8-11.2,16.6l-6.9-6.9
		c3.9-3.9,6.9-8.5,9.1-13.5c2.1-5.1,3.3-10.5,3.4-16h9.8C162.7,196.1,161.3,202.8,158.6,209.1z M118.2,226.3L118.2,226.3
		C118.3,226.3,118.3,226.2,118.2,226.3L118.2,226.3z M134.4,148.9l0.6,0.4l1.3,0.5l0.5,0.8h0.4l-0.1-0.9l-0.4-0.3l0.1-0.5l-0.8-0.4
		l-0.3,0.3l-0.4-0.2l0.2-0.5L134.4,148.9z M67.1,214l-0.1-0.5l-0.5-0.6l-0.3,0.1l0.6,0.7l-0.1,0.2l0.5,0.5l0.3,0.7l0.3-0.1l-0.3-0.6
		L67.1,214z M133,162.3c0,0.1-0.1,0.2-0.1,0.3l0.4,0.3l0.4-0.1L133,162.3z M141.5,173.1l0.3,0.1l-0.7-1.5l-0.4-0.1l0.4,0.6
		L141.5,173.1z M139.3,169.7l0.8,1.2l0.5,0.2l-0.8-1.4L139.3,169.7z M142.2,176.7l0.4,0.8l-0.1,0.3l0.4,1.3l0.3,0.1v-1.4l-0.4-0.5
		l-0.1-1.5l-0.7-1.8l-0.1,0.3l0.2,1L142.2,176.7z M130.6,176.6l0.2-0.5l-1.1,0l-0.5,0.3l0.5,0.2L130.6,176.6z M138.8,168.3l0.5,0.5
		l0.2,0l0.4,0.2l-0.1-0.3l-1-0.7l-0.6-0.6l0.3,0.9H138.8z M133.9,172.7l0.6,0.4l0.7-0.1l-0.5-0.1l-0.1-0.6v-0.4l-0.3-0.5l-0.4,0.1
		l-0.2-0.1l-0.6,0.5l0.9,0.5L133.9,172.7z M132.6,175.4l0.2,0.1l0.3-0.4l0.4-0.8l-0.2,0l-0.4,0.2l-0.2-1.1l-0.2,0.2l0.2,0.7
		l-0.2,0.5l-0.3-0.1l-0.4,0.3l0,0.7L132.6,175.4z M132.8,172.5v-0.6l-0.3,0.4l0.1,0.5L132.8,172.5z"/>
	<g>
		<g>
			<path class="st0" d="M92.9,263.4l3.9,0.4c0,0,5-11,17.6-11.5c8.1-0.3,15.1,3.7,23.7,4.3c10.3,0.7,17.4-1.4,23.3-7.1
				c-6.2,3.4-13.6,2-22.1,0c-5.5-1.3-11.2-1.8-15.4-1.8C104.2,248,92.9,263.4,92.9,263.4z"/>
			<path class="st0" d="M151.9,227.2c-1.8,1.8-4.3,4.2-6.7,9.3c-2.3,5-2.3,7-4.6,10.6c5.1-1.9,8.9,1.8,21.8-3
				c6-2.2,10.2-7.8,12.2-12.7c-4.6,4.1-8.3,6.2-13.8,7.1c-5.4,0.8-8.8,1.1-13.3,3.8c2.8-3,3.9-4.7,5.4-8.6c1.6-4.3,1.3-7.9,3.2-11.2
				C154.7,224.1,153.7,225.3,151.9,227.2z"/>
			<path class="st0" d="M158.3,220.8c-1.3,7-0.9,12.8-4.5,17.3c4.8-4,9.4-3.9,15.8-6.8c7.6-3.7,11.6-10.3,13.8-19.8
				c-1.7,4.2-6,8.2-10.8,11.2c-4.1,2.6-8.5,3.8-11.5,7.6c1.8-2.1,2.2-3.1,2.6-5.5c1.2-6.5-0.8-10.1,0.2-16.9
				C162.8,210.7,159.2,216.3,158.3,220.8z"/>
			<path class="st0" d="M165.6,200.3c-0.5,10.9,4,13.2,0.8,23.3c2.8-4.1,6.2-5.3,10.5-9.1c5.4-4.8,9.8-12,9.4-21.7
				c-1,2.7-4.2,7.9-7.8,11.6c-3.5,3.7-6.5,8.1-8,11.2c3.5-12.1-2.8-16.7-3.5-23.9C166.8,194.4,165.8,198.5,165.6,200.3z"/>
			<path class="st0" d="M167.7,187.9c-1-3.6-0.5-5.7-1.4-9.6c1.5,3.6,9.9,9.9,9,22c0.5-2.2,2.2-9,4.7-13.7c1.9-3.7,3.9-7.4,3.4-12.9
				c2.2,7.2,2.1,11.4,1.1,15c-1,3.6-3.4,6.4-5.5,9.3c-1.4,1.9-4.3,5.6-5.6,9C173.6,199.5,168.9,192.5,167.7,187.9z"/>
			<path class="st0" d="M165,171.7c-1.6-3-2.2-5.5-4.3-9.4c1.3,1.7,2.4,2.5,5.5,5.2c4.4,3.7,7.7,7.8,9.4,14.8
				c0.1-4.3,0.7-6.9,1.5-11.7c0.8-4.3,0.6-9.3-1.4-14.7c3.9,4.7,7.2,13.8,5.3,20c-1.5,5.9-4,8.8-4.8,13
				C173.7,180.6,167.2,175.8,165,171.7z"/>
			<path class="st0" d="M167.1,164c-1.9-1.6-6.8-4.6-9.1-7.3c-2.4-2.8-3.6-5.4-5.2-7.9c3.5,3.2,5.4,4.2,8.9,6.3
				c3.2,1.8,7.6,4.3,9.3,8.2c-1.1-2.9-1.6-6.8-1.9-10.1c-0.5-4.9-2.5-7.8-4-9.6c4.8,3.8,7.6,7,8.9,13.9c1.3,6.9-0.2,12.1,0.3,15.8
				C171.8,168.4,169,165.6,167.1,164z"/>
			<path class="st0" d="M167.9,156.8c-2.1-6.3-4.3-10.1-8.6-13.8c-5.6-4.7-11.6-7-14-8.1c4.6,3.3,4.4,6.2,10.5,11.9
				C160.6,151.4,164,151.8,167.9,156.8z"/>
		</g>
		<path class="st0" d="M127.4,263.4l-3.9,0.4c0,0-5-11-17.6-11.5c-8.1-0.3-15.1,3.7-23.7,4.3c-10.3,0.7-17.4-1.4-23.3-7.1
			c6.2,3.4,13.6,2,22.1,0c5.5-1.3,11.2-1.8,15.4-1.8C116,248,127.4,263.4,127.4,263.4z"/>
		<path class="st0" d="M68.4,227.2c1.8,1.8,4.3,4.2,6.7,9.3c2.3,5,2.3,7,4.6,10.6c-5.1-1.9-8.9,1.8-21.8-3
			c-6-2.2-10.2-7.8-12.2-12.7c4.6,4.1,8.3,6.2,13.8,7.1c5.4,0.8,8.8,1.1,13.3,3.8c-2.8-3-3.9-4.7-5.4-8.6c-1.6-4.3-1.3-7.9-3.2-11.2
			C65.5,224.1,66.6,225.3,68.4,227.2z"/>
		<path class="st0" d="M61.9,220.8c1.3,7,0.9,12.8,4.5,17.3c-4.8-4-9.4-3.9-15.8-6.8C43,227.6,39,221,36.9,211.5
			c1.7,4.2,6,8.2,10.8,11.2c4.1,2.6,8.5,3.8,11.5,7.6c-1.8-2.1-2.2-3.1-2.6-5.5c-1.2-6.5,0.8-10.1-0.2-16.9
			C57.5,210.7,61.1,216.3,61.9,220.8z"/>
		<path class="st0" d="M54.7,200.3c0.5,10.9-4,13.2-0.8,23.3c-2.8-4.1-6.2-5.3-10.5-9.1c-5.4-4.8-9.8-12-9.4-21.7
			c1,2.7,4.2,7.9,7.8,11.6c3.5,3.7,6.5,8.1,8,11.2c-3.5-12.1,2.8-16.7,3.5-23.9C53.5,194.4,54.5,198.5,54.7,200.3z"/>
		<path class="st0" d="M52.6,187.9c1-3.6,0.5-5.7,1.4-9.6c-1.5,3.6-9.9,9.9-9,22c-0.5-2.2-2.2-9-4.7-13.7c-1.9-3.7-3.9-7.4-3.4-12.9
			c-2.2,7.2-2.1,11.4-1.1,15c1,3.6,3.4,6.4,5.5,9.3c1.4,1.9,4.3,5.6,5.6,9C46.7,199.5,51.3,192.5,52.6,187.9z"/>
		<path class="st0" d="M54.5,172.8c2-3,2.9-6.7,5-10.5c-1.3,1.7-2.4,2.5-5.5,5.2c-4.4,3.7-7.7,7.8-9.4,14.8
			c-0.1-4.3-0.7-6.9-1.5-11.7c-0.8-4.3-0.6-9.3,1.4-14.7c-3.9,4.7-7.2,13.8-5.3,20c1.5,5.9,4,8.8,4.8,13
			C46.5,180.6,51.9,176.7,54.5,172.8z"/>
		<path class="st0" d="M53.2,164c1.9-1.6,6.8-4.6,9.1-7.3c2.4-2.8,3.6-5.4,5.2-7.9c-3.5,3.2-5.4,4.2-8.9,6.3
			c-3.2,1.8-7.6,4.3-9.3,8.2c1.1-2.9,1.6-6.8,1.9-10.1c0.5-4.9,2.5-7.8,4-9.6c-4.8,3.8-7.6,7-8.9,13.9c-1.3,6.9,0.2,12.1-0.3,15.8
			C48.5,168.4,51.3,165.6,53.2,164z"/>
		<path class="st0" d="M52.3,156.8c2.1-6.3,4.3-10.1,8.6-13.8c5.6-4.7,11.6-7,14-8.1c-4.6,3.3-4.4,6.2-10.5,11.9
			C59.6,151.4,56.3,151.8,52.3,156.8z"/>
	</g>
</g>
<g>
	<g>
		<path class="st0" d="M100.4,153c1.3-1.9,3.1-3.1,5-3.8c0-2.1-0.1-4.2-0.1-6c-3.5,0.8-5.1,2-5.8,2.3c-2,0.6-4.6,0.5-7.4,3.6
			c-0.5,0.6-1.7,2.1-2.6,3.4c-0.9,1.2-0.9,3.2-1.5,4.3c-0.9,1.5-0.7,2.4-0.7,2.4l0.1,0.2c-0.1,0.4-0.4,0.9-0.9,1.6
			c-0.9,1.1-2.2,1.6-3.7,1.4c1.3,0.6,3.1-0.3,3.1-0.3s-0.4,1.1-0.8,2.7c1.2-2.8,2.4-4.1,3-4.7c0.6,0.2,1.9,0.2,4.4-1.3
			C95.2,157.2,99.3,154.6,100.4,153z M95.4,151.7l-2.2,2.3l-1.1-0.2l0.2-1l2-1.9l1.6-0.1L95.4,151.7z M113.6,215.4
			c0,1.1-0.1,2.2-0.1,3.4c2.7,1.3,5.1,3.2,6.3,7.1C120,219.7,116.8,217.1,113.6,215.4z M132.4,155.6c-0.3-5.2-5.4-12.2-17.5-13.1
			c0,1.7-0.1,3.7-0.1,5.7c0.8,0.1,1.4,0.2,1.9,0.3c5.8,1.4,8.3,4.6,8.3,7.9c0,3.2-2.6,7-8.6,8.8c-0.6,0.2-1.2,0.3-2,0.5l0,0
			l-1.1,0.3c-1,0.2-2.3,0.5-3.1,0.7c-0.9,0.2-1.9,0.4-2.5,0.6l-1.8,0.4l0,0c-1.3,0.4-2.5,0.8-3.4,1.2c-6.4,3-8.8,8.3-7.4,14.2
			c0.9,3.5,2.9,6,8.2,7.9c1.1,0.4,2.2,0.7,3.3,1.1l-0.1-6.7c-1.4-0.6-2.5-1.2-3.2-2.2c-2.1-2.7-1.7-6.4,3.1-8.2l0,0l0.2-0.1
			c0.1,0,0.1-0.1,0.2-0.1c2.3-0.8,4.7-1.3,7.1-1.9l0.5-0.1v0c3.4-0.8,6.7-1.6,9.4-3C128.6,167.2,132.8,163.1,132.4,155.6z
			 M120.3,191.7c-2-1.5-4.4-2.6-6.3-3.3c0,2.7-0.1,4.8-0.1,6.4c2.2,1,3.8,2.1,3.9,3.5c0.1,1.4-1.5,2.5-4,3.6v0l-0.4,0.2
			c-0.6,0.2-1.3,0.5-2,0.7c-0.5,0.2-1.2,0.4-2.1,0.7c-0.8,0.3-1.6,0.6-2,0.8c-4.3,2.1-4.6,4.8-4.3,7.3c0.2,2.1,1.9,3.5,3.9,4.5
			c0-2.4-0.1-4.1,0-4.3c0.1-1.1,0.7-1.9,1.6-2.6c0.7-0.6,1.9-1.1,3.4-1.7c2-0.8,3.8-1.3,6.8-2.4
			C125.8,202.4,125.8,195.8,120.3,191.7z M107.3,165.8c1.7-0.5,3.9-0.7,5.5-1.3c0-2.1,0.6-26.7,0.7-28c0.2-3.6,3.7-13.5-3.4-13.5
			c-7,0-3.9,10.4-3.3,13.7C107,138.1,107.3,163.6,107.3,165.8z M112.3,200.7c0-0.2,0.3-25.1,0.4-25.9c-0.9,0.1-4.1,1-4.9,1.3
			c0,0.6,0.4,26.1,0.4,26.1s0.9-0.3,1.9-0.6C111,201.2,111.8,200.9,112.3,200.7z M108.4,211.9c-0.1,0.8,0.5,21.6,0.6,23.7
			c0.4,5.2,2,5.3,2.4,0.3c0.1-1.5,0.8-26,0.8-26.8C110,209.7,108.5,210.6,108.4,211.9z"/>
	</g>
</g>
<text transform="matrix(1 0 0 1 38.6644 80)" class="st0 st1 st2">International Agency for Research on Cancer</text>
<line class="st3" x1="34" y1="107" x2="1076.4" y2="107"/>
</svg>
