<svg id="Layer_1" data-name="Layer 1" xmlns="http://www.w3.org/2000/svg" viewBox="0 0 27 38.96"><defs><style>.cls-1{fill:#fff;}.cls-2{fill:#57068c;}</style></defs><title>nyu_color</title><rect class="cls-1" x="6.06" y="1.84" width="14.78" height="23.84"/><path class="cls-2" d="M319.67,404h-27V377h27v27Zm-14.43-3.15a.29.29,0,0,0,.53,0l.94-7.48h-2.29l.82,7.48Zm2.28-8v-1.13h-3.9v1.13Zm-1.12-1.69c4.94.18,5.29-4.32,5.31-6,0-.1,0-.11-.07,0a4.71,4.71,0,0,1-2.57,2.37,4.65,4.65,0,0,0-2.71,3.62A0,0,0,0,0,306.39,391.16Zm-.54-.33c.78-3.75,3.83-3.84,4.11-4.55a4.94,4.94,0,0,0-.55-3.31s0,0-.06,0a6.64,6.64,0,0,1-1.58,2.17c-.69.56-3.34,2.52-2,5.68A0,0,0,0,0,305.85,390.84Zm-.54.15c-1.66-3.53,1.65-5.82,2.19-6.31.08-.07.06-.13.06-.21a8.34,8.34,0,0,0-.84-3.17s-.06,0-.07,0a10.75,10.75,0,0,1-2.09,3.09c-2.56,3-2,4.88.7,6.63C305.29,391.05,305.33,391,305.31,391Zm-.74.12c-2.77-1.65-2.49-4-1.34-5.74a.26.26,0,0,0,0-.17,6.52,6.52,0,0,0-.68-1.74c0-.07-.09-.07-.09,0a9.42,9.42,0,0,1-1.37,3c-.87,1.45-.88,4.59,3.46,4.72C304.6,391.18,304.61,391.14,304.57,391.11Z" transform="translate(-292.67 -377.03)"/><path class="cls-2" d="M292.67,406.7h1.85l4.29,5.63V406.7h2v9.14h-1.71L294.66,410v5.81h-2Z" transform="translate(-292.67 -377.03)"/><path class="cls-2" d="M305.31,412.23l-3.51-5.54h2.35l2.18,3.67,2.22-3.67h2.29l-3.51,5.5v3.64h-2Z" transform="translate(-292.67 -377.03)"/><path class="cls-2" d="M311.7,411.92V406.7h2v5.17c0,1.49.74,2.26,2,2.26s2-.75,2-2.2V406.7h2v5.16c0,2.77-1.55,4.13-4,4.13S311.7,414.61,311.7,411.92Z" transform="translate(-292.67 -377.03)"/></svg>