<svg width="316px" height="86px" viewBox="0 0 316 86" version="1.1" xmlns="http://www.w3.org/2000/svg" xmlns:xlink="http://www.w3.org/1999/xlink">        <desc>Created with Sketch.</desc>    <defs>        <polygon id="path-1" points="8.94183345e-16 85.3570059 8.94183345e-16 0.29396845 34.8363986 0.29396845 69.6727971 0.29396845 69.6727971 85.3570059 0 85.3570059"></polygon>        <polygon id="path-3" points="0 86.2634086 315.212858 86.2634086 315.212858 0.816579029 0 0.816579029"></polygon>    </defs>    <g id="PICOWER-ABOUT" stroke="none" stroke-width="1" fill="none" fill-rule="evenodd">        <g id="About---Careers" transform="translate(-61.000000, -1283.000000)">            <g id="FOOTER" transform="translate(0.000000, 1234.000000)">                <g id="Picower-Logo" transform="translate(61.000000, 48.000000)">                    <g id="Group-3" transform="translate(0.000000, 0.522611)">                        <mask id="mask-2" fill="white">                            <use xlink:href="#path-1"></use>                        </mask>                        <g id="Clip-2"></g>                        <path d="M34.1222026,78.7533313 C31.9779752,77.9734983 28.32397,75.9990102 27.9418305,75.6862604 C27.5605075,75.3751438 27.1579545,75.3383978 26.7300889,75.2142778 C27.2298098,75.5433591 28.0790088,76.0831178 28.4244041,76.2978781 C28.5101406,76.5518342 28.5901612,76.6359418 28.5901612,76.6359418 C29.4736548,77.2720569 32.9047452,78.621862 34.1222026,78.7533313 M36.3627814,71.6654253 C41.3591742,72.0361522 45.2581406,69.869768 47.7314326,68.0953418 C41.7315152,71.7103371 35.6099339,71.3077637 34.0307504,71.03176 C34.3238873,71.5658027 35.1747194,71.5388556 36.3627814,71.6654253 M68.955691,33.9296752 C72.1426367,51.3187256 65.0787711,75.5694896 40.266647,78.5320384 C35.6164661,79.0848624 30.6755979,77.5701083 26.3814274,74.3976987 C25.8106677,73.9387813 25.720032,73.9142839 25.3460579,73.6791092 C24.8716496,73.3777915 24.9410553,73.341862 24.9802491,73.2536715 C24.9475876,73.056876 24.9043111,72.9776678 25.0039287,72.8257841 C24.8594016,72.5677451 24.7834636,72.2860254 24.9802491,72.2509125 C25.0308744,72.081064 24.9475876,71.600099 25.2480734,71.2522363 C25.0700682,70.9966471 25.2644041,70.742691 25.4685385,70.8431302 C25.6612413,70.7557563 25.7126832,70.7206434 25.7984196,70.7818868 C25.8702749,70.5605939 25.882523,70.3499165 26.0964558,70.3629818 C26.3177375,70.2682586 26.4851276,70.0306341 26.6549674,70.2355954 C26.8664506,70.1229075 27.1154946,69.4557624 27.4020992,69.5831488 C27.496001,69.2271203 27.778523,68.8114816 28.1141199,68.7788184 C28.4521664,68.7404392 29.0098615,68.1018744 29.2082801,68.149236 C29.3969003,68.1892484 33.1472568,70.5997897 37.8056031,70.1661862 C59.9705127,68.0953418 75.4324661,43.8282462 57.5829571,15.7722239 C54.4931793,10.9127621 44.3174894,1.46657594 44.3174894,1.37675224 L54.3625333,11.2173461 L46.9524558,2.07819363 C49.5523111,4.83251469 50.7452724,6.07616455 51.7030708,7.25285493 C57.0914016,13.8385648 61.4696755,19.1618435 65.4935721,30.0688896 C62.6708021,19.8232725 56.3450863,12.8300897 53.5361974,8.92439221 C51.4858718,6.04921745 47.3901199,1.82505413 46.3694481,0.29396845 C48.221355,2.59998763 52.0060062,6.58979276 53.8187194,8.45159295 C52.6584196,6.89437674 50.1728796,3.44922982 49.7188848,2.85394371 C49.9230191,3.07442004 54.8696031,8.55203217 56.4104093,10.1500773 C54.779784,8.06698423 50.5917633,2.89068976 49.5033189,1.64214043 C50.9722698,2.95846582 58.9228951,10.9454253 63.4808072,20.6970121 C61.9791948,16.004949 56.3246729,8.35768636 55.49997,7.19161151 C56.1033912,7.8848871 64.9742543,19.6036127 67.1446109,29.7953356 C65.5041871,19.5758491 57.5437633,9.4151562 57.330647,8.98726879 C59.6634946,11.4590535 62.6520217,16.6582122 63.5159183,18.2921868 C65.7026057,22.4338757 67.6835256,27.0491803 68.955691,33.9296752 M6.61223876,76.0373894 C6.63428527,76.74618 7.60841447,78.73455 8.34084858,79.5813424 C9.07328269,80.4330343 10.5618305,81.5639963 10.7120734,81.6415713 C10.4965075,81.5778781 10.3478977,81.504386 10.0220992,81.3222889 C10.3887245,81.6864831 10.735753,81.8930776 11.0354222,82.0245469 C10.899877,81.8522487 10.9080424,81.7648747 10.9080424,81.7648747 C10.9080424,81.7648747 11.1211587,81.8930776 11.3865333,82.0033158 C11.6592568,82.1119208 11.890337,82.2188927 12.010368,82.1119208 C12.1173344,82.0082153 12.0193499,81.9469719 11.7368279,81.7771234 C8.61928786,79.8802103 7.3912155,77.8689762 6.61223876,76.0373894 M30.9164765,53.1846087 C21.949262,54.3523167 12.7901612,58.7904238 8.91569096,66.3029508 C3.22769096,77.3537148 11.7098822,81.7812063 14.8151742,82.8590906 C15.933014,83.2477822 16.1069364,83.2477822 16.7511845,83.4078317 C17.0598357,83.482957 17.1521044,83.6838354 17.2582543,83.8267368 C17.4346264,83.9083947 17.2541716,84.0578286 17.1766005,84.1419363 C17.262337,84.2178781 17.2868331,84.2652397 17.4403421,84.3175008 C17.3358253,84.3591463 17.2974481,84.4244726 17.2133447,84.5567584 C17.1292413,84.6906774 16.9430708,84.8784906 16.7715979,84.9666811 C16.8589674,85.0377235 16.6817788,85.1381627 16.5446005,85.2018559 C16.5054067,85.265549 16.2702439,85.3202598 16.0824403,85.3039282 C15.8938202,85.2957624 15.1515876,85.2916796 14.3228021,85.2818806 C13.4899339,85.275348 11.4379752,84.9503495 10.463846,84.7004763 C11.1007452,84.9805629 11.9311638,85.2590164 12.393324,85.3570059 C12.1108021,85.3406743 9.75672455,85.203489 7.11277623,84.0031178 C1.69749974,81.5476647 -6.05225736,69.580699 7.77825426,57.8676895 C12.381076,53.9595422 20.2435152,51.5988122 25.8098512,50.7683514 C27.4894687,50.5160285 32.9398563,50.2710547 35.2351432,50.635249 C32.8475876,50.6083019 29.0359907,50.939833 28.3958253,51.0280235 C30.447784,50.9749459 36.2950088,50.9235014 37.7272155,51.0892669 C35.427846,51.3228085 30.6837633,51.5808475 30.045231,51.6371915 C32.1282181,51.5171543 35.9904403,51.6412744 38.3575824,51.5000062 C35.7716083,51.8584844 31.9583783,52.128772 30.7303059,52.2455428 C29.4867194,52.3663965 23.8093344,53.0457903 18.3507814,55.8605382 C21.2168279,54.6822147 25.7053344,52.9371853 30.3522491,52.5664584 C34.7705333,52.2104299 36.6044765,51.9793381 38.0979235,51.7809094 C36.2068227,52.2324776 33.6420786,52.5599258 33.1162284,52.6219858 C35.830399,52.4211073 38.130585,52.2226786 38.3061406,52.1802165 C35.5323628,52.6317847 31.8718253,53.0596721 30.9164765,53.1846087" id="Fill-1" fill="#22A7F0" mask="url(#mask-2)"></path>                    </g>                    <path d="M266.353379,62.6293251 L266.353379,58.371682 L255.023105,58.371682 L255.023105,52.4318862 L264.669679,52.4318862 L264.669679,48.1742431 L255.023105,48.1742431 L255.023105,42.4418583 L266.353379,42.4418583 L266.353379,38.1842153 L250.252076,38.1842153 L250.252076,62.6293251 L266.353379,62.6293251 Z M246.059157,42.4418583 L246.059157,38.1842153 L228.518299,38.1842153 L228.518299,42.4418583 L234.903622,42.4418583 L234.903622,62.6293251 L239.67465,62.6293251 L239.67465,42.4418583 L246.059157,42.4418583 Z M215.707642,62.835103 C220.720366,62.835103 224.700986,59.4373177 224.700986,54.2528574 L224.700986,38.1833987 L219.960986,38.1833987 L219.960986,54.0805592 C219.960986,56.8961237 218.283002,58.5782765 215.707642,58.5782765 C213.131467,58.5782765 211.485327,56.8961237 211.485327,54.0805592 L211.485327,38.1833987 L206.711849,38.1833987 L206.711849,54.2528574 C206.711849,59.4373177 210.691653,62.835103 215.707642,62.835103 L215.707642,62.835103 Z M202.896986,42.4418583 L202.896986,38.1842153 L185.356128,38.1842153 L185.356128,42.4418583 L191.741451,42.4418583 L191.741451,62.6293251 L196.51248,62.6293251 L196.51248,42.4418583 L202.896986,42.4418583 Z M176.702464,62.6285085 L181.473493,62.6285085 L181.473493,38.1833987 L176.702464,38.1833987 L176.702464,62.6285085 Z M172.509544,42.4418583 L172.509544,38.1842153 L154.96787,38.1842153 L154.96787,42.4418583 L161.353193,42.4418583 L161.353193,62.6293251 L166.124221,62.6293251 L166.124221,42.4418583 L172.509544,42.4418583 Z M142.914144,62.835103 C148.028934,62.835103 151.97526,60.1575404 151.97526,55.4189323 C151.97526,53.2541813 151.393885,51.4724058 150.089058,50.234472 C149.060221,49.2725419 147.652511,48.6552082 145.418464,48.3481745 L142.53772,47.9341689 C141.539911,47.7978002 140.751952,47.4189075 140.271012,46.9730554 C139.753327,46.4920903 139.549193,45.8396437 139.549193,45.2214933 C139.549193,43.5401571 140.786247,42.1323749 143.328128,42.1323749 C144.941606,42.1323749 146.793513,42.3389694 148.337586,43.8137111 L151.359591,40.826665 C149.265172,38.801549 146.827808,37.9768042 143.462857,37.9768042 C138.175777,37.9768042 134.949637,41.0316264 134.949637,45.3954247 C134.949637,47.4540204 135.531012,49.0332843 136.70111,50.1993591 C137.80017,51.2633616 139.344242,51.9158082 141.437027,52.2252917 L144.389627,52.6384807 C145.522981,52.8099623 146.070878,53.0500365 146.551818,53.4950721 C147.06787,53.9760371 147.308748,54.6970764 147.308748,55.5561175 C147.308748,57.5134575 145.798971,58.5782765 142.981916,58.5782765 C140.715208,58.5782765 138.624056,58.0621986 137.077534,56.5172311 L133.988573,59.6087993 C136.391642,62.0438379 139.20543,62.835103 142.914144,62.835103 L142.914144,62.835103 Z M130.172076,62.6293251 L130.172076,38.1842153 L125.401048,38.1842153 L125.401048,53.1521089 L115.719363,38.1842153 L111.460304,38.1842153 L111.460304,62.6293251 L116.231332,62.6293251 L116.231332,47.6263186 L125.91465,62.6293251 L130.172076,62.6293251 Z M101.537741,62.6285085 L106.308769,62.6285085 L106.308769,38.1833987 L101.537741,38.1833987 L101.537741,62.6285085 Z M305.978309,9.8636214 C308.072728,9.8636214 309.447777,11.2036276 309.447777,13.0915583 C309.447777,14.9786724 308.072728,16.3162289 305.978309,16.3162289 L301.479188,16.3162289 L301.479188,9.8636214 L305.978309,9.8636214 L305.978309,9.8636214 Z M315.212531,30.0527213 L309.756428,19.5123192 C312.121937,18.6532781 314.218805,16.5252731 314.218805,13.0915583 C314.218805,9.00621342 311.266206,5.60516177 306.28696,5.60516177 L296.708159,5.60516177 L296.708159,30.0527213 L301.479188,30.0527213 L301.479188,20.3019511 L304.911911,20.3019511 L309.687022,30.0527213 L315.212531,30.0527213 Z M291.90202,30.0519047 L291.90202,25.7942617 L280.569296,25.7942617 L280.569296,19.8552824 L290.219952,19.8552824 L290.219952,15.5976393 L280.569296,15.5976393 L280.569296,9.86280483 L291.90202,9.86280483 L291.90202,5.60679493 L275.798268,5.60679493 L275.798268,30.0519047 L291.90202,30.0519047 Z M272.429234,5.60679493 L267.449989,5.60679493 L263.640025,21.0229904 L259.178464,5.60679493 L255.606113,5.60679493 L251.142102,21.0229904 L247.365617,5.60679493 L242.389637,5.60679493 L248.912139,30.0519047 L252.893575,30.0519047 L257.39188,15.2187467 L261.889368,30.0519047 L265.872438,30.0519047 L272.429234,5.60679493 Z M234.214464,10.9627368 C235.143684,11.9916264 235.415591,13.125038 235.415591,17.8293498 C235.415591,22.532845 235.143684,23.6662567 234.214464,24.6951463 C233.529389,25.487228 232.463808,26.0008562 231.158164,26.0008562 C229.85742,26.0008562 228.754278,25.487228 228.069203,24.6951463 C227.144066,23.6662567 226.903188,22.532845 226.903188,17.8293498 C226.903188,13.125038 227.144066,11.9916264 228.069203,10.9627368 C228.754278,10.1706551 229.85742,9.65947665 231.158164,9.65947665 C232.463808,9.65947665 233.529389,10.1706551 234.214464,10.9627368 L234.214464,10.9627368 Z M237.751704,27.58012 C240.223363,25.1067021 240.189069,22.05188 240.189069,17.8293498 C240.189069,13.6060031 240.223363,10.5495478 237.751704,8.07776307 C236.03371,6.36131395 233.942557,5.40020043 231.158164,5.40020043 C228.377854,5.40020043 226.249958,6.36131395 224.533596,8.07776307 C222.060304,10.5495478 222.12726,13.6060031 222.12726,17.8293498 C222.12726,22.05188 222.060304,25.1067021 224.533596,27.58012 C226.249958,29.2965691 228.377854,30.2584992 231.158164,30.2584992 C233.942557,30.2584992 236.03371,29.2965691 237.751704,27.58012 L237.751704,27.58012 Z M209.526454,30.2584992 C214.062319,30.2584992 217.66325,27.6478961 218.522247,22.532845 L213.679363,22.532845 C213.200872,24.4885518 211.965451,26.0008562 209.563198,26.0008562 C208.255921,26.0008562 207.194423,25.5198911 206.506898,24.7302592 C205.580128,23.7013696 205.303322,22.532845 205.303322,17.8293498 C205.303322,13.125038 205.580128,11.9589632 206.506898,10.9284405 C207.194423,10.1404417 208.255921,9.65947665 209.563198,9.65947665 C211.965451,9.65947665 213.200872,11.1693313 213.679363,13.125038 L218.522247,13.125038 C217.66325,8.00835385 214.093348,5.40020043 209.526454,5.40020043 C206.85066,5.40020043 204.650909,6.36131395 202.93618,8.07776307 C200.465337,10.5495478 200.53311,13.6060031 200.53311,17.8293498 C200.53311,22.05188 200.465337,25.1067021 202.93618,27.58012 C204.650909,29.2965691 206.85066,30.2584992 209.526454,30.2584992 L209.526454,30.2584992 Z M191.091487,30.0527213 L195.862516,30.0527213 L195.862516,5.60679493 L191.091487,5.60679493 L191.091487,30.0527213 Z M178.450671,9.8636214 C180.612862,9.8636214 181.987911,11.2379239 181.987911,13.2287436 C181.987911,15.2195633 180.612862,16.5579363 178.450671,16.5579363 L173.98666,16.5579363 L173.98666,9.8636214 L178.450671,9.8636214 L178.450671,9.8636214 Z M178.689916,20.8523254 C183.736934,20.8523254 186.763022,17.3818645 186.763022,13.2287436 C186.763022,9.07398948 183.736934,5.60516177 178.689916,5.60516177 L169.215632,5.60516177 L169.215632,30.0527213 L173.98666,30.0527213 L173.98666,20.8523254 L178.689916,20.8523254 L178.689916,20.8523254 Z M155.962412,30.0519047 L155.962412,25.7942617 L144.632139,25.7942617 L144.632139,19.8552824 L154.278712,19.8552824 L154.278712,15.5976393 L144.632139,15.5976393 L144.632139,9.86280483 L155.962412,9.86280483 L155.962412,5.60679493 L139.86111,5.60679493 L139.86111,30.0519047 L155.962412,30.0519047 Z M134.707126,30.0519047 L134.707126,5.60679493 L129.932014,5.60679493 L129.932014,15.5976393 L121.65804,15.5976393 L121.65804,5.60679493 L116.887828,5.60679493 L116.887828,30.0519047 L121.65804,30.0519047 L121.65804,19.8201695 L129.932014,19.8201695 L129.932014,30.0519047 L134.707126,30.0519047 Z M106.309586,9.8636214 L106.309586,30.0527213 L101.538557,30.0527213 L101.538557,9.8636214 L95.1532341,9.8636214 L95.1532341,5.60516177 L112.694092,5.60516177 L112.694092,9.8636214 L106.309586,9.8636214 Z" id="Fill-4" fill="#000000"></path>                    <mask id="mask-4" fill="white">                        <use xlink:href="#path-3"></use>                    </mask>                    <g id="Clip-7"></g>                    <polygon id="Fill-6" fill="#000000" mask="url(#mask-4)" points="81.9019742 86.2634086 83.1496434 86.2634086 83.1496434 5.60744819 81.9019742 5.60744819"></polygon>                    <path d="M314.176264,74.8397946 L311.958548,74.8397946 L310.031519,79.0549756 L308.079178,74.8397946 L305.861463,74.8397946 L309.004315,81.0106823 L309.004315,85.3009886 L311.031778,85.3009886 L311.031778,81.0106823 L314.176264,74.8397946 Z M300.661752,76.6607659 C301.557494,76.6607659 302.144584,77.2340043 302.144584,78.0424176 C302.144584,78.8508308 301.557494,79.4216195 300.661752,79.4216195 L298.736357,79.4216195 L298.736357,76.6607659 L300.661752,76.6607659 L300.661752,76.6607659 Z M304.613793,85.3018051 L302.27768,80.790206 C303.291819,80.4219289 304.188377,79.5114432 304.188377,78.0424176 C304.188377,76.2949384 302.924377,74.8381615 300.794031,74.8381615 L296.694196,74.8381615 L296.694196,85.3018051 L298.736357,85.3018051 L298.736357,81.1274531 L300.205307,81.1274531 L302.249101,85.3018051 L304.613793,85.3018051 Z M291.317297,77.131932 C291.716584,77.572068 291.833349,78.057116 291.833349,80.0699833 C291.833349,82.0812174 291.716584,82.5678985 291.317297,83.0080346 C291.024977,83.3460984 290.568532,83.5665747 290.01247,83.5665747 C289.453959,83.5665747 288.981183,83.3460984 288.690496,83.0080346 C288.291209,82.5678985 288.189142,82.0812174 288.189142,80.0699833 C288.189142,78.057116 288.291209,77.572068 288.690496,77.131932 C288.981183,76.7946848 289.453959,76.5733919 290.01247,76.5733919 C290.568532,76.5733919 291.024977,76.7946848 291.317297,77.131932 L291.317297,77.131932 Z M292.831158,84.2418856 C293.891023,83.1844157 293.873059,81.8770727 293.873059,80.0699833 C293.873059,78.2612607 293.891023,76.9539177 292.831158,75.898081 C292.094641,75.1623433 291.198899,74.7507875 290.01247,74.7507875 C288.819509,74.7507875 287.910703,75.1623433 287.175003,75.898081 C286.11677,76.9539177 286.145349,78.2612607 286.145349,80.0699833 C286.145349,81.8770727 286.11677,83.1844157 287.175003,84.2418856 C287.910703,84.9768067 288.819509,85.3891791 290.01247,85.3891791 C291.198899,85.3891791 292.094641,84.9768067 292.831158,84.2418856 L292.831158,84.2418856 Z M283.325845,85.3018051 L283.325845,74.8381615 L281.317163,74.8381615 L278.598093,80.495421 L275.862693,74.8381615 L273.85401,74.8381615 L273.85401,85.3018051 L275.891271,85.3018051 L275.891271,79.2019598 L277.904853,83.1697173 L279.285618,83.1697173 L281.286134,79.2019598 L281.286134,85.3018051 L283.325845,85.3018051 Z M271.120243,85.3018051 L271.120243,83.4783842 L266.271643,83.4783842 L266.271643,80.9347405 L270.400057,80.9347405 L270.400057,79.1137693 L266.271643,79.1137693 L266.271643,76.6607659 L271.120243,76.6607659 L271.120243,74.8381615 L264.229483,74.8381615 L264.229483,85.3018051 L271.120243,85.3018051 Z M261.055602,85.3018051 L261.055602,74.8381615 L259.04447,74.8381615 L256.32785,80.495421 L253.59245,74.8381615 L251.581318,74.8381615 L251.581318,85.3018051 L253.621028,85.3018051 L253.621028,79.2019598 L255.636243,83.1697173 L257.015375,83.1697173 L259.015891,79.2019598 L259.015891,85.3018051 L261.055602,85.3018051 Z M242.206651,77.3074964 C242.592057,77.777846 242.648398,78.4368252 242.648398,80.0267046 C242.648398,81.6116845 242.592057,82.3604875 242.206651,82.8341033 C241.857173,83.2570912 241.384398,83.4783842 240.680543,83.4783842 L239.138103,83.4783842 L239.138103,76.6607659 L240.680543,76.6607659 C241.384398,76.6607659 241.857173,76.8820588 242.206651,77.3074964 L242.206651,77.3074964 Z M243.632326,84.3006792 C244.808956,83.1239889 244.693008,81.5978027 244.693008,80.0267046 C244.693008,78.4531568 244.808956,77.0127114 243.632326,75.8384708 C242.945618,75.1468283 241.957607,74.8397946 240.873245,74.8397946 L237.09431,74.8397946 L237.09431,85.3009886 L240.873245,85.3009886 C241.957607,85.3009886 242.945618,84.9923217 243.632326,84.3006792 L243.632326,84.3006792 Z M234.072305,85.3018051 L234.072305,74.8381615 L232.028512,74.8381615 L232.028512,81.2442239 L227.88785,74.8381615 L226.064522,74.8381615 L226.064522,85.3018051 L228.104233,85.3018051 L228.104233,78.8785945 L232.249793,85.3018051 L234.072305,85.3018051 Z M220.748047,81.7300885 L218.148191,81.7300885 L219.469349,77.9248302 L220.748047,81.7300885 Z M224.039509,85.300172 L220.220563,74.8397946 L218.618517,74.8397946 L214.811003,85.300172 L216.940532,85.300172 L217.574982,83.4489873 L221.290227,83.4489873 L221.90753,85.300172 L224.039509,85.300172 Z M208.085183,84.1986069 C208.816801,83.4334723 209.085442,82.5246199 209.085442,81.0106823 L209.085442,79.482863 L205.132584,79.482863 L205.132584,81.1862468 L207.05553,81.1862468 L207.05553,81.5814711 C207.05553,82.1277624 206.924884,82.5964788 206.586837,82.9786378 C206.249607,83.3452818 205.750703,83.5665747 205.132584,83.5665747 C204.574072,83.5665747 204.117628,83.3616134 203.823674,83.0219165 C203.426837,82.5817804 203.323953,82.0828506 203.323953,80.0699833 C203.323953,78.0587491 203.426837,77.5712515 203.823674,77.131932 C204.117628,76.7938682 204.574072,76.5733919 205.132584,76.5733919 C206.173669,76.5733919 206.775457,77.1156004 207.01307,78.0995781 L209.069111,78.0995781 C208.790672,76.3374006 207.556884,74.7524207 205.132584,74.7524207 C203.95677,74.7524207 203.043881,75.1615268 202.309814,75.898081 C201.254031,76.9555509 201.284243,78.2628939 201.284243,80.0699833 C201.284243,81.8787058 201.254031,83.1835991 202.309814,84.2418856 C203.043881,84.9759901 203.984532,85.3891791 205.132584,85.3891791 C206.249607,85.3891791 207.245783,85.0641806 208.085183,84.1986069 L208.085183,84.1986069 Z M198.681938,85.3018051 L198.681938,74.8381615 L196.642227,74.8381615 L196.642227,81.2442239 L192.496667,74.8381615 L190.674155,74.8381615 L190.674155,85.3018051 L192.717948,85.3018051 L192.717948,78.8785945 L196.863509,85.3018051 L198.681938,85.3018051 Z M185.532419,85.3018051 L187.576212,85.3018051 L187.576212,74.838978 L185.532419,74.838978 L185.532419,85.3018051 Z M182.436109,85.3018051 L182.436109,74.8381615 L180.393948,74.8381615 L180.393948,81.2442239 L176.250837,74.8381615 L174.429959,74.8381615 L174.429959,85.3018051 L176.468036,85.3018051 L176.468036,78.8785945 L180.61278,85.3018051 L182.436109,85.3018051 Z M168.053618,76.6607659 C168.950176,76.6607659 169.537266,77.2340043 169.537266,78.0424176 C169.537266,78.8508308 168.950176,79.4216195 168.053618,79.4216195 L166.127406,79.4216195 L166.127406,76.6607659 L168.053618,76.6607659 L168.053618,76.6607659 Z M172.006475,85.3018051 L169.670362,80.790206 C170.685318,80.4219289 171.581059,79.5114432 171.581059,78.0424176 C171.581059,76.2949384 170.317059,74.8381615 168.186713,74.8381615 L164.086879,74.8381615 L164.086879,85.3018051 L166.127406,85.3018051 L166.127406,81.1274531 L167.59799,81.1274531 L169.641783,85.3018051 L172.006475,85.3018051 Z M158.842258,81.7300885 L156.244036,81.7300885 L157.56601,77.9248302 L158.842258,81.7300885 Z M162.136171,85.300172 L158.312326,74.8397946 L156.710279,74.8397946 L152.907664,85.300172 L155.038827,85.300172 L155.669194,83.4489873 L159.388522,83.4489873 L160.004191,85.300172 L162.136171,85.300172 Z M151.323581,85.3018051 L151.323581,83.4783842 L146.474982,83.4783842 L146.474982,80.9347405 L150.600946,80.9347405 L150.600946,79.1137693 L146.474982,79.1137693 L146.474982,76.6607659 L151.323581,76.6607659 L151.323581,74.8381615 L144.431189,74.8381615 L144.431189,85.3018051 L151.323581,85.3018051 Z M142.040367,85.3018051 L142.040367,83.4783842 L137.292202,83.4783842 L137.292202,74.8381615 L135.252491,74.8381615 L135.252491,85.3018051 L142.040367,85.3018051 Z M124.807344,76.6607659 C125.703085,76.6607659 126.290176,77.2340043 126.290176,78.0424176 C126.290176,78.8508308 125.703085,79.4216195 124.807344,79.4216195 L122.881948,79.4216195 L122.881948,76.6607659 L124.807344,76.6607659 L124.807344,76.6607659 Z M128.759385,85.3018051 L126.424904,80.790206 C127.437411,80.4219289 128.333969,79.5114432 128.333969,78.0424176 C128.333969,76.2949384 127.071602,74.8381615 124.939623,74.8381615 L120.842238,74.8381615 L120.842238,85.3018051 L122.881948,85.3018051 L122.881948,81.1274531 L124.352532,81.1274531 L126.393876,85.3018051 L128.759385,85.3018051 Z M115.462072,77.131932 C115.861359,77.572068 115.978124,78.057116 115.978124,80.0699833 C115.978124,82.0812174 115.861359,82.5678985 115.462072,83.0080346 C115.169752,83.3460984 114.715757,83.5665747 114.157245,83.5665747 C113.598734,83.5665747 113.127592,83.3460984 112.835271,83.0080346 C112.438434,82.5678985 112.333917,82.0812174 112.333917,80.0699833 C112.333917,78.057116 112.438434,77.572068 112.835271,77.131932 C113.127592,76.7946848 113.598734,76.5733919 114.157245,76.5733919 C114.715757,76.5733919 115.169752,76.7946848 115.462072,77.131932 L115.462072,77.131932 Z M116.975933,84.2418856 C118.034165,83.1844157 118.019468,81.8770727 118.019468,80.0699833 C118.019468,78.2612607 118.034165,76.9539177 116.975933,75.898081 C116.241866,75.1623433 115.346124,74.7507875 114.157245,74.7507875 C112.964284,74.7507875 112.056295,75.1623433 111.321411,75.898081 C110.261545,76.9539177 110.292574,78.2612607 110.292574,80.0699833 C110.292574,81.8770727 110.261545,83.1844157 111.321411,84.2418856 C112.056295,84.9768067 112.964284,85.3891791 114.157245,85.3891791 C115.346124,85.3891791 116.241866,84.9768067 116.975933,84.2418856 L116.975933,84.2418856 Z M103.578186,76.6607659 L103.578186,79.2329898 L107.709049,79.2329898 L107.709049,81.053961 L103.578186,81.053961 L103.578186,85.3018051 L101.538475,85.3018051 L101.538475,74.8381615 L108.426786,74.8381615 L108.426786,76.6607659 L103.578186,76.6607659 Z" id="Fill-8" fill="#22A7F0" mask="url(#mask-4)"></path>                </g>            </g>        </g>    </g></svg>
