<?xml version="1.0" encoding="UTF-8" standalone="no"?>
<!-- Generator: Adobe Illustrator 19.2.1, SVG Export Plug-In . SVG Version: 6.00 Build 0)  -->

<svg
   xmlns:dc="http://purl.org/dc/elements/1.1/"
   xmlns:cc="http://creativecommons.org/ns#"
   xmlns:rdf="http://www.w3.org/1999/02/22-rdf-syntax-ns#"
   xmlns:svg="http://www.w3.org/2000/svg"
   xmlns="http://www.w3.org/2000/svg"
   xmlns:sodipodi="http://sodipodi.sourceforge.net/DTD/sodipodi-0.dtd"
   xmlns:inkscape="http://www.inkscape.org/namespaces/inkscape"
   version="1.1"
   id="layer"
   x="0px"
   y="0px"
   viewBox="0 0 576.09998 500"
   xml:space="preserve"
   sodipodi:docname="rbgv.svg"
   width="576.09998"
   height="500"
   inkscape:version="0.92.3 (2405546, 2018-03-11)"><metadata
   id="metadata15"><rdf:RDF><cc:Work
       rdf:about=""><dc:format>image/svg+xml</dc:format><dc:type
         rdf:resource="http://purl.org/dc/dcmitype/StillImage" /><dc:title></dc:title></cc:Work></rdf:RDF></metadata><defs
   id="defs13" /><sodipodi:namedview
   pagecolor="#ffffff"
   bordercolor="#666666"
   borderopacity="1"
   objecttolerance="10"
   gridtolerance="10"
   guidetolerance="10"
   inkscape:pageopacity="0"
   inkscape:pageshadow="2"
   inkscape:window-width="778"
   inkscape:window-height="480"
   id="namedview11"
   showgrid="false"
   fit-margin-top="0"
   fit-margin-left="0"
   fit-margin-right="0"
   fit-margin-bottom="0"
   inkscape:zoom="0.36196319"
   inkscape:cx="293.4"
   inkscape:cy="246"
   inkscape:window-x="0"
   inkscape:window-y="0"
   inkscape:window-maximized="0"
   inkscape:current-layer="layer" />
<style
   type="text/css"
   id="style2">
	.st0{fill:#B99D30;}
	.st1{fill:#41463F;}
</style>
<g
   id="g8"
   transform="translate(-32.6,-72)">
	<path
   class="st0"
   d="m 387.7,252.9 c -0.5,1.4 -1.3,3.3 -1.9,5.2 -8.9,-31.6 -16.9,-46 -27.8,-62.5 1.3,-1.9 3,-4.9 4,-6.8 2,-0.5 9.3,-2.9 11.9,-10.6 3.5,-10.4 -2.3,-22.8 -2.3,-22.8 0,0 -10.3,6.7 -13.8,16.3 -2.7,7.3 0.2,13.8 1.2,15.7 -0.4,0.8 -2.2,4 -3,5.1 -4.5,-6.7 -8.1,-13.5 -10.8,-20 1.2,-2 2.6,-4.9 3.4,-6.7 2,-0.6 9.1,-3.4 11.3,-11.3 2.9,-10.6 -3.6,-22.6 -3.6,-22.6 0,0 -9.9,7.3 -12.9,17 -2.3,7.4 1,13.8 2.1,15.6 -0.5,1.2 -1.2,2.6 -1.9,3.9 -10,-26.3 -7.4,-48.9 -5.3,-59.2 2.2,-0.7 10.3,-3.8 13.9,-12.2 4.8,-10.9 1.6,-25 1.6,-25 0,0 -15,5.7 -20.5,17.3 -3.7,7.7 -0.4,15.1 1,17.9 -0.8,3.4 -1.6,8.2 -2.1,14.2 -1.6,-1.3 -3.6,-3 -5.2,-4.4 0.4,-1.6 2,-10.2 -3.5,-17.6 -6.8,-9.1 -19.9,-13.2 -19.9,-13.2 0,0 -2.4,15.1 4.6,25.1 5.1,7.4 13.6,7.7 16,7.7 2,1.8 5.5,4.8 7.8,6.3 -0.5,4.9 -0.7,34.3 16.1,62.5 -2,-0.5 -4.2,-1.2 -6,-1.8 -0.6,-2.4 -3,-9.7 -10.4,-13.6 -9.8,-5.2 -21.1,-2.1 -21.1,-2.1 0,0 2.3,13.1 12.6,19 8.6,4.9 17.2,0.2 17.9,-0.2 1.1,0.4 8.1,2.4 9.5,2.6 0.6,0.9 12.8,18.8 18.5,31.7 -1.2,-0.4 -4.1,-1.3 -5.3,-1.8 -0.4,-1.7 -2.7,-10 -10.8,-14.3 -10.1,-5.3 -23.6,-3.2 -23.6,-3.2 0,0 4.4,14.6 15,20.6 8,4.5 16,0.9 17.9,-0.1 2.2,0.9 5.9,2.3 8.8,3.1 3.9,9.1 12,31.4 12.9,45 0.7,12.4 -5.7,27.9 -13.3,28.4 -3.2,0.2 -2,-3.4 -0.5,-6.8 1.6,-0.8 7.7,-4.2 8.6,-11.5 1.2,-9.8 -6.1,-19.7 -6.1,-19.7 0,0 -7.9,7.8 -9.3,16.8 -1.1,6.8 2.6,12.1 3.8,13.6 -4.3,12.5 -6.2,-0.1 -6.5,-1.6 -1.1,-6.6 -3,-13 -5.2,-18.8 1.3,-2.3 3,-5.9 3.8,-7.8 1.9,-0.8 8.8,-4.2 10.3,-12.1 2,-10.7 -5.5,-22.2 -5.5,-22.2 0,0 -9.2,8.1 -11.4,18 -1.6,7.5 2.1,13.5 3.3,15.3 -0.5,1.2 -1.4,3.1 -2.2,4.7 -3.5,-8.3 -7.3,-15.2 -9.9,-19.4 0.6,-2.7 1.7,-10.1 -3.7,-16.1 -7.8,-8.7 -22.4,-9.8 -22.4,-9.8 0,0 0.9,13.1 7.9,21.4 5.1,6 12.3,7 14.9,7.1 3.9,6.6 10.7,19.3 14.4,33.4 -1.7,-0.8 -3.9,-2 -5.9,-3.1 0,-1.5 -0.2,-9.4 -6.4,-14.9 -7.7,-6.8 -20.1,-7.9 -20.1,-7.9 0,0 0.8,13.8 8.8,21.4 5.6,5.2 12.6,4.4 15.2,3.9 1.3,0.7 8.3,4.6 9.5,5 1,3.3 2.7,17.2 0.1,22.9 -1.3,-0.7 -2.8,-1.4 -4.1,-2.2 0,-1.5 -0.2,-9.4 -6.4,-14.9 -7.7,-6.8 -20.1,-7.9 -20.1,-7.9 0,0 0.8,13.8 8.8,21.4 5.6,5.2 12.6,4.4 15.2,3.9 1,0.4 5.1,2 4.1,4.9 -0.6,1.9 -3.4,4.1 -8.6,1.6 -22,-10.9 -28.1,3.2 -49,-4 -6.1,-2.1 -2.6,-7.4 0,-7.6 1.6,-0.1 3.6,0.1 5.2,0.5 2.3,0.6 5.2,1.2 5.9,-0.6 0.4,-1.1 -0.4,-1.7 -1.1,-2.2 -0.5,-0.3 -0.9,-0.7 -0.6,-1.2 0.2,-0.5 1.2,-0.2 2.2,0.2 1.8,0.7 6.2,1.8 7.3,-1.3 0.5,-1.4 -0.8,-2.1 -1.8,-2.2 -0.8,-0.1 -1.2,-0.6 -1.1,-1.1 0.2,-0.6 1,-0.5 2.1,-0.4 3.9,0.3 5.1,-1.2 5.5,-2.5 0.5,-1.8 -1.1,-2.2 -2,-2.3 -1.1,-0.1 -1.4,-0.7 -1.5,-1.2 -0.1,-0.9 0.6,-1.4 1.7,-1.8 2.4,-0.9 2.8,-4.1 1.7,-5.6 -1,-1.4 -4.4,-2.5 -6,-0.3 -0.8,1.2 -1.3,1.9 -2.4,1.3 -0.6,-0.4 -0.7,-1.3 -0.5,-1.9 0.3,-1.5 -0.4,-2.4 -1.6,-2.5 -3.2,-0.3 -4.1,4.3 -4.2,5 -0.1,0.9 -0.3,1.5 -0.9,1.5 -0.8,0 -1,-0.7 -0.8,-1.5 0.3,-1.2 -0.4,-2.3 -1.6,-2.3 -2.9,-0.1 -3.7,4.2 -3.5,5.9 0.1,1.5 0.2,2.9 -0.4,3 -0.5,0.1 -0.9,-0.4 -1,-1 -0.2,-1.1 -1.2,-1.9 -2.1,-1.6 -2.2,0.8 -2.1,5.2 -1.9,7.5 0.1,1.3 0.6,2.8 -1.1,6.7 -0.5,1 -1.5,3.4 -2.1,4.8 -2.2,-2.4 -3.3,-3.7 -4.2,-9.9 -1.4,-9.7 1.3,-19.6 7.2,-21.3 1.7,-0.5 3.2,0 5.1,0.4 2.6,0.6 5.9,1.2 6.7,-0.9 0.4,-1.2 -0.5,-1.9 -1.3,-2.4 -0.6,-0.4 -1,-0.7 -0.7,-1.4 0.3,-0.6 1.3,-0.2 2.4,0.2 2,0.7 7,1.9 8.2,-1.6 0.5,-1.6 -0.9,-2.4 -2.1,-2.4 -0.9,0 -1.4,-0.6 -1.2,-1.2 0.2,-0.7 1.1,-0.6 2.3,-0.5 4.4,0.3 5.8,-1.5 6.1,-2.9 0.5,-2.1 -1.3,-2.4 -2.3,-2.5 -1.2,-0.1 -1.6,-0.7 -1.7,-1.3 -0.1,-1 0.7,-1.6 1.9,-2 2.7,-1 3,-4.7 1.8,-6.3 -1.2,-1.6 -5.1,-2.7 -6.8,-0.2 -0.9,1.4 -1.4,2.2 -2.7,1.6 -0.7,-0.4 -0.8,-1.4 -0.6,-2.2 0.3,-1.7 -0.5,-2.6 -1.8,-2.7 -3.6,-0.3 -4.5,4.9 -4.6,5.8 -0.1,1 -0.3,1.7 -0.9,1.8 -0.9,0 -1.1,-0.8 -1,-1.6 0.3,-1.3 -0.5,-2.6 -1.9,-2.6 -3.3,0 -4,4.9 -3.8,6.8 0.2,1.7 0.4,3.3 -0.3,3.4 -0.6,0.1 -1,-0.4 -1.2,-1.1 -0.2,-1.3 -1.3,-2.1 -2.5,-1.7 -2.5,1 -2.3,5.9 -2,8.5 0.2,1.4 0.2,5.4 -1.6,9.8 -1.9,4.7 -5.6,16.5 -11.4,19.1 -2.4,1.1 -5.2,0.1 -5.6,-7.3 -0.1,-1.7 0.4,-3.9 1.5,-5.1 1.1,-1.1 2.4,-1.5 4,-1.9 2.2,-0.7 5,-1.7 4.6,-3.6 -0.2,-1.1 -1.2,-1.2 -2.1,-1.2 -0.6,0 -1.1,-0.1 -1.2,-0.7 -0.1,-0.6 0.9,-0.8 1.9,-1 1.8,-0.3 6.1,-1.7 5.4,-4.9 -0.3,-1.5 -1.7,-1.4 -2.7,-0.9 -0.7,0.4 -1.3,0.1 -1.5,-0.3 -0.2,-0.6 0.6,-1 1.5,-1.4 3.4,-1.8 3.6,-3.7 3.2,-4.9 -0.6,-1.8 -2,-1.3 -2.9,-0.8 -0.9,0.5 -1.5,0.2 -1.8,-0.2 -0.5,-0.7 -0.2,-1.5 0.5,-2.4 1.6,-2 0.1,-4.9 -1.5,-5.5 -1.6,-0.7 -5,0.2 -5.2,2.9 -0.1,1.4 -0.1,2.3 -1.3,2.4 -0.7,0 -1.2,-0.7 -1.4,-1.3 -0.5,-1.4 -1.5,-1.8 -2.6,-1.2 -2.8,1.4 -1.2,5.7 -0.9,6.4 0.3,0.8 0.5,1.4 0.1,1.7 -0.7,0.4 -1.2,-0.1 -1.5,-0.8 -0.4,-1.1 -1.5,-1.7 -2.6,-1.1 -2.5,1.5 -0.8,5.4 0.2,6.8 0.9,1.2 1.7,2.3 1.3,2.7 -0.4,0.4 -1,0.2 -1.4,-0.3 -0.8,-0.8 -2,-1 -2.6,-0.2 -1.4,1.8 0.9,5.4 2.3,7.2 0.7,1 2.1,2 2.6,6.1 0.5,5 1.7,9.2 2.5,11.7 -6.9,-2.3 -12.4,-16.5 -11.8,-28.1 0.2,-4.3 1,-9.1 1.7,-13 2,-10 7.5,-13.1 10.5,-14.5 1.8,-0.8 4,-1.9 6,-1.4 1.7,0.4 2.8,1.5 4.2,2.8 2,1.8 4.6,3.9 6.3,2.5 1,-0.8 0.5,-1.9 0,-2.8 -0.3,-0.6 -0.5,-1.1 0,-1.5 0.5,-0.4 1.3,0.4 2.1,1.3 1.4,1.6 5.2,5 7.9,2.5 1.2,-1.2 0.3,-2.5 -0.7,-3.2 -0.8,-0.5 -0.9,-1.2 -0.5,-1.6 0.5,-0.5 1.3,0 2.3,0.6 3.7,2.4 5.7,1.5 6.7,0.4 1.4,-1.6 0.1,-2.7 -0.8,-3.3 -1,-0.7 -1.1,-1.4 -0.9,-2 0.4,-0.9 1.3,-1 2.7,-0.9 2.9,0.4 4.9,-2.7 4.6,-4.7 -0.3,-2 -3.1,-4.9 -5.8,-3.5 -1.4,0.7 -2.3,1.2 -3.1,0.1 -0.4,-0.7 0,-1.6 0.5,-2.2 1.1,-1.3 0.9,-2.5 -0.3,-3.3 -3.1,-2 -6.3,2.1 -6.8,2.8 -0.6,0.8 -1.1,1.4 -1.7,1.1 -0.8,-0.4 -0.6,-1.2 0,-1.9 0.9,-1 0.8,-2.5 -0.4,-3.2 -2.9,-1.6 -5.9,2.3 -6.6,4.1 -0.7,1.6 -1.3,3 -1.9,2.8 -0.6,-0.2 -0.7,-0.9 -0.5,-1.6 0.4,-1.2 -0.1,-2.5 -1.3,-2.7 -2.6,-0.4 -4.9,4.1 -5.8,6.5 -0.5,1.3 -0.8,3.1 -4.6,6.1 -1.3,1 -5.2,4 -6.6,5.1 4.8,-12.2 9.8,-21.4 14.8,-29.5 2.5,-4 8.7,-5.1 12.2,-3.5 1.6,0.7 2.5,2.1 3.7,3.7 1.6,2.2 3.8,4.8 5.7,3.7 1.1,-0.6 0.9,-1.8 0.6,-2.8 -0.2,-0.7 -0.3,-1.2 0.4,-1.5 0.6,-0.3 1.2,0.7 1.8,1.7 1.1,1.9 4.2,6.1 7.4,4.1 1.5,-0.9 0.9,-2.5 0,-3.3 -0.7,-0.6 -0.7,-1.4 -0.2,-1.7 0.6,-0.4 1.3,0.3 2.1,1.1 3.2,3.1 5.4,2.7 6.6,1.7 1.7,-1.3 0.6,-2.7 -0.2,-3.5 -0.9,-0.9 -0.8,-1.6 -0.5,-2.1 0.5,-0.8 1.5,-0.8 2.8,-0.3 2.8,1 5.4,-1.7 5.5,-3.7 0.1,-2 -2.2,-5.5 -5.1,-4.6 -1.6,0.5 -2.6,0.7 -3.1,-0.6 -0.3,-0.8 0.3,-1.6 0.9,-2.1 1.4,-1.1 1.4,-2.4 0.4,-3.3 -2.7,-2.6 -6.7,0.9 -7.4,1.5 -0.8,0.7 -1.4,1.1 -1.9,0.7 -0.7,-0.6 -0.4,-1.3 0.3,-1.9 1.1,-0.9 1.3,-2.3 0.2,-3.2 -2.6,-2.2 -6.3,1.2 -7.4,2.8 -1,1.4 -1.9,2.8 -2.5,2.4 -0.5,-0.3 -0.5,-1 -0.2,-1.7 0.6,-1.2 0.4,-2.6 -0.8,-3 -2.6,-0.9 -5.7,3.1 -7.1,5.3 -0.8,1.2 -1.6,3.5 -6,5.7 -1,0.5 -4,1.4 -4,1.4 2.8,-4.2 5.6,-8.4 8.2,-12.2 11.1,-16.5 14.7,-27.4 17.2,-30.5 3.3,-4 6.5,-4.5 7.9,-5.1 2.6,-1 7.6,-3.3 7.2,-6.2 -0.1,-1.3 -1.5,-1.9 -2.9,-1.5 -0.8,0.2 -1.5,0.1 -1.7,-0.6 -0.2,-0.7 1.4,-1.4 3.1,-2 2,-0.8 6.3,-3.9 4.7,-7.1 -0.7,-1.4 -2.3,-1.5 -3.5,-0.5 -0.8,0.6 -1.6,0.8 -2.1,-0.1 -0.3,-0.6 0.3,-1.1 1.2,-1.8 0.8,-0.5 5.4,-3.9 3.3,-7.3 -0.8,-1.3 -2.1,-1.6 -3.6,-0.4 -0.7,0.5 -1.7,1 -2.4,0.5 -1.2,-0.9 -0.7,-1.8 0.2,-3.4 1.6,-2.9 -1.4,-6.1 -3.6,-6.5 -2.2,-0.4 -5.6,1.7 -5.2,4.9 0.2,1.5 0,2.5 -1,2.9 -0.6,0.2 -1.4,0.1 -2.1,-1 -0.6,-1 -1.8,-2.5 -3.6,-1 -1.2,1.1 -2.3,3.2 0.2,7.4 0.7,1.1 1.2,1.9 0.6,2.5 -0.5,0.4 -1.3,0.3 -1.8,-0.6 -0.7,-1.1 -2.1,-2.2 -3.4,-0.8 -2.8,2.9 0.8,7.1 2.5,8.7 1,0.9 1.8,1.7 1.4,2.3 -0.5,0.6 -1,0.4 -1.7,0 -0.9,-0.5 -2.1,-1.1 -3,-0.1 -1.6,1.8 0.6,4.7 2.5,6.9 1.4,1.6 2.5,2.9 2.9,4.7 0.7,2.8 -10.1,22.9 -13.4,27.9 0,-1.3 0.1,-2.4 0.1,-3.1 0.1,-4.9 1.9,-7.1 2.7,-8.3 1.3,-2.3 3.6,-6.8 1.7,-8.8 -0.9,-0.9 -2.3,-0.5 -3,0.6 -0.4,0.6 -1.1,0.9 -1.6,0.6 -0.6,-0.4 0.2,-1.8 1.1,-3.3 1,-1.7 2.4,-6.6 -0.7,-7.9 -1.3,-0.6 -2.5,0.3 -2.8,1.6 -0.2,0.9 -0.8,1.5 -1.6,1.1 -0.6,-0.2 -0.4,-1 -0.1,-2 0.2,-0.9 1.6,-6 -1.9,-7.3 -1.3,-0.5 -2.4,0.1 -2.9,1.8 -0.2,0.8 -0.7,1.7 -1.5,1.8 -1.4,0.1 -1.6,-0.9 -1.9,-2.6 -0.5,-3.1 -4.6,-3.6 -6.4,-2.7 -1.8,1 -3.1,4.6 -1,6.6 1,1 1.5,1.9 0.9,2.7 -0.3,0.5 -1,0.9 -2.1,0.5 -1,-0.4 -2.8,-0.8 -3.2,1.3 -0.3,1.5 0.2,3.7 4.5,5.3 1.1,0.4 2.1,0.7 1.9,1.5 -0.1,0.6 -0.8,0.9 -1.7,0.6 -1.2,-0.4 -2.8,-0.3 -3,1.4 -0.4,3.8 4.8,4.8 6.9,4.9 1.2,0.1 2.4,0.2 2.4,0.9 0,0.7 -0.5,0.9 -1.2,1 -1,0.1 -2.2,0.4 -2.3,1.7 -0.2,2.3 3.2,3.1 5.9,3.6 1.9,0.4 3.5,0.6 4.9,1.7 1.6,1.3 2.2,3.7 2.5,5.8 0.2,1.2 0.2,2.9 0.2,4 -1.6,2.4 -3.2,4.7 -4.8,7.1 -4.1,6.1 -8.3,12.3 -12.4,19.5 0,-2.5 0.1,-6.5 0.4,-7.8 0.4,-1.4 1.3,-2.7 2.4,-3.8 1.6,-1.6 3.5,-3.7 2.4,-5.2 -0.7,-0.8 -1.6,-0.5 -2.3,-0.1 -0.5,0.2 -1,0.4 -1.3,-0.1 -0.3,-0.5 0.4,-1.1 1.2,-1.7 1.4,-1.1 4.5,-4.2 2.5,-6.6 -0.9,-1.1 -2.1,-0.4 -2.7,0.4 -0.4,0.6 -1.1,0.7 -1.4,0.4 -0.4,-0.5 0.1,-1.1 0.6,-1.9 2.2,-3 1.5,-4.8 0.6,-5.7 -1.3,-1.3 -2.3,-0.2 -2.8,0.6 -0.6,0.9 -1.2,0.9 -1.7,0.7 -0.7,-0.3 -0.8,-1.2 -0.6,-2.3 0.5,-2.4 -2.1,-4.3 -3.7,-4.1 -1.7,0.2 -4.2,2.4 -3.2,4.8 0.6,1.2 0.9,2 -0.1,2.6 -0.6,0.4 -1.3,-0.1 -1.8,-0.5 -1.1,-1 -2.1,-0.8 -2.8,0.1 -1.8,2.5 1.6,5.4 2.1,5.9 0.7,0.6 1.1,1 0.8,1.5 -0.4,0.6 -1.1,0.5 -1.6,0 -0.8,-0.8 -2.1,-0.8 -2.7,0.2 -1.5,2.4 1.7,5.1 3.2,5.8 1.3,0.6 2.5,1.2 2.3,1.8 -0.2,0.5 -0.8,0.6 -1.4,0.3 -1,-0.4 -2.1,0 -2.3,1 -0.4,2.2 3.2,4.3 5.2,5.2 1.1,0.5 2.7,0.8 4.9,4.1 1.9,2.7 0.8,9.8 0,11.5 -3.2,6.8 -6.8,14.3 -10,23.5 -0.5,-2.2 -1.1,-5.1 -0.7,-7.1 0.3,-1.4 1.2,-2.3 2.2,-3.4 1.4,-1.6 3.1,-3.7 1.9,-5.1 -0.7,-0.8 -1.5,-0.4 -2.2,0 -0.5,0.3 -0.9,0.4 -1.2,0 -0.3,-0.4 0.3,-1 1,-1.7 1.3,-1.2 4,-4.3 1.9,-6.4 -1,-1 -2,-0.2 -2.5,0.6 -0.4,0.6 -1,0.7 -1.3,0.4 -0.4,-0.4 0,-1 0.5,-1.8 1.9,-3 1.1,-4.6 0.2,-5.4 -1.3,-1.1 -2.2,0 -2.6,0.7 -0.5,0.9 -1.1,0.9 -1.5,0.7 -0.7,-0.3 -0.9,-1 -0.7,-2.1 0.3,-2.3 -2.2,-3.9 -3.8,-3.6 -1.6,0.3 -3.8,2.6 -2.7,4.7 0.6,1.1 1,1.8 0.1,2.5 -0.5,0.4 -1.3,0 -1.8,-0.4 -1.1,-0.9 -2,-0.7 -2.6,0.3 -1.5,2.5 1.8,5 2.4,5.4 0.7,0.5 1.1,0.9 0.9,1.3 -0.3,0.6 -1,0.5 -1.5,0.1 -0.9,-0.7 -2,-0.6 -2.5,0.4 -1.2,2.3 2,4.7 3.4,5.2 1.3,0.5 2.4,1 2.3,1.5 -0.1,0.5 -0.7,0.6 -1.3,0.4 -1,-0.3 -2,0.2 -2.1,1.1 -0.2,2.1 3.3,3.8 5.3,4.6 7.2,2.7 7,13.1 6,16 -1.5,4.5 -4.3,7.5 -9,6.8 -6.9,-1 -10.8,-15.6 -10.5,-25 0.5,-16.2 12.4,-38 16.3,-47.4 3.3,-7.9 7.3,-20.1 9.8,-29.9 3.1,-11.8 4.4,-13.3 8.3,-19.8 1.1,-1.8 2.7,-4 4.7,-4.7 1.8,-0.6 3.5,-0.2 5.5,0.2 2.9,0.5 6.5,1 7.2,-1.3 0.4,-1.3 -0.6,-2 -1.6,-2.6 -0.6,-0.4 -1.1,-0.8 -0.8,-1.5 0.3,-0.7 1.4,-0.3 2.7,0.1 2.2,0.7 7.7,1.7 8.8,-2.2 0.5,-1.8 -1.1,-2.5 -2.4,-2.5 -1,0 -1.5,-0.6 -1.4,-1.2 0.2,-0.8 1.2,-0.7 2.5,-0.7 4.8,0.1 6.2,-1.9 6.5,-3.5 0.4,-2.3 -1.5,-2.6 -2.7,-2.6 -1.3,0 -1.8,-0.7 -1.9,-1.3 -0.2,-1 0.6,-1.7 2,-2.3 2.9,-1.3 3,-5.3 1.6,-7 -1.4,-1.7 -5.7,-2.7 -7.4,0.1 -0.9,1.5 -1.5,2.5 -2.8,1.8 -0.8,-0.4 -0.9,-1.5 -0.8,-2.3 0.3,-1.9 -0.7,-2.9 -2.1,-2.9 -4,-0.1 -4.6,5.6 -4.7,6.5 -0.1,1.1 -0.3,1.9 -0.9,1.9 -1,0.1 -1.3,-0.8 -1.1,-1.7 0.2,-1.5 -0.7,-2.8 -2.2,-2.7 -3.6,0.2 -4.1,5.5 -3.8,7.6 0.3,1.8 0.6,3.5 -0.2,3.7 -0.6,0.2 -1.2,-0.4 -1.4,-1.2 -0.3,-1.4 -1.6,-2.3 -2.8,-1.7 -2.7,1.2 -2.2,6.6 -1.7,9.3 0.3,1.5 1,3.4 -0.8,8.3 -0.6,1.6 -2.6,6.4 -3.6,8.7 1,-10.4 0,-20.4 -0.2,-25.3 -0.2,-5.2 1.2,-6.7 1.9,-8.1 1.3,-2.5 3.6,-7.4 1.4,-9.4 -1,-0.9 -2.4,-0.4 -3.2,0.7 -0.4,0.7 -1.1,1.1 -1.7,0.7 -0.6,-0.4 0.2,-1.9 1,-3.6 1,-1.9 2.2,-7.1 -1.1,-8.4 -1.4,-0.6 -2.7,0.4 -2.9,1.9 -0.2,1 -0.7,1.7 -1.6,1.3 -0.6,-0.2 -0.5,-1 -0.2,-2.1 0.2,-0.9 1.4,-6.5 -2.3,-7.7 -1.4,-0.4 -2.6,0.2 -2.9,2 -0.2,0.8 -0.6,1.9 -1.5,1.9 -1.5,0.2 -1.7,-0.9 -2.1,-2.6 -0.7,-3.2 -5.1,-3.7 -6.9,-2.5 -1.9,1.1 -3.1,5 -0.7,7.1 1.1,1 1.6,1.9 1.1,2.8 -0.3,0.6 -1,1 -2.3,0.6 -1.1,-0.4 -3,-0.7 -3.4,1.6 -0.2,1.6 0.4,3.9 5,5.4 1.2,0.4 2.2,0.6 2.1,1.5 -0.1,0.6 -0.8,1 -1.7,0.7 -1.2,-0.4 -3,-0.2 -3.1,1.6 -0.2,4 5.3,4.9 7.6,4.9 1.3,0 2.5,0.1 2.5,0.8 0,0.8 -0.5,1 -1.3,1.1 -1.1,0.2 -2.3,0.6 -2.3,1.9 -0.1,2.4 3.5,3.2 6.4,3.5 4.8,0.6 6.6,1.6 7.8,5.8 1.1,3.7 1.4,21.9 -1.9,36.8 -0.4,-1.6 -1.4,-5.2 -1.8,-6.7 -1.3,-4.7 -0.5,-6.4 -0.1,-7.8 0.6,-2.6 1.5,-7.5 -0.9,-8.8 -1.1,-0.6 -2.3,0.2 -2.7,1.4 -0.2,0.7 -0.8,1.2 -1.3,1 -0.7,-0.2 -0.3,-1.8 0.1,-3.5 0.5,-1.9 0.4,-6.9 -2.9,-7.4 -1.4,-0.2 -2.3,1 -2.2,2.4 0.1,0.9 -0.3,1.7 -1.2,1.5 -0.6,-0.1 -0.7,-0.8 -0.7,-1.9 0,-0.9 -0.2,-6.2 -3.9,-6.4 -1.4,-0.1 -2.3,0.8 -2.2,2.5 0.1,0.8 -0.1,1.8 -0.9,2.1 -1.3,0.5 -1.8,-0.4 -2.5,-1.9 -1.4,-2.8 -5.4,-2.1 -6.9,-0.7 -1.4,1.5 -1.6,5.2 1,6.6 1.2,0.6 1.9,1.3 1.7,2.3 -0.2,0.6 -0.6,1.2 -1.9,1.1 -1.1,-0.1 -2.9,0.1 -2.7,2.2 0.2,1.5 1.3,3.5 5.8,3.7 1.2,0.1 2.2,0.1 2.3,0.9 0.1,0.6 -0.5,1.1 -1.4,1 -1.2,-0.1 -2.8,0.5 -2.5,2.2 0.7,3.7 5.9,3.2 8,2.7 1.2,-0.3 2.3,-0.5 2.5,0.2 0.2,0.7 -0.3,1 -0.9,1.3 -0.9,0.4 -1.9,1 -1.6,2.3 0.5,2.2 3.9,2 6.6,1.7 1.9,-0.2 3.5,-0.5 5.2,0.2 1.8,0.8 3.2,2.9 4,4.8 2.2,5 2,8.9 1.8,10.7 -2.1,7.5 -4.9,15.5 -8.8,23.8 -0.1,-1.3 -0.2,-4 -0.2,-5.2 0.1,-4.1 1.2,-5.3 1.8,-6.3 1.1,-1.9 3,-5.8 1.4,-7.4 -0.7,-0.7 -1.9,-0.4 -2.5,0.5 -0.4,0.5 -0.9,0.8 -1.3,0.5 -0.5,-0.4 0.2,-1.5 0.9,-2.8 0.8,-1.4 2,-5.5 -0.6,-6.7 -1.1,-0.5 -2.1,0.2 -2.4,1.4 -0.2,0.8 -0.6,1.3 -1.3,1 -0.5,-0.2 -0.4,-0.8 -0.1,-1.7 0.2,-0.7 1.3,-5.1 -1.6,-6.2 -1.1,-0.4 -2.1,0.1 -2.4,1.5 -0.2,0.7 -0.6,1.4 -1.3,1.5 -1.2,0.1 -1.3,-0.8 -1.6,-2.1 -0.5,-2.6 -3.9,-3 -5.4,-2.2 -1.5,0.8 -2.6,3.8 -0.8,5.6 0.8,0.8 1.2,1.6 0.8,2.3 -0.3,0.4 -0.8,0.8 -1.8,0.4 -0.9,-0.3 -2.4,-0.6 -2.7,1.2 -0.2,1.3 0.2,3.1 3.8,4.4 1,0.4 1.7,0.6 1.6,1.2 -0.1,0.5 -0.7,0.8 -1.4,0.5 -1,-0.4 -2.4,-0.3 -2.5,1.2 -0.3,3.2 4,4 5.9,4.1 1,0.1 2,0.2 2,0.7 0,0.6 -0.5,0.7 -1,0.8 -0.8,0.1 -1.8,0.4 -1.9,1.5 -0.1,1.9 2.7,2.6 5,3 1.6,0.3 3,0.5 4.1,1.4 1.3,1.1 1.9,3.1 2.1,4.8 0.5,3.7 1,7.7 -2.3,10.3 -2.4,1.8 -5.5,2.2 -9.3,-0.4 -2.6,-1.8 -13.3,-12.2 -9.9,-25.6 5.2,-20.4 -2.3,-41.5 -3.3,-45.9 -1.2,-5.1 -0.1,-6.8 0.4,-8.3 0.9,-2.7 2.1,-7.9 -0.3,-9.5 -1.1,-0.7 -2.5,0 -3,1.3 -0.3,0.8 -0.9,1.2 -1.5,1 -0.7,-0.3 -0.2,-1.9 0.4,-3.7 0.6,-2 0.9,-7.4 -2.6,-8.1 -1.5,-0.3 -2.6,0.9 -2.6,2.4 0,1 -0.4,1.8 -1.4,1.6 -0.6,-0.1 -0.7,-0.9 -0.6,-2.1 0,-0.9 0.2,-6.6 -3.7,-7.1 -1.5,-0.2 -2.5,0.6 -2.5,2.5 0,0.9 -0.3,1.9 -1.1,2.2 -1.5,0.4 -1.9,-0.6 -2.6,-2.2 -1.3,-3.1 -5.7,-2.7 -7.3,-1.2 -1.6,1.5 -2.1,5.5 0.6,7.1 1.3,0.8 2,1.6 1.6,2.6 -0.2,0.6 -0.8,1.2 -2.1,1 -1.2,-0.2 -3.1,-0.1 -3,2.2 0.1,1.6 1.1,3.8 5.9,4.4 1.3,0.2 2.3,0.2 2.4,1.1 0,0.6 -0.6,1.2 -1.6,1 -1.3,-0.2 -3,0.3 -2.8,2.2 0.5,4 6.1,3.8 8.4,3.5 1.3,-0.2 2.5,-0.3 2.7,0.3 0.2,0.7 -0.4,1 -1.1,1.3 -1,0.4 -2.1,1 -1.9,2.3 0.4,2.4 4,2.4 7,2.3 7.4,-0.2 9.9,4.5 10.7,9.3 2.9,18.7 0.9,25.1 -3.3,38.1 -7.3,22.3 7,28.2 9,43 3.4,24.6 -8.9,43.9 -7.4,50.8 1.7,8.3 17.9,1.6 19.7,6.6 1.4,3.9 -1.8,7.4 -0.4,11.4 1.5,4.1 9,1.3 10.6,4.4 1.4,2.8 -4.4,6.1 -2,11.1 2.4,5 7.3,3.4 11.5,7.9 3.2,3.5 3.8,9.2 4.4,14.3 0.8,6.9 3.1,10 6.2,11.1 6.6,2.5 20.3,-3.9 24.6,-5.8 13.5,-5.9 32.1,-13.5 52.4,-7.5 -8,-0.5 -18.2,-0.8 -29.7,4.1 -13,5.5 -19.8,12.2 -32.5,16 -6.8,2 -14.3,4 -21.4,-0.9 -8,-5.6 -5.5,-12.9 -9.4,-15.6 -2.2,-1.5 -5.3,4.6 -9.9,3.9 -4,-0.6 -6.8,-4.1 -9.3,-8.5 l 3.1,-1.9 c 1.3,1.8 3.5,3 6,3 4.1,0 7.4,-3.3 7.4,-7.4 0,-4.1 -3.3,-7.4 -7.4,-7.4 -4.1,0 -7.4,3.3 -7.4,7.4 0,0.7 0.1,1.4 0.3,2.1 l -3.1,1.9 c -1.5,-3.1 -2.7,-6.3 -3.5,-8.6 3.3,-1.2 5.7,-4.4 5.7,-8.1 0,-4.8 -3.9,-8.7 -8.7,-8.7 -4.8,0 -8.7,3.9 -8.7,8.7 0,4.8 3.9,8.7 8.7,8.7 1.9,5.5 4.2,14.1 -0.1,15.6 -4.3,1.5 -10.4,-7.6 -12.6,-17.1 -2.3,-10.1 0.1,-18.6 0.1,-18.6 0.6,0.1 1.2,0.2 1.8,0.2 4.3,0 7.8,-3.5 7.8,-7.8 0,-4.3 -3.5,-7.8 -7.8,-7.8 -4.3,0 -7.8,3.5 -7.8,7.8 0,2.8 1.5,5.2 3.6,6.6 l -1.8,6 -3.7,-2.1 c 0.1,-0.5 0.2,-1.1 0.2,-1.6 0,-3.4 -2.8,-6.2 -6.2,-6.2 -3.4,0 -6.2,2.8 -6.2,6.2 0,3.4 2.8,6.2 6.2,6.2 2,0 3.7,-0.9 4.8,-2.3 l 4.2,2.4 c -1.2,3.6 -3.4,8 -7.3,8.1 -3.8,0.1 -8.5,-2.1 -10.5,-11 -0.6,-2.6 -1,-5.1 -1.2,-7.6 9.1,-11.5 22.7,-15.5 24.2,-16 1.8,-0.6 1.6,-1.3 -0.6,-1.4 -14.9,-0.6 -21.2,6.4 -23.9,12 -0.6,-5.2 1.5,-20 2.1,-21.4 1.6,-0.3 3.1,-1.1 4.1,-2.3 l 3.4,2.2 c -0.2,0.6 -0.3,1.3 -0.3,2 0,3.4 2.8,6.2 6.2,6.2 3.4,0 6.2,-2.8 6.2,-6.2 0,-3.4 -2.8,-6.2 -6.2,-6.2 -1.8,0 -3.4,0.8 -4.6,2 l -3.4,-2.2 c 0.3,-0.7 0.4,-1.5 0.4,-2.3 0,-0.3 0,-0.6 -0.1,-0.9 l 7,-2.5 c 1.4,2.3 3.9,3.9 6.8,3.9 4.3,0 7.8,-3.5 7.8,-7.8 0,-4.3 -3.5,-7.8 -7.8,-7.8 -4.3,0 -7.8,3.5 -7.8,7.8 0,0.5 0.1,1.1 0.2,1.6 l -6.9,2.5 c -1.2,-2.2 -3.5,-3.7 -6.2,-3.7 -3.9,0 -7,3.1 -7,7 0,2.9 1.7,5.4 4.2,6.4 -0.7,2 -3.2,17.3 -3.1,22.7 -2.8,-2.3 -7.4,-4.4 -15.1,-5.7 -2.6,-0.4 -3.5,0.3 -1.4,1.2 1.7,0.8 15.5,6.9 16.9,15.1 0.5,3.3 -0.6,6.5 -3.1,7.7 -6.5,3.1 -14,-3.4 -17,-16.1 -1.2,-5 -2.2,-13.8 2.5,-22.9 1.5,3.7 4.1,6.5 8.2,6.4 3.9,-0.1 6.6,-3.2 6.6,-6.8 -0.1,-3 -2.1,-5.4 -4.7,-5.7 -2.9,-0.3 -5,1.7 -5,4 0,2.6 2.4,4.1 3.7,3.9 1.3,-0.1 1.5,-1.9 0.4,-2.1 -1.1,-0.2 -1.7,-0.8 -1.7,-1.8 0.1,-1 0.9,-1.7 1.9,-1.7 0.9,0 2.4,0.8 2.6,3.4 0.2,2.7 -2.3,3.9 -3.7,3.9 -1.1,0 -3.2,0.3 -5.2,-3.8 -0.5,-1 -0.8,-2.1 -1,-3.4 2.9,-4.2 7.3,-8.4 13.6,-12.2 6.6,-3.9 15.2,-7.6 26.6,-10.8 9.4,-2.6 9.4,-2.8 9.4,-4.3 0,-1.4 -2.3,-1.4 -9.8,0.1 -0.5,-1.8 -4.4,-0.6 -5,-0.8 -1.8,-0.6 -3.4,-3.7 -3.4,-3.7 1.2,-2.5 2.8,-3.7 4,-4.1 0.5,-0.2 1.9,0.4 3.2,0.5 1.7,0 2.7,-0.6 4.1,-0.5 1.5,0.2 3.4,0.5 4.1,-0.7 0.3,-0.5 0,-1.4 -0.9,-2.3 -0.4,-0.4 -1.4,-1.7 -3,-4.3 -1.9,-3 -5.5,-3.6 -5.5,-3.6 0,0 -1,-2.3 -2.6,-3.3 0,0 -2.6,1.8 -2.9,4.1 0,0 -2.4,1.5 -11.4,1.4 -3,0 -8.6,-1.1 -12.8,0.6 -11.2,4.4 -11,12.5 -10.7,15.4 0.3,2.9 0.9,4.6 0.2,8.1 -2,9.4 -1.8,12.5 -1.7,13.8 0,0.6 0.1,1.3 0.2,1.9 -2.5,2.9 -4.6,6.1 -6.1,9.6 0,0 -1.5,-2.2 -2,-7.3 -1.5,-15.4 4.5,-26.6 5.3,-28.2 1,-1.8 0.4,-2.2 -1.4,-0.6 -6.4,5.6 -8.3,11.7 -8.3,16.8 -1.2,-3.2 -2.5,-6.4 -3.9,-9.8 6.2,-6.1 10.9,-12.9 14.6,-19.8 1,0.3 2,0.5 3.1,0.5 5.5,0 9.9,-4.4 9.9,-9.9 0,-0.5 0,-0.9 -0.1,-1.4 12.2,-4.6 26.6,-2.8 38.1,1.1 2,0.7 2.3,0 0.4,-1.5 -9.4,-7.4 -17.5,-8.5 -23.6,-7.5 6.4,-4.9 12.2,-12.2 14.7,-22.7 4.7,-0.1 8.5,-4 8.5,-8.7 0,-4.8 -3.9,-8.7 -8.7,-8.7 -4.8,0 -8.7,3.9 -8.7,8.7 0,3.4 2,6.4 4.8,7.8 -1.9,7.7 -5.6,13.5 -10,17.8 l -2,-6.3 c 3,-1.3 5.2,-4.3 5.2,-7.8 0,-4.7 -3.8,-8.5 -8.5,-8.5 -4.7,0 -8.5,3.8 -8.5,8.5 0,4.7 3.8,8.5 8.5,8.5 0.3,0 0.6,0 0.9,0 l 2.3,7.5 c -4.9,4.1 -10.3,6.6 -14.8,8.1 -1,-1.6 -2.5,-2.9 -4.3,-3.7 3.6,-12.6 4.5,-24.6 4.5,-33.7 15,-10.7 33.8,-11.1 35.7,-11.2 2.4,-0.2 2.4,-1 -0.2,-1.7 -21.7,-6 -31.7,3.7 -35.5,9.3 -0.1,-3.4 -0.3,-6.2 -0.5,-8.2 2.4,-1 4.2,-3.1 4.8,-5.8 l 8.1,-4.9 c 1.5,1.7 3.7,2.8 6.1,2.8 4.5,0 8.2,-3.7 8.2,-8.2 0,-4.5 -3.7,-8.2 -8.2,-8.2 -4.6,0 -8.2,3.7 -8.2,8.2 0,1.2 0.3,2.3 0.7,3.4 l -6.7,4.1 c -0.7,-3.7 -3.9,-6.4 -7.7,-6.4 -0.1,0 -0.3,0 -0.4,0 l -1.4,-6.9 c 3.5,-1.4 6,-4.8 6,-8.8 0,-5.2 -4.2,-9.4 -9.4,-9.4 -5.2,0 -9.4,4.2 -9.4,9.4 0,5.2 4.2,9.4 9.4,9.4 0.3,0 0.6,0 0.9,-0.1 l 1.4,6.8 c -2.9,1.2 -4.9,4 -5,7.3 l -7.9,-1.9 c 0,-0.3 0,-0.5 0,-0.8 0,-4.1 -3.3,-7.4 -7.4,-7.4 -4.1,0 -7.4,3.3 -7.4,7.4 0,4.1 3.3,7.4 7.4,7.4 2.9,0 5.4,-1.7 6.6,-4.2 l 9.1,2.2 c 1,2.8 3.6,4.9 6.7,5.2 0.2,2.4 0.3,5.7 0.4,9.6 -3.7,-4.6 -13.4,-12.9 -32,-5.9 -2.3,0.9 -2.2,1.6 -0.1,1.5 1.7,0 18.1,-1.1 32.1,7.2 0,7.9 -0.6,17.6 -2.6,26 -1,-5.1 -2.8,-9.5 -4.6,-12.8 1.5,-1.5 2.5,-3.6 2.5,-5.9 0,-4.6 -3.7,-8.3 -8.3,-8.3 -4.6,0 -8.3,3.7 -8.3,8.3 0,4.6 3.7,8.3 8.3,8.3 1,0 1.9,-0.2 2.8,-0.5 2.1,4.1 4.3,9.8 4.8,16.5 -5.2,0.3 -9.3,4.6 -9.3,9.9 0,3 1.4,5.7 3.5,7.6 -1.9,3.5 -4,7 -6.5,10.4 1.5,-4.7 1.5,-11.3 -3.2,-19.8 -1,-1.8 -1.6,-1.6 -1.3,0.1 0.2,1.4 3,14.7 -2.1,27.1 -1.2,-2.8 -2.6,-5.7 -4,-8.7 1.6,-1.5 2.7,-3.6 2.7,-6 0,-4.5 -3.7,-8.2 -8.2,-8.2 -0.6,0 -1.2,0.1 -1.8,0.2 -0.8,-1.4 -1.6,-2.8 -2.4,-4.2 l 7.1,-7.5 c 1.5,1 3.2,1.6 5.2,1.6 5,0 9.1,-4.1 9.1,-9.1 0,-5 -4.1,-9.1 -9.1,-9.1 -5,0 -9.1,4.1 -9.1,9.1 0,2.2 0.8,4.2 2,5.7 l -6.5,7 c -0.8,-1.3 -1.5,-2.5 -2.3,-3.8 1.5,-13 9.8,-23.2 10.6,-24.3 1,-1.4 0.6,-1.8 -1.1,-0.7 -9.7,6.3 -12,13.6 -12.2,19 l -3.3,-14.1 7.6,-7.5 c 1,0.8 2.3,1.2 3.7,1.2 3.4,0 6.1,-2.7 6.1,-6.1 0,-3.4 -2.7,-6.1 -6.1,-6.1 -3.4,0 -6.1,2.7 -6.1,6.1 0,1.1 0.3,2.1 0.8,3 l -6.7,6.5 -2.1,-8.9 c 3.5,-1.2 6.1,-4.5 6.1,-8.5 0,-4.9 -4,-8.9 -8.9,-8.9 -4.9,0 -8.9,4 -8.9,8.9 0,4.9 4,8.9 8.9,8.9 0.1,0 0.2,0 0.4,0 l 6.2,26.1 -7.6,-8.2 c 1,-1.3 1.6,-3 1.6,-4.8 0,-4.4 -3.5,-7.9 -7.9,-7.9 -4.4,0 -7.9,3.5 -7.9,7.9 0,4.4 3.5,7.9 7.9,7.9 1.6,0 3.2,-0.5 4.4,-1.4 l 8.2,8.8 -22.8,-4.8 c 0.1,-0.4 0.1,-0.8 0.1,-1.2 0,-5 -4.1,-9.1 -9.1,-9.1 -5,0 -9.1,4.1 -9.1,9.1 0,5 4.1,9.1 9.1,9.1 3.7,0 6.9,-2.2 8.3,-5.5 l 13,2.7 c -5.6,0.7 -12,3.4 -18.1,10.5 -1.6,1.8 -1.3,2.4 0.6,1.4 1.5,-0.8 15.3,-8.7 31.2,-7.9 1.1,1.8 2.1,3.6 3.1,5.4 l -6.1,1.2 c -1.2,-2.2 -3.5,-3.7 -6.1,-3.7 -3.8,0 -6.9,3.1 -6.9,6.9 0,3.8 3.1,6.9 6.9,6.9 3.8,0 6.9,-3.1 6.9,-6.9 0,-0.4 0,-0.7 -0.1,-1 l 6.6,-1.3 c 0.5,1 1,2 1.6,2.9 -1.8,1.5 -2.9,3.7 -2.9,6.2 0,4.5 3.7,8.2 8.2,8.2 0.6,0 1.2,-0.1 1.7,-0.2 3.2,7 5.7,13.3 7.6,18.8 l -10.8,1 c -0.7,-3.5 -3.7,-6.1 -7.5,-6.1 -4.2,0 -7.6,3.4 -7.6,7.6 0,4.2 3.4,7.6 7.6,7.6 3.8,0 7,-2.8 7.5,-6.5 l 4.2,-0.4 -0.5,8.2 c -3.8,0.4 -6.7,3.5 -6.7,7.4 0,4.1 3.3,7.4 7.4,7.4 4.1,0 7.4,-3.3 7.4,-7.4 0,-3.5 -2.4,-6.4 -5.6,-7.2 l 0.5,-8.6 4.9,-0.4 c 4,11.6 5.4,19.3 5.7,21.4 1.1,8.8 -6.1,9.5 -17.3,6.1 -5.7,-1.7 -12.7,-6.2 -16.2,-16.5 -1.6,-4.6 -3.6,-8.6 -5.8,-12 L 111,240 c 0.6,0.1 1.1,0.2 1.7,0.2 4.4,0 7.9,-3.6 7.9,-7.9 0,-4.4 -3.6,-7.9 -7.9,-7.9 -4.4,0 -7.9,3.6 -7.9,7.9 0,2.9 1.6,5.4 3.9,6.8 l -2.2,6.6 c -4,-5.3 -8.3,-9.1 -12.1,-11.6 l 0.1,-6 c 3.6,-0.6 6.4,-3.7 6.4,-7.5 0,-4.2 -3.4,-7.6 -7.6,-7.6 -4.2,0 -7.6,3.4 -7.6,7.6 0,3.5 2.3,6.4 5.5,7.3 l -0.1,4.1 -8.7,-4.3 c 0.3,-0.9 0.4,-1.8 0.4,-2.8 0,-5.1 -4.1,-9.2 -9.2,-9.2 -5.1,0 -9.2,4.1 -9.2,9.2 0,5.1 4.1,9.2 9.2,9.2 2.8,0 5.3,-1.3 7,-3.2 0,0 11.5,3.6 19.1,15.2 l -7.4,0.4 c -1,-4.4 -4.9,-7.6 -9.6,-7.6 -5.4,0 -9.8,4.4 -9.8,9.8 0,5.4 4.4,9.8 9.8,9.8 5.1,0 9.3,-3.9 9.8,-9 l 9.1,-0.5 c 2.7,4.7 4,9.3 7.1,19.6 6.8,22.4 21.4,19.7 31.2,30.9 16.4,18.7 16.8,41.5 21.8,46.5 6,6 15.7,-8.5 20.1,-5.3 3.3,2.4 2.5,7.1 6,9.7 3.5,2.6 8.2,-3.9 11.3,-2.1 2.7,1.5 -0.3,7.5 4.5,10.4 4.8,2.8 8,-1.3 13.9,0.3 5.8,1.5 9.6,7.6 13.8,11.8 8.5,8.6 14.5,0.5 17.8,-4.3 1.1,-1.6 7.6,-10.6 18.4,-11.3 14,-1 31.3,6.8 31.7,54.8 0.2,21.3 -4.2,35 -4.2,35 h -14 v 4.6 h 77.3 V 445 h -14.1 c 0,0 -4.4,-13.6 -4.2,-35 0.4,-48 17.7,-55.8 31.7,-54.8 10.8,0.7 17.2,9.7 18.4,11.3 3.3,4.8 9.4,12.9 17.8,4.3 4.1,-4.2 8,-10.3 13.8,-11.8 5.9,-1.5 9.2,2.5 14,-0.3 4.8,-2.8 1.8,-8.8 4.5,-10.4 3.1,-1.7 7.8,4.7 11.2,2.1 3.5,-2.6 2.7,-7.3 6,-9.7 4.3,-3.2 14.1,11.3 20.1,5.3 5,-5 5.4,-27.8 21.8,-46.5 9.8,-11.2 24.4,-8.4 31.2,-30.9 1.5,-4.9 2.5,-8.5 3.5,-11.4 3.1,-1.3 7.3,-2.6 10.5,-3.5 2.1,1.3 5.5,3 8.6,2.9 11,-0.5 17.5,-8 29.7,-8.3 0,0 -18.9,-7.2 -31.1,-3.7 -3.8,1.1 -6.7,4 -8.2,5.9 -2.4,0.7 -5.3,1.5 -8,2.5 2,-4.7 4.4,-8.1 10,-14.5 3,0.5 7.3,0.8 10.6,-0.7 12.1,-5.6 16,-17 29.6,-22.8 0,0 -24.5,0.4 -36.6,10 -4,3.1 -5.9,8 -6.7,10.7 -6.1,4.6 -13.3,12.3 -17.4,24.6 -5.1,15.4 -20.8,17.9 -26.5,17.5 -5.3,-0.4 -8,-3.7 0.5,-8.7 2.8,-0.1 6.8,-0.6 10.2,-2.9 12.1,-8.1 19.6,-30 19.6,-30 -9.2,10.5 -20.6,10.7 -29.1,20 -2.7,3 -3.6,8 -3.9,10.8 l -4.7,3.7 c 1.3,-12.3 5.1,-20.8 8.5,-29 l 10.9,-6 c 2.9,0.5 7.5,0.7 11.6,-1.1 14.1,-6.2 25.9,-27.7 25.9,-27.7 -11.5,9.2 -23.4,7.4 -34,15.5 -3.5,2.7 -5.4,8.1 -6.1,10.8 l -6.2,3.3 c 1.2,-2.9 2.5,-5.8 3.7,-8.6 2.5,-5.8 5,-11.7 7.4,-17.5 l 9.3,-4.8 c 2.7,0.4 8.9,1 13.9,-1.6 15,-7.7 26.5,-31.8 26.5,-31.8 -12,10.8 -25.1,9.5 -36.1,19.1 -3.3,2.8 -4.9,8.3 -5.6,11.3 l -6.1,3.1 c 3.4,-9.2 6.1,-21.2 6.5,-22.7 2.6,-1.6 6.9,-4.5 8.6,-8 6.3,-13.5 -0.7,-22.8 6.6,-37.5 0,0 -18.4,14.7 -21.8,31.6 -1.1,5.6 1.1,11.4 2.2,14 -2.7,12.3 -12.2,38.9 -15.9,45 -0.7,-4.6 -0.7,-11.2 -0.7,-14.3 1.9,-2.3 4.8,-6.5 5,-10.6 0.7,-13.2 -7.5,-21.9 -6.5,-36.5 0,0 -10.9,21.7 -8.1,36.8 0.9,4.8 4.1,8.6 6.2,10.6 0.3,3.3 0.3,13.4 1.3,20.5 -6.1,14.4 -11.4,28.1 -12.9,42.1 -0.5,5 -1.6,9.2 -1.8,9.8 -4.1,14.7 -14,22.9 -19.8,18.8 -1.8,-1.3 -3.5,-3.5 1.1,-10.3 1.8,-2.7 3,-4.6 3,-4.6 2.4,-1.2 6.1,-4 8.2,-7.4 7.1,-11.8 4.3,-34.6 4.3,-34.6 -3.7,12.7 -12.9,18.5 -16.4,29.9 -1.2,3.8 0.2,8.6 1.1,11 0,0 -2.8,4.4 -5.9,7.3 0,-2.9 2.7,-21.4 2.6,-34 l 7.2,-12.9 c 2.7,-1.2 6.7,-3.4 9.2,-7.1 8.6,-12.8 7.1,-37.2 7.1,-37.2 -4.8,14 -15.9,18.7 -20.5,31.3 -1.5,4.2 -0.2,9.7 0.6,12.4 l -3.7,6.5 c -0.1,-4.1 -0.1,-7.9 -0.7,-11.7 -3.1,-21.4 5.5,-41.3 6.5,-44 2.9,-0.4 6.9,-2.1 9.7,-4.9 9.6,-9.9 11.3,-31.6 11.3,-31.6 -6.4,11.6 -19.3,14.8 -23,23.7 -2.1,5 -1.6,9.4 -1.4,11.7 -0.8,1.6 -5.5,14.4 -6.5,19.3 -1.2,-2.9 -2.4,-4.6 -3.7,-8 1,-2.7 2.2,-7.2 1.2,-10.8 -3.4,-12.1 -13.5,-17.4 -17,-30.8 0,0 -3.1,22.8 4,35.5 2.2,3.9 6,6.3 8.5,7.5 1.9,4.6 4.3,9.9 6.1,12.7 -1.3,6.6 0.3,23.1 0.6,26.3 -1.3,-1.7 -2.7,-3.7 -4.2,-5.9 0.4,-2.8 0.7,-7.4 -1.1,-10.7 -5.9,-11 -16.7,-14 -22.9,-26.4 0,0 1.7,22.8 11.3,33.5 2.9,3.3 7.1,4.8 9.8,5.5 2.4,3.4 5.2,7.5 7.4,9.8 0.2,7.1 -0.1,14.7 -1,23.9 -1,-1.3 -2.1,-2.8 -3.1,-4.1 0.4,-2.8 0.7,-8 -1.4,-11.6 -6.4,-11.2 -17.6,-14.1 -24.4,-26.6 0,0 2.4,23.5 12.6,34.4 2.9,3.1 6.9,4.6 9.7,5.3 1.9,2.5 4.3,5.8 6,7.8 -0.7,4.1 -1,11 -2.3,15.6 -3.7,13.6 -11.8,23.6 -17.8,22.7 -4.2,-0.6 -3.6,-4.4 -2.5,-7 1.7,-0.5 5.1,-2.4 8.2,-9.8 5.9,-14.2 -1.3,-28.7 -1.3,-28.7 -1.9,14.6 -9.2,12.6 -11.3,25.8 -1.1,7 0.5,10.3 1.8,11.8 -1.3,3.5 -6.6,10.3 -13.6,12.9 -11.6,4.3 -17.3,0.2 -9.1,-7.6 2.5,-0.9 6.4,-2.8 9.4,-6.3 10.1,-11.6 10.2,-31.5 10.2,-31.5 -6.5,13.3 -14.4,13.2 -20.6,25 -1.8,3.5 -2,7.9 -1.8,10.7 -1.3,1 -5,3.6 -8.3,7.7 -4.4,5.3 -5.9,15 -14.9,19.4 -10.8,5.3 -24,-2.2 -32,-5.5 -22.2,-9.2 -39,4.7 -40.9,6 6.8,-10.7 19.2,-13.1 24.9,-13.6 5.4,-0.4 13.2,-0.4 26.1,4.1 8.7,3 14.1,3.7 17.4,1.8 2.8,-1.7 4.2,-4.6 5.1,-9.2 1,-5.4 1,-11.7 4.6,-15.7 4.1,-4.6 9.1,-2.9 11.5,-7.9 2.4,-5 -3.4,-8.4 -2,-11.1 1.6,-3.2 9.1,-0.4 10.6,-4.4 1.5,-4.1 -1.8,-7.6 -0.4,-11.4 1.8,-5.1 18,1.7 19.7,-6.6 1.4,-6.9 -10.8,-26.2 -7.4,-50.8 2,-14.8 16.3,-20.7 9,-43 -1.1,-3.3 -1.9,-6.6 -2.6,-10 1.6,-2.5 4,-5.9 4.9,-7.3 2.1,0.1 9.4,0.1 14.9,-5.5 7.3,-7.2 9.2,-19.5 9.2,-19.5 0,0 -13.8,-0.1 -21.9,7.4 -5.9,5.5 -5.1,13.1 -4.8,15.3 -0.6,0.9 -1.9,2.7 -3.2,4.7 -2.8,-18.1 1,-26.3 1.2,-26.7 0,0 11.3,-1.5 17,-11.5 6.4,-11.1 4.6,-26.5 4.6,-26.5 0,0 -16.6,4.4 -23.9,16.1 -5.3,8.6 -1.7,17.8 -0.6,20 -3.4,7.5 -7.3,23.8 -3.3,42 2.4,10.6 -3.3,19.1 -7.2,23.2 -0.2,-0.4 -0.5,-0.9 -0.7,-1.3 0.4,-0.8 -0.5,-1.1 0.1,-2.1 0.9,-1.5 4,-6.3 1.7,-7.7 1.4,-3.8 -1.8,-9.1 -5.6,-9.4 -1.5,-6.1 -9.1,-6.1 -10.8,-0.3 -0.7,0.7 -2.6,0.5 -3,1.4 0.4,0.5 1.4,0.5 2,0.6 1.3,0.4 1.4,0.4 2,1.1 -0.4,3.7 -2.1,9.3 0,13 2.5,4.4 5.5,4.6 5.5,4.6 -0.6,0.7 -0.6,4.5 -3.2,2.5 -6.1,-4.9 -11.5,-19.9 -13.8,-27.7 2.2,-1.2 5,-4 6.6,-5.7 2.2,-0.1 10.2,-0.8 14.6,-7.9 6.1,-9.7 3.2,-23.7 3.2,-23.7 0,0 -12.1,4.3 -18,13.2 -4.6,6.8 -3.2,14.2 -2.6,16.3 -1.4,1.4 -3.3,3.2 -4.8,4.3 -2.5,-9.4 -3.8,-18.6 -4.4,-26.9 2.6,-1.5 5.7,-4.2 7.4,-5.7 2.1,0 12.1,-0.2 17.6,-8.4 7.4,-11.1 4.6,-27.5 4.6,-27.5 0,0 -14.2,4.6 -21.5,14.7 -5.6,7.8 -3.9,17.1 -3.4,19.1 -1.4,1.3 -3.3,2.9 -5,4 -0.8,-14.3 0.4,-24.9 0.7,-27.3 2.4,-1.3 8.7,-5.5 10.8,-13.4 2.9,-11 -2.2,-23.7 -2.2,-23.7 0,0 -13.2,7.6 -16.7,19.3 -2.5,8.4 2.3,15.1 3.9,17.1 -0.3,2.1 -1.3,10.5 -1,22.2 -1.5,-1.1 -3.2,-2.6 -4.5,-3.8 0.4,-1.9 1.7,-9.3 -3,-15.8 -6,-8.4 -17.9,-12.2 -17.9,-12.2 0,0 -2.3,13.6 3.9,22.8 4.4,6.6 11.9,7.1 14.2,7.1 1.9,1.7 5.1,4.6 7.4,6 0.7,15.8 3.1,39.7 21.1,73.8 -1.7,-0.5 -3.8,-1.3 -5.5,-2 -0.2,-1.8 -1.5,-8.6 -7.8,-12.8 -8,-5.3 -19.5,-4.8 -19.5,-4.8 0,0 2.4,12.6 10.8,18.6 6,4.3 12.6,2.4 14.7,1.6 2.3,0.9 6.3,2.5 8.7,2.9 3,7.6 6.5,19.1 6.7,25 0.3,11.6 -3,23.8 -10.4,24 -3.9,0.1 -8.5,-2.2 -4.3,-12.5 2.2,-1.1 7.9,-4.7 8.9,-11.8 1.4,-10.3 -6.2,-20.9 -6.2,-20.9 0,0 -8.4,8.1 -10.1,17.7 -1.2,7.6 3,13.4 4.1,14.8 m -224.4,-0.3 c 0.8,-5.6 2.3,-8.6 5,-9.3 2.6,-0.6 3.4,1.6 3,3.6 -0.1,0.7 0,1.3 0.3,1.5 -3,1.9 -5.9,4 -8.5,6.4 0,-0.8 0.1,-1.6 0.2,-2.2 m 14.6,-10.1 c 0.7,-1.3 1.9,-2.2 1.3,-4.3 -0.8,-2.8 10.1,-3.5 10.1,-3.5 1.5,2.1 3.2,3.2 4.6,3.7 -3.2,1 -7,2.4 -10.9,4.1 -0.6,-1.9 -5.6,0.8 -5.1,0 m 226.6,-37.9 c -0.2,-1.3 -0.2,-3.6 0.8,-3.8 0,0 0.9,-0.5 1.3,-0.1 0,1.1 1.8,2 3.5,1.9 -0.1,0.1 -0.3,0.2 -0.4,0.3 -1.8,1.3 -3.6,1.8 -5.2,1.7 M 462,122.7 c 0,0 -3.4,-1.5 -3.7,-0.6 -0.3,0.8 2.7,3.8 2.7,3.8 0,0 -3.2,-0.9 -3.4,-0.2 -0.3,0.7 2.6,3.3 2.6,3.3 0,0 -2.8,-0.2 -2.7,0.8 0,0.9 3.6,2.8 3.6,2.8 0,0 -2.3,0.8 -2.1,1.4 0.1,0.6 3.4,1.3 3.4,1.3 0,0 -2.1,0.9 -1.9,1.9 0.2,1 3.6,0.3 3.6,0.3 0,0 -1.8,1.1 -1.6,2 0.2,0.8 3,-0.1 3,-0.1 0,0 -1.4,1.3 -0.9,2.1 0.5,0.8 3.5,-0.3 3.5,-0.3 0,0 -2.2,1.8 -1.9,2.6 0.3,0.7 2.4,0.6 3.5,0.2 0.4,-0.2 -2.3,1.7 -1.8,2.6 0.3,0.6 3.5,0.6 3.5,0.6 0,0 -2.6,1.6 -2.4,2.1 0.3,1 3.5,0.9 3.5,0.9 -3.5,1 -7.2,6.5 -10.4,8.9 -2.1,1.5 -7.6,4.5 -9.9,6.2 -0.8,0.6 -5.2,3.7 -5,4.3 0.2,0.6 2.5,-0.3 2.5,-0.3 0,0 -4.1,2.4 -3.6,3.3 0.4,0.8 2.4,-0.1 2.4,-0.1 0,0 -2.5,2.4 -2.1,3 0.4,0.6 2.5,-0.8 3.4,-1.5 1.3,-1 6,-5.1 6,-5.1 0,0 -2.2,2.7 -1.2,3.2 1,0.6 5.1,-4.1 5.1,-4.1 0,0 -0.4,1.8 0.6,2 1.5,0.4 3.8,-3.6 3.8,-3.6 -0.3,3 2.2,1 2.9,-0.1 0.5,-0.9 2.1,-3.5 2.9,-4.5 0.3,-0.4 1.4,-0.6 2.8,-0.3 1.1,0.3 4.5,1.2 4.1,3 -0.1,0.5 -0.2,0.8 0.3,1.1 0.2,0.1 0.8,-0.2 0.9,-0.9 0.1,-0.9 -0.1,-1.7 -0.5,-2.3 0.9,0.5 2.2,1.4 1.9,2.4 -0.1,0.5 -0.2,0.8 0.2,1.1 0.2,0.1 0.9,-0.2 1.1,-1 0.2,-0.9 -0.1,-1.7 -0.5,-2.4 4,0.3 8.9,-1.3 10.5,-1.9 1.8,-0.7 3.6,-0.9 5.2,-0.3 1.6,0.6 3.1,0.3 3.8,-0.1 0.9,-0.4 1.8,0.1 1.8,0.1 0.5,1.1 -0.1,1.6 -0.1,1.6 3,0.9 3.3,-2.5 3.3,-2.5 0,0 1.6,-1.2 0.9,-3.9 -0.7,-2.7 -5,-4.2 -5,-4.2 1.7,-1.5 1.6,-1.8 3.5,-2.2 2.6,-0.5 4.7,-1.3 7,-2.4 2.3,-1.1 7,-3 8.8,-3.7 3.7,-1.6 8.8,-7.8 8.7,-8.3 -0.2,-0.5 -5.9,3.5 -7.6,4.5 -0.8,0.5 -4.4,1.9 -4.4,1.9 4.2,-3.3 7.7,-6.9 7.2,-7.6 -0.5,-0.7 -3.9,2.3 -4.9,2.9 -2.7,1.8 -5.2,3.2 -5.2,3.2 0.7,-0.7 5.9,-6.8 5.4,-7.2 -0.5,-0.4 -4.2,2.4 -5.1,3.1 -0.9,0.8 -4,2.6 -4,2.6 0,0 3.5,-4.8 2.6,-5.5 -0.9,-0.6 -3.1,2.3 -4.4,3.6 -0.8,0.8 -1.9,1.9 -1.9,1.9 0,0 0.1,-2.2 -0.9,-2.5 -1,-0.2 -2.8,2.6 -2.8,2.6 0,0 -0.2,-1.7 -1.3,-1.6 -1.1,0 -3.3,3.1 -3.3,3.1 0,0 -0.3,-2.2 -1,-1.9 -0.7,0.3 -2.1,3 -2.1,3 0,0 -0.8,-1.9 -1.6,-1.4 -0.8,0.5 -1.5,2.4 -1.5,2.4 0,0 -0.4,-1.7 -1.6,-1.1 -1.2,0.6 -1.6,2.7 -1.6,2.7 0,0 -0.8,-1.7 -1.4,-1.4 -0.6,0.3 -1.3,2.3 -1.3,2.3 0,0 -1.3,-0.1 -2.7,-1.6 -5,-5.3 -9.7,-21.9 -9.8,-22.8 -0.2,-0.9 -1.4,-6.2 -2.3,-5.9 -0.9,0.3 -0.5,2.1 -0.4,3.3 0.1,2.2 0.6,4.9 0.6,4.9 0,0 -1.9,-5 -3.5,-8.4 -0.9,-1.8 -1.9,-3.5 -2.5,-3.3 -0.6,0.2 -0.1,2.3 0.2,3.8 0.4,2 1,4.1 1,4.1 0,0 -1.9,-3.5 -3.6,-5.8 -0.9,-1.1 -1.9,-2.4 -2.4,-2.3 -0.7,0.1 -0.4,1.8 0.3,3.1 1.1,2 2.5,4.9 2.5,4.9 0,0 -2.4,-2.6 -4,-4.5 -0.7,-0.9 -2.4,-2.8 -2.9,-2.5 -0.6,0.3 0.8,3.5 1.8,4.9 0.9,1.8 3.8,6.5 3.8,6.5"
   id="path4"
   inkscape:connector-curvature="0"
   style="fill:#b99d30" />
	<path
   class="st1"
   d="m 389.5,509.6 v 0.8 h 11.3 v -0.8 c -2,0 -2.2,-0.5 -2.2,-1.7 V 481 h 9.3 c 1.5,0 2.1,0.5 2.1,1.4 h 0.9 V 474 H 410 c 0,0.9 -0.6,1.4 -2.1,1.4 h -25.5 c -1.5,0 -2.1,-0.5 -2.1,-1.4 h -0.9 v 8.5 h 0.9 c 0,-1 0.6,-1.4 2.1,-1.4 h 9.3 V 508 c 0,1.2 -0.2,1.6 -2.2,1.6 m 38.3,-27.2 6.7,14 h -13.3 z m -18.6,25.1 c -0.9,1.8 -1.2,2.1 -2.4,2.2 v 0.8 h 9.8 v -0.8 c -0.6,-0.1 -0.9,-0.3 -0.9,-0.9 0,-0.3 0.1,-0.5 0.3,-1.1 l 2.7,-5.7 H 437 l 2.8,6 c 0.3,0.6 0.4,0.9 0.4,1.1 0,0.3 -0.3,0.6 -1.1,0.6 v 0.8 h 9.9 v -0.8 c -1.3,0 -1.6,-0.4 -2.4,-2.2 l -13.9,-29 c -0.3,-0.7 -0.6,-1.1 -0.6,-1.5 0,-0.4 0.4,-0.7 1.3,-0.9 v -0.8 h -11.1 v 0.8 c 0.8,0.1 1.3,0.4 1.3,1 0,0.4 -0.2,0.9 -0.5,1.3 z m 15.8,38.1 6.1,-6.4 -0.7,-0.4 c -0.4,0.5 -0.8,0.5 -1.3,0.4 -1.3,-0.2 -4.8,-4.4 -14.2,-4.4 -11.7,0 -19.9,8.2 -19.9,18.2 0,10.1 8.4,18.1 19.6,18.1 10.3,0 13.9,-5.2 15.2,-5.5 0.2,0 0.5,0 0.6,0 l 0.4,-0.3 -6.1,-5.6 -0.5,0.4 c 0.1,0.2 0.4,0.7 0.4,1 -0.1,0.8 -3.5,4.2 -9.8,4.2 -7.4,0 -12.7,-5.6 -12.7,-12.5 0,-6.9 5.4,-12.4 12.7,-12.4 5.5,0 9.4,3 9.6,3.7 0.1,0.4 0,0.7 -0.1,0.8 z m 39.5,-11.5 h -0.9 c 0,0.9 -0.6,1.4 -2.1,1.4 h -25.4 c -1.5,0 -2.1,-0.5 -2.1,-1.4 h -0.9 v 8.5 h 0.9 c 0,-1 0.6,-1.4 2.1,-1.4 h 9.3 v 26.9 c 0,1.3 -0.2,1.7 -2.2,1.7 v 0.8 h 11.3 v -0.8 c -2,0 -2.2,-0.5 -2.2,-1.7 v -26.9 h 9.3 c 1.5,0 2.1,0.5 2.1,1.4 h 0.9 v -8.5 z m -161,16.2 c -7.4,-1.6 -9.2,-2.8 -9.2,-5.6 0,-2.4 2.3,-4.2 6.3,-4.2 5.3,0 8.9,2.7 8.8,3.5 0,0.3 -0.2,0.6 -0.2,0.8 l 0.9,0.7 5.3,-6.8 -0.9,-0.4 c -0.2,0.1 -0.4,0.3 -1,0.2 -1,-0.1 -4.8,-3.4 -12.8,-3.4 -7.7,0 -13.2,4.1 -13.2,10.2 0,6.5 4.6,8.7 12.9,10.5 7.2,1.5 8.7,2.9 8.7,5.4 0,2.7 -2.6,4.5 -6.8,4.5 -6.3,0 -10.9,-3.2 -10.6,-4.3 0.1,-0.4 0.3,-0.6 0.4,-0.9 l -0.8,-0.7 -5.9,6.4 0.7,0.4 c 0.3,-0.1 0.6,-0.3 1,-0.2 0.7,0.2 5.8,4.8 15.1,4.8 8.1,0 13.8,-3.9 13.8,-10.5 -0.1,-6 -4.4,-8.6 -12.5,-10.4 m 73.7,-14 c 2,0 2.3,0.5 2.3,1.7 v 30.1 c 0,1.3 -0.3,1.7 -2.3,1.7 v 0.8 h 11.3 v -0.8 c -2,0 -2.2,-0.5 -2.2,-1.7 V 538 c 0,-1.3 0.2,-1.7 2.2,-1.7 v -0.8 H 377.2 Z M 318.7,505 h -11.3 v -9.6 h 10.8 c 5.4,0 7.9,1.8 7.9,4.8 0.1,3.1 -2.8,4.8 -7.4,4.8 m -11.3,-24.2 h 9.8 c 4.4,0 6.8,1.7 6.8,4.5 0,3.3 -2.9,4.8 -7.3,4.8 h -9.3 z m 17.9,11.4 c 2.9,-1.4 5.5,-3.6 5.5,-7.9 0,-5.5 -4.9,-9 -12.7,-9 h -19.6 v 0.8 c 2,0 2.2,0.5 2.2,1.7 v 30.1 c 0,1.3 -0.2,1.7 -2.2,1.7 v 0.8 h 20.1 c 8.6,0 14.3,-3.4 14.3,-9.7 0,-4.8 -3.1,-7.1 -7.6,-8.5 m 38.4,44.1 c 0.5,0 0.9,0.2 1.1,0.4 0.2,0.3 -0.1,0.8 -0.9,2.7 l -9.9,23 -9.9,-23 c -0.8,-1.9 -1.1,-2.4 -0.9,-2.7 0.2,-0.2 0.6,-0.4 1.1,-0.4 v -0.8 h -10.5 v 0.8 c 1.4,0.1 1.8,0.8 2.5,2.2 l 13.1,28.9 c 0.3,0.6 0.5,1 0.5,1.5 0,0.6 -0.4,0.9 -1.2,0.9 v 0.8 h 10.5 v -0.8 c -0.8,0 -1.2,-0.3 -1.2,-0.9 0,-0.5 0.2,-0.9 0.5,-1.5 l 13.1,-28.9 c 0.7,-1.5 1.1,-2.2 2.5,-2.2 v -0.8 h -10.3 v 0.8 z m 189.1,0 c 2,0 2.2,0.5 2.2,1.7 v 30.1 c 0,1.3 -0.3,1.7 -2.2,1.7 v 0.8 h 11.3 v -0.8 c -2,0 -2.2,-0.5 -2.2,-1.7 V 538 c 0,-1.3 0.2,-1.7 2.2,-1.7 v -0.8 h -11.3 z m 28,20.4 6.6,-14 6.7,14 z m 25.4,11 -13.9,-29 c -0.3,-0.6 -0.6,-1.1 -0.6,-1.5 0,-0.4 0.4,-0.7 1.3,-0.9 v -0.8 h -11.1 v 0.8 c 0.8,0.1 1.3,0.4 1.3,1 0,0.4 -0.2,0.9 -0.5,1.3 l -14,29 c -0.9,1.8 -1.2,2.1 -2.4,2.2 v 0.8 h 9.8 v -0.8 c -0.6,-0.1 -0.9,-0.4 -0.9,-0.9 0,-0.2 0.1,-0.5 0.3,-1.1 l 2.7,-5.7 h 18.3 l 2.8,6 c 0.3,0.6 0.4,0.9 0.4,1.1 0,0.3 -0.3,0.6 -1.1,0.6 v 0.8 h 10.1 v -0.8 c -1.4,0 -1.6,-0.4 -2.5,-2.1 M 248.5,509.6 v 0.8 h 26.3 c 1.5,0 2.1,0.5 2.1,1.3 h 0.9 v -8.3 h -0.9 c 0,0.9 -0.6,1.4 -2.1,1.4 h -17.3 v -27 c 0,-1.3 0.2,-1.7 2.2,-1.7 v -0.8 h -11.3 v 0.8 c 2,0 2.2,0.5 2.2,1.7 v 30.1 c 0.1,1.3 -0.1,1.7 -2.1,1.7 M 497,476.1 c 2,0 2.2,0.5 2.2,1.7 v 30.1 c 0,1.3 -0.2,1.7 -2.2,1.7 v 0.8 h 11.3 v -0.8 c -2,0 -2.2,-0.5 -2.2,-1.7 v -30.1 c 0,-1.3 0.2,-1.7 2.2,-1.7 v -0.8 H 497 Z m 47.8,9.3 6.1,-6.4 -0.7,-0.4 c -0.4,0.5 -0.8,0.5 -1.3,0.4 -1.3,-0.2 -4.8,-4.4 -14.2,-4.4 -11.7,0 -19.9,8.2 -19.9,18.2 0,10.1 8.4,18.1 19.6,18.1 10.3,0 14,-5.2 15.2,-5.5 0.1,0 0.5,0 0.6,0 l 0.4,-0.3 -6.1,-5.6 -0.5,0.4 c 0.1,0.2 0.4,0.7 0.4,1 -0.1,0.8 -3.5,4.2 -9.8,4.2 -7.4,0 -12.7,-5.6 -12.7,-12.5 0,-6.9 5.3,-12.4 12.7,-12.4 5.5,0 9.4,3 9.6,3.7 0.1,0.4 0,0.7 -0.1,0.8 z m -60,80.2 c -7.7,0 -13.1,-5.7 -13.1,-12.5 0,-6.9 5.4,-12.4 13,-12.4 7.7,0 13.1,5.7 13.1,12.5 0,6.8 -5.4,12.4 -13,12.4 m 0,-30.7 c -11.9,0 -20.3,8.3 -20.3,18.2 0,9.9 8.3,18.1 20.1,18.1 11.9,0 20.2,-8.3 20.2,-18.2 0.1,-9.9 -8.2,-18.1 -20,-18.1 m 35.6,18 v -11.8 h 9.9 c 5,0 8,2 8,5.9 0,3.6 -3.1,5.9 -7.9,5.9 z m 24.1,15.2 -8.5,-10.8 c 5.4,-1.4 9.2,-4.9 9.2,-10.7 0,-6.9 -5.5,-11.1 -14.3,-11.1 h -17.2 v 0 h -2.2 v 0.8 c 2,0 2.2,0.5 2.2,1.7 v 30.1 c 0,1.3 -0.3,1.7 -2.2,1.7 v 0.8 h 11.3 v -0.8 c -2,0 -2.2,-0.5 -2.2,-1.7 v -9.7 h 8.5 l 7.3,9.4 c 0.6,0.8 0.8,1.1 0.8,1.5 0,0.2 -0.1,0.5 -0.9,0.5 v 0.8 h 10.9 v -0.8 c -1.4,0 -1.9,-0.5 -2.7,-1.7 m -93.1,-58.5 v 0.8 h 9.9 v -0.8 c -1.4,0 -1.7,-0.5 -1.7,-1.7 v -22.5 l 18.9,22.2 c 0.7,0.9 0.9,1 0.9,1.5 0,0.3 -0.7,0.5 -1.3,0.5 v 0.8 h 10.2 v -0.8 c -1.2,0 -1.7,-0.5 -1.7,-1.7 v -30.1 c 0,-1.3 0.4,-1.7 1.7,-1.7 v -0.8 h -10 v 0.8 c 1.5,0 1.6,0.5 1.6,1.7 v 21.8 l -18.6,-21.9 c -0.7,-0.8 -0.7,-0.9 -0.7,-1 0,-0.3 0.5,-0.6 1.7,-0.6 v -0.8 h -10.8 v 0.8 c 1.4,0 1.5,0.5 1.5,1.7 v 30.1 c -0.1,1.3 -0.2,1.7 -1.6,1.7 m -92.2,-29.2 c 7.7,0 13.1,5.7 13.1,12.5 0,6.9 -5.4,12.4 -13,12.4 -7.7,0 -13.1,-5.7 -13.1,-12.5 -0.1,-6.8 5.3,-12.4 13,-12.4 m 0,30.6 c 11.9,0 20.2,-8.3 20.2,-18.2 0,-9.9 -8.3,-18.1 -20.1,-18.1 -11.9,0 -20.2,8.3 -20.2,18.2 -0.1,10 8.2,18.1 20.1,18.1 M 174,565 h -7.6 v -23.9 h 7.6 c 8.1,0 13.4,5.1 13.4,12 0,6.9 -5.3,11.9 -13.4,11.9 m 0,-29.5 h -16.6 v 0.8 c 2,0 2.2,0.5 2.2,1.7 v 30.1 c 0,1.3 -0.2,1.7 -2.2,1.7 v 0.8 H 174 c 12.1,0 20.5,-7.7 20.5,-17.6 0,-9.9 -8.4,-17.5 -20.5,-17.5 M 99.3,492.7 v -11.8 h 9.9 c 5,0 8,2 8,5.9 0,3.6 -3.1,5.9 -7.9,5.9 z m 15.7,16.9 v 0.8 h 11 v -0.8 c -1.3,0 -1.8,-0.6 -2.7,-1.7 l -8.5,-10.8 c 5.4,-1.4 9.2,-4.9 9.2,-10.7 0,-6.9 -5.5,-11.1 -14.3,-11.1 H 92.5 v 0 h -2.2 v 0.8 c 2,0 2.2,0.4 2.2,1.7 v 30.1 c 0,1.3 -0.2,1.7 -2.2,1.7 v 0.8 h 11.3 v -0.8 c -2,0 -2.2,-0.5 -2.2,-1.7 v -9.7 h 8.5 l 7.3,9.4 c 0.6,0.8 0.8,1.1 0.8,1.5 -0.1,0.3 -0.2,0.5 -1,0.5 m 36.3,-29.2 c 7.7,0 13.1,5.7 13.1,12.5 0,6.9 -5.4,12.4 -13,12.4 -7.7,0 -13.1,-5.7 -13.1,-12.5 0,-6.8 5.4,-12.4 13,-12.4 m 0,30.6 c 11.9,0 20.3,-8.3 20.3,-18.2 0,-9.9 -8.3,-18.1 -20.1,-18.1 -11.9,0 -20.2,8.3 -20.2,18.2 -0.1,10 8.2,18.1 20,18.1 M 125,552.9 v -11.8 h 9.9 c 5,0 8,2 8,5.9 0,3.6 -3.1,5.9 -7.9,5.9 z m 24,15.2 -8.5,-10.8 c 5.4,-1.4 9.2,-4.9 9.2,-10.7 0,-6.9 -5.5,-11.1 -14.3,-11.1 h -17.2 v 0 H 116 v 0.8 c 2,0 2.2,0.5 2.2,1.7 v 30.1 c 0,1.3 -0.2,1.7 -2.2,1.7 v 0.8 h 11.3 v -0.8 c -2,0 -2.2,-0.5 -2.2,-1.7 v -9.7 h 8.5 l 7.3,9.4 c 0.6,0.8 0.8,1.1 0.8,1.5 0,0.2 -0.1,0.5 -0.9,0.5 v 0.8 h 10.9 v -0.8 c -1.3,0 -1.8,-0.5 -2.7,-1.7 m 119,-31.8 c 1.5,0 1.6,0.5 1.6,1.7 v 21.8 L 251,537.9 c -0.7,-0.8 -0.7,-0.9 -0.7,-1 0,-0.3 0.5,-0.6 1.7,-0.6 v -0.8 h -10.8 v 0.8 c 1.4,0 1.5,0.5 1.5,1.7 v 30.1 c 0,1.3 -0.1,1.7 -1.5,1.7 v 0.8 h 9.9 v -0.8 c -1.4,0 -1.7,-0.5 -1.7,-1.7 v -22.5 l 18.9,22.2 c 0.7,0.9 0.9,1 0.9,1.5 0,0.3 -0.7,0.5 -1.3,0.5 v 0.8 h 10.2 v -0.8 c -1.2,0 -1.7,-0.5 -1.7,-1.7 V 538 c 0,-1.3 0.4,-1.7 1.7,-1.7 v -0.8 h -10 v 0.8 z M 68.6,551 H 55.1 c -1.2,0 -2,-0.6 -2,-1.4 h -0.9 v 4.6 3.5 h 0.9 c 0,-0.8 0.7,-1.4 2,-1.4 h 7 v 6.6 c -2.4,1.6 -5.7,2.7 -9.3,2.7 -7.9,0 -13.1,-5.3 -13.1,-12.6 0,-6.8 5.4,-12.4 12.5,-12.4 5.7,0 8.7,2.2 9,2.7 0.3,0.5 0.1,1.2 -0.1,1.7 l 0.8,0.7 6.4,-6.9 -0.8,-0.5 c -0.3,0.3 -0.9,0.5 -1.5,0.4 -1,-0.2 -4.4,-3.7 -13.5,-3.7 -11.6,0 -19.9,8.3 -19.9,18.2 0,10.3 8,18.1 20,18.1 7.9,0 15.7,-4.1 17.2,-5.2 v -0.8 c -0.8,-0.2 -1.1,-0.5 -1.1,-1.4 v -10.2 c 0,-1.3 0.6,-1.7 1.2,-1.8 V 551 Z m 17.2,5.7 6.6,-14 6.7,14 z m 25.4,11 -13.9,-29 c -0.3,-0.7 -0.6,-1.1 -0.6,-1.5 0,-0.4 0.4,-0.7 1.3,-0.9 v -0.8 H 86.9 v 0.8 c 0.8,0.1 1.3,0.4 1.3,1 0,0.4 -0.2,0.9 -0.5,1.3 l -14,29 c -0.9,1.8 -1.2,2.1 -2.4,2.2 v 0.8 h 9.8 v -0.8 c -0.6,-0.1 -0.9,-0.4 -0.9,-0.9 0,-0.2 0.1,-0.5 0.3,-1.1 l 2.7,-5.7 h 18.3 l 2.8,6 c 0.3,0.6 0.4,0.9 0.4,1.1 0,0.3 -0.3,0.6 -1.1,0.6 v 0.8 h 10.1 v -0.8 c -1.4,0 -1.6,-0.4 -2.5,-2.1 m 82,-59.8 v -11.3 l 13.2,-18.3 c 0.8,-1.2 1.9,-2.1 3.2,-2.1 v -0.8 h -11.2 v 0.8 c 0.4,0.1 0.9,0.4 0.9,0.7 0,0.2 -0.2,0.5 -0.5,0.9 l -9.1,13.2 -9.1,-13.2 c -0.2,-0.3 -0.5,-0.7 -0.5,-0.9 0,-0.3 0.4,-0.7 0.9,-0.7 v -0.8 h -11.2 v 0.8 c 1.3,0.1 2.4,1 3.2,2.1 l 13.2,18.3 v 0 11.3 c 0,1.3 -0.2,1.7 -2.2,1.7 v 0.8 h 11.3 v -0.8 c -1.8,0 -2.1,-0.4 -2.1,-1.7 m 25.1,-11.4 6.6,-14 6.7,14 z m 17.8,13.1 v 0.8 h 10.1 v -0.8 c -1.3,0 -1.6,-0.4 -2.4,-2.2 l -13.9,-29 c -0.3,-0.7 -0.6,-1.1 -0.6,-1.5 0,-0.4 0.4,-0.7 1.3,-0.9 v -0.8 h -11.1 v 0.8 c 0.8,0.1 1.3,0.4 1.3,1 0,0.4 -0.2,0.9 -0.5,1.3 l -14,29 c -0.9,1.8 -1.2,2.1 -2.4,2.2 v 0.8 h 9.8 v -0.8 c -0.6,-0.1 -0.9,-0.3 -0.9,-0.9 0,-0.3 0.1,-0.5 0.3,-1.1 l 2.7,-5.7 H 234 l 2.8,6 c 0.3,0.6 0.4,0.9 0.4,1.1 0,0.4 -0.3,0.7 -1.1,0.7 m -6.9,55.5 H 210 v -9.4 h 16.4 c 1.5,0 2.1,0.5 2.1,1.4 h 0.9 v -8.3 h -0.9 c 0,0.9 -0.6,1.4 -2.1,1.4 H 210 V 541 h 18.9 c 1.5,0 2.1,0.5 2.1,1.4 h 0.9 v -8.3 H 231 c 0,0.9 -0.6,1.4 -2.1,1.4 H 201 v 0.8 c 2,0 2.2,0.5 2.2,1.7 v 30.1 c 0,1.3 -0.2,1.7 -2.2,1.7 v 0.8 h 28.2 c 1.5,0 2.1,0.5 2.1,1.4 h 0.9 v -8.3 h -0.9 c 0,0.9 -0.6,1.4 -2.1,1.4"
   id="path6"
   inkscape:connector-curvature="0"
   style="fill:#41463f" />
</g>
</svg>