<?xml version="1.0" encoding="utf-8"?>
<!-- Generator: Adobe Illustrator 21.1.0, SVG Export Plug-In . SVG Version: 6.00 Build 0)  -->
<svg version="1.1" id="Layer_1" xmlns="http://www.w3.org/2000/svg" xmlns:xlink="http://www.w3.org/1999/xlink" x="0px" y="0px"
	 viewBox="0 0 274 96" style="enable-background:new 0 0 274 96;" xml:space="preserve">
<style type="text/css">
	.st0{fill:#82BC00;}
</style>
<g>
	<g>
		<path d="M211.6,58.3l0.4-13.2l-0.8-0.1c-0.4,2-0.9,3.6-1.3,4.8c-0.5,1.2-1.1,2.3-1.8,3.3c-1.1,1.4-2.5,2.5-4.3,3.1
			c-1.7,0.7-3.9,1-6.4,1c-2.4,0-4.4-0.4-5.9-1.1c-1.5-0.7-2.6-1.8-3.3-3.4c-0.4-0.9-0.7-2-0.9-3.4c-0.2-1.4-0.2-3.5-0.2-6.4V24.6
			c0-2.2,0.1-3.9,0.4-5c0.3-1.1,0.7-2,1.5-2.7c0.6-0.6,1.2-1,2-1.2c0.8-0.3,1.7-0.4,2.9-0.5v-0.7h-20.5v0.7c1.2,0,2.1,0.2,2.8,0.5
			c0.7,0.3,1.4,0.7,2,1.2c0.7,0.7,1.2,1.6,1.5,2.7c0.3,1.1,0.4,2.8,0.4,5v23.7c0,2.2-0.1,3.8-0.4,4.9c-0.2,1.1-0.7,1.9-1.4,2.6
			c-1.2,1.2-2.8,1.8-5,1.8v0.8H211.6z"/>
		<path d="M228.4,47.9c0,2.7-0.3,4.8-1,6.2c-0.5,1.1-1.2,2-2.1,2.6c-0.9,0.7-1.9,1-3,1c-1.2,0-2.2-0.5-3-1.4
			c-0.8-0.9-1.2-2.1-1.2-3.5c0-1.6,0.5-3.1,1.5-4.3c0.5-0.6,1-1.1,1.6-1.5c0.6-0.4,1.7-1.1,3.2-1.9c1.4-0.7,2.7-1.6,3.8-2.5V47.9z
			 M237.7,56.6c-0.4,0.2-0.9,0.4-1.6,0.4c-1.4,0-2.3-0.8-2.6-2.3c-0.2-0.7-0.3-2.1-0.3-4.1V38.7c0-1.5-0.1-2.6-0.3-3.2
			c-0.3-1.3-1.2-2.3-2.6-3.1c-1-0.5-2.2-1-3.6-1.3c-1.4-0.3-2.8-0.5-4.2-0.5c-1.2,0-2.4,0.1-3.6,0.4c-1.2,0.2-2.3,0.6-3.1,0.9
			c-1.5,0.8-2.3,1.7-2.3,2.8c0,0.7,0.2,1.3,0.7,1.8c0.5,0.5,1.1,0.7,1.8,0.7c1.1,0,1.9-0.5,2.3-1.5l0.8-1.9c0.3-0.8,0.9-1.4,1.5-1.9
			c0.7-0.4,1.5-0.7,2.3-0.7c0.7,0,1.4,0.2,2.1,0.5c0.7,0.3,1.2,0.7,1.7,1.3c0.9,1.2,1.4,3,1.4,5.5c0,1.2-0.1,2.1-0.4,2.8
			c-0.3,0.7-0.7,1.2-1.4,1.7c-0.6,0.4-1.3,0.8-2.2,1.2c-0.9,0.3-2.3,0.7-4.1,1.2c-1.6,0.4-2.8,0.8-3.6,1.2c-0.8,0.4-1.6,0.9-2.2,1.6
			c-1.1,1.2-1.7,2.7-1.7,4.5c0,1.9,0.7,3.5,2.1,4.6c1.4,1.1,3.3,1.7,5.6,1.7c1.8,0,3.5-0.4,4.9-1.2c0.7-0.4,1.8-1.3,3.2-2.5
			c0.7,1.2,1.4,2.1,2.1,2.6c1,0.7,2.3,1.1,3.8,1.1c2.8,0,4.5-1.1,5.3-3.4l-0.5-0.3C238.5,55.9,238.1,56.4,237.7,56.6"/>
		<path d="M246,35.6c0.5-1.2,1.3-2.2,2.4-3c1.1-0.8,2.2-1.1,3.5-1.1c1,0,2,0.3,3,0.8c1,0.5,1.9,1.3,2.7,2.4c1,1.3,1.8,2.8,2.4,4.6
			c0.6,1.8,0.8,3.7,0.8,5.7c0,3.8-0.8,7-2.5,9.5c-1.7,2.5-3.8,3.7-6.4,3.7c-1.2,0-2.3-0.3-3.3-0.9c-1-0.6-1.7-1.4-2.2-2.5
			c-0.4-0.9-0.7-2.3-1-4.2c-0.3-1.9-0.4-4-0.4-6.3C244.8,40.3,245.2,37.4,246,35.6 M244.8,13.2l-9.8,1.3v0.8c1.8,0,3.1,0.5,3.8,1.6
			c0.8,1,1.1,2.8,1.1,5.2v37.7h1.3c0.8-1.8,1.8-2.7,2.9-2.7c0.4,0,0.8,0.1,1.3,0.3l1.8,0.7c1.4,0.6,3.1,0.8,5.2,0.8
			c3.9,0,7.1-1.2,9.5-3.5c2.9-2.7,4.3-6.3,4.3-11c0-4.6-1.5-8.2-4.5-10.8c-2.4-2.1-5.2-3.1-8.5-3.1c-2.3,0-4.3,0.5-5.9,1.6
			c-0.8,0.5-1.7,1.4-2.6,2.5V13.2z"/>
	</g>
	<g>
		<path d="M16.2,58.2c0.4-1,1.1-1.5,2.1-1.5c0.3,0,0.6,0,0.9,0.1c0.3,0.1,1,0.4,2.4,1c2.5,1.1,5.2,1.6,8,1.6c3,0,5.6-0.7,7.9-2
			c2.2-1.4,3.9-3.3,5-5.8c0.8-1.8,1.2-3.7,1.2-5.6c0-3-0.9-5.6-2.6-7.8c-1.5-2-4.1-3.8-7.5-5.5l-4.5-2.2c-4.6-2.2-6.9-5.1-6.9-8.7
			c0-0.9,0.2-1.8,0.5-2.7c0.3-0.9,0.8-1.7,1.4-2.3c1.4-1.6,3.3-2.4,5.7-2.4c1.6,0,3.1,0.4,4.4,1.2c1.3,0.8,2.4,2,3.5,3.7
			c0.6,0.9,1.1,1.9,1.5,3c0.4,1.1,0.9,2.6,1.5,4.7h0.7l-0.2-12.8h-0.7c-0.3,1.1-0.8,1.6-1.5,1.6c-0.3,0-0.6-0.1-1-0.2
			c-0.4-0.1-1.1-0.4-2.2-0.8c-1.4-0.6-2.6-1-3.4-1.2c-0.9-0.2-1.8-0.3-2.8-0.3c-3.1,0-5.8,1-8.1,3.1c-1.3,1.2-2.3,2.6-3,4.2
			c-0.7,1.7-1.1,3.4-1.1,5.1c0,2.9,0.9,5.3,2.8,7.4c0.7,0.7,1.5,1.4,2.6,2.2c1.1,0.7,2.6,1.6,4.7,2.6c2.3,1.2,4,2.2,5.2,2.9
			c1.1,0.8,2,1.6,2.6,2.4c0.6,0.8,1.1,1.8,1.4,2.9c0.4,1.1,0.5,2.2,0.5,3.3c0,2.5-0.8,4.6-2.4,6.3c-1.6,1.6-3.6,2.5-6.1,2.5
			c-3.5,0-6.5-1.8-8.8-5.4c-1.2-1.9-2.3-4.6-3.2-8l-0.7,0l-0.1,13.3H16.2z"/>
		<path d="M65.7,55.6c-1.3,1.3-3,2-5.1,2c-2.5,0-4.6-1-6.5-2.9c-1.2-1.2-2.1-2.7-2.8-4.6c-0.7-1.8-1-3.7-1-5.6
			c0-2.1,0.4-4.2,1.1-6.4c0.5-1.4,1.1-2.6,1.7-3.5c0.7-0.9,1.4-1.7,2.4-2.3c1.1-0.7,2.2-1.1,3.5-1.1c1,0,1.8,0.2,2.4,0.7
			c0.3,0.3,0.6,0.6,0.8,0.9c0.2,0.3,0.4,1,0.7,1.9c0.7,2,1.7,3.1,3.1,3.1c0.6,0,1.2-0.2,1.6-0.7c0.5-0.5,0.7-1,0.7-1.7
			c0-1-0.5-2-1.6-2.8c-1.8-1.4-4.2-2.1-7.3-2.1c-2.2,0-4.3,0.4-6.2,1.2c-1.9,0.8-3.5,1.9-4.8,3.4c-1.2,1.3-2.1,2.9-2.7,4.7
			c-0.7,1.8-1,3.7-1,5.6c0,3.9,1.2,7,3.6,9.6c2.5,2.6,5.9,3.9,10.2,3.9c2.7,0,4.8-0.5,6.4-1.5c1.5-1,2.7-2.6,3.4-4.9l-0.6-0.2
			C67,53.8,66.4,54.9,65.7,55.6"/>
		<path d="M68.5,32.4c1,0.1,1.7,0.2,2.2,0.5c0.5,0.3,1,0.7,1.3,1.3c0.4,0.6,0.6,1.3,0.7,2.2c0.1,0.9,0.2,2.4,0.2,4.6v7.9
			c0,1.9,0,3.3-0.1,4.3c-0.1,1-0.3,1.7-0.5,2.2c-0.3,0.7-0.8,1.3-1.3,1.6c-0.6,0.3-1.5,0.5-2.8,0.7v0.7h14.2v-0.7
			c-1.6-0.3-2.7-0.7-3.3-1.3c-0.5-0.4-0.8-1-1-1.7c-0.2-0.7-0.3-1.7-0.3-3.2l0-2.4V30.6l-9.3,1.2V32.4z"/>
		<path d="M75.1,25.3c1.7,0,3-1.3,3-3c0-1.7-1.4-3-3-3c-1.7,0-3,1.4-3,3C72.1,24,73.5,25.3,75.1,25.3"/>
	</g>
	<g>
		<path class="st0" d="M160.7,11.3c0,0,4.2-4.3,4.2-4.3c-5.9-1.3-13.5,0.5-18.4,6.8c-5.4,6.9-6,16.7-6.1,19c0,0-2.6,0-2.6,0
			l-3.5,3.7h5.7c0,0-3.1,32.4-3.4,34.2c-0.2,1.7-1.6,17.3-15.3,12.7c0,0-4.1,3.8-4.1,3.8c6.6,2.3,22.7-0.8,24.6-24.3
			c1.4-17.1,2.7-26.4,2.7-26.4s8.6,0,8.5,0c-0.5,0.8-2.4,3.6-2.3,8.6c0,8.6,6.3,13.9,14.3,13.9c9.5,0,10.9-6.6,11.2-7.7
			c0,0-0.6-0.2-0.6-0.2c-0.7,1.9-2.2,5.6-8.4,5.7c-7.7,0.1-11.9-8.8-10.6-16c0-0.1,18.9,0,18.9,0c-0.2-11-10.9-10.6-12.7-10.2
			c0,0,0,0.7,0,0.7c7.1-1,7.8,6.7,7.8,8.2c0,0-13.9,0.1-13.9,0.1c0.2-1.6,1.1-4.9,2.8-6.4c0.4-0.4-14.6-0.2-14.6-0.2s0.6-6,0.8-7.4
			C146.1,21.1,146.6,6.4,160.7,11.3"/>
		<path class="st0" d="M121.6,58.3l0.4-13.2l-0.8-0.1c-0.4,2-0.9,3.6-1.3,4.8c-0.5,1.2-1.1,2.3-1.8,3.3c-1.1,1.4-2.5,2.5-4.3,3.1
			c-1.7,0.7-3.9,1-6.4,1c-2.4,0-4.4-0.4-5.9-1.1c-1.5-0.7-2.6-1.8-3.3-3.4c-0.4-0.9-0.7-2-0.9-3.4C97.1,48.1,97,46,97,43.1V24.6
			c0-2.2,0.1-3.9,0.4-5c0.3-1.1,0.8-2,1.5-2.7c0.6-0.6,1.2-1,2-1.2c0.8-0.3,1.7-0.4,2.9-0.5v-0.7H83.2v0.7c1.2,0,2.1,0.2,2.8,0.5
			c0.7,0.3,1.4,0.7,2,1.2c0.7,0.7,1.2,1.6,1.5,2.7c0.3,1.1,0.4,2.8,0.4,5v23.7c0,2.2-0.1,3.8-0.4,4.9c-0.2,1.1-0.7,1.9-1.4,2.6
			c-1.2,1.2-2.8,1.8-5,1.8v0.8H121.6z"/>
		<path class="st0" d="M123.1,32.4c1,0.1,1.7,0.2,2.2,0.5c0.5,0.3,1,0.7,1.3,1.3c0.4,0.6,0.6,1.3,0.7,2.2c0.1,0.9,0.2,2.4,0.2,4.6
			v7.9c0,1.9,0,3.3-0.1,4.3c-0.1,1-0.3,1.7-0.5,2.2c-0.3,0.7-0.8,1.3-1.3,1.6c-0.6,0.3-1.5,0.5-2.8,0.7v0.7H137v-0.7
			c-1.6-0.3-2.7-0.7-3.3-1.3c-0.5-0.4-0.8-1-1-1.7c-0.2-0.7-0.3-1.7-0.3-3.2l0-2.4V30.6l-9.3,1.2V32.4z"/>
		<path class="st0" d="M129.9,25.3c1.7,0,3-1.3,3-3c0-1.7-1.4-3-3-3c-1.7,0-3,1.4-3,3C126.9,24,128.3,25.3,129.9,25.3"/>
	</g>
</g>
</svg>
