<svg id="Layer_1" data-name="Layer 1" xmlns="http://www.w3.org/2000/svg" xmlns:xlink="http://www.w3.org/1999/xlink" viewBox="0 0 268.94 61.89"><defs><clipPath id="clip-path" transform="translate(-5.54 -2.26)"><rect x="5.54" y="2.26" width="268.95" height="61.89" style="fill:none"/></clipPath><clipPath id="clip-path-2" transform="translate(-5.54 -2.26)"><rect x="5.54" y="2.26" width="268.94" height="61.89" style="fill:none"/></clipPath><clipPath id="clip-path-3" transform="translate(-5.54 -2.26)"><path d="M20.41,33.55l-.15,0-.23,0a10.48,10.48,0,0,0-5.17,1l-.34.82s6.19-4,10.91,1.14A8.25,8.25,0,0,0,20.41,33.55Z" style="fill:none"/></clipPath><clipPath id="clip-path-4" transform="translate(-5.54 -2.26)"><rect x="14.52" y="31.24" width="10.91" height="5.19" style="fill:none"/></clipPath><clipPath id="clip-path-5" transform="translate(-5.54 -2.26)"><rect x="14.68" y="31.16" width="10.91" height="5.19" style="fill:none"/></clipPath><linearGradient id="linear-gradient" x1="-1.56" y1="-4.28" x2="-0.56" y2="-4.28" gradientTransform="matrix(10.91, 0, 0, -10.91, 26.19, -14.1)" gradientUnits="userSpaceOnUse"><stop offset="0" stop-color="#fff"/><stop offset="0.16" stop-color="#e8e8f0"/><stop offset="0.5" stop-color="#acadcb"/><stop offset="0.94" stop-color="#585a96"/><stop offset="1" stop-color="#585a96"/></linearGradient><clipPath id="clip-path-7" transform="translate(-5.54 -2.26)"><path d="M36.32,34.59a10.9,10.9,0,0,0-5.59-.91,10.71,10.71,0,0,1,5.85,1.58Z" style="fill:none"/></clipPath><clipPath id="clip-path-8" transform="translate(-5.54 -2.26)"><rect x="30.73" y="33.36" width="5.85" height="1.91" style="fill:none"/></clipPath><clipPath id="clip-path-9" transform="translate(-5.54 -2.26)"><rect x="30.8" y="33.55" width="5.85" height="1.91" style="fill:none"/></clipPath><linearGradient id="linear-gradient-2" x1="-1.56" y1="-4.28" x2="-0.56" y2="-4.28" gradientTransform="matrix(5.85, 0, 0, -5.85, 34.41, 7.31)" gradientUnits="userSpaceOnUse"><stop offset="0" stop-color="#585a96"/><stop offset="0.1" stop-color="#585a96"/><stop offset="0.22" stop-color="#696aa0"/><stop offset="0.47" stop-color="#9495bc"/><stop offset="0.82" stop-color="#d9d9e7"/><stop offset="1" stop-color="#fff"/></linearGradient><clipPath id="clip-path-11" transform="translate(-5.54 -2.26)"><path d="M14.45,34.09l-.34.75a10.67,10.67,0,0,1,7.49-1.05A11.08,11.08,0,0,0,14.45,34.09Z" style="fill:none"/></clipPath><clipPath id="clip-path-12" transform="translate(-5.54 -2.26)"><rect x="14.11" y="32.69" width="7.48" height="2.15" style="fill:none"/></clipPath><clipPath id="clip-path-13" transform="translate(-5.54 -2.26)"><rect x="13.97" y="32.55" width="7.48" height="2.15" style="fill:none"/></clipPath><linearGradient id="linear-gradient-3" x1="-1.56" y1="-4.28" x2="-0.56" y2="-4.28" gradientTransform="matrix(7.48, 0, 0, -7.48, 20.13, -0.35)" gradientUnits="userSpaceOnUse"><stop offset="0" stop-color="#fff"/><stop offset="0.27" stop-color="#dbdae8"/><stop offset="0.85" stop-color="#807dad"/><stop offset="0.94" stop-color="#726fa4"/><stop offset="1" stop-color="#726fa4"/></linearGradient><clipPath id="clip-path-15" transform="translate(-5.54 -2.26)"><path d="M28.51,34.25c4.21-1.75,8.49.67,8.49.67l-.28-.67A10.73,10.73,0,0,0,28.51,34.25Z" style="fill:none"/></clipPath><clipPath id="clip-path-16" transform="translate(-5.54 -2.26)"><rect x="28.51" y="32.5" width="8.49" height="2.42" style="fill:none"/></clipPath><clipPath id="clip-path-17" transform="translate(-5.54 -2.26)"><rect x="28.33" y="32.72" width="8.49" height="2.42" style="fill:none"/></clipPath><linearGradient id="linear-gradient-4" x1="-1.56" y1="-4.28" x2="-0.56" y2="-4.28" gradientTransform="matrix(8.49, 0, 0, -8.49, 36.06, -4.23)" gradientUnits="userSpaceOnUse"><stop offset="0" stop-color="#726fa4"/><stop offset="0.1" stop-color="#726fa4"/><stop offset="0.23" stop-color="#817eae"/><stop offset="0.5" stop-color="#a8a6c7"/><stop offset="0.87" stop-color="#e7e6ef"/><stop offset="1" stop-color="#fff"/></linearGradient><clipPath id="clip-path-19" transform="translate(-5.54 -2.26)"><path d="M13.94,34.43s6.57-3.3,11.5,2l.27-9.68S21,23.37,16.93,27Z" style="fill:none"/></clipPath><clipPath id="clip-path-20" transform="translate(-5.54 -2.26)"><rect x="13.94" y="23.37" width="11.77" height="13.11" style="fill:none"/></clipPath><clipPath id="clip-path-21" transform="translate(-5.54 -2.26)"><rect x="14.08" y="23.28" width="11.77" height="13.11" style="fill:none"/></clipPath><linearGradient id="linear-gradient-5" x1="-1.56" y1="-4.28" x2="-0.56" y2="-4.28" gradientTransform="matrix(11.77, 0, 0, -11.77, 26.94, -21.83)" gradientUnits="userSpaceOnUse"><stop offset="0" stop-color="#fff"/><stop offset="0.73" stop-color="#fff"/><stop offset="0.76" stop-color="#efeff5"/><stop offset="0.93" stop-color="#a7a4c6"/><stop offset="1" stop-color="#8a87b3"/></linearGradient><clipPath id="clip-path-23" transform="translate(-5.54 -2.26)"><path d="M37.14,34.43s-6.63-3.32-11.7,2l.27-9.68s5-3.59,8.59.15Z" style="fill:none"/></clipPath><clipPath id="clip-path-24" transform="translate(-5.54 -2.26)"><rect x="25.44" y="23.21" width="11.69" height="13.27" style="fill:none"/></clipPath><clipPath id="clip-path-25" transform="translate(-5.54 -2.26)"><rect x="25.36" y="23.21" width="11.69" height="13.27" style="fill:none"/></clipPath><clipPath id="clip-path-26" transform="translate(-5.54 -2.26)"><rect x="25.36" y="23.21" width="11.69" height="13.27" style="fill:none"/></clipPath><linearGradient id="linear-gradient-6" x1="-1.56" y1="-4.28" x2="-0.56" y2="-4.28" gradientTransform="matrix(5.19, 0, 0, -5.19, 26.4, 6.36)" xlink:href="#linear-gradient-4"/></defs><g style="clip-path:url(#clip-path)"><path d="M66.12,57.59h.38a2.45,2.45,0,0,0,1.81-.81,3.07,3.07,0,0,0,.79-2.27V33.36a2.89,2.89,0,0,0-.88-2.43,3.53,3.53,0,0,0-2.1-.73v-.32h9v.32a3.65,3.65,0,0,0-2.09.71,2.84,2.84,0,0,0-.92,2.45V53.81A3,3,0,0,0,73,56.34a4.93,4.93,0,0,0,3,.7h2.42a6.75,6.75,0,0,0,2.52-.38A3.31,3.31,0,0,0,82.4,55.5a10.8,10.8,0,0,0,1.12-2.2h.32l-1.06,4.6H66.12Z" transform="translate(-5.54 -2.26)" style="fill:#252c5c"/><path d="M94.48,29.88v.32a3.28,3.28,0,0,0-2.13.71,2.81,2.81,0,0,0-.88,2.33V54.5a2.81,2.81,0,0,0,.93,2.35,3.36,3.36,0,0,0,2.08.73v.32H85.59v-.32a3.22,3.22,0,0,0,2.1-.72,2.85,2.85,0,0,0,.89-2.36V33.24a2.79,2.79,0,0,0-.89-2.39,3.47,3.47,0,0,0-2.1-.65v-.32Z" transform="translate(-5.54 -2.26)" style="fill:#252c5c"/><path d="M122.26,29.88v.32a3.3,3.3,0,0,0-1.77.73,4.92,4.92,0,0,0-1.2,1.53c-.33.63-.7,1.46-1.12,2.5a1.23,1.23,0,0,0-.19.45l-8.1,23.21h-.27l-9.54-25.11a.56.56,0,0,0-.07-.23,5.08,5.08,0,0,0-1.46-2.35,3.33,3.33,0,0,0-2.25-.73v-.32h9.2v.32a5.54,5.54,0,0,0-1.86.46c-.48.23-.71.77-.71,1.64a6.87,6.87,0,0,0,.3,1.41,1.07,1.07,0,0,1,.07.19l0,.16,7.36,19.67h.08l6.31-18.31a9.57,9.57,0,0,0,.66-2.84c0-1-.21-1.64-.63-1.9a4.2,4.2,0,0,0-1.9-.48v-.32Z" transform="translate(-5.54 -2.26)" style="fill:#252c5c"/><path d="M124.06,30.2v-.32h16.69v4.41h-.26c0-2.36-1.57-3.53-4.72-3.53H130V43.49h5.12a7.05,7.05,0,0,0,2.72-.5,2.45,2.45,0,0,0,1.37-2.26h.28v6.35h-.28a3.52,3.52,0,0,0-.65-1.67,2.64,2.64,0,0,0-.94-.77,2.39,2.39,0,0,0-.83-.19,9.29,9.29,0,0,0-1.42-.11H130v9.94a4.25,4.25,0,0,0,.42,1.95c.29.54.95.81,2,.81h4.16A5.9,5.9,0,0,0,139,56.6a3.69,3.69,0,0,0,1.53-1.21,7.68,7.68,0,0,0,.94-1.88h.26l-1,4.39H124.06v-.31h.38a2.7,2.7,0,0,0,1.75-.72,2.93,2.93,0,0,0,.86-2.36V33.4a4.27,4.27,0,0,0-.58-2.24,2.18,2.18,0,0,0-2-1Z" transform="translate(-5.54 -2.26)" style="fill:#252c5c"/><path d="M143.47,30.28h-.38v-.4h9.7a9.73,9.73,0,0,1,4,.72,6.84,6.84,0,0,1,2.54,1.84,7.18,7.18,0,0,1,1.29,2.35,8.12,8.12,0,0,1,.39,2.44,6.9,6.9,0,0,1-.64,2.92,6.27,6.27,0,0,1-2,2.41,7.61,7.61,0,0,1-3.3,1.37V44a11.71,11.71,0,0,1,4.64,4.83l2.53,4.28A13.56,13.56,0,0,0,165,56.74a4.14,4.14,0,0,0,2,.85v.31h-5.1c-.22-.28-.42-.55-.61-.81l-.61-.83c-.13-.19-.31-.48-.56-.87a7.72,7.72,0,0,0-.45-.65l-3.35-5.53a13.86,13.86,0,0,0-2.06-2.75,8,8,0,0,0-2-1.51,5.85,5.85,0,0,0-1.64-.57,10.88,10.88,0,0,0-1.72-.11V54.51q0,3,3,3.08v.31h-8.92v-.31a4.42,4.42,0,0,0,1.48-.31,2.45,2.45,0,0,0,1.08-1,3.43,3.43,0,0,0,.42-1.82V33.32a3,3,0,0,0-.81-2.36A2.73,2.73,0,0,0,143.47,30.28ZM149,43.54h1.6a10.08,10.08,0,0,0,4.11-.73A4.71,4.71,0,0,0,157,40.74a6.87,6.87,0,0,0,.72-3.29,8.23,8.23,0,0,0-.64-3.17,5.85,5.85,0,0,0-2.2-2.61,7.24,7.24,0,0,0-4.17-1.06,7.66,7.66,0,0,0-1.75.17Z" transform="translate(-5.54 -2.26)" style="fill:#252c5c"/><path d="M168,30.2v-.32h9.18a12,12,0,0,1,4.07.63,8.49,8.49,0,0,1,2.93,1.71,7.07,7.07,0,0,1,2.33,5.3,7.61,7.61,0,0,1-.54,2.83,6.55,6.55,0,0,1-1.71,2.41,8.48,8.48,0,0,1-3,1.68,13.68,13.68,0,0,1-4.34.63c-.52,0-1.52-.07-3-.23v9.67q0,3,3,3.08v.31H168v-.31a3.42,3.42,0,0,0,2.16-.75,2.89,2.89,0,0,0,.85-2.33V33.32a3.83,3.83,0,0,0-.31-1.62,2.26,2.26,0,0,0-.71-.92,3.19,3.19,0,0,0-.92-.41c-.33-.09-.56-.15-.69-.17Zm5.88.66V44.07a15.87,15.87,0,0,0,2.89.27,7.56,7.56,0,0,0,4.61-1.4c1.26-.93,1.9-2.66,1.9-5.19a7.78,7.78,0,0,0-1.67-5.13,6.19,6.19,0,0,0-5.05-2A14.54,14.54,0,0,0,173.88,30.86Z" transform="translate(-5.54 -2.26)" style="fill:#252c5c"/><path d="M217.7,43.92a14.44,14.44,0,0,1-2,7.32,14.73,14.73,0,0,1-5.31,5.38,14.25,14.25,0,0,1-7.45,2,14.58,14.58,0,0,1-7.53-2,14.77,14.77,0,0,1-5.39-5.4,14.57,14.57,0,0,1-2-7.42,14.37,14.37,0,0,1,4.43-10.5,15.11,15.11,0,0,1,4.8-3.12,14.84,14.84,0,0,1,15.87,3,14.32,14.32,0,0,1,3.29,4.73A14.83,14.83,0,0,1,217.7,43.92Zm-3.34.08q0-5.59-2-8.74A10.08,10.08,0,0,0,207.81,31,12.66,12.66,0,0,0,202.94,30a12.79,12.79,0,0,0-3.67.58,10.48,10.48,0,0,0-3.7,2.13,11.24,11.24,0,0,0-3,4.32,18.16,18.16,0,0,0-1.16,6.9,18.71,18.71,0,0,0,1,6.3,11.77,11.77,0,0,0,2.65,4.39A10.21,10.21,0,0,0,198.77,57a12,12,0,0,0,4.21.75,12.16,12.16,0,0,0,4-.69,10.19,10.19,0,0,0,3.67-2.26,11.23,11.23,0,0,0,2.7-4.26A18.31,18.31,0,0,0,214.36,44Z" transform="translate(-5.54 -2.26)" style="fill:#252c5c"/><path d="M249.83,43.92a14.43,14.43,0,0,1-2,7.32,14.73,14.73,0,0,1-5.31,5.38,14.27,14.27,0,0,1-7.45,2,14.58,14.58,0,0,1-7.53-2,14.77,14.77,0,0,1-5.39-5.4,14.58,14.58,0,0,1-2-7.42,14.53,14.53,0,0,1,4.44-10.5,15.18,15.18,0,0,1,4.79-3.12,14.85,14.85,0,0,1,15.88,3,14.62,14.62,0,0,1,3.29,4.73A14.83,14.83,0,0,1,249.83,43.92Zm-3.34.08c0-3.73-.65-6.64-2-8.74A10.08,10.08,0,0,0,240,31,12.66,12.66,0,0,0,235.08,30a12.79,12.79,0,0,0-3.67.58,10.39,10.39,0,0,0-3.7,2.13,11.24,11.24,0,0,0-3,4.32,18.16,18.16,0,0,0-1.16,6.9,18.71,18.71,0,0,0,1,6.3,11.9,11.9,0,0,0,2.65,4.39A10.13,10.13,0,0,0,230.91,57a12,12,0,0,0,4.21.75,12.16,12.16,0,0,0,4-.69,10.19,10.19,0,0,0,3.67-2.26,11.23,11.23,0,0,0,2.7-4.26A18.32,18.32,0,0,0,246.49,44Z" transform="translate(-5.54 -2.26)" style="fill:#252c5c"/><path d="M249,57.59h.37a2.47,2.47,0,0,0,1.82-.81,3.12,3.12,0,0,0,.79-2.27V33.36a2.89,2.89,0,0,0-.89-2.43A3.53,3.53,0,0,0,249,30.2v-.32H258v.32a3.67,3.67,0,0,0-2.09.71,2.84,2.84,0,0,0-.91,2.45V53.81a3,3,0,0,0,.91,2.53,5,5,0,0,0,3,.7h2.41a6.71,6.71,0,0,0,2.52-.38,3.21,3.21,0,0,0,1.49-1.16,10.76,10.76,0,0,0,1.13-2.2h.32l-1.06,4.6H249Z" transform="translate(-5.54 -2.26)" style="fill:#252c5c"/><path d="M74.15,16.05c0,.84-.2,3.05-3.6,3.05-3.15,0-3.43-2.21-3.43-3.05V9h1v6.69c0,.91.07,2.63,2.45,2.63,2.61,0,2.61-1.72,2.61-2.63V9h1Z" transform="translate(-5.54 -2.26)" style="fill:#945f14"/><polygon points="79.61 6.7 80.94 6.7 85.75 15.63 85.79 15.63 85.79 6.7 86.77 6.7 86.77 16.68 85.36 16.68 80.63 7.99 80.6 7.99 80.6 16.68 79.61 16.68 79.61 6.7" style="fill:#945f14"/><rect x="97.89" y="6.7" width="0.99" height="9.98" style="fill:#945f14"/><polygon points="108.27 6.7 109.25 6.7 112.64 15.82 112.67 15.82 116.12 6.7 117.1 6.7 113.33 16.68 111.96 16.68 108.27 6.7" style="fill:#945f14"/><polygon points="126.45 6.7 131.49 6.7 131.49 7.5 127.43 7.5 127.43 11.06 131.29 11.06 131.29 11.85 127.43 11.85 127.43 15.89 131.62 15.89 131.62 16.68 126.45 16.68 126.45 6.7" style="fill:#945f14"/><path d="M147.49,9h2.38c1.39,0,3.63.31,3.63,2.56A2.46,2.46,0,0,1,151.22,14v0c1.47.32,1.64,1.12,1.88,2.21l.64,2.69h-1l-.58-2.35c-.32-1.38-.64-2.16-2.34-2.16h-1.37v4.51h-1Zm1,4.67h.89c1.59,0,3.15-.46,3.15-2.11s-2-1.76-2.74-1.76h-1.3Z" transform="translate(-5.54 -2.26)" style="fill:#945f14"/><path d="M167.65,13.58c1.18.56,2.42,1.15,2.42,2.73,0,2.1-1.93,2.79-3.88,2.79a11.56,11.56,0,0,1-2.38-.24V18a8.78,8.78,0,0,0,2.63.31c1.34,0,2.64-.67,2.64-1.84s-1.33-1.73-2-2.08l-.94-.45c-1-.51-2.43-1.06-2.43-2.56,0-.42.2-2.55,3.45-2.55a11.53,11.53,0,0,1,2.25.25V10a7.6,7.6,0,0,0-2.25-.33c-1.7,0-2.46.71-2.46,1.65s1.08,1.4,2,1.85Z" transform="translate(-5.54 -2.26)" style="fill:#945f14"/><rect x="174.83" y="6.7" width="0.99" height="9.98" style="fill:#945f14"/><polygon points="188.21 7.5 185.52 7.5 185.52 6.7 191.89 6.7 191.89 7.5 189.2 7.5 189.2 16.68 188.21 16.68 188.21 7.5" style="fill:#945f14"/><polygon points="203.56 12.11 200.12 6.7 201.2 6.7 204.04 11.24 206.95 6.7 208.03 6.7 204.55 12.11 204.55 16.68 203.56 16.68 203.56 12.11" style="fill:#945f14"/><path d="M234.77,14c0-2.38.8-5.15,3.92-5.15s3.83,2.77,3.83,5.15-.71,5.15-3.83,5.15S234.77,16.34,234.77,14Zm3.87,4.33c2.4,0,2.8-2.59,2.8-4.37s-.4-4.28-2.8-4.28-2.79,2.52-2.79,4.28S236.25,18.28,238.64,18.28Z" transform="translate(-5.54 -2.26)" style="fill:#945f14"/><polygon points="247.48 6.7 252.65 6.7 252.65 7.5 248.47 7.5 248.47 11.06 252.47 11.06 252.47 11.85 248.47 11.85 248.47 16.68 247.48 16.68 247.48 6.7" style="fill:#945f14"/><g style="clip-path:url(#clip-path-2)"><rect x="47.95" y="21.52" width="220.99" height="0.58" style="fill:#945f14"/><path d="M45.8,3.49A137,137,0,0,0,26,2.26h0A137,137,0,0,0,6.22,3.49S2.1,33.77,14.06,51.93c4,6.16,11.93,12.2,12,12.22h0s7.9-6.06,12-12.22C49.92,33.77,45.8,3.49,45.8,3.49Z" transform="translate(-5.54 -2.26)" style="fill:#252c5c"/></g><path d="M8.89,10.53a.91.91,0,0,0,.08.23,1.22,1.22,0,0,1,1.12-.4A1.66,1.66,0,0,0,8.89,10.53Z" transform="translate(-5.54 -2.26)" style="fill:#010101"/><path d="M10.15,11.71h.13s0,0,0-.05a1.84,1.84,0,0,0-.44-.11l-.07,0a2.79,2.79,0,0,1,.35.11Zm-.46,1.47H9.56v.06l.17-.08Zm5,6.49.22.19,0,0A1.14,1.14,0,0,0,15,20l.08.1s0,0,0,0a.79.79,0,0,1,.2.45V20a3.73,3.73,0,0,0-.3-.29Zm4.27-4.19.48,1.88h-.65a2.84,2.84,0,0,1-.41,0l.26,0a4.68,4.68,0,0,0,1.07,0l-.23-.94ZM13.18,9.75l-.44-.1a1.74,1.74,0,0,0-.51-.12,5,5,0,0,0-.93.4s.52-.16.62-.18a.25.25,0,0,1,.15,0c0,.11.09.13.23.13a.29.29,0,0,0,.25-.12,1.37,1.37,0,0,0,.52,0C13.16,9.79,13.21,9.76,13.18,9.75Zm.93,3.39.05,0h0l.06,0,.07,0,0,0,.06,0,0,0,.1.06h0l0,0h0a1.87,1.87,0,0,0,.91.27,1.82,1.82,0,0,1-.67-.27c-.43-.27-.7-.35-.84-.31l.12,0Zm-3.78-.27,0,0-.06,0a.65.65,0,0,1-.26.31l0,0H9.83a.65.65,0,0,0,.32-.06.74.74,0,0,0,.2-.2v0Zm.41-1a2.7,2.7,0,0,0,.22-1h0v-.47h0v-.05s-.1-.22-.25-.11a.24.24,0,0,1,.1.2c0,.16,0,.45,0,.45a3.87,3.87,0,0,1-.21,1c0,.06.12.12.16.17a.33.33,0,0,1,.07.33,2.64,2.64,0,0,1-.24.48.25.25,0,0,0,0,.07c.05.07.08.15.09.16s0-.16.11-.24a2.64,2.64,0,0,0,.24-.48.33.33,0,0,0-.07-.33Zm10.46,2.8,1,1-.12.13,0,0-.08.09-.05.05-.08.07a.12.12,0,0,1-.05.05.23.23,0,0,1-.07.07l-.06.05-.06.06-.07.06-.06,0-.08.06,0,0-.09.06,0,0-.1.06,0,0-.1.07h0a3.85,3.85,0,0,1-.87.41h0l.05.11a4.91,4.91,0,0,0,2.36-1.57L21.75,15Zm3.44-4.62a6.28,6.28,0,0,1-.14.67v0a.65.65,0,0,1,0,.13.24.24,0,0,1,0,.08s0,0,0,.07l0,.1s0,0,0,0,0,.1,0,.15l0,.05s0,.1,0,.16h0a1.33,1.33,0,0,1-.05.19v0c0,.13-.08.26-.13.4h0c-.08.21-.15.43-.24.66l.27,0a14.72,14.72,0,0,0,.84-3A1.77,1.77,0,0,1,24.64,10.06Zm-2.27,2.58,1.32.6-.12.26a9.13,9.13,0,0,1-1,1.78h0l.22.12A9.74,9.74,0,0,0,24,13.26l-1.27-.57Zm-6.07,7h-.14l-.1,0H16a4.79,4.79,0,0,0-.17,2.9l.09,0a8.14,8.14,0,0,1,1.77.69l.25,0a7.08,7.08,0,0,0-1.84-.7A4.73,4.73,0,0,1,16.3,19.6Zm-2.05,3.51-.13,0h0l-.12,0h0l-.13,0h0l-.12,0h0l-.11.05h0l-.11.05h0l-.23.11a1.42,1.42,0,0,0-.05.22,3.55,3.55,0,0,1,1.35-.55,15.68,15.68,0,0,1,2.86.08A13.79,13.79,0,0,0,14.25,23.11Z" transform="translate(-5.54 -2.26)" style="fill:#010101"/><path d="M12.55,9.76a.29.29,0,0,1-.25.12c-.14,0-.22,0-.23-.13a.25.25,0,0,0-.15,0c-.1,0-.58.19-.62.18a5,5,0,0,1,.93-.4,1.74,1.74,0,0,1,.51.12l.44.1s0,0-.11.05A1.37,1.37,0,0,1,12.55,9.76Zm2.74,10.81a.79.79,0,0,0-.2-.45s0,0,0,0L15,20a1.14,1.14,0,0,1-.11-.11l0,0-.22-.19.65.16Zm9.4-10.75c-2.09,1.55-6.36,1.48-7,1.66s-.47.65-.47.65c-.94,2.47-2.63,1.25-2.63,1.25-1.29-.8-1.06,0-.56,1-2-.25-.34-3.05.37-3.59A8.49,8.49,0,0,0,16,8.67c-.24.27-1,.78-2.94.38a1.81,1.81,0,0,0-1.48.36C7.72,9.08,8.7,10.73,8.7,10.73c.4-.64,1.53-.34,1.53-.34a.46.46,0,0,0,.26.43,4,4,0,0,1-.21.92c-.14,0-.48-.16-.58-.15-.3.05-.27.48-.59.61a.52.52,0,0,0,.33.2.74.74,0,0,0-.13.46c0,.13.09.16.1.22a.87.87,0,0,1,0,.18c.09,0,.19-.1.25-.09a.55.55,0,0,0,.6-.37l.06,0a.93.93,0,0,1,.14.24s0-.16.11-.24a2.64,2.64,0,0,0,.24-.48.33.33,0,0,0-.07-.33s-.12-.11-.16-.17a3.87,3.87,0,0,0,.21-1h0s0-.29,0-.45a.24.24,0,0,0-.1-.2c.15-.11.25.11.25.11v.52a2,2,0,0,0,.35-.07s1.22-.12,1.4.18.11,1.11-1,3.08a3.72,3.72,0,0,0,1.83,5.14,3.53,3.53,0,0,1,1.66,3s-2.25.45-2.33,1.47a3.5,3.5,0,0,1,1.35-.56,15.8,15.8,0,0,1,3.45.14,7.36,7.36,0,0,0-1.88-.72,4.79,4.79,0,0,1,.17-2.9h.07a4.23,4.23,0,0,1,2.05.57l-.3-.77c1.38.2,2.05,1.82,2.05,1.82a6.5,6.5,0,0,0-2-3.89l.45,0a4.79,4.79,0,0,0,1.08,0l-.48-1.88.95,1.77a4.84,4.84,0,0,0,2.35-1.56l-1-1,1.27.69a9.68,9.68,0,0,0,1.22-2.13l-1.32-.6,1.47.23A15.35,15.35,0,0,0,24.69,9.82Z" transform="translate(-5.54 -2.26)" style="fill:#fff"/><path d="M14.36,10.83c-.71.54-2.38,3.34-.37,3.59-1.59-.51,0-3,.64-3.55a8.49,8.49,0,0,0,1.59-2.16,1.73,1.73,0,0,1-.44.26A7.14,7.14,0,0,1,14.36,10.83Zm3.75,6.55-.25,0,.16.17s0,0,0,0l.15.16,0,0,.15.17s0,0,0,0l.15.18h0l.14.18,0,0,.13.18,0,0,.13.19h0l.13.2h0a1.18,1.18,0,0,1,.11.19l0,0a1.14,1.14,0,0,1,.1.19l0,0,.09.19,0,0c0,.06.05.11.07.17s0,0,0,0a.87.87,0,0,0,.07.17.14.14,0,0,0,0,.06l.05.17a.14.14,0,0,1,0,.07.65.65,0,0,1,0,.13.3.3,0,0,1,0,.1l0,.12a.43.43,0,0,1,0,.05,3.72,3.72,0,0,1,.34.61A6.88,6.88,0,0,0,18.11,17.38Zm-.3,2,.26.68.32.16-.28-.77A1.63,1.63,0,0,0,17.81,19.42Z" transform="translate(-5.54 -2.26)" style="fill:#010101"/><path d="M28,10.53a.73.73,0,0,0,.09.23,1.19,1.19,0,0,1,1.11-.4A1.67,1.67,0,0,0,28,10.53Z" transform="translate(-5.54 -2.26)" style="fill:#010101"/><path d="M29.27,11.71h.13a.43.43,0,0,0,0-.05,1.73,1.73,0,0,0-.44-.11l-.06,0,.35.11Zm-.47,1.47h-.12a.18.18,0,0,0,0,.06l.17-.08Zm5,6.49a2,2,0,0,1,.21.19l0,0,.1.11.09.1s0,0,0,0a.77.77,0,0,1,.19.45V20a3.9,3.9,0,0,0-.29-.29ZM38,15.48l.48,1.88h-.65a2.71,2.71,0,0,1-.4,0l.25,0a4.79,4.79,0,0,0,1.08,0l-.24-.94ZM32.3,9.75l-.45-.1a1.66,1.66,0,0,0-.51-.12,5,5,0,0,0-.93.4s.53-.16.63-.18a.25.25,0,0,1,.15,0c0,.11.09.13.22.13a.33.33,0,0,0,.26-.12,1.33,1.33,0,0,0,.51,0C32.27,9.79,32.32,9.76,32.3,9.75Zm.92,3.39.06,0h0l.05,0,.08,0,0,0,.07,0,0,0,.1.06h0l0,0h0a1.88,1.88,0,0,0,.92.27,1.82,1.82,0,0,1-.68-.27c-.43-.27-.69-.35-.83-.31l.11,0Zm-3.78-.27,0,0-.06,0a.71.71,0,0,1-.25.31l0,0h-.13a.68.68,0,0,0,.33-.06.74.74,0,0,0,.19-.2v0Zm.42-1a2.53,2.53,0,0,0,.21-1h0v-.47h0v-.05s-.11-.22-.25-.11a.25.25,0,0,1,.09.2c0,.16,0,.45,0,.45a3.47,3.47,0,0,1-.22,1l.17.17a.35.35,0,0,1,.07.33,2.64,2.64,0,0,1-.24.48.25.25,0,0,0,0,.07l.08.16s.05-.16.11-.24a2.12,2.12,0,0,0,.24-.48A.36.36,0,0,0,30,12,1.92,1.92,0,0,1,29.86,11.88Zm10.45,2.8,1,1-.11.13,0,0-.09.09,0,.05-.08.07,0,.05-.07.07-.06.05-.07.06-.07.06-.06,0-.07.06-.06,0-.08.06-.05,0-.09.06,0,0-.11.07h0a3.85,3.85,0,0,1-.87.41h0l.06.11a4.88,4.88,0,0,0,2.35-1.57L40.87,15Zm3.45-4.62c0,.16-.08.39-.14.67v0l0,.13,0,.08a.64.64,0,0,0,0,.07s0,.07,0,.1l0,0a.83.83,0,0,1,0,.15s0,0,0,.05a1.42,1.42,0,0,1-.05.16h0l-.06.19v0c0,.13-.09.26-.13.4h0q-.11.32-.24.66l.28,0a15.52,15.52,0,0,0,.84-3A2.2,2.2,0,0,1,43.76,10.06Zm-2.27,2.58,1.31.6-.11.26a9.72,9.72,0,0,1-1,1.78h0l.22.12a9.74,9.74,0,0,0,1.22-2.14l-1.28-.57Zm-6.08,7h-.13l-.11,0h-.06a4.74,4.74,0,0,0-.18,2.9l.09,0a7.91,7.91,0,0,1,1.77.69l.25,0a6.93,6.93,0,0,0-1.83-.7A4.69,4.69,0,0,1,35.41,19.6Zm-2,3.51-.13,0h0l-.13,0h0l-.12,0h0l-.13,0h0l-.12.05h0l-.11.05h0l-.22.11a.79.79,0,0,0-.06.22,3.55,3.55,0,0,1,1.35-.55,15.79,15.79,0,0,1,2.87.08A13.81,13.81,0,0,0,33.37,23.11Z" transform="translate(-5.54 -2.26)" style="fill:#010101"/><path d="M31.67,9.76a.33.33,0,0,1-.26.12c-.13,0-.22,0-.22-.13a.25.25,0,0,0-.15,0c-.1,0-.59.19-.63.18a5,5,0,0,1,.93-.4,1.66,1.66,0,0,1,.51.12l.45.1s0,0-.12.05A1.33,1.33,0,0,1,31.67,9.76ZM34.4,20.57a.77.77,0,0,0-.19-.45s0,0,0,0L34.1,20l-.1-.11,0,0a2,2,0,0,0-.21-.19l.64.16ZM43.8,9.82c-2.08,1.55-6.36,1.48-7,1.66s-.47.65-.47.65c-.95,2.47-2.64,1.25-2.64,1.25-1.29-.8-1.06,0-.55,1-2-.25-.35-3.05.36-3.59a8.36,8.36,0,0,0,1.6-2.16c-.25.27-1,.78-3,.38a1.81,1.81,0,0,0-1.48.36c-3.8-.33-2.83,1.32-2.83,1.32.41-.64,1.54-.34,1.54-.34a.43.43,0,0,0,.26.43,4,4,0,0,1-.21.92,5.69,5.69,0,0,0-.59-.15c-.3.05-.26.48-.59.61a.52.52,0,0,0,.34.2.74.74,0,0,0-.13.46c0,.13.09.16.09.22s0,.15,0,.18.18-.1.25-.09a.64.64,0,0,0,.34-.06.71.71,0,0,0,.25-.31l.06,0a1.63,1.63,0,0,1,.15.24s0-.16.11-.24a2.64,2.64,0,0,0,.24-.48.35.35,0,0,0-.07-.33l-.17-.17a3.47,3.47,0,0,0,.22-1h0s0-.29,0-.45a.25.25,0,0,0-.09-.2c.14-.11.25.11.25.11v.52a1.79,1.79,0,0,0,.35-.07s1.22-.12,1.41.18.11,1.11-1,3.08a3.71,3.71,0,0,0,1.83,5.14,3.53,3.53,0,0,1,1.66,3s-2.25.45-2.33,1.47a3.5,3.5,0,0,1,1.35-.56,15.69,15.69,0,0,1,3.44.14,7.36,7.36,0,0,0-1.88-.72,4.74,4.74,0,0,1,.18-2.9h.06a4.19,4.19,0,0,1,2,.57l-.29-.77c1.37.2,2,1.82,2,1.82a6.62,6.62,0,0,0-2-3.89l.44,0a4.79,4.79,0,0,0,1.08,0L38,15.48,39,17.25a4.79,4.79,0,0,0,2.35-1.56l-1-1,1.27.69a9.68,9.68,0,0,0,1.22-2.13l-1.31-.6,1.47.23A15.71,15.71,0,0,0,43.8,9.82Z" transform="translate(-5.54 -2.26)" style="fill:#fff"/><path d="M33.47,10.83c-.71.54-2.38,3.34-.36,3.59-1.59-.51,0-3,.63-3.55a8.36,8.36,0,0,0,1.6-2.16A2.2,2.2,0,0,1,34.9,9,7.19,7.19,0,0,1,33.47,10.83Zm3.75,6.55-.24,0,.15.17,0,0,.14.16,0,0c.05.05.09.11.14.17l0,0,.14.18h0l.14.18s0,0,0,0l.14.18v0a2.14,2.14,0,0,1,.13.19h0l.12.2h0l.11.19,0,0c0,.06.07.12.1.19l0,0,.09.19s0,0,0,0l.08.17s0,0,0,0,.05.12.07.17,0,0,0,.06l.06.17a.25.25,0,0,0,0,.07.65.65,0,0,0,0,.13.44.44,0,0,0,0,.1l0,.12a.11.11,0,0,0,0,.05,3.72,3.72,0,0,1,.34.61A6.84,6.84,0,0,0,37.22,17.38Zm-.29,2,.26.68.31.16-.28-.77A1.37,1.37,0,0,0,36.93,19.42Z" transform="translate(-5.54 -2.26)" style="fill:#010101"/><path d="M16.92,41.63a1.16,1.16,0,0,0,.11.29,1.48,1.48,0,0,1,1.4-.5A2.05,2.05,0,0,0,16.92,41.63Z" transform="translate(-5.54 -2.26)" style="fill:#010101"/><path d="M18.5,43.11h.05l.05,0h.07l0-.06a2.5,2.5,0,0,0-.56-.14l-.08,0a4.43,4.43,0,0,1,.44.14ZM17.92,45h-.16v.08L18,45Zm6.23,8.15.27.24,0,0,.13.14.1.13,0,0a1,1,0,0,1,.24.58v-.67a3.18,3.18,0,0,0-.37-.37Zm5.35-5.25.61,2.35-.17,0h0l-.15,0h-.49l-.51,0a1.73,1.73,0,0,0,.32,0,5.44,5.44,0,0,0,1.35,0l-.29-1.17Zm-7.19-7.2-.56-.13a2.44,2.44,0,0,0-.64-.14,6.4,6.4,0,0,0-1.16.49s.65-.19.78-.22a.34.34,0,0,1,.18,0c0,.13.13.17.29.17a.43.43,0,0,0,.32-.15,1.87,1.87,0,0,0,.65,0C22.28,40.7,22.34,40.67,22.31,40.65Zm1.16,4.26.07,0h0l.07,0,.09,0,.05,0,.08,0,0,0,.13.08,0,0h0l0,0h0a2.32,2.32,0,0,0,1.15.34,2.22,2.22,0,0,1-.85-.35c-.55-.33-.88-.44-1.05-.38l.14,0Zm-4.75-.34,0,0a.18.18,0,0,0-.08-.06.87.87,0,0,1-.31.4l0,0h-.05l-.05,0H18.1a.93.93,0,0,0,.41-.08.77.77,0,0,0,.24-.26h0A0,0,0,0,0,18.72,44.57Zm.53-1.24a3.29,3.29,0,0,0,.27-1.26h0v-.59h0v-.06s-.13-.28-.31-.14a.29.29,0,0,1,.12.25c0,.2,0,.56,0,.56A5,5,0,0,1,19,43.31a2.08,2.08,0,0,0,.21.21.4.4,0,0,1,.08.41,3,3,0,0,1-.3.6.41.41,0,0,0-.05.09l.11.2s.05-.2.14-.3a3,3,0,0,0,.3-.6.42.42,0,0,0-.08-.41C19.39,43.45,19.31,43.39,19.25,43.33Zm13.13,3.52,1.27,1.26-.14.16,0,0-.1.11-.06.06-.09.09-.07.06-.09.09L33,48.8l-.09.07-.08.07-.08.06-.09.08-.07.05-.11.08-.06,0-.11.09,0,0-.14.09,0,0A5.25,5.25,0,0,1,31,50h0l.06.13a6.09,6.09,0,0,0,3-2l-.93-.93ZM36.71,41c0,.2-.1.49-.18.84v0a.94.94,0,0,1,0,.16.3.3,0,0,1,0,.1.29.29,0,0,0,0,.09s0,.08,0,.13,0,0,0,.06l-.06.19s0,0,0,.06l-.06.2v0a1.55,1.55,0,0,0-.07.23,0,0,0,0,0,0,0c0,.17-.11.34-.17.51h0c-.09.27-.19.55-.3.83l.35.06a19.5,19.5,0,0,0,1-3.83A3.51,3.51,0,0,1,36.71,41Zm-2.86,3.24,1.66.75-.15.33a11.33,11.33,0,0,1-1.29,2.23h0l.27.15a12.24,12.24,0,0,0,1.53-2.69l-1.6-.72ZM26.22,53h-.16l-.13,0h-.09a6,6,0,0,0-.22,3.65l.11,0A9,9,0,0,1,28,57.6l.31,0a9,9,0,0,0-2.3-.88A6,6,0,0,1,26.22,53Zm-2.57,4.41-.16,0h0l-.16,0h0l-.16,0h0L23,57.6h0l-.15,0s0,0,0,0l-.14.07h0l-.28.14a.89.89,0,0,0-.07.28A4.42,4.42,0,0,1,24,57.47a18.58,18.58,0,0,1,3.6.1A17.63,17.63,0,0,0,23.65,57.43Z" transform="translate(-5.54 -2.26)" style="fill:#010101"/><path d="M21.52,40.67a.43.43,0,0,1-.32.15c-.16,0-.28,0-.29-.17a.34.34,0,0,0-.18,0c-.13,0-.74.24-.78.22a6.4,6.4,0,0,1,1.16-.49,2.44,2.44,0,0,1,.64.14l.56.13s0,.05-.14.07A1.87,1.87,0,0,1,21.52,40.67ZM25,54.25a1,1,0,0,0-.24-.58l0,0-.1-.13-.13-.14,0,0-.27-.24.8.21ZM36.76,40.74c-2.61,1.95-8,1.86-8.84,2.08s-.58.82-.58.82C26.15,46.74,24,45.21,24,45.21c-1.62-1-1.34.06-.7,1.3-2.53-.31-.43-3.82.46-4.5a10.56,10.56,0,0,0,2-2.72c-.31.35-1.22,1-3.7.48a2.26,2.26,0,0,0-1.86.46c-4.77-.43-3.55,1.65-3.55,1.65.51-.8,1.92-.42,1.92-.42a.57.57,0,0,0,.33.53,4.63,4.63,0,0,1-.26,1.16,5.05,5.05,0,0,0-.74-.19c-.37.06-.33.61-.74.76a.6.6,0,0,0,.43.26.92.92,0,0,0-.17.58c0,.16.12.2.12.27a1.35,1.35,0,0,1,0,.23c.12,0,.23-.12.32-.11a1,1,0,0,0,.43-.07.87.87,0,0,0,.31-.4.18.18,0,0,1,.08.06,1.35,1.35,0,0,1,.18.29s.06-.19.14-.3a3,3,0,0,0,.3-.6.4.4,0,0,0-.08-.41,2.08,2.08,0,0,1-.21-.21,5,5,0,0,0,.27-1.22h0s0-.36,0-.56a.29.29,0,0,0-.12-.25c.18-.14.31.14.31.14v.65A2.19,2.19,0,0,0,20,42s1.54-.16,1.77.22.14,1.38-1.22,3.86c-1.48,2.71.1,5.32,2.3,6.46.74.55,2.29,1.91,2.09,3.75,0,0-2.83.58-2.93,1.85a4.54,4.54,0,0,1,1.69-.7,19.17,19.17,0,0,1,4.33.18,9.21,9.21,0,0,0-2.36-.9,6,6,0,0,1,.22-3.65h.09a5.15,5.15,0,0,1,2.57.72l-.38-1c1.74.26,2.58,2.29,2.58,2.29-.05-1.71-1.18-3.44-2.51-4.89.19,0,.38.06.56.07a5.53,5.53,0,0,0,1.36-.06l-.61-2.35,1.19,2.23a6.14,6.14,0,0,0,3-2l-1.27-1.26,1.6.86A12,12,0,0,0,35.51,45l-1.66-.75,1.85.28A19.16,19.16,0,0,0,36.76,40.74Z" transform="translate(-5.54 -2.26)" style="fill:#fff"/><path d="M23.79,42c-.89.68-3,4.19-.46,4.5-2-.64,0-3.81.8-4.45a10.56,10.56,0,0,0,2-2.72,2.24,2.24,0,0,1-.55.33A9,9,0,0,1,23.79,42Zm4.71,8.22-.31,0c.06.08.13.15.19.22l0,0,.19.21,0,0,.18.22,0,0,.18.23h0l.17.24,0,0,.16.23,0,0c.06.08.11.16.16.24l0,0,.15.24h0a1.88,1.88,0,0,0,.14.24s0,0,0,0l.12.23,0,.05a1.63,1.63,0,0,1,.11.23l0,0,.09.21,0,.05c0,.07.05.15.08.22l0,.07.07.21s0,.06,0,.09a1.09,1.09,0,0,1,.05.17l0,.11,0,.16,0,.06a6,6,0,0,1,.43.77C31,53.48,29.8,51.68,28.5,50.23Zm-.38,2.56.34.86c.24.11.39.2.39.2l-.35-1A2.34,2.34,0,0,0,28.12,52.79Z" transform="translate(-5.54 -2.26)" style="fill:#010101"/><g style="clip-path:url(#clip-path-3)"><g style="clip-path:url(#clip-path-4)"><g style="clip-path:url(#clip-path-5)"><g style="clip-path:url(#clip-path-5)"><rect x="9.14" y="28.9" width="10.91" height="5.19" style="fill:url(#linear-gradient)"/></g></g></g></g><g style="clip-path:url(#clip-path-7)"><g style="clip-path:url(#clip-path-8)"><g style="clip-path:url(#clip-path-9)"><g style="clip-path:url(#clip-path-9)"><rect x="25.26" y="31.29" width="5.85" height="1.91" style="fill:url(#linear-gradient-2)"/></g></g></g></g><g style="clip-path:url(#clip-path-11)"><g style="clip-path:url(#clip-path-12)"><g style="clip-path:url(#clip-path-13)"><g style="clip-path:url(#clip-path-13)"><rect x="8.44" y="30.29" width="7.48" height="2.15" style="fill:url(#linear-gradient-3)"/></g></g></g></g><g style="clip-path:url(#clip-path-15)"><g style="clip-path:url(#clip-path-16)"><g style="clip-path:url(#clip-path-17)"><g style="clip-path:url(#clip-path-17)"><rect x="22.79" y="30.46" width="8.49" height="2.42" style="fill:url(#linear-gradient-4)"/></g></g></g></g><path d="M25.43,36.4C21.49,32.07,16.53,34.19,15,35l-.16.4.28.19s5.23-3.71,9.7.88c.68.69.75.51,1.29,0,5.09-4.85,9.52-.93,9.69-1a1.64,1.64,0,0,0,.42-.18L36.09,35c-1.55-.85-6.51-3-10.53,1.23Z" transform="translate(-5.54 -2.26)" style="fill:#945f14"/><g style="clip-path:url(#clip-path-19)"><g style="clip-path:url(#clip-path-20)"><g style="clip-path:url(#clip-path-21)"><g style="clip-path:url(#clip-path-21)"><rect x="8.54" y="21.02" width="11.77" height="13.11" style="fill:url(#linear-gradient-5)"/></g></g></g></g><g style="clip-path:url(#clip-path-23)"><g style="clip-path:url(#clip-path-24)"><g style="clip-path:url(#clip-path-25)"><g style="clip-path:url(#clip-path-26)"><rect x="19.82" y="20.95" width="11.69" height="13.27" style="fill:url(#linear-gradient-6)"/></g></g></g></g><path d="M18.13,29.05l.14,0c.17,0,.26-.14.35-.44l.12,0c0,.17-.07.33-.09.5s0,.31-.08.48h-.12c0-.23,0-.4-.23-.36l-.13,0-.21.66c-.07.27,0,.27.34.21l0,.14-.72.15-.7.13.05-.12c.36-.07.39-.19.48-.47l.38-1.16c.1-.33.09-.46-.19-.44l0-.12a7.56,7.56,0,0,0,.84-.1c.36-.07.7-.17,1.05-.27l-.05.61-.17,0c0-.42-.14-.35-.54-.27s-.32.07-.39.36Z" transform="translate(-5.54 -2.26)" style="fill:#010101"/><path d="M20,28.39c.06-.29.1-.4-.2-.37l0-.15c.16,0,.3,0,.5-.06s.35-.06.56-.07l0,.15c-.28,0-.36.14-.4.41l-.29,1.16c-.06.37-.09.47.22.47l0,.15h-.59c-.17,0-.44,0-.62.05l.05-.14c.31,0,.36-.16.45-.5Z" transform="translate(-5.54 -2.26)" style="fill:#010101"/><path d="M21.33,29.49c0,.09-.07.14-.13.28s.12.21.23.23l0,.15-.39,0-.36,0,0-.15c.27,0,.41-.32.52-.56.33-.71.76-1.66.76-1.66l.26,0s.31,1.53.36,1.86.05.34.08.48a.4.4,0,0,0,.22.22l0,.15a4.5,4.5,0,0,0-.49-.14c-.16,0-.34-.07-.54-.1l0-.15c.11,0,.3,0,.29-.16s0-.25,0-.31l0-.15a3.27,3.27,0,0,0-.36-.06l-.32,0Zm.4-.3a2.63,2.63,0,0,1,.31,0l-.17-.88-.4.82Z" transform="translate(-5.54 -2.26)" style="fill:#010101"/><path d="M24.56,29.38l-.13-.05c0-.34,0-.63-.18-.73s-.22,0-.25.31l-.13,1.27c0,.34,0,.49.25.63l0,.15a5.64,5.64,0,0,0-.53-.24c-.16-.07-.34-.12-.54-.2l0-.14c.3.09.32,0,.35-.36l.15-1.26c0-.28.07-.41-.14-.48s-.28.16-.36.47l-.13,0L23,28a5.49,5.49,0,0,1,.88.27,3.77,3.77,0,0,1,.72.4Z" transform="translate(-5.54 -2.26)" style="fill:#010101"/><path d="M27.51,31c.28-.17.27-.3.25-.61L27.69,29c0-.32,0-.49-.3-.37v-.15c.19-.1.31-.15.45-.21a5.44,5.44,0,0,1,.61-.19v.17c-.29.09-.26.25-.24.57l.06,1.05c0,.4.06.62.42.5a.83.83,0,0,0,.68-.81h.13l0,.79a10.38,10.38,0,0,0-1.45.44l-.55.27Z" transform="translate(-5.54 -2.26)" style="fill:#010101"/><path d="M29.3,28.05a4.52,4.52,0,0,1,.59,0h.59v.14c-.29,0-.28.2-.25.52l.06.62c.05.49.22.79.67.77s.46-.27.41-.75l-.07-.53a1,1,0,0,0-.11-.43.3.3,0,0,0-.25-.17l0-.14c.14,0,.26,0,.38,0l.34,0,0,.14a.22.22,0,0,0-.21.18,1.31,1.31,0,0,0,0,.44l.05.35c.08.71.15,1.06-.67,1.1a1,1,0,0,1-1.14-1l-.07-.65c0-.32,0-.49-.33-.48Z" transform="translate(-5.54 -2.26)" style="fill:#010101"/><path d="M33.85,30.36c.12.16.22.28.37.31l0,.13-.54-.09-.54-.08,0-.14a.36.36,0,0,0,.18,0s0,0,0-.09a.92.92,0,0,0-.17-.3l-.3-.47-.17.25a.75.75,0,0,0-.13.35c0,.15.12.18.23.2v.14l-.41-.08-.36-.06v-.14c.17,0,.27-.12.36-.26l.37-.57-.43-.65a1.07,1.07,0,0,0-.16-.25.6.6,0,0,0-.21-.17v-.14a3.19,3.19,0,0,0,.49.12l.47.07,0,.15c-.09,0-.2,0-.19.09a.37.37,0,0,0,.08.2l.19.29.14-.19a1.07,1.07,0,0,0,.13-.19c.06-.09-.09-.17-.22-.19v-.15l.33,0h.29l0,.15c-.16,0-.22.1-.33.26l-.28.42Z" transform="translate(-5.54 -2.26)" style="fill:#010101"/></g></svg>