<?xml version="1.0" encoding="UTF-8" standalone="no"?>
<!DOCTYPE svg PUBLIC "-//W3C//DTD SVG 1.1//EN" "http://www.w3.org/Graphics/SVG/1.1/DTD/svg11.dtd">
<svg width="100%" height="100%" viewBox="0 0 1905 546" version="1.1" xmlns="http://www.w3.org/2000/svg" xmlns:xlink="http://www.w3.org/1999/xlink" xml:space="preserve" xmlns:serif="http://www.serif.com/" style="fill-rule:evenodd;clip-rule:evenodd;stroke-linejoin:round;stroke-miterlimit:2;">
    <g transform="matrix(4.16667,0,0,4.16667,0,0)">
        <path d="M178.053,49.971L170.077,29.54L170.026,29.54L162.127,49.971L178.053,49.971ZM179.104,52.711L161.076,52.711L157.357,62.304L154.203,62.304L168.487,26.052L171.616,26.052L186.029,62.304L182.848,62.304L179.104,52.711Z" style="fill:white;fill-rule:nonzero;"/>
        <path d="M209.04,37.513L209.04,62.304L206.27,62.304L206.27,57.719L206.168,57.719C205.125,59.248 203.817,60.435 202.244,61.282C200.671,62.129 199.022,62.553 197.295,62.553C194.337,62.553 192.046,61.685 190.422,59.95C188.798,58.213 187.986,55.684 187.986,52.363L187.986,37.513L190.755,37.513L190.755,51.54C190.755,53.085 190.909,54.405 191.217,55.501C191.525,56.598 191.986,57.47 192.602,58.118C193.217,58.766 193.94,59.239 194.769,59.538C195.598,59.837 196.568,59.986 197.68,59.986C198.808,59.986 199.894,59.742 200.937,59.252C201.98,58.762 202.894,58.085 203.68,57.221C204.467,56.357 205.095,55.278 205.565,53.982C206.036,52.686 206.27,51.282 206.27,49.771L206.27,37.513L209.04,37.513Z" style="fill:white;fill-rule:nonzero;"/>
        <path d="M212.281,59.04L213.845,56.922C214.923,57.935 216.093,58.703 217.358,59.227C218.623,59.75 220.197,60.011 222.078,60.011C223.923,60.011 225.377,59.605 226.436,58.791C227.497,57.977 228.027,56.938 228.027,55.676C228.027,55.36 227.992,55.069 227.924,54.804C227.856,54.538 227.732,54.289 227.552,54.057C227.373,53.824 227.198,53.617 227.026,53.434C226.855,53.251 226.595,53.064 226.245,52.873C225.894,52.682 225.599,52.525 225.36,52.399C225.121,52.275 224.752,52.121 224.257,51.939C223.762,51.756 223.368,51.615 223.077,51.515C222.787,51.415 222.334,51.266 221.718,51.067C221.393,50.951 221.145,50.867 220.974,50.818C220.034,50.502 219.239,50.211 218.59,49.945C217.94,49.68 217.265,49.335 216.564,48.911C215.863,48.488 215.303,48.044 214.884,47.579C214.465,47.113 214.123,46.54 213.858,45.859C213.593,45.178 213.46,44.43 213.46,43.617C213.46,41.789 214.213,40.278 215.717,39.083C217.222,37.886 219.128,37.288 221.436,37.288C224.65,37.288 227.471,38.293 229.899,40.303L228.361,42.421C226.308,40.677 223.907,39.804 221.154,39.804C220.282,39.804 219.478,39.95 218.743,40.24C218.009,40.531 217.41,40.972 216.948,41.561C216.487,42.151 216.256,42.836 216.256,43.617C216.256,43.983 216.307,44.323 216.41,44.639C216.512,44.954 216.636,45.228 216.781,45.461C216.926,45.693 217.149,45.926 217.449,46.158C217.748,46.39 218.013,46.578 218.243,46.719C218.474,46.86 218.816,47.026 219.269,47.217C219.722,47.408 220.086,47.554 220.359,47.653C220.633,47.753 221.043,47.894 221.59,48.076C221.709,48.127 221.804,48.16 221.872,48.177C224.608,49.123 226.343,49.771 227.078,50.12C228.839,50.984 229.976,52.072 230.489,53.383C230.746,54.098 230.874,54.904 230.874,55.801C230.874,56.715 230.685,57.573 230.309,58.38C229.933,59.185 229.39,59.899 228.68,60.522C227.972,61.145 227.052,61.639 225.924,62.005C224.795,62.37 223.522,62.553 222.102,62.553C218.291,62.553 215.016,61.382 212.281,59.04Z" style="fill:white;fill-rule:nonzero;"/>
        <path d="M236.872,60.722C235.924,59.501 235.449,57.695 235.449,55.303L235.449,40.004L232.064,40.004L232.064,37.513L235.449,37.513L235.449,28.842L238.218,28.518L238.218,37.513L247.528,37.513L247.528,40.004L238.218,40.004L238.218,54.63C238.218,56.473 238.479,57.823 239.001,58.679C239.522,59.533 240.501,59.961 241.937,59.961C243.476,59.961 245.083,59.488 246.758,58.542L247.476,60.958C245.681,62.022 243.732,62.553 241.629,62.553C239.407,62.553 237.821,61.942 236.872,60.722Z" style="fill:white;fill-rule:nonzero;"/>
        <path d="M264.055,37.288L264.055,40.278C263.268,40.211 262.729,40.179 262.439,40.179C259.858,40.179 257.789,41.104 256.233,42.957C254.677,44.809 253.899,47.205 253.899,50.145L253.899,62.304L251.129,62.304L251.129,37.513L253.899,37.513L253.899,42.221L254.027,42.221C254.968,40.643 256.186,39.423 257.682,38.559C259.178,37.695 260.849,37.264 262.696,37.264C263.311,37.264 263.764,37.271 264.055,37.288Z" style="fill:white;fill-rule:nonzero;"/>
        <path d="M280.147,59.289C281.31,58.808 282.326,58.142 283.198,57.295C284.07,56.449 284.767,55.406 285.288,54.169C285.809,52.932 286.071,51.59 286.071,50.145C286.071,48.251 285.665,46.519 284.852,44.95C284.04,43.38 282.903,42.135 281.442,41.212C279.98,40.291 278.334,39.829 276.505,39.829C275.155,39.829 273.881,40.074 272.684,40.565C271.487,41.054 270.44,41.74 269.543,42.62C268.645,43.501 267.935,44.593 267.414,45.897C266.893,47.201 266.631,48.616 266.631,50.145C266.631,51.988 267.042,53.662 267.863,55.166C268.683,56.669 269.846,57.852 271.351,58.716C272.855,59.579 274.565,60.011 276.479,60.011C277.762,60.011 278.984,59.771 280.147,59.289ZM288.738,37.513L288.738,62.304L286.096,62.304L286.096,57.545L286.019,57.545C284.993,59.122 283.652,60.352 281.993,61.232C280.335,62.113 278.437,62.553 276.299,62.553C274.591,62.553 272.974,62.254 271.453,61.656C269.931,61.058 268.606,60.228 267.478,59.164C266.349,58.102 265.456,56.789 264.799,55.227C264.14,53.666 263.811,51.964 263.811,50.12C263.811,47.728 264.332,45.556 265.375,43.604C266.418,41.652 267.888,40.108 269.786,38.97C271.683,37.832 273.821,37.264 276.197,37.264C278.198,37.264 280.044,37.711 281.737,38.609C283.429,39.506 284.806,40.76 285.865,42.371L285.968,42.371L285.968,37.513L288.738,37.513Z" style="fill:white;fill-rule:nonzero;"/>
        <rect x="294.644" y="24.731" width="2.771" height="37.573" style="fill:white;fill-rule:nonzero;"/>
        <path d="M303.967,37.513L306.737,37.513L306.737,62.304L303.967,62.304L303.967,37.513ZM304.211,31.956C303.861,31.757 303.583,31.491 303.377,31.159C303.173,30.826 303.069,30.453 303.069,30.038C303.069,29.407 303.292,28.87 303.736,28.431C304.18,27.991 304.736,27.77 305.404,27.77C306.053,27.77 306.604,27.991 307.058,28.431C307.511,28.87 307.737,29.407 307.737,30.038C307.737,30.653 307.511,31.176 307.058,31.608C306.604,32.039 306.053,32.255 305.404,32.255C304.959,32.255 304.562,32.156 304.211,31.956Z" style="fill:white;fill-rule:nonzero;"/>
        <path d="M327.574,59.289C328.737,58.808 329.754,58.142 330.625,57.295C331.497,56.449 332.194,55.406 332.716,54.169C333.237,52.932 333.498,51.59 333.498,50.145C333.498,48.251 333.092,46.519 332.28,44.95C331.467,43.38 330.331,42.135 328.869,41.212C327.407,40.291 325.761,39.829 323.932,39.829C322.582,39.829 321.308,40.074 320.112,40.565C318.914,41.054 317.868,41.74 316.97,42.62C316.072,43.501 315.362,44.593 314.841,45.897C314.32,47.201 314.059,48.616 314.059,50.145C314.059,51.988 314.47,53.662 315.29,55.166C316.11,56.669 317.273,57.852 318.778,58.716C320.282,59.579 321.992,60.011 323.906,60.011C325.189,60.011 326.412,59.771 327.574,59.289ZM336.165,37.513L336.165,62.304L333.524,62.304L333.524,57.545L333.446,57.545C332.421,59.122 331.079,60.352 329.42,61.232C327.762,62.113 325.864,62.553 323.727,62.553C322.018,62.553 320.401,62.254 318.88,61.656C317.358,61.058 316.034,60.228 314.906,59.164C313.777,58.102 312.883,56.789 312.226,55.227C311.568,53.666 311.238,51.964 311.238,50.12C311.238,47.728 311.759,45.556 312.803,43.604C313.845,41.652 315.316,40.108 317.213,38.97C319.111,37.832 321.248,37.264 323.624,37.264C325.625,37.264 327.471,37.711 329.164,38.609C330.857,39.506 332.233,40.76 333.292,42.371L333.396,42.371L333.396,37.513L336.165,37.513Z" style="fill:white;fill-rule:nonzero;"/>
        <path d="M360.845,39.768C362.366,41.437 363.126,44.049 363.126,47.604L363.126,62.304L360.357,62.304L360.357,47.952C360.357,46.69 360.246,45.581 360.024,44.626C359.801,43.671 359.498,42.89 359.113,42.284C358.729,41.678 358.258,41.187 357.703,40.814C357.147,40.44 356.561,40.179 355.946,40.029C355.331,39.88 354.647,39.804 353.894,39.804C351.073,39.804 348.809,40.735 347.099,42.595C345.389,44.456 344.534,46.93 344.534,50.02L344.534,62.304L341.764,62.304L341.764,37.513L344.534,37.513L344.534,42.346L344.636,42.346C345.714,40.735 347.112,39.485 348.829,38.596C350.548,37.707 352.45,37.264 354.536,37.264C357.22,37.264 359.323,38.098 360.845,39.768Z" style="fill:white;fill-rule:nonzero;"/>
        <path d="M173.372,97.903C174.356,97.563 175.129,97.048 175.693,96.359C176.258,95.669 176.54,94.818 176.54,93.805C176.54,92.343 175.98,91.192 174.86,90.353C173.74,89.515 172.112,89.095 169.975,89.095L163.948,89.095L163.948,98.414L169.898,98.414C171.231,98.414 172.389,98.244 173.372,97.903ZM163.948,83.315L169.231,83.315C170.257,83.315 171.18,83.17 172.001,82.879C172.821,82.589 173.501,82.115 174.039,81.459C174.578,80.803 174.847,79.993 174.847,79.029C174.847,78.165 174.642,77.427 174.232,76.812C173.821,76.197 173.154,75.712 172.232,75.355C171.308,74.997 170.145,74.819 168.743,74.819L163.948,74.819L163.948,83.315ZM182.284,88.759C183.583,90.345 184.233,92.326 184.233,94.701C184.233,96.163 183.981,97.5 183.477,98.713C182.972,99.926 182.229,100.981 181.246,101.878C180.263,102.775 178.997,103.472 177.45,103.971C175.903,104.469 174.129,104.718 172.129,104.718L156.691,104.718L156.691,68.466L170.154,68.466C174.121,68.466 177.142,69.221 179.22,70.733C181.297,72.244 182.335,74.437 182.335,77.311C182.335,78.439 182.156,79.507 181.797,80.512C181.438,81.518 180.831,82.464 179.976,83.352C179.121,84.241 178.044,84.926 176.745,85.408L176.745,85.508C179.138,86.089 180.985,87.173 182.284,88.759Z" style="fill:white;fill-rule:nonzero;"/>
        <path d="M187.909,79.802L194.782,79.802L194.782,104.718L187.909,104.718L187.909,79.802ZM189.204,75.741C188.546,75.375 188.028,74.881 187.652,74.258C187.276,73.636 187.088,72.95 187.088,72.203C187.088,71.09 187.502,70.135 188.332,69.337C189.161,68.54 190.165,68.141 191.345,68.141C192.508,68.141 193.508,68.54 194.346,69.337C195.183,70.135 195.602,71.09 195.602,72.203C195.602,73.332 195.183,74.296 194.346,75.093C193.508,75.891 192.508,76.289 191.345,76.289C190.576,76.289 189.862,76.106 189.204,75.741Z" style="fill:white;fill-rule:nonzero;"/>
        <path d="M216.413,97.218C217.695,95.923 218.336,94.278 218.336,92.285C218.336,90.258 217.704,88.602 216.439,87.314C215.173,86.027 213.583,85.383 211.669,85.383C209.686,85.383 208.074,86.035 206.834,87.339C205.595,88.643 204.975,90.292 204.975,92.285C204.975,94.229 205.604,95.86 206.86,97.181C208.117,98.501 209.719,99.162 211.669,99.162C213.549,99.162 215.13,98.514 216.413,97.218ZM207.129,104.519C205.71,104.104 204.449,103.514 203.347,102.75C202.244,101.986 201.291,101.076 200.487,100.021C199.684,98.967 199.072,97.783 198.654,96.471C198.235,95.158 198.025,93.763 198.025,92.285C198.025,90.441 198.355,88.722 199.013,87.127C199.671,85.533 200.59,84.167 201.77,83.029C202.949,81.891 204.394,80.998 206.104,80.35C207.813,79.702 209.668,79.379 211.669,79.379C213.635,79.379 215.464,79.695 217.157,80.325C218.85,80.957 220.294,81.832 221.491,82.954C222.687,84.075 223.624,85.438 224.299,87.04C224.974,88.643 225.312,90.391 225.312,92.285C225.312,94.793 224.731,97.027 223.568,98.987C222.405,100.947 220.79,102.463 218.721,103.535C216.652,104.606 214.301,105.142 211.669,105.142C210.061,105.142 208.548,104.934 207.129,104.519Z" style="fill:white;fill-rule:nonzero;"/>
        <path d="M240.426,104.345C238.545,103.847 236.809,103.082 235.22,102.052C233.629,101.023 232.249,99.789 231.077,98.352C229.907,96.915 228.987,95.2 228.321,93.207C227.654,91.213 227.321,89.046 227.321,86.703C227.321,84.627 227.586,82.654 228.115,80.786C228.646,78.917 229.445,77.21 230.513,75.666C231.582,74.121 232.865,72.78 234.36,71.642C235.856,70.504 237.626,69.619 239.669,68.989C241.712,68.357 243.931,68.042 246.323,68.042C248.085,68.042 249.82,68.274 251.529,68.74C253.239,69.204 254.945,69.969 256.646,71.031C258.346,72.095 259.855,73.415 261.172,74.993L255.761,79.478C254.598,78.116 253.196,77.008 251.555,76.152C249.914,75.296 248.17,74.869 246.323,74.869C245.4,74.869 244.511,74.96 243.657,75.143C242.802,75.326 241.998,75.596 241.246,75.952C240.494,76.31 239.797,76.742 239.156,77.248C238.515,77.754 237.942,78.34 237.438,79.004C236.934,79.669 236.502,80.396 236.143,81.185C235.784,81.974 235.51,82.833 235.322,83.763C235.134,84.694 235.04,85.674 235.04,86.703C235.04,88.93 235.515,90.922 236.463,92.684C237.412,94.444 238.746,95.818 240.464,96.807C242.182,97.795 244.135,98.29 246.323,98.29C248.187,98.29 249.94,97.875 251.581,97.044C253.222,96.214 254.615,95.101 255.761,93.705L261.172,98.215C259.463,100.291 257.342,101.957 254.812,103.211C252.282,104.465 249.452,105.092 246.323,105.092C244.272,105.092 242.306,104.842 240.426,104.345Z" style="fill:white;fill-rule:nonzero;"/>
        <path d="M280.414,97.218C281.696,95.923 282.337,94.278 282.337,92.285C282.337,90.258 281.705,88.602 280.44,87.314C279.174,86.027 277.584,85.383 275.67,85.383C273.686,85.383 272.075,86.035 270.835,87.339C269.596,88.643 268.977,90.292 268.977,92.285C268.977,94.229 269.604,95.86 270.861,97.181C272.117,98.501 273.721,99.162 275.67,99.162C277.55,99.162 279.131,98.514 280.414,97.218ZM271.13,104.519C269.711,104.104 268.45,103.514 267.347,102.75C266.245,101.986 265.292,101.076 264.489,100.021C263.684,98.967 263.074,97.783 262.655,96.471C262.236,95.158 262.026,93.763 262.026,92.285C262.026,90.441 262.356,88.722 263.013,87.127C263.672,85.533 264.591,84.167 265.771,83.029C266.95,81.891 268.395,80.998 270.105,80.35C271.814,79.702 273.669,79.379 275.67,79.379C277.636,79.379 279.465,79.695 281.158,80.325C282.851,80.957 284.295,81.832 285.492,82.954C286.688,84.075 287.625,85.438 288.3,87.04C288.975,88.643 289.312,90.391 289.312,92.285C289.312,94.793 288.732,97.027 287.569,98.987C286.406,100.947 284.791,102.463 282.722,103.535C280.653,104.606 278.302,105.142 275.67,105.142C274.062,105.142 272.549,104.934 271.13,104.519Z" style="fill:white;fill-rule:nonzero;"/>
        <path d="M330.11,82.045C331.691,83.822 332.482,86.555 332.482,90.242L332.482,104.743L325.609,104.743L325.609,91.862C325.609,87.542 324.113,85.383 321.121,85.383C320.146,85.383 319.267,85.641 318.48,86.155C317.694,86.671 317.065,87.455 316.595,88.511C316.125,89.565 315.89,90.815 315.89,92.26L315.89,104.743L309.017,104.743L309.017,91.862C309.017,87.542 307.504,85.383 304.477,85.383C303.435,85.383 302.511,85.641 301.708,86.155C300.905,86.671 300.263,87.455 299.785,88.511C299.306,89.565 299.067,90.815 299.067,92.26L299.067,104.718L292.194,104.718L292.194,79.802L299.067,79.802L299.067,83.091L299.143,83.091C300.152,81.895 301.324,80.977 302.657,80.338C303.991,79.698 305.375,79.379 306.812,79.379C310.385,79.379 312.924,80.715 314.428,83.39L314.505,83.39C315.548,82.094 316.834,81.101 318.364,80.412C319.894,79.723 321.583,79.379 323.429,79.379C326.301,79.379 328.528,80.267 330.11,82.045Z" style="fill:white;fill-rule:nonzero;"/>
        <path d="M374.327,82.045C375.908,83.822 376.699,86.555 376.699,90.242L376.699,104.743L369.827,104.743L369.827,91.862C369.827,87.542 368.33,85.383 365.339,85.383C364.364,85.383 363.484,85.641 362.697,86.155C361.911,86.671 361.283,87.455 360.812,88.511C360.342,89.565 360.107,90.815 360.107,92.26L360.107,104.743L353.234,104.743L353.234,91.862C353.234,87.542 351.721,85.383 348.694,85.383C347.652,85.383 346.728,85.641 345.925,86.155C345.122,86.671 344.481,87.455 344.002,88.511C343.523,89.565 343.284,90.815 343.284,92.26L343.284,104.718L336.411,104.718L336.411,79.802L343.284,79.802L343.284,83.091L343.361,83.091C344.369,81.895 345.541,80.977 346.874,80.338C348.208,79.698 349.592,79.379 351.029,79.379C354.602,79.379 357.141,80.715 358.645,83.39L358.722,83.39C359.765,82.094 361.051,81.101 362.581,80.412C364.111,79.723 365.8,79.379 367.646,79.379C370.519,79.379 372.746,80.267 374.327,82.045Z" style="fill:white;fill-rule:nonzero;"/>
        <path d="M397.631,97.218C398.913,95.923 399.554,94.278 399.554,92.285C399.554,90.258 398.922,88.602 397.657,87.314C396.391,86.027 394.801,85.383 392.887,85.383C390.903,85.383 389.292,86.035 388.052,87.339C386.813,88.643 386.194,90.292 386.194,92.285C386.194,94.229 386.821,95.86 388.078,97.181C389.334,98.501 390.938,99.162 392.887,99.162C394.767,99.162 396.348,98.514 397.631,97.218ZM388.347,104.519C386.928,104.104 385.667,103.514 384.564,102.75C383.462,101.986 382.509,101.076 381.706,100.021C380.901,98.967 380.291,97.783 379.872,96.471C379.453,95.158 379.243,93.763 379.243,92.285C379.243,90.441 379.573,88.722 380.23,87.127C380.889,85.533 381.808,84.167 382.988,83.029C384.167,81.891 385.612,80.998 387.322,80.35C389.031,79.702 390.886,79.379 392.887,79.379C394.853,79.379 396.682,79.695 398.375,80.325C400.068,80.957 401.512,81.832 402.709,82.954C403.905,84.075 404.842,85.438 405.517,87.04C406.192,88.643 406.529,90.391 406.529,92.285C406.529,94.793 405.949,97.027 404.786,98.987C403.623,100.947 402.008,102.463 399.939,103.535C397.87,104.606 395.519,105.142 392.887,105.142C391.279,105.142 389.766,104.934 388.347,104.519Z" style="fill:white;fill-rule:nonzero;"/>
        <path d="M428.401,79.964C429.503,80.354 430.478,80.957 431.324,81.771C432.17,82.584 432.816,83.681 433.261,85.059C433.705,86.438 433.927,88.066 433.927,89.942L433.927,104.743L427.055,104.743L427.055,91.612C427.055,89.32 426.653,87.708 425.849,86.778C425.045,85.849 423.806,85.383 422.131,85.383C420.353,85.383 418.938,85.973 417.886,87.152C416.835,88.332 416.31,90.009 416.31,92.185L416.31,104.718L409.437,104.718L409.437,79.802L416.31,79.802L416.31,83.016L416.386,83.016C417.429,81.837 418.664,80.936 420.092,80.313C421.519,79.69 423.029,79.379 424.618,79.379C426.037,79.379 427.298,79.573 428.401,79.964Z" style="fill:white;fill-rule:nonzero;"/>
        <path d="M435.783,101.479L439.116,96.869C441.253,98.813 443.622,99.784 446.22,99.784C447.194,99.784 447.964,99.593 448.528,99.211C449.093,98.83 449.374,98.331 449.374,97.717C449.374,97.335 449.203,96.998 448.861,96.707C448.52,96.417 448.045,96.147 447.438,95.898C446.831,95.649 445.92,95.333 444.707,94.951C443.937,94.701 443.249,94.452 442.643,94.203C442.035,93.955 441.415,93.66 440.783,93.319C440.15,92.979 439.607,92.6 439.154,92.185C438.702,91.77 438.292,91.305 437.923,90.79C437.556,90.275 437.278,89.685 437.09,89.021C436.903,88.357 436.808,87.634 436.808,86.853C436.808,85.375 437.214,84.066 438.027,82.929C438.839,81.792 439.941,80.915 441.335,80.3C442.728,79.686 444.297,79.379 446.04,79.379C447.835,79.379 449.486,79.628 450.99,80.125C452.494,80.624 453.973,81.421 455.426,82.517L452.092,87.401C451.135,86.521 450.122,85.86 449.054,85.421C447.985,84.981 446.955,84.76 445.963,84.76C445.313,84.76 444.733,84.922 444.219,85.246C443.707,85.57 443.45,86.031 443.45,86.629C443.45,87.127 443.754,87.576 444.36,87.974C444.968,88.373 445.946,88.821 447.297,89.32C450.135,90.334 452.033,91.139 452.99,91.737C454.649,92.733 455.64,94.062 455.964,95.723C456.068,96.222 456.118,96.778 456.118,97.392C456.118,99.702 455.268,101.571 453.568,103C451.866,104.427 449.399,105.142 446.168,105.142C442.099,105.142 438.637,103.921 435.783,101.479Z" style="fill:white;fill-rule:nonzero;"/>
        <path d="M53.01,52.501L45.3,65.851L53.01,79.211L68.42,79.211L76.13,65.851L68.42,52.501L53.01,52.501ZM82.93,27.351L67.52,27.351L54.74,49.501L70.15,49.501L77.86,62.851L90.64,40.711L82.93,27.351ZM77.86,68.851L70.15,82.211L54.74,82.211L67.52,104.351L82.93,104.351L90.64,91.001L77.86,68.851ZM120.01,38.271L112.85,25.851L85.53,25.851L94.11,40.711L79.59,65.851L94.11,91.001L85.53,105.851L112.85,105.851L128.82,78.181L135.94,65.851L120.01,38.271ZM49.54,52.501L23.96,52.501L16.25,65.851L23.96,79.211L49.54,79.211L41.83,65.851L49.54,52.501ZM76.45,13.121L69.28,0.711L23.09,0.711L15.93,13.121L0,40.711L13.65,64.351L22.23,49.501L51.27,49.501L65.79,24.351L82.93,24.351L76.45,13.121ZM82.93,107.351L69.28,131L23.09,131L0,91.001L13.65,67.351L22.23,82.211L51.27,82.211L65.79,107.351L82.93,107.351Z" style="fill:white;fill-rule:nonzero;"/>
    </g>
</svg>
