<svg id="Layer_1" data-name="Layer 1" xmlns="http://www.w3.org/2000/svg" viewBox="0 0 164.72 170.21"><defs><style>.cls-1{fill:#fff;}</style></defs><title>crick</title><path class="cls-1" d="M36.08,91.55H32.69v5h3.39a2.5,2.5,0,0,0,0-5Z"/><polygon class="cls-1" points="52.88 93.86 50.54 100.7 55.13 100.7 52.88 93.86"/><path class="cls-1" d="M0,0V170.21H164.72V0ZM96.83,88.32h3.61v18.8H96.83Zm-33.57,0h3.21l7.3,11.51V88.32h3.62v18.79H74.17L66.86,95.58v11.53h-3.6ZM46.36,64H58.44v2.43H49v6H57v2.42H49V81h9.47v2.43H46.36Zm5,24.3h2.82l6.73,18.79H57.16l-1.08-3.32H49.53l-1.11,3.32H44.67Zm-8,18.78H39.24l-3.61-7.5H33.05v7.5h-3.6V88.31h7.21a4.51,4.51,0,0,1,.52,0,5.62,5.62,0,0,1,5.48,5.76A5,5,0,0,1,39.29,99ZM29.35,64H32v8.39h8.12V64h2.6V83.38h-2.6V74.83H32v8.55H29.35ZM25.53,96.2v3.28H18.25v7.63H14.64V88.32H26.79v3.27H18.25V96.2ZM13,64H26.28v2.43H20.94V83.39H18.33V66.45H13Zm1.35,57.65c0-3.25-.05-5.6,1.82-7.5a6.77,6.77,0,0,1,5-2.06c3.45,0,6.14,2,6.78,5.94H24.3a3.07,3.07,0,0,0-3.11-2.67,3,3,0,0,0-2.31,1c-.7.8-.91,1.7-.91,5.31s.21,4.51.91,5.31a3,3,0,0,0,2.31,1,3.07,3.07,0,0,0,3.11-2.68H28c-.64,4-3.36,6-6.78,6a6.72,6.72,0,0,1-5-2.06c-1.82-1.9-1.82-4.25-1.82-7.5Zm2.83,33.74H14.64V136.65h2.53Zm17.6,0H32.49l-9-13.81v13.81H21V136.65h2.29l9,13.78V136.65h2.52Zm-.29-31.8v7.5h-3.6V112.3h7.71a5.63,5.63,0,0,1,5.49,5.77A5,5,0,0,1,40.71,123l4.14,8.11H40.67l-3.6-7.5Zm9.66,32h0a8.05,8.05,0,0,1-6.35-2.49l-.21-.22,1.74-1.76.22.22a5.79,5.79,0,0,0,4.65,1.89c2.44,0,3.9-1.14,3.9-3.05a2.7,2.7,0,0,0-.74-2,3.59,3.59,0,0,0-2.17-.79l-2.1-.37a6.82,6.82,0,0,1-3.44-1.45,4.64,4.64,0,0,1-1.46-3.63c0-3.3,2.37-5.42,6-5.42a7.39,7.39,0,0,1,5.53,2.07l.23.22-1.66,1.68-.22-.2a5.3,5.3,0,0,0-4-1.47c-2.17,0-3.45,1.14-3.45,3a2.39,2.39,0,0,0,.69,1.86,4.79,4.79,0,0,0,2.26.92l2,.31A6,6,0,0,1,49,146.29a4.87,4.87,0,0,1,1.62,3.82C50.62,153.43,48.08,155.57,44.14,155.57Zm7.29-24.45H47.84V112.31h3.59ZM65,139H59.86v16.4H57.33V139H52.16v-2.36H65Zm-3.63-7.74a6.73,6.73,0,0,1-5-2.06c-1.82-1.9-1.82-4.25-1.82-7.5l0,0c0-3.25,0-5.6,1.82-7.5a6.77,6.77,0,0,1,5-2.06c3.45,0,6.13,2,6.79,5.94H64.5a3.07,3.07,0,0,0-3.11-2.67,3,3,0,0,0-2.3,1c-.7.8-.9,1.7-.9,5.31s.2,4.51.9,5.31a3,3,0,0,0,2.3,1,3.07,3.07,0,0,0,3.11-2.68h3.69C67.54,129.27,64.82,131.27,61.4,131.27Zm8.8,24.14H67.68V136.65H70.2ZM85.73,139H80.56v16.4H78V139H72.86v-2.36H85.73Zm-3.46-7.89-4.74-8.56-2.39,2.9v5.66H71.55V112.31h3.59v8.19l6.51-8.19H86l-6.11,7.47,6.55,11.34Zm-.12-25.9c-1.86-1.9-1.81-4.26-1.81-7.51l0,0c0-3.24-.06-5.59,1.81-7.49a6.72,6.72,0,0,1,5-2.06c3.45,0,6.15,2,6.79,5.94H90.26a3.07,3.07,0,0,0-3.11-2.67,2.93,2.93,0,0,0-2.3,1c-.7.79-.91,1.68-.91,5.3s.21,4.52.91,5.31a2.93,2.93,0,0,0,2.3,1,3.08,3.08,0,0,0,3.11-2.66h3.68a6.55,6.55,0,0,1-6.79,5.94A6.77,6.77,0,0,1,82.15,105.22Zm18.74,43.9a6.29,6.29,0,0,1-6.12,6.45,3.23,3.23,0,0,1-.44,0h0a6.29,6.29,0,0,1-6.54-6V136.65h2.53V149c0,2.58,1.57,4.25,4,4.25s4-1.67,4-4.25V136.65h2.53ZM116,139h-5.18v16.4h-2.52V139h-5.17v-2.36H116Zm.17-37.44c0,3.64-3,5.7-6.83,5.7-2.8,0-4.92-.61-6.74-2.48l2.29-2.37a6,6,0,0,0,4.45,1.58c2.12,0,3.26-.81,3.26-2.32a2.12,2.12,0,0,0-.57-1.59,2.74,2.74,0,0,0-1.63-.66l-2.23-.31a6.16,6.16,0,0,1-3.56-1.55,5,5,0,0,1-1.33-3.7c0-3.36,2.42-5.71,6.42-5.71a7.82,7.82,0,0,1,6,2.19l-2.27,2.3a5.1,5.1,0,0,0-3.78-1.3c-1.92,0-2.84,1.08-2.84,2.38a1.79,1.79,0,0,0,.54,1.35,3.15,3.15,0,0,0,1.7.74l2.17.3a6,6,0,0,1,3.52,1.45A5.28,5.28,0,0,1,116.12,101.57ZM129.76,139h-9.18v5.78h7.83v2.35h-7.83v5.93h9.18v2.34H118.05V136.65h11.71Z"/><path class="cls-1" d="M37.87,115.57h-3.4v5h3.4a2.5,2.5,0,1,0,0-5Z"/></svg>