<svg id="Layer_1" data-name="Layer 1" xmlns="http://www.w3.org/2000/svg" xmlns:xlink="http://www.w3.org/1999/xlink" viewBox="0 0 414.14 167.43"><defs><style>.cls-1,.cls-10,.cls-11,.cls-12,.cls-13,.cls-14,.cls-2,.cls-4,.cls-5,.cls-6,.cls-7,.cls-8,.cls-9{fill:none;}.cls-10,.cls-11,.cls-12,.cls-13,.cls-14,.cls-2,.cls-4,.cls-5,.cls-6,.cls-7,.cls-8,.cls-9{stroke:#fff;}.cls-10,.cls-11,.cls-12,.cls-13,.cls-14,.cls-2,.cls-4,.cls-5,.cls-6,.cls-7,.cls-8{stroke-miterlimit:10;}.cls-2{stroke-width:1.01px;}.cls-3{clip-path:url(#clip-path);}.cls-4{stroke-width:2.03px;}.cls-5{stroke-width:0.78px;}.cls-6{stroke-width:0.61px;}.cls-7{stroke-width:0.51px;}.cls-8,.cls-9{stroke-width:0.81px;}.cls-10,.cls-11,.cls-12,.cls-13,.cls-9{stroke-linecap:round;}.cls-9{stroke-linejoin:round;}.cls-10{stroke-width:0.31px;}.cls-11,.cls-14{stroke-width:1.22px;}.cls-12{stroke-width:1.1px;}.cls-13{stroke-width:1.26px;}.cls-15,.cls-16{fill:#fff;}.cls-16{font-size:30px;font-family:RobotoSlab-Bold, Roboto Slab;font-weight:700;}.cls-17{letter-spacing:0em;}.cls-18{letter-spacing:-0.02em;}.cls-19{letter-spacing:-0.01em;}.cls-20{letter-spacing:0.01em;}.cls-21{letter-spacing:0em;}.cls-22{letter-spacing:-0.02em;}.cls-23{letter-spacing:-0.01em;}.cls-24{letter-spacing:-0.03em;}.cls-25{letter-spacing:-0.02em;}.cls-26{letter-spacing:0em;}.cls-27{letter-spacing:-0.02em;}.cls-28{letter-spacing:-0.02em;}.cls-29{letter-spacing:-0.01em;}.cls-30{letter-spacing:0em;}.cls-31{letter-spacing:-0.01em;}.cls-32{letter-spacing:0em;}.cls-33{letter-spacing:-0.02em;}.cls-34{letter-spacing:-0.02em;}.cls-35{letter-spacing:-0.01em;}.cls-36{letter-spacing:-0.01em;}.cls-37{letter-spacing:0.01em;}.cls-38{letter-spacing:-0.02em;}.cls-39{letter-spacing:-0.02em;}.cls-40{letter-spacing:-0.02em;}.cls-41{letter-spacing:0em;}.cls-42{letter-spacing:0em;}.cls-43{letter-spacing:0em;}.cls-44{letter-spacing:-0.01em;}.cls-45{letter-spacing:-0.01em;}.cls-46{letter-spacing:-0.01em;}.cls-47{letter-spacing:0em;}.cls-48{letter-spacing:0em;}.cls-49{letter-spacing:0.01em;}.cls-50{letter-spacing:-0.03em;}</style><clipPath id="clip-path" transform="translate(-274.2 -174.93)"><rect class="cls-1" width="1000" height="501.76"/></clipPath></defs><title>DBB</title><line class="cls-2" x1="23.1" y1="17.21" x2="23.1" y2="11.52"/><g class="cls-3"><path class="cls-2" d="M303.06,195.37c-3.66-.61-6-1.88-5.76-3.23.33-1.93,6.42-3.24,14.28-3.24s14.48,1.34,14.44,3.24c0,1.5-1.95,2.64-5.69,3.23" transform="translate(-274.2 -174.93)"/><path class="cls-2" d="M326,186.52c0-1.32-6.51-2.69-14.27-2.75" transform="translate(-274.2 -174.93)"/><line class="cls-2" x1="51.78" y1="16.89" x2="51.78" y2="11.57"/><path class="cls-2" d="M297.3,186.53c0-1.32,6.83-2.8,14.55-2.76" transform="translate(-274.2 -174.93)"/><path class="cls-4" d="M347.61,212.14a36.2,36.2,0,1,1-36.19-36.2A36.19,36.19,0,0,1,347.61,212.14Z" transform="translate(-274.2 -174.93)"/><path class="cls-5" d="M283.17,230a33.37,33.37,0,0,1-.25-35.25.57.57,0,0,1,.08-.13" transform="translate(-274.2 -174.93)"/><path class="cls-5" d="M339,230.83a33.35,33.35,0,0,1-54.85.55l0-.06" transform="translate(-274.2 -174.93)"/><path class="cls-5" d="M339.7,194.59l.1.17a33.35,33.35,0,0,1,.06,34.67l-.06.09" transform="translate(-274.2 -174.93)"/><path class="cls-5" d="M283.78,193.39a33.34,33.34,0,0,1,55.19.08" transform="translate(-274.2 -174.93)"/><polygon class="cls-6" points="43.08 42.1 42.57 39.26 50.87 44.79 50.1 46.6 43.08 42.1"/><polygon class="cls-7" points="56.95 50.98 57.72 49.35 67.12 55.6 66.25 56.94 56.95 50.98"/><polygon class="cls-6" points="32.16 42.19 32.32 39.55 23.55 45.39 24.32 47.11 32.16 42.19"/><polygon class="cls-7" points="8.37 57.4 7.5 56.07 16.86 49.84 17.69 51.44 8.37 57.4"/><polygon class="cls-8" points="42.1 35.81 41.88 33.19 44.24 31.62 45.23 33.81 42.1 35.81"/><polygon class="cls-8" points="29.35 33.31 30.34 31.13 32.95 32.86 32.82 35.49 29.35 33.31"/><path class="cls-9" d="M298.26,202.12l-1.26,2-2.62-1.64-1-.19a1.38,1.38,0,0,1-.4-.15l-3.27-1.83-5.15.16-.8-.46a.87.87,0,0,1-.41-1l.65-2.24a1.32,1.32,0,0,0-.26-1.22l-2.26-2.66" transform="translate(-274.2 -174.93)"/><path class="cls-9" d="M296.94,204.44l1.32-2-2.57-1.71-.6-.86a1.42,1.42,0,0,0-.3-.3l-3-2.23-2-4.76-.74-.54a.89.89,0,0,0-1.1.05l-1.77,1.51a1.32,1.32,0,0,1-1.22.27l-3.36-1" transform="translate(-274.2 -174.93)"/><path class="cls-9" d="M324.52,202.12l1.26,2,2.62-1.64,1-.19a1.38,1.38,0,0,0,.4-.15l3.28-1.83,5.15.16L339,200a.89.89,0,0,0,.42-1l-.66-2.24a1.32,1.32,0,0,1,.26-1.22l2.26-2.66" transform="translate(-274.2 -174.93)"/><path class="cls-9" d="M325.84,204.44l-1.32-2,2.58-1.71.59-.86a1.42,1.42,0,0,1,.3-.3l3-2.23,2-4.76.75-.54a.87.87,0,0,1,1.09.05l1.77,1.51a1.32,1.32,0,0,0,1.22.27l3.36-1" transform="translate(-274.2 -174.93)"/><path class="cls-10" d="M305.4,186.42a39.55,39.55,0,0,1,6.19-.38,40.37,40.37,0,0,1,6,.36" transform="translate(-274.2 -174.93)"/><path class="cls-11" d="M315.4,192.45c.44,17.76,1.89,32.32,4.25,32.32" transform="translate(-274.2 -174.93)"/><path class="cls-11" d="M307.93,192.47c-.43,17.76-1.49,32.3-3.85,32.3" transform="translate(-274.2 -174.93)"/><path class="cls-12" d="M304,224.8c.43.84,3.63,1.72,7.69,1.72" transform="translate(-274.2 -174.93)"/><path class="cls-12" d="M319.65,224.77c-.43.87-3.92,1.74-8,1.74" transform="translate(-274.2 -174.93)"/><path class="cls-13" d="M307.93,192.47a24.18,24.18,0,0,1,7.06,0" transform="translate(-274.2 -174.93)"/><path class="cls-14" d="M307.74,192.49a18.25,18.25,0,0,0-3.11,1,8.53,8.53,0,0,0-2.37,2.15,21,21,0,0,0-2.62,3.36c-.79,1.57-1.37,3.28-2.22,4.82a25.75,25.75,0,0,1-2.11,3c-1.2,1.55-2.33,3.16-3.39,4.8a13.76,13.76,0,0,0-2.66,6.45,12.29,12.29,0,0,0,1.93,6.63,13.18,13.18,0,0,1,1.74,3.82,5.52,5.52,0,0,1-.84,4.05,1.16,1.16,0,0,0-.27.61c0,.51.68.68,1.18.7l6.93.27c.92-1.63,1.88-3.42,1.62-5.28a8.77,8.77,0,0,0-.94-2.56c-.7-1.42-1.39-2.84-2.09-4.27a8.69,8.69,0,0,1-1.23-4.13,6.32,6.32,0,0,1,1.17-3.16c1.57-2.4,4-4.2,5.23-6.78,1-2,2-5.4,3.84-6.36" transform="translate(-274.2 -174.93)"/><path class="cls-14" d="M314.69,192.51a6.13,6.13,0,0,1,3.7.85,9,9,0,0,1,2.54,2,20.15,20.15,0,0,1,2.3,3.43c.79,1.57,1.23,3.3,2.09,4.84a23.53,23.53,0,0,0,2.11,3q1.79,2.32,3.39,4.8a13.85,13.85,0,0,1,2.65,6.45,12.15,12.15,0,0,1-1.93,6.62,13.06,13.06,0,0,0-1.73,3.83,5.47,5.47,0,0,0,.83,4.05,1.06,1.06,0,0,1,.27.61c0,.51-.67.68-1.18.7l-6.93.27c-.92-1.64-1.87-3.42-1.61-5.28a8.47,8.47,0,0,1,.93-2.56c.7-1.42,1.4-2.85,2.09-4.27a8.82,8.82,0,0,0,1.24-4.13,6.49,6.49,0,0,0-1.17-3.17c-1.57-2.39-4-4.19-5.24-6.77-1-2-1.27-4.51-3.06-5.84" transform="translate(-274.2 -174.93)"/><path class="cls-15" d="M298.13,187.65a2.18,2.18,0,0,0,2.28-.5s0,0,0,0a3.31,3.31,0,0,0-2.28.53m2.9-.88c0,.74-.89,1.29-1.79,1.41a2.34,2.34,0,0,1-1.84-.43,2.88,2.88,0,0,1,2.36-1.06,5.42,5.42,0,0,1,1.27.08" transform="translate(-274.2 -174.93)"/><path class="cls-15" d="M303.92,186.6a2.22,2.22,0,0,0-2.34.09s0,0,0,0a3.29,3.29,0,0,0,2.34-.12m-3,.35c.16-.72,1.1-1.11,2-1.06a2.35,2.35,0,0,1,1.74.74,2.9,2.9,0,0,1-2.52.63,5,5,0,0,1-1.23-.31" transform="translate(-274.2 -174.93)"/><path class="cls-15" d="M324.82,187.55a3.21,3.21,0,0,0-2.28-.53s0,0,0,0a2.21,2.21,0,0,0,2.28.51m-2.9-.88a5.42,5.42,0,0,1,1.27-.08,2.91,2.91,0,0,1,2.37,1.06,2.36,2.36,0,0,1-1.84.42c-.91-.11-1.77-.66-1.8-1.4" transform="translate(-274.2 -174.93)"/><path class="cls-15" d="M319,186.49a3.26,3.26,0,0,0,2.35.12s0,0,0,0a2.21,2.21,0,0,0-2.34-.1m3,.36a5.63,5.63,0,0,1-1.24.3,2.85,2.85,0,0,1-2.51-.63,2.31,2.31,0,0,1,1.73-.74c.91-.05,1.86.35,2,1.07" transform="translate(-274.2 -174.93)"/><path class="cls-15" d="M312.43,209.29c.76-.55,1.71-2.19,1.24-3.33,0,0,0,0,0,0-.53.83-1.45,2-1.21,3.35m1.28-4.44c.91.65.91,2.21.3,3.46a3.52,3.52,0,0,1-2.06,2c-.61-1.1-.05-2.78.6-3.89a8.53,8.53,0,0,1,1.16-1.56" transform="translate(-274.2 -174.93)"/><path class="cls-15" d="M310.67,209.81c0,.05.1.15.12.11a5.82,5.82,0,0,0-1.21-3.65,5.63,5.63,0,0,0,1.09,3.54m.76,1.83c-.06.05-.16-.08-.23-.13a6.46,6.46,0,0,1-2.29-4.46,4.84,4.84,0,0,1,.26-2c1.89.79,2.56,3.87,2.26,6.6" transform="translate(-274.2 -174.93)"/><path class="cls-15" d="M310.78,217.09c-.07-1.72-.74-2.93-2-3.28a4.85,4.85,0,0,0,2,3.28m-2-7.34s0,0,0,0a6.8,6.8,0,0,0,.74,2.78,1.31,1.31,0,0,0,.53.54,4.17,4.17,0,0,0-1.26-3.34m1.57,4.35a5.06,5.06,0,0,1,.93,4.11,3.22,3.22,0,0,1-.57-.42,8.32,8.32,0,0,1-1.54-1.54,3.66,3.66,0,0,1-.69-3.17c.35-.05.51.13.77.19a8.22,8.22,0,0,1-1.1-4.64s0,0,0,0a3.33,3.33,0,0,1,2,2.06,5,5,0,0,1,.19,3.4" transform="translate(-274.2 -174.93)"/><path class="cls-15" d="M314.06,213.38c-1,.37-1.71,2.09-1.5,3.49.61-.94,1.52-1.89,1.53-3.47,0,0,0,0,0,0Zm-.93-.89c.57-.81,1.56-1.85,1.39-3.16,0,0,0,0,0,0a4.3,4.3,0,0,0-1.38,3.18m1.73-4.23h0a1.73,1.73,0,0,1,.39,1.35,6.53,6.53,0,0,1-1.48,3.09c.42,0,.64-.2,1.06-.14a7.56,7.56,0,0,1-2.91,5.76,8.39,8.39,0,0,1-.13-2.19,4.15,4.15,0,0,1,.26-1.24,10.59,10.59,0,0,0,.46-1c.22-.76-.16-1.42-.08-2.13a4.41,4.41,0,0,1,.91-2.16,6.12,6.12,0,0,1,1.49-1.39" transform="translate(-274.2 -174.93)"/><path class="cls-15" d="M311.58,206c.55-1.07,1.18-3.25.38-4.28-.66,1-1.07,3.26-.38,4.28m.21-5.45c1.1.48,1.47,1.62,1.35,3a8.56,8.56,0,0,1-1.51,4c-1.83-1.17-1.4-5.67.16-7" transform="translate(-274.2 -174.93)"/><path class="cls-15" d="M312.4,220.12c.34,1.23.63,1.6.19,2.35-1,1.7-.27-1-.62-2.24s-.72-2.43-.48-2.5.56,1.15.91,2.39" transform="translate(-274.2 -174.93)"/><path class="cls-15" d="M310,219a.67.67,0,0,0-.29.92c.06.13.17.23.24.36a.93.93,0,0,1,0,.9,1.42,1.42,0,0,1-.7.6c-.4.17-.84.2-1.25.35a1.11,1.11,0,0,0-.82.9.58.58,0,0,0,.37-.15c0,.21.08.41.11.62a1.46,1.46,0,0,1,.84-.78,6.33,6.33,0,0,1,.87-.15,1.61,1.61,0,0,0,1.42-1.44,2.06,2.06,0,0,0-.17-.69l-.24-.67c0-.39.58-.1.84.05s.73.28.71.19a.88.88,0,0,0-.05-.15,1,1,0,0,0-.07-.29A1.81,1.81,0,0,0,310,219" transform="translate(-274.2 -174.93)"/><path class="cls-15" d="M312.2,219.42l.2-.08a1.54,1.54,0,0,1,1.25-.13,1.51,1.51,0,0,1,.54.63,4.61,4.61,0,0,1,.46,1,3.79,3.79,0,0,0,.36,1.2,2.78,2.78,0,0,0,.21.27,2.8,2.8,0,0,1,.65,1.86,2.72,2.72,0,0,0-.56-.37.68.68,0,0,1-.22.59,2.32,2.32,0,0,0-.58-1.61,3.17,3.17,0,0,1-.29-.35,1.5,1.5,0,0,1-.17-.46l-.21-.77a2.87,2.87,0,0,0-.35-.91,1,1,0,0,0-.82-.45c-.24,0-.09.08-.33.07" transform="translate(-274.2 -174.93)"/><path class="cls-15" d="M313.9,240.17c-.32,0-.47.53-.77.65a4.44,4.44,0,0,1-1.74,0c-1.82-.16-3.31-.16-5.12-.28-.24,1.42,1.12,1.29,2.37,1.36,2.38.12,5.27.16,7.44.28a3.85,3.85,0,0,1-.21-1.86c-.58.1-1.38-.18-2-.11m-10.82-2.3a1.22,1.22,0,0,0-.29.76c0,.45.09.92.39,1.09a5,5,0,0,0,2.23.25c2.48-.06,4.85.36,7.26.33a4,4,0,0,1-.14-1.92c-3.12-.19-6.45-.35-9.6-.51,0,0,0-.07,0-.06m9.59-.38c-.55,0-1.09,0-1.63-.05-1.43-.06-2.84-.17-4.25-.24-.72,0-1.42-.14-2.13-.11a2,2,0,0,0-.86.2c-.06,0-.14.09-.14.16,3,.16,6.07.32,9,.54.07-.06.09-.12.16-.18s.24-.1.28-.23-.32-.09-.47-.09m4,2.52c-.13.13-.38.33-.42.46a1.71,1.71,0,0,0,.05.84,6.79,6.79,0,0,0,.13.86,18.83,18.83,0,0,0,1.9-1.89c.59-.59,1.3-1.33,1.86-2a5.16,5.16,0,0,1-.14-1.63c-1,1-2.36,2.3-3.38,3.32m.82-3.44s0,0,0,0c-.06.37-.4.57-.66.83-.46.46-.89.9-1.31,1.36-.22.24-.42.5-.63.7,0,0-.18.09-.15.13.32,0,.67,0,1,.06.11,0,.26,0,.33,0s.27-.24.37-.34c.62-.61,1.19-1.21,1.78-1.8a6.52,6.52,0,0,1,.92-.85c-.53,0-1.06-.12-1.62-.15m-.81-1.41c-.57.59-1.46,1.59-2.08,2.21-.08.08-.21.23-.28.24a2.5,2.5,0,0,1-.35,0c-1,.21-1.4,1.69-.9,2.65a35.88,35.88,0,0,0,3.88-3.82c-.18-.26-.15-1-.27-1.32m-12.5,1c.36.66,1.26.6,2.31.6.86,0,1.69.05,2.45.1l5,.27a4.23,4.23,0,0,1-.23-1.93c-3.19-.1-6.16-.36-9.3-.5a1.05,1.05,0,0,0-.31,1m13.61-4s.32-.33.07-.08c-.58.58-1.42,1.45-2.07,2.11-.29.29-.65.55-1,.85a2,2,0,0,0-.75,1.09,5,5,0,0,0,.21,1.43,47.61,47.61,0,0,0,3.83-3.95c-.28-.27,0-1.22-.15-1.62m-8.11-.39c.34,0,.45,0-.71.76s-2.53,1.48-3.67,2.31c0,0-.08,0-.07.08,2.68.08,5.29.36,8,.44a3.61,3.61,0,0,0,.55,0c.1,0,.31-.28.42-.39l.42-.39a32.89,32.89,0,0,0,2.37-2.35s.1-.11.05-.11a52.09,52.09,0,0,1-7.16-.36l.48,0m8.07-.08a2.39,2.39,0,0,0,0,2.32c-.49.8-1.56,1.12-1.41,2.47,1.12.22,2.43.24,3.65.36,0,.07-.05.12-.07.19-.25.55-.4,1.71.1,2.14-1.22,1.36-2.55,2.69-3.87,4-.08.09-.21.24-.27.25a3.58,3.58,0,0,1-.79,0l-5.38-.26c-.94,0-2.07-.07-3.07-.17s-2-.47-1.81-1.75a22.29,22.29,0,0,1-2.37-.24,1.36,1.36,0,0,1-1-1.57,1.91,1.91,0,0,1,.61-1.36c.3-.22.68-.31,1-.56a2.27,2.27,0,0,1-.1-2.52,4.23,4.23,0,0,1,1.26-.85c1.36-.72,3.06-1.93,4.33-2.67" transform="translate(-274.2 -174.93)"/><path class="cls-15" d="M319.78,197.49c.39,0,.43.44.68.63-1,1-2,2-3.06,2.94-.14-.23-.35-.41-.51-.63a29.72,29.72,0,0,0,2.89-2.94" transform="translate(-274.2 -174.93)"/><path class="cls-15" d="M322.34,199.76c-.15.18-.48.25-.62.4,0-.43-.32-1.17-.85-1.06a.75.75,0,0,0-.54.71c-.07.81.37,1.8,0,2.45a1.26,1.26,0,0,1-1.16.5,1.74,1.74,0,0,1-1.3-1.14.84.84,0,0,1,0-.66.74.74,0,0,1,.74-.12c0,.26-.23.39-.28.65s.19.53.33.77a.8.8,0,0,0,.89-.25c.31-.48.15-1.33.18-2.07s.24-1.51,1.14-1.43a1.83,1.83,0,0,1,.95.45,2,2,0,0,1,.58.8" transform="translate(-274.2 -174.93)"/><path class="cls-15" d="M304,202.83c0,.12-.12.17-.08.3a20.68,20.68,0,0,1-2.52.42,1,1,0,0,0,.37.29c.41.23,1,.37,1.38.63,0,.26-.19.31-.2.54-1.27-.4-2.16-1.17-3.49-1.51.15-1.07,1.86-.64,2.77-1a1.12,1.12,0,0,0-.4-.29c-.45-.25-1-.46-1.47-.68a1,1,0,0,1,.21-.42c1.14.57,2.31,1.1,3.43,1.7" transform="translate(-274.2 -174.93)"/><path class="cls-15" d="M323.7,203.29a5.64,5.64,0,0,0-2.34,1.54c.9-.09,1.8-.16,2.64-.33a6.76,6.76,0,0,1,.79,1.45,19.92,19.92,0,0,0-1.15,1.77,4.63,4.63,0,0,0,1.21-.75c.11-.07.33-.25.41-.24.23,0,.26.44.33.61-.59.34-1.18.64-1.77,1a5.05,5.05,0,0,1-1.82.88,15.1,15.1,0,0,1,1.53-2.85,19.78,19.78,0,0,0-2.48,1.24c-.08-.06-.37-.35-.29-.53s.35-.15.43-.19a13.94,13.94,0,0,0,2.76-1.66c-1.14,0-2.32.17-3.47.27a1.77,1.77,0,0,1-.5,0c-.2-.07-.28-.47-.33-.66.32-.18.64-.33.94-.52s.57-.4.85-.62c.56-.44,1.1-1,1.61-1.44a2.27,2.27,0,0,1,.65,1" transform="translate(-274.2 -174.93)"/><path class="cls-15" d="M303,205.8a1.12,1.12,0,0,1-.34.88c-1.37-.55-2.4-1.44-3.83-1.92.14-.29.29-.64.43-.88,1.29.6,2.43,1.35,3.74,1.92" transform="translate(-274.2 -174.93)"/><path class="cls-15" d="M298.76,204.9a4,4,0,0,1,.75.53,1.23,1.23,0,0,0-1.36,1.3,1.84,1.84,0,0,0,2,1.88,1.23,1.23,0,0,0,1.23-1.1,2.14,2.14,0,0,0-.18-1,2.27,2.27,0,0,1,.82.56c-.43,1.14-.76,2.7-2.39,2.59a2.33,2.33,0,0,1-1.35-.63,2.38,2.38,0,0,1-.73-1.28,2.32,2.32,0,0,1,.3-1.65,4.92,4.92,0,0,1,.47-.53,1.87,1.87,0,0,0,.42-.64" transform="translate(-274.2 -174.93)"/><path class="cls-15" d="M326.2,208.49c-1.08.61-2.19,1.18-3.26,1.81-.24-.13-.21-.41-.41-.57,1.06-.63,2.2-1.23,3.18-1.95.29.17.27.51.49.71" transform="translate(-274.2 -174.93)"/><path class="cls-15" d="M326.31,209c.3.18.28.55.48.79a23.21,23.21,0,0,0-1.69,1.85,4.64,4.64,0,0,0,2.62-.55c.13.23.4.39.4.69a20.24,20.24,0,0,0-3.84.74,2.08,2.08,0,0,1-.52-.73c.91-.81,1.63-2,2.55-2.79" transform="translate(-274.2 -174.93)"/><path class="cls-15" d="M300,210.83a1.09,1.09,0,0,1-.88.85,11.54,11.54,0,0,0-3-2.88c.14-.36.58-.43.74-.76a13.88,13.88,0,0,0,3.17,2.79" transform="translate(-274.2 -174.93)"/><path class="cls-15" d="M295.59,209.24c.38-.08.46.28.79.3-.14.13-.32.2-.48.35s-.31.32-.27.5.2.25.31.36c.75.75,1.75,1.31,2.5,2-.1.28-.43.4-.5.71-1-.67-1.92-1.54-2.9-2.27a1.71,1.71,0,0,0-.81,1c-.19-.11-.29-.34-.44-.49.47-.91,1.26-1.57,1.8-2.42" transform="translate(-274.2 -174.93)"/><path class="cls-15" d="M329.71,213.53c-.49-.17-.28-1.13-1-1.07s-.79,1.34.1,1.26a1,1,0,0,1-.81.49c0-.36,0-.7-.31-.8a2,2,0,0,0-.87.52.88.88,0,0,0-.26.46c-.07.45.37.6.73.7a.51.51,0,0,1-.67.26c-.49-.23-.77-1.06-1.06-1.5a4,4,0,0,0,1.63-1.15c.2-.2.41-.39.63-.58a2.15,2.15,0,0,1,.75-.47.47.47,0,0,1,.25,0,2,2,0,0,1,.68.58c.29.33.66.94.18,1.26" transform="translate(-274.2 -174.93)"/><path class="cls-15" d="M329.38,216.1c-.26,1.25,1.43,1.2,1.53.31a.75.75,0,0,0-.16-.56,12.9,12.9,0,0,0-1.37.25m-1.57,2.33c-.68,0-1.11,1.49-.25,1.58a.41.41,0,0,0,.22,0c.75-.19,1.34-1.08,2.22-1.14a.85.85,0,0,1,.93.93c-.07.61-.6,1-.73,1.53-.28-.08-.42-.31-.74-.36.34-.23,1.05-.63.62-1.2a2.39,2.39,0,0,0-1.2.47,2.31,2.31,0,0,1-1.2.47c-.73,0-1.1-.54-1-1.37a3.21,3.21,0,0,1,.32-1.09l.09-.15c.08-.17.08-.2.32-.2,0-.22.12-.37.14-.58.34-.37.91-.5,1.18-.94a2.85,2.85,0,0,0-1.55.33c-.21-.15-.08-.64-.19-.89,1.28-.35,3-.37,4-.92.63,1,.6,3.06-1,2.93a2,2,0,0,1-.93-.45c-.08,0-.21-.17-.29-.18a1.05,1.05,0,0,0-.54.18c-.13.07-.36.23-.39.33s0,.15,0,.22-.13.36,0,.53" transform="translate(-274.2 -174.93)"/><path class="cls-15" d="M292.87,217.38a2.74,2.74,0,0,0-.8.41,8.52,8.52,0,0,1,.92.08.65.65,0,0,0-.12-.49m2.11-.67c-.07,0-.21-.09-.34-.1-.38,0-.7.26-1,.34v.48a1.93,1.93,0,0,0,0,.48c.06.18.41.22.63.23a3.13,3.13,0,0,1,.79.06c.17.08.37.54.44.72a4.09,4.09,0,0,1,.22.93c-1.19.1-1.72.82-2.72,1.1a8.51,8.51,0,0,0,2,.08c0,.44-.27.66-.35,1a6.69,6.69,0,0,0,2.09-1c0,.29.24.38.26.67a20.4,20.4,0,0,0-3.92,1.92c0-.28-.28-.35-.28-.59a1.27,1.27,0,0,1,.2-.38c.21-.34.53-.71.72-1a6,6,0,0,0-2-.21c-.06-.35-.28-.54-.3-.94a17.28,17.28,0,0,0,3.66-1.67,27,27,0,0,0-4.58-.77,1.54,1.54,0,0,0-.07-.67,31.19,31.19,0,0,1,4.43-2.13,3.21,3.21,0,0,1,.13,1.38" transform="translate(-274.2 -174.93)"/><path class="cls-15" d="M330.44,222.54c-.43,1.16-1.06,2.09-1.52,3.2a1.26,1.26,0,0,1-.71-.25s.07-.1.12-.15a3,3,0,0,0,.47-.47,11.59,11.59,0,0,0-3-1.7c.06-.3.27-.44.31-.75a24.72,24.72,0,0,0,3.13,1.57c.22-.11.25-.42.38-.63a14,14,0,0,0-3.06-1.64c.05-.32.29-.44.37-.73a19.73,19.73,0,0,0,3.52,1.55" transform="translate(-274.2 -174.93)"/><path class="cls-15" d="M298.18,224.88a23.85,23.85,0,0,0-3.69,1.65,2.24,2.24,0,0,1-.44-1,11.56,11.56,0,0,0,3.22-1.53c0-.54-.71-.5-1.13-.67a1.06,1.06,0,0,1,.92-.26,1.8,1.8,0,0,1,1.12,1.84" transform="translate(-274.2 -174.93)"/><path class="cls-15" d="M326.31,225.85c.22,0,.53.17.69,0-.28,0-.31-.32-.61-.32a.44.44,0,0,0-.08.32m2,.62c-1.06.25-2.22-.11-3.33-.05,0,.19.21.29.24.43a1.18,1.18,0,0,0-.91.46c-.21.23-.54.8-.2,1.08a.87.87,0,0,0,.54.14c.45-.05.76-.5,1.07-.84a1.88,1.88,0,0,1,1.13-.77c.78-.08,1.21.41,1.15,1.23,0,.46-.39.59-.38,1.21a1.56,1.56,0,0,1-.73-.13c.42-.16.79-1,.34-1.38-.87.09-1.14.76-1.67,1.22a1.07,1.07,0,0,1-.84.36,1.25,1.25,0,0,1-1.17-1c0-.09,0-.2,0-.3a3.41,3.41,0,0,1,.56-1.34,4.67,4.67,0,0,0,.57-1.32c.16,0,.31.08.49.11a1.28,1.28,0,0,0,.55,0c.21-.08.26-.58.46-.71a2.08,2.08,0,0,0-.87-.79,1.85,1.85,0,0,1,.32-.43c.45.46.91.91,1.37,1.37a6.38,6.38,0,0,1,1.31,1.43" transform="translate(-274.2 -174.93)"/><path class="cls-15" d="M297.32,227.69c-.15.25-.44.37-.57.64a3.11,3.11,0,0,1,.87-.07c-.07-.22-.08-.49-.3-.57m.93-2.25c.27.19.32.65.49.89-.14.43-.65.5-.86.87a6.84,6.84,0,0,0,.52.92,1.88,1.88,0,0,0,1.35-.21c0,.37.12.61.07,1-1.49-.35-3.29.18-4.85-.07.28-.76,1-1.14,1.61-1.67s1.1-1.14,1.67-1.68" transform="translate(-274.2 -174.93)"/><path class="cls-15" d="M302.07,198.76c.07.52-.9.8-.51,1.39s1.6,0,1.09-.71a1.05,1.05,0,0,1,.85.48c-.36.14-.62.39-.59.67a2.21,2.21,0,0,0,.89.52,1.14,1.14,0,0,0,.55,0c.43-.17.36-.62.28-1a.5.5,0,0,1,.56.46c0,.55-.6,1.21-.85,1.68a4.09,4.09,0,0,0-1.84-.88c-.27-.08-.55-.18-.82-.28a2.15,2.15,0,0,1-.79-.43.48.48,0,0,1-.09-.24,1.92,1.92,0,0,1,.21-.89c.16-.42.54-1,1.06-.78" transform="translate(-274.2 -174.93)"/><path class="cls-15" d="M307.15,198.86c-.09.11-.22.07-.27.21a20.66,20.66,0,0,1-2.39-1.21,1,1,0,0,0,.12.48c.19.46.59.94.76,1.41-.16.23-.36.15-.52.34-.81-1.14-1.07-2.37-2-3.5.83-.84,2,.61,3,.89a1.42,1.42,0,0,0-.15-.5c-.22-.49-.54-1-.8-1.51a1.13,1.13,0,0,1,.44-.24c.6,1.21,1.24,2.42,1.8,3.63" transform="translate(-274.2 -174.93)"/><path class="cls-15" d="M319.35,195.38c-.08.22-.37.39-.45.57-.18-.39-.68-1-1.15-.72a.75.75,0,0,0-.29.84c.2.79.93,1.59.77,2.33a1.26,1.26,0,0,1-.94.85,1.74,1.74,0,0,1-1.6-.66.78.78,0,0,1-.23-.61c.05-.19.38-.35.65-.36.09.25-.09.45-.05.71s.35.44.55.62a.79.79,0,0,0,.77-.52c.13-.56-.29-1.31-.5-2s-.25-1.52.63-1.73a1.88,1.88,0,0,1,1,.12,2,2,0,0,1,.81.57" transform="translate(-274.2 -174.93)"/></g><text class="cls-16" transform="translate(90.24 91.32)"><tspan class="cls-17">D</tspan><tspan class="cls-18" x="20.8" y="0">e</tspan><tspan class="cls-19" x="36.08" y="0">p</tspan><tspan class="cls-17" x="53.91" y="0">a</tspan><tspan class="cls-20" x="70.73" y="0">r</tspan><tspan class="cls-21" x="83.98" y="0">t</tspan><tspan class="cls-22" x="94.86" y="0">m</tspan><tspan class="cls-23" x="122.4" y="0">e</tspan><tspan class="cls-24" x="137.93" y="0">n</tspan><tspan x="156.14" y="0">t </tspan><tspan class="cls-25" x="174.26" y="0">o</tspan><tspan x="190.58" y="0">f </tspan><tspan class="cls-26" x="209.64" y="0">B</tspan><tspan class="cls-22" x="229.18" y="0">i</tspan><tspan class="cls-27" x="238.32" y="0">o</tspan><tspan class="cls-28" x="254.61" y="0">l</tspan><tspan class="cls-29" x="263.66" y="0">og</tspan><tspan x="297.71" y="0">y </tspan></text><text class="cls-16" transform="translate(90.24 125.31)"><tspan class="cls-30">a</tspan><tspan class="cls-31" x="17.05" y="0">n</tspan><tspan x="35.84" y="0">d </tspan><tspan class="cls-32" x="60.95" y="0">B</tspan><tspan class="cls-22" x="80.48" y="0">i</tspan><tspan class="cls-33" x="89.63" y="0">o</tspan><tspan class="cls-34" x="106.07" y="0">t</tspan><tspan class="cls-35" x="116.17" y="0">e</tspan><tspan class="cls-36" x="131.78" y="0">c</tspan><tspan class="cls-37" x="147.33" y="0">h</tspan><tspan class="cls-38" x="166.62" y="0">n</tspan><tspan class="cls-39" x="185.28" y="0">o</tspan><tspan class="cls-40" x="201.57" y="0">l</tspan><tspan class="cls-29" x="210.63" y="0">og</tspan><tspan x="244.67" y="0">y </tspan></text><text class="cls-16" transform="translate(90.24 159.3)"><tspan class="cls-41">“</tspan><tspan class="cls-42" x="12.17" y="0">L</tspan><tspan class="cls-43" x="29.66" y="0">a</tspan><tspan class="cls-31" x="46.44" y="0">z</tspan><tspan class="cls-44" x="62.3" y="0">z</tspan><tspan class="cls-43" x="78.22" y="0">a</tspan><tspan class="cls-45" x="95" y="0">r</tspan><tspan x="107.59" y="0">o </tspan><tspan class="cls-17" x="131.86" y="0">S</tspan><tspan class="cls-46" x="150.04" y="0">p</tspan><tspan class="cls-47" x="167.87" y="0">a</tspan><tspan class="cls-37" x="184.93" y="0">l</tspan><tspan class="cls-48" x="194.7" y="0">l</tspan><tspan class="cls-47" x="204.21" y="0">a</tspan><tspan class="cls-48" x="221.26" y="0">n</tspan><tspan class="cls-19" x="240.35" y="0">z</tspan><tspan class="cls-49" x="256.23" y="0">an</tspan><tspan class="cls-50" x="292.58" y="0">i</tspan><tspan x="301.4" y="0">&quot; </tspan></text><g class="cls-3"><path class="cls-15" d="M368.13,216.53c0,2.1,0,4.39,2,6.08a6.66,6.66,0,0,0,8.25,0c2-1.69,2-4,2-6.08V201.19h2.77v16.09a9.7,9.7,0,0,1-1.57,6,9.62,9.62,0,0,1-14.63,0,9.71,9.71,0,0,1-1.58-6V201.19h2.78Z" transform="translate(-274.2 -174.93)"/><polygon class="cls-15" points="115.38 51.28 115.38 25.22 134.88 45.66 134.88 26.27 137.66 26.27 137.66 52.41 118.15 31.97 118.15 51.28 115.38 51.28"/><rect class="cls-15" x="144.1" y="26.27" width="2.77" height="25.02"/><polygon class="cls-15" points="153.48 26.27 160.53 45.36 167.58 26.27 170.65 26.27 160.53 52.78 150.4 26.27 153.48 26.27"/><polygon class="cls-15" points="187.15 28.89 176.95 28.89 176.95 36.32 186.85 36.32 186.85 38.94 176.95 38.94 176.95 48.66 187.15 48.66 187.15 51.28 174.18 51.28 174.18 26.27 187.15 26.27 187.15 28.89"/><path class="cls-15" d="M470.47,201.19c1.68,0,4.2.12,6.07,1.39A7,7,0,0,1,473,215l7.95,11.18h-3.38l-7.61-11h-.71v11h-2.78v-25Zm-1.24,11.59H471c3.45,0,5.51-1.65,5.51-4.57a3.9,3.9,0,0,0-2-3.68,7.12,7.12,0,0,0-3.6-.71h-1.69Z" transform="translate(-274.2 -174.93)"/><path class="cls-15" d="M496.45,206.14a6,6,0,0,0-1.46-1.87,4.48,4.48,0,0,0-2.81-.86c-2.48,0-4.2,1.53-4.2,3.86a2.62,2.62,0,0,0,.94,2.18,8.06,8.06,0,0,0,2.62,1.57l2.4,1a12.2,12.2,0,0,1,3.86,2.36,6,6,0,0,1,1.8,4.54c0,4.61-3.41,7.69-7.91,7.69a7.47,7.47,0,0,1-5.44-2,9.13,9.13,0,0,1-2.32-4.42l2.7-.75a6,6,0,0,0,1.5,3.19,4.81,4.81,0,0,0,3.6,1.39,4.74,4.74,0,0,0,5-5,3.71,3.71,0,0,0-1.23-2.92,10.94,10.94,0,0,0-3-1.73l-2.25-1.05a10.9,10.9,0,0,1-3.34-2.06,5.19,5.19,0,0,1-1.73-4.09c0-3.86,3-6.45,7-6.45a6.76,6.76,0,0,1,4,1.13,7.59,7.59,0,0,1,2.44,2.77Z" transform="translate(-274.2 -174.93)"/><rect class="cls-15" x="230.5" y="26.27" width="2.77" height="25.02"/><polygon class="cls-15" points="245.88 28.89 245.88 51.28 243.1 51.28 243.1 28.89 237.02 28.89 237.02 26.27 251.95 26.27 251.95 28.89 245.88 28.89"/><path class="cls-15" d="M542,219.16H531.36l-3,7.05h-3.07L536.8,200,548,226.21h-3.08Zm-10.73-24.34,2.62-1.69,4.73,4.88-1.61,1.2Zm9.64,21.71-4.2-10-4.28,10Z" transform="translate(-274.2 -174.93)"/><path class="cls-15" d="M560.28,201.19h5.1a13.61,13.61,0,0,1,9.22,2.93,12.18,12.18,0,0,1,4.28,9.6,11.91,11.91,0,0,1-4.39,9.6c-2.29,2-4.69,2.89-9.15,2.89h-5.06Zm2.77,22.39h2.44a10.65,10.65,0,0,0,7.16-2.25,9.55,9.55,0,0,0,3.38-7.61c0-6-4.2-9.9-10.54-9.9h-2.44Z" transform="translate(-274.2 -174.93)"/><rect class="cls-15" x="309.77" y="26.27" width="2.78" height="25.02"/><path class="cls-15" d="M606.47,201.19c2.52,0,4.62.3,6.3,1.77a6.94,6.94,0,0,1,2.29,5.36c0,3.53-2.21,7-7.91,7h-2.44v10.88h-2.77v-25Zm-1.76,11.52H607c3.3,0,5.29-1.65,5.29-4.54,0-4-3.72-4.35-5.52-4.35h-2.06Z" transform="translate(-274.2 -174.93)"/><path class="cls-15" d="M630.89,219.16H620.24l-3,7.05h-3.08L625.68,200l11.21,26.22h-3.08Zm-1.09-2.63-4.2-10-4.28,10Z" transform="translate(-274.2 -174.93)"/><polygon class="cls-15" points="364.41 26.27 371.46 45.36 378.51 26.27 381.59 26.27 371.46 52.78 361.34 26.27 364.41 26.27"/><rect class="cls-15" x="385.11" y="26.27" width="2.78" height="25.02"/><path class="cls-15" d="M682.34,219.16H671.69l-3,7.05h-3.08L677.13,200l11.21,26.22h-3.07Zm-1.09-2.63-4.2-10-4.27,10Z" transform="translate(-274.2 -174.93)"/></g></svg>