<?xml version="1.0" encoding="utf-8"?>
<!-- Generator: Adobe Illustrator 24.0.1, SVG Export Plug-In . SVG Version: 6.00 Build 0)  -->
<svg version="1.1" id="Ebene_1" xmlns="http://www.w3.org/2000/svg" xmlns:xlink="http://www.w3.org/1999/xlink" x="0px" y="0px"
	 viewBox="0 0 503.87 119.18" style="enable-background:new 0 0 503.87 119.18;" xml:space="preserve">
<style type="text/css">
	.st0{fill:#FFFFFF;}
</style>
<g>
	<path class="st0" d="M53.45,54.08L39.44,29.85c-2.5-4.32-8.02-5.8-12.34-3.3L4.52,39.59C1.72,41.2,0,44.18,0,47.41L0,69.8
		c0,3.23,1.72,6.21,4.52,7.83l22.59,13.04c4.32,2.5,9.85,1.01,12.34-3.31l14-24.24C55.07,60.32,55.07,56.88,53.45,54.08z"/>
	<path class="st0" d="M48.43,102.97l22.55,13.01c2.8,1.61,6.24,1.61,9.03,0l19.38-11.19c2.8-1.61,4.52-4.6,4.52-7.83V71.16
		c0-4.99-4.05-9.04-9.04-9.04H66.84c-3.22,0-6.2,1.72-7.82,4.51l-13.9,23.98C42.62,94.94,44.1,100.47,48.43,102.97z"/>
	<path class="st0" d="M70.99,1.21L48.32,14.3C44,16.79,42.52,22.31,45,26.63l14.07,24.45c1.61,2.8,4.6,4.53,7.83,4.53h27.97
		c4.99,0,9.04-4.05,9.04-9.04V20.22c0-3.23-1.72-6.21-4.52-7.83L80.03,1.21C77.23-0.4,73.79-0.4,70.99,1.21z"/>
</g>
<path class="st0" d="M137.4,80.21c-1.26,0-2.25,0.45-2.97,1.34c-0.72,0.89-1.08,2.12-1.08,3.69c0,1.64,0.35,2.89,1.04,3.73
	c0.69,0.84,1.7,1.26,3.01,1.26c0.57,0,1.12-0.06,1.65-0.17c0.53-0.11,1.08-0.26,1.66-0.44v1.88c-1.05,0.4-2.24,0.6-3.57,0.6
	c-1.96,0-3.47-0.59-4.52-1.78c-1.05-1.19-1.58-2.89-1.58-5.1c0-1.39,0.26-2.61,0.77-3.66c0.51-1.04,1.25-1.85,2.21-2.4
	c0.97-0.56,2.1-0.83,3.4-0.83c1.37,0,2.63,0.29,3.79,0.86l-0.79,1.82c-0.45-0.21-0.93-0.4-1.43-0.56
	C138.48,80.29,137.95,80.21,137.4,80.21z"/>
<path class="st0" d="M147.6,92.1c-1.58,0-2.81-0.46-3.7-1.38c-0.89-0.92-1.33-2.19-1.33-3.8c0-1.66,0.41-2.96,1.24-3.9
	c0.82-0.95,1.96-1.42,3.4-1.42c1.34,0,2.4,0.41,3.17,1.22c0.78,0.81,1.16,1.93,1.16,3.35v1.16h-6.75c0.03,0.98,0.3,1.74,0.8,2.27
	c0.5,0.53,1.21,0.79,2.12,0.79c0.6,0,1.16-0.06,1.67-0.17c0.52-0.11,1.07-0.3,1.66-0.56v1.75c-0.53,0.25-1.06,0.43-1.59,0.53
	C148.91,92.05,148.29,92.1,147.6,92.1z M147.21,83.23c-0.68,0-1.23,0.22-1.65,0.65c-0.41,0.43-0.66,1.07-0.74,1.9h4.6
	c-0.01-0.84-0.21-1.47-0.6-1.9C148.43,83.45,147.89,83.23,147.21,83.23z"/>
<path class="st0" d="M162.72,91.92h-2.16v-6.23c0-0.78-0.16-1.37-0.47-1.75c-0.31-0.38-0.81-0.58-1.5-0.58c-0.91,0-1.58,0.27-2,0.81
	c-0.42,0.54-0.63,1.44-0.63,2.7v5.05h-2.15V81.78h1.69l0.3,1.33h0.11c0.31-0.48,0.74-0.86,1.3-1.12c0.56-0.26,1.19-0.39,1.87-0.39
	c2.43,0,3.65,1.24,3.65,3.71V91.92z"/>
<path class="st0" d="M169.31,90.36c0.53,0,1.05-0.08,1.58-0.25v1.62c-0.24,0.1-0.55,0.19-0.92,0.26c-0.38,0.07-0.77,0.11-1.17,0.11
	c-2.04,0-3.06-1.08-3.06-3.23v-5.46h-1.38v-0.95l1.48-0.79l0.73-2.14h1.33v2.25h2.89v1.63h-2.89v5.43c0,0.52,0.13,0.9,0.39,1.15
	C168.54,90.24,168.88,90.36,169.31,90.36z"/>
<path class="st0" d="M177.15,92.1c-1.58,0-2.81-0.46-3.7-1.38c-0.89-0.92-1.33-2.19-1.33-3.8c0-1.66,0.41-2.96,1.24-3.9
	c0.82-0.95,1.96-1.42,3.4-1.42c1.34,0,2.4,0.41,3.17,1.22c0.78,0.81,1.16,1.93,1.16,3.35v1.16h-6.75c0.03,0.98,0.3,1.74,0.8,2.27
	c0.5,0.53,1.21,0.79,2.12,0.79c0.6,0,1.16-0.06,1.67-0.17c0.52-0.11,1.07-0.3,1.66-0.56v1.75c-0.53,0.25-1.06,0.43-1.59,0.53
	C178.45,92.05,177.84,92.1,177.15,92.1z M176.75,83.23c-0.68,0-1.23,0.22-1.65,0.65c-0.41,0.43-0.66,1.07-0.74,1.9h4.6
	c-0.01-0.84-0.21-1.47-0.6-1.9C177.97,83.45,177.44,83.23,176.75,83.23z"/>
<path class="st0" d="M188.49,81.6c0.43,0,0.79,0.03,1.07,0.09l-0.21,2.01c-0.31-0.07-0.62-0.11-0.95-0.11
	c-0.86,0-1.56,0.28-2.09,0.84c-0.53,0.56-0.8,1.29-0.8,2.19v5.3h-2.15V81.78h1.69l0.28,1.79h0.11c0.34-0.6,0.77-1.08,1.32-1.44
	C187.28,81.78,187.87,81.6,188.49,81.6z"/>
<path class="st0" d="M201.03,83.42h-2.47v8.51h-2.16v-8.51h-1.67v-1.01l1.67-0.66v-0.66c0-1.2,0.28-2.08,0.84-2.66
	c0.56-0.58,1.42-0.87,2.58-0.87c0.76,0,1.5,0.13,2.24,0.38l-0.57,1.63c-0.53-0.17-1.04-0.26-1.52-0.26c-0.49,0-0.84,0.15-1.07,0.45
	c-0.22,0.3-0.33,0.76-0.33,1.36v0.66h2.47V83.42z"/>
<path class="st0" d="M211.55,86.83c0,1.66-0.42,2.95-1.27,3.88c-0.85,0.93-2.03,1.39-3.55,1.39c-0.95,0-1.78-0.21-2.51-0.64
	c-0.73-0.43-1.29-1.04-1.68-1.84c-0.39-0.8-0.59-1.73-0.59-2.79c0-1.64,0.42-2.93,1.26-3.85c0.84-0.92,2.03-1.38,3.57-1.38
	c1.47,0,2.63,0.47,3.48,1.42C211.13,83.96,211.55,85.23,211.55,86.83z M204.18,86.83c0,2.34,0.86,3.51,2.59,3.51
	c1.71,0,2.57-1.17,2.57-3.51c0-2.32-0.86-3.47-2.58-3.47c-0.9,0-1.56,0.3-1.97,0.9S204.18,85.72,204.18,86.83z"/>
<path class="st0" d="M218.98,81.6c0.43,0,0.79,0.03,1.07,0.09l-0.21,2.01c-0.31-0.07-0.62-0.11-0.95-0.11
	c-0.86,0-1.56,0.28-2.09,0.84c-0.53,0.56-0.8,1.29-0.8,2.19v5.3h-2.15V81.78h1.69l0.28,1.79h0.11c0.34-0.6,0.77-1.08,1.32-1.44
	C217.78,81.78,218.36,81.6,218.98,81.6z"/>
<path class="st0" d="M232.45,91.92l-3.89-11.19h-0.07c0.1,1.66,0.16,3.22,0.16,4.67v6.52h-1.99v-13.4h3.09l3.72,10.66h0.05
	l3.83-10.66h3.1v13.4h-2.11v-6.63c0-0.67,0.02-1.53,0.05-2.6c0.03-1.07,0.06-1.72,0.09-1.94h-0.07l-4.02,11.17H232.45z"/>
<path class="st0" d="M252.56,86.83c0,1.66-0.42,2.95-1.27,3.88c-0.85,0.93-2.03,1.39-3.55,1.39c-0.95,0-1.78-0.21-2.51-0.64
	c-0.73-0.43-1.29-1.04-1.68-1.84c-0.39-0.8-0.59-1.73-0.59-2.79c0-1.64,0.42-2.93,1.26-3.85c0.84-0.92,2.03-1.38,3.57-1.38
	c1.47,0,2.63,0.47,3.48,1.42C252.13,83.96,252.56,85.23,252.56,86.83z M245.18,86.83c0,2.34,0.86,3.51,2.59,3.51
	c1.71,0,2.57-1.17,2.57-3.51c0-2.32-0.86-3.47-2.58-3.47c-0.9,0-1.56,0.3-1.97,0.9S245.18,85.72,245.18,86.83z"/>
<path class="st0" d="M257,91.92h-2.15V77.66H257V91.92z"/>
<path class="st0" d="M264.32,92.1c-1.58,0-2.81-0.46-3.7-1.38c-0.89-0.92-1.33-2.19-1.33-3.8c0-1.66,0.41-2.96,1.24-3.9
	c0.82-0.95,1.96-1.42,3.4-1.42c1.34,0,2.4,0.41,3.17,1.22c0.78,0.81,1.16,1.93,1.16,3.35v1.16h-6.75c0.03,0.98,0.3,1.74,0.8,2.27
	c0.5,0.53,1.21,0.79,2.12,0.79c0.6,0,1.16-0.06,1.67-0.17c0.52-0.11,1.07-0.3,1.66-0.56v1.75c-0.53,0.25-1.06,0.43-1.59,0.53
	C265.62,92.05,265.01,92.1,264.32,92.1z M263.92,83.23c-0.68,0-1.23,0.22-1.65,0.65c-0.41,0.43-0.66,1.07-0.74,1.9h4.6
	c-0.01-0.84-0.21-1.47-0.6-1.9C265.14,83.45,264.61,83.23,263.92,83.23z"/>
<path class="st0" d="M274.61,92.1c-1.53,0-2.7-0.45-3.5-1.34c-0.8-0.9-1.2-2.18-1.2-3.85c0-1.7,0.42-3.02,1.25-3.93
	c0.83-0.92,2.04-1.37,3.62-1.37c1.07,0,2.03,0.2,2.89,0.6l-0.65,1.73c-0.91-0.35-1.66-0.53-2.25-0.53c-1.75,0-2.63,1.16-2.63,3.49
	c0,1.14,0.22,1.99,0.66,2.56c0.44,0.57,1.08,0.86,1.92,0.86c0.96,0,1.87-0.24,2.72-0.71v1.88c-0.38,0.23-0.8,0.39-1.23,0.49
	C275.76,92.06,275.23,92.1,274.61,92.1z"/>
<path class="st0" d="M286.77,91.92l-0.3-1.33h-0.11c-0.3,0.47-0.73,0.84-1.28,1.11c-0.55,0.27-1.18,0.4-1.89,0.4
	c-1.23,0-2.14-0.31-2.75-0.92c-0.6-0.61-0.91-1.54-0.91-2.78v-6.63h2.17v6.25c0,0.78,0.16,1.36,0.48,1.75
	c0.32,0.39,0.82,0.58,1.49,0.58c0.9,0,1.57-0.27,1.99-0.81c0.42-0.54,0.64-1.45,0.64-2.72v-5.05h2.16v10.14H286.77z"/>
<path class="st0" d="M293.5,91.92h-2.15V77.66h2.15V91.92z"/>
<path class="st0" d="M302.74,91.92l-0.43-1.41h-0.07c-0.49,0.62-0.98,1.04-1.48,1.26s-1.13,0.33-1.91,0.33c-1,0-1.77-0.27-2.33-0.81
	c-0.56-0.54-0.84-1.3-0.84-2.28c0-1.04,0.39-1.83,1.16-2.36c0.78-0.53,1.96-0.82,3.55-0.87l1.75-0.06v-0.54
	c0-0.65-0.15-1.13-0.45-1.45c-0.3-0.32-0.77-0.48-1.41-0.48c-0.52,0-1.02,0.08-1.49,0.23c-0.48,0.15-0.93,0.33-1.37,0.54l-0.7-1.54
	c0.55-0.29,1.15-0.51,1.81-0.66c0.65-0.15,1.27-0.22,1.85-0.22c1.29,0,2.26,0.28,2.92,0.84c0.66,0.56,0.99,1.44,0.99,2.65v6.83
	H302.74z M299.53,90.45c0.78,0,1.41-0.22,1.88-0.66c0.47-0.44,0.71-1.05,0.71-1.84v-0.88l-1.3,0.06c-1.01,0.04-1.75,0.21-2.21,0.51
	c-0.46,0.3-0.69,0.77-0.69,1.39c0,0.45,0.13,0.8,0.4,1.05C298.59,90.33,298.99,90.45,299.53,90.45z"/>
<path class="st0" d="M312.24,81.6c0.43,0,0.79,0.03,1.07,0.09l-0.21,2.01c-0.31-0.07-0.62-0.11-0.95-0.11
	c-0.86,0-1.56,0.28-2.09,0.84c-0.53,0.56-0.8,1.29-0.8,2.19v5.3h-2.15V81.78h1.69l0.28,1.79h0.11c0.34-0.6,0.77-1.08,1.32-1.44
	C311.03,81.78,311.61,81.6,312.24,81.6z"/>
<path class="st0" d="M326.03,91.92l-0.43-1.41h-0.07c-0.49,0.62-0.98,1.04-1.48,1.26c-0.5,0.22-1.13,0.33-1.91,0.33
	c-1,0-1.77-0.27-2.33-0.81c-0.56-0.54-0.84-1.3-0.84-2.28c0-1.04,0.39-1.83,1.16-2.36s1.96-0.82,3.55-0.87l1.75-0.06v-0.54
	c0-0.65-0.15-1.13-0.45-1.45c-0.3-0.32-0.77-0.48-1.41-0.48c-0.52,0-1.02,0.08-1.49,0.23c-0.48,0.15-0.93,0.33-1.37,0.54l-0.7-1.54
	c0.55-0.29,1.15-0.51,1.81-0.66c0.65-0.15,1.27-0.22,1.85-0.22c1.29,0,2.26,0.28,2.92,0.84c0.66,0.56,0.99,1.44,0.99,2.65v6.83
	H326.03z M322.82,90.45c0.78,0,1.41-0.22,1.88-0.66c0.47-0.44,0.71-1.05,0.71-1.84v-0.88l-1.3,0.06c-1.01,0.04-1.75,0.21-2.21,0.51
	c-0.46,0.3-0.69,0.77-0.69,1.39c0,0.45,0.13,0.8,0.4,1.05C321.88,90.33,322.29,90.45,322.82,90.45z"/>
<path class="st0" d="M339.31,91.92h-2.16v-6.23c0-0.78-0.16-1.37-0.47-1.75c-0.31-0.38-0.81-0.58-1.5-0.58c-0.91,0-1.58,0.27-2,0.81
	c-0.42,0.54-0.63,1.44-0.63,2.7v5.05h-2.15V81.78h1.69l0.3,1.33h0.11c0.31-0.48,0.74-0.86,1.3-1.12c0.56-0.26,1.19-0.39,1.87-0.39
	c2.43,0,3.65,1.24,3.65,3.71V91.92z"/>
<path class="st0" d="M345.54,92.1c-1.26,0-2.25-0.46-2.96-1.37c-0.71-0.92-1.06-2.2-1.06-3.86c0-1.66,0.36-2.96,1.08-3.88
	c0.72-0.93,1.71-1.39,2.98-1.39c1.33,0,2.35,0.49,3.04,1.48h0.11c-0.1-0.73-0.16-1.3-0.16-1.72v-3.69h2.16v14.26h-1.69l-0.38-1.33
	h-0.1C347.88,91.6,346.87,92.1,345.54,92.1z M346.11,90.36c0.89,0,1.53-0.25,1.93-0.75c0.4-0.5,0.61-1.31,0.62-2.42v-0.3
	c0-1.28-0.21-2.18-0.62-2.72c-0.42-0.54-1.07-0.81-1.95-0.81c-0.76,0-1.34,0.31-1.75,0.92c-0.41,0.61-0.61,1.49-0.61,2.63
	c0,1.12,0.2,1.98,0.6,2.57C344.72,90.07,345.32,90.36,346.11,90.36z"/>
<path class="st0" d="M137.4,102.73c-1.26,0-2.25,0.45-2.97,1.34c-0.72,0.89-1.08,2.12-1.08,3.69c0,1.64,0.35,2.89,1.04,3.73
	c0.69,0.84,1.7,1.26,3.01,1.26c0.57,0,1.12-0.06,1.65-0.17c0.53-0.11,1.08-0.26,1.66-0.44v1.88c-1.05,0.4-2.24,0.6-3.57,0.6
	c-1.96,0-3.47-0.59-4.52-1.78c-1.05-1.19-1.58-2.89-1.58-5.1c0-1.39,0.26-2.61,0.77-3.66c0.51-1.04,1.25-1.85,2.21-2.4
	c0.97-0.56,2.1-0.83,3.4-0.83c1.37,0,2.63,0.29,3.79,0.86l-0.79,1.82c-0.45-0.21-0.93-0.4-1.43-0.56
	C138.48,102.81,137.95,102.73,137.4,102.73z"/>
<path class="st0" d="M147.6,114.63c-1.58,0-2.81-0.46-3.7-1.38c-0.89-0.92-1.33-2.19-1.33-3.8c0-1.66,0.41-2.96,1.24-3.9
	c0.82-0.95,1.96-1.42,3.4-1.42c1.34,0,2.4,0.41,3.17,1.22c0.78,0.81,1.16,1.93,1.16,3.35v1.16h-6.75c0.03,0.98,0.3,1.74,0.8,2.27
	c0.5,0.53,1.21,0.79,2.12,0.79c0.6,0,1.16-0.06,1.67-0.17c0.52-0.11,1.07-0.3,1.66-0.56v1.75c-0.53,0.25-1.06,0.43-1.59,0.53
	C148.91,114.58,148.29,114.63,147.6,114.63z M147.21,105.76c-0.68,0-1.23,0.22-1.65,0.65c-0.41,0.43-0.66,1.07-0.74,1.9h4.6
	c-0.01-0.84-0.21-1.47-0.6-1.9C148.43,105.97,147.89,105.76,147.21,105.76z"/>
<path class="st0" d="M155.96,114.44h-2.15v-14.26h2.15V114.44z"/>
<path class="st0" d="M161,114.44h-2.15v-14.26H161V114.44z"/>
<path class="st0" d="M171.04,114.44l-0.3-1.33h-0.11c-0.3,0.47-0.73,0.84-1.28,1.11c-0.55,0.27-1.18,0.4-1.89,0.4
	c-1.23,0-2.14-0.31-2.75-0.92c-0.6-0.61-0.91-1.54-0.91-2.78v-6.63h2.17v6.25c0,0.78,0.16,1.36,0.48,1.75
	c0.32,0.39,0.82,0.58,1.49,0.58c0.9,0,1.57-0.27,1.99-0.81c0.42-0.54,0.64-1.45,0.64-2.72v-5.05h2.16v10.14H171.04z"/>
<path class="st0" d="M177.77,114.44h-2.15v-14.26h2.15V114.44z"/>
<path class="st0" d="M187.01,114.44l-0.43-1.41h-0.07c-0.49,0.62-0.98,1.04-1.48,1.26c-0.49,0.22-1.13,0.33-1.91,0.33
	c-1,0-1.77-0.27-2.33-0.81c-0.56-0.54-0.84-1.3-0.84-2.28c0-1.04,0.39-1.83,1.16-2.36c0.78-0.53,1.96-0.82,3.55-0.87l1.75-0.06
	v-0.54c0-0.65-0.15-1.13-0.45-1.45c-0.3-0.32-0.77-0.48-1.41-0.48c-0.52,0-1.02,0.08-1.49,0.23c-0.48,0.15-0.93,0.33-1.37,0.54
	l-0.7-1.54c0.55-0.29,1.15-0.51,1.81-0.66c0.65-0.15,1.27-0.22,1.85-0.22c1.29,0,2.26,0.28,2.92,0.84c0.66,0.56,0.99,1.44,0.99,2.65
	v6.83H187.01z M183.8,112.98c0.78,0,1.41-0.22,1.88-0.66c0.47-0.44,0.71-1.05,0.71-1.84v-0.88l-1.3,0.06
	c-1.01,0.04-1.75,0.21-2.21,0.51c-0.46,0.3-0.69,0.77-0.69,1.39c0,0.45,0.13,0.8,0.4,1.05C182.86,112.85,183.26,112.98,183.8,112.98
	z"/>
<path class="st0" d="M196.51,104.13c0.43,0,0.79,0.03,1.07,0.09l-0.21,2.01c-0.31-0.07-0.62-0.11-0.95-0.11
	c-0.86,0-1.56,0.28-2.09,0.84c-0.53,0.56-0.8,1.29-0.8,2.19v5.3h-2.15v-10.14h1.69l0.28,1.79h0.11c0.34-0.6,0.77-1.08,1.32-1.44
	C195.3,104.3,195.89,104.13,196.51,104.13z"/>
<path class="st0" d="M204.19,101.05h3.98c1.85,0,3.18,0.27,4,0.81c0.82,0.54,1.23,1.39,1.23,2.55c0,0.78-0.2,1.43-0.6,1.95
	c-0.4,0.52-0.98,0.85-1.74,0.98v0.09c0.94,0.18,1.63,0.53,2.08,1.05c0.44,0.52,0.66,1.23,0.66,2.12c0,1.2-0.42,2.15-1.26,2.83
	c-0.84,0.68-2.01,1.02-3.51,1.02h-4.84V101.05z M206.38,106.58h2.11c0.92,0,1.59-0.15,2.01-0.44c0.42-0.29,0.63-0.78,0.63-1.48
	c0-0.63-0.23-1.08-0.68-1.37c-0.46-0.28-1.18-0.42-2.17-0.42h-1.9V106.58z M206.38,108.36v4.24h2.33c0.92,0,1.61-0.18,2.08-0.53
	c0.47-0.35,0.7-0.91,0.7-1.66c0-0.7-0.24-1.21-0.71-1.55c-0.48-0.34-1.2-0.5-2.17-0.5H206.38z"/>
<path class="st0" d="M216.04,101.62c0-0.39,0.11-0.68,0.32-0.89c0.21-0.21,0.51-0.31,0.9-0.31c0.38,0,0.67,0.1,0.88,0.31
	c0.21,0.21,0.32,0.5,0.32,0.89c0,0.37-0.11,0.66-0.32,0.87c-0.21,0.21-0.51,0.32-0.88,0.32c-0.39,0-0.69-0.11-0.9-0.32
	C216.14,102.28,216.04,101.99,216.04,101.62z M218.32,114.44h-2.15v-10.14h2.15V114.44z"/>
<path class="st0" d="M230.2,109.36c0,1.66-0.42,2.95-1.27,3.88c-0.85,0.93-2.03,1.39-3.55,1.39c-0.95,0-1.78-0.21-2.51-0.64
	c-0.73-0.43-1.29-1.04-1.68-1.84c-0.39-0.8-0.59-1.73-0.59-2.79c0-1.64,0.42-2.93,1.26-3.85c0.84-0.92,2.03-1.38,3.57-1.38
	c1.47,0,2.63,0.47,3.48,1.42C229.77,106.49,230.2,107.76,230.2,109.36z M222.82,109.36c0,2.34,0.86,3.51,2.59,3.51
	c1.71,0,2.57-1.17,2.57-3.51c0-2.32-0.86-3.47-2.58-3.47c-0.9,0-1.56,0.3-1.97,0.9C223.03,107.38,222.82,108.24,222.82,109.36z"/>
<path class="st0" d="M236.91,114.63c-1.58,0-2.81-0.46-3.7-1.38c-0.89-0.92-1.33-2.19-1.33-3.8c0-1.66,0.41-2.96,1.24-3.9
	c0.82-0.95,1.96-1.42,3.4-1.42c1.34,0,2.4,0.41,3.17,1.22c0.78,0.81,1.16,1.93,1.16,3.35v1.16h-6.75c0.03,0.98,0.3,1.74,0.8,2.27
	c0.5,0.53,1.21,0.79,2.12,0.79c0.6,0,1.16-0.06,1.67-0.17c0.52-0.11,1.07-0.3,1.66-0.56v1.75c-0.53,0.25-1.06,0.43-1.59,0.53
	C238.22,114.58,237.6,114.63,236.91,114.63z M236.52,105.76c-0.68,0-1.23,0.22-1.65,0.65c-0.41,0.43-0.66,1.07-0.74,1.9h4.6
	c-0.01-0.84-0.21-1.47-0.6-1.9C237.74,105.97,237.2,105.76,236.52,105.76z"/>
<path class="st0" d="M252.03,114.44h-2.16v-6.23c0-0.78-0.16-1.37-0.47-1.75c-0.31-0.38-0.81-0.58-1.5-0.58
	c-0.91,0-1.58,0.27-2,0.81c-0.42,0.54-0.63,1.44-0.63,2.7v5.05h-2.15v-10.14h1.69l0.3,1.33h0.11c0.31-0.48,0.74-0.86,1.3-1.12
	c0.56-0.26,1.19-0.39,1.87-0.39c2.43,0,3.65,1.24,3.65,3.71V114.44z"/>
<path class="st0" d="M263.4,104.31v1.18l-1.73,0.32c0.16,0.21,0.29,0.48,0.39,0.79c0.1,0.31,0.16,0.64,0.16,0.99
	c0,1.04-0.36,1.87-1.08,2.47c-0.72,0.6-1.71,0.9-2.98,0.9c-0.32,0-0.62-0.02-0.88-0.07c-0.46,0.29-0.7,0.62-0.7,1.01
	c0,0.23,0.11,0.41,0.33,0.52c0.22,0.12,0.62,0.17,1.2,0.17h1.77c1.12,0,1.97,0.24,2.55,0.71c0.58,0.48,0.87,1.16,0.87,2.06
	c0,1.15-0.47,2.03-1.42,2.66c-0.95,0.62-2.32,0.93-4.11,0.93c-1.38,0-2.43-0.24-3.16-0.73s-1.09-1.19-1.09-2.09
	c0-0.62,0.2-1.15,0.59-1.57c0.39-0.42,0.95-0.72,1.65-0.88c-0.29-0.12-0.52-0.32-0.71-0.59c-0.19-0.27-0.28-0.56-0.28-0.86
	c0-0.38,0.11-0.7,0.32-0.96c0.21-0.26,0.53-0.52,0.95-0.78c-0.53-0.23-0.95-0.59-1.28-1.1s-0.49-1.11-0.49-1.79
	c0-1.1,0.35-1.95,1.04-2.56c0.69-0.6,1.68-0.91,2.96-0.91c0.29,0,0.59,0.02,0.9,0.06c0.31,0.04,0.55,0.08,0.71,0.12H263.4z
	 M255.44,116.02c0,0.46,0.21,0.82,0.63,1.07c0.42,0.25,1.01,0.38,1.76,0.38c1.17,0,2.05-0.17,2.62-0.5
	c0.57-0.34,0.86-0.78,0.86-1.34c0-0.44-0.16-0.75-0.47-0.94c-0.31-0.19-0.9-0.28-1.76-0.28h-1.63c-0.62,0-1.11,0.15-1.47,0.44
	C255.62,115.13,255.44,115.53,255.44,116.02z M256.36,107.59c0,0.64,0.16,1.12,0.49,1.47c0.33,0.34,0.8,0.51,1.41,0.51
	c1.25,0,1.87-0.67,1.87-2c0-0.66-0.15-1.17-0.46-1.53c-0.31-0.36-0.78-0.54-1.41-0.54c-0.62,0-1.1,0.18-1.42,0.53
	C256.52,106.39,256.36,106.91,256.36,107.59z"/>
<path class="st0" d="M264.96,101.62c0-0.39,0.11-0.68,0.32-0.89c0.21-0.21,0.51-0.31,0.9-0.31c0.38,0,0.67,0.1,0.88,0.31
	c0.21,0.21,0.32,0.5,0.32,0.89c0,0.37-0.11,0.66-0.32,0.87c-0.21,0.21-0.51,0.32-0.88,0.32c-0.39,0-0.69-0.11-0.9-0.32
	C265.07,102.28,264.96,101.99,264.96,101.62z M267.25,114.44h-2.15v-10.14h2.15V114.44z"/>
<path class="st0" d="M279.06,114.44h-2.16v-6.23c0-0.78-0.16-1.37-0.47-1.75c-0.31-0.38-0.81-0.58-1.5-0.58
	c-0.91,0-1.58,0.27-2,0.81c-0.42,0.54-0.63,1.44-0.63,2.7v5.05h-2.15v-10.14h1.69l0.3,1.33h0.11c0.31-0.48,0.74-0.86,1.3-1.12
	c0.56-0.26,1.19-0.39,1.87-0.39c2.43,0,3.65,1.24,3.65,3.71V114.44z"/>
<path class="st0" d="M286.29,114.63c-1.58,0-2.81-0.46-3.7-1.38c-0.89-0.92-1.33-2.19-1.33-3.8c0-1.66,0.41-2.96,1.24-3.9
	c0.82-0.95,1.96-1.42,3.4-1.42c1.34,0,2.4,0.41,3.17,1.22c0.78,0.81,1.16,1.93,1.16,3.35v1.16h-6.75c0.03,0.98,0.3,1.74,0.8,2.27
	c0.5,0.53,1.21,0.79,2.12,0.79c0.6,0,1.16-0.06,1.67-0.17c0.52-0.11,1.07-0.3,1.66-0.56v1.75c-0.53,0.25-1.06,0.43-1.59,0.53
	C287.6,114.58,286.98,114.63,286.29,114.63z M285.9,105.76c-0.68,0-1.23,0.22-1.65,0.65c-0.41,0.43-0.66,1.07-0.74,1.9h4.6
	c-0.01-0.84-0.21-1.47-0.6-1.9C287.12,105.97,286.58,105.76,285.9,105.76z"/>
<path class="st0" d="M296.92,114.63c-1.58,0-2.81-0.46-3.7-1.38c-0.89-0.92-1.33-2.19-1.33-3.8c0-1.66,0.41-2.96,1.24-3.9
	c0.82-0.95,1.96-1.42,3.4-1.42c1.34,0,2.4,0.41,3.17,1.22c0.78,0.81,1.16,1.93,1.16,3.35v1.16h-6.75c0.03,0.98,0.3,1.74,0.8,2.27
	c0.5,0.53,1.21,0.79,2.12,0.79c0.6,0,1.16-0.06,1.67-0.17c0.52-0.11,1.07-0.3,1.66-0.56v1.75c-0.53,0.25-1.06,0.43-1.59,0.53
	C298.22,114.58,297.61,114.63,296.92,114.63z M296.52,105.76c-0.68,0-1.23,0.22-1.65,0.65c-0.41,0.43-0.66,1.07-0.74,1.9h4.6
	c-0.01-0.84-0.21-1.47-0.6-1.9C297.75,105.97,297.21,105.76,296.52,105.76z"/>
<path class="st0" d="M308.26,104.13c0.43,0,0.79,0.03,1.07,0.09l-0.21,2.01c-0.31-0.07-0.62-0.11-0.95-0.11
	c-0.86,0-1.56,0.28-2.09,0.84c-0.53,0.56-0.8,1.29-0.8,2.19v5.3h-2.15v-10.14h1.69l0.28,1.79h0.11c0.34-0.6,0.77-1.08,1.32-1.44
	C307.05,104.3,307.64,104.13,308.26,104.13z"/>
<path class="st0" d="M310.89,101.62c0-0.39,0.11-0.68,0.32-0.89c0.21-0.21,0.51-0.31,0.9-0.31c0.38,0,0.67,0.1,0.88,0.31
	c0.21,0.21,0.32,0.5,0.32,0.89c0,0.37-0.11,0.66-0.32,0.87c-0.21,0.21-0.51,0.32-0.88,0.32c-0.39,0-0.69-0.11-0.9-0.32
	C311,102.28,310.89,101.99,310.89,101.62z M313.18,114.44h-2.15v-10.14h2.15V114.44z"/>
<path class="st0" d="M324.99,114.44h-2.16v-6.23c0-0.78-0.16-1.37-0.47-1.75c-0.31-0.38-0.81-0.58-1.5-0.58
	c-0.91,0-1.58,0.27-2,0.81s-0.63,1.44-0.63,2.7v5.05h-2.15v-10.14h1.69l0.3,1.33h0.11c0.31-0.48,0.74-0.86,1.3-1.12
	c0.56-0.26,1.19-0.39,1.87-0.39c2.43,0,3.65,1.24,3.65,3.71V114.44z"/>
<path class="st0" d="M336.35,104.31v1.18l-1.73,0.32c0.16,0.21,0.29,0.48,0.39,0.79c0.1,0.31,0.16,0.64,0.16,0.99
	c0,1.04-0.36,1.87-1.08,2.47c-0.72,0.6-1.71,0.9-2.98,0.9c-0.32,0-0.62-0.02-0.88-0.07c-0.46,0.29-0.7,0.62-0.7,1.01
	c0,0.23,0.11,0.41,0.33,0.52c0.22,0.12,0.62,0.17,1.2,0.17h1.77c1.12,0,1.97,0.24,2.55,0.71c0.58,0.48,0.87,1.16,0.87,2.06
	c0,1.15-0.47,2.03-1.42,2.66c-0.95,0.62-2.32,0.93-4.11,0.93c-1.38,0-2.43-0.24-3.16-0.73c-0.73-0.49-1.09-1.19-1.09-2.09
	c0-0.62,0.2-1.15,0.59-1.57c0.39-0.42,0.95-0.72,1.65-0.88c-0.29-0.12-0.52-0.32-0.71-0.59c-0.19-0.27-0.28-0.56-0.28-0.86
	c0-0.38,0.11-0.7,0.32-0.96c0.21-0.26,0.53-0.52,0.95-0.78c-0.53-0.23-0.95-0.59-1.28-1.1c-0.33-0.51-0.49-1.11-0.49-1.79
	c0-1.1,0.35-1.95,1.04-2.56c0.69-0.6,1.68-0.91,2.96-0.91c0.29,0,0.59,0.02,0.9,0.06c0.31,0.04,0.55,0.08,0.71,0.12H336.35z
	 M328.39,116.02c0,0.46,0.21,0.82,0.63,1.07c0.42,0.25,1.01,0.38,1.76,0.38c1.17,0,2.05-0.17,2.62-0.5
	c0.57-0.34,0.86-0.78,0.86-1.34c0-0.44-0.16-0.75-0.47-0.94c-0.31-0.19-0.9-0.28-1.76-0.28h-1.63c-0.62,0-1.11,0.15-1.47,0.44
	C328.57,115.13,328.39,115.53,328.39,116.02z M329.32,107.59c0,0.64,0.16,1.12,0.49,1.47c0.33,0.34,0.8,0.51,1.41,0.51
	c1.25,0,1.87-0.67,1.87-2c0-0.66-0.15-1.17-0.46-1.53c-0.31-0.36-0.78-0.54-1.41-0.54c-0.62,0-1.1,0.18-1.42,0.53
	C329.48,106.39,329.32,106.91,329.32,107.59z"/>
<path class="st0" d="M347.59,114.44h-2.19v-11.52h-3.94v-1.88h10.07v1.88h-3.94V114.44z"/>
<path class="st0" d="M363.9,101.05v8.67c0,0.99-0.21,1.86-0.64,2.6c-0.42,0.74-1.04,1.31-1.84,1.71c-0.8,0.4-1.76,0.6-2.88,0.6
	c-1.66,0-2.95-0.44-3.88-1.32c-0.92-0.88-1.38-2.09-1.38-3.63v-8.63h2.2v8.48c0,1.11,0.26,1.92,0.77,2.45
	c0.51,0.53,1.3,0.79,2.36,0.79c2.07,0,3.1-1.08,3.1-3.25v-8.46H363.9z"/>
<path class="st0" d="M382.73,107.62c0,2.21-0.61,3.9-1.84,5.07c-1.23,1.17-3,1.76-5.31,1.76h-3.75v-13.4h4.14
	c2.13,0,3.79,0.57,4.98,1.72C382.13,103.92,382.73,105.53,382.73,107.62z M380.42,107.69c0-3.21-1.5-4.81-4.5-4.81h-1.9v9.72h1.56
	C378.8,112.6,380.42,110.97,380.42,107.69z"/>
<path class="st0" d="M390.33,104.13c0.43,0,0.79,0.03,1.07,0.09l-0.21,2.01c-0.31-0.07-0.62-0.11-0.95-0.11
	c-0.86,0-1.56,0.28-2.09,0.84c-0.53,0.56-0.8,1.29-0.8,2.19v5.3h-2.15v-10.14h1.69l0.28,1.79h0.11c0.34-0.6,0.77-1.08,1.32-1.44
	C389.12,104.3,389.71,104.13,390.33,104.13z"/>
<path class="st0" d="M397.52,114.63c-1.58,0-2.81-0.46-3.7-1.38c-0.89-0.92-1.33-2.19-1.33-3.8c0-1.66,0.41-2.96,1.24-3.9
	c0.82-0.95,1.96-1.42,3.4-1.42c1.34,0,2.4,0.41,3.17,1.22c0.78,0.81,1.16,1.93,1.16,3.35v1.16h-6.75c0.03,0.98,0.3,1.74,0.8,2.27
	c0.5,0.53,1.21,0.79,2.12,0.79c0.6,0,1.16-0.06,1.67-0.17c0.52-0.11,1.07-0.3,1.66-0.56v1.75c-0.53,0.25-1.06,0.43-1.59,0.53
	C398.82,114.58,398.21,114.63,397.52,114.63z M397.12,105.76c-0.68,0-1.23,0.22-1.65,0.65c-0.41,0.43-0.66,1.07-0.74,1.9h4.6
	c-0.01-0.84-0.21-1.47-0.6-1.9C398.35,105.97,397.81,105.76,397.12,105.76z"/>
<path class="st0" d="M410.53,111.56c0,0.99-0.36,1.75-1.08,2.28c-0.72,0.53-1.75,0.79-3.1,0.79c-1.35,0-2.43-0.2-3.25-0.61v-1.86
	c1.19,0.55,2.3,0.82,3.33,0.82c1.33,0,1.99-0.4,1.99-1.2c0-0.26-0.07-0.47-0.22-0.64c-0.15-0.17-0.39-0.35-0.72-0.53
	c-0.34-0.18-0.8-0.39-1.4-0.62c-1.17-0.45-1.96-0.9-2.37-1.36c-0.41-0.45-0.62-1.04-0.62-1.76c0-0.87,0.35-1.54,1.05-2.02
	c0.7-0.48,1.65-0.72,2.85-0.72c1.19,0,2.32,0.24,3.38,0.72l-0.7,1.62c-1.09-0.45-2.01-0.68-2.76-0.68c-1.14,0-1.7,0.32-1.7,0.97
	c0,0.32,0.15,0.59,0.44,0.81c0.3,0.22,0.94,0.52,1.94,0.91c0.84,0.32,1.44,0.62,1.82,0.89c0.38,0.27,0.66,0.58,0.84,0.93
	C410.44,110.65,410.53,111.07,410.53,111.56z"/>
<path class="st0" d="M416.09,114.63c-1.26,0-2.25-0.46-2.96-1.37c-0.71-0.92-1.06-2.2-1.06-3.86c0-1.66,0.36-2.96,1.08-3.88
	c0.72-0.93,1.71-1.39,2.98-1.39c1.33,0,2.35,0.49,3.04,1.48h0.11c-0.1-0.73-0.16-1.3-0.16-1.72v-3.69h2.16v14.26h-1.69l-0.38-1.33
	h-0.1C418.43,114.12,417.42,114.63,416.09,114.63z M416.66,112.89c0.89,0,1.53-0.25,1.93-0.75c0.4-0.5,0.61-1.31,0.62-2.42v-0.3
	c0-1.28-0.21-2.18-0.62-2.72c-0.42-0.54-1.07-0.81-1.95-0.81c-0.76,0-1.34,0.31-1.75,0.92c-0.41,0.61-0.61,1.49-0.61,2.63
	c0,1.12,0.2,1.98,0.6,2.57C415.27,112.59,415.87,112.89,416.66,112.89z"/>
<path class="st0" d="M428.6,114.63c-1.58,0-2.81-0.46-3.7-1.38c-0.89-0.92-1.33-2.19-1.33-3.8c0-1.66,0.41-2.96,1.24-3.9
	c0.82-0.95,1.96-1.42,3.4-1.42c1.34,0,2.4,0.41,3.17,1.22c0.78,0.81,1.16,1.93,1.16,3.35v1.16h-6.75c0.03,0.98,0.3,1.74,0.8,2.27
	c0.5,0.53,1.21,0.79,2.12,0.79c0.6,0,1.16-0.06,1.67-0.17c0.52-0.11,1.07-0.3,1.66-0.56v1.75c-0.53,0.25-1.06,0.43-1.59,0.53
	C429.91,114.58,429.29,114.63,428.6,114.63z M428.21,105.76c-0.68,0-1.23,0.22-1.65,0.65c-0.41,0.43-0.66,1.07-0.74,1.9h4.6
	c-0.01-0.84-0.21-1.47-0.6-1.9C429.43,105.97,428.89,105.76,428.21,105.76z"/>
<path class="st0" d="M443.72,114.44h-2.16v-6.23c0-0.78-0.16-1.37-0.47-1.75c-0.31-0.38-0.81-0.58-1.5-0.58
	c-0.91,0-1.58,0.27-2,0.81s-0.63,1.44-0.63,2.7v5.05h-2.15v-10.14h1.69l0.3,1.33h0.11c0.31-0.48,0.74-0.86,1.3-1.12
	c0.56-0.26,1.19-0.39,1.87-0.39c2.43,0,3.65,1.24,3.65,3.71V114.44z"/>
<g>
	<path class="st0" d="M143.24,6.13c-2.51,0-4.49,0.89-5.93,2.67c-1.44,1.78-2.16,4.24-2.16,7.37c0,3.28,0.69,5.76,2.08,7.45
		c1.38,1.68,3.39,2.53,6.01,2.53c1.13,0,2.23-0.11,3.29-0.34c1.06-0.23,2.17-0.51,3.31-0.87v3.75c-2.1,0.79-4.48,1.19-7.14,1.19
		c-3.92,0-6.92-1.19-9.02-3.56c-2.1-2.37-3.15-5.77-3.15-10.18c0-2.78,0.51-5.21,1.53-7.3c1.02-2.09,2.49-3.68,4.42-4.79
		c1.93-1.11,4.19-1.67,6.79-1.67c2.73,0,5.26,0.57,7.58,1.72l-1.57,3.64c-0.9-0.43-1.86-0.8-2.86-1.13
		C145.4,6.29,144.34,6.13,143.24,6.13z"/>
	<path class="st0" d="M167.17,29.51l-7.76-22.34h-0.15c0.21,3.32,0.31,6.43,0.31,9.33v13.01h-3.97V2.76h6.17l7.43,21.28h0.11
		l7.65-21.28h6.18v26.75h-4.21V16.28c0-1.33,0.03-3.06,0.1-5.2c0.07-2.13,0.13-3.43,0.17-3.88h-0.15l-8.03,22.3H167.17z"/>
	<path class="st0" d="M201.57,6.13c-2.51,0-4.49,0.89-5.93,2.67c-1.44,1.78-2.16,4.24-2.16,7.37c0,3.28,0.69,5.76,2.08,7.45
		c1.38,1.68,3.39,2.53,6.01,2.53c1.13,0,2.23-0.11,3.29-0.34c1.06-0.23,2.17-0.51,3.31-0.87v3.75c-2.1,0.79-4.48,1.19-7.14,1.19
		c-3.92,0-6.92-1.19-9.02-3.56c-2.1-2.37-3.15-5.77-3.15-10.18c0-2.78,0.51-5.21,1.53-7.3c1.02-2.09,2.49-3.68,4.42-4.79
		c1.93-1.11,4.19-1.67,6.79-1.67c2.73,0,5.26,0.57,7.58,1.72l-1.57,3.64c-0.9-0.43-1.86-0.8-2.86-1.13
		C203.74,6.29,202.68,6.13,201.57,6.13z"/>
	<path class="st0" d="M213.94,2.76h7.94c3.68,0,6.35,0.54,7.99,1.61c1.64,1.07,2.46,2.77,2.46,5.09c0,1.56-0.4,2.86-1.21,3.9
		c-0.81,1.04-1.96,1.69-3.48,1.96v0.18c1.88,0.35,3.26,1.05,4.14,2.1c0.89,1.04,1.33,2.46,1.33,4.24c0,2.4-0.84,4.28-2.52,5.64
		c-1.68,1.36-4.01,2.04-7,2.04h-9.66V2.76z M218.31,13.81h4.21c1.83,0,3.17-0.29,4.01-0.87c0.84-0.58,1.26-1.56,1.26-2.96
		c0-1.26-0.46-2.16-1.36-2.73c-0.91-0.56-2.35-0.84-4.33-0.84h-3.79V13.81z M218.31,17.36v8.47h4.65c1.83,0,3.21-0.35,4.14-1.05
		c0.93-0.7,1.4-1.81,1.4-3.32c0-1.39-0.48-2.42-1.43-3.09c-0.95-0.67-2.4-1.01-4.34-1.01H218.31z"/>
	<path class="st0" d="M257.65,29.51h-4.37v-23h-7.87V2.76h20.11v3.75h-7.87V29.51z"/>
	<path class="st0" d="M284.75,29.51h-15.13V2.76h15.13v3.7h-10.76v7.28h10.08v3.66h-10.08v8.4h10.76V29.51z"/>
	<path class="st0" d="M301.91,6.13c-2.51,0-4.49,0.89-5.93,2.67c-1.44,1.78-2.16,4.24-2.16,7.37c0,3.28,0.69,5.76,2.08,7.45
		c1.38,1.68,3.39,2.53,6.01,2.53c1.13,0,2.23-0.11,3.29-0.34c1.06-0.23,2.17-0.51,3.31-0.87v3.75c-2.1,0.79-4.48,1.19-7.14,1.19
		c-3.92,0-6.92-1.19-9.02-3.56c-2.1-2.37-3.15-5.77-3.15-10.18c0-2.78,0.51-5.21,1.53-7.3s2.49-3.68,4.42-4.79
		c1.93-1.11,4.19-1.67,6.79-1.67c2.73,0,5.26,0.57,7.58,1.72l-1.57,3.64c-0.9-0.43-1.86-0.8-2.86-1.13
		C304.08,6.29,303.02,6.13,301.91,6.13z"/>
	<path class="st0" d="M335.38,29.51h-4.39V17.45h-12.33v12.06h-4.37V2.76h4.37V13.7h12.33V2.76h4.39V29.51z"/>
	<path class="st0" d="M364.71,29.51h-5.36L346.19,8.19h-0.15l0.09,1.19c0.17,2.27,0.26,4.34,0.26,6.22v13.91h-3.97V2.76h5.31
		l13.12,21.21h0.11c-0.03-0.28-0.07-1.3-0.15-3.06c-0.07-1.76-0.11-3.14-0.11-4.13V2.76h4.01V29.51z"/>
	<path class="st0" d="M395.52,16.1c0,4.35-1.09,7.74-3.27,10.16c-2.18,2.42-5.26,3.62-9.25,3.62c-4.04,0-7.14-1.2-9.3-3.6
		c-2.17-2.4-3.25-5.8-3.25-10.22c0-4.42,1.09-7.81,3.27-10.17c2.18-2.37,5.29-3.55,9.32-3.55c3.98,0,7.05,1.2,9.22,3.6
		C394.44,8.35,395.52,11.73,395.52,16.1z M375.1,16.1c0,3.29,0.67,5.79,1.99,7.49c1.33,1.7,3.3,2.55,5.91,2.55
		c2.6,0,4.56-0.84,5.88-2.53c1.32-1.68,1.99-4.19,1.99-7.52c0-3.28-0.66-5.77-1.97-7.47c-1.31-1.69-3.27-2.54-5.86-2.54
		c-2.62,0-4.6,0.85-5.94,2.54C375.77,10.33,375.1,12.82,375.1,16.1z"/>
	<path class="st0" d="M401.27,29.51V2.76h4.37v23h11.33v3.75H401.27z"/>
	<path class="st0" d="M445.33,16.1c0,4.35-1.09,7.74-3.27,10.16c-2.18,2.42-5.26,3.62-9.25,3.62c-4.04,0-7.14-1.2-9.3-3.6
		c-2.17-2.4-3.25-5.8-3.25-10.22c0-4.42,1.09-7.81,3.27-10.17c2.18-2.37,5.29-3.55,9.32-3.55c3.98,0,7.05,1.2,9.22,3.6
		C444.24,8.35,445.33,11.73,445.33,16.1z M424.91,16.1c0,3.29,0.67,5.79,1.99,7.49c1.33,1.7,3.3,2.55,5.91,2.55
		c2.6,0,4.56-0.84,5.88-2.53c1.32-1.68,1.99-4.19,1.99-7.52c0-3.28-0.66-5.77-1.97-7.47c-1.31-1.69-3.27-2.54-5.86-2.54
		c-2.62,0-4.6,0.85-5.94,2.54C425.58,10.33,424.91,12.82,424.91,16.1z"/>
	<path class="st0" d="M462.02,15h9.84v13.43c-1.61,0.52-3.16,0.9-4.64,1.12c-1.48,0.22-3.08,0.33-4.8,0.33
		c-4.05,0-7.17-1.2-9.37-3.6c-2.2-2.4-3.29-5.78-3.29-10.15c0-4.31,1.24-7.68,3.71-10.11c2.48-2.43,5.88-3.65,10.23-3.65
		c2.79,0,5.44,0.54,7.94,1.61l-1.54,3.64c-2.17-1-4.34-1.5-6.51-1.5c-2.85,0-5.11,0.9-6.77,2.69s-2.49,4.24-2.49,7.36
		c0,3.27,0.75,5.75,2.24,7.46c1.49,1.7,3.64,2.55,6.45,2.55c1.42,0,2.93-0.18,4.54-0.53v-6.9h-5.54V15z"/>
	<path class="st0" d="M485.84,14.96l6.33-12.2h4.76l-8.91,16.38v10.37h-4.39V19.28l-8.87-16.52h4.76L485.84,14.96z"/>
</g>
<g>
	<path class="st0" d="M149.57,48.46c0,2.79-0.91,4.93-2.74,6.42c-1.83,1.49-4.43,2.23-7.81,2.23h-2.78v10.01h-4.37V40.37h7.7
		c3.34,0,5.85,0.68,7.51,2.05C148.73,43.79,149.57,45.8,149.57,48.46z M136.23,53.43h2.32c2.24,0,3.89-0.39,4.94-1.17
		c1.05-0.78,1.57-2,1.57-3.66c0-1.54-0.47-2.68-1.41-3.44c-0.94-0.76-2.4-1.13-4.39-1.13h-3.04V53.43z"/>
	<path class="st0" d="M154.91,67.12V40.37h4.37v23h11.33v3.75H154.91z"/>
	<path class="st0" d="M191.82,67.12l-2.67-7.43h-10.23l-2.62,7.43h-4.61l10.01-26.86h4.76l10.01,26.86H191.82z M187.99,55.92
		l-2.51-7.28c-0.18-0.49-0.44-1.26-0.76-2.31c-0.32-1.05-0.55-1.82-0.67-2.31c-0.33,1.5-0.81,3.14-1.45,4.92l-2.42,6.97H187.99z"/>
	<path class="st0" d="M209.23,67.12h-4.37v-23h-7.87v-3.75h20.11v3.75h-7.87V67.12z"/>
	<path class="st0" d="M225.54,67.12h-4.34V40.37h15.1v3.7h-10.76v8.36h10.08v3.71h-10.08V67.12z"/>
	<path class="st0" d="M264.9,53.71c0,4.35-1.09,7.74-3.27,10.16c-2.18,2.42-5.26,3.62-9.25,3.62c-4.04,0-7.14-1.2-9.3-3.6
		c-2.17-2.4-3.25-5.8-3.25-10.22c0-4.42,1.09-7.81,3.27-10.17c2.18-2.37,5.29-3.55,9.32-3.55c3.98,0,7.05,1.2,9.22,3.6
		C263.81,45.96,264.9,49.34,264.9,53.71z M244.48,53.71c0,3.29,0.67,5.79,1.99,7.49c1.33,1.7,3.3,2.55,5.91,2.55
		c2.6,0,4.56-0.84,5.88-2.53c1.32-1.68,1.99-4.19,1.99-7.52c0-3.28-0.66-5.77-1.97-7.47c-1.31-1.69-3.27-2.54-5.86-2.54
		c-2.62,0-4.6,0.85-5.94,2.54C245.14,47.94,244.48,50.43,244.48,53.71z"/>
	<path class="st0" d="M275.01,56.44v10.69h-4.37V40.37h7.56c3.45,0,6.01,0.65,7.67,1.94c1.66,1.29,2.49,3.25,2.49,5.86
		c0,3.33-1.73,5.7-5.2,7.12l7.56,11.84h-4.98l-6.4-10.69H275.01z M275.01,52.81h3.04c2.04,0,3.51-0.38,4.43-1.13
		c0.91-0.76,1.37-1.88,1.37-3.37c0-1.51-0.49-2.6-1.48-3.26c-0.99-0.66-2.48-0.99-4.46-0.99h-2.89V52.81z"/>
	<path class="st0" d="M306.16,67.12l-7.76-22.34h-0.15c0.21,3.32,0.31,6.43,0.31,9.33v13.01h-3.97V40.37h6.17l7.43,21.28h0.11
		l7.65-21.28h6.18v26.75h-4.21V53.89c0-1.33,0.03-3.06,0.1-5.2c0.07-2.13,0.13-3.43,0.17-3.88h-0.15l-8.03,22.3H306.16z"/>
</g>
</svg>
