<svg xmlns="http://www.w3.org/2000/svg" xmlns:xlink="http://www.w3.org/1999/xlink" version="1.1" id="logo" x="0px" y="0px" style="enable-background:new 0 0 841.8897705 595.2755737;" xml:space="preserve" viewBox="350.93 269.29 140.04 56.69">
<style type="text/css">
	.st0{fill:#FFFFFF;}
</style>
<path class="st0" d="M356.6289978,322.423645c0,1.0714722,0.4615479,1.697876,1.9121704,1.697876  c0.5604858,0,1.1374207-0.0494385,1.697876-0.1318665v-3.329834h1.9616394v4.829895  c-1.1539001,0.3296814-2.5220947,0.4945374-3.6759949,0.4945374c-2.6869507,0-3.9727173-1.1374207-3.9727173-3.3133545v-4.6815186  c0-2.2583618,1.3187561-3.3133545,4.1705322-3.3133545c0.8901367,0,2.1594543,0.0989075,3.1484985,0.3626709l-0.2307739,1.8132629  c-1.0055542-0.2142944-2.0110779-0.2967224-3.0825806-0.2967224c-1.450592,0-1.9286499,0.5934448-1.9286499,1.7143555V322.423645z   M364.8866577,314.8408813h6.7255859v1.8297424h-4.6485596v2.6539612h4.2859192v1.8297729h-4.2859192v2.8352966h4.6485596v1.8297424  h-6.7255859V314.8408813z M376.2433472,317.4948425v8.3245544h-2.0275574v-10.9785156h2.7693787l4.1705017,8.3410339v-8.3410339  h2.0275879v10.9785156h-2.7693787L376.2433472,317.4948425z M394.1773071,322.6049805  c0,1.8297424-1.0549927,3.3792725-4.1540527,3.3792725c-3.0990295,0-4.1540527-1.54953-4.1540527-3.3792725v-4.5496826  c0-1.8297424,1.0550232-3.3792725,4.1540527-3.3792725c3.0990601,0,4.1540527,1.54953,4.1540527,3.3792725V322.6049805z   M387.946228,322.4895935c0,1.0385132,0.5274963,1.664917,2.0770264,1.664917s2.0770264-0.6264038,2.0770264-1.664917v-4.3189087  c0-1.0384827-0.5274963-1.6648865-2.0770264-1.6648865s-2.0770264,0.6264038-2.0770264,1.6648865V322.4895935z   M403.6712646,324.4017639h-2.6374817l-2.0275574-5.6870728l-0.1813354,7.1047058h-2.1264648l0.4945374-10.9785156h2.3242798  l2.8352966,7.7970581l2.8352966-7.7970581h2.3242798l0.4945374,10.9785156h-2.1264648l-0.1813354-7.1047058L403.6712646,324.4017639  z M410.7750244,314.8408813h6.7256165v1.8297424h-4.6485901v2.6539612h4.2859192v1.8297729h-4.2859192v2.8352966h4.6485901  v1.8297424h-6.7256165V314.8408813z M423.4010315,317.8574829c0-2.0110779,1.1703796-3.1814575,3.9067688-3.1814575  c1.0220337,0,2.0770264,0.1318665,2.9836731,0.3626709l-0.2307739,1.7967834  c-0.8901672-0.164856-1.9286804-0.2802429-2.6869507-0.2802429c-1.4341431,0-1.8956909,0.4945374-1.8956909,1.664917v4.2199707  c0,1.1703796,0.4615479,1.664917,1.8956909,1.664917c0.7582703,0,1.7967834-0.115387,2.6869507-0.2802429l0.2307739,1.796814  c-0.9066467,0.2307739-1.9616394,0.3626404-2.9836731,0.3626404c-2.7363892,0-3.9067688-1.1703796-3.9067688-3.1814575V317.8574829z   M432.7301636,314.8408813h6.7255859v1.8297424h-4.6485596v2.6539612h4.2859192v1.8297729h-4.2859192v2.8352966h4.6485596v1.8297424  h-6.7255859V314.8408813z M444.0868835,317.4948425v8.3245544h-2.0275879v-10.9785156h2.7693787l4.1705322,8.3410339v-8.3410339  h2.0275574v10.9785156h-2.7693481L444.0868835,317.4948425z M456.2018433,316.6706238h-3.0660706v-1.8297424h8.209198v1.8297424  h-3.0661011v9.1487732h-2.0770264V316.6706238z M463.4539795,314.8408813h6.7255859v1.8297424h-4.6485596v2.6539612h4.2859192  v1.8297729h-4.2859192v2.8352966h4.6485596v1.8297424h-6.7255859V314.8408813z M479.3603516,325.819397l-2.5220947-3.6265259  h-1.9781189v3.6265259h-2.0770264v-10.9785156h4.5002136c2.5550537,0,3.4946594,1.0385132,3.4946594,2.9671631v1.4341431  c0,1.3187256-0.4945068,2.2418518-1.648407,2.6539612l2.7198792,3.9232483H479.3603516z M477.2008972,316.6706238h-2.3407593  v3.7254639h2.3407593c1.1374207,0,1.500061-0.4121094,1.500061-1.3352356v-1.0879517  C478.7009583,317.0497742,478.3053589,316.6706238,477.2008972,316.6706238z M359.1026001,299.0625  c2.6869507,0,3.5276489,1.4011536,3.5276489,3.1484985v4.6815491c0,1.7473145-0.8406982,3.1484985-3.5276489,3.1484985h-3.8408203  V299.0625H359.1026001z M356.6794128,308.771759h2.3737488c1.664917,0,2.1594238-0.6923523,2.1594238-1.9781189v-4.4837341  c0-1.2857666-0.4945068-1.9781189-2.1594238-1.9781189h-2.3737488V308.771759z M373.772644,310.0410461h-1.4341125  l-0.9066467-2.6374817h-4.6650391l-0.8901672,2.6374817h-1.4341431l3.7089844-10.9785461h1.9121704L373.772644,310.0410461z   M369.107605,300.0845337l-1.9616394,6.0827026h3.9232788L369.107605,300.0845337z M377.5136108,300.694458v9.3465881h-1.3517151  V299.0625h1.9451599l4.7804565,9.3960571V299.0625h1.3516846v10.9785461h-1.9451294L377.5136108,300.694458z   M389.0681458,310.0410461h-1.4176636V299.0625h1.4176636V310.0410461z M395.3312073,310.2058716  c-1.0549927,0-2.3242798-0.1978149-3.2638855-0.5769348l0.2307739-1.1539001  c1.0055237,0.3132019,2.0605164,0.4780273,3.0660706,0.4780273c1.7638245,0,2.1264648-0.4615479,2.1264648-1.7143555  c0-1.4835815-0.0164795-1.615448-2.2748108-2.1264648c-2.6539917-0.5934448-2.9671936-1.1044617-2.9671936-3.379303  c0-1.9121704,0.7912598-2.8352966,3.5111694-2.8352966c0.9560852,0,2.0935059,0.131897,2.9671631,0.3626709l-0.115387,1.2033386  c-0.8736572-0.1978149-1.9121704-0.3132019-2.8188171-0.3132019c-1.7967834,0-2.1264648,0.3626709-2.1264648,1.631958  c0,1.5165405,0,1.582489,2.1759338,2.1264648c2.9176941,0.7253113,3.0660706,1.1539001,3.0660706,3.296875  C398.9082947,309.1179199,398.3478088,310.2058716,395.3312073,310.2058716z M408.1879883,310.0410461v-4.9782715h-4.8628845  v4.9782715h-1.4176331V299.0625h1.4176331v4.7309875h4.8628845V299.0625h1.4176331v10.9785461H408.1879883z M417.8303223,300.694458  v9.3465881h-1.3517151V299.0625h1.9451294l4.7804565,9.3960571V299.0625h1.3517151v10.9785461h-1.9451599L417.8303223,300.694458z   M436.2752686,310.0410461h-1.4341431l-0.9066467-2.6374817h-4.6650391l-0.8901367,2.6374817h-1.4341431l3.7089539-10.9785461  h1.9121704L436.2752686,310.0410461z M431.610199,300.0845337l-1.9616089,6.0827026h3.9232483L431.610199,300.0845337z   M439.9502869,300.3317871h-3.280365V299.0625h7.9783936v1.2692871h-3.280365v9.709259h-1.4176636V300.3317871z   M448.4057617,310.0410461h-1.4176636V299.0625h1.4176636V310.0410461z M459.5151978,306.8760376  c0,1.8297729-1.1374207,3.329834-3.9727173,3.329834s-3.9727173-1.500061-3.9727173-3.329834v-4.6485596  c0-1.8297424,1.1374207-3.329834,3.9727173-3.329834s3.9727173,1.5000916,3.9727173,3.329834V306.8760376z M452.9874268,306.8430786  c0,1.3517151,0.8242188,2.1099854,2.5550537,2.1099854c1.7308655,0,2.5550842-0.7582703,2.5550842-2.1099854v-4.5826416  c0-1.3516846-0.8242188-2.1099854-2.5550842-2.1099854c-1.730835,0-2.5550537,0.7583008-2.5550537,2.1099854V306.8430786z   M463.9485168,300.694458v9.3465881h-1.3517151V299.0625h1.9451294l4.7804565,9.3960571V299.0625h1.3517151v10.9785461h-1.9451599  L463.9485168,300.694458z M482.3934631,310.0410461h-1.4341431l-0.9066467-2.6374817h-4.6650391l-0.8901672,2.6374817h-1.4341125  l3.7089539-10.9785461h1.9121704L482.3934631,310.0410461z M477.7283936,300.0845337l-1.9616089,6.0827026h3.9232483  L477.7283936,300.0845337z M486.1993713,308.771759h4.7639771v1.2692871h-6.1816101V299.0625h1.4176331V308.771759z   M355.2611694,289.0870361h17.7288818v3.4990845h-17.7288818V289.0870361z M375.4737549,283.7117615  c0,0,0.3515015,0.0387268,0.4726562,0.1598206c0.1419983,0.1479797,0.0228577,0.3465271-0.0675049,0.3634338  c-0.3763123,0.0665283-1.4407654,0.1846619-2.2033081,1.4268494c-0.6930847,1.1270142-0.6841736,1.8964844-0.6841736,2.7116699  h-17.7298584c0-0.8151855,0.0089417-1.5846558-0.6841125-2.7116699c-0.7615967-1.2421875-1.8269958-1.360321-2.2033386-1.4268494  c-0.0903625-0.0169067-0.2085266-0.2154541-0.0675049-0.3634338c0.1211243-0.1210938,0.4746399-0.1598206,0.4746399-0.1598206  s-1.8548279-1.3782043-1.8548279-3.3551636c0-1.9848938,1.8161011-2.5091248,2.1755371-2.5895386  c1.0773315-0.2363586,1.8547668,0.1250916,1.8547668,0.1250916s0.5908203-1.1627502,2.1427917-1.3236084  c2.2201843-0.2313232,4.0283203,0.9582214,5.2098999,1.9729614c0.4994812,0.4289551,0.8857117,0.8579102,1.1468506,1.0852966  c0,0,0.1102295-1.3245544,0.1072388-1.3245544c-1.2530823-0.2125549-2.1963501-1.1289978-2.1963501-2.2261658  c0-1.1419067,1.0227356-2.0872192,2.3542175-2.250061v-1.131897h-0.911499  c-0.1429749,0.2541809-0.4140625,0.4269714-0.7268372,0.4269714c-0.4597168,0-0.8320618-0.3733826-0.8320618-0.8320923  c0-0.4597473,0.372345-0.8330688,0.8320618-0.8330688c0.3127747,0,0.5838623,0.1717529,0.7268372,0.4259949h0.911499v-1.0327148  c-0.2541809-0.1429443-0.4269409-0.414032-0.4269409-0.7277832c0-0.4587708,0.372345-0.8300781,0.8320923-0.8300781  c0.4597168,0,0.8320618,0.3713074,0.8320618,0.8300781c0,0.3137512-0.1707764,0.5848389-0.4259644,0.7277832v1.0327148h0.9115295  c0.1419678-0.2542419,0.414032-0.4259949,0.7268066-0.4259949c0.4597473,0,0.8320923,0.3733215,0.8320923,0.8330688  c0,0.4587097-0.372345,0.8320923-0.8320923,0.8320923c-0.3127747,0-0.5848389-0.1727905-0.7268066-0.4269714h-0.9115295v1.131897  c1.331543,0.1628418,2.354248,1.1081543,2.354248,2.250061c0,1.0991821-0.9443054,2.0146484-2.2023315,2.2271423  l0.1131897,1.3235779c0.2601624-0.2273865,0.6473999-0.6563416,1.1458435-1.0852966  c1.1825867-1.01474,2.9907227-2.2042847,5.2119141-1.9729614c1.5499878,0.1608582,2.1407776,1.3236084,2.1407776,1.3236084  s0.7784729-0.3614502,1.8548279-0.1250916c0.3604431,0.0804138,2.1755066,0.6046448,2.1755066,2.5895386  C377.3265991,282.3335571,375.4737549,283.7117615,375.4737549,283.7117615 M358.1261902,286.7729187  c0.0496521-0.8320312-0.0704956-2.3383484-1.9530945-3.4533997c-0.1370239-0.0853882-0.1618347-0.2154236-0.0873718-0.3296814  c0.0863647-0.131012,0.6444092-0.1727295,0.6444092-0.1727295s-1.2778931-0.9303894-1.6423035-1.3335266  c-0.4666748-0.5133667-0.897644-1.2729187-0.6821594-2.229126c0.0178833-0.0675049,0.0675049-0.1707764,0.0675049-0.1707764  c-1.1537781-0.0576477-2.0871277,1.3235779-0.9164734,2.1556091c0.2432861,0.1707764,0.1737671,0.3505554-0.1400146,0.3773193  c-0.1816711,0.0149231-0.5014343-0.0863647-0.7159119-0.2402954c0,0,0.2800293,1.3394775,1.1408997,2.1517029  c0,0,1.1458435-0.3921814,1.9958191,1.131958c0.3693542,0.6573181,0.6503601,1.5539551,0.7357788,2.1289062  c0.0595703,0.3762817,0.3842468,0.6632385,0.7754517,0.6632385  C357.7468872,287.4521179,358.074585,287.1552124,358.1261902,286.7729187 M360.5469666,283.7732849  c-0.0019531-0.0049744-0.0814209-0.2243652-0.0814209-0.4845581c0-0.8171692,0.6622925-1.4794617,1.4794922-1.4794617  c0.6245728,0,1.1577454,0.3882446,1.3752136,0.9353638h0.2611389c-0.0844116-0.6414795-0.2363281-1.2005005-0.5083923-1.6870117  c-1.5489807-2.7583923-5.0073547-3.2171021-5.8632812-2.1576233c-0.5997314,0.7436523,0.2671204,1.6373291,0.5828552,1.8279724  c0.241272,0.1459351,0.2641296,0.5252686-0.5113831,0.3644409c-0.2640991-0.0556641-0.5589905-0.2562561-0.5589905-0.2562561  c0,0.6583557,0.8618469,1.7813416,1.1925049,1.8578186c1.6661377-0.0665283,1.5996094,2.0255737,1.6254272,2.4386597h-0.0019836  c0.2462463,0.4160461,0.641449,0.8717651,1.1428833,1.2878113c1.098175,0.9134827,2.2748108,1.311676,2.6550903,0.8341064  c0.0784607-0.0973206,0.124115-0.2155151,0.1201477-0.3644104h-0.0019836  c-0.0009766-0.2124939-0.1270752-0.3783569-0.3326111-0.4885254  C362.1088562,285.8882446,360.8825989,284.8148804,360.5469666,283.7732849 M368.7128906,285.1326294  c0.0267944-0.4130859-0.0407104-2.505188,1.6254272-2.4386597c0.330658-0.0764771,1.193512-1.1994629,1.193512-1.8578186  c0,0-0.2949219,0.200592-0.5600281,0.2562561c-0.7745056,0.1608276-0.7516479-0.2185059-0.5103455-0.3644409  c0.3147583-0.1906433,1.1835632-1.0843201,0.5818481-1.8279724c-0.8549194-1.0594788-4.3143005-0.600769-5.8623047,2.1576233  c-0.2730408,0.4865112-0.4249573,1.0455322-0.5083923,1.6870117h0.2611694  c0.2164612-0.5471191,0.7496643-0.9353638,1.3742065-0.9353638c0.8171997,0,1.4794617,0.6622925,1.4794617,1.4794617  c0,0.2601929-0.0794067,0.4795837-0.0804138,0.4845581c-0.3356018,1.0415955-1.5618896,2.1149597-2.5736694,2.6283264  c-0.20755,0.1101685-0.3336182,0.2760315-0.3346252,0.4885254h-0.0010071  c-0.0039673,0.1488953,0.0407104,0.2670898,0.1191406,0.3644104c0.3813171,0.4775696,1.5579224,0.0793762,2.6561279-0.8341064  c0.5004578-0.4160461,0.8955994-0.8717651,1.1418762-1.2878113H368.7128906z M374.4123535,283.5280151  c0.8608398-0.8122253,1.1398621-2.1517029,1.1398621-2.1517029c-0.2144775,0.1539307-0.5341797,0.2552185-0.7149048,0.2402954  c-0.3147583-0.0267639-0.3832703-0.206543-0.1400146-0.3773193c1.1697083-0.8320312,0.2373047-2.2132568-0.9164734-2.1556091  c0,0,0.0486755,0.1032715,0.0675049,0.1707764c0.2154846,0.9562073-0.2154236,1.7157593-0.6841125,2.229126  c-0.3634033,0.4031372-1.6403503,1.3335266-1.6403503,1.3335266s0.5580444,0.0417175,0.6434326,0.1727295  c0.07547,0.1142578,0.0506287,0.2442932-0.0873718,0.3296814c-1.8826294,1.1150513-2.0027771,2.6213684-1.9520874,3.4533997  c0.0516357,0.3822937,0.3782654,0.6791992,0.7764587,0.6791992c0.3912048,0,0.7159119-0.2869568,0.7764893-0.6632385  c0.0853882-0.5749512,0.3653564-1.4715881,0.7357483-2.1289062  C373.2654724,283.1358337,374.4123535,283.5280151,374.4123535,283.5280151"/>
</svg>