<?xml version="1.0" encoding="UTF-8"?>
<svg id="_圖層_1" data-name="圖層 1" xmlns="http://www.w3.org/2000/svg" viewBox="0 0 642.63 140">
  <defs>
    <style>
      .cls-1 {
        fill: #fff;
      }
    </style>
  </defs>
  <path class="cls-1" d="m120,50v82.5c0,4.14-3.36,7.5-7.5,7.5H7.5c-4.14,0-7.5-3.36-7.5-7.5h0V7.5C0,3.36,3.36,0,7.5,0h62.5v42.5c0,4.14,3.36,7.5,7.5,7.5h42.5Zm-30,12.5c.02-1.36-1.08-2.48-2.44-2.5-.02,0-.04,0-.06,0h-55c-1.36-.02-2.48,1.06-2.5,2.42,0,.03,0,.05,0,.08v5c-.02,1.36,1.08,2.48,2.44,2.5.02,0,.04,0,.06,0h55c1.37.01,2.49-1.09,2.5-2.46,0-.01,0-.03,0-.04v-5Zm0,20c.02-1.36-1.08-2.48-2.44-2.5-.02,0-.04,0-.06,0h-55c-1.36-.02-2.48,1.06-2.5,2.42,0,.03,0,.05,0,.08v5c-.02,1.36,1.08,2.48,2.44,2.5.02,0,.04,0,.06,0h55c1.37.01,2.49-1.09,2.5-2.46,0-.01,0-.03,0-.04v-5Zm0,20c.02-1.36-1.08-2.48-2.44-2.5-.02,0-.04,0-.06,0h-55c-1.36-.02-2.48,1.06-2.5,2.42,0,.03,0,.05,0,.08v5c-.02,1.36,1.08,2.48,2.44,2.5.02,0,.04,0,.06,0h55c1.37.01,2.49-1.09,2.5-2.46,0-.01,0-.03,0-.04v-5Zm26.87-62.5h-36.87V3.12c1.01.63,1.95,1.36,2.81,2.19l31.87,31.87c.83.86,1.56,1.8,2.19,2.82h0Z"/>
  <path class="cls-1" d="m166.64,28.44h16.24v36.79h37V28.44h16.23v91.56h-16.21v-40.6h-37v40.6h-16.26V28.44Z"/>
  <path class="cls-1" d="m254.33,101.52c0-14.73,12.21-22.4,40.44-25.43-.23-7.39-3.2-13.55-12.49-13.55-6.83,0-13.27,3.08-19.32,6.78l-5.94-10.76c7.56-4.76,17.31-9,28.23-9,17.19,0,25.64,10.58,25.64,29.73v40.72h-13.21l-1.23-7.62h-.45c-6.16,5.26-13.22,9.3-21.34,9.3-12.04.04-20.33-8.19-20.33-20.17Zm40.44,0v-15.4c-18.65,2.35-24.87,7.22-24.87,14.16,0,6.08,4.15,8.74,9.91,8.74s9.86-2.75,14.93-7.45l.03-.05Z"/>
  <path class="cls-1" d="m325.74,85.67c0-22.91,16.19-36.12,34.5-36.12,7.44-.06,14.62,2.7,20.1,7.73l-7.85,10.45c-3.64-3.19-7.11-5-11.42-5-11.09,0-18.76,9.18-18.76,23s7.56,22.85,18.26,22.85c5.37,0,10.3-2.64,14.22-5.94l6.55,10.64c-6.21,5.45-14.19,8.45-22.45,8.45-18.76,0-33.15-13.27-33.15-36.06Z"/>
  <path class="cls-1" d="m394.89,21.1h15.85v61.77h.44l25.48-31.64h17.64l-23.57,28,26,40.77h-17.6l-17.69-29.85-10.7,12.37v17.48h-15.8l-.05-98.9Z"/>
  <path class="cls-1" d="m469.32,28.44h18.36l16.19,44.74c2,5.82,3.86,12,5.88,18h.56c2-6,3.75-12.16,5.77-18l15.84-44.74h18.37v91.56h-14.89v-41.89c0-8.46,1.28-20.64,2.07-29.12h-.56l-7.39,21.28-15.07,41.13h-9.63l-15.08-41.13-7.28-21.28h-.56c.78,8.48,2.07,20.66,2.07,29.12v41.89h-14.65V28.44Z"/>
  <path class="cls-1" d="m573.59,28.44h24.41c28.06,0,44.63,15.12,44.63,45.41s-16.57,46.15-43.79,46.15h-25.25V28.44Zm23.35,78.4c18.42,0,29-10.48,29-33s-10.59-32.25-29-32.25h-7.11v65.24h7.11Z"/>
</svg>