<svg id="Ebene_1" data-name="Ebene 1" xmlns="http://www.w3.org/2000/svg" viewBox="0 0 432.37 304.72"><defs><style>.cls-1{fill:#fff;}</style></defs><path class="cls-1" d="M74.45,74.4H95.31v55.78h32.42v18.63H74.45Z"/><path class="cls-1" d="M133.22,74.4h54.31V92.09H154.08v10.1h27.76v16.34H154.08v11.65h34.45v18.63H133.22Z"/><path class="cls-1" d="M195.61,74.4h20.84v74.41H195.61Z"/><path class="cls-1" d="M225,74.4h36.89c7,0,12.16,1.77,15.95,4.79a18.23,18.23,0,0,1,6.78,14.67c0,7.08-2.89,11.55-8.87,14.26v.31c7.78,2.6,12.26,9.47,12.26,17.9,0,8-3.09,14-8.17,17.8-4.29,3.12-9.87,4.68-17.25,4.68H225Zm33.4,28.93c4,0,6.68-2,6.68-5.93s-2.79-6.14-6.78-6.14H245.47v12.07Zm1.89,28.41c4.49,0,7.58-2.81,7.58-7.28,0-4.79-3.39-7.18-7.67-7.18H245.47v14.46Z"/><path class="cls-1" d="M293.34,74.4H314.2l23.35,41.83h.2V74.4h20.16v74.41H336.36L313.7,106.66h-.2v42.15H293.34Z"/><path class="cls-1" d="M167.67,211.7h20.86v18.6H167.67Z"/><path class="cls-1" d="M167.67,155.89h20.86v18.6H167.67Z"/><path class="cls-1" d="M74.45,155.89H95.31V230.3H74.45Z"/><path class="cls-1" d="M101.64,212.4l26.65-32a78.35,78.35,0,0,1,5.69-6l-.52-.31a54.15,54.15,0,0,1-6.27.41H101.64V155.89h58.82v16.34L134,204c-3.29,4-7.29,7.81-7.29,7.81v.31s4-.41,8.39-.41h25.57V230.3h-59Z"/><path class="cls-1" d="M195.61,155.89h20.85v27.27h19.45V155.89h20.84V230.3H235.91V201.16H216.46V230.3H195.61Z"/><path class="cls-1" d="M265.34,155.89h20.84v24.36l21.55-24.36h23.93l-26.63,30,28.13,44.43H308.92l-18.15-29.45-4.59,5.41v24H265.34Z"/><path class="cls-1" d="M337.06,155.89h20.86V230.3H337.06Z"/></svg>
