<?xml version="1.0" encoding="utf-8"?>
<!-- Generator: Adobe Illustrator 24.0.3, SVG Export Plug-In . SVG Version: 6.00 Build 0)  -->
<svg version="1.1" id="Layer_1" xmlns="http://www.w3.org/2000/svg" xmlns:xlink="http://www.w3.org/1999/xlink" x="0px" y="0px"
	 viewBox="0 0 441.96 165.03" style="enable-background:new 0 0 441.96 165.03;" xml:space="preserve">
<style type="text/css">
	.st0{fill:#FFFFFF;}
</style>
<g>
	<g>
		<path class="st0" d="M420.32,87.13v8.39h-2.17v-7.55L420.32,87.13z M418.23,84.44h8.86v11.08h2.16V84.47l0.67-0.28l0.25-2.33
			h-10.47l-0.78-1.06l-1.66,2.25L418.23,84.44z M413.04,90.02l1.39-8.16h-2.3l-1.08,5.8l-5.44-6.52l-1.53,0.86l-2.03,13.52h2.19
			l1.55-10.36l9.11,10.61l1.03-2.28L413.04,90.02z M396.13,80.8l3.22,1.58v13.13h-2.17V84.08l-2.47-1.36L396.13,80.8z M392.44,82.38
			v12.41l-6.41,1.31v-2.47l4.25-0.94v-8.61l-2.47-1.36l1.42-1.92L392.44,82.38z M381.2,80.8l3.22,1.58v6.97h-2.16v-5.36l-2.47-1.28
			L381.2,80.8z M369.76,80.8l0.78,1.06h6.89v10.91l1.86-0.08v2.47l-11.91,0.5v-2.47l7.88-0.33v-8.41h-6.19l-0.97-1.39L369.76,80.8z
			 M355.57,84.44l-0.97-1.39l1.67-2.25l0.78,1.06h7.72v13.66h-2.17V84.44H355.57z M348.57,92.3l1.25-7.86h-7.66l0.92,8.47
			L348.57,92.3z M340.91,81.86h11.58l-2.08,12.66l-9.13,1.25l-1.36-11.33h-0.58l-0.78-1.39l1.67-2.25L340.91,81.86z M332.89,80.8
			l3.22,1.58v6.97h-2.16v-5.36l-2.47-1.28L332.89,80.8z M316.84,82.33l1.11,13.44l10.08-1.47l1.55-12.44h-6.19l-1.22,2.58h4.86
			l-0.97,7.66l-6.08,0.81L319,80.72L316.84,82.33z M304.32,87.13v8.39h-2.17v-7.55L304.32,87.13z M302.23,84.44h8.86v11.08h2.16
			V84.47l0.67-0.28l0.25-2.33h-10.47l-0.78-1.06l-1.66,2.25L302.23,84.44z M281.49,87.13v8.39h-2.17v-7.55L281.49,87.13z
			 M279.41,84.44h8.86v11.08h2.16V84.47l0.67-0.28l0.25-2.33h-10.47l-0.78-1.06l-1.67,2.25L279.41,84.44z M276.25,81.19l-2.39,0.75
			l-1.64,10.3l-2.94,0.42l-1.97-11.63l-2.14,1.25l1.92,10.72l-4,0.56v2.47l10.97-1.56L276.25,81.19z M252.04,80.8l0.78,1.06h6.89
			v10.91l1.86-0.08v2.47l-11.91,0.5v-2.47l7.88-0.33v-8.41h-6.19l-0.97-1.39L252.04,80.8z M237.85,84.44l-0.97-1.39l1.67-2.25
			l0.78,1.06h7.72v13.66h-2.17V84.44H237.85z M231.21,80.8l3.22,1.58v6.97h-2.17v-5.36l-2.47-1.28L231.21,80.8z M214.72,84.44h1.2
			l0.3,8.44l-3.14,0.42v2.47l5.44-0.61l-0.44-10.72h6.5v11.08h2.17V84.47l0.67-0.28l0.25-2.33h-11.47l-0.78-1.06l-1.67,2.25
			L214.72,84.44z M194.59,80.8l0.78,1.06h6.89v10.91l1.86-0.08v2.47l-11.91,0.5v-2.47l7.88-0.33v-8.41h-6.19l-0.97-1.39L194.59,80.8
			z M186.93,80.8l3.22,1.58v6.97h-2.17v-5.36l-2.47-1.28L186.93,80.8z M173.55,84.44l-0.97-1.39l1.67-2.25l0.78,1.06h7.72v13.66
			h-2.17V84.44H173.55z M166.72,80.8l3.22,1.58v13.13h-2.16V84.08l-2.47-1.36L166.72,80.8z M161.83,80.8l-3.69,9.72l-5.58,2.11
			l-0.36-1.28l5.69-8.91l-1.44-1.64l-4.97,7.86l-2.17-7.86l-1.91,1.53l3.69,13.44l8.69-3.19l3.7-10.13L161.83,80.8z M134.17,73.3
			l2.17-0.92v9.41l8.11,0.06l0.64,1.69l-5.39,12.22l-1.94-0.92l4.69-10.44h-8.27V73.3z M127.79,80.8l3.22,1.58v6.97h-2.17v-5.36
			l-2.47-1.28L127.79,80.8z M121.21,93.13h-6.91v-8.69h6.91V93.13z M124.29,81.86h-11.88l-0.78-1.06l-1.67,2.25l0.97,1.39h1.19
			v11.08h11.25V84.47l0.66-0.28L124.29,81.86z"/>
		<g>
			<path class="st0" d="M429.36,119.78l-1.87-12.21h-2.37l-2.41,7.12c-0.29,0.9-0.49,1.52-0.67,2.42h-0.04
				c-0.14-0.79-0.38-1.61-0.67-2.49l-2.35-7.05h-2.35l-1.83,12.21h2.01l0.78-6.31c0.13-1.16,0.25-2.11,0.33-3.16h0.04
				c0.14,0.89,0.45,1.93,0.78,2.89l2.19,6.58h2.04l2.29-7.09c0.31-0.9,0.49-1.7,0.63-2.39h0.04c0.09,0.8,0.18,1.68,0.38,2.98
				l0.96,6.49H429.36z M412.92,119.78v-1.68h-4.46v-3.8h4.25v-1.61h-4.25v-3.47h4.46v-1.64h-6.44v12.21H412.92z M404.93,119.78
				v-1.72h-4.2v-10.49h-1.97v12.21H404.93z M393.59,115.51h-3.91l1.38-3.78c0.24-0.65,0.44-1.32,0.56-1.94h0.03
				c0.15,0.67,0.31,1.25,0.54,1.88L393.59,115.51z M397.24,119.78l-4.43-12.21h-2.19l-4.38,12.21h1.99l0.94-2.69h4.94l0.94,2.69
				H397.24z M385.47,116.09c0-3.82-5.33-2.91-5.33-5.35c0-1.01,0.78-1.72,2.3-1.72c0.72,0,1.5,0.13,2.21,0.34l0.11-1.75
				c-0.74-0.13-1.48-0.22-2.21-0.22c-2.84,0-4.48,1.46-4.48,3.56c0,3.94,5.33,2.86,5.33,5.42c0,1.32-1.09,1.88-2.42,1.88
				c-0.89,0-1.84-0.2-2.53-0.45l-0.11,1.86c0.7,0.18,1.57,0.29,2.46,0.29C383.7,119.96,385.47,118.33,385.47,116.09 M375.81,115.07
				v-7.5h-1.93v7.65c0,2.28-0.9,3.11-2.89,3.11c-2.26,0-2.8-1.23-2.8-2.86v-7.9h-1.97v8.05c0,2.24,0.81,4.34,4.64,4.34
				C374.06,119.96,375.81,118.33,375.81,115.07 M361.58,111.02c0,1.21-0.96,2.03-2.55,2.03c-0.44,0-0.78-0.02-0.96-0.04v-3.87
				c0.29-0.02,0.65-0.03,1.03-0.03C360.75,109.11,361.58,109.68,361.58,111.02 M364.44,119.78l-3.22-4.25
				c-0.31-0.4-0.69-0.87-1.03-1.3c1.99-0.22,3.45-1.46,3.45-3.42c0-2.42-1.74-3.31-4.27-3.31c-1.38,0-2.39,0.02-3.28,0.07v12.21
				h1.97v-5.28h0.09l3.8,5.28H364.44z M353.54,119.78v-1.68h-4.47v-3.8h4.25v-1.61h-4.25v-3.47h4.47v-1.64h-6.44v12.21H353.54z
				 M344.01,116.48v-8.91h-1.97v8.82c0,1.48-0.5,1.86-1.43,1.86c-0.43,0-0.87-0.09-1.18-0.2v1.72c0.38,0.07,0.83,0.14,1.41,0.14
				C343.19,119.92,344.01,118.51,344.01,116.48 M334.81,109.23v-1.66h-6.37v12.21h1.97v-5.35h4.16v-1.61h-4.16v-3.58H334.81z
				 M324.24,113.72c0,3.04-1.81,4.48-3.62,4.48c-2.41,0-3.54-1.86-3.54-4.63c0-2.93,1.7-4.45,3.58-4.45
				C322.94,109.12,324.24,110.77,324.24,113.72 M326.34,113.52c0-4.09-2.2-6.13-5.5-6.13c-3.22,0-5.86,2.37-5.86,6.42
				c0,3.74,1.79,6.15,5.5,6.15C323.72,119.96,326.34,117.57,326.34,113.52 M310.23,107.57h-2.08l-1.72,3.63
				c-0.38,0.78-0.74,1.56-1.01,2.28h-0.04c-0.25-0.65-0.54-1.34-0.87-2.06l-1.81-3.85h-2.15l3.82,7.85v4.36h1.97v-4.36
				L310.23,107.57z M300.14,109.23v-1.66h-8.68v1.66h3.34v10.54h1.97v-10.54H300.14z M289.91,107.57h-1.97v12.21h1.97V107.57z
				 M285.67,116.09c0-3.82-5.33-2.91-5.33-5.35c0-1.01,0.78-1.72,2.29-1.72c0.72,0,1.5,0.13,2.21,0.34l0.11-1.75
				c-0.74-0.13-1.48-0.22-2.21-0.22c-2.84,0-4.49,1.46-4.49,3.56c0,3.94,5.34,2.86,5.34,5.42c0,1.32-1.09,1.88-2.42,1.88
				c-0.88,0-1.85-0.2-2.53-0.45l-0.11,1.86c0.7,0.18,1.57,0.29,2.46,0.29C283.9,119.96,285.67,118.33,285.67,116.09 M274.27,111.02
				c0,1.21-0.96,2.03-2.55,2.03c-0.43,0-0.78-0.02-0.96-0.04v-3.87c0.29-0.02,0.65-0.03,1.03-0.03
				C273.44,109.11,274.27,109.68,274.27,111.02 M277.13,119.78l-3.22-4.25c-0.31-0.4-0.69-0.87-1.03-1.3
				c1.99-0.22,3.45-1.46,3.45-3.42c0-2.42-1.73-3.31-4.27-3.31c-1.38,0-2.39,0.02-3.28,0.07v12.21h1.97v-5.28h0.09l3.8,5.28H277.13z
				 M266.22,119.78v-1.68h-4.47v-3.8h4.25v-1.61h-4.25v-3.47h4.47v-1.64h-6.44v12.21H266.22z M258.34,107.57h-2.03l-2.62,7.4
				c-0.36,0.99-0.58,1.75-0.79,2.6h-0.02c-0.23-0.9-0.52-1.77-0.78-2.48l-2.57-7.52h-2.17l4.34,12.21h2.24L258.34,107.57z
				 M245.92,107.57h-1.97v12.21h1.97V107.57z M240.77,119.78v-12.21h-1.92v3.62c0,1.79,0.05,4.41,0.13,5.8
				c-0.45-0.89-0.94-1.86-1.48-2.77l-4.03-6.65h-2.59v12.21h1.92v-4.11c0-1.74-0.04-4.21-0.11-5.41c0.38,0.81,0.81,1.68,1.36,2.57
				l4.18,6.94H240.77z M227.79,115.07v-7.5h-1.94v7.65c0,2.28-0.9,3.11-2.89,3.11c-2.26,0-2.8-1.23-2.8-2.86v-7.9h-1.97v8.05
				c0,2.24,0.81,4.34,4.65,4.34C226.03,119.96,227.79,118.33,227.79,115.07 M212.29,107.57h-1.97l-1.9,7.63
				c-0.18,0.67-0.31,1.37-0.43,2.14h-0.02c-0.13-0.78-0.31-1.59-0.49-2.24l-2.13-7.52h-2.15l-2.08,7.5
				c-0.22,0.74-0.36,1.52-0.49,2.31h-0.02c-0.11-0.81-0.25-1.59-0.47-2.4l-1.88-7.41h-2.1l3.17,12.21h2.31l2.06-7.58
				c0.2-0.76,0.34-1.5,0.43-2.26h0.02c0.13,0.78,0.25,1.55,0.47,2.29l2.08,7.54h2.42L212.29,107.57z M194.61,119.78v-1.68h-4.46
				v-3.8h4.25v-1.61h-4.25v-3.47h4.46v-1.64h-6.44v12.21H194.61z M183.38,111.02c0,1.21-0.96,2.03-2.55,2.03
				c-0.44,0-0.78-0.02-0.96-0.04v-3.87c0.29-0.02,0.65-0.03,1.03-0.03C182.55,109.11,183.38,109.68,183.38,111.02 M186.24,119.78
				l-3.22-4.25c-0.31-0.4-0.69-0.87-1.03-1.3c1.99-0.22,3.45-1.46,3.45-3.42c0-2.42-1.73-3.31-4.27-3.31
				c-1.38,0-2.39,0.02-3.27,0.07v12.21h1.97v-5.28h0.09l3.8,5.28H186.24z M173.42,116.12c0,1.23-0.85,2.1-2.64,2.1
				c-0.63,0-1.12-0.04-1.43-0.09v-3.89c0.27-0.02,0.9-0.02,1.1-0.02C172.18,114.22,173.42,114.73,173.42,116.12 M173.19,110.79
				c0,1.23-0.96,1.97-2.79,1.97c-0.41,0-0.72,0-1.05-0.02v-3.62c0.47-0.02,0.99-0.04,1.54-0.04
				C172.63,109.09,173.19,109.79,173.19,110.79 M175.5,116.09c0-1.27-0.74-2.48-2.33-2.79v-0.04c1.25-0.43,2.08-1.54,2.08-2.79
				c0-1.88-1.38-2.97-4.03-2.97c-1.48,0-2.87,0.04-3.83,0.06v12.21c1.36,0.02,2.59,0.05,3.33,0.05
				C174.46,119.83,175.5,117.68,175.5,116.09 M164.82,119.78v-1.68h-4.46v-3.8h4.25v-1.61h-4.25v-3.47h4.46v-1.64h-6.44v12.21
				H164.82z M155.2,119.78v-12.21h-1.95v5.05h-5.77v-5.05h-1.97v12.21h1.97v-5.48h5.77v5.48H155.2z M139,119.78v-1.68h-4.47v-3.8
				h4.25v-1.61h-4.25v-3.47H139v-1.64h-6.44v12.21H139z M129.38,119.78v-12.21h-1.96v5.05h-5.77v-5.05h-1.97v12.21h1.97v-5.48h5.77
				v5.48H129.38z M118.15,109.23v-1.66h-8.68v1.66h3.34v10.54h1.97v-10.54H118.15z"/>
		</g>
	</g>
	<g>
		<polygon class="st0" points="64.56,74.39 54.24,87.18 81.03,127.39 86.93,119.8 		"/>
		<g>
			<path class="st0" d="M40.94,18.07l-3.12-6.42c0,0-6.66,10.18-6.66,14.14c0,6.28,2.95,10.42,2.95,10.42h9.13l1.62-9.85h-5.87
				L40.94,18.07z"/>
		</g>
		<polygon class="st0" points="81.26,102.51 90.36,90.82 86.11,82.18 76.06,91.97 		"/>
		<polygon class="st0" points="44.93,94.63 42.37,41.81 34.87,41.81 30.54,112.42 		"/>
		<polygon class="st0" points="52.56,89.25 13.18,137.94 13.18,153.38 62.91,104.79 		"/>
	</g>
</g>
</svg>
