<?xml version="1.0" encoding="utf-8"?>
<!-- Generator: Adobe Illustrator 24.1.2, SVG Export Plug-In . SVG Version: 6.00 Build 0)  -->
<svg version="1.1" id="Layer_1" xmlns="http://www.w3.org/2000/svg" xmlns:xlink="http://www.w3.org/1999/xlink" x="0px" y="0px"
	 viewBox="0 0 136.1 59.8" style="enable-background:new 0 0 136.1 59.8;" xml:space="preserve">
<style type="text/css">
	.st0{fill:#FFFFFF;}
</style>
<g id="Layer_2_1_">
	<g>
		<path class="st0" d="M88.2,28.7c-0.5,0-0.9,0.1-1.3,0.5c-0.3,0.3-0.5,0.8-0.5,1.2h3.4c0-0.5-0.1-0.9-0.4-1.2
			C89,28.8,88.6,28.7,88.2,28.7z"/>
		<path class="st0" d="M103,28.7c-0.5,0-0.9,0.2-1.3,0.5c-0.3,0.3-0.5,0.8-0.5,1.2h3.4c0-0.5-0.1-0.9-0.4-1.2
			C103.9,28.8,103.4,28.7,103,28.7z"/>
		<path class="st0" d="M108.1,16.6v-1.7L107,15c-0.3,0-0.7,0.1-1,0.2c-0.3,0.1-0.5,0.2-0.7,0.4c-0.2,0.2-0.3,0.5-0.3,0.7
			c0,0.3,0.1,0.6,0.3,0.8c0.3,0.2,0.6,0.3,0.9,0.3c0.3,0,0.7-0.1,1-0.2C107.6,17,107.8,16.8,108.1,16.6L108.1,16.6z"/>
		<path class="st0" d="M40,37.5c0-0.5-0.1-1-0.3-1.5c-0.2-0.4-0.5-0.8-0.9-1c-0.4-0.2-0.8-0.4-1.3-0.4c-0.6-0.1-1.1-0.1-1.7-0.1
			h-3.1V41h2.8c0.7,0,1.3,0,2-0.2c0.5-0.1,1-0.4,1.5-0.7c0.4-0.3,0.6-0.7,0.8-1.1C39.9,38.5,40,38,40,37.5z"/>
		<path class="st0" d="M128.5,0H7.6C2.3,0,0,2.4,0,7.6v44.5c0,5.2,2.3,7.6,7.6,7.6h120.9c5.3,0,7.6-2.4,7.6-7.6V7.6
			C136.1,2.4,133.8,0,128.5,0z M85.4,12.1h1v3.4c0,0.3,0,0.5,0,0.8c0,0.2,0.1,0.4,0.2,0.5c0.1,0.2,0.2,0.3,0.4,0.3
			c0.2,0.1,0.4,0.1,0.7,0.1c0.3,0,0.6-0.1,0.9-0.2c0.3-0.1,0.6-0.3,0.9-0.5v-4.5h1l0.1,6h-1v-0.7c-0.3,0.2-0.6,0.5-1,0.6
			c-0.3,0.1-0.7,0.2-1,0.2c-0.5,0-1.1-0.2-1.4-0.6c-0.4-0.5-0.6-1.1-0.6-1.7V12.1z M76.6,10.1h1.1v3.1h4v-3.1h1.1l0,8h-1.1v-3.9h-4
			v3.9h-1V10.1z M24.5,50.3l-0.5-7.7c-0.2-2.7-0.3-5.7-0.3-7.9h-0.1c-0.5,2.2-1.2,4.4-2,7l-2.9,8.5h-2l-2.9-8.5
			c-0.8-2.6-1.5-4.9-2.1-7h0c0,2.2-0.2,5.2-0.3,7.9l-0.5,7.7H8.4l1.3-17.9h3.2l3.1,8.7c0.7,2,1.2,3.9,1.7,5.6h0.1
			c0.5-1.7,1-3.6,1.7-5.6l3.1-8.7h3.2L27,50.3H24.5z M45.3,50.3h-3.1l-5.7-7h-3.8v7h-2.3V32.4h5.2c0.9,0,1.8,0,2.7,0.2
			c0.7,0.1,1.4,0.4,2.1,0.8c0.6,0.4,1.1,0.9,1.4,1.5c0.9,1.8,0.8,4-0.2,5.8c-0.6,0.9-1.5,1.6-2.6,2L45.3,50.3L45.3,50.3z M59.5,35.8
			c-1.3-0.9-2.8-1.4-4.4-1.6c-0.7,0-1.3,0-2,0.1c-3.3,0.7-5.6,3.6-5.5,6.9c-0.1,3.3,2.2,6.2,5.5,6.9c0.7,0.1,1.3,0.2,2,0.1
			c1.6-0.1,3.1-0.6,4.4-1.5v2.4c-1.6,0.9-3.4,1.4-5.2,1.3c-5,0-9-4-9.1-8.9c0-0.1,0-0.2,0-0.3c-0.1-5,3.8-9.1,8.8-9.2
			c0.1,0,0.2,0,0.3,0c1.8,0,3.6,0.4,5.2,1.3V35.8z M69.1,54.3L69.1,54.3l-1.4,0v-49h1.4V54.3z M82.6,46.9c0,0.5-0.1,1-0.2,1.5
			c-0.1,0.4-0.3,0.8-0.6,1.1c-0.3,0.3-0.6,0.5-1,0.6c-0.4,0.1-0.9,0.2-1.3,0.2c-0.4,0-0.9-0.1-1.3-0.2c-0.4-0.1-0.7-0.3-0.9-0.6
			c-0.3-0.3-0.5-0.7-0.6-1.1c-0.1-0.5-0.2-1-0.2-1.5v-4.8h1.1v4.8c0,0.3,0,0.7,0.1,1c0.1,0.2,0.1,0.5,0.3,0.7
			c0.2,0.2,0.4,0.4,0.7,0.5c0.6,0.3,1.4,0.3,2,0c0.3-0.1,0.5-0.3,0.7-0.5c0.1-0.2,0.2-0.5,0.3-0.7c0.1-0.3,0.1-0.7,0.1-1v-4.8h1.1
			L82.6,46.9z M83.3,28L83.3,28l-0.6-0.3c-0.2-0.1-0.4-0.3-0.6-0.4c-0.3-0.1-0.6-0.2-0.8-0.3c-0.4-0.1-0.7-0.1-1.1-0.1
			c-0.8,0-1.6,0.3-2.1,0.9c-0.5,0.6-0.8,1.5-0.8,2.3c-0.1,0.9,0.2,1.7,0.8,2.4c0.6,0.6,1.4,0.9,2.2,0.9c0.3,0,0.7,0,1-0.1
			c0.3-0.1,0.6-0.1,0.9-0.3v-2h-2.1v-1h3.2v3.5c-0.5,0.2-0.9,0.4-1.4,0.5c-0.5,0.1-1,0.2-1.5,0.2c-0.6,0-1.2-0.1-1.7-0.2
			c-0.5-0.2-0.9-0.4-1.3-0.8c-0.4-0.4-0.7-0.8-0.8-1.3c-0.2-0.6-0.3-1.2-0.3-1.8c-0.1-1.1,0.4-2.2,1.1-3c0.8-0.8,1.9-1.2,3.1-1.1
			c0.5,0,0.9,0.1,1.4,0.2c0.5,0.1,1,0.3,1.5,0.6V28z M90.3,50.1h-1v-3.4c0-0.3,0-0.5,0-0.8c0-0.2-0.1-0.4-0.2-0.6
			c-0.1-0.2-0.2-0.3-0.4-0.3c-0.2-0.1-0.4-0.1-0.7-0.1c-0.3,0-0.6,0.1-0.9,0.2c-0.3,0.1-0.6,0.3-0.9,0.5v4.5h-1v-6h1v0.7
			c0.3-0.3,0.6-0.5,1-0.6c0.3-0.1,0.7-0.2,1-0.2c0.6,0,1.1,0.2,1.5,0.6c0.4,0.5,0.6,1.1,0.5,1.7L90.3,50.1z M90.8,31.2h-4.4
			c0,0.3,0,0.7,0.2,1c0.1,0.3,0.3,0.5,0.5,0.7c0.2,0.2,0.4,0.3,0.7,0.4c0.3,0.1,0.6,0.1,0.8,0.1c0.4,0,0.8-0.1,1.2-0.2
			c0.3-0.1,0.6-0.3,0.9-0.5h0v1.1c-0.3,0.1-0.7,0.3-1,0.4c-0.4,0.1-0.7,0.2-1.1,0.2c-0.9,0-1.7-0.2-2.3-0.8
			c-0.6-0.6-0.9-1.4-0.8-2.3c0-0.9,0.2-1.7,0.8-2.3c0.5-0.6,1.3-0.9,2.1-0.9c0.7,0,1.4,0.2,1.9,0.7c0.5,0.6,0.7,1.3,0.7,2L90.8,31.2
			z M93.9,50h-1v-6h1V50z M94,43h-1.2v-1H94V43z M94.9,29.1c-0.3,0.1-0.6,0.3-0.9,0.5v4.5h-1v-6h1v0.7c0.3-0.3,0.6-0.5,1-0.6
			c0.3-0.1,0.7-0.2,1-0.2c0.6,0,1.1,0.2,1.5,0.6c0.3,0.5,0.5,1.1,0.5,1.7v3.9h-1v-3.4c0-0.3,0-0.5,0-0.8c0-0.2-0.1-0.4-0.2-0.6
			c-0.1-0.2-0.2-0.3-0.4-0.3c-0.2-0.1-0.4-0.1-0.7-0.1C95.5,28.9,95.2,29,94.9,29.1z M99,50.2c-0.2,0-0.4,0-0.6,0
			c-0.5,0-1-0.1-1.4-0.5c-0.4-0.4-0.5-1-0.5-1.6v-3.2h-0.7v-0.8h0.7v-1.7h1v1.7h2.1v0.8h-2.1v2.8c0,0.3,0,0.6,0,0.8
			c0,0.2,0.1,0.3,0.1,0.5c0.1,0.1,0.2,0.2,0.3,0.3c0.2,0.1,0.4,0.1,0.6,0.1c0.2,0,0.3,0,0.5-0.1c0.1,0,0.3-0.1,0.4-0.1l0.1,0.9
			C99.5,50.1,99.2,50.1,99,50.2z M98.8,13.1c-0.3,0.2-0.6,0.3-0.8,0.5c0,0.1,0,0.2,0,0.3c0,0.1,0,0.2,0,0.3v3.8h-1v-3.4
			c0-0.2,0-0.5,0-0.8c0-0.2-0.1-0.4-0.2-0.6c-0.1-0.2-0.2-0.3-0.3-0.4c-0.2-0.1-0.4-0.1-0.7-0.1c-0.3,0-0.6,0.1-0.8,0.2
			c-0.3,0.1-0.6,0.3-0.8,0.5v4.5h-1v-6h1v0.7c0.3-0.2,0.6-0.5,0.9-0.6c0.3-0.1,0.7-0.2,1-0.2c0.4,0,0.7,0.1,1,0.3
			c0.3,0.2,0.5,0.4,0.6,0.7c0.3-0.3,0.7-0.5,1.1-0.7c0.3-0.2,0.7-0.2,1.1-0.2c0.6,0,1.1,0.2,1.5,0.6c0.3,0.5,0.5,1.1,0.5,1.7l0,3.9
			h-1v-3.4c0-0.2,0-0.5,0-0.7c0-0.2-0.1-0.4-0.2-0.6c-0.1-0.1-0.2-0.3-0.3-0.4c-0.2-0.1-0.4-0.1-0.7-0.1
			C99.4,12.9,99.1,13,98.8,13.1z M105.6,31.2h-4.4c0,0.3,0,0.7,0.2,1c0.1,0.3,0.3,0.5,0.4,0.7c0.2,0.2,0.4,0.3,0.7,0.4
			c0.3,0.1,0.6,0.1,0.8,0.1c0.4,0,0.8-0.1,1.2-0.2c0.3-0.1,0.6-0.3,0.9-0.5h0.1v1.1c-0.3,0.1-0.7,0.3-1,0.4
			c-0.4,0.1-0.7,0.2-1.1,0.2c-0.9,0.1-1.7-0.2-2.3-0.8c-0.6-0.6-0.9-1.5-0.8-2.3c0-0.9,0.2-1.7,0.8-2.3c0.6-0.6,1.3-0.9,2.1-0.9
			c0.7,0,1.4,0.2,1.9,0.7c0.5,0.6,0.7,1.3,0.7,2L105.6,31.2z M106,18.2c-0.5,0-1-0.2-1.4-0.5c-0.4-0.4-0.6-0.8-0.6-1.4
			c0-0.4,0.1-0.8,0.3-1.1c0.2-0.3,0.5-0.5,0.8-0.7c0.4-0.2,0.9-0.3,1.3-0.3c0.5,0,1-0.1,1.6-0.1V14c0-0.2,0-0.4-0.1-0.6
			c-0.1-0.2-0.2-0.3-0.3-0.4c-0.2-0.1-0.3-0.2-0.5-0.2c-0.5-0.1-1-0.1-1.5,0.1c-0.3,0.1-0.7,0.2-1,0.3v-1l0.9-0.2
			c0.4-0.1,0.7-0.1,1.1-0.1c0.4,0,0.7,0,1.1,0.1c0.3,0.1,0.6,0.2,0.8,0.4c0.2,0.2,0.4,0.4,0.5,0.6c0.1,0.3,0.2,0.7,0.2,1l-0.1,4h-1
			v-0.6l-0.4,0.2c-0.1,0.1-0.3,0.2-0.4,0.3c-0.2,0.1-0.4,0.2-0.6,0.2C106.5,18.2,106.2,18.3,106,18.2z M110.3,34.2
			c-0.2,0-0.4,0-0.6,0c-0.5,0-1-0.1-1.4-0.5c-0.4-0.4-0.5-1-0.5-1.6v-3.2h-0.7v-0.8h0.7v-1.7h1v1.7h2.1v0.8h-2.1v2.8
			c0,0.3,0,0.6,0,0.8c0,0.2,0.1,0.3,0.2,0.5c0.1,0.1,0.2,0.2,0.3,0.3c0.2,0.1,0.4,0.1,0.6,0.1c0.2,0,0.4,0,0.5-0.1
			c0.1,0,0.3-0.1,0.4-0.1h0.1l0,0.9C110.7,34.1,110.5,34.1,110.3,34.2z M113.8,34h-1v-6h1V34z M113.8,27h-1.1v-1h1.1V27z
			 M115.5,13.3c-0.1-0.2-0.2-0.3-0.4-0.3c-0.2-0.1-0.4-0.1-0.7-0.1c-0.3,0-0.6,0.1-0.9,0.2c-0.3,0.1-0.6,0.3-0.9,0.5v4.5h-1v-6h1
			v0.7c0.3-0.3,0.6-0.5,1-0.6c0.3-0.1,0.7-0.2,1-0.2c0.6,0,1.1,0.2,1.5,0.6c0.4,0.5,0.6,1.1,0.5,1.7l-0.1,3.9h-1v-3.4
			c0-0.3,0-0.5,0-0.8C115.7,13.7,115.6,13.5,115.5,13.3z M119.9,34.1c-0.3,0.1-0.7,0.1-1,0.1c-0.4,0-0.8-0.1-1.2-0.2
			c-0.4-0.1-0.7-0.3-0.9-0.6c-0.3-0.3-0.5-0.6-0.6-1c-0.2-0.4-0.2-0.9-0.2-1.4c0-0.8,0.2-1.7,0.8-2.3c0.6-0.6,1.3-0.9,2.1-0.8
			c0.3,0,0.7,0.1,1,0.1c0.3,0.1,0.6,0.2,0.9,0.4v1.1h-0.1c-0.3-0.2-0.6-0.4-1-0.5c-0.3-0.1-0.7-0.2-1-0.2c-0.5,0-1,0.2-1.4,0.6
			c-0.4,0.5-0.5,1.1-0.5,1.7c0,0.6,0.1,1.2,0.5,1.7c0.3,0.4,0.8,0.6,1.4,0.6c0.2,0,0.4,0,0.6-0.1c0.2,0,0.4-0.1,0.6-0.2
			c0.1-0.1,0.3-0.1,0.4-0.2c0.1-0.1,0.2-0.1,0.3-0.2h0.1l0.2,1.1C120.6,33.9,120.2,34,119.9,34.1z M126.4,33.7
			c-0.5,0.4-1.2,0.6-1.8,0.5c-0.4,0-0.8,0-1.2-0.2c-0.3-0.1-0.6-0.2-0.9-0.3v-1.1h0.1c0.3,0.2,0.7,0.4,1.1,0.6
			c0.4,0.1,0.7,0.2,1.1,0.2c0.3,0,0.7-0.1,1-0.2c0.2-0.1,0.4-0.4,0.4-0.7c0-0.2-0.1-0.4-0.2-0.5c-0.2-0.2-0.5-0.3-0.8-0.3l-0.6-0.1
			l-0.6-0.1c-0.4-0.1-0.8-0.3-1.1-0.6c-0.2-0.3-0.3-0.6-0.3-1c0-0.2,0-0.5,0.2-0.7c0.1-0.2,0.3-0.4,0.5-0.6c0.2-0.2,0.5-0.3,0.8-0.4
			c0.3-0.1,0.7-0.2,1-0.2c0.4,0,0.7,0,1.1,0.1c0.3,0.1,0.6,0.2,0.9,0.3v1.1h-0.1c-0.3-0.2-0.6-0.4-0.9-0.5c-0.3-0.1-0.7-0.2-1.1-0.2
			c-0.3,0-0.6,0.1-0.9,0.2c-0.4,0.2-0.5,0.7-0.3,1c0,0.1,0.1,0.1,0.1,0.2c0.2,0.2,0.5,0.3,0.7,0.3l0.6,0.1l0.6,0.1
			c0.4,0.1,0.8,0.3,1.1,0.6c0.3,0.3,0.5,0.7,0.5,1.1C127.1,32.9,126.9,33.4,126.4,33.7z"/>
	</g>
</g>
</svg>
