<?xml version="1.0" encoding="utf-8"?>
<!-- Generator: Adobe Illustrator 22.0.0, SVG Export Plug-In . SVG Version: 6.00 Build 0)  -->
<svg version="1.1" id="Ebene_1" xmlns="http://www.w3.org/2000/svg" xmlns:xlink="http://www.w3.org/1999/xlink" x="0px" y="0px"
	 viewBox="0 0 595.3 420.9" style="enable-background:new 0 0 595.3 420.9;" xml:space="preserve">
<style type="text/css">
	.st0{fill:#FFFFFF;}
	.st1{opacity:0.69;}
	.st2{opacity:0.55;}
	.st3{opacity:0.67;}
	.st4{opacity:0.47;}
	.st5{opacity:0.4;}
	.st6{opacity:0.59;}
	.st7{opacity:0.51;}
	.st8{opacity:0.8;}
</style>
<g>
	<g>
		<path class="st0" d="M175.8,306.3h-0.3c-1.3,0-2.2,0.4-3.2,0.9c-0.6,0.3-0.7,0.4-1.3,0.7c-0.3,0.2-0.4,0.4-0.4,0.7
			c0,0.1,0,0.3,0.1,0.4l0.1,0.1c0.2,0.3,0.4,0.4,0.6,0.4c0.2,0,0.3-0.1,0.5-0.1l1.1-0.7c0.7-0.5,1.5-0.7,2.4-0.7h0.3
			c1.5,0,2.7,1.2,2.7,2.7v1.3c0,0.3-0.2,0.6-0.5,0.6h-4c-2.3,0-4.2,1.8-4.2,4.1v0.4c0,2.3,1.9,4.1,4.2,4.1h0.6
			c1.3,0,2.3-0.6,2.8-0.9l1-0.6c0.1,0,0.1-0.1,0.2-0.1c0.1,0,0.2,0.1,0.2,0.2v0.2c0,0.4,0.3,0.7,0.7,0.7c0.4,0,0.7-0.3,0.7-0.7v-9.4
			C180.2,308.2,178.2,306.3,175.8,306.3 M178.1,318.1l-1.2,0.7c-0.8,0.4-1.4,0.7-2.3,0.7H174c-1.3,0-2.4-1.2-2.4-2.4v-0.4
			c0-1.3,1.1-2.4,2.4-2.4h4c0.3,0,0.5,0.2,0.5,0.5v2.7C178.5,317.7,178.5,317.9,178.1,318.1"/>
		<path class="st0" d="M190.4,306.3c-1.3,0-2.4,0.6-2.9,0.9l-0.9,0.5c-0.1,0.1-0.2,0.1-0.2,0.1c-0.2,0-0.2-0.1-0.2-0.2v-0.2
			c0-0.4-0.3-0.7-0.7-0.7c-0.4,0-0.7,0.3-0.7,0.7V320c0,0.4,0.3,0.8,0.8,0.8h0.2c0.4,0,0.8-0.4,0.8-0.8v-10c0-0.3,0-0.4,0.4-0.7
			c0.4-0.2,0.7-0.4,1.2-0.7c0.8-0.4,1.4-0.7,2.3-0.7c0.4,0,0.8-0.4,0.8-0.8V307C191.2,306.6,190.8,306.3,190.4,306.3"/>
		<path class="st0" d="M316.1,306.7l-0.1-0.1c-0.1,0-0.2,0-0.3,0c-0.4,0-0.6,0.2-0.7,0.5l-4,12.3c-0.1,0.2-0.1,0.4-0.4,0.4
			c-0.2,0-0.3-0.2-0.3-0.4l-4-12.3c-0.1-0.3-0.3-0.5-0.7-0.5c-0.1,0-0.2,0-0.3,0l-0.1,0.1c-0.3,0.1-0.5,0.4-0.5,0.7
			c0,0.1,0,0.2,0.1,0.3l3.8,11.4c0.3,0.8,0.7,1.6,1.6,1.6c0.2,0,0.4,0.1,0.4,0.3c0,0,0,0.1,0,0.2l-0.4,1.1c-0.4,1.1-1.3,1.8-2.5,1.8
			h-1.8c-0.4,0-0.8,0.3-0.8,0.8v0.1c0,0.4,0.3,0.8,0.8,0.8h1.8c2.2,0,3.7-1.6,4.4-3.5l4.8-14.7c0-0.1,0.1-0.2,0.1-0.3
			C316.6,307.1,316.5,306.8,316.1,306.7"/>
		<path class="st0" d="M166.7,319.3h-0.2c-1.5,0-2.7-1.2-2.7-2.7v-15c0-0.4-0.3-0.8-0.8-0.8h-0.2c-0.4,0-0.8,0.3-0.8,0.8v14.9
			c0,2.5,2,4.4,4.5,4.4h0.2c0.4,0,0.8-0.3,0.8-0.8v-0.1C167.4,319.6,167.1,319.3,166.7,319.3"/>
		<path class="st0" d="M90.4,302.2h-0.5c-0.4,0-0.7,0.2-1,0.5l-4.7,7.5c-0.4,0.7-0.4,0.9-0.7,0.9c-0.3,0-0.2-0.2-0.7-0.9l-4.7-7.5
			c-0.2-0.3-0.5-0.5-1-0.5h-0.5c-0.4,0-0.8,0.3-0.8,0.8v17c0,0.4,0.3,0.8,0.8,0.8h0.2c0.4,0,0.8-0.4,0.8-0.8v-12.6
			c0-1-0.1-1.3-0.1-1.6c0-0.3,0.1-0.4,0.2-0.4c0.3,0,0.4,0.5,1.1,1.7l2.8,4.5c0.4,0.5,0.8,1,1.4,1h0.8c0.6,0,1-0.5,1.4-1l2.8-4.5
			c0.7-1.2,0.8-1.7,1.1-1.7c0.2,0,0.2,0.1,0.2,0.4c0,0.2-0.1,0.5-0.1,1.6V320c0,0.4,0.3,0.8,0.8,0.8h0.2c0.4,0,0.8-0.4,0.8-0.8v-17
			C91.2,302.6,90.8,302.2,90.4,302.2"/>
		<path class="st0" d="M114.9,319.3h-0.2c-1.5,0-2.7-1.2-2.7-2.7v-15c0-0.4-0.3-0.8-0.8-0.8H111c-0.4,0-0.8,0.3-0.8,0.8v14.9
			c0,2.5,2,4.4,4.5,4.4h0.2c0.4,0,0.8-0.3,0.8-0.8v-0.1C115.7,319.6,115.3,319.3,114.9,319.3"/>
		<path class="st0" d="M123.4,306.3c-2.6,0-4.8,1.7-5.5,4.2c-0.1,0.5-0.2,1.1-0.2,2.7v1.2c0,1.6,0.1,2.2,0.2,2.7
			c0.6,2.4,2.9,4.2,5.5,4.2c1.3,0,2.2-0.4,3.2-0.9c0.6-0.3,0.9-0.5,1.4-0.8c0.3-0.2,0.4-0.4,0.4-0.7c0-0.1,0-0.3-0.1-0.4l-0.1-0.1
			c-0.2-0.3-0.4-0.4-0.6-0.4c-0.2,0-0.3,0.1-0.5,0.1l-1.3,0.8c-0.8,0.5-1.5,0.8-2.4,0.8c-2.1,0-3.9-1.7-3.9-3.9v-0.9
			c0-0.3,0.2-0.5,0.5-0.5h8.5c0.3,0,0.5-0.2,0.5-0.5v-1.7C129.1,308.8,126.6,306.3,123.4,306.3 M127.3,311.9c0,0.3-0.2,0.5-0.5,0.5
			h-6.7c-0.3,0-0.5-0.2-0.5-0.5v-0.1c0-2.1,1.7-3.9,3.9-3.9c2.1,0,3.9,1.7,3.9,3.9V311.9z"/>
		<path class="st0" d="M134.2,310.9c0.4-1.7,1.9-3,3.8-3c0.9,0,1.7,0.3,2.4,0.7l1.1,0.7c0.1,0.1,0.3,0.1,0.5,0.1
			c0.2,0,0.5-0.1,0.6-0.4l0.1-0.1c0.1-0.1,0.1-0.3,0.1-0.4c0-0.3-0.1-0.5-0.4-0.7c-0.5-0.3-0.7-0.4-1.3-0.7
			c-0.9-0.5-1.9-0.9-3.2-0.9c-2.6,0-4.8,1.7-5.5,4.2c-0.1,0.5-0.2,1.1-0.2,2.7v1.2c0,1.6,0.1,2.2,0.2,2.7c0.6,2.4,2.9,4.2,5.5,4.2
			c1.3,0,2.2-0.4,3.2-0.9c0.5-0.3,0.7-0.4,1.3-0.7c0.3-0.2,0.4-0.4,0.4-0.7c0-0.1,0-0.3-0.1-0.4l-0.1-0.1c-0.2-0.3-0.4-0.4-0.6-0.4
			c-0.2,0-0.3,0.1-0.5,0.1l-1.1,0.7c-0.8,0.5-1.5,0.8-2.4,0.8c-1.8,0-3.3-1.3-3.8-3c-0.1-0.3-0.1-0.7-0.1-2.1V313
			C134.1,311.6,134.1,311.2,134.2,310.9"/>
		<path class="st0" d="M300.6,306.6c-0.4,0-0.7,0.3-0.7,0.7v0.2c0,0.2-0.1,0.2-0.2,0.2c0,0-0.1,0-0.2-0.1l-0.9-0.5
			c-0.5-0.3-1.6-0.9-2.9-0.9c-2.6,0-4.8,1.7-5.5,4.2c-0.1,0.5-0.2,1.1-0.2,2.7v1.2c0,1.6,0.1,2.2,0.2,2.6c0.6,2.4,2.9,4.2,5.5,4.2
			c1.2,0,2-0.4,2.8-0.8l0.7-0.4c0.1,0,0.1-0.1,0.2-0.1c0.1,0,0.2,0.1,0.2,0.3v1.4c0,1.5-1.2,2.7-2.7,2.7h-2.6
			c-0.4,0-0.8,0.4-0.8,0.8v0.1c0,0.4,0.4,0.8,0.8,0.8h2.6c2.5,0,4.5-2,4.5-4.4v-14.1C301.3,306.9,301,306.6,300.6,306.6 M299.1,318
			c-0.4,0.2-0.7,0.4-1.2,0.7c-0.8,0.4-1.4,0.7-2.3,0.7c-1.8,0-3.3-1.3-3.8-3c-0.1-0.3-0.1-0.7-0.1-2.1V313c0-1.4,0.1-1.8,0.1-2.1
			c0.4-1.7,1.9-3,3.8-3c0.9,0,1.5,0.3,2.3,0.7c0.5,0.3,0.8,0.4,1.2,0.7c0.4,0.2,0.4,0.4,0.4,0.7v7.4
			C299.5,317.7,299.5,317.8,299.1,318"/>
		<path class="st0" d="M100.8,306.3c-2.6,0-4.8,1.7-5.5,4.2c-0.1,0.5-0.2,1.1-0.2,2.7v1.2c0,1.6,0.1,2.2,0.2,2.7
			c0.6,2.4,2.9,4.2,5.5,4.2c2.6,0,4.8-1.7,5.5-4.2c0.1-0.5,0.2-1.1,0.2-2.7v-1.2c0-1.6-0.1-2.2-0.2-2.7
			C105.6,308,103.3,306.3,100.8,306.3 M104.7,314.3c0,1.4-0.1,1.8-0.1,2.1c-0.4,1.7-1.9,3-3.8,3c-1.8,0-3.3-1.3-3.8-3
			c-0.1-0.3-0.1-0.7-0.1-2.1V313c0-1.4,0.1-1.8,0.1-2.1c0.4-1.7,1.9-3,3.8-3c1.9,0,3.4,1.3,3.8,3c0.1,0.3,0.1,0.7,0.1,2.1V314.3z"/>
		<path class="st0" d="M156.7,306.6h-0.2c-0.4,0-0.8,0.4-0.8,0.8v10c0,0.3,0,0.4-0.4,0.7l-1.2,0.7c-0.7,0.4-1.4,0.7-2.2,0.7
			c-1.7,0-3.2-0.9-3.6-2.9c-0.1-0.3-0.1-0.7-0.1-2.1v-7.1c0-0.4-0.3-0.8-0.8-0.8h-0.2c-0.4,0-0.8,0.3-0.8,0.8v7
			c0,1.5,0.1,2.2,0.2,2.7c0.6,2.4,2.6,4,5.2,4c1.2,0,2.4-0.6,2.9-0.9l0.9-0.5c0.1-0.1,0.2-0.1,0.2-0.1c0.2,0,0.2,0.1,0.2,0.2v0.2
			c0,0.4,0.3,0.7,0.7,0.7c0.4,0,0.7-0.3,0.7-0.7v-12.6C157.4,307,157.1,306.6,156.7,306.6"/>
		<path class="st0" d="M272.3,319.3h-0.2c-1.5,0-2.7-1.2-2.7-2.7v-15c0-0.4-0.3-0.8-0.8-0.8h-0.2c-0.4,0-0.8,0.3-0.8,0.8v14.9
			c0,2.5,2,4.4,4.5,4.4h0.2c0.4,0,0.8-0.3,0.8-0.8v-0.1C273.1,319.6,272.8,319.3,272.3,319.3"/>
		<path class="st0" d="M219.7,306.3h-0.3c-1.3,0-2.2,0.4-3.2,0.9c-0.6,0.3-0.7,0.4-1.3,0.7c-0.3,0.2-0.4,0.4-0.4,0.7
			c0,0.1,0,0.3,0.1,0.4l0.1,0.1c0.2,0.3,0.4,0.4,0.6,0.4c0.2,0,0.3-0.1,0.5-0.1l1.1-0.7c0.7-0.5,1.5-0.7,2.4-0.7h0.3
			c1.5,0,2.7,1.2,2.7,2.7v1.3c0,0.3-0.2,0.6-0.5,0.6h-4c-2.3,0-4.2,1.8-4.2,4.1v0.4c0,2.3,1.9,4.1,4.2,4.1h0.6
			c1.3,0,2.3-0.6,2.8-0.9l1-0.6c0.1,0,0.1-0.1,0.2-0.1c0.1,0,0.2,0.1,0.2,0.2v0.2c0,0.4,0.3,0.7,0.7,0.7c0.4,0,0.7-0.3,0.7-0.7v-9.4
			C224.1,308.2,222.1,306.3,219.7,306.3 M222,318.1l-1.2,0.7c-0.8,0.4-1.4,0.7-2.3,0.7h-0.6c-1.3,0-2.4-1.2-2.4-2.4v-0.4
			c0-1.3,1.1-2.4,2.4-2.4h4c0.3,0,0.5,0.2,0.5,0.5v2.7C222.4,317.7,222.4,317.9,222,318.1"/>
		<path class="st0" d="M243,306.3c-1.2,0-2,0.4-2.8,0.8l-0.7,0.4c-0.1,0-0.1,0.1-0.2,0.1c-0.1,0-0.2-0.1-0.2-0.3v-5.6
			c0-0.4-0.3-0.8-0.8-0.8h-0.2c-0.4,0-0.8,0.3-0.8,0.8V320c0,0.4,0.3,0.8,0.8,0.8h0.2c0.4,0,0.8-0.3,0.8-0.8v-10
			c0-0.3,0-0.4,0.4-0.7c0.4-0.2,0.7-0.4,1.2-0.7c0.8-0.4,1.4-0.7,2.3-0.7c1.9,0,3.3,1.3,3.8,3c0.1,0.3,0.1,0.7,0.1,2.1v7
			c0,0.4,0.3,0.8,0.8,0.8h0.2c0.4,0,0.8-0.3,0.8-0.8v-6.9c0-1.6-0.1-2.2-0.2-2.7C247.8,308,245.6,306.3,243,306.3"/>
		<path class="st0" d="M258.1,306.3c-2.6,0-4.8,1.7-5.5,4.2c-0.1,0.5-0.2,1.1-0.2,2.7v1.2c0,1.6,0.1,2.2,0.2,2.7
			c0.6,2.4,2.9,4.2,5.5,4.2c2.6,0,4.8-1.7,5.5-4.2c0.1-0.5,0.2-1.1,0.2-2.7v-1.2c0-1.6-0.1-2.2-0.2-2.7
			C263,308,260.7,306.3,258.1,306.3 M262,314.3c0,1.4-0.1,1.8-0.1,2.1c-0.4,1.7-1.9,3-3.8,3c-1.9,0-3.4-1.3-3.8-3
			c-0.1-0.3-0.1-0.7-0.1-2.1V313c0-1.4,0.1-1.8,0.1-2.1c0.4-1.7,1.9-3,3.8-3c1.8,0,3.3,1.3,3.8,3c0.1,0.3,0.1,0.7,0.1,2.1V314.3z"/>
		<path class="st0" d="M233.2,306.6h-2.4c-0.3,0-0.5-0.2-0.5-0.5v-2.8c0-0.3-0.2-0.5-0.5-0.5c-0.3,0-0.5,0.2-0.6,0.5l-0.8,3
			c-0.1,0.2-0.2,0.4-0.5,0.4c-0.4,0-0.8,0.3-0.8,0.8v0.1c0,0.4,0.3,0.8,0.8,0.8c0.3,0,0.5,0.2,0.5,0.5v7.7c0,2.5,2,4.4,4.4,4.4h0.3
			c0.4,0,0.8-0.3,0.8-0.8v-0.1c0-0.4-0.3-0.8-0.8-0.8h-0.3c-1.5,0-2.7-1.2-2.7-2.7v-7.8c0-0.3,0.2-0.5,0.5-0.5h2.4
			c0.4,0,0.8-0.3,0.8-0.8v-0.1C234,306.9,233.6,306.6,233.2,306.6"/>
		<path class="st0" d="M205.7,302.2h-6.2c-0.3,0-0.5,0.2-0.5,0.5V320c0,0.4,0.4,0.8,0.8,0.8h0.2c0.4,0,0.8-0.4,0.8-0.8v-5
			c0-0.4,0.4-0.8,0.8-0.8h4.2c3.3,0,6-2.7,6-5.9C211.8,304.9,209.1,302.2,205.7,302.2 M210,308.2c0,2.3-1.9,4.2-4.3,4.2h-4.2
			c-0.4,0-0.8-0.3-0.8-0.8v-7c0-0.4,0.4-0.8,0.8-0.8h4.2c2.3,0,4.3,1.9,4.3,4.3V308.2z"/>
		<path class="st0" d="M280.9,306.3c-2.6,0-4.8,1.7-5.5,4.2c-0.1,0.5-0.2,1.1-0.2,2.7v1.2c0,1.6,0.1,2.2,0.2,2.7
			c0.6,2.4,2.9,4.2,5.5,4.2c2.6,0,4.8-1.7,5.5-4.2c0.1-0.5,0.2-1.1,0.2-2.7v-1.2c0-1.6-0.1-2.2-0.2-2.7
			C285.7,308,283.5,306.3,280.9,306.3 M284.8,314.3c0,1.4-0.1,1.8-0.1,2.1c-0.4,1.7-1.9,3-3.8,3c-1.8,0-3.4-1.3-3.8-3
			c-0.1-0.3-0.1-0.7-0.1-2.1V313c0-1.4,0.1-1.8,0.1-2.1c0.4-1.7,1.9-3,3.8-3c1.8,0,3.4,1.3,3.8,3c0.1,0.3,0.1,0.7,0.1,2.1V314.3z"/>
		<path class="st0" d="M216,284.1c0.3,0.1,0.7,0.3,1.3,0.4l2.1,0.5c0.6,0.1,1,0.2,1.3,0.4c0.9,0.4,1.3,1.1,1.3,2.1
			c0,1.8-1.5,2.3-3,2.3c-0.4,0-1,0-2.1-0.3l-1.6-0.3c-0.2-0.1-0.4-0.1-0.5-0.1c-0.4,0-0.6,0.2-0.7,0.6c-0.1,0.2-0.1,0.3-0.1,0.4
			c0,0.3,0.2,0.6,0.6,0.7c0.5,0.1,0.9,0.2,1.3,0.3c0.2,0.1,0.4,0.1,0.6,0.1c0.8,0.2,1.7,0.2,2.4,0.2c2.4,0,4.7-1.3,4.7-4
			c0-1.6-0.9-3.1-2.4-3.7c-0.3-0.1-0.7-0.3-1.7-0.5l-1.8-0.4c-0.8-0.2-1-0.3-1.2-0.4c-0.7-0.4-1.3-1.1-1.3-2c0-1.3,1-2.3,2.9-2.3
			c0.5,0,1.2,0.1,3.1,0.5c0.2,0.1,0.4,0.1,0.5,0.1c0.4,0,0.6-0.2,0.7-0.6c0.1-0.2,0.1-0.3,0.1-0.4c0-0.3-0.2-0.6-0.6-0.7
			c-0.5-0.1-0.8-0.2-1-0.2l-0.4-0.1c-0.8-0.2-1.7-0.2-2.4-0.2c-2.9,0-4.7,1.7-4.7,3.9C213.7,282.1,214.5,283.4,216,284.1"/>
		<path class="st0" d="M242.4,278.6c0.3,0,0.5,0.2,0.5,0.5v7.7c0,2.5,2,4.4,4.4,4.4h0.3c0.4,0,0.8-0.3,0.8-0.8v-0.1
			c0-0.4-0.3-0.8-0.8-0.8h-0.3c-1.5,0-2.7-1.2-2.7-2.7v-7.8c0-0.3,0.2-0.5,0.5-0.5h2.4c0.4,0,0.8-0.3,0.8-0.8v-0.1
			c0-0.4-0.3-0.8-0.8-0.8h-2.4c-0.3,0-0.5-0.2-0.5-0.5v-2.8c0-0.3-0.2-0.5-0.5-0.5c-0.3,0-0.5,0.2-0.6,0.5l-0.8,3
			c-0.1,0.2-0.2,0.4-0.5,0.4c-0.4,0-0.8,0.3-0.8,0.8v0.1C241.6,278.2,242,278.6,242.4,278.6"/>
		<path class="st0" d="M149.7,291.1h0.2c0.4,0,0.8-0.4,0.8-0.8v-10c0-0.3,0-0.4,0.4-0.7c0.4-0.2,0.7-0.4,1.2-0.7
			c0.8-0.4,1.4-0.7,2.3-0.7c0.4,0,0.8-0.3,0.8-0.8v-0.1c0-0.4-0.3-0.8-0.8-0.8c-1.3,0-2.4,0.6-2.9,0.9l-0.9,0.5
			c-0.1,0.1-0.2,0.1-0.2,0.1c-0.2,0-0.2-0.1-0.2-0.2v-0.2c0-0.4-0.3-0.7-0.7-0.7c-0.4,0-0.7,0.3-0.7,0.7v12.6
			C149,290.7,149.3,291.1,149.7,291.1"/>
		<path class="st0" d="M76.6,291.1h0.2c0.4,0,0.8-0.3,0.8-0.8v-5.1c0-0.4,0.4-0.8,0.8-0.8h3.2c0.3,0,0.5,0.1,0.7,0.4l4.2,5.8
			c0.2,0.3,0.4,0.4,0.7,0.4h0.1c0.4,0,0.8-0.3,0.8-0.8c0-0.2-0.1-0.3-0.2-0.5l-3.6-5c-0.1-0.1-0.1-0.2-0.1-0.3
			c0-0.1,0.1-0.2,0.3-0.3l0.3-0.1c2.3-0.9,3.9-3,3.9-5.6c0-3.3-2.7-6-6-6h-6.2c-0.3,0-0.5,0.2-0.5,0.5v17.3
			C75.8,290.7,76.2,291.1,76.6,291.1 M77.6,275c0-0.4,0.4-0.8,0.8-0.8h4.2c2.3,0,4.3,1.9,4.3,4.3v0.1c0,2.3-1.9,4.2-4.3,4.2h-4.2
			c-0.4,0-0.8-0.3-0.8-0.8V275z"/>
		<path class="st0" d="M100.5,290.5c0.6-0.3,0.9-0.5,1.4-0.8c0.3-0.2,0.4-0.4,0.4-0.7c0-0.1,0-0.3-0.1-0.4l-0.1-0.1
			c-0.2-0.3-0.4-0.4-0.6-0.4c-0.2,0-0.3,0.1-0.5,0.1l-1.3,0.8c-0.7,0.5-1.5,0.7-2.4,0.7c-2.1,0-3.9-1.7-3.9-3.9V285
			c0-0.3,0.2-0.5,0.5-0.5h8.5c0.3,0,0.5-0.2,0.5-0.5v-1.7c0-3.1-2.5-5.6-5.7-5.6c-2.6,0-4.8,1.7-5.5,4.2c-0.1,0.5-0.2,1.1-0.2,2.7
			v1.2c0,1.6,0.1,2.2,0.2,2.7c0.6,2.4,2.9,4.2,5.5,4.2C98.7,291.4,99.6,291,100.5,290.5 M93.5,282.1c0-2.1,1.7-3.9,3.9-3.9
			c2.1,0,3.9,1.7,3.9,3.9v0.1c0,0.3-0.2,0.5-0.5,0.5H94c-0.3,0-0.5-0.2-0.5-0.5V282.1z"/>
		<path class="st0" d="M315.9,276.9h-3.5c-0.3,0-0.5-0.2-0.5-0.5v-0.9c0-1.5,1.2-2.7,2.7-2.7h0.2c0.4,0,0.8-0.3,0.8-0.8v-0.1
			c0-0.4-0.3-0.8-0.8-0.8h-0.2c-2.5,0-4.4,1.9-4.4,4.4v0.8c0,0.3-0.2,0.5-0.5,0.5H309c-0.4,0-0.8,0.3-0.8,0.8v0.1
			c0,0.4,0.3,0.8,0.8,0.8h0.5c0.3,0,0.5,0.2,0.5,0.5v11.2c0,0.4,0.4,0.8,0.8,0.8h0.2c0.4,0,0.8-0.3,0.8-0.8v-11.2
			c0-0.3,0.2-0.5,0.5-0.5h3.5c0.4,0,0.8-0.3,0.8-0.8v-0.1C316.6,277.3,316.3,276.9,315.9,276.9"/>
		<path class="st0" d="M113.8,283.7c-0.3-0.1-0.7-0.3-1.7-0.5l-1.8-0.4c-0.7-0.2-1-0.3-1.2-0.4c-0.8-0.4-1.3-1.1-1.3-2
			c0-1.3,1-2.3,2.9-2.3c0.5,0,1.2,0.1,3.1,0.5c0.2,0.1,0.4,0.1,0.5,0.1c0.4,0,0.6-0.2,0.7-0.6c0.1-0.2,0.1-0.3,0.1-0.4
			c0-0.4-0.2-0.6-0.6-0.7c-0.5-0.1-0.8-0.2-1-0.2l-0.4-0.1c-0.8-0.2-1.7-0.2-2.4-0.2c-2.9,0-4.7,1.7-4.7,3.9c0,1.6,0.8,2.9,2.3,3.6
			c0.3,0.1,0.7,0.3,1.3,0.4l2.1,0.5c0.6,0.1,1,0.2,1.3,0.4c0.9,0.4,1.3,1.1,1.3,2.1c0,1.8-1.5,2.3-3,2.3c-0.4,0-1,0-2.1-0.3
			l-1.6-0.3c-0.2-0.1-0.4-0.1-0.5-0.1c-0.4,0-0.6,0.2-0.7,0.6c-0.1,0.2-0.1,0.3-0.1,0.4c0,0.4,0.2,0.6,0.6,0.7
			c0.5,0.1,0.9,0.2,1.3,0.3c0.2,0.1,0.4,0.1,0.6,0.1c0.8,0.2,1.7,0.2,2.4,0.2c2.4,0,4.7-1.3,4.7-4
			C116.2,285.7,115.3,284.3,113.8,283.7"/>
		<path class="st0" d="M238.2,290.3v-12.6c0-0.4-0.3-0.8-0.8-0.8h-0.2c-0.4,0-0.8,0.3-0.8,0.8v12.6c0,0.4,0.3,0.8,0.8,0.8h0.2
			C237.8,291.1,238.2,290.7,238.2,290.3"/>
		<path class="st0" d="M237.4,273.9c0.8,0,1.4-0.6,1.4-1.4v-0.2c0-0.8-0.6-1.4-1.4-1.4h-0.2c-0.8,0-1.4,0.6-1.4,1.4v0.2
			c0,0.8,0.6,1.4,1.4,1.4H237.4z"/>
		<path class="st0" d="M227.6,279.1v7.7c0,2.5,2,4.4,4.4,4.4h0.3c0.4,0,0.8-0.3,0.8-0.8v-0.1c0-0.4-0.3-0.8-0.8-0.8H232
			c-1.5,0-2.7-1.2-2.7-2.7v-7.8c0-0.3,0.2-0.5,0.5-0.5h2.4c0.4,0,0.8-0.3,0.8-0.8v-0.1c0-0.4-0.3-0.8-0.8-0.8h-2.4
			c-0.3,0-0.5-0.2-0.5-0.5v-2.8c0-0.3-0.2-0.5-0.5-0.5c-0.3,0-0.5,0.2-0.6,0.5l-0.8,3c-0.1,0.2-0.2,0.4-0.5,0.4
			c-0.4,0-0.8,0.3-0.8,0.8v0.1c0,0.4,0.3,0.8,0.8,0.8C227.3,278.6,227.6,278.8,227.6,279.1"/>
		<path class="st0" d="M257.1,291.4c1.2,0,2.4-0.6,2.9-0.9l0.9-0.5c0.1-0.1,0.2-0.1,0.2-0.1c0.2,0,0.2,0.1,0.2,0.2v0.2
			c0,0.4,0.3,0.7,0.7,0.7c0.4,0,0.7-0.3,0.7-0.7v-12.6c0-0.4-0.3-0.8-0.8-0.8h-0.2c-0.4,0-0.8,0.4-0.8,0.8v10c0,0.3,0,0.4-0.4,0.7
			l-1.2,0.7c-0.8,0.4-1.4,0.7-2.2,0.7c-1.7,0-3.2-0.9-3.6-2.9c-0.1-0.3-0.1-0.7-0.1-2.1v-7.1c0-0.4-0.3-0.8-0.8-0.8h-0.2
			c-0.4,0-0.8,0.3-0.8,0.8v7c0,1.5,0.1,2.2,0.2,2.7C252.4,289.8,254.5,291.4,257.1,291.4"/>
		<path class="st0" d="M271.9,291.3h0.3c0.4,0,0.8-0.3,0.8-0.8v-0.1c0-0.4-0.3-0.8-0.8-0.8h-0.3c-1.5,0-2.7-1.2-2.7-2.7v-7.8
			c0-0.3,0.2-0.5,0.5-0.5h2.4c0.4,0,0.8-0.3,0.8-0.8v-0.1c0-0.4-0.3-0.8-0.8-0.8h-2.4c-0.3,0-0.5-0.2-0.5-0.5v-2.8
			c0-0.3-0.2-0.5-0.5-0.5c-0.3,0-0.5,0.2-0.6,0.5l-0.8,3c-0.1,0.2-0.2,0.4-0.5,0.4c-0.4,0-0.8,0.3-0.8,0.8v0.1
			c0,0.4,0.3,0.8,0.8,0.8c0.3,0,0.5,0.2,0.5,0.5v7.7C267.5,289.3,269.5,291.3,271.9,291.3"/>
		<path class="st0" d="M280.8,291.4c1.3,0,2.2-0.4,3.2-0.9c0.6-0.3,0.9-0.5,1.4-0.8c0.3-0.2,0.4-0.4,0.4-0.7c0-0.1,0-0.3-0.1-0.4
			l-0.1-0.1c-0.2-0.3-0.4-0.4-0.6-0.4c-0.2,0-0.3,0.1-0.5,0.1l-1.3,0.8c-0.8,0.5-1.5,0.8-2.4,0.8c-2.1,0-3.9-1.7-3.9-3.9V285
			c0-0.3,0.2-0.5,0.5-0.5h8.5c0.3,0,0.5-0.2,0.5-0.5v-1.7c0-3.1-2.5-5.6-5.7-5.6c-2.6,0-4.8,1.7-5.5,4.2c-0.1,0.5-0.2,1.1-0.2,2.7
			v1.2c0,1.6,0.1,2.2,0.2,2.7C276,289.7,278.3,291.4,280.8,291.4 M277,282.1c0-2.1,1.7-3.9,3.9-3.9c2.1,0,3.9,1.7,3.9,3.9v0.1
			c0,0.3-0.2,0.5-0.5,0.5h-6.7c-0.3,0-0.5-0.2-0.5-0.5V282.1z"/>
		<path class="st0" d="M305.9,284.6v-1.2c0-1.6-0.1-2.2-0.2-2.7c-0.6-2.4-2.9-4.2-5.5-4.2c-2.6,0-4.8,1.7-5.5,4.2
			c-0.1,0.5-0.2,1.1-0.2,2.7v1.2c0,1.6,0.1,2.2,0.2,2.7c0.6,2.4,2.9,4.2,5.5,4.2c2.6,0,4.8-1.7,5.5-4.2
			C305.8,286.8,305.9,286.2,305.9,284.6 M304.1,284.7c0,1.4-0.1,1.8-0.1,2.1c-0.4,1.7-1.9,3-3.8,3c-1.8,0-3.3-1.3-3.8-3
			c-0.1-0.3-0.1-0.7-0.1-2.1v-1.3c0-1.4,0.1-1.8,0.1-2.1c0.4-1.7,1.9-3,3.8-3c1.8,0,3.3,1.3,3.8,3c0.1,0.3,0.1,0.7,0.1,2.1V284.7z"
			/>
		<path class="st0" d="M199.6,291.1h0.2c0.4,0,0.8-0.4,0.8-0.8v-10c0-0.3,0-0.4,0.4-0.7c0.4-0.2,0.7-0.4,1.2-0.7
			c0.8-0.4,1.4-0.7,2.3-0.7c1.9,0,3.3,1.3,3.8,3c0.1,0.3,0.1,0.7,0.1,2.1v7c0,0.4,0.3,0.8,0.8,0.8h0.2c0.4,0,0.8-0.3,0.8-0.8v-6.9
			c0-1.6-0.1-2.2-0.2-2.7c-0.6-2.4-2.9-4.2-5.5-4.2c-1.3,0-2.4,0.6-2.9,0.9l-0.9,0.5c-0.1,0.1-0.2,0.1-0.2,0.1
			c-0.2,0-0.2-0.1-0.2-0.2v-0.2c0-0.4-0.3-0.7-0.7-0.7c-0.4,0-0.7,0.3-0.7,0.7v12.6C198.8,290.7,199.2,291.1,199.6,291.1"/>
		<path class="st0" d="M125.1,276.6c-2.6,0-4.8,1.7-5.5,4.2c-0.1,0.5-0.2,1.1-0.2,2.7v1.2c0,1.6,0.1,2.2,0.2,2.7
			c0.6,2.4,2.9,4.2,5.5,4.2c1.3,0,2.2-0.4,3.2-0.9c0.6-0.3,0.9-0.5,1.4-0.8c0.3-0.2,0.4-0.4,0.4-0.7c0-0.1,0-0.3-0.1-0.4l-0.1-0.1
			c-0.2-0.3-0.4-0.4-0.6-0.4c-0.2,0-0.3,0.1-0.5,0.1l-1.3,0.8c-0.8,0.5-1.5,0.8-2.4,0.8c-2.1,0-3.9-1.7-3.9-3.9V285
			c0-0.3,0.2-0.5,0.5-0.5h8.5c0.3,0,0.5-0.2,0.5-0.5v-1.7C130.7,279.1,128.2,276.6,125.1,276.6 M129,282.3c0,0.3-0.2,0.5-0.5,0.5
			h-6.7c-0.3,0-0.5-0.2-0.5-0.5v-0.1c0-2.1,1.7-3.9,3.9-3.9c2.1,0,3.9,1.7,3.9,3.9V282.3z"/>
		<path class="st0" d="M140.1,276.6h-0.3c-1.3,0-2.2,0.4-3.2,0.9c-0.6,0.3-0.7,0.4-1.3,0.7c-0.3,0.2-0.4,0.4-0.4,0.7
			c0,0.1,0,0.3,0.1,0.4l0.1,0.1c0.2,0.3,0.4,0.4,0.6,0.4c0.2,0,0.3-0.1,0.5-0.1l1.1-0.7c0.7-0.5,1.5-0.8,2.4-0.8h0.3
			c1.5,0,2.7,1.2,2.7,2.7v1.3c0,0.3-0.2,0.6-0.5,0.6h-4c-2.3,0-4.2,1.8-4.2,4.1v0.4c0,2.3,1.9,4.1,4.2,4.1h0.6
			c1.3,0,2.3-0.6,2.8-0.9l1-0.6c0.1,0,0.1-0.1,0.2-0.1c0.1,0,0.2,0.1,0.2,0.2v0.2c0,0.4,0.3,0.7,0.7,0.7c0.4,0,0.7-0.3,0.7-0.7V281
			C144.5,278.5,142.6,276.6,140.1,276.6 M142.4,288.4l-1.2,0.7c-0.8,0.4-1.4,0.7-2.3,0.7h-0.6c-1.3,0-2.4-1.2-2.4-2.4v-0.4
			c0-1.3,1.1-2.4,2.4-2.4h4c0.3,0,0.5,0.2,0.5,0.5v2.7C142.8,288,142.8,288.2,142.4,288.4"/>
		<path class="st0" d="M176.9,276.6c-1.2,0-2,0.4-2.8,0.8l-0.7,0.4c-0.1,0-0.1,0.1-0.2,0.1c-0.1,0-0.2-0.1-0.2-0.3v-5.6
			c0-0.4-0.3-0.8-0.8-0.8H172c-0.4,0-0.8,0.3-0.8,0.8v18.4c0,0.4,0.3,0.8,0.8,0.8h0.2c0.4,0,0.8-0.3,0.8-0.8v-10
			c0-0.3,0-0.4,0.4-0.7c0.4-0.2,0.7-0.4,1.2-0.7c0.8-0.4,1.4-0.7,2.3-0.7c1.8,0,3.4,1.3,3.8,3c0.1,0.3,0.1,0.7,0.1,2.1v7
			c0,0.4,0.3,0.8,0.8,0.8h0.2c0.4,0,0.8-0.3,0.8-0.8v-6.9c0-1.6-0.1-2.2-0.2-2.7C181.7,278.3,179.4,276.6,176.9,276.6"/>
		<path class="st0" d="M193.4,272.5h-0.2c-0.4,0-0.8,0.3-0.8,0.8v17c0,0.4,0.3,0.8,0.8,0.8h0.2c0.4,0,0.8-0.3,0.8-0.8v-17
			C194.2,272.9,193.9,272.5,193.4,272.5"/>
		<path class="st0" d="M159.1,281.2c0.4-1.7,1.9-3,3.8-3c0.9,0,1.7,0.3,2.4,0.8l1.1,0.7c0.1,0.1,0.3,0.1,0.5,0.1
			c0.2,0,0.5-0.1,0.6-0.4l0.1-0.1c0.1-0.1,0.1-0.3,0.1-0.4c0-0.3-0.1-0.5-0.4-0.7c-0.5-0.3-0.7-0.4-1.3-0.7
			c-0.9-0.5-1.8-0.9-3.2-0.9c-2.6,0-4.8,1.7-5.5,4.2c-0.1,0.5-0.2,1.1-0.2,2.7v1.2c0,1.6,0.1,2.2,0.2,2.7c0.6,2.4,2.9,4.2,5.5,4.2
			c1.3,0,2.2-0.4,3.2-0.9c0.5-0.3,0.8-0.4,1.3-0.7c0.3-0.2,0.4-0.4,0.4-0.7c0-0.1,0-0.3-0.1-0.4l-0.1-0.1c-0.2-0.3-0.4-0.4-0.6-0.4
			c-0.2,0-0.3,0.1-0.5,0.1l-1.1,0.7c-0.8,0.5-1.5,0.7-2.4,0.7c-1.8,0-3.3-1.3-3.8-3c-0.1-0.3-0.1-0.7-0.1-2.1v-1.3
			C158.9,281.9,159,281.5,159.1,281.2"/>
		<path class="st0" d="M83.5,167.4c-4.2,0-7.7,3.5-7.7,7.7v70.5c0,4.2,3.5,7.7,7.7,7.7c4.2,0,7.7-3.5,7.7-7.7v-70.5
			C91.2,170.9,87.8,167.4,83.5,167.4"/>
		<path class="st0" d="M254.9,167.4h-26.2v0c-4.2,0-7.7,3.5-7.7,7.7v70.5c0,4.2,3.5,7.7,7.7,7.7c4.2,0,7.7-3.5,7.7-7.7v-18.7
			c0-1.1,1-2.2,2.1-2.2h16.4c16.1,0,28.3-12.5,28.3-29.1C283.2,179.3,271.3,167.4,254.9,167.4 M267.6,196.3
			c0,8.2-5.4,14.2-12.7,14.2h-16.4c-1,0-2.1-1-2.1-2.1v-24.9c0-1.2,1.1-1.9,2.1-1.9h16.4c7.7,0,12.7,5.1,12.7,13V196.3z"/>
		<path class="st0" d="M185.6,167.3c-3.7,0-6.8,2.5-9.6,6.6c-2.8,4.2-18.9,28.3-18.9,28.3s-0.3,0.5-1,0.5c-0.7,0-1-0.5-1-0.5
			s-16.1-24.2-18.9-28.3c-2.8-4.2-5.9-6.6-9.6-6.6c-4.8,0-8.6,3.9-8.6,8.6c0,0,0,0,0,0v69.6c0,4.2,3.5,7.7,7.7,7.7
			c4.2,0,7.7-3.5,7.7-7.7v-45.1c0-0.5,0.4-0.9,0.9-0.9c0.3,0,0.6,0.2,0.7,0.4v0v0c4.3,6.5,8.2,12.3,9,13.5c1.4,2.1,2.8,3.8,3.6,4.7
			c2.1,2.2,5.1,3.6,8.4,3.6c3.3,0,6.3-1.4,8.4-3.6c0.8-0.9,2.2-2.5,3.6-4.7c0.8-1.2,4.7-7,9-13.5v0v0c0.2-0.2,0.4-0.4,0.7-0.4
			c0.5,0,0.9,0.4,0.9,0.9v45.1c0,4.2,3.5,7.7,7.7,7.7c4.2,0,7.7-3.5,7.7-7.7V176c0,0,0,0,0,0C194.2,171.2,190.3,167.3,185.6,167.3"
			/>
		<g class="st1">
			<g>
				<path class="st0" d="M355,175.9c-0.8,0-1.6-0.1-2.4-0.2c-2.1-0.3-4-1-5.7-2c0.7,3.6,1.9,7.2,3.5,10.6c3.8,8,9.7,14.5,17.2,18.9
					c1.4,0.8,2.8,1.2,4.3,1.2c2.9,0,5.8-1.5,7.3-4.2c2.4-4,1-9.3-3-11.7c-5.9-3.5-10.1-9.1-12-15.6
					C361.6,174.9,358.4,175.9,355,175.9"/>
			</g>
		</g>
		<g class="st2">
			<g>
				<path class="st0" d="M363.4,161c0.7-4.6-2.5-9-7.2-9.7c-4.6-0.7-9,2.5-9.7,7.2c-0.8,5.1-0.6,10.3,0.4,15.3c1.7,1,3.6,1.7,5.7,2
					c0.8,0.1,1.6,0.2,2.4,0.2c3.4,0,6.6-1.1,9.3-2.9C363.1,169.2,362.8,165.1,363.4,161"/>
			</g>
		</g>
		<path class="st0" d="M394.6,154.8c-7.7-1.2-14.9,4.2-16,11.9c-1.2,7.7,4.2,14.9,11.9,16c7.7,1.2,14.9-4.1,16.1-11.9
			C407.7,163.1,402.4,155.9,394.6,154.8"/>
		<g class="st3">
			<g>
				<path class="st0" d="M410.2,114.5c2.5,0.5,5.1,1.3,7.5,2.2c-1.4-2.6-3.5-4.8-6.2-6.3c-2.9-1.6-7.8-2.8-14.6-2.8
					c-4.8,0-9.6,0.6-14.4,1.8c-7.3,1.8-14.2,5-20.3,9.5c-6.1,4.5-11.3,10.1-15.2,16.5c-4.1,6.7-6.8,14.1-8,22
					c-1,6.7,2.4,13.2,8,16.4c-1-5-1.1-10.1-0.3-15.3c0.6-4.2,4.3-7.2,8.4-7.2c0.5,0,0.9,0,1.3,0.1c4.6,0.7,7.9,5,7.1,9.7
					c-0.6,4.1-0.3,8.2,0.9,12c3.5-2.5,6.1-6.3,6.7-10.9c2-13.1,13.1-22.6,26-22c7.8,0.3,10.7,0.6,15.2-2.2c0,0,0.1-0.1,0.1-0.1
					c0,0-0.1,0-0.1,0c-1.8-0.7-3.5-1.4-5.4-1.9c-5.6-1.4-7.1-1.2-10.1-3.3c-2.8-2-4.6-5.8-4-9.9c0.6-4.3,3.7-7.5,7.1-8.6
					C402.6,113.1,406,113.5,410.2,114.5"/>
			</g>
		</g>
		<g class="st4">
			<g>
				<path class="st0" d="M417.8,116.9c0-0.1-0.1-0.1-0.1-0.2c-2.4-0.9-5-1.7-7.5-2.2c-4.2-1-7.5-1.4-10.3-0.5
					c-3.4,1.1-6.5,4.4-7.1,8.6c-0.6,4.1,1.2,8,4,9.9c3,2.1,4.5,1.9,10.1,3.3c1.8,0.5,3.6,1.2,5.4,1.9c0,0,0.1,0,0.1,0
					c3.7-2.5,6.3-6.4,7.1-11.1C420,123.2,419.3,119.8,417.8,116.9"/>
			</g>
		</g>
		<g class="st4">
			<g>
				<path class="st0" d="M457.1,162.8C457.1,162.8,457.1,162.8,457.1,162.8c-2.1-1.3-4.5-2.1-7-2.4c-5.4-0.8-10.6,0.4-14.8,3.2
					c0,0,0,0,0,0c0,0,0,0,0,0c1.2,4.1,1.6,8.5,1.3,13c-0.5,5.9-0.5,7.5,1,10.5c1.3,2.4,4.1,4.7,7.8,5.2c0.5,0.1,1,0.1,1.6,0.1
					c3.4,0,6.5-1.6,8.6-4.2c1.8-2.4,2.4-6.1,2.7-10.7C458.4,172.5,458.1,167.6,457.1,162.8"/>
			</g>
		</g>
		<g class="st4">
			<g>
				<path class="st0" d="M384,227.3c-2-2-3.5-2.4-11-4.1c-4.1-0.9-7.9-2.2-11.7-3.9c0,0,0,0-0.1,0c-3.3,3.1-5.6,7.4-6.3,12.3
					c-0.5,2.9-0.3,5.8,0.4,8.6c0,0,0,0,0,0c5,2,10.2,3.5,15.6,4.6c3.9,0.9,7.5,0.9,10.2-0.4c2.8-1.4,5.2-4.3,5.8-8
					C387.5,232.8,386,229.2,384,227.3"/>
			</g>
		</g>
		<g class="st2">
			<g>
				<path class="st0" d="M450.1,160.4c2.6,0.3,4.9,1.1,7,2.4c-0.7-3.5-1.6-6.9-2.9-10.2h0c-2-5.4-4.9-10.5-8.4-15.2
					c-4.8-6.3-10.8-11.6-17.7-15.6c-3.3-2-6.7-3.6-10.3-5c0,0-0.1,0-0.1,0c0,0.1,0.1,0.1,0.1,0.2c1.5,2.9,2.2,6.3,1.6,9.8
					c-0.7,4.7-3.4,8.7-7.1,11.1c6.5,2.7,12,7.1,16.3,12.6c0.5,0.7,1,1.4,1.5,2.1h-0.1c2.3,3.4,4,7.1,5.1,11c0,0,0,0,0,0
					C439.5,160.8,444.7,159.6,450.1,160.4"/>
			</g>
		</g>
		<g class="st1">
			<g>
				<path class="st0" d="M467.8,176.3c-1.5-5.8-5.4-10.7-10.6-13.5c0,0,0,0,0,0c0,0,0,0,0,0c1,4.8,1.3,9.7,1,14.8
					c-0.3,4.7-0.9,8.4-2.7,10.7c-2,2.6-5.2,4.2-8.6,4.2c-0.5,0-1-0.1-1.6-0.1c-3.6-0.5-6.5-2.8-7.8-5.2c-1.5-3-1.5-4.6-1-10.5
					c0.3-4.5-0.1-8.8-1.3-13c0,0,0,0,0,0c-2.4,1.5-4.4,3.5-5.6,5.2c-3.6,5.3-3.5,9.5-5.7,16.5c-2.9,9.2-9.2,17-17.2,22.2h-0.1
					c-6.4,4.1-13.9,6.5-21.6,6.5c-4.8,0-9.6-1.2-15.6,0.5c-2.7,0.7-5.7,2.4-8.2,4.9c3.7,1.7,7.6,3.1,11.7,3.9c7.5,1.7,9,2.1,11,4.1
					c2,1.9,3.5,5.4,2.9,9.1c-0.5,3.7-3,6.6-5.8,8c-2.7,1.3-6.3,1.3-10.2,0.4c-5.4-1-10.5-2.6-15.6-4.6c0,0,0,0,0,0
					c1.6,5.9,5.6,11,10.8,13.6c4.4,2.2,11.5,3.2,19,3.2c7.1,0,14.3-1,21.2-2.8c10.5-2.8,20.2-7.6,28.9-14.2
					c8.7-6.5,15.9-14.6,21.6-23.9c1.7-2.8,3.2-5.7,4.6-8.7h0.1c1.8-3.9,3.2-7.8,4.4-11.9C468.2,187.3,469,180.7,467.8,176.3"/>
			</g>
		</g>
		<g class="st5">
			<g>
				<path class="st0" d="M304.9,143.5c-1.5,2.2-2,4.4-2.5,8.6c-0.3,3-0.5,6-0.5,9v0c5.5,5.8,14.9,6.7,21.6,1.5c0,0,0,0,0,0
					c0,0,0,0,0,0c-0.1-2.7,0-5.3,0.3-8c0.6-4.8,0.7-8-1.5-11c-1.6-2.2-4.1-3.9-7.2-4.4C310.9,138.6,307,140.4,304.9,143.5"/>
			</g>
		</g>
		<g class="st4">
			<g>
				<path class="st0" d="M424.8,61.1c-3.1-1.9-6.9-2.9-12.9-3.5c-5.7-0.5-11.4-0.6-17.2-0.1c0,0,0,0,0,0c0,0,0,0,0,0
					c-7.3,9.2-8.2,24.1-0.9,32.6c5-0.5,10-0.7,14.9-0.2c6.5,0.5,8.2,0.6,11.7-0.1c5-1.1,10.2-6.1,11.2-12.9
					C432.6,70.1,429.1,63.6,424.8,61.1"/>
			</g>
		</g>
		<g class="st6">
			<g>
				<path class="st0" d="M301.9,161.1L301.9,161.1c0,7.1,0.9,14.1,2.7,21c2.7,10.7,7.5,20.7,14,29.6c0.5,0.7,1,1.4,1.6,2.1h0
					c6.3,8,13.9,14.8,22.6,20.1c4,2.4,8.2,4.5,12.6,6.3c-0.7-2.7-0.9-5.6-0.4-8.6c0.7-4.9,3.1-9.2,6.3-12.3c0,0,0,0,0.1,0
					c0,0,0,0,0,0c-3.5-1.5-6.8-3.4-9.9-5.5h0c-5.9-4-11.1-9-15.4-14.8c-7.9-10.7-12.2-23.3-12.4-36.4c0,0,0,0,0,0
					C316.8,167.8,307.4,166.9,301.9,161.1"/>
			</g>
		</g>
		<g class="st7">
			<g>
				<path class="st0" d="M394.7,57.5C394.7,57.5,394.7,57.5,394.7,57.5c-6.3,0.5-12.5,1.5-18.7,3c-13.3,3.4-25.6,9.2-36.7,17.4
					c-0.3,0.2-0.5,0.4-0.7,0.6c-10.8,8.1-19.8,17.9-26.8,29.4c-6.5,10.5-10.9,22-13.4,34.1c-1.7,8.9-1.1,14.4,3.4,19.1c0,0,0,0,0,0
					v0c0-3,0.1-6,0.5-9c0.5-4.3,1-6.5,2.5-8.6c2.1-3.1,6.1-4.9,10.2-4.3c3.1,0.5,5.6,2.2,7.2,4.4c2.2,3.1,2.1,6.2,1.5,11
					c-0.3,2.7-0.3,5.3-0.3,8c0,0,0,0,0,0c5.1-4.1,5.2-7.9,7.2-16.8c4.1-16.6,13.6-31.3,27.6-41.7c0.1-0.1,0.1-0.1,0.2-0.2
					c10.5-7.8,22.6-12.5,35.2-13.9c0,0,0,0,0,0C386.5,81.5,387.3,66.6,394.7,57.5"/>
			</g>
		</g>
		<g class="st2">
			<g>
				<path class="st0" d="M509.2,179.9c-6.3-0.9-12.2,2.1-15,6.1c-2.4,3.3-3.1,6.6-4.2,12.3c-1,5.1-2.2,10-3.9,14.9c0,0,0,0,0,0
					c5.1,6.1,12.7,9.6,20.6,9.6c3.6,0,7.4-0.8,10.9-2.3c1.7-5.5,3.1-11.1,4.1-16.8c1-5.4,1.2-9.5-0.1-13.5
					C520.2,185.5,515.9,181,509.2,179.9"/>
			</g>
		</g>
		<g class="st8">
			<g>
				<path class="st0" d="M530.7,146.4L530.7,146.4C530.6,146.4,530.6,146.4,530.7,146.4c-4.4-16.8-12-32.4-22.4-46.3
					c-10.5-13.9-23.4-25.5-38.3-34.4c-13.5-8.1-28.1-13.7-43.5-16.8c-11.2-2-23.7-1.5-31.7,8.6c0,0,0,0,0,0
					c5.8-0.5,11.5-0.4,17.2,0.1c5.9,0.6,9.7,1.6,12.9,3.5c4.3,2.6,7.8,9,6.9,15.7c-1,6.9-6.2,11.8-11.2,12.9
					c-3.5,0.7-5.2,0.7-11.7,0.1c-5-0.5-10-0.3-14.9,0.2c0,0,0,0,0,0c4.7,5.6,9.1,8.5,25.6,12.7c25.9,6.6,44.6,23,54.3,43.7h-0.1
					c5.8,12.5,8.5,27,7,42.5c-1,10.8-0.1,17.5,5.5,24.3c0,0,0,0,0,0c0,0,0,0,0,0c1.6-4.9,2.9-9.8,3.9-14.9c1-5.7,1.8-9,4.1-12.3
					c2.8-4,8.8-7,15-6.1c6.7,1.1,10.9,5.6,12.5,10.3c1.4,4,1.2,8.1,0.1,13.5c-1,5.7-2.4,11.3-4.1,16.8c1.8-0.8,3.5-1.8,5.1-3
					c8.4-6.3,10.5-15.4,11.8-28.2C535.8,176.6,534.5,161.3,530.7,146.4"/>
			</g>
		</g>
		<g class="st3">
			<g>
				<path class="st0" d="M486.1,213.3c-7.4,22.2-21.4,41.7-40.5,56.1c-20.1,15.2-43.7,23.1-68.1,23.1c-5.2,0-10.3-0.4-15.5-1.1
					c-2.6-0.4-5.3-0.4-7,0c-6.4,1.4-11.6,6.6-12.6,13.4c-1,6.8,2.5,13.3,7.9,16.3c2.4,1.3,6,2.2,11.3,2.8c5.3,0.6,10.6,0.8,15.9,0.8
					c12.4,0,24.8-1.6,36.9-4.8c18.3-4.9,35.4-13.2,50.7-24.8c7.5-5.7,14.5-12.1,20.8-19.1c6.4-7.1,12.1-14.8,17.1-22.9
					c6.3-10.3,11.2-21.3,14.7-32.7c0,0,0,0,0,0c-3.5,1.5-7.3,2.3-10.9,2.3C498.8,222.9,491.2,219.4,486.1,213.3"/>
			</g>
		</g>
	</g>
</g>
</svg>
