<svg xmlns="http://www.w3.org/2000/svg" width="1701" height="728" viewBox="0 0 1701 728" version="1.1"><path d="M 244 38.565 C 191.745 45.951, 143.487 72.388, 109.353 112.327 C 81.466 144.957, 63.999 183.505, 57.392 227 C 55.008 242.691, 55.002 273.167, 57.380 289.450 C 63.311 330.074, 79.784 367.892, 105.314 399.500 C 114.311 410.640, 132.695 428.309, 144 436.684 C 194.056 473.765, 255.826 487.703, 315.851 475.463 C 402.937 457.704, 470.431 387.357, 487.077 297 C 490.153 280.305, 490.855 248.228, 488.544 229.992 C 480.410 165.805, 444.286 107.743, 390.500 72.405 C 365.247 55.813, 338.039 45.011, 307.500 39.451 C 294.641 37.110, 257.917 36.598, 244 38.565 M 254.825 47.051 C 207.143 51.293, 162.068 72.650, 127.449 107.402 C 111.823 123.088, 101.053 137.592, 89.505 158.500 L 85.639 165.500 89.286 162.310 C 107.436 146.435, 138.704 134.340, 173 129.928 C 182.097 128.758, 182.625 128.553, 185.443 125.103 C 191.768 117.358, 211.927 97.488, 220 91.041 C 247.841 68.808, 280.951 54.470, 309.500 52.284 L 318.500 51.595 309.500 49.868 C 291.350 46.386, 272.953 45.438, 254.825 47.051 M 303.500 62.455 C 280.331 66.097, 257.211 75.974, 235.500 91.505 C 224.097 99.662, 208.080 113.794, 201.151 121.811 L 195.802 128 209.651 128.001 C 222.454 128.002, 240.172 129.162, 249.318 130.599 C 252.724 131.134, 253.201 130.945, 253.744 128.849 C 255.005 123.987, 264.048 107.235, 268.784 100.989 C 275.609 91.988, 286.518 81.970, 294.943 76.964 C 304.250 71.435, 317.274 67.015, 326.285 66.327 L 333.500 65.776 327.328 68.927 C 314.873 75.286, 305.145 89.154, 299.484 108.620 C 296.996 117.177, 293.290 137.679, 294.104 138.385 C 294.322 138.574, 301.005 140.610, 308.955 142.911 C 336.953 151.011, 368.616 164.622, 391.222 178.274 C 403.406 185.633, 402.365 186.062, 403.962 173.026 C 408.274 137.829, 400.687 102.558, 384.958 84.690 C 378.021 76.808, 381.379 78.134, 389.812 86.606 C 401.552 98.400, 407.793 111.051, 411.678 130.929 C 413.929 142.448, 413.902 167.030, 411.624 180.442 C 410.179 188.943, 410.139 190.498, 411.344 191.173 C 415.418 193.453, 431.962 207.012, 440.057 214.706 L 449.310 223.500 448.715 210 C 447.030 171.709, 435.069 135.601, 415.321 109.182 C 388.395 73.162, 346.571 55.685, 303.500 62.455 M 846.500 97.629 C 830.230 101.036, 816.746 110.573, 810.735 122.926 C 807.824 128.907, 807.535 130.358, 807.528 139 C 807.522 147.209, 807.883 149.277, 810.190 154.218 C 813.321 160.923, 820.246 168.666, 826.974 172.983 C 834.004 177.494, 845.698 181.441, 868.755 187.086 C 891.218 192.586, 898.038 195.375, 901.032 200.285 C 905.595 207.768, 901.693 218.143, 892.425 223.178 C 883.669 227.934, 867.895 229.210, 856.965 226.048 C 847.324 223.258, 839.774 215.303, 836.296 204.271 C 834.367 198.149, 836.227 198.521, 815.750 200.161 C 805.837 200.955, 801 201.726, 801 202.511 C 801 203.154, 801.869 207.079, 802.932 211.234 C 808.624 233.488, 823.135 247.286, 846.500 252.660 C 858.497 255.419, 887.388 255.134, 898.500 252.147 C 915.944 247.457, 926.851 239.150, 933.664 225.365 C 937.427 217.750, 937.499 217.395, 937.451 206.552 C 937.388 192.315, 935.281 186.511, 926.934 177.589 C 917.368 167.363, 908.118 163.381, 875.843 155.596 C 849.292 149.192, 843.288 146.432, 841.032 139.597 C 837.542 129.021, 851.911 121.005, 871.933 122.358 C 886.306 123.330, 894.362 128.859, 897.277 139.750 L 898.415 144 905.052 144 C 908.702 144, 916.539 143.703, 922.468 143.340 L 933.247 142.681 932.713 137.590 C 930.561 117.082, 914.737 102.140, 890.162 97.412 C 880.551 95.563, 855.779 95.686, 846.500 97.629 M 550 175 L 550 252 567.500 252 L 585 252 585 175 L 585 98 567.500 98 L 550 98 550 175 M 635 175 L 635 252 650.991 252 L 666.981 252 667.241 202.957 L 667.500 153.913 700.500 202.938 L 733.500 251.963 750.750 251.981 L 768 252 768 175 L 768 98 752.009 98 L 736.018 98 735.759 148.250 L 735.500 198.500 702 148.282 L 668.500 98.063 651.750 98.032 L 635 98 635 175 M 951 111.500 L 951 125 976 125 L 1001 125 1001 188.500 L 1001 252 1018.500 252 L 1036 252 1036 188.500 L 1036 125 1060.500 125 L 1085 125 1085 111.500 L 1085 98 1018 98 L 951 98 951 111.500 M 1110 175 L 1110 252 1127.500 252 L 1145 252 1145 175 L 1145 98 1127.500 98 L 1110 98 1110 175 M 1170 111.500 L 1170 125 1195 125 L 1220 125 1220 188.500 L 1220 252 1237 252 L 1254 252 1254 188.500 L 1254 125 1279 125 L 1304 125 1304 111.500 L 1304 98 1237 98 L 1170 98 1170 111.500 M 1325.015 140.750 C 1325.031 186.219, 1326.053 208.756, 1328.541 218.467 C 1332.691 234.666, 1346.101 246.837, 1365.686 252.181 C 1376.406 255.106, 1408.897 255.422, 1419 252.698 C 1433.429 248.809, 1444.803 241.541, 1450.926 232.299 C 1458.657 220.626, 1459.994 207.501, 1459.998 143.250 L 1460 98 1442.568 98 L 1425.137 98 1424.746 152.750 C 1424.459 192.973, 1424.023 208.522, 1423.103 211.351 C 1421.239 217.080, 1414.262 223.548, 1407.911 225.434 C 1401.013 227.482, 1385.990 227.483, 1379.093 225.435 C 1372.468 223.468, 1363.807 215.431, 1361.920 209.500 C 1360.977 206.537, 1360.545 191.566, 1360.254 151.750 L 1359.861 98 1342.431 98 L 1325 98 1325.015 140.750 M 1480 111.500 L 1480 125 1505 125 L 1530 125 1530 188.500 L 1530 252 1547 252 L 1564 252 1564 188.500 L 1564 125 1589 125 L 1614 125 1614 111.500 L 1614 98 1547 98 L 1480 98 1480 111.500 M 444.766 144.250 C 453.153 166.492, 458 194.172, 458 219.822 L 458 234.064 463.382 241.782 C 468.945 249.761, 473.660 258.473, 477.570 268 C 479.787 273.402, 479.840 273.448, 480.561 270.593 C 481.803 265.675, 480.219 236.170, 478.033 223.500 C 474.040 200.359, 466.848 178.881, 456.602 159.500 C 451.563 149.967, 442.426 135, 441.646 135 C 441.444 135, 442.848 139.162, 444.766 144.250 M 193.758 137.863 L 187.017 138.500 181.917 145.500 C 169.471 162.585, 154.636 190.519, 147.565 210.186 L 144.082 219.872 150.791 224.794 C 183.882 249.072, 221.118 268.564, 243.750 273.456 L 247 274.159 247 216.210 C 247 168.700, 247.275 156.683, 248.529 149.493 C 249.370 144.671, 249.933 140.609, 249.779 140.467 C 248.044 138.863, 204.562 136.842, 193.758 137.863 M 156.500 142.432 C 136.102 146.698, 119.776 153.109, 105.333 162.523 C 83.017 177.070, 71.807 195.748, 71.737 218.500 C 71.685 235.722, 76.615 250.222, 88.694 268.365 C 96.422 279.974, 118.916 303.954, 120.051 301.795 C 120.426 301.083, 121.010 294.875, 121.350 288 C 121.960 275.632, 124.545 257.335, 127.429 244.974 C 128.249 241.460, 128.825 238.534, 128.710 238.471 C 128.409 238.307, 107.385 223.371, 104.489 221.265 C 103.155 220.294, 102.049 219.162, 102.031 218.750 C 102.014 218.338, 109.356 218, 118.348 218 L 134.696 218 139.048 206.250 C 144.822 190.664, 158.153 164.088, 166.887 150.750 L 173.927 140 170.713 140.065 C 168.946 140.101, 162.550 141.166, 156.500 142.432 M 293 213.889 L 293 279 296.824 279 C 303.415 279, 319.128 275.952, 328.500 272.855 C 350.559 265.565, 366.383 252.342, 383.902 226.557 C 391.462 215.430, 395.338 208.238, 398.098 200.216 L 399.931 194.887 392.216 189.939 C 381.630 183.150, 358.041 171.208, 343.101 165.075 C 330.260 159.804, 303.094 150.671, 296.670 149.466 L 293 148.777 293 213.889 M 404.707 207.913 C 397.420 228.548, 386.427 246.352, 371.256 262.090 C 350.992 283.112, 327.077 296.282, 302.279 300.079 L 294.312 301.298 293.658 325.899 C 293.299 339.430, 293.003 356.404, 293.002 363.620 L 293 376.740 297.750 377.324 C 300.363 377.645, 310.675 378.467, 320.667 379.149 C 347.273 380.967, 372.788 378.891, 397.216 372.923 L 405.931 370.793 410.319 363.147 C 418.750 348.454, 419.796 346.414, 425.254 334 C 437.362 306.460, 444.898 277.847, 447.995 247.656 L 449.005 237.813 443.435 231.468 C 437.199 224.366, 427.361 215.398, 415.684 206.174 C 411.386 202.778, 407.786 200.001, 407.684 200.003 C 407.583 200.004, 406.243 203.564, 404.707 207.913 M 65.073 257.699 C 64.828 312.011, 83.287 360.255, 120.432 402.382 C 131.018 414.389, 150.174 430.290, 164.500 438.963 L 171.500 443.200 166.865 438.350 C 142.084 412.416, 125.784 372.940, 121.802 329.215 L 120.593 315.931 111.713 308.215 C 91.265 290.447, 74.208 266.968, 66.970 246.625 L 65.146 241.500 65.073 257.699 M 136.016 249.362 C 132.198 267.160, 130.035 285.834, 130.034 301 L 130.033 311.500 137.266 316.664 C 154.630 329.061, 177.422 341.646, 199.500 351.028 C 208.978 355.055, 243.717 367, 245.953 367 C 246.662 367, 247 355.770, 247 332.183 L 247 297.365 241.250 295.588 C 219.777 288.951, 179.666 269.961, 152.809 253.716 L 137.118 244.225 136.016 249.362 M 457.032 250.872 C 457.014 251.626, 456.298 257.026, 455.439 262.872 C 450.898 293.796, 441.830 322.404, 427.511 350.977 C 423.930 358.124, 421 364.209, 421 364.499 C 421 365.411, 428.221 362.075, 435.500 357.799 C 455.673 345.948, 468.341 330.404, 472.620 312.250 C 474.763 303.157, 474.003 287.108, 470.974 277.500 C 467.628 266.888, 457.126 246.829, 457.032 250.872 M 890 299.433 C 871.332 303.355, 859.262 311.805, 852.896 325.409 C 845.780 340.616, 849.451 357.896, 862.305 369.699 C 871.013 377.694, 881.329 382.090, 904.035 387.480 C 923.716 392.152, 932.503 394.706, 937.277 397.141 C 945.294 401.231, 947.524 411.215, 942.096 418.709 C 940.498 420.914, 937.660 423.665, 935.788 424.822 C 928.274 429.466, 913.208 431.310, 902.154 428.940 C 890.743 426.492, 881.796 417.986, 878.420 406.374 C 876.890 401.110, 876.783 401.001, 873.179 401.067 C 867.223 401.175, 844.148 403.519, 843.595 404.072 C 842.427 405.240, 846.245 419.052, 849.657 426 C 856.597 440.130, 869.884 450.275, 887.015 454.521 C 895.892 456.721, 919.599 457.574, 930.123 456.071 C 945.888 453.820, 958.254 448.743, 966.386 441.183 C 975.531 432.681, 980.566 419.376, 979.769 405.821 C 979.084 394.180, 976.268 387.429, 968.742 379.384 C 959.547 369.553, 947.907 364.467, 920.917 358.484 C 902.301 354.357, 890.367 350.211, 886.438 346.507 C 883.523 343.757, 883 342.588, 883 338.819 C 883 335.240, 883.554 333.843, 885.843 331.651 C 891.945 325.805, 906.343 322.865, 918.681 324.946 C 930.455 326.932, 936.668 332.001, 939.277 341.750 L 940.415 346 949.457 345.994 C 954.431 345.991, 962.269 345.695, 966.875 345.336 L 975.249 344.684 974.707 338.700 C 973.566 326.121, 964.036 312.658, 951.431 305.822 C 941.593 300.486, 933.140 298.815, 914 298.425 C 901.795 298.176, 894.533 298.481, 890 299.433 M 550 376.873 L 550 454 567.500 454 L 585 454 585 425.659 L 585 397.317 608.250 396.675 C 633.268 395.984, 641.014 395.089, 649.511 391.910 C 662.030 387.226, 672.882 375.730, 676.757 363.047 C 679.106 355.359, 679.019 339.349, 676.587 332 C 672.921 320.919, 664.896 311.533, 654.631 306.319 C 644.916 301.384, 639.702 300.872, 593.250 300.289 L 550 299.745 550 376.873 M 734.538 303.227 C 733.780 305.027, 719.346 338.900, 702.462 378.500 C 685.579 418.100, 671.540 451.288, 671.266 452.250 C 670.803 453.871, 672.116 453.999, 689.133 453.992 L 707.500 453.984 714.136 437.242 L 720.771 420.500 754.136 420.260 L 787.500 420.020 794.500 437.007 L 801.500 453.994 820.250 453.997 C 830.563 453.999, 838.991 453.663, 838.979 453.250 C 838.967 452.837, 823.983 418.300, 805.680 376.500 L 772.403 300.500 754.160 300.227 L 735.917 299.955 734.538 303.227 M 989 313.500 L 989 327 1013.500 327 L 1038 327 1038 390.500 L 1038 454 1055.500 454 L 1073 454 1073 390.500 L 1073 327 1097.500 327 L 1122 327 1122 313.500 L 1122 300 1055.500 300 L 989 300 989 313.500 M 1148 376.992 L 1148 454 1212 454 L 1276 454 1276 441 L 1276 428 1229 428 L 1182 428 1182 407.500 L 1182 387 1224 387 L 1266 387 1266 373.500 L 1266 360 1224 360 L 1182 360 1182 343.500 L 1182 327 1227.529 327 L 1273.058 327 1272.779 313.750 L 1272.500 300.500 1210.250 300.242 L 1148 299.985 1148 376.992 M 1303.293 354.250 C 1303.825 414.380, 1304.242 419.046, 1310.066 429.973 C 1316.234 441.545, 1329.247 450.860, 1344.565 454.666 C 1354.448 457.123, 1387.603 457.164, 1397.243 454.733 C 1412.649 450.847, 1425.802 441.262, 1431.369 429.865 C 1436.736 418.879, 1437.227 412.676, 1437.370 354 L 1437.500 300.500 1420.332 300.227 L 1403.164 299.953 1402.727 354.227 C 1402.398 395.131, 1401.966 409.596, 1400.973 412.948 C 1399.158 419.078, 1392.797 425.240, 1385.910 427.540 C 1382.294 428.747, 1377.516 429.346, 1371.500 429.346 C 1355.882 429.346, 1346.420 424.630, 1341.359 414.323 L 1338.500 408.500 1338.195 354.250 L 1337.890 300 1320.351 300 L 1302.812 300 1303.293 354.250 M 1472.667 300.667 C 1472.300 301.033, 1472 335.683, 1472 377.667 L 1472 454 1489.500 454 L 1507 454 1507 422 L 1507 390 1509.250 390.027 C 1517.791 390.130, 1530.233 392.078, 1533.724 393.859 C 1539.323 396.716, 1544.709 403.038, 1564.725 430.250 L 1582.194 454 1603.050 454 L 1623.906 454 1609.317 432.750 C 1589.208 403.461, 1583.359 396.722, 1571.522 389.211 L 1567.544 386.687 1574.663 385.014 C 1592.735 380.768, 1604.566 370.443, 1608.450 355.530 C 1613.188 337.339, 1606.666 318.591, 1592.286 309.066 C 1585.703 304.706, 1576.528 302.182, 1563 301.012 C 1550.229 299.907, 1473.719 299.615, 1472.667 300.667 M 130.652 328.366 C 132.602 347.230, 137.479 368.602, 143.012 382.531 C 161.485 429.032, 193.359 457.896, 235.285 466.088 C 240.667 467.140, 245.505 468, 246.035 468 C 246.641 468, 247 451.080, 247 422.579 L 247 377.159 243.750 376.452 C 241.963 376.063, 234.875 373.952, 228 371.761 C 196.514 361.725, 166.298 347.402, 141.104 330.569 L 130.122 323.232 130.652 328.366 M 585 348.503 L 585 370.295 603.750 369.721 C 624.138 369.098, 629.677 368.009, 635.654 363.450 C 645.230 356.146, 645.199 341.255, 635.590 333.335 C 629.936 328.674, 626.125 327.928, 604.750 327.295 L 585 326.711 585 348.503 M 1507 346.023 L 1507 365.218 1532.750 364.758 C 1560.569 364.261, 1563.605 363.754, 1568.946 358.713 C 1572.711 355.159, 1574.337 350.075, 1573.795 343.546 C 1573.247 336.930, 1570.425 332.881, 1564.243 329.836 C 1559.701 327.599, 1558.386 327.486, 1533.250 327.164 L 1507 326.828 1507 346.023 M 742.709 365.210 C 736.773 380.082, 732.095 392.428, 732.312 392.645 C 732.529 392.862, 742.406 392.918, 754.261 392.770 L 775.815 392.500 764.841 365.517 C 758.805 350.676, 753.784 338.452, 753.683 338.352 C 753.583 338.252, 748.644 350.338, 742.709 365.210 M 451 359.072 C 443.325 364.885, 429.616 372.188, 419.355 375.929 C 412.249 378.520, 411.858 378.839, 406.761 386.234 C 384.689 418.252, 358.038 442.506, 326.500 459.277 C 317.265 464.188, 316.142 465.026, 319.500 464.500 C 321.700 464.155, 329.575 461.857, 337 459.392 C 381.498 444.625, 419.078 415.682, 445.281 376 C 451.075 367.226, 458.715 353.806, 457.764 354.075 C 457.619 354.116, 454.575 356.365, 451 359.072 M 389 384.571 C 374.882 388.036, 357.242 389.251, 330 388.635 C 315.425 388.306, 301.209 387.668, 298.409 387.218 L 293.317 386.399 292.676 424.384 C 292.323 445.275, 292.187 462.520, 292.373 462.707 C 293.054 463.387, 310.718 456.659, 318.438 452.779 C 336.168 443.866, 352.067 432.500, 367.970 417.366 C 376.432 409.314, 391.364 392.152, 395.348 385.900 C 397.469 382.572, 397.294 382.536, 389 384.571 M 1158 574.500 L 1158 635 1188.290 635 C 1221.024 635, 1225.204 634.505, 1235.801 629.371 C 1247.636 623.638, 1257.476 608.836, 1260.644 592 C 1262.590 581.657, 1261.981 560.674, 1259.468 551.500 C 1254.276 532.542, 1240.808 518.652, 1224.201 515.125 C 1220.937 514.432, 1207.205 514, 1188.451 514 L 1158 514 1158 574.500 M 1370 574.500 L 1370 635 1382.500 635 L 1395 635 1395 620.712 L 1395 606.425 1399.977 601.523 C 1402.714 598.827, 1405.132 596.818, 1405.350 597.060 C 1405.568 597.302, 1410.564 605.938, 1416.452 616.250 L 1427.159 635 1440.602 635 L 1454.046 635 1452.609 632.750 C 1449.915 628.530, 1421.856 580.568, 1421.678 579.878 C 1421.580 579.499, 1428.138 572.209, 1436.250 563.677 C 1444.362 555.146, 1451 547.903, 1451 547.583 C 1451 547.262, 1444.330 547, 1436.177 547 L 1421.354 547 1408.427 561.564 L 1395.500 576.128 1395.236 545.064 L 1394.972 514 1382.486 514 L 1370 514 1370 574.500 M 1184 574.481 L 1184 614.206 1200.250 613.844 C 1214.814 613.521, 1216.992 613.242, 1221.246 611.154 C 1230.756 606.488, 1234.110 598.528, 1234.781 579.037 C 1235.607 555.039, 1231.855 544.292, 1220.653 538.571 C 1215.063 535.715, 1214.133 535.566, 1199.403 535.171 L 1184 534.757 1184 574.481 M 1298.024 546.541 C 1290.410 548.673, 1284.733 552.238, 1281.113 557.161 C 1278.119 561.232, 1274.310 569.648, 1275.106 570.434 C 1275.323 570.648, 1280.345 571.703, 1286.266 572.778 L 1297.033 574.733 1298.686 571.248 C 1301.167 566.021, 1305.227 564.008, 1313.300 564.004 C 1321.480 563.999, 1325.368 565.748, 1326.892 570.119 C 1329.419 577.370, 1329.207 577.576, 1316.250 580.477 C 1286.832 587.063, 1282.269 588.884, 1277.014 596.140 C 1270.996 604.446, 1270.976 617.525, 1276.967 625.795 C 1282.664 633.660, 1290.110 637, 1301.944 637 C 1311.176 637, 1318.218 635.073, 1323.820 631.015 C 1329.427 626.954, 1330.049 626.952, 1331.457 631 L 1332.675 634.500 1344.838 634.781 C 1351.527 634.935, 1357 634.935, 1356.999 634.781 C 1356.999 634.626, 1356.011 632.025, 1354.803 629 C 1352.772 623.911, 1352.563 621.256, 1352.005 593.500 C 1351.327 559.713, 1351.159 558.860, 1344.014 552.744 C 1337.543 547.205, 1332.506 545.834, 1317 545.392 C 1306.941 545.106, 1302.104 545.399, 1298.024 546.541 M 1483.500 546.409 C 1476.416 548.164, 1470.833 551.288, 1467.024 555.626 C 1461.650 561.746, 1458.209 570.936, 1461.250 571.044 C 1461.938 571.069, 1466.860 571.903, 1472.190 572.898 L 1481.879 574.706 1483.020 571.952 C 1485.267 566.526, 1488.479 564.595, 1495.957 564.172 C 1507.315 563.531, 1510.926 565.618, 1512.520 573.745 C 1513.314 577.793, 1512.725 578.054, 1493.524 582.188 C 1470.993 587.039, 1464.515 590.338, 1459.714 599.405 C 1456.832 604.849, 1456.656 616.821, 1459.382 622 C 1461.943 626.866, 1466.770 631.780, 1471.500 634.338 C 1474.939 636.197, 1477.112 636.500, 1487 636.500 C 1497.700 636.500, 1498.882 636.301, 1504 633.643 C 1507.025 632.071, 1510.673 629.686, 1512.106 628.343 L 1514.712 625.901 1515.986 630.451 L 1517.260 635 1529.534 635 L 1541.808 635 1539.703 629.750 C 1537.787 624.970, 1537.544 621.816, 1536.979 594.500 C 1536.316 562.401, 1535.903 559.744, 1530.702 554.165 C 1527.701 550.945, 1520.591 547.480, 1514.201 546.124 C 1507.322 544.665, 1489.887 544.826, 1483.500 546.409 M 1589.500 546.393 C 1587.850 547.116, 1584.588 549.788, 1582.250 552.331 L 1578 556.955 1578 551.978 L 1578 547 1566.500 547 L 1555 547 1555 591 L 1555 635 1567 635 L 1579 635 1579.036 616.750 C 1579.101 583.526, 1581.210 572.011, 1587.863 568.571 C 1591.705 566.584, 1597.025 566.566, 1601.709 568.523 C 1603.714 569.361, 1605.695 569.698, 1606.113 569.273 C 1606.530 568.848, 1608.448 564.135, 1610.375 558.799 L 1613.878 549.098 1608.402 547.049 C 1602.190 544.725, 1593.958 544.439, 1589.500 546.393 M 1033 567.514 L 1033 581.028 1028.861 578.289 C 1022.760 574.252, 1013.199 573.846, 1005.646 577.304 C 995.267 582.056, 990.357 592.584, 991.246 608.176 C 992.098 623.128, 998.286 632.250, 1009.876 635.642 C 1017.819 637.966, 1025.775 636.172, 1031.750 630.709 L 1034 628.651 1034 631.826 L 1034 635 1042 635 L 1050 635 1050 594.500 L 1050 554 1041.500 554 L 1033 554 1033 567.514 M 1073.273 577.505 C 1063.314 582.556, 1058.825 590.341, 1058.200 603.646 C 1057.494 618.683, 1062.096 628.470, 1072.177 633.368 C 1085.950 640.059, 1102.020 636.857, 1110.008 625.831 C 1114.711 619.339, 1114.246 618.475, 1105.270 617.027 C 1098.120 615.874, 1097.465 615.916, 1096.520 617.582 C 1094.029 621.979, 1091.088 624, 1087.180 624 C 1082.739 624, 1078.770 621.389, 1076.480 616.961 C 1073.352 610.912, 1073.083 611, 1094.628 611 L 1114.257 611 1113.798 603.250 C 1112.726 585.144, 1104.010 576.036, 1087 575.248 C 1079.350 574.893, 1077.978 575.119, 1073.273 577.505 M 1013.214 590.473 C 1005.779 596.729, 1006.589 616.409, 1014.495 621.589 C 1020.244 625.356, 1027.731 622.826, 1031.248 615.929 C 1033.515 611.484, 1033.582 600.495, 1031.376 594.982 C 1028.532 587.873, 1019.090 585.529, 1013.214 590.473 M 1080.117 589.631 C 1077.967 591.137, 1075 596.550, 1075 598.968 C 1075 599.618, 1079.295 600, 1086.607 600 C 1096.780 600, 1098.139 599.805, 1097.607 598.418 C 1097.273 597.548, 1097 596.164, 1097 595.341 C 1097 594.519, 1095.685 592.531, 1094.077 590.923 C 1091.741 588.587, 1090.279 588, 1086.799 588 C 1084.392 588, 1081.404 588.729, 1080.117 589.631 M 1314.038 596.983 C 1304.274 599.375, 1302.163 600.253, 1299.788 602.911 C 1291.383 612.318, 1303.950 623.807, 1316.782 618.447 C 1321.874 616.320, 1325.820 612.308, 1327.001 608.057 C 1328.449 602.843, 1328.290 593.980, 1326.750 594.088 C 1326.063 594.136, 1320.342 595.439, 1314.038 596.983 M 1500.291 596.471 C 1484.683 600.289, 1482 602.139, 1482 609.088 C 1482 619.083, 1494.890 623.309, 1504.990 616.625 C 1510.107 613.239, 1511.679 610.033, 1512.548 601.206 C 1513.383 592.736, 1514.228 593.062, 1500.291 596.471" stroke="none" fill="#fffcfc" fill-rule="evenodd"/><path d="" stroke="none" fill="#fcfcfc" fill-rule="evenodd"/></svg>