<svg xmlns="http://www.w3.org/2000/svg" viewBox="8677 4412 125.494 47.7">
    <defs>
        <style>.a{fill:#ffffff;}.b{fill:#ffffff;}</style>
    </defs>
    <g transform="translate(8677 4412)">
        <path class="a"
              d="M34.4,34.5a7.7,7.7,0,0,0-5.453-2.255h-.3l-2.76-12.96a9.7,9.7,0,0,0,3.669-2.323,9.95,9.95,0,1,0-14.542-.572L8.079,24.237a5.755,5.755,0,0,0-2.558-.64,5.523,5.523,0,1,0,4.544,2.39L17,18.178a10.026,10.026,0,0,0,5.521,1.683c.269,0,.5-.034.741-.034l2.76,12.96A7.576,7.576,0,0,0,23.429,34.5a7.726,7.726,0,0,0,5.453,13.2,7.585,7.585,0,0,0,5.453-2.255A7.721,7.721,0,0,0,34.4,34.5ZM7.54,31.172a2.845,2.845,0,0,1-4.04,0,2.878,2.878,0,0,1,2.02-4.915,2.873,2.873,0,0,1,2.861,2.861A2.846,2.846,0,0,1,7.54,31.172ZM18.313,14.138a5.964,5.964,0,0,1-1.75-4.208,5.826,5.826,0,0,1,1.75-4.208,5.964,5.964,0,0,1,4.208-1.75,5.826,5.826,0,0,1,4.208,1.75A5.958,5.958,0,0,1,22.52,15.889,5.826,5.826,0,0,1,18.313,14.138Zm13.9,29.118A4.611,4.611,0,0,1,28.95,44.6a4.554,4.554,0,0,1-3.265-1.347,4.611,4.611,0,0,1-1.347-3.265,4.554,4.554,0,0,1,1.347-3.265A4.611,4.611,0,0,1,28.95,35.38a4.554,4.554,0,0,1,3.265,1.347A4.653,4.653,0,0,1,32.215,43.257Z"/>
        <g transform="translate(44.738 8.887)">
            <path class="b"
                  d="M135.728,54.605c0,1.044-.5,1.548-1.447,1.548-.909,0-1.38-.5-1.38-1.548V28.483c0-1.111.471-1.683,1.347-1.683,1.01,0,1.515.539,1.515,1.683V54.605Z"
                  transform="translate(-132.9 -26.665)"/>
            <path class="b"
                  d="M156.5,34.085a1.858,1.858,0,0,1-1.784,1.952,1.779,1.779,0,0,1-1.919-1.952,1.811,1.811,0,0,1,1.919-1.885A1.886,1.886,0,0,1,156.5,34.085Zm-.5,24.1c0,1.044-.471,1.548-1.414,1.548s-1.414-.5-1.414-1.548v-16.6c0-1.111.471-1.683,1.38-1.683.943,0,1.447.539,1.447,1.683Z"
                  transform="translate(-146.101 -30.248)"/>
            <path class="b"
                  d="M176.483,36.263h3.265c.943,0,1.414.4,1.414,1.246q0,1.212-1.414,1.212h-3.265V54.273c0,1.044-.471,1.582-1.38,1.582-.943,0-1.448-.539-1.448-1.582V38.721h-.842q-1.414,0-1.414-1.212c0-.842.471-1.246,1.414-1.246h.842V32.527a5.912,5.912,0,0,1,6.228-6.127c2.76,0,5.958,1.885,5.958,4.948a1.288,1.288,0,0,1-1.414,1.448,1.364,1.364,0,0,1-1.279-.909c-.5-1.38-1.38-2.727-3.265-2.727a3.437,3.437,0,0,0-3.366,3.333v3.77Z"
                  transform="translate(-158.44 -26.4)"/>
            <path class="b"
                  d="M201.094,64v.135a7.427,7.427,0,0,0,7.372,7.439,7.9,7.9,0,0,0,5.622-2.154,1.8,1.8,0,0,1,1.346-.673,1.329,1.329,0,0,1,1.347,1.347,2.037,2.037,0,0,1-.673,1.38,11.2,11.2,0,0,1-7.641,2.929,10.251,10.251,0,0,1,0-20.5c5.824,0,9.493,4.41,9.493,7.843,0,1.548-.909,2.289-2.727,2.289H201.094Zm14-2.558c-.37-2.626-2.861-4.78-6.564-4.78-3.3,0-6.295,2.121-6.968,4.78Z"
                  transform="translate(-176.285 -44.643)"/>
            <path class="b"
                  d="M264.094,39.827a8.593,8.593,0,0,1,7-3.9c5.689,0,9.931,4.376,9.931,10.233A9.913,9.913,0,0,1,271.1,56.39a8.118,8.118,0,0,1-7-3.972v2.053c0,1.111-.471,1.717-1.38,1.717q-1.414,0-1.414-1.717V28.483c0-1.111.471-1.683,1.414-1.683.909,0,1.38.539,1.38,1.683Zm0,6.295c0,4.141,2.962,7.439,7,7.439,4.141,0,7.035-3.3,7.035-7.439a7.031,7.031,0,1,0-14.037,0Z"
                  transform="translate(-218.077 -26.665)"/>
            <path class="b"
                  d="M330.6,34.085a1.858,1.858,0,0,1-1.784,1.952,1.779,1.779,0,0,1-1.919-1.952,1.811,1.811,0,0,1,1.919-1.885A1.91,1.91,0,0,1,330.6,34.085Zm-.5,24.1c0,1.044-.471,1.548-1.414,1.548s-1.414-.5-1.414-1.548v-16.6c0-1.111.471-1.683,1.38-1.683.943,0,1.448.539,1.448,1.683Z"
                  transform="translate(-261.594 -30.248)"/>
            <path class="b"
                  d="M344.038,42.565V37.516c0-1.077.5-1.616,1.448-1.616s1.447.539,1.447,1.616v5.049h2.659c1.044,0,1.582.4,1.582,1.246,0,.808-.539,1.212-1.582,1.212h-2.659V60.608c0,1.044-.5,1.548-1.447,1.548s-1.448-.5-1.448-1.548V45.023h-2.424q-1.414,0-1.414-1.212c0-.842.471-1.246,1.414-1.246Z"
                  transform="translate(-270.417 -32.702)"/>
        </g>
    </g>
</svg>
