<?xml version="1.0" encoding="UTF-8" standalone="no"?>
<svg
   xmlns:dc="http://purl.org/dc/elements/1.1/"
   xmlns:cc="http://creativecommons.org/ns#"
   xmlns:rdf="http://www.w3.org/1999/02/22-rdf-syntax-ns#"
   xmlns:svg="http://www.w3.org/2000/svg"
   xmlns="http://www.w3.org/2000/svg"
   id="svg150"
   version="1.1"
   viewBox="0 0 1207.62 276.41">
  <metadata
     id="metadata154">
    <rdf:RDF>
      <cc:Work
         rdf:about="">
        <dc:format>image/svg+xml</dc:format>
        <dc:type
           rdf:resource="http://purl.org/dc/dcmitype/StillImage" />
        <dc:title>Linnaeus University+symbol_EEMiS_logo_white</dc:title>
      </cc:Work>
    </rdf:RDF>
  </metadata>
  <defs
     id="defs4">
    <style
       id="style2">.cls-1{fill:#fff;}</style>
  </defs>
  <title
     id="title6">Linnaeus University+symbol_EEMiS_logo_white</title>
  <g
     data-name="Layer 2"
     id="Layer_2">
    <g
       data-name="Lager 1"
       id="Lager_1">
      <path
         id="path8"
         d="M480.36,176.19c.43,0,6.1-.21,6.73-.31,1.54-.27,2-.69,2.44-2.34A12.9,12.9,0,0,0,490,171a.33.33,0,0,1,.37-.37l1.32,0a.31.31,0,0,1,.32.42c-.16.9-.16,5.25-.16,6,0,1.85.21,4.39.32,5.51a.37.37,0,0,1-.32.42l-1.17.16c-.26.05-.37-.11-.42-.48-.11-.69-.42-1.91-.58-2.49a2.5,2.5,0,0,0-2.28-2.07c-2.49-.26-6.15-.26-7-.26v3.29c0,2.86.11,8,.11,9.06,0,2.75,1.38,3.81,3,4.13a22.13,22.13,0,0,0,3.92.37c.9,0,3.55-.05,4.67-.16a10.21,10.21,0,0,0,4.61-1.85,49.13,49.13,0,0,0,4.34-5.57c.16-.26.32-.47.64-.31l.85.47c.26.16.26.32.1.74l-2.81,7.79a1.12,1.12,0,0,1-1.16.8c-.27,0-1.43-.05-4.61-.11s-8.32,0-16.59,0c-2,0-3.45,0-4.51,0s-1.8.11-2.27.11-.48-.11-.48-.37v-1.43c0-.21.16-.27.53-.27h2.12c2.44,0,2.65-.37,2.65-2.33V174.5c0-4.4-.11-11-.16-11.55-.21-1.7-.74-2.07-2.7-2.07h-1.91c-.27,0-.42,0-.42-.37v-1.43c0-.16.1-.27.37-.27,1.16,0,3,.16,6.51.16h2.34c5.24,0,10.49-.05,15.74-.05.84,0,1.85-.11,2.11-.11s.38.11.43.27c.21.74,2.54,8,2.7,8.53.05.21.05.37-.16.48l-.79.42c-.16.11-.37,0-.43-.16s-4-5.25-5.3-6a8.15,8.15,0,0,0-4-1.43l-9.44-.21Z"
         class="cls-1" />
      <path
         id="path10"
         d="M508.61,183.67a14.85,14.85,0,0,0,2.71,8.05,6.8,6.8,0,0,0,5.77,2.7,7.25,7.25,0,0,0,5.83-2.28.29.29,0,0,1,.43,0l.52.54c.22.21.27.37,0,.68a12.23,12.23,0,0,1-8.53,3.77,9.68,9.68,0,0,1-8.21-3.71,11,11,0,0,1-2.39-7.21c0-6.2,4.35-12.45,11.34-12.45,5.52,0,7.21,3.18,7.21,4.29a1.8,1.8,0,0,1-2,1.85c-1.22,0-2.12-.69-2.91-2.12-1.17-2.17-2.28-2.33-3.55-2.33C511.85,175.45,508.61,178.21,508.61,183.67Z"
         class="cls-1" />
      <path
         id="path12"
         d="M527.16,193.47c-2.43-2.91-2.91-4.88-2.91-8.64a11.27,11.27,0,0,1,4.56-8.53,11.44,11.44,0,0,1,7.1-2.54,11.23,11.23,0,0,1,7.42,3.07,11.78,11.78,0,0,1,3.6,8.64,12.1,12.1,0,0,1-11.71,11.66A10.7,10.7,0,0,1,527.16,193.47Zm15.32-8.53c0-5.88-4.29-9.59-7-9.59A5.1,5.1,0,0,0,531.4,177c-2.06,2.12-2.81,4.29-2.81,8.32,0,3,.32,5,2,7.42a5.86,5.86,0,0,0,5.24,2.76C539.88,195.54,542.48,190.61,542.48,184.94Z"
         class="cls-1" />
      <path
         id="path14"
         d="M554.81,180.7c0,2.75,0,10.76.05,12.4,0,.9.26,1.64,1.38,1.64h2.38c.48,0,.58.16.58.48v.9c0,.32-.1.53-.31.53-.37,0-2.71-.16-6-.16s-5.51.16-6,.16c-.27,0-.37-.21-.37-.53v-.9c0-.37.1-.48.69-.48h2.54c.58,0,1.12-.37,1.17-1.32,0-1.65,0-10.76,0-13.83v-3.34c0-3.77,0-8.59-.16-10-.1-1.8-1-2.65-2.65-3.18l-1.06-.37c-.26-.1-.32-.16-.32-.26V162c0-.15.16-.26.48-.37a46.81,46.81,0,0,0,6.2-3.07,2,2,0,0,1,1.11-.42c.38,0,.48.26.43.95,0,2.91-.21,13.94-.21,16.85Z"
         class="cls-1" />
      <path
         id="path16"
         d="M561.69,193.47c-2.44-2.91-2.92-4.88-2.92-8.64a11.27,11.27,0,0,1,4.56-8.53,11.44,11.44,0,0,1,7.1-2.54,11.23,11.23,0,0,1,7.42,3.07,11.78,11.78,0,0,1,3.6,8.64,12.1,12.1,0,0,1-11.71,11.66A10.68,10.68,0,0,1,561.69,193.47ZM577,184.94c0-5.88-4.29-9.59-7-9.59a5.09,5.09,0,0,0-4.08,1.69c-2.07,2.12-2.81,4.29-2.81,8.32,0,3,.31,5,2,7.42a5.87,5.87,0,0,0,5.25,2.76C574.4,195.54,577,190.61,577,184.94Z"
         class="cls-1" />
      <path
         id="path18"
         d="M584.35,209.21c-1.9-1.17-2.7-2.54-2.7-4.29,0-3,3-5.25,5.57-6.36v-.21a4.12,4.12,0,0,1-3.56-3.71c0-2.55,2.92-4.35,4.77-5v-.1a8.44,8.44,0,0,1-4.92-8.06c0-3.44,3.07-7.68,9.06-7.68a8.49,8.49,0,0,1,6.67,3.07c1.44-1,3.24-2.07,5-2.07s2.59,1.17,2.49,2.23a2,2,0,0,1-2.07,2,2.59,2.59,0,0,1-1.85-.8,2.13,2.13,0,0,0-1.12-.47A3.82,3.82,0,0,0,600,178a10.05,10.05,0,0,1,.79,4,8.75,8.75,0,0,1-2,5.73,9.45,9.45,0,0,1-8.85,2.38c-1.06.43-2.81,1.49-2.81,3,0,2.17,2.65,2,6.2,1.8,4.35-.21,7,.27,9.12,1.91a6.2,6.2,0,0,1,2.59,5.09c0,2.49-.9,4.55-3.55,6.51a15.9,15.9,0,0,1-9.06,2.49A16.62,16.62,0,0,1,584.35,209.21Zm17.49-5.46c0-3.13-2.38-5.51-7.68-5.14l-5.09.37c-1.64.43-4.24,2.23-4.24,5.09a5.12,5.12,0,0,0,2.07,3.66c1.75,1.21,3.65,1.48,7.42,1.48C596.28,209.21,602.11,207.83,601.84,203.75Zm-4.93-22.57c0-2.34-.47-3.71-1.43-4.77a4,4,0,0,0-2.54-1.17,4.86,4.86,0,0,0-3.76,1.48c-1.7,1.81-1.91,4.24-1.91,6.26a6.61,6.61,0,0,0,1.69,4.61,4.34,4.34,0,0,0,3.18,1.32C595.75,188.91,596.91,184.51,596.91,181.18Z"
         class="cls-1" />
      <path
         id="path20"
         d="M606.91,208.2a2.35,2.35,0,0,1,2.44-2.06,9.08,9.08,0,0,1,2.44.58,1.27,1.27,0,0,0,1.11-.32c.79-1,3.5-7,4.24-9.06-.27-1.33-5.88-17.86-6.31-19-.63-1.33-1.11-2.23-2.49-2.23H607c-.37,0-.42-.16-.42-.48V174.6c0-.21.05-.37.42-.37s1.75.16,4.88.16c2.7,0,4.34-.16,4.93-.16.42,0,.47.16.47.37v1.12c0,.26,0,.42-.31.42h-1c-.58,0-.8.37-.69,1.17.16,1.16,3.76,12.82,4.34,14h.22c.53-.85,5.14-11.82,5.46-13.15s-.11-2-.91-2h-.84c-.32,0-.37-.16-.37-.42v-1.06c0-.27,0-.43.31-.43.69,0,1.81.16,4.35.16,1.43,0,2.65-.16,3.23-.16.32,0,.32.22.32.43v1c0,.32,0,.48-.27.48h-.84a2.38,2.38,0,0,0-1.86,1c-1.16,1.43-4.66,9.48-8.32,17.8-2.59,5.88-4.66,10.81-5.61,12.56-.75,1.38-1.7,3.44-4.51,3.44C607.92,210.9,606.91,209.79,606.91,208.2Z"
         class="cls-1" />
      <path
         id="path22"
         d="M658.69,190.18c0,3,.63,4,1.59,4a2.42,2.42,0,0,0,1.85-.8c.21-.26.32-.37.53-.21l.53.43c.16.15.27.42-.05.95a4.38,4.38,0,0,1-4.13,2.6c-1.91,0-3.29-1.38-3.77-3.55h-.1a11.53,11.53,0,0,1-5.25,3.23,9.92,9.92,0,0,1-3.13.32c-1.27,0-3.18-1.06-3.18-4.4,0-2.44,1.12-4.56,5.3-6.41a35.09,35.09,0,0,0,6-3.08v-3.39a6.14,6.14,0,0,0-.74-3,4,4,0,0,0-3.18-1.16,5.91,5.91,0,0,0-3.44,1.11c-.75.69-.27,1.48-.27,2.44,0,1.85-.64,3-2.81,3-.85,0-1.27-.48-1.27-1.7,0-1.69,1.48-3.71,3.66-5a11.7,11.7,0,0,1,6.46-1.85c2.49,0,3.5.74,4.24,1.43,1.12,1.11,1.17,2.33,1.17,3.76v11.23Zm-3.87-5.35c-1.91,1.43-7.1,2.49-7.1,6.89a2.61,2.61,0,0,0,2.75,2.92c1.54,0,4.35-1.86,4.35-3.29Z"
         class="cls-1" />
      <path
         id="path24"
         d="M686.05,193.63c0,.85.48,1.11,1.17,1.11h1.69c.48,0,.59.16.59.48v.85c0,.37-.11.58-.43.58s-2-.16-5-.16c-2.71,0-4.4.16-4.77.16s-.43-.16-.43-.58v-.85c0-.37.16-.48.69-.48h1.54c.58,0,1-.26,1.06-1.22,0-1.38.1-3.07.1-4.45v-7c0-2.12,0-3.66-1.53-4.77a5.79,5.79,0,0,0-3.87-1,6.2,6.2,0,0,0-4.29,2.07,5.2,5.2,0,0,0-1.22,3.6v11c0,1.43.16,1.75,1.27,1.75h1.32c.43,0,.54.16.54.53v.9c0,.32-.11.48-.38.48s-1.8-.16-4.61-.16-4.4.16-4.71.16-.37-.16-.37-.48v-.95c0-.32.1-.48.53-.48h1.53c.69,0,1.06-.16,1.06-1.06v-12.4a3.28,3.28,0,0,0-2.17-3.13l-.42-.21c-.37-.16-.43-.32-.43-.47v-.27c0-.26.21-.42.48-.53l4.56-2.54a2.81,2.81,0,0,1,1-.37c.26,0,.37.21.42.63l.38,3.23h.1c1.54-1.9,4.61-3.86,7.26-3.86a8.2,8.2,0,0,1,4.51,1.16,7.71,7.71,0,0,1,2.91,5Z"
         class="cls-1" />
      <path
         id="path26"
         d="M707.14,164.22c0-2-.37-2.65-3.34-3.13-.32-.05-.37-.16-.37-.37v-.9c0-.21.11-.32.42-.37,2.07-.43,4.83-.9,5.83-1.11a11.12,11.12,0,0,1,1.22-.16c.27,0,.32.37.27.95-.16,2.65-.21,10.33-.21,17.06v11.72c0,2,.1,4.29.52,4.82a3.94,3.94,0,0,0,2.34.9c.74.05.95.1,1.06.37l.1.42c.06.32-.05.48-.37.59l-6,2c-.31.11-.58-.05-.69-.42l-.68-2.33a12.24,12.24,0,0,1-7.79,2.86,7.36,7.36,0,0,1-6.26-2.44c-2.7-2.65-3.34-5-3.34-8.59a12.62,12.62,0,0,1,3.71-9,10.65,10.65,0,0,1,7.9-3.34,19.69,19.69,0,0,1,5.67.79Zm0,16.8a5.21,5.21,0,0,0-.48-2.6c-.74-1.43-2.43-2.86-5.56-2.86a6.49,6.49,0,0,0-4.82,1.91,10.09,10.09,0,0,0-2.44,7c0,6,4.13,10.34,7.21,10.34s5.24-1.54,5.77-2.92a4.85,4.85,0,0,0,.32-1.8Z"
         class="cls-1" />
      <path
         id="path28"
         d="M738.94,176.19c.42,0,6.09-.21,6.73-.31,1.54-.27,2-.69,2.44-2.34a12.32,12.32,0,0,0,.42-2.59.33.33,0,0,1,.37-.37l1.33,0a.32.32,0,0,1,.32.42c-.16.9-.16,5.25-.16,6,0,1.85.21,4.39.31,5.51a.36.36,0,0,1-.31.42l-1.17.16c-.26.05-.37-.11-.42-.48-.11-.69-.43-1.91-.59-2.49a2.48,2.48,0,0,0-2.27-2.07c-2.5-.26-6.15-.26-7-.26v3.29c0,2.86.11,8,.11,9.06.05,2.75,1.37,3.81,3,4.13a22,22,0,0,0,3.92.37c.9,0,3.55-.05,4.66-.16a10.21,10.21,0,0,0,4.61-1.85,48,48,0,0,0,4.35-5.57c.16-.26.32-.47.63-.31l.85.47c.27.16.27.32.11.74l-2.81,7.79a1.13,1.13,0,0,1-1.17.8c-.26,0-1.43-.05-4.61-.11s-8.32,0-16.58,0c-2,0-3.45,0-4.51,0s-1.8.11-2.28.11c-.32,0-.47-.11-.47-.37v-1.43c0-.21.15-.27.53-.27h2.11c2.44,0,2.65-.37,2.65-2.33V174.5c0-4.4-.1-11-.15-11.55-.22-1.7-.75-2.07-2.71-2.07h-1.9c-.27,0-.43,0-.43-.37v-1.43c0-.16.11-.27.37-.27,1.17,0,3,.16,6.52.16h2.33c5.25,0,10.49-.05,15.74-.05.85,0,1.86-.11,2.12-.11a.39.39,0,0,1,.43.27c.21.74,2.54,8,2.7,8.53,0,.21,0,.37-.16.48l-.8.42c-.15.11-.37,0-.42-.16s-4-5.25-5.3-6a8.19,8.19,0,0,0-4-1.43l-9.43-.21Z"
         class="cls-1" />
      <path
         id="path30"
         d="M771.72,191.62h.16c.85-2.07,4.56-11.13,5.09-13.2.37-1.43,0-2.28-1-2.28H775c-.16,0-.21-.26-.21-.53v-1c0-.32.11-.43.32-.43.74,0,1.91.16,4.24.16,2.06,0,3.34-.16,3.81-.16s.48.06.48.48v.9c0,.37,0,.53-.26.53h-1a2.11,2.11,0,0,0-1.64.58c-.8.75-3.45,6.52-4.24,8.48-.64,1.59-4.56,10.5-4.77,10.87-.43.74-.69,1.22-1.28,1.22s-.84-.48-1.11-1.12c-.1-.26-4-10.33-4.13-10.76s-2.33-6.46-2.7-7.31c-.69-1.54-1.22-2-2.18-2h-1.06c-.26,0-.32-.21-.32-.53v-1c0-.37.11-.43.59-.43s1.48.16,4.45.16c2.81,0,4.19-.16,4.77-.16.42,0,.53.11.53.43v1c0,.32-.05.53-.37.53H767.8a.91.91,0,0,0-1,1,43.5,43.5,0,0,0,1.7,6.25C768.86,184.41,771.14,190.5,771.72,191.62Z"
         class="cls-1" />
      <path
         id="path32"
         d="M784.89,193.47c-2.44-2.91-2.92-4.88-2.92-8.64a11.27,11.27,0,0,1,4.56-8.53,11.44,11.44,0,0,1,7.1-2.54,11.23,11.23,0,0,1,7.42,3.07,11.78,11.78,0,0,1,3.6,8.64,12.1,12.1,0,0,1-11.71,11.66A10.68,10.68,0,0,1,784.89,193.47Zm15.31-8.53c0-5.88-4.29-9.59-7-9.59a5.09,5.09,0,0,0-4.08,1.69c-2.07,2.12-2.81,4.29-2.81,8.32,0,3,.31,5,2,7.42a5.87,5.87,0,0,0,5.25,2.76C797.6,195.54,800.2,190.61,800.2,184.94Z"
         class="cls-1" />
      <path
         id="path34"
         d="M812.53,180.7c0,2.75,0,10.76.05,12.4.06.9.27,1.64,1.38,1.64h2.38c.48,0,.59.16.59.48v.9c0,.32-.11.53-.32.53-.37,0-2.7-.16-6-.16s-5.51.16-6,.16c-.26,0-.37-.21-.37-.53v-.9c0-.37.11-.48.69-.48h2.54c.59,0,1.12-.37,1.17-1.32.05-1.65.05-10.76.05-13.83v-3.34c0-3.77-.05-8.59-.16-10-.1-1.8-.95-2.65-2.65-3.18l-1.06-.37c-.26-.1-.31-.16-.31-.26V162c0-.15.16-.26.47-.37a46.81,46.81,0,0,0,6.2-3.07,2,2,0,0,1,1.12-.42c.37,0,.47.26.42.95,0,2.91-.21,13.94-.21,16.85Z"
         class="cls-1" />
      <path
         id="path36"
         d="M836.54,185.73c0,2.55,0,5.14.1,6.26.16,1.64.74,1.85,1.38,1.85a7.77,7.77,0,0,0,1.75-.16c.42-.1.58,0,.63.21l.16.69c.06.32,0,.43-.26.48l-5.57,1.85a3,3,0,0,1-1.06.22c-.21,0-.42-.11-.47-.64l-.43-3.07h-.1a9.72,9.72,0,0,1-7.21,3.71,5.55,5.55,0,0,1-5-2.44c-2.17-2.81-2.07-4.56-2.07-10.39v-6.15c0-1.48-.79-1.85-2-2-.9,0-1.17-.11-1.17-.37v-1c0-.32.11-.43.59-.43h4.71a2.87,2.87,0,0,0,.74-.1c.22,0,.43-.06.59-.06a.55.55,0,0,1,.58.64c-.05.48-.21,3-.21,6.09v3.77c0,2.12-.53,5.51,1.16,8a4.45,4.45,0,0,0,4.24,2c1.43,0,3.55-1.38,4.56-2.65a2.91,2.91,0,0,0,.53-1.43V178c-.11-1.49-1-1.75-2.28-1.86-.9,0-1.16-.11-1.16-.37v-.9c0-.42.1-.48.63-.48h4.93a4.4,4.4,0,0,0,.9-.1c.27,0,.48-.06.64-.06a.45.45,0,0,1,.47.53,48.56,48.56,0,0,0-.31,7.05Z"
         class="cls-1" />
      <path
         id="path38"
         d="M847.29,189.87c0,4,1.8,4.66,2.75,4.66a7.58,7.58,0,0,0,3.5-.69.43.43,0,0,1,.64.11l.26.47a.43.43,0,0,1-.11.59,8.91,8.91,0,0,1-5.88,2.12c-2.6,0-5.14-2.49-5.14-4.51,0-2.17.16-6.83.16-7.58v-1.16c0-1,0-4.51.11-6.73h-3.24c-.47,0-.79-.21-.79-.64s.32-.58,1-.95c1.27-.74,5.35-4.88,6-6.68a.72.72,0,0,1,.75-.53c.42,0,.53.37.53.8l-.27,5.24h7.37a.35.35,0,0,1,.37.48l-.53,1.85c0,.27-.16.43-.48.43h-6.84c-.1,2.44-.15,5-.15,7.42Z"
         class="cls-1" />
      <path
         id="path40"
         d="M859.52,181.07c0-1.8-.32-2.76-3-3.18-.37,0-.48-.16-.48-.37V177c0-.16.11-.26.37-.37a43.2,43.2,0,0,0,5.73-2.6,2.18,2.18,0,0,1,1-.31c.27,0,.32.26.27.63-.11.9-.11,4.24-.11,8.64v5.78c0,2.06,0,4,.06,4.55.1,1,.26,1.38.84,1.38h2.44c.43,0,.53.16.53.48v.9c0,.37-.1.53-.47.53s-2.87-.16-5.09-.16c-3.08,0-5.14.16-5.73.16a.37.37,0,0,1-.42-.42v-1.06c0-.32.16-.43.53-.43h2.6c.58,0,.79-.21.85-1.06,0-1.59,0-3.23,0-4.82Zm-2.39-16.16a3,3,0,0,1,3.24-2.76,2.63,2.63,0,0,1,2.75,2.6,2.87,2.87,0,0,1-3.07,2.91A3,3,0,0,1,857.13,164.91Z"
         class="cls-1" />
      <path
         id="path42"
         d="M870.23,193.47c-2.43-2.91-2.91-4.88-2.91-8.64a11.27,11.27,0,0,1,4.56-8.53,11.44,11.44,0,0,1,7.1-2.54,11.23,11.23,0,0,1,7.42,3.07,11.78,11.78,0,0,1,3.6,8.64,12.1,12.1,0,0,1-11.71,11.66A10.71,10.71,0,0,1,870.23,193.47Zm15.32-8.53c0-5.88-4.29-9.59-7-9.59a5.12,5.12,0,0,0-4.09,1.69c-2.06,2.12-2.8,4.29-2.8,8.32,0,3,.31,5,2,7.42a5.87,5.87,0,0,0,5.25,2.76C883,195.54,885.55,190.61,885.55,184.94Z"
         class="cls-1" />
      <path
         id="path44"
         d="M912.82,193.63c0,.85.47,1.11,1.16,1.11h1.7c.48,0,.58.16.58.48v.85c0,.37-.1.58-.42.58s-2-.16-5-.16c-2.7,0-4.4.16-4.77.16s-.42-.16-.42-.58v-.85c0-.37.16-.48.69-.48h1.54c.58,0,1-.26,1.06-1.22.05-1.38.1-3.07.1-4.45v-7c0-2.12,0-3.66-1.53-4.77a5.8,5.8,0,0,0-3.87-1,6.21,6.21,0,0,0-4.3,2.07,5.2,5.2,0,0,0-1.22,3.6v11c0,1.43.16,1.75,1.28,1.75h1.32c.43,0,.53.16.53.53v.9c0,.32-.1.48-.37.48s-1.8-.16-4.61-.16-4.4.16-4.72.16-.37-.16-.37-.48v-.95c0-.32.11-.48.53-.48h1.54c.69,0,1.06-.16,1.06-1.06v-12.4a3.28,3.28,0,0,0-2.17-3.13l-.43-.21c-.37-.16-.42-.32-.42-.47v-.27c0-.26.21-.42.48-.53l4.55-2.54a2.92,2.92,0,0,1,1-.37c.26,0,.37.21.42.63l.37,3.23h.11c1.53-1.9,4.61-3.86,7.26-3.86a8.14,8.14,0,0,1,4.5,1.16,7.73,7.73,0,0,1,2.92,5Z"
         class="cls-1" />
      <path
         id="path46"
         d="M933.49,181.07c0-1.8-.32-2.76-3-3.18-.37,0-.48-.16-.48-.37V177c0-.16.11-.26.37-.37a42.63,42.63,0,0,0,5.73-2.6,2.18,2.18,0,0,1,1-.31c.27,0,.32.26.27.63-.11.9-.11,4.24-.11,8.64v5.78c0,2.06,0,4,.06,4.55.1,1,.26,1.38.85,1.38h2.43c.43,0,.53.16.53.48v.9c0,.37-.1.53-.47.53s-2.87-.16-5.09-.16c-3.07,0-5.14.16-5.72.16-.27,0-.43-.11-.43-.42v-1.06c0-.32.16-.43.53-.43h2.6c.58,0,.79-.21.85-1.06,0-1.59,0-3.23,0-4.82Zm-2.39-16.16a3,3,0,0,1,3.24-2.76,2.63,2.63,0,0,1,2.75,2.6,2.87,2.87,0,0,1-3.07,2.91A3,3,0,0,1,931.1,164.91Z"
         class="cls-1" />
      <path
         id="path48"
         d="M964.29,193.63c0,.85.47,1.11,1.16,1.11h1.7c.47,0,.58.16.58.48v.85c0,.37-.11.58-.42.58s-2-.16-5-.16c-2.7,0-4.4.16-4.77.16s-.42-.16-.42-.58v-.85c0-.37.16-.48.69-.48h1.53c.59,0,1-.26,1.06-1.22.06-1.38.11-3.07.11-4.45v-7c0-2.12,0-3.66-1.54-4.77a5.76,5.76,0,0,0-3.86-1,6.21,6.21,0,0,0-4.3,2.07,5.2,5.2,0,0,0-1.22,3.6v11c0,1.43.16,1.75,1.27,1.75h1.33c.42,0,.53.16.53.53v.9c0,.32-.11.48-.37.48s-1.8-.16-4.61-.16-4.4.16-4.72.16-.37-.16-.37-.48v-.95c0-.32.11-.48.53-.48h1.54c.69,0,1.06-.16,1.06-1.06v-12.4a3.27,3.27,0,0,0-2.18-3.13l-.42-.21c-.37-.16-.42-.32-.42-.47v-.27c0-.26.21-.42.47-.53l4.56-2.54a2.84,2.84,0,0,1,1-.37c.26,0,.37.21.42.63l.37,3.23h.11c1.53-1.9,4.61-3.86,7.26-3.86a8.14,8.14,0,0,1,4.5,1.16,7.73,7.73,0,0,1,2.92,5Z"
         class="cls-1" />
      <path
         id="path50"
         d="M497.38,243.66c.74-.79,6-13.46,6.46-14.15s6.15-13.19,6.31-14.25c.11-.59.69-.64,1.22-.64,7,0,8.85-.16,9.43-.16.27,0,.32.16.32.37v1.22c0,.32,0,.48-.42.48h-2.34c-1.59,0-1.74.95-1.74,2.17,0,1.54-.16,9.12-.16,12.67v3.71c0,2.65.16,11.23.16,12.29,0,2,.47,2.86,1.8,2.86h3.12c.32,0,.38.16.38.37v1.22c0,.32-.06.48-.48.48-.64,0-1.59-.16-7.42-.16-4.88,0-6.94.16-7.63.16-.37,0-.43-.16-.43-.48V250.6c0-.26.06-.37.43-.37H510c.9,0,1.38-.31,1.49-1.9,0-.64.1-9.86.1-13.78v-3.39c0-3.5,0-12.93-.16-13.41h-.1c-.53.69-8.06,17.38-8.32,17.91s-6.2,14.15-6.42,14.63-.63,1.27-1.06,1.27-.58-.43-.79-1c-.16-.37-6.94-17.11-7.21-17.75-1-2.44-5.83-14.31-6.57-14.94-.21.74-.32,14.15-.32,14.78s-.05,11.82.11,13.67c.26,3,.74,3.87,2.44,3.87h2.65c.31,0,.37.16.37.37v1.33c0,.21-.06.37-.48.37-.58,0-2-.16-6.41-.16s-6.36.16-6.84.16-.48-.05-.48-.48v-1.27a.28.28,0,0,1,.32-.32h2.81c2,0,2.49-1.37,2.81-3.18.64-3.76.8-17.32.8-18.28,0-.74,0-8.74-.06-10.28-.05-1.22,0-2-2.17-2h-3.23c-.32,0-.37-.16-.37-.37v-1.38c0-.16.05-.32.37-.32.53,0,2,.16,6.46.16,2.49,0,3.87-.16,4.51-.16a1.19,1.19,0,0,1,1.37.9Z"
         class="cls-1" />
      <path
         id="path52"
         d="M527.77,236.72c0-1.8-.32-2.76-3-3.18-.37,0-.47-.16-.47-.37v-.48c0-.16.1-.26.37-.37a43,43,0,0,0,5.72-2.59,2.09,2.09,0,0,1,1-.32c.26,0,.32.26.26.63-.1.9-.1,4.24-.1,8.64v5.78c0,2.06,0,4,0,4.55.11,1,.26,1.38.85,1.38h2.43c.43,0,.53.16.53.48v.9c0,.37-.1.53-.47.53s-2.86-.16-5.09-.16c-3.07,0-5.14.16-5.72.16-.27,0-.43-.11-.43-.42v-1.06c0-.32.16-.43.53-.43h2.6c.58,0,.79-.21.85-1.06,0-1.59,0-3.23,0-4.82Zm-2.38-16.16a2.94,2.94,0,0,1,3.23-2.76,2.63,2.63,0,0,1,2.75,2.6,2.87,2.87,0,0,1-3.07,2.91A3,3,0,0,1,525.39,220.56Z"
         class="cls-1" />
      <path
         id="path54"
         d="M539.49,239.32a14.93,14.93,0,0,0,2.7,8.05,6.82,6.82,0,0,0,5.78,2.7,7.28,7.28,0,0,0,5.83-2.27.27.27,0,0,1,.42,0l.53.53c.21.21.27.37,0,.68a12.27,12.27,0,0,1-8.53,3.77,9.67,9.67,0,0,1-8.21-3.71,11,11,0,0,1-2.39-7.21c0-6.2,4.35-12.45,11.34-12.45,5.51,0,7.21,3.18,7.21,4.29a1.8,1.8,0,0,1-2,1.85c-1.22,0-2.12-.69-2.92-2.12-1.16-2.17-2.28-2.33-3.55-2.33C542.72,231.1,539.49,233.86,539.49,239.32Z"
         class="cls-1" />
      <path
         id="path56"
         d="M559.29,238c0-2.7-.42-3.23-1.91-4l-1-.53c-.31-.11-.42-.16-.42-.37v-.32c0-.21.11-.32.42-.48l5.25-2.7a1.58,1.58,0,0,1,.74-.21c.32,0,.37.32.37.63l.27,3.66h.21c1.59-2.44,4.08-4.61,6.36-4.61a2.39,2.39,0,0,1,2.7,2.33,2.56,2.56,0,0,1-2.22,2.6,3.35,3.35,0,0,1-1.54-.43,3.45,3.45,0,0,0-1.75-.42,3.75,3.75,0,0,0-3.12,2.22,5.83,5.83,0,0,0-.54,1.7v11.13c0,1.64.38,2.17,1.49,2.17h2.49c.32,0,.37.16.37.48v.95c0,.32-.05.48-.26.48s-2.76-.16-5.62-.16c-3.29,0-5.51.16-5.83.16s-.32-.11-.32-.53v-.9c0-.37.11-.48.58-.48h2.07c.8,0,1.17-.32,1.17-1,0-1.75,0-3.61,0-6.36Z"
         class="cls-1" />
      <path
         id="path58"
         d="M574.45,249.12c-2.44-2.91-2.91-4.88-2.91-8.64a11.28,11.28,0,0,1,4.55-8.53,11.48,11.48,0,0,1,7.11-2.54,11.23,11.23,0,0,1,7.42,3.07,11.78,11.78,0,0,1,3.6,8.64,12.1,12.1,0,0,1-11.71,11.66A10.7,10.7,0,0,1,574.45,249.12Zm15.32-8.53c0-5.88-4.29-9.59-7-9.59a5.1,5.1,0,0,0-4.08,1.69c-2.06,2.12-2.81,4.29-2.81,8.32,0,3,.32,5,2,7.42a5.86,5.86,0,0,0,5.24,2.76C587.17,251.19,589.77,246.26,589.77,240.59Z"
         class="cls-1" />
      <path
         id="path60"
         d="M597.48,223.58c0-3.55-.58-4.3-2.49-4.93l-.53-.16c-.58-.16-.69-.26-.69-.42v-.43c0-.16.11-.26.42-.42a55,55,0,0,0,5.62-2.92,2.26,2.26,0,0,1,1.11-.47c.38,0,.48.26.43.9-.05.42-.05,6.46-.05,11.18v6.15a11.17,11.17,0,0,1,7.31-2.65c4.66,0,9.7,3.76,9.7,11.34,0,6.2-5,12-11,12A12.25,12.25,0,0,1,601,251.4l-2.12,1.16a.74.74,0,0,1-.69.16l-.63-.16c-.22-.05-.27-.15-.22-.42.11-.74.11-5.14.11-9Zm3.82,17.17c0,4.4.15,6,.79,7.68.53,1.27,2.76,2.65,5,2.65,3.18,0,7.11-2.17,7.11-9.11,0-5.14-2.71-10-7.9-10a7,7,0,0,0-5,1.91Z"
         class="cls-1" />
      <path
         id="path62"
         d="M622.92,236.72c0-1.8-.31-2.76-3-3.18-.37,0-.48-.16-.48-.37v-.48c0-.16.11-.26.37-.37a42.4,42.4,0,0,0,5.72-2.59,2.12,2.12,0,0,1,1-.32c.27,0,.32.26.27.63-.11.9-.11,4.24-.11,8.64v5.78c0,2.06,0,4,0,4.55.11,1,.27,1.38.85,1.38h2.44c.42,0,.53.16.53.48v.9c0,.37-.11.53-.48.53s-2.86-.16-5.09-.16c-3.07,0-5.14.16-5.72.16a.37.37,0,0,1-.42-.42v-1.06c0-.32.16-.43.53-.43H622c.59,0,.8-.21.85-1.06,0-1.59,0-3.23,0-4.82Zm-2.38-16.16a2.94,2.94,0,0,1,3.23-2.76,2.63,2.63,0,0,1,2.76,2.6,2.88,2.88,0,0,1-3.08,2.91A3,3,0,0,1,620.54,220.56Z"
         class="cls-1" />
      <path
         id="path64"
         d="M647.39,245.83c0,3,.64,4,1.59,4a2.43,2.43,0,0,0,1.86-.8c.21-.26.32-.37.53-.21l.53.43c.16.16.26.42-.06,1a4.36,4.36,0,0,1-4.13,2.6c-1.91,0-3.28-1.38-3.76-3.55h-.11a11.49,11.49,0,0,1-5.24,3.23,9.92,9.92,0,0,1-3.13.32c-1.27,0-3.18-1.06-3.18-4.4,0-2.44,1.11-4.56,5.3-6.41a35.49,35.49,0,0,0,6-3.08V235.5c-.11-.9-.16-2.28-.74-3a4,4,0,0,0-3.18-1.16,5.94,5.94,0,0,0-3.45,1.11c-.74.69-.26,1.48-.26,2.44,0,1.85-.64,3-2.81,3-.85,0-1.27-.48-1.27-1.7,0-1.69,1.48-3.71,3.65-5a11.74,11.74,0,0,1,6.47-1.85,5.45,5.45,0,0,1,4.24,1.43c1.11,1.11,1.16,2.33,1.16,3.76v11.23Zm-3.87-5.35c-1.9,1.43-7.1,2.49-7.1,6.89a2.61,2.61,0,0,0,2.76,2.92c1.54,0,4.34-1.86,4.34-3.29Z"
         class="cls-1" />
      <path
         id="path66"
         d="M660.68,236.35c0,2.75,0,10.76.05,12.4.06.9.27,1.64,1.38,1.64h2.39c.47,0,.58.16.58.48v.9c0,.32-.11.53-.32.53-.37,0-2.7-.16-6-.16s-5.51.16-6,.16c-.26,0-.37-.21-.37-.53v-.9c0-.37.11-.48.69-.48h2.55c.58,0,1.11-.37,1.16-1.32.06-1.65.06-10.76.06-13.83V231.9c0-3.76-.06-8.59-.16-10a3.18,3.18,0,0,0-2.65-3.18l-1.06-.38c-.27-.1-.32-.15-.32-.26v-.43c0-.15.16-.26.48-.37a48.06,48.06,0,0,0,6.2-3.07,1.91,1.91,0,0,1,1.11-.42c.37,0,.48.26.42.95,0,2.91-.21,13.94-.21,16.85Z"
         class="cls-1" />
      <path
         id="path68"
         d="M696,238.57c0-3.92-.75-4.92-1.59-5.72a5.75,5.75,0,0,0-3.39-.95,6.16,6.16,0,0,0-5.09,3.07,6.27,6.27,0,0,0-.74,3.55V249c0,.85.31,1.38,1.06,1.38h1.9c.48,0,.53.11.53.48v.85c0,.37,0,.58-.42.58s-1.91-.16-4.82-.16-4.51.16-4.93.16-.43-.11-.43-.48v-.95c0-.42.11-.48.64-.48h1.8c.48,0,.74-.32.8-1.32s.05-1.86.05-2.76v-9.43a2.67,2.67,0,0,0-1.48-2.7l-1.12-.59c-.26-.16-.37-.26-.37-.42v-.42a.68.68,0,0,1,.32-.43l4.66-2.38a2.72,2.72,0,0,1,1-.32c.32,0,.48.37.48.74l.21,3.07h.16a10.31,10.31,0,0,1,7.79-4,6.42,6.42,0,0,1,6,4.08h.26a10.49,10.49,0,0,1,7.79-4.08,6.31,6.31,0,0,1,4.77,1.59c1.22,1.27,2.55,2.43,2.55,6.52v11.81c0,.8.47,1.06,1.11,1.06h1.43c.48,0,.58.11.58.48v.9c0,.37-.1.53-.37.53s-1.85-.16-4.4-.16-4.55.16-4.92.16-.43-.16-.43-.53v-.9c0-.37.11-.48.69-.48h1.33a.94.94,0,0,0,1.05-1c.11-1.22.11-3.13.11-4.3v-7.84c0-1.75-.32-3.29-1.54-4.24a6.37,6.37,0,0,0-3.92-1.11,6,6,0,0,0-4.61,2.75c-.79,1.54-.74,3-.74,5.36v9.16c0,.69.26,1.22,1.06,1.22h1.8c.48,0,.58.11.58.48v.85c0,.42-.1.58-.37.58s-1.75-.16-4.71-.16-4.67.16-5,.16-.38-.16-.38-.53v-.85c0-.42.06-.53.53-.53h1.54c.85,0,1.17-.21,1.17-.9Z"
         class="cls-1" />
      <path
         id="path70"
         d="M721,249.12c-2.44-2.91-2.92-4.88-2.92-8.64A11.27,11.27,0,0,1,722.6,232a11.46,11.46,0,0,1,7.1-2.54,11.2,11.2,0,0,1,7.42,3.07,11.75,11.75,0,0,1,3.61,8.64A12.11,12.11,0,0,1,729,252.78,10.68,10.68,0,0,1,721,249.12Zm15.31-8.53c0-5.88-4.29-9.59-7-9.59a5.1,5.1,0,0,0-4.08,1.69c-2.07,2.12-2.81,4.29-2.81,8.32,0,3,.32,5,2,7.42a5.87,5.87,0,0,0,5.25,2.76C733.68,251.19,736.27,246.26,736.27,240.59Z"
         class="cls-1" />
      <path
         id="path72"
         d="M760,219.87c0-2-.37-2.65-3.34-3.13-.32-.05-.37-.16-.37-.37v-.9c0-.21.1-.32.42-.37,2.07-.43,4.82-.9,5.83-1.11a11.12,11.12,0,0,1,1.22-.16c.27,0,.32.37.27.95-.16,2.65-.22,10.33-.22,17.06v11.72c0,2,.11,4.29.53,4.82a3.94,3.94,0,0,0,2.33.9c.75.05,1,.11,1.06.37l.11.42a.46.46,0,0,1-.37.59l-6,2c-.32.11-.58,0-.69-.42l-.69-2.33a12.2,12.2,0,0,1-7.79,2.86,7.34,7.34,0,0,1-6.25-2.44c-2.7-2.65-3.34-5-3.34-8.59a12.62,12.62,0,0,1,3.71-9,10.65,10.65,0,0,1,7.9-3.34,20,20,0,0,1,5.67.79Zm0,16.8a5.22,5.22,0,0,0-.48-2.6c-.74-1.43-2.44-2.86-5.56-2.86a6.55,6.55,0,0,0-4.83,1.91,10.12,10.12,0,0,0-2.43,7c0,6,4.13,10.34,7.2,10.34s5.25-1.54,5.78-2.92a5.07,5.07,0,0,0,.32-1.8Z"
         class="cls-1" />
      <path
         id="path74"
         d="M772.1,238a14.23,14.23,0,0,0-.16,2.55c0,5.19,3.29,9.11,7.53,9.11a7.17,7.17,0,0,0,6.41-3.6.45.45,0,0,1,.48-.27l.69.38c.15,0,.26.21,0,.79-1,2.12-3.71,5.78-8.43,5.78-3,0-6.36-.9-8.32-3.77-1.86-2.7-2.33-4.66-2.33-8.37a11.9,11.9,0,0,1,3.34-8.42c2.28-2.34,4.92-2.81,7.58-2.81,6.09,0,7.78,5.72,7.78,7.79,0,.74-.63.84-1.48.84Zm8.43-1.59c1,0,1.43-.26,1.43-.74,0-1.22-.64-4.71-4.08-4.71-2.33,0-4.56,1.53-5.57,5.45Z"
         class="cls-1" />
      <path
         id="path76"
         d="M795.46,236.35c0,2.75,0,10.76.06,12.4.05.9.26,1.64,1.37,1.64h2.39c.48,0,.58.16.58.48v.9c0,.32-.1.53-.32.53s-2.7-.16-6-.16-5.52.16-6,.16c-.27,0-.37-.21-.37-.53v-.9c0-.37.1-.48.69-.48h2.54c.58,0,1.11-.37,1.16-1.32.06-1.65.06-10.76.06-13.83V231.9c0-3.76-.06-8.59-.16-10a3.18,3.18,0,0,0-2.65-3.18l-1.06-.38c-.27-.1-.32-.15-.32-.26v-.43c0-.15.16-.26.48-.37a47.43,47.43,0,0,0,6.2-3.07,1.93,1.93,0,0,1,1.11-.42c.37,0,.48.26.42.95,0,2.91-.21,13.94-.21,16.85Z"
         class="cls-1" />
      <path
         id="path78"
         d="M818,250.18c-.64-.48-1-.64-1.22-.64s-.53.38-.85.91-.58.63-.95.63-.58-.26-.48-.85c.21-1.32.74-8,.9-9.59.05-.32.16-.32.37-.32l.8.06c.21,0,.32.1.32.42a10.37,10.37,0,0,0,1.9,6.15,8.86,8.86,0,0,0,7.42,3.92c3.18,0,7.21-2,7.21-6.73,0-5.46-3.92-7.47-8.16-9-1.64-.58-5.46-1.91-7.74-4.29-1.75-1.75-2.65-4.24-2.65-7.74a10,10,0,0,1,3.29-6.78,10.55,10.55,0,0,1,7.42-2.54,15.33,15.33,0,0,1,6.25,1.32c.48.27.74.21,1-.05l.69-.64a1,1,0,0,1,.68-.32c.27,0,.43.43.43.91,0,1.85.69,7.26.74,8.42,0,.27,0,.37-.27.42l-.63.16a.22.22,0,0,1-.32-.16,12.86,12.86,0,0,0-3.28-5.88,7.44,7.44,0,0,0-5.78-2.28,6,6,0,0,0-6.41,6.21,6.43,6.43,0,0,0,1.64,4.61,16.84,16.84,0,0,0,6,3.18c3.66,1.16,6.62,2.06,8.53,4.39a10.36,10.36,0,0,1,2.34,7.21c0,6.25-3.82,11.61-10.82,11.61A13,13,0,0,1,818,250.18Z"
         class="cls-1" />
      <path
         id="path80"
         d="M837.06,263.85a2.35,2.35,0,0,1,2.44-2.06,9,9,0,0,1,2.44.58,1.27,1.27,0,0,0,1.11-.32c.8-.95,3.5-7,4.24-9.06-.26-1.33-5.88-17.86-6.31-19-.63-1.33-1.11-2.23-2.49-2.23h-1.37c-.38,0-.43-.16-.43-.48v-1.06c0-.21,0-.37.43-.37s1.75.16,4.87.16c2.7,0,4.35-.16,4.93-.16.42,0,.48.16.48.37v1.12c0,.26-.06.42-.32.42h-1c-.58,0-.79.37-.69,1.17.16,1.16,3.77,12.82,4.35,14h.21c.53-.85,5.14-11.82,5.46-13.14s-.11-2-.9-2h-.85c-.32,0-.37-.16-.37-.42v-1.06c0-.27.05-.43.32-.43.69,0,1.8.16,4.34.16,1.43,0,2.65-.16,3.24-.16.31,0,.31.22.31.43v1c0,.32,0,.48-.26.48h-.85a2.38,2.38,0,0,0-1.85,1c-1.17,1.43-4.67,9.48-8.32,17.8-2.6,5.88-4.67,10.81-5.62,12.56-.74,1.38-1.7,3.45-4.51,3.45C838.07,266.56,837.06,265.44,837.06,263.85Z"
         class="cls-1" />
      <path
         id="path82"
         d="M862.55,251.24c-.27-.16-.27-.48-.32-.74l-.9-5c-.06-.26.1-.37.31-.42l.69-.16c.22,0,.37.05.48.32l1.32,2.6c1.06,2,1.81,3.28,4.61,3.28,1.86,0,4.19-1.11,4.19-3.6s-1.16-3.76-5.14-4.88c-3.13-.9-6.25-2.54-6.25-6.73,0-3.65,3.44-6.46,7.42-6.46a9.82,9.82,0,0,1,4.87,1.11c.8.37.9.64,1,.95l.79,3.71a.49.49,0,0,1-.37.48l-.64.21c-.21.06-.31,0-.47-.26l-1.8-2.44a4.06,4.06,0,0,0-3.71-2.07c-2,0-4.08,1.22-4.08,3.5,0,3.07,2.49,3.66,5.08,4.4,3.87,1.11,6.31,2.7,6.36,6.78-.05,4.29-3.55,7-8.05,7A9.9,9.9,0,0,1,862.55,251.24Z"
         class="cls-1" />
      <path
         id="path84"
         d="M884.78,245.52c0,4,1.8,4.66,2.76,4.66a7.61,7.61,0,0,0,3.5-.69.43.43,0,0,1,.63.11l.27.47a.43.43,0,0,1-.11.59,8.91,8.91,0,0,1-5.88,2.12c-2.6,0-5.14-2.49-5.14-4.51,0-2.17.16-6.83.16-7.58v-1.16c0-1,0-4.51.1-6.73h-3.23c-.48,0-.79-.21-.79-.64s.31-.58,1-.95c1.27-.74,5.35-4.88,6-6.68a.71.71,0,0,1,.74-.53c.43,0,.53.37.53.8l-.26,5.24h7.36c.32,0,.48.27.37.48l-.53,1.85c0,.27-.15.43-.47.43h-6.84c-.11,2.44-.16,5-.16,7.42Z"
         class="cls-1" />
      <path
         id="path86"
         d="M896.35,238a13.33,13.33,0,0,0-.16,2.55c0,5.19,3.28,9.11,7.52,9.11a7.17,7.17,0,0,0,6.41-3.6.45.45,0,0,1,.48-.27l.69.38c.16,0,.27.21,0,.79-.95,2.12-3.71,5.78-8.43,5.78-3,0-6.35-.9-8.32-3.77-1.85-2.7-2.33-4.66-2.33-8.37a11.9,11.9,0,0,1,3.34-8.42c2.28-2.34,4.93-2.81,7.58-2.81,6.09,0,7.79,5.72,7.79,7.79,0,.74-.64.84-1.48.84Zm8.42-1.59c1,0,1.43-.26,1.43-.74,0-1.22-.63-4.71-4.08-4.71-2.33,0-4.56,1.53-5.56,5.45Z"
         class="cls-1" />
      <path
         id="path88"
         d="M930.23,238.57c0-3.92-.74-4.92-1.59-5.72a5.73,5.73,0,0,0-3.39-.95,6.17,6.17,0,0,0-5.09,3.07,6.35,6.35,0,0,0-.74,3.55V249c0,.85.32,1.38,1.06,1.38h1.91c.48,0,.53.11.53.48v.85c0,.37,0,.58-.43.58s-1.9-.16-4.82-.16-4.5.16-4.93.16-.42-.11-.42-.48v-.95c0-.42.11-.48.64-.48h1.8c.47,0,.74-.32.79-1.32s.06-1.86.06-2.76v-9.43a2.68,2.68,0,0,0-1.49-2.7l-1.11-.59c-.27-.16-.37-.26-.37-.42v-.42a.65.65,0,0,1,.32-.43l4.66-2.38a2.62,2.62,0,0,1,1-.32c.31,0,.47.37.47.74l.21,3.07h.17a10.27,10.27,0,0,1,7.78-4,6.42,6.42,0,0,1,6,4.08h.27a10.49,10.49,0,0,1,7.79-4.08,6.33,6.33,0,0,1,4.77,1.59c1.22,1.27,2.54,2.43,2.54,6.52v11.81c0,.8.48,1.06,1.11,1.06h1.43c.48,0,.59.11.59.48v.9c0,.37-.11.53-.37.53s-1.86-.16-4.4-.16-4.56.16-4.93.16-.42-.16-.42-.53v-.9c0-.37.1-.48.68-.48h1.33a1,1,0,0,0,1.06-1c.11-1.22.11-3.13.11-4.3v-7.84c0-1.75-.32-3.29-1.54-4.24a6.39,6.39,0,0,0-3.92-1.11,6,6,0,0,0-4.61,2.75c-.8,1.54-.75,3-.75,5.36v9.16c0,.69.27,1.22,1.07,1.22h1.8c.47,0,.58.11.58.48v.85c0,.42-.11.58-.37.58s-1.75-.16-4.72-.16-4.66.16-5,.16-.37-.16-.37-.53v-.85c0-.42,0-.53.53-.53h1.54c.84,0,1.16-.21,1.16-.9Z"
         class="cls-1" />
      <path
         id="path90"
         d="M954.32,251.24c-.26-.16-.26-.48-.32-.74l-.9-5c-.05-.26.11-.37.32-.42l.69-.16c.21,0,.37.05.48.32l1.32,2.6c1.06,2,1.8,3.28,4.61,3.28,1.86,0,4.19-1.11,4.19-3.6s-1.17-3.76-5.14-4.88c-3.13-.9-6.25-2.54-6.25-6.73,0-3.65,3.44-6.46,7.41-6.46a9.83,9.83,0,0,1,4.88,1.11c.79.37.9.64.95.95l.8,3.71a.51.51,0,0,1-.37.48l-.64.21c-.21.06-.32,0-.47-.26l-1.81-2.44a4,4,0,0,0-3.71-2.07c-2,0-4.08,1.22-4.08,3.5,0,3.07,2.49,3.66,5.09,4.4,3.87,1.11,6.31,2.7,6.36,6.78-.05,4.29-3.55,7-8.06,7A10,10,0,0,1,954.32,251.24Z"
         class="cls-1" />
      <path
         id="path92"
         d="M210.42,85.92c3.52-5.23,9.25-8,16.09-8S239,80.79,242.31,86c2.21,3.52,2.81,7,2.81,16.8V133.9H230V101.71c0-4.72-.3-6.53-1.3-8.34a8.59,8.59,0,0,0-7.45-3.93c-6.94,0-10.16,5.13-10.16,16.1V133.9H196V79.08h14.39Z"
         class="cls-1" />
      <path
         id="path94"
         d="M265.84,85.92c3.52-5.23,9.26-8,16.1-8s12.47,2.92,15.79,8.15c2.21,3.52,2.82,7,2.82,16.8V133.9H285.46V101.71c0-4.72-.3-6.53-1.31-8.34a8.57,8.57,0,0,0-7.44-3.93c-6.94,0-10.16,5.13-10.16,16.1V133.9H251.46V79.08h14.38Z"
         class="cls-1" />
      <path
         id="path96"
         d="M430.84,127.06c-3.62,5.23-9.25,8.05-16.09,8.05s-12.48-3-15.8-8.15c-2.21-3.52-2.81-7-2.81-16.8V79.08h15.09v32.19c0,4.73.3,6.54,1.31,8.35a8.36,8.36,0,0,0,7.44,3.92,9.41,9.41,0,0,0,8.15-4.73c1.51-2.41,2-5.43,2-11.36V79.08h15.09V133.9H430.84Z"
         class="cls-1" />
      <path
         id="path98"
         d="M481.73,96.58c-.31-5.83-2.82-8.25-9-8.25-4.63,0-7.54,2-7.54,5.34,0,2.41,1.81,3.92,5.93,5L482,101.51c10.86,2.82,15.79,7.85,15.79,16.1,0,11-9.15,17.9-23.84,17.9-16,0-25-7-25.15-19.91h15.39c-.1,5.83,3.22,8.85,9.56,8.85,5,0,8.35-2.11,8.35-5.33,0-3.42-2.72-5.23-10.16-6.84-10.06-2.12-13.68-3.52-17.1-6.64A15,15,0,0,1,450.14,95c0-10.76,9.05-17.5,23.34-17.5,14.58,0,23.13,7.14,23,19.11Z"
         class="cls-1" />
      <path
         id="path100"
         d="M602.26,85.92c3.52-5.23,9.26-8,16.1-8s12.47,2.92,15.79,8.15c2.21,3.52,2.82,7,2.82,16.8V133.9H621.88V101.71c0-4.72-.3-6.53-1.31-8.34a8.57,8.57,0,0,0-7.44-3.93c-6.94,0-10.16,5.13-10.16,16.1V133.9H587.88V79.08h14.38Z"
         class="cls-1" />
      <path
         id="path102"
         d="M661.91,79.08h16.4L689,120.62l10.87-41.54h16.09L697.32,133.9H680Z"
         class="cls-1" />
      <path
         id="path104"
         d="M768.6,117.21c-3.42,11.87-12.78,18.3-26.36,18.3-17.1,0-28-11.47-28-29.47,0-17,11.07-28.57,27.47-28.57,16.6,0,27,11.57,27,30,0,.6,0,2-.1,3.62H729.77c.4,8.05,5.13,12.68,12.77,12.68,5,0,8.45-2.22,10.06-6.54ZM753.1,100.1c-.2-6.73-4.82-11.26-11.26-11.26-6.84,0-10.87,3.82-12.17,11.26Z"
         class="cls-1" />
      <path
         id="path106"
         d="M773.32,79.08H787.7v7.14c2.92-5.43,8.36-8.45,15.2-8.45a10.12,10.12,0,0,1,4,.61V91.45a15,15,0,0,0-4.13-.5c-10.36,0-14.38,5.23-14.38,18.71V133.9H773.32Z"
         class="cls-1" />
      <path
         id="path108"
         d="M840,96.58c-.3-5.83-2.82-8.25-8.95-8.25-4.63,0-7.55,2-7.55,5.34,0,2.41,1.81,3.92,5.94,5l10.86,2.81c10.87,2.82,15.79,7.85,15.79,16.1,0,11-9.15,17.9-23.84,17.9-16,0-24.94-7-25.14-19.91h15.39c-.1,5.83,3.22,8.85,9.55,8.85,5,0,8.35-2.11,8.35-5.33,0-3.42-2.71-5.23-10.16-6.84-10.06-2.12-13.68-3.52-17.1-6.64A15,15,0,0,1,808.45,95c0-10.76,9.06-17.5,23.34-17.5,14.59,0,23.14,7.14,23,19.11Z"
         class="cls-1" />
      <path
         id="path110"
         d="M912.86,90.45H904V115c0,5.94,1.61,8.25,5.73,8.25.7,0,1.31-.1,3.12-.3v11.27a24.19,24.19,0,0,1-7.84.9c-6.34,0-10.67-1.91-13.39-6-2.11-3.12-2.71-6.24-2.71-13.48V90.45h-8V79.08h8V65.8H904V79.08h8.85Z"
         class="cls-1" />
      <path
         id="path112"
         d="M535.83,58.92v43.15c0,7.14,1,11.47,3.22,14.59a14.16,14.16,0,0,0,11.27,5.53,13.93,13.93,0,0,0,11.87-6.54c1.81-2.92,2.62-7.14,2.62-13.58V58.92H580.7v41.24c0,12.68-1.11,18-5,23.84-5.33,7.75-13.88,11.77-25.35,11.77S530.3,131.85,525,124c-3.93-5.83-5-11.06-5-23.84V58.92Z"
         class="cls-1" />
      <path
         id="path114"
         d="M330.91,77.42c9.26,0,14.79,2.72,19,9.26,4.42-6.64,9.45-9.26,17.5-9.26,15.19,0,25.35,11.68,25.35,29,0,1.21,0,2.11-.1,4H355.26c.2,8.65,4.63,14,11.77,14,4.53,0,8-2.41,9.76-6.73h15.89c-4.22,12.17-12.17,17.8-25.15,17.8-9.35,0-14.18-2.61-19.41-10.56-5.23,7.44-11.27,10.56-20.63,10.56-13.88,0-22.43-6.74-22.43-17.5,0-11.87,11.17-18.92,29.68-18.61l5.93.1h1.21c-.1-7.65-3.62-11.57-10.46-11.57-5.74,0-8.86,2.71-9.16,7.84H306.87C308.28,84.07,317,77.42,330.91,77.42Zm5.54,32.1c-10.47,0-16.1,2.71-16.1,7.94,0,4.13,3.52,6.94,8.75,6.94,7.75,0,12.28-5.12,13-14.58C339.57,109.62,337.55,109.52,336.45,109.52Zm41.44-9.46c-.6-7.75-4.62-12.07-11.26-12.07-6.24,0-10.47,4.52-11.17,12.07Z"
         class="cls-1" />
      <path
         id="path116"
         d="M967.73,79.08l-20.72,58c-4.23,12.08-9.86,16.71-20.22,16.71a36.07,36.07,0,0,1-9.76-1.31V141.25a20.34,20.34,0,0,0,6.64,1c4.93,0,8.25-2.92,9.46-8.65L913.81,79.08h16.5l10.56,38,10.76-38h16.1"
         class="cls-1" />
      <path
         id="path118"
         d="M124,58.76h15.89v60.68H170V133.9H124Z"
         class="cls-1" />
      <path
         id="path120"
         d="M174.79,79.08h15.09V133.9H174.79Z"
         class="cls-1" />
      <path
         id="path122"
         d="M190.63,65.12a8.3,8.3,0,1,1-8.29-8.29A8.29,8.29,0,0,1,190.63,65.12Z"
         class="cls-1" />
      <path
         id="path124"
         d="M643.17,79.08h15.09V133.9H643.17Z"
         class="cls-1" />
      <path
         id="path126"
         d="M659,65.12a8.3,8.3,0,1,1-8.29-8.29A8.29,8.29,0,0,1,659,65.12Z"
         class="cls-1" />
      <path
         id="path128"
         d="M860.7,79.08h15.09V133.9H860.7Z"
         class="cls-1" />
      <path
         id="path130"
         d="M876.53,65.12a8.29,8.29,0,1,1-8.28-8.29A8.29,8.29,0,0,1,876.53,65.12Z"
         class="cls-1" />
      <path
         id="path132"
         d="M1021.76,127.9c-5.62-5.31-8.35-14.36-8.35-21.85a29.66,29.66,0,0,1,8-20.68,27.19,27.19,0,0,1,19.51-7.88,32.41,32.41,0,0,1,15.76,4.29c1,.63,1.4.55,1.56,0l.62-2.26c.16-.47.31-.47,1-.47s.85.16.85,1.25c0,1.48,1.56,13,2,15.14.07.39,0,.7-.32.78l-1.17.31c-.39.08-.54,0-.78-.62a30.28,30.28,0,0,0-6.08-9.68c-3.28-3.35-7.42-6-13.58-6-14,0-19.58,12.41-19.51,23.8,0,4.52,1.41,13.34,7.49,20,5.31,5.93,9.76,6.56,15,6.56a23.86,23.86,0,0,0,19.27-9.91c.23-.39.39-.47.62-.24l1,.78c.23.16.39.31.15.7-4.68,6.79-12.25,13.11-23.25,13.11C1032.29,135.07,1026.44,132.19,1021.76,127.9Z"
         class="cls-1" />
      <path
         id="path134"
         d="M1073.78,113.15a20.64,20.64,0,0,0-.23,3.74c0,7.65,4.84,13.42,11.08,13.42a10.56,10.56,0,0,0,9.44-5.3.63.63,0,0,1,.7-.39l1,.54c.23.08.39.32,0,1.17-1.41,3.13-5.47,8.51-12.41,8.51-4.44,0-9.36-1.33-12.25-5.54-2.73-4-3.43-6.87-3.43-12.33a17.56,17.56,0,0,1,4.91-12.4c3.36-3.44,7.26-4.14,11.16-4.14,9,0,11.47,8.43,11.47,11.47,0,1.09-.93,1.25-2.18,1.25Zm12.41-2.34c1.48,0,2.11-.39,2.11-1.09,0-1.8-.94-7-6-7-3.43,0-6.71,2.26-8.19,8Z"
         class="cls-1" />
      <path
         id="path136"
         d="M1129.13,129.69c0,1.25.7,1.64,1.71,1.64h2.5c.7,0,.86.23.86.7v1.25c0,.54-.16.86-.63.86s-3-.24-7.41-.24c-4,0-6.47.24-7,.24s-.62-.24-.62-.86V132c0-.55.23-.7,1-.7h2.26c.86,0,1.48-.39,1.56-1.8.08-2,.16-4.52.16-6.55v-10.3c0-3.12,0-5.38-2.27-7-1.87-1.41-3.74-1.41-5.69-1.41a9.15,9.15,0,0,0-6.32,3,7.63,7.63,0,0,0-1.79,5.3v16.15c0,2.11.23,2.58,1.87,2.58h2c.62,0,.78.23.78.78v1.33c0,.46-.16.7-.55.7s-2.65-.24-6.79-.24c-4,0-6.47.24-6.94.24s-.54-.24-.54-.7V132c0-.47.15-.7.77-.7h2.27c1,0,1.56-.24,1.56-1.56V111.51c0-2.34-1.25-3.67-3.2-4.6l-.63-.32c-.54-.23-.62-.46-.62-.7v-.39c0-.39.31-.62.7-.78l6.71-3.74a4.28,4.28,0,0,1,1.41-.55c.39,0,.54.31.62.94l.55,4.76h.15c2.27-2.81,6.79-5.7,10.69-5.7a12,12,0,0,1,6.63,1.72c2.35,1.56,4.3,5.46,4.3,7.41Z"
         class="cls-1" />
      <path
         id="path138"
         d="M1143.81,124.15c0,5.85,2.65,6.87,4.06,6.87a11.13,11.13,0,0,0,5.15-1,.63.63,0,0,1,.93.16l.39.7c.24.31.08.62-.15.86a13.13,13.13,0,0,1-8.66,3.12c-3.83,0-7.57-3.67-7.57-6.63,0-3.2.23-10.07.23-11.16v-1.72c0-1.4.08-6.63.16-9.91h-4.76c-.7,0-1.17-.31-1.17-.93s.47-.86,1.4-1.41c1.88-1.09,7.88-7.17,8.9-9.83a1,1,0,0,1,1.09-.78c.62,0,.78.55.78,1.17l-.39,7.73h10.85c.46,0,.7.39.54.7l-.78,2.73c-.08.39-.23.62-.7.62H1144c-.15,3.59-.23,7.34-.23,10.93Z"
         class="cls-1" />
      <path
         id="path140"
         d="M1161.15,113.15c0-4-.63-4.76-2.81-5.93l-1.49-.78c-.46-.16-.62-.23-.62-.55v-.47c0-.31.16-.46.62-.7l7.73-4a2.37,2.37,0,0,1,1.09-.31c.47,0,.55.47.55.94l.39,5.38h.31c2.34-3.59,6-6.79,9.36-6.79,2.65,0,4,1.64,4,3.44a3.77,3.77,0,0,1-3.28,3.82,5,5,0,0,1-2.26-.63,5.11,5.11,0,0,0-2.57-.62,5.55,5.55,0,0,0-4.61,3.28,8.7,8.7,0,0,0-.78,2.49v16.39c0,2.42.55,3.2,2.19,3.2h3.67c.46,0,.54.23.54.7v1.41c0,.46-.08.7-.39.7-.47,0-4.06-.24-8.27-.24-4.84,0-8.11.24-8.58.24s-.47-.16-.47-.78V132c0-.55.15-.7.86-.7h3c1.17,0,1.72-.47,1.72-1.48.08-2.58.08-5.31.08-9.37Z"
         class="cls-1" />
      <path
         id="path142"
         d="M1185.38,113.15a19.74,19.74,0,0,0-.23,3.74c0,7.65,4.83,13.42,11.07,13.42a10.59,10.59,0,0,0,9.45-5.3.62.62,0,0,1,.7-.39l1,.54c.23.08.39.32,0,1.17-1.4,3.13-5.46,8.51-12.4,8.51-4.45,0-9.37-1.33-12.25-5.54-2.73-4-3.44-6.87-3.44-12.33a17.53,17.53,0,0,1,4.92-12.4c3.35-3.44,7.26-4.14,11.16-4.14,9,0,11.46,8.43,11.46,11.47,0,1.09-.93,1.25-2.18,1.25Zm12.4-2.34c1.49,0,2.11-.39,2.11-1.09,0-1.8-.94-7-6-7-3.43,0-6.71,2.26-8.19,8Z"
         class="cls-1" />
      <rect
         id="rect144"
         height="276.41"
         width="2.5"
         x="989.32"
         class="cls-1" />
      <path
         id="path146"
         d="M19.11,24.59A9.59,9.59,0,1,0,19,26.54a24.26,24.26,0,0,1,9.86,3.37c6.21,3.83,23.4,15.11,11.92,67-6.83,30.86-8.65,37-8.65,37H55.5s-3.8-18.56-4.19-47.2C52.77,34.88,36.71,27,19.11,24.59ZM83.43,67.45A9.56,9.56,0,1,0,93,77,9.56,9.56,0,0,0,83.43,67.45ZM63.37,74.6A9.56,9.56,0,1,0,53.81,65,9.56,9.56,0,0,0,63.37,74.6Zm.7,4.28a9.56,9.56,0,1,0,9.56,9.56A9.56,9.56,0,0,0,64.07,78.88Zm17.72-18a9.56,9.56,0,1,0-9.56-9.56A9.56,9.56,0,0,0,81.79,60.92Zm-11.71-19a9.56,9.56,0,1,0-9.56,9.56A9.56,9.56,0,0,0,70.08,41.91Zm-.65-13.79A9.56,9.56,0,1,0,79,18.57,9.56,9.56,0,0,0,69.43,28.12ZM95.56,57.57a5.6,5.6,0,1,0,5.6,5.59A5.59,5.59,0,0,0,95.56,57.57ZM46.83,11.19A5.6,5.6,0,1,0,41.24,5.6,5.6,5.6,0,0,0,46.83,11.19ZM27.42,21.33a5.6,5.6,0,1,0-5.6-5.59A5.59,5.59,0,0,0,27.42,21.33Zm-11.23,31a5.6,5.6,0,1,0-5.59,5.6A5.6,5.6,0,0,0,16.19,52.32ZM64.54,22.19A9.56,9.56,0,1,0,55,12.63,9.56,9.56,0,0,0,64.54,22.19Zm-18,12.2A9.56,9.56,0,1,0,37,24.83,9.56,9.56,0,0,0,46.55,34.39Zm-20.48-.9a9.56,9.56,0,1,0,9.56,9.56A9.56,9.56,0,0,0,26.07,33.49ZM23.26,65a9.56,9.56,0,1,0,9.56-9.56A9.56,9.56,0,0,0,23.26,65ZM11.43,60.56A9.56,9.56,0,1,0,21,70.12,9.56,9.56,0,0,0,11.43,60.56Zm26.9,26.7a9.56,9.56,0,1,0-9.56,9.55A9.56,9.56,0,0,0,38.33,87.26Z"
         class="cls-1" />
    </g>
  </g>
</svg>
