<?xml version="1.0" encoding="UTF-8" standalone="no"?>
<!-- Created with Inkscape (http://www.inkscape.org/) -->

<svg
   version="1.1"
   id="svg15690"
   width="425.85333"
   height="98.013336"
   viewBox="0 0 425.85333 98.013336"
   sodipodi:docname="MPI_Logo_GER_RGB_white.svg"
   inkscape:version="1.2 (1:1.2.1+202207142221+cd75a1ee6d)"
   xmlns:inkscape="http://www.inkscape.org/namespaces/inkscape"
   xmlns:sodipodi="http://sodipodi.sourceforge.net/DTD/sodipodi-0.dtd"
   xmlns="http://www.w3.org/2000/svg"
   xmlns:svg="http://www.w3.org/2000/svg">
  <defs
     id="defs15694" />
  <sodipodi:namedview
     id="namedview15692"
     pagecolor="#ffffff"
     bordercolor="#666666"
     borderopacity="1.0"
     inkscape:showpageshadow="2"
     inkscape:pageopacity="0.0"
     inkscape:pagecheckerboard="true"
     inkscape:deskcolor="#d1d1d1"
     showgrid="false"
     inkscape:zoom="3.4260622"
     inkscape:cx="213.21855"
     inkscape:cy="49.035888"
     inkscape:window-width="1920"
     inkscape:window-height="1163"
     inkscape:window-x="0"
     inkscape:window-y="0"
     inkscape:window-maximized="1"
     inkscape:current-layer="g15698">
    <inkscape:page
       x="0"
       y="0"
       id="page15696"
       width="425.85333"
       height="98.013336" />
  </sodipodi:namedview>
  <g
     id="g15698"
     inkscape:groupmode="layer"
     inkscape:label="Page 1"
     transform="matrix(1.3333333,0,0,-1.3333333,0,98.013333)">
    <g
       id="g15700"
       transform="scale(0.1)"
       style="fill:#ffffff">
      <path
         d="m 2879.3,114.59 c -168.65,0 -305.85,137.195 -305.85,305.859 0,168.621 137.2,305.821 305.85,305.821 168.63,0 305.84,-137.2 305.84,-305.821 0,-168.664 -137.21,-305.859 -305.84,-305.859 z m 0,620.476 c -173.5,0 -314.65,-141.14 -314.65,-314.617 0,-173.508 141.15,-314.64 314.65,-314.64 173.49,0 314.64,141.132 314.64,314.64 0,173.477 -141.15,314.617 -314.64,314.617"
         style="fill:#ffffff;fill-opacity:1;fill-rule:nonzero;stroke:none"
         id="path15702" />
      <path
         d="m 3086.02,369.258 c -9.76,-8.633 -24.75,-9.336 -30.82,-14.856 -3.16,-2.879 -4.59,-7.402 -1.17,-15.488 1.96,-4.648 3.32,-5.223 -3.38,-7.012 -10.87,-2.91 -12.36,-17.187 -26.21,-14.57 -5.55,1.047 -1.56,-2.5 0.43,-2.695 7.93,-0.742 11.06,1.484 13.85,4.093 2.77,2.598 6.48,7.286 10.74,8.895 4.38,1.66 8.82,1.555 8.9,-1.738 0.05,-2.508 -5.48,-6.485 -7.82,-7.567 2.84,-1.476 11.51,-5.879 4.11,-10.91 -5.77,-3.914 -13.71,1.516 -14.86,2.188 -1.7,0.988 -4.97,0.488 -3.89,-0.828 4.28,-5.235 15.77,-3.868 13.71,-6.641 -10.6,-14.25 -1.97,-22.57 -5.19,-36.887 -3.27,-14.519 -23.13,-22.469 -38.44,-25.234 -52.02,-9.383 -102.63,34.875 -132.29,68.234 2.7,6.328 2.35,14.598 -0.35,11.66 -2.56,-2.773 -2.14,-7.394 -8.32,-8.957 -11.93,-3.007 -17.06,17.696 -20.76,21.321 -14.49,14.199 -20.24,34.257 -11.58,51.797 8.74,17.722 26.9,14.167 34.15,3.445 9.02,-13.328 4.85,-20.906 9.96,-24.891 7.19,-5.597 14.43,-0.597 16.37,-0.07 5.48,1.496 5.06,-12.977 23.75,-12.305 20.11,0.723 17.83,31.992 20.67,34.766 25.81,25.156 12.63,47.609 7.94,52.832 -1.26,1.398 2.87,10.637 4.39,10.976 15.16,3.352 23.71,13.028 28.33,23.262 0,0 25.16,0.422 34.12,18.547 2.39,4.852 9.8,-4.668 26.61,8.535 1.9,1.492 3.67,0.781 4.39,-0.957 10.8,-26.484 15.34,-33.801 14.51,-47.305 -0.61,-9.816 26.2,-64.316 28.15,-69.023 2.18,-5.254 2.5,-10.41 0,-12.617 z M 2966.59,231.211 c -7.66,-26.484 -11.51,-37.063 -0.01,-65.82 1.52,-3.821 2.67,-6.7 -0.68,-6.125 -23.15,3.976 -28.15,7.773 -100.83,1.613 -5.24,-0.441 1.7,10.137 0.84,17.344 6.65,0.847 17.25,3.886 19.51,14.695 2.72,13.117 -6.42,22.746 -5.45,24.629 10.3,20.098 -0.67,42.363 -9.39,79.687 -0.81,3.496 1.21,5.02 2.75,3.371 46.71,-50.546 76.46,-60.597 92.55,-65.371 1.59,-0.468 1.27,-2.296 0.71,-4.023 z m -141.57,-70.039 c -4.79,1.191 -17.99,22.207 -7.25,47.273 1.14,2.657 17.61,1.008 20.37,0.176 2.76,-0.828 -2.26,-20.547 20.36,-29.277 2.32,-0.899 -0.1,-26.453 -33.48,-18.172 z m -33.99,12.598 c -2.49,11.023 -3.48,30.136 1.1,34.382 0.9,0.84 14.61,2.813 14.36,-0.32 -1.05,-13.164 -6.37,-27.863 3.65,-42.5 3.74,-5.48 -15.76,-6.348 -19.11,8.438 z m 80.87,13.007 c -17.81,-6.172 -24.84,14.657 -21.91,19.149 1.76,2.695 13,-3.067 21.76,2.578 6.74,4.348 10.46,-18.152 0.15,-21.727 z m -105.19,29.578 c -1.03,5.95 4.69,11.661 4.58,24.629 -0.16,15.918 -19.78,37.746 -33.08,51.77 6.24,0.008 14.41,1.484 23.58,5.73 19.79,9.161 23.68,30.196 24.24,31.055 0.27,0.391 -4.42,1.32 -11.16,1.406 0.72,0.364 1.45,0.723 2.19,1.125 19.35,10.371 24.42,32.813 23.5,33.301 -0.37,0.203 -5.19,0.957 -11.94,0.781 1.88,0.633 3.84,1.348 5.85,2.149 20.48,8.133 26.2,30.926 25.47,31.66 -0.31,0.32 -4.42,1.141 -10.37,1.297 1.8,0.703 3.66,1.515 5.55,2.453 18.7,9.285 25.18,30.184 24.21,30.879 -0.42,0.301 -4.22,1.035 -9.74,1.121 4.16,0.91 8.71,2.297 13.49,4.394 20.03,8.77 26.51,27.942 25.64,28.75 -0.37,0.352 -3.77,1.29 -8.87,1.711 3.99,0.887 8.36,2.118 13.02,3.711 19.81,6.766 27.82,25.703 26.64,25.809 -2.68,0.254 -6.36,1.555 -11.13,2.383 5.4,0.351 11.69,1.34 19.57,4.004 21.4,7.238 28.99,20.117 29.37,25.715 0.02,0.359 -2.56,1.484 -6.73,2.402 4.9,0.887 9.83,2.098 13.89,3.75 19.99,8.094 28.3,27.734 28.96,29.355 3.64,1.192 7.55,2.664 11.65,4.52 2.08,0.949 3.99,1.945 5.75,2.98 0.97,-0.742 2.54,-1.855 4.85,-3.351 3.03,-1.942 4.09,-2.391 2.6,-3.672 -68.02,-57.949 -118.99,-131.133 -141.23,-166.707 -0.63,-0.996 -1.8,-0.82 -3.68,-0.695 -23.83,1.582 -37.34,-26.778 -26.67,-53.36 -1.35,-5.41 -12.66,-15.847 -13.51,-16.601 -0.86,-0.762 -3.13,-4.082 0.73,-3.731 5.57,0.5 12.68,9.414 16.08,13.418 1.41,-1.758 6.65,-6.121 4.13,-8.594 -20.26,-19.871 -40.3,-30.566 -41.87,-31.328 -7.57,-3.699 12.66,-6.258 47.13,24.903 2.03,1.836 4.43,-7.188 7.51,-11.055 -5.92,-19.539 8.67,-57.254 6.41,-69.09 -0.4,-2.07 -1.64,-7.922 -8.53,-8.059 -34.16,-0.703 -37.51,0.86 -54.89,-4.257 -8.11,-2.391 -5.98,-7.743 -0.09,-6.141 6.66,1.805 13.65,4.512 50.65,2.195 9.03,-0.554 19.36,1.836 19.43,17.102 0.06,13.836 -10.94,55.098 -7.23,60.742 4.91,-3.691 8.47,-3.84 10.33,-4.172 -0.48,-13.457 21.19,-56.941 11.54,-80.926 -3.59,-8.906 -19.32,-8.242 -46.23,-5.578 -45.81,4.532 -60.66,-5.371 -61.59,0.117 z m -0.87,-33.113 c -1.96,7.899 -1.18,18.778 1.52,21.699 5.19,2.539 14.69,3.504 14.85,0.477 0.26,-4.832 -3.27,-16.309 0.88,-30.613 -0.95,-2.246 -13.9,-1.282 -17.25,8.437 z m -15.65,139.188 c 11.57,5.488 28.82,4.172 27.87,3.41 -0.94,-0.754 -5.49,-17.52 -18.52,-24.063 -13.02,-6.535 -21.63,-4.777 -26.32,-3.886 7.02,7.675 5.55,19.101 16.97,24.539 z m -24.03,-21.59 c -3.9,3.699 -12.34,13.015 -13.16,25.027 -0.03,0.598 -0.05,1.164 -0.04,1.75 -0.04,12.91 5.66,25.606 7.09,27.031 1.42,1.415 15.98,-9.914 16.21,-26.152 0.19,-14.082 -6.26,-22.18 -10.1,-27.656 z m -10.62,-16.719 c -0.05,-0.039 -0.08,-0.09 -0.12,-0.129 -32.24,37.969 -49.24,85.012 -49.24,136.457 0,117.508 95.59,213.106 213.12,213.106 31.01,0 60.8,-6.477 88.68,-19.258 -3.67,-1.711 -7.89,-4.211 -12.24,-7.785 -24.53,10.39 -49.23,15.273 -76.44,15.273 -111.02,0 -201.36,-90.32 -201.36,-201.336 0,-48.156 15.03,-90.469 44.45,-125.976 -1.71,-2.578 -4.09,-6.211 -6.85,-10.352 z m -0.43,-74.465 c -64.79,51.614 -103.56,129.532 -103.56,210.793 0,147.617 120.1,267.735 267.75,267.735 43.07,0 86.28,-10.793 124.2,-30.547 0.76,-0.403 0.88,-1.438 0.24,-2.004 -11.15,-9.727 -26.61,-28.817 -30.51,-34.141 -29.47,13.801 -61.04,20.852 -93.93,20.852 -122.36,0 -221.93,-99.543 -221.93,-221.895 0,-54.601 18.51,-104.406 53.41,-144.375 -2,-4.648 -5.57,-14.816 -5.57,-28.273 0,-11.133 2.06,-23.946 9.9,-38.145 z m 198.76,327.258 c -1.57,1.094 12.79,17.149 24.47,21.59 11.42,4.348 23.77,3.547 24.76,2.98 1,-0.566 -7.48,-14.472 -21.27,-20.058 -12.96,-5.254 -26.39,-5.606 -27.96,-4.512 z m -36.32,-29.512 c 0.21,0.848 12.1,17.598 24.35,21.844 11.66,4.035 25.92,1.328 27.45,0.684 1.54,-0.633 -8.25,-15.242 -23.23,-19.746 -13.47,-4.043 -28.78,-3.641 -28.57,-2.782 z m -35.96,-34.132 c -0.79,0.39 10.03,18.828 22.18,23.507 11.61,4.453 23.11,0.418 26.64,0.184 2.84,-0.184 -3.98,-13.543 -19.91,-19.422 -13.28,-4.894 -26.88,-5.266 -28.91,-4.269 z m -32.05,-35.43 c -0.96,0.723 13.21,19.258 25.03,24.726 10.4,4.805 23.98,3.789 25.12,3.039 1.14,-0.761 -5.53,-16.367 -19.24,-22.363 -13.07,-5.722 -29.96,-6.133 -30.91,-5.402 z m -26.73,-35.82 c 0.57,1.386 10.55,19.328 22.27,24.824 11.64,5.449 25.69,4.297 26.65,3.984 0.95,-0.312 -5.35,-16.172 -18.66,-22.773 -13.15,-6.532 -30.83,-7.422 -30.26,-6.035 z m -20.58,-35.34 c 0.86,4.55 9,19.629 21.23,25.078 v 0 c 12.26,5.457 26.46,5.058 28.07,4.394 1.61,-0.664 -5.1,-16.738 -17.44,-22.648 -13.81,-6.609 -19.34,-2.754 -31.86,-6.824 z m 1.05,-10.137 c 13.72,5.965 28.7,5.047 29.32,4.461 0.64,-0.574 -4.37,-17.449 -17.71,-24.609 -13.33,-7.137 -28.36,-7.801 -29.72,-6.102 -0.76,0.945 4.39,20.281 18.11,26.25 z m -21.82,37.617 c 5.27,-2.656 11.63,-10.332 12.23,-24.543 0.59,-14.265 -9.62,-26.336 -13.62,-28.242 -2.78,10.898 -8.05,13.184 -7.95,24.004 0.1,11.816 6.1,24.797 9.34,28.781 z m 36.23,18.758 c -0.29,-18.289 -11.78,-29.012 -15.2,-32.41 -2.13,3.633 -6.32,12.957 -6.6,22.742 -0.56,18.859 7.23,25.547 10.61,29.191 1.61,-5.402 11.34,-9.679 11.19,-19.523 z m 25.6,38.371 c 0,-3.527 -0.44,-5.527 -1.45,-8.984 -3.78,-13.008 -11.45,-18.489 -15.62,-24.367 -1.67,3.847 -4.75,9.308 -4.77,17.558 -0.04,15.723 9.54,29.133 15.55,33.359 2.27,0.098 6.29,-9.472 6.29,-17.566 z m 25.11,19.805 c -5.3,-11.555 -8.72,-11.934 -14.88,-19.141 -1.05,-1.242 -5.67,10.996 -1.2,26.356 3.58,12.304 11.82,16.855 15.8,21.027 1.57,1.641 5.93,-15.957 0.28,-28.242 z m 30.91,32.031 c -5.21,-9.102 -9.95,-7.012 -18.63,-19.922 -0.96,-1.426 -3.25,10.672 1.94,27.02 4.02,12.609 16.42,20.441 17.74,20.754 1.99,0.476 5.15,-17.043 -1.05,-27.852 z m 33.19,30.223 c -10.14,-15.118 -10.72,-9.95 -21.81,-24.727 -0.61,-0.82 -0.83,19.289 3.13,28.137 6.24,13.965 17.07,22.176 18.68,22.461 1.61,0.281 5.59,-17.531 0,-25.871 z m 30.35,22.511 c -8.27,-6.718 -12.04,-11.171 -16.88,-19.043 -1.64,-2.675 -5.65,14.903 5.11,31.778 6.59,10.34 19.72,19.617 19.43,18.386 -0.95,-4.121 6.36,-19.753 -7.66,-31.121 z m 27.67,39.043 c 8.54,10.106 23.02,18.243 24.64,17.246 1.66,-1.027 -2.43,-16.652 -11.77,-25.839 -9.45,-9.297 -24.05,-18.34 -25.75,-18.235 -1.7,0.11 5.21,17.727 12.88,26.828 z M 2728.54,356.16 c -4.31,4.973 -8.33,7.707 -8.75,7.414 -1.2,-0.84 -8.2,-12.812 -10.62,-26.789 -13.65,26.074 -21.19,52.442 -22.43,83.664 -4.17,106.082 84.67,191.512 193.08,191.133 24.74,-0.09 45.07,-4.66 67.29,-13.684 -4.97,-6.21 -8.59,-13.66 -11.04,-19.902 -0.11,5.754 -1.62,10.227 -1.2,13.809 0.26,2.218 -15.35,-2.645 -29.23,-24.735 -3.21,-5.117 -5.21,-10.781 -6.45,-15.996 -0.3,8.281 -2.24,14.735 -2.81,14.578 -1.42,-0.379 -17.25,-6.914 -25.5,-26.25 -1.45,-3.386 -2.5,-6.882 -3.29,-10.273 -0.68,5.898 -2.2,9.777 -2.68,9.758 -1.05,-0.039 -17.64,-6.867 -25.81,-26.739 -1.91,-4.621 -2.91,-9.347 -3.38,-13.73 -1.48,6.914 -4.15,11.152 -5,10.078 -5.72,-7.266 -16.91,-10.488 -22.85,-28.801 -1.41,-4.304 -1.97,-8.601 -2.03,-12.605 -2.46,6.191 -5.93,9.765 -6.72,9.598 -1.62,-0.34 -18.53,-16.407 -21.06,-32.598 -0.99,-6.387 -0.53,-12.313 0.45,-17.293 -3.22,5.215 -7.52,9.043 -9.26,14.355 -2.65,-1.418 -16.97,-14.875 -17.43,-32.109 -0.18,-6.699 0.82,-13 2.2,-18.313 -4.76,8.645 -11.51,12.696 -12.26,12.239 -1.24,-0.762 -11.92,-12.317 -14.4,-33.067 -0.59,-4.863 0.01,-9.523 1.18,-13.742 z m 249.58,234.485 c 10.83,4.871 21.31,4.949 22.43,4.812 2.46,-0.293 -5.47,-14.394 -19.61,-20.457 -14.57,-6.262 -25.45,-7.395 -26.69,-6.777 -1.86,0.918 12.35,17.226 23.87,22.422 z m -96.4,-222.149 c -2.96,0.645 -4.08,6.445 -3.47,8.731 1.34,5.097 9.16,15.625 11.98,19.316 0.7,0.918 2.14,0.066 2.3,-1.035 1.7,-12.227 -0.01,-29.387 -10.81,-27.012 z m 57.71,76.766 c -6.46,-4.383 -15.77,1.562 -13.92,4.218 12.01,17.122 28,29.043 34.4,33.02 10.27,6.395 11.37,6.844 11.9,3.23 0.33,-2.175 0.44,-13.378 -7.85,-22.468 -6.86,-7.551 -13.76,-6.914 -17.3,-7.707 -2.4,-0.535 -2.25,-6.914 -7.23,-10.293 z m -18.17,-87.196 c -12.05,-7.394 -18.6,6.727 -20.31,9.2 -0.73,1.062 -2.64,4.168 -1.61,9.472 0.82,4.18 1.53,9.852 -1.23,27.86 -1.2,7.922 15.18,27.558 18.86,30.996 3.84,3.566 9.4,-1.778 9.76,-7.578 0.69,-11.024 -5.49,-16.825 -11.81,-21.524 -7.76,-5.781 -9.23,-13.289 -7.76,-15.301 0.58,-0.781 4.06,-0.812 5.59,2.45 4.67,9.941 18.02,14.953 20.15,20.156 3.33,8.125 0.89,13.351 0.56,16.769 -0.28,2.989 2.64,3.739 4.84,3.418 2.84,-0.429 4.1,-4.289 5.54,-8.039 8.63,-22.48 -13.08,-36.074 -16.58,-41.394 -1.62,-2.461 3.36,-20.742 -6,-26.485 z m 60.82,136.661 c -0.62,3.601 25.59,12.421 26.5,9.812 1.68,-4.812 -5.41,-17.742 -14.19,-20.976 -9.96,-3.672 -14.11,-2.579 -13.73,-1.153 0.69,2.598 1.99,8.996 1.42,12.317 z m 61.84,16.015 c -3.08,-8.82 -27.46,-16.652 -26.31,-10.461 0.52,2.805 0.06,6.485 1.92,6.797 2.7,0.469 10.41,3.156 22.38,6.223 1.2,0.301 2.77,-0.371 2.01,-2.559 z m -24.62,64.988 c 3.58,2.258 7.43,3.215 9.69,0.969 7.86,-7.765 -8.52,-12.129 -5.12,-18.097 5.6,-9.793 14.51,-19.161 22.37,-25.204 3.7,-2.851 4.24,-9.25 -9.89,-12.179 -14.21,-2.938 -70.82,-17.852 -100.68,-49.492 -37.39,-39.618 -61.15,-90.938 -64.39,-83.875 -3.28,7.109 -10.77,8.25 -9.59,10.273 53.68,92.5 137.82,165.156 157.61,177.605 z M 2758.61,198.289 c -2.12,-0.418 -8.91,-0.684 -7.39,8.242 0.94,5.508 6.92,7.824 9.95,4.688 -0.65,-4.278 -2.12,-8.457 -2.56,-12.93 z m 305.3,246.203 c -4.35,9.102 -1.36,15.078 -2.66,21.738 -0.96,4.903 -8.27,21.083 -12.92,32.286 -2.2,5.273 11.28,3.984 1.32,23.027 -0.28,0.574 13.84,5.781 -0.28,16.492 -7.91,5.996 -13.46,13.36 -17.82,20 -0.61,0.918 -1.18,2.746 0.1,3.887 7.98,7.09 8.14,17.305 -0.52,22.531 -6.26,3.77 -13.45,-0.058 -20.05,-4.336 -2.18,-1.418 -3.27,-2.277 -5.55,-1.347 -1.15,0.468 -3.38,2.039 -5.39,3.418 8.16,7.871 9.74,15.644 9.1,16.941 -0.43,0.871 -13.81,3.879 -30.39,-2.977 -0.36,0.203 -0.75,0.418 -1.17,0.645 6.82,11.805 2.99,20.137 2.48,20.703 -0.01,0.008 -0.03,0.02 -0.04,0.02 12.43,17.343 24.76,28.886 36.95,39.968 0,0 0.26,0.293 0.27,0.293 0.79,0.801 1.08,1.699 -0.43,2.649 -1.28,0.808 -1.64,0.996 -3.2,1.855 -40.84,22.735 -87.4,34.688 -134.41,34.688 -152.49,0 -276.53,-124.063 -276.53,-276.524 0,-88.351 44.82,-173.554 118.08,-226.484 4.88,-3.527 8.26,-4.875 8.26,-4.875 1.22,-0.418 2.47,-0.41 3.24,0.586 l 1.08,1.426 c 0.7,0.898 0.97,1.757 0.97,2.539 0,2.023 -2.93,3.828 -6.35,8.906 -9.9,14.699 -14.28,31.398 -14.28,45.391 0,15.292 4.66,29.218 13.61,40.832 11.04,-11.504 35.12,-32.657 34.59,-51.887 -0.59,-21.61 -20.79,-20.547 -16.44,-36.746 2.74,-10.176 10.35,-5.977 11.66,-13.692 2.28,-13.371 20.25,-21.906 28.08,-20.734 1.89,0.285 3.51,-1.289 7.26,-5.098 5.34,-5.418 18.49,-4.687 24.32,-3.621 5.55,1.016 12.52,-4.054 24.12,-2.773 14.51,1.601 18.22,2.722 24.41,2.812 10.49,0.157 67.54,1.004 108.1,-5.351 7,-1.094 9.21,2.058 6.08,7.508 -14.7,25.605 -16.74,47.343 -8.26,74.726 14.98,-1.016 36.51,-5.066 64.87,11.984 10.07,6.043 15.69,18.934 15.2,28.536 -0.32,6.23 -3.04,14.121 -1.43,20.195 2.17,8.152 3.75,7.969 6.11,9.617 10.83,7.617 3.01,13.664 1.34,14.277 3.27,1.329 6.86,8.45 3.08,13.743 -1.94,2.058 -7.84,18.64 -1.04,22.089 7.34,3.731 15.72,5.313 24.16,9.012 5.8,2.422 10.43,9.192 7.12,18.164 -3.97,10.793 -26.12,61.543 -26.8,62.961"
         style="fill:#ffffff;fill-opacity:1;fill-rule:nonzero;stroke:none"
         id="path15704" />
      <path
         d="m 3025.47,465.262 c -14.65,-0.547 -31.66,-18.485 -37.22,-20.977 -5.83,-2.617 -3.75,-4.265 -0.36,-3.027 7.29,2.656 17.68,13.801 32.04,18.984 11.34,4.094 10.59,-5.234 14.85,-4.715 1.99,0.235 -0.85,10.047 -9.31,9.735"
         style="fill:#ffffff;fill-opacity:1;fill-rule:nonzero;stroke:none"
         id="path15706" />
      <path
         d="m 3023.38,423.172 c -0.67,-2.734 -16.35,-1.484 -24.88,-0.742 -2.03,0.175 -5.44,0.488 1.07,4.375 5.11,3.047 12.15,8.203 21.35,9.98 0.76,0.149 2.23,-0.086 2.61,-1.805 0.95,-4.308 0.53,-9.003 -0.15,-11.808 z m 5.4,27.726 c -1.21,-0.285 1.28,-6.543 -5.09,-6.933 -13.77,-0.852 -24.68,-13.887 -33.08,-17.805 -8.39,-3.906 -10.13,-3.847 -11.38,-4.18 -1.13,-0.3 -0.71,-1.738 0.22,-1.863 35.12,-4.687 48.6,-3.41 48.91,-2.129 0.56,2.41 -1.97,3.621 -1.44,5.176 1.32,3.914 1.98,11.316 0.48,16.406 -0.65,2.403 5.19,0.801 5.19,4.032 0,1.75 -1.75,7.793 -3.81,7.296"
         style="fill:#ffffff;fill-opacity:1;fill-rule:nonzero;stroke:none"
         id="path15708" />
      <path
         d="m 3069.23,373.164 c -2.69,0.039 -13.5,-4.902 -17.56,-7.492 -2.35,-1.492 -13.34,-8.27 -12.55,2.453 0.27,3.758 2.71,13.074 2.65,15.625 -0.09,3.867 -3.2,2.344 -3.26,0.047 -0.12,-5.379 -1.21,-9.473 -2.31,-15.781 -0.95,-5.399 3.74,-12.078 11.03,-8.192 6.06,3.223 14.32,8.77 21.63,10.164 1.87,0.364 2.21,3.145 0.37,3.176"
         style="fill:#ffffff;fill-opacity:1;fill-rule:nonzero;stroke:none"
         id="path15710" />
      <path
         d="m 2865.85,334.793 c -2.08,0.781 -1.51,-3.504 -4.32,-3.035 -3.68,0.625 -0.6,3.933 -5.38,9.012 -2.38,2.519 -8.38,3.585 -12.79,10.656 -7.01,11.191 -0.99,36.133 9.23,32.558 5.69,-1.992 4.69,-15.214 2.98,-24.171 -1.04,-5.516 7.54,-8.243 8.31,-6.309 1.31,3.242 -3.15,2.93 -4.18,5.891 -1.57,4.539 10.52,22.742 -5.27,28.007 -11.53,3.848 -19.12,-10.664 -17.73,-26.73 1.17,-13.543 10.17,-19.129 15.33,-21.043 6.94,-2.578 1.68,-12.09 11.05,-12.141 4.15,-0.019 5.01,6.465 2.77,7.305"
         style="fill:#ffffff;fill-opacity:1;fill-rule:nonzero;stroke:none"
         id="path15712" />
      <path
         d="m 2958.1,634.98 c 0.49,-0.187 1.05,-0.031 1.37,0.391 l 19.5,24.668 c 0.51,0.645 0.26,1.582 -0.49,1.895 -1.09,0.449 -2.19,0.886 -3.3,1.316 -0.51,0.195 -1.07,0.039 -1.41,-0.379 l -19.59,-24.777 c -0.52,-0.653 -0.24,-1.621 0.55,-1.903 1.13,-0.402 2.25,-0.8 3.37,-1.211"
         style="fill:#ffffff;fill-opacity:1;fill-rule:nonzero;stroke:none"
         id="path15714" />
      <path
         d="m 2921.91,645.039 c 1.12,-0.215 2.24,-0.441 3.36,-0.676 0.58,-0.117 1.15,0.188 1.38,0.735 l 11.41,28.25 c 0.29,0.695 -0.12,1.484 -0.86,1.652 -1.27,0.281 -2.53,0.547 -3.8,0.809 -0.34,0.07 -0.69,-0.106 -0.82,-0.438 -1.45,-3.586 -9.4,-23.273 -11.58,-28.683 -0.29,-0.723 0.15,-1.512 0.91,-1.649"
         style="fill:#ffffff;fill-opacity:1;fill-rule:nonzero;stroke:none"
         id="path15716" />
      <path
         d="m 2881.7,648.984 c 1.13,-0.011 2.26,-0.031 3.39,-0.058 0.64,-0.02 1.19,0.469 1.24,1.101 l 2.83,29.993 c 0.06,0.703 -0.48,1.308 -1.18,1.335 -1.15,0.032 -2.29,0.059 -3.43,0.09 -0.65,0.008 -1.18,-0.48 -1.24,-1.113 l -2.82,-30.019 c -0.06,-0.715 0.49,-1.321 1.21,-1.329"
         style="fill:#ffffff;fill-opacity:1;fill-rule:nonzero;stroke:none"
         id="path15718" />
      <path
         d="m 2842.61,646.055 c 1.13,0.175 2.24,0.34 3.36,0.508 0.69,0.105 1.16,0.75 1.03,1.433 l -5.72,29.563 c -0.12,0.644 -0.74,1.082 -1.38,0.984 -1.13,-0.176 -2.26,-0.352 -3.38,-0.535 -0.68,-0.117 -1.13,-0.762 -1,-1.438 l 5.71,-29.55 c 0.12,-0.645 0.74,-1.075 1.38,-0.965"
         style="fill:#ffffff;fill-opacity:1;fill-rule:nonzero;stroke:none"
         id="path15720" />
      <path
         d="m 2802.71,636.922 c 0.27,-0.547 0.91,-0.809 1.5,-0.606 1.07,0.372 2.14,0.743 3.23,1.106 0.7,0.234 1.03,1.035 0.7,1.699 l -13.52,27.156 c -0.28,0.547 -0.93,0.813 -1.51,0.618 -1.08,-0.383 -2.17,-0.774 -3.24,-1.165 -0.69,-0.242 -1.01,-1.035 -0.68,-1.687 l 13.52,-27.121"
         style="fill:#ffffff;fill-opacity:1;fill-rule:nonzero;stroke:none"
         id="path15722" />
      <path
         d="m 2765.43,619.688 c 0.38,-0.43 1.01,-0.54 1.52,-0.254 1,0.574 2,1.132 3.02,1.687 0.68,0.371 0.85,1.281 0.33,1.867 l -20.23,23.125 c -0.4,0.438 -1.04,0.547 -1.55,0.242 -0.99,-0.585 -1.99,-1.179 -2.99,-1.777 -0.64,-0.39 -0.78,-1.277 -0.28,-1.844 l 20.18,-23.046"
         style="fill:#ffffff;fill-opacity:1;fill-rule:nonzero;stroke:none"
         id="path15724" />
      <path
         d="m 2730.79,595.223 c 0.45,-0.313 1.05,-0.282 1.47,0.07 0.9,0.75 1.81,1.504 2.72,2.246 0.62,0.516 0.59,1.484 -0.07,1.941 l -25.59,17.774 c -0.46,0.324 -1.08,0.285 -1.5,-0.086 -0.88,-0.773 -1.77,-1.555 -2.64,-2.336 -0.58,-0.527 -0.53,-1.465 0.12,-1.914 l 25.49,-17.695"
         style="fill:#ffffff;fill-opacity:1;fill-rule:nonzero;stroke:none"
         id="path15726" />
      <path
         d="m 2700.58,564.102 c 0.5,-0.188 1.06,-0.039 1.39,0.371 0.74,0.925 1.5,1.843 2.26,2.754 0.54,0.632 0.3,1.609 -0.48,1.914 l -29.41,11.453 c -0.51,0.195 -1.08,0.039 -1.41,-0.391 -0.74,-0.937 -1.45,-1.883 -2.16,-2.832 -0.49,-0.644 -0.23,-1.582 0.54,-1.875 l 29.27,-11.394"
         style="fill:#ffffff;fill-opacity:1;fill-rule:nonzero;stroke:none"
         id="path15728" />
      <path
         d="m 2645.01,531.953 31.52,-4.406 c 0.51,-0.067 1.01,0.187 1.24,0.637 0.57,1.062 1.15,2.129 1.74,3.183 0.41,0.75 -0.05,1.68 -0.9,1.797 l -31.68,4.414 c -0.53,0.067 -1.03,-0.195 -1.27,-0.664 -0.53,-1.074 -1.06,-2.148 -1.58,-3.223 -0.36,-0.742 0.11,-1.621 0.93,-1.738"
         style="fill:#ffffff;fill-opacity:1;fill-rule:nonzero;stroke:none"
         id="path15730" />
      <path
         d="m 2627.77,484.168 32.14,3.078 c 0.49,0.047 0.9,0.379 1.04,0.848 0.37,1.172 0.75,2.344 1.13,3.508 0.27,0.839 -0.4,1.679 -1.28,1.589 l -32.33,-3.086 c -0.5,-0.039 -0.92,-0.398 -1.06,-0.886 -0.32,-1.172 -0.64,-2.356 -0.95,-3.535 -0.2,-0.821 0.47,-1.602 1.31,-1.516"
         style="fill:#ffffff;fill-opacity:1;fill-rule:nonzero;stroke:none"
         id="path15732" />
      <path
         d="m 2652.15,445.965 c 0.14,1.25 0.3,2.5 0.45,3.75 0.12,0.898 -0.75,1.601 -1.6,1.308 l -31.33,-10.898 c -0.46,-0.164 -0.79,-0.586 -0.82,-1.074 -0.08,-1.231 -0.16,-2.461 -0.23,-3.692 -0.05,-0.867 0.8,-1.504 1.62,-1.218 l 31.11,10.808 c 0.44,0.156 0.76,0.547 0.8,1.016"
         style="fill:#ffffff;fill-opacity:1;fill-rule:nonzero;stroke:none"
         id="path15734" />
      <path
         d="m 2651.37,403.203 c -0.09,1.289 -0.18,2.578 -0.25,3.867 -0.06,0.946 -1.1,1.473 -1.89,0.957 l -28.36,-18.632 c -0.39,-0.254 -0.61,-0.715 -0.55,-1.184 0.16,-1.25 0.33,-2.5 0.52,-3.738 0.12,-0.891 1.13,-1.34 1.88,-0.852 l 28.11,18.477 c 0.37,0.234 0.57,0.656 0.54,1.105"
         style="fill:#ffffff;fill-opacity:1;fill-rule:nonzero;stroke:none"
         id="path15736" />
      <path
         d="m 2658.47,360.449 c -0.34,1.297 -0.67,2.617 -0.98,3.934 -0.23,0.949 -1.43,1.262 -2.09,0.527 l -23.08,-25.41 c -0.3,-0.332 -0.4,-0.801 -0.25,-1.219 0.42,-1.222 0.85,-2.441 1.28,-3.664 0.31,-0.867 1.44,-1.082 2.06,-0.398 l 22.79,25.097 c 0.28,0.301 0.38,0.731 0.27,1.133"
         style="fill:#ffffff;fill-opacity:1;fill-rule:nonzero;stroke:none"
         id="path15738" />
      <path
         d="M 2670.27,322.5 2654,291.543 c -0.2,-0.371 -0.19,-0.82 0.02,-1.184 0.67,-1.16 1.36,-2.312 2.05,-3.457 0.49,-0.808 1.68,-0.769 2.13,0.071 l 16.09,30.632 c 0.19,0.352 0.19,0.762 0.01,1.114 -0.62,1.25 -1.25,2.5 -1.85,3.761 -0.44,0.887 -1.72,0.907 -2.18,0.02"
         style="fill:#ffffff;fill-opacity:1;fill-rule:nonzero;stroke:none"
         id="path15740" />
      <path
         d="m 2693.16,287.703 c -0.6,0.84 -1.92,0.578 -2.17,-0.437 l -8.71,-35.938 c -0.1,-0.39 0,-0.793 0.26,-1.094 0.9,-1.054 1.82,-2.101 2.74,-3.136 0.65,-0.743 1.87,-0.438 2.1,0.519 l 8.61,35.535 c 0.09,0.352 0.01,0.735 -0.2,1.016 -0.89,1.172 -1.77,2.355 -2.63,3.535"
         style="fill:#ffffff;fill-opacity:1;fill-rule:nonzero;stroke:none"
         id="path15742" />
      <g
         id="g15744"
         transform="scale(10)"
         style="fill:#ffffff">
        <text
           xml:space="preserve"
           transform="matrix(1,0,0,-1,7.8332,15.5809)"
           style="font-variant:normal;font-weight:300;font-size:12.69px;font-family:Roboto;-inkscape-font-specification:Roboto-Light;writing-mode:lr-tb;fill:#ffffff;fill-opacity:1;fill-rule:nonzero;stroke:none"
           id="text15748"><tspan
             x="0 7.7724586 16.74609 25.43652 29.157219 37.010738 45.390621 54.613281 61.598629 70.573242 78.785156 82.796875 92.019539 101.77442 110.33399 119.02441 126.87794 130.59767 139.15724 148.62209 156.83498 166.44728 175.1377 184.36037 192.80763 202.03027 208.94826 218.1709 227.47949 231.49123"
             y="0"
             sodipodi:role="line"
             id="tspan15746">FÜR EVOLUTIONÄRE ANTHROPOLOGIE</tspan></text>
      </g>
      <path
         d="M 895.652,337.566 H 852.02 v 19.016 h 43.632 v -19.016"
         style="fill:#ffffff;fill-opacity:1;fill-rule:nonzero;stroke:none"
         id="path15750" />
      <path
         d="m 536.461,318.691 h -0.488 l -30.254,87.743 H 474.391 V 287.371 h 23.886 v 81.445 l 0.489,0.09 29.433,-81.535 h 16.192 l 29.445,81.367 0.488,-0.078 v -81.289 h 23.887 v 119.063 h -31.164 l -30.586,-87.743"
         style="fill:#ffffff;fill-opacity:1;fill-rule:nonzero;stroke:none"
         id="path15752" />
      <path
         d="m 664.363,331.777 13.242,41.953 h 0.497 l 13.156,-41.953 z m 25.75,74.657 H 665.672 L 625.516,287.371 h 24.941 l 8.016,25.676 h 38.593 l 8.098,-25.676 h 24.941 l -39.992,119.063"
         style="fill:#ffffff;fill-opacity:1;fill-rule:nonzero;stroke:none"
         id="path15754" />
      <path
         d="m 847.516,287.371 -37.371,60.02 35.332,59.043 h -27.805 l -22.324,-42.196 -22,42.196 h -27.637 l 35.32,-59.043 -36.23,-60.02 h 27.89 l 22.981,42.93 22.976,-42.93 h 28.868"
         style="fill:#ffffff;fill-opacity:1;fill-rule:nonzero;stroke:none"
         id="path15756" />
      <path
         d="m 984.695,354.383 c -3.429,-3.633 -8.476,-5.438 -15.129,-5.438 h -21.668 v 39.09 h 21.668 c 6.711,0 11.77,-1.863 15.176,-5.605 3.399,-3.731 5.11,-8.457 5.11,-14.18 0,-5.613 -1.719,-10.234 -5.157,-13.867 z m 17.165,41.582 c -7.84,6.984 -18.61,10.469 -32.294,10.469 H 924.012 V 287.371 h 23.886 v 43.176 h 21.668 c 13.684,0 24.454,3.457 32.294,10.379 7.85,6.926 11.78,16.086 11.78,27.48 0,11.399 -3.93,20.586 -11.78,27.559"
         style="fill:#ffffff;fill-opacity:1;fill-rule:nonzero;stroke:none"
         id="path15758" />
      <path
         d="m 1106.72,305.684 h -43.77 v 100.75 h -23.89 V 287.371 h 67.66 v 18.313"
         style="fill:#ffffff;fill-opacity:1;fill-rule:nonzero;stroke:none"
         id="path15760" />
      <path
         d="m 1160.57,331.777 13.25,41.953 h 0.49 l 13.17,-41.953 z m 1.31,74.657 -40.14,-119.063 h 24.93 l 8.01,25.676 h 38.61 l 8.09,-25.676 h 24.94 l -39.99,119.063 h -24.45"
         style="fill:#ffffff;fill-opacity:1;fill-rule:nonzero;stroke:none"
         id="path15762" />
      <path
         d="m 1275.06,367.598 0.48,0.078 48,-80.305 h 23.88 v 119.063 h -23.88 v -80.137 l -0.49,-0.086 -47.99,80.223 h -23.89 V 287.371 h 23.89 v 80.227"
         style="fill:#ffffff;fill-opacity:1;fill-rule:nonzero;stroke:none"
         id="path15764" />
      <path
         d="m 1460.63,397.52 c -8.18,7.089 -19.52,10.632 -34.02,10.632 -13.9,0 -25.14,-4.617 -33.69,-13.855 -8.57,-9.25 -12.85,-21.113 -12.85,-35.617 v -23.641 c 0,-14.551 4.39,-26.418 13.17,-35.605 8.78,-9.192 20.31,-13.782 34.59,-13.782 14.01,0 25,3.594 32.96,10.793 7.97,7.196 11.83,17.149 11.61,29.852 l -0.16,0.488 h -23.14 c 0,-7.742 -1.76,-13.476 -5.28,-17.215 -3.51,-3.73 -8.84,-5.605 -15.99,-5.605 -7.52,0 -13.4,2.89 -17.62,8.672 -4.22,5.781 -6.34,13.25 -6.34,22.402 v 23.809 c 0,9.101 2.01,16.523 6.01,22.273 4.01,5.754 9.59,8.633 16.73,8.633 7.68,0 13.37,-1.863 17.05,-5.606 3.68,-3.73 5.52,-9.414 5.52,-17.05 h 23.22 l 0.17,0.5 c 0.21,12.859 -3.76,22.84 -11.94,29.922"
         style="fill:#ffffff;fill-opacity:1;fill-rule:nonzero;stroke:none"
         id="path15766" />
      <path
         d="m 1597.36,406.434 h -29.53 l -32.63,-48.653 h -6.7 v 48.653 h -23.88 V 287.371 h 23.88 v 49.719 h 8.75 l 32.87,-49.719 h 30.42 l -44.4,63.703 41.22,55.36"
         style="fill:#ffffff;fill-opacity:1;fill-rule:nonzero;stroke:none"
         id="path15768" />
      <path
         d="m 1646.02,337.566 h -43.63 v 19.016 h 43.63 v -19.016"
         style="fill:#ffffff;fill-opacity:1;fill-rule:nonzero;stroke:none"
         id="path15770" />
      <path
         d="m 1699.97,287.156 h -24.48 v 118.782 h 24.48 V 287.156"
         style="fill:#ffffff;fill-opacity:1;fill-rule:nonzero;stroke:none"
         id="path15772" />
      <path
         d="m 1831.76,287.156 h -24.48 l -47.63,78.157 v -78.157 h -24.48 v 118.782 h 24.48 l 47.72,-78.321 v 78.321 h 24.39 V 287.156"
         style="fill:#ffffff;fill-opacity:1;fill-rule:nonzero;stroke:none"
         id="path15774" />
      <path
         d="m 1926.42,318.32 c 0,4.618 -1.63,8.172 -4.89,10.645 -3.26,2.48 -9.14,5.086 -17.63,7.832 -8.47,2.742 -15.19,5.449 -20.14,8.113 -13.49,7.285 -20.24,17.11 -20.24,29.453 0,6.418 1.81,12.141 5.43,17.168 3.62,5.032 8.81,8.965 15.58,11.789 6.78,2.832 14.37,4.246 22.8,4.246 8.49,0 16.05,-1.543 22.68,-4.609 6.64,-3.074 11.78,-7.41 15.46,-13.016 3.67,-5.597 5.5,-11.964 5.5,-19.082 h -24.47 c 0,5.438 -1.71,9.668 -5.14,12.684 -3.42,3.02 -8.24,4.523 -14.44,4.523 -5.98,0 -10.62,-1.261 -13.94,-3.789 -3.33,-2.531 -4.99,-5.859 -4.99,-9.992 0,-3.867 1.95,-7.097 5.84,-9.715 3.89,-2.609 9.61,-5.05 17.17,-7.336 13.93,-4.187 24.07,-9.382 30.43,-15.586 6.36,-6.199 9.54,-13.925 9.54,-23.164 0,-10.281 -3.88,-18.339 -11.66,-24.187 -7.78,-5.852 -18.25,-8.77 -31.4,-8.77 -9.14,0 -17.46,1.668 -24.97,5.02 -7.5,3.34 -13.23,7.918 -17.17,13.738 -3.95,5.82 -5.92,12.57 -5.92,20.235 h 24.56 c 0,-13.106 7.83,-19.657 23.5,-19.657 5.81,0 10.36,1.18 13.62,3.543 3.26,2.364 4.89,5.676 4.89,9.914"
         style="fill:#ffffff;fill-opacity:1;fill-rule:nonzero;stroke:none"
         id="path15776" />
      <path
         d="m 2063.62,386.113 h -36.38 v -98.957 h -24.47 v 98.957 h -35.9 v 19.825 h 96.75 v -19.825"
         style="fill:#ffffff;fill-opacity:1;fill-rule:nonzero;stroke:none"
         id="path15778" />
      <path
         d="m 2111.95,287.156 h -24.47 v 118.782 h 24.47 V 287.156"
         style="fill:#ffffff;fill-opacity:1;fill-rule:nonzero;stroke:none"
         id="path15780" />
      <path
         d="m 2230.03,386.113 h -36.38 v -98.957 h -24.47 v 98.957 h -35.9 v 19.825 h 96.75 v -19.825"
         style="fill:#ffffff;fill-opacity:1;fill-rule:nonzero;stroke:none"
         id="path15782" />
      <path
         d="m 2342.23,405.938 v -78.235 c 0,-12.996 -4.07,-23.281 -12.19,-30.84 -8.14,-7.558 -19.24,-11.336 -33.33,-11.336 -13.87,0 -24.89,3.672 -33.04,11.016 -8.16,7.332 -12.32,17.422 -12.48,30.262 v 79.133 h 24.47 v -78.399 c 0,-7.773 1.87,-13.449 5.59,-17.012 3.73,-3.566 8.87,-5.343 15.46,-5.343 13.76,0 20.75,7.238 20.96,21.699 v 79.055 h 24.56"
         style="fill:#ffffff;fill-opacity:1;fill-rule:nonzero;stroke:none"
         id="path15784" />
      <path
         d="m 2460.07,386.113 h -36.38 v -98.957 h -24.47 v 98.957 h -35.9 v 19.825 h 96.75 v -19.825"
         style="fill:#ffffff;fill-opacity:1;fill-rule:nonzero;stroke:none"
         id="path15786" />
    </g>
  </g>
</svg>
