<svg xmlns:rdf="http://www.w3.org/1999/02/22-rdf-syntax-ns#" xmlns:dc="http://purl.org/dc/elements/1.1/" xmlns="http://www.w3.org/2000/svg" width="568" height="120" viewBox="0 0 568 120"><metadata><rdf:RDF><rdf:Description rdf:about="https://product.design.dev.aws.mskcc.org/"><dc:creator>MSK</dc:creator><dc:description>v1.17.1</dc:description><dc:date>July 24, 2023</dc:date></rdf:Description></rdf:RDF></metadata><path fill="#fff" d="M143.963 54.103h-10.318v-1.518c3.663-.618 4.197-1.603 4.197-5.385V31.21c0-1.522-.737-2.26-4.197-2.383v-1.77h9.784l7.481 20.633h.327l7.445-20.633h9.78v1.77c-3.455.124-4.316.494-4.316 1.77v19.97c0 1.276.86 1.647 4.316 1.77v1.766h-12.044v-1.766c3.209-.123 3.575-.41 3.575-1.77V30.474h-.283l-8.8 23.63h-1.646l-8.915-23.63h-.292V47.2c0 3.782.292 4.687 3.906 5.385zm25.123-8.82h-.006v-.551h.006c.104-5.509 3.649-9.694 8.918-9.694 5.83 0 8.01 4.761 7.684 9.409h-12.622v.123c0 4.316 2.1 7.6 6.126 7.6 2.308 0 4.192-1.4 5.838-3.407l1.024 1.024c-1.518 2.55-3.905 4.77-8.05 4.77-5.65 0-8.802-3.999-8.918-9.274zm4.023-2.315 8.628-.207c.172-3.412-1.107-6.121-4.029-6.121-2.502 0-4.232 1.765-4.599 6.328zm23.285 9.41c-2.052-.04-2.343-.45-2.343-1.44V39.39c1.191-.737 2.383-1.518 4.232-1.518 2.383 0 3.698.989 3.698 4.396v8.672c0 .988-.326 1.399-2.379 1.438v1.726h8.836v-1.726c-2.388-.04-2.754-.45-2.754-1.438V41c0-.455-.044-.865-.084-1.24 1.646-1.152 3.036-1.89 4.48-1.89 2.387 0 3.53.99 3.53 4.397v8.672c0 .988-.318 1.399-2.379 1.438v1.726h9.079v-1.726c-2.38-.04-2.997-.45-2.997-1.438v-10.19c0-3.699-1.77-5.711-4.603-5.711-2.586 0-4.974 1.315-7.401 3.411-.653-2.136-2.295-3.411-4.396-3.411-2.71 0-4.766 1.438-6.942 2.957V35.16l-6.62.164v1.725c2.383.04 2.997.781 2.997 2.012V50.94c0 .988-.614 1.399-2.997 1.438v1.726h9.043zm24.688-7.52c0-5.712 3.698-9.82 9.33-9.82 5.794 0 9.29 3.945 9.29 9.656 0 5.75-3.703 9.864-9.29 9.864-5.879 0-9.33-3.946-9.33-9.7zm4.113-.08c0 5.508 2.096 8.014 5.38 8.014 3.204 0 5.018-2.506 5.018-8.014 0-5.508-2.096-7.975-5.389-7.975-3.243 0-5.009 2.467-5.009 7.975zm27.844-9.74c-2.14 0-3.906 1.518-5.34 3.327v-3.204l-6.62.163v1.726c2.383.04 2.996.781 2.996 2.012V50.94c0 .988-.613 1.399-2.996 1.438v1.726h10.15v-1.726c-2.714-.04-3.455-.45-3.455-1.438V39.883c.87-1.068 2.056-2.299 3.91-2.22a4.363 4.363 0 0 0-.084.702c0 1.479 1.112 2.18 2.343 2.18 1.276 0 2.216-1.116 2.216-2.427 0-1.642-1.024-3.08-3.12-3.08zm14.29 17.34c-2.427-.04-3.005-.45-3.005-1.44V35.162l-6.656.164v1.725c2.379.04 2.957.781 2.957 2.012V50.94c0 .988-.613 1.399-3 1.438v1.726h9.704zM262.39 30.68c1.483 0 2.467-1.032 2.467-2.55 0-1.523-.984-2.547-2.467-2.547-1.474 0-2.462 1.108-2.462 2.63 0 1.519.988 2.467 2.462 2.467zm24.45 21.45.163 1.358c-1.478.535-2.383.777-3.574.777-2.18 0-2.798-.82-3.001-3.16h-.283c-1.646 1.85-3.623 3.249-6.046 3.249-3.451 0-5.097-1.978-5.097-4.317 0-1.646.78-3.332 2.506-4.276 3.125-1.726 8.015-2.428 8.637-2.917v-1.148c0-3.663-1.033-4.938-3.703-4.938-1.32 0-2.056.291-2.758.904.331.702.459 1.36.459 1.938 0 1.227-.785 2.255-2.18 2.255-1.439 0-2.264-1.063-2.264-2.255 0-2.719 3.376-4.563 7.317-4.563 4.272 0 6.823 1.928 6.823 5.874v8.963c0 2.013.287 2.586 3.001 2.255zm-6.695-7.684c-5.843 1.315-6.99 2.18-6.99 4.647 0 1.474.776 2.794 2.917 2.794 1.646 0 3.16-1.236 4.073-2.512zm11.104-15.085v21.577c0 .988-.657 1.399-3.04 1.438v1.726h9.78v-1.726c-2.424-.04-3.042-.45-3.042-1.438V25.46l-6.862.163v1.726c2.383.04 3.164.78 3.164 2.012zm19.818 24.17c1.562.654 3.658 1.227 5.878 1.227 6.828 0 9.334-4.85 9.334-8.915 0-5.097-4.069-6.416-7.816-7.683-4.39-1.483-6.492-2.635-6.492-5.305 0-2.714 2.057-4.356 4.692-4.356 3.204 0 5.384 1.89 6.739 5.627h1.602v-7.93h-1.148l-1.403 1.24c-1.315-.5-2.75-1.033-5.053-1.033-5.098 0-9.246 3.12-9.246 8.262 0 5.053 4.104 6.289 7.847 7.6 4.978 1.77 6.906 2.965 6.906 5.838 0 2.136-1.478 4.559-5.3 4.559-3.416 0-6.17-1.805-8.346-6.576h-1.601v8.84h1.235zm19.683-24.17v21.577c0 .988-.658 1.399-3.04 1.438v1.726h9.783v-1.726c-2.427-.04-3.045-.45-3.045-1.438V25.46l-6.867.163v1.726c2.388.04 3.169.78 3.169 2.012zm16.793 25.196c-5.879 0-9.326-3.946-9.326-9.7 0-5.712 3.694-9.82 9.326-9.82 5.79 0 9.294 3.945 9.294 9.656 0 5.75-3.698 9.864-9.294 9.864zm.167-1.766c3.204 0 5.014-2.506 5.014-8.014 0-5.508-2.097-7.975-5.389-7.975-3.248 0-5.009 2.467-5.009 7.975 0 5.508 2.096 8.014 5.384 8.014zm28.987-.662.172 1.36c-1.492.534-2.388.776-3.584.776-2.18 0-2.793-.82-2.996-3.16h-.287c-1.642 1.85-3.615 3.249-6.042 3.249-3.451 0-5.097-1.978-5.097-4.317 0-1.646.785-3.332 2.51-4.276 3.121-1.726 8.015-2.428 8.629-2.917v-1.148c0-3.663-1.024-4.938-3.703-4.938-1.31 0-2.048.291-2.754.904.331.702.455 1.36.455 1.938 0 1.227-.781 2.255-2.176 2.255-1.443 0-2.264-1.063-2.264-2.255 0-2.719 3.372-4.563 7.317-4.563 4.268 0 6.819 1.928 6.819 5.874v8.963c0 2.013.296 2.586 3 2.255zm-6.695-7.683c-5.835 1.315-6.986 2.18-6.986 4.647 0 1.474.776 2.794 2.917 2.794 1.646 0 3.164-1.236 4.069-2.512zm26.775 6.492v-10.19c0-3.699-1.933-5.711-4.766-5.711-2.714 0-5.137 1.438-7.313 2.957V35.16l-6.629.164v1.725c2.392.04 3.006.781 3.006 2.012V50.94c0 .988-.614 1.399-3.006 1.438v1.726h9.295v-1.726c-2.057-.04-2.59-.45-2.59-1.438V39.39c1.19-.737 2.797-1.518 4.646-1.518 2.384 0 3.663.944 3.663 4.356v8.712c0 .988-.534 1.399-2.634 1.438v1.726h9.33v-1.726c-2.428-.04-3.002-.45-3.002-1.438zm32.638-2.053-7.98-10.853 5.473-5.34c2.952-2.882 4.228-3.658 7.224-4.113v-1.523h-10.64v1.602c3.164.376 3.288 1.483 1.231 3.535l-8.836 8.924v-10.52c0-1.355.247-1.646 3.906-1.77v-1.77h-12.366v1.77c3.447.124 4.312.494 4.312 1.77v19.97c0 1.276-.865 1.647-4.312 1.77v1.766h11.876v-1.766c-3.169-.123-3.416-.41-3.416-1.77v-7.15l2.878-2.797 6.373 8.884c1.395 1.889.777 2.586-2.14 2.957v1.642h11.96V52.42c-3.363-.534-3.99-1.483-5.544-3.535zm46.535 3.284c-1.73 0-2.467-.945-2.467-3.2V37.337h5.834v-2.013h-5.834v-6.867l-3.615 1.483v5.384h-10.055v-6.867l-3.615 1.483v5.3l-3.455.737v1.36h3.367V49.42c0 3.205 1.567 5.138 4.691 5.138 2.626 0 3.981-.945 5.504-3.699l-1.108-.865c-.944 1.32-1.77 2.176-2.922 2.176-1.73 0-2.462-.945-2.462-3.2V37.337h9.967V49.42c0 3.205 1.567 5.138 4.687 5.138 2.63 0 3.99-.945 5.508-3.699l-1.112-.865c-.94 1.32-1.766 2.176-2.913 2.176zm-24.845-3.407 1.029 1.024c-1.518 2.55-3.915 4.77-8.059 4.77-5.641 0-8.791-3.99-8.913-9.257h-.007v-.552h.006c.097-5.516 3.64-9.71 8.914-9.71 5.839 0 8.015 4.761 7.688 9.409h-12.622v.123c0 4.316 2.096 7.6 6.126 7.6 2.3 0 4.192-1.4 5.839-3.407zm-11.92-5.795 8.628-.207c.168-3.412-1.103-6.121-4.03-6.121-2.502 0-4.227 1.765-4.598 6.328zm57.697 5.795 1.028 1.024c-1.518 2.55-3.91 4.77-8.058 4.77-5.755 0-8.92-4.152-8.92-9.576 0-5.632 3.575-9.943 8.92-9.943 5.839 0 8.019 4.761 7.692 9.409h-12.622v.123c0 4.316 2.096 7.6 6.121 7.6 2.304 0 4.193-1.4 5.84-3.407zm-11.92-5.795 8.628-.207c.167-3.412-1.108-6.121-4.025-6.121-2.507 0-4.237 1.765-4.603 6.328zm26.197-7.93c-2.136 0-3.897 1.518-5.335 3.327V35.16l-6.625.164v1.725c2.388.04 3.001.781 3.001 2.012V50.94c0 .988-.613 1.399-3 1.438v1.726h10.159v-1.726c-2.719-.04-3.452-.45-3.452-1.438V39.883c.857-1.068 2.048-2.299 3.902-2.22-.04.252-.084.5-.084.702 0 1.479 1.112 2.18 2.343 2.18 1.271 0 2.22-1.116 2.22-2.427 0-1.642-1.028-3.08-3.129-3.08zm11.29 15.9V35.162l-6.66.164v1.725c2.387.04 2.965.781 2.965 2.012V50.94c0 .988-.622 1.399-3 1.438v1.726h9.695v-1.726c-2.427-.04-3-.45-3-1.438zm-1.93-20.257c1.48 0 2.468-1.032 2.468-2.55 0-1.523-.989-2.547-2.467-2.547-1.474 0-2.467 1.108-2.467 2.63 0 1.519.993 2.467 2.467 2.467zm25.002 20.258v-10.19c0-3.699-1.933-5.711-4.766-5.711-2.71 0-5.133 1.438-7.313 2.957V35.16l-6.62.164v1.725c2.387.04 3 .781 3 2.012V50.94c0 .988-.613 1.399-3 1.438v1.726h9.29v-1.726c-2.057-.04-2.586-.45-2.586-1.438V39.39c1.182-.737 2.789-1.518 4.638-1.518 2.383 0 3.663.944 3.663 4.356v8.712c0 .988-.538 1.399-2.63 1.438v1.726h9.33v-1.726c-2.428-.04-3.006-.45-3.006-1.438zm16.572-14.754c1.774 1.028 2.966 2.798 2.966 5.181 0 3.985-3.209 6.452-7.401 6.452-.865 0-1.686-.083-2.467-.287-1.069.53-1.647 1.108-1.647 1.806 0 .82.578 1.646 3.902 1.646h1.893c5.424 0 7.847 1.315 7.847 4.766 0 3.288-3.943 6.783-10.514 6.783-5.389 0-7.687-2.1-7.687-4.523 0-1.89 1.81-3.615 5.018-4.149v-.29c-2.427-.575-3.292-1.563-3.292-3.21 0-1.23 1.103-2.462 2.882-3.367-2.017-.94-3.38-2.75-3.38-5.468 0-3.941 3.208-6.487 7.445-6.487 1.147 0 2.303.203 3.288.573.904-1.69 2.59-3.204 4.682-3.204 1.443 0 2.264.86 2.264 2.092 0 1.068-.658 1.814-1.602 1.814-1.072 0-1.818-.702-1.818-1.933-.821.287-1.84 1.024-2.38 1.805zm-6.364 18.125c-2.185.415-3.619 1.563-3.619 3.284 0 1.937 2.096 3.213 6.2 3.213 3.496 0 5.84-1.686 5.84-3.703 0-1.686-.945-2.794-5.058-2.794zm5.46-12.864c0-3.12-1.559-4.89-3.7-4.89-2.056 0-3.45 1.107-3.45 4.89 0 3.786 1.641 4.85 3.738 4.85 2.012 0 3.411-1.315 3.411-4.85zM147.952 92.702c-4.89 0-9.621-3.822-9.621-11.387 0-7.979 4.153-12.251 8.875-12.251 4.03 0 6.496 2.714 8.306 7.357h1.355v-9.33h-1.519l-1.24 1.726c-1.513-.9-3.654-1.85-6.487-1.85-7.772 0-13.977 6.245-13.977 14.512 0 8.345 5.508 13.853 13.235 13.853 6.003 0 9.538-3.866 11.22-7.772l-1.643-.82c-1.686 3.45-3.861 5.962-8.504 5.962zm29.957 0 .164 1.355c-1.479.534-2.384.781-3.58.781-2.17 0-2.789-.825-3-3.168h-.283c-1.642 1.844-3.619 3.248-6.042 3.248-3.455 0-5.097-1.973-5.097-4.317 0-1.641.781-3.327 2.506-4.272 3.125-1.725 8.015-2.427 8.633-2.917V82.26c0-3.658-1.028-4.929-3.698-4.929-1.316 0-2.057.287-2.754.9.326.702.45 1.355.45 1.929 0 1.236-.781 2.264-2.176 2.264-1.439 0-2.264-1.068-2.264-2.264 0-2.714 3.367-4.56 7.313-4.56 4.28 0 6.827 1.934 6.827 5.88v8.958c0 2.017.287 2.59 3.001 2.264zm-6.7-7.688c-5.833 1.315-6.99 2.176-6.99 4.643 0 1.479.781 2.798 2.917 2.798 1.647 0 3.17-1.236 4.074-2.511zm26.783 6.488V81.316c0-3.698-1.942-5.715-4.78-5.715-2.71 0-5.132 1.438-7.312 2.957v-2.834l-6.62.168v1.726c2.383.04 3.005.776 3.005 2.012v11.872c0 .993-.622 1.399-3.005 1.443v1.726h9.29v-1.726c-2.057-.044-2.59-.45-2.59-1.443v-11.55c1.19-.733 2.797-1.518 4.646-1.518 2.383 0 3.663.95 3.663 4.36v8.708c0 .993-.538 1.399-2.634 1.443v1.726h9.325v-1.726c-2.419-.044-2.988-.45-2.988-1.443zm13.875 1.16c-3.981 0-6.166-3.128-6.166-8.018 0-5.221 2.26-7.278 5.34-7.278 1.567 0 2.878.662 3.376 1.32-.578.326-1.32 1.107-1.32 2.215 0 1.24.91 2.097 2.309 2.097 1.39 0 2.348-1.232 2.348-2.755 0-2.339-2.516-4.642-6.792-4.642-5.133 0-9.202 4.237-9.202 9.947 0 5.464 3.407 9.577 8.791 9.577 3.95 0 6.082-1.814 7.808-4.316l-1.02-1.033c-1.403 1.607-3.213 2.887-5.472 2.887zm24.043-3.331 1.023 1.023c-1.518 2.547-3.905 4.771-8.058 4.771-5.75 0-8.915-4.153-8.915-9.577 0-5.631 3.575-9.947 8.915-9.947 5.839 0 8.019 4.766 7.688 9.413h-12.618v.12c0 4.316 2.096 7.608 6.126 7.608 2.304 0 4.192-1.399 5.839-3.411zm-11.925-5.8 8.628-.203c.168-3.411-1.104-6.125-4.02-6.125-2.512 0-4.237 1.77-4.608 6.328zm26.204-7.93c-2.145 0-3.906 1.518-5.345 3.332v-3.209l-6.62.168v1.726c2.383.04 3.001.776 3.001 2.012v11.872c0 .993-.618 1.399-3 1.443v1.726h10.15v-1.726c-2.71-.044-3.447-.45-3.447-1.443V80.45c.856-1.068 2.052-2.304 3.901-2.22-.04.252-.08.494-.08.702 0 1.478 1.104 2.175 2.34 2.175 1.275 0 2.22-1.112 2.22-2.422 0-1.647-1.028-3.085-3.12-3.085zm25.367 17.1c-4.894 0-9.62-3.822-9.62-11.386 0-7.98 4.148-12.252 8.874-12.252 4.025 0 6.492 2.715 8.302 7.357h1.36v-9.33h-1.524l-1.23 1.726c-1.519-.9-3.664-1.849-6.493-1.849-7.772 0-13.981 6.245-13.981 14.511 0 8.346 5.508 13.853 13.235 13.853 6.003 0 9.538-3.866 11.223-7.771l-1.641-.821c-1.69 3.451-3.862 5.962-8.505 5.962zm28.219-3.37 1.024 1.023c-1.523 2.547-3.901 4.771-8.054 4.771-5.755 0-8.915-4.153-8.915-9.577 0-5.631 3.57-9.947 8.915-9.947 5.83 0 8.019 4.766 7.688 9.413h-12.618v.12c0 4.316 2.092 7.608 6.121 7.608 2.295 0 4.197-1.399 5.839-3.411zm-11.92-5.8 8.628-.203c.167-3.411-1.113-6.125-4.02-6.125-2.517 0-4.238 1.77-4.608 6.328zm32.937 7.97V81.317c0-3.698-1.924-5.715-4.762-5.715-2.714 0-5.132 1.438-7.317 2.957v-2.834l-6.616.168v1.726c2.384.04 2.997.776 2.997 2.012v11.872c0 .993-.613 1.399-2.997 1.443v1.726h9.286v-1.726c-2.052-.044-2.586-.45-2.586-1.443v-11.55c1.192-.733 2.793-1.518 4.638-1.518 2.392 0 3.668.95 3.668 4.36v8.708c0 .993-.539 1.399-2.635 1.443v1.726h9.33v-1.726c-2.423-.044-3.006-.45-3.006-1.443zm12.124 1.241c-1.73 0-2.467-.949-2.467-3.208v-11.63h5.834v-2.012h-5.834V69.03l-3.615 1.474v5.3l-3.451.747v1.354h3.372v12.08c0 3.208 1.553 5.141 4.678 5.141 2.63 0 3.985-.949 5.508-3.698l-1.113-.865c-.94 1.32-1.765 2.18-2.912 2.18zm20.932-3.411 1.024 1.023c-1.518 2.547-3.902 4.771-8.054 4.771-5.755 0-8.915-4.153-8.915-9.577 0-5.631 3.57-9.947 8.915-9.947 5.834 0 8.014 4.766 7.687 9.413h-12.622v.12c0 4.316 2.101 7.608 6.126 7.608 2.3 0 4.188-1.399 5.839-3.411zm-11.925-5.8 8.633-.203c.167-3.411-1.108-6.125-4.03-6.125-2.502 0-4.228 1.77-4.603 6.328zm26.203-7.93c-2.136 0-3.901 1.518-5.34 3.332v-3.209l-6.615.168v1.726c2.383.04 2.996.776 2.996 2.012v11.872c0 .993-.613 1.399-2.996 1.443v1.726h10.15v-1.726c-2.714-.044-3.447-.45-3.447-1.443V80.45c.852-1.068 2.04-2.304 3.902-2.22a3.875 3.875 0 0 0-.084.702c0 1.478 1.103 2.175 2.334 2.175 1.28 0 2.225-1.112 2.225-2.422 0-1.647-1.029-3.085-3.125-3.085z" style="stroke-width:.487357"/><path fill="#fff" d="M93.285 15.534C84.255 5.226 70.8 0 53.3 0 35.797 0 22.344 5.226 13.312 15.534 4.479 25.615 0 40.576 0 60s4.479 34.385 13.312 44.466C22.344 114.774 35.797 120 53.299 120c17.501 0 30.955-5.226 39.986-15.534 8.834-10.08 13.313-25.042 13.313-44.466s-4.479-34.385-13.313-44.466zM53.3 113.084C22.39 113.084 6.936 95.39 6.936 60S22.39 6.916 53.3 6.916C84.207 6.916 99.662 24.61 99.662 60s-15.455 53.084-46.363 53.084zm0-93.898L74.452 40.34l-4.892 4.89-12.802-12.803V54.24H71.94v6.917H56.758v5.353H71.94v6.917H56.758v5.353H71.94v6.918H56.758v15.116H49.84V85.698H34.658V78.78H49.84v-5.353H34.658V66.51H49.84v-5.353H34.658V54.24H49.84V32.428L37.038 45.23l-4.892-4.891Z"/></svg>