<svg id="Layer_1" data-name="Layer 1" xmlns="http://www.w3.org/2000/svg" xmlns:xlink="http://www.w3.org/1999/xlink" viewBox="0 0 316 86"><defs><style>.cls-1{fill:#fff;}.cls-2{mask:url(#mask);}.cls-3{mask:url(#mask-2-2);}</style><mask id="mask" x="0" y="-0.18" width="69.67" height="85.06" maskUnits="userSpaceOnUse"><g id="mask-2"><polygon id="path-1" class="cls-1" points="0 84.88 0 -0.18 34.84 -0.18 69.67 -0.18 69.67 84.88 0 84.88"/></g></mask><mask id="mask-2-2" x="0" y="-0.18" width="315.21" height="85.45" maskUnits="userSpaceOnUse"><g id="mask-4"><polygon id="path-3" class="cls-1" points="0 85.26 315.21 85.26 315.21 -0.18 0 -0.18 0 85.26"/></g></mask></defs><title>picower_logo_white</title><g id="PICOWER-ABOUT"><g id="About---Careers"><g id="FOOTER"><g id="Picower-Logo"><g id="Group-3"><g class="cls-2"><path id="Fill-1" class="cls-1" d="M34.12,78.28a42.26,42.26,0,0,1-6.18-3.07,2.91,2.91,0,0,0-1.21-.47c.5.33,1.35.87,1.69,1.08a1.13,1.13,0,0,0,.17.34,20.29,20.29,0,0,0,5.53,2.12m2.24-7.09a17.24,17.24,0,0,0,11.37-3.57A21.63,21.63,0,0,1,34,70.55c.29.54,1.14.51,2.33.64M69,33.45c3.18,17.39-3.88,41.64-28.69,44.6a19.71,19.71,0,0,1-13.89-4.13,7.78,7.78,0,0,0-1-.72c-.48-.3-.41-.34-.37-.42s-.08-.28,0-.43c-.14-.26-.22-.54,0-.58s0-.65.27-1c-.18-.25,0-.5.22-.4.19-.09.24-.13.33-.07.07-.22.08-.43.3-.41s.39-.34.55-.13c.22-.11.47-.78.75-.65.1-.36.38-.78.71-.81s.9-.68,1.1-.63a15.66,15.66,0,0,0,8.6,2C60,67.62,75.43,43.35,57.58,15.29,54.49,10.44,44.32,1,44.32.9l10,9.84L47,1.6c2.6,2.76,3.8,4,4.75,5.18,5.39,6.58,9.77,11.9,13.79,22.81C62.67,19.35,56.35,12.35,53.54,8.45c-2-2.88-6.15-7.1-7.17-8.63C48.22,2.12,52,6.11,53.82,8c-1.16-1.55-3.65-5-4.1-5.59.2.22,5.15,5.69,6.69,7.29-1.63-2.08-5.82-7.26-6.91-8.51a69.62,69.62,0,0,1,14,19.06c-1.5-4.69-7.16-12.34-8-13.51.6.7,9.47,12.42,11.64,22.61C65.5,19.1,57.54,8.94,57.33,8.51c2.33,2.47,5.32,7.67,6.19,9.3A52.1,52.1,0,0,1,69,33.45M6.61,75.56A9,9,0,0,0,8.34,79.1a14.48,14.48,0,0,0,2.37,2.06,2.8,2.8,0,0,1-.69-.32,3.26,3.26,0,0,0,1,.71c-.14-.18-.13-.26-.13-.26a3.59,3.59,0,0,0,.48.24c.27.1.5.21.62.1s0-.16-.27-.33a11.68,11.68,0,0,1-5.13-5.74M30.92,52.71c-9,1.16-18.13,5.6-22,13.12-5.69,11,2.79,15.47,5.9,16.55a14,14,0,0,0,1.93.55.86.86,0,0,1,.51.42c.17.08,0,.23-.08.31a.52.52,0,0,0,.26.18c-.1,0-.14.11-.23.24a1.34,1.34,0,0,1-.44.41c.09.07-.09.17-.23.23s-.27.12-.46.11l-1.76,0a22.59,22.59,0,0,1-3.86-.58,12.31,12.31,0,0,0,1.93.66,15.68,15.68,0,0,1-5.28-1.35C1.7,81.07-6,69.1,7.78,57.39c4.6-3.91,12.46-6.27,18-7.1a47.18,47.18,0,0,1,9.43-.13c-2.39,0-6.2.3-6.84.39,2.05,0,7.9-.1,9.33.06-2.3.24-7,.49-7.68.55,2.08-.12,5.94,0,8.31-.14-2.59.36-6.4.63-7.63.75a36.78,36.78,0,0,0-12.38,3.61,41.22,41.22,0,0,1,12-3.29c4.42-.36,6.25-.59,7.75-.79a48.82,48.82,0,0,1-5,.84c2.71-.2,5-.39,5.19-.44-2.78.45-6.44.88-7.39,1"/></g></g><path id="Fill-4" class="cls-1" d="M266.35,61.63V57.37H255V51.43h9.65V47.17H255V41.44h11.33V37.18h-16.1V61.63ZM246.06,41.44V37.18H228.52v4.26h6.38V61.63h4.77V41.44Zm-30.35,20.4c5,0,9-3.4,9-8.59V37.18H220v15.9c0,2.82-1.68,4.5-4.25,4.5s-4.22-1.68-4.22-4.5V37.18h-4.78V53.25c0,5.19,4,8.59,9,8.59ZM202.9,41.44V37.18H185.36v4.26h6.38V61.63h4.77V41.44ZM176.7,61.63h4.77V37.18H176.7Zm-4.19-20.19V37.18H155v4.26h6.38V61.63h4.77V41.44Zm-29.6,20.4c5.12,0,9.07-2.68,9.07-7.42a6.87,6.87,0,0,0-1.89-5.19,8.11,8.11,0,0,0-4.67-1.88l-2.88-.42a4.12,4.12,0,0,1-2.27-1,2.33,2.33,0,0,1-.72-1.75c0-1.68,1.24-3.09,3.78-3.09a6.83,6.83,0,0,1,5,1.68l3-3c-2.09-2-4.53-2.85-7.9-2.85C138.18,37,135,40,135,44.4a6.45,6.45,0,0,0,1.75,4.8,8.32,8.32,0,0,0,4.74,2l2.95.41a3.6,3.6,0,0,1,2.16.86,2.7,2.7,0,0,1,.76,2.06c0,1.95-1.51,3-4.33,3a8,8,0,0,1-5.9-2.06L134,58.61c2.4,2.43,5.22,3.23,8.92,3.23Zm-12.74-.21V37.18H125.4v15l-9.68-15h-4.26V61.63h4.77v-15l9.68,15Zm-28.63,0h4.77V37.18h-4.77ZM306,8.86a3.24,3.24,0,1,1,0,6.46h-4.5V8.86Zm9.23,20.19-5.45-10.54a6.59,6.59,0,0,0,4.46-6.42c0-4.08-3-7.48-7.93-7.48h-9.58V29.05h4.77V19.3h3.43l4.78,9.75Zm-23.31,0V24.79H280.57V18.86h9.65V14.6h-9.65V8.86H291.9V4.61H275.8V29.05ZM272.43,4.61h-5L263.64,20,259.18,4.61h-3.57L251.14,20,247.37,4.61h-5l6.52,24.44h4l4.5-14.83,4.5,14.83h4ZM234.21,10c.93,1,1.21,2.17,1.21,6.87s-.28,5.84-1.21,6.87a4,4,0,0,1-3.05,1.3,4,4,0,0,1-3.09-1.3c-.93-1-1.17-2.17-1.17-6.87s.24-5.84,1.17-6.87a4,4,0,0,1,3.09-1.3,4,4,0,0,1,3.05,1.3Zm3.54,16.62c2.47-2.47,2.44-5.53,2.44-9.75s0-7.28-2.44-9.75a8.83,8.83,0,0,0-6.59-2.68,8.92,8.92,0,0,0-6.63,2.68c-2.47,2.47-2.4,5.53-2.4,9.75s-.07,7.28,2.4,9.75a8.92,8.92,0,0,0,6.63,2.68,8.83,8.83,0,0,0,6.59-2.68Zm-28.22,2.68c4.53,0,8.13-2.61,9-7.73h-4.84c-.48,2-1.71,3.47-4.12,3.47a3.93,3.93,0,0,1-3.05-1.27c-.93-1-1.21-2.2-1.21-6.9s.28-5.87,1.21-6.9a3.93,3.93,0,0,1,3.05-1.27c2.41,0,3.64,1.51,4.12,3.47h4.84c-.86-5.12-4.43-7.73-9-7.73a9,9,0,0,0-6.59,2.68c-2.47,2.47-2.41,5.53-2.41,9.75s-.06,7.28,2.41,9.75a9,9,0,0,0,6.59,2.68Zm-18.44-.21h4.77V4.61h-4.77ZM178.45,8.86A3.27,3.27,0,0,1,182,12.23a3.24,3.24,0,0,1-3.54,3.33H174V8.86Zm.24,11c5.05,0,8.07-3.47,8.07-7.62s-3-7.62-8.07-7.62h-9.47V29.05H174v-9.2ZM156,29.05V24.79H144.63V18.86h9.65V14.6h-9.65V8.86H156V4.61h-16.1V29.05Zm-21.25,0V4.61h-4.78v10h-8.27v-10h-4.77V29.05h4.77V18.82h8.27V29.05ZM106.31,8.86V29.05h-4.77V8.86H95.15V4.61h17.54V8.86Z"/><g class="cls-3"><polygon id="Fill-6" class="cls-1" points="81.9 85.26 83.15 85.26 83.15 4.61 81.9 4.61 81.9 85.26"/></g><g class="cls-3"><path id="Fill-8" class="cls-1" d="M314.18,73.84H312L310,78.05l-1.95-4.21h-2.22L309,80V84.3h2V80Zm-13.52,1.82a1.38,1.38,0,1,1,0,2.76h-1.92V75.66Zm3.95,8.64-2.33-4.51A2.83,2.83,0,0,0,304.19,77a3.16,3.16,0,0,0-3.4-3.2h-4.1V84.3h2.05V80.13h1.47l2,4.17Zm-13.29-8.17c.4.44.51.93.51,2.94s-.11,2.5-.51,2.94a1.82,1.82,0,0,1-2.63,0c-.4-.44-.5-.93-.5-2.94s.1-2.5.5-2.94a1.82,1.82,0,0,1,2.63,0Zm1.51,7.11c1.06-1.06,1-2.36,1-4.17s0-3.12-1-4.17A3.77,3.77,0,0,0,290,73.75a3.82,3.82,0,0,0-2.84,1.15c-1.05,1-1,2.36-1,4.17s0,3.11,1,4.17A3.82,3.82,0,0,0,290,84.39a3.77,3.77,0,0,0,2.82-1.15Zm-9.5,1.06V73.84h-2L278.6,79.5l-2.74-5.66h-2V84.3h2V78.2l2,4h1.39l2-4v6.1Zm-12.21,0V82.48h-4.85V79.93h4.13V78.11h-4.13V75.66h4.85V73.84h-6.89V84.3Zm-10.06,0V73.84h-2l-2.71,5.66-2.74-5.66h-2V84.3h2V78.2l2,4H257l2-4v6.1Zm-18.85-8c.38.47.44,1.13.44,2.72s-.06,2.33-.44,2.8a1.82,1.82,0,0,1-1.53.65h-1.54V75.66h1.54a1.82,1.82,0,0,1,1.53.65Zm1.42,7c1.18-1.18,1.06-2.7,1.06-4.27s.12-3-1.06-4.19a3.79,3.79,0,0,0-2.76-1h-3.78V84.3h3.78a3.79,3.79,0,0,0,2.76-1Zm-9.56,1V73.84h-2v6.4l-4.14-6.4h-1.83V84.3h2V77.88l4.15,6.42Zm-13.32-3.57h-2.6l1.32-3.81ZM224,84.3l-3.82-10.46h-1.6L214.81,84.3h2.13l.63-1.85h3.72l.62,1.85Zm-15.95-1.1a4.19,4.19,0,0,0,1-3.19V78.48h-4v1.71h1.93v.39a2,2,0,0,1-.47,1.4,1.92,1.92,0,0,1-1.46.59,1.7,1.7,0,0,1-1.31-.55c-.39-.44-.5-.94-.5-3s.11-2.5.5-2.94a1.7,1.7,0,0,1,1.31-.56A1.78,1.78,0,0,1,207,77.1h2.06a4,4,0,0,0-6.76-2.2c-1.06,1.06-1,2.36-1,4.17s0,3.11,1,4.17a3.82,3.82,0,0,0,2.82,1.15,3.93,3.93,0,0,0,3-1.19Zm-9.41,1.1V73.84h-2v6.4l-4.14-6.4h-1.83V84.3h2.05V77.88l4.14,6.42Zm-13.15,0h2.05V73.84h-2.05Zm-3.09,0V73.84h-2.05v6.4l-4.14-6.4h-1.82V84.3h2V77.88l4.14,6.42Zm-14.39-8.64a1.38,1.38,0,1,1,0,2.76h-1.92V75.66Zm4,8.64-2.34-4.51A2.81,2.81,0,0,0,171.58,77a3.16,3.16,0,0,0-3.39-3.2h-4.1V84.3h2V80.13h1.47l2,4.17Zm-13.17-3.57h-2.6l1.33-3.81Zm3.3,3.57-3.83-10.46h-1.6l-3.8,10.46H155l.63-1.85h3.72L160,84.3Zm-10.82,0V82.48h-4.85V79.93h4.13V78.11h-4.13V75.66h4.85V73.84h-6.89V84.3Zm-9.28,0V82.48h-4.75V73.84h-2V84.3Zm-17.23-8.64a1.38,1.38,0,1,1,0,2.76h-1.93V75.66Zm3.95,8.64-2.34-4.51A2.81,2.81,0,0,0,128.33,77a3.16,3.16,0,0,0-3.39-3.2h-4.1V84.3h2V80.13h1.47l2,4.17Zm-13.3-8.17c.4.44.52.93.52,2.94s-.12,2.5-.52,2.94a1.67,1.67,0,0,1-1.3.56,1.71,1.71,0,0,1-1.32-.56c-.4-.44-.51-.93-.51-2.94s.11-2.5.51-2.94a1.71,1.71,0,0,1,1.32-.56,1.67,1.67,0,0,1,1.3.56ZM117,83.24c1-1.06,1-2.36,1-4.17s0-3.12-1-4.17a4.06,4.06,0,0,0-5.66,0c-1.06,1-1,2.36-1,4.17s0,3.11,1,4.17a4.06,4.06,0,0,0,5.66,0Zm-13.4-7.58v2.57h4.13v1.82h-4.13V84.3h-2V73.84h6.89v1.82Z"/></g></g></g></g></g></svg>