<?xml version="1.0" encoding="utf-8"?>
<!-- Generator: Adobe Illustrator 22.0.0, SVG Export Plug-In . SVG Version: 6.00 Build 0)  -->
<svg version="1.1" id="Layer_1" xmlns="http://www.w3.org/2000/svg" xmlns:xlink="http://www.w3.org/1999/xlink" x="0px" y="0px"
	 viewBox="0 0 280 279.4" style="enable-background:new 0 0 280 279.4;" xml:space="preserve">
<style type="text/css">
	.st0{fill:#FFFFFF;}
</style>
<g>
	<path class="st0" d="M150.4,188.6c2.3-2,3.5-4.8,3.5-8.5c0-4.2-1-7.1-3.1-8.8c-2.1-1.7-5.1-2.5-9-2.5h-23.6v22.8h23.6
		C145.2,191.6,148.1,190.6,150.4,188.6z"/>
	<path class="st0" d="M143.7,202h-25.6v25.8h25.6c4.4,0,7.8-1.1,10.3-3.4c2.4-2.3,3.7-5.5,3.7-9.7c0-4.1-1.2-7.2-3.7-9.4
		C151.5,203.1,148.1,202,143.7,202z"/>
	<path class="st0" d="M79.3,176.6c-2-3-4.6-5.3-7.8-7.1c-3.2-1.8-7-2.7-11.4-2.7s-8.2,0.9-11.4,2.7c-3.2,1.8-5.8,4.2-7.8,7.1
		c-2,3-3.5,6.4-4.5,10.1c-1,3.8-1.4,7.6-1.4,11.6s0.5,7.8,1.4,11.6c1,3.8,2.5,7.2,4.5,10.1c2,3,4.6,5.4,7.8,7.1
		c3.2,1.8,7,2.7,11.4,2.7c1.5,0,3.1-0.2,4.7-0.5c1.6-0.3,3.1-0.8,4.6-1.5l-8.3-7.3l7-8l10.1,8.8c2.6-3.2,4.5-6.8,5.6-10.8
		c1.1-4,1.6-8.1,1.6-12.3c0-3.9-0.5-7.8-1.4-11.6C82.8,182.9,81.3,179.6,79.3,176.6z"/>
	<path class="st0" d="M0,0v280h280V0H0z M99,206.9c-0.5,2.9-1.2,5.7-2.1,8.5c-0.9,2.8-2.1,5.4-3.6,7.9c-1.5,2.5-3.2,4.7-5.3,6.7
		l10.7,9.3l-7.1,7.9l-12.1-10.5c-3.1,1.8-6.3,3.1-9.6,3.8c-3.3,0.8-6.6,1.2-9.8,1.2c-6.2,0-11.7-1.1-16.6-3.4
		c-4.9-2.3-9.1-5.4-12.5-9.3c-3.4-3.9-6-8.5-7.8-13.8c-1.8-5.3-2.7-10.9-2.7-16.8c0-5.9,0.9-11.4,2.7-16.7c1.8-5.3,4.4-9.8,7.8-13.8
		c3.4-3.9,7.5-7.1,12.5-9.4c4.9-2.3,10.4-3.5,16.6-3.5c6.2,0,11.7,1.2,16.6,3.5c4.9,2.3,9.1,5.4,12.5,9.4c3.4,3.9,6,8.5,7.8,13.8
		c1.8,5.3,2.7,10.8,2.7,16.7C99.7,201.2,99.4,204,99,206.9z M170.3,225.7c-1.2,2.8-3,5.3-5.4,7.3c-2.5,2-5.6,3.7-9.5,4.9
		c-3.9,1.2-8.5,1.8-13.8,1.8h-38v-82.7h40.2c7.4,0,13.4,1.7,17.8,5.1c4.5,3.4,6.7,8.5,6.7,15.4c0,4.2-1,7.7-3.1,10.7
		c-2,3-5,5.3-8.7,6.9v0.2c5.1,1.1,9,3.5,11.6,7.2c2.6,3.7,3.9,8.4,3.9,14.1C172.1,219.9,171.5,222.9,170.3,225.7z M184.9,239.7h-9.8
		v-59.9h9.8V239.7z M184.9,169h-9.8v-12.1h9.8V169z M251.8,232.8c-6.1,5.8-14.4,8.7-25,8.7c-6.4,0-12-1.1-16.8-3.3
		c-4.8-2.2-8.8-5.2-11.9-9.1c-3.2-3.9-5.5-8.4-7.1-13.7c-1.6-5.3-2.4-10.9-2.4-16.9s0.8-11.7,2.5-17c1.7-5.3,4.2-9.9,7.5-13.8
		c3.3-3.9,7.4-7,12.3-9.3c4.9-2.3,10.5-3.4,16.9-3.4c4.3,0,8.4,0.6,12.3,1.7c3.9,1.2,7.3,2.9,10.3,5.1c3,2.2,5.5,5,7.5,8.4
		c2,3.4,3.3,7.2,3.9,11.6h-11c-1.2-5.9-4-10.3-8.2-13.2c-4.2-2.9-9.2-4.4-15-4.4c-4.9,0-9.2,0.9-12.7,2.8c-3.5,1.9-6.4,4.3-8.7,7.5
		c-2.3,3.1-4,6.7-5,10.7c-1.1,4-1.6,8.2-1.6,12.5c0,4.7,0.5,9.2,1.6,13.4c1.1,4.2,2.8,7.9,5,11c2.3,3.1,5.2,5.6,8.7,7.5
		c3.6,1.9,7.8,2.8,12.7,2.8c3.6,0,6.9-0.6,9.7-1.8c2.8-1.2,5.3-2.9,7.3-5c2-2.1,3.7-4.7,4.8-7.6c1.2-2.9,1.9-6.1,2.1-9.5h11
		C261.5,218.9,257.9,227,251.8,232.8z"/>
</g>
</svg>
