<?xml version="1.0" encoding="UTF-8" standalone="no"?>
<!-- Created with Inkscape (http://www.inkscape.org/) -->

<svg
   version="1.1"
   id="svg2"
   width="1537.6865"
   height="627.89862"
   viewBox="0 0 1537.6865 627.89862"
   sodipodi:docname="sagc cmyk-04.eps"
   inkscape:version="1.2.2 (b0a8486541, 2022-12-01)"
   xmlns:inkscape="http://www.inkscape.org/namespaces/inkscape"
   xmlns:sodipodi="http://sodipodi.sourceforge.net/DTD/sodipodi-0.dtd"
   xmlns="http://www.w3.org/2000/svg"
   xmlns:svg="http://www.w3.org/2000/svg">
  <defs
     id="defs6" />
  <sodipodi:namedview
     id="namedview4"
     pagecolor="#ffffff"
     bordercolor="#000000"
     borderopacity="0.25"
     inkscape:showpageshadow="2"
     inkscape:pageopacity="0.0"
     inkscape:pagecheckerboard="0"
     inkscape:deskcolor="#d1d1d1"
     showgrid="false"
     inkscape:zoom="0.38748226"
     inkscape:cx="1122.632"
     inkscape:cy="259.36671"
     inkscape:window-width="1592"
     inkscape:window-height="1230"
     inkscape:window-x="0"
     inkscape:window-y="0"
     inkscape:window-maximized="0"
     inkscape:current-layer="g12">
    <inkscape:page
       x="0"
       y="0"
       id="page8"
       width="1537.6865"
       height="627.89862" />
  </sodipodi:namedview>
  <g
     id="g10"
     inkscape:groupmode="layer"
     inkscape:label="Page 1"
     transform="matrix(1.3333333,0,0,-1.3333333,-166.07343,795.18665)">
    <g
       id="g12"
       transform="scale(0.1)">
      <path
         d="m 3130.4,5055.29 c -81.52,-47.6 -201.27,5.72 -267.46,119.08 -66.17,113.36 -53.75,243.85 27.83,291.45 81.52,47.59 201.31,-5.71 267.46,-119.07 66.17,-113.36 53.71,-243.86 -27.83,-291.46"
         style="fill:#ffffff;fill-opacity:1;fill-rule:nonzero;stroke:none"
         id="path16" />
      <path
         d="m 3285.38,4632.03 c 103.87,89.43 195.9,187.38 240.76,314.04 88.87,251.29 -92.58,471.11 -92.58,471.11 0,0 93.32,-249.66 -110.31,-462.55 -55.51,-57.95 -123.42,-122.45 -194.59,-187.17 56.37,-49.51 78.05,-55.84 156.72,-135.43"
         style="fill:#ffffff;fill-opacity:1;fill-rule:nonzero;stroke:none"
         id="path18" />
      <path
         d="m 2774.85,3342.46 c -25.68,52.22 -64.49,94.88 -112.63,134.35 -53.99,-25.7 -119.1,-57.11 -184.46,-84.39 -257.89,-108.03 -694.7,-104.14 -694.7,-104.14 l 159.12,-13.48 c 195.68,-10.78 468.28,37.79 468.28,37.79 l -280.63,-340.23 c 95.88,106.99 159.75,168.59 242.58,238.16 -28.53,-25.31 -17.52,-15.78 11.1,9.32 3.1,2.56 6.56,4.71 9.29,7.66 144.49,155.27 275.39,147.18 275.39,147.18 0,0 0.3,-82.05 -58.02,-163.28 -68.77,-95.88 -320.94,-302.07 -320.94,-302.07 98.75,42.09 298.01,226.49 298.01,226.49 -40.53,-114.48 -67.05,-316.02 -70.1,-399.63 7.03,66.07 35.49,198.88 140.17,425.78 28.34,61.33 74.61,126.33 117.54,180.49"
         style="fill:#ffffff;fill-opacity:1;fill-rule:nonzero;stroke:none"
         id="path20" />
      <path
         d="m 2972.29,4597.71 c 166.25,-153.89 332.45,-337.48 306.68,-526.46 -25.82,-189.01 -160.48,-313.21 -269.41,-394.16 -57.79,-43.01 -131.64,-90.16 -226.58,-141.12 35.15,-23.45 71.39,-45.23 106.42,-64.82 42.19,41.42 76.23,69.92 89.38,78.73 172.03,133.22 565.64,285.88 565.64,659.04 0,353.34 -680.76,714.3 -933.16,1016.58 -212.21,254.2 -183.4,507.99 -183.4,507.99 0,0 -137.42,-225.84 -86.76,-413.51 35.3,-130.69 107.05,-209.87 253.23,-361.08 146.11,-151.19 211.77,-207.28 377.96,-361.19"
         style="fill:#ffffff;fill-opacity:1;fill-rule:nonzero;stroke:none"
         id="path22" />
      <path
         d="m 4050.75,3236.85 c 0,0 -35.64,4.83 -152.89,29.53 -112.85,23.77 -333.98,56.68 -551.58,124.12 -94.67,29.36 -155.18,52.47 -155.18,52.47 0,0 -336.73,105.58 -504.14,261.71 l 346.6,39.59 -412.2,47 v -7.41 c -11.76,20.18 -20.06,40.98 -24.01,62.21 l 540.75,42.93 -534.87,42.4 c 4.71,19.42 10.94,38.66 18.44,57.74 l 599.3,44.59 -556.7,41.44 c 11.42,19.32 23.83,38.22 36.95,56.66 l 519.75,46.66 -450.49,40.43 c 21.07,23.93 42.58,46.58 63.71,67.58 l 321.99,36.78 -252.26,28.75 c 55.91,49.7 100.07,82.83 110.74,91.79 -27.74,28.29 -45.02,44.22 -73.77,70.88 -44.22,40.94 -43.05,38.23 -85.35,73.52 -174.65,-138.2 -486.7,-289.92 -486.7,-571.25 0,-362.33 508.87,-470.78 508.87,-735.1 0,-260.41 -125.98,-516.56 -125.98,-516.56 82.46,94.53 135.62,312.58 154.69,282.56 53.82,-84.57 152.87,-196.17 152.87,-196.17 0,0 -152.25,213.96 -137.41,328.65 15.49,119.59 85.73,162.58 107.29,165.97 21.6,3.38 69.41,4.57 90.43,-75.56 17.44,-66.64 -41.47,-359.61 -41.47,-359.61 l 107.6,309.69 c 134.26,-200.39 481.02,-250.39 382.6,-224.48 -98.36,25.88 -246.97,160.37 -246.97,160.37 0,0 -275.45,238.54 -27.52,198.09 197.73,-32.23 376.52,-331.95 376.52,-331.95 -19.3,82.97 -117.95,253.08 -117.95,253.08 0,0 99.06,-12.11 188.85,-21.03 89.77,-8.97 309.49,-18.07 309.49,-18.07"
         style="fill:#ffffff;fill-opacity:1;fill-rule:nonzero;stroke:none"
         id="path24" />
      <path
         d="m 1272.84,1370.84 c -10.9,7.26 -18.14,20.56 -18.14,36.3 0,26.63 20.56,47.19 45.97,47.19 12.11,0 22.99,-4.82 29.05,-10.88 79.86,-67.77 159.72,-100.45 267.44,-100.45 113.75,0 188.77,60.51 188.77,144.01 v 2.42 c 0,78.65 -42.37,123.44 -220.26,160.94 -194.8,42.36 -284.35,105.27 -284.35,244.43 v 2.44 c 0,133.11 117.36,231.12 278.32,231.12 111.33,0 192.4,-27.84 269.84,-83.5 9.69,-7.25 20.59,-20.57 20.59,-38.71 0,-25.43 -20.59,-46 -46,-46 -10.88,0 -19.35,2.42 -27.83,8.48 -71.39,52.03 -140.37,73.81 -219.02,73.81 -110.12,0 -180.32,-60.51 -180.32,-136.74 v -2.42 c 0,-79.87 43.58,-124.63 229.93,-164.57 188.79,-41.14 275.89,-110.12 275.89,-239.61 v -2.4 c 0,-145.22 -120.99,-239.61 -289.19,-239.61 -123.44,0 -226.31,38.73 -320.69,113.75"
         style="fill:#ffffff;fill-opacity:1;fill-rule:nonzero;stroke:none"
         id="path26" />
      <path
         d="m 2609.99,1580.19 -194.82,433.2 -194.85,-433.2 z m -599,-248.06 343.67,751.46 c 12.09,26.62 30.25,42.34 60.51,42.34 h 4.82 c 29.04,0 48.42,-15.72 59.3,-42.34 l 343.67,-750.25 c 3.63,-8.48 6.05,-16.96 6.05,-24.2 0,-25.43 -20.56,-46 -45.99,-46 -22.99,0 -38.71,15.74 -47.19,35.1 l -88.34,194.82 h -464.67 l -88.34,-197.24 c -8.47,-20.57 -24.2,-32.68 -45.97,-32.68 -24.22,0 -43.58,19.36 -43.58,43.56 0,7.26 1.21,15.74 6.06,25.43"
         style="fill:#ffffff;fill-opacity:1;fill-rule:nonzero;stroke:none"
         id="path28" />
      <path
         d="m 2930.63,1690.31 v 2.42 c 0,232.33 170.63,438.05 424.75,438.05 128.26,0 211.76,-33.89 289.2,-90.76 10.9,-8.46 19.38,-21.78 19.38,-38.71 0,-26.63 -21.8,-48.4 -47.21,-48.4 -10.88,0 -20.57,4.82 -30.26,12.09 -60.48,45.97 -128.26,77.44 -234.74,77.44 -187.58,0 -321.9,-158.52 -321.9,-347.29 v -2.42 c 0,-202.09 129.5,-352.15 335.22,-352.15 96.8,0 186.35,37.52 244.43,84.71 v 210.57 H 3382 c -22.99,0 -42.36,19.35 -42.36,42.34 0,24.2 19.37,43.57 42.36,43.57 h 272.27 c 25.41,0 47.19,-21.79 47.19,-48.39 v -257.76 c 0,-23.01 -10.88,-43.57 -32.68,-58.08 -77.44,-56.88 -181.5,-102.88 -307.34,-102.88 -266.23,0 -430.81,193.64 -430.81,435.65"
         style="fill:#ffffff;fill-opacity:1;fill-rule:nonzero;stroke:none"
         id="path30" />
      <path
         d="m 3879.31,1690.31 v 2.42 c 0,239.59 179.1,438.05 428.38,438.05 136.73,0 223.86,-44.77 302.52,-110.12 9.68,-8.48 19.37,-21.78 19.37,-38.73 0,-25.41 -22.99,-47.19 -48.42,-47.19 -13.3,0 -24.2,6.06 -31.44,10.9 -65.35,58.09 -139.16,96.8 -243.25,96.8 -187.55,0 -327.93,-152.46 -327.93,-347.29 v -2.42 c 0,-196.03 141.59,-349.73 327.93,-349.73 105.28,0 179.11,36.31 251.7,102.86 7.27,7.26 18.17,13.32 30.26,13.32 24.2,0 45.99,-21.78 45.99,-45.98 0,-14.53 -7.26,-26.62 -15.74,-33.89 -83.49,-76.23 -175.47,-124.65 -314.63,-124.65 -244.43,0 -424.74,192.41 -424.74,435.65"
         style="fill:#ffffff;fill-opacity:1;fill-rule:nonzero;stroke:none"
         id="path32" />
      <path
         d="m 6142.43,5097.36 c -8.73,5.82 -14.55,16.48 -14.55,29.1 0,21.37 16.5,37.85 36.88,37.85 9.7,0 18.43,-3.86 23.3,-8.73 64.06,-54.35 128.1,-80.54 214.49,-80.54 91.23,0 151.41,48.51 151.41,115.48 v 1.96 c 0,63.06 -33.97,98.98 -176.65,129.08 -156.25,33.96 -228.08,84.43 -228.08,196.03 v 1.96 c 0,106.76 94.14,185.37 223.22,185.37 89.3,0 154.34,-22.33 216.45,-66.97 7.75,-5.82 16.5,-16.51 16.5,-31.06 0,-20.39 -16.5,-36.87 -36.89,-36.87 -8.73,0 -15.53,1.93 -22.33,6.79 -57.24,41.72 -112.58,59.2 -175.66,59.2 -88.32,0 -144.61,-48.53 -144.61,-109.67 v -1.95 c 0,-64.06 34.94,-99.96 184.39,-131.99 151.41,-32.99 221.29,-88.32 221.29,-192.17 v -1.93 c 0,-116.49 -97.05,-192.17 -231.95,-192.17 -99.01,0 -181.51,31.05 -257.21,91.23"
         style="fill:#ffffff;fill-opacity:1;fill-rule:nonzero;stroke:none"
         id="path34" />
      <path
         d="m 7395.44,5353.57 v 1.95 c 0,154.32 -112.6,280.49 -267.87,280.49 -155.29,0 -265.94,-124.24 -265.94,-278.55 v -1.94 c 0,-154.31 112.58,-280.48 267.87,-280.48 155.29,0 265.94,124.21 265.94,278.53 z m -613.4,0 v 1.95 c 0,187.31 140.74,351.33 347.46,351.33 206.74,0 345.51,-162.07 345.51,-349.39 v -1.94 c 0,-187.32 -140.72,-351.34 -347.44,-351.34 -206.74,0 -345.53,162.09 -345.53,349.39"
         style="fill:#ffffff;fill-opacity:1;fill-rule:nonzero;stroke:none"
         id="path36" />
      <path
         d="m 7650.69,5300.19 v 361.06 c 0,21.34 17.48,38.81 37.85,38.81 21.35,0 38.83,-17.47 38.83,-38.81 v -356.19 c 0,-146.57 78.62,-229.07 207.7,-229.07 125.19,0 204.78,75.71 204.78,224.2 v 361.06 c 0,21.34 17.46,38.81 38.83,38.81 20.37,0 37.85,-17.47 37.85,-38.81 v -355.24 c 0,-197.99 -113.55,-300.86 -283.41,-300.86 -167.9,0 -282.43,102.87 -282.43,295.04"
         style="fill:#ffffff;fill-opacity:1;fill-rule:nonzero;stroke:none"
         id="path38" />
      <path
         d="m 8601.85,5624.35 h -197.02 c -19.41,0 -35.91,15.55 -35.91,34.94 0,19.42 16.5,35.92 35.91,35.92 h 471.68 c 19.42,0 35.92,-16.5 35.92,-35.92 0,-19.39 -16.5,-34.94 -35.92,-34.94 H 8679.5 V 5049.8 c 0,-21.35 -17.48,-38.83 -38.83,-38.83 -21.36,0 -38.82,17.48 -38.82,38.83 v 574.55"
         style="fill:#ffffff;fill-opacity:1;fill-rule:nonzero;stroke:none"
         id="path40" />
      <path
         d="m 9075.48,5661.25 c 0,21.34 17.48,38.81 37.85,38.81 21.35,0 38.83,-17.47 38.83,-38.81 v -267.87 h 392.11 v 267.87 c 0,21.34 17.46,38.81 38.81,38.81 20.39,0 37.85,-17.47 37.85,-38.81 V 5049.8 c 0,-21.35 -17.46,-38.83 -37.85,-38.83 -21.35,0 -38.81,17.48 -38.81,38.83 v 271.76 H 9152.16 V 5049.8 c 0,-21.35 -17.48,-38.83 -38.83,-38.83 -20.37,0 -37.85,17.48 -37.85,38.83 v 611.45"
         style="fill:#ffffff;fill-opacity:1;fill-rule:nonzero;stroke:none"
         id="path42" />
      <path
         d="m 6605.4,4089.22 -156.27,347.46 -156.25,-347.46 z m -480.43,-198.97 275.65,602.72 c 9.68,21.34 24.25,33.96 48.51,33.96 h 3.89 c 23.3,0 38.81,-12.62 47.56,-33.96 l 275.62,-601.74 c 2.93,-6.8 4.86,-13.6 4.86,-19.42 0,-20.39 -16.5,-36.87 -36.87,-36.87 -18.44,0 -31.07,12.62 -37.85,28.14 l -70.86,156.25 h -372.7 l -70.84,-158.2 c -6.79,-16.5 -19.41,-26.19 -36.89,-26.19 -19.4,0 -34.94,15.53 -34.94,34.92 0,5.84 0.97,12.62 4.86,20.39"
         style="fill:#ffffff;fill-opacity:1;fill-rule:nonzero;stroke:none"
         id="path44" />
      <path
         d="m 6919.87,4124.16 v 361.03 c 0,21.37 17.46,38.83 37.85,38.83 21.37,0 38.83,-17.46 38.83,-38.83 V 4129 c 0,-146.56 78.62,-229.04 207.7,-229.04 125.19,0 204.78,75.7 204.78,224.2 v 361.03 c 0,21.37 17.46,38.83 38.83,38.83 20.37,0 37.85,-17.46 37.85,-38.83 v -355.21 c 0,-198.01 -113.55,-300.88 -283.42,-300.88 -167.89,0 -282.42,102.87 -282.42,295.06"
         style="fill:#ffffff;fill-opacity:1;fill-rule:nonzero;stroke:none"
         id="path46" />
      <path
         d="m 7667.22,3921.31 c -8.75,5.82 -14.57,16.5 -14.57,29.12 0,21.34 16.5,37.85 36.87,37.85 9.73,0 18.46,-3.89 23.3,-8.73 64.06,-54.36 128.11,-80.57 214.49,-80.57 91.23,0 151.41,48.54 151.41,115.51 v 1.93 c 0,63.09 -33.96,99.01 -176.64,129.08 -156.25,33.97 -228.07,84.44 -228.07,196.06 v 1.93 c 0,106.76 94.14,185.37 223.23,185.37 89.29,0 154.31,-22.3 216.42,-66.95 7.78,-5.82 16.51,-16.5 16.51,-31.05 0,-20.39 -16.51,-36.9 -36.88,-36.9 -8.75,0 -15.55,1.93 -22.32,6.8 -57.27,41.74 -112.6,59.2 -175.69,59.2 -88.32,0 -144.61,-48.52 -144.61,-109.67 v -1.93 c 0,-64.07 34.95,-99.98 184.42,-132.02 151.38,-32.98 221.29,-88.3 221.29,-192.16 v -1.94 c 0,-116.46 -97.07,-192.17 -231.98,-192.17 -99,0 -181.48,31.06 -257.18,91.24"
         style="fill:#ffffff;fill-opacity:1;fill-rule:nonzero;stroke:none"
         id="path48" />
      <path
         d="m 8501.88,4448.32 h -197.01 c -19.41,0 -35.91,15.52 -35.91,34.94 0,19.41 16.5,35.92 35.91,35.92 h 471.68 c 19.42,0 35.92,-16.51 35.92,-35.92 0,-19.42 -16.5,-34.94 -35.92,-34.94 h -197.01 v -574.57 c 0,-21.35 -17.48,-38.81 -38.83,-38.81 -21.36,0 -38.83,17.46 -38.83,38.81 v 574.57"
         style="fill:#ffffff;fill-opacity:1;fill-rule:nonzero;stroke:none"
         id="path50" />
      <path
         d="m 9260.87,4172.67 c 101.91,0 174.71,52.42 174.71,139.77 v 1.95 c 0,83.46 -64.07,133.93 -173.73,133.93 H 9052.2 v -275.65 z m -285.33,307.68 c 0,21.35 17.46,38.83 37.85,38.83 h 254.28 c 83.47,0 150.45,-25.24 193.14,-67.95 33.01,-32.99 52.4,-80.55 52.4,-133.95 v -1.93 c 0,-111.62 -75.7,-176.64 -181.48,-197.01 l 168.87,-217.43 c 7.77,-8.73 12.61,-17.46 12.61,-28.12 0,-20.39 -19.39,-37.85 -38.83,-37.85 -15.52,0 -27.16,8.73 -35.89,20.37 l -191.21,248.46 H 9052.2 v -230.02 c 0,-21.35 -17.46,-38.81 -38.81,-38.81 -20.39,0 -37.85,17.46 -37.85,38.81 v 606.6"
         style="fill:#ffffff;fill-opacity:1;fill-rule:nonzero;stroke:none"
         id="path52" />
      <path
         d="m 10140.2,4089.22 -156.26,347.46 -156.25,-347.46 z m -480.42,-198.97 275.62,602.72 c 9.73,21.34 24.28,33.96 48.54,33.96 h 3.88 c 23.28,0 38.78,-12.62 47.58,-33.96 l 275.6,-601.74 c 2.9,-6.8 4.9,-13.6 4.9,-19.42 0,-20.39 -16.5,-36.87 -36.9,-36.87 -18.5,0 -31.1,12.62 -37.9,28.14 l -70.8,156.25 h -372.71 l -70.84,-158.2 c -6.8,-16.5 -19.42,-26.19 -36.9,-26.19 -19.39,0 -34.94,15.53 -34.94,34.92 0,5.84 0.98,12.62 4.87,20.39"
         style="fill:#ffffff;fill-opacity:1;fill-rule:nonzero;stroke:none"
         id="path54" />
      <path
         d="m 10486.7,4485.19 c 0,21.37 17.5,38.83 37.8,38.83 21.4,0 38.9,-17.46 38.9,-38.83 v -574.57 h 352.3 c 19.4,0 34.9,-16.48 34.9,-35.9 0,-19.41 -15.5,-34.94 -34.9,-34.94 h -391.2 c -20.3,0 -37.8,17.46 -37.8,38.83 v 606.58"
         style="fill:#ffffff;fill-opacity:1;fill-rule:nonzero;stroke:none"
         id="path56" />
      <path
         d="m 11118.5,4485.19 c 0,21.37 17.5,38.83 37.9,38.83 21.3,0 38.8,-17.46 38.8,-38.83 v -611.44 c 0,-21.35 -17.5,-38.81 -38.8,-38.81 -20.4,0 -37.9,17.46 -37.9,38.81 v 611.44"
         style="fill:#ffffff;fill-opacity:1;fill-rule:nonzero;stroke:none"
         id="path58" />
      <path
         d="m 11857.1,4089.22 -156.2,347.46 -156.3,-347.46 z m -480.4,-198.97 275.6,602.72 c 9.7,21.34 24.3,33.96 48.6,33.96 h 3.8 c 23.3,0 38.9,-12.62 47.6,-33.96 l 275.6,-601.74 c 2.9,-6.8 4.9,-13.6 4.9,-19.42 0,-20.39 -16.5,-36.87 -36.9,-36.87 -18.4,0 -31.1,12.62 -37.8,28.14 l -70.9,156.25 h -372.7 l -70.8,-158.2 c -6.8,-16.5 -19.5,-26.19 -36.9,-26.19 -19.4,0 -35,15.53 -35,34.92 0,5.84 1,12.62 4.9,20.39"
         style="fill:#ffffff;fill-opacity:1;fill-rule:nonzero;stroke:none"
         id="path60" />
      <path
         d="m 12203.6,4484.22 c 0,20.39 17.5,37.85 37.9,37.85 h 10.6 c 17.5,0 28.2,-8.73 38.9,-22.31 l 412.4,-526.05 v 512.46 c 0,20.39 16.6,37.85 37.9,37.85 20.4,0 36.9,-17.46 36.9,-37.85 v -613.38 c 0,-20.39 -14.6,-35.92 -35,-35.92 h -3.9 c -16.4,0 -28.1,9.71 -39.7,23.3 l -421.3,538.65 v -526.03 c 0,-20.39 -16.5,-37.85 -37.8,-37.85 -20.4,0 -36.9,17.46 -36.9,37.85 v 611.43"
         style="fill:#ffffff;fill-opacity:1;fill-rule:nonzero;stroke:none"
         id="path62" />
      <path
         d="m 6136.61,3001.48 v 1.95 c 0,186.35 136.86,351.33 340.67,351.33 102.89,0 169.84,-27.17 231.97,-72.79 8.73,-6.8 15.53,-17.46 15.53,-31.06 0,-21.34 -17.49,-38.82 -37.86,-38.82 -8.75,0 -16.5,3.88 -24.27,9.7 -48.52,36.88 -102.87,62.11 -188.28,62.11 -150.43,0 -258.17,-127.13 -258.17,-278.53 v -1.94 c 0,-162.09 103.85,-282.44 268.85,-282.44 77.64,0 149.45,30.1 196.05,67.95 v 168.87 h -182.48 c -18.43,0 -33.96,15.53 -33.96,33.96 0,19.42 15.53,34.95 33.96,34.95 H 6717 c 20.39,0 37.85,-17.47 37.85,-38.81 v -206.74 c 0,-18.44 -8.73,-34.94 -26.19,-46.58 -62.13,-45.63 -145.58,-82.5 -246.52,-82.5 -213.54,0 -345.53,155.29 -345.53,349.39"
         style="fill:#ffffff;fill-opacity:1;fill-rule:nonzero;stroke:none"
         id="path64" />
      <path
         d="m 6951.9,2702.56 v 601.73 c 0,21.35 17.47,38.83 37.86,38.83 h 422.18 c 19.4,0 34.94,-15.53 34.94,-34.94 0,-19.41 -15.54,-34.94 -34.94,-34.94 h -383.38 v -231.95 h 339.69 c 19.42,0 34.94,-16.51 34.94,-34.97 0,-19.39 -15.52,-34.92 -34.94,-34.92 h -339.69 v -237.79 h 388.23 c 19.41,0 34.94,-15.53 34.94,-34.94 0,-19.4 -15.53,-34.94 -34.94,-34.94 h -427.03 c -20.39,0 -37.86,17.48 -37.86,38.83"
         style="fill:#ffffff;fill-opacity:1;fill-rule:nonzero;stroke:none"
         id="path66" />
      <path
         d="m 7626.44,3308.18 c 0,20.37 17.48,37.85 37.85,37.85 h 10.68 c 17.48,0 28.15,-8.73 38.83,-22.32 l 412.48,-526.04 v 512.44 c 0,20.39 16.5,37.86 37.85,37.86 20.37,0 36.88,-17.47 36.88,-37.86 v -613.38 c 0,-20.39 -14.55,-35.91 -34.95,-35.91 h -3.88 c -16.51,0 -28.15,9.7 -39.79,23.3 l -421.21,538.65 v -526.04 c 0,-20.39 -16.5,-37.85 -37.85,-37.85 -20.39,0 -36.89,17.46 -36.89,37.85 v 611.45"
         style="fill:#ffffff;fill-opacity:1;fill-rule:nonzero;stroke:none"
         id="path68" />
      <path
         d="m 9000.75,3001.48 v 1.95 c 0,154.3 -112.6,280.47 -267.87,280.47 -155.29,0 -265.94,-124.22 -265.94,-278.53 v -1.94 c 0,-154.33 112.58,-280.5 267.87,-280.5 155.3,0 265.94,124.23 265.94,278.55 z m -613.38,0 v 1.95 c 0,187.31 140.73,351.33 347.44,351.33 206.74,0 345.53,-162.09 345.53,-349.39 v -1.94 c 0,-187.32 -140.74,-351.34 -347.46,-351.34 -206.72,0 -345.51,162.09 -345.51,349.39"
         style="fill:#ffffff;fill-opacity:1;fill-rule:nonzero;stroke:none"
         id="path70" />
      <path
         d="m 9266.69,3308.18 c 0,20.37 17.48,37.85 37.85,37.85 h 8.75 c 16.49,0 28.13,-8.73 35.9,-20.39 l 242.64,-364.92 242.63,364.92 c 7.78,12.62 20.39,20.39 35.92,20.39 h 8.73 c 20.37,0 37.85,-17.48 37.85,-37.85 v -610.49 c 0,-21.35 -17.48,-38.81 -37.85,-38.81 -21.35,0 -38.83,18.44 -38.83,38.81 v 506.64 l -217.4,-319.31 c -8.73,-12.62 -18.44,-19.42 -32.03,-19.42 -13.59,0 -24.26,6.8 -32.99,19.42 l -216.44,318.34 v -506.63 c 0,-21.34 -16.49,-37.85 -37.86,-37.85 -20.37,0 -36.87,16.51 -36.87,37.85 v 611.45"
         style="fill:#ffffff;fill-opacity:1;fill-rule:nonzero;stroke:none"
         id="path72" />
      <path
         d="m 10140.2,3309.16 c 0,21.34 17.5,38.81 37.9,38.81 21.3,0 38.8,-17.47 38.8,-38.81 v -611.47 c 0,-21.35 -17.5,-38.81 -38.8,-38.81 -20.4,0 -37.9,17.46 -37.9,38.81 v 611.47"
         style="fill:#ffffff;fill-opacity:1;fill-rule:nonzero;stroke:none"
         id="path74" />
      <path
         d="m 10410,3001.48 v 1.95 c 0,192.15 143.6,351.33 343.6,351.33 109.7,0 179.5,-35.92 242.6,-88.32 7.8,-6.8 15.5,-17.46 15.5,-31.05 0,-20.37 -18.4,-37.85 -38.8,-37.85 -10.6,0 -19.4,4.86 -25.2,8.73 -52.4,46.6 -111.6,77.63 -195.1,77.63 -150.4,0 -263,-122.28 -263,-278.53 v -1.94 c 0,-157.24 113.6,-280.5 263,-280.5 84.4,0 143.7,29.12 201.9,82.52 5.8,5.8 14.6,10.66 24.3,10.66 19.4,0 36.8,-17.48 36.8,-36.88 0,-11.64 -5.8,-21.36 -12.6,-27.18 -67,-61.14 -140.7,-99.96 -252.3,-99.96 -196.1,0 -340.7,154.31 -340.7,349.39"
         style="fill:#ffffff;fill-opacity:1;fill-rule:nonzero;stroke:none"
         id="path76" />
      <path
         d="m 11156.4,2745.25 c -8.8,5.84 -14.6,16.5 -14.6,29.12 0,21.35 16.5,37.85 36.9,37.85 9.7,0 18.4,-3.88 23.3,-8.73 64,-54.35 128.1,-80.56 214.5,-80.56 91.2,0 151.4,48.53 151.4,115.5 v 1.94 c 0,63.08 -34,99 -176.7,129.08 -156.2,33.98 -228,84.45 -228,196.05 v 1.94 c 0,106.78 94.1,185.39 223.2,185.39 89.3,0 154.3,-22.33 216.4,-66.97 7.8,-5.82 16.5,-16.51 16.5,-31.06 0,-20.39 -16.5,-36.89 -36.9,-36.89 -8.7,0 -15.5,1.95 -22.3,6.79 -57.3,41.74 -112.6,59.2 -175.7,59.2 -88.3,0 -144.6,-48.51 -144.6,-109.67 v -1.93 c 0,-64.06 35,-99.96 184.4,-131.99 151.4,-33.01 221.3,-88.32 221.3,-192.17 v -1.95 c 0,-116.45 -97,-192.17 -231.9,-192.17 -99,0 -181.5,31.05 -257.2,91.23"
         style="fill:#ffffff;fill-opacity:1;fill-rule:nonzero;stroke:none"
         id="path78" />
      <path
         d="m 6136.61,1825.45 v 1.93 c 0,192.17 143.65,351.35 343.58,351.35 109.66,0 179.55,-35.92 242.63,-88.32 7.78,-6.8 15.53,-17.48 15.53,-31.06 0,-20.39 -18.44,-37.85 -38.81,-37.85 -10.68,0 -19.41,4.84 -25.23,8.73 -52.43,46.58 -111.62,77.64 -195.1,77.64 -150.43,0 -263.01,-122.29 -263.01,-278.56 v -1.93 c 0,-157.23 113.56,-280.49 263.01,-280.49 84.45,0 143.65,29.12 201.89,82.5 5.82,5.82 14.55,10.68 24.26,10.68 19.42,0 36.88,-17.48 36.88,-36.87 0,-11.66 -5.82,-21.37 -12.62,-27.19 -66.97,-61.15 -140.72,-99.96 -252.34,-99.96 -196.06,0 -340.67,154.32 -340.67,349.4"
         style="fill:#ffffff;fill-opacity:1;fill-rule:nonzero;stroke:none"
         id="path80" />
      <path
         d="m 6907.24,1526.52 v 601.74 c 0,21.35 17.48,38.81 37.85,38.81 h 422.2 c 19.4,0 34.93,-15.51 34.93,-34.94 0,-19.4 -15.53,-34.93 -34.93,-34.93 h -383.37 v -231.97 h 339.68 c 19.42,0 34.94,-16.5 34.94,-34.94 0,-19.41 -15.52,-34.94 -34.94,-34.94 h -339.68 v -237.78 h 388.22 c 19.41,0 34.94,-15.52 34.94,-34.94 0,-19.41 -15.53,-34.94 -34.94,-34.94 h -427.05 c -20.37,0 -37.85,17.48 -37.85,38.83"
         style="fill:#ffffff;fill-opacity:1;fill-rule:nonzero;stroke:none"
         id="path82" />
      <path
         d="m 7581.79,2132.13 c 0,20.39 17.48,37.85 37.85,37.85 h 10.68 c 17.46,0 28.15,-8.73 38.81,-22.31 l 412.5,-526.05 v 512.46 c 0,20.37 16.5,37.85 37.85,37.85 20.37,0 36.88,-17.48 36.88,-37.85 v -613.4 c 0,-20.37 -14.55,-35.9 -34.94,-35.9 h -3.89 c -16.5,0 -28.15,9.71 -39.79,23.28 l -421.23,538.67 v -526.05 c 0,-20.37 -16.48,-37.85 -37.85,-37.85 -20.37,0 -36.87,17.48 -36.87,37.85 v 611.45"
         style="fill:#ffffff;fill-opacity:1;fill-rule:nonzero;stroke:none"
         id="path84" />
      <path
         d="m 8552.35,2096.23 h -197.03 c -19.41,0 -35.9,15.52 -35.9,34.94 0,19.41 16.49,35.9 35.9,35.9 h 471.7 c 19.4,0 35.9,-16.49 35.9,-35.9 0,-19.42 -16.5,-34.94 -35.9,-34.94 h -197.03 v -574.57 c 0,-21.35 -17.46,-38.83 -38.81,-38.83 -21.37,0 -38.83,17.48 -38.83,38.83 v 574.57"
         style="fill:#ffffff;fill-opacity:1;fill-rule:nonzero;stroke:none"
         id="path86" />
      <path
         d="m 9311.34,1820.58 c 101.89,0 174.69,52.42 174.69,139.77 v 1.95 c 0,83.46 -64.07,133.93 -173.74,133.93 h -209.62 v -275.65 z m -285.35,307.68 c 0,21.35 17.48,38.81 37.85,38.81 h 254.29 c 83.46,0 150.43,-25.24 193.13,-67.93 33.01,-33.01 52.42,-80.57 52.42,-133.93 v -1.95 c 0,-111.6 -75.7,-176.64 -181.5,-197.01 l 168.88,-217.41 c 7.76,-8.75 12.62,-17.48 12.62,-28.16 0,-20.37 -19.41,-37.85 -38.83,-37.85 -15.52,0 -27.18,8.75 -35.91,20.39 l -191.2,248.46 h -195.07 v -230.02 c 0,-21.35 -17.48,-38.83 -38.83,-38.83 -20.37,0 -37.85,17.48 -37.85,38.83 v 606.6"
         style="fill:#ffffff;fill-opacity:1;fill-rule:nonzero;stroke:none"
         id="path88" />
      <path
         d="m 9751.96,1526.52 v 601.74 c 0,21.35 17.48,38.81 37.85,38.81 H 10212 c 19.4,0 34.9,-15.51 34.9,-34.94 0,-19.4 -15.5,-34.93 -34.9,-34.93 h -383.36 v -231.97 h 339.66 c 19.4,0 35,-16.5 35,-34.94 0,-19.41 -15.6,-34.94 -35,-34.94 h -339.66 v -237.78 h 388.26 c 19.4,0 34.9,-15.52 34.9,-34.94 0,-19.41 -15.5,-34.94 -34.9,-34.94 h -427.09 c -20.37,0 -37.85,17.48 -37.85,38.83"
         style="fill:#ffffff;fill-opacity:1;fill-rule:nonzero;stroke:none"
         id="path90" />
      <path
         d="m 2407.12,5851.68 c 0,0 38.07,12.79 109.49,36.79 17.93,5.73 38.58,10.2 61,16.21 22.58,5.49 47.07,12.62 73.88,18.29 27.02,4.8 56.06,9.96 87.02,15.46 30.89,6.53 64.43,7.88 99.59,11.8 140.66,12.85 315.15,10.88 509.06,-32.13 12.09,-2.62 24.31,-5.27 36.66,-7.93 l 18.55,-4.02 c 7.31,-1.62 12.44,-3.38 18.79,-5.08 24.3,-7.05 48.91,-13.55 74.01,-21.33 25.17,-8.53 50.7,-17.18 76.6,-25.99 25.25,-10 50.86,-20.16 76.79,-30.45 102.8,-43.52 206.61,-100.28 306.96,-171.16 100.39,-70.82 197.4,-155.76 286.46,-254.39 22.64,-24.32 43.3,-50.74 65.12,-76.52 20.06,-27.19 41.62,-53.66 60.8,-82.17 19.38,-28.32 39.08,-56.8 56.8,-86.88 18.81,-29.39 35.45,-60.33 52.44,-91.38 8.81,-15.35 16.25,-31.51 24.16,-47.46 7.71,-16.08 15.96,-31.94 23.28,-48.34 13.89,-33.05 29.41,-65.77 41.46,-100.08 26.84,-67.64 47.06,-138.63 65.57,-210.8 34.12,-145 51.08,-297.93 44.81,-453.03 -1.94,-77.58 -11.1,-155.47 -24.05,-233.2 -3.67,-19.36 -7.32,-38.77 -10.99,-58.19 -3.56,-19.47 -9.03,-38.55 -13.42,-57.89 l -7.01,-28.96 -1.78,-7.25 -1.27,-4.86 -1,-3.5 -4.12,-13.88 c -5.5,-18.5 -11.01,-37.07 -16.5,-55.65 -5.47,-18.59 -13.11,-38.16 -19.59,-57.23 -6.76,-19.17 -13.32,-38.63 -21.25,-56.97 -7.66,-18.61 -15.27,-37.24 -22.95,-55.92 -8.16,-18.41 -17.05,-36.58 -25.57,-54.92 l -12.96,-27.48 -14.42,-26.78 c -9.71,-17.81 -18.98,-35.89 -29.1,-53.51 -21.15,-34.75 -41.47,-70.1 -65.06,-103.5 -182.11,-271.42 -447.83,-492.09 -753.57,-622.36 -76.14,-33.15 -155.3,-59.16 -235.41,-80.43 -80.04,-21.8 -161.96,-36.11 -244.07,-45.64 -164.37,-19.13 -330.64,-12.76 -491.54,14.96 -40.04,8.04 -80.19,15.04 -119.45,25.76 l -29.53,7.42 -14.75,3.71 -15.47,4.63 -56.29,17.21 c -18.51,5.29 -38.38,13.55 -57.44,20.21 -19.1,7.15 -38.75,13.65 -56.99,21.88 -18.5,7.85 -37.01,15.72 -55.45,23.55 -18.38,8.03 -36.19,17.29 -54.22,25.86 -36.39,16.62 -70.58,37.29 -105.62,56 -33.6,21.17 -68.19,40.54 -100.2,63.61 -65.82,43.54 -126.64,93.12 -184.75,144.47 -232.2,207.01 -392.83,471.57 -481.28,739.96 -43.36,134.77 -69.71,270.75 -79.67,403.27 -9.36,132.63 -2.37,261.46 16.54,382.81 18.99,121.21 50.29,235.68 89.61,339.28 40.04,105.09 87.13,199.58 139.08,284.29 52.37,84.32 108.19,158.63 164.24,223.28 28.89,31.62 56.09,62.29 84.59,89.24 27.3,28.11 55.7,52.4 82.07,75.98 106.84,93.12 202.4,151.03 268.09,187.83 32.38,19.41 58.92,31.15 76.03,40.33 17.4,8.83 26.35,13.36 26.35,13.36 0,0 -8.69,-5.04 -25.59,-14.74 -16.64,-10.08 -42.42,-23.17 -73.63,-44.22 -63.59,-39.87 -154.57,-103.25 -256.15,-199.3 -24.96,-24.41 -51.82,-49.53 -77.46,-78.36 -26.82,-27.68 -52.25,-59 -79.1,-91.19 -51.88,-65.98 -104.22,-140.18 -152.04,-224.22 -47.52,-83.98 -90.21,-178.53 -124.68,-280.04 -34.89,-103.08 -62.15,-213.22 -76.96,-330.7 -14.82,-117.17 -17.96,-240.8 -5.41,-367.17 13.05,-126.29 40.2,-255.37 84.26,-382.6 89.55,-253.53 247.13,-499.74 467.48,-692.52 55.31,-47.61 113.07,-93.63 175.47,-133.73 30.33,-21.35 63.16,-39.06 94.9,-58.61 33.15,-17.11 65.45,-36.17 99.83,-51.33 17.05,-7.83 33.81,-16.33 51.17,-23.65 l 52.3,-21.43 c 17.45,-7.61 35.02,-13.08 52.54,-19.43 17.93,-6 34.3,-12.87 53.56,-18.16 l 56.36,-16.96 12.78,-3.81 13.85,-3.39 27.73,-6.84 c 36.82,-9.98 74.51,-16.23 112.03,-23.69 150.86,-25.3 306.41,-30.67 460.06,-12.13 76.76,9.26 153.28,22.89 228.05,43.67 74.84,20.1 148.65,44.84 219.76,75.98 286.37,120.56 535.98,326.05 707.46,579.41 22.21,31.15 41.35,64.22 61.31,96.66 9.57,16.49 18.3,33.4 27.48,50.04 l 13.64,25.02 12.4,25.59 c 8.18,17.11 16.76,34 24.63,51.21 l 22.16,52.15 c 7.82,17.34 13.85,34.78 20.26,52.16 6.21,17.68 13.12,34.14 18.85,52.68 5.72,18.53 11.44,37.01 17.13,55.47 l 4.31,13.85 1.08,3.43 c -0.41,-1.38 0.41,1.57 0.5,2.13 l 1.74,6.8 6.9,27.15 c 4.39,18.14 9.82,36.03 13.34,54.29 3.67,18.25 7.36,36.45 11.01,54.63 13.05,72.99 22.64,146.19 25.35,219.24 8.05,146.04 -7.16,290.24 -35.97,428.09 -16.18,68.55 -33.85,136.23 -58.03,200.88 -10.74,32.81 -24.88,64.1 -37.4,95.82 -6.62,15.7 -14.16,30.91 -21.16,46.34 -7.22,15.32 -13.92,30.86 -22.05,45.59 -121.79,240.63 -295.82,436.35 -484.8,577.73 -94.47,71.12 -193.28,128.09 -291.09,173.87 -24.77,10.88 -49.18,21.62 -73.32,32.21 -24.46,9.3 -48.56,18.48 -72.35,27.54 -24.28,8.51 -48.98,16.01 -72.93,23.9 -5.74,1.76 -12.52,4.24 -17.38,5.41 l -17.93,4.54 c -11.9,3.02 -23.69,6.01 -35.39,9 -187.48,48.2 -358.22,58.4 -497.46,51.74 -69.96,-1.7 -131.66,-11.92 -185.74,-18.15 -26.82,-4.18 -51.33,-9.92 -73.99,-14.22 -22.58,-4.76 -43.36,-8.1 -61.58,-12.87 -72.58,-20.19 -111.25,-30.95 -111.25,-30.95"
         style="fill:#ffffff;fill-opacity:1;fill-rule:nonzero;stroke:none"
         id="path92" />
      <path
         d="M 5370.11,1269.18 V 5963.9"
         style="fill:#ffffff;fill-opacity:1;fill-rule:nonzero;stroke:none"
         id="path94" />
      <path
         d="M 5370.11,1269.18 V 5963.9"
         style="fill:none;stroke:#c1bfbe;stroke-width:48.5805;stroke-linecap:butt;stroke-linejoin:miter;stroke-miterlimit:10;stroke-dasharray:none;stroke-opacity:1"
         id="path96" />
    </g>
  </g>
</svg>
