<?xml version="1.0" encoding="UTF-8" standalone="no"?>
<!DOCTYPE svg PUBLIC "-//W3C//DTD SVG 1.1//EN" "http://www.w3.org/Graphics/SVG/1.1/DTD/svg11.dtd">
<svg width="100%" height="100%" viewBox="0 0 270 387" version="1.1" xmlns="http://www.w3.org/2000/svg" xmlns:xlink="http://www.w3.org/1999/xlink" xml:space="preserve" xmlns:serif="http://www.serif.com/" style="fill-rule:evenodd;clip-rule:evenodd;stroke-linejoin:round;stroke-miterlimit:2;">
    <g transform="matrix(1,0,0,1,-390.177,-2.60902e-15)">
        <g id="white" transform="matrix(1,0,0,1,274.945,-56.9054)">
            <path d="M341.89,61.41L336.24,130.94L332.39,130.38C329.82,85.29 283.82,70.67 245.07,77.8C205.51,85.08 184.67,126.52 219.31,155.33C279.07,205.05 394.95,237.41 384.04,335.14C373.97,425.34 267.36,461.21 190.15,434.39C119.12,409.72 94.01,332.3 134.82,269.11C137.01,265.72 142.67,254.4 146.23,261.03C120.94,302.85 119.91,349.95 153.51,387.41C180.03,416.97 223.84,426.93 261.87,417.76C326.24,402.24 338.25,333.04 290.23,290.14C254.84,258.52 175.12,225.21 155.38,184.49C138.21,149.07 148.8,101.56 179.86,77.39C226.38,41.19 288.48,64.69 341.9,61.39L341.89,61.41Z" style="fill:rgb(238,234,244);fill-rule:nonzero;"/>
        </g>
    </g>
</svg>
