<?xml version="1.0" encoding="UTF-8"?>
<svg id="Layer_1" data-name="Layer 1" xmlns="http://www.w3.org/2000/svg" viewBox="0 0 354.89 31.33">
  <defs>
    <style>
      .cls-1 {
        fill: #fff;
      }
    </style>
  </defs>
  <path class="cls-1" d="m93.05,22.72c0-6.36-4.67-8.01-4.67-8.01,3.45-1.56,3-6.45,3-6.45-.01-7.87-7.47-7.9-7.47-7.9h-37.6l-7.68,11.8V.38h-11.24v19.03c0,1.67-1.09,2.31-2.32,2.31-1.23,0-9.38,0-12.05,0-1.48,0-2.32-1.55-2.32-2.31V.38H0s.01,20.2.01,23.71c0,3.51,3.41,6.98,7.01,6.98h34.12l2.76-4.79h11.56v4.79h30.66c6.92,0,6.92-8.35,6.92-8.35Zm-25.48-13.24h13.87c.6,0,1.09.49,1.09,1.09s-.49,1.09-1.09,1.09h-13.87v-2.18Zm-12.1,8.35h-6.69l4.81-8.35h1.89v8.35Zm27.35,3.9h-15.25v-2.18h15.25c.6,0,1.09.49,1.09,1.09s-.49,1.09-1.09,1.09Z"/>
  <g>
    <path class="cls-1" d="m100.53,2.53h-4.15V.35h10.72v2.18h-4.15v11.37h-2.41V2.53Z"/>
    <path class="cls-1" d="m109.03.35h2.41v5.4h6.33V.35h2.41v13.55h-2.41v-5.97h-6.33v5.97h-2.41V.35Z"/>
    <path class="cls-1" d="m122.74.35h8.98v2.18h-6.56v3.33h6.22v2.18h-6.22v3.67h6.91v2.18h-9.32V.35Z"/>
    <path class="cls-1" d="m150.95,8.92c0,3.27-2.35,5.32-5.45,5.32s-5.45-2.05-5.45-5.32V.35h2.41v8.5c0,1.34.73,3.1,3.04,3.1s3.04-1.76,3.04-3.1V.35h2.41v8.57Z"/>
    <path class="cls-1" d="m153.06.35h3.2l6.56,10.07h.04V.35h2.41v13.55h-3.06l-6.7-10.39h-.04v10.39h-2.41V.35Z"/>
    <path class="cls-1" d="m167.79.35h2.41v13.55h-2.41V.35Z"/>
    <path class="cls-1" d="m171.99.35h2.77l3.69,10.24,3.81-10.24h2.6l-5.47,13.55h-2.09l-5.32-13.55Z"/>
    <path class="cls-1" d="m186.26.35h8.98v2.18h-6.56v3.33h6.22v2.18h-6.22v3.67h6.91v2.18h-9.32V.35Z"/>
    <path class="cls-1" d="m197.49.35h4.71c2.6,0,5.05.84,5.05,3.89,0,1.95-1.13,3.39-3.14,3.67l3.6,5.99h-2.91l-3.14-5.74h-1.76v5.74h-2.41V.35Zm4.29,5.74c1.36,0,2.95-.12,2.95-1.88,0-1.61-1.49-1.8-2.74-1.8h-2.08v3.67h1.88Z"/>
    <path class="cls-1" d="m216.05,3.25c-.52-.73-1.43-1.07-2.37-1.07-1.11,0-2.22.5-2.22,1.74,0,2.72,6.43,1.17,6.43,5.99,0,2.91-2.3,4.32-4.96,4.32-1.69,0-3.33-.52-4.44-1.84l1.82-1.76c.59.9,1.61,1.42,2.68,1.42s2.37-.61,2.37-1.86c0-2.97-6.43-1.26-6.43-6.1C208.93,1.3,211.42,0,213.93,0c1.42,0,2.83.4,3.89,1.4l-1.76,1.86Z"/>
    <path class="cls-1" d="m219.79.35h2.41v13.55h-2.41V.35Z"/>
    <path class="cls-1" d="m228.23,2.53h-4.15V.35h10.72v2.18h-4.15v11.37h-2.41V2.53Z"/>
    <path class="cls-1" d="m240.52,8.1l-5.09-7.75h3.02l3.33,5.4,3.37-5.4h2.87l-5.09,7.75v5.8h-2.41v-5.8Z"/>
    <path class="cls-1" d="m261.36,0c4.23-.08,7.22,2.76,7.22,7.1s-2.99,7.06-7.22,7.14c-4.17,0-7.16-2.83-7.16-7.06S257.19,0,261.36,0Zm.02,12.06c2.81,0,4.67-2.14,4.67-5.03,0-2.7-1.86-4.84-4.67-4.84s-4.65,2.14-4.65,4.84c0,2.89,1.86,5.03,4.65,5.03Z"/>
    <path class="cls-1" d="m270.36.35h8.75v2.18h-6.34v3.56h5.97v2.18h-5.97v5.63h-2.41V.35Z"/>
    <path class="cls-1" d="m102.14,17.44h2.09l5.84,13.55h-2.76l-1.26-3.1h-5.88l-1.22,3.1h-2.7l5.89-13.55Zm3.06,8.38l-2.09-5.51-2.12,5.51h4.21Z"/>
    <path class="cls-1" d="m111.5,17.44h2.41v11.37h5.76v2.18h-8.17v-13.55Z"/>
    <path class="cls-1" d="m126.79,17.44h2.09l5.84,13.55h-2.76l-1.26-3.1h-5.87l-1.22,3.1h-2.7l5.89-13.55Zm3.06,8.38l-2.09-5.51-2.13,5.51h4.21Z"/>
    <path class="cls-1" d="m136.15,17.44h5.28c2.05,0,4.15.94,4.15,3.41,0,1.53-.96,2.54-2.35,2.97v.04c1.7.19,2.93,1.53,2.93,3.27,0,2.95-2.56,3.87-5.13,3.87h-4.88v-13.55Zm2.41,5.51h2.2c1.61,0,2.41-.69,2.41-1.7,0-1.17-.8-1.74-2.62-1.74h-1.99v3.44Zm0,5.97h2.22c1.24,0,2.97-.21,2.97-1.99,0-1.42-.92-1.91-2.87-1.91h-2.32v3.9Z"/>
    <path class="cls-1" d="m152.26,17.44h2.09l5.84,13.55h-2.76l-1.26-3.1h-5.87l-1.23,3.1h-2.7l5.89-13.55Zm3.06,8.38l-2.09-5.51-2.12,5.51h4.21Z"/>
    <path class="cls-1" d="m161.65,17.44h3.67l3.62,9.49,3.65-9.49h3.64v13.55h-2.3v-11.25h-.04l-4.12,11.25h-1.68l-4.11-11.25h-.04v11.25h-2.3v-13.55Z"/>
    <path class="cls-1" d="m183.58,17.44h2.09l5.84,13.55h-2.76l-1.26-3.1h-5.88l-1.22,3.1h-2.7l5.89-13.55Zm3.06,8.38l-2.08-5.51-2.12,5.51h4.21Z"/>
    <path class="cls-1" d="m203.07,17.44h2.09l5.84,13.55h-2.76l-1.26-3.1h-5.88l-1.22,3.1h-2.7l5.89-13.55Zm3.06,8.38l-2.09-5.51-2.12,5.51h4.21Z"/>
    <path class="cls-1" d="m213.84,19.62h-4.15v-2.18h10.72v2.18h-4.15v11.37h-2.41v-11.37Z"/>
    <path class="cls-1" d="m227.72,17.44h5.28c2.05,0,4.15.94,4.15,3.41,0,1.53-.96,2.54-2.35,2.97v.04c1.7.19,2.93,1.53,2.93,3.27,0,2.95-2.56,3.87-5.13,3.87h-4.88v-13.55Zm2.41,5.51h2.2c1.61,0,2.41-.69,2.41-1.7,0-1.17-.8-1.74-2.62-1.74h-1.99v3.44Zm0,5.97h2.22c1.24,0,2.97-.21,2.97-1.99,0-1.42-.92-1.91-2.87-1.91h-2.32v3.9Z"/>
    <path class="cls-1" d="m239.61,17.44h2.41v13.55h-2.41v-13.55Z"/>
    <path class="cls-1" d="m244.83,17.44h4.71c2.6,0,5.05.84,5.05,3.88,0,1.95-1.13,3.39-3.14,3.67l3.6,5.99h-2.91l-3.14-5.74h-1.76v5.74h-2.41v-13.55Zm4.29,5.74c1.36,0,2.95-.11,2.95-1.88,0-1.61-1.49-1.8-2.74-1.8h-2.08v3.67h1.87Z"/>
    <path class="cls-1" d="m256.81,17.44h3.67l3.62,9.49,3.65-9.49h3.64v13.55h-2.3v-11.25h-.04l-4.11,11.25h-1.68l-4.11-11.25h-.04v11.25h-2.3v-13.55Z"/>
    <path class="cls-1" d="m273.96,17.44h2.41v13.55h-2.41v-13.55Z"/>
    <path class="cls-1" d="m279.19,17.44h3.2l6.56,10.07h.04v-10.07h2.41v13.55h-3.06l-6.7-10.39h-.04v10.39h-2.41v-13.55Z"/>
    <path class="cls-1" d="m306.33,29.99c-1.65.88-3.52,1.34-5.61,1.34-4.17,0-7.16-2.83-7.16-7.06s2.99-7.18,7.16-7.18c2.07,0,3.92.44,5.34,1.7l-1.78,1.8c-.86-.84-2.18-1.32-3.54-1.32-2.79,0-4.65,2.14-4.65,4.84,0,2.89,1.86,5.03,4.65,5.03,1.22,0,2.34-.23,3.18-.71v-3.2h-2.77v-2.18h5.19v6.93Z"/>
    <path class="cls-1" d="m308.71,17.44h2.41v5.4h6.33v-5.4h2.41v13.55h-2.41v-5.97h-6.33v5.97h-2.41v-13.55Z"/>
    <path class="cls-1" d="m327.18,17.44h2.09l5.84,13.55h-2.75l-1.26-3.1h-5.87l-1.22,3.1h-2.7l5.89-13.55Zm3.06,8.38l-2.08-5.51-2.12,5.51h4.21Z"/>
    <path class="cls-1" d="m336.56,17.44h3.67l3.62,9.49,3.66-9.49h3.64v13.55h-2.3v-11.25h-.04l-4.11,11.25h-1.68l-4.12-11.25h-.04v11.25h-2.29v-13.55Z"/>
  </g>
  <path class="cls-1" d="m211.22,17.3c.11,0,.2.09.2.2s-.09.2-.2.2-.2-.09-.2-.2.09-.2.2-.2Zm0,.38c.1,0,.17-.08.17-.17s-.08-.17-.17-.17-.17.08-.17.17.08.17.17.17Zm-.04-.06h-.03v-.23h.09c.05,0,.07.02.07.07s-.03.06-.06.07l.07.1h-.03l-.07-.1h-.04v.1Zm0-.13h.04s.07,0,.07-.04c0-.03-.03-.04-.05-.04h-.05v.08Z"/>
  <path class="cls-1" d="m353.5,28.54c.77,0,1.4.63,1.4,1.4s-.63,1.4-1.4,1.4-1.4-.63-1.4-1.4.63-1.4,1.4-1.4Zm0,2.59c.66,0,1.19-.53,1.19-1.19s-.53-1.19-1.19-1.19-1.19.53-1.19,1.19.53,1.19,1.19,1.19Zm-.3-.39h-.2v-1.61h.62c.36,0,.51.16.51.45s-.19.42-.41.46l.48.71h-.23l-.48-.71h-.29v.71Zm0-.89h.26c.22,0,.46-.01.46-.28,0-.21-.19-.27-.36-.27h-.36v.54Z"/>
</svg>