<?xml version="1.0" encoding="UTF-8" standalone="no"?>
<svg
   xmlns:dc="http://purl.org/dc/elements/1.1/"
   xmlns:cc="http://creativecommons.org/ns#"
   xmlns:rdf="http://www.w3.org/1999/02/22-rdf-syntax-ns#"
   xmlns:svg="http://www.w3.org/2000/svg"
   xmlns="http://www.w3.org/2000/svg"
   xmlns:xlink="http://www.w3.org/1999/xlink"
   xmlns:sodipodi="http://sodipodi.sourceforge.net/DTD/sodipodi-0.dtd"
   xmlns:inkscape="http://www.inkscape.org/namespaces/inkscape"
   id="Layer_1"
   data-name="Layer 1"
   viewBox="0 0 268.94 61.89"
   version="1.1"
   sodipodi:docname="UoL.svg"
   inkscape:version="0.92.5 (2060ec1f9f, 2020-04-08)">
  <metadata
     id="metadata280">
    <rdf:RDF>
      <cc:Work
         rdf:about="">
        <dc:format>image/svg+xml</dc:format>
        <dc:type
           rdf:resource="http://purl.org/dc/dcmitype/StillImage" />
      </cc:Work>
    </rdf:RDF>
  </metadata>
  <sodipodi:namedview
     pagecolor="#ffffff"
     bordercolor="#666666"
     borderopacity="1"
     objecttolerance="10"
     gridtolerance="10"
     guidetolerance="10"
     inkscape:pageopacity="0"
     inkscape:pageshadow="2"
     inkscape:window-width="1920"
     inkscape:window-height="1016"
     id="namedview278"
     showgrid="false"
     inkscape:zoom="4.1347512"
     inkscape:cx="126.57977"
     inkscape:cy="36.86948"
     inkscape:window-x="0"
     inkscape:window-y="0"
     inkscape:window-maximized="1"
     inkscape:current-layer="Layer_1" />
  <defs
     id="defs125">
    <clipPath
       id="clip-path"
       transform="translate(-5.54 -2.26)">
      <rect
         x="5.54"
         y="2.26"
         width="268.95"
         height="61.89"
         style="fill:none"
         id="rect2" />
    </clipPath>
    <clipPath
       id="clip-path-2"
       transform="translate(-5.54 -2.26)">
      <rect
         x="5.54"
         y="2.26"
         width="268.94"
         height="61.89"
         style="fill:none"
         id="rect5" />
    </clipPath>
    <clipPath
       id="clip-path-3"
       transform="translate(-5.54 -2.26)">
      <path
         d="M20.41,33.55l-.15,0-.23,0a10.48,10.48,0,0,0-5.17,1l-.34.82s6.19-4,10.91,1.14A8.25,8.25,0,0,0,20.41,33.55Z"
         style="fill:none"
         id="path8" />
    </clipPath>
    <clipPath
       id="clip-path-4"
       transform="translate(-5.54 -2.26)">
      <rect
         x="14.52"
         y="31.24"
         width="10.91"
         height="5.19"
         style="fill:none"
         id="rect11" />
    </clipPath>
    <clipPath
       id="clip-path-5"
       transform="translate(-5.54 -2.26)">
      <rect
         x="14.68"
         y="31.16"
         width="10.91"
         height="5.19"
         style="fill:none"
         id="rect14" />
    </clipPath>
    <linearGradient
       id="linear-gradient"
       x1="-1.56"
       y1="-4.28"
       x2="-0.56"
       y2="-4.28"
       gradientTransform="matrix(10.91,0,0,-10.91,26.19,-14.1)"
       gradientUnits="userSpaceOnUse">
      <stop
         offset="0"
         stop-color="#fff"
         id="stop17" />
      <stop
         offset="0.16"
         stop-color="#e8e8f0"
         id="stop19" />
      <stop
         offset="0.5"
         stop-color="#acadcb"
         id="stop21" />
      <stop
         offset="0.94"
         stop-color="#585a96"
         id="stop23" />
      <stop
         offset="1"
         stop-color="#585a96"
         id="stop25" />
    </linearGradient>
    <clipPath
       id="clip-path-7"
       transform="translate(-5.54 -2.26)">
      <path
         d="M36.32,34.59a10.9,10.9,0,0,0-5.59-.91,10.71,10.71,0,0,1,5.85,1.58Z"
         style="fill:none"
         id="path28" />
    </clipPath>
    <clipPath
       id="clip-path-8"
       transform="translate(-5.54 -2.26)">
      <rect
         x="30.73"
         y="33.36"
         width="5.85"
         height="1.91"
         style="fill:none"
         id="rect31" />
    </clipPath>
    <clipPath
       id="clip-path-9"
       transform="translate(-5.54 -2.26)">
      <rect
         x="30.8"
         y="33.55"
         width="5.85"
         height="1.91"
         style="fill:none"
         id="rect34" />
    </clipPath>
    <linearGradient
       id="linear-gradient-2"
       x1="-1.56"
       y1="-4.28"
       x2="-0.56"
       y2="-4.28"
       gradientTransform="matrix(5.85,0,0,-5.85,34.41,7.31)"
       gradientUnits="userSpaceOnUse">
      <stop
         offset="0"
         stop-color="#585a96"
         id="stop37" />
      <stop
         offset="0.1"
         stop-color="#585a96"
         id="stop39" />
      <stop
         offset="0.22"
         stop-color="#696aa0"
         id="stop41" />
      <stop
         offset="0.47"
         stop-color="#9495bc"
         id="stop43" />
      <stop
         offset="0.82"
         stop-color="#d9d9e7"
         id="stop45" />
      <stop
         offset="1"
         stop-color="#fff"
         id="stop47" />
    </linearGradient>
    <clipPath
       id="clip-path-11"
       transform="translate(-5.54 -2.26)">
      <path
         d="M14.45,34.09l-.34.75a10.67,10.67,0,0,1,7.49-1.05A11.08,11.08,0,0,0,14.45,34.09Z"
         style="fill:none"
         id="path50" />
    </clipPath>
    <clipPath
       id="clip-path-12"
       transform="translate(-5.54 -2.26)">
      <rect
         x="14.11"
         y="32.69"
         width="7.48"
         height="2.15"
         style="fill:none"
         id="rect53" />
    </clipPath>
    <clipPath
       id="clip-path-13"
       transform="translate(-5.54 -2.26)">
      <rect
         x="13.97"
         y="32.55"
         width="7.48"
         height="2.15"
         style="fill:none"
         id="rect56" />
    </clipPath>
    <linearGradient
       id="linear-gradient-3"
       x1="-1.56"
       y1="-4.28"
       x2="-0.56"
       y2="-4.28"
       gradientTransform="matrix(7.48,0,0,-7.48,20.13,-0.35)"
       gradientUnits="userSpaceOnUse">
      <stop
         offset="0"
         stop-color="#fff"
         id="stop59" />
      <stop
         offset="0.27"
         stop-color="#dbdae8"
         id="stop61" />
      <stop
         offset="0.85"
         stop-color="#807dad"
         id="stop63" />
      <stop
         offset="0.94"
         stop-color="#726fa4"
         id="stop65" />
      <stop
         offset="1"
         stop-color="#726fa4"
         id="stop67" />
    </linearGradient>
    <clipPath
       id="clip-path-15"
       transform="translate(-5.54 -2.26)">
      <path
         d="M28.51,34.25c4.21-1.75,8.49.67,8.49.67l-.28-.67A10.73,10.73,0,0,0,28.51,34.25Z"
         style="fill:none"
         id="path70" />
    </clipPath>
    <clipPath
       id="clip-path-16"
       transform="translate(-5.54 -2.26)">
      <rect
         x="28.51"
         y="32.5"
         width="8.49"
         height="2.42"
         style="fill:none"
         id="rect73" />
    </clipPath>
    <clipPath
       id="clip-path-17"
       transform="translate(-5.54 -2.26)">
      <rect
         x="28.33"
         y="32.72"
         width="8.49"
         height="2.42"
         style="fill:none"
         id="rect76" />
    </clipPath>
    <linearGradient
       id="linear-gradient-4"
       x1="-1.56"
       y1="-4.28"
       x2="-0.56"
       y2="-4.28"
       gradientTransform="matrix(8.49, 0, 0, -8.49, 36.06, -4.23)"
       gradientUnits="userSpaceOnUse">
      <stop
         offset="0"
         stop-color="#726fa4"
         id="stop79" />
      <stop
         offset="0.1"
         stop-color="#726fa4"
         id="stop81" />
      <stop
         offset="0.23"
         stop-color="#817eae"
         id="stop83" />
      <stop
         offset="0.5"
         stop-color="#a8a6c7"
         id="stop85" />
      <stop
         offset="0.87"
         stop-color="#e7e6ef"
         id="stop87" />
      <stop
         offset="1"
         stop-color="#fff"
         id="stop89" />
    </linearGradient>
    <clipPath
       id="clip-path-19"
       transform="translate(-5.54 -2.26)">
      <path
         d="M13.94,34.43s6.57-3.3,11.5,2l.27-9.68S21,23.37,16.93,27Z"
         style="fill:none"
         id="path92" />
    </clipPath>
    <clipPath
       id="clip-path-20"
       transform="translate(-5.54 -2.26)">
      <rect
         x="13.94"
         y="23.37"
         width="11.77"
         height="13.11"
         style="fill:none"
         id="rect95" />
    </clipPath>
    <clipPath
       id="clip-path-21"
       transform="translate(-5.54 -2.26)">
      <rect
         x="14.08"
         y="23.28"
         width="11.77"
         height="13.11"
         style="fill:none"
         id="rect98" />
    </clipPath>
    <linearGradient
       id="linear-gradient-5"
       x1="-1.56"
       y1="-4.28"
       x2="-0.56"
       y2="-4.28"
       gradientTransform="matrix(11.77,0,0,-11.77,26.94,-21.83)"
       gradientUnits="userSpaceOnUse">
      <stop
         offset="0"
         stop-color="#fff"
         id="stop101" />
      <stop
         offset="0.73"
         stop-color="#fff"
         id="stop103" />
      <stop
         offset="0.76"
         stop-color="#efeff5"
         id="stop105" />
      <stop
         offset="0.93"
         stop-color="#a7a4c6"
         id="stop107" />
      <stop
         offset="1"
         stop-color="#8a87b3"
         id="stop109" />
    </linearGradient>
    <clipPath
       id="clip-path-23"
       transform="translate(-5.54 -2.26)">
      <path
         d="M37.14,34.43s-6.63-3.32-11.7,2l.27-9.68s5-3.59,8.59.15Z"
         style="fill:none"
         id="path112" />
    </clipPath>
    <clipPath
       id="clip-path-24"
       transform="translate(-5.54 -2.26)">
      <rect
         x="25.44"
         y="23.21"
         width="11.69"
         height="13.27"
         style="fill:none"
         id="rect115" />
    </clipPath>
    <clipPath
       id="clip-path-25"
       transform="translate(-5.54 -2.26)">
      <rect
         x="25.36"
         y="23.21"
         width="11.69"
         height="13.27"
         style="fill:none"
         id="rect118" />
    </clipPath>
    <clipPath
       id="clip-path-26"
       transform="translate(-5.54 -2.26)">
      <rect
         x="25.36"
         y="23.21"
         width="11.69"
         height="13.27"
         style="fill:none"
         id="rect121" />
    </clipPath>
    <linearGradient
       id="linear-gradient-6"
       x1="-1.56"
       y1="-4.28"
       x2="-0.56"
       y2="-4.28"
       gradientTransform="matrix(5.19,0,0,-5.19,26.4,6.36)"
       xlink:href="#linear-gradient-4" />
  </defs>
  <g
     id="g449"
     style="fill:#ffffff">
    <g
       style="fill:#ffffff"
       id="g435">
      <path
         style="fill:#ffffff;fill-opacity:1;fill-rule:nonzero;stroke:none;stroke-width:0.01640036"
         d="m 197.41211,26.816406 c -1.95492,0 -3.82627,0.368302 -5.61719,1.101563 -1.79748,0.73572 -3.393,1.774489 -4.79687,3.117187 -1.39568,1.341877 -2.48529,2.918617 -3.26758,4.722656 -0.77903,1.807813 -1.16602,3.738064 -1.16602,5.785157 0,2.676539 0.6561,5.146269 1.96485,7.414062 1.31203,2.26735 3.11096,4.068586 5.39062,5.40625 2.28129,1.338106 4.79012,2.003907 7.52735,2.003907 2.72409,0 5.2115,-0.664342 7.45507,-2.003907 2.24192,-1.334399 4.01063,-3.132308 5.31446,-5.386719 1.29891,-2.254739 1.94922,-4.69284 1.94922,-7.316406 0,-2.179936 -0.40249,-4.183285 -1.20118,-6.005859 -0.79706,-1.823883 -1.89823,-3.403501 -3.29882,-4.732422 -1.39895,-1.332531 -2.97915,-2.34655 -4.74219,-3.050781 -1.76305,-0.70292 -3.59943,-1.054688 -5.51172,-1.054688 z m 32.13867,0 c -1.94999,0 -3.82431,0.368302 -5.61523,1.101563 -1.7942,0.73572 -3.3934,1.774489 -4.78907,3.117187 -1.40387,1.341877 -2.49379,2.918617 -3.26953,4.722656 -0.7823,1.807813 -1.17187,3.738064 -1.17187,5.785157 0,2.676539 0.65641,5.146269 1.9668,7.414062 1.31203,2.26735 3.1087,4.068586 5.38671,5.40625 2.28458,1.338106 4.79566,2.003907 7.53125,2.003907 2.72574,0 5.20926,-0.664342 7.45118,-2.003907 2.24685,-1.334399 4.01882,-3.132308 5.31445,-5.386719 1.30218,-2.254739 1.94922,-4.69284 1.94922,-7.316406 0,-2.179936 -0.39693,-4.183285 -1.19727,-6.005859 -0.79869,-1.823883 -1.9009,-3.403501 -3.29492,-4.732422 -1.40223,-1.332531 -2.98306,-2.34655 -4.74609,-3.050781 -1.7614,-0.70292 -3.60007,-1.054688 -5.51563,-1.054688 z M 60.570312,27.619141 v 0.324218 c 0.812638,0.0246 1.514266,0.26625 2.101563,0.720703 0.591234,0.456586 0.882813,1.268976 0.882813,2.4375 v 21.150391 c -10e-7,0.976463 -0.260658,1.737097 -0.78711,2.273438 -0.526452,0.539539 -1.13284,0.810547 -1.816406,0.810547 h -0.38086 v 0.300781 h 16.664063 l 1.064453,-4.59961 h -0.322266 c -0.380815,0.950073 -0.755513,1.687665 -1.123046,2.207032 -0.365891,0.519874 -0.86471,0.910527 -1.492188,1.162109 -0.629118,0.256321 -1.467283,0.378906 -2.519531,0.378906 h -2.416016 c -1.381732,0 -2.375758,-0.234208 -2.984375,-0.705078 C 66.83,53.61106 66.525391,52.769345 66.525391,51.550781 V 31.101562 c 0,-1.191649 0.304609,-2.010629 0.916015,-2.455078 0.608617,-0.443794 1.305252,-0.678525 2.089844,-0.703125 v -0.324218 z m 19.476563,0 v 0.324218 c 0.809358,0 1.510345,0.213515 2.099609,0.646485 0.589102,0.431166 0.884766,1.229122 0.884766,2.394531 v 21.259766 c 0,1.098627 -0.295664,1.886357 -0.884766,2.361328 -0.589264,0.47876 -1.290251,0.714843 -2.099609,0.714843 v 0.316407 h 8.886719 v -0.316407 c -0.7595,0 -1.451825,-0.244345 -2.074219,-0.730468 -0.62059,-0.488732 -0.929687,-1.269872 -0.929687,-2.345703 V 30.984375 c 0,-1.089312 0.290178,-1.868677 0.873046,-2.337891 0.582541,-0.471346 1.291982,-0.703125 2.13086,-0.703125 v -0.324218 z m 10.697266,0 v 0.324218 c 0.897264,-0.01164 1.651357,0.227053 2.253906,0.720703 0.602549,0.495291 1.086055,1.280067 1.457031,2.359376 0.04821,0.09906 0.07422,0.175062 0.07422,0.226562 l 9.542972,25.117188 h 0.26757 l 8.09961,-23.214844 c 0.0659,-0.241414 0.12666,-0.390611 0.18946,-0.457032 0.41755,-1.037815 0.7934,-1.87121 1.12304,-2.5 0.32932,-0.629117 0.72857,-1.138134 1.19532,-1.53125 0.46889,-0.39164 1.06103,-0.631813 1.76953,-0.720703 v -0.324218 h -7.03516 v 0.324218 c 0.83609,0.05215 1.46749,0.20794 1.89258,0.47461 0.42543,0.265194 0.63867,0.901087 0.63867,1.904297 0,0.633874 -0.22026,1.579029 -0.66406,2.833984 l -6.31445,18.318359 h -0.0762 L 97.796875,31.804688 c -0.01312,-0.03821 -0.03047,-0.09241 -0.04687,-0.16211 -0.0182,-0.06905 -0.03999,-0.134286 -0.06836,-0.197266 -0.201724,-0.713578 -0.302735,-1.179746 -0.302735,-1.408203 0,-0.864792 0.232763,-1.409424 0.703125,-1.634765 0.466755,-0.230917 1.090169,-0.383055 1.863281,-0.458985 v -0.324218 z m 27.779299,0 v 0.324218 h 0.38086 c 0.96156,0 1.63605,0.317625 2.02343,0.951172 0.38574,0.632234 0.58204,1.383449 0.58204,2.244141 v 21.113281 c 0,1.090739 -0.28621,1.879665 -0.85743,2.359375 -0.56942,0.483499 -1.15418,0.72461 -1.74804,0.72461 h -0.38086 v 0.300781 h 16.6875 l 0.97461,-4.388672 h -0.26758 c -0.25355,0.736868 -0.56601,1.363661 -0.94141,1.884765 -0.37409,0.518842 -0.88346,0.92485 -1.52734,1.212891 -0.64733,0.291237 -1.4706,0.439453 -2.4707,0.439453 h -4.15821 c -1.03946,0 -1.70129,-0.269929 -1.98633,-0.816406 -0.28652,-0.546394 -0.42773,-1.19355 -0.42773,-1.943359 v -9.945313 h 5.37305 c 0.49332,0 0.97034,0.03701 1.42382,0.115234 0.24306,0 0.51849,0.06022 0.82813,0.189454 0.31095,0.125791 0.62147,0.383646 0.9375,0.767578 0.31932,0.387541 0.53116,0.94407 0.64844,1.666015 h 0.28125 v -6.347656 h -0.28125 c -0.11728,1.180006 -0.5711,1.93076 -1.36914,2.261719 -0.79772,0.328172 -1.70017,0.49414 -2.71289,0.49414 h -5.12891 V 28.496094 h 5.83008 c 3.14181,0 4.71094,1.176769 4.71094,3.537109 h 0.26367 v -4.414062 z m 19.02734,0 v 0.394531 h 0.37891 c 0.64552,0 1.24228,0.229453 1.78711,0.685547 0.54481,0.456749 0.82031,1.241869 0.82031,2.357422 V 52.25 c 0,0.759994 -0.14187,1.368366 -0.42773,1.818359 -0.28651,0.452158 -0.6478,0.767143 -1.07618,0.949219 -0.43214,0.185275 -0.92481,0.288503 -1.48242,0.314453 v 0.304688 h 8.92383 v -0.304688 c -2.02742,-0.06245 -3.04297,-1.090779 -3.04297,-3.080078 V 42.007812 c 0.65864,0 1.23606,0.03704 1.72266,0.111329 0.48824,0.07971 1.03363,0.267397 1.64258,0.570312 0.60877,0.307999 1.26433,0.809931 1.9707,1.513672 0.7021,0.704887 1.38861,1.618257 2.06054,2.746094 l 3.34766,5.53125 c 0.0513,0.05099 0.20092,0.270711 0.44922,0.65625 0.24683,0.387083 0.43279,0.676826 0.56055,0.865234 0.21648,0.293928 0.42257,0.565045 0.60937,0.826172 0.19221,0.262078 0.39192,0.529919 0.60742,0.808594 H 161.5 v -0.304688 c -0.67193,-0.06245 -1.35134,-0.347219 -2.04492,-0.853515 -0.68832,-0.506607 -1.60741,-1.719054 -2.74805,-3.63086 l -2.53125,-4.277344 c -1.42027,-2.408246 -2.96777,-4.015337 -4.64258,-4.826171 v -0.07422 c 1.31909,-0.241906 2.42104,-0.702287 3.30469,-1.371094 0.88119,-0.673563 1.53456,-1.478138 1.95703,-2.408203 0.42526,-0.932196 0.63867,-1.905857 0.63867,-2.923828 0,-0.799681 -0.12968,-1.610788 -0.39062,-2.433594 -0.25846,-0.827726 -0.68994,-1.61025 -1.29102,-2.353515 -0.60419,-0.741462 -1.44881,-1.355228 -2.5332,-1.837891 -1.08291,-0.480857 -2.4063,-0.722656 -3.9668,-0.722656 z m 24.91406,0 V 27.9375 h 0.38086 c 0.12562,0.02509 0.35765,0.08085 0.69336,0.171875 0.33473,0.08659 0.63689,0.225502 0.91406,0.408203 0.26733,0.183847 0.50821,0.494139 0.71485,0.923828 0.19844,0.430181 0.30273,0.970179 0.30273,1.619141 V 52.25 c 0,1.079161 -0.28348,1.857423 -0.84765,2.333984 -0.56418,0.473315 -1.28406,0.722097 -2.15821,0.748047 v 0.304688 h 8.91993 V 55.332031 C 169.35442,55.269579 168.3418,54.240972 168.3418,52.25 v -9.666016 c 1.48095,0.152356 2.48597,0.22461 3.00586,0.22461 1.63675,0 3.08326,-0.207627 4.33789,-0.623047 1.25463,-0.423458 2.27082,-0.982285 3.04492,-1.6875 0.77574,-0.701936 1.33903,-1.506645 1.70312,-2.412109 0.36081,-0.906777 0.54297,-1.847891 0.54297,-2.826172 0,-0.999601 -0.19303,-1.952598 -0.58008,-2.859375 -0.38869,-0.907268 -0.97325,-1.717972 -1.7539,-2.44336 -0.78066,-0.721124 -1.75347,-1.291431 -2.92774,-1.708984 -1.17099,-0.419358 -2.52773,-0.628906 -4.06445,-0.628906 z m 81.01368,0 v 0.324218 c 0.81019,0.0246 1.51083,0.26625 2.0996,0.720703 0.59205,0.456586 0.88672,1.268976 0.88672,2.4375 v 21.150391 c 0,0.976463 -0.26558,1.737097 -0.78711,2.273438 -0.52973,0.539539 -1.13281,0.810547 -1.81835,0.810547 h -0.38086 v 0.300781 h 16.66406 l 1.06445,-4.59961 h -0.32422 c -0.38048,0.950073 -0.75371,1.687665 -1.12109,2.207032 -0.369,0.519874 -0.86602,0.910527 -1.49414,1.162109 -0.62486,0.256321 -1.46827,0.378906 -2.51953,0.378906 h -2.41602 c -1.38255,0 -2.37624,-0.234208 -2.98633,-0.705078 -0.60682,-0.469018 -0.91211,-1.310733 -0.91211,-2.529297 V 31.101562 c 0,-1.191649 0.30529,-2.010629 0.91211,-2.455078 0.61009,-0.443794 1.3049,-0.678525 2.09375,-0.703125 v -0.324218 z m -46.06446,0.07422 c 1.51866,0 3.1471,0.356867 4.86914,1.074219 1.72532,0.714071 3.24782,2.123201 4.56641,4.228516 1.32022,2.102363 1.97656,5.017829 1.97656,8.742187 0,2.585518 -0.34305,4.771237 -1.03515,6.564453 -0.68718,1.795971 -1.59252,3.214799 -2.70118,4.257813 -1.11195,1.044244 -2.3336,1.799884 -3.67187,2.261719 -1.33992,0.461653 -2.66164,0.691406 -3.96875,0.691406 -1.45636,0 -2.86315,-0.247362 -4.21289,-0.75 -1.34976,-0.497588 -2.58688,-1.31853 -3.70703,-2.451172 -1.12506,-1.132084 -2.00851,-2.598558 -2.64649,-4.390625 -0.64125,-1.792888 -0.96289,-3.891911 -0.96289,-6.298828 0,-2.737549 0.388,-5.034372 1.16211,-6.898438 0.77573,-1.860128 1.75849,-3.303908 2.95899,-4.330078 1.19887,-1.029944 2.43311,-1.735685 3.69921,-2.121093 1.27268,-0.386064 2.493,-0.580079 3.67383,-0.580079 z m 32.14063,0 c 1.52032,0 3.14905,0.356867 4.87109,1.074219 1.72533,0.714071 3.24586,2.123201 4.56445,4.228516 1.32022,2.102363 1.97852,5.017829 1.97852,8.742187 0,2.585518 -0.34111,4.771237 -1.0332,6.564453 -0.69046,1.795971 -1.59415,3.214799 -2.70117,4.257813 -1.11032,1.044244 -2.33392,1.799884 -3.67383,2.261719 -1.33827,0.461653 -2.66134,0.691406 -3.9668,0.691406 -1.45964,0 -2.86345,-0.247362 -4.21484,-0.75 -1.35303,-0.497588 -2.58752,-1.31853 -3.71094,-2.451172 -1.12015,-1.132084 -2,-2.598558 -2.64453,-4.390625 -0.63962,-1.792888 -0.96094,-3.891911 -0.96094,-6.298828 0,-2.737549 0.38802,-5.034372 1.16211,-6.898438 0.77411,-1.860128 1.75817,-3.303908 2.95703,-4.330078 1.2005,-1.029944 2.43538,-1.735685 3.70313,-2.121093 1.26776,-0.386064 2.49073,-0.580079 3.66992,-0.580079 z m -84.37305,0.658203 c 1.74795,1e-6 3.13913,0.350769 4.17383,1.056641 1.03142,0.705708 1.76333,1.575317 2.19531,2.611328 0.42886,1.036175 0.64844,2.096309 0.64844,3.175781 0,1.294316 -0.24327,2.391799 -0.72461,3.289063 -0.48038,0.890703 -1.25732,1.586038 -2.33008,2.066406 -1.0711,0.483155 -2.44322,0.72461 -4.11328,0.72461 h -1.59961 V 28.521484 c 0.45806,-0.114637 1.0415,-0.169922 1.75,-0.169922 z m 25.84375,0 c 2.25505,1e-6 3.93853,0.668247 5.04883,2.00586 1.11031,1.341058 1.66797,3.050473 1.66797,5.130859 0,2.527789 -0.63726,4.259538 -1.89844,5.191407 -1.25791,0.933672 -2.79878,1.40039 -4.60937,1.40039 -0.94958,0 -1.9184,-0.08914 -2.89258,-0.267578 V 28.597656 c 0.91022,-0.167772 1.80781,-0.246094 2.68359,-0.246094 z"
         id="path14"
         inkscape:connector-curvature="0" />
      <path
         style="fill:#ffffff;fill-opacity:1;fill-rule:nonzero;stroke:none;stroke-width:0.01640036"
         d="m 161.60938,6.5410156 c -3.25072,0 -3.45118,2.1235958 -3.45118,2.5449219 0,1.5037485 1.39859,2.0549225 2.43164,2.5605465 l 0.93555,0.449219 c 0.68997,0.346704 2.02149,0.781466 2.02149,2.083985 0,1.170985 -1.29858,1.835937 -2.64454,1.835937 -1.5113,0 -2.2494,-0.201051 -2.62695,-0.302734 v 0.880859 c 0.26159,0.04379 1.04983,0.246094 2.37891,0.246094 1.95443,0 3.87695,-0.693901 3.87695,-2.791016 0,-1.578371 -1.2303,-2.167757 -2.41211,-2.732422 l -0.9707,-0.451172 c -0.9204,-0.448714 -2.00391,-0.9123132 -2.00391,-1.8515621 0,-0.9385932 0.75805,-1.6484375 2.46485,-1.6484375 1.03454,0 1.88739,0.2155882 2.25,0.3320312 V 6.7871094 c -0.39378,-0.088398 -1.36259,-0.2460938 -2.25,-0.2460938 z m 71.55859,0 c -3.12098,0 -3.92578,2.7608735 -3.92578,5.1484374 0,2.38773 0.8048,5.150391 3.92578,5.150391 3.11935,0 3.82617,-2.762661 3.82617,-5.150391 0,-2.3875639 -0.70682,-5.1484374 -3.82617,-5.1484374 z M 61.572266,6.6992188 v 7.0878902 c 0,0.839044 0.276538,3.052735 3.43164,3.052735 3.401435,0 3.597656,-2.213691 3.597656,-3.052735 V 6.6992188 h -0.986328 v 6.6835932 c 0,0.91055 4.3e-4,2.632813 -2.611328,2.632813 -2.383634,0 -2.447265,-1.722264 -2.447265,-2.632813 V 6.6992188 Z m 18.033203,0 v 9.9824222 h 0.984375 V 7.9863281 h 0.0332 l 4.728515,8.6953129 h 1.41211 V 6.6992188 H 85.78125 V 15.625 H 85.74609 L 80.935547,6.6992188 Z m 18.279297,0 v 9.9824222 h 0.986328 V 6.6992188 Z m 10.378904,0 3.69727,9.9824222 h 1.36133 l 3.77734,-9.9824222 h -0.98438 l -3.44921,9.1152342 h -0.0312 L 109.2481,6.6992188 Z m 18.17969,0 v 9.9824222 h 5.17773 v -0.796875 h -4.1914 v -4.035157 h 3.86133 v -0.796875 h -3.86133 V 7.4960938 h 4.06054 v -0.796875 z m 15.50781,0 v 9.9824222 h 0.98633 v -4.511719 h 1.36133 c 1.70826,0 2.01981,0.77865 2.34765,2.152344 l 0.57618,2.359375 h 0.98437 l -0.64062,-2.691407 c -0.24518,-1.098168 -0.41036,-1.893411 -1.88672,-2.21289 v -0.0293 c 0.22665,-0.05724 2.28125,-0.261111 2.28125,-2.4882814 0,-2.2571825 -2.23308,-2.5605468 -3.62891,-2.5605468 z m 32.87891,0 v 9.9824222 h 0.98828 V 6.6992188 Z m 10.69336,0 v 0.796875 h 2.6914 v 9.1855472 h 0.98633 V 7.4960938 h 2.69336 v -0.796875 z m 14.59961,0 3.44726,5.4121092 v 4.570313 h 0.98633 v -4.570313 l 3.48047,-5.4121092 h -1.08008 l -2.91015,4.5429692 -2.83985,-4.5429692 z m 47.36523,0 v 9.9824222 h 0.99024 v -4.832032 h 4.0039 v -0.796875 h -4.0039 V 7.4960938 h 4.18554 v -0.796875 z m -14.37109,0.6660156 c 2.39938,0 2.79492,2.5177189 2.79492,4.2812496 0,1.77944 -0.39554,4.369141 -2.79492,4.369141 -2.39445,0 -2.78907,-2.589701 -2.78907,-4.369141 0,-1.7635307 0.39462,-4.2812496 2.78907,-4.2812496 z M 142.9375,7.4960938 h 1.29297 c 0.77509,0 2.74414,0.011293 2.74414,1.7636718 0,1.6493844 -1.56002,2.1113284 -3.15234,2.1113284 h -0.88477 z"
         id="path32"
         inkscape:connector-curvature="0" />
      <path
         d="m 47.936236,21.521919 v 0.579199 H 268.95717 V 21.521919 H 47.936236"
         style="fill:#ffffff;fill-opacity:1;fill-rule:nonzero;stroke:none;stroke-width:0.01650139"
         id="path58"
         inkscape:connector-curvature="0" />
    </g>
    <g
       id="g440"
       style="fill:#ffffff">
      <path
         inkscape:connector-curvature="0"
         style="fill:#ffffff;fill-opacity:1;fill-rule:nonzero;stroke:none;stroke-width:0.01640036"
         d="M 20.458946,-0.00400031 C 8.2801452,-0.00390191 0.66968337,1.2284292 0.66968337,1.2284292 c 0,0 -4.12306377,30.2766498 7.83444983,48.4431358 4.0539118,6.157566 11.9295548,12.202256 11.9548128,12.222436 0.0246,-0.02018 7.900245,-6.06487 11.954086,-12.222436 C 44.372179,31.505079 40.24749,1.2284292 40.24749,1.2284292 c 0,0 -7.60888,-1.23233111 -19.787103,-1.23242951 z M 10.397945,6.4053546 c 0,0 -0.8375874,1.5880981 -1.5939927,2.1640793 -0.7087417,0.5403916 -2.3802012,3.3352091 -0.3625136,3.5862981 -0.5080259,-0.988286 -0.7386683,-1.83651 0.5525528,-1.038796 0,0 1.6903895,1.219969 2.6368715,-1.2482858 0,0 -0.211368,-0.4758483 0.465343,-0.6529723 0.680353,-0.1804032 4.955868,-0.1066298 7.038058,-1.6559722 0,0 -0.210294,1.4267197 -0.845644,3.0421563 l -1.471709,-0.223904 1.320838,0.594113 c -0.312591,0.730144 -0.711525,1.478108 -1.219936,2.137894 l -1.271109,-0.690209 1.011409,1.006125 c -0.629102,0.721943 -1.401885,1.29955 -2.35555,1.565401 l -0.946785,-1.77393 0.478317,1.875311 c -0.340947,0.05511 -0.698322,0.0758 -1.080599,0.04661 -0.146127,-0.01082 -0.29346,-0.03075 -0.445405,-0.05453 1.056087,1.151962 1.956662,2.525722 1.999516,3.892363 0,0 -0.672082,-1.620154 -2.050931,-1.822697 l 0.297666,0.775734 c 0,0 -1.302402,-0.72648 -2.049004,-0.572973 -0.02145,0.0054 -0.04469,0.0075 -0.06606,0.01177 -0.6139316,1.269223 -0.177063,2.902335 -0.177063,2.902335 0.97166,0.201561 1.883725,0.7212 1.883725,0.7212 C 10.480652,20.816 9.8583317,20.7457 8.6960912,20.850007 8.0868341,20.90216 7.34883,21.40472 7.34883,21.40472 7.429815,20.389866 9.6813062,19.933491 9.6813062,19.933491 9.8385898,18.468941 8.6084887,17.380699 8.0190965,16.947074 6.2643887,16.040625 5.0068703,13.959896 6.1884715,11.802099 7.2691734,9.8317592 7.3487808,9.0353535 7.1602422,8.7306351 6.9731059,8.4285404 5.7517134,8.5511754 5.7517134,8.5511754 c 0,0 -0.1554386,0.049883 -0.3476304,0.067268 L 5.397073,8.0976031 c 0,0 -0.1059669,-0.225266 -0.2462515,-0.1124319 0,0 0.08422,0.049525 0.090567,0.2051649 0.00849,0.1558026 -0.012965,0.4437225 -0.012965,0.4437225 -0.029853,0.3499833 -0.1091034,0.6795655 -0.2152547,0.9662442 0.04497,0.057565 0.1224369,0.1210519 0.1669639,0.1700894 0.025105,0.025421 0.1262008,0.1540831 0.06823,0.3279278 -0.069706,0.167775 -0.1787107,0.411696 -0.2414421,0.479758 -0.066483,0.082 -0.076582,0.237539 -0.1112313,0.24 -0.0032,-0.0123 -0.084245,-0.176283 -0.1441469,-0.236637 -0.00812,-0.01492 -0.031255,-0.02791 -0.059583,-0.043 -0.07604,0.168596 -0.1853528,0.274111 -0.2515282,0.311832 -0.099546,0.05232 -0.281049,0.06968 -0.3409021,0.05886 -0.06802,-0.01049 -0.1608138,0.05517 -0.2534471,0.08961 -0.00308,-0.03067 0.015252,-0.108613 0.00677,-0.186186 -0.0032,-0.05724 -0.08588,-0.08962 -0.092732,-0.212131 C 3.75852,10.569096 3.748804,10.299168 3.8896049,10.138444 3.7339274,10.109738 3.5844791,10.008629 3.553261,9.9335145 3.879415,9.8085437 3.8445068,9.3749283 4.1423333,9.3283509 4.2482264,9.312935 4.5877016,9.4525308 4.7285152,9.4809026 4.8492792,9.1524041 4.9072012,8.8201836 4.9387268,8.5528568 4.7962405,8.4852877 4.685784,8.3626921 4.6756609,8.1293141 c 0,0 -1.1287346,-0.303706 -1.5346436,0.337057 0,0 -0.9717338,-1.6544912 2.8321871,-1.3179558 0,0 0.610647,-0.5443855 1.4829947,-0.3666047 1.970024,0.4091883 2.6981759,-0.104374 2.9417329,-0.376456 z m 19.116836,0 c 2e-6,0 -0.836164,1.5880981 -1.592549,2.1640793 -0.7103,0.5403916 -2.382062,3.3352091 -0.362522,3.5862981 -0.509723,-0.988286 -0.738157,-1.83651 0.552552,-1.038796 0,0 1.688965,1.219969 2.635429,-1.2482858 0,0 -0.211533,-0.4758483 0.466786,-0.6529723 0.678811,-0.1804032 4.955819,-0.1066298 7.036861,-1.6559722 0,0 -0.210492,1.4267197 -0.844202,3.0421563 l -1.471709,-0.223904 1.319156,0.594113 c -0.311114,0.730144 -0.709962,1.478108 -1.220177,2.137894 l -1.271349,-0.690209 1.011891,1.006125 c -0.627314,0.721943 -1.40187,1.29955 -2.35555,1.565401 l -0.947025,-1.77393 0.478556,1.875311 c -0.339322,0.05511 -0.698305,0.0758 -1.080597,0.04661 -0.143996,-0.01082 -0.293572,-0.03075 -0.443964,-0.05453 1.056184,1.151962 1.956711,2.525722 1.999516,3.892363 0,0 -0.673383,-1.620154 -2.050687,-1.822697 l 0.296456,0.775734 c 0,0 -1.302823,-0.72648 -2.047562,-0.572973 -0.02198,0.0054 -0.04503,0.0075 -0.06799,0.01177 -0.61403,1.269223 -0.175615,2.902335 -0.175615,2.902335 0.970081,0.201561 1.882038,0.7212 1.882038,0.7212 -1.663817,-0.176469 -2.287354,-0.246769 -3.44768,-0.142462 -0.609273,0.05215 -1.349426,0.554713 -1.349426,0.554713 0.08266,-1.014854 2.332487,-1.471229 2.332487,-1.471229 0.158591,-1.464551 -1.071073,-2.552793 -1.661979,-2.986419 C 25.38322,16.040629 24.123654,13.9599 25.3053,11.802104 26.388053,9.831764 26.465597,9.0353582 26.27683,8.7306399 26.091505,8.4285452 24.869986,8.5511801 24.869986,8.5511801 c 0,0 -0.155784,0.049883 -0.349309,0.067268 l -0.005,-0.5208403 c 0,0 -0.106264,-0.225266 -0.246487,-0.1124319 0,0 0.08416,0.049525 0.09105,0.2051648 0.0064,0.1558027 -0.01514,0.4437226 -0.01514,0.4437226 -0.02985,0.3499833 -0.107264,0.6795654 -0.215015,0.9662442 0.04494,0.057565 0.122475,0.1210519 0.168889,0.1700894 0.02476,0.025421 0.124124,0.1540831 0.06607,0.3279271 -0.06954,0.167776 -0.178586,0.411697 -0.239759,0.479759 -0.06806,0.082 -0.0781,0.237539 -0.111231,0.239999 -0.0048,-0.0123 -0.08425,-0.176282 -0.145585,-0.236636 -0.0082,-0.01492 -0.02985,-0.02791 -0.0579,-0.043 -0.0779,0.168596 -0.187241,0.27411 -0.251531,0.311832 -0.09906,0.05232 -0.281648,0.06968 -0.342822,0.05886 -0.06593,-0.01049 -0.160508,0.05517 -0.25153,0.08961 -0.0051,-0.03067 0.01333,-0.108613 0.0048,-0.186186 -0.0031,-0.05724 -0.0858,-0.08962 -0.09105,-0.212132 -0.0033,-0.03133 -0.01327,-0.301257 0.129248,-0.461981 -0.157115,-0.0287 -0.30477,-0.129811 -0.336095,-0.2049246 0.324564,-0.1249707 0.291566,-0.5585861 0.589068,-0.6051635 0.104306,-0.015416 0.445263,0.1241798 0.584504,0.1525516 0.121033,-0.3284984 0.180601,-0.660719 0.210449,-0.9280457 -0.142355,-0.067569 -0.253093,-0.1901647 -0.261621,-0.4235427 0,0 -1.128782,-0.303706 -1.536333,0.337057 0,0 -0.969582,-1.6544913 2.832187,-1.3179558 0,0 0.610816,-0.5443855 1.483479,-0.3666047 1.971161,0.4091882 2.69795,-0.104374 2.941495,-0.376456 z M 6.6735081,7.2678153 c -0.17213,0 -0.928523,0.3954341 -0.928523,0.3954341 0.036593,0.012956 0.5209904,-0.1572123 0.6205365,-0.1770563 0.1027688,-0.015909 0.094245,-0.00476 0.1508751,0 0.00652,0.1057824 0.094343,0.1330582 0.2299044,0.1345343 0.1358197,0 0.2269278,-0.085668 0.2515283,-0.1206005 0.159141,0.051006 0.4007429,0.054664 0.5148402,0.038919 C 7.6021664,7.5264175 7.6535693,7.500133 7.6284644,7.4861931 7.6022525,7.4814329 7.3188665,7.4148823 7.1833052,7.3824096 7.0424179,7.3501004 6.8752572,7.2678153 6.6735081,7.2678153 Z m 19.1165969,0 c -0.170402,0 -0.926845,0.3954341 -0.926845,0.3954341 0.03493,0.012956 0.521645,-0.1572123 0.620539,-0.1770563 0.10283,-0.015909 0.09265,-0.00476 0.15087,0 0.0067,0.1057824 0.09424,0.1330582 0.228228,0.1345343 0.135795,0 0.228613,-0.085668 0.253214,-0.1206005 0.159083,0.051006 0.399168,0.054664 0.513151,0.038919 0.08955,-0.012629 0.142528,-0.038913 0.115796,-0.052853 -0.02624,-0.00476 -0.307161,-0.071311 -0.444924,-0.1037835 C 26.161223,7.3501004 25.993961,7.2678153 25.790105,7.2678153 Z M 9.0900813,17.403529 c 0.080985,0.06708 0.1522158,0.129916 0.2152547,0.19027 0.00664,0.0069 0.015056,0.0167 0.023063,0.02522 0.039656,0.03871 0.073051,0.07437 0.1045032,0.10979 0.027885,0.03149 0.056102,0.06348 0.082879,0.09874 0.00787,0.0098 0.016212,0.01899 0.023063,0.02883 0.1075044,0.144815 0.1953161,0.305267 0.1953161,0.455494 V 17.56569 Z m 19.1170757,0 c 0.08085,0.06708 0.152036,0.129916 0.215014,0.19027 0.0082,0.0069 0.01674,0.0167 0.0233,0.02522 0.03936,0.03871 0.07282,0.07437 0.105944,0.10979 0.02821,0.03149 0.05591,0.06348 0.08264,0.09874 0.0064,0.0098 0.01473,0.01899 0.02162,0.02883 0.109063,0.144815 0.195315,0.305267 0.195315,0.455494 V 17.56569 Z m -3.605759,5.57236 h 0.475675 v 0.01658 h 0.262342 v 0.01634 h 0.18042 v 0.01634 h 0.114834 v 0.01634 h 0.0985 v 0.01658 h 0.09826 v 0.01634 h 0.0985 v 0.01634 h 0.06559 v 0.01658 h 0.08192 v 0.01634 h 0.06559 v 0.01634 h 0.06558 v 0.01634 h 0.08216 v 0.01658 h 0.04925 v 0.01634 h 0.04901 v 0.01634 h 0.04925 v 0.01634 h 0.04925 v 0.01658 h 0.06558 v 0.01634 h 0.04925 v 0.01634 h 0.04925 v 0.01634 h 0.03267 v 0.01658 h 0.04925 v 0.01634 h 0.03267 v 0.01634 h 0.04925 v 0.01658 h 0.03291 v 0.01634 h 0.04925 v 0.01634 h 0.03267 v 0.01634 h 0.04925 v 0.01657 h 0.03267 v 0.01634 h 0.03291 v 0.01634 h 0.03291 v 0.01634 h 0.03267 v 0.01658 h 0.03291 v 0.01634 h 0.03267 v 0.01634 h 0.03291 v 0.01634 h 0.03267 v 0.01658 h 0.03291 v 0.01634 h 0.03267 v 0.01634 h 0.03291 v 0.01658 h 0.03267 v 0.01634 h 0.03291 v 0.01634 h 0.03267 v 0.01634 h 0.01658 v 0.01658 h 0.03267 v 0.01634 h 0.03291 v 0.01634 h 0.01634 v 0.01634 h 0.03291 v 0.01658 h 0.03267 v 0.01634 h 0.01634 v 0.01634 h 0.03291 v 0.01634 h 0.03267 v 0.01658 h 0.01658 v 0.01634 h 0.03267 v 0.01634 h 0.01634 v 0.01658 h 0.03291 v 0.01634 h 0.01634 v 0.01634 h 0.03291 v 0.01634 h 0.01634 v 0.01657 h 0.01634 v 0.01634 h 0.03291 v 0.01634 h 0.01634 v 0.01634 h 0.03291 v 0.01658 h 0.01634 v 0.01634 h 0.01634 v 0.01634 h 0.03291 v 0.01634 h 0.01634 v 0.01658 h 0.03291 v 0.01634 h 0.01634 v 0.01634 h 0.01634 v 0.01658 h 0.01634 v 0.01634 h 0.01658 v 0.01634 h 0.03267 v 0.01634 h 0.01634 v 0.01658 h 0.01658 v 0.01634 h 0.01634 v 0.01634 h 0.01634 v 0.01634 h 0.03291 v 0.01658 h 0.01634 v 0.01634 h 0.01634 v 0.01634 h 0.01658 v 0.01634 h 0.01634 v 0.01658 h 0.03267 v 0.01634 h 0.01657 v 0.01634 h 0.01634 v 0.01658 h 0.01634 v 0.01634 h 0.01634 v 0.01634 h 0.01657 v 0.01634 h 0.01634 v 0.01658 h 0.01634 v 0.01634 h 0.01634 v 0.01634 h 0.01658 v 0.01634 h 0.03267 v 0.01658 h 0.01658 v 0.01634 h 0.01634 v 0.01634 h 0.01634 v 0.01634 h 0.01634 v 0.01658 h 0.01658 v 0.01634 h 0.01634 v 0.01634 h 0.01634 v 0.01658 h 0.01634 v 0.01634 h 0.01658 v 0.01634 h 0.01634 v 0.01634 h 0.01634 v 0.01658 h 0.01634 v 0.01634 h 0.01658 v 0.03267 h 0.01634 v 0.04925 h 0.01634 v 0.03291 h 0.01658 v 0.04925 h 0.01634 v 0.03267 h 0.01634 v 0.04925 h 0.01634 v 0.04925 h 0.01658 v 0.03267 h 0.01634 v 0.04925 h 0.01634 v 0.04925 h 0.01634 v 0.03267 h 0.01658 v 0.04925 h 0.01634 v 0.04925 h 0.01634 v 0.03267 h 0.01634 v 0.04925 h 0.01658 v 0.03291 h 0.01634 v 0.04925 h 0.01634 v 0.04901 h 0.01658 v 0.03291 h 0.01634 v 0.04925 h 0.01634 v 0.04925 h 0.01634 v 0.03267 h 0.01658 v 0.04925 h 0.01634 v 0.04925 h 0.01634 v 0.03267 h 0.01634 v 0.04925 h 0.01658 v 0.03291 h 0.01634 v 0.04901 h 0.01634 v 0.04925 h 0.01634 v 0.03291 h 0.01658 v 0.04901 h 0.01634 v 0.04925 h 0.01634 v 0.03291 h 0.01658 v 0.04925 h 0.01634 v 0.04901 h 0.01634 v 0.03291 h 0.01634 v 0.04925 h 0.01658 v 0.03267 H 29.374 v 0.04925 h 0.01634 v 0.04925 h 0.01634 v 0.03267 h 0.01658 v 0.04925 h 0.01634 v 0.04925 h 0.01634 v 0.03291 h 0.01634 v 0.04901 h 0.01658 v 0.04925 h 0.01634 v 0.03291 h 0.01634 v 0.04901 h 0.01658 v 0.03291 h 0.01634 v 0.04925 h 0.01634 v 0.04925 h 0.01634 v 0.03267 h 0.01658 v 0.04925 h 0.01634 v 0.04925 h 0.01634 v 0.03267 h 0.01634 v 0.04925 h 0.01658 v 0.03291 h 0.01634 v 0.04901 H 29.702 v 0.04925 h 0.01634 v 0.03291 h 0.01658 v 0.04925 h 0.01634 v 0.04901 h 0.01634 v 0.03291 h 0.01658 v 0.04925 h 0.01634 v 0.04901 h 0.01634 v 0.03291 h 0.01634 v 0.04925 h 0.01658 v 0.03267 h 0.01634 v 0.04925 h 0.01634 v 0.04925 h 0.01634 v 0.03267 h 0.01658 v 0.04925 h 0.01634 v 0.04925 h 0.01634 v 0.03291 h 0.01634 v 0.04901 h 0.01658 v 0.04925 h 0.01634 v 0.03291 h 0.01634 v 0.04925 h 0.01658 v 0.03267 h 0.01634 v 0.04925 h 0.01634 v 0.04925 h 0.01634 v 0.03267 h 0.01658 v 0.04925 h 0.01634 v 0.04925 h 0.01634 v 0.03267 h 0.01634 v 0.04925 h 0.01658 v 0.04925 h 0.01634 v 0.03267 h 0.01634 v 0.04925 h 0.01634 v 0.03291 h 0.01658 v 0.04925 h 0.01634 v 0.04901 h 0.01634 v 0.03291 h 0.01658 v 0.04925 h 0.01634 v 0.04925 h 0.01634 v 0.03267 h 0.01634 v 0.04925 h 0.01658 v 0.04925 h 0.01634 v 0.03267 h 0.01634 v 0.04925 h 0.01634 v 0.03291 h 0.01658 v 0.04901 h 0.01634 v 0.04925 h 0.01634 v 0.03291 h 0.01634 v 0.04901 h 0.01658 v 0.04925 h 0.01634 v 0.03291 h 0.01634 v 0.04925 h 0.01658 v 0.03267 h 0.01634 v 0.04925 h 0.01634 v 0.04925 h 0.01634 v 0.03267 h 0.01658 v 0.04925 h 0.01634 v 0.04925 h 0.01634 v 0.03267 h 0.01634 v 0.04925 h 0.01658 v 0.04925 h 0.01634 v 0.03291 h 0.01634 v 0.04901 h 0.01634 v 0.03291 h 0.01658 v 0.04925 h 0.01634 v 0.04901 h 0.01634 v 0.03291 h 0.01658 v 0.04925 h 0.01634 v 0.04925 h 0.01634 v 0.03267 h 0.01634 v 0.04925 h 0.01658 v 0.04925 h 0.01634 v 0.03267 h 0.01634 v 0.04925 h 0.01634 v 0.03291 h 0.01658 v 0.04901 h 0.01634 v 0.04925 h 0.01634 v 0.03291 h 0.01634 v 0.04925 h 0.01658 v 0.04901 h 0.01634 v 0.03291 h 0.01634 v 0.04925 h 0.01658 v 0.04901 h 0.01634 v 0.03291 h 0.01634 v 0.04925 h 0.01634 v 0.03267 h 0.01657 v 0.04925 h 0.01634 v 0.04925 h 0.01634 v 0.03267 h 0.01634 v 0.04925 h 0.01657 v 0.04925 H 31.162 v 0.03291 h 0.01634 v 0.04901 h 0.01634 v 0.04925 h 0.01658 v 0.03291 h 0.01634 v 0.04925 h 0.01634 v 0.03267 h 0.01658 v 0.04925 h 0.01634 v 0.04925 h 0.01634 v 0.03267 h 0.01634 v 0.04925 h 0.01658 v 0.04925 h 0.01634 v 0.03267 h 0.01634 v 0.04925 h 0.01634 v 0.04925 h 0.01658 v 0.03267 h 0.01634 v 0.04925 h 0.01634 v 0.03291 h 0.01634 v 0.04925 h 0.01658 v 0.04901 h 0.01634 v 0.03291 H 31.49 v 0.04925 h 0.01658 v 0.229428 h -0.03291 v -0.01634 h -0.03291 v -0.01634 h -0.03267 v -0.01633 h -0.03291 v -0.01658 h -0.04901 v -0.01634 h -0.03291 v -0.01634 h -0.03267 v -0.01634 h -0.04925 v -0.01658 h -0.01658 v 0.03291 h 0.01658 v 0.03267 h 0.01634 v 0.04925 h 0.01634 v 0.03291 h 0.01658 v 0.04925 h 0.01634 v 0.360599 h -0.03291 v -0.01634 h -0.03267 v -0.01634 h -0.03291 v -0.01634 h -0.03267 v -0.01658 h -0.04925 v -0.01634 h -0.03291 v -0.01634 h -0.03267 v -0.01634 h -0.03291 v -0.01658 h -0.03267 v -0.01634 h -0.03291 v -0.01634 h -0.04925 v -0.01658 h -0.03267 v -0.01634 h -0.03291 v -0.01634 h -0.01634 v 0.04925 h 0.01634 v 0.04925 h 0.01658 v 0.03267 h 0.01634 v 0.04925 h 0.01634 v 0.03267 h 0.01634 v 0.04925 h 0.01658 v 0.04925 h 0.01634 v 0.03291 h 0.01634 v 0.04901 h 0.01634 v 0.03291 h 0.01658 v 0.04925 h 0.01634 v 0.04901 h 0.01634 v 0.03291 h 0.01658 v 0.04925 h 0.01634 v 0.04925 h -0.01634 v -0.01658 h -0.03291 v -0.01634 h -0.03291 v -0.01634 h -0.01634 v -0.01634 h -0.03267 v -0.01658 h -0.01658 v -0.01634 h -0.03267 v -0.01634 h -0.03291 v -0.01658 h -0.03267 v -0.01634 h -0.01634 v -0.01634 h -0.03291 v -0.01634 h -0.03291 v -0.01658 h -0.03267 v -0.01634 h -0.01634 v -0.01634 h -0.03291 v -0.01634 h -0.03267 v -0.01658 h -0.03291 v -0.01634 h -0.01009 l 0.12012,0.336817 c 0,0 -0.249772,0.147298 -0.417056,0.183542 -0.165479,0.03657 -4.603248,-3.888564 -9.686705,0.96168 -0.542688,0.516284 -0.617241,0.695047 -1.294411,0 C 14.79572,29.62773 9.565044,33.337427 9.565044,33.337427 L 9.2853973,33.15004 9.4355467,32.767098 h -0.020898 v 0.01634 h -0.03267 v 0.01634 h -0.016335 v 0.01634 h -0.032916 v 0.01658 h -0.032916 v 0.01634 h -0.032669 v 0.01634 h -0.032915 v 0.01634 h -0.016335 v 0.01658 h -0.032682 v 0.01634 h -0.032903 v 0.01634 h -0.032682 v -0.327927 h 0.016347 v -0.04925 h 0.016335 v -0.03267 h 0.016335 v -0.04925 h 0.016568 v -0.03291 h 0.016347 v -0.03267 h 0.016335 v -0.04925 h 0.016335 v -0.03291 h 0.016568 v -0.04901 h 0.016347 v -0.03291 h -0.016347 v 0.01634 h -0.049238 v 0.01658 h -0.032915 v 0.01634 h -0.03267 v 0.01634 H 9.103058 v 0.01634 H 9.070376 v 0.01658 H 9.037473 v 0.01634 H 9.004791 v 0.01634 H 8.955553 v 0.01634 H 8.922637 v 0.01658 H 8.889968 v 0.01634 H 8.857052 v 0.01634 H 8.82437 v 0.01658 H 8.6110471 v -0.03291 h 0.016568 v -0.03291 h 0.016347 v -0.04901 h 0.016335 v -0.03291 h 0.016335 v -0.03267 h 0.016568 v -0.03291 h 0.016347 v -0.03267 h 0.016335 v -0.04925 h 0.016335 v -0.03291 h 0.016568 v -0.03267 h 0.016347 v -0.03291 h 0.016335 v -0.04925 h 0.016335 v -0.01634 h -0.03267 v 0.01634 h -0.032916 v 0.01658 h -0.049017 v 0.01634 h -0.032903 v 0.01634 h -0.032682 v 0.01634 h -0.04925 v 0.01658 h -0.032903 v 0.01633 h -0.032682 v -0.31159 h 0.016347 V 31.7665 h 0.016335 v -0.04901 h 0.016335 v -0.03291 h 0.016568 v -0.04925 h 0.016347 v -0.03267 h 0.016335 v -0.04925 h 0.016568 V 31.5205 h 0.016347 v -0.04901 h 0.016335 v -0.03291 h 0.016335 v -0.04925 h 0.016568 v -0.03267 h 0.016347 v -0.04925 h 0.016335 V 31.2745 h 0.016335 v -0.04901 h 0.016568 v -0.03291 h 0.016347 v -0.04925 h 0.016335 v -0.03267 h 0.016335 v -0.04925 h 0.016568 V 31.0285 h 0.016347 v -0.03267 h 0.016335 v -0.04925 h 0.016568 v -0.03291 h 0.016347 v -0.04901 h 0.016335 v -0.03291 h 0.016335 V 30.7825 h 0.016568 v -0.03267 h 0.016347 v -0.04925 h 0.016335 v -0.03291 h 0.016335 v -0.04901 h 0.016568 v -0.03291 h 0.016347 V 30.5365 h 0.016335 v -0.03267 h 0.016335 v -0.04925 h 0.016568 v -0.03291 h 0.016347 v -0.04901 h 0.016335 v -0.03291 h 0.016568 V 30.2905 h 0.016347 v -0.03267 h 0.016335 v -0.04925 h 0.016335 v -0.03291 h 0.016568 v -0.04901 h 0.016347 v -0.03291 h 0.016335 V 30.0445 h 0.016335 v -0.03267 h 0.016568 v -0.04925 h 0.016347 v -0.03291 h 0.016335 v -0.04901 h 0.016335 v -0.03291 h 0.016569 V 29.7985 h 0.016347 v -0.03267 h 0.016335 v -0.04925 h 0.016568 v -0.03291 h 0.016347 V 29.651 h 0.016335 v -0.0493 h 0.016335 v -0.03267 h 0.016568 v -0.04925 h 0.016347 v -0.03291 h 0.016335 v -0.04925 h 0.016335 v -0.03267 h 0.016568 V 29.3557 h 0.016347 v -0.03267 h 0.016335 v -0.04925 h 0.016335 v -0.03291 h 0.016568 v -0.04925 h 0.016347 v -0.03267 h 0.016335 V 29.1097 h 0.016568 v -0.03267 h 0.016347 v -0.04925 h 0.016335 v -0.03291 h 0.016335 v -0.04925 h 0.016568 v -0.03267 h 0.016347 V 28.8637 h 0.016335 v -0.03267 h 0.016335 v -0.04925 h 0.016568 v -0.03291 h 0.016347 v -0.04925 h 0.016335 v -0.03267 h 0.016335 V 28.6177 h 0.016568 v -0.03267 h 0.016347 v -0.04925 h 0.016335 v -0.03291 h 0.016568 V 28.45362 H 9.87399 V 28.42095 H 9.890325 V 28.3717 H 9.90666 V 28.33903 H 9.923228 V 28.30612 H 9.939575 V 28.25687 H 9.95591 V 28.2242 h 0.016335 v -0.04925 h 0.016568 v -0.03291 h 0.016347 v -0.04901 h 0.01633 v -0.03291 h 0.01633 v -0.04925 h 0.01657 V 27.9782 h 0.01635 v -0.04925 h 0.01633 v -0.03291 h 0.01657 v -0.04901 h 0.01635 v -0.03291 h 0.01633 v -0.04925 h 0.01634 V 27.7322 h 0.01657 v -0.04925 h 0.01635 v -0.03291 h 0.01633 v -0.04901 h 0.01633 v -0.03291 h 0.01657 v -0.04925 h 0.01635 V 27.4862 h 0.01634 v -0.0493 h 0.01633 v -0.03291 h 0.01657 v -0.04901 h 0.01635 v -0.03291 h 0.01633 v -0.04925 h 0.01657 V 27.24015 H 10.366 V 27.1909 h 0.01633 v -0.03291 h 0.01633 v -0.04901 h 0.01657 v -0.03291 h 0.01635 v -0.04925 h 0.01633 v -0.03267 h 0.01633 v -0.03291 h 0.01657 v -0.04925 h 0.01635 v -0.03267 h 0.01633 v -0.04925 h 0.01633 V 26.7974 h 0.01657 v -0.04925 h 0.01635 v -0.03291 h 0.01633 v -0.04925 h 0.01657 v -0.03267 h 0.01635 v -0.04925 h 0.01634 V 26.5514 h 0.01633 v -0.04925 h 0.01657 v -0.03291 h 0.01635 v -0.04925 h 0.01633 v -0.03267 h 0.01633 v -0.04925 h 0.01657 V 26.3054 h 0.01635 v -0.04925 h 0.01633 v -0.03291 h 0.01633 v -0.04925 h 0.01657 v -0.03267 h 0.01635 v -0.04925 h 0.01633 V 26.0594 h 0.01657 v -0.04925 h 0.01635 v -0.03291 h 0.01633 v -0.04925 h 0.01633 v -0.03267 h 0.01657 v -0.04925 h 0.01635 V 25.8134 h 0.01634 v -0.04925 h 0.01633 v -0.03291 h 0.01657 v -0.04925 h 0.01635 v -0.03267 h 0.01633 v -0.03291 h 0.01633 V 25.5674 h 0.01657 v -0.03291 h 0.01635 v -0.04925 h 0.01633 v -0.03267 h 0.01657 v -0.04925 h 0.01635 v -0.03291 h 0.01633 V 25.3214 h 0.01633 v -0.03291 h 0.01657 v -0.04925 h 0.01635 v -0.03267 h 0.01633 v -0.04925 h 0.01634 v -0.03291 h 0.01657 V 25.0754 h 0.01635 v -0.03291 h 0.01633 v -0.04925 h 0.01633 v -0.03267 h 0.01657 v -0.04925 h 0.01635 v -0.03291 h 0.01633 V 24.8294 h 0.01657 v -0.03291 h 0.01635 v -0.04925 h 0.01633 v -0.03267 h 0.01633 v -0.01658 h 0.01657 v -0.01634 h 0.03268 v -0.01634 h 0.01633 v -0.01634 h 0.01657 v -0.01658 h 0.01635 v -0.01634 h 0.01634 v -0.01634 h 0.01633 v -0.01634 h 0.03292 v -0.01658 h 0.01633 v -0.01634 h 0.01657 v -0.01634 h 0.01635 v -0.01658 h 0.03267 v -0.01634 h 0.01657 v -0.01634 h 0.01635 v -0.01634 h 0.01634 v -0.01658 h 0.0329 v -0.01634 h 0.01635 v -0.01634 h 0.01633 v -0.01634 h 0.01634 v -0.01658 h 0.03291 v -0.01634 h 0.01633 V 24.35365 H 11.842 v -0.01634 h 0.01633 v -0.01658 h 0.01633 v -0.01634 h 0.03292 v -0.01634 h 0.01633 v -0.01658 h 0.01634 v -0.01634 h 0.03292 v -0.01634 h 0.01633 v -0.01634 h 0.0329 v -0.01658 h 0.01635 v -0.01634 h 0.01633 V 24.17319 H 12.088 v -0.01634 h 0.01633 v -0.01658 h 0.0329 v -0.01634 h 0.01635 v -0.01634 h 0.03267 v -0.01634 h 0.01657 v -0.01658 h 0.03268 v -0.01634 h 0.01633 v -0.01634 h 0.03291 v -0.01658 h 0.0329 v -0.01634 h 0.01633 v -0.01634 h 0.03268 v -0.01634 h 0.01657 v -0.01658 h 0.03268 v -0.01634 h 0.0329 v -0.01634 h 0.01635 v -0.01634 h 0.03267 v -0.01657 h 0.01657 v -0.01634 h 0.03268 v -0.01634 h 0.0329 V 23.8452 h 0.03268 v -0.01658 h 0.0329 v -0.01634 h 0.03268 v -0.01634 h 0.03292 v -0.01658 h 0.03267 v -0.01634 h 0.01657 v -0.01634 h 0.03268 v -0.01634 h 0.0329 v -0.01658 h 0.03268 v -0.01634 h 0.0329 v -0.01634 h 0.03268 v -0.01634 h 0.03292 v -0.01658 h 0.03267 v -0.01634 h 0.04925 v -0.01634 h 0.03291 v -0.01634 h 0.03267 v -0.01658 h 0.03291 v -0.01634 h 0.04925 v -0.01634 h 0.03267 V 23.5333 h 0.03291 v -0.01634 h 0.03267 v -0.01634 h 0.04925 v -0.01634 h 0.04925 V 23.4679 h 0.03267 v -0.01634 h 0.04925 v -0.01634 h 0.04925 v -0.01634 h 0.04925 v -0.01657 h 0.03267 v -0.01634 h 0.04925 v -0.01634 h 0.04925 v -0.01634 h 0.04925 v -0.01658 h 0.04925 v -0.01634 h 0.06559 v -0.01634 h 0.04901 v -0.01658 h 0.06559 v -0.01634 h 0.04925 v -0.01634 h 0.06559 v -0.01634 h 0.06559 v -0.01658 h 0.08216 v -0.01634 h 0.06559 v -0.01634 h 0.08192 v -0.01634 h 0.08192 v -0.01658 h 0.0985 v -0.01634 h 0.0985 v -0.01634 h 0.114835 V 23.1073 h 0.13117 v -0.01658 h 0.180421 v -0.01634 h 0.262341 v -0.01634 h 0.557597 v 0.01634 h 0.246006 v 0.01634 h 0.196756 v 0.01658 h 0.13117 v 0.01634 h 0.131171 v 0.01634 h 0.0985 v 0.01634 h 0.0985 v 0.01658 h 0.09826 v 0.01634 h 0.08216 v 0.01634 h 0.08192 v 0.01634 h 0.08192 v 0.01658 h 0.06559 v 0.01634 h 0.08216 v 0.01634 h 0.06558 v 0.01634 h 0.04901 v 0.01658 h 0.06583 v 0.01634 h 0.06559 v 0.01634 h 0.06558 v 0.01658 h 0.04901 v 0.01634 h 0.06583 v 0.01634 h 0.04901 v 0.01634 h 0.04925 v 0.01657 h 0.06558 v 0.01634 h 0.04925 v 0.01634 h 0.04925 v 0.01634 h 0.04925 v 0.01658 h 0.03267 v 0.01634 h 0.04925 v 0.01634 h 0.04925 v 0.01634 h 0.04925 v 0.01658 h 0.04901 v 0.01634 h 0.03291 v 0.01634 h 0.04925 v 0.01658 h 0.04901 v 0.01634 h 0.03291 v 0.01634 h 0.04925 v 0.01634 h 0.03267 v 0.01658 h 0.04925 v 0.01634 h 0.03291 v 0.01634 h 0.04901 v 0.01634 h 0.03291 v 0.01658 h 0.03291 v 0.01634 h 0.04901 v 0.01634 h 0.03291 v 0.01634 h 0.03267 v 0.01658 h 0.03291 v 0.01634 h 0.03267 v 0.01634 h 0.04925 v 0.01658 h 0.03291 v 0.01634 h 0.03267 v 0.01634 h 0.03291 v 0.01634 h 0.03267 v 0.01657 h 0.03291 v 0.01634 h 0.03267 v 0.01634 h 0.03291 v 0.01634 h 0.03291 v 0.01658 h 0.03267 V 23.993 h 0.03291 v 0.01634 h 0.03267 v 0.01634 h 0.03291 v 0.01658 h 0.03267 v 0.01634 h 0.03291 v 0.01634 h 0.03267 v 0.01658 h 0.03291 v 0.01634 h 0.01634 v 0.01634 h 0.03291 v 0.01634 h 0.03267 v 0.01658 h 0.03291 v 0.01634 h 0.03267 v 0.01634 h 0.01634 v 0.01634 h 0.03291 v 0.01658 h 0.03291 v 0.01634 h 0.03267 v 0.01634 h 0.01634 v 0.01634 h 0.03291 v 0.01658 h 0.03267 v 0.01634 h 0.01658 V 24.321 h 0.03267 v 0.01658 h 0.01634 v 0.01634 h 0.03291 v 0.01634 h 0.03291 v 0.01634 h 0.01634 v 0.01658 h 0.03267 v 0.01634 h 0.01658 v 0.01634 h 0.03267 v 0.01634 h 0.01634 v 0.01658 h 0.03291 v 0.01634 h 0.01634 v 0.01634 h 0.03291 v 0.01634 h 0.01634 0.01634 v -0.01634 h 0.03291 v -0.01634 h 0.01634 v -0.01634 h 0.03291 V 24.4522 h 0.01634 v -0.01634 h 0.03267 v -0.01634 h 0.01658 v -0.01634 h 0.03267 V 24.3866 h 0.03291 v -0.01634 h 0.01634 v -0.01634 h 0.03291 v -0.01634 h 0.01634 V 24.321 h 0.03267 v -0.01634 h 0.03291 v -0.01634 h 0.01634 v -0.01658 h 0.03291 V 24.2554 h 0.03267 v -0.01634 h 0.03291 v -0.01634 h 0.01634 v -0.01658 h 0.03291 V 24.1898 h 0.03267 v -0.01634 h 0.03291 v -0.01634 h 0.01634 v -0.01658 h 0.03267 V 24.1242 h 0.03291 v -0.01634 h 0.03267 v -0.01634 h 0.03291 v -0.01658 h 0.01634 V 24.0586 h 0.03291 v -0.01634 h 0.03267 v -0.01658 h 0.03291 v -0.01634 h 0.03267 V 23.993 h 0.03291 v -0.01634 h 0.03267 v -0.01658 h 0.03291 v -0.01634 h 0.03291 V 23.9274 h 0.03267 v -0.01634 h 0.03291 v -0.01657 h 0.03267 v -0.01634 h 0.03291 v -0.01634 h 0.03267 v -0.01634 h 0.03291 v -0.01658 h 0.03267 v -0.01634 h 0.03291 v -0.01634 h 0.04925 v -0.01658 h 0.03267 v -0.01634 h 0.03291 v -0.01634 h 0.03267 v -0.01634 h 0.03291 v -0.01658 h 0.04925 v -0.01634 h 0.03267 v -0.01634 h 0.03291 v -0.01634 h 0.04901 v -0.01658 h 0.03291 v -0.01634 h 0.03267 v -0.01634 h 0.04925 v -0.01634 h 0.03291 v -0.01658 h 0.04925 v -0.01634 h 0.03267 v -0.01634 h 0.04925 v -0.01658 h 0.03267 v -0.01634 h 0.04925 v -0.01634 h 0.04925 v -0.01634 h 0.03291 V 23.4679 h 0.04901 v -0.01634 h 0.04925 v -0.01634 h 0.04925 v -0.01634 h 0.04925 v -0.01657 h 0.04925 v -0.01634 h 0.04901 v -0.01634 h 0.04925 v -0.01634 h 0.04925 v -0.01658 h 0.04925 v -0.01634 h 0.04925 v -0.01634 h 0.06559 v -0.01658 h 0.04901 v -0.01634 h 0.06583 v -0.01634 h 0.04901 v -0.01634 h 0.06558 v -0.01658 h 0.06559 v -0.01634 h 0.04925 v -0.01634 h 0.08216 v -0.01634 h 0.06558 v -0.01658 h 0.06559 v -0.01634 h 0.08192 v -0.01634 h 0.08192 V 23.1073 h 0.08216 v -0.01658 h 0.09826 v -0.01634 h 0.08216 v -0.01634 h 0.114835 v -0.01658 h 0.114594 v -0.01634 h 0.131411 v -0.01634 h 0.196757 v -0.01634 h 0.278677 z m 0.557598,8.446347 v 0.0022 c 0.01327,-8.61e-4 0.02639,-0.0013 0.03964,-0.0022 z m -4.922272,5.609356 c 0,0 -1.051212,1.996335 -2.000957,2.719754 -0.890868,0.678812 -2.989363,4.189456 -0.453572,4.504015 -0.640762,-1.241507 -0.928828,-2.307231 0.693332,-1.304021 0,0 2.122044,1.532642 3.310742,-1.569487 0,0 -0.266622,-0.595843 0.585705,-0.819216 0.852655,-0.226817 6.225448,-0.132441 8.837698,-2.080477 0,0 -0.26346,1.792353 -1.059697,3.821734 l -1.848645,-0.281321 1.656933,0.746425 c -0.39082,0.917109 -0.892089,1.857356 -1.531047,2.684919 l -1.597594,-0.867266 1.269666,1.264382 c -0.787873,0.906759 -1.761009,1.63198 -2.958071,1.966842 l -1.188465,-2.227983 0.600839,2.355551 c -0.426902,0.06747 -0.876953,0.09396 -1.358795,0.0579 -0.180241,-0.01346 -0.367758,-0.03973 -0.557837,-0.06991 1.327117,1.448104 2.458218,3.175137 2.512666,4.890321 0,0 -0.846068,-2.035012 -2.577291,-2.289726 l 0.374053,0.974893 c 0,0 -1.636933,-0.913763 -2.572247,-0.720239 -0.02804,0.0047 -0.05619,0.0087 -0.08456,0.01514 -0.771145,1.5941 -0.221501,3.644917 -0.221501,3.644917 1.220023,0.253238 2.36516,0.906906 2.36516,0.906906 -2.090554,-0.223521 -2.873155,-0.31146 -4.333444,-0.178979 -0.764421,0.06463 -1.691527,0.695254 -1.691527,0.695254 0.102665,-1.274424 2.929723,-1.846963 2.929723,-1.846963 0.196968,-1.840482 -1.347459,-3.207578 -2.087443,-3.751103 -2.203373,-1.138678 -3.785713,-3.7523 -2.300775,-6.461968 1.358737,-2.476455 1.458308,-3.476156 1.221619,-3.856808 -0.235116,-0.380817 -1.769606,-0.227027 -1.769606,-0.227027 0,0 -0.195031,0.0616 -0.436756,0.08456 l -0.0067,-0.653452 c 0,0 -0.134227,-0.283213 -0.311351,-0.14102 0,-2e-6 0.105982,0.06125 0.116036,0.256575 0.0082,0.195328 -0.01826,0.557837 -0.01826,0.557837 -0.03626,0.440678 -0.135766,0.854206 -0.26979,1.21321 0.05484,0.07101 0.15382,0.152236 0.210451,0.213574 0.03128,0.0328 0.157174,0.193669 0.08432,0.410809 -0.08782,0.211565 -0.225178,0.519261 -0.302702,0.603722 -0.08476,0.102831 -0.09648,0.298385 -0.139339,0.301502 -0.0047,-0.01476 -0.105786,-0.221595 -0.182343,-0.296217 -0.01135,-0.01984 -0.03764,-0.03657 -0.07447,-0.05477 -0.09578,0.212057 -0.232841,0.34311 -0.315671,0.392311 -0.124171,0.06495 -0.352833,0.08641 -0.42907,0.07279 -0.08443,-0.01312 -0.201552,0.06963 -0.31592,0.112432 -0.0066,-0.03969 0.0163,-0.135415 0.0065,-0.234474 -0.0032,-0.06954 -0.107578,-0.111149 -0.116041,-0.264983 -0.0016,-0.04002 -0.01443,-0.377811 0.162401,-0.579699 -0.195341,-0.03641 -0.382441,-0.163956 -0.422097,-0.258258 0.409058,-0.157116 0.365614,-0.701698 0.739936,-0.76156 0.132166,-0.01771 0.559514,0.157751 0.736574,0.192192 0.150424,-0.413781 0.225517,-0.829196 0.263304,-1.165403 -0.178667,-0.0843 -0.317951,-0.238224 -0.329612,-0.532612 0,0 -1.418713,-0.380819 -1.9284,0.423784 0,0 -1.219781,-2.075792 3.557468,-1.653811 0,0 0.766373,-0.683637 1.862098,-0.46174 2.475962,0.513003 3.390015,-0.129018 3.694406,-0.473754 z m -4.677708,1.084443 c -0.215255,0 -1.165403,0.498017 -1.165403,0.498017 0.04446,0.01509 0.655891,-0.198384 0.780059,-0.224624 0.128956,-0.01837 0.117105,-0.0054 0.188348,0 0.01012,0.133827 0.120592,0.16845 0.289729,0.17009 0.170219,0 0.284705,-0.107212 0.315916,-0.152312 0.200707,0.06494 0.503484,0.06981 0.646004,0.04997 0.112507,-0.01476 0.176746,-0.04987 0.145585,-0.06775 -0.03313,-0.0054 -0.387708,-0.08792 -0.559519,-0.129249 -0.175532,-0.04002 -0.386054,-0.144144 -0.640719,-0.144144 z m 3.035669,12.730782 c 0.102502,0.08284 0.192216,0.162176 0.26979,0.238799 0.0098,0.0095 0.01971,0.02131 0.02955,0.03099 0.04986,0.04753 0.09148,0.09464 0.131171,0.139099 0.03641,0.03972 0.07282,0.08122 0.105946,0.124204 0.0082,0.01116 0.01827,0.02287 0.02811,0.03652 0.135795,0.181355 0.243364,0.383622 0.243364,0.570569 v -0.936454 z"
         id="path60" />
      <path
         style="fill:#ffffff;fill-opacity:1;fill-rule:nonzero;stroke:none;stroke-width:0.01640036"
         d="m 16.404297,25.455078 c 0,0 -0.430414,0.952943 -0.759766,1.664063 -0.111227,0.243217 -0.24738,0.5645 -0.515625,0.5625 l -0.02344,0.148437 c 0.12256,0.0039 0.241917,0.0084 0.361328,0.01563 0.13076,0.0097 0.261161,0.02837 0.390625,0.04297 l 0.02344,-0.146484 c -0.116017,-0.02148 -0.318462,-0.04561 -0.232421,-0.234376 0.06328,-0.138418 0.09184,-0.185639 0.134765,-0.28125 l 0.05664,-0.11914 c 0,0 0.139728,4.77e-4 0.320312,0.02344 0.185603,0.01984 0.357422,0.06055 0.357422,0.06055 l 0.0332,0.150391 c 0.008,0.05773 0.0301,0.239594 0.0332,0.302734 0.01164,0.174655 -0.171816,0.182746 -0.289062,0.166016 l -0.02539,0.150391 c 0.198936,0.0246 0.379517,0.05964 0.535157,0.09375 0.196968,0.04526 0.307638,0.08191 0.498046,0.140624 l 0.02344,-0.146484 c -0.07282,-0.02886 -0.194994,-0.13117 -0.214844,-0.21875 -0.02968,-0.138747 -0.04656,-0.188886 -0.08789,-0.478516 -0.0492,-0.335717 -0.359376,-1.867187 -0.359376,-1.867187 z m -1.097656,0.01953 c -0.208925,0.01738 -0.342828,0.04568 -0.554688,0.07422 -0.202003,0.02443 -0.339135,0.03185 -0.507812,0.06055 l -0.03516,0.150391 c 0.293091,-0.03411 0.255246,0.08128 0.197266,0.373046 l -0.324219,1.09375 c -0.08284,0.338668 -0.131789,0.463117 -0.449219,0.498047 l -0.04687,0.144532 c 0.177139,-0.01689 0.445905,-0.05078 0.623046,-0.05078 0.210514,-0.0038 0.398645,-0.0039 0.583985,-0.0039 l 0.02344,-0.146484 c -0.304485,-0.0016 -0.28307,-0.09384 -0.21875,-0.46875 l 0.291016,-1.158203 c 0.03977,-0.275034 0.113957,-0.380756 0.40039,-0.416016 z m -1.445313,0.08008 c -0.356314,0.108079 -0.694227,0.199831 -1.05664,0.269531 -0.294948,0.05609 -0.607411,0.09364 -0.835938,0.107422 l -0.03711,0.117187 c 0.283282,-0.01673 0.296469,0.11161 0.195312,0.439453 l -0.380859,1.16211 c -0.08916,0.275034 -0.119225,0.395126 -0.478516,0.466797 l -0.05273,0.121093 c 0.354261,-0.05544 0.485075,-0.08853 0.705078,-0.132812 0.25683,-0.05215 0.503304,-0.103811 0.714844,-0.150391 l 0.0332,-0.140625 c -0.327466,0.06806 -0.409121,0.06162 -0.337891,-0.208984 l 0.210938,-0.65625 0.128906,-0.01953 c 0.211856,-0.03739 0.251919,0.129933 0.230469,0.359374 l 0.121093,-0.01367 c 0.02519,-0.160888 0.04571,-0.318284 0.07031,-0.478516 0.02832,-0.166626 0.06251,-0.332566 0.0957,-0.498047 l -0.119141,0.01758 c -0.0943,0.300126 -0.180289,0.412023 -0.345703,0.445313 l -0.146484,0.02734 0.132812,-0.498046 c 0.06796,-0.289797 0.118362,-0.303445 0.382813,-0.359375 0.402383,-0.08577 0.548022,-0.157177 0.544922,0.265625 l 0.169922,-0.03125 z m 3.611328,0.148437 -0.0957,0.746094 0.132813,0.04492 c 0.07971,-0.317184 0.107808,-0.568556 0.357422,-0.478516 0.207136,0.07347 0.165088,0.206896 0.136718,0.482422 l -0.144531,1.261719 c -0.0346,0.343257 -0.04881,0.446101 -0.351563,0.363281 l -0.03125,0.140625 c 0.197133,0.07151 0.376162,0.125459 0.544922,0.193359 0.153999,0.06478 0.326142,0.143428 0.523438,0.246094 L 18.5625,28.552734 C 18.314147,28.405786 18.281932,28.26254 18.320312,27.917969 l 0.132813,-1.265625 c 0.02624,-0.305919 0.0642,-0.40287 0.248047,-0.3125 0.1932,0.0984 0.186287,0.390042 0.179687,0.724609 l 0.128907,0.05078 0.06055,-0.734375 c 0,0 -0.312304,-0.231764 -0.724609,-0.404297 C 17.95177,25.807637 17.47266,25.703124 17.47266,25.703124 Z M 24.923828,25.75 c -0.231573,-0.0017 -0.404042,-0.003 -0.58789,0.0078 -0.158591,0.0059 -0.333015,0.005 -0.589844,0.02734 l 0.0098,0.140625 c 0.299635,-0.0034 0.299232,0.160632 0.332032,0.484375 l 0.07227,0.644532 c 0.07479,0.811653 0.61465,1.02149 1.142578,1 0.819527,-0.03231 0.748836,-0.388192 0.666016,-1.095704 l -0.04687,-0.349609 c -0.01505,-0.151374 -0.04946,-0.304777 -0.0098,-0.443359 0.03149,-0.118738 0.112892,-0.172229 0.207032,-0.173828 l -0.01563,-0.140626 c -0.150719,-0.0159 -0.223043,-0.01306 -0.34375,-0.0293 -0.125791,-0.01771 -0.241308,-0.03867 -0.378907,-0.04687 l 0.01563,0.138671 c 0.109061,0.01378 0.189303,0.0625 0.251954,0.169922 0.07117,0.117263 0.09688,0.297113 0.113281,0.4375 l 0.06836,0.53125 c 0.051,0.47233 0.06237,0.723818 -0.414062,0.742188 C 24.970581,27.814438 24.79805,27.52168 24.75,27.023438 L 24.68555,26.40625 c -0.03149,-0.31948 -0.03276,-0.512278 0.251953,-0.517578 z m -2.033203,0.109375 c -0.215337,0.05347 -0.41928,0.117766 -0.611328,0.191406 -0.145799,0.05527 -0.259929,0.106525 -0.453125,0.203125 l 0.0078,0.154297 c 0.313259,-0.117262 0.289911,0.05208 0.306641,0.375 l 0.07031,1.291016 c 0.01984,0.318496 0.02454,0.447325 -0.25,0.611328 l 0.0059,0.146484 c 0.175483,-0.09725 0.383497,-0.190828 0.550781,-0.267578 0.180404,-0.0697 0.834698,-0.313453 1.449219,-0.445312 l -0.01758,-0.794922 -0.128907,0.01953 c -0.05986,0.475283 -0.234864,0.657918 -0.685546,0.802734 -0.355559,0.118246 -0.397806,-0.09856 -0.416016,-0.49414 l -0.06445,-1.050782 c -0.0182,-0.321283 -0.04336,-0.487104 0.244141,-0.578124 z m 3.537109,0.121094 0.0059,0.142578 c 0.07643,0.04855 0.138914,0.05646 0.214844,0.166015 0.05625,0.07839 0.118809,0.154567 0.162109,0.248047 l 0.433594,0.652344 -0.371094,0.566406 c -0.09119,0.142028 -0.196161,0.283209 -0.363281,0.261719 l 0.0078,0.144531 c 0.119393,0.01607 0.235225,0.04008 0.359375,0.05664 0.135467,0.02722 0.243516,0.05363 0.412109,0.08594 l -0.0098,-0.142579 c -0.109391,-0.02526 -0.222725,-0.0539 -0.234375,-0.201171 -0.01,-0.111194 0.08047,-0.266307 0.134766,-0.347657 l 0.164062,-0.251953 0.308594,0.46875 c 0.04297,0.06298 0.164669,0.229914 0.167968,0.302734 0.0031,0.04739 -0.01703,0.07606 -0.04687,0.08984 -0.02673,0.0158 -0.155071,0.01191 -0.181641,0.0078 l 0.01563,0.136719 c 0.181552,0.0346 0.376849,0.05366 0.541016,0.08203 0.208284,0.03067 0.314198,0.058 0.541015,0.09375 l -0.02148,-0.134766 c -0.15039,-0.02673 -0.249746,-0.154088 -0.369141,-0.310547 L 27.58985,27.052717 27.8711,26.632795 c 0.105783,-0.161051 0.169356,-0.265624 0.330078,-0.265624 l -0.04883,-0.146485 c -0.105946,0.0016 -0.177018,0.0059 -0.292969,0 -0.107259,-0.0085 -0.20788,-0.01971 -0.332031,-0.03906 l 0.01172,0.15039 c 0.133994,0.0182 0.279921,0.09597 0.21875,0.189453 -0.04313,0.072 -0.07367,0.117817 -0.125,0.185547 l -0.140624,0.195313 -0.195313,-0.292969 c -0.05954,-0.08856 -0.07363,-0.121792 -0.08203,-0.201172 -0.01,-0.11742 0.106793,-0.09449 0.189453,-0.08789 l -0.01367,-0.154296 c -0.149408,-0.01837 -0.311246,-0.03787 -0.476563,-0.06641 -0.172366,-0.03576 -0.335936,-0.07519 -0.486328,-0.11914 z m -10.111328,0.103515 0.173828,0.882813 c 0,0 -0.148727,-0.02511 -0.314453,-0.04102 -0.139272,-0.01242 -0.257812,-0.01758 -0.257812,-0.01758 z"
         id="path340"
         inkscape:connector-curvature="0" />
    </g>
  </g>
</svg>
