<svg width="102" height="90" viewBox="0 0 102 90" fill="none" xmlns="http://www.w3.org/2000/svg">
<path d="M25.5983 37.1275L46.1546 72.732L36.1859 90H40.7693C43.606 90 46.2271 88.4866 47.6454 86.0299L50.7386 80.6717L53.8323 86.0302C55.2506 88.4867 57.8716 90 60.7082 90H65.2921L34.7661 37.1275H25.5983Z" fill="white"/>
<path d="M64.418 33.1547L69.0017 25.2148L27.8905 25.2186L17.9144 7.93954H83.5584L81.2665 3.96977C79.8482 1.51327 77.2272 0 74.3907 0H27.0822C24.2457 0 21.6246 1.51327 20.2063 3.96977L15.6224 11.9093C14.2042 14.3658 14.2042 17.3923 15.6224 19.8488L18.7232 25.2195L12.5206 25.2201C9.68436 25.2203 7.06366 26.7336 5.64553 29.1898L1.0637 37.1258C-0.354565 39.5823 -0.354565 42.6088 1.0637 45.0653L24.7148 86.0302C26.1331 88.4867 28.7541 90 31.5906 90H36.1745L3.3582 33.1605L64.418 33.1547Z" fill="white"/>
<path d="M100.406 37.1204L95.8232 29.1827C94.4048 26.7259 91.7834 25.2126 88.9466 25.2129L82.7539 25.2135L85.8508 19.849C87.2689 17.3925 87.2688 14.3661 85.8506 11.9097L83.5584 7.93954L53.0302 60.8217L57.614 68.7619L78.1703 33.1534L98.1135 33.1516L65.2921 90H69.8759C72.7125 90 75.3335 88.4867 76.7518 86.0302L100.406 45.0599C101.824 42.6034 101.824 39.5769 100.406 37.1204Z" fill="white"/>
</svg>
