<?xml version="1.0" encoding="utf-8"?>
<!-- Generator: Adobe Illustrator 22.0.0, SVG Export Plug-In . SVG Version: 6.00 Build 0)  -->
<svg version="1.1" id="Layer_1" xmlns="http://www.w3.org/2000/svg" xmlns:xlink="http://www.w3.org/1999/xlink" x="0px" y="0px"
	 viewBox="0 0 55.4 55.4" style="enable-background:new 0 0 55.4 55.4;" xml:space="preserve">
<path d="M43.4,23.3c0-1.4-0.2-2.7-0.5-4c-0.4-1.3-0.9-2.6-1.8-3.7c-1-1.3-2.2-2.1-3.7-2.7c-1-0.4-2-0.6-3.1-0.7
	c-0.9-0.1-1.8-0.1-2.7-0.1c-1.1,0-2.1,0.1-3.2,0.3c0,0-0.1,0-0.1,0c0,0,0,0,0,0c-0.1,0-0.2,0-0.2,0c-0.1-0.8-0.2-1.7-0.1-2.5
	c0-1,0.2-1.9,0.5-2.8c0.3-1,0.8-2,1.6-2.7c1-0.9,2.1-1.2,3.4-1c0.1,0,0.1,0,0.1,0.1c0.1,0.2,0.1,0.4,0.3,0.6
	c0.4,0.6,0.9,0.8,1.5,0.6c0.6-0.2,1.1-0.5,1.6-0.8c0.4-0.3,0.7-0.5,1-0.9C38.2,2.4,38,2,37.4,1.8c-0.8-0.3-1.6-0.4-2.5-0.5
	c0,0,0,0,0,0c-0.3,0-0.7,0-1,0c0,0,0,0,0,0c0,0,0,0,0,0l0,0c-0.5,0-1.1,0.1-1.6,0.2c-1.1,0.3-2.1,0.7-2.9,1.4
	c-1,0.9-1.8,1.9-2.3,3.2c-0.7,1.7-1,3.4-1.1,5.2c0,0.5,0,0.9,0,1.4c-0.3,0-0.6,0-0.9,0c-0.6,0-1.2,0-1.8,0.1c-1.5,0.1-3,0.3-4.4,0.7
	c-1.3,0.4-2.6,1-3.6,1.9c-0.8,0.7-1.4,1.6-1.9,2.5c-0.6,1.3-1,2.6-1.2,4c-0.2,1-0.2,2-0.3,3.1c0,0,0,0.1,0,0.1c0,0,0,0,0,0.1
	c0.2-0.1,0.5-0.3,0.7-0.4c0.6-0.4,1.1-0.7,1.8-0.9c0.8-0.2,1.5-0.2,2.2,0.2c0.5,0.3,0.9,0.6,1.3,1c0.1,0.1,0.1,0.1,0.2,0
	c0.4-0.3,0.8-0.7,1.2-1c0.4-0.4,0.8-0.8,1.3-1.2l0,0c0,0,0.1,0,0.1,0c0.5-0.2,1-0.2,1.5-0.1c1.2,0.3,2,1.1,2.5,2.1
	c0.8,1.8,1.2,3.7,1.4,5.7c0,0.7,0.1,1.3,0,2c0,0.7-0.1,1.4-0.2,2.1c-0.1,1-0.3,2-0.6,2.9c-0.3,1.3-0.7,2.6-1.1,3.9
	c-0.3,1-0.7,1.8-1.4,2.6c-0.2,0.2-0.3,0.4-0.5,0.6c-0.5,0.1-1,0.2-1.5,0.2c-0.4,0-0.9,0-1.3,0c-0.5,0-1.1-0.1-1.6-0.3
	c-0.8-0.2-1.5-0.5-2.2-0.9c-0.6-0.4-1.2-0.8-1.7-1.2c-0.1-0.1-0.2-0.2-0.3-0.2c-0.1,0.8-0.2,1.6-0.2,2.4c0,0.6,0,1.1,0.1,1.7
	c0,0.4,0.1,0.8,0.2,1.2c0.2,0.9,0.5,1.8,1,2.6c0.5,0.8,1.1,1.5,1.8,2c0.8,0.6,1.6,1,2.6,1.3c0.6,0.2,1.3,0.4,1.9,0.5
	c0.5,0.1,1,0.1,1.4,0c0.7-0.1,1.3-0.5,1.8-1c0.3-0.3,0.6-0.6,0.9-0.9c0.4-0.4,0.9-0.6,1.5-0.6c0.5,0,0.9,0.2,1.3,0.4
	c0.7,0.3,1.4,0.8,2.2,1.1c0.5,0.2,1,0.3,1.6,0.3c0.3,0,0.5,0,0.8-0.1c0.9-0.2,1.8-0.4,2.7-0.6c0.9-0.3,1.9-0.6,2.7-1.1
	c0.6-0.4,1.2-0.8,1.8-1.2c0.4-0.4,0.8-0.9,1.1-1.4c0.3-0.4,0.5-0.8,0.6-1.2c0.3-0.7,0.4-1.5,0.5-2.3c0-0.6,0-1.2-0.1-1.8
	c-0.1-0.5-0.1-1.1-0.2-1.6c-0.1-0.4-0.1-0.8-0.2-1.2c0-0.1,0-0.1-0.1,0c-0.3,0.2-0.6,0.5-0.8,0.7c-0.5,0.4-1,0.8-1.5,1.2
	c-0.6,0.4-1.2,0.9-1.9,1.3c-0.5,0.3-1.1,0.6-1.7,0.8c0,0-0.1,0-0.1-0.1c-0.9-0.6-1.4-1.4-1.6-2.5c-0.1-0.7-0.2-1.5-0.3-2.2
	c-0.2-1.3-0.4-2.6-0.6-3.9c-0.1-0.8-0.2-1.6-0.2-2.4c0-0.6,0-1.3,0-1.9c0.1-0.8,0.2-1.7,0.4-2.5c0.2-0.9,0.6-1.9,1-2.7
	c0.2-0.4,0.4-0.9,0.7-1.3c0.3-0.5,0.7-0.9,1.2-1.2c1-0.7,2-1.2,3.2-1.2c0.2,0,0.4,0.2,0.6,0.2c1.1,0.5,2.1,1.3,3,2
	c0.1,0.1,0.3,0.2,0.4,0.3c0,0,0,0,0.1,0c0-0.3,0-0.6,0-0.8c0,0,0,0,0,0C43.4,24.3,43.4,23.8,43.4,23.3
	C43.4,23.3,43.4,23.3,43.4,23.3z"/>
</svg>
