<?xml version="1.0" encoding="UTF-8" standalone="no"?><!DOCTYPE svg PUBLIC "-//W3C//DTD SVG 1.1//EN" "http://www.w3.org/Graphics/SVG/1.1/DTD/svg11.dtd"><svg width="100%" height="100%" viewBox="0 0 17746 4621" version="1.1" xmlns="http://www.w3.org/2000/svg" xmlns:xlink="http://www.w3.org/1999/xlink" xml:space="preserve" xmlns:serif="http://www.serif.com/" style="fill-rule:evenodd;clip-rule:evenodd;stroke-linejoin:round;stroke-miterlimit:2;"><path d="M1171.88,1725.7c194.446,-43.404 368.054,-65.975 520.833,-65.975c260.417,-0 454.863,50.35 586.804,152.779c131.946,102.429 196.184,269.096 196.184,503.471l-0,1239.58l-543.404,0l-0,-1130.21c-0,-211.804 -119.792,-317.709 -357.638,-317.709c-53.821,0 -107.642,6.946 -163.196,17.363c-55.554,12.154 -98.958,26.042 -131.946,43.404l0,1383.68l-541.666,0l-0,-1687.5c95.487,-48.612 239.583,-95.487 434.029,-138.887Zm1923.61,401.041l-269.1,0l0,-416.666l272.571,-0l0,-43.404c1.738,-276.042 65.971,-468.75 190.971,-578.125c125,-107.638 295.142,-161.459 512.154,-161.459c38.196,0 81.596,3.471 126.738,10.417c46.875,6.946 83.333,15.625 112.846,26.042l-0,477.429c-26.042,-26.042 -53.821,-46.875 -79.863,-60.763c-26.042,-13.887 -60.762,-20.833 -102.429,-20.833c-67.708,-0 -121.529,17.362 -159.721,53.821c-38.196,36.458 -59.029,98.958 -59.029,185.762l-0,109.375l401.042,0l-0,414.929l-404.513,0l0,1428.82l-543.404,0l-0,-1425.35l1.737,0Z" style="fill:#24af63;fill-rule:nonzero;"/><rect x="4439.25" y="2250" width="1111.11" height="375" style="fill:#21af62;"/><path d="M6458.33,3496.53c-145.833,-71.183 -262.154,-177.083 -347.221,-319.446c-86.808,-142.362 -130.208,-315.97 -130.208,-519.095c0,-328.126 86.804,-576.392 262.15,-744.792c175.35,-168.404 407.988,-253.475 699.654,-253.475c102.429,-0 204.863,10.416 309.029,31.25c104.167,20.833 196.18,48.612 277.775,85.071l0,467.012c-98.958,-43.4 -187.5,-76.387 -265.625,-100.692c-78.125,-22.57 -156.25,-34.725 -232.637,-34.725c-159.721,0 -284.721,39.934 -375,118.059c-90.279,78.125 -135.417,201.387 -135.417,369.791c0,187.5 41.667,326.388 125,414.93c83.334,90.279 220.488,135.416 409.721,135.416c144.1,0 302.083,-48.612 477.433,-145.833l0,463.542c-86.808,46.875 -177.083,81.595 -270.833,104.166c-93.75,22.571 -197.917,34.721 -315.975,34.721c-178.817,0 -342.012,-36.458 -487.846,-105.9Zm1585.07,-135.417c-156.25,-164.933 -232.642,-409.725 -232.642,-736.112c0,-340.279 76.392,-588.542 230.905,-743.054c154.512,-156.25 388.887,-232.642 701.387,-232.642c312.5,0 548.613,79.863 706.6,237.85c157.983,159.721 236.108,404.513 236.108,737.846c0,321.179 -81.595,564.237 -244.791,732.637c-163.192,168.405 -395.834,251.738 -699.65,251.738c-309.029,-0 -543.404,-83.333 -697.917,-248.263Zm1001.73,-326.391c67.709,-93.75 102.434,-230.9 102.434,-409.721c-0,-196.179 -32.988,-336.804 -100.696,-420.138c-65.971,-83.333 -168.404,-125 -303.821,-125c-140.625,0 -243.054,41.667 -303.816,125c-62.5,83.334 -93.75,223.959 -93.75,420.138c-0,187.5 32.983,326.387 97.22,414.929c64.238,90.279 164.93,135.417 300.346,135.417c133.684,-0 234.375,-46.875 302.084,-140.625Zm1015.62,-1130.21c36.458,-31.25 100.695,-65.97 190.975,-105.9c90.275,-38.195 192.708,-72.916 305.554,-100.695c112.846,-27.78 222.221,-41.667 326.387,-41.667c201.392,-0 342.017,31.25 418.404,90.279l0,397.567c-97.22,-22.567 -236.112,-32.984 -418.404,-32.984c-114.583,0 -208.333,6.942 -281.25,17.359l0,1425.35l-543.4,-0l0,-1649.31l1.734,0Zm3163.2,869.792l-1217.01,0c46.875,255.208 217.012,381.946 513.887,381.946c90.28,0 177.084,-12.154 263.888,-38.196c86.808,-26.042 177.083,-59.025 274.308,-100.692l0,467.013c-199.654,83.333 -421.875,123.262 -670.142,123.262c-187.5,0 -350.691,-38.191 -491.316,-114.583c-140.625,-76.387 -250,-185.762 -328.125,-329.858c-78.125,-144.1 -116.321,-312.5 -116.321,-506.946c-0,-321.179 79.862,-569.446 237.846,-744.792c159.725,-175.346 387.154,-262.154 680.558,-262.154c576.388,0 859.375,375 852.429,1125Zm-1220.49,-345.483l680.558,-0c-17.362,-131.946 -52.083,-223.959 -104.167,-281.25c-52.083,-55.559 -130.208,-83.334 -230.904,-83.334c-194.446,0 -309.029,121.526 -345.487,364.584Z" style="fill-rule:nonzero;"/><path d="M5550.33,2251.74l0,373.262l-1059.03,0l373.263,-373.262l685.762,-0Z" style="fill:url(#_Linear1);fill-rule:nonzero;"/><g id="UR4fCq.tif"><path d="M16791.7,2043.4l-0,59.025c-1.738,0 -1.738,0 -3.471,1.738c-10.417,-8.68 -20.834,-15.625 -29.517,-24.305c-65.971,-55.558 -137.15,-105.904 -215.275,-144.1c-13.891,-6.941 -26.041,-13.887 -41.666,-17.358c-1.738,-1.737 -3.475,-3.475 -5.209,-3.475c-29.516,-12.15 -59.029,-22.567 -90.279,-29.512c-67.708,-15.625 -135.417,-17.363 -203.125,-3.471c-86.804,17.358 -164.929,55.554 -237.846,104.166c-72.916,48.609 -137.154,105.9 -197.916,168.4c-10.417,10.417 -10.417,10.417 -17.363,-3.47c-32.988,-67.709 -67.708,-133.68 -112.846,-194.446c-34.725,-46.875 -72.917,-88.542 -121.529,-119.792c-50.346,-31.25 -104.167,-41.667 -161.458,-27.775c-71.18,17.358 -128.471,59.025 -182.292,105.9c-32.988,26.042 -62.5,53.821 -92.013,81.6c-27.779,24.304 -53.82,50.346 -83.333,74.65c-5.208,5.208 -8.683,3.475 -12.154,0c-27.779,-29.512 -57.292,-55.554 -92.012,-74.65c-50.35,-27.779 -104.167,-31.25 -157.988,-12.154c-45.137,15.625 -86.804,39.929 -126.737,64.237c-15.626,10.417 -31.251,20.834 -48.609,29.513l0,-3.471c1.734,-3.475 1.734,-6.946 1.734,-8.683c1.737,-72.917 8.683,-145.834 20.833,-218.75c15.625,-98.959 39.933,-196.179 85.071,-288.192c32.987,-67.708 76.387,-128.475 133.679,-180.558c74.654,-67.709 161.458,-109.375 256.946,-137.15c102.429,-29.517 208.333,-41.667 315.97,-46.875c41.667,-1.738 85.071,-3.475 126.738,-5.209c20.833,8.68 41.667,13.888 64.238,20.834c31.25,8.679 62.5,19.096 92.012,27.775c15.625,5.208 31.25,12.154 46.875,17.362c60.763,22.571 119.792,50.346 171.875,90.279c13.888,10.417 26.042,20.834 39.929,32.984c-3.471,-10.417 -6.941,-19.096 -10.416,-27.775c-22.567,-60.767 -57.292,-111.113 -112.846,-144.1c-22.571,-13.888 -48.613,-26.042 -71.18,-38.192c1.734,0 5.209,0 6.942,-1.737c74.654,-12.155 149.309,-19.096 223.959,-22.571c64.237,-1.734 130.208,-1.734 194.445,5.208c74.655,8.683 149.305,22.571 220.488,48.613c105.9,38.195 196.179,100.695 265.625,189.237c60.762,78.125 98.958,166.667 125,260.417c24.304,93.75 34.721,190.971 38.192,286.458c-3.471,36.458 -3.471,72.917 -3.471,109.375Z" style="fill:#24af63;fill-rule:nonzero;"/><rect x="16791.7" y="1934.03" width="1.737" height="109.375" style="fill:#ecdc86;"/><rect x="16119.8" y="376.738" width="72.917" height="1.738" style="fill:#a0918f;"/><path d="M16241.3,3470.49c41.667,-17.363 81.596,-36.459 119.792,-59.03c45.138,-27.779 88.542,-57.291 131.942,-88.541c36.458,-27.779 71.183,-55.554 104.166,-83.334c19.1,-17.362 39.934,-32.987 59.03,-50.345c3.47,-3.475 3.47,-1.738 5.208,1.733c6.946,27.779 12.154,53.821 17.362,81.6c6.942,36.458 13.888,74.65 17.359,112.846c5.208,43.404 6.946,86.804 3.475,131.945c-3.475,53.817 -13.892,107.638 -31.25,159.721c-12.154,31.25 -26.042,60.763 -43.404,88.542c-22.571,36.458 -50.346,67.708 -81.596,97.221c-38.196,34.725 -79.863,64.237 -125,88.541c-60.767,34.725 -126.738,59.03 -192.709,79.863c-64.237,19.096 -128.475,32.988 -194.445,45.137c-17.363,3.475 -36.459,6.946 -53.821,5.209c-38.192,-1.734 -74.65,-10.417 -111.109,-24.304c-53.82,-20.834 -102.433,-53.821 -154.516,-78.125c-29.513,-13.888 -59.025,-22.571 -90.275,-26.042c-41.667,-3.471 -76.392,12.154 -105.904,39.929c-22.571,20.833 -43.405,43.404 -64.238,64.238c-36.458,36.458 -79.858,60.762 -130.208,67.708c-32.984,5.208 -67.709,3.471 -100.692,-1.738c-46.875,-6.941 -93.75,-17.358 -138.892,-31.249c-65.97,-20.834 -126.733,-52.084 -182.291,-93.75c-52.084,-39.93 -93.75,-88.542 -128.471,-145.834c-32.988,-57.291 -55.554,-118.054 -69.446,-182.291c-6.942,-27.776 -10.417,-57.292 -12.15,-85.067c-3.475,-39.933 -6.946,-79.863 -5.208,-121.529c1.733,-57.292 5.208,-112.846 13.887,-171.875c6.946,5.208 12.154,12.154 19.096,17.362c36.458,32.984 76.392,62.5 119.792,88.542c48.612,27.775 98.958,50.346 154.516,64.233c36.459,10.417 74.65,15.625 112.846,19.1c31.25,1.734 62.5,3.471 93.75,1.734c36.459,-1.734 72.917,-5.209 109.375,-13.888c5.209,0 8.679,0 13.888,-1.737c32.987,-6.942 65.975,-13.888 97.225,-24.305c36.458,-10.416 74.65,-22.57 109.375,-36.458l104.166,-41.667c10.417,-5.208 15.625,-1.737 24.305,3.471c57.291,45.142 119.791,83.334 187.5,109.375c74.654,29.517 152.779,43.404 232.637,36.459c55.558,-8.68 111.113,-22.567 164.933,-43.401Z" style="fill:#24af63;fill-rule:nonzero;"/><path d="M16241.3,3470.49c-53.82,20.833 -109.375,36.458 -168.404,41.666c-81.596,6.942 -157.987,-6.946 -232.637,-36.458c-67.709,-26.042 -130.209,-64.238 -187.5,-109.375c-8.684,-6.946 -13.892,-8.683 -24.309,-3.475c-34.72,15.625 -69.441,29.516 -104.166,41.667c-36.459,13.891 -72.917,26.041 -109.375,36.458c-32.984,8.683 -64.234,17.362 -97.221,24.308c-5.208,1.734 -8.679,1.734 -13.888,1.734c12.15,-13.888 22.567,-26.042 34.721,-39.93c46.875,-53.82 78.125,-114.583 97.221,-182.291c26.042,-92.013 53.821,-185.763 74.654,-279.513c15.625,-69.446 29.513,-138.891 39.929,-208.333c6.946,-50.35 10.417,-100.696 13.892,-151.042c3.471,-46.875 1.733,-93.75 -1.737,-138.891c-8.68,-140.625 -39.93,-276.042 -97.221,-404.513c-34.725,-76.387 -92.017,-130.208 -177.084,-151.042c-36.458,-8.679 -71.183,-6.945 -107.641,5.209c-3.471,1.737 -5.209,1.737 -8.679,1.737c53.82,-46.875 111.112,-88.542 182.291,-105.904c57.292,-13.888 111.113,-3.471 161.459,27.779c50.345,31.25 88.541,72.917 121.529,119.792c45.137,60.762 79.858,126.733 112.846,194.442c6.945,13.891 6.945,13.891 17.362,3.474c60.763,-62.5 126.733,-119.791 197.917,-168.404c72.916,-48.612 151.041,-86.804 237.846,-104.166c67.708,-13.888 135.416,-12.155 203.125,3.47c31.25,6.946 60.762,17.363 90.279,29.517c1.733,1.733 5.208,1.733 5.208,3.471c-86.808,1.737 -161.458,34.721 -229.167,85.071c-32.987,24.304 -62.5,52.083 -85.07,86.804c-19.096,27.779 -32.988,59.029 -48.613,90.279c-29.512,62.5 -53.817,126.733 -71.179,194.442c-15.625,57.291 -24.304,116.321 -29.513,175.35c-3.475,45.137 -5.208,92.012 -3.475,137.15c1.738,55.558 6.946,112.85 13.892,168.404c12.15,93.75 29.513,187.5 43.4,279.512c8.683,52.084 15.625,104.167 24.308,154.517c12.15,74.65 53.817,131.942 114.584,175.346c5.208,-1.738 6.941,0 10.416,1.737Z" style="fill:#ecdc86;fill-rule:nonzero;"/><path d="M16119.8,378.471l72.916,-0c59.03,3.475 118.055,12.154 175.346,31.25c43.404,15.625 53.821,43.404 27.779,81.6c-19.095,27.775 -45.137,46.875 -71.179,64.233c-34.725,24.308 -72.916,43.404 -112.85,57.292c-41.666,15.625 -81.596,-0 -105.9,-41.667c-8.683,-12.15 -13.891,-26.042 -17.362,-41.667c-1.738,-5.208 -3.471,-6.941 -6.946,-6.941c-92.013,-15.625 -173.608,5.208 -241.317,71.179c-55.558,53.821 -88.541,119.792 -111.112,192.708c-20.834,65.971 -31.25,131.946 -34.721,199.655c-3.475,60.762 1.733,121.525 10.417,180.554c1.733,10.416 5.208,20.833 5.208,31.25c1.733,12.154 -1.738,24.304 -13.892,31.25c-12.15,8.679 -24.304,6.946 -38.191,6.946c-31.25,-8.684 -62.5,-19.1 -92.017,-27.78l-0,-22.57c-0,-31.25 -0,-64.234 1.737,-95.484c6.946,-126.737 26.042,-251.737 74.655,-369.791c36.458,-88.542 88.541,-164.934 161.458,-225.696c60.762,-50.346 130.208,-83.334 206.596,-100.696c34.721,-8.679 71.179,-13.888 109.375,-15.625Z" style="fill:#3f2b29;fill-rule:nonzero;"/><path d="M15654.5,1237.85c13.892,-0 26.042,1.737 38.196,-6.942c10.417,-8.683 15.625,-19.1 13.887,-31.25l-5.208,-31.25c5.208,0 12.154,-1.737 17.363,-1.737c24.304,13.887 48.612,24.304 71.179,38.196c55.558,34.72 90.279,85.066 112.85,144.095c3.471,8.68 6.941,19.096 10.416,27.78c-13.891,-10.417 -26.041,-22.571 -39.933,-32.988c-52.083,-39.929 -109.375,-67.708 -171.875,-90.279c-15.625,-3.471 -31.25,-10.417 -46.875,-15.625Zm-93.75,-50.346l0,22.571c-20.833,-6.946 -43.4,-12.154 -64.233,-20.833c22.566,-0 43.4,-1.738 64.233,-1.738Z" style="fill:#396e35;fill-rule:nonzero;"/></g><defs><linearGradient id="_Linear1" x1="0" y1="0" x2="1" y2="0" gradientUnits="userSpaceOnUse" gradientTransform="matrix(657.604,513.783,-513.783,657.604,4782.33,2252.64)"><stop offset="0" style="stop-color:#0d552b;stop-opacity:1"/><stop offset="0.22" style="stop-color:#0d552b;stop-opacity:1"/><stop offset="0.31" style="stop-color:#176837;stop-opacity:1"/><stop offset="0.46" style="stop-color:#1f8448;stop-opacity:1"/><stop offset="0.6" style="stop-color:#239a56;stop-opacity:1"/><stop offset="0.74" style="stop-color:#24a860;stop-opacity:1"/><stop offset="0.85" style="stop-color:#25af64;stop-opacity:1"/><stop offset="1" style="stop-color:#25af64;stop-opacity:1"/></linearGradient></defs></svg>