<?xml version="1.0" encoding="UTF-8" standalone="no"?>
<!DOCTYPE svg PUBLIC "-//W3C//DTD SVG 1.1//EN" "http://www.w3.org/Graphics/SVG/1.1/DTD/svg11.dtd">
<svg width="100%" height="100%" viewBox="0 0 2134 2134" version="1.1"
    xmlns="http://www.w3.org/2000/svg" xmlns:xlink="http://www.w3.org/1999/xlink"
    xml:space="preserve" xmlns:serif="http://www.serif.com/"
    style="fill-rule:evenodd;clip-rule:evenodd;stroke-linejoin:round;stroke-miterlimit:2;"><circle cx="1525.1" cy="405.828" r="144.306" class="lights"/><circle cx="1525.1" cy="1069.74" r="144.306" class="lights"/><circle cx="1525.1" cy="1736.91" r="144.306" class="lights"/><circle cx="1794.69" cy="405.828" r="144.306" class="lights"/><circle cx="1794.69" cy="1069.74" r="144.306" class="lights"/><circle cx="1794.69" cy="1736.91" r="144.306" class="lights"/><path d="M2000,666.667l-1866.67,-0c-73.637,-0 -133.333,-59.696 -133.333,-133.334l0,-266.666c0,-73.638 59.696,-133.334 133.333,-133.334l1866.67,0c73.638,0 133.333,59.696 133.333,133.334l0,266.666c0,73.638 -59.695,133.334 -133.333,133.334Zm-200,-366.667c-55.229,-0 -100,44.771 -100,100c0,55.229 44.771,100 100,100c55.229,-0 100,-44.771 100,-100c0,-55.229 -44.771,-100 -100,-100Zm-266.667,-0c-55.229,-0 -100,44.771 -100,100c0,55.229 44.771,100 100,100c55.229,-0 100,-44.771 100,-100c0,-55.229 -44.771,-100 -100,-100Zm466.667,1033.33l-1866.67,0c-73.637,0 -133.333,-59.696 -133.333,-133.333l0,-266.667c0,-73.637 59.696,-133.333 133.333,-133.333l1866.67,0c73.638,0 133.333,59.696 133.333,133.333l0,266.667c0,73.638 -59.695,133.333 -133.333,133.333Zm-200,-366.666c-55.229,-0 -100,44.77 -100,100c0,55.229 44.771,100 100,100c55.229,-0 100,-44.771 100,-100c0,-55.23 -44.771,-100 -100,-100Zm-266.667,-0c-55.229,-0 -100,44.77 -100,100c0,55.229 44.771,100 100,100c55.229,-0 100,-44.771 100,-100c0,-55.23 -44.771,-100 -100,-100Zm466.667,1033.33l-1866.67,0c-73.637,0 -133.333,-59.696 -133.333,-133.333l0,-266.667c0,-73.637 59.696,-133.333 133.333,-133.333l1866.67,-0c73.638,-0 133.333,59.696 133.333,133.333l0,266.667c0,73.637 -59.695,133.333 -133.333,133.333Zm-200,-366.667c-55.229,0 -100,44.771 -100,100c0,55.229 44.771,100 100,100c55.229,0 100,-44.771 100,-100c0,-55.229 -44.771,-100 -100,-100Zm-266.667,0c-55.229,0 -100,44.771 -100,100c0,55.229 44.771,100 100,100c55.229,0 100,-44.771 100,-100c0,-55.229 -44.771,-100 -100,-100Z" style="fill-rule:nonzero;"/></svg>