<svg id="svg" version="1.1" xmlns="http://www.w3.org/2000/svg" xmlns:xlink="http://www.w3.org/1999/xlink" width="400" height="119.14893617021276" viewBox="0, 0, 400,119.14893617021276"><g id="svgg"><path id="path0" d="M148.667 41.491 C 148.667 41.588,148.460 41.667,148.208 41.668 C 147.323 41.669,145.849 42.165,145.363 42.625 C 145.242 42.740,145.085 42.833,145.014 42.833 C 144.747 42.833,142.997 44.704,142.899 45.093 C 142.843 45.317,142.737 45.500,142.662 45.500 C 142.536 45.500,142.325 46.027,141.842 47.547 C 141.279 49.318,141.659 52.184,142.683 53.886 C 142.949 54.328,143.167 54.721,143.167 54.761 C 143.167 54.909,144.468 56.167,144.621 56.167 C 144.710 56.167,144.916 56.315,145.080 56.497 C 145.424 56.876,146.984 57.500,147.590 57.500 C 147.815 57.500,148.000 57.575,148.000 57.667 C 148.000 57.873,151.109 57.894,151.236 57.689 C 151.286 57.609,151.642 57.493,152.027 57.432 C 153.334 57.223,156.000 55.497,156.000 54.860 C 156.000 54.321,154.457 53.329,154.217 53.713 C 153.947 54.145,152.308 55.175,151.581 55.369 C 151.170 55.479,150.833 55.629,150.833 55.701 C 150.833 55.880,148.775 55.870,148.575 55.691 C 148.488 55.613,148.072 55.457,147.650 55.343 C 147.229 55.230,146.666 54.949,146.400 54.719 C 146.134 54.488,145.804 54.213,145.667 54.108 C 143.977 52.814,143.273 47.918,144.588 46.603 C 144.723 46.468,144.833 46.310,144.833 46.252 C 144.833 45.563,147.096 43.882,148.233 43.726 C 148.655 43.669,149.000 43.557,149.000 43.477 C 149.000 43.398,149.300 43.333,149.667 43.333 C 150.033 43.333,150.333 43.392,150.333 43.464 C 150.333 43.535,150.505 43.608,150.716 43.626 C 151.195 43.665,152.428 44.095,152.707 44.320 C 152.822 44.412,153.181 44.709,153.504 44.978 C 154.354 45.688,154.562 45.675,155.324 44.861 C 156.166 43.961,156.188 44.060,154.959 43.167 C 153.476 42.088,152.436 41.667,151.260 41.667 C 151.025 41.667,150.833 41.603,150.833 41.526 C 150.833 41.449,150.346 41.370,149.750 41.351 C 149.080 41.329,148.667 41.383,148.667 41.491 M325.833 41.483 C 325.696 41.559,325.155 41.670,324.631 41.728 C 323.033 41.907,321.924 42.676,321.165 44.133 C 320.744 44.940,320.715 47.655,321.126 47.792 C 321.240 47.830,321.333 47.947,321.333 48.052 C 321.333 48.394,322.818 49.637,323.372 49.759 C 323.669 49.824,324.063 49.975,324.248 50.095 C 324.432 50.216,325.277 50.440,326.125 50.595 C 326.973 50.749,327.667 50.929,327.667 50.994 C 327.667 51.060,327.971 51.214,328.342 51.336 C 330.538 52.061,330.337 55.500,328.099 55.500 C 327.953 55.500,327.833 55.575,327.833 55.667 C 327.833 55.762,327.333 55.833,326.667 55.833 C 326.025 55.833,325.500 55.767,325.500 55.686 C 325.500 55.604,325.169 55.488,324.764 55.427 C 324.062 55.322,322.191 54.244,321.707 53.667 C 321.527 53.451,321.418 53.508,320.918 54.083 C 320.084 55.042,320.228 55.582,321.500 56.268 C 321.821 56.442,322.124 56.638,322.174 56.704 C 322.322 56.902,324.337 57.500,324.855 57.500 C 325.118 57.500,325.333 57.575,325.333 57.667 C 325.333 57.763,325.858 57.833,326.573 57.833 C 327.256 57.833,327.860 57.758,327.917 57.667 C 327.973 57.575,328.221 57.494,328.468 57.487 C 332.154 57.383,333.581 51.337,330.303 49.710 C 329.085 49.105,328.164 48.785,327.027 48.572 C 326.325 48.441,325.600 48.262,325.417 48.176 C 325.233 48.089,324.743 47.869,324.326 47.687 C 323.877 47.491,323.487 47.182,323.368 46.928 C 322.753 45.618,322.759 45.737,323.269 44.917 C 323.740 44.160,324.497 43.667,325.187 43.667 C 325.359 43.667,325.500 43.592,325.500 43.500 C 325.500 43.408,325.800 43.333,326.167 43.333 C 326.533 43.333,326.833 43.408,326.833 43.500 C 326.833 43.592,327.011 43.667,327.229 43.667 C 327.667 43.667,329.018 44.108,329.160 44.297 C 329.823 45.180,330.694 45.272,331.131 44.504 C 331.288 44.228,331.473 44.002,331.542 44.001 C 331.610 44.000,331.667 43.864,331.667 43.698 C 331.667 43.400,330.842 42.667,330.507 42.667 C 330.411 42.667,330.333 42.595,330.333 42.507 C 330.333 42.244,328.201 41.667,327.232 41.667 C 326.738 41.667,326.333 41.592,326.333 41.500 C 326.333 41.300,326.171 41.294,325.833 41.483 M341.583 41.500 C 341.527 41.592,341.305 41.667,341.091 41.667 C 340.560 41.667,338.500 42.314,338.500 42.481 C 338.500 42.555,338.357 42.683,338.183 42.766 C 337.673 43.008,336.500 44.026,336.497 44.230 C 336.496 44.333,336.322 44.580,336.111 44.780 C 335.900 44.979,335.627 45.448,335.504 45.821 C 335.381 46.195,335.230 46.500,335.169 46.500 C 334.566 46.500,334.567 52.434,335.170 52.639 C 335.260 52.669,335.333 52.804,335.333 52.937 C 335.333 53.674,337.527 56.500,338.098 56.500 C 338.212 56.500,338.331 56.574,338.361 56.665 C 338.427 56.860,340.182 57.500,340.653 57.500 C 340.833 57.500,341.027 57.575,341.083 57.667 C 341.140 57.759,341.891 57.833,342.760 57.833 C 343.698 57.833,344.333 57.766,344.333 57.667 C 344.333 57.575,344.485 57.500,344.671 57.500 C 345.077 57.500,346.856 56.891,346.989 56.706 C 347.041 56.634,347.299 56.438,347.563 56.270 C 349.108 55.285,349.200 55.040,348.353 54.167 C 347.596 53.387,347.662 53.405,347.151 53.843 C 346.930 54.032,346.581 54.332,346.375 54.509 C 346.169 54.686,345.999 54.775,345.997 54.707 C 345.996 54.639,345.940 54.658,345.872 54.750 C 345.692 54.995,344.540 55.500,344.161 55.500 C 343.981 55.500,343.833 55.575,343.833 55.667 C 343.833 55.762,343.333 55.833,342.667 55.833 C 342.000 55.833,341.500 55.762,341.500 55.667 C 341.500 55.575,341.359 55.500,341.187 55.500 C 340.369 55.500,337.667 53.455,337.667 52.836 C 337.667 52.741,337.498 52.308,337.292 51.873 C 336.989 51.236,336.917 50.794,336.917 49.583 C 336.917 48.373,336.989 47.931,337.292 47.293 C 337.498 46.859,337.667 46.453,337.667 46.391 C 337.667 46.215,338.832 44.965,339.458 44.468 C 339.866 44.145,341.188 43.667,341.672 43.667 C 341.853 43.667,342.000 43.592,342.000 43.500 C 342.000 43.408,342.300 43.333,342.667 43.333 C 343.033 43.333,343.333 43.408,343.333 43.500 C 343.333 43.592,343.507 43.667,343.720 43.667 C 344.329 43.667,345.604 44.154,345.926 44.510 C 346.087 44.688,346.314 44.833,346.430 44.833 C 346.547 44.833,346.780 45.008,346.948 45.222 C 347.272 45.633,347.833 45.751,347.833 45.408 C 347.833 45.296,348.058 45.027,348.332 44.810 C 348.606 44.594,348.831 44.293,348.832 44.142 C 348.833 43.867,347.786 42.833,347.506 42.833 C 347.424 42.833,347.250 42.726,347.120 42.596 C 346.744 42.220,345.698 41.840,344.727 41.726 C 344.235 41.668,343.833 41.556,343.833 41.477 C 343.833 41.275,341.709 41.297,341.583 41.500 M158.500 49.667 L 158.500 57.500 164.417 57.500 L 170.333 57.500 170.333 56.500 L 170.333 55.500 165.583 55.500 L 160.833 55.500 160.833 53.000 L 160.833 50.500 165.000 50.500 L 169.167 50.500 169.167 49.500 L 169.167 48.500 165.000 48.500 L 160.833 48.500 160.833 46.083 L 160.833 43.667 165.500 43.667 L 170.167 43.667 170.167 42.750 L 170.167 41.833 164.333 41.833 L 158.500 41.833 158.500 49.667 M173.333 49.667 L 173.333 57.500 174.333 57.500 L 175.333 57.500 175.333 51.528 C 175.333 45.360,175.362 45.032,175.845 45.768 C 176.003 46.008,176.291 46.402,176.487 46.644 C 176.995 47.274,179.131 50.013,179.467 50.466 C 179.623 50.676,179.938 51.064,180.167 51.326 C 181.031 52.317,181.311 52.675,181.640 53.208 C 181.827 53.509,182.171 53.936,182.406 54.157 C 182.641 54.378,182.833 54.617,182.833 54.688 C 182.833 54.807,183.126 55.155,184.012 56.089 C 184.189 56.276,184.336 56.501,184.339 56.589 C 184.359 57.170,184.995 57.517,185.950 57.467 L 186.917 57.417 186.960 49.625 L 187.003 41.833 185.837 41.833 L 184.671 41.833 184.627 47.625 L 184.583 53.417 183.953 52.583 C 183.058 51.400,182.462 50.676,182.125 50.363 C 181.965 50.214,181.833 50.030,181.833 49.953 C 181.833 49.877,181.376 49.275,180.817 48.615 C 180.258 47.956,179.757 47.304,179.704 47.167 C 179.651 47.029,179.453 46.751,179.262 46.548 C 179.072 46.345,178.729 45.942,178.500 45.652 C 178.271 45.362,177.915 44.943,177.708 44.721 C 177.502 44.500,177.333 44.273,177.333 44.218 C 177.333 44.135,176.480 43.026,175.660 42.042 C 175.554 41.914,175.068 41.833,174.410 41.833 L 173.333 41.833 173.333 49.667 M189.833 42.833 L 189.833 43.833 192.333 43.833 L 194.833 43.833 194.833 50.667 L 194.833 57.500 195.917 57.500 L 197.000 57.500 197.000 50.671 L 197.000 43.842 199.625 43.796 L 202.250 43.750 202.300 42.792 L 202.350 41.833 196.092 41.833 L 189.833 41.833 189.833 42.833 M205.167 49.667 L 205.167 57.500 206.167 57.500 L 207.167 57.500 207.167 54.500 L 207.167 51.500 209.239 51.500 L 211.311 51.500 211.692 52.042 C 211.902 52.340,212.133 52.658,212.205 52.750 C 212.276 52.842,212.670 53.367,213.080 53.917 C 213.489 54.467,213.885 54.992,213.959 55.083 C 214.033 55.175,214.266 55.531,214.477 55.875 C 214.688 56.219,214.911 56.500,214.972 56.501 C 215.033 56.502,215.211 56.727,215.367 57.001 C 215.646 57.490,215.677 57.500,216.992 57.500 C 218.435 57.500,218.607 57.373,218.000 56.756 C 217.542 56.290,216.333 54.702,216.333 54.566 C 216.333 54.505,216.165 54.288,215.958 54.083 C 215.752 53.879,215.321 53.319,215.000 52.838 C 214.679 52.357,214.285 51.843,214.125 51.695 C 213.742 51.342,213.756 51.167,214.167 51.167 C 214.350 51.167,214.500 51.092,214.500 51.000 C 214.500 50.908,214.594 50.831,214.708 50.828 C 216.249 50.786,217.667 48.669,217.667 46.411 C 217.667 44.659,217.255 43.891,215.572 42.510 C 214.914 41.970,213.662 41.833,209.380 41.833 L 205.167 41.833 205.167 49.667 M220.834 46.792 C 220.835 51.717,220.951 53.297,221.366 54.075 C 221.486 54.298,221.754 54.804,221.962 55.199 C 222.555 56.322,224.415 57.500,225.594 57.500 C 225.807 57.500,226.027 57.575,226.083 57.667 C 226.140 57.758,226.782 57.833,227.510 57.833 C 228.281 57.833,228.833 57.764,228.833 57.667 C 228.833 57.575,229.007 57.500,229.220 57.500 C 229.738 57.500,231.143 57.013,231.505 56.707 C 232.812 55.605,233.667 54.335,233.667 53.496 C 233.667 53.330,233.760 53.163,233.875 53.125 C 234.035 53.072,234.097 51.743,234.140 47.437 L 234.197 41.817 233.057 41.867 L 231.917 41.917 231.917 47.042 C 231.917 49.861,231.860 52.167,231.792 52.167 C 231.723 52.167,231.667 52.308,231.667 52.480 C 231.667 53.594,230.456 55.046,229.260 55.366 C 228.842 55.478,228.500 55.629,228.500 55.701 C 228.500 55.774,228.050 55.833,227.500 55.833 C 226.950 55.833,226.500 55.767,226.500 55.685 C 226.500 55.604,226.219 55.485,225.875 55.421 C 225.036 55.266,224.330 54.700,223.648 53.639 L 223.083 52.758 223.031 47.296 L 222.979 41.833 221.906 41.833 L 220.833 41.833 220.834 46.792 M237.833 49.667 L 237.833 57.500 238.833 57.500 L 239.833 57.500 239.833 51.583 C 239.833 45.943,239.847 45.681,240.125 45.973 C 240.488 46.354,240.786 46.805,240.996 47.292 C 241.085 47.498,241.230 47.667,241.318 47.667 C 241.406 47.667,241.521 47.803,241.574 47.971 C 241.627 48.138,241.806 48.420,241.972 48.598 C 242.236 48.882,242.453 49.212,243.382 50.749 C 243.493 50.932,243.779 51.317,244.019 51.604 C 244.258 51.891,244.558 52.361,244.685 52.648 C 245.012 53.386,245.833 53.571,245.833 52.907 C 245.833 52.775,245.895 52.667,245.969 52.667 C 246.044 52.667,246.274 52.367,246.480 52.000 C 246.686 51.633,246.925 51.333,247.011 51.333 C 247.096 51.333,247.167 51.247,247.167 51.141 C 247.167 51.035,247.358 50.697,247.592 50.391 C 247.826 50.084,247.959 49.833,247.888 49.833 C 247.817 49.833,247.926 49.717,248.130 49.574 C 248.333 49.431,248.500 49.217,248.500 49.097 C 248.500 48.978,248.762 48.551,249.082 48.148 C 249.402 47.746,249.664 47.323,249.665 47.208 C 249.666 47.094,249.743 47.000,249.836 47.000 C 249.929 47.000,250.131 46.737,250.284 46.417 C 250.789 45.357,250.833 45.782,250.833 51.667 L 250.833 57.500 251.917 57.500 L 253.000 57.500 253.000 49.667 L 253.000 41.833 251.958 41.836 C 250.735 41.839,250.597 41.908,250.151 42.739 C 249.966 43.085,249.669 43.524,249.490 43.715 C 249.312 43.906,249.167 44.157,249.167 44.273 C 249.167 44.389,249.064 44.543,248.938 44.617 C 248.813 44.690,248.547 45.050,248.348 45.417 C 247.991 46.075,247.424 46.936,246.920 47.583 C 246.778 47.767,246.391 48.353,246.061 48.886 C 245.392 49.967,245.313 49.955,244.596 48.662 C 244.419 48.344,244.222 48.046,244.156 48.000 C 244.091 47.954,243.898 47.679,243.727 47.388 C 243.556 47.097,243.038 46.310,242.575 45.638 C 242.111 44.966,241.682 44.285,241.621 44.125 C 241.560 43.965,241.433 43.833,241.339 43.833 C 241.244 43.833,241.167 43.750,241.167 43.647 C 241.167 43.545,240.898 43.095,240.569 42.647 L 239.972 41.833 238.902 41.833 L 237.833 41.833 237.833 49.667 M263.500 49.674 L 263.500 57.515 264.625 57.466 L 265.750 57.417 265.794 51.604 L 265.838 45.791 266.238 46.354 C 266.459 46.663,266.804 47.216,267.005 47.583 C 267.206 47.949,267.590 48.511,267.858 48.833 C 268.594 49.716,268.667 49.812,268.667 49.908 C 268.667 50.003,270.010 52.031,270.439 52.583 C 270.582 52.767,270.757 53.018,270.828 53.143 C 270.996 53.435,271.598 53.252,271.727 52.869 C 271.848 52.511,272.142 52.074,272.625 51.536 C 272.831 51.306,273.000 51.041,273.000 50.948 C 273.000 50.854,273.116 50.659,273.258 50.514 C 273.400 50.369,273.851 49.725,274.260 49.083 C 274.668 48.442,275.120 47.767,275.264 47.583 C 275.408 47.400,275.782 46.881,276.096 46.429 L 276.667 45.608 276.667 51.554 L 276.667 57.500 277.667 57.500 L 278.667 57.500 278.667 49.667 L 278.667 41.833 277.589 41.833 C 276.652 41.833,276.486 41.881,276.317 42.198 C 276.209 42.398,275.982 42.712,275.811 42.896 C 275.640 43.079,275.500 43.324,275.500 43.440 C 275.500 43.555,275.400 43.710,275.279 43.783 C 275.157 43.857,274.876 44.249,274.654 44.656 C 274.432 45.062,274.081 45.579,273.875 45.805 C 273.669 46.031,273.500 46.319,273.500 46.446 C 273.500 46.573,273.387 46.720,273.250 46.773 C 273.112 46.826,273.000 46.945,273.000 47.037 C 273.000 47.130,272.747 47.553,272.438 47.978 C 272.129 48.402,271.752 48.994,271.601 49.292 C 271.264 49.953,271.125 49.967,270.820 49.375 C 270.690 49.123,270.488 48.816,270.371 48.693 C 270.254 48.569,270.040 48.239,269.895 47.958 C 269.750 47.678,269.489 47.296,269.316 47.109 C 269.142 46.923,268.907 46.560,268.793 46.302 C 268.679 46.044,268.538 45.833,268.480 45.833 C 268.421 45.833,268.280 45.607,268.165 45.329 C 268.050 45.052,267.866 44.771,267.755 44.704 C 267.582 44.600,267.041 43.784,266.410 42.674 C 265.975 41.909,265.817 41.833,264.646 41.833 L 263.500 41.833 263.500 49.674 M282.833 49.667 L 282.833 57.500 288.583 57.500 L 294.333 57.500 294.333 56.500 L 294.333 55.500 289.583 55.500 L 284.833 55.500 284.833 53.000 L 284.833 50.500 289.083 50.500 L 293.333 50.500 293.333 49.500 L 293.333 48.500 289.083 48.500 L 284.833 48.500 284.833 46.083 L 284.833 43.667 289.583 43.667 L 294.333 43.667 294.333 42.750 L 294.333 41.833 288.583 41.833 L 282.833 41.833 282.833 49.667 M297.500 49.672 L 297.500 57.531 301.375 57.455 C 305.126 57.382,306.838 57.161,307.152 56.708 C 307.206 56.630,307.512 56.441,307.833 56.289 C 308.354 56.042,309.062 55.433,309.854 54.551 C 311.356 52.878,312.058 47.605,310.933 46.452 C 310.825 46.341,310.630 45.987,310.500 45.667 C 310.124 44.737,308.418 43.203,307.000 42.519 L 305.750 41.917 301.625 41.864 L 297.500 41.812 297.500 49.672 M315.000 49.667 L 315.000 57.500 316.000 57.500 L 317.000 57.500 317.000 49.667 L 317.000 41.833 316.000 41.833 L 315.000 41.833 315.000 49.667 M351.667 49.667 L 351.667 57.500 352.667 57.500 L 353.667 57.500 353.667 54.000 L 353.667 50.500 357.917 50.500 L 362.167 50.500 362.167 54.000 L 362.167 57.500 363.333 57.500 L 364.500 57.500 364.500 49.667 L 364.500 41.833 363.333 41.833 L 362.167 41.833 362.167 45.167 L 362.167 48.500 357.917 48.500 L 353.667 48.500 353.667 45.167 L 353.667 41.833 352.667 41.833 L 351.667 41.833 351.667 49.667 M368.333 49.667 L 368.333 57.500 374.167 57.500 L 380.000 57.500 380.000 56.500 L 380.000 55.500 375.250 55.500 L 370.500 55.500 370.500 53.000 L 370.500 50.500 374.758 50.500 L 379.017 50.500 378.967 49.542 L 378.917 48.583 374.708 48.539 L 370.500 48.494 370.500 46.080 L 370.500 43.667 375.250 43.667 L 380.000 43.667 380.000 42.750 L 380.000 41.833 374.167 41.833 L 368.333 41.833 368.333 49.667 M213.681 44.030 C 214.665 44.373,215.330 45.173,215.446 46.155 C 215.544 46.979,215.265 48.333,214.998 48.333 C 214.934 48.333,214.683 48.517,214.441 48.742 C 213.766 49.367,212.992 49.498,209.958 49.499 L 207.167 49.500 207.167 46.667 L 207.167 43.833 210.142 43.833 C 211.997 43.833,213.329 43.907,213.681 44.030 M305.813 44.255 C 306.123 44.436,306.516 44.665,306.687 44.765 C 308.962 46.095,309.964 49.700,308.722 52.087 C 308.191 53.106,307.193 54.333,306.895 54.333 C 306.804 54.333,306.584 54.466,306.406 54.629 C 305.822 55.164,304.795 55.366,302.208 55.454 L 299.667 55.541 299.667 49.670 L 299.667 43.800 302.458 43.863 C 304.862 43.918,305.328 43.972,305.813 44.255 M148.336 64.953 C 147.925 64.992,147.550 65.076,147.503 65.141 C 147.455 65.206,147.004 65.386,146.500 65.542 C 145.996 65.697,145.368 65.995,145.104 66.204 C 144.176 66.939,143.240 67.922,142.996 68.417 C 142.861 68.692,142.659 69.013,142.548 69.131 C 142.348 69.343,142.003 70.390,142.001 70.792 C 142.000 70.906,141.940 71.000,141.867 71.000 C 141.606 71.000,141.519 75.129,141.776 75.312 C 141.856 75.370,142.019 75.790,142.137 76.246 C 142.482 77.575,143.625 79.143,144.750 79.830 C 145.117 80.054,145.509 80.328,145.623 80.438 C 146.200 80.999,150.159 81.527,151.323 81.198 C 153.455 80.597,153.833 80.469,153.833 80.351 C 153.833 80.279,154.129 80.122,154.490 80.003 C 154.852 79.884,155.301 79.609,155.489 79.393 C 155.677 79.177,155.907 79.000,155.999 79.000 C 156.106 79.000,156.167 77.792,156.167 75.667 L 156.167 72.333 152.761 72.333 C 148.927 72.333,149.110 72.266,149.192 73.655 L 149.232 74.333 151.616 74.333 L 154.000 74.333 154.000 76.023 C 154.000 78.196,152.916 79.167,150.486 79.167 C 150.142 79.167,149.823 79.260,149.777 79.375 C 149.710 79.542,149.690 79.542,149.680 79.375 C 149.672 79.247,149.420 79.167,149.026 79.167 C 148.208 79.167,146.625 78.625,146.199 78.199 C 146.019 78.019,145.769 77.806,145.644 77.727 C 145.519 77.648,145.324 77.433,145.211 77.250 C 145.098 77.067,144.820 76.616,144.594 76.249 C 143.013 73.683,144.273 68.889,146.833 67.723 C 147.620 67.365,148.251 67.166,148.708 67.130 C 148.960 67.110,149.167 67.026,149.167 66.942 C 149.167 66.856,149.440 66.841,149.792 66.907 C 150.135 66.971,150.567 67.049,150.750 67.079 C 151.477 67.199,153.038 67.885,153.448 68.265 C 154.046 68.819,154.391 68.770,154.988 68.045 C 155.646 67.247,155.633 66.981,154.917 66.595 C 154.596 66.422,154.333 66.223,154.333 66.152 C 154.333 65.992,152.598 65.333,152.174 65.333 C 152.002 65.333,151.836 65.269,151.806 65.190 C 151.739 65.016,149.383 64.856,148.336 64.953 M232.169 64.956 C 231.758 64.993,231.383 65.078,231.336 65.145 C 231.289 65.211,230.912 65.364,230.500 65.483 C 229.026 65.909,226.500 68.009,226.500 68.809 C 226.500 68.914,226.428 69.000,226.340 69.000 C 226.112 69.000,225.500 71.078,225.500 71.851 C 225.500 72.215,225.419 72.500,225.315 72.500 C 225.198 72.500,225.165 72.699,225.225 73.042 C 225.277 73.340,225.395 74.071,225.487 74.667 C 225.841 76.960,227.205 79.194,228.706 79.940 C 229.049 80.111,229.330 80.302,229.331 80.366 C 229.332 80.431,229.765 80.608,230.292 80.761 C 230.819 80.913,231.400 81.094,231.583 81.162 C 232.109 81.356,234.455 81.369,235.047 81.180 C 235.342 81.086,235.977 80.889,236.458 80.741 C 236.940 80.594,237.333 80.423,237.333 80.361 C 237.333 80.299,237.573 80.142,237.866 80.012 C 238.365 79.791,239.660 78.558,239.665 78.300 C 239.668 78.113,238.468 77.000,238.266 77.002 C 238.166 77.003,237.830 77.265,237.520 77.584 C 235.862 79.290,232.225 79.716,230.416 78.417 C 229.445 77.719,228.861 77.146,228.588 76.624 C 228.433 76.327,228.196 75.878,228.061 75.626 C 227.726 75.000,227.475 73.391,227.587 72.583 C 227.736 71.503,228.048 70.433,228.282 70.196 C 228.402 70.075,228.502 69.888,228.506 69.780 C 228.536 68.705,232.498 66.538,233.710 66.934 C 233.915 67.001,234.196 67.070,234.333 67.088 C 234.471 67.106,234.696 67.162,234.833 67.212 C 234.971 67.263,235.321 67.380,235.611 67.472 C 236.176 67.652,237.833 68.818,237.833 69.036 C 237.833 69.341,238.262 69.123,238.859 68.513 C 239.651 67.706,239.656 67.518,238.900 66.904 C 238.570 66.636,238.192 66.315,238.060 66.190 C 237.763 65.909,236.275 65.333,235.845 65.333 C 235.671 65.333,235.503 65.269,235.472 65.191 C 235.405 65.019,233.209 64.862,232.169 64.956 M269.792 64.950 C 269.356 64.987,269.000 65.089,269.000 65.176 C 269.000 65.262,268.863 65.333,268.696 65.333 C 267.502 65.333,264.965 67.197,264.246 68.602 C 264.065 68.956,263.832 69.336,263.729 69.447 C 262.908 70.331,263.027 77.167,263.863 77.167 C 263.936 77.167,264.098 77.411,264.223 77.711 C 264.501 78.375,266.105 79.978,266.623 80.108 C 266.830 80.160,267.000 80.266,267.000 80.343 C 267.000 80.420,267.431 80.608,267.958 80.761 C 268.485 80.913,269.067 81.094,269.250 81.163 C 269.794 81.366,272.833 81.378,272.833 81.176 C 272.833 81.079,273.018 81.000,273.244 81.000 C 273.794 81.000,275.165 80.525,275.457 80.234 C 275.585 80.105,275.786 80.000,275.904 80.000 C 276.021 80.000,276.428 79.775,276.808 79.499 L 277.500 78.998 277.500 75.666 L 277.500 72.333 274.083 72.333 L 270.667 72.333 270.667 73.333 L 270.667 74.333 273.083 74.333 L 275.500 74.333 275.500 76.089 C 275.500 77.608,275.461 77.858,275.208 77.951 C 275.048 78.010,274.858 78.155,274.786 78.274 C 274.621 78.547,272.640 79.167,271.932 79.167 C 271.640 79.167,271.310 79.257,271.200 79.367 C 271.090 79.477,271.000 79.492,271.000 79.401 C 271.000 79.309,270.743 79.217,270.428 79.196 C 263.812 78.751,263.506 68.063,270.083 67.131 C 270.267 67.105,270.466 67.014,270.527 66.930 C 270.774 66.588,274.042 67.578,274.738 68.206 C 275.495 68.890,276.952 68.116,276.799 67.111 C 276.734 66.688,274.841 65.558,273.950 65.411 C 273.565 65.348,273.175 65.237,273.083 65.166 C 272.866 64.998,270.804 64.862,269.792 64.950 M248.000 65.250 C 248.000 65.387,247.926 65.500,247.837 65.500 C 247.747 65.500,247.625 65.706,247.566 65.958 C 247.508 66.210,247.255 66.829,247.005 67.333 C 246.755 67.837,246.458 68.531,246.346 68.875 C 246.233 69.219,246.072 69.500,245.987 69.500 C 245.903 69.500,245.846 69.556,245.862 69.625 C 245.905 69.809,245.187 71.461,244.179 73.500 C 243.930 74.004,243.625 74.735,243.503 75.125 C 243.380 75.515,243.223 75.833,243.153 75.833 C 243.083 75.833,242.939 76.115,242.832 76.458 C 242.643 77.068,241.949 78.627,241.315 79.866 C 240.780 80.913,240.846 81.000,242.167 81.000 C 242.808 81.000,243.339 80.944,243.346 80.875 C 243.389 80.453,243.525 80.086,244.048 78.984 C 244.370 78.305,244.683 77.581,244.744 77.375 L 244.856 77.000 248.937 77.000 L 253.017 77.000 253.192 77.500 C 253.288 77.775,253.417 78.000,253.480 78.000 C 253.543 78.000,253.689 78.319,253.805 78.708 C 253.921 79.098,254.187 79.754,254.396 80.167 L 254.775 80.917 255.888 80.966 C 256.795 81.006,257.000 80.968,257.000 80.761 C 257.000 80.443,256.483 79.113,256.314 78.997 C 256.245 78.950,256.064 78.537,255.910 78.080 C 255.757 77.624,255.534 77.137,255.414 77.000 C 255.295 76.862,255.069 76.356,254.913 75.875 C 254.756 75.394,254.568 75.000,254.494 75.000 C 254.421 75.000,254.198 74.512,254.000 73.917 C 253.802 73.321,253.586 72.833,253.521 72.833 C 253.456 72.833,253.262 72.421,253.091 71.917 C 252.919 71.412,252.728 71.000,252.666 71.000 C 252.604 71.000,252.455 70.681,252.334 70.292 C 252.213 69.902,251.934 69.262,251.713 68.868 C 251.492 68.475,251.201 67.781,251.066 67.327 C 250.931 66.872,250.767 66.500,250.702 66.499 C 250.637 66.499,250.445 66.162,250.275 65.749 L 249.967 65.000 248.983 65.000 C 248.220 65.000,248.000 65.056,248.000 65.250 M159.167 73.169 L 159.167 81.004 165.022 80.960 L 170.878 80.917 170.878 80.000 L 170.878 79.083 166.106 79.039 L 161.333 78.995 161.333 76.497 L 161.333 74.000 165.500 74.000 L 169.667 74.000 169.667 73.083 L 169.667 72.167 165.500 72.167 L 161.333 72.167 161.333 69.750 L 161.333 67.333 166.000 67.333 L 170.667 67.333 170.667 66.333 L 170.667 65.333 164.917 65.333 L 159.167 65.333 159.167 73.169 M173.167 73.167 L 173.167 81.000 174.165 81.000 L 175.162 81.000 175.206 75.042 C 175.249 69.210,175.257 69.091,175.561 69.439 C 175.731 69.635,176.050 69.995,176.269 70.239 C 176.488 70.482,176.669 70.735,176.671 70.799 C 176.674 70.864,177.010 71.292,177.420 71.750 C 177.829 72.208,178.164 72.636,178.165 72.701 C 178.166 72.765,178.335 73.000,178.542 73.222 C 179.436 74.184,179.667 74.474,179.667 74.636 C 179.667 74.731,179.854 74.957,180.083 75.137 C 180.313 75.317,180.500 75.515,180.500 75.577 C 180.500 75.707,181.839 77.420,182.333 77.923 C 182.517 78.109,182.667 78.352,182.667 78.463 C 182.667 78.573,182.817 78.758,183.000 78.872 C 183.183 78.987,183.333 79.169,183.333 79.278 C 183.333 79.387,183.502 79.613,183.709 79.780 C 183.916 79.947,184.218 80.290,184.380 80.542 C 184.642 80.950,184.774 81.000,185.587 81.000 L 186.500 81.000 186.500 73.167 L 186.500 65.333 185.500 65.333 L 184.500 65.333 184.500 71.173 C 184.500 76.960,184.497 77.010,184.167 76.833 C 183.983 76.735,183.833 76.569,183.833 76.463 C 183.833 76.358,183.533 75.916,183.167 75.481 C 182.800 75.046,182.500 74.653,182.500 74.608 C 182.500 74.563,182.294 74.307,182.042 74.040 C 181.790 73.772,181.433 73.347,181.250 73.095 C 181.067 72.843,180.748 72.453,180.542 72.228 C 180.335 72.002,180.167 71.776,180.167 71.724 C 180.167 71.672,179.867 71.271,179.500 70.833 C 179.133 70.395,178.833 69.997,178.833 69.948 C 178.833 69.867,178.383 69.345,177.496 68.399 C 177.315 68.206,177.167 67.968,177.167 67.870 C 177.167 67.771,176.979 67.543,176.750 67.363 C 176.521 67.183,176.333 66.984,176.333 66.921 C 176.333 66.246,175.075 65.333,174.147 65.333 L 173.167 65.333 173.167 73.167 M190.500 73.167 L 190.500 81.000 196.333 81.000 L 202.167 81.000 202.167 80.000 L 202.167 79.000 197.417 79.000 L 192.667 79.000 192.667 76.500 L 192.667 74.000 196.917 74.000 L 201.167 74.000 201.167 73.083 L 201.167 72.167 196.917 72.167 L 192.667 72.167 192.667 69.753 L 192.667 67.339 197.375 67.294 L 202.083 67.250 202.133 66.292 L 202.183 65.333 196.342 65.333 L 190.500 65.333 190.500 73.167 M204.167 66.333 L 204.167 67.333 206.833 67.333 L 209.500 67.333 209.500 74.167 L 209.500 81.000 210.500 81.000 L 211.500 81.000 211.500 74.167 L 211.500 67.333 214.083 67.333 L 216.667 67.333 216.667 66.333 L 216.667 65.333 210.417 65.333 L 204.167 65.333 204.167 66.333 M219.833 73.167 L 219.833 81.000 220.917 81.000 L 222.000 81.000 222.000 73.167 L 222.000 65.333 220.917 65.333 L 219.833 65.333 219.833 73.167 M281.000 73.167 L 281.000 81.000 286.833 81.000 L 292.667 81.000 292.667 80.000 L 292.667 79.000 287.917 79.000 L 283.167 79.000 283.167 76.500 L 283.167 74.000 287.333 74.000 L 291.500 74.000 291.500 73.083 L 291.500 72.167 287.333 72.167 L 283.167 72.167 283.167 69.750 L 283.167 67.333 287.833 67.333 L 292.500 67.333 292.500 66.333 L 292.500 65.333 286.750 65.333 L 281.000 65.333 281.000 73.167 M295.778 65.444 C 295.717 65.506,295.667 69.031,295.667 73.278 L 295.667 81.000 296.833 81.000 L 298.000 81.000 298.000 74.977 L 298.000 68.954 298.500 69.583 C 298.775 69.929,299.000 70.260,299.000 70.319 C 299.000 70.378,299.206 70.659,299.458 70.943 C 299.998 71.552,300.634 72.344,300.801 72.615 C 300.953 72.861,301.840 73.965,302.169 74.317 C 302.308 74.466,302.607 74.848,302.833 75.167 C 303.060 75.485,303.359 75.870,303.498 76.023 C 304.114 76.700,304.448 77.116,304.726 77.554 C 304.890 77.814,305.162 78.189,305.330 78.388 C 305.499 78.587,306.017 79.200,306.483 79.750 C 306.949 80.300,307.331 80.806,307.332 80.875 C 307.333 80.944,307.783 81.000,308.333 81.000 L 309.333 81.000 309.333 73.167 L 309.333 65.333 308.252 65.333 L 307.171 65.333 307.127 71.292 C 307.086 76.932,307.069 77.223,306.808 76.750 C 306.657 76.475,306.357 76.054,306.142 75.813 C 305.926 75.573,305.450 74.986,305.083 74.508 C 304.717 74.030,304.248 73.439,304.042 73.195 C 303.836 72.950,303.667 72.705,303.667 72.649 C 303.667 72.594,303.498 72.356,303.292 72.121 C 302.558 71.285,302.140 70.773,301.372 69.768 C 300.944 69.208,300.516 68.669,300.422 68.571 C 300.327 68.473,299.987 68.033,299.667 67.593 C 299.346 67.153,298.926 66.634,298.734 66.439 C 298.541 66.243,298.295 65.915,298.186 65.708 C 297.989 65.335,296.095 65.127,295.778 65.444 M312.167 66.333 L 312.167 67.333 314.667 67.333 L 317.167 67.333 317.167 74.167 L 317.167 81.000 318.333 81.000 L 319.500 81.000 319.500 74.167 L 319.500 67.333 322.083 67.333 L 324.667 67.333 324.667 66.333 L 324.667 65.333 318.417 65.333 L 312.167 65.333 312.167 66.333 M249.750 69.586 C 250.045 70.229,250.344 70.942,250.416 71.170 C 250.487 71.397,250.599 71.621,250.666 71.667 C 250.732 71.712,250.958 72.235,251.167 72.827 C 251.376 73.419,251.649 74.006,251.773 74.131 C 252.538 74.895,252.192 75.000,248.917 75.000 C 246.259 75.000,245.386 74.893,245.958 74.639 C 246.104 74.574,246.833 72.835,246.833 72.552 C 246.833 72.447,246.907 72.336,246.998 72.306 C 247.089 72.275,247.299 71.863,247.465 71.390 C 247.632 70.917,247.850 70.429,247.949 70.306 C 248.049 70.184,248.256 69.710,248.409 69.254 C 248.742 68.266,249.033 67.843,249.143 68.190 C 249.182 68.315,249.456 68.943,249.750 69.586 M335.833 80.000 L 335.833 81.000 357.917 81.000 L 380.000 81.000 380.000 80.000 L 380.000 79.000 357.917 79.000 L 335.833 79.000 335.833 80.000 " stroke="none" fill="#FFFFFF" fill-rule="evenodd"></path><path id="path1" d="M100.500 36.447 C 100.179 36.587,99.879 36.751,99.833 36.813 C 99.787 36.875,99.412 37.069,99.000 37.244 C 98.587 37.419,98.138 37.646,98.000 37.748 C 97.862 37.850,97.450 38.079,97.083 38.258 C 96.717 38.437,96.379 38.626,96.333 38.678 C 96.287 38.730,95.875 38.950,95.417 39.167 C 94.958 39.383,94.546 39.608,94.500 39.667 C 94.421 39.767,93.019 40.563,91.917 41.132 C 91.642 41.274,91.379 41.439,91.333 41.498 C 91.287 41.558,90.894 41.777,90.458 41.985 C 90.023 42.193,89.667 42.426,89.667 42.504 C 89.667 42.581,89.498 42.695,89.292 42.758 C 89.085 42.821,88.692 43.040,88.417 43.245 C 88.142 43.450,87.654 43.751,87.333 43.915 C 87.013 44.078,86.690 44.314,86.617 44.439 C 86.543 44.564,86.404 44.667,86.308 44.667 C 86.211 44.667,85.798 44.892,85.391 45.167 C 84.983 45.442,84.590 45.667,84.516 45.667 C 84.442 45.667,84.196 45.835,83.968 46.042 C 83.740 46.248,83.298 46.563,82.985 46.742 C 82.672 46.920,82.271 47.202,82.094 47.367 C 81.916 47.532,81.676 47.667,81.561 47.667 C 81.446 47.667,81.254 47.798,81.134 47.959 C 81.015 48.120,80.631 48.401,80.282 48.584 C 79.934 48.767,79.489 49.085,79.295 49.292 C 79.101 49.498,78.868 49.667,78.777 49.667 C 78.686 49.667,78.493 49.779,78.347 49.917 C 78.202 50.055,77.371 50.684,76.500 51.314 C 75.629 51.945,74.759 52.619,74.566 52.814 C 74.373 53.008,74.158 53.167,74.089 53.167 C 74.020 53.167,73.605 53.467,73.167 53.833 C 72.729 54.200,72.317 54.500,72.251 54.500 C 72.185 54.500,71.984 54.688,71.804 54.917 C 71.623 55.146,71.377 55.333,71.257 55.333 C 71.137 55.333,70.915 55.521,70.765 55.750 C 70.615 55.979,70.395 56.167,70.276 56.167 C 70.157 56.167,69.906 56.335,69.717 56.542 C 69.528 56.748,69.051 57.179,68.657 57.500 C 68.263 57.821,67.598 58.379,67.179 58.741 C 66.760 59.102,66.275 59.515,66.103 59.657 C 65.930 59.800,65.543 60.142,65.243 60.417 C 64.942 60.692,64.189 61.367,63.569 61.917 C 61.169 64.046,52.407 72.924,50.500 75.158 C 50.179 75.534,49.598 76.186,49.208 76.608 C 48.819 77.030,48.500 77.428,48.500 77.493 C 48.500 77.558,48.294 77.801,48.042 78.033 C 47.790 78.265,47.283 78.850,46.917 79.334 C 46.550 79.818,46.081 80.367,45.875 80.554 C 45.669 80.741,45.500 80.971,45.500 81.066 C 45.500 81.161,45.349 81.391,45.165 81.577 C 44.684 82.063,43.333 83.765,43.333 83.884 C 43.333 83.940,43.154 84.184,42.936 84.428 C 42.245 85.197,42.031 85.465,41.719 85.944 C 41.553 86.201,41.297 86.532,41.150 86.681 C 41.003 86.829,40.779 87.186,40.651 87.475 C 40.523 87.764,40.363 88.000,40.295 88.000 C 40.227 88.000,40.002 88.256,39.794 88.569 C 39.587 88.881,39.023 89.704,38.542 90.396 C 38.060 91.089,37.667 91.715,37.667 91.788 C 37.667 91.860,37.517 92.013,37.333 92.128 C 37.150 92.242,37.000 92.403,37.000 92.485 C 37.000 92.631,36.075 94.097,35.571 94.750 C 35.430 94.933,35.197 95.327,35.055 95.625 C 34.912 95.923,34.740 96.167,34.673 96.167 C 34.606 96.167,34.415 96.467,34.250 96.833 C 34.085 97.200,33.892 97.500,33.822 97.500 C 33.751 97.500,33.524 97.875,33.317 98.333 C 33.110 98.792,32.879 99.167,32.804 99.167 C 32.522 99.167,32.679 99.815,32.985 99.912 C 33.159 99.967,33.345 100.122,33.396 100.256 C 33.447 100.390,33.572 100.500,33.673 100.500 C 33.774 100.500,34.190 100.729,34.597 101.009 C 35.911 101.913,37.000 101.971,37.000 101.137 C 37.000 101.057,37.258 100.617,37.574 100.158 C 37.889 99.700,38.194 99.176,38.251 98.996 C 38.309 98.815,38.420 98.667,38.500 98.667 C 38.579 98.667,38.817 98.313,39.030 97.880 C 39.243 97.447,39.548 96.960,39.708 96.797 C 39.869 96.633,40.000 96.430,40.000 96.345 C 40.000 96.260,40.097 96.091,40.215 95.970 C 40.333 95.849,40.611 95.450,40.834 95.083 C 41.057 94.717,41.410 94.230,41.620 94.002 C 41.829 93.773,42.000 93.490,42.000 93.371 C 42.000 93.253,42.110 93.114,42.244 93.063 C 42.378 93.011,42.531 92.833,42.583 92.667 C 42.636 92.500,42.938 92.039,43.255 91.640 C 43.571 91.242,43.831 90.850,43.832 90.768 C 43.833 90.686,43.992 90.461,44.186 90.268 C 44.381 90.075,45.055 89.204,45.686 88.333 C 46.317 87.462,46.983 86.597,47.166 86.411 C 47.350 86.224,47.500 86.002,47.500 85.917 C 47.500 85.831,47.645 85.609,47.822 85.423 C 48.609 84.592,48.991 84.153,49.116 83.938 C 49.258 83.692,50.125 82.617,50.724 81.945 C 50.922 81.723,51.271 81.293,51.500 80.989 C 51.729 80.686,52.179 80.150,52.500 79.799 C 52.821 79.448,53.196 79.026,53.333 78.862 C 53.864 78.231,55.095 76.873,56.027 75.892 C 56.562 75.329,57.000 74.830,57.000 74.784 C 57.000 74.654,64.865 66.833,64.996 66.833 C 65.060 66.833,65.299 66.627,65.529 66.375 C 65.901 65.966,67.545 64.456,68.917 63.264 C 69.192 63.025,69.650 62.605,69.935 62.331 C 70.219 62.057,70.525 61.833,70.613 61.833 C 70.701 61.833,70.928 61.665,71.116 61.458 C 71.456 61.087,72.054 60.582,73.500 59.443 C 73.912 59.119,74.408 58.699,74.601 58.510 C 74.794 58.321,75.036 58.167,75.139 58.167 C 75.242 58.167,75.449 57.979,75.599 57.750 C 75.749 57.521,75.936 57.333,76.016 57.333 C 76.142 57.333,78.437 55.603,79.199 54.933 C 79.355 54.796,79.708 54.568,79.983 54.426 C 80.258 54.283,80.543 54.073,80.617 53.958 C 80.773 53.714,81.293 53.365,81.708 53.226 C 81.869 53.172,82.000 53.063,82.000 52.984 C 82.000 52.905,82.300 52.687,82.667 52.500 C 83.033 52.313,83.333 52.103,83.333 52.035 C 83.333 51.966,83.609 51.761,83.946 51.580 C 84.283 51.398,84.649 51.160,84.760 51.049 C 84.871 50.939,85.187 50.714,85.463 50.549 C 85.739 50.385,86.479 49.909,87.108 49.491 C 89.271 48.055,90.162 47.500,90.305 47.500 C 90.384 47.500,90.584 47.350,90.750 47.167 C 90.916 46.983,91.120 46.833,91.204 46.833 C 91.288 46.833,91.670 46.619,92.053 46.356 C 92.436 46.094,92.918 45.826,93.124 45.762 C 93.330 45.698,93.597 45.546,93.718 45.425 C 93.930 45.212,94.317 44.986,96.083 44.040 C 96.542 43.794,96.954 43.549,97.000 43.496 C 97.046 43.442,97.383 43.246,97.750 43.060 C 99.821 42.011,102.094 40.782,102.167 40.673 C 102.212 40.604,102.531 40.446,102.875 40.323 C 103.453 40.116,103.736 39.621,103.360 39.472 C 103.283 39.442,102.868 38.685,102.438 37.792 C 101.595 36.041,101.534 35.998,100.500 36.447 M105.667 48.136 C 105.667 48.211,105.254 48.443,104.750 48.652 C 104.246 48.861,103.833 49.094,103.833 49.170 C 103.833 49.245,103.566 49.396,103.238 49.504 C 102.911 49.612,102.607 49.794,102.563 49.910 C 102.519 50.025,102.188 50.216,101.829 50.335 C 101.469 50.453,101.042 50.674,100.879 50.825 C 100.717 50.975,100.227 51.271,99.792 51.481 C 99.356 51.691,99.000 51.926,99.000 52.004 C 99.000 52.081,98.831 52.197,98.625 52.262 C 98.419 52.326,97.936 52.594,97.553 52.856 C 97.170 53.119,96.791 53.333,96.710 53.333 C 96.629 53.333,96.409 53.476,96.222 53.651 C 96.034 53.826,95.588 54.129,95.232 54.325 C 94.650 54.643,93.698 55.269,93.250 55.627 C 93.158 55.701,92.783 55.943,92.417 56.167 C 92.050 56.390,91.605 56.706,91.427 56.870 C 91.249 57.033,91.006 57.167,90.887 57.167 C 90.767 57.167,90.576 57.317,90.461 57.500 C 90.347 57.683,90.197 57.833,90.128 57.833 C 89.943 57.833,87.759 59.346,87.694 59.519 C 87.664 59.600,87.551 59.667,87.443 59.667 C 87.335 59.667,87.060 59.838,86.832 60.046 C 86.603 60.255,86.154 60.609,85.833 60.833 C 85.513 61.056,85.149 61.337,85.026 61.457 C 84.903 61.576,84.584 61.787,84.318 61.925 C 84.051 62.063,83.833 62.251,83.833 62.343 C 83.833 62.435,83.702 62.559,83.542 62.619 C 83.269 62.720,82.133 63.603,81.174 64.458 C 80.943 64.665,80.707 64.833,80.651 64.833 C 80.595 64.833,80.358 65.002,80.125 65.208 C 79.893 65.415,79.384 65.846,78.996 66.167 C 78.607 66.487,78.131 66.888,77.936 67.058 C 77.742 67.227,77.252 67.639,76.847 67.974 C 76.104 68.588,75.837 68.823,74.167 70.326 C 71.717 72.531,70.536 73.660,67.598 76.598 C 64.322 79.875,62.039 82.262,60.583 83.933 C 60.125 84.459,59.525 85.131,59.250 85.426 C 58.975 85.722,58.487 86.287,58.167 86.682 C 57.846 87.078,57.340 87.676,57.042 88.012 C 56.744 88.349,56.500 88.665,56.500 88.716 C 56.500 88.766,56.294 89.028,56.042 89.297 C 55.492 89.884,54.898 90.592,54.333 91.334 C 54.104 91.635,53.804 92.007,53.667 92.160 C 53.322 92.545,52.667 93.468,52.667 93.569 C 52.667 93.645,52.301 94.065,51.488 94.923 C 51.311 95.109,51.166 95.334,51.166 95.423 C 51.166 95.511,50.941 95.846,50.667 96.167 C 50.392 96.487,50.167 96.802,50.167 96.865 C 50.167 96.928,49.942 97.226,49.667 97.527 C 49.392 97.828,49.167 98.167,49.167 98.281 C 49.167 98.395,49.017 98.569,48.833 98.667 C 48.650 98.765,48.500 98.926,48.500 99.025 C 48.500 99.124,48.237 99.563,47.917 100.000 C 47.596 100.437,47.333 100.869,47.333 100.960 C 47.333 101.051,47.222 101.219,47.085 101.332 C 46.746 101.613,45.520 103.424,45.330 103.926 C 45.245 104.150,45.107 104.333,45.024 104.333 C 44.942 104.333,44.778 104.565,44.660 104.849 C 44.428 105.409,44.597 105.659,45.208 105.664 C 45.369 105.666,45.500 105.729,45.500 105.805 C 45.500 105.969,47.869 106.500,48.601 106.500 C 48.989 106.500,49.165 106.391,49.342 106.042 C 49.470 105.790,49.673 105.471,49.795 105.333 C 49.917 105.196,50.354 104.561,50.766 103.922 C 51.178 103.283,51.577 102.720,51.651 102.672 C 51.726 102.623,51.903 102.358,52.044 102.083 C 52.186 101.808,52.496 101.358,52.734 101.083 C 52.972 100.808,53.166 100.537,53.166 100.481 C 53.167 100.425,53.390 100.125,53.664 99.814 C 53.938 99.504,54.163 99.159,54.164 99.048 C 54.165 98.936,54.317 98.765,54.500 98.667 C 54.683 98.569,54.833 98.414,54.833 98.323 C 54.833 98.231,55.137 97.765,55.508 97.287 C 55.879 96.808,56.348 96.202,56.550 95.940 C 56.752 95.678,57.047 95.303,57.206 95.107 C 59.054 92.826,59.833 91.816,59.833 91.701 C 59.833 91.625,60.058 91.396,60.333 91.193 C 60.608 90.990,60.833 90.760,60.833 90.683 C 60.833 90.605,61.152 90.192,61.542 89.763 C 61.931 89.335,62.512 88.679,62.833 88.305 C 63.154 87.931,63.536 87.496,63.683 87.338 C 63.829 87.180,64.512 86.421,65.200 85.651 C 67.106 83.516,72.032 78.447,72.941 77.685 C 73.203 77.465,74.054 76.685,74.833 75.950 C 75.612 75.215,76.635 74.251,77.106 73.807 C 77.576 73.363,78.001 73.000,78.050 73.000 C 78.148 73.000,79.419 71.875,80.263 71.042 C 80.564 70.744,80.858 70.500,80.915 70.500 C 80.972 70.500,81.558 70.046,82.217 69.490 C 83.914 68.061,84.298 67.749,85.333 66.959 C 85.837 66.573,86.287 66.215,86.333 66.163 C 86.379 66.110,86.679 65.886,87.000 65.664 C 87.321 65.442,87.683 65.164,87.805 65.046 C 87.926 64.928,88.189 64.746,88.388 64.643 C 88.752 64.453,88.886 64.349,89.683 63.637 C 89.920 63.424,90.370 63.109,90.683 62.936 C 90.995 62.764,91.325 62.531,91.417 62.420 C 91.508 62.309,91.823 62.094,92.117 61.942 C 92.410 61.791,92.710 61.573,92.783 61.458 C 92.857 61.344,93.179 61.104,93.500 60.925 C 93.821 60.746,94.229 60.465,94.406 60.300 C 94.584 60.135,94.814 60.000,94.917 60.000 C 95.020 60.000,95.250 59.869,95.430 59.708 C 95.906 59.282,97.510 58.224,98.042 57.986 C 98.294 57.872,98.500 57.730,98.500 57.669 C 98.500 57.609,98.856 57.383,99.292 57.168 C 99.727 56.954,100.143 56.678,100.217 56.556 C 100.290 56.433,100.426 56.333,100.520 56.333 C 100.613 56.333,101.017 56.108,101.417 55.833 C 101.816 55.558,102.224 55.333,102.322 55.333 C 102.420 55.333,102.632 55.202,102.793 55.042 C 102.954 54.881,103.415 54.602,103.817 54.422 C 104.220 54.242,104.633 54.017,104.735 53.922 C 104.838 53.827,105.221 53.602,105.586 53.420 C 106.845 52.795,107.167 52.482,107.167 51.885 C 107.167 51.582,107.107 51.333,107.033 51.333 C 106.960 51.333,106.808 50.697,106.696 49.919 C 106.583 49.140,106.448 48.390,106.394 48.252 C 106.295 47.993,105.667 47.893,105.667 48.136 M106.500 62.628 C 105.280 63.358,103.106 64.791,102.792 65.072 C 102.631 65.216,102.453 65.333,102.395 65.333 C 102.337 65.333,101.924 65.596,101.478 65.917 C 101.031 66.237,100.605 66.500,100.531 66.500 C 100.457 66.500,100.216 66.669,99.996 66.875 C 99.550 67.292,99.065 67.608,98.625 67.767 C 98.465 67.825,98.333 67.934,98.333 68.009 C 98.333 68.084,98.033 68.314,97.667 68.520 C 97.300 68.726,97.000 68.958,97.000 69.035 C 97.000 69.112,96.811 69.247,96.579 69.335 C 96.348 69.423,96.115 69.609,96.061 69.747 C 96.008 69.886,95.890 70.000,95.800 70.000 C 95.710 70.000,95.437 70.151,95.193 70.336 C 94.949 70.521,94.600 70.785,94.417 70.922 C 93.627 71.515,91.103 73.475,89.766 74.533 C 89.500 74.744,89.076 75.123,88.824 75.375 C 88.572 75.627,88.303 75.833,88.227 75.833 C 88.150 75.833,87.899 76.020,87.668 76.248 C 87.289 76.623,84.709 78.864,83.932 79.493 C 83.317 79.990,81.776 81.436,79.882 83.292 C 78.829 84.323,77.923 85.167,77.868 85.167 C 77.769 85.167,76.972 85.984,73.561 89.583 C 70.620 92.687,69.833 93.539,69.833 93.623 C 69.833 93.667,69.496 94.036,69.083 94.443 C 68.671 94.849,68.333 95.227,68.333 95.281 C 68.333 95.335,68.052 95.695,67.708 96.081 C 67.365 96.466,66.858 97.056,66.583 97.392 C 66.308 97.727,65.896 98.225,65.667 98.499 C 65.438 98.772,65.063 99.226,64.833 99.507 C 64.604 99.788,64.267 100.189,64.083 100.400 C 63.605 100.948,63.000 101.801,63.000 101.928 C 63.000 101.987,62.813 102.183,62.583 102.363 C 62.354 102.543,62.167 102.780,62.167 102.889 C 62.167 102.997,62.017 103.180,61.833 103.295 C 61.650 103.409,61.500 103.593,61.500 103.704 C 61.500 103.814,61.349 104.058,61.165 104.244 C 60.732 104.682,59.333 106.629,59.333 106.794 C 59.333 106.863,59.183 107.013,59.000 107.128 C 58.817 107.242,58.667 107.486,58.667 107.668 C 58.667 108.051,59.072 108.076,62.271 107.892 L 64.126 107.785 64.813 106.905 C 65.191 106.421,65.500 105.985,65.500 105.937 C 65.500 105.888,65.669 105.661,65.875 105.433 C 66.081 105.204,66.438 104.785,66.667 104.500 C 66.896 104.215,67.252 103.796,67.458 103.567 C 67.665 103.339,67.833 103.107,67.833 103.052 C 67.833 102.997,68.171 102.558,68.583 102.075 C 68.996 101.592,69.333 101.162,69.333 101.119 C 69.333 101.077,69.652 100.703,70.042 100.288 C 70.431 99.874,70.975 99.252,71.250 98.907 C 71.806 98.208,72.610 97.306,74.041 95.775 C 74.567 95.211,74.999 94.710,74.999 94.660 C 75.000 94.611,76.050 93.510,77.333 92.214 C 78.617 90.918,79.667 89.777,79.667 89.679 C 79.667 89.580,79.750 89.500,79.852 89.500 C 79.954 89.500,80.985 88.568,82.144 87.429 C 84.418 85.194,86.114 83.613,86.808 83.083 C 87.048 82.900,87.476 82.506,87.759 82.208 C 88.042 81.910,88.349 81.667,88.440 81.667 C 88.532 81.667,88.758 81.498,88.943 81.292 C 89.397 80.785,91.839 78.744,93.732 77.288 C 93.998 77.084,94.339 76.804,94.491 76.667 C 95.111 76.106,96.815 74.833,96.946 74.833 C 97.023 74.833,97.180 74.683,97.295 74.500 C 97.409 74.317,97.614 74.167,97.750 74.167 C 97.886 74.167,98.091 74.017,98.205 73.833 C 98.320 73.650,98.470 73.500,98.540 73.500 C 98.682 73.500,100.608 72.139,101.014 71.752 C 101.159 71.613,101.331 71.500,101.396 71.500 C 101.461 71.500,101.912 71.200,102.397 70.833 C 102.883 70.467,103.367 70.167,103.473 70.167 C 103.580 70.167,103.667 70.093,103.667 70.003 C 103.667 69.914,103.960 69.691,104.318 69.508 C 104.676 69.325,104.995 69.117,105.026 69.046 C 105.058 68.975,105.413 68.737,105.816 68.517 C 107.214 67.756,107.298 67.521,107.588 63.625 C 107.713 61.950,107.681 61.922,106.500 62.628 M170.879 80.000 C 170.879 80.412,170.911 80.581,170.951 80.375 C 170.991 80.169,170.991 79.831,170.951 79.625 C 170.911 79.419,170.879 79.587,170.879 80.000 M101.727 82.083 C 101.674 82.221,101.554 82.333,101.461 82.333 C 101.367 82.333,100.667 82.858,99.905 83.500 C 99.143 84.142,98.468 84.667,98.404 84.667 C 98.340 84.667,98.122 84.835,97.919 85.042 C 97.716 85.248,97.229 85.679,96.836 86.000 C 96.444 86.321,95.993 86.696,95.835 86.833 C 95.676 86.971,95.191 87.383,94.757 87.750 C 90.194 91.604,79.167 102.715,79.167 103.458 C 79.167 103.812,82.293 102.517,82.959 101.886 C 83.074 101.778,83.320 101.640,83.506 101.581 C 83.790 101.491,84.835 100.855,85.833 100.164 C 85.971 100.069,86.279 99.862,86.519 99.704 C 88.112 98.654,88.528 98.358,89.476 97.599 C 91.919 95.641,96.500 91.182,96.500 90.760 C 96.500 90.689,96.688 90.484,96.917 90.304 C 97.146 90.123,97.333 89.877,97.333 89.757 C 97.333 89.637,97.521 89.415,97.750 89.265 C 97.979 89.115,98.167 88.882,98.167 88.748 C 98.167 88.613,98.317 88.409,98.500 88.295 C 98.683 88.180,98.833 88.020,98.833 87.938 C 98.833 87.857,99.096 87.424,99.417 86.978 C 99.737 86.531,100.000 86.105,100.000 86.031 C 100.000 85.957,100.143 85.743,100.318 85.555 C 100.493 85.367,100.803 84.884,101.007 84.482 C 101.211 84.079,101.435 83.712,101.504 83.667 C 101.670 83.556,102.167 82.355,102.167 82.063 C 102.167 81.755,101.847 81.770,101.727 82.083 " stroke="none" fill="#FFFFFF" fill-rule="evenodd"></path><path id="path2" d="M64.538 12.204 C 64.426 12.339,64.035 12.584,63.668 12.750 C 63.300 12.915,63.000 13.108,63.000 13.178 C 63.000 13.248,62.660 13.436,62.244 13.594 C 61.829 13.753,61.435 13.971,61.369 14.078 C 61.304 14.186,60.894 14.444,60.458 14.652 C 60.023 14.860,59.667 15.084,59.667 15.149 C 59.667 15.215,59.367 15.402,59.000 15.563 C 58.633 15.725,58.333 15.914,58.333 15.983 C 58.333 16.051,57.977 16.283,57.542 16.498 C 57.106 16.713,56.690 16.989,56.617 17.111 C 56.543 17.233,56.403 17.333,56.306 17.333 C 56.208 17.333,55.770 17.596,55.333 17.917 C 54.896 18.237,54.459 18.500,54.361 18.500 C 54.263 18.500,54.123 18.598,54.050 18.717 C 53.977 18.837,53.635 19.106,53.292 19.314 C 52.948 19.523,52.667 19.744,52.667 19.806 C 52.667 19.868,52.447 20.016,52.179 20.135 C 51.729 20.334,50.779 20.994,50.161 21.537 C 50.020 21.661,49.610 21.944,49.250 22.167 C 48.890 22.389,48.472 22.686,48.321 22.827 C 48.170 22.968,47.624 23.381,47.107 23.745 C 46.590 24.109,46.167 24.454,46.167 24.511 C 46.167 24.569,46.025 24.683,45.853 24.766 C 45.557 24.908,45.152 25.214,43.667 26.417 C 43.327 26.692,42.768 27.142,42.424 27.417 C 40.646 28.838,39.168 30.082,38.461 30.752 C 38.026 31.163,37.619 31.500,37.556 31.500 C 37.493 31.500,37.173 31.756,36.846 32.068 C 36.295 32.593,35.263 33.550,32.769 35.846 C 31.265 37.230,26.118 42.409,25.364 43.296 C 24.996 43.729,24.332 44.462,23.889 44.925 C 23.002 45.851,22.142 46.812,21.000 48.156 C 20.587 48.641,20.044 49.247,19.792 49.503 C 19.540 49.758,19.333 50.028,19.333 50.102 C 19.333 50.177,19.142 50.428,18.909 50.660 C 18.676 50.893,18.189 51.458,17.828 51.917 C 17.466 52.375,17.017 52.938,16.831 53.167 C 16.644 53.396,16.226 53.921,15.902 54.333 C 15.578 54.746,15.223 55.196,15.112 55.333 C 15.002 55.471,14.728 55.846,14.503 56.167 C 14.278 56.487,13.998 56.850,13.879 56.971 C 13.761 57.093,13.578 57.356,13.472 57.555 C 13.367 57.754,13.142 58.015,12.974 58.134 C 12.805 58.254,12.667 58.456,12.667 58.583 C 12.667 58.710,12.535 58.912,12.375 59.032 C 11.455 59.719,11.311 61.379,11.780 65.864 C 11.900 67.016,12.307 67.192,12.771 66.292 C 12.924 65.994,13.188 65.652,13.358 65.532 C 13.528 65.412,13.667 65.235,13.667 65.138 C 13.667 64.958,14.673 63.512,15.206 62.927 C 15.368 62.749,15.500 62.527,15.500 62.433 C 15.500 62.339,15.651 62.109,15.835 61.923 C 16.193 61.560,17.667 59.550,17.667 59.424 C 17.667 59.351,18.141 58.800,18.835 58.066 C 19.017 57.873,19.167 57.661,19.167 57.596 C 19.167 57.496,20.385 55.936,20.672 55.667 C 20.721 55.621,20.930 55.358,21.136 55.083 C 21.600 54.465,22.789 53.062,23.292 52.541 C 23.498 52.327,23.667 52.107,23.667 52.053 C 23.667 51.999,24.248 51.309,24.958 50.519 C 25.669 49.729,26.325 48.997,26.417 48.891 C 27.986 47.077,36.582 38.334,36.798 38.332 C 36.863 38.332,37.300 37.938,37.768 37.457 C 38.236 36.977,38.845 36.396,39.122 36.167 C 40.783 34.789,41.263 34.369,41.646 33.958 C 41.882 33.706,42.153 33.500,42.250 33.500 C 42.347 33.500,42.614 33.294,42.843 33.042 C 43.073 32.790,43.550 32.358,43.904 32.083 C 44.257 31.808,44.672 31.471,44.826 31.333 C 45.620 30.621,46.824 29.667,46.929 29.667 C 46.995 29.667,47.206 29.517,47.399 29.335 C 48.180 28.597,48.687 28.167,48.775 28.167 C 48.875 28.167,50.375 27.040,50.889 26.580 C 51.057 26.429,51.450 26.155,51.764 25.970 C 52.077 25.785,52.333 25.566,52.333 25.484 C 52.333 25.401,52.411 25.333,52.507 25.333 C 52.689 25.333,53.508 24.787,54.065 24.294 C 54.245 24.134,54.529 23.960,54.696 23.907 C 54.863 23.854,55.000 23.748,55.000 23.672 C 55.000 23.596,55.319 23.368,55.708 23.165 C 56.098 22.963,56.454 22.739,56.500 22.667 C 56.546 22.596,56.821 22.398,57.112 22.227 C 57.403 22.056,58.199 21.531,58.882 21.060 C 59.565 20.589,60.283 20.152,60.478 20.090 C 60.674 20.028,60.833 19.921,60.833 19.852 C 60.833 19.782,61.171 19.557,61.583 19.351 C 61.996 19.145,62.333 18.914,62.333 18.838 C 62.333 18.762,62.544 18.626,62.802 18.536 C 63.059 18.446,63.378 18.266,63.510 18.136 C 63.642 18.006,64.106 17.728,64.542 17.518 C 64.977 17.308,65.334 17.087,65.334 17.027 C 65.334 16.966,65.675 16.777,66.092 16.605 C 66.508 16.434,66.939 16.204,67.050 16.095 C 67.160 15.986,67.475 15.778,67.750 15.633 C 69.610 14.652,70.260 14.285,70.333 14.174 C 70.379 14.104,70.698 13.946,71.042 13.823 C 71.385 13.700,71.666 13.559,71.664 13.508 C 71.655 13.179,71.222 13.010,69.750 12.762 C 68.833 12.607,67.960 12.415,67.810 12.334 C 67.258 12.037,64.759 11.938,64.538 12.204 M44.278 14.082 C 44.018 14.217,43.493 14.410,43.111 14.510 C 42.389 14.699,40.920 15.314,38.904 16.273 C 38.256 16.581,37.643 16.833,37.543 16.833 C 37.443 16.833,37.336 16.898,37.306 16.977 C 37.275 17.055,36.912 17.282,36.500 17.479 C 35.652 17.886,34.517 18.552,34.215 18.821 C 34.105 18.919,33.971 19.000,33.918 19.000 C 33.729 19.000,31.044 20.863,30.434 21.417 C 30.232 21.601,29.846 21.894,29.575 22.070 C 28.982 22.454,28.458 22.902,27.754 23.625 C 27.464 23.923,27.173 24.167,27.109 24.167 C 26.955 24.167,24.000 27.122,24.000 27.275 C 24.000 27.340,23.756 27.624,23.458 27.907 C 23.160 28.190,22.692 28.710,22.417 29.062 C 21.558 30.161,20.838 31.075,20.661 31.289 C 20.568 31.402,20.336 31.758,20.146 32.081 C 19.956 32.403,19.733 32.667,19.650 32.667 C 19.568 32.667,19.500 32.746,19.500 32.842 C 19.500 32.939,19.211 33.445,18.857 33.967 C 18.503 34.490,18.160 35.085,18.096 35.292 C 18.031 35.498,17.917 35.667,17.843 35.667 C 17.768 35.667,17.539 36.060,17.333 36.542 C 17.127 37.023,16.906 37.454,16.843 37.500 C 16.779 37.546,16.598 37.910,16.441 38.309 C 16.284 38.709,16.048 39.142,15.918 39.273 C 15.667 39.524,15.397 40.620,15.549 40.772 C 15.650 40.872,16.667 40.011,16.667 39.826 C 16.667 39.494,29.825 26.336,30.160 26.332 C 30.209 26.332,30.625 25.988,31.083 25.568 C 32.074 24.660,32.728 24.094,33.568 23.417 C 33.909 23.142,34.288 22.825,34.411 22.712 C 35.175 22.015,37.524 20.167,37.647 20.167 C 37.728 20.167,37.918 19.979,38.068 19.750 C 38.218 19.521,38.451 19.333,38.586 19.333 C 38.720 19.333,38.924 19.183,39.039 19.000 C 39.153 18.817,39.312 18.667,39.391 18.667 C 39.526 18.667,40.903 17.662,41.531 17.104 C 41.685 16.968,42.022 16.723,42.281 16.561 C 42.539 16.399,42.862 16.169,43.000 16.050 C 43.566 15.562,44.891 14.633,45.265 14.463 C 45.486 14.362,45.667 14.179,45.667 14.057 C 45.667 13.757,44.873 13.771,44.278 14.082 M81.505 17.593 C 81.188 17.733,80.888 17.906,80.839 17.977 C 80.790 18.048,80.413 18.239,80.000 18.402 C 79.588 18.564,79.213 18.752,79.167 18.818 C 79.121 18.885,78.708 19.117,78.250 19.333 C 77.792 19.550,77.379 19.770,77.333 19.822 C 77.287 19.874,76.875 20.098,76.417 20.320 C 75.958 20.542,75.546 20.767,75.500 20.820 C 75.454 20.873,75.117 21.066,74.750 21.248 C 74.383 21.431,74.046 21.627,74.000 21.685 C 73.954 21.742,73.542 21.992,73.083 22.238 C 71.572 23.052,70.752 23.528,70.667 23.642 C 70.621 23.703,70.283 23.902,69.917 24.085 C 69.550 24.267,69.197 24.497,69.133 24.596 C 69.068 24.695,68.712 24.912,68.341 25.080 C 67.970 25.247,67.667 25.434,67.667 25.496 C 67.667 25.557,67.329 25.776,66.917 25.982 C 66.504 26.188,66.167 26.417,66.167 26.491 C 66.167 26.566,65.940 26.720,65.663 26.835 C 65.386 26.950,65.104 27.128,65.038 27.230 C 64.971 27.333,64.579 27.598,64.167 27.820 C 63.754 28.043,63.357 28.324,63.283 28.445 C 63.210 28.567,63.067 28.667,62.965 28.667 C 62.863 28.667,62.383 28.967,61.897 29.333 C 61.412 29.700,60.936 30.000,60.840 30.000 C 60.745 30.000,60.667 30.073,60.667 30.162 C 60.667 30.252,60.423 30.449,60.125 30.601 C 59.827 30.752,59.471 30.980,59.333 31.105 C 58.752 31.637,57.330 32.667,57.177 32.667 C 57.086 32.667,56.931 32.817,56.833 33.000 C 56.735 33.183,56.563 33.333,56.451 33.333 C 56.338 33.333,56.060 33.504,55.832 33.713 C 55.603 33.922,55.155 34.277,54.836 34.502 C 54.516 34.728,54.127 35.026,53.972 35.164 C 53.817 35.303,53.446 35.604,53.148 35.833 C 52.849 36.063,52.428 36.419,52.212 36.625 C 51.995 36.831,51.776 37.000,51.725 37.000 C 51.674 37.000,51.096 37.456,50.441 38.013 C 49.786 38.570,48.962 39.264,48.610 39.555 C 47.358 40.590,45.681 42.091,43.500 44.127 C 42.721 44.854,41.688 45.810,41.204 46.252 C 40.081 47.276,37.680 49.677,36.516 50.940 C 36.020 51.477,35.045 52.524,34.349 53.266 C 33.653 54.008,32.708 55.040,32.250 55.559 C 31.792 56.077,31.192 56.751,30.917 57.056 C 30.642 57.361,30.267 57.792,30.084 58.014 C 29.901 58.235,29.311 58.942,28.773 59.583 C 27.085 61.594,25.710 63.284,25.203 63.970 C 25.045 64.183,24.710 64.587,24.458 64.870 C 24.206 65.152,24.000 65.429,24.000 65.485 C 24.000 65.541,23.739 65.886,23.420 66.252 C 23.101 66.617,22.838 67.008,22.837 67.119 C 22.835 67.230,22.683 67.402,22.500 67.500 C 22.317 67.598,22.166 67.770,22.165 67.881 C 22.164 67.992,21.865 68.458,21.500 68.917 C 21.135 69.375,20.836 69.836,20.835 69.941 C 20.834 70.045,20.720 70.175,20.581 70.228 C 20.442 70.281,20.261 70.495,20.179 70.704 C 20.096 70.913,19.909 71.233,19.762 71.417 C 19.020 72.343,18.162 73.587,18.075 73.860 C 18.021 74.028,17.913 74.167,17.834 74.167 C 17.755 74.167,17.521 74.504,17.315 74.917 C 17.109 75.329,16.891 75.667,16.829 75.667 C 16.768 75.667,16.582 75.967,16.417 76.333 C 16.251 76.700,16.060 77.000,15.992 77.000 C 15.923 77.000,15.705 77.311,15.507 77.691 L 15.147 78.381 15.521 79.441 C 15.727 80.023,15.946 80.500,16.008 80.500 C 16.070 80.500,16.250 80.838,16.408 81.250 C 16.565 81.663,16.755 82.000,16.829 82.000 C 16.903 82.000,17.011 82.188,17.068 82.417 C 17.257 83.168,17.779 82.932,18.330 81.844 C 18.537 81.437,18.818 80.992,18.956 80.854 C 19.093 80.716,19.280 80.393,19.369 80.135 C 19.459 79.877,19.595 79.667,19.671 79.667 C 19.748 79.667,19.979 79.329,20.185 78.917 C 20.391 78.504,20.609 78.167,20.670 78.167 C 20.731 78.167,20.955 77.829,21.167 77.417 C 21.379 77.004,21.604 76.667,21.666 76.667 C 21.729 76.667,21.923 76.368,22.098 76.002 C 22.273 75.636,22.471 75.336,22.538 75.335 C 22.605 75.334,22.813 75.033,23.000 74.667 C 23.187 74.300,23.414 74.000,23.503 74.000 C 23.593 74.000,23.667 73.922,23.667 73.827 C 23.667 73.645,24.213 72.826,24.706 72.269 C 24.866 72.089,25.037 71.811,25.088 71.653 C 25.138 71.494,25.289 71.322,25.423 71.271 C 25.557 71.219,25.668 71.081,25.670 70.964 C 25.672 70.846,25.934 70.451,26.253 70.085 C 26.572 69.719,26.833 69.374,26.833 69.318 C 26.833 69.261,27.002 69.026,27.208 68.794 C 27.805 68.124,28.569 67.164,28.750 66.857 C 28.842 66.701,29.043 66.426,29.198 66.245 C 29.610 65.764,30.635 64.489,31.054 63.938 C 31.253 63.675,31.623 63.251,31.875 62.996 C 32.127 62.741,32.333 62.467,32.333 62.387 C 32.333 62.307,32.540 62.048,32.792 61.813 C 33.044 61.578,33.550 61.018,33.917 60.568 C 34.283 60.119,34.977 59.332,35.458 58.819 C 35.940 58.306,36.333 57.838,36.333 57.778 C 36.333 57.719,36.933 57.082,37.667 56.363 C 38.400 55.645,39.000 55.006,39.000 54.944 C 39.000 54.827,44.197 49.688,46.556 47.472 C 47.997 46.119,49.427 44.848,50.743 43.750 C 51.183 43.383,51.782 42.840,52.075 42.542 C 52.368 42.244,52.682 42.000,52.773 42.000 C 52.865 42.000,53.096 41.831,53.287 41.625 C 53.703 41.174,54.325 40.647,55.046 40.134 C 55.647 39.706,55.846 39.545,56.650 38.834 C 56.961 38.559,57.262 38.333,57.318 38.333 C 57.374 38.333,57.719 38.072,58.085 37.753 C 58.451 37.434,58.801 37.172,58.863 37.170 C 58.925 37.168,59.090 37.053,59.229 36.914 C 59.682 36.461,60.999 35.500,61.167 35.500 C 61.257 35.500,61.424 35.350,61.539 35.167 C 61.653 34.983,61.807 34.833,61.880 34.833 C 62.022 34.833,62.922 34.225,63.303 33.871 C 63.429 33.754,63.749 33.546,64.016 33.409 C 64.282 33.271,64.500 33.085,64.500 32.996 C 64.500 32.906,64.584 32.833,64.686 32.833 C 64.788 32.833,65.220 32.587,65.644 32.285 C 66.069 31.983,66.623 31.633,66.875 31.507 C 67.127 31.380,67.333 31.222,67.333 31.155 C 67.333 31.088,67.638 30.875,68.009 30.681 C 68.381 30.488,68.845 30.180,69.041 29.998 C 69.236 29.816,69.491 29.667,69.606 29.667 C 69.722 29.667,69.877 29.567,69.950 29.444 C 70.023 29.322,70.440 29.046,70.875 28.832 C 71.310 28.617,71.667 28.384,71.667 28.315 C 71.667 28.246,71.835 28.137,72.042 28.073 C 72.248 28.008,72.799 27.703,73.267 27.395 C 73.735 27.086,74.200 26.833,74.301 26.833 C 74.401 26.833,74.543 26.733,74.617 26.611 C 74.690 26.489,75.125 26.208,75.583 25.986 C 76.042 25.765,76.454 25.541,76.500 25.489 C 76.546 25.437,77.258 25.031,78.083 24.587 C 78.908 24.142,79.621 23.728,79.667 23.666 C 79.712 23.604,80.114 23.415,80.558 23.248 C 81.002 23.080,81.404 22.843,81.451 22.721 C 81.497 22.600,81.615 22.500,81.711 22.500 C 81.912 22.500,85.040 20.989,85.167 20.831 C 85.212 20.774,85.550 20.609,85.917 20.466 C 86.837 20.105,86.816 19.822,85.834 19.342 C 85.375 19.118,85.000 18.872,85.000 18.796 C 85.000 18.721,84.794 18.581,84.542 18.487 C 84.290 18.392,83.821 18.136,83.500 17.918 C 82.704 17.377,82.188 17.293,81.505 17.593 M92.839 26.097 C 92.521 26.235,92.221 26.406,92.172 26.477 C 92.123 26.548,91.746 26.739,91.334 26.902 C 90.922 27.064,90.547 27.250,90.500 27.316 C 90.454 27.381,90.004 27.608,89.500 27.821 C 88.996 28.034,88.546 28.256,88.500 28.314 C 88.454 28.373,88.023 28.601,87.542 28.822 C 87.060 29.043,86.666 29.267,86.666 29.320 C 86.666 29.373,86.328 29.555,85.916 29.725 C 85.504 29.894,85.167 30.087,85.167 30.153 C 85.167 30.218,84.754 30.443,84.250 30.652 C 83.746 30.861,83.333 31.095,83.333 31.171 C 83.333 31.248,83.165 31.364,82.958 31.429 C 82.752 31.493,82.202 31.789,81.737 32.086 C 81.271 32.383,80.727 32.678,80.528 32.741 C 80.329 32.804,80.167 32.918,80.167 32.994 C 80.167 33.071,79.851 33.298,79.464 33.499 C 79.078 33.700,78.581 34.008,78.359 34.182 C 78.137 34.357,77.890 34.500,77.811 34.500 C 77.732 34.500,77.302 34.762,76.855 35.083 C 76.409 35.404,75.959 35.667,75.855 35.667 C 75.751 35.667,75.667 35.744,75.667 35.837 C 75.667 35.931,75.466 36.084,75.222 36.177 C 74.977 36.271,74.423 36.606,73.991 36.923 C 73.559 37.241,73.124 37.500,73.025 37.500 C 72.926 37.500,72.765 37.650,72.667 37.833 C 72.569 38.017,72.393 38.167,72.276 38.167 C 72.159 38.167,71.903 38.316,71.707 38.498 C 71.512 38.680,71.048 38.988,70.676 39.181 C 70.304 39.375,70.000 39.603,70.000 39.688 C 70.000 39.772,69.827 39.907,69.616 39.988 C 69.405 40.068,69.049 40.290,68.824 40.481 C 67.831 41.329,66.688 42.167,66.524 42.167 C 66.425 42.167,66.265 42.317,66.167 42.500 C 66.069 42.683,65.914 42.833,65.823 42.833 C 65.669 42.833,64.598 43.616,63.417 44.591 C 63.142 44.818,62.707 45.171,62.450 45.377 C 62.193 45.582,61.796 45.919,61.567 46.125 C 61.339 46.331,61.085 46.500,61.005 46.500 C 60.924 46.500,60.710 46.688,60.530 46.917 C 60.350 47.146,60.138 47.334,60.059 47.335 C 59.981 47.337,59.604 47.618,59.222 47.960 C 58.840 48.303,58.255 48.808,57.923 49.083 C 57.591 49.358,57.068 49.808,56.763 50.083 C 56.457 50.358,55.695 51.033,55.070 51.583 C 51.580 54.654,45.262 60.977,41.833 64.828 C 41.237 65.498,40.544 66.239,40.292 66.476 C 40.040 66.714,39.833 66.974,39.833 67.056 C 39.833 67.138,39.639 67.403,39.402 67.644 C 38.568 68.493,37.667 69.570,37.667 69.719 C 37.667 69.801,37.479 70.016,37.250 70.196 C 37.021 70.377,36.833 70.602,36.833 70.696 C 36.833 70.791,36.646 71.016,36.417 71.196 C 36.188 71.377,36.000 71.623,36.000 71.743 C 36.000 71.863,35.812 72.085,35.583 72.235 C 35.354 72.385,35.167 72.597,35.167 72.706 C 35.167 72.816,35.015 73.058,34.830 73.244 C 34.346 73.732,33.167 75.276,33.167 75.421 C 33.167 75.489,32.998 75.716,32.792 75.924 C 32.585 76.132,32.207 76.591,31.951 76.943 C 31.695 77.295,31.227 77.921,30.911 78.333 C 30.595 78.746,30.336 79.174,30.335 79.286 C 30.334 79.397,30.194 79.563,30.023 79.654 C 29.852 79.746,29.618 80.048,29.503 80.327 C 29.387 80.605,29.232 80.833,29.158 80.833 C 29.084 80.833,28.855 81.171,28.649 81.583 C 28.443 81.996,28.214 82.333,28.141 82.333 C 28.067 82.333,27.854 82.633,27.667 83.000 C 27.480 83.367,27.272 83.668,27.205 83.669 C 27.138 83.670,26.933 83.985,26.750 84.370 C 26.567 84.755,26.248 85.252,26.042 85.476 C 25.835 85.699,25.667 85.980,25.667 86.099 C 25.667 86.219,25.568 86.377,25.446 86.450 C 25.325 86.523,25.056 86.940,24.848 87.375 C 24.640 87.810,24.413 88.167,24.344 88.167 C 24.274 88.167,24.082 88.467,23.917 88.833 C 23.751 89.200,23.566 89.500,23.506 89.500 C 23.369 89.500,22.833 90.603,22.835 90.881 C 22.835 90.992,23.496 91.787,24.303 92.646 C 25.968 94.419,26.134 94.447,26.752 93.057 C 26.934 92.646,27.215 92.192,27.375 92.046 C 27.535 91.901,27.667 91.699,27.667 91.599 C 27.667 91.498,27.929 91.046,28.250 90.595 C 28.571 90.144,28.833 89.673,28.833 89.549 C 28.833 89.425,28.946 89.280,29.083 89.227 C 29.221 89.174,29.333 89.063,29.333 88.980 C 29.333 88.897,29.633 88.390,30.000 87.853 C 30.367 87.316,30.667 86.795,30.667 86.696 C 30.667 86.597,30.761 86.457,30.875 86.383 C 30.990 86.310,31.184 86.055,31.307 85.817 C 31.429 85.579,31.718 85.166,31.949 84.900 C 32.179 84.634,32.436 84.267,32.518 84.083 C 32.601 83.900,32.928 83.412,33.247 83.000 C 33.565 82.587,34.022 81.931,34.262 81.542 C 34.502 81.152,34.749 80.833,34.811 80.833 C 34.873 80.833,35.066 80.571,35.238 80.250 C 35.411 79.929,35.618 79.667,35.697 79.667 C 35.777 79.667,35.915 79.498,36.004 79.292 C 36.259 78.700,36.553 78.288,36.958 77.953 C 37.165 77.782,37.333 77.553,37.333 77.445 C 37.333 77.336,37.483 77.153,37.667 77.039 C 37.850 76.924,38.000 76.723,38.000 76.591 C 38.000 76.460,38.159 76.241,38.354 76.104 C 38.705 75.858,39.067 75.340,39.264 74.803 C 39.320 74.649,39.466 74.485,39.588 74.438 C 39.710 74.391,40.120 73.955,40.498 73.468 C 41.672 71.956,42.060 71.495,42.792 70.740 C 43.181 70.338,43.500 69.957,43.500 69.894 C 43.500 69.830,43.789 69.472,44.142 69.098 C 46.136 66.981,46.833 66.212,46.833 66.131 C 46.833 66.013,56.313 56.536,56.498 56.468 C 56.639 56.416,58.428 54.799,59.510 53.745 C 59.837 53.427,60.149 53.167,60.204 53.167 C 60.296 53.167,61.068 52.496,62.365 51.292 C 62.637 51.040,62.901 50.833,62.953 50.833 C 63.037 50.833,64.789 49.403,65.000 49.162 C 65.046 49.110,65.345 48.884,65.664 48.661 C 66.293 48.221,66.557 48.010,67.239 47.398 C 67.482 47.179,67.735 46.999,67.799 46.997 C 67.864 46.996,68.254 46.697,68.667 46.333 C 69.079 45.970,69.508 45.671,69.619 45.669 C 69.730 45.668,69.902 45.517,70.000 45.333 C 70.098 45.150,70.270 44.999,70.381 44.998 C 70.492 44.997,70.958 44.698,71.417 44.333 C 71.875 43.969,72.336 43.669,72.441 43.668 C 72.545 43.667,72.675 43.553,72.728 43.414 C 72.781 43.275,72.995 43.094,73.204 43.012 C 73.413 42.930,73.733 42.743,73.917 42.598 C 74.693 41.982,75.782 41.228,76.208 41.011 C 76.460 40.882,76.667 40.722,76.667 40.655 C 76.667 40.588,76.985 40.368,77.375 40.165 C 77.765 39.963,78.121 39.740,78.167 39.671 C 78.212 39.601,78.569 39.383,78.958 39.186 C 79.348 38.988,79.668 38.772,79.669 38.705 C 79.670 38.638,79.988 38.435,80.377 38.253 C 80.765 38.071,81.143 37.827,81.217 37.711 C 81.290 37.595,81.445 37.500,81.562 37.500 C 81.679 37.500,82.144 37.237,82.595 36.917 C 83.046 36.596,83.510 36.333,83.624 36.333 C 83.739 36.333,83.969 36.202,84.136 36.042 C 84.302 35.881,84.733 35.601,85.094 35.418 C 85.455 35.236,85.787 35.042,85.833 34.988 C 85.879 34.934,86.292 34.708,86.750 34.487 C 87.208 34.265,87.658 34.024,87.750 33.950 C 88.038 33.721,89.383 33.003,90.208 32.639 C 90.644 32.446,91.000 32.233,91.000 32.164 C 91.000 32.095,91.412 31.871,91.917 31.667 C 92.421 31.462,92.833 31.228,92.833 31.147 C 92.833 31.066,92.920 31.000,93.027 31.000 C 93.304 31.000,96.393 29.469,96.539 29.259 C 96.728 28.988,96.710 28.951,96.005 28.159 C 93.664 25.533,93.854 25.657,92.839 26.097 " stroke="none" fill="#FFFFFF" fill-rule="evenodd"></path><path id="path3" d="M153.896 76.083 C 153.896 77.092,153.924 77.483,153.957 76.952 C 153.990 76.422,153.990 75.597,153.956 75.119 C 153.922 74.641,153.895 75.075,153.896 76.083 " stroke="none" fill="#FFFFFF" fill-rule="evenodd"></path><path id="path4" d="" stroke="none" fill="#FFFFFF" fill-rule="evenodd"></path><path id="path5" d="M153.896 76.083 C 153.896 77.092,153.924 77.483,153.957 76.952 C 153.990 76.422,153.990 75.597,153.956 75.119 C 153.922 74.641,153.895 75.075,153.896 76.083 " stroke="none" fill="#FFFFFF" fill-rule="evenodd"></path></g></svg>