<?xml version="1.0" encoding="UTF-8" standalone="no"?>
<!DOCTYPE svg PUBLIC "-//W3C//DTD SVG 1.1//EN" "http://www.w3.org/Graphics/SVG/1.1/DTD/svg11.dtd">
<svg width="100%" height="100%" viewBox="0 0 1059 138" version="1.1" xmlns="http://www.w3.org/2000/svg" xmlns:xlink="http://www.w3.org/1999/xlink" xml:space="preserve" xmlns:serif="http://www.serif.com/" style="fill-rule:evenodd;clip-rule:evenodd;stroke-linejoin:round;stroke-miterlimit:2;">
    <g transform="matrix(4.16667,0,0,4.16667,0,0)">
        <path d="M0,29.792L15.047,29.792C19.026,29.792 22.483,28.938 24.935,26.777C27.386,24.617 28.889,21.124 28.892,15.702C28.89,9.877 27.487,6.34 25.153,4.246C22.819,2.149 19.478,1.445 15.49,1.446L15.49,1.445L0,1.445L0,7.567L13.12,7.567C15.107,7.556 16.466,8.261 17.234,9.626C18.004,10.979 18.235,12.905 18.238,15.412C18.235,17.834 18.024,19.739 17.272,21.093C16.52,22.456 15.169,23.185 13.16,23.173L10.17,23.173L10.17,13.139L0,13.139L0,29.792Z" style="fill:white;fill-rule:nonzero;"/>
        <path d="M31.101,29.792L41.272,29.792L41.272,19.509L53.943,19.509L53.943,13.139L41.272,13.139L41.272,7.567L53.943,7.567L53.943,1.445L31.101,1.445L31.101,29.792Z" style="fill:white;fill-rule:nonzero;"/>
        <path d="M60.947,4.523C57.942,6.9 56.043,10.434 56.039,15.205C56.043,20.296 57.871,24.04 60.834,26.54C63.798,29.039 67.925,30.29 72.533,30.29C76.848,30.289 80.257,29.854 83.845,28.79L83.845,15.709L75.203,15.709L75.203,23.328L75.011,23.402C74.285,23.679 73.378,23.667 72.613,23.671C70.384,23.677 68.796,22.746 67.822,21.301C66.845,19.859 66.453,17.937 66.451,15.909C66.449,13.212 67.365,11.1 68.988,9.688C70.61,8.275 72.905,7.567 75.627,7.567C78.41,7.567 80.603,8.193 82.164,9.015L82.164,1.962C79.593,1.334 77.637,0.95 72.533,0.948L72.531,0.948C68.085,0.948 63.953,2.149 60.947,4.523Z" style="fill:white;fill-rule:nonzero;"/>
        <path d="M99.352,10.95L100.181,10.95C103.261,11.018 104.842,9.552 104.922,6.552C104.898,4.974 104.502,3.861 103.733,3.213C102.95,2.595 101.978,2.291 100.817,2.3L99.352,2.3L99.352,10.95ZM98.361,1.411L100.862,1.411C102.656,1.43 103.954,1.912 104.755,2.855C105.537,3.804 105.923,5.055 105.913,6.607C105.895,8.47 105.348,9.811 104.274,10.628C103.215,11.436 101.832,11.839 100.127,11.839L98.361,11.839L98.361,1.411Z" style="fill:white;fill-rule:nonzero;"/>
        <path d="M112.818,7.498C112.818,6.798 112.677,6.186 112.394,5.662C112.096,5.134 111.606,4.86 110.927,4.84C110.261,4.86 109.734,5.139 109.347,5.677C108.95,6.22 108.752,6.827 108.752,7.498L112.818,7.498ZM113.261,11.603C112.568,11.873 111.854,12.012 111.119,12.022C109.912,11.998 109.048,11.613 108.524,10.869C108.006,10.139 107.751,9.193 107.761,8.03C107.771,6.843 108.06,5.882 108.63,5.147C109.181,4.417 109.928,4.048 110.87,4.038C111.901,4.058 112.655,4.432 113.131,5.162C113.583,5.877 113.81,6.762 113.81,7.818L113.81,8.299L108.752,8.299C108.752,9.129 108.96,9.812 109.375,10.349C109.78,10.92 110.385,11.21 111.187,11.22C111.546,11.22 111.923,11.154 112.319,11.022C112.716,10.915 113.03,10.79 113.261,10.649L113.261,11.603Z" style="fill:white;fill-rule:nonzero;"/>
        <path d="M121.537,10.045C121.527,10.624 121.548,11.222 121.6,11.839L120.717,11.839L120.717,10.482L120.688,10.482C120.622,10.648 120.53,10.816 120.413,10.986C120.3,11.166 120.151,11.336 119.968,11.497C119.784,11.647 119.557,11.767 119.283,11.854C119.015,11.966 118.688,12.022 118.302,12.022C117.407,12.012 116.763,11.732 116.367,11.183C115.972,10.643 115.778,9.944 115.788,9.088L115.788,4.22L116.691,4.22L116.691,8.853C116.691,9.583 116.831,10.153 117.109,10.562C117.383,11 117.829,11.22 118.447,11.22C118.862,11.22 119.214,11.129 119.501,10.949C119.794,10.779 120.016,10.56 120.167,10.292C120.341,10.014 120.462,9.715 120.527,9.393C120.599,9.077 120.634,8.758 120.634,8.436L120.634,4.22L121.537,4.22L121.537,10.045Z" style="fill:white;fill-rule:nonzero;"/>
        <path d="M127.274,5.022L125.596,5.022L125.596,9.963C125.596,10.313 125.673,10.608 125.829,10.847C125.971,11.096 126.221,11.22 126.58,11.22C126.91,11.22 127.191,11.159 127.422,11.037L127.479,11.812C127.371,11.851 127.221,11.894 127.027,11.942C126.825,11.995 126.604,12.022 126.364,12.022C125.969,12.022 125.656,11.951 125.426,11.81C125.204,11.669 125.037,11.484 124.925,11.255C124.826,11.017 124.763,10.749 124.734,10.453C124.706,10.151 124.691,9.825 124.691,9.475L124.691,5.022L123.245,5.022L123.245,4.22L124.691,4.22L124.691,2.381L125.596,2.053L125.596,4.22L127.274,4.22L127.274,5.022Z" style="fill:white;fill-rule:nonzero;"/>
        <path d="M128.511,10.737C129.072,11.049 129.712,11.21 130.433,11.22C130.889,11.22 131.274,11.096 131.59,10.847C131.9,10.618 132.061,10.29 132.07,9.861C132.061,9.408 131.882,9.052 131.533,8.794C131.185,8.546 130.774,8.322 130.304,8.122C130.082,8.015 129.869,7.9 129.668,7.778C129.466,7.657 129.272,7.523 129.089,7.377C128.923,7.216 128.787,7.031 128.679,6.821C128.575,6.622 128.522,6.388 128.522,6.12C128.533,5.36 128.782,4.822 129.271,4.505C129.746,4.194 130.298,4.038 130.923,4.038C131.136,4.038 131.411,4.057 131.75,4.096C132.084,4.154 132.415,4.248 132.745,4.378L132.66,5.198C132.127,4.969 131.58,4.85 131.019,4.84C130.547,4.84 130.172,4.928 129.894,5.103C129.748,5.196 129.634,5.322 129.554,5.483C129.47,5.639 129.427,5.848 129.427,6.111C129.427,6.267 129.481,6.416 129.59,6.557C129.692,6.688 129.832,6.808 130.007,6.915C130.182,7.017 130.379,7.122 130.601,7.229C130.822,7.332 131.039,7.441 131.251,7.558C131.732,7.768 132.151,8.047 132.51,8.398C132.868,8.749 133.052,9.233 133.062,9.852C133.062,10.251 132.983,10.585 132.829,10.853C132.664,11.13 132.457,11.354 132.208,11.525C131.667,11.856 131.094,12.022 130.487,12.022C129.776,12.022 129.09,11.901 128.427,11.661L128.511,10.737Z" style="fill:white;fill-rule:nonzero;"/>
        <path d="M139.694,5.228C139.171,4.979 138.644,4.85 138.11,4.84C137.224,4.85 136.545,5.143 136.073,5.718C135.578,6.308 135.331,7.079 135.331,8.03C135.331,8.917 135.574,9.662 136.06,10.261C136.531,10.891 137.182,11.21 138.012,11.22C138.582,11.22 139.138,11.105 139.681,10.876L139.765,11.754C139.167,11.942 138.536,12.032 137.872,12.022C136.686,11.998 135.802,11.594 135.223,10.811C134.634,10.042 134.34,9.115 134.34,8.03C134.35,6.823 134.686,5.862 135.35,5.147C136.01,4.417 136.888,4.048 137.985,4.038C138.438,4.038 138.813,4.072 139.115,4.139C139.271,4.168 139.405,4.199 139.518,4.233C139.626,4.271 139.709,4.305 139.765,4.334L139.694,5.228Z" style="fill:white;fill-rule:nonzero;"/>
        <path d="M141.528,0.63L142.432,0.63L142.432,5.499L142.46,5.499C142.663,5.072 142.962,4.719 143.357,4.438C143.753,4.181 144.219,4.048 144.756,4.038C145.74,4.048 146.411,4.347 146.77,4.936C147.118,5.534 147.287,6.315 147.277,7.278L147.277,11.839L146.374,11.839L146.374,7.288C146.374,6.952 146.355,6.632 146.317,6.331C146.275,6.043 146.192,5.79 146.069,5.571C145.839,5.093 145.354,4.85 144.619,4.84C143.826,4.859 143.26,5.174 142.92,5.783C142.585,6.392 142.422,7.049 142.432,7.755L142.432,11.839L141.528,11.839L141.528,0.63Z" style="fill:white;fill-rule:nonzero;"/>
        <path d="M154.343,7.498C154.343,6.798 154.201,6.186 153.918,5.662C153.62,5.134 153.131,4.86 152.451,4.84C151.785,4.86 151.259,5.139 150.871,5.677C150.475,6.22 150.276,6.827 150.276,7.498L154.343,7.498ZM154.785,11.603C154.093,11.873 153.379,12.012 152.644,12.022C151.437,11.998 150.572,11.613 150.049,10.869C149.53,10.139 149.275,9.193 149.285,8.03C149.295,6.843 149.584,5.882 150.154,5.147C150.705,4.417 151.452,4.048 152.395,4.038C153.426,4.058 154.18,4.432 154.655,5.162C155.107,5.877 155.334,6.762 155.334,7.818L155.334,8.299L150.276,8.299C150.276,9.129 150.484,9.812 150.899,10.349C151.305,10.92 151.909,11.21 152.711,11.22C153.07,11.22 153.447,11.154 153.844,11.022C154.24,10.915 154.555,10.79 154.785,10.649L154.785,11.603Z" style="fill:white;fill-rule:nonzero;"/>
        <path d="M98.317,19.346L103.118,19.346L103.118,20.236L99.308,20.236L99.308,23.966L102.941,23.966L102.941,24.855L99.308,24.855L99.308,29.775L98.317,29.775L98.317,19.346Z" style="fill:white;fill-rule:nonzero;"/>
        <path d="M105.402,25.965C105.402,26.873 105.615,27.622 106.04,28.211C106.446,28.831 107.052,29.146 107.855,29.155C108.658,29.146 109.272,28.831 109.698,28.211C110.104,27.622 110.308,26.873 110.308,25.965C110.308,25.053 110.104,24.294 109.698,23.69C109.272,23.09 108.658,22.786 107.855,22.776C107.052,22.786 106.446,23.09 106.04,23.69C105.615,24.294 105.402,25.053 105.402,25.965ZM104.411,25.965C104.411,24.88 104.691,23.954 105.252,23.185C105.808,22.397 106.674,21.993 107.852,21.973C109.048,21.993 109.926,22.397 110.486,23.185C111.028,23.954 111.299,24.88 111.299,25.965C111.299,27.031 111.028,27.953 110.486,28.731C109.926,29.524 109.048,29.933 107.852,29.957C106.674,29.933 105.808,29.524 105.252,28.731C104.691,27.953 104.411,27.031 104.411,25.965Z" style="fill:white;fill-rule:nonzero;"/>
        <path d="M113.293,23.856C113.293,23.151 113.274,22.584 113.236,22.156L114.141,22.156L114.141,23.615L114.168,23.615C114.343,23.167 114.588,22.786 114.904,22.469C115.215,22.149 115.602,21.983 116.063,21.973C116.304,21.983 116.516,22.012 116.699,22.06L116.699,23.039C116.497,22.98 116.275,22.951 116.035,22.951C115.677,22.96 115.382,23.05 115.151,23.221C114.92,23.401 114.731,23.645 114.586,23.952C114.448,24.253 114.352,24.578 114.296,24.923C114.229,25.293 114.196,25.654 114.196,26.004L114.196,29.775L113.293,29.775L113.293,23.856Z" style="fill:white;fill-rule:nonzero;"/>
        <path d="M117.703,28.672C118.264,28.985 118.903,29.146 119.624,29.155C120.08,29.155 120.466,29.031 120.781,28.783C121.092,28.554 121.252,28.225 121.262,27.796C121.252,27.343 121.073,26.988 120.725,26.73C120.376,26.481 119.966,26.257 119.495,26.057C119.273,25.951 119.062,25.835 118.859,25.714C118.657,25.592 118.464,25.458 118.28,25.312C118.115,25.152 117.979,24.966 117.87,24.757C117.767,24.557 117.715,24.324 117.715,24.055C117.725,23.295 117.974,22.757 118.463,22.441C118.938,22.129 119.489,21.973 120.115,21.973C120.327,21.973 120.603,21.993 120.941,22.032C121.275,22.089 121.606,22.184 121.937,22.314L121.852,23.133C121.318,22.905 120.771,22.786 120.21,22.776C119.738,22.776 119.363,22.863 119.085,23.039C118.939,23.131 118.826,23.257 118.746,23.418C118.661,23.575 118.618,23.784 118.618,24.046C118.618,24.203 118.673,24.351 118.781,24.493C118.885,24.624 119.023,24.744 119.198,24.85C119.373,24.953 119.57,25.057 119.792,25.165C120.014,25.267 120.23,25.376 120.442,25.494C120.924,25.703 121.343,25.983 121.701,26.333C122.06,26.684 122.243,27.169 122.253,27.788C122.253,28.187 122.175,28.521 122.021,28.789C121.855,29.066 121.648,29.29 121.399,29.46C120.858,29.791 120.285,29.957 119.679,29.957C118.969,29.957 118.281,29.837 117.619,29.596L117.703,28.672Z" style="fill:white;fill-rule:nonzero;"/>
        <path d="M128.886,23.164C128.362,22.915 127.835,22.786 127.302,22.776C126.415,22.786 125.736,23.078 125.265,23.654C124.77,24.244 124.522,25.014 124.522,25.965C124.522,26.853 124.766,27.597 125.251,28.197C125.723,28.826 126.373,29.146 127.203,29.155C127.773,29.155 128.328,29.04 128.871,28.811L128.955,29.69C128.358,29.877 127.728,29.967 127.063,29.957C125.877,29.933 124.993,29.529 124.414,28.746C123.825,27.977 123.531,27.05 123.531,25.965C123.541,24.759 123.877,23.798 124.541,23.082C125.201,22.353 126.079,21.983 127.177,21.973C127.629,21.973 128.005,22.007 128.307,22.075C128.462,22.104 128.597,22.135 128.709,22.168C128.817,22.207 128.899,22.241 128.955,22.27L128.886,23.164Z" style="fill:white;fill-rule:nonzero;"/>
        <path d="M130.72,18.565L131.623,18.565L131.623,23.434L131.651,23.434C131.854,23.007 132.153,22.654 132.549,22.374C132.944,22.117 133.41,21.983 133.947,21.973C134.932,21.983 135.603,22.283 135.961,22.872C136.31,23.469 136.479,24.25 136.469,25.213L136.469,29.775L135.565,29.775L135.565,25.223C135.565,24.887 135.547,24.568 135.509,24.266C135.467,23.979 135.384,23.725 135.261,23.506C135.03,23.029 134.546,22.786 133.811,22.776C133.018,22.795 132.451,23.109 132.111,23.718C131.776,24.327 131.613,24.985 131.623,25.691L131.623,29.775L130.72,29.775L130.72,18.565Z" style="fill:white;fill-rule:nonzero;"/>
        <path d="M144.781,27.98C144.771,28.559 144.792,29.158 144.844,29.775L143.961,29.775L143.961,28.418L143.933,28.418C143.866,28.583 143.774,28.751 143.657,28.921C143.544,29.101 143.396,29.272 143.212,29.432C143.028,29.582 142.801,29.702 142.527,29.79C142.259,29.901 141.932,29.957 141.546,29.957C140.651,29.948 140.007,29.667 139.611,29.118C139.216,28.578 139.022,27.88 139.032,27.024L139.032,22.156L139.936,22.156L139.936,26.788C139.936,27.519 140.075,28.088 140.354,28.498C140.627,28.936 141.073,29.155 141.691,29.155C142.106,29.155 142.458,29.065 142.745,28.885C143.038,28.714 143.26,28.496 143.411,28.227C143.585,27.95 143.706,27.65 143.771,27.329C143.843,27.012 143.878,26.693 143.878,26.372L143.878,22.156L144.781,22.156L144.781,27.98Z" style="fill:white;fill-rule:nonzero;"/>
        <path d="M147.345,23.943C147.345,23.36 147.326,22.764 147.288,22.156L148.17,22.156L148.17,23.512L148.198,23.512C148.282,23.332 148.384,23.153 148.501,22.973C148.614,22.792 148.758,22.63 148.932,22.484C149.115,22.324 149.341,22.197 149.609,22.105C149.882,22.017 150.204,21.973 150.575,21.973C151.483,21.983 152.135,22.263 152.529,22.813C152.906,23.348 153.094,24.043 153.094,24.9L153.094,29.775L152.19,29.775L152.19,25.135C152.19,24.41 152.061,23.832 151.801,23.404C151.518,22.995 151.063,22.786 150.436,22.776C149.624,22.795 149.053,23.092 148.723,23.666C148.553,23.94 148.433,24.235 148.361,24.551C148.286,24.882 148.248,25.218 148.248,25.559L148.248,29.775L147.345,29.775L147.345,23.943Z" style="fill:white;fill-rule:nonzero;"/>
        <path d="M156.21,25.965C156.199,26.746 156.362,27.429 156.698,28.014C157.029,28.634 157.577,28.954 158.343,28.973C159.165,28.954 159.748,28.624 160.094,27.985C160.424,27.366 160.59,26.693 160.59,25.965C160.59,25.014 160.436,24.249 160.129,23.668C159.808,23.082 159.231,22.786 158.399,22.776C157.965,22.776 157.61,22.871 157.337,23.061C157.058,23.237 156.831,23.485 156.656,23.807C156.5,24.105 156.385,24.444 156.309,24.824C156.242,25.205 156.21,25.585 156.21,25.965ZM161.493,29.148C161.493,30.233 161.238,31.14 160.729,31.87C160.197,32.604 159.3,32.981 158.038,33C157.553,32.991 157.107,32.938 156.702,32.841C156.307,32.739 156.007,32.66 155.805,32.601L155.883,31.665C156.491,32.001 157.216,32.179 158.056,32.199C158.646,32.189 159.107,32.08 159.443,31.871C159.792,31.671 160.049,31.392 160.215,31.033C160.389,30.673 160.5,30.26 160.547,29.793C160.586,29.327 160.604,28.825 160.604,28.285L160.575,28.285C160.053,29.297 159.306,29.794 158.335,29.775C157.176,29.746 156.365,29.318 155.904,28.491C155.659,28.111 155.489,27.703 155.395,27.264C155.277,26.827 155.219,26.394 155.219,25.965C155.209,24.779 155.446,23.823 155.933,23.097C156.413,22.358 157.188,21.983 158.258,21.973C158.742,21.973 159.169,22.029 159.536,22.14C159.89,22.276 160.231,22.565 160.562,23.009L160.59,23.009L160.59,22.154L161.493,22.156L161.493,29.148Z" style="fill:white;fill-rule:nonzero;"/>
        <path d="M163.402,28.672C163.963,28.985 164.603,29.146 165.323,29.155C165.779,29.155 166.165,29.031 166.48,28.783C166.791,28.554 166.951,28.225 166.961,27.796C166.951,27.343 166.772,26.988 166.424,26.73C166.075,26.481 165.665,26.257 165.194,26.057C164.973,25.951 164.761,25.835 164.559,25.714C164.356,25.592 164.163,25.458 163.979,25.312C163.814,25.152 163.678,24.966 163.569,24.757C163.466,24.557 163.414,24.324 163.414,24.055C163.424,23.295 163.673,22.757 164.162,22.441C164.638,22.129 165.188,21.973 165.814,21.973C166.026,21.973 166.302,21.993 166.641,22.032C166.975,22.089 167.306,22.184 167.636,22.314L167.551,23.133C167.018,22.905 166.471,22.786 165.909,22.776C165.438,22.776 165.063,22.863 164.784,23.039C164.639,23.131 164.525,23.257 164.445,23.418C164.36,23.575 164.317,23.784 164.317,24.046C164.317,24.203 164.372,24.351 164.48,24.493C164.584,24.624 164.723,24.744 164.897,24.85C165.072,24.953 165.27,25.057 165.491,25.165C165.713,25.267 165.93,25.376 166.142,25.494C166.623,25.703 167.042,25.983 167.4,26.333C167.759,26.684 167.942,27.169 167.952,27.788C167.952,28.187 167.874,28.521 167.72,28.789C167.555,29.066 167.348,29.29 167.099,29.46C166.558,29.791 165.984,29.957 165.378,29.957C164.668,29.957 163.98,29.837 163.318,29.596L163.402,28.672Z" style="fill:white;fill-rule:nonzero;"/>
        <path d="M170.339,25.965C170.328,26.746 170.491,27.429 170.827,28.014C171.158,28.634 171.706,28.954 172.472,28.973C173.294,28.954 173.877,28.624 174.223,27.985C174.553,27.366 174.719,26.693 174.719,25.965C174.719,25.014 174.564,24.249 174.258,23.668C173.937,23.082 173.36,22.786 172.528,22.776C172.094,22.776 171.739,22.871 171.466,23.061C171.187,23.237 170.96,23.485 170.785,23.807C170.629,24.105 170.514,24.444 170.438,24.824C170.371,25.205 170.339,25.585 170.339,25.965ZM175.622,29.148C175.622,30.233 175.367,31.14 174.858,31.87C174.326,32.604 173.429,32.981 172.167,33C171.682,32.991 171.236,32.938 170.831,32.841C170.436,32.739 170.136,32.66 169.934,32.601L170.012,31.665C170.62,32.001 171.345,32.179 172.185,32.199C172.774,32.189 173.236,32.08 173.572,31.871C173.921,31.671 174.178,31.392 174.344,31.033C174.518,30.673 174.629,30.26 174.676,29.793C174.715,29.327 174.733,28.825 174.733,28.285L174.704,28.285C174.182,29.297 173.435,29.794 172.464,29.775C171.305,29.746 170.494,29.318 170.033,28.491C169.788,28.111 169.618,27.703 169.523,27.264C169.406,26.827 169.348,26.394 169.348,25.965C169.338,24.779 169.575,23.823 170.062,23.097C170.542,22.358 171.316,21.983 172.387,21.973C172.871,21.973 173.298,22.029 173.665,22.14C174.019,22.276 174.36,22.565 174.69,23.009L174.719,23.009L174.719,22.154L175.622,22.156L175.622,29.148Z" style="fill:white;fill-rule:nonzero;"/>
        <path d="M182.601,25.433C182.601,24.734 182.459,24.122 182.176,23.598C181.878,23.069 181.389,22.795 180.709,22.776C180.043,22.795 179.517,23.074 179.129,23.613C178.732,24.156 178.534,24.763 178.534,25.433L182.601,25.433ZM183.043,29.539C182.351,29.808 181.637,29.948 180.901,29.957C179.694,29.933 178.83,29.548 178.307,28.804C177.788,28.075 177.533,27.128 177.543,25.965C177.553,24.779 177.842,23.818 178.412,23.082C178.963,22.353 179.71,21.983 180.652,21.973C181.684,21.993 182.438,22.368 182.913,23.097C183.365,23.812 183.592,24.698 183.592,25.753L183.592,26.235L178.534,26.235C178.534,27.064 178.742,27.748 179.157,28.285C179.563,28.855 180.167,29.146 180.969,29.155C181.328,29.155 181.705,29.089 182.102,28.957C182.498,28.85 182.813,28.726 183.043,28.584L183.043,29.539Z" style="fill:white;fill-rule:nonzero;"/>
        <path d="M194.627,29.775L194.627,24.705C194.627,24.422 194.607,24.162 194.568,23.922C194.509,23.694 194.413,23.494 194.28,23.324C194.162,23.148 193.998,23.009 193.786,22.907C193.575,22.82 193.312,22.776 192.997,22.776C192.467,22.776 191.994,22.995 191.582,23.433C191.159,23.891 190.942,24.6 190.933,25.559L190.933,29.775L190.029,29.775L190.029,24.705C190.029,24.422 190.007,24.162 189.963,23.922C189.904,23.694 189.808,23.494 189.676,23.324C189.558,23.148 189.393,23.009 189.182,22.907C188.97,22.82 188.707,22.776 188.393,22.776C187.861,22.776 187.39,22.995 186.977,23.433C186.554,23.891 186.338,24.6 186.328,25.559L186.328,29.775L185.423,29.775L185.423,23.944C185.423,23.36 185.404,22.764 185.366,22.156L186.275,22.156L186.275,23.441L186.304,23.455C186.372,23.314 186.467,23.159 186.588,22.988C186.685,22.818 186.823,22.66 187.002,22.513C187.182,22.363 187.404,22.231 187.671,22.12C187.938,22.022 188.27,21.973 188.667,21.973C188.847,21.973 189.041,21.993 189.249,22.032C189.448,22.071 189.646,22.151 189.846,22.272C190.044,22.383 190.219,22.543 190.369,22.751C190.515,22.969 190.619,23.246 190.682,23.581L190.711,23.581C190.899,23.124 191.203,22.745 191.62,22.439C192.027,22.138 192.533,21.983 193.14,21.973C193.91,21.983 194.504,22.221 194.921,22.689C195.328,23.151 195.532,23.764 195.532,24.528L195.532,29.775L194.627,29.775Z" style="fill:white;fill-rule:nonzero;"/>
        <path d="M202.523,25.433C202.523,24.734 202.382,24.122 202.099,23.598C201.801,23.069 201.312,22.795 200.632,22.776C199.966,22.795 199.439,23.074 199.052,23.613C198.655,24.156 198.457,24.763 198.457,25.433L202.523,25.433ZM202.966,29.539C202.273,29.808 201.56,29.948 200.824,29.957C199.617,29.933 198.753,29.548 198.229,28.804C197.711,28.075 197.456,27.128 197.466,25.965C197.476,24.779 197.765,23.818 198.335,23.082C198.886,22.353 199.633,21.983 200.575,21.973C201.606,21.993 202.36,22.368 202.836,23.097C203.288,23.812 203.515,24.698 203.515,25.753L203.515,26.235L198.457,26.235C198.457,27.064 198.665,27.748 199.08,28.285C199.485,28.855 200.09,29.146 200.892,29.155C201.251,29.155 201.628,29.089 202.024,28.957C202.421,28.85 202.735,28.726 202.966,28.584L202.966,29.539Z" style="fill:white;fill-rule:nonzero;"/>
        <path d="M205.494,22.156L206.397,22.156L206.397,29.775L205.494,29.775L205.494,22.156ZM206.397,20.12L205.494,20.12L205.494,18.866L206.397,18.866L206.397,20.12Z" style="fill:white;fill-rule:nonzero;"/>
        <path d="M208.814,23.943C208.814,23.36 208.796,22.764 208.758,22.156L209.64,22.156L209.64,23.512L209.668,23.512C209.752,23.332 209.854,23.153 209.971,22.973C210.084,22.792 210.228,22.63 210.401,22.484C210.585,22.324 210.811,22.197 211.079,22.105C211.352,22.017 211.674,21.973 212.045,21.973C212.953,21.983 213.604,22.263 213.999,22.813C214.376,23.348 214.563,24.043 214.563,24.9L214.563,29.775L213.66,29.775L213.66,25.135C213.66,24.41 213.53,23.832 213.271,23.404C212.987,22.995 212.532,22.786 211.905,22.776C211.094,22.795 210.522,23.092 210.192,23.666C210.022,23.94 209.902,24.235 209.831,24.551C209.756,24.882 209.718,25.218 209.718,25.559L209.718,29.775L208.814,29.775L208.814,23.943Z" style="fill:white;fill-rule:nonzero;"/>
        <path d="M216.561,28.672C217.121,28.985 217.761,29.146 218.481,29.155C218.938,29.155 219.323,29.031 219.639,28.783C219.949,28.554 220.109,28.225 220.119,27.796C220.109,27.343 219.931,26.988 219.582,26.73C219.233,26.481 218.823,26.257 218.353,26.057C218.131,25.951 217.919,25.835 217.717,25.714C217.515,25.592 217.321,25.458 217.138,25.312C216.973,25.152 216.836,24.966 216.728,24.757C216.624,24.557 216.572,24.324 216.572,24.055C216.582,23.295 216.831,22.757 217.32,22.441C217.796,22.129 218.347,21.973 218.973,21.973C219.185,21.973 219.46,21.993 219.799,22.032C220.133,22.089 220.464,22.184 220.794,22.314L220.709,23.133C220.176,22.905 219.629,22.786 219.067,22.776C218.596,22.776 218.221,22.863 217.942,23.039C217.797,23.131 217.684,23.257 217.604,23.418C217.519,23.575 217.476,23.784 217.476,24.046C217.476,24.203 217.53,24.351 217.639,24.493C217.742,24.624 217.881,24.744 218.056,24.85C218.23,24.953 218.428,25.057 218.649,25.165C218.871,25.267 219.088,25.376 219.3,25.494C219.781,25.703 220.2,25.983 220.559,26.333C220.917,26.684 221.101,27.169 221.11,27.788C221.11,28.187 221.032,28.521 220.878,28.789C220.713,29.066 220.506,29.29 220.257,29.46C219.716,29.791 219.143,29.957 218.536,29.957C217.826,29.957 217.139,29.837 216.477,29.596L216.561,28.672Z" style="fill:white;fill-rule:nonzero;"/>
        <path d="M227.743,23.164C227.22,22.915 226.692,22.786 226.159,22.776C225.272,22.786 224.594,23.078 224.122,23.654C223.627,24.244 223.38,25.014 223.38,25.965C223.38,26.853 223.623,27.597 224.108,28.197C224.58,28.826 225.23,29.146 226.061,29.155C226.631,29.155 227.187,29.04 227.729,28.811L227.813,29.69C227.216,29.877 226.585,29.967 225.921,29.957C224.734,29.933 223.851,29.529 223.271,28.746C222.683,27.977 222.389,27.05 222.389,25.965C222.398,24.759 222.734,23.798 223.398,23.082C224.059,22.353 224.937,21.983 226.034,21.973C226.486,21.973 226.862,22.007 227.164,22.075C227.319,22.104 227.454,22.135 227.566,22.168C227.675,22.207 227.758,22.241 227.813,22.27L227.743,23.164Z" style="fill:white;fill-rule:nonzero;"/>
        <path d="M229.576,18.565L230.479,18.565L230.479,23.434L230.508,23.434C230.711,23.007 231.01,22.654 231.405,22.374C231.801,22.117 232.267,21.983 232.804,21.973C233.788,21.983 234.459,22.283 234.817,22.872C235.166,23.469 235.335,24.25 235.325,25.213L235.325,29.775L234.422,29.775L234.422,25.223C234.422,24.887 234.403,24.568 234.365,24.266C234.323,23.979 234.24,23.725 234.117,23.506C233.887,23.029 233.402,22.786 232.667,22.776C231.874,22.795 231.308,23.109 230.968,23.718C230.633,24.327 230.47,24.985 230.479,25.691L230.479,29.775L229.576,29.775L229.576,18.565Z" style="fill:white;fill-rule:nonzero;"/>
        <path d="M242.041,25.935L241.779,25.935C241.383,25.935 240.986,25.946 240.59,25.965C240.175,26.003 239.797,26.089 239.457,26.221C239.117,26.338 238.846,26.521 238.644,26.77C238.421,27.024 238.311,27.36 238.311,27.78C238.311,28.267 238.466,28.617 238.777,28.826C239.065,29.045 239.422,29.155 239.847,29.155C240.38,29.155 240.8,29.045 241.106,28.826C241.409,28.617 241.628,28.368 241.765,28.08C241.906,27.767 241.987,27.462 242.006,27.165C242.029,26.853 242.041,26.596 242.041,26.397L242.041,25.935ZM242.125,28.555L242.097,28.555C241.885,29 241.56,29.342 241.122,29.58C240.688,29.822 240.231,29.948 239.751,29.957C239.237,29.948 238.822,29.863 238.507,29.703C238.177,29.552 237.925,29.363 237.751,29.134C237.443,28.639 237.3,28.197 237.319,27.808C237.319,27.171 237.468,26.669 237.765,26.3C238.057,25.931 238.429,25.666 238.882,25.505C239.334,25.34 239.826,25.231 240.358,25.178C240.882,25.149 241.384,25.134 241.864,25.134L242.041,25.134L242.041,24.745C242.07,23.432 241.509,22.776 240.356,22.776C239.593,22.766 238.868,22.976 238.184,23.408L238.184,22.494C238.867,22.166 239.59,21.993 240.353,21.973C242.1,21.955 242.964,22.9 242.944,24.812L242.944,28.176C242.93,28.755 242.955,29.289 243.021,29.775L242.125,29.775L242.125,28.555Z" style="fill:white;fill-rule:nonzero;"/>
        <path d="M245.982,22.958L244.492,22.958L244.492,22.156L245.982,22.156L245.982,21.601C245.982,21.193 246.001,20.793 246.039,20.405C246.058,20.025 246.131,19.687 246.258,19.39C246.38,19.079 246.577,18.833 246.851,18.653C247.108,18.478 247.469,18.39 247.93,18.39C248.085,18.39 248.244,18.395 248.409,18.405C248.574,18.434 248.698,18.478 248.783,18.536L248.727,19.36C248.523,19.249 248.283,19.192 248.005,19.192C247.702,19.192 247.474,19.263 247.318,19.404C247.152,19.565 247.042,19.759 246.985,19.988C246.929,20.216 246.9,20.46 246.9,20.718C246.891,20.986 246.886,21.244 246.886,21.492L246.886,22.156L248.55,22.156L248.55,22.958L246.886,22.958L246.886,29.775L245.982,29.775L245.982,22.958Z" style="fill:white;fill-rule:nonzero;"/>
        <path d="M253.513,22.958L251.834,22.958L251.834,27.898C251.834,28.249 251.911,28.543 252.067,28.783C252.209,29.031 252.459,29.155 252.818,29.155C253.148,29.155 253.43,29.094 253.66,28.972L253.717,29.748C253.609,29.787 253.459,29.83 253.266,29.877C253.063,29.931 252.842,29.957 252.603,29.957C252.207,29.957 251.895,29.887 251.664,29.746C251.442,29.605 251.275,29.419 251.163,29.191C251.064,28.953 251.001,28.685 250.973,28.388C250.944,28.086 250.93,27.76 250.93,27.411L250.93,22.958L249.483,22.958L249.483,22.156L250.93,22.156L250.93,20.317L251.834,19.989L251.834,22.156L253.513,22.156L253.513,22.958Z" style="fill:white;fill-rule:nonzero;"/>
    </g>
</svg>
