<svg xmlns="http://www.w3.org/2000/svg" viewBox="0 0 300.67 179.8"><defs><style>.a{fill:#fff;}.b{fill:#f90;}</style></defs><path class="a" d="M134.4,175.4a30.26,30.26,0,0,0,1.1,8.9,53.53,53.53,0,0,0,3.2,7.2,4.35,4.35,0,0,1,.7,2.3,4,4,0,0,1-1.9,3l-6.3,4.2a4.79,4.79,0,0,1-2.6.9,4.6,4.6,0,0,1-3-1.4,30.94,30.94,0,0,1-3.6-4.7c-1-1.7-2-3.6-3.1-5.9q-11.7,13.8-29.4,13.8c-8.4,0-15.1-2.4-20-7.2s-7.4-11.2-7.4-19.2c0-8.5,3-15.4,9.1-20.6s14.2-7.8,24.5-7.8a79.18,79.18,0,0,1,10.6.8c3.7.5,7.5,1.3,11.5,2.2v-7.3c0-7.6-1.6-12.9-4.7-16s-8.6-4.6-16.3-4.6A45.5,45.5,0,0,0,86,125.3a79.68,79.68,0,0,0-10.8,3.4,28.69,28.69,0,0,1-3.5,1.3,6.13,6.13,0,0,1-1.6.3c-1.4,0-2.1-1-2.1-3.1v-4.9a6.33,6.33,0,0,1,.7-3.5,7.49,7.49,0,0,1,2.8-2.1,57.57,57.57,0,0,1,12.6-4.5,60.63,60.63,0,0,1,15.6-1.9c11.9,0,20.6,2.7,26.2,8.1s8.3,13.6,8.3,24.6v32.4ZM93.8,190.6a32.41,32.41,0,0,0,10.3-1.8,22.28,22.28,0,0,0,9.5-6.4A15.87,15.87,0,0,0,117,176a35.9,35.9,0,0,0,1-8.7v-4.2a83.51,83.51,0,0,0-9.2-1.7,75.35,75.35,0,0,0-9.4-.6c-6.7,0-11.6,1.3-14.9,4s-4.9,6.5-4.9,11.5c0,4.7,1.2,8.2,3.7,10.6S89.2,190.6,93.8,190.6Zm80.3,10.8a5.58,5.58,0,0,1-3.8-1,8.15,8.15,0,0,1-2.1-3.9l-23.5-77.3a17.52,17.52,0,0,1-.9-4,2.19,2.19,0,0,1,2.4-2.5H156c1.9,0,3.2.3,3.9,1s1.4,2,2,3.9l16.8,66.2,15.6-66.2c.5-2,1.1-3.3,1.9-3.9a6.88,6.88,0,0,1,4-1h8c1.9,0,3.2.3,4,1a6.74,6.74,0,0,1,1.9,3.9l15.8,67,17.3-67a8.58,8.58,0,0,1,2-3.9,6.52,6.52,0,0,1,3.9-1h9.3a2.22,2.22,0,0,1,2.5,2.5,10,10,0,0,1-.2,1.6,14.23,14.23,0,0,1-.7,2.5l-24.1,77.3q-.9,3-2.1,3.9a6.4,6.4,0,0,1-3.8,1h-8.6c-1.9,0-3.2-.3-4-1a7.09,7.09,0,0,1-1.9-4L204,132l-15.4,64.4a7.81,7.81,0,0,1-1.9,4,6.2,6.2,0,0,1-4,1Zm128.5,2.7a66.17,66.17,0,0,1-15.4-1.8c-5-1.2-8.9-2.5-11.5-4a7.21,7.21,0,0,1-3.1-2.8,7.06,7.06,0,0,1-.6-2.8v-5.1c0-2.1.8-3.1,2.3-3.1a5.66,5.66,0,0,1,1.8.3c.6.2,1.5.6,2.5,1a54.39,54.39,0,0,0,11,3.5,60.05,60.05,0,0,0,11.9,1.2c6.3,0,11.2-1.1,14.6-3.3a10.77,10.77,0,0,0,5.2-9.5,9.74,9.74,0,0,0-2.7-7c-1.8-1.9-5.2-3.6-10.1-5.2L294,161c-7.3-2.3-12.7-5.7-16-10.2a23.83,23.83,0,0,1-5-14.5,22.26,22.26,0,0,1,2.7-11.1,25.71,25.71,0,0,1,7.2-8.2,31.74,31.74,0,0,1,10.4-5.2,43.58,43.58,0,0,1,12.6-1.7,50.2,50.2,0,0,1,6.7.4c2.3.3,4.4.7,6.5,1.1s3.9,1,5.7,1.6A21.82,21.82,0,0,1,329,115a8.65,8.65,0,0,1,3,2.5,5.39,5.39,0,0,1,.9,3.3v4.7c0,2.1-.8,3.2-2.3,3.2a10.4,10.4,0,0,1-3.8-1.2,45.75,45.75,0,0,0-19.2-3.9c-5.7,0-10.2.9-13.3,2.8s-4.7,4.8-4.7,8.9a9.44,9.44,0,0,0,3,7.1c2,1.9,5.7,3.8,11,5.5l14.2,4.5c7.2,2.3,12.4,5.5,15.5,9.6a22.63,22.63,0,0,1,4.6,14,25.71,25.71,0,0,1-2.6,11.6,26.89,26.89,0,0,1-7.3,8.8,32.23,32.23,0,0,1-11.1,5.6A47.55,47.55,0,0,1,302.6,204.1Z" transform="translate(-49.66 -110.1)"/><path class="b" d="M321.5,252.7c-32.9,24.3-80.7,37.2-121.8,37.2-57.6,0-109.5-21.3-148.7-56.7-3.1-2.8-.3-6.6,3.4-4.4,42.4,24.6,94.7,39.5,148.8,39.5a296.94,296.94,0,0,0,113.5-23.2C322.2,242.6,326.9,248.7,321.5,252.7Zm13.7-15.6c-4.2-5.4-27.8-2.6-38.5-1.3-3.2.4-3.7-2.4-.8-4.5,18.8-13.2,49.7-9.4,53.3-5s-1,35.4-18.6,50.2c-2.7,2.3-5.3,1.1-4.1-1.9C330.5,264.7,339.4,242.4,335.2,237.1Z" transform="translate(-49.66 -110.1)"/></svg>