<?xml version="1.0" encoding="utf-8"?>
<!-- Generator: Adobe Illustrator 22.0.0, SVG Export Plug-In . SVG Version: 6.00 Build 0)  -->
<svg version="1.1"
	 id="svg2" xmlns:cc="http://creativecommons.org/ns#" xmlns:dc="http://purl.org/dc/elements/1.1/" xmlns:rdf="http://www.w3.org/1999/02/22-rdf-syntax-ns#" xmlns:svg="http://www.w3.org/2000/svg"
	 xmlns="http://www.w3.org/2000/svg" xmlns:xlink="http://www.w3.org/1999/xlink" x="0px" y="0px" viewBox="0 0 214.5 245"
	 style="enable-background:new 0 0 214.5 245;" xml:space="preserve">
<style type="text/css">
	.st0{fill:#FFFFFF;}
</style>
<g id="g10" transform="matrix(1.3333333,0,0,-1.3333333,0,244.98667)">
	<g id="g12" transform="scale(0.1)">
		<path id="path14" class="st0" d="M624.7,1586.7v-403.3H395.3v86.3H482l86.2,86.2v115.2H452.6v-85.8h-57.4v201.5H221.9v-115.7h57.4
			v-85.8H164.5v288.6h288.1v-87.1h115.6v115.1l-86.2,86.7H135.6l-86.7-86.7v-346l86.7-86.2h143.6v-115.2l87.6-86.7h287.2l87.6,86.7
			v316.6h56.5v115.6H624.7z M353.9,1036.9h313l105.7,104.4v298.7h56.6v177.6H599.1v97.2l-104.4,104.6H122.7L18,1714.8v-371.5
			l104.7-104.4h125.8v-97.5L353.9,1036.9z M674.4,1018.9H346.6l-116.1,114.9v87.1H115.2L0,1335.9v386.4l115.2,115.1h387l114.9-115.2
			v-86.5h230.1v-213.6h-56.6v-288.2L674.4,1018.9"/>
		<path id="path16" class="st0" d="M22.2,933.3H44V791.8c-0.3-53.1,25-73.3,66.9-73.3c42.2,0,67.5,20.2,67.2,73.3v141.4h21.8V787
			c0-47-25.3-87-89-87c-63.4,0-88.6,40-88.6,87V933.3"/>
		<path id="path18" class="st0" d="M239.5,869.9h20.2v-28.5h0.6c7.4,19.8,29.4,33.3,52.8,33.3c46.4,0,60.5-24.3,60.5-63.7V704.8
			h-20.2v103c0,28.5-9.3,49.9-41.9,49.9c-32,0-51.2-24.3-51.8-56.6v-96.3h-20.2V869.9"/>
		<path id="path20" class="st0" d="M412,869.9h20.2V704.8H412V869.9z M412,933.3h20.2v-32.3H412V933.3"/>
		<path id="path22" class="st0" d="M452.3,869.9h22.4L526.5,725h0.6l51.2,144.9h20.8l-61.8-165.1H516L452.3,869.9"/>
		<path id="path24" class="st0" d="M737.7,798.9c-1,30.4-19.8,58.9-52.5,58.9c-33,0-51.2-28.8-54.4-58.9H737.7z M630.9,781.9
			c0.3-29.4,15.7-65,54.4-65c29.4,0,45.4,17.3,51.8,42.2h20.2c-8.6-37.4-30.4-59.2-72-59.2c-52.5,0-74.6,40.3-74.6,87.4
			c0,43.5,22.1,87.4,74.6,87.4c53.1,0,74.2-46.4,72.6-92.8L630.9,781.9"/>
		<path id="path26" class="st0" d="M785.1,869.9h18.6v-38.7h0.6c10.2,26.6,32.6,42.2,62.4,41V852c-36.5,1.9-61.4-25-61.4-59.2v-88
			h-20.2L785.1,869.9"/>
		<path id="path28" class="st0" d="M984.8,821.6c-1,24.9-20.2,36.2-43.2,36.2c-17.9,0-39-7.1-39-28.5c0-17.9,20.5-24.3,34.2-27.8
			l26.9-6.1c23-3.5,47-17,47-45.8c0-35.8-35.5-49.6-66.2-49.6c-38.4,0-64.6,17.9-67.8,58.2h20.2c1.6-27.2,21.8-41.3,48.6-41.3
			c18.9,0,45.1,8.3,45.1,31.4c0,19.2-17.9,25.6-36.2,30.1l-25.9,5.8c-26.2,7-46.1,16-46.1,44.1c0,33.6,33,46.4,62.1,46.4
			c32.9,0,59.2-17.3,60.5-53.1L984.8,821.6"/>
		<path id="path30" class="st0" d="M1040.1,869.9h20.2V704.8h-20.2V869.9z M1040.1,933.3h20.2v-32.3h-20.2V933.3"/>
		<path id="path32" class="st0" d="M1131,869.9h33.6v-17H1131V741.6c0-13.1,1.9-20.8,16.3-21.8c5.8,0,11.5,0.3,17.3,1v-17.3
			c-6.1,0-11.8-0.6-17.9-0.6c-26.9,0-36.2,8.9-35.8,37.1v112.9h-28.8v17h28.8v49.6h20.2L1131,869.9"/>
		<path id="path34" class="st0" d="M1175.2,869.9h21.4l54.4-140.8l50.9,140.8h20.2l-71.7-190.4c-11.5-27.8-18.2-35.8-43.5-35.8
			c-8,0.3-12.2,0.3-15.3,1.6v17c4.8-1,9.3-1.6,13.8-1.6c17.9,0,22.1,10.6,28.8,25.9l7,18.9L1175.2,869.9"/>
		<path id="path36" class="st0" d="M32.5,437.4c0-35.2,19.2-70.4,57.9-70.4c38.7,0,57.9,35.2,57.9,70.4c0,35.2-19.2,70.4-57.9,70.4
			C51.7,507.8,32.5,472.5,32.5,437.4z M168.4,437.4c0-47.4-27.5-87.4-78.1-87.4c-50.6,0-78.1,40-78.1,87.4
			c0,47.3,27.5,87.3,78.1,87.3C140.9,524.7,168.4,484.7,168.4,437.4"/>
		<path id="path38" class="st0" d="M262.2,502.9h-32.6V354.8h-20.2v148.1h-28.2v17h28.2v15c-0.3,28.5,7.7,48.3,40,48.3
			c5.8,0,10.6-0.3,17-1.3v-17.3c-5.4,1-9.9,1.6-14.7,1.6c-22.4,0-21.8-14.1-22.1-32v-14.4h32.6V502.9"/>
		<path id="path40" class="st0" d="M541.2,514.1c-7.7,35.2-36.8,55.4-70.1,55.4c-60.5,0-86.1-50.6-86.1-100.5s25.6-100.5,86.1-100.5
			c42.2,0,69.1,32.6,73.3,73.3h21.8c-6.1-56-41.6-91.8-95-91.8c-72,0-107.8,56.6-107.8,119c0,62.4,35.8,119,107.8,119
			c43.2,0,86.1-25.9,91.8-73.9H541.2"/>
		<path id="path42" class="st0" d="M607.5,437.4c0-35.2,19.2-70.4,57.9-70.4s57.9,35.2,57.9,70.4c0,35.2-19.2,70.4-57.9,70.4
			S607.5,472.5,607.5,437.4z M743.5,437.4c0-47.4-27.5-87.4-78.1-87.4c-50.6,0-78.1,40-78.1,87.4c0,47.3,27.5,87.3,78.1,87.3
			C716,524.7,743.5,484.7,743.5,437.4"/>
		<path id="path44" class="st0" d="M773.9,354.8h20.2v228.5h-20.2V354.8z"/>
		<path id="path46" class="st0" d="M844.6,437.4c0-35.2,19.2-70.4,57.9-70.4c38.7,0,57.9,35.2,57.9,70.4c0,35.2-19.2,70.4-57.9,70.4
			C863.8,507.8,844.6,472.5,844.6,437.4z M980.6,437.4c0-47.4-27.5-87.4-78.1-87.4c-50.6,0-78.1,40-78.1,87.4
			c0,47.3,27.5,87.3,78.1,87.3C953.1,524.7,980.6,484.7,980.6,437.4"/>
		<path id="path48" class="st0" d="M1010.7,519.9h18.6v-38.7h0.6c10.2,26.6,32.6,42.2,62.4,41V502c-36.5,1.9-61.4-25-61.4-59.2v-88
			h-20.2L1010.7,519.9"/>
		<path id="path50" class="st0" d="M1217.1,445h-0.6c-2.6-4.8-11.5-6.4-17-7.4c-34.2-6.1-76.8-5.8-76.8-38.1
			c0-20.2,17.9-32.6,36.8-32.6c30.7,0,57.9,19.5,57.6,51.8V445z M1109.6,469.4c1.9,38.7,29.1,55.3,66.9,55.3
			c29.1,0,60.8-9,60.8-53.1v-87.7c0-7.7,3.8-12.2,11.8-12.2c2.2,0,4.8,0.6,6.4,1.3v-17c-4.5-1-7.7-1.3-13.1-1.3
			c-20.5,0-23.7,11.5-23.7,28.8h-0.6c-14.1-21.4-28.5-33.6-60.2-33.6c-30.4,0-55.3,15-55.3,48.3c0,46.4,45.1,48,88.6,53.1
			c16.6,1.9,25.9,4.2,25.9,22.4c0,27.2-19.5,33.9-43.2,33.9c-24.9,0-43.5-11.5-44.1-38.4H1109.6"/>
		<path id="path52" class="st0" d="M1344.8,366.9c42.9,0,57.9,36.2,57.9,70.4c0,34.2-15,70.4-57.9,70.4c-38.4,0-54.1-36.2-54.1-70.4
			C1290.7,403.1,1306.4,366.9,1344.8,366.9z M1422.8,354.8h-18.6v31.3h-0.6c-8.7-21.4-34.9-36.1-58.9-36.1
			c-50.2,0-74.2,40.6-74.2,87.4c0,46.7,24,87.3,74.2,87.3c24.7,0,48.6-12.5,57.3-36.1h0.6v94.7h20.2L1422.8,354.8"/>
		<path id="path54" class="st0" d="M1473.1,437.4c0-35.2,19.2-70.4,57.9-70.4c38.7,0,57.9,35.2,57.9,70.4
			c0,35.2-19.2,70.4-57.9,70.4C1492.3,507.8,1473.1,472.5,1473.1,437.4z M1609.1,437.4c0-47.4-27.5-87.4-78.1-87.4
			c-50.6,0-78.1,40-78.1,87.4c0,47.3,27.5,87.3,78.1,87.3C1581.5,524.7,1609.1,484.7,1609.1,437.4"/>
		<path id="path56" class="st0" d="M46.2,23.4h74.9c32.3-0.3,60.2,10.6,60.2,47c0,29.1-22.1,44.2-60.2,44.2H46.2V23.4z M46.2,133.1
			h74.9c34.9,0,51.5,17.3,51.5,38.7c0,28.5-17.6,42.9-51.5,42.9H46.2V133.1z M24.5,233.3h96.6c38.4,0,73.3-13.4,73.3-56
			c0-24-16-46.1-39.7-51.2v-0.6c29.4-3.8,48.3-25.9,48.3-55.7c0-21.8-7.7-64.9-81.9-64.9H24.5V233.3"/>
		<path id="path58" class="st0" d="M245.9,87.4c0-35.2,19.2-70.4,57.9-70.4c38.7,0,57.9,35.2,57.9,70.4c0,35.2-19.2,70.4-57.9,70.4
			C265.1,157.8,245.9,122.5,245.9,87.4z M381.9,87.4C381.9,40,354.4,0,303.8,0c-50.6,0-78.1,40-78.1,87.4
			c0,47.3,27.5,87.3,78.1,87.3C354.4,174.7,381.9,134.7,381.9,87.4"/>
		<path id="path60" class="st0" d="M545.7,4.8h-18.6v29.8h-0.6C516,12.5,494.2,0,469.6,0c-41.6,0-57.9,24.3-57.9,62.7v107.2h20.2
			V62.4c1-29.8,12.2-45.4,44.2-45.4c34.6,0,49.6,32.6,49.6,66.2v86.7h20.2L545.7,4.8"/>
		<path id="path62" class="st0" d="M584.1,4.8h20.2v228.5h-20.2V4.8z"/>
		<path id="path64" class="st0" d="M710.2,16.9c42.9,0,57.9,36.2,57.9,70.4c0,34.2-15,70.4-57.9,70.4c-38.4,0-54.1-36.2-54.1-70.4
			C656.1,53.1,671.8,16.9,710.2,16.9z M788.3,4.8h-18.6v31.3h-0.6C760.4,14.7,734.2,0,710.2,0C660,0,636,40.6,636,87.4
			c0,46.7,24,87.3,74.2,87.3c24.6,0,48.6-12.5,57.3-36.1h0.6v94.7h20.2V4.8"/>
		<path id="path66" class="st0" d="M945.4,98.9c-1,30.4-19.8,58.9-52.5,58.9c-33,0-51.2-28.8-54.4-58.9L945.4,98.9z M838.5,81.9
			c0.3-29.4,15.7-65,54.4-65c29.4,0,45.4,17.3,51.8,42.2h20.2C956.3,21.7,934.5,0,892.9,0c-52.5,0-74.6,40.3-74.6,87.4
			c0,43.5,22.1,87.3,74.6,87.3c53.1,0,74.2-46.4,72.6-92.8H838.5"/>
		<path id="path68" class="st0" d="M992.8,169.9h18.6v-38.7h0.6c10.2,26.6,32.6,42.2,62.4,41V152c-36.5,1.9-61.4-25-61.4-59.2v-88
			h-20.2V169.9"/>
	</g>
</g>
</svg>
