<svg xmlns="http://www.w3.org/2000/svg" viewBox="0 0 287 67.37"><defs><style>.a{fill:#fff;fill-rule:evenodd;}</style></defs><polygon class="a" points="25.5 36.9 30.5 33.9 51.5 45.9 46.4 49 25.5 36.9"/><path class="a" d="M51.51,46.83v4.7c0,1-.8,1.8-2,2.6l-23.6,14.1v-4.5a2.69,2.69,0,0,1,1.5-2.5Z" transform="translate(0 -0.86)"/><polygon class="a" points="25.5 21.5 25.5 15.4 51.2 30.8 46.1 33.8 25.5 21.5"/><path class="a" d="M25.6.86l25.5,15.4-5,3L27.2,8a3.19,3.19,0,0,1-1.6-2.8Z" transform="translate(0 -0.86)"/><path class="a" d="M51.2,31.66V36a3,3,0,0,1-1.6,2.7L25.5,53.06V47Z" transform="translate(0 -0.86)"/><polygon class="a" points="5 33.8 0 30.8 25.5 15.4 25.5 21.5 5 33.8"/><path class="a" d="M25.5,47v6.1l-24-14.4A3.32,3.32,0,0,1,0,35.86v-4.3Z" transform="translate(0 -0.86)"/><path class="a" d="M51.1,16.26v4.5a2.88,2.88,0,0,1-1.5,2.5L25.5,37.76v-4.7a2.83,2.83,0,0,1,1.5-2.4Z" transform="translate(0 -0.86)"/><polygon class="a" points="75.4 21.6 75.4 25.3 64.2 25.3 64.2 32.1 73 32.1 73 35.6 64.2 35.6 64.2 42.6 75.4 42.6 75.4 46.3 59.5 46.3 59.5 21.6 75.4 21.6"/><path class="a" d="M85.1,37.86h8L90,29.66a11.22,11.22,0,0,0-.5-1.3c-.2-.5-.3-1-.5-1.6-.2.6-.3,1.1-.5,1.6s-.3.9-.5,1.3Zm16.4,9.3H97.9a1.69,1.69,0,0,1-1-.3,1.34,1.34,0,0,1-.6-.7l-1.9-5H83.9l-1.9,5a1.79,1.79,0,0,1-.5.7,1.69,1.69,0,0,1-1,.3H76.9l9.9-24.7h4.8Z" transform="translate(0 -0.86)"/><path class="a" d="M117.4,27a1.08,1.08,0,0,1-.4.5,1.42,1.42,0,0,1-.6.2,1.6,1.6,0,0,1-.8-.3,8.79,8.79,0,0,0-1-.6c-.4-.2-.9-.4-1.4-.6a5.41,5.41,0,0,0-1.9-.3,7.93,7.93,0,0,0-1.7.2,6.66,6.66,0,0,0-1.2.6,2.29,2.29,0,0,0-.7,1,2.74,2.74,0,0,0-.2,1.3,2,2,0,0,0,.5,1.4,4.49,4.49,0,0,0,1.3,1,8.39,8.39,0,0,0,1.9.7,17.23,17.23,0,0,1,2.1.7,9.49,9.49,0,0,1,2.1.9,7.61,7.61,0,0,1,1.9,1.2,5.94,5.94,0,0,1,1.3,1.8,6.69,6.69,0,0,1,.5,2.6,7.79,7.79,0,0,1-.6,3.1,7.39,7.39,0,0,1-1.7,2.5,9.48,9.48,0,0,1-2.7,1.7,10.64,10.64,0,0,1-3.7.6A19.42,19.42,0,0,1,108,47a14.16,14.16,0,0,1-2.2-.7,12.44,12.44,0,0,1-2-1,10.92,10.92,0,0,1-1.7-1.3l1.4-2.2a1,1,0,0,1,.5-.4,1.42,1.42,0,0,1,.6-.2,1.22,1.22,0,0,1,.9.4c.3.2.7.5,1.2.8s1,.5,1.6.8a7.32,7.32,0,0,0,2.2.3,4.77,4.77,0,0,0,3.1-.9,3.39,3.39,0,0,0,1.1-2.7,2.77,2.77,0,0,0-.5-1.6,3.25,3.25,0,0,0-1.3-1,8.39,8.39,0,0,0-1.9-.7l-2.1-.6a18,18,0,0,1-2.1-.8,7.61,7.61,0,0,1-1.9-1.2,6.41,6.41,0,0,1-1.3-1.9,7.78,7.78,0,0,1-.5-2.8,7.51,7.51,0,0,1,.5-2.6,7.33,7.33,0,0,1,1.6-2.3,7.6,7.6,0,0,1,2.6-1.6,9.51,9.51,0,0,1,3.5-.6,10.7,10.7,0,0,1,4.1.7,10.06,10.06,0,0,1,3.2,1.9Z" transform="translate(0 -0.86)"/><polygon class="a" points="123 46.3 127.8 46.3 127.8 21.6 123 21.6 123 46.3"/><path class="a" d="M151.9,43.46a8.26,8.26,0,0,0,2.2-.8v-4.5H151a1.45,1.45,0,0,1-.7-.2.86.86,0,0,1-.3-.6v-2.6h8.4v10a13.24,13.24,0,0,1-2,1.2,14.27,14.27,0,0,1-2.2.8,18.43,18.43,0,0,1-2.5.5,26.42,26.42,0,0,1-2.9.2,14.4,14.4,0,0,1-5.1-.9,12,12,0,0,1-4-2.6,11.09,11.09,0,0,1-2.6-4,14.17,14.17,0,0,1-.1-10.2,12,12,0,0,1,2.6-4,11.51,11.51,0,0,1,4.1-2.6,15.29,15.29,0,0,1,5.4-.9,14.9,14.9,0,0,1,5.4.9,12.83,12.83,0,0,1,3.8,2.3l-1.4,2.1a1.25,1.25,0,0,1-1.1.6,1.61,1.61,0,0,1-.9-.3,10.91,10.91,0,0,1-1.1-.6c-.4-.2-.8-.4-1.3-.6a7.49,7.49,0,0,0-1.6-.4,12.31,12.31,0,0,0-2-.2,9.34,9.34,0,0,0-3.4.6,6.77,6.77,0,0,0-2.6,1.8,7.44,7.44,0,0,0-1.6,2.7,10.46,10.46,0,0,0-.6,3.6,11.22,11.22,0,0,0,.6,3.8,8.75,8.75,0,0,0,1.7,2.8,6.54,6.54,0,0,0,2.6,1.7,8.81,8.81,0,0,0,3.3.6A9,9,0,0,0,151.9,43.46Z" transform="translate(0 -0.86)"/><path class="a" d="M169.9,32.36a3.8,3.8,0,0,0-2.9,1,5.29,5.29,0,0,0-1.4,2.9h8.1a6.8,6.8,0,0,0-.2-1.5,5.39,5.39,0,0,0-.7-1.3,2.73,2.73,0,0,0-1.2-.9,9.85,9.85,0,0,0-1.7-.2m-.1-3a10.07,10.07,0,0,1,3.1.5,10.37,10.37,0,0,1,2.5,1.5,7.16,7.16,0,0,1,1.6,2.5,9,9,0,0,1,.6,3.4v.8a.76.76,0,0,1-.2.5l-.3.3a.75.75,0,0,1-.5.1H165.5a5.86,5.86,0,0,0,1.5,4,4.94,4.94,0,0,0,3.4,1.3,9,9,0,0,0,1.8-.2c.5-.2.9-.3,1.3-.5a9.25,9.25,0,0,1,1-.5,1.34,1.34,0,0,1,.8-.2.9.9,0,0,1,.5.1l.3.3,1.3,1.5a10.7,10.7,0,0,1-1.6,1.4,6.63,6.63,0,0,1-1.9.9,11.7,11.7,0,0,1-2,.5,12.75,12.75,0,0,1-1.9.1,10.3,10.3,0,0,1-3.5-.6,7.5,7.5,0,0,1-2.8-1.8,9.72,9.72,0,0,1-1.9-2.9,10.19,10.19,0,0,1-.7-4,9.74,9.74,0,0,1,.6-3.4,7.34,7.34,0,0,1,1.7-2.7,6.43,6.43,0,0,1,2.7-1.8,5.42,5.42,0,0,1,3.7-1.1" transform="translate(0 -0.86)"/><path class="a" d="M180.8,47.16V29.66h2.6a1.08,1.08,0,0,1,1.1.8l.3,1.4a10,10,0,0,1,1.1-1,5.67,5.67,0,0,1,1.3-.8,5.78,5.78,0,0,1,1.4-.5,8.81,8.81,0,0,1,1.7-.2,7.08,7.08,0,0,1,2.6.5,4.5,4.5,0,0,1,1.9,1.4,7.19,7.19,0,0,1,1.2,2.1,7.66,7.66,0,0,1,.4,2.7v11.1h-4.3V36.06a3.74,3.74,0,0,0-.8-2.5,2.87,2.87,0,0,0-2.3-.9,5.37,5.37,0,0,0-2.1.5,5.94,5.94,0,0,0-1.8,1.3v12.7Z" transform="translate(0 -0.86)"/><path class="a" d="M208.2,44.16a3.75,3.75,0,0,0,3.3-1.5,7.36,7.36,0,0,0,1.1-4.3,7.36,7.36,0,0,0-1.1-4.3,3.75,3.75,0,0,0-3.3-1.5,4.06,4.06,0,0,0-3.4,1.5,7.36,7.36,0,0,0-1.1,4.3,7.36,7.36,0,0,0,1.1,4.3,3.94,3.94,0,0,0,3.4,1.5m0-14.8a10.06,10.06,0,0,1,3.6.6,7.83,7.83,0,0,1,4.6,4.6,11,11,0,0,1,.6,3.7,11.64,11.64,0,0,1-.6,3.8,6.78,6.78,0,0,1-1.8,2.8,7.5,7.5,0,0,1-2.8,1.8,10.46,10.46,0,0,1-3.6.6,10.06,10.06,0,0,1-3.6-.6,7.83,7.83,0,0,1-4.6-4.6,11.22,11.22,0,0,1-.6-3.8,10.64,10.64,0,0,1,.6-3.7,6.78,6.78,0,0,1,1.8-2.8,7.5,7.5,0,0,1,2.8-1.8,9.69,9.69,0,0,1,3.6-.6" transform="translate(0 -0.86)"/><path class="a" d="M220.2,47.16V29.66h2.6a1.08,1.08,0,0,1,1.1.8l.3,1.3a4.3,4.3,0,0,1,1-.9,4.13,4.13,0,0,1,1.1-.7,5,5,0,0,1,1.3-.5,6.05,6.05,0,0,1,1.5-.2,4.28,4.28,0,0,1,2.8.9,5.1,5.1,0,0,1,1.6,2.4,5.6,5.6,0,0,1,1-1.5,4.51,4.51,0,0,1,1.4-1,4.42,4.42,0,0,1,1.6-.6,9.85,9.85,0,0,1,1.7-.2,6.77,6.77,0,0,1,2.6.4,4.31,4.31,0,0,1,1.9,1.3,7.19,7.19,0,0,1,1.2,2.1,8.25,8.25,0,0,1,.4,2.8v11.1H241V36.06a3.56,3.56,0,0,0-.8-2.5,2.61,2.61,0,0,0-2.2-.8,4.3,4.3,0,0,0-1.2.2,3.33,3.33,0,0,0-1,.6,3.59,3.59,0,0,0-.7,1,3.42,3.42,0,0,0-.2,1.5v11.1h-4.3V36.06a3.85,3.85,0,0,0-.7-2.6,2.86,2.86,0,0,0-2.1-.8,3.37,3.37,0,0,0-1.7.5,7.89,7.89,0,0,0-1.5,1.2v12.8Z" transform="translate(0 -0.86)"/><path class="a" d="M249.7,47.16H254V29.66h-4.3Zm5-22.6a3,3,0,0,1-.2,1,5.55,5.55,0,0,1-.6.8,7,7,0,0,1-.9.6,3.59,3.59,0,0,1-1.1.2,4.25,4.25,0,0,1-1.1-.2,2.36,2.36,0,0,1-.9-.6,5.55,5.55,0,0,1-.6-.8,3.55,3.55,0,0,1-.2-1,4.25,4.25,0,0,1,.2-1.1,2.36,2.36,0,0,1,.6-.9,3.49,3.49,0,0,1,.9-.6,3.59,3.59,0,0,1,1.1-.2,4.25,4.25,0,0,1,1.1.2,2.36,2.36,0,0,1,.9.6,1.46,1.46,0,0,1,.6.9A4.25,4.25,0,0,1,254.7,24.56Z" transform="translate(0 -0.86)"/><path class="a" d="M271.3,33.36c-.1.2-.3.3-.4.4a.75.75,0,0,1-.5.1,1.42,1.42,0,0,1-.6-.2,5.94,5.94,0,0,0-.8-.4,3,3,0,0,0-1-.4,6.05,6.05,0,0,0-1.5-.2,4.21,4.21,0,0,0-2,.4,4.07,4.07,0,0,0-1.4,1.2,3.7,3.7,0,0,0-.8,1.8,8.75,8.75,0,0,0-.3,2.4,9.52,9.52,0,0,0,.3,2.5,5.08,5.08,0,0,0,.9,1.8,3.6,3.6,0,0,0,1.4,1.1,3.66,3.66,0,0,0,1.8.4,8.81,8.81,0,0,0,1.7-.2,11.73,11.73,0,0,0,1.1-.5,3.51,3.51,0,0,1,.8-.5,1,1,0,0,1,.7-.2.91.91,0,0,1,.8.4l1.2,1.5a10.7,10.7,0,0,1-1.6,1.4,7,7,0,0,1-1.7.9,10.55,10.55,0,0,1-1.9.5,12.1,12.1,0,0,1-1.9.1,8.15,8.15,0,0,1-3.1-.6,7.61,7.61,0,0,1-2.6-1.8,8.75,8.75,0,0,1-1.7-2.8,11.22,11.22,0,0,1-.6-3.8,10.46,10.46,0,0,1,.6-3.6,7.28,7.28,0,0,1,1.7-2.8,7.72,7.72,0,0,1,2.7-1.9,8.73,8.73,0,0,1,3.7-.7,9.51,9.51,0,0,1,3.5.6,8,8,0,0,1,2.7,1.8Z" transform="translate(0 -0.86)"/><path class="a" d="M285.8,33.06a.78.78,0,0,1-.4.4.75.75,0,0,1-.5.1,2.54,2.54,0,0,1-.7-.2,5.9,5.9,0,0,1-.8-.4c-.3-.1-.7-.3-1.1-.4a5.9,5.9,0,0,0-1.4-.2,3.68,3.68,0,0,0-2,.5,1.62,1.62,0,0,0-.7,1.4,1,1,0,0,0,.4.9,3.59,3.59,0,0,0,1,.7,5.78,5.78,0,0,0,1.4.5c.5.2,1.1.3,1.6.5s1.1.4,1.6.6a4.19,4.19,0,0,1,1.4.9,6.42,6.42,0,0,1,1,1.3,3.42,3.42,0,0,1,.4,1.8,5.93,5.93,0,0,1-.5,2.3,4.89,4.89,0,0,1-1.4,1.8,7.76,7.76,0,0,1-2.2,1.2,9.72,9.72,0,0,1-3.1.4A11,11,0,0,1,278,47a8.45,8.45,0,0,1-1.7-.5,10.09,10.09,0,0,1-1.5-.7,3.78,3.78,0,0,1-1.2-.9l1-1.6a1,1,0,0,1,.5-.4,1.45,1.45,0,0,1,.7-.2,2.35,2.35,0,0,1,.8.2,9.22,9.22,0,0,1,.8.5,11.73,11.73,0,0,0,1.1.5,7,7,0,0,0,1.6.2,4.44,4.44,0,0,0,1.3-.2,1.93,1.93,0,0,0,.9-.5,1.79,1.79,0,0,0,.5-.7,2.35,2.35,0,0,0,.2-.8,1.28,1.28,0,0,0-.4-1,3.59,3.59,0,0,0-1-.7,5.78,5.78,0,0,0-1.4-.5c-.5-.2-1.1-.3-1.6-.5s-1.1-.4-1.6-.6a6.71,6.71,0,0,1-1.4-.9,5,5,0,0,1-1-1.4,4,4,0,0,1-.4-2,4.48,4.48,0,0,1,.4-2,5.15,5.15,0,0,1,1.3-1.7,7.19,7.19,0,0,1,2.1-1.2,8.47,8.47,0,0,1,2.9-.4,9.34,9.34,0,0,1,3.4.6,6.35,6.35,0,0,1,2.5,1.6Z" transform="translate(0 -0.86)"/></svg>