<?xml version="1.0" encoding="UTF-8" standalone="no"?>
<!DOCTYPE svg PUBLIC "-//W3C//DTD SVG 1.1//EN" "http://www.w3.org/Graphics/SVG/1.1/DTD/svg11.dtd">
<svg width="100%" height="100%" viewBox="0 0 626 224" version="1.1" xmlns="http://www.w3.org/2000/svg" xmlns:xlink="http://www.w3.org/1999/xlink" xml:space="preserve" xmlns:serif="http://www.serif.com/" style="fill-rule:evenodd;clip-rule:evenodd;stroke-linejoin:round;stroke-miterlimit:2;">
    <g id="g162" transform="matrix(1.33333,0,0,-1.33333,0,223.06)">
        <g id="g164">
            <g id="g166">
                <g id="g172" transform="matrix(1,0,0,1,34.795,25.7615)">
                    <path id="path174" d="M0,0C0,-3.372 -0.185,-4.378 -1.28,-6.108C-2.463,-7.847 -4.29,-9.119 -6.929,-9.119C-9.569,-9.119 -11.396,-7.847 -12.491,-6.108C-13.673,-4.378 -13.859,-3.372 -13.859,0L-13.859,116.131C-13.859,119.503 -13.673,120.598 -12.491,122.328C-11.396,124.067 -9.569,125.25 -6.929,125.25C-4.29,125.25 -2.463,124.067 -1.28,122.328C-0.185,120.598 0,119.503 0,116.131L0,73.381C6.744,80.857 15.315,84.591 25.705,84.591C46.67,84.591 58.984,71.28 58.984,50.589L58.984,0C58.984,-3.372 58.789,-4.378 57.704,-6.108C56.521,-7.847 54.694,-9.119 52.054,-9.119C49.503,-9.119 47.579,-7.847 46.493,-6.108C45.398,-4.378 45.125,-3.372 45.125,0L45.125,48.4C45.125,64.545 36.739,72.472 22.792,72.472C8.66,72.472 0,64.448 0,48.4L0,0Z" style="fill:white;fill-rule:nonzero;"/>
                </g>
                <g id="g176" transform="matrix(1,0,0,1,133.957,59.9432)">
                    <path id="path178" d="M0,0C0,-20.144 9.48,-31.902 27.25,-31.902C34.276,-31.902 41.108,-30.083 46.846,-25.431C49.768,-22.968 51.048,-22.059 53.14,-22.059C56.15,-22.059 58.975,-24.972 58.975,-27.982C58.975,-32.087 53.14,-36.192 49.397,-38.469C43.845,-41.841 35.909,-43.66 26.429,-43.66C2.189,-43.66 -13.682,-29.174 -13.682,3.372C-13.682,33.641 1.183,50.412 24.24,50.412C47.579,50.412 61.623,33.455 61.888,7.839C61.888,5.932 61.888,3.557 60.069,1.642C58.242,-0.185 56.327,0 54.049,0L0,0ZM48.497,10.116C48.038,16.683 47.764,19.87 45.663,24.981C42.203,33.455 34.364,38.831 24.24,38.831C14.035,38.831 6.011,33.279 2.728,24.981C0.733,19.87 0.274,16.683 0,10.116L48.497,10.116Z" style="fill:white;fill-rule:nonzero;"/>
                </g>
                <g id="g180" transform="matrix(1,0,0,1,244.617,70.0601)">
                    <path id="path182" d="M0,0L27.62,0L27.62,7.388C27.62,21.335 21.238,28.715 5.199,28.715C-4.096,28.715 -9.569,26.076 -15.677,20.514C-17.769,18.599 -19.87,18.052 -21.327,18.052C-22.783,18.052 -24.337,18.599 -25.431,19.782C-26.526,20.876 -27.259,22.156 -27.259,24.063C-27.259,27.444 -23.878,30.816 -18.317,34.276C-11.573,38.469 -4.643,40.296 5.199,40.296C28.989,40.296 41.206,29.995 41.206,9.666L41.206,-44.295C41.206,-47.676 41.02,-48.673 39.934,-50.412C38.84,-52.143 36.924,-53.414 34.276,-53.414C31.725,-53.414 29.81,-52.143 28.715,-50.412C27.62,-48.673 27.62,-47.676 27.62,-44.295L27.62,-44.119C20.055,-51.41 13.311,-53.776 1.28,-53.776C-11.396,-53.776 -18.961,-51.41 -24.884,-45.39C-29.262,-40.835 -31.813,-34.091 -31.813,-26.526C-31.813,-10.478 -20.055,0 0,0M2.551,-42.203C10.204,-42.203 17.231,-41.567 22.88,-36.095C25.979,-32.996 27.62,-28.168 27.62,-20.232L27.62,-10.301L1.456,-10.301C-11.67,-10.301 -18.502,-16.048 -18.502,-26.526C-18.502,-37.004 -11.484,-42.203 2.551,-42.203" style="fill:white;fill-rule:nonzero;"/>
                </g>
                <g id="g184" transform="matrix(1,0,0,1,327.098,42.3479)">
                    <path id="path186" d="M0,0C0,-8.386 3.831,-13.214 12.129,-13.214C14.953,-13.214 16.957,-13.576 18.052,-14.309C19.596,-15.492 20.691,-16.772 20.691,-18.961C20.691,-21.238 19.596,-22.695 18.052,-23.878C16.957,-24.61 14.953,-24.972 12.129,-24.972L9.666,-24.972C-6.02,-24.972 -13.673,-13.947 -13.673,-0.362L-13.673,99.545C-13.673,102.917 -13.673,104.011 -12.491,105.741C-11.396,107.48 -9.569,108.663 -6.929,108.663C-4.281,108.663 -2.463,107.48 -1.368,105.741C-0.185,104.011 0,102.917 0,99.545L0,0Z" style="fill:white;fill-rule:nonzero;"/>
                </g>
                <g id="g188" transform="matrix(1,0,0,1,441.567,16.5273)">
                    <path id="path190" d="M0,0C-1.863,0 -3.699,0.812 -4.961,2.366L-27.02,29.624C-29.236,32.361 -28.812,36.377 -26.076,38.584C-23.33,40.799 -19.323,40.376 -17.107,37.648L4.952,10.39C7.168,7.644 6.744,3.637 4.008,1.421C2.825,0.468 1.404,0 0,0" style="fill:white;fill-rule:nonzero;"/>
                </g>
                <g id="g192" transform="matrix(1,0,0,1,398.406,69.8562)">
                    <path id="path194" d="M0,0C-1.863,0 -3.699,0.812 -4.961,2.366L-27.179,29.818C-29.395,32.555 -28.971,36.562 -26.235,38.778C-23.489,40.994 -19.482,40.57 -17.266,37.834L4.952,10.39C7.168,7.644 6.744,3.637 4.008,1.421C2.825,0.468 1.404,0 0,0" style="fill:white;fill-rule:nonzero;"/>
                </g>
                <g id="g196" transform="matrix(1,0,0,1,419.463,70.1405)">
                    <path id="path198" d="M0,0C-1.412,0 -2.834,0.468 -4.016,1.43C-6.744,3.654 -7.168,7.671 -4.943,10.398L17.107,37.542C19.323,40.27 23.339,40.694 26.076,38.469C28.812,36.245 29.227,32.228 27.003,29.501L4.952,2.357C3.69,0.803 1.854,0 0,0" style="fill:white;fill-rule:nonzero;"/>
                </g>
                <g id="g200" transform="matrix(1,0,0,1,376.068,16.5362)">
                    <path id="path202" d="M0,0C-1.404,0 -2.825,0.468 -4.008,1.421C-6.744,3.637 -7.168,7.644 -4.952,10.39L17.372,37.975C19.588,40.702 23.604,41.135 26.34,38.91C29.077,36.695 29.501,32.687 27.285,29.951L4.961,2.366C3.699,0.812 1.863,0 0,0" style="fill:white;fill-rule:nonzero;"/>
                </g>
            </g>
        </g>
    </g>
</svg>
