<svg id="Layer_1" data-name="Layer 1" xmlns="http://www.w3.org/2000/svg" viewBox="0 0 471.14 132.8"><defs><style>.cls-1{fill:#fff;}</style></defs><title>white_NIBSC</title><path class="cls-1" d="M213.25,88.68V76.62q0-17.45,0-34.9c0-5.79,0-11.59,0-17.39,0-1,.29-1.22,1.27-1.2,3.48.07,7,.06,10.44,0,.86,0,1.16.13,1.16,1.08q0,42.89,0,85.75c0,.67-.14.9-.84.9-3.68,0-7.36,0-11,0-.86,0-1.07-.56-1.4-1.08-6.41-10.07-12.84-20.13-19.2-30.23-7.12-11.28-14.5-22.39-21.31-34a2.78,2.78,0,0,0-.2,1.75c.21,13.27.07,26.54.1,39.81,0,7.52,0,15,0,22.55,0,1-.25,1.19-1.18,1.17q-5.28-.08-10.56,0c-.88,0-1.14-.19-1.14-1.11q0-41.07,0-82.15c0-1.2,0-2.4,0-3.6,0-.69.24-.87.92-.86,3.84,0,7.68,0,11.51,0a1.76,1.76,0,0,1,1.69,1q15.54,25,31.1,49.92c2.88,4.61,5.63,9.29,8.32,14C212.93,88.18,213,88.3,213.25,88.68Z" transform="translate(0 0)"/><path class="cls-1" d="M368,21.8c10.64-.05,19.86,3.91,27.71,11.3.47.44.55.68,0,1.19-2.69,2.68-5.36,5.38-8,8.13-.64.67-.94.58-1.57,0-7.65-7.26-16.71-9.27-26.71-6.56a9.9,9.9,0,0,0-7.13,12.61,8.7,8.7,0,0,0,3.71,4.7,37.81,37.81,0,0,0,9.12,4.17c5.46,1.88,11.09,3.3,16.43,5.54a40.05,40.05,0,0,1,10,5.64A19.66,19.66,0,0,1,399,82a29.12,29.12,0,0,1-1.89,14.92c-3,7-8.48,11.22-15.61,13.26-11.32,3.23-22.49,3-33.26-2.24a39.67,39.67,0,0,1-12.06-9.14c-.5-.55-.6-.86,0-1.43q4.14-3.92,8.17-7.93c.58-.57.82-.38,1.31.09,6.43,6.33,14.07,9.86,23.19,9.72a26.55,26.55,0,0,0,10.3-1.9c6.65-2.87,7.52-9.46,6.27-14a9.55,9.55,0,0,0-4.32-5.27,45.25,45.25,0,0,0-11.36-5c-5.65-1.84-11.41-3.33-16.85-5.79-1.16-.52-2.31-1.09-3.43-1.7-6.3-3.45-9.94-8.66-10.61-15.91-.73-7.82,1-14.75,6.91-20.3a28.28,28.28,0,0,1,14-6.92A36.82,36.82,0,0,1,368,21.8Z" transform="translate(0 0)"/><path class="cls-1" d="M459.32,45.5c-.6-.84-1.18-1.65-1.75-2.47a17.82,17.82,0,0,0-13.48-7.91c-7-.6-13.36.87-18.42,6.12a24.18,24.18,0,0,0-5.89,10.43c-3.16,11.27-3.22,22.51,1.06,33.5,2.66,6.81,7.44,11.64,14.82,13.22,9.48,2,18.32-.43,24-9.23.57-.88.93-1,1.81-.37,3,2.07,6,4.07,9.07,6,.63.41.76.74.33,1.41A32.61,32.61,0,0,1,447,111.8a36.48,36.48,0,0,1-19.74-2.23c-7.95-3.31-13.61-9.08-17.52-16.65a54.07,54.07,0,0,1-5.65-23.18c-.36-9.42.86-18.58,4.94-27.17C414.11,31.9,422.13,24.67,434,22.5c9.29-1.7,18.32-.77,26.56,4.34a30.49,30.49,0,0,1,10.08,10.73c.26.43.36.7-.18,1C466.72,40.88,463,43.19,459.32,45.5Z" transform="translate(0 0)"/><path class="cls-1" d="M239.81,67.12q0-21.23,0-42.45c0-1.08.25-1.41,1.37-1.39,3.59.08,7.19,0,10.79,0,.84,0,1.08.22,1.08,1.07q0,42.81,0,85.63c0,.83-.22,1.08-1.07,1.07-3.64,0-7.28,0-10.92,0-1,0-1.25-.25-1.25-1.25Q239.83,88.48,239.81,67.12Z" transform="translate(0 0)"/><path class="cls-1" d="M77.78,34c-.54,1.29-1.06,2.59-1.63,3.86a.92.92,0,0,0,.28,1.31,7.09,7.09,0,0,1,2.44,8.06,6.73,6.73,0,0,1-6.63,5.1,2.29,2.29,0,0,0-2.55,1.92,2.65,2.65,0,0,1-.25.54c-.92,1.47-1.24,2.69,0,4.42,1.82,2.53,1.22,6.05-.85,8.44a7.41,7.41,0,0,1-8.3,2c-.65-.25-1.06-.27-1.52.28a6.57,6.57,0,0,1-1.32,1.21,4,4,0,0,0-1.85,4.43c.43,2.88-1.07,5.28-3.68,6.72a7.1,7.1,0,0,1-8.11-.5,1.49,1.49,0,0,0-1.88-.19,36.43,36.43,0,0,1-3.35,1.58,1.21,1.21,0,0,0-.87,1.21,7.18,7.18,0,0,1-4.67,6.66,6.65,6.65,0,0,1-7.75-1.47,3.25,3.25,0,0,0-3.91-.94,24.22,24.22,0,0,1-2.82.55,4.23,4.23,0,0,1-.41-3c1.25-.24,2.49-.53,3.76-.69.84-.11,1-.5,1-1.26a7.37,7.37,0,0,1,11.23-6.44A6.58,6.58,0,0,1,36.44,80c.32.51.59.63,1.14.35,1-.52,2-1,3-1.43.57-.25.61-.58.49-1.13A7.41,7.41,0,0,1,53,70.13c.48.36.76.39,1.19,0,.78-.75,1.58-1.47,2.4-2.17.45-.38.46-.69.15-1.21a7.43,7.43,0,0,1,8.2-11.14A.82.82,0,0,0,66,55c.43-1,.84-2,1.35-2.94.34-.64.14-1-.35-1.39a7.33,7.33,0,0,1-2.15-8.36,7.24,7.24,0,0,1,7.32-4.71,1,1,0,0,0,1.13-.72c.52-1.38,1.13-2.73,1.71-4.09A3.8,3.8,0,0,1,77.78,34Z" transform="translate(0 0)"/><path class="cls-1" d="M110.77,38.39a38.9,38.9,0,0,0-3.69,2.84c-.45.42-.57.64-.13,1.21a7.12,7.12,0,0,1,.87,8,6.74,6.74,0,0,1-6.9,4A1.73,1.73,0,0,0,98.77,56a5,5,0,0,1-.39,1.12c-.95,1.89-1.12,3.33.92,4.94,2.35,1.87,2.54,5.67,1.07,8.41a7.39,7.39,0,0,1-7.64,3.81,1.05,1.05,0,0,0-1.35.71c-.73,1.47-1.49,2.92-2.31,4.33a1,1,0,0,0,.13,1.34A7.43,7.43,0,0,1,80.42,92a1.11,1.11,0,0,0-1.44.28,45.66,45.66,0,0,1-4.51,3.93,4,4,0,0,1-1.67-2.46c1.31-1.17,2.61-2.34,3.94-3.5A.84.84,0,0,0,77,89,7.43,7.43,0,0,1,85.3,78c.77.2,1.08,0,1.39-.6a17.15,17.15,0,0,1,1-1.88c1-1.6,1.32-2.8-.09-4.71-3.4-4.58.06-11.06,5.79-11.35a1.2,1.2,0,0,0,1.3-1q.73-2.34,1.64-4.62A1.11,1.11,0,0,0,96,52.46a7.38,7.38,0,0,1-1.39-8.9,7.29,7.29,0,0,1,8.22-3.68,1.81,1.81,0,0,0,2-.6A20.86,20.86,0,0,1,109,36,4.12,4.12,0,0,1,110.77,38.39Z" transform="translate(0 0)"/><path class="cls-1" d="M62,104.26c-1.81.84-3.6,1.73-5.44,2.5a1.34,1.34,0,0,0-.88,1.34c-.41,3.47-2.45,6-5.6,6.69a7.2,7.2,0,0,1-7.46-2.37A1.18,1.18,0,0,0,41.2,112c-1.69.47-3.41.84-5.13,1.18a1.34,1.34,0,0,0-1.26,1.13,7.44,7.44,0,1,1-.23-4.79c.26.66.49.85,1.18.67,1.47-.38,3-.7,4.44-1,.61-.12.7-.44.68-1a7.4,7.4,0,0,1,13.58-4.64c.44.63.77.62,1.34.33,1.54-.75,3.1-1.48,4.64-2.21A5.26,5.26,0,0,1,62,104.26Z" transform="translate(0 0)"/><path class="cls-1" d="M83.09,20.14a15.49,15.49,0,0,1,3.19-2.86,1.23,1.23,0,0,0,.54-1.58,7.44,7.44,0,1,1,14.43-3.62,7.46,7.46,0,0,1-3.06,8,7.33,7.33,0,0,1-8.7-.29c-.64-.5-1-.5-1.58,0-.84.8-1.73,1.53-2.6,2.29A3.39,3.39,0,0,1,83.09,20.14Z" transform="translate(0 0)"/><path class="cls-1" d="M130.49,87.84a7.39,7.39,0,0,1-8,7.16,7.45,7.45,0,1,1,1.16-14.86A7.4,7.4,0,0,1,130.49,87.84Z" transform="translate(0 0)"/><path class="cls-1" d="M62,104.26a14.24,14.24,0,0,1-1.56-2.63c-.81-4.17.29-7.19,3.37-8.91s6.22-1.18,9,1.07l1.67,2.46a8.33,8.33,0,0,1,.09,5.4,7.45,7.45,0,0,1-11.24,3.64C62.86,105,62.44,104.61,62,104.26Z" transform="translate(0 0)"/><path class="cls-1" d="M110.77,38.39,109,36a7.56,7.56,0,1,1,2.72,3.07Z" transform="translate(0 0)"/><path class="cls-1" d="M74.3,7.46a7.33,7.33,0,0,1-7.46,7.41A7.44,7.44,0,0,1,66.87,0,7.36,7.36,0,0,1,74.3,7.46Z" transform="translate(0 0)"/><path class="cls-1" d="M106.88,104.11a7.41,7.41,0,0,1,7.46,7.45,7.44,7.44,0,0,1-14.88,0A7.34,7.34,0,0,1,106.88,104.11Z" transform="translate(0 0)"/><path class="cls-1" d="M83.09,20.14l2.22,1.94c2.11,3.68,1.93,7.07-.53,9.69a7.83,7.83,0,0,1-7,2.26L75,32.82c-2.29-1.94-3.55-4.31-3-7.37a7.38,7.38,0,0,1,10.5-5.52C82.71,20,82.9,20.07,83.09,20.14Z" transform="translate(0 0)"/><path class="cls-1" d="M0,60.81a7.32,7.32,0,0,1,7.52-7.35A7.42,7.42,0,0,1,14.89,61a7.52,7.52,0,0,1-7.51,7.33A7.43,7.43,0,0,1,0,60.81Z" transform="translate(0 0)"/><path class="cls-1" d="M60.86,125.49A7.44,7.44,0,0,1,46,125.33a7.44,7.44,0,1,1,14.87.16Z" transform="translate(0 0)"/><path class="cls-1" d="M18.16,86.2a18,18,0,0,1,.41,3,11.55,11.55,0,0,1-1.29,3.44A7.46,7.46,0,0,1,3.62,88.11,7.44,7.44,0,0,1,17.7,85.23C17.86,85.55,18,85.88,18.16,86.2Z" transform="translate(0 0)"/><path class="cls-1" d="M88.79,125.22a7.44,7.44,0,1,1-7.38-7.54A7.39,7.39,0,0,1,88.79,125.22Z" transform="translate(0 0)"/><path class="cls-1" d="M38.85,6.92a7.31,7.31,0,0,1,7.38,7.48,7.41,7.41,0,0,1-7.51,7.39,7.44,7.44,0,0,1,.13-14.87Z" transform="translate(0 0)"/><path class="cls-1" d="M126.26,52.41a7.45,7.45,0,0,1,0,14.89,7.45,7.45,0,1,1,0-14.89Z" transform="translate(0 0)"/><path class="cls-1" d="M9.92,33.67a7.26,7.26,0,0,1,7.44-7.4,7.44,7.44,0,0,1,7.43,7.5,7.52,7.52,0,0,1-7.46,7.37A7.34,7.34,0,0,1,9.92,33.67Z" transform="translate(0 0)"/><path class="cls-1" d="M332,81.85a20,20,0,0,0-5.87-13.27,20.94,20.94,0,0,0-8.63-5.09l1.24-.7a18.24,18.24,0,0,0,9.1-11.51,24.26,24.26,0,0,0,.32-9.64c-1-6.59-4.16-11.75-10-15.07-4.59-2.59-9.6-3.39-14.78-3.4-11.64,0-23.28,0-34.92,0-1,0-1.27.17-1.27,1.21q.06,42.65,0,85.29c0,1,.3,1.23,1.27,1.22,11.64,0,23.27,0,34.91,0A40,40,0,0,0,314,109.39c7.18-2,12.75-6,15.8-13A30.77,30.77,0,0,0,332,81.85ZM279.1,57.17c0-6.84,0-13.67,0-20.51,0-.79.22-1,1-1,7.84,0,15.67-.06,23.51,0,4.07.06,7.75,1.34,9.7,5.25a12.27,12.27,0,0,1-.43,12.58c-2.15,3.42-5.64,4.57-9.48,4.67s-7.6,0-11.4,0-7.84,0-11.76,0C279.41,58.27,279.09,58.12,279.1,57.17Zm39.57,30c-1,7-5.35,10.86-12.53,11.4-5.91.44-11.83.11-17.75.19-2.51,0-5,0-7.55,0-.92,0-1.23-.2-1.22-1.17.06-4.48,0-9,0-13.44s0-8.88,0-13.31c0-.92.25-1.12,1.13-1.12,7.84,0,15.68-.05,23.52.06,4.92.07,9.32,1.55,12.25,5.84C318.91,79.19,319.25,83.18,318.67,87.21Z" transform="translate(0 0)"/></svg>