<svg id="Layer_1" data-name="Layer 1" xmlns="http://www.w3.org/2000/svg" viewBox="0 0 391.38 189.42"><defs><style>.cls-1,.cls-2{fill:#fff;}.cls-2{font-size:41.7px;font-family:Arial-BoldMT, Arial;font-weight:700;letter-spacing:-0.02em;}</style></defs><title>CI departmental white</title><path class="cls-1" d="M80.35,208.4V320.26H216.86a26.38,26.38,0,0,1-3-2.41c-7.9-7.64-8-16.52-8.24-24.84V245.8H231v49.57c0,3.37.12,6.85,2.94,9.55,2,2.14,5.08,2.93,8,2.93a11.59,11.59,0,0,0,8-2.81c2.94-2.82,3-6.3,3-9.67V245.8h25.4v42.26c0,9.1,0,20.91-9.37,29.79a28.8,28.8,0,0,1-2.95,2.41h37.87c-11.14-8-16.38-21.37-16.38-34.33,0-21.36,14.34-43.06,41.32-43.06,12.08,0,23.6,4.28,31.95,12.82a36.73,36.73,0,0,1,6.66,9.33l-21.11,10.45c-2-4.72-5.87-13.15-16.48-13.15a15,15,0,0,0-10.73,4.27c-6,5.73-6,14.73-6,17.88,0,11.8,4.4,22.93,16.82,22.93,11.74,0,15.24-10.34,16.15-13L367.6,304.7c-2,3.82-4,7.42-7.79,11.24a38.5,38.5,0,0,1-5.32,4.32h23.2V245.68h25.17v58.61h32.67v16h23.13V208.4H80.35" transform="translate(-77.76 -208.4)"/><path class="cls-1" d="M192.81,262.21l-13.16-2.83-13.15,2.83c-.08,0-.05.07-.05.07l.18.68h0a.32.32,0,0,1,.31.16l.2,1.08a.08.08,0,0,0,.08.07H192a.07.07,0,0,0,.07,0l.2-1.08a.34.34,0,0,1,.33-.18h0l.18-.68a0,0,0,0,0,0-.07" transform="translate(-77.76 -208.4)"/><path class="cls-1" d="M191.43,264.62a0,0,0,0,0,0,0v-.33s0,0,0,0h-2s0,0,0,0v.33a0,0,0,0,0,0,0h.08c.05,0,.05,0,.05.08a.69.69,0,0,0,.2.47.05.05,0,0,1,0,.09h-.06s0,0,0,.05a.78.78,0,0,1,0,.16v.15s0,0,0,0h0s0,0,0,0v7.38l-.11.1v.15s0,0,0,0h-.12a0,0,0,0,0,0,0v.21h2v-.21l0,0h-.12s0,0,0,0v-.12a0,0,0,0,0,0,0l-.11-.1v-7.38s0,0,0,0h0s0,0,0,0v-.15a.41.41,0,0,1,0-.16s0-.05,0-.05h-.05a.05.05,0,0,1,0-.09.66.66,0,0,0,.2-.46s0-.09,0-.09h.09" transform="translate(-77.76 -208.4)"/><path class="cls-1" d="M187.12,264.62a0,0,0,0,0,0,0v-.33s0,0,0,0h-2s0,0,0,0v.33a0,0,0,0,0,0,0h.08s.05,0,.05.08a.69.69,0,0,0,.2.47s0,.09,0,.09h-.06s0,0,0,.05a.78.78,0,0,1,0,.16v.15s0,0,0,0h0s0,0,0,0a0,0,0,0,0,0,0v7.35l-.11.1a0,0,0,0,0,0,0v.12s0,0,0,0h-.12a0,0,0,0,0,0,0v.21h2v-.21l0,0H187s0,0,0,0v-.12a0,0,0,0,0,0,0l-.11-.1v-7.38s0,0,0,0h0s0,0,0,0v-.15a.41.41,0,0,1,0-.16s0-.05,0-.05h-.06a.05.05,0,0,1,0-.09.66.66,0,0,0,.2-.46s0-.09,0-.09h.09" transform="translate(-77.76 -208.4)"/><path class="cls-1" d="M182.81,264.62a0,0,0,0,0,0,0v-.33s0,0,0,0h-2s0,0,0,0v.33a0,0,0,0,0,0,0h.08s0,0,0,.08a.72.72,0,0,0,.21.47s0,.09,0,.09H181s0,0,0,.05a.41.41,0,0,1,0,.16v.15s0,0,0,0h0s0,0,0,0v7.38l-.1.1a0,0,0,0,0,0,0v.15h-.12a0,0,0,0,0,0,0v.21h1.95v-.21s0,0,0,0h-.13v-.18l-.11-.1v-7.38s0,0,0,0h0s0,0,0,0v-.15a.41.41,0,0,1,0-.16s0-.05,0-.05h-.06c-.06,0-.06-.07,0-.09a.61.61,0,0,0,.2-.46s0-.09.05-.09h.09" transform="translate(-77.76 -208.4)"/><path class="cls-1" d="M178.49,264.62a0,0,0,0,0,0,0v-.33s0,0,0,0h-2s0,0,0,0v.33s0,0,0,0h.09s0,0,0,.08a.67.67,0,0,0,.21.47s0,.09,0,.09h-.06s0,0,0,.05a.41.41,0,0,1,0,.16v.15s0,0,0,0h0s0,0,0,0v7.38l-.1.1a0,0,0,0,0,0,0v.15h-.12a0,0,0,0,0,0,0v.21h1.95v-.21a0,0,0,0,0,0,0h-.12v-.15a0,0,0,0,0,0,0l-.1-.1v-7.35a0,0,0,0,1,0,0,0,0,0,0,1,0,0h0s0,0,0,0v-.15a.41.41,0,0,1,0-.16s0-.05,0-.05h-.06c-.06,0-.06-.07,0-.09a.61.61,0,0,0,.2-.46s0-.09,0-.09h.08" transform="translate(-77.76 -208.4)"/><path class="cls-1" d="M174.18,264.62a0,0,0,0,0,0,0v-.33s0,0,0,0h-2s0,0,0,0v.33a0,0,0,0,0,0,0h.09s0,0,0,.08a.69.69,0,0,0,.2.47.05.05,0,0,1,0,.09h-.06s0,0,0,.05a.41.41,0,0,1,0,.16v.15s0,0,0,0h0s0,0,0,0v7.38l-.11.1v.15s0,0,0,0h-.12l0,0v.21h2v-.21a0,0,0,0,0,0,0H174s0,0,0,0v-.12a0,0,0,0,0,0,0l-.11-.1v-7.38s0,0,0,0h0s0,0,0,0v-.15a.78.78,0,0,1,0-.16s0-.05,0-.05h-.06a.05.05,0,0,1,0-.09.66.66,0,0,0,.2-.46s0-.09,0-.09h.08" transform="translate(-77.76 -208.4)"/><path class="cls-1" d="M169.87,264.62a0,0,0,0,0,0,0v-.33s0,0,0,0h-2s0,0,0,0v.33a0,0,0,0,0,0,0H168s0,0,0,.08a.69.69,0,0,0,.2.47.05.05,0,0,1,0,.09h-.07s0,0,0,.05a.41.41,0,0,1,0,.16v.15s0,0,0,0h0s0,0,0,0v7.38l-.11.1v.15s0,0,0,0h-.12l0,0v.21h2v-.21a0,0,0,0,0,0,0h-.12s0,0,0,0v-.12a0,0,0,0,0,0,0l-.11-.1v-7.38s0,0,0,0h0s0,0,0,0v-.15a.78.78,0,0,1,0-.16s0-.05,0-.05h-.06a.05.05,0,0,1,0-.09.66.66,0,0,0,.2-.46s0-.09,0-.09h.08" transform="translate(-77.76 -208.4)"/><path class="cls-1" d="M185.77,256.84h-.21a0,0,0,0,1-.05,0v-.22a.05.05,0,0,0,0-.06h-.21a0,0,0,0,1-.05-.05v-.2a0,0,0,0,0,0-.05H185a.08.08,0,0,1-.09-.09,6.39,6.39,0,0,0-1-3.68,6.09,6.09,0,0,0-2.57-2.14c0-.26-.39-.37-.55-.42s-.17-.07-.17-.14v-.1c0-.08.08-.11.19-.11a.06.06,0,0,0,.06-.05v-.24a.08.08,0,0,0-.08-.07h-.22a.08.08,0,0,1-.08-.08V249a.16.16,0,0,0-.1-.13v-1.47c0-.05,0-.05.07-.05h0a0,0,0,0,0,0,0v-.15s0,0,0,0h-.06s0,0,0-.11,0-.1,0-.1h.06a0,0,0,0,0,0,0v-.14s0,0,0,0h-.07a.26.26,0,0,1-.09-.05,2.4,2.4,0,0,1-.51-.53v-.05a.1.1,0,0,0-.1-.09c-.06,0-.05-.07,0-.07s0,0,0,0v-.09a.85.85,0,0,0-.13-.22h0s-.14.17-.14.22,0,.07,0,.09,0,0,0,0,0,.07,0,.07a.1.1,0,0,0-.09.09v.05a2.4,2.4,0,0,1-.51.53.26.26,0,0,1-.09.05h-.07s0,0,0,0v.14a0,0,0,0,0,0,0h0s.05,0,.05.1,0,.1,0,.11h-.06s0,0,0,0v.15a0,0,0,0,0,0,0h0s.07,0,.07.05v1.47a.16.16,0,0,0-.1.13v.12a.08.08,0,0,1-.08.08h-.22a.08.08,0,0,0-.08.07v.24a.06.06,0,0,0,.06.05c.11,0,.19,0,.19.11v.1c0,.07-.07.11-.16.14s-.54.16-.55.42a6.09,6.09,0,0,0-2.57,2.14,6.39,6.39,0,0,0-1,3.68.08.08,0,0,1-.09.09h-.12a0,0,0,0,0,0,.05v.2a0,0,0,0,1-.05.05h-.21a.05.05,0,0,0-.05.06v.22a.05.05,0,0,1-.06,0h-.2s-.06,0-.06.05v.24s0,0,0,0a.2.2,0,0,1,.18.2c0,.23.14.25.2.25v.86a.3.3,0,0,1-.24.3.06.06,0,0,0,0,.05v.88l6-1.33h0l6,1.33v-.88s0-.05,0-.05a.3.3,0,0,1-.24-.3v-.86c.05,0,.2,0,.2-.25a.2.2,0,0,1,.18-.2s0,0,0,0v-.24c0-.05-.06-.05-.06-.05" transform="translate(-77.76 -208.4)"/><polyline class="cls-1" points="114.68 67.71 114.68 65.94 113.65 65.94 113.65 65.17 90.13 65.17 90.13 65.94 89.1 65.94 89.1 67.71 88.06 67.71 88.06 69.48 115.72 69.49 115.72 67.71 114.68 67.71"/><text class="cls-2" transform="translate(0 173.72)">CANCER INSTITUTE</text></svg>