<?xml version="1.0" encoding="UTF-8" standalone="no"?>
<!-- Created with Inkscape (http://www.inkscape.org/) -->

<svg
   width="43.994095mm"
   height="50.800003mm"
   viewBox="0 0 43.994095 50.800003"
   version="1.1"
   id="svg1"
   sodipodi:docname="nfcore-funcscan-logo-hex-dark.svg"
   inkscape:version="1.3.2 (1:1.3.2+202311252150+091e20ef0f)"
   inkscape:export-filename="nfcore-funcscan-logo-hex-dark.png"
   inkscape:export-xdpi="300"
   inkscape:export-ydpi="300"
   xmlns:inkscape="http://www.inkscape.org/namespaces/inkscape"
   xmlns:sodipodi="http://sodipodi.sourceforge.net/DTD/sodipodi-0.dtd"
   xmlns="http://www.w3.org/2000/svg"
   xmlns:svg="http://www.w3.org/2000/svg">
  <sodipodi:namedview
     id="namedview1"
     pagecolor="#505050"
     bordercolor="#ffffff"
     borderopacity="1"
     inkscape:showpageshadow="0"
     inkscape:pageopacity="0"
     inkscape:pagecheckerboard="1"
     inkscape:deskcolor="#d1d1d1"
     inkscape:document-units="mm"
     showguides="false"
     inkscape:zoom="4.3071841"
     inkscape:cx="34.825537"
     inkscape:cy="111.20955"
     inkscape:current-layer="g10"
     showgrid="false">
    <sodipodi:guide
       position="12.133177,29.02678"
       orientation="1,0"
       id="guide1"
       inkscape:locked="false" />
    <sodipodi:guide
       position="21.997045,38.893752"
       orientation="0,-1"
       id="guide2"
       inkscape:locked="false" />
    <sodipodi:guide
       position="31.84153,29.026781"
       orientation="1,0"
       id="guide3"
       inkscape:locked="false" />
    <sodipodi:guide
       position="30.427082,19.050003"
       orientation="0,-1"
       id="guide4"
       inkscape:locked="false" />
    <sodipodi:guide
       position="33.337499,16.40417"
       orientation="0,-1"
       id="guide5"
       inkscape:locked="false" />
    <sodipodi:guide
       position="20.815722,10.727297"
       orientation="0,-1"
       id="guide6"
       inkscape:locked="false" />
    <sodipodi:guide
       position="21.997045,49.108995"
       orientation="1,0"
       id="guide11"
       inkscape:locked="false" />
    <sodipodi:guide
       position="21.997047,29.02678"
       orientation="0,-1"
       id="guide12"
       inkscape:locked="false" />
    <inkscape:grid
       id="grid1"
       units="px"
       originx="0"
       originy="0"
       spacingx="0.26458332"
       spacingy="0.26458333"
       empcolor="#e50000"
       empopacity="0.30196078"
       color="#e50000"
       opacity="0.14901961"
       empspacing="5"
       dotted="true"
       gridanglex="30"
       gridanglez="30"
       visible="false" />
  </sodipodi:namedview>
  <defs
     id="defs1">
    <linearGradient
       id="f-22-3-1-7-8-1"
       x2="1"
       gradientTransform="matrix(37.935665,29.63859,-29.63859,37.935665,121.09789,274.19726)"
       gradientUnits="userSpaceOnUse">
      <stop
         id="stop12-6-8-2-3-6-1"
         offset="0"
         stop-color="#0c542a" />
      <stop
         id="stop14-1-5-0-3-8-5"
         offset=".215"
         stop-color="#0c542a" />
      <stop
         id="stop16-0-6-0-9-84-9"
         offset=".58"
         stop-color="#25af64" />
      <stop
         id="stop18-61-1-6-2-3-7"
         offset=".847"
         stop-color="#25af64" />
      <stop
         id="stop20-5-1-3-4-1-7"
         offset="1"
         stop-color="#25af64" />
    </linearGradient>
  </defs>
  <g
     inkscape:label="Layer 1"
     inkscape:groupmode="layer"
     id="layer1"
     transform="translate(-71.268573,-58.86979)">
    <g
       id="g10"
       transform="matrix(0.06595672,0,0,0.06595672,130.93371,79.44458)">
      <g
         id="g2-2-7-6-0-6"
         transform="matrix(0.26458333,0,0,0.26458333,-4127.8278,-320.80776)">
        <path
           class="st0"
           d="m 13442.739,2896.0016 -1218.5,-703.5 v -1407 l 1218.5,-703.500006 1218.5,703.500006 v 1407 z"
           id="path1-5-1-5-1-7-9-4-6-5"
           style="fill:#212529;fill-opacity:1;stroke:#000000" />
        <path
           class="st1"
           d="m 13442.739,2944.5016 -1260.5,-727.8 v -1455.4 l 1260.5,-727.800003 1260.5,727.800003 v 1455.5 z m -1176.5,-776.2 1176.5,679.3 1176.5,-679.3 v -1358.6 l -1176.5,-679.3 -1176.5,679.3 z"
           id="path2-9-6-2-8-0-2-8-89-6"
           style="fill:#24b064;fill-opacity:1;stroke:none" />
      </g>
      <g
         id="g469-8-7-2-3"
         transform="matrix(0.26458333,0,0,0.26458333,-6110.6309,-276.97227)">
        <g
           id="g24-3-2-66-9"
           transform="translate(20538.471,2032.0725)">
          <text
             xml:space="preserve"
             style="font-size:209.867px;line-height:1.15;font-family:Inter;-inkscape-font-specification:Inter;text-align:end;text-decoration-color:#000000;letter-spacing:0px;text-anchor:end;fill:#ffffff;stroke:none;stroke-width:8.11843;stroke-dasharray:8.11843, 8.11843;paint-order:stroke markers fill"
             x="-126.774"
             y="132.04375"
             id="text14-0-4-8-3-49-4"><tspan
               sodipodi:role="line"
               id="tspan14-9-8-7-5-5-8"
               x="-126.774"
               y="132.04375"
               style="font-style:normal;font-variant:normal;font-weight:bold;font-stretch:normal;font-size:209.867px;font-family:'Maven Pro';-inkscape-font-specification:'Maven Pro Bold';text-align:start;text-anchor:start;fill:#ffffff;stroke:none">funcscan</tspan></text>
          <g
             id="g15-1-1-3-1-0-1"
             transform="translate(3.4958484e-6,-433.00129)">
            <g
               id="g18-7-0-1-7-4-2">
              <g
                 id="layer2-7-3-0-8-8-9"
                 style="display:inline"
                 transform="translate(-174.624,108)">
                <g
                   id="g4209-1-0-0-9-7-3">
                  <path
                     id="path24-1-4-5-4-1-9"
                     d="m 1084.1,163.75 v 3.6 c -0.1,0 -0.1,0 -0.2,0.1 l -1.8,-1.5 c -4,-3.4 -8.3,-6.4 -13.1,-8.8 -0.8,-0.4 -1.6,-0.9 -2.5,-1.1 -0.1,-0.1 -0.2,-0.2 -0.3,-0.2 -1.8,-0.7 -3.6,-1.3 -5.5,-1.8 -4.1,-0.9 -8.2,-1 -12.3,-0.2 -5.3,1.1 -10,3.4 -14.5,6.4 -4.4,3 -8.4,6.5 -12.1,10.2 -0.7,0.7 -0.7,0.7 -1.1,-0.2 -2,-4.1 -4.2,-8.1 -6.9,-11.8 -2.1,-2.8 -4.4,-5.4 -7.4,-7.2 -3,-1.9 -6.3,-2.6 -9.8,-1.7 -4.3,1 -7.8,3.6 -11.1,6.4 -2,1.5 -3.8,3.3 -5.6,5 -1.7,1.5 -3.3,3 -5,4.5 -0.3,0.3 -0.5,0.3 -0.8,0 -1.7,-1.8 -3.5,-3.4 -5.6,-4.5 -3.1,-1.7 -6.3,-1.9 -9.6,-0.8 -2.8,0.9 -5.2,2.4 -7.7,4 -1,0.6 -1.9,1.3 -2.9,1.8 v -0.2 c 0.1,-0.2 0.1,-0.4 0.1,-0.6 0.2,-4.4 0.5,-8.9 1.2,-13.3 1,-6.1 2.5,-12 5.2,-17.5 2,-4.1 4.7,-7.9 8.1,-11 4.5,-4.1 9.8,-6.7 15.6,-8.3 6.3,-1.8 12.7,-2.6 19.2,-2.9 2.6,-0.1 5.1,-0.2 7.7,-0.3 1.3,0.5 2.6,0.8 3.9,1.2 1.9,0.6 3.8,1.2 5.7,1.7 1,0.4 1.9,0.7 2.9,1.1 3.7,1.3 7.3,3 10.4,5.5 0.8,0.6 1.6,1.3 2.4,2 -0.2,-0.6 -0.4,-1.1 -0.6,-1.7 -1.4,-3.7 -3.5,-6.7 -6.9,-8.8 -1.4,-0.9 -2.9,-1.5 -4.4,-2.3 0.1,0 0.3,0 0.4,-0.1 4.5,-0.8 9.1,-1.2 13.7,-1.4 3.9,-0.2 7.9,-0.1 11.8,0.3 4.6,0.5 9.1,1.4 13.4,3 6.4,2.4 11.9,6.1 16.2,11.5 3.7,4.7 6.1,10.1 7.6,15.9 1.5,5.7 2.1,11.6 2.3,17.5 -0.1,2.1 -0.1,4.3 -0.1,6.5"
                     class="st0"
                     style="fill:#24af63" />
                  <path
                     id="path26-5-4-0-1-72-0"
                     d="m 1084.1,157.15 h 0.1 v 6.6 h -0.1 z"
                     class="st4"
                     style="fill:#ecdc86" />
                  <path
                     id="path28-9-4-3-6-7-8"
                     d="m 1047.6,62.25 v 0.1 h -4.5 v -0.1 z"
                     style="fill:#a0918f" />
                  <path
                     id="path30-7-4-1-4-2-8"
                     d="m 1050.5,250.65 c 2.5,-1 4.9,-2.3 7.3,-3.6 2.8,-1.7 5.4,-3.5 8,-5.4 2.2,-1.6 4.3,-3.3 6.4,-5.1 l 3.6,-3 c 0.2,-0.2 0.2,-0.1 0.3,0.1 0.4,1.6 0.7,3.3 1.1,5 0.5,2.3 0.8,4.6 1.1,6.9 0.3,2.7 0.4,5.3 0.2,8 -0.2,3.3 -0.8,6.6 -2,9.7 q -1.05,2.85 -2.7,5.4 c -1.4,2.2 -3,4.2 -5,5.9 -2.3,2.1 -4.9,3.9 -7.7,5.4 -3.7,2.1 -7.7,3.6 -11.8,4.8 -3.9,1.2 -7.9,2 -11.9,2.7 -1.1,0.2 -2.2,0.4 -3.3,0.4 -2.3,-0.1 -4.6,-0.6 -6.8,-1.4 -3.3,-1.3 -6.2,-3.3 -9.5,-4.8 -1.8,-0.8 -3.6,-1.4 -5.5,-1.5 -2.5,-0.2 -4.6,0.7 -6.4,2.4 l -3.9,3.9 c -2.2,2.2 -4.8,3.7 -7.9,4.2 -2.1,0.3 -4.1,0.2 -6.2,-0.1 -2.9,-0.4 -5.7,-1.1 -8.4,-1.9 -4,-1.3 -7.7,-3.1 -11.1,-5.7 -3.2,-2.4 -5.7,-5.4 -7.8,-8.8 -2.1,-3.5 -3.3,-7.2 -4.2,-11.1 -0.4,-1.7 -0.6,-3.5 -0.8,-5.2 -0.3,-2.5 -0.4,-4.9 -0.3,-7.4 0.1,-3.5 0.4,-6.9 0.9,-10.4 0.4,0.4 0.8,0.7 1.1,1 2.2,2 4.7,3.8 7.3,5.4 2.9,1.7 6.1,3.1 9.4,4 2.2,0.6 4.5,1 6.8,1.1 1.9,0.2 3.8,0.2 5.7,0.1 2.2,-0.1 4.5,-0.3 6.7,-0.9 0.3,0 0.6,0 0.8,-0.1 q 3,-0.6 6,-1.5 c 2.3,-0.7 4.5,-1.4 6.7,-2.2 2.1,-0.8 4.3,-1.7 6.4,-2.6 0.6,-0.3 1,-0.2 1.5,0.2 3.5,2.7 7.3,5 11.4,6.7 4.6,1.8 9.3,2.7 14.2,2.3 3.6,-0.7 7,-1.6 10.3,-2.9"
                     class="st0"
                     style="fill:#24af63" />
                  <path
                     id="path32-7-7-80-3-26-5"
                     d="m 1050.5,250.65 c -3.3,1.3 -6.7,2.2 -10.2,2.5 -4.9,0.4 -9.6,-0.5 -14.2,-2.3 -4.1,-1.6 -7.9,-3.9 -11.4,-6.7 -0.5,-0.4 -0.9,-0.5 -1.5,-0.2 -2.1,0.9 -4.2,1.8 -6.4,2.6 -2.2,0.8 -4.4,1.6 -6.7,2.2 -2,0.6 -4,1 -6,1.5 -0.3,0.1 -0.6,0.1 -0.8,0.1 l 2.1,-2.4 c 2.8,-3.2 4.8,-6.9 5.9,-11.1 1.6,-5.6 3.2,-11.3 4.6,-17 1,-4.2 1.8,-8.4 2.4,-12.7 0.4,-3.1 1,-14.9 0.8,-17.7 -0.5,-8.6 -2.4,-16.8 -5.9,-24.7 -2.1,-4.7 -5.7,-7.9 -10.7,-9.2 -2.2,-0.6 -4.4,-0.4 -6.5,0.3 -0.2,0.1 -0.3,0.2 -0.5,0.1 3.3,-2.8 6.7,-5.4 11.1,-6.4 3.5,-0.8 6.8,-0.2 9.8,1.7 3,1.9 5.3,4.4 7.4,7.2 2.7,3.7 4.9,7.7 6.9,11.8 0.4,0.9 0.4,0.9 1.1,0.2 3.7,-3.8 7.7,-7.3 12.1,-10.2 4.4,-3 9.2,-5.3 14.5,-6.4 4.1,-0.8 8.2,-0.7 12.3,0.2 1.9,0.4 3.7,1 5.5,1.8 0.1,0.1 0.3,0.1 0.3,0.2 -5.3,0.1 -9.8,2.1 -13.9,5.2 -2,1.5 -3.8,3.2 -5.2,5.3 -1.1,1.7 -2.1,3.6 -2.9,5.5 -1.8,3.8 -3.3,7.8 -4.4,11.9 -0.9,3.5 -1.5,7.1 -1.8,10.7 -0.2,2.8 -0.3,5.6 -0.2,8.4 0.1,3.4 0.5,6.8 0.9,10.3 0.7,5.7 1.7,11.4 2.7,17.1 0.5,3.1 0.9,6.3 1.5,9.5 0.7,4.6 3.3,8 7,10.6 0,-0.1 0.2,0 0.3,0.1"
                     class="st4"
                     style="fill:#ecdc86" />
                  <path
                     id="path34-6-6-17-5-1-0"
                     d="m 1043.1,62.35 h 4.5 c 3.6,0.2 7.2,0.8 10.6,2 2.7,0.9 3.3,2.7 1.7,5 -1.1,1.6 -2.7,2.8 -4.4,3.9 -2.1,1.4 -4.4,2.6 -6.9,3.5 -2.5,1 -4.9,0 -6.5,-2.5 -0.5,-0.8 -0.9,-1.6 -1.1,-2.5 -0.1,-0.3 -0.2,-0.4 -0.5,-0.4 -5.6,-1 -10.6,0.3 -14.7,4.3 -3.4,3.2 -5.4,7.3 -6.8,11.7 -1.3,4 -1.9,8 -2.1,12.2 -0.2,3.7 0.1,7.4 0.6,11 0.1,0.6 0.3,1.2 0.3,1.9 0.1,0.8 -0.2,1.5 -0.8,1.9 -0.7,0.5 -1.5,0.4 -2.3,0.4 -1.9,-0.6 -3.8,-1.2 -5.7,-1.7 v -1.3 c 0,-2 0,-3.9 0.1,-5.9 0.4,-7.7 1.6,-15.3 4.6,-22.5 2.2,-5.4 5.4,-10.1 9.9,-13.8 3.7,-3.1 7.9,-5.1 12.6,-6.2 2.4,-0.6 4.6,-0.9 6.9,-1"
                     style="fill:#3f2b29" />
                  <path
                     id="path36-7-31-9-4-0-9"
                     d="m 1014.8,114.65 c 0.8,0 1.6,0.1 2.3,-0.4 0.7,-0.5 0.9,-1.2 0.8,-1.9 -0.1,-0.6 -0.2,-1.3 -0.3,-1.9 0.4,0 0.7,-0.1 1.1,-0.1 1.4,0.8 2.9,1.5 4.4,2.3 3.4,2.1 5.5,5.1 6.9,8.8 0.2,0.6 0.4,1.1 0.6,1.7 -0.8,-0.7 -1.6,-1.4 -2.4,-2 -3.2,-2.4 -6.7,-4.1 -10.4,-5.5 -1.1,-0.3 -2,-0.6 -3,-1"
                     class="st7"
                     style="fill:#396e35" />
                  <path
                     id="path38-3-7-1-8-6-6"
                     d="m 1009.1,111.65 v 1.3 c -1.3,-0.4 -2.6,-0.7 -3.9,-1.2 1.4,-0.1 2.7,-0.1 3.9,-0.1"
                     class="st7"
                     style="fill:#396e35" />
                </g>
              </g>
              <text
                 id="text53-6-5-0-7-1-3"
                 x="-125.72501"
                 y="349.245"
                 font-size="209.87"
                 font-weight="bold"
                 style="font-weight:700;font-size:209.87px;font-family:'Maven Pro'"><tspan
                   id="tspan55-5-9-3-3-5-8"
                   x="-125.72501"
                   y="349.245"
                   class="st0 st1 st2"
                   font-size="209.87"
                   font-weight="bold"
                   style="font-weight:700;font-size:209.867px;font-family:'Maven Pro';fill:#24af63">nf-</tspan></text>
              <text
                 id="text69-63-6-5-3-9-5"
                 x="182.517"
                 y="349.245"
                 font-size="209.87"
                 font-weight="bold"
                 style="font-weight:700;font-size:209.87px;font-family:'Maven Pro';fill:#ffffff"><tspan
                   id="tspan71-9-2-9-5-4-6"
                   x="182.517"
                   y="349.245"
                   class="st0 st1 st2"
                   font-size="209.87"
                   font-weight="bold"
                   style="font-weight:700;font-size:209.867px;font-family:'Maven Pro';fill:#ffffff"><tspan
                     id="tspan73-4-1-4-0-9-1"
                     style="fill:#ffffff">core/</tspan></tspan></text>
              <path
                 id="path67-8-7-8-1-0-1"
                 d="m 125.813,274.116 -21.532,21.616 h 61.092 v -21.617 z"
                 style="fill:url(#f-22-3-1-7-8-1)" />
            </g>
          </g>
          <g
             id="g1209"
             transform="matrix(3.2532702,0,0,3.2532702,-162.48602,-1465.5465)">
            <g
               id="Layer_2-7"
               data-name="Layer 2">
              <g
                 id="Layer_3"
                 data-name="Layer 3">
                <polygon
                   class="cls-1"
                   points="145.97,117.62 132.23,141.43 104.73,141.43 90.98,117.62 104.73,93.8 132.23,93.8 "
                   id="polygon6"
                   style="fill:none;stroke:#3d4ea1;stroke-width:2px;stroke-miterlimit:10" />
                <polygon
                   class="cls-2"
                   points="203.36,151.33 189.61,175.15 162.11,175.15 148.36,151.33 162.11,127.52 189.61,127.52 "
                   id="polygon8"
                   style="fill:#6266ae;stroke:#3d4ea1;stroke-width:2px;stroke-miterlimit:10" />
                <polygon
                   class="cls-1"
                   points="203.24,96.61 189.49,120.42 161.99,120.42 148.24,96.61 161.99,72.8 189.49,72.8 "
                   id="polygon10"
                   style="fill:none;stroke:#3d4ea1;stroke-width:2px;stroke-miterlimit:10" />
                <polygon
                   class="cls-1"
                   points="248.92,124.71 235.17,148.53 207.68,148.53 193.93,124.71 207.68,100.9 235.17,100.9 "
                   id="polygon12"
                   style="fill:none;stroke:#3d4ea1;stroke-width:2px;stroke-miterlimit:10" />
                <line
                   class="cls-1"
                   x1="151.92999"
                   y1="138"
                   x2="141.24001"
                   y2="131.32001"
                   id="line14"
                   style="fill:none;stroke:#3d4ea1;stroke-width:2px;stroke-miterlimit:10" />
                <line
                   class="cls-1"
                   x1="156.08"
                   y1="130.31"
                   x2="147.02"
                   y2="145.84"
                   id="line16"
                   style="fill:none;stroke:#3d4ea1;stroke-width:2px;stroke-miterlimit:10" />
                <line
                   class="cls-1"
                   x1="126.19"
                   y1="88.830002"
                   x2="109.42"
                   y2="88.830002"
                   id="line18"
                   style="fill:none;stroke:#3d4ea1;stroke-width:2px;stroke-miterlimit:10" />
                <line
                   class="cls-3"
                   x1="208.39"
                   y1="94.830002"
                   x2="201.34"
                   y2="82.830002"
                   id="line20"
                   style="fill:none;stroke:#3d4ea1;stroke-width:2px;stroke-linecap:square;stroke-linejoin:bevel" />
                <line
                   class="cls-4"
                   x1="223.42999"
                   y1="95.169998"
                   x2="207.89999"
                   y2="95.169998"
                   id="line22"
                   style="fill:none;stroke:#3d4ea1;stroke-width:2px;stroke-linejoin:bevel" />
                <line
                   class="cls-3"
                   x1="206.66"
                   y1="153.39999"
                   x2="220.42999"
                   y2="153.35001"
                   id="line24"
                   style="fill:none;stroke:#3d4ea1;stroke-width:2px;stroke-linecap:square;stroke-linejoin:bevel" />
                <line
                   class="cls-4"
                   x1="199.00999"
                   y1="166.09"
                   x2="206.61"
                   y2="152.81"
                   id="line26"
                   style="fill:none;stroke:#3d4ea1;stroke-width:2px;stroke-linejoin:bevel" />
                <line
                   class="cls-1"
                   x1="117.81"
                   y1="77.709999"
                   x2="117.81"
                   y2="88.830002"
                   id="line28"
                   style="fill:none;stroke:#3d4ea1;stroke-width:2px;stroke-miterlimit:10" />
                <circle
                   class="cls-1"
                   cx="118.48"
                   cy="147.81"
                   r="2.6900001"
                   id="circle30"
                   style="fill:none;stroke:#3d4ea1;stroke-width:2px;stroke-miterlimit:10" />
                <circle
                   class="cls-1"
                   cx="258.14001"
                   cy="105.24"
                   r="2.6900001"
                   id="circle32"
                   style="fill:none;stroke:#3d4ea1;stroke-width:2px;stroke-miterlimit:10" />
                <line
                   class="cls-1"
                   x1="250.78999"
                   y1="119.34"
                   x2="242.24001"
                   y2="104.91"
                   id="line34"
                   style="fill:none;stroke:#3d4ea1;stroke-width:2px;stroke-miterlimit:10" />
                <line
                   class="cls-1"
                   x1="256.07999"
                   y1="106.46"
                   x2="246.50999"
                   y2="112.13"
                   id="line36"
                   style="fill:none;stroke:#3d4ea1;stroke-width:2px;stroke-miterlimit:10" />
              </g>
              <g
                 id="Layer_4"
                 data-name="Layer 4">
                <g
                   aria-label="FUNCSCAN"
                   transform="translate(61.45,221.43)"
                   id="text39"
                   class="cls-5"
                   style="font-weight:700;font-size:45px;font-family:BerlinSansFBDemi-Bold, 'Berlin Sans FB Demi';fill:#6266ae;stroke:#6266ae;stroke-miterlimit:10">
                  <path
                     d="m 24.719238,-23.664551 q 0,0.241699 -0.439453,0.241699 -1.647949,0 -5.009765,-0.285644 -3.339844,-0.285645 -5.009766,-0.285645 -2.109375,0 -2.460938,0.153809 -0.812988,0.373535 -0.812988,2.109375 0,2.087402 1.054688,2.373047 0.439453,0.109863 1.340332,0.109863 1.516113,0 4.526367,-0.153808 3.032226,-0.175782 4.54834,-0.175782 0.725097,0 0.725097,3.867188 0,3.361816 -0.241699,3.911133 -0.153808,0.395507 -0.593262,0.395507 0.285645,0 -1.384277,-0.153808 -2.351074,-0.219727 -7.119141,-0.219727 -1.538085,0 -1.735839,0.02197 -1.120606,0.175781 -1.120606,0.944824 0,3.1201173 0.263672,7.1850587 0.219727,3.66943361 0.219727,3.2739258 0,0.57128906 -1.384278,0.65917969 Q 10.458984,0.28564453 8.1298828,0.28564453 4.0209961,0.28564453 2.8344727,0 2.1972656,-0.15380859 2.1972656,-0.68115234 q 0,-2.43896486 0.1538086,-7.31689456 0.1757813,-4.8999021 0.1757813,-7.3388671 0,-2.900391 -0.2636719,-7.294922 -0.3955078,-6.789551 -0.4174805,-7.294922 l -0.021973,-0.263672 q -0.021973,-0.549316 0.6591797,-0.549316 1.6259765,0 4.8999023,0.06592 3.2958989,0.06592 4.9438479,0.06592 1.757813,0 5.273438,-0.263672 3.537597,-0.263672 5.29541,-0.263672 1.098633,0 1.230469,0.900879 0,0.944824 0.08789,2.834473 0.04395,0.483398 0.285645,1.867675 0.219726,1.208497 0.219726,1.867676 z"
                     id="path375" />
                  <path
                     d="m 53.547363,-10.788574 q 0,5.6030271 -1.340332,7.6464842 -2.460937,3.73535152 -12.282715,3.73535152 -4.438476,0 -6.833496,-0.68115234 Q 29.267578,-1.1865234 28.125,-4.284668 q -0.571289,-1.5161132 -0.571289,-5.4052734 0,-0.9008786 0.06592,-2.6806636 0.06592,-1.779786 0.06592,-2.658692 0,-2.548828 -0.241699,-7.646484 -0.2417,-5.097656 -0.2417,-7.624512 0,-0.527344 0.461426,-0.527344 1.340332,0 4.042969,0.109864 2.724609,0.109863 4.064941,0.109863 0.549317,0 0.549317,0.483398 0,2.900391 -0.197754,8.701172 -0.175781,5.778809 -0.175781,8.679199 0,3.4497074 0.725097,4.6582035 0.966797,1.6479492 4.042969,1.6479492 4.504395,0 4.504395,-4.3725587 0,-3.186035 -0.153809,-9.558105 -0.153809,-6.372071 -0.153809,-9.558106 0,-0.681152 0.549317,-0.681152 1.296386,0 3.911133,-0.109863 2.614746,-0.109864 3.911132,-0.109864 0.637207,0 0.637207,0.527344 0,2.526856 -0.219726,7.624512 -0.197754,5.097656 -0.197754,7.646484 0,0.703125 0.02197,2.131348 0.02197,1.40625 0.02197,2.109375 z"
                     id="path377" />
                  <path
                     d="m 87.275391,-30.146484 q 0,2.504882 -0.219727,7.536621 -0.197754,5.009765 -0.197754,7.536621 V -0.59326172 Q 86.85791,0 86.220703,0 85.693359,0 84.616699,0.04394531 83.562012,0.08789062 83.034668,0.08789062 82.463379,0.08789062 81.320801,0 q -1.142578,-0.08789062 -1.713867,-0.08789062 -0.395508,0 -0.944825,-0.72509766 -1.582031,-2.13134762 -7.11914,-9.44824172 -1.516114,-2.043458 -4.614258,-6.020508 -0.08789,-0.131836 -0.32959,-0.263672 -0.175781,0.153808 -0.175781,0.483398 0,2.548828 0.131836,7.6464847 0.153808,5.0976562 0.153808,7.64648433 Q 66.708984,0 66.115723,0 h -7.602539 q -0.637207,0 -0.637207,-0.68115234 0,-2.37304686 0.219726,-7.16308596 0.241699,-4.7900387 0.241699,-7.1850587 0,-2.526855 -0.219726,-7.558594 -0.197754,-5.031738 -0.197754,-7.536621 0,-0.483398 0.856933,-0.483398 1.274415,0 3.14209,-0.175781 0.439453,-0.04395 1.73584,-0.285645 1.098633,-0.197754 1.73584,-0.197754 0.263672,0 0.812988,0.74707 l 8.195801,11.228028 q 1.098633,1.516113 3.317871,4.438476 0.549317,0.681153 0.944824,0.681153 0.285645,0 0.285645,-1.713867 0,-2.307129 -0.263672,-6.94336 -0.241699,-4.63623 -0.241699,-6.965332 0,-0.812988 0.461426,-0.812988 1.318359,0 3.97705,-0.109863 2.658692,-0.109864 3.977051,-0.109864 0.417481,0 0.417481,0.681153 z"
                     id="path379" />
                  <path
                     d="m 117.02637,-4.9658203 q 0,0.3515625 -0.46143,0.9228516 -4.04297,4.81201167 -10.74463,4.81201167 -6.855466,0 -11.118162,-4.68017577 -4.152832,-4.5263672 -4.152832,-11.4257812 0,-6.679688 4.064942,-11.337891 4.240722,-4.877929 10.788572,-4.877929 7.11914,0 11.16211,4.372558 0.43945,0.483399 0.43945,0.856934 0,0.41748 -1.53808,3.098144 -1.51611,2.680664 -1.91162,3.010254 -0.17578,0.175782 -0.43946,0.175782 -0.10986,0 -1.09863,-0.878907 -1.18652,-1.054687 -2.3291,-1.647949 -1.73584,-0.878906 -3.60352,-0.878906 -3.22998,0 -5.16357,2.416992 -1.779785,2.241211 -1.779785,5.537109 0,3.339844 1.779785,5.6030277 1.93359,2.4609375 5.16357,2.4609375 1.91163,0 3.62549,-0.834961 1.12061,-0.5493164 2.28516,-1.5380859 0.9668,-0.8349613 1.07666,-0.8349613 0.21973,0 0.43945,0.2417 0.35156,0.3955074 1.91162,2.7465816 1.60401,2.4389649 1.60401,2.6806641 z"
                     id="path381" />
                  <path
                     d="m 134.38477,-10.107422 q 0,4.4604493 -3.75733,7.6464845 -3.2959,2.8125 -8.02002,3.581543 -0.17578,0.021973 -0.28564,0.021973 -0.50537,0 -2.24121,-3.0761718 -1.73584,-3.0981446 -1.73584,-3.7792969 0,-0.2416992 0.32959,-0.3076172 3.18603,-0.7250977 4.21875,-1.2304688 2.28515,-1.1425781 2.28515,-3.3837898 0,-1.428222 -1.49414,-3.186035 -2.59277,-2.988281 -2.8125,-3.317871 -1.51611,-2.285156 -1.51611,-5.053711 0,-4.020996 3.71338,-6.679687 3.03222,-2.197266 7.44873,-2.856446 0.2417,-0.02197 0.37353,-0.02197 0.32959,0 0.52735,0.527343 0.57129,1.604004 2.65869,5.800782 0.0659,0.131836 0.0659,0.219726 0,0.373535 -0.39551,0.373535 -0.17578,0 -0.59326,-0.06592 -0.41748,-0.06592 -0.63721,-0.06592 -1.58203,0 -2.76855,0.725097 -1.42823,0.834961 -1.42823,2.329102 0,1.340332 1.58203,3.295898 2.79053,3.515625 2.92237,3.691406 1.56006,2.416993 1.56006,4.812012 z"
                     id="path383" />
                  <path
                     d="m 163.69629,-4.9658203 q 0,0.3515625 -0.46143,0.9228516 -4.04297,4.81201167 -10.74463,4.81201167 -6.85546,0 -11.11816,-4.68017577 -4.15283,-4.5263672 -4.15283,-11.4257812 0,-6.679688 4.06494,-11.337891 4.24072,-4.877929 10.78857,-4.877929 7.11914,0 11.16211,4.372558 0.43946,0.483399 0.43946,0.856934 0,0.41748 -1.53809,3.098144 -1.51611,2.680664 -1.91162,3.010254 -0.17578,0.175782 -0.43945,0.175782 -0.10987,0 -1.09864,-0.878907 -1.18652,-1.054687 -2.3291,-1.647949 -1.73584,-0.878906 -3.60351,-0.878906 -3.22998,0 -5.16358,2.416992 -1.77978,2.241211 -1.77978,5.537109 0,3.339844 1.77978,5.6030277 1.9336,2.4609375 5.16358,2.4609375 1.91162,0 3.62548,-0.834961 1.12061,-0.5493164 2.28516,-1.5380859 0.9668,-0.8349613 1.07666,-0.8349613 0.21973,0 0.43945,0.2417 0.35157,0.3955074 1.91163,2.7465816 1.604,2.4389649 1.604,2.6806641 z"
                     id="path385" />
                  <path
                     d="m 195.05127,-0.54931641 q 0,0.39550782 -0.54932,0.54931641 -0.65918,0.17578125 -4.08691,0.17578125 -3.14209,0 -4.04297,-0.17578125 -0.74707,-0.15380859 -0.94482,-0.98876953 -0.74707,-3.16406247 -1.16455,-3.38378907 -0.35157,-0.1538086 -5.88868,-0.1538086 -3.73535,0 -3.97705,0.1977539 -0.37353,0.3515625 -0.83496,2.3510742 Q 173.14453,-0.15380859 172.55127,0 q -0.74707,0.17578125 -5.00977,0.17578125 -3.36181,0 -3.36181,-0.63720703 0,-0.57128902 4.96582,-14.04052722 5.3833,-14.567871 5.84472,-16.018067 0.26368,-0.83496 0.61524,-0.83496 0.59326,0 1.82373,0.109863 1.25244,0.109863 1.86767,0.109863 0.59327,0 1.73584,-0.06592 1.16456,-0.08789 1.73584,-0.08789 0.41749,0 0.76905,0.725097 1.07666,2.307129 6.28418,15.820313 5.22949,13.6010739 5.22949,14.19433559 z M 179.47266,-20.566406 q -0.46143,0.966797 -1.56006,4.196777 -1.18653,3.427734 -1.18653,4.020996 0,0.395508 1.31836,0.439453 0.68116,0.04395 2.24121,0.04395 1.4502,0 1.60401,-0.351563 0.0439,-0.109863 0.0439,-0.307617 0,-0.725098 -1.01074,-3.999023 -0.98877,-3.164063 -1.45019,-4.042969 z"
                     id="path387" />
                  <path
                     d="m 226.69189,-30.146484 q 0,2.504882 -0.21972,7.536621 -0.19776,5.009765 -0.19776,7.536621 V -0.59326172 Q 226.27441,0 225.63721,0 q -0.52735,0 -1.60401,0.04394531 -1.05468,0.04394531 -1.58203,0.04394531 -0.57129,0 -1.71387,-0.08789062 -1.14257,-0.08789062 -1.71386,-0.08789062 -0.39551,0 -0.94483,-0.72509766 -1.58203,-2.13134762 -7.11914,-9.44824172 -1.51611,-2.043458 -4.61426,-6.020508 -0.0879,-0.131836 -0.32959,-0.263672 -0.17578,0.153808 -0.17578,0.483398 0,2.548828 0.13184,7.6464847 0.15381,5.0976562 0.15381,7.64648433 Q 206.12549,0 205.53223,0 h -7.60254 q -0.63721,0 -0.63721,-0.68115234 0,-2.37304686 0.21973,-7.16308596 0.2417,-4.7900387 0.2417,-7.1850587 0,-2.526855 -0.21973,-7.558594 -0.19775,-5.031738 -0.19775,-7.536621 0,-0.483398 0.85693,-0.483398 1.27441,0 3.14209,-0.175781 0.43945,-0.04395 1.73584,-0.285645 1.09863,-0.197754 1.73584,-0.197754 0.26367,0 0.81299,0.74707 l 8.1958,11.228028 q 1.09863,1.516113 3.31787,4.438476 0.54932,0.681153 0.94482,0.681153 0.28565,0 0.28565,-1.713867 0,-2.307129 -0.26367,-6.94336 -0.2417,-4.63623 -0.2417,-6.965332 0,-0.812988 0.46142,-0.812988 1.31836,0 3.97705,-0.109863 2.65869,-0.109864 3.97705,-0.109864 0.41748,0 0.41748,0.681153 z"
                     id="path389" />
                </g>
              </g>
              <g
                 id="Layer_2-2-5"
                 data-name="Layer 2">
                <ellipse
                   class="cls-6"
                   cx="173.11"
                   cy="168.44"
                   rx="171.61"
                   ry="166.73"
                   id="ellipse42"
                   style="fill:none;stroke:#3d4ea1;stroke-width:3px;stroke-linecap:round;stroke-miterlimit:10;stroke-dasharray:0, 11.94" />
                <ellipse
                   class="cls-6"
                   cx="173.11"
                   cy="168.44"
                   rx="166.73"
                   ry="171.61"
                   transform="rotate(-79.08,173.12002,168.44456)"
                   id="ellipse44"
                   style="fill:none;stroke:#3d4ea1;stroke-width:3px;stroke-linecap:round;stroke-miterlimit:10;stroke-dasharray:0, 11.94" />
                <ellipse
                   class="cls-7"
                   cx="172.61"
                   cy="168.11"
                   rx="157.7"
                   ry="166.10001"
                   transform="rotate(-87.03,172.59969,168.11258)"
                   id="ellipse46"
                   style="fill:none;stroke:#3d4ea1;stroke-width:3px;stroke-linecap:round;stroke-miterlimit:10;stroke-dasharray:0, 11.97" />
                <ellipse
                   class="cls-7"
                   cx="173.11"
                   cy="168.44"
                   rx="157.7"
                   ry="166.10001"
                   transform="rotate(-77.26,173.11395,168.44458)"
                   id="ellipse48"
                   style="fill:none;stroke:#3d4ea1;stroke-width:3px;stroke-linecap:round;stroke-miterlimit:10;stroke-dasharray:0, 11.97" />
                <ellipse
                   class="cls-8"
                   cx="172.81"
                   cy="168.95"
                   rx="166.10001"
                   ry="162.21001"
                   transform="rotate(-7.16,172.68242,168.85821)"
                   id="ellipse50"
                   style="isolation:isolate;fill:none;stroke:#3d4ea1;stroke-width:3px;stroke-linecap:round;stroke-miterlimit:10;stroke-dasharray:0, 11.99" />
                <ellipse
                   class="cls-9"
                   cx="172.83"
                   cy="169.46001"
                   rx="160.53999"
                   ry="155.98"
                   id="ellipse52"
                   style="font-weight:700;font-size:92.95px;font-family:MavenPro-Bold, 'Maven Pro';isolation:isolate;fill:none;stroke:#3d4ea1;stroke-width:3px;stroke-linecap:round;stroke-miterlimit:10;stroke-dasharray:0, 22.1" />
                <ellipse
                   class="cls-9"
                   cx="172.83"
                   cy="169.46001"
                   rx="155.98"
                   ry="160.53999"
                   transform="rotate(-70.9,172.82342,169.46155)"
                   id="ellipse54"
                   style="font-weight:700;font-size:92.95px;font-family:MavenPro-Bold, 'Maven Pro';isolation:isolate;fill:none;stroke:#3d4ea1;stroke-width:3px;stroke-linecap:round;stroke-miterlimit:10;stroke-dasharray:0, 22.1" />
                <ellipse
                   class="cls-10"
                   cx="172.37"
                   cy="169.14999"
                   rx="147.53"
                   ry="155.39"
                   transform="rotate(-87.03,172.35965,169.15638)"
                   id="ellipse56"
                   style="fill:none;stroke:#3d4ea1;stroke-width:3px;stroke-linecap:round;stroke-miterlimit:10;stroke-dasharray:0, 22.14" />
                <ellipse
                   class="cls-10"
                   cx="172.83"
                   cy="169.46001"
                   rx="147.53"
                   ry="155.39"
                   transform="rotate(-77.26,172.8343,169.46164)"
                   id="ellipse58"
                   style="fill:none;stroke:#3d4ea1;stroke-width:3px;stroke-linecap:round;stroke-miterlimit:10;stroke-dasharray:0, 22.14" />
                <ellipse
                   class="cls-11"
                   cx="172.56"
                   cy="169.92999"
                   rx="155.39"
                   ry="151.74001"
                   transform="rotate(-7.16,172.46259,169.80722)"
                   id="ellipse60"
                   style="fill:none;stroke:#3d4ea1;stroke-width:3px;stroke-linecap:round;stroke-miterlimit:10;stroke-dasharray:0, 21.93" />
                <ellipse
                   class="cls-12"
                   cx="176.72"
                   cy="167.3"
                   rx="151.17"
                   ry="142.42999"
                   id="ellipse62"
                   style="fill:none;stroke:#3d4ea1;stroke-width:3px;stroke-linecap:round;stroke-miterlimit:10;stroke-dasharray:0, 31.81" />
                <ellipse
                   class="cls-13"
                   cx="176.72"
                   cy="167.3"
                   rx="142.50999"
                   ry="151.09"
                   transform="matrix(0.09,-1,1,0.09,-6.13,327.88)"
                   id="ellipse64"
                   style="fill:none;stroke:#3d4ea1;stroke-width:3px;stroke-linecap:round;stroke-miterlimit:10;stroke-dasharray:0, 31.81" />
                <ellipse
                   class="cls-14"
                   cx="176.28"
                   cy="167.02"
                   rx="134.72"
                   ry="146.31"
                   transform="matrix(0.03,-1,1,0.03,3.61,337.77)"
                   id="ellipse66"
                   style="fill:none;stroke:#3d4ea1;stroke-width:3px;stroke-linecap:round;stroke-miterlimit:10;stroke-dasharray:0, 31.55" />
                <ellipse
                   class="cls-15"
                   cx="176.72"
                   cy="167.3"
                   rx="134.84"
                   ry="146.17999"
                   transform="rotate(-81.97,176.73552,167.2974)"
                   id="ellipse68"
                   style="fill:none;stroke:#3d4ea1;stroke-width:3px;stroke-linecap:round;stroke-miterlimit:10;stroke-dasharray:0, 31.54" />
                <ellipse
                   class="cls-16"
                   cx="176.46001"
                   cy="167.73"
                   rx="146.28999"
                   ry="138.59"
                   transform="rotate(-3.12,176.22742,167.58512)"
                   id="ellipse70"
                   style="fill:none;stroke:#3d4ea1;stroke-width:3px;stroke-linecap:round;stroke-miterlimit:10;stroke-dasharray:0, 31.97" />
                <ellipse
                   class="cls-17"
                   cx="169.3"
                   cy="167.60001"
                   rx="154.28999"
                   ry="153.02"
                   transform="rotate(-61.09,169.28776,167.60501)"
                   id="ellipse72"
                   style="fill:none;stroke:#3d4ea1;stroke-width:3px;stroke-linecap:round;stroke-linejoin:bevel;stroke-miterlimit:10;stroke-dasharray:0, 32.18" />
                <ellipse
                   class="cls-18"
                   cx="169.3"
                   cy="167.60001"
                   rx="153.24001"
                   ry="154.08"
                   transform="rotate(-23.02,169.29587,167.60234)"
                   id="ellipse74"
                   style="fill:none;stroke:#3d4ea1;stroke-width:3px;stroke-linecap:round;stroke-linejoin:bevel;stroke-miterlimit:10;stroke-dasharray:0, 32.18" />
                <ellipse
                   class="cls-19"
                   cx="168.82001"
                   cy="167.36"
                   rx="148.53"
                   ry="145.53"
                   transform="rotate(-10.42,168.85461,167.39064)"
                   id="ellipse76"
                   style="fill:none;stroke:#3d4ea1;stroke-width:3px;stroke-linecap:round;stroke-miterlimit:10;stroke-dasharray:0, 31.86" />
                <ellipse
                   class="cls-20"
                   cx="169.3"
                   cy="171.60001"
                   rx="145.47"
                   ry="148.59"
                   transform="matrix(0.25,-0.97,0.97,0.25,-39.42,292.22)"
                   id="ellipse78"
                   style="font-size:7.34px;font-family:MyriadPro-Regular, 'Myriad Pro';letter-spacing:0em;fill:none;stroke:#3d4ea1;stroke-width:3px;stroke-linecap:round;stroke-miterlimit:10;stroke-dasharray:0, 31.86" />
                <ellipse
                   class="cls-21"
                   cx="169.09"
                   cy="168.10001"
                   rx="151.10001"
                   ry="147.13"
                   transform="rotate(-66.88,169.0966,168.10052)"
                   id="ellipse80"
                   style="fill:none;stroke:#3d4ea1;stroke-width:3px;stroke-linecap:round;stroke-miterlimit:10;stroke-dasharray:0, 32.31" />
                <ellipse
                   class="cls-22"
                   cx="176.24001"
                   cy="168.63"
                   rx="136.12"
                   ry="128.37"
                   transform="rotate(-7.16,176.15389,168.51379)"
                   id="ellipse82"
                   style="fill:none;stroke:#3d4ea1;stroke-width:3px;stroke-linecap:round;stroke-miterlimit:10;stroke-dasharray:0, 39.58" />
                <ellipse
                   class="cls-23"
                   cx="175"
                   cy="166.61"
                   rx="133.91"
                   ry="136.08"
                   transform="rotate(-82.25,175.00197,166.61466)"
                   id="ellipse84"
                   style="fill:none;stroke:#3d4ea1;stroke-width:3px;stroke-linecap:round;stroke-miterlimit:10;stroke-dasharray:0, 40.39" />
                <ellipse
                   class="cls-24"
                   cx="173.17999"
                   cy="169.17"
                   rx="166.73"
                   ry="168.86"
                   transform="rotate(-82.25,173.18675,169.16755)"
                   id="ellipse86"
                   style="fill:none;stroke:#3d4ea1;stroke-width:3px;stroke-linecap:round;stroke-miterlimit:10;stroke-dasharray:0, 11.98" />
              </g>
            </g>
          </g>
        </g>
      </g>
    </g>
  </g>
</svg>
