<?xml version="1.0" encoding="UTF-8" standalone="no"?>
<!-- Created with Inkscape (http://www.inkscape.org/) -->

<svg
   width="43.994095mm"
   height="50.800003mm"
   viewBox="0 0 43.994095 50.800003"
   version="1.1"
   id="svg1"
   sodipodi:docname="nfcore-mag-logo-hex-dark.svg"
   inkscape:version="1.3.2 (1:1.3.2+202311252150+091e20ef0f)"
   inkscape:export-filename="nfcore-mag-logo-hex-dark.png"
   inkscape:export-xdpi="300"
   inkscape:export-ydpi="300"
   xmlns:inkscape="http://www.inkscape.org/namespaces/inkscape"
   xmlns:sodipodi="http://sodipodi.sourceforge.net/DTD/sodipodi-0.dtd"
   xmlns="http://www.w3.org/2000/svg"
   xmlns:svg="http://www.w3.org/2000/svg">
  <sodipodi:namedview
     id="namedview1"
     pagecolor="#505050"
     bordercolor="#ffffff"
     borderopacity="1"
     inkscape:showpageshadow="0"
     inkscape:pageopacity="0"
     inkscape:pagecheckerboard="1"
     inkscape:deskcolor="#d1d1d1"
     inkscape:document-units="mm"
     showguides="false"
     inkscape:zoom="3.3880846"
     inkscape:cx="80.281349"
     inkscape:cy="125.73476"
     inkscape:current-layer="g10"
     showgrid="false">
    <sodipodi:guide
       position="11.795539,41.136353"
       orientation="1,0"
       id="guide1"
       inkscape:locked="false" />
    <sodipodi:guide
       position="32.198538,41.136353"
       orientation="0,-1"
       id="guide2"
       inkscape:locked="false" />
    <sodipodi:guide
       position="32.198538,20.733352"
       orientation="1,0"
       id="guide3"
       inkscape:locked="false" />
    <sodipodi:guide
       position="30.427082,19.050003"
       orientation="0,-1"
       id="guide4"
       inkscape:locked="false" />
    <sodipodi:guide
       position="33.337499,16.40417"
       orientation="0,-1"
       id="guide5"
       inkscape:locked="false" />
    <sodipodi:guide
       position="20.815722,10.727297"
       orientation="0,-1"
       id="guide6"
       inkscape:locked="false" />
    <sodipodi:guide
       position="21.997045,49.108995"
       orientation="1,0"
       id="guide11"
       inkscape:locked="false" />
    <sodipodi:guide
       position="21.773221,29.02678"
       orientation="0,-1"
       id="guide12"
       inkscape:locked="false" />
    <inkscape:grid
       id="grid1"
       units="px"
       originx="0"
       originy="0"
       spacingx="0.26458332"
       spacingy="0.26458333"
       empcolor="#e50000"
       empopacity="0.30196078"
       color="#e50000"
       opacity="0.14901961"
       empspacing="5"
       dotted="true"
       gridanglex="30"
       gridanglez="30"
       visible="false" />
  </sodipodi:namedview>
  <defs
     id="defs1">
    <linearGradient
       id="f-22-3-1-7-8-1"
       x2="1"
       gradientTransform="matrix(37.935665,29.63859,-29.63859,37.935665,121.09789,274.19726)"
       gradientUnits="userSpaceOnUse">
      <stop
         id="stop12-6-8-2-3-6-1"
         offset="0"
         stop-color="#0c542a" />
      <stop
         id="stop14-1-5-0-3-8-5"
         offset=".215"
         stop-color="#0c542a" />
      <stop
         id="stop16-0-6-0-9-84-9"
         offset=".58"
         stop-color="#25af64" />
      <stop
         id="stop18-61-1-6-2-3-7"
         offset=".847"
         stop-color="#25af64" />
      <stop
         id="stop20-5-1-3-4-1-7"
         offset="1"
         stop-color="#25af64" />
    </linearGradient>
  </defs>
  <g
     inkscape:label="Layer 1"
     inkscape:groupmode="layer"
     id="layer1"
     transform="translate(-71.268573,-58.86979)">
    <g
       id="g10"
       transform="matrix(0.06595672,0,0,0.06595672,130.93371,79.44458)">
      <g
         id="g2-2-7-6-0-6"
         transform="matrix(0.26458333,0,0,0.26458333,-4127.8278,-320.80776)">
        <path
           class="st0"
           d="m 13442.739,2896.0016 -1218.5,-703.5 v -1407 l 1218.5,-703.500006 1218.5,703.500006 v 1407 z"
           id="path1-5-1-5-1-7-9-4-6-5"
           style="fill:#212529;fill-opacity:1;stroke:#000000" />
        <path
           class="st1"
           d="m 13442.739,2944.5016 -1260.5,-727.8 v -1455.4 l 1260.5,-727.800003 1260.5,727.800003 v 1455.5 z m -1176.5,-776.2 1176.5,679.3 1176.5,-679.3 v -1358.6 l -1176.5,-679.3 -1176.5,679.3 z"
           id="path2-9-6-2-8-0-2-8-89-6"
           style="fill:#24b064;fill-opacity:1;stroke:none" />
      </g>
      <g
         id="g469-8-7-2-3"
         transform="matrix(0.26458333,0,0,0.26458333,-6110.6309,-276.97227)">
        <g
           id="g24-3-2-66-9"
           transform="translate(20538.472,2032.0725)">
          <text
             xml:space="preserve"
             style="font-size:209.867px;line-height:1.15;font-family:Inter;-inkscape-font-specification:Inter;text-align:end;text-decoration-color:#000000;letter-spacing:0px;text-anchor:end;fill:#ffffff;stroke:none;stroke-width:8.11843;stroke-dasharray:8.11843, 8.11843;paint-order:stroke markers fill"
             x="-126.774"
             y="132.04375"
             id="text14-0-4-8-3-49-4"><tspan
               sodipodi:role="line"
               id="tspan14-9-8-7-5-5-8"
               x="-126.774"
               y="132.04375"
               style="font-style:normal;font-variant:normal;font-weight:bold;font-stretch:normal;font-size:209.867px;font-family:'Maven Pro';-inkscape-font-specification:'Maven Pro Bold';text-align:start;text-anchor:start;fill:#ffffff;stroke:none">mag</tspan></text>
          <g
             id="g15-1-1-3-1-0-1"
             transform="translate(3.4958484e-6,-433.00129)">
            <g
               id="g18-7-0-1-7-4-2">
              <g
                 id="layer2-7-3-0-8-8-9"
                 style="display:inline"
                 transform="translate(-174.624,108)">
                <g
                   id="g4209-1-0-0-9-7-3">
                  <path
                     id="path24-1-4-5-4-1-9"
                     d="m 1084.1,163.75 v 3.6 c -0.1,0 -0.1,0 -0.2,0.1 l -1.8,-1.5 c -4,-3.4 -8.3,-6.4 -13.1,-8.8 -0.8,-0.4 -1.6,-0.9 -2.5,-1.1 -0.1,-0.1 -0.2,-0.2 -0.3,-0.2 -1.8,-0.7 -3.6,-1.3 -5.5,-1.8 -4.1,-0.9 -8.2,-1 -12.3,-0.2 -5.3,1.1 -10,3.4 -14.5,6.4 -4.4,3 -8.4,6.5 -12.1,10.2 -0.7,0.7 -0.7,0.7 -1.1,-0.2 -2,-4.1 -4.2,-8.1 -6.9,-11.8 -2.1,-2.8 -4.4,-5.4 -7.4,-7.2 -3,-1.9 -6.3,-2.6 -9.8,-1.7 -4.3,1 -7.8,3.6 -11.1,6.4 -2,1.5 -3.8,3.3 -5.6,5 -1.7,1.5 -3.3,3 -5,4.5 -0.3,0.3 -0.5,0.3 -0.8,0 -1.7,-1.8 -3.5,-3.4 -5.6,-4.5 -3.1,-1.7 -6.3,-1.9 -9.6,-0.8 -2.8,0.9 -5.2,2.4 -7.7,4 -1,0.6 -1.9,1.3 -2.9,1.8 v -0.2 c 0.1,-0.2 0.1,-0.4 0.1,-0.6 0.2,-4.4 0.5,-8.9 1.2,-13.3 1,-6.1 2.5,-12 5.2,-17.5 2,-4.1 4.7,-7.9 8.1,-11 4.5,-4.1 9.8,-6.7 15.6,-8.3 6.3,-1.8 12.7,-2.6 19.2,-2.9 2.6,-0.1 5.1,-0.2 7.7,-0.3 1.3,0.5 2.6,0.8 3.9,1.2 1.9,0.6 3.8,1.2 5.7,1.7 1,0.4 1.9,0.7 2.9,1.1 3.7,1.3 7.3,3 10.4,5.5 0.8,0.6 1.6,1.3 2.4,2 -0.2,-0.6 -0.4,-1.1 -0.6,-1.7 -1.4,-3.7 -3.5,-6.7 -6.9,-8.8 -1.4,-0.9 -2.9,-1.5 -4.4,-2.3 0.1,0 0.3,0 0.4,-0.1 4.5,-0.8 9.1,-1.2 13.7,-1.4 3.9,-0.2 7.9,-0.1 11.8,0.3 4.6,0.5 9.1,1.4 13.4,3 6.4,2.4 11.9,6.1 16.2,11.5 3.7,4.7 6.1,10.1 7.6,15.9 1.5,5.7 2.1,11.6 2.3,17.5 -0.1,2.1 -0.1,4.3 -0.1,6.5"
                     class="st0"
                     style="fill:#24af63" />
                  <path
                     id="path26-5-4-0-1-72-0"
                     d="m 1084.1,157.15 h 0.1 v 6.6 h -0.1 z"
                     class="st4"
                     style="fill:#ecdc86" />
                  <path
                     id="path28-9-4-3-6-7-8"
                     d="m 1047.6,62.25 v 0.1 h -4.5 v -0.1 z"
                     style="fill:#a0918f" />
                  <path
                     id="path30-7-4-1-4-2-8"
                     d="m 1050.5,250.65 c 2.5,-1 4.9,-2.3 7.3,-3.6 2.8,-1.7 5.4,-3.5 8,-5.4 2.2,-1.6 4.3,-3.3 6.4,-5.1 l 3.6,-3 c 0.2,-0.2 0.2,-0.1 0.3,0.1 0.4,1.6 0.7,3.3 1.1,5 0.5,2.3 0.8,4.6 1.1,6.9 0.3,2.7 0.4,5.3 0.2,8 -0.2,3.3 -0.8,6.6 -2,9.7 q -1.05,2.85 -2.7,5.4 c -1.4,2.2 -3,4.2 -5,5.9 -2.3,2.1 -4.9,3.9 -7.7,5.4 -3.7,2.1 -7.7,3.6 -11.8,4.8 -3.9,1.2 -7.9,2 -11.9,2.7 -1.1,0.2 -2.2,0.4 -3.3,0.4 -2.3,-0.1 -4.6,-0.6 -6.8,-1.4 -3.3,-1.3 -6.2,-3.3 -9.5,-4.8 -1.8,-0.8 -3.6,-1.4 -5.5,-1.5 -2.5,-0.2 -4.6,0.7 -6.4,2.4 l -3.9,3.9 c -2.2,2.2 -4.8,3.7 -7.9,4.2 -2.1,0.3 -4.1,0.2 -6.2,-0.1 -2.9,-0.4 -5.7,-1.1 -8.4,-1.9 -4,-1.3 -7.7,-3.1 -11.1,-5.7 -3.2,-2.4 -5.7,-5.4 -7.8,-8.8 -2.1,-3.5 -3.3,-7.2 -4.2,-11.1 -0.4,-1.7 -0.6,-3.5 -0.8,-5.2 -0.3,-2.5 -0.4,-4.9 -0.3,-7.4 0.1,-3.5 0.4,-6.9 0.9,-10.4 0.4,0.4 0.8,0.7 1.1,1 2.2,2 4.7,3.8 7.3,5.4 2.9,1.7 6.1,3.1 9.4,4 2.2,0.6 4.5,1 6.8,1.1 1.9,0.2 3.8,0.2 5.7,0.1 2.2,-0.1 4.5,-0.3 6.7,-0.9 0.3,0 0.6,0 0.8,-0.1 q 3,-0.6 6,-1.5 c 2.3,-0.7 4.5,-1.4 6.7,-2.2 2.1,-0.8 4.3,-1.7 6.4,-2.6 0.6,-0.3 1,-0.2 1.5,0.2 3.5,2.7 7.3,5 11.4,6.7 4.6,1.8 9.3,2.7 14.2,2.3 3.6,-0.7 7,-1.6 10.3,-2.9"
                     class="st0"
                     style="fill:#24af63" />
                  <path
                     id="path32-7-7-80-3-26-5"
                     d="m 1050.5,250.65 c -3.3,1.3 -6.7,2.2 -10.2,2.5 -4.9,0.4 -9.6,-0.5 -14.2,-2.3 -4.1,-1.6 -7.9,-3.9 -11.4,-6.7 -0.5,-0.4 -0.9,-0.5 -1.5,-0.2 -2.1,0.9 -4.2,1.8 -6.4,2.6 -2.2,0.8 -4.4,1.6 -6.7,2.2 -2,0.6 -4,1 -6,1.5 -0.3,0.1 -0.6,0.1 -0.8,0.1 l 2.1,-2.4 c 2.8,-3.2 4.8,-6.9 5.9,-11.1 1.6,-5.6 3.2,-11.3 4.6,-17 1,-4.2 1.8,-8.4 2.4,-12.7 0.4,-3.1 1,-14.9 0.8,-17.7 -0.5,-8.6 -2.4,-16.8 -5.9,-24.7 -2.1,-4.7 -5.7,-7.9 -10.7,-9.2 -2.2,-0.6 -4.4,-0.4 -6.5,0.3 -0.2,0.1 -0.3,0.2 -0.5,0.1 3.3,-2.8 6.7,-5.4 11.1,-6.4 3.5,-0.8 6.8,-0.2 9.8,1.7 3,1.9 5.3,4.4 7.4,7.2 2.7,3.7 4.9,7.7 6.9,11.8 0.4,0.9 0.4,0.9 1.1,0.2 3.7,-3.8 7.7,-7.3 12.1,-10.2 4.4,-3 9.2,-5.3 14.5,-6.4 4.1,-0.8 8.2,-0.7 12.3,0.2 1.9,0.4 3.7,1 5.5,1.8 0.1,0.1 0.3,0.1 0.3,0.2 -5.3,0.1 -9.8,2.1 -13.9,5.2 -2,1.5 -3.8,3.2 -5.2,5.3 -1.1,1.7 -2.1,3.6 -2.9,5.5 -1.8,3.8 -3.3,7.8 -4.4,11.9 -0.9,3.5 -1.5,7.1 -1.8,10.7 -0.2,2.8 -0.3,5.6 -0.2,8.4 0.1,3.4 0.5,6.8 0.9,10.3 0.7,5.7 1.7,11.4 2.7,17.1 0.5,3.1 0.9,6.3 1.5,9.5 0.7,4.6 3.3,8 7,10.6 0,-0.1 0.2,0 0.3,0.1"
                     class="st4"
                     style="fill:#ecdc86" />
                  <path
                     id="path34-6-6-17-5-1-0"
                     d="m 1043.1,62.35 h 4.5 c 3.6,0.2 7.2,0.8 10.6,2 2.7,0.9 3.3,2.7 1.7,5 -1.1,1.6 -2.7,2.8 -4.4,3.9 -2.1,1.4 -4.4,2.6 -6.9,3.5 -2.5,1 -4.9,0 -6.5,-2.5 -0.5,-0.8 -0.9,-1.6 -1.1,-2.5 -0.1,-0.3 -0.2,-0.4 -0.5,-0.4 -5.6,-1 -10.6,0.3 -14.7,4.3 -3.4,3.2 -5.4,7.3 -6.8,11.7 -1.3,4 -1.9,8 -2.1,12.2 -0.2,3.7 0.1,7.4 0.6,11 0.1,0.6 0.3,1.2 0.3,1.9 0.1,0.8 -0.2,1.5 -0.8,1.9 -0.7,0.5 -1.5,0.4 -2.3,0.4 -1.9,-0.6 -3.8,-1.2 -5.7,-1.7 v -1.3 c 0,-2 0,-3.9 0.1,-5.9 0.4,-7.7 1.6,-15.3 4.6,-22.5 2.2,-5.4 5.4,-10.1 9.9,-13.8 3.7,-3.1 7.9,-5.1 12.6,-6.2 2.4,-0.6 4.6,-0.9 6.9,-1"
                     style="fill:#3f2b29" />
                  <path
                     id="path36-7-31-9-4-0-9"
                     d="m 1014.8,114.65 c 0.8,0 1.6,0.1 2.3,-0.4 0.7,-0.5 0.9,-1.2 0.8,-1.9 -0.1,-0.6 -0.2,-1.3 -0.3,-1.9 0.4,0 0.7,-0.1 1.1,-0.1 1.4,0.8 2.9,1.5 4.4,2.3 3.4,2.1 5.5,5.1 6.9,8.8 0.2,0.6 0.4,1.1 0.6,1.7 -0.8,-0.7 -1.6,-1.4 -2.4,-2 -3.2,-2.4 -6.7,-4.1 -10.4,-5.5 -1.1,-0.3 -2,-0.6 -3,-1"
                     class="st7"
                     style="fill:#396e35" />
                  <path
                     id="path38-3-7-1-8-6-6"
                     d="m 1009.1,111.65 v 1.3 c -1.3,-0.4 -2.6,-0.7 -3.9,-1.2 1.4,-0.1 2.7,-0.1 3.9,-0.1"
                     class="st7"
                     style="fill:#396e35" />
                </g>
              </g>
              <text
                 id="text53-6-5-0-7-1-3"
                 x="-125.72501"
                 y="349.245"
                 font-size="209.87"
                 font-weight="bold"
                 style="font-weight:700;font-size:209.87px;font-family:'Maven Pro'"><tspan
                   id="tspan55-5-9-3-3-5-8"
                   x="-125.72501"
                   y="349.245"
                   class="st0 st1 st2"
                   font-size="209.87"
                   font-weight="bold"
                   style="font-weight:700;font-size:209.867px;font-family:'Maven Pro';fill:#24af63">nf-</tspan></text>
              <text
                 id="text69-63-6-5-3-9-5"
                 x="182.517"
                 y="349.245"
                 font-size="209.87"
                 font-weight="bold"
                 style="font-weight:700;font-size:209.87px;font-family:'Maven Pro';fill:#ffffff"><tspan
                   id="tspan71-9-2-9-5-4-6"
                   x="182.517"
                   y="349.245"
                   class="st0 st1 st2"
                   font-size="209.87"
                   font-weight="bold"
                   style="font-weight:700;font-size:209.867px;font-family:'Maven Pro';fill:#ffffff"><tspan
                     id="tspan73-4-1-4-0-9-1"
                     style="fill:#ffffff">core/</tspan></tspan></text>
              <path
                 id="path67-8-7-8-1-0-1"
                 d="m 125.813,274.116 -21.532,21.616 h 61.092 v -21.617 z"
                 style="fill:url(#f-22-3-1-7-8-1)" />
            </g>
          </g>
        </g>
      </g>
      <g
         id="g582"
         transform="matrix(1.2896571,0,0,1.2896571,-1555.8179,7.2762863)">
        <g
           id="g4"
           transform="translate(0,40.302556)">
          <path
             style="fill:#1a1a1a;fill-opacity:1;stroke:none;stroke-width:1.10289;stroke-linejoin:round;stroke-miterlimit:0.5;stroke-dasharray:none;stroke-opacity:1;paint-order:stroke markers fill"
             d="m 554.20232,74.299101 101.6164,-123.859315 34.14395,-16.946615 -13.87686,13.850752 z"
             id="path107-4-2"
             sodipodi:nodetypes="ccccc" />
          <path
             style="fill:#ffffff;fill-opacity:1;stroke:none;stroke-width:1.10289;stroke-linejoin:round;stroke-miterlimit:0.5;stroke-dasharray:none;stroke-opacity:1;paint-order:stroke markers fill"
             d="m 629.43236,-4.6782556 64.58135,-26.8186424 21.14867,-5.946616 7.10221,-24.294669 -34.22755,-3.053768 z"
             id="path111-8-5"
             sodipodi:nodetypes="cccccc" />
          <path
             style="fill:#1a1a1a;fill-opacity:1;stroke:none;stroke-width:1.10289;stroke-linejoin:round;stroke-miterlimit:0.5;stroke-dasharray:none;stroke-opacity:1;paint-order:stroke markers fill"
             d="m 687.53089,-64.821962 52.54307,-41.387178 38.56964,0.46186 26.36229,19.443903 -0.27914,24.790286 -23.25555,27.210445 -44.87572,-17.947851 -14.11578,-9.439333 z"
             id="path108-8-7"
             sodipodi:nodetypes="ccccccccc" />
          <path
             style="fill:#1a1a1a;fill-opacity:1;stroke:none;stroke-width:1.10289;stroke-linejoin:round;stroke-miterlimit:0.5;stroke-dasharray:none;stroke-opacity:1;paint-order:stroke markers fill"
             d="m 739.26434,-51.239233 1.05092,59.0703449 37.4986,44.9511471 16.05492,-26.528527 -12.24994,-62.567608 z"
             id="path109-89-4"
             sodipodi:nodetypes="cccccc" />
          <path
             style="fill:#333333;fill-opacity:1;stroke:none;stroke-width:1.10289;stroke-linejoin:round;stroke-miterlimit:0.5;stroke-dasharray:none;stroke-opacity:1;paint-order:stroke markers fill"
             d="m 800.79293,-58.398464 -19.85037,21.820719 13.04793,64.964865 8.627,-23.9961999 -5.4393,-52.0532511 z"
             id="path110-7-9"
             sodipodi:nodetypes="cccccc" />
          <path
             style="fill:#ffffff;fill-opacity:1;stroke:none;stroke-width:1.10289;stroke-linejoin:round;stroke-miterlimit:0.5;stroke-dasharray:none;stroke-opacity:1;paint-order:stroke markers fill"
             d="M 714.61126,-35.674881 703.72683,-3.9562871 741.16537,8.1395631 739.33921,-50.629818 722.20877,-61.724845 Z"
             id="path112-7-9"
             sodipodi:nodetypes="cccccc" />
          <path
             style="fill:#e6e6e6;fill-opacity:1;stroke:none;stroke-width:1.10289;stroke-linejoin:round;stroke-miterlimit:0.5;stroke-dasharray:none;stroke-opacity:1;paint-order:stroke markers fill"
             d="M 656.69396,21.02075 704.38749,-4.4977569 741.23945,8.0299198 768.85269,43.319568 714.22999,20.845252 694.71724,17.508036 Z"
             id="path113-6-4"
             sodipodi:nodetypes="ccccccc" />
          <path
             style="fill:#336b90;fill-opacity:1;stroke:none;stroke-width:1.10289;stroke-linejoin:round;stroke-miterlimit:0.5;stroke-dasharray:none;stroke-opacity:1;paint-order:stroke markers fill"
             d="m 727.60918,-42.045439 -31.80662,9.521878 -66.38026,27.8194556 52.70553,13.2934338 22.89069,-13.0583251 z"
             id="path114-4-5"
             sodipodi:nodetypes="cccccc" />
          <path
             style="fill:#0a365e;fill-opacity:1;stroke:none;stroke-width:1.10289;stroke-linejoin:round;stroke-miterlimit:0.5;stroke-dasharray:none;stroke-opacity:1;paint-order:stroke markers fill"
             d="M 629.46517,-4.7174404 590.67698,35.824796 635.66224,30.888173 682.40882,8.0511923 Z"
             id="path115-3-9"
             sodipodi:nodetypes="ccccc" />
          <path
             style="fill:#336b90;fill-opacity:1;stroke:none;stroke-width:1.10289;stroke-linejoin:round;stroke-miterlimit:0.5;stroke-dasharray:none;stroke-opacity:1;paint-order:stroke markers fill"
             d="M 590.76456,35.740182 554.20232,74.299101 636.87694,30.395466 Z"
             id="path116-0-3"
             sodipodi:nodetypes="cccc" />
          <path
             style="fill:#999999;fill-opacity:1;stroke:none;stroke-width:1.10289;stroke-linejoin:round;stroke-miterlimit:0.5;stroke-dasharray:none;stroke-opacity:1;paint-order:stroke markers fill"
             d="m 804.97599,-86.60225 -26.30646,22.73193 26.34667,2.261357 15.04554,-12.253002 z"
             id="path117-3-5"
             sodipodi:nodetypes="ccccc" />
          <path
             style="fill:#999999;fill-opacity:1;stroke:none;stroke-width:1.10289;stroke-linejoin:round;stroke-miterlimit:0.5;stroke-dasharray:none;stroke-opacity:1;paint-order:stroke markers fill"
             d="m 804.29813,-86.006586 43.31043,8.330123 6.05288,7.52062 -35.05809,-4.514374 z"
             id="path118-0-7"
             sodipodi:nodetypes="ccccc" />
          <path
             style="fill:#808080;fill-opacity:1;stroke:none;stroke-width:1.10289;stroke-linejoin:round;stroke-miterlimit:0.5;stroke-dasharray:none;stroke-opacity:1;paint-order:stroke markers fill"
             d="m 804.21214,-61.342186 15.55538,-13.225071 24.53269,3.197577 z"
             id="path119-9-0"
             sodipodi:nodetypes="cccc" />
          <path
             style="fill:#333333;fill-opacity:1;stroke:none;stroke-width:1.10289;stroke-linejoin:round;stroke-miterlimit:0.5;stroke-dasharray:none;stroke-opacity:1;paint-order:stroke markers fill"
             d="m 740.06258,-106.21747 37.62984,0.84618 27.25817,19.00372 -7.33161,-11.070844 -19.48762,-12.361796 z"
             id="path120-2-8"
             sodipodi:nodetypes="cccccc" />
          <path
             style="fill:#333333;fill-opacity:1;stroke:none;stroke-width:1.10289;stroke-linejoin:round;stroke-miterlimit:0.5;stroke-dasharray:none;stroke-opacity:1;paint-order:stroke markers fill"
             d="m 739.29503,-50.726524 1.05701,18.105411 0.86545,41.1224939 18.92327,-48.9728129 z"
             id="path122-5-1"
             sodipodi:nodetypes="ccccc" />
          <path
             style="fill:#333333;fill-opacity:1;stroke:none;stroke-width:1.10289;stroke-linejoin:round;stroke-miterlimit:0.5;stroke-dasharray:none;stroke-opacity:1;paint-order:stroke markers fill"
             d="m 739.29397,-50.635666 9.70465,-9.629822 15.42468,-23.634393 -42.21348,22.183791 z"
             id="path122-8-4-9"
             sodipodi:nodetypes="ccccc" />
          <path
             style="fill:#333333;fill-opacity:1;stroke:none;stroke-width:1.10289;stroke-linejoin:round;stroke-miterlimit:0.5;stroke-dasharray:none;stroke-opacity:1;paint-order:stroke markers fill"
             d="m 703.32545,-3.1263686 25.93393,-17.5285134 10.51666,-22.766125 -12.40949,1.345988 z"
             id="path121-0-9"
             sodipodi:nodetypes="ccccc" />
          <path
             style="fill:#333333;fill-opacity:1;stroke:none;stroke-width:1.10289;stroke-linejoin:round;stroke-miterlimit:0.5;stroke-dasharray:none;stroke-opacity:1;paint-order:stroke markers fill"
             d="m 740.18641,-106.26958 -52.8021,41.423022 7.9674,0.621927 z"
             id="path123-5-7"
             sodipodi:nodetypes="cccc" />
          <path
             style="fill:#000000;stroke:none;stroke-width:0.749969;stroke-linejoin:round;stroke-miterlimit:0.5;stroke-dasharray:none;paint-order:stroke markers fill"
             d="m 762.97233,-90.507204 -6.21983,4.250097 3.21733,7.689022 5.37052,0.100042 6.87943,-4.673188 -3.35095,-6.450176 z"
             id="path73-7-3-6-94-8"
             sodipodi:nodetypes="ccccccc" />
          <path
             style="display:inline;fill:#ffffff;fill-opacity:1;stroke:none;stroke-width:0.749969;stroke-linejoin:round;stroke-miterlimit:0.5;stroke-dasharray:none;paint-order:stroke markers fill"
             d="m 759.83013,-85.71855 c -0.62865,-0.556482 -0.48286,-0.555231 -0.73077,-1.254689 0.58658,-0.850352 1.94918,-0.660273 3.04217,-0.83743 1.093,-0.175072 3.48271,-0.183409 3.48271,-0.183409 0,0 0.10822,0.835763 -0.3085,1.386824 -0.41698,0.551064 -1.36842,1.070862 -2.39157,1.297623 -1.02235,0.225094 -2.46539,0.145894 -3.09404,-0.408504 z"
             id="path82-4-1-6-2"
             sodipodi:nodetypes="zczczzz" />
          <g
             id="g19"
             transform="matrix(5.7907874,0,0,5.7907874,-17122.635,-8976.912)">
            <g
               id="g20">
              <path
                 style="fill:#1a1a1a;fill-opacity:1;stroke:none;stroke-width:0.304964;stroke-linejoin:round;stroke-miterlimit:0.5;stroke-dasharray:none;paint-order:stroke markers fill"
                 d="m 3098.9494,1537.3239 -0.964,0.042 -1.1307,0.554 0.5152,0.312 0.7434,-0.527 2.1133,-0.1 z"
                 id="path93-36-3-9-5"
                 sodipodi:nodetypes="ccccccc" />
              <path
                 style="fill:#176e3f;fill-opacity:1;stroke:none;stroke-width:0.304964;stroke-linejoin:round;stroke-miterlimit:0.5;stroke-dasharray:none;paint-order:stroke markers fill"
                 d="m 3100.9775,1538.2547 1.9065,4.6392 0.4848,6.3186 -3.8839,5.4152 1.6555,0.5449 5.0157,-5.891 -0.6134,-6.8489 -2.8485,-4.5542 z"
                 id="path95-43-3-2-3"
                 sodipodi:nodetypes="ccccccccc" />
              <path
                 style="fill:#24af63;fill-opacity:1;stroke:none;stroke-width:0.304964;stroke-linejoin:round;stroke-miterlimit:0.5;stroke-dasharray:none;paint-order:stroke markers fill"
                 d="m 3096.4528,1537.87 -3.3113,7.1083 2.5625,9.8016 5.4208,0.4211 0.4914,-0.5603 -3.6105,-1.9852 -1.9923,-7.339 2.3774,-7.1936 z"
                 id="path96-14-3-2-4"
                 sodipodi:nodetypes="ccccccccc" />
            </g>
          </g>
        </g>
      </g>
    </g>
  </g>
</svg>
