<?xml version="1.0" encoding="UTF-8" standalone="no"?>
<!-- Created with Inkscape (http://www.inkscape.org/) -->

<svg
   width="43.994095mm"
   height="50.800003mm"
   viewBox="0 0 43.994095 50.800003"
   version="1.1"
   id="svg1"
   sodipodi:docname="nfcore-taxprofiler-logo-hex-dark.svg"
   inkscape:version="1.3.2 (1:1.3.2+202311252150+091e20ef0f)"
   inkscape:export-filename="nfcore-taxprofiler-logo-hex-dark.png"
   inkscape:export-xdpi="300"
   inkscape:export-ydpi="300"
   xmlns:inkscape="http://www.inkscape.org/namespaces/inkscape"
   xmlns:sodipodi="http://sodipodi.sourceforge.net/DTD/sodipodi-0.dtd"
   xmlns:xlink="http://www.w3.org/1999/xlink"
   xmlns="http://www.w3.org/2000/svg"
   xmlns:svg="http://www.w3.org/2000/svg">
  <sodipodi:namedview
     id="namedview1"
     pagecolor="#505050"
     bordercolor="#ffffff"
     borderopacity="1"
     inkscape:showpageshadow="0"
     inkscape:pageopacity="0"
     inkscape:pagecheckerboard="1"
     inkscape:deskcolor="#d1d1d1"
     inkscape:document-units="mm"
     showguides="false"
     inkscape:zoom="1.8864163"
     inkscape:cx="2.6505284"
     inkscape:cy="95.949127"
     inkscape:current-layer="g10"
     showgrid="false">
    <sodipodi:guide
       position="12.133177,29.02678"
       orientation="1,0"
       id="guide1"
       inkscape:locked="false" />
    <sodipodi:guide
       position="21.997045,38.893752"
       orientation="0,-1"
       id="guide2"
       inkscape:locked="false" />
    <sodipodi:guide
       position="31.84153,29.026781"
       orientation="1,0"
       id="guide3"
       inkscape:locked="false" />
    <sodipodi:guide
       position="30.427082,19.050003"
       orientation="0,-1"
       id="guide4"
       inkscape:locked="false" />
    <sodipodi:guide
       position="33.337499,16.40417"
       orientation="0,-1"
       id="guide5"
       inkscape:locked="false" />
    <sodipodi:guide
       position="20.815722,10.727297"
       orientation="0,-1"
       id="guide6"
       inkscape:locked="false" />
    <sodipodi:guide
       position="21.997045,49.108995"
       orientation="1,0"
       id="guide11"
       inkscape:locked="false" />
    <sodipodi:guide
       position="21.997047,29.02678"
       orientation="0,-1"
       id="guide12"
       inkscape:locked="false" />
    <inkscape:grid
       id="grid1"
       units="px"
       originx="0"
       originy="0"
       spacingx="0.26458332"
       spacingy="0.26458333"
       empcolor="#e50000"
       empopacity="0.30196078"
       color="#e50000"
       opacity="0.14901961"
       empspacing="5"
       dotted="true"
       gridanglex="30"
       gridanglez="30"
       visible="false" />
  </sodipodi:namedview>
  <defs
     id="defs1">
    <linearGradient
       id="f-22-3-1-7-8-1"
       x2="1"
       gradientTransform="matrix(37.935665,29.63859,-29.63859,37.935665,121.09789,274.19726)"
       gradientUnits="userSpaceOnUse">
      <stop
         id="stop12-6-8-2-3-6-1"
         offset="0"
         stop-color="#0c542a" />
      <stop
         id="stop14-1-5-0-3-8-5"
         offset=".215"
         stop-color="#0c542a" />
      <stop
         id="stop16-0-6-0-9-84-9"
         offset=".58"
         stop-color="#25af64" />
      <stop
         id="stop18-61-1-6-2-3-7"
         offset=".847"
         stop-color="#25af64" />
      <stop
         id="stop20-5-1-3-4-1-7"
         offset="1"
         stop-color="#25af64" />
    </linearGradient>
    <linearGradient
       inkscape:collect="always"
       xlink:href="#linearGradient21662"
       id="linearGradient30057"
       x1="10.213824"
       y1="221.42242"
       x2="218.95003"
       y2="221.42242"
       gradientUnits="userSpaceOnUse"
       gradientTransform="matrix(1.0969842,0.02864551,-0.02871989,1.0998328,3269.1421,-267.65918)" />
    <linearGradient
       x1="0"
       y1="0"
       x2="1"
       y2="0"
       gradientUnits="userSpaceOnUse"
       gradientTransform="matrix(37.87862,-29.594021,-29.594021,-37.87862,275.46292,136.24821)"
       spreadMethod="pad"
       id="linearGradient21662">
      <stop
         style="stop-opacity:1;stop-color:#000000"
         offset="0"
         id="stop21652" />
      <stop
         style="stop-opacity:1;stop-color:#0c542a"
         offset="0.214724"
         id="stop21654" />
      <stop
         style="stop-opacity:1;stop-color:#25af64"
         offset="0.84662598"
         id="stop21656" />
      <stop
         style="stop-opacity:1;stop-color:#25af64"
         offset="0.846626"
         id="stop21658" />
      <stop
         style="stop-opacity:1;stop-color:#25af64"
         offset="1"
         id="stop21660" />
    </linearGradient>
    <linearGradient
       inkscape:collect="always"
       xlink:href="#linearGradient21662"
       id="linearGradient2708"
       x1="14.381735"
       y1="80.392174"
       x2="49.04929"
       y2="80.392174"
       gradientUnits="userSpaceOnUse" />
    <linearGradient
       inkscape:collect="always"
       xlink:href="#linearGradient21662"
       id="linearGradient1"
       gradientUnits="userSpaceOnUse"
       x1="14.381735"
       y1="80.392174"
       x2="49.04929"
       y2="80.392174" />
    <linearGradient
       inkscape:collect="always"
       xlink:href="#linearGradient21662"
       id="linearGradient2"
       gradientUnits="userSpaceOnUse"
       x1="14.381735"
       y1="80.392174"
       x2="49.04929"
       y2="80.392174" />
    <linearGradient
       inkscape:collect="always"
       xlink:href="#linearGradient21662"
       id="linearGradient3"
       gradientUnits="userSpaceOnUse"
       x1="14.381735"
       y1="80.392174"
       x2="49.04929"
       y2="80.392174" />
    <linearGradient
       inkscape:collect="always"
       xlink:href="#linearGradient21662"
       id="linearGradient4"
       gradientUnits="userSpaceOnUse"
       x1="14.381735"
       y1="80.392174"
       x2="49.04929"
       y2="80.392174" />
    <linearGradient
       inkscape:collect="always"
       xlink:href="#linearGradient21662"
       id="linearGradient5"
       gradientUnits="userSpaceOnUse"
       x1="14.381735"
       y1="80.392174"
       x2="49.04929"
       y2="80.392174" />
    <linearGradient
       inkscape:collect="always"
       xlink:href="#linearGradient21662"
       id="linearGradient6"
       gradientUnits="userSpaceOnUse"
       x1="14.381735"
       y1="80.392174"
       x2="49.04929"
       y2="80.392174" />
    <linearGradient
       inkscape:collect="always"
       xlink:href="#linearGradient21662"
       id="linearGradient7"
       gradientUnits="userSpaceOnUse"
       x1="14.381735"
       y1="80.392174"
       x2="49.04929"
       y2="80.392174" />
    <linearGradient
       inkscape:collect="always"
       xlink:href="#linearGradient21662"
       id="linearGradient8"
       gradientUnits="userSpaceOnUse"
       x1="14.381735"
       y1="80.392174"
       x2="49.04929"
       y2="80.392174" />
    <linearGradient
       inkscape:collect="always"
       xlink:href="#linearGradient21662"
       id="linearGradient9"
       gradientUnits="userSpaceOnUse"
       x1="14.381735"
       y1="80.392174"
       x2="49.04929"
       y2="80.392174" />
    <linearGradient
       inkscape:collect="always"
       xlink:href="#linearGradient21662"
       id="linearGradient10"
       gradientUnits="userSpaceOnUse"
       x1="14.381735"
       y1="80.392174"
       x2="49.04929"
       y2="80.392174" />
    <linearGradient
       inkscape:collect="always"
       xlink:href="#linearGradient21662"
       id="linearGradient11"
       gradientUnits="userSpaceOnUse"
       x1="14.381735"
       y1="80.392174"
       x2="49.04929"
       y2="80.392174" />
    <linearGradient
       inkscape:collect="always"
       xlink:href="#linearGradient21662"
       id="linearGradient12"
       gradientUnits="userSpaceOnUse"
       x1="14.381735"
       y1="80.392174"
       x2="49.04929"
       y2="80.392174" />
    <linearGradient
       inkscape:collect="always"
       xlink:href="#linearGradient21662"
       id="linearGradient13"
       gradientUnits="userSpaceOnUse"
       x1="14.381735"
       y1="80.392174"
       x2="49.04929"
       y2="80.392174" />
    <linearGradient
       inkscape:collect="always"
       xlink:href="#linearGradient21662"
       id="linearGradient14"
       gradientUnits="userSpaceOnUse"
       x1="14.381735"
       y1="80.392174"
       x2="49.04929"
       y2="80.392174" />
    <linearGradient
       inkscape:collect="always"
       xlink:href="#linearGradient21662"
       id="linearGradient15"
       gradientUnits="userSpaceOnUse"
       x1="14.381735"
       y1="80.392174"
       x2="49.04929"
       y2="80.392174" />
    <linearGradient
       inkscape:collect="always"
       xlink:href="#linearGradient21662"
       id="linearGradient16"
       gradientUnits="userSpaceOnUse"
       x1="14.381735"
       y1="80.392174"
       x2="49.04929"
       y2="80.392174" />
    <linearGradient
       inkscape:collect="always"
       xlink:href="#linearGradient21662"
       id="linearGradient17"
       gradientUnits="userSpaceOnUse"
       x1="14.381735"
       y1="80.392174"
       x2="49.04929"
       y2="80.392174" />
    <linearGradient
       inkscape:collect="always"
       xlink:href="#linearGradient21662"
       id="linearGradient18"
       gradientUnits="userSpaceOnUse"
       x1="14.381735"
       y1="80.392174"
       x2="49.04929"
       y2="80.392174" />
    <linearGradient
       inkscape:collect="always"
       xlink:href="#linearGradient21662"
       id="linearGradient19"
       gradientUnits="userSpaceOnUse"
       x1="14.381735"
       y1="80.392174"
       x2="49.04929"
       y2="80.392174" />
    <linearGradient
       inkscape:collect="always"
       xlink:href="#linearGradient21662"
       id="linearGradient20"
       gradientUnits="userSpaceOnUse"
       x1="14.381735"
       y1="80.392174"
       x2="49.04929"
       y2="80.392174" />
    <linearGradient
       inkscape:collect="always"
       xlink:href="#linearGradient21662"
       id="linearGradient21"
       gradientUnits="userSpaceOnUse"
       x1="14.381735"
       y1="80.392174"
       x2="49.04929"
       y2="80.392174" />
    <linearGradient
       inkscape:collect="always"
       xlink:href="#linearGradient21662"
       id="linearGradient22"
       gradientUnits="userSpaceOnUse"
       x1="14.381735"
       y1="80.392174"
       x2="49.04929"
       y2="80.392174" />
  </defs>
  <g
     inkscape:label="Layer 1"
     inkscape:groupmode="layer"
     id="layer1"
     transform="translate(-71.268573,-58.86979)">
    <g
       id="g10"
       transform="matrix(0.06595672,0,0,0.06595672,130.93371,79.44458)">
      <g
         id="g2-2-7-6-0-6"
         transform="matrix(0.26458333,0,0,0.26458333,-4127.8278,-320.80776)">
        <path
           class="st0"
           d="m 13442.739,2896.0016 -1218.5,-703.5 v -1407 l 1218.5,-703.500006 1218.5,703.500006 v 1407 z"
           id="path1-5-1-5-1-7-9-4-6-5"
           style="fill:#212529;fill-opacity:1;stroke:#000000" />
        <path
           class="st1"
           d="m 13442.739,2944.5016 -1260.5,-727.8 v -1455.4 l 1260.5,-727.800003 1260.5,727.800003 v 1455.5 z m -1176.5,-776.2 1176.5,679.3 1176.5,-679.3 v -1358.6 l -1176.5,-679.3 -1176.5,679.3 z"
           id="path2-9-6-2-8-0-2-8-89-6"
           style="fill:#24b064;fill-opacity:1;stroke:none" />
      </g>
      <g
         id="g469-8-7-2-3"
         transform="matrix(0.26458333,0,0,0.26458333,-6110.631,-276.97227)">
        <g
           id="g24-3-2-66-9"
           transform="translate(20525.421,2032.0725)">
          <text
             xml:space="preserve"
             style="font-size:209.867px;line-height:1.15;font-family:Inter;-inkscape-font-specification:Inter;text-align:end;text-decoration-color:#000000;letter-spacing:0px;text-anchor:end;fill:#ffffff;stroke:none;stroke-width:8.11843;stroke-dasharray:8.11843, 8.11843;paint-order:stroke markers fill"
             x="-126.774"
             y="132.04375"
             id="text14-0-4-8-3-49-4"><tspan
               sodipodi:role="line"
               id="tspan14-9-8-7-5-5-8"
               x="-126.774"
               y="132.04375"
               style="font-style:normal;font-variant:normal;font-weight:bold;font-stretch:normal;font-size:209.867px;font-family:'Maven Pro';-inkscape-font-specification:'Maven Pro Bold';text-align:start;text-anchor:start;fill:#ffffff;stroke:none">taxprofiler</tspan></text>
          <g
             id="g15-1-1-3-1-0-1"
             transform="translate(3.4958484e-6,-433.00129)">
            <g
               id="g18-7-0-1-7-4-2">
              <g
                 id="layer2-7-3-0-8-8-9"
                 style="display:inline"
                 transform="translate(-174.624,108)">
                <g
                   id="g4209-1-0-0-9-7-3">
                  <path
                     id="path24-1-4-5-4-1-9"
                     d="m 1084.1,163.75 v 3.6 c -0.1,0 -0.1,0 -0.2,0.1 l -1.8,-1.5 c -4,-3.4 -8.3,-6.4 -13.1,-8.8 -0.8,-0.4 -1.6,-0.9 -2.5,-1.1 -0.1,-0.1 -0.2,-0.2 -0.3,-0.2 -1.8,-0.7 -3.6,-1.3 -5.5,-1.8 -4.1,-0.9 -8.2,-1 -12.3,-0.2 -5.3,1.1 -10,3.4 -14.5,6.4 -4.4,3 -8.4,6.5 -12.1,10.2 -0.7,0.7 -0.7,0.7 -1.1,-0.2 -2,-4.1 -4.2,-8.1 -6.9,-11.8 -2.1,-2.8 -4.4,-5.4 -7.4,-7.2 -3,-1.9 -6.3,-2.6 -9.8,-1.7 -4.3,1 -7.8,3.6 -11.1,6.4 -2,1.5 -3.8,3.3 -5.6,5 -1.7,1.5 -3.3,3 -5,4.5 -0.3,0.3 -0.5,0.3 -0.8,0 -1.7,-1.8 -3.5,-3.4 -5.6,-4.5 -3.1,-1.7 -6.3,-1.9 -9.6,-0.8 -2.8,0.9 -5.2,2.4 -7.7,4 -1,0.6 -1.9,1.3 -2.9,1.8 v -0.2 c 0.1,-0.2 0.1,-0.4 0.1,-0.6 0.2,-4.4 0.5,-8.9 1.2,-13.3 1,-6.1 2.5,-12 5.2,-17.5 2,-4.1 4.7,-7.9 8.1,-11 4.5,-4.1 9.8,-6.7 15.6,-8.3 6.3,-1.8 12.7,-2.6 19.2,-2.9 2.6,-0.1 5.1,-0.2 7.7,-0.3 1.3,0.5 2.6,0.8 3.9,1.2 1.9,0.6 3.8,1.2 5.7,1.7 1,0.4 1.9,0.7 2.9,1.1 3.7,1.3 7.3,3 10.4,5.5 0.8,0.6 1.6,1.3 2.4,2 -0.2,-0.6 -0.4,-1.1 -0.6,-1.7 -1.4,-3.7 -3.5,-6.7 -6.9,-8.8 -1.4,-0.9 -2.9,-1.5 -4.4,-2.3 0.1,0 0.3,0 0.4,-0.1 4.5,-0.8 9.1,-1.2 13.7,-1.4 3.9,-0.2 7.9,-0.1 11.8,0.3 4.6,0.5 9.1,1.4 13.4,3 6.4,2.4 11.9,6.1 16.2,11.5 3.7,4.7 6.1,10.1 7.6,15.9 1.5,5.7 2.1,11.6 2.3,17.5 -0.1,2.1 -0.1,4.3 -0.1,6.5"
                     class="st0"
                     style="fill:#24af63" />
                  <path
                     id="path26-5-4-0-1-72-0"
                     d="m 1084.1,157.15 h 0.1 v 6.6 h -0.1 z"
                     class="st4"
                     style="fill:#ecdc86" />
                  <path
                     id="path28-9-4-3-6-7-8"
                     d="m 1047.6,62.25 v 0.1 h -4.5 v -0.1 z"
                     style="fill:#a0918f" />
                  <path
                     id="path30-7-4-1-4-2-8"
                     d="m 1050.5,250.65 c 2.5,-1 4.9,-2.3 7.3,-3.6 2.8,-1.7 5.4,-3.5 8,-5.4 2.2,-1.6 4.3,-3.3 6.4,-5.1 l 3.6,-3 c 0.2,-0.2 0.2,-0.1 0.3,0.1 0.4,1.6 0.7,3.3 1.1,5 0.5,2.3 0.8,4.6 1.1,6.9 0.3,2.7 0.4,5.3 0.2,8 -0.2,3.3 -0.8,6.6 -2,9.7 q -1.05,2.85 -2.7,5.4 c -1.4,2.2 -3,4.2 -5,5.9 -2.3,2.1 -4.9,3.9 -7.7,5.4 -3.7,2.1 -7.7,3.6 -11.8,4.8 -3.9,1.2 -7.9,2 -11.9,2.7 -1.1,0.2 -2.2,0.4 -3.3,0.4 -2.3,-0.1 -4.6,-0.6 -6.8,-1.4 -3.3,-1.3 -6.2,-3.3 -9.5,-4.8 -1.8,-0.8 -3.6,-1.4 -5.5,-1.5 -2.5,-0.2 -4.6,0.7 -6.4,2.4 l -3.9,3.9 c -2.2,2.2 -4.8,3.7 -7.9,4.2 -2.1,0.3 -4.1,0.2 -6.2,-0.1 -2.9,-0.4 -5.7,-1.1 -8.4,-1.9 -4,-1.3 -7.7,-3.1 -11.1,-5.7 -3.2,-2.4 -5.7,-5.4 -7.8,-8.8 -2.1,-3.5 -3.3,-7.2 -4.2,-11.1 -0.4,-1.7 -0.6,-3.5 -0.8,-5.2 -0.3,-2.5 -0.4,-4.9 -0.3,-7.4 0.1,-3.5 0.4,-6.9 0.9,-10.4 0.4,0.4 0.8,0.7 1.1,1 2.2,2 4.7,3.8 7.3,5.4 2.9,1.7 6.1,3.1 9.4,4 2.2,0.6 4.5,1 6.8,1.1 1.9,0.2 3.8,0.2 5.7,0.1 2.2,-0.1 4.5,-0.3 6.7,-0.9 0.3,0 0.6,0 0.8,-0.1 q 3,-0.6 6,-1.5 c 2.3,-0.7 4.5,-1.4 6.7,-2.2 2.1,-0.8 4.3,-1.7 6.4,-2.6 0.6,-0.3 1,-0.2 1.5,0.2 3.5,2.7 7.3,5 11.4,6.7 4.6,1.8 9.3,2.7 14.2,2.3 3.6,-0.7 7,-1.6 10.3,-2.9"
                     class="st0"
                     style="fill:#24af63" />
                  <path
                     id="path32-7-7-80-3-26-5"
                     d="m 1050.5,250.65 c -3.3,1.3 -6.7,2.2 -10.2,2.5 -4.9,0.4 -9.6,-0.5 -14.2,-2.3 -4.1,-1.6 -7.9,-3.9 -11.4,-6.7 -0.5,-0.4 -0.9,-0.5 -1.5,-0.2 -2.1,0.9 -4.2,1.8 -6.4,2.6 -2.2,0.8 -4.4,1.6 -6.7,2.2 -2,0.6 -4,1 -6,1.5 -0.3,0.1 -0.6,0.1 -0.8,0.1 l 2.1,-2.4 c 2.8,-3.2 4.8,-6.9 5.9,-11.1 1.6,-5.6 3.2,-11.3 4.6,-17 1,-4.2 1.8,-8.4 2.4,-12.7 0.4,-3.1 1,-14.9 0.8,-17.7 -0.5,-8.6 -2.4,-16.8 -5.9,-24.7 -2.1,-4.7 -5.7,-7.9 -10.7,-9.2 -2.2,-0.6 -4.4,-0.4 -6.5,0.3 -0.2,0.1 -0.3,0.2 -0.5,0.1 3.3,-2.8 6.7,-5.4 11.1,-6.4 3.5,-0.8 6.8,-0.2 9.8,1.7 3,1.9 5.3,4.4 7.4,7.2 2.7,3.7 4.9,7.7 6.9,11.8 0.4,0.9 0.4,0.9 1.1,0.2 3.7,-3.8 7.7,-7.3 12.1,-10.2 4.4,-3 9.2,-5.3 14.5,-6.4 4.1,-0.8 8.2,-0.7 12.3,0.2 1.9,0.4 3.7,1 5.5,1.8 0.1,0.1 0.3,0.1 0.3,0.2 -5.3,0.1 -9.8,2.1 -13.9,5.2 -2,1.5 -3.8,3.2 -5.2,5.3 -1.1,1.7 -2.1,3.6 -2.9,5.5 -1.8,3.8 -3.3,7.8 -4.4,11.9 -0.9,3.5 -1.5,7.1 -1.8,10.7 -0.2,2.8 -0.3,5.6 -0.2,8.4 0.1,3.4 0.5,6.8 0.9,10.3 0.7,5.7 1.7,11.4 2.7,17.1 0.5,3.1 0.9,6.3 1.5,9.5 0.7,4.6 3.3,8 7,10.6 0,-0.1 0.2,0 0.3,0.1"
                     class="st4"
                     style="fill:#ecdc86" />
                  <path
                     id="path34-6-6-17-5-1-0"
                     d="m 1043.1,62.35 h 4.5 c 3.6,0.2 7.2,0.8 10.6,2 2.7,0.9 3.3,2.7 1.7,5 -1.1,1.6 -2.7,2.8 -4.4,3.9 -2.1,1.4 -4.4,2.6 -6.9,3.5 -2.5,1 -4.9,0 -6.5,-2.5 -0.5,-0.8 -0.9,-1.6 -1.1,-2.5 -0.1,-0.3 -0.2,-0.4 -0.5,-0.4 -5.6,-1 -10.6,0.3 -14.7,4.3 -3.4,3.2 -5.4,7.3 -6.8,11.7 -1.3,4 -1.9,8 -2.1,12.2 -0.2,3.7 0.1,7.4 0.6,11 0.1,0.6 0.3,1.2 0.3,1.9 0.1,0.8 -0.2,1.5 -0.8,1.9 -0.7,0.5 -1.5,0.4 -2.3,0.4 -1.9,-0.6 -3.8,-1.2 -5.7,-1.7 v -1.3 c 0,-2 0,-3.9 0.1,-5.9 0.4,-7.7 1.6,-15.3 4.6,-22.5 2.2,-5.4 5.4,-10.1 9.9,-13.8 3.7,-3.1 7.9,-5.1 12.6,-6.2 2.4,-0.6 4.6,-0.9 6.9,-1"
                     style="fill:#3f2b29" />
                  <path
                     id="path36-7-31-9-4-0-9"
                     d="m 1014.8,114.65 c 0.8,0 1.6,0.1 2.3,-0.4 0.7,-0.5 0.9,-1.2 0.8,-1.9 -0.1,-0.6 -0.2,-1.3 -0.3,-1.9 0.4,0 0.7,-0.1 1.1,-0.1 1.4,0.8 2.9,1.5 4.4,2.3 3.4,2.1 5.5,5.1 6.9,8.8 0.2,0.6 0.4,1.1 0.6,1.7 -0.8,-0.7 -1.6,-1.4 -2.4,-2 -3.2,-2.4 -6.7,-4.1 -10.4,-5.5 -1.1,-0.3 -2,-0.6 -3,-1"
                     class="st7"
                     style="fill:#396e35" />
                  <path
                     id="path38-3-7-1-8-6-6"
                     d="m 1009.1,111.65 v 1.3 c -1.3,-0.4 -2.6,-0.7 -3.9,-1.2 1.4,-0.1 2.7,-0.1 3.9,-0.1"
                     class="st7"
                     style="fill:#396e35" />
                </g>
              </g>
              <text
                 id="text53-6-5-0-7-1-3"
                 x="-125.72501"
                 y="349.245"
                 font-size="209.87"
                 font-weight="bold"
                 style="font-weight:700;font-size:209.87px;font-family:'Maven Pro'"><tspan
                   id="tspan55-5-9-3-3-5-8"
                   x="-125.72501"
                   y="349.245"
                   class="st0 st1 st2"
                   font-size="209.87"
                   font-weight="bold"
                   style="font-weight:700;font-size:209.867px;font-family:'Maven Pro';fill:#24af63">nf-</tspan></text>
              <text
                 id="text69-63-6-5-3-9-5"
                 x="182.517"
                 y="349.245"
                 font-size="209.87"
                 font-weight="bold"
                 style="font-weight:700;font-size:209.87px;font-family:'Maven Pro';fill:#ffffff"><tspan
                   id="tspan71-9-2-9-5-4-6"
                   x="182.517"
                   y="349.245"
                   class="st0 st1 st2"
                   font-size="209.87"
                   font-weight="bold"
                   style="font-weight:700;font-size:209.867px;font-family:'Maven Pro';fill:#ffffff"><tspan
                     id="tspan73-4-1-4-0-9-1"
                     style="fill:#ffffff">core/</tspan></tspan></text>
              <path
                 id="path67-8-7-8-1-0-1"
                 d="m 125.813,274.116 -21.532,21.616 h 61.092 v -21.617 z"
                 style="fill:url(#f-22-3-1-7-8-1)" />
            </g>
          </g>
        </g>
      </g>
      <g
         id="g493"
         transform="matrix(1.5986244,0,0,1.5986244,-6012.2764,24.847418)">
        <g
           id="g494"
           transform="translate(1.387575)">
          <path
             id="path30012-5"
             style="fill:none;fill-opacity:1;stroke:none;stroke-width:0.696505;stroke-linecap:round"
             d="m 3275.6351,-88.760525 c -3.3351,5.214375 -3.0316,11.927666 -2.9858,17.904532 1.3674,10.906634 6.8235,21.443317 15.834,27.96128 4.8428,4.024441 10.1082,7.490718 15.2527,11.10929 -3.1277,6.847144 -4.8891,15.243024 -0.4883,21.9822503 2.7494,6.1021116 7.944,11.3112892 8.7211,18.1347118 -1.2003,4.6990629 -5.8144,10.4365519 -1.6018,14.9586319 3.4797,4.542604 6.6622,9.260765 8.7757,14.462795 3.3225,5.498997 10.8158,6.717357 16.7273,6.127013 4.0613,-0.295196 7.741,-4.388768 5.3775,-8.32793 -1.9385,-4.196686 -7.0286,-3.580506 -10.4694,-5.329915 -2.2427,-4.012031 -4.9288,-9.821683 -0.4283,-13.408009 4.2502,-4.440522 7.703,-9.5408312 11.3855,-14.3835664 4.4573,-2.03990057 9.8166,-0.1072131 14.5015,0.4686883 17.8468,4.0727028 34.9405,11.2905021 53.0501,14.1765991 5.1463,0.674393 11.0848,-0.743819 15.7041,1.510917 2.3105,7.274537 3.8397,15.498582 9.4463,21.057825 4.4154,3.173326 11.5119,3.483293 15.6328,-0.226016 2.6333,-4.806096 -2.496,-9.66452 -6.8885,-10.862044 -0.6569,-4.626718 -0.6224,-9.62588 0.4403,-14.074238 6.1932,-0.396426 11.8704,1.917278 17.4054,4.021227 2.9282,5.56803 8.3977,9.775749 14.6096,10.897716 2.6298,-2.303146 4.1979,2.833736 6.3785,4.11249 4.5854,4.803653 11.311,8.202946 18.0224,7.796504 5.3492,-1.110639 6.2221,-7.531996 4.0569,-11.754322 -1.3277,-6.888193 -5.2798,-14.088337 -1.9749,-21.0221529 1.9239,-8.53438894148 -2.2164,-17.9725315 -9.4614,-22.7983811 -7.1104,-5.974358 -17.0341,-5.977915 -24.4712,-11.370716 -16.4462,-10.08965 -35.4766,-15.71045 -54.5579,-18.499269 -20.6008,-1.620441 -41.3175,-1.131196 -61.938,-2.5969 -11.6278,-0.418065 -23.8539,-1.895622 -34.809,3.025195 -6.4044,-0.590967 -11.8513,-4.897489 -17.378,-7.922127 -5.965,-3.721276 -12.539,-8.104274 -13.8816,-15.571565 -2.6855,-6.680128 -1.9752,-14.146222 -4.2215,-20.859399 -0.1508,-2.355769 -5.1588,-3.295326 -5.7661,-0.701082 z" />
          <path
             style="fill:url(#linearGradient30057);fill-opacity:1;stroke:none;stroke-width:0.696505;stroke-linecap:round"
             d="m 3277.8339,-86.928952 c -1.8829,2.201884 -1.7753,5.529932 -2.215,8.298832 -0.5593,4.527391 -0.4788,9.160028 1.1036,13.48996 1.8677,6.346029 4.8894,12.546862 10.064,16.837335 6.2164,5.806292 13.5084,10.387552 20.3776,15.247828 -1.5006,4.906654 -4.3532,9.630012 -3.7837,14.974927 0.2961,4.388522 3.1897,8.049324 5.1124,11.8557479 2.4744,4.6321287 6.307,9.09811 6.2707,14.6070743 -0.129,4.0871128 -4.0669,7.3904878 -3.2223,11.5388788 2.7445,4.395703 6.5442,8.146586 8.4579,13.06178 1.0747,2.633261 2.409,5.582604 5.4395,6.347112 3.9037,1.346753 8.8703,2.689261 12.5099,0.02049 1.3547,-2.430507 -1.7525,-4.47467 -3.8809,-4.710523 -2.8066,-0.288344 -6.0568,-0.976524 -7.2005,-3.954817 -1.5784,-3.716736 -3.76,-8.012176 -2.2256,-12.080682 3.2799,-5.408309 8.4431,-9.3817003 11.5626,-14.9248449 1.5948,-2.73708052 3.9972,-5.4957676 7.4597,-5.3500464 10.9243,-0.2230982 21.3594,3.7023587 31.7296,6.63639 10.4694,2.9447525 20.783,6.5917343 31.4826,8.6211263 6.1949,0.955344 12.6675,-0.30495 18.7208,1.533262 2.6797,1.236524 2.2216,4.80885 3.3695,7.117357 1.9011,5.023325 2.9712,10.740158 6.8331,14.706058 2.899,2.337507 7.2014,2.231441 10.5572,1.037589 1.9785,-1.16195 -0.1155,-3.762293 -1.3563,-4.65603 -1.3992,-1.597229 -4.0837,-1.340868 -5.2457,-3.096785 -1.0115,-5.268834 -0.7906,-10.784831 0.03,-16.072189 0.3801,-2.688343 3.3453,-3.445227 5.6426,-3.016162 5.4201,0.166016 10.6675,2.408507 15.6668,3.839998 -1.1681,-2.972556 -1.9528,-6.1507017 -1.5959,-9.390405 0.034,-2.7843592 0.2572,-5.87675097 2.6094,-7.7550451 3.0002,-3.0594574 5.9054,-6.3248327 9.3494,-8.8702899 0.9435,0.266786 -0.5915,1.4008512 -0.8175,1.7932117 -3.128,3.4295228 -6.9637,6.2982098 -9.5589,10.16748645 -0.7662,3.16234255 -0.6802,6.55207855 -0.4029,9.78106085 1.3907,4.225014 3.5584,8.401421 6.778,11.501387 2.2332,1.436983 4.5213,3.291211 7.1759,3.723441 2.6579,-1.226934 3.1969,-4.672227 4.1824,-7.146915 1.8182,-6.556865 3.1275,-13.2546484 4.4581,-19.9232515 0.279,-2.8851624 1.238,-6.630767 -1.5407,-8.6355036 -1.0892,-0.5186229 -0.2472,-1.7266219 0.5926,-0.8660159 3.3219,2.4768183 2.1412,7.1459142 1.7379,10.64892878 -1.3989,6.99419302 -2.7291,14.04181222 -4.856,20.85739922 -0.1934,1.501261 -2.1972,3.275736 -0.8752,4.465587 4.2418,4.219047 7.8892,9.706766 13.9484,11.418798 2.6201,0.827393 6.2302,2.736802 8.505,0.239114 1.9306,-2.297867 -0.1599,-5.225735 -0.4661,-7.739209 -1.236,-5.400538 -3.5356,-10.75483 -3.2203,-16.378778 0.6126,-3.4513588 2.713,-6.7464882 1.6749,-10.3649453 -0.5737,-4.6650468 -2.3826,-9.3434705 -6.1952,-12.2952722 -4.5435,-4.3869325 -10.4997,-6.8021765 -16.5564,-8.2146185 -6.2551,-2.042507 -11.4621,-6.285751 -17.4057,-9.022356 -11.024,-6.064948 -23.2924,-9.265061 -35.4357,-12.204485 -13.6119,-3.167687 -27.6866,-2.425261 -41.5469,-3.029458 -13.874,-0.221639 -27.7109,-1.312819 -41.5765,-1.723065 -7.1924,-0.332983 -14.625,-0.08574 -21.3075,2.90736 -4.6455,2.024589 -9.1002,-1.367951 -13.2238,-3.116736 -6.4825,-3.467409 -13.4533,-7.594013 -18.771,-12.813223 -2.3622,-2.505442 -3.2522,-5.139309 -4.2852,-8.091078 -1.6141,-4.612211 -2.662,-9.791995 -3.1905,-14.868828 -0.3959,-2.289278 -0.1252,-4.941686 -1.3332,-6.955144 -0.036,-0.01148 -0.074,-0.01754 -0.1111,-0.01148 z"
             id="path30012"
             sodipodi:nodetypes="cccccccccccccccccccccccccccccccccccccccccccccccccccccccccscccc"
             inkscape:export-filename="/Users/whx424/Pictures/Illustrations/taxprofiler_v11.png"
             inkscape:export-xdpi="159"
             inkscape:export-ydpi="159" />
          <g
             id="g2682"
             style="fill:url(#linearGradient2708);fill-opacity:1;stroke:url(#linearGradient2708)"
             inkscape:export-filename="/Users/whx424/Pictures/Illustrations/taxprofiler_v11.png"
             inkscape:export-xdpi="159"
             inkscape:export-ydpi="159"
             transform="matrix(6.0913029,0,0,6.0913029,3209.3757,-432.04407)">
            <ellipse
               style="fill:url(#linearGradient1);fill-opacity:1;stroke:url(#linearGradient2);stroke-width:1;stroke-linecap:round;stroke-miterlimit:4;stroke-dasharray:none"
               id="path1218-5"
               cx="16.378149"
               cy="80.642143"
               rx="1.4964142"
               ry="1.4176555" />
            <ellipse
               style="fill:url(#linearGradient3);fill-opacity:1;stroke:url(#linearGradient4);stroke-width:1;stroke-linecap:round;stroke-miterlimit:4;stroke-dasharray:none"
               id="path1218-8"
               cx="19.516428"
               cy="80.069572"
               rx="1.4964142"
               ry="1.4176555" />
            <ellipse
               style="fill:url(#linearGradient5);fill-opacity:1;stroke:url(#linearGradient6);stroke-width:1;stroke-linecap:round;stroke-miterlimit:4;stroke-dasharray:none"
               id="path1218-4"
               cx="22.48292"
               cy="80.818146"
               rx="1.4964142"
               ry="1.4176555" />
            <ellipse
               style="fill:url(#linearGradient7);fill-opacity:1;stroke:url(#linearGradient8);stroke-width:1;stroke-linecap:round;stroke-miterlimit:4;stroke-dasharray:none"
               id="path1218-7"
               cx="25.628136"
               cy="80.078003"
               rx="1.4964142"
               ry="1.4176555" />
            <ellipse
               style="fill:url(#linearGradient9);fill-opacity:1;stroke:url(#linearGradient10);stroke-width:1;stroke-linecap:round;stroke-miterlimit:4;stroke-dasharray:none"
               id="path1218-1"
               cx="28.735676"
               cy="80.714775"
               rx="1.4964142"
               ry="1.4176555" />
            <ellipse
               style="fill:url(#linearGradient11);fill-opacity:1;stroke:url(#linearGradient12);stroke-width:1;stroke-linecap:round;stroke-miterlimit:4;stroke-dasharray:none"
               id="path1218-73"
               cx="31.72254"
               cy="79.995911"
               rx="1.4964142"
               ry="1.4176555" />
            <ellipse
               style="fill:url(#linearGradient13);fill-opacity:1;stroke:url(#linearGradient14);stroke-width:1;stroke-linecap:round;stroke-miterlimit:4;stroke-dasharray:none"
               id="path1218-5-9"
               cx="34.695347"
               cy="80.538773"
               rx="1.4964142"
               ry="1.4176555" />
            <ellipse
               style="fill:url(#linearGradient15);fill-opacity:1;stroke:url(#linearGradient16);stroke-width:1;stroke-linecap:round;stroke-miterlimit:4;stroke-dasharray:none"
               id="path1218-8-7"
               cx="37.83363"
               cy="79.966202"
               rx="1.4964142"
               ry="1.4176555" />
            <ellipse
               style="fill:url(#linearGradient17);fill-opacity:1;stroke:url(#linearGradient18);stroke-width:1;stroke-linecap:round;stroke-miterlimit:4;stroke-dasharray:none"
               id="path1218-4-7"
               cx="40.800121"
               cy="80.714775"
               rx="1.4964142"
               ry="1.4176555" />
            <ellipse
               style="fill:url(#linearGradient19);fill-opacity:1;stroke:url(#linearGradient20);stroke-width:1;stroke-linecap:round;stroke-miterlimit:4;stroke-dasharray:none"
               id="path1218-7-9"
               cx="43.945339"
               cy="79.974632"
               rx="1.4964142"
               ry="1.4176555" />
            <ellipse
               style="fill:url(#linearGradient21);fill-opacity:1;stroke:url(#linearGradient22);stroke-width:1;stroke-linecap:round;stroke-miterlimit:4;stroke-dasharray:none"
               id="path1218-1-5"
               cx="47.052876"
               cy="80.611404"
               rx="1.4964142"
               ry="1.4176555" />
          </g>
        </g>
      </g>
    </g>
  </g>
</svg>
