<?xml version="1.0" encoding="UTF-8" standalone="no"?>
<!DOCTYPE svg PUBLIC "-//W3C//DTD SVG 1.1//EN" "http://www.w3.org/Graphics/SVG/1.1/DTD/svg11.dtd">
<svg width="100%" height="100%" viewBox="0 0 250 251" version="1.1" xmlns="http://www.w3.org/2000/svg" xmlns:xlink="http://www.w3.org/1999/xlink" xml:space="preserve" xmlns:serif="http://www.serif.com/" style="fill-rule:evenodd;clip-rule:evenodd;stroke-linejoin:round;stroke-miterlimit:2;">
    <g id="Artboard1" transform="matrix(1,0,0,1,-124.5,-125.4)">
        <rect x="124.5" y="125.4" width="250" height="250.1" style="fill:none;"/>
        <clipPath id="_clip1">
            <rect x="124.5" y="125.4" width="250" height="250.1"/>
        </clipPath>
        <g clip-path="url(#_clip1)">
            <g transform="matrix(1,0,0,1,0.5,0.4)">
                <path d="M124.5,171.5C163.9,174.1 195.6,205.8 198,245.3L244.1,245.3C241.5,180.3 189.4,128.1 124.5,125.4L124.5,171.5Z" style="fill:rgb(13,192,157);fill-rule:nonzero;"/>
            </g>
            <g transform="matrix(1,0,0,1,0.5,0.4)">
                <path d="M198.3,255.8C195.7,295.2 164,326.9 124.5,329.3L124.5,375.4C189.5,372.8 241.7,320.7 244.4,255.8L198.3,255.8Z" style="fill:rgb(13,192,157);fill-rule:nonzero;"/>
            </g>
            <g transform="matrix(1,0,0,1,0.5,0.4)">
                <path d="M300.7,245C303.3,205.5 335,173.9 374.5,171.5L374.5,125.4C309.5,128 257.3,180.1 254.6,245L300.7,245Z" style="fill:rgb(13,192,157);fill-rule:nonzero;"/>
            </g>
            <g transform="matrix(1,0,0,1,0.5,0.4)">
                <path d="M374.5,329.4C335.1,326.8 303.4,295.1 301,255.6L254.9,255.6C257.5,320.6 309.6,372.8 374.5,375.5L374.5,329.4Z" style="fill:rgb(13,192,157);fill-rule:nonzero;"/>
            </g>
        </g>
    </g>
</svg>
