<svg xmlns="http://www.w3.org/2000/svg" xmlns:xlink="http://www.w3.org/1999/xlink" viewBox="0 0 88.12 83.34"><defs><style>.a{fill:none;}.b{clip-path:url(#a);}.c{fill:#9dcd58;}</style><clipPath id="a" transform="translate(-2.5 -2.27)"><rect class="a" width="94.48" height="87.88"/></clipPath></defs><g class="b"><path class="c" d="M57.24,51.24a10.26,10.26,0,0,0,1-4.47,10.61,10.61,0,0,0-.49-3h0c0-.08-.05-.16-.08-.24l0-.08a1.21,1.21,0,0,1-.05-.14l0-.07c-.62-2-2.09-3.78-3.79-5.86-2.09-2.55-4.45-5.44-5.68-9.32s-.91-7.3-.66-10.4c.22-2.65.42-5.16-.3-7.47h0s0,0,0-.05a.94.94,0,0,1,0-.16l0-.08-.07-.25c-.06-.17-.11-.34-.17-.5l0-.07c-.06-.15-.11-.29-.17-.43h0A10.48,10.48,0,0,0,34.83,2.49h0l-.46.11-.06,0-.52.14a10.45,10.45,0,0,0-6.13,5.16c-.16.31-.31.62-.44.94a10.58,10.58,0,0,0-.75,4A11,11,0,0,0,27,15.9h0c0,.08.05.16.07.24l0,.08s0,0,0,.05l0,.07s0,0,0,.05l0,.05c.62,2,2.09,3.77,3.79,5.85,2.09,2.55,4.45,5.44,5.68,9.33s1,7.65.71,11c-.19,2.67-.36,5,.26,6.91h0a.13.13,0,0,1,0,.06l0,.15,0,.09c0,.08,0,.16.07.24s.1.28.14.42a10.46,10.46,0,0,0,13,6.41A10.37,10.37,0,0,0,57,51.71a4.09,4.09,0,0,0,.23-.47" transform="translate(-2.5 -2.27)"/><path class="c" d="M88.66,24.93a12.41,12.41,0,0,0-22.58,4l-.06.3,0,.1c0,.07,0,.14,0,.2h0v0h0c-.54,2.39-.09,5.11.43,8.26.63,3.88,1.35,8.27.3,13s-3.57,8.46-5.79,11.73c-1.79,2.63-3.33,4.9-3.85,7.25v0s0,0,0,.06a1.33,1.33,0,0,1-.05.19l0,.1c0,.1-.05.19-.07.29A12.41,12.41,0,0,0,75.67,83.66a12.49,12.49,0,0,0,1.93-1.51,12.35,12.35,0,0,0,3.52-6.27h0l.06-.29,0-.1a1.55,1.55,0,0,1,0-.21h0v-.05h0c.54-2.4.1-5.13-.42-8.28-.63-3.87-1.35-8.26-.3-13S83.93,45.85,86,42.8c1.8-2.6,3.5-5.06,4.12-7.86v0s0,0,0-.06a1.21,1.21,0,0,0,0-.18l0-.1c0-.1,0-.2.07-.3a12.31,12.31,0,0,0-1.66-9.35" transform="translate(-2.5 -2.27)"/><path class="c" d="M18.82,29.34a11.16,11.16,0,1,0-5.16,21.07,11.16,11.16,0,0,0,5.16-21.07" transform="translate(-2.5 -2.27)"/></g></svg>