<svg width="150" height="150" viewBox="0 0 150 150" fill="none" xmlns="http://www.w3.org/2000/svg">
<path d="M101.16 76.3203L101.28 76.3503L101.4 76.3803L101.49 76.4403L101.58 76.5003L101.67 76.5603L101.76 76.6203L101.85 76.6803L101.94 76.7403L102.03 76.8003L102.12 76.8603L102.21 76.9503L102.27 77.0403L102.33 77.1303L102.39 77.2203L102.45 77.3103L102.51 77.4003L102.57 77.4903L102.63 77.5803L102.66 77.6703L102.69 77.7603L102.72 77.8803L102.75 78.0003L102.78 78.1203L102.81 78.2403V78.3603V78.4803V78.6003V78.7203V78.8403V78.9603L102.78 79.0803L102.75 79.2003L102.72 79.3203L102.69 79.4103L102.66 79.5303L102.63 79.6203L102.57 79.7103L102.51 79.8003L102.45 79.8903L102.39 79.9803L102.33 80.0703L102.27 80.1603L102.21 80.2503L102.12 80.3403L102.03 80.4303L101.94 80.4903L101.85 80.5503L101.76 80.6103L101.67 80.6703L101.58 80.7303L101.49 80.7903L101.4 80.8203L101.28 80.8803L101.16 80.9103L101.04 80.9403L100.92 80.9703L100.8 81.0003L100.68 81.0303H100.56H100.44H100.5H100.62H100.83H101.04L101.25 81.0003L101.46 80.9703L101.67 80.9403L101.88 80.9103L102.09 80.8803L102.3 80.8503L102.51 80.7903L102.72 80.7303L102.93 80.6703L103.11 80.6103L103.29 80.5503L103.47 80.4603L103.65 80.3703L103.83 80.2803L104.01 80.1903L104.19 80.1003L104.37 80.0103L104.55 79.8903L104.73 79.7703L104.91 79.6503L105.09 79.5303L105.24 79.4103L105.39 79.2903L105.54 79.1703L105.69 79.0203L105.84 78.8703L105.99 78.7203L106.14 78.5703L106.26 78.4203L106.38 78.2703L106.5 78.1203L106.62 77.9703L106.74 77.8203L106.86 77.6403L106.98 77.4603L107.07 77.2803L107.16 77.1003L107.25 76.9203L107.34 76.7403L107.43 76.5603L107.52 76.3803L107.61 76.2003L107.67 76.0203L107.73 75.8403L107.79 75.6303L107.85 75.4203L107.91 75.2103L107.97 75.0003L108 74.7903L108.03 74.5803L108.06 74.3703L108.09 74.1603L108.12 73.9503V73.7403V73.5303V73.3203V73.1103V72.9003V72.6903L108.09 72.4803L108.06 72.2703L108.03 72.0603L108 71.8503L107.97 71.6403L107.91 71.4303L107.88 71.2803H100.59H100.44H83.1899L101.1 76.2003L101.16 76.3203Z" fill="white"/>
<path d="M112.5 78.12L112.47 77.85L112.44 77.61L112.41 77.34L112.38 77.1L112.35 76.86L112.32 76.62L112.26 76.38L112.2 76.14L112.14 75.9L112.08 75.66L112.02 75.42L111.96 75.18L111.87 74.94L111.78 74.7L111.69 74.46L111.6 74.22L111.51 73.98L111.42 73.74L111.3 73.5L111.18 73.26L111.06 73.02L110.94 72.78L110.82 72.57L110.7 72.36L110.55 72.15L110.4 71.94L110.25 71.73L110.1 71.52L110.04 71.46H107.79L107.82 71.61L107.88 71.82L107.91 72.03L107.94 72.24L107.97 72.45L108 72.66L108.03 72.87V73.08V73.29V73.5V73.71V73.92V74.13L108 74.34L107.97 74.55L107.94 74.76L107.91 74.97L107.88 75.18L107.82 75.39L107.76 75.6L107.7 75.81L107.64 76.02L107.58 76.2L107.52 76.38L107.43 76.56L107.34 76.74L107.25 76.92L107.16 77.1L107.07 77.28L106.98 77.46L106.86 77.64L106.74 77.82L106.62 78L106.5 78.15L106.38 78.3L106.26 78.45L106.14 78.6L105.99 78.75L105.84 78.9L105.69 79.05L105.54 79.2L105.39 79.35L105.24 79.47L105.09 79.59L104.94 79.71L104.76 79.83L104.58 79.95L104.4 80.07L104.22 80.19L104.04 80.28L103.86 80.37L103.68 80.46L103.5 80.55L103.32 80.64L103.14 80.73L102.96 80.79L102.78 80.85L102.6 80.91L102.39 80.97L102.18 81.03L101.97 81.06L101.76 81.09L101.55 81.12L101.34 81.15L101.13 81.18L100.92 81.21H100.71H100.5H100.29H37.5V90.9H100.41H100.68H100.92L101.19 90.87L101.46 90.84L101.73 90.81L101.97 90.78L102.24 90.75L102.48 90.72L102.72 90.69L102.96 90.63L103.2 90.57L103.44 90.51L103.68 90.45L103.92 90.39L104.16 90.33L104.4 90.24L104.64 90.15L104.88 90.06L105.12 89.97L105.36 89.88L105.6 89.76L105.84 89.64L106.08 89.52L106.32 89.4L106.53 89.28L106.74 89.16L106.95 89.01L107.16 88.86L107.37 88.71L107.58 88.56L107.79 88.41L108 88.26L108.21 88.08L108.42 87.9L108.6 87.72L108.78 87.54L108.96 87.36L109.14 87.18L109.32 87L109.5 86.82L109.68 86.64L109.83 86.43L109.98 86.22L110.13 86.01L110.28 85.8L110.43 85.59L110.58 85.38L110.73 85.17L110.85 84.96L110.97 84.75L111.09 84.51L111.21 84.27L111.33 84.03L111.45 83.79L111.54 83.55L111.63 83.31L111.72 83.07L111.81 82.83L111.9 82.59L111.99 82.35L112.05 82.11L112.11 81.87L112.17 81.63L112.23 81.39L112.29 81.15L112.35 80.91L112.38 80.67L112.41 80.4L112.44 80.16L112.47 79.89L112.5 79.62L112.53 79.38V79.11V78.84V78.57L112.5 78.12Z" fill="#0DC09D"/>
<path d="M48.8401 73.6502L48.7201 73.6202L48.6001 73.5902L48.5101 73.5302L48.4201 73.4702L48.3301 73.4102L48.2401 73.3502L48.1501 73.2902L48.0601 73.2302L47.9701 73.1702L47.8801 73.1102L47.7901 73.0202L47.7301 72.9302L47.6701 72.8402L47.6101 72.7502L47.5501 72.6602L47.4901 72.5702L47.4301 72.4802L47.3701 72.3902L47.3401 72.3002L47.3101 72.1802L47.2801 72.0602L47.2501 71.9402L47.2201 71.8202L47.1901 71.7002V71.5802V71.4602V71.3402V71.2202V71.1002V70.9802L47.2201 70.8602L47.2501 70.7402L47.2801 70.6202L47.3101 70.5002L47.3401 70.3802L47.3701 70.2902L47.4301 70.2002L47.4901 70.1102L47.5501 70.0202L47.6101 69.9302L47.6701 69.8402L47.7301 69.7502L47.7901 69.6602L47.8801 69.5702L47.9701 69.4802L48.0601 69.4202L48.1501 69.3602L48.2401 69.3002L48.3301 69.2402L48.4201 69.1802L48.5101 69.1202L48.6001 69.0902L48.7201 69.0602L48.8401 69.0302L48.9601 69.0002L49.0801 68.9702L49.2001 68.9402L49.3201 68.9102H49.4401H49.5601H49.5901H49.4701H49.2601L49.0501 68.9402L48.8401 68.9702L48.6301 69.0002L48.4201 69.0302L48.2101 69.0602L48.0001 69.0902L47.7901 69.1502L47.5801 69.2102L47.3701 69.2702L47.1601 69.3302L46.9801 69.3902L46.7701 69.4502L46.5901 69.5402L46.4101 69.6302L46.2301 69.7202L46.0501 69.8102L45.8701 69.9002L45.6901 69.9902L45.5101 70.1102L45.3301 70.2302L45.1501 70.3502L44.9701 70.4702L44.7901 70.5902L44.6401 70.7102L44.4901 70.8302L44.3401 70.9802L44.1901 71.1302L44.0401 71.2802L43.8901 71.4302L43.7401 71.5802L43.5901 71.7302L43.4701 71.8802L43.3501 72.0302L43.2301 72.2102L43.1101 72.3902L42.9901 72.5702L42.8701 72.7502L42.7801 72.9302L42.6901 73.1102L42.6001 73.2902L42.5101 73.4702L42.4201 73.6502L42.3301 73.8302L42.2701 74.0102L42.2101 74.1902L42.1501 74.4002L42.0901 74.6102L42.0301 74.8202L41.9701 75.0302L41.9401 75.2402L41.9101 75.4502L41.8801 75.6602L41.8501 75.8702L41.8201 76.0802V76.2902V76.5002V76.7102V76.9202V77.1302V77.3402L41.8501 77.5502L41.8801 77.7602L41.9101 77.9702L41.9401 78.1802L41.9701 78.3902L42.0301 78.6002L42.0601 78.7502H49.3501H49.5001H66.7501L48.8401 73.8302V73.6502Z" fill="white"/>
<path d="M37.4999 71.8802V72.1502L37.5299 72.4202L37.5599 72.6902L37.5899 72.9302L37.6199 73.1702L37.6499 73.4102L37.7099 73.6802L37.7699 73.9202L37.8299 74.1602L37.8899 74.4002L37.9499 74.6402L38.0399 74.8802L38.1299 75.1202L38.2199 75.3602L38.3099 75.6002L38.3999 75.8402L38.4899 76.0802L38.5799 76.3202L38.6999 76.5602L38.8199 76.8002L38.9399 77.0402L39.0599 77.2802L39.1799 77.4902L39.2999 77.7002L39.4499 77.9102L39.5999 78.1202L39.7499 78.3302L39.8999 78.5402L39.9599 78.6002H42.2099L42.1799 78.4502L42.1199 78.2402L42.0899 78.0302L42.0599 77.8202L42.0299 77.6102L41.9999 77.4002L41.9699 77.1902L41.9399 76.9802V76.7702V76.5602V76.3502V76.1402L41.9699 75.9302L41.9999 75.7202L42.0299 75.5102L42.0599 75.3002L42.0899 75.0902L42.1199 74.8802L42.1799 74.6702L42.2399 74.4902L42.2999 74.2802L42.3599 74.1002L42.4199 73.9202L42.4799 73.7402L42.5699 73.5602L42.6599 73.3802L42.7499 73.2002L42.8399 73.0202L42.9299 72.8402L43.0199 72.6602L43.1399 72.4802L43.2599 72.3002L43.3799 72.1202L43.4999 71.9402L43.6199 71.7902L43.7399 71.6402L43.8899 71.4902L44.0399 71.3402L44.1899 71.1902L44.3399 71.0402L44.4899 70.8902L44.6399 70.7402L44.7899 70.6202L44.9399 70.5002L45.1199 70.3802L45.2999 70.2602L45.4799 70.1402L45.6599 70.0202L45.8399 69.9002L46.0199 69.8102L46.1999 69.7202L46.3799 69.6302L46.5599 69.5402L46.7399 69.4502L46.9199 69.3602L47.1299 69.3002L47.3099 69.2402L47.5199 69.1802L47.7299 69.1202L47.9399 69.0602L48.1499 69.0002L48.3599 68.9702L48.5699 68.9402L48.7799 68.9102L48.9899 68.8802L49.1999 68.8502L49.4099 68.8202H49.6199H49.8299H112.5V59.1602H49.5899H49.3199H49.0499H48.7799L48.5099 59.1902L48.2399 59.2202L47.9999 59.2502L47.7299 59.2802L47.4899 59.3102L47.2499 59.3702L46.9799 59.4302L46.7399 59.4902L46.4999 59.5502L46.2599 59.6102L46.0199 59.6702L45.7799 59.7302L45.5399 59.8202L45.2999 59.9102L45.0599 60.0002L44.8199 60.0902L44.5799 60.1802L44.3399 60.3002L44.0999 60.4202L43.8599 60.5402L43.6199 60.6602L43.4099 60.7802L43.1999 60.9002L42.9899 61.0502L42.7799 61.2002L42.5999 61.5002L42.3899 61.6502L42.1799 61.8002L41.9699 61.9502L41.7599 62.1002L41.5499 62.2802L41.3699 62.4602L41.1899 62.6402L41.0099 62.8202L40.8299 63.0002L40.6499 63.1802L40.4699 63.3602L40.2899 63.5402L40.1399 63.7502L39.9899 63.9602L39.8399 64.1702L39.6899 64.3802L39.5399 64.5902L39.3899 64.8002L39.2399 65.0102L39.1199 65.2202L38.9999 65.4302L38.8799 65.6402L38.7599 65.8802L38.6399 66.1202L38.5199 66.3602L38.4299 66.6002L38.3399 66.8402L38.2499 67.0802L38.1599 67.3202L38.0699 67.5602L37.9799 67.8002L37.8899 68.0402L37.8299 68.2802L37.7699 68.5202L37.7099 68.7602L37.6499 69.0002L37.5899 69.2402L37.5599 69.5102L37.5299 69.7802L37.4999 70.0502L37.4699 70.2902L37.4399 70.5302V70.8002V71.0702V71.3402V71.6102L37.4999 71.8802Z" fill="#0DC09D"/>
<path d="M48.8399 51.9002L48.7199 51.8702L48.5999 51.8402L48.5099 51.7802L48.4199 51.7202L48.3299 51.6602L48.2399 51.6002L48.1499 51.5402L48.0599 51.4802L47.9699 51.4202L47.8799 51.3602L47.8199 51.2702L47.7599 51.1802L47.6999 51.0902L47.6399 51.0002L47.5799 50.9102L47.5199 50.8202L47.4599 50.7302L47.3999 50.6402L47.3699 50.5502L47.3399 50.4302L47.3099 50.3102L47.2799 50.1902L47.2499 50.0702L47.2199 49.9502L47.1899 49.8302V49.7102V49.5902V49.4702V49.3502L47.2199 49.2302L47.2499 49.1102L47.2799 48.9902L47.3099 48.8702L47.3399 48.7502L47.3699 48.6302L47.3999 48.5402L47.4599 48.4502L47.5199 48.3602L47.5799 48.2702L47.6399 48.1802L47.6999 48.0902L47.7599 48.0002L47.8199 47.9102L47.8799 47.8202L47.9699 47.7602L48.0599 47.7002L48.1499 47.6402L48.2399 47.5802L48.3299 47.5202L48.4199 47.4602L48.5099 47.4002L48.5999 47.3402L48.7199 47.3102L48.8399 47.2802L48.9599 47.2502L49.0799 47.2202L49.1999 47.1902L49.3199 47.1602H49.4399H49.5599H49.5899H49.4699H49.2599H49.0499L48.8399 47.1902L48.6299 47.2202L48.4199 47.2502L48.2099 47.2802L47.9999 47.3102L47.7899 47.3702L47.5799 47.4302L47.3699 47.4902L47.1599 47.5502L46.9799 47.6102L46.7999 47.7002L46.6199 47.7602L46.4399 47.8502L46.2599 47.9402L46.0799 48.0302L45.8999 48.1202L45.7199 48.2102L45.5399 48.3302L45.3599 48.4502L45.1799 48.5702L44.9999 48.6902L44.8199 48.8102L44.6699 48.9302L44.5199 49.0502L44.3699 49.2002L44.2199 49.3502L44.0699 49.5002L43.9199 49.6502L43.7999 49.8002L43.6499 49.9502L43.5299 50.1002L43.4099 50.2502L43.2899 50.4302L43.1699 50.6102L43.0499 50.7902L42.9299 50.9702L42.8399 51.1502L42.7499 51.3302L42.6599 51.5102L42.5699 51.6902L42.4799 51.8702L42.3899 52.0502L42.3299 52.2302L42.2699 52.4102L42.2099 52.5902L42.1499 52.8002L42.0899 53.0102L42.0299 53.2202L41.9999 53.4302L41.9699 53.6402L41.9399 53.8502L41.9099 54.0602L41.8799 54.2702V54.4802V54.6902V54.9002V55.1102V55.3202V55.5302L41.9099 55.7402L41.9399 55.9502L41.9699 56.1602L41.9999 56.3702L42.0299 56.5802L42.0899 56.7902L42.1499 57.0002L42.2099 57.2102L42.2699 57.4202L42.3299 57.6002L42.3899 57.7802L42.4799 57.9602L42.5699 58.1402L42.6599 58.3202L42.7499 58.5002L42.8099 58.6202L43.0499 58.5002L43.2899 58.3802L43.5599 58.2602L43.8299 58.1402L44.0999 58.0202L44.3699 57.9302L44.6399 57.8402L44.9099 57.7502L45.1799 57.6602L45.4499 57.5702L45.7199 57.4802L45.9899 57.4202L46.2599 57.3602L46.5299 57.3002L46.7999 57.2402L47.0699 57.1802L47.3399 57.1502L47.6099 57.1202L47.8799 57.0902L48.1499 57.0602L48.4199 57.0302L48.6899 57.0002H48.9599H49.2599H49.5299H66.7799L48.8699 52.0802L48.8399 51.9002Z" fill="white"/>
<path d="M100.41 102.81H100.62H100.83H101.04L101.25 102.78L101.46 102.75L101.67 102.72L101.88 102.69L102.09 102.66L102.3 102.63L102.51 102.57L102.72 102.51L102.93 102.45L103.11 102.39L103.29 102.33L103.47 102.24L103.65 102.15L103.83 102.06L104.01 101.97L104.19 101.88L104.37 101.79L104.55 101.67L104.73 101.55L104.91 101.43L105.09 101.31L105.24 101.19L105.39 101.07L105.54 100.92L105.69 100.77L105.84 100.62L105.99 100.47L106.14 100.32L106.29 100.17L106.41 100.02L106.53 99.87L106.65 99.69L106.77 99.51L106.89 99.33L107.01 99.15L107.1 98.97L107.19 98.79L107.28 98.61L107.37 98.43L107.46 98.25L107.55 98.07L107.64 97.89L107.7 97.71L107.76 97.5L107.82 97.32L107.88 97.11L107.94 96.9L108 96.69L108.03 96.48L108.06 96.27L108.09 96.06L108.12 95.85L108.15 95.64V95.43V95.22V95.01V94.8V94.59V94.38L108.12 94.17L108.09 93.96L108 93.9L107.97 93.69L107.94 93.48L107.88 93.27L107.82 93.06L107.76 92.85L107.7 92.7L107.64 92.52L107.58 92.34L107.49 92.16L107.4 91.98L107.31 91.8L107.22 91.62L107.16 91.5L106.92 91.62L106.68 91.74L106.44 91.86L106.17 91.98L105.9 92.1L105.63 92.22L105.36 92.31L105.09 92.4L104.82 92.49L104.55 92.58L104.28 92.67L104.01 92.73L103.74 92.79L103.47 92.85L103.2 92.91L102.93 92.97L102.66 93.03L102.39 93.06L102.12 93.09L101.85 93.12L101.58 93.15L101.31 93.18H101.04H100.77H100.5H83.25L101.16 98.1L101.28 98.13L101.4 98.16L101.52 98.19L101.61 98.25L101.7 98.31L101.79 98.37L101.88 98.43L101.97 98.49L102.06 98.55L102.15 98.61L102.24 98.67L102.33 98.76L102.39 98.85L102.45 98.94L102.51 99.03L102.57 99.12L102.63 99.21L102.69 99.3L102.75 99.39L102.78 99.48L102.81 99.57L102.84 99.69L102.87 99.81L102.9 99.93L102.93 100.05V100.17V100.29V100.41V100.53V100.65V100.77L102.9 100.89L102.87 101.01L102.84 101.13L102.81 101.25L102.78 101.37L102.75 101.46L102.69 101.55L102.63 101.64L102.57 101.73L102.51 101.82L102.45 101.91L102.39 102L102.33 102.09L102.24 102.18L102.15 102.27L102.06 102.33L101.97 102.39L101.88 102.45L101.79 102.51L101.7 102.57L101.61 102.63L101.52 102.69L101.4 102.72L101.28 102.75L101.16 102.78L101.04 102.81L100.92 102.84H100.8H100.68H100.56L100.41 102.81Z" fill="white"/>
<path d="M112.5 99.9V99.66L112.47 99.39L112.44 99.12L112.41 98.88L112.38 98.64L112.35 98.4L112.32 98.16L112.26 97.92L112.2 97.68L112.14 97.44L112.08 97.2L112.02 96.96L111.93 96.72L111.84 96.48L111.75 96.24L111.66 96L111.57 95.76L111.48 95.52L111.36 95.28L111.24 95.04L111.12 94.8L111 94.56L110.88 94.35L110.73 94.14L110.58 93.93L110.43 93.72L110.28 93.51L110.13 93.3L109.98 93.09L109.83 92.88L109.68 92.67L109.5 92.49L109.32 92.31L109.14 92.13L108.96 91.95L108.78 91.77L108.6 91.5L108.42 91.32L108.21 91.14L108 90.96L107.73 91.14L107.49 91.29L107.22 91.44L107.19 91.47L107.25 91.59L107.34 91.77L107.43 91.95L107.52 92.13L107.61 92.31L107.67 92.49L107.73 92.67L107.79 92.88L107.85 93.09L107.91 93.3L107.97 93.51L108 93.72L108.03 93.93L108.06 94.14L108.09 94.35L108.12 94.56V94.77V94.98V95.19V95.4V95.61V95.82L108.09 96.03L108.06 96.24L108.03 96.45L108 96.66L107.97 96.87L107.91 97.08L107.85 97.29L107.79 97.5L107.73 97.68L107.67 97.89L107.61 98.07L107.52 98.25L107.43 98.43L107.34 98.61L107.25 98.79L107.16 98.97L107.07 99.15L106.95 99.33L106.83 99.51L106.71 99.69L106.59 99.87L106.47 100.05L106.35 100.2H106.2L106.05 100.35L105.9 100.5L105.75 100.65L105.6 100.8L105.45 100.95L105.3 101.1L105.15 101.22L105 101.34L104.82 101.46L104.64 101.58L104.46 101.7L104.28 101.82L104.1 101.91L103.92 102L103.74 102.09L103.56 102.18L103.38 102.27L103.2 102.3L103.02 102.36L102.81 102.42L102.63 102.48L102.42 102.54L102.21 102.6L102 102.63L101.79 102.66L101.58 102.69L101.37 102.72L101.16 102.75L100.95 102.78H100.74H100.53H100.32H37.5V112.5H100.41H100.68H100.92L101.19 112.47L101.46 112.44L101.73 112.41L102 112.38L102.27 112.35L102.51 112.32L102.75 112.29L102.99 112.23L103.23 112.17L103.47 112.11L103.71 112.05L103.95 111.99L104.19 111.93L104.43 111.84L104.67 111.75L104.91 111.66L105.15 111.57L105.39 111.48L105.63 111.36L105.87 111.24L106.11 111.12L106.32 111L106.56 110.88L106.77 110.76L106.98 110.61L107.19 110.46L107.4 110.31L107.61 110.16L107.82 110.01L108.03 109.86L108.24 109.71L108.45 109.53L108.63 109.35L108.81 109.17L108.99 108.99L109.17 108.81L109.35 108.63L109.53 108.45L109.71 108.27L109.86 108.06L110.01 107.85L110.16 107.64L110.31 107.43L110.46 107.22L110.61 107.01L110.76 106.8L110.91 106.59L111.03 106.38L111.15 106.14L111.27 105.9L111.39 105.66L111.51 105.42L111.6 105.18L111.69 104.94L111.78 104.7L111.87 104.46L111.96 104.22L112.05 103.98L112.11 103.74L112.17 103.5L112.23 103.26L112.29 103.02L112.35 102.78L112.38 102.51L112.41 102.27L112.44 102L112.47 101.76L112.5 101.49L112.53 101.22V100.98V100.71V100.44V100.17L112.5 99.9Z" fill="#0DC09D"/>
<path d="M37.5 50.1V50.37L37.53 50.61L37.56 50.88L37.59 51.12L37.62 51.36L37.65 51.6L37.71 51.84L37.77 52.08L37.83 52.32L37.89 52.56L37.95 52.8L38.01 53.04L38.1 53.28L38.19 53.52L38.28 53.76L38.37 54L38.46 54.24L38.58 54.48L38.7 54.72L38.82 54.96L38.94 55.2L39.06 55.44L39.18 55.65L39.33 55.86L39.48 56.07L39.63 56.28L39.78 56.49L39.93 56.7L40.08 56.91L40.23 57.12L40.38 57.33L40.56 57.51L40.74 57.69L40.92 57.87L41.1 58.05L41.28 58.23L41.46 58.41L41.64 58.59L41.85 58.77L42.06 58.92L42.33 58.74L42.57 58.59L42.84 58.44L42.87 58.41L42.81 58.29L42.72 58.11L42.63 57.93L42.54 57.75L42.45 57.57L42.39 57.39L42.3 57.3L42.24 57.09L42.18 56.91L42.12 56.7L42.06 56.49L42.03 56.28L42 56.1L41.97 55.89L41.94 55.68L41.91 55.47L41.88 55.26V55.05V54.84V54.63V54.42L41.91 54.21L41.94 54L41.97 53.79L42 53.58L42.03 53.37L42.06 53.16L42.12 52.95L42.18 52.74L42.24 52.53L42.3 52.35L42.36 52.17L42.42 51.99L42.51 51.81L42.6 51.63L42.69 51.45L42.78 51.27L42.87 51.09L42.96 50.91L43.08 50.73L43.2 50.55L43.32 50.37L43.44 50.22L43.56 50.04L43.68 49.89L43.83 49.74L43.98 49.59L44.13 49.44L44.28 49.29L44.43 49.14L44.58 49.02L44.73 48.87L44.88 48.75L45.06 48.63L45.24 48.51L45.42 48.39L45.6 48.27L45.78 48.15L45.96 48.06L46.14 47.97L46.32 47.88L46.5 47.79L46.68 47.7L46.86 47.64L47.07 47.58L47.25 47.52L47.46 47.46L47.67 47.4L47.88 47.34L48.09 47.31L48.3 47.28L48.51 47.25L48.72 47.22L48.93 47.19L49.14 47.16L49.35 47.13H49.56H49.77H112.5V37.5H49.59H49.32H49.05H48.78L48.51 37.53L48.24 37.56L47.97 37.59L47.73 37.62L47.46 37.65L47.22 37.71L46.98 37.77L46.74 37.83L46.5 37.89L46.26 37.95L46.02 38.01L45.78 38.07L45.54 38.16L45.3 38.25L45.06 38.34L44.82 38.43L44.58 38.52L44.34 38.64L44.1 38.76L43.86 38.88L43.62 39L43.41 39.12L43.2 39.24L42.99 39.39L42.78 39.54L42.57 39.69L42.36 39.84L42.15 39.99L41.94 40.14L41.73 40.29L41.52 40.44L41.34 40.62L41.16 40.8L40.98 40.98L40.8 41.16L40.62 41.34L40.44 41.52L40.26 41.73L40.2 42L40.05 42.21L39.9 42.42L39.75 42.63L39.6 42.84L39.45 43.05L39.3 43.26L39.15 43.47L39.03 43.68L38.91 43.92L38.79 44.13L38.67 44.37L38.55 44.61L38.43 44.85L38.34 45.09L38.25 45.33L38.16 45.57L38.07 45.81L37.98 46.05L37.92 46.29L37.86 46.53L37.8 46.77L37.74 47.01L37.68 47.25L37.62 47.49L37.59 47.76L37.56 48L37.53 48.24L37.5 48.48L37.47 48.75V48.99V49.23V49.5V49.77L37.5 50.1Z" fill="#0DC09D"/>
</svg>
