<svg width="20" height="20" viewBox="0 0 20 20" fill="none" xmlns="http://www.w3.org/2000/svg">
<g clip-path="url(#clip0_2608_95)">
<path d="M16.9784 10.3543L17.0064 10.3655L17.0344 10.3767L17.0608 10.3895L17.0872 10.4039L17.1129 10.4183L17.1385 10.4343L17.1625 10.4527L17.1857 10.4703L17.2073 10.4903L17.2297 10.5103L17.2505 10.5327L17.2697 10.5543L17.2889 10.5783L17.3057 10.6023L17.3225 10.6279L17.3369 10.6527L17.3505 10.6799L17.3633 10.7063L17.3745 10.7335L17.3858 10.7615L17.3938 10.7903L17.4018 10.8183L17.4074 10.8487L17.413 10.8775L17.4162 10.9079L17.4178 10.9367L17.4186 10.9663L17.4178 10.9967L17.4162 11.0263L17.413 11.0559L17.4074 11.0855L17.4018 11.1143L17.3938 11.1439L17.3858 11.1719L17.3745 11.2007L17.3633 11.2279L17.3505 11.2543L17.3369 11.2807L17.3225 11.3063L17.3057 11.3319L17.2889 11.3559L17.2697 11.3783L17.2505 11.4015L17.2297 11.4223L17.2073 11.4439L17.1857 11.4639L17.1625 11.4815L17.1385 11.4983L17.1129 11.5159L17.0872 11.5302L17.0608 11.5446L17.0344 11.5566L17.0064 11.5686L16.9784 11.5782L16.9504 11.5878L16.9216 11.5942L16.8928 11.6014L16.8624 11.6054L16.8336 11.6086L16.8031 11.6118H16.7983L16.8287 11.611L16.8832 11.6086L16.9376 11.6054L16.992 11.6006L17.0456 11.5934L17.1 11.5854L17.1537 11.5766L17.2073 11.5654L17.2601 11.5534L17.3137 11.5398L17.3665 11.5247L17.4186 11.5079L17.4698 11.4903L17.521 11.4711L17.5714 11.4503L17.6218 11.4287L17.6715 11.4055L17.7203 11.3807L17.7683 11.3551L17.8155 11.3279L17.8619 11.2991L17.9083 11.2703L17.9532 11.2399L17.998 11.2071L18.0412 11.1735L18.0836 11.1399L18.1252 11.1039L18.166 11.0671L18.2052 11.0303L18.2445 10.9911L18.2821 10.9519L18.3181 10.9111L18.3533 10.8695L18.3877 10.8271L18.4213 10.7831L18.4533 10.7391L18.4837 10.6943L18.5142 10.6479L18.5422 10.6015L18.5694 10.5535L18.5958 10.5055L18.6198 10.4575L18.643 10.4079L18.6646 10.3575L18.6854 10.3071L18.7046 10.256L18.723 10.204L18.739 10.152L18.7542 10.0992L18.7678 10.0464L18.7799 9.99357L18.7911 9.93918L18.8007 9.88558L18.8087 9.83199L18.8143 9.77759L18.8199 9.72319L18.8239 9.668L18.8255 9.6136L18.8263 9.55921L18.8255 9.50481L18.8239 9.44962L18.8199 9.39522L18.8143 9.34082L18.8087 9.28723L18.8007 9.23283L18.7911 9.17844L18.7799 9.12564L18.7678 9.07205L18.7574 9.03125H16.8119L16.7735 9.03205H12.1719L16.9448 10.3447L16.9784 10.3543Z" fill="#201637"/>
<path d="M19.9968 10.8303L19.9928 10.7615L19.988 10.6935L19.9816 10.6247L19.9736 10.5567L19.9648 10.4895L19.9536 10.4215L19.9408 10.3543L19.928 10.2871L19.9128 10.2208L19.896 10.1544L19.8784 10.088L19.8583 10.0224L19.8375 9.95758L19.8159 9.89198L19.7919 9.82799L19.7671 9.76479L19.7407 9.7008L19.7135 9.6384L19.6847 9.57601L19.6551 9.51441L19.6231 9.45442L19.5903 9.39362L19.5558 9.33443L19.5206 9.27523L19.4846 9.21764L19.4462 9.16004L19.4078 9.10404L19.3678 9.04885L19.3542 9.03125H18.758L18.7684 9.07205L18.7804 9.12564L18.7916 9.17844L18.8012 9.23283L18.8092 9.28723L18.8148 9.34082L18.8204 9.39522L18.8244 9.44962L18.826 9.50481L18.8268 9.55921L18.826 9.6136L18.8244 9.668L18.8204 9.72319L18.8148 9.77759L18.8092 9.83199L18.8012 9.88558L18.7916 9.93918L18.7804 9.99357L18.7684 10.0464L18.7548 10.0992L18.7395 10.152L18.7235 10.204L18.7051 10.256L18.6859 10.3071L18.6651 10.3575L18.6435 10.4079L18.6203 10.4575L18.5963 10.5055L18.5699 10.5535L18.5427 10.6015L18.5147 10.6479L18.4843 10.6943L18.4538 10.7391L18.4218 10.7831L18.3882 10.8271L18.3538 10.8695L18.3186 10.9111L18.2826 10.9519L18.245 10.9911L18.2058 11.0303L18.1665 11.0671L18.1257 11.1039L18.0841 11.1399L18.0417 11.1735L17.9985 11.2071L17.9537 11.2399L17.9088 11.2703L17.8624 11.2991L17.816 11.3279L17.7688 11.3551L17.7208 11.3807L17.672 11.4055L17.6223 11.4287L17.5719 11.4503L17.5215 11.4711L17.4703 11.4903L17.4191 11.5079L17.3671 11.5247L17.3142 11.5398L17.2606 11.5534L17.2078 11.5654L17.1542 11.5766L17.1006 11.5854L17.0461 11.5934L16.9925 11.6006L16.9381 11.6054L16.8837 11.6086L16.8293 11.611L16.774 11.6118H0V14.1924H16.774L16.8429 14.1916L16.9109 14.19L16.9797 14.186L17.0477 14.1804L17.1158 14.174L17.1838 14.1668L17.2518 14.1564L17.319 14.146L17.3863 14.134L17.4535 14.1196L17.5207 14.1044L17.5863 14.0884L17.6528 14.07L17.7192 14.0508L17.784 14.0308L17.8488 14.0077L17.9128 13.9845L17.9769 13.9597L18.0401 13.9341L18.1025 13.9069L18.1649 13.8773L18.2266 13.8469L18.2874 13.8157L18.3474 13.7829L18.4066 13.7493L18.4658 13.7133L18.5227 13.6773L18.5803 13.6397L18.6371 13.6005L18.6923 13.5605L18.7467 13.5189L18.8004 13.4765L18.854 13.4325L18.906 13.3877L18.9564 13.3429L19.006 13.2957L19.0549 13.2477L19.1029 13.1989L19.1493 13.1485L19.1957 13.0981L19.2405 13.0461L19.2837 12.9933L19.3262 12.9397L19.3678 12.8845L19.4078 12.8293L19.4462 12.7733L19.4846 12.7158L19.5206 12.6582L19.5558 12.599L19.5903 12.5398L19.6231 12.4798L19.6551 12.419L19.6847 12.3574L19.7135 12.2958L19.7407 12.2326L19.7671 12.1694L19.7919 12.1062L19.8159 12.0414L19.8375 11.9766L19.8583 11.9118L19.8784 11.8454L19.896 11.7798L19.9128 11.7134L19.928 11.6462L19.9408 11.5798L19.9536 11.5127L19.9648 11.4447L19.9736 11.3767L19.9816 11.3087L19.988 11.2407L19.9928 11.1719L19.9968 11.1039L19.9992 11.0359L20 10.9671L19.9992 10.8983L19.9968 10.8303Z" fill="#0DC09D"/>
<path d="M3.01974 9.64342L2.99173 9.63302L2.96372 9.62182L2.93731 9.60902L2.9101 9.59462L2.88529 9.57942L2.85968 9.56343L2.83567 9.54583L2.81247 9.52743L2.79006 9.50743L2.76845 9.48743L2.74764 9.46583L2.72844 9.44343L2.70923 9.41944L2.69242 9.39544L2.67562 9.37064L2.66121 9.34584L2.64761 9.31864L2.634 9.29145L2.6236 9.26505L2.61239 9.23705L2.60439 9.20745L2.59639 9.17946L2.58999 9.14986L2.58518 9.12106L2.58198 9.09066L2.58038 9.06186L2.57958 9.03147L2.58038 9.00187L2.58198 8.97147L2.58518 8.94267L2.58999 8.91308L2.59639 8.88348L2.60439 8.85468L2.61239 8.82668L2.6236 8.79789L2.634 8.77069L2.64761 8.74349L2.66121 8.71789L2.67562 8.69149L2.69242 8.6667L2.70923 8.6427L2.72844 8.6195L2.74764 8.5971L2.76845 8.5755L2.79006 8.55471L2.81247 8.53471L2.83567 8.51711L2.85968 8.49951L2.88529 8.48271L2.9101 8.46751L2.93731 8.45391L2.96372 8.44191L2.99173 8.42992L3.01974 8.41952L3.04775 8.41072L3.07656 8.40352L3.10537 8.39712L3.13578 8.39312L3.16459 8.38992L3.1942 8.38672H3.1998H3.16939L3.11497 8.38912L3.06055 8.39312L3.00614 8.39792L2.95252 8.40432L2.8981 8.41232L2.84368 8.42192L2.79086 8.43232L2.73724 8.44511L2.68442 8.45871L2.6316 8.47391L2.57958 8.49071L2.52836 8.50831L2.47634 8.52671L2.42673 8.54751L2.37631 8.5699L2.32669 8.5931L2.27787 8.6179L2.22906 8.6435L2.18264 8.6699L2.13622 8.69869L2.08981 8.72829L2.04419 8.75869L2.00017 8.79149L1.95616 8.82428L1.91454 8.85868L1.87293 8.89388L1.83211 8.93068L1.7929 8.96827L1.75368 9.00667L1.71607 9.04667L1.68006 9.08666L1.64404 9.12826L1.61043 9.17146L1.57602 9.21465L1.54481 9.25865L1.5136 9.30425L1.48399 9.34984L1.45598 9.39704L1.42877 9.44423L1.40236 9.49303L1.37835 9.54103L1.35514 9.59062L1.33353 9.64102L1.31273 9.69141L1.29352 9.74261L1.27511 9.79461L1.25911 9.8466L1.2439 9.8994L1.2303 9.95139L1.21829 10.005L1.20709 10.0586L1.19748 10.113L1.18948 10.1666L1.18388 10.221L1.17828 10.2746L1.17428 10.3298L1.17268 10.3842L1.17188 10.4386L1.17268 10.4937L1.17428 10.5481L1.17828 10.6025L1.18388 10.6569L1.18948 10.7113L1.19748 10.7657L1.20709 10.8193L1.21829 10.8729L1.2303 10.9257L1.2407 10.9673H3.1862L3.22461 10.9665H7.82627L3.05335 9.65382L3.01974 9.64342Z" fill="#201637"/>
<path d="M0.00320115 9.16877L0.0064023 9.23757L0.0120043 9.30556L0.0184066 9.37355L0.0264095 9.44155L0.0352127 9.50954L0.0464167 9.57674L0.058421 9.64473L0.0720259 9.71193L0.0872314 9.77832L0.104037 9.84472L0.121644 9.91111L0.141651 9.97671L0.162458 10.0415L0.184066 10.1063L0.208075 10.1711L0.232884 10.2343L0.259293 10.2983L0.286503 10.3607L0.315314 10.4231L0.344924 10.4839L0.376936 10.5447L0.409747 10.6055L0.44416 10.6647L0.479373 10.723L0.515386 10.7806L0.552999 10.8382L0.592213 10.895L0.632228 10.9502L0.645832 10.9678H1.24205L1.23164 10.9262L1.21964 10.8734L1.20844 10.8198L1.19883 10.7662L1.19083 10.7118L1.18523 10.6575L1.17962 10.6031L1.17562 10.5487L1.17402 10.4943L1.17322 10.4391L1.17402 10.3847L1.17562 10.3303L1.17962 10.2751L1.18523 10.2215L1.19083 10.1671L1.19883 10.1135L1.20844 10.0591L1.21964 10.0055L1.23164 9.95191L1.24525 9.89991L1.26045 9.84712L1.27646 9.79512L1.29487 9.74313L1.31407 9.69193L1.33488 9.64153L1.35649 9.59114L1.3797 9.54154L1.40371 9.49355L1.43011 9.44475L1.45732 9.39755L1.48533 9.35036L1.51495 9.30476L1.54616 9.25916L1.57737 9.21517L1.61178 9.17197L1.64539 9.12877L1.68141 9.08718L1.71742 9.04718L1.75503 9.00718L1.79425 8.96879L1.83346 8.93119L1.87427 8.89439L1.91589 8.8592L1.9575 8.8248L2.00152 8.792L2.04554 8.7592L2.09115 8.72881L2.13757 8.69921L2.18399 8.67041L2.2304 8.64401L2.27922 8.61842L2.32804 8.59362L2.37766 8.57042L2.42807 8.54802L2.47769 8.52722L2.52971 8.50882L2.58093 8.49123L2.63295 8.47443L2.68577 8.45923L2.73859 8.44563L2.79221 8.43283L2.84502 8.42243L2.89944 8.41283L2.95386 8.40483L3.00748 8.39843L3.0619 8.39363L3.11632 8.38963L3.17074 8.38723L3.22596 8.38643H20V5.80664H3.22596L3.15714 5.80744L3.08911 5.80904L3.02029 5.81304L2.95226 5.81784L2.88344 5.82424L2.81621 5.83224L2.74819 5.84184L2.68097 5.85224L2.61374 5.86504L2.54572 5.87863L2.47929 5.89383L2.41287 5.91063L2.34724 5.92823L2.28082 5.94823L2.216 5.96823L2.15117 5.99063L2.08715 6.01382L2.02313 6.03942L1.95991 6.06502L1.89748 6.09222L1.83506 6.12181L1.77344 6.15221L1.71262 6.18261L1.65259 6.21621L1.59337 6.24981L1.53415 6.285L1.47653 6.3218L1.41891 6.3594L1.36289 6.39859L1.30767 6.43859L1.25245 6.47939L1.19963 6.52178L1.14601 6.56578L1.09399 6.61058L1.04358 6.65617L0.993958 6.70337L0.94514 6.75056L0.897123 6.80016L0.849906 6.85056L0.80429 6.90095L0.759473 6.95295L0.716258 7.00574L0.673843 7.05934L0.632228 7.11374L0.592213 7.16973L0.552999 7.22573L0.515386 7.28252L0.479373 7.34092L0.44416 7.40011L0.409747 7.45931L0.376936 7.5185L0.344924 7.5793L0.315314 7.64169L0.286503 7.70329L0.259293 7.76648L0.232884 7.82888L0.208075 7.89287L0.184066 7.95687L0.162458 8.02166L0.141651 8.08726L0.121644 8.15285L0.104037 8.21925L0.0872314 8.28564L0.0720259 8.35284L0.058421 8.41923L0.0464167 8.48643L0.0352127 8.55442L0.0264095 8.62242L0.0184066 8.69041L0.0120043 8.7584L0.0064023 8.8264L0.00320115 8.89439L0 8.96319V9.03198V9.10078L0.00320115 9.16877Z" fill="#0DC09D"/>
<path d="M3.01974 3.83758L2.99173 3.82638L2.96372 3.81438L2.93651 3.80238L2.9109 3.78798L2.88449 3.77358L2.85968 3.75758L2.83567 3.73919L2.81167 3.72159L2.78926 3.70159L2.76765 3.68159L2.74764 3.65919L2.72844 3.63759L2.70923 3.6136L2.69162 3.5896L2.67562 3.564L2.66041 3.5384L2.64681 3.512L2.6332 3.48561L2.6228 3.45841L2.61239 3.42961L2.60359 3.40161L2.59639 3.37361L2.58999 3.34322L2.58518 3.31442L2.58118 3.28402L2.58038 3.25442L2.57958 3.22403L2.58038 3.19443L2.58118 3.16563L2.58518 3.13603L2.58999 3.10644L2.59639 3.07764L2.60359 3.04804L2.61239 3.01924L2.6228 2.99125L2.6332 2.96405L2.64681 2.93765L2.66041 2.91045L2.67562 2.88565L2.69162 2.86006L2.70923 2.83606L2.72844 2.81366L2.74764 2.79046L2.76765 2.76806L2.78926 2.74806L2.81167 2.72807L2.83567 2.71047L2.85968 2.69367L2.88449 2.67607L2.9109 2.66167L2.93651 2.64727L2.96372 2.63447L2.99173 2.62327L3.01974 2.61368L3.04775 2.60408L3.07656 2.59608L3.10617 2.59048L3.13498 2.58568L3.16459 2.58248L3.195 2.58008H3.20461H3.16939L3.11497 2.58248L3.06055 2.58648L3.00614 2.59128L2.95252 2.59848L2.8981 2.60648L2.84368 2.61528L2.79086 2.62647L2.73724 2.63847L2.68442 2.65207L2.6316 2.66727L2.57958 2.68407L2.52836 2.70167L2.47634 2.72087L2.42673 2.74087L2.37631 2.76326L2.32669 2.78646L2.27787 2.81126L2.22906 2.83686L2.18264 2.86326L2.13542 2.89205L2.08981 2.92165L2.04419 2.95205L2.00017 2.98485L1.95616 3.01764L1.91374 3.05204L1.87293 3.08804L1.83211 3.12403L1.7921 3.16163L1.75368 3.20003L1.71607 3.24003L1.68006 3.28082L1.64404 3.32242L1.61043 3.36482L1.57602 3.40881L1.54481 3.45281L1.5136 3.4976L1.48399 3.5432L1.45598 3.5904L1.42877 3.63759L1.40236 3.68639L1.37835 3.73439L1.35514 3.78398L1.33353 3.83438L1.31273 3.88477L1.29352 3.93597L1.27511 3.98797L1.25911 4.03996L1.2439 4.09276L1.2303 4.14555L1.21749 4.19835L1.20709 4.25194L1.19748 4.30634L1.18948 4.35994L1.18308 4.41433L1.17828 4.46793L1.17428 4.52312L1.17268 4.57832L1.17188 4.63271L1.17268 4.68711L1.17428 4.74231L1.17828 4.7967L1.18308 4.8511L1.18948 4.90469L1.19748 4.95909L1.20709 5.01348L1.21749 5.06628L1.2303 5.11988L1.2439 5.17267L1.25911 5.22467L1.27511 5.27746L1.29352 5.32866L1.31273 5.37985L1.33353 5.43025L1.35514 5.48065L1.37835 5.53024L1.40236 5.57904L1.41836 5.60704L1.41996 5.60624L1.48719 5.57184L1.55441 5.53904L1.62244 5.50704L1.69126 5.47745L1.76009 5.44705L1.83051 5.41985L1.90014 5.39425L1.97136 5.36786L2.04259 5.34546L2.11461 5.32306L2.18664 5.30226L2.25867 5.28226L2.33149 5.26386L2.40512 5.24786L2.47875 5.23347L2.55157 5.21907L2.626 5.20707L2.70042 5.19587L2.77485 5.18627L2.85008 5.17827L2.92451 5.17187L2.99973 5.16627L3.07336 5.16307L3.15019 5.16147L3.22461 5.15987H7.82627L3.05255 3.84718L3.01974 3.83758Z" fill="#201637"/>
<path d="M16.7735 17.4192H16.8287L16.8832 17.416L16.9376 17.4128L16.992 17.408L17.0464 17.4008L17.1008 17.3928L17.1545 17.384L17.2081 17.3728L17.2609 17.3608L17.3145 17.3472L17.3665 17.332L17.4186 17.3152L17.4706 17.2976L17.5218 17.2784L17.5714 17.2576L17.6218 17.236L17.6715 17.2128L17.7203 17.188L17.7691 17.1624L17.8163 17.1352L17.8627 17.1064L17.9083 17.0768L17.954 17.0464L17.9988 17.0144L18.042 16.9808L18.0844 16.9472L18.126 16.9112L18.166 16.8744L18.206 16.8376L18.2445 16.7984L18.2821 16.7592L18.3189 16.7184L18.3541 16.6768L18.3885 16.6344L18.4221 16.5904L18.4533 16.5465L18.4845 16.5017L18.5142 16.4553L18.5422 16.4089L18.5694 16.3609L18.5958 16.3129L18.6206 16.2641L18.6438 16.2153L18.6646 16.1649L18.6862 16.1137L18.7046 16.0633L18.723 16.0113L18.7398 15.9593L18.7542 15.9065L18.7686 15.8537L18.7807 15.8009L18.7911 15.7465L18.8007 15.6929L18.8087 15.6393L18.8151 15.5841L18.8207 15.5305L18.8239 15.4753L18.8263 15.4209V15.3665V15.3122L18.8239 15.257L18.8207 15.2026L18.8151 15.1482L18.8087 15.0946L18.8007 15.0402L18.7911 14.9858L18.7807 14.933L18.7686 14.8794L18.7542 14.8266L18.7398 14.7746L18.723 14.7218L18.7046 14.6698L18.6862 14.6194L18.6646 14.569L18.6438 14.5186L18.6206 14.469L18.5958 14.4202L18.5798 14.3906L18.5782 14.3914L18.511 14.4258L18.4437 14.4586L18.3757 14.4906L18.3069 14.521L18.2373 14.5498L18.1676 14.5778L18.098 14.6034L18.0268 14.629L17.9548 14.653L17.8835 14.6746L17.8123 14.6954L17.7387 14.7154L17.6667 14.733L17.593 14.7498L17.5194 14.765L17.4458 14.7786L17.3721 14.7906L17.2977 14.8018L17.2233 14.8114L17.1489 14.8194L17.0736 14.8258L16.9984 14.8306L16.9232 14.8346L16.8488 14.837L16.7735 14.8378H12.1719L16.9448 16.1505L16.9784 16.1609L17.0064 16.1713L17.0344 16.1825L17.0608 16.1953L17.0872 16.2097L17.1129 16.2249L17.1385 16.2409L17.1625 16.2585L17.1857 16.2769L17.2073 16.2969L17.2297 16.3169L17.2505 16.3385L17.2697 16.3609L17.2889 16.3849L17.3057 16.4089L17.3225 16.4337L17.3369 16.4585L17.3505 16.4857L17.3633 16.5129L17.3745 16.5393L17.3858 16.5673L17.3938 16.5968L17.4018 16.6248L17.4074 16.6544L17.413 16.6832L17.4162 16.7136L17.4178 16.7424L17.4186 16.7728L17.4178 16.8024L17.4162 16.8328L17.413 16.8616L17.4074 16.8912L17.4018 16.9208L17.3938 16.9496L17.3858 16.9776L17.3745 17.0064L17.3633 17.0336L17.3505 17.0608L17.3369 17.0864L17.3225 17.1128L17.3057 17.1376L17.2889 17.1616L17.2697 17.1848L17.2505 17.2072L17.2297 17.2288L17.2073 17.2496L17.1857 17.2696L17.1625 17.2872L17.1385 17.3048L17.1129 17.3216L17.0872 17.3368L17.0608 17.3504L17.0344 17.3624L17.0064 17.3744L16.9784 17.3848L16.9504 17.3936L16.9216 17.4008L16.8928 17.4072L16.8624 17.4112L16.8336 17.4144L16.8031 17.4176L16.7735 17.4184" fill="#201637"/>
<path d="M19.9968 16.6367L19.9936 16.5687L19.9888 16.5007L19.9816 16.4319L19.9744 16.364L19.9648 16.2968L19.9536 16.2288L19.9416 16.1616L19.928 16.0944L19.9128 16.0272L19.896 15.9616L19.8784 15.8952L19.8591 15.8288L19.8383 15.7648L19.8159 15.6992L19.7919 15.6352L19.7679 15.572L19.7415 15.508L19.7135 15.4456L19.6855 15.3832L19.6551 15.3216L19.6231 15.2616L19.5911 15.2008L19.5566 15.1416L19.5206 15.0825L19.4846 15.0249L19.447 14.9673L19.4078 14.9113L19.3678 14.8561L19.3262 14.8009L19.2845 14.7481L19.2405 14.6945L19.1957 14.6433L19.1501 14.5921L19.1029 14.5425L19.0557 14.4929L19.006 14.4457L18.9564 14.3985L18.906 14.3529L18.854 14.3081L18.8012 14.2641L18.798 14.2617L18.7227 14.3073L18.6563 14.3449L18.5875 14.3825L18.5787 14.3873L18.5963 14.4201L18.6211 14.4689L18.6443 14.5185L18.6651 14.5689L18.6867 14.6193L18.7051 14.6697L18.7235 14.7217L18.7403 14.7745L18.7548 14.8265L18.7692 14.8793L18.7812 14.9329L18.7916 14.9857L18.8012 15.0401L18.8092 15.0945L18.8156 15.148L18.8212 15.2024L18.8244 15.2568L18.8268 15.312V15.3664V15.4208L18.8244 15.4752L18.8212 15.5304L18.8156 15.584L18.8092 15.6392L18.8012 15.6928L18.7916 15.7464L18.7812 15.8008L18.7692 15.8536L18.7548 15.9064L18.7403 15.9592L18.7235 16.0112L18.7051 16.0632L18.6867 16.1136L18.6651 16.1648L18.6443 16.2152L18.6211 16.264L18.5963 16.3128L18.5699 16.3608L18.5427 16.4087L18.5147 16.4551L18.4851 16.5015L18.4538 16.5463L18.4226 16.5903L18.389 16.6343L18.3546 16.6767L18.3194 16.7183L18.2826 16.7591L18.245 16.7983L18.2066 16.8375L18.1665 16.8743L18.1265 16.9111L18.0849 16.9471L18.0425 16.9807L17.9993 17.0143L17.9545 17.0463L17.9088 17.0767L17.8632 17.1063L17.8168 17.1351L17.7696 17.1623L17.7208 17.1879L17.672 17.2127L17.6223 17.2359L17.5719 17.2575L17.5223 17.2783L17.4711 17.2975L17.4191 17.3151L17.3671 17.3319L17.315 17.3471L17.2614 17.3607L17.2086 17.3727L17.155 17.3839L17.1014 17.3927L17.0469 17.4007L16.9925 17.4079L16.9381 17.4127L16.8837 17.4159L16.8293 17.4191H16.774H0V19.9997H16.774L16.8429 19.9989L16.9109 19.9973L16.9797 19.9933L17.0477 19.9877L17.1166 19.9821L17.1846 19.9741L17.2526 19.9637L17.3198 19.9533L17.3871 19.9413L17.4543 19.9269L17.5207 19.9117L17.5871 19.8957L17.6528 19.8781L17.7192 19.8581L17.784 19.8381L17.8488 19.8149L17.9136 19.7917L17.9777 19.7669L18.0409 19.7413L18.1033 19.7141L18.1657 19.6845L18.2266 19.6541L18.2882 19.6229L18.3474 19.5901L18.4074 19.5565L18.4658 19.5213L18.5235 19.4837L18.5811 19.4469L18.6371 19.4077L18.6923 19.3669L18.7475 19.3261L18.8012 19.2837L18.854 19.2397L18.906 19.1949L18.9564 19.1501L19.006 19.1029L19.0557 19.0549L19.1029 19.0061L19.1501 18.9557L19.1957 18.9053L19.2405 18.8534L19.2845 18.8006L19.3262 18.747L19.3678 18.6926L19.4078 18.6366L19.447 18.5806L19.4846 18.523L19.5206 18.4654L19.5566 18.4062L19.5911 18.347L19.6231 18.287L19.6551 18.2262L19.6855 18.1646L19.7135 18.103L19.7415 18.0398L19.7679 17.9766L19.7919 17.9134L19.8159 17.8486L19.8383 17.7838L19.8591 17.7182L19.8784 17.6526L19.896 17.5871L19.9128 17.5199L19.928 17.4535L19.9416 17.3871L19.9536 17.3191L19.9648 17.2519L19.9744 17.1839L19.9816 17.1159L19.9888 17.0479L19.9936 16.9791L19.9968 16.9111L20 16.8431V16.7743V16.7055L19.9968 16.6367Z" fill="#0DC09D"/>
<path d="M0.00320115 3.36213L0.0064023 3.43093L0.011204 3.49892L0.0184066 3.56771L0.0264095 3.63571L0.0352127 3.7029L0.0464167 3.7709L0.058421 3.83809L0.0720259 3.90529L0.0872314 3.97168L0.104037 4.03808L0.121644 4.10367L0.140851 4.17007L0.162458 4.23486L0.184066 4.29966L0.208075 4.36445L0.232084 4.42765L0.258493 4.49164L0.286503 4.55404L0.315314 4.61643L0.344924 4.67723L0.376936 4.73802L0.409747 4.79882L0.44336 4.85801L0.479373 4.91721L0.515386 4.974L0.552999 5.0316L0.592213 5.08839L0.632228 5.14359L0.673843 5.19878L0.716258 5.25158L0.759473 5.30517L0.80429 5.35637L0.849906 5.40757L0.897123 5.45716L0.94514 5.50596L0.993958 5.55396L1.04358 5.60115L1.09399 5.64675L1.14601 5.69154L1.19963 5.73474L1.20203 5.73714L1.27726 5.69234L1.34368 5.65475L1.41251 5.61635L1.42211 5.61235L1.40371 5.57955L1.3797 5.53076L1.35649 5.48116L1.33488 5.43076L1.31407 5.38037L1.29487 5.32917L1.27646 5.27798L1.26045 5.22518L1.24525 5.17319L1.23164 5.12039L1.21884 5.06679L1.20844 5.014L1.19883 4.9596L1.19083 4.90521L1.18443 4.85161L1.17962 4.79722L1.17562 4.74282L1.17402 4.68762L1.17322 4.63323L1.17402 4.57883L1.17562 4.52364L1.17962 4.46844L1.18443 4.41485L1.19083 4.36045L1.19883 4.30685L1.20844 4.25246L1.21884 4.19886L1.23164 4.14607L1.24525 4.09327L1.26045 4.04048L1.27646 3.98848L1.29487 3.93648L1.31407 3.88529L1.33488 3.83489L1.35649 3.7845L1.3797 3.7349L1.40371 3.6869L1.43011 3.63811L1.45732 3.59091L1.48533 3.54372L1.51495 3.49812L1.54616 3.45332L1.57737 3.40933L1.61178 3.36533L1.64539 3.32293L1.68141 3.28134L1.71742 3.24054L1.75503 3.20054L1.79345 3.16215L1.83346 3.12455L1.87427 3.08855L1.91509 3.05256L1.9575 3.01816L2.00152 2.98536L2.04554 2.95256L2.09115 2.92217L2.13677 2.89257L2.18399 2.86377L2.2304 2.83737L2.27922 2.81177L2.32804 2.78698L2.37766 2.76378L2.42807 2.74138L2.47769 2.72138L2.52971 2.70218L2.58093 2.68459L2.63295 2.66779L2.68577 2.65259L2.73859 2.63899L2.79221 2.62699L2.84502 2.61579L2.89944 2.60699L2.95386 2.59899L3.00748 2.59179L3.0619 2.58699L3.11632 2.58299L3.17074 2.58059H3.22596H20V0H3.22596H3.15714L3.08911 0.00239981L3.02029 0.00639949L2.95226 0.011999L2.88344 0.0175986L2.81541 0.0255979L2.74819 0.0359971L2.68016 0.0455963L2.61294 0.0583953L2.54572 0.0719942L2.47929 0.087993L2.41287 0.103992L2.34724 0.12159L2.28082 0.141589L2.216 0.161587L2.15117 0.183985L2.08715 0.207183L2.02233 0.232781L1.95991 0.258379L1.89748 0.285577L1.83506 0.315175L1.77344 0.344772L1.71262 0.37677L1.65259 0.409567L1.59337 0.443164L1.53415 0.478362L1.47653 0.515159L1.41891 0.552756L1.36289 0.591953L1.30767 0.631949L1.25245 0.673546L1.19963 0.715943L1.14601 0.759939L1.09399 0.803936L1.04358 0.849532L0.993958 0.896728L0.94514 0.944724L0.897123 0.99352L0.849906 1.04312L0.80429 1.09431L0.759473 1.14631L0.716258 1.1991L0.673843 1.2527L0.632228 1.3071L0.592213 1.36309L0.552999 1.41909L0.515386 1.47588L0.479373 1.53428L0.44336 1.59267L0.409747 1.65267L0.376936 1.71266L0.344924 1.77266L0.315314 1.83505L0.286503 1.89665L0.258493 1.95984L0.232084 2.02304L0.208075 2.08623L0.184066 2.15023L0.162458 2.21582L0.140851 2.28062L0.121644 2.34621L0.104037 2.41261L0.0872314 2.479L0.0720259 2.5462L0.058421 2.61259L0.0464167 2.67979L0.0352127 2.74778L0.0264095 2.81577L0.0184066 2.88377L0.011204 2.95176L0.0064023 3.02056L0.00320115 3.08855L0 3.15655V3.22534V3.29414L0.00320115 3.36213Z" fill="#0DC09D"/>
</g>
<defs>
<clipPath id="clip0_2608_95">
<rect width="20" height="20" fill="white"/>
</clipPath>
</defs>
</svg>
