<svg id="Layer_1" data-name="Layer 1" xmlns="http://www.w3.org/2000/svg" viewBox="0 0 432 144"><defs><style>.cls-1{fill:#fff;}</style></defs><title>czbiohub-white</title><g id="_Group_" data-name="&lt;Group&gt;"><g id="_Group_2" data-name="&lt;Group&gt;"><g id="_Group_3" data-name="&lt;Group&gt;"><g id="_Group_4" data-name="&lt;Group&gt;"><path class="cls-1" d="M174.13,43.43l-1.88-.91a1,1,0,0,0-.84-.05,1,1,0,0,0-.56.52,4,4,0,0,1-3.79,2.48,3.58,3.58,0,0,1-3.77-2.66c-.26-.79-.38-1.76-.38-5.09s.12-4.3.37-5.08A3.6,3.6,0,0,1,167.06,30a3.94,3.94,0,0,1,3.76,2.42,1,1,0,0,0,1.42.54l1.95-.95a1,1,0,0,0,.41-1.31,7.9,7.9,0,0,0-7.54-4.75,7.62,7.62,0,0,0-7.81,5.54c-.47,1.41-.61,2.81-.61,6.26s.14,4.85.6,6.25a7.63,7.63,0,0,0,7.82,5.55,7.91,7.91,0,0,0,7.55-4.78A1,1,0,0,0,174.13,43.43Z"/></g><g id="_Group_5" data-name="&lt;Group&gt;"><path class="cls-1" d="M192.37,26.27h-2.18a1,1,0,0,0-1,1v8.3h-8.27v-8.3a1,1,0,0,0-1-1h-2.18a1,1,0,0,0-1,1V48.15a1,1,0,0,0,1,1h2.18a1,1,0,0,0,1-1V39.63h8.27v8.52a1,1,0,0,0,1,1h2.18a1,1,0,0,0,1-1V27.29A1,1,0,0,0,192.37,26.27Z"/></g><g id="_Group_6" data-name="&lt;Group&gt;"><path class="cls-1" d="M207.07,27.07a1.12,1.12,0,0,0-1.09-.8h-2a1.06,1.06,0,0,0-1.05.79l-7.46,20.86a1,1,0,0,0,.11.87,1,1,0,0,0,.78.38h2.22a1.14,1.14,0,0,0,1.08-.79l1.47-4.2h7.68l1.46,4.16a1.09,1.09,0,0,0,1.1.83h2.21a.94.94,0,0,0,.78-.38,1,1,0,0,0,.12-.88Zm.28,13.1H202.5l2.44-7Z"/></g><g id="_Group_7" data-name="&lt;Group&gt;"><path class="cls-1" d="M231.57,26.27h-2a1,1,0,0,0-1,1V41.06L220,27a1.2,1.2,0,0,0-1.17-.71h-2a1,1,0,0,0-1,1V48.15a1,1,0,0,0,1,1h2a1,1,0,0,0,1-1V34.48l8.5,14a1.23,1.23,0,0,0,1.18.71h2a1,1,0,0,0,1-1V27.29A1,1,0,0,0,231.57,26.27Z"/></g><g id="_Group_8" data-name="&lt;Group&gt;"><path class="cls-1" d="M257.19,26.27H244.36a1,1,0,0,0-1,1v2a1,1,0,0,0,1,1H253l-9.77,15.07a1.25,1.25,0,0,0-.27.77v2a1,1,0,0,0,1,1h13.21a1,1,0,0,0,1-1v-2a1,1,0,0,0-1-1h-9L258,30.06a1.23,1.23,0,0,0,.26-.77v-2A1,1,0,0,0,257.19,26.27Z"/></g><g id="_Group_9" data-name="&lt;Group&gt;"><path class="cls-1" d="M276.42,26.27h-2.18a1,1,0,0,0-1,1V40.94c0,2.92-1.44,4.53-4.06,4.53s-4.09-1.61-4.09-4.53V27.29a1,1,0,0,0-1-1h-2.18a1,1,0,0,0-1,1V41c0,5.36,3.11,8.55,8.33,8.55s8.29-3.19,8.29-8.55V27.29A1,1,0,0,0,276.42,26.27Z"/></g><g id="_Group_10" data-name="&lt;Group&gt;"><path class="cls-1" d="M295.28,43.43l-1.89-.91a1,1,0,0,0-.84-.05A1,1,0,0,0,292,43a4,4,0,0,1-3.78,2.48,3.59,3.59,0,0,1-3.78-2.66c-.25-.79-.38-1.76-.38-5.09s.13-4.3.38-5.08A3.59,3.59,0,0,1,288.21,30,4,4,0,0,1,292,32.39a1,1,0,0,0,.58.58,1,1,0,0,0,.83,0l2-.95a1,1,0,0,0,.4-1.31,7.9,7.9,0,0,0-7.53-4.75,7.63,7.63,0,0,0-7.82,5.54c-.47,1.41-.6,2.81-.6,6.26s.13,4.85.6,6.25a7.62,7.62,0,0,0,7.82,5.55,7.92,7.92,0,0,0,7.55-4.78A1,1,0,0,0,295.28,43.43Z"/></g><g id="_Group_11" data-name="&lt;Group&gt;"><path class="cls-1" d="M308.47,35.49l6.38-7.68a1,1,0,0,0,.16-1,.92.92,0,0,0-.84-.51h-2.59a1.22,1.22,0,0,0-1.06.54l-7.86,9.66V27.29a1,1,0,0,0-1-1h-2.18a1,1,0,0,0-1,1V48.15a1,1,0,0,0,1,1h2.18a1,1,0,0,0,1-1V42.46l3-3.62,5.52,9.69a1.15,1.15,0,0,0,1.07.64h2.52a.94.94,0,0,0,.86-.48.91.91,0,0,0-.05-.93Z"/></g><g id="_Group_12" data-name="&lt;Group&gt;"><path class="cls-1" d="M331.83,26.27H318.91a1,1,0,0,0-1,1V48.15a1,1,0,0,0,1,1h12.92a1,1,0,0,0,1-1v-2a1,1,0,0,0-1-1h-9.71v-5.5h8.16a1,1,0,0,0,1-1v-2a1,1,0,0,0-1-1h-8.16V30.31h9.71a1,1,0,0,0,1-1v-2A1,1,0,0,0,331.83,26.27Z"/></g><g id="_Group_13" data-name="&lt;Group&gt;"><path class="cls-1" d="M347.32,39.4a6.52,6.52,0,0,0,4-6.23c0-4.13-3-6.9-7.45-6.9h-7.77a1,1,0,0,0-1,1V48.15a1,1,0,0,0,1,1h2.18a1,1,0,0,0,1-1V40.08H343l4.09,8.34a1.09,1.09,0,0,0,1.06.75h2.53a.93.93,0,0,0,.85-.49,1,1,0,0,0,0-1Zm-8.05-9.09h4.5c1.22,0,3.27.38,3.27,2.86S345,36,343.77,36h-4.5Z"/></g><g id="_Group_14" data-name="&lt;Group&gt;"><path class="cls-1" d="M367.62,37.3a5.51,5.51,0,0,0,2.1-4.67c0-4-2.68-6.36-7.18-6.36h-7.62a1,1,0,0,0-1,1V48.15a1,1,0,0,0,1,1h7.46c4.91,0,7.72-2.49,7.72-6.84A5.91,5.91,0,0,0,367.62,37.3Zm-5.15-1.75h-4.34v-5.3h4.34c1.94,0,3,1,3,2.67S364.38,35.55,362.47,35.55Zm-4.34,4h4.5c2.06,0,3.24,1,3.24,2.82s-1.15,2.83-3.24,2.83h-4.5Z"/></g><g id="_Group_15" data-name="&lt;Group&gt;"><path class="cls-1" d="M386.29,26.27H373.37a1,1,0,0,0-1,1V48.15a1,1,0,0,0,1,1h12.92a1,1,0,0,0,1-1v-2a1,1,0,0,0-1-1h-9.71v-5.5h8.16a1,1,0,0,0,1-1v-2a1,1,0,0,0-1-1h-8.16V30.31h9.71a1,1,0,0,0,1-1v-2A1,1,0,0,0,386.29,26.27Z"/></g><g id="_Group_16" data-name="&lt;Group&gt;"><path class="cls-1" d="M402.41,39.4a6.52,6.52,0,0,0,4-6.23c0-4.13-3-6.9-7.45-6.9h-7.77a1,1,0,0,0-1,1V48.15a1,1,0,0,0,1,1h2.18a1,1,0,0,0,1-1V40.08h3.77l4.09,8.34a1.09,1.09,0,0,0,1.06.75h2.53a.93.93,0,0,0,.85-.49,1,1,0,0,0,0-1Zm-.28-6.23c0,2.49-2.05,2.86-3.27,2.86h-4.5V30.31h4.5C400.08,30.31,402.13,30.69,402.13,33.17Z"/></g><g id="_Group_17" data-name="&lt;Group&gt;"><path class="cls-1" d="M424.32,36.34h-6.85a1,1,0,0,0-1,1V39.2a1,1,0,0,0,1,1h3.64a10.4,10.4,0,0,1-.37,2.64,3.84,3.84,0,0,1-3.94,2.6,3.71,3.71,0,0,1-4-2.72c-.24-.66-.4-1.77-.4-5s.16-4.37.41-5.06a3.7,3.7,0,0,1,4-2.69,4.12,4.12,0,0,1,4.07,2.45,1,1,0,0,0,1.39.48l2-.95a1,1,0,0,0,.37-1.35,8.12,8.12,0,0,0-7.79-4.68c-4,0-6.88,2-8,5.52-.4,1.3-.6,2.63-.6,6.28s.2,5,.61,6.28c1.15,3.56,4,5.52,8,5.52a7.84,7.84,0,0,0,8-5.59,18.49,18.49,0,0,0,.57-5V37.37A1,1,0,0,0,424.32,36.34Z"/></g></g><g id="_Group_18" data-name="&lt;Group&gt;"><g id="_Group_19" data-name="&lt;Group&gt;"><path class="cls-1" d="M194.75,86.61c2.68-1.91,5.61-5.49,5.61-12,0-10.24-6.81-16.12-18.7-16.12h-21a1.84,1.84,0,0,0-1.9,1.89v54.92a1.84,1.84,0,0,0,1.9,1.9h20.22c13.43,0,20.53-6.12,20.53-17.71C201.36,93,197.93,88.56,194.75,86.61Zm-24.09,6.23h11.25c4.77,0,7.51,2.46,7.51,6.76s-2.74,6.84-7.51,6.84H170.66Zm10.75-10.78H170.66V69.29h10.75c4.39,0,7,2.4,7,6.43S185.73,82.06,181.41,82.06Z"/></g><g id="_Group_20" data-name="&lt;Group&gt;"><rect class="cls-1" x="207.9" y="58.51" width="11.94" height="58.71" rx="1.89" ry="1.89"/></g><g id="_Group_21" data-name="&lt;Group&gt;"><path class="cls-1" d="M271,72C268,62.7,260.54,57.6,250,57.6S232,62.7,229,72c-1.23,3.7-1.55,7-1.55,15.89s.32,12.2,1.55,15.89c3,9.28,10.46,14.38,21,14.38S268,113,271,103.76c1.23-3.7,1.55-7,1.55-15.9S272.25,75.67,271,72Zm-11.5,28.53c-1.53,4.43-4.75,6.68-9.56,6.68s-8-2.25-9.47-6.66c-.61-1.88-1-4.55-1-12.67s.34-10.77.94-12.63c1.53-4.44,4.72-6.69,9.48-6.69s8,2.24,9.55,6.66c.61,1.88,1,4.55,1,12.66S260.12,98.63,259.52,100.51Z"/></g><g id="_Group_22" data-name="&lt;Group&gt;"><path class="cls-1" d="M321.72,58.51h-8.16a1.83,1.83,0,0,0-1.89,1.89V82.14H291.24V60.4a1.85,1.85,0,0,0-1.89-1.89h-8.16a1.83,1.83,0,0,0-1.89,1.89v54.92a1.84,1.84,0,0,0,1.89,1.9h8.16a1.85,1.85,0,0,0,1.89-1.9V93.09h20.43v22.23a1.84,1.84,0,0,0,1.89,1.9h8.16a1.84,1.84,0,0,0,1.89-1.9V60.4A1.83,1.83,0,0,0,321.72,58.51Z"/></g><g id="_Group_23" data-name="&lt;Group&gt;"><path class="cls-1" d="M373.17,58.51H365a1.85,1.85,0,0,0-1.89,1.89V96.1c0,6.84-3.83,11.09-10,11.09s-9.93-4.25-9.93-11.09V60.4a1.83,1.83,0,0,0-1.89-1.89h-8.16a1.85,1.85,0,0,0-1.89,1.89V96.27c0,13.08,8.79,21.86,21.87,21.86s21.94-8.78,21.94-21.86V60.4A1.85,1.85,0,0,0,373.17,58.51Z"/></g><g id="_Group_24" data-name="&lt;Group&gt;"><path class="cls-1" d="M418.74,86.61c2.68-1.91,5.61-5.49,5.61-12,0-10.24-6.82-16.12-18.7-16.12h-21a1.84,1.84,0,0,0-1.9,1.89v54.92a1.84,1.84,0,0,0,1.9,1.9h20.22c13.43,0,20.53-6.12,20.53-17.71C425.35,93,421.92,88.56,418.74,86.61Zm-24.09,6.23H405.9c4.77,0,7.51,2.46,7.51,6.76s-2.74,6.84-7.51,6.84H394.64ZM405.4,82.06H394.64V69.29H405.4c4.39,0,7,2.4,7,6.43S409.72,82.06,405.4,82.06Z"/></g></g></g></g><path class="cls-1" d="M72.75,5.82A66.27,66.27,0,1,0,139,72.09,66.27,66.27,0,0,0,72.75,5.82Zm27.41,54.94a4.58,4.58,0,0,0-3.65,3.29l-2.13,7.67a15.16,15.16,0,0,0,2.23,13A21.67,21.67,0,0,1,64,113a20.56,20.56,0,0,1-6.56-16.83,21.77,21.77,0,0,1,17.7-20,12.67,12.67,0,0,0,9.07-6.76l3.85-7.76a5.42,5.42,0,0,0-.53-5.75c-.14-.17-.26-.34-.39-.51a6,6,0,0,0-6.26-2.46l-14.42,3.3a8.4,8.4,0,0,0-6.06,5.64,18.11,18.11,0,1,1-3.2-17.1,9,9,0,0,0,7.9,3.17l14.65-1.47a7.54,7.54,0,0,0,6.11-4.31,13.26,13.26,0,0,1,11-7.71,13.91,13.91,0,0,1,14,10.19A13.28,13.28,0,0,1,100.16,60.76Z"/></svg>