<svg xmlns="http://www.w3.org/2000/svg" viewBox="0 0 111.51 61.02"><defs><style>.a{fill:#fff;}.a,.b{fill-rule:evenodd;}.b{fill:#ff414c;}</style></defs><path class="a" d="M13.12,16.05a11.4,11.4,0,0,1-4.92,1C3.64,17.05.37,14.43.37,9.8A7.49,7.49,0,0,1,8.16,2.26,9.4,9.4,0,0,1,11.63,3l.75-.75H13l.27,5.43-.83,0C11,4.55,9.74,3.35,7.93,3.35,5.71,3.35,4,5.41,4,9.47s2.07,6.38,4.83,6.38a4.28,4.28,0,0,0,1.47-.24L13,12.26l.6.09Z" transform="translate(-0.06 -0.29)"/><path class="a" d="M21.19,8.27a3.83,3.83,0,0,0-2.06.62v6.7l1.2.48v.65H14.79v-.65l1.42-.48V2.84l-1.53-.93V1.33l4-1,.43.24V8l.24,0A5.52,5.52,0,0,1,23,6.36c1.87,0,2.85,1.22,2.85,3v6.19l1.43.48v.65H21.71v-.65l1.2-.48V10.38c0-1.29-.47-2.11-1.72-2.11" transform="translate(-0.06 -0.29)"/><path class="a" d="M33.68,11.79c-2.39.09-3.25.91-3.25,2A1.44,1.44,0,0,0,32,15.39a3.38,3.38,0,0,0,1.65-.58Zm2.75,2.82c0,.75.34,1.22,1.63,1.24l0,.58a7.69,7.69,0,0,1-2.49.51,1.57,1.57,0,0,1-1.78-1.47l-.27,0a4.52,4.52,0,0,1-3.13,1.48c-1.6,0-2.72-.86-2.72-2.39,0-1.88,2-3.17,6-3.46V9.84c0-1.66-.67-2.21-2.34-2.21a3.28,3.28,0,0,0-1.14.2A1.48,1.48,0,0,1,30.83,9a1.24,1.24,0,0,1-1.34,1.27,1.37,1.37,0,0,1-1.4-1.36c0-1.53,2.45-2.57,4.78-2.57s3.56.91,3.56,3.08Z" transform="translate(-0.06 -0.29)"/><path class="a" d="M49.12,15.59l1.4.48v.65H45v-.65l1.2-.48V10.38c0-1.31-.47-2.11-1.69-2.11a3.86,3.86,0,0,0-2,.62v6.7l1.18.48v.65H38.17v-.65l1.42-.48V8.69l-1.4-.93V7.18L42,6.3l.42.26-.16,1.6.27,0a5.61,5.61,0,0,1,3.74-1.84c1.82,0,2.85,1.16,2.85,3Z" transform="translate(-0.06 -0.29)"/><path class="a" d="M12.54,38.51H.15L.06,38,9,25.58l-3.41.05c-1.22,0-1.78.4-2.73,1.64L1.39,29l-.55-.13.42-4.52H12.9l.08.55L4.15,37.33l4.23,0c1.16,0,1.71-.47,2.45-1.53l1.64-2.4.51.09Z" transform="translate(-0.06 -0.29)"/><path class="a" d="M25.58,37.44V38l-3.83.88-.42-.24.15-1.6-.26,0c-1.36,1.24-2.45,1.84-3.74,1.84a2.73,2.73,0,0,1-2.85-3.06V30.42l-1.38-.91V29l3.89-.89.41.26v6.43c0,1.38.48,2.13,1.69,2.13a3.89,3.89,0,0,0,2-.6V30.42l-1.4-.91V29l3.89-.89.42.26v8.27Z" transform="translate(-0.06 -0.29)"/><path class="a" d="M34.1,32.12a1.56,1.56,0,0,1-1.58-1.73,3,3,0,0,1,.24-1.17,2.35,2.35,0,0,0-.4,0c-1.64.06-3.09,1.48-3.09,4.16a3.39,3.39,0,0,0,3.54,3.75,6.58,6.58,0,0,0,2.58-.6l.22.53a5.68,5.68,0,0,1-4.18,1.84,5,5,0,0,1-5.16-5.12A5.56,5.56,0,0,1,32,28.16c2.2,0,3.58,1.06,3.58,2.37a1.49,1.49,0,0,1-1.49,1.59" transform="translate(-0.06 -0.29)"/><polygon class="a" points="46.79 37.11 47.85 37.58 47.85 38.22 42.87 38.22 42.87 37.64 43.69 37.22 41.11 33.72 40.34 33.72 40.34 37.09 41.45 37.58 41.45 38.22 36 38.22 36 37.58 37.42 37.09 37.42 24.34 35.88 23.41 35.88 22.83 39.91 21.79 40.34 22.04 40.34 32.54 41.18 32.54 43.9 29.51 42.67 28.75 42.67 28.2 47.39 28.2 47.39 28.86 46.01 29.39 42.94 32.12 46.79 37.11"/><path class="a" d="M54.9,32.39c0-2.26-.6-3.33-1.85-3.33S51,30.37,50.87,32.59Zm-4,1c0,2.41,1.07,3.77,3.32,3.77a8.65,8.65,0,0,0,3.22-.69l.25.51a7.54,7.54,0,0,1-4.5,1.88,4.87,4.87,0,0,1-5.2-5.16,5.42,5.42,0,0,1,5.29-5.54c3.34,0,4.63,2.41,4.52,5.23Z" transform="translate(-0.06 -0.29)"/><path class="a" d="M66.09,31.66a1.52,1.52,0,0,1-1.51-1.4,3.11,3.11,0,0,0-1.76,1.26v5.86l1.58.48v.65H58.48v-.65l1.43-.48v-6.9l-1.41-.93V29l3.81-.89.42.26-.24,2.13.26.07c.92-1.51,1.83-2.42,3.14-2.42a1.69,1.69,0,0,1,1.8,1.75,1.66,1.66,0,0,1-1.6,1.78" transform="translate(-0.06 -0.29)"/><path class="a" d="M73.48,30a4.28,4.28,0,0,0-1.54.33v6.43a2.44,2.44,0,0,0,2,1.06c1.18,0,2.22-1.13,2.22-3.94,0-2.64-1-3.88-2.73-3.88m-.07,8.84A16.15,16.15,0,0,1,69,38.15V24.63l-1.56-.93v-.58l4-1,.42.24v7.14l.27.05a4.41,4.41,0,0,1,3.09-1.36c2.09,0,4,1.93,4,5.06a5.6,5.6,0,0,1-5.87,5.65" transform="translate(-0.06 -0.29)"/><path class="a" d="M87.45,32.39c0-2.26-.6-3.33-1.85-3.33s-2.09,1.31-2.18,3.53Zm-4,1c0,2.41,1.07,3.77,3.31,3.77a8.66,8.66,0,0,0,3.23-.69l.24.51a7.49,7.49,0,0,1-4.49,1.88,4.88,4.88,0,0,1-5.21-5.16,5.43,5.43,0,0,1,5.3-5.54c3.34,0,4.63,2.41,4.52,5.23Z" transform="translate(-0.06 -0.29)"/><path class="a" d="M98.64,31.66a1.52,1.52,0,0,1-1.51-1.4,3.07,3.07,0,0,0-1.76,1.26v5.86l1.58.48v.65H91v-.65l1.42-.48v-6.9l-1.4-.93V29l3.81-.89.42.26L95,30.48l.27.07c.91-1.51,1.83-2.42,3.14-2.42a1.69,1.69,0,0,1,1.8,1.75,1.66,1.66,0,0,1-1.6,1.78" transform="translate(-0.06 -0.29)"/><path class="a" d="M105.27,28.93c-1,0-1.71.64-1.71,2.57s.69,2.57,1.82,2.57,1.65-.91,1.65-2.66-.63-2.48-1.76-2.48m1.31,9.91-3.58,0a2.33,2.33,0,0,0-.49,1.46c0,1.15,1,2,3.25,2,1.84,0,3.29-.91,3.29-2s-.76-1.38-2.47-1.4m-1.24-4a5.11,5.11,0,0,1-1.63-.2,1.91,1.91,0,0,0-.42,1c0,.55.4.82,1.47.84l2.73,0c2.32.05,3.52.93,3.52,2.6,0,2.17-2.38,4-6,4-3.34,0-4.87-1-4.87-2.26,0-.82.69-1.58,2.16-2.13l0-.22c-.89-.29-1.29-.84-1.29-1.47s.63-1.52,1.94-2.54v-.14a3.22,3.22,0,0,1-2-2.86c0-2.06,2-3.35,4.49-3.35a5.1,5.1,0,0,1,3.2,1l1.72-1h1.26v1.93h-.44l-1.85-.35,0,.18a3.07,3.07,0,0,1,.47,1.66c0,1.88-1.67,3.28-4.36,3.28" transform="translate(-0.06 -0.29)"/><polygon class="a" points="7.76 59.28 7.76 60.01 0.18 60.01 0.18 59.28 2.31 58.79 2.31 47.11 0.18 46.62 0.18 45.89 7.76 45.89 7.76 46.62 5.65 47.11 5.65 58.79 7.76 59.28"/><path class="a" d="M19.73,59.17l1.4.49v.64H15.61v-.64l1.2-.49V54c0-1.31-.47-2.11-1.69-2.11a4,4,0,0,0-2,.62v6.7l1.18.49v.64H8.78v-.64l1.42-.49v-6.9l-1.4-.93v-.57l3.81-.89.42.27-.16,1.59.27,0A5.61,5.61,0,0,1,16.88,50a2.7,2.7,0,0,1,2.85,3Z" transform="translate(-0.06 -0.29)"/><path class="a" d="M24.31,44.18A1.76,1.76,0,0,1,26.13,46a1.9,1.9,0,0,1-1.91,1.9,1.74,1.74,0,0,1-1.8-1.77A1.92,1.92,0,0,1,24.31,44.18Zm-2.87,7.16v-.57l3.94-.89.37.22v9.07l1.38.49v.64H21.37v-.64l1.47-.49v-6.9Z" transform="translate(-0.06 -0.29)"/><path class="a" d="M31.58,60.59A2.33,2.33,0,0,1,28.94,58V51.72H27.22v-.6l2.16-1.48L31,47.13h.82v3.1h3.38v1.49H31.85v5.19c0,.93.13,1.42.58,1.73A2.63,2.63,0,0,0,34,59a12.75,12.75,0,0,0,1.29-.07l0,.69a8,8,0,0,1-3.72,1" transform="translate(-0.06 -0.29)"/><path class="a" d="M38.48,44.18A1.76,1.76,0,0,1,40.31,46a1.91,1.91,0,0,1-1.92,1.9,1.74,1.74,0,0,1-1.8-1.77A1.92,1.92,0,0,1,38.48,44.18Zm-2.87,7.16v-.57l3.94-.89.38.22v9.07l1.38.49v.64H35.54v-.64L37,59.17v-6.9Z" transform="translate(-0.06 -0.29)"/><path class="a" d="M48,55.38c-2.38.09-3.25.91-3.25,2A1.44,1.44,0,0,0,46.31,59,3.32,3.32,0,0,0,48,58.39Zm2.76,2.81c0,.76.33,1.22,1.62,1.24l0,.58a7.69,7.69,0,0,1-2.49.51,1.57,1.57,0,0,1-1.78-1.46L47.85,59a4.55,4.55,0,0,1-3.14,1.49c-1.6,0-2.71-.87-2.71-2.4,0-1.88,2-3.17,6-3.45V53.43c0-1.67-.67-2.22-2.34-2.22a3.27,3.27,0,0,0-1.13.2,1.5,1.5,0,0,1,.62,1.2,1.23,1.23,0,0,1-1.33,1.26,1.37,1.37,0,0,1-1.41-1.35C42.37,51,44.82,50,47.16,50s3.56.91,3.56,3.08Z" transform="translate(-0.06 -0.29)"/><path class="a" d="M56.46,60.59A2.33,2.33,0,0,1,53.81,58V51.72H52.1v-.6l2.15-1.48,1.65-2.51h.82v3.1h3.39v1.49H56.72v5.19c0,.93.14,1.42.58,1.73a2.65,2.65,0,0,0,1.56.33,12.61,12.61,0,0,0,1.29-.07l0,.69a8,8,0,0,1-3.71,1" transform="translate(-0.06 -0.29)"/><path class="a" d="M63.35,44.18A1.76,1.76,0,0,1,65.18,46a1.9,1.9,0,0,1-1.92,1.9,1.74,1.74,0,0,1-1.8-1.77A1.92,1.92,0,0,1,63.35,44.18Zm-2.87,7.16v-.57l3.94-.89.38.22v9.07l1.38.49v.64H60.42v-.64l1.46-.49v-6.9Z" transform="translate(-0.06 -0.29)"/><polygon class="a" points="72.79 57.08 72.93 57.08 73.95 54.47 75.02 51.3 73.73 50.61 73.73 49.99 78.13 49.99 78.13 50.66 76.64 51.39 72.81 60.25 71.17 60.25 67.25 51.19 65.9 50.66 65.9 49.99 71.88 49.99 71.88 50.61 70.5 51.14 72.79 57.08"/><path class="a" d="M85.22,54.18c0-2.26-.6-3.32-1.84-3.32s-2.1,1.3-2.18,3.52Zm-4,1c0,2.41,1.07,3.77,3.32,3.77a8.65,8.65,0,0,0,3.22-.69l.25.51a7.54,7.54,0,0,1-4.5,1.88,4.87,4.87,0,0,1-5.2-5.16A5.43,5.43,0,0,1,83.55,50c3.34,0,4.63,2.41,4.52,5.23Z" transform="translate(-0.06 -0.29)"/><path class="b" d="M99.25,53.52a3.3,3.3,0,0,1-1.88.58,1.65,1.65,0,0,1-1.76-1.56,1.8,1.8,0,0,1,1.79-1.92,1.93,1.93,0,0,1,.75.15s-.06.52-.08.76h.8L99,50.35l-.23-.14a2.58,2.58,0,0,0-1.39-.39,2.63,2.63,0,0,0-1.89.83,2.54,2.54,0,0,0-.69,1.94,2.48,2.48,0,0,0,.78,1.65,2.57,2.57,0,0,0,1.75.65h0a3.92,3.92,0,0,0,1.37-.29l.58-1.11s0,0-.09,0" transform="translate(-0.06 -0.29)"/><path class="b" d="M102,56.36l-.1,1.09h0a1.15,1.15,0,0,1-.59.94.83.83,0,0,1-.81,0,.87.87,0,0,1-.45-.64,1.21,1.21,0,0,1,.52-1.13l5.33-3.45a6.51,6.51,0,1,1-.46-1.65l.65-.42a7.23,7.23,0,1,0,.64,3,7.53,7.53,0,0,0-.13-1.35,6.89,6.89,0,0,0-.18-.73l-1.51.95-2,1.26a1,1,0,0,0-.57-.69,2,2,0,0,0-1.55.23l1.54-3a0,0,0,0,0,0-.06H99.77l-.1.82H101l-1.89,3.61a.08.08,0,0,0,.11.1l1-.53c.48-.25,1.29-.76,1.69-.46a.36.36,0,0,1,.14.27.14.14,0,0,1-.06.12L100,56a2,2,0,0,0-.85,1.81,1.69,1.69,0,0,0,.9,1.3,1.72,1.72,0,0,0,.85.2,1.66,1.66,0,0,0,.74-.19,2,2,0,0,0,1-1.57l.16-1.84Z" transform="translate(-0.06 -0.29)"/></svg>