<?xml version="1.0" encoding="UTF-8" standalone="no"?>
<svg
   xmlns:dc="http://purl.org/dc/elements/1.1/"
   xmlns:cc="http://creativecommons.org/ns#"
   xmlns:rdf="http://www.w3.org/1999/02/22-rdf-syntax-ns#"
   xmlns:svg="http://www.w3.org/2000/svg"
   xmlns="http://www.w3.org/2000/svg"
   xmlns:sodipodi="http://sodipodi.sourceforge.net/DTD/sodipodi-0.dtd"
   xmlns:inkscape="http://www.inkscape.org/namespaces/inkscape"
   version="1.0"
   width="262.35001"
   height="214.53827"
   viewBox="0 0 262.35001 214.53827"
   preserveAspectRatio="xMidYMid meet"
   id="svg44"
   sodipodi:docname="IIIT_Bangalore_Logo_white.svg"
   inkscape:version="0.92.3 (2405546, 2018-03-11)">
  <defs
     id="defs48" />
  <sodipodi:namedview
     pagecolor="#ffffff"
     bordercolor="#666666"
     borderopacity="1"
     objecttolerance="10"
     gridtolerance="10"
     guidetolerance="10"
     inkscape:pageopacity="0"
     inkscape:pageshadow="2"
     inkscape:window-width="1920"
     inkscape:window-height="1015"
     id="namedview46"
     showgrid="false"
     units="px"
     inkscape:zoom="1.9657702"
     inkscape:cx="173.06706"
     inkscape:cy="145.72434"
     inkscape:window-x="0"
     inkscape:window-y="0"
     inkscape:window-maximized="1"
     inkscape:current-layer="svg44"
     fit-margin-top="0"
     fit-margin-left="0"
     fit-margin-right="0"
     fit-margin-bottom="0" />
  <metadata
     id="metadata10">
Created by potrace 1.16, written by Peter Selinger 2001-2019
<rdf:RDF>
  <cc:Work
     rdf:about="">
    <dc:format>image/svg+xml</dc:format>
    <dc:type
       rdf:resource="http://purl.org/dc/dcmitype/StillImage" />
    <dc:title></dc:title>
  </cc:Work>
</rdf:RDF>
</metadata>
  <g
     transform="matrix(0.0265644,0,0,-0.02629021,-0.265644,214.79102)"
     id="g42"
     style="fill:#ffffff;stroke:none;stroke-width:3.78401613">
    <path
       d="m 1935,8159 c -200,-26 -452,-102 -650,-198 -233,-112 -403,-231 -586,-408 -97,-95 -117,-119 -107,-129 21,-21 332,-178 468,-237 253,-110 508,-192 727,-237 115,-23 343,-51 355,-44 4,3 8,288 8,635 v 629 l -72,-1 c -40,-1 -104,-6 -143,-10 z"
       id="path12"
       style="fill:#ffffff;fill-opacity:1;stroke:none;stroke-width:3.78401613;stroke-opacity:1"
       inkscape:connector-curvature="0" />
    <path
       d="m 2300,7543 c 0,-346 4,-633 8,-640 9,-14 230,-1 385,23 368,57 738,202 1097,432 47,30 87,56 89,58 8,7 -100,121 -187,196 -290,254 -598,416 -957,504 -113,27 -299,54 -381,54 h -54 z"
       id="path14"
       style="fill:#ffffff;fill-opacity:1;stroke-width:3.78401613"
       inkscape:connector-curvature="0" />
    <path
       d="M 442,7263 C 401,7210 289,7027 246,6942 164,6780 88,6556 51,6371 29,6263 5,6027 14,6004 c 5,-12 145,-14 1068,-12 l 1063,3 v 375 375 l -120,12 c -199,21 -375,59 -605,129 -229,71 -599,230 -822,355 -58,32 -111,59 -116,59 -6,0 -24,-17 -40,-37 z"
       id="path16"
       style="fill:#ffffff;fill-opacity:1;stroke-width:3.78401613"
       inkscape:connector-curvature="0" />
    <path
       d="m 3885,7234 c -191,-129 -460,-261 -703,-345 -244,-84 -440,-123 -717,-143 l -160,-11 v -370 -370 h 1065 1065 l -2,100 c -8,339 -156,775 -370,1090 -37,55 -75,101 -83,102 -8,1 -51,-23 -95,-53 z"
       id="path18"
       style="fill:#ffffff;fill-opacity:1;stroke-width:3.78401613"
       inkscape:connector-curvature="0" />
    <path
       d="m 10,5831 c 0,-5 5,-55 10,-112 35,-341 148,-674 328,-964 67,-109 133,-195 147,-195 6,0 117,53 246,118 434,219 808,345 1161,392 84,11 173,24 198,28 l 45,7 3,368 2,367 H 1080 c -622,0 -1070,-4 -1070,-9 z"
       id="path20"
       style="fill:#ffffff;fill-opacity:1;stroke-width:3.78401613"
       inkscape:connector-curvature="0" />
    <path
       d="m 2300,5475 c 0,-285 3,-365 13,-365 6,0 75,-5 152,-10 521,-37 940,-182 1442,-500 29,-18 59,-30 67,-27 23,9 157,220 220,344 138,274 219,555 242,841 l 7,82 H 3371 2300 Z"
       id="path22"
       style="fill:#ffffff;fill-opacity:1;stroke-width:3.78401613"
       inkscape:connector-curvature="0" />
    <path
       d="m 2306,4933 c -9,-23 -6,-1222 3,-1227 4,-3 56,0 117,5 495,45 975,268 1338,622 l 101,98 -27,24 c -84,73 -458,268 -638,333 -274,99 -587,162 -806,162 -67,0 -83,-3 -88,-17 z"
       id="path24"
       style="fill:#ffffff;fill-opacity:1;stroke-width:3.78401613"
       inkscape:connector-curvature="0" />
    <path
       d="M 2005,4933 C 1723,4896 1384,4801 1100,4678 980,4626 718,4497 642,4453 l -44,-26 84,-84 c 298,-302 690,-513 1110,-597 124,-25 335,-49 350,-40 4,3 8,282 8,620 v 614 l -57,-1 c -32,-1 -71,-4 -88,-6 z"
       id="path26"
       style="fill:#ffffff;fill-opacity:1;stroke-width:3.78401613"
       inkscape:connector-curvature="0" />
    <path
       d="m 7132,3113 3,-1748 444,-3 c 349,-2 446,0 453,10 4,7 8,67 8,132 v 119 l 93,-89 c 144,-140 274,-219 444,-270 78,-24 105,-27 233,-27 171,0 252,17 395,87 325,156 565,493 657,919 32,149 32,474 0,629 -102,496 -405,862 -817,984 -124,37 -317,39 -445,5 -176,-47 -313,-127 -465,-273 l -95,-90 -2,658 c -1,363 -2,668 -2,679 -1,20 -9,20 -454,23 l -452,2 z m 1544,167 c 228,-111 375,-440 344,-770 -37,-392 -294,-675 -573,-630 -96,15 -161,52 -247,138 -63,63 -86,95 -123,172 -79,163 -108,335 -87,512 30,260 153,478 320,567 88,47 104,51 206,48 80,-2 99,-7 160,-37 z"
       id="path28"
       style="fill:#ffffff;fill-opacity:1;stroke-width:3.78401613"
       inkscape:connector-curvature="0" />
    <path
       d="m 4720,4431 c 0,-190 -4,-341 -10,-355 l -10,-26 h -240 -240 v -180 -180 l 248,-2 247,-3 1,-1155 2,-1155 521,-3 521,-2 v 1160 1160 h 234 c 204,0 235,2 240,16 8,20 8,292 0,321 -6,22 -8,23 -238,25 l -231,3 -3,353 -2,352 h -520 -520 z"
       id="path30"
       style="fill:#ffffff;fill-opacity:1;stroke-width:3.78401613"
       inkscape:connector-curvature="0" />
    <path
       d="m 205,3258 c -3,-7 -4,-436 -3,-953 l 3,-940 517,-3 517,-2 6,52 c 3,29 5,458 3,953 l -3,900 -518,3 c -409,2 -519,0 -522,-10 z"
       id="path32"
       style="fill:#ffffff;fill-opacity:1;stroke-width:3.78401613"
       inkscape:connector-curvature="0" />
    <path
       d="m 1720,2315 v -955 l 518,2 517,3 v 950 950 l -517,3 -518,2 z"
       id="path34"
       style="fill:#ffffff;fill-opacity:1;stroke-width:3.78401613"
       inkscape:connector-curvature="0" />
    <path
       d="m 3130,2315 v -955 l 518,2 517,3 3,953 2,952 h -520 -520 z"
       id="path36"
       style="fill:#ffffff;fill-opacity:1;stroke-width:3.78401613"
       inkscape:connector-curvature="0" />
    <path
       d="m 6147,2703 c -4,-3 -7,-131 -7,-283 v -277 l 198,-5 c 108,-3 250,-3 315,0 l 117,5 -2,281 -3,281 -306,3 c -168,1 -308,-1 -312,-5 z"
       id="path38"
       style="fill:#ffffff;fill-opacity:1;stroke-width:3.78401613"
       inkscape:connector-curvature="0" />
    <path
       d="m 243,889 c -7,-7 -13,-23 -13,-36 v -23 h 385 385 V 740 650 H 720 c -244,0 -281,-2 -287,-15 -3,-9 -4,-18 -1,-20 2,-3 43,-16 91,-30 108,-31 168,-59 208,-96 42,-40 36,-68 -21,-96 -59,-31 -92,-29 -132,6 -50,43 -76,54 -115,46 -38,-7 -48,-23 -39,-60 9,-34 39,-51 122,-69 78,-16 133,-41 238,-109 60,-39 73,-43 93,-34 13,5 23,13 23,17 0,4 -50,35 -111,70 -71,41 -106,66 -97,70 7,4 37,13 65,20 83,19 120,58 102,107 -10,26 -79,74 -142,98 -26,10 -50,22 -53,26 -3,5 71,9 165,9 h 170 l 3,-147 3,-148 35,-17 c 19,-9 45,-19 58,-23 l 22,-6 v 290 291 h 115 115 V 561 293 l 51,-22 c 29,-11 55,-21 60,-21 5,0 10,129 11,288 l 3,287 343,3 342,2 V 730 630 h -219 c -218,0 -271,-7 -271,-34 0,-19 116,-125 146,-132 34,-9 54,12 54,56 v 37 l 69,5 c 38,3 103,3 145,0 l 76,-5 V 425 292 l 33,-15 c 17,-8 44,-17 60,-21 l 27,-6 v 290 290 h 160 160 V 705 580 h -37 c -52,0 -83,-10 -83,-26 0,-14 101,-89 159,-119 19,-10 43,-14 57,-11 20,5 24,13 24,46 v 40 h 180 180 V 405 300 l 33,-20 32,-20 h -45 c -59,0 -120,-18 -120,-34 0,-13 68,-66 85,-66 6,0 33,12 62,27 43,21 58,24 84,17 17,-5 38,-18 45,-30 13,-18 12,-24 -6,-47 -35,-44 -107,-61 -234,-54 -118,6 -168,19 -313,83 -75,33 -113,39 -113,16 0,-10 125,-70 221,-106 138,-51 321,-71 424,-45 47,12 110,61 119,94 10,37 -30,85 -95,113 l -59,27 v 287 288 h 425 425 v -65 -65 h -315 c -173,0 -315,-4 -315,-8 0,-5 13,-20 28,-35 25,-24 36,-27 95,-27 37,0 67,-4 67,-8 0,-5 -9,-17 -20,-27 -29,-26 -26,-74 8,-121 57,-79 216,-204 258,-204 12,0 27,7 34,15 8,9 8,15 2,15 -6,0 -45,23 -87,52 -80,53 -135,120 -135,165 0,33 56,91 98,103 20,5 92,10 160,10 h 122 V 461 291 l 55,-20 c 31,-12 58,-21 60,-21 3,0 5,131 5,290 v 290 h 160 160 V 705 580 h -37 c -52,0 -83,-10 -83,-26 0,-17 130,-109 176,-124 43,-15 62,-2 66,43 l 3,32 h 180 180 l -3,-59 c -2,-32 -1,-82 3,-111 6,-51 7,-53 47,-64 22,-7 46,-15 54,-18 11,-4 14,43 16,283 l 3,289 158,3 157,3 V 705 580 h -43 c -24,0 -52,-7 -63,-15 -19,-14 -18,-15 6,-36 38,-31 127,-88 154,-99 13,-5 33,-6 45,-3 17,4 21,13 21,44 v 39 h 179 c 203,0 192,5 183,-88 -2,-28 -1,-70 2,-94 6,-41 9,-45 49,-56 23,-7 48,-15 55,-18 9,-5 12,56 12,285 v 291 h 75 75 v 30 30 H 3507 c -1460,0 -2788,3 -2953,6 -241,5 -301,4 -311,-7 z M 3080,705 V 580 h -180 -180 v 125 125 h 180 180 z m 1898,-2 3,-123 h -186 -185 v 125 125 l 183,-2 182,-3 z m 913,123 c 2,-2 3,-59 1,-125 l -3,-121 h -180 -179 v 118 c 0,65 3,122 7,125 7,7 347,10 354,3 z"
       id="path40"
       style="fill:#ffffff;fill-opacity:1;stroke-width:3.78401613"
       inkscape:connector-curvature="0" />
  </g>
</svg>
