<svg xmlns="http://www.w3.org/2000/svg" viewBox="0 0 460.01 183.06"><defs><style>.cls-1{fill:#fff;}</style></defs><g id="レイヤー_2" data-name="レイヤー 2"><g id="レイヤー_1-2" data-name="レイヤー 1"><g id="レイヤー_2-2" data-name="レイヤー 2"><g id="レイヤー_1-2-2" data-name="レイヤー 1-2"><path class="cls-1" d="M76.85,0c13.38,2.71,25.59,7.75,36,16.89,30.41,26.67,29.47,77-2.06,102.08a9.66,9.66,0,0,1-1.76.81c1.11-6.83,1.7-13.33-1.84-19.36A23.15,23.15,0,0,0,66.5,101c-5.77,11.1-2.55,21,10.21,31.6-12.82,4.72-29.08-5.38-39.72-25.32,0,9.46.07,18,0,26.46-.11,11.26.57,22.53-.71,33.76-1,9-7.88,14.55-17.74,14.49C8.38,182,1.36,176.19.76,167-.6,146.13.31,125.25.21,104.39.14,91.15-.17,77.91.59,64.66,2.47,31.8,24.19,6.91,56.56.79A16.27,16.27,0,0,0,58.88,0ZM36.9,85.66a19.81,19.81,0,0,0,1.34-2.15,37.42,37.42,0,0,1,57.27-17.9c.78.55,1.62,1.62,2.59,1.07,1.43-.81.7-2.37.63-3.6-.8-13.55-13.36-26-27.35-27.2-15.94-1.35-29.88,8-33.26,22.3C36.05,66.94,37.37,75.79,36.9,85.66Z"/><path class="cls-1" d="M460,177c-4.48.12-9,.15-13.43.39-3.15.17-4.35-1.38-3.86-4.18,1-5.63-1.9-9.22-5.71-12.84-6.24-5.92-12.05-12.28-17.94-18.33-2.21,1.31-1.54,2.78-1.55,4-.07,9-.16,17.9,0,26.84.07,3.46-1.13,4.66-4.6,4.58-15.09-.38-12.5,2.13-12.61-12-.16-21.21.09-42.42-.13-63.63-.05-4.65,1.49-5.92,6-5.83,11.29.2,11.29,0,11.29,11.32V137.9l1.41.76c2.08-2.3,4.31-4.47,6.19-6.92,2.65-3.45,4.77-2.94,7.37.13,2.76,3.27,5.93,6.2,8.91,9.25,2-1.33,1.27-3,1.27-4.28.08-11.76.17-23.53,0-35.29-.07-3.9.82-5.59,5.18-5.56,11.6.09,11.6-.11,11.6,11.52v30.82a15.59,15.59,0,0,0,.62,5.88Z"/><path class="cls-1" d="M281.8,124.52c2.76-1.12,4.15-3.26,5.87-5,8.86-8.75,17.72-17.51,26.44-26.39,2.15-2.2,3.51-2.63,6-.22,9.44,9.14,9.54,9,.3,18.25-8.34,8.32-16.76,16.57-25,25-2.26,2.31-3.9,2.57-6,0s-4.39-4.87-7-7.78c-1.46,2.69-1.07,4.52-1.07,6.23,0,12.43-.14,24.87,0,37.3.06,3.94-1,5.57-5.28,5.54-11.78-.09-11.78.1-11.78-11.76,0-21.39.12-42.77-.1-64.15,0-4.39,1.21-5.74,5.6-5.58,13.35.47,11.28-1.89,11.49,11.2.08,5.3.06,10.6.11,15.9A6.25,6.25,0,0,0,281.8,124.52Z"/><path class="cls-1" d="M176.57,96.1c5.08.2,11.25-.45,17.3,1.08,21.54,5.47,29.93,30.72,15.6,47.55-2.21,2.6-2,4.23-.44,6.82,3.66,5.91,6.88,12.1,10.58,18,1.9,3,1.2,4.39-1.75,6.08-11,6.34-11,6.44-17.41-4.7-4.56-7.89-9-15.83-13.73-23.65-1.82-3-2.62-4.66,2-6,7.35-2.2,11.23-8,11.17-14.75a15.13,15.13,0,0,0-10.34-14.35c-2.74-.94-5.58-.82-8.39-.85-6.48-.07-13-.1-19.44,0-2.93,0-4.18-1-4.13-4.06.21-13.49-1.4-10.8,10.46-11.1C170.54,96.05,173,96.1,176.57,96.1Z"/><path class="cls-1" d="M87.74,157.88a24.62,24.62,0,0,1,24.59-24.68h.53a24.93,24.93,0,1,1-25.12,24.74Z"/><path class="cls-1" d="M248.53,137c0,11.91-.09,23.83.05,35.74,0,3.35-1,4.76-4.51,4.68-15.37-.37-12.44,2-12.57-11.94-.19-21.35,0-42.7-.12-64,0-4,1.05-5.5,5.28-5.47,11.87.07,11.87-.1,11.87,11.73Z"/><path class="cls-1" d="M157.5,150.18c0-7.62.14-15.24-.05-22.85-.09-3.29,1.12-4.17,4.31-4.23,12.93-.25,12.93-.35,12.93,12.57,0,12.25-.14,24.5.08,36.75.07,4-1.35,5.06-5.18,5.07-12.09,0-12.09.15-12.09-11.91Z"/><path class="cls-1" d="M359.78,112.44c-6.82,0-13.64-.12-20.45,0-3.29.09-4.21-1.17-4.28-4.35-.24-12-.35-12,11.47-12,11.31,0,22.61.1,33.91,0,3.48,0,4.7,1.19,4.64,4.61-.24,14.43,1.52,11.46-11.33,11.77C369.09,112.54,364.43,112.45,359.78,112.44Z"/><path class="cls-1" d="M360.27,128.93c6.81,0,13.63.12,20.44-.05,3.27-.08,4.39,1.21,4.35,4.37-.18,14.18,1.46,11.63-11.37,11.79-11.14.15-22.27-.07-33.41.09-3.66.05-5.31-.79-5.27-5,.11-11.24-.1-11.25,11.3-11.25Z"/><path class="cls-1" d="M360.22,161.27c6.81,0,13.63.09,20.44,0,3.2-.06,4.44,1.19,4.4,4.38-.19,14.54,1.48,11.55-11.32,11.75-11.3.19-22.61-.09-33.9.11-3.75.07-4.8-1.19-4.8-4.85,0-11.37-.15-11.37,11.22-11.37Z"/><path class="cls-1" d="M319.48,154.55c0,6.28-.11,12.56,0,18.84.08,3-1,4.11-4,4.05-16.27-.34-12.89,2.24-13.18-12.27-.2-9.91.07-19.82-.09-29.74-.06-3.45,1.19-4.51,4.6-4.58,12.64-.26,12.64-.37,12.64,12.3Q319.48,148.85,319.48,154.55Z"/></g></g></g></g></svg>