<svg xmlns="http://www.w3.org/2000/svg" xmlns:xlink="http://www.w3.org/1999/xlink" xmlns:lucid="lucid" width="1495.33" height="1122"><g transform="translate(-19 -19)" lucid:page-tab-id="n_sfWMrI7Ph9"><path d="M906.67 922.5v50.83H693.33v31.72" stroke="#630" stroke-width="3" fill="none"/><path d="M908.14 922.54h-2.95V921h2.94z" stroke="#630" stroke-width=".05" fill="#630"/><path d="M693.33 1020.8l-4.63-14.25h9.27z" stroke="#630" stroke-width="3" fill="#630"/><path d="M1313.33 922.5v50.83h-620v31.72" stroke="#630" stroke-width="3" fill="none"/><path d="M1314.8 922.54h-2.94V921h2.95z" stroke="#630" stroke-width=".05" fill="#630"/><path d="M693.33 1020.8l-4.63-14.25h9.27z" stroke="#630" stroke-width="3" fill="#630"/><path d="M906.67 922.5v50.83H693.33v31.72" stroke="#630" stroke-width="3" fill="none"/><path d="M908.14 922.54h-2.95V921h2.94z" stroke="#630" stroke-width=".05" fill="#630"/><path d="M693.33 1020.8l-4.63-14.25h9.27z" stroke="#630" stroke-width="3" fill="#630"/><path d="M40 813.33h253.33V920H40z" stroke="#fff" stroke-width="2" fill="#c5e0dc"/><use xlink:href="#a" transform="matrix(1,0,0,1,60,813.3333333333333) translate(59.996337890625 33.6279296875)"/><use xlink:href="#b" transform="matrix(1,0,0,1,60,813.3333333333333) translate(139.215576171875 33.6279296875)"/><use xlink:href="#c" transform="matrix(1,0,0,1,60,813.3333333333333) translate(27.785400390625 51.20849609375)"/><use xlink:href="#d" transform="matrix(1,0,0,1,60,813.3333333333333) translate(154.513916015625 51.20849609375)"/><use xlink:href="#e" transform="matrix(1,0,0,1,60,813.3333333333333) translate(37.29931640625 68.7890625)"/><use xlink:href="#f" transform="matrix(1,0,0,1,60,813.3333333333333) translate(98.5390625 68.7890625)"/><use xlink:href="#g" transform="matrix(1,0,0,1,60,813.3333333333333) translate(114.384765625 68.7890625)"/><use xlink:href="#h" transform="matrix(1,0,0,1,60,813.3333333333333) translate(66.870849609375 86.36962890625)"/><use xlink:href="#i" transform="matrix(1,0,0,1,60,813.3333333333333) translate(87.995361328125 86.36962890625)"/><path d="M320 813.33h360V920H320z" stroke="#fff" stroke-width="2" fill="#c5e0dc"/><use xlink:href="#j" transform="matrix(1,0,0,1,340,813.3333333333333) translate(1.75634765625 42.418212890625)"/><use xlink:href="#f" transform="matrix(1,0,0,1,340,813.3333333333333) translate(51.01904296875 42.418212890625)"/><use xlink:href="#k" transform="matrix(1,0,0,1,340,813.3333333333333) translate(66.86474609375 42.418212890625)"/><use xlink:href="#l" transform="matrix(1,0,0,1,340,813.3333333333333) translate(111.2197265625 42.418212890625)"/><use xlink:href="#m" transform="matrix(1,0,0,1,340,813.3333333333333) translate(178.814453125 42.418212890625)"/><use xlink:href="#n" transform="matrix(1,0,0,1,340,813.3333333333333) translate(215.78466796875 42.418212890625)"/><use xlink:href="#o" transform="matrix(1,0,0,1,340,813.3333333333333) translate(291.8310546875 42.418212890625)"/><use xlink:href="#p" transform="matrix(1,0,0,1,340,813.3333333333333) translate(46.4638671875 59.998779296875)"/><use xlink:href="#q" transform="matrix(1,0,0,1,340,813.3333333333333) translate(97.13671875 59.998779296875)"/><use xlink:href="#r" transform="matrix(1,0,0,1,340,813.3333333333333) translate(134.1162109375 59.998779296875)"/><use xlink:href="#f" transform="matrix(1,0,0,1,340,813.3333333333333) translate(179.52880859375 59.998779296875)"/><use xlink:href="#s" transform="matrix(1,0,0,1,340,813.3333333333333) translate(195.37451171875 59.998779296875)"/><use xlink:href="#t" transform="matrix(1,0,0,1,340,813.3333333333333) translate(74.97314453125 77.579345703125)"/><use xlink:href="#u" transform="matrix(1,0,0,1,340,813.3333333333333) translate(102.4248046875 77.579345703125)"/><use xlink:href="#v" transform="matrix(1,0,0,1,340,813.3333333333333) translate(126.70361328125 77.579345703125)"/><path d="M706.67 813.33h400V920h-400z" stroke="#fff" stroke-width="2" fill="#c5e0dc"/><use xlink:href="#w" transform="matrix(1,0,0,1,726.6666666666666,813.3333333333333) translate(18.411865234375 42.418212890625)"/><use xlink:href="#x" transform="matrix(1,0,0,1,726.6666666666666,813.3333333333333) translate(61.718505859375 42.418212890625)"/><use xlink:href="#p" transform="matrix(1,0,0,1,726.6666666666666,813.3333333333333) translate(93.409912109375 42.418212890625)"/><use xlink:href="#y" transform="matrix(1,0,0,1,726.6666666666666,813.3333333333333) translate(144.082763671875 42.418212890625)"/><use xlink:href="#x" transform="matrix(1,0,0,1,726.6666666666666,813.3333333333333) translate(164.149658203125 42.418212890625)"/><use xlink:href="#z" transform="matrix(1,0,0,1,726.6666666666666,813.3333333333333) translate(195.841064453125 42.418212890625)"/><use xlink:href="#A" transform="matrix(1,0,0,1,726.6666666666666,813.3333333333333) translate(231.753662109375 42.418212890625)"/><use xlink:href="#d" transform="matrix(1,0,0,1,726.6666666666666,813.3333333333333) translate(309.887451171875 42.418212890625)"/><use xlink:href="#B" transform="matrix(1,0,0,1,726.6666666666666,813.3333333333333) translate(15.2529296875 59.998779296875)"/><use xlink:href="#f" transform="matrix(1,0,0,1,726.6666666666666,813.3333333333333) translate(60.64697265625 59.998779296875)"/><use xlink:href="#k" transform="matrix(1,0,0,1,726.6666666666666,813.3333333333333) translate(76.49267578125 59.998779296875)"/><use xlink:href="#l" transform="matrix(1,0,0,1,726.6666666666666,813.3333333333333) translate(120.84765625 59.998779296875)"/><use xlink:href="#m" transform="matrix(1,0,0,1,726.6666666666666,813.3333333333333) translate(188.4423828125 59.998779296875)"/><use xlink:href="#C" transform="matrix(1,0,0,1,726.6666666666666,813.3333333333333) translate(225.41259765625 59.998779296875)"/><use xlink:href="#D" transform="matrix(1,0,0,1,726.6666666666666,813.3333333333333) translate(268.70068359375 59.998779296875)"/><use xlink:href="#E" transform="matrix(1,0,0,1,726.6666666666666,813.3333333333333) translate(283.4794921875 59.998779296875)"/><use xlink:href="#F" transform="matrix(1,0,0,1,726.6666666666666,813.3333333333333) translate(334.18017578125 59.998779296875)"/><use xlink:href="#G" transform="matrix(1,0,0,1,726.6666666666666,813.3333333333333) translate(53.2529296875 77.579345703125)"/><use xlink:href="#H" transform="matrix(1,0,0,1,726.6666666666666,813.3333333333333) translate(136.693359375 77.579345703125)"/><use xlink:href="#u" transform="matrix(1,0,0,1,726.6666666666666,813.3333333333333) translate(164.14501953125 77.579345703125)"/><use xlink:href="#v" transform="matrix(1,0,0,1,726.6666666666666,813.3333333333333) translate(188.423828125 77.579345703125)"/><path d="M1133.33 813.33h360V920h-360z" stroke="#fff" stroke-width="2" fill="#c5e0dc"/><use xlink:href="#I" transform="matrix(1,0,0,1,1153.3333333333333,813.3333333333333) translate(32.376220703125 42.418212890625)"/><use xlink:href="#x" transform="matrix(1,0,0,1,1153.3333333333333,813.3333333333333) translate(82.705810546875 42.418212890625)"/><use xlink:href="#J" transform="matrix(1,0,0,1,1153.3333333333333,813.3333333333333) translate(114.397216796875 42.418212890625)"/><use xlink:href="#K" transform="matrix(1,0,0,1,1153.3333333333333,813.3333333333333) translate(167.203857421875 42.418212890625)"/><use xlink:href="#L" transform="matrix(1,0,0,1,1153.3333333333333,813.3333333333333) translate(213.683349609375 42.418212890625)"/><use xlink:href="#d" transform="matrix(1,0,0,1,1153.3333333333333,813.3333333333333) translate(255.923095703125 42.418212890625)"/><use xlink:href="#M" transform="matrix(1,0,0,1,1153.3333333333333,813.3333333333333) translate(19.508544921875 59.998779296875)"/><use xlink:href="#y" transform="matrix(1,0,0,1,1153.3333333333333,813.3333333333333) translate(149.437744140625 59.998779296875)"/><use xlink:href="#f" transform="matrix(1,0,0,1,1153.3333333333333,813.3333333333333) translate(169.504638671875 59.998779296875)"/><use xlink:href="#G" transform="matrix(1,0,0,1,1153.3333333333333,813.3333333333333) translate(185.350341796875 59.998779296875)"/><use xlink:href="#d" transform="matrix(1,0,0,1,1153.3333333333333,813.3333333333333) translate(268.790771484375 59.998779296875)"/><use xlink:href="#B" transform="matrix(1,0,0,1,1153.3333333333333,813.3333333333333) translate(76.044677734375 77.579345703125)"/><use xlink:href="#f" transform="matrix(1,0,0,1,1153.3333333333333,813.3333333333333) translate(121.438720703125 77.579345703125)"/><use xlink:href="#k" transform="matrix(1,0,0,1,1153.3333333333333,813.3333333333333) translate(137.284423828125 77.579345703125)"/><use xlink:href="#N" transform="matrix(1,0,0,1,1153.3333333333333,813.3333333333333) translate(181.639404296875 77.579345703125)"/><path d="M1314.8 625.2v166.5h-2.94V628.15h-46.14v-2.95zm-71.58 0v2.94h-26.98v-2.95z" stroke="#630" stroke-width=".05" fill="#630"/><path d="M1216.28 625.2v2.94h-3l1.46-1.48-1.47-1.47z" fill="#630"/><path stroke="#630" stroke-width=".05" fill="#630"/><path d="M1313.33 807.48l-4.63-14.27h9.27z" fill="#630"/><path d="M1313.33 812.25l-6.66-20.5H1320zm-2.6-17.56l2.6 8 2.6-8z" stroke="#630" stroke-width=".05" fill="#630"/><g><use xlink:href="#O" transform="matrix(1,0,0,1,1243.217915884261,620.4731788931331) translate(0.005000000000000782 11.52099609375)"/></g><path d="M400 253.33L506.66 360 400 466.66 293.33 360z" stroke="#fff" stroke-width="2" fill="#f1d4af"/><g><use xlink:href="#P" transform="matrix(1,0,0,1,346.6658333333333,306.6658333333333) translate(12.842041015625 16.04736328125)"/><use xlink:href="#Q" transform="matrix(1,0,0,1,346.6658333333333,306.6658333333333) translate(32.899658203125 16.04736328125)"/><use xlink:href="#R" transform="matrix(1,0,0,1,346.6658333333333,306.6658333333333) translate(47.678466796875 16.04736328125)"/><use xlink:href="#S" transform="matrix(1,0,0,1,346.6658333333333,306.6658333333333) translate(63.524169921875 16.04736328125)"/><use xlink:href="#T" transform="matrix(1,0,0,1,346.6658333333333,306.6658333333333) translate(37.654296875 33.6279296875)"/><use xlink:href="#U" transform="matrix(1,0,0,1,346.6658333333333,306.6658333333333) translate(4.91455078125 51.20849609375)"/><use xlink:href="#V" transform="matrix(1,0,0,1,346.6658333333333,306.6658333333333) translate(40.8271484375 51.20849609375)"/><use xlink:href="#W" transform="matrix(1,0,0,1,346.6658333333333,306.6658333333333) translate(86.23974609375 51.20849609375)"/><use xlink:href="#X" transform="matrix(1,0,0,1,346.6658333333333,306.6658333333333) translate(0.693359375 68.7890625)"/><use xlink:href="#Y" transform="matrix(1,0,0,1,346.6658333333333,306.6658333333333) translate(45.0390625 68.7890625)"/><use xlink:href="#Z" transform="matrix(1,0,0,1,346.6658333333333,306.6658333333333) translate(29.7314453125 86.36962890625)"/><use xlink:href="#aa" transform="matrix(1,0,0,1,346.6658333333333,306.6658333333333) translate(50.85595703125 86.36962890625)"/><use xlink:href="#ab" transform="matrix(1,0,0,1,346.6658333333333,306.6658333333333) translate(12.828125 103.9501953125)"/><use xlink:href="#ac" transform="matrix(1,0,0,1,346.6658333333333,306.6658333333333) translate(83.60498046875 103.9501953125)"/></g><path d="M1106.66 520l106.67 106.66-106.66 106.67L1000 626.66z" stroke="#fff" stroke-width="2" fill="#f1d4af"/><g><use xlink:href="#P" transform="matrix(1,0,0,1,1053.3325,573.3325) translate(5.4619140625 33.6279296875)"/><use xlink:href="#Q" transform="matrix(1,0,0,1,1053.3325,573.3325) translate(25.51953125 33.6279296875)"/><use xlink:href="#R" transform="matrix(1,0,0,1,1053.3325,573.3325) translate(40.29833984375 33.6279296875)"/><use xlink:href="#ad" transform="matrix(1,0,0,1,1053.3325,573.3325) translate(56.14404296875 33.6279296875)"/><use xlink:href="#T" transform="matrix(1,0,0,1,1053.3325,573.3325) translate(37.654296875 51.20849609375)"/><use xlink:href="#ae" transform="matrix(1,0,0,1,1053.3325,573.3325) translate(2.275146484375 68.7890625)"/><use xlink:href="#af" transform="matrix(1,0,0,1,1053.3325,573.3325) translate(38.187744140625 68.7890625)"/><use xlink:href="#ag" transform="matrix(1,0,0,1,1053.3325,573.3325) translate(58.245361328125 68.7890625)"/><use xlink:href="#ah" transform="matrix(1,0,0,1,1053.3325,573.3325) translate(94.157958984375 68.7890625)"/><use xlink:href="#ai" transform="matrix(1,0,0,1,1053.3325,573.3325) translate(5.97216796875 86.36962890625)"/><use xlink:href="#aj" transform="matrix(1,0,0,1,1053.3325,573.3325) translate(60.89404296875 86.36962890625)"/><use xlink:href="#ac" transform="matrix(1,0,0,1,1053.3325,573.3325) translate(90.4609375 86.36962890625)"/></g><path d="M506.66 99.14c0 32.67-47.75 59.15-106.66 59.15-58.9 0-106.67-26.5-106.67-59.16S341.1 40 400 40c58.9 0 106.66 26.48 106.66 59.14z" stroke="#fff" stroke-width="2" fill="#774f38"/><g><use xlink:href="#ak" transform="matrix(1,0,0,1,313.3333333333333,40) translate(2.552978515625 66.249267578125)"/><use xlink:href="#al" transform="matrix(1,0,0,1,313.3333333333333,40) translate(87.004638671875 66.249267578125)"/></g><path d="M746.66 386.67l106.67 106.66L746.66 600 640 493.33z" stroke="#fff" stroke-width="2" fill="#f1d4af"/><g><use xlink:href="#P" transform="matrix(1,0,0,1,693.3325,439.9991666666666) translate(5.4619140625 24.837646484375)"/><use xlink:href="#Q" transform="matrix(1,0,0,1,693.3325,439.9991666666666) translate(25.51953125 24.837646484375)"/><use xlink:href="#R" transform="matrix(1,0,0,1,693.3325,439.9991666666666) translate(40.29833984375 24.837646484375)"/><use xlink:href="#ad" transform="matrix(1,0,0,1,693.3325,439.9991666666666) translate(56.14404296875 24.837646484375)"/><use xlink:href="#T" transform="matrix(1,0,0,1,693.3325,439.9991666666666) translate(37.654296875 42.418212890625)"/><use xlink:href="#ae" transform="matrix(1,0,0,1,693.3325,439.9991666666666) translate(28.154296875 59.998779296875)"/><use xlink:href="#am" transform="matrix(1,0,0,1,693.3325,439.9991666666666) translate(64.06689453125 59.998779296875)"/><use xlink:href="#an" transform="matrix(1,0,0,1,693.3325,439.9991666666666) translate(13.37548828125 77.579345703125)"/><use xlink:href="#ao" transform="matrix(1,0,0,1,693.3325,439.9991666666666) translate(78.83642578125 77.579345703125)"/><use xlink:href="#ap" transform="matrix(1,0,0,1,693.3325,439.9991666666666) translate(6.496337890625 95.159912109375)"/><use xlink:href="#aq" transform="matrix(1,0,0,1,693.3325,439.9991666666666) translate(22.342041015625 95.159912109375)"/><use xlink:href="#ac" transform="matrix(1,0,0,1,693.3325,439.9991666666666) translate(89.936767578125 95.159912109375)"/></g><path d="M813.33 1073.33c0 25.77-53.72 46.67-120 46.67-66.27 0-120-20.9-120-46.67 0-25.77 53.73-46.66 120-46.66 66.28 0 120 20.9 120 46.66z" stroke="#fff" stroke-width="2" fill="#774f38"/><g><use xlink:href="#ar" transform="matrix(1,0,0,1,593.3333333333333,1026.6666666666665) translate(23.995361328125 53.78173828125)"/><use xlink:href="#as" transform="matrix(1,0,0,1,593.3333333333333,1026.6666666666665) translate(108.447021484375 53.78173828125)"/></g><path d="M166.66 922.5v50.83H691.9l-.02 31.73" stroke="#630" stroke-width="3" fill="none"/><path d="M168.14 922.54h-2.95V921h2.94z" stroke="#630" stroke-width=".05" fill="#630"/><path d="M691.87 1020.83l-4.63-14.27h9.27z" stroke="#630" stroke-width="3" fill="#630"/><path d="M500 922.5v50.83h193.33v31.72" stroke="#630" stroke-width="3" fill="none"/><path d="M501.48 922.54h-2.96V921h2.96z" stroke="#630" stroke-width=".05" fill="#630"/><path d="M693.33 1020.8l-4.63-14.25h9.27z" stroke="#630" stroke-width="3" fill="#630"/><path d="M748.14 358.52v6.1h-2.95v-3.14H570.1v-2.96zm-200.52 0v2.95h-38.04v-2.95z" stroke="#630" stroke-width=".05" fill="#630"/><path d="M509.62 358.52v2.95h-3.02l1.48-1.47-1.48-1.48z" fill="#630"/><path stroke="#630" stroke-width=".05" fill="#630"/><path d="M751.3 366.13l-4.63 14.27-4.64-14.27z" fill="#630"/><path d="M753.33 364.66l-6.67 20.5-6.66-20.5zm-6.66 10.96l2.6-8h-5.2z" stroke="#630" stroke-width=".05" fill="#630"/><g><use xlink:href="#O" transform="matrix(1,0,0,1,547.617576382856,353.80606117396826) translate(0 11.52099609375)"/></g><path d="M1108.14 491.86v6.1h-2.95v-3.15H923.84v-2.94zm-206.8 0v2.95h-45.1v-2.94z" stroke="#630" stroke-width=".05" fill="#630"/><path d="M856.28 491.86v2.95h-3l1.46-1.47-1.47-1.47z" fill="#630"/><path stroke="#630" stroke-width=".05" fill="#630"/><path d="M1111.3 499.47l-4.63 14.26-4.64-14.27z" fill="#630"/><path d="M1113.33 498l-6.66 20.5L1100 498zm-6.66 10.96l2.6-8.02h-5.2z" stroke="#630" stroke-width=".05" fill="#630"/><g><use xlink:href="#O" transform="matrix(1,0,0,1,901.3514557684774,487.1393459303421) translate(0 11.52099609375)"/></g><path d="M946.44 628.14h-38.3V791.7h-2.95V625.2h41.24zm50.65 0h-20.65v-2.95h20.64z" stroke="#630" stroke-width=".05" fill="#630"/><path d="M998.6 626.66l1.46 1.48h-3v-2.95h3z" fill="#630"/><path stroke="#630" stroke-width=".05" fill="#630"/><path d="M911.3 793.2l-4.63 14.28-4.64-14.27z" fill="#630"/><path d="M913.33 791.74l-6.66 20.5-6.67-20.5zm-6.66 10.97l2.6-8h-5.2z" stroke="#630" stroke-width=".05" fill="#630"/><g><use xlink:href="#at" transform="matrix(1,0,0,1,946.438994633905,620.4731811399542) translate(0 11.52099609375)"/></g><path d="M234.07 361.47h-65.93V791.7h-2.95V358.53h68.87zm56.35 0h-26.34v-2.95h26.34z" stroke="#630" stroke-width=".05" fill="#630"/><path d="M291.92 360l1.47 1.47h-3.02v-2.95h3z" fill="#630"/><path stroke="#630" stroke-width=".05" fill="#630"/><path d="M171.3 793.2l-4.64 14.28-4.63-14.27z" fill="#630"/><path d="M173.33 791.74l-6.67 20.5-6.66-20.5zm-6.67 10.97l2.6-8h-5.2z" stroke="#630" stroke-width=".05" fill="#630"/><g><use xlink:href="#at" transform="matrix(1,0,0,1,234.06967745314913,353.80627645862535) translate(0 11.52099609375)"/></g><path d="M575.5 494.8h-74.02v296.9h-2.96V491.87h76.97zm61.6 0h-31.6v-2.94h31.6z" stroke="#630" stroke-width=".05" fill="#630"/><path d="M638.6 493.33l1.46 1.48h-3v-2.94h3z" fill="#630"/><path stroke="#630" stroke-width=".05" fill="#630"/><path d="M500 807.48l-4.63-14.27h9.26z" fill="#630"/><path d="M500 812.25l-6.67-20.5h13.34zm-2.6-17.56l2.6 8 2.6-8z" stroke="#630" stroke-width=".05" fill="#630"/><g><use xlink:href="#at" transform="matrix(1,0,0,1,575.4871520348207,487.1395023998572) translate(0 11.52099609375)"/></g><path d="M400 160.8v70.5" stroke="#630" stroke-width="3" fill="none"/><path d="M400 159.3l1.47-.03v1.56h-2.95v-1.57z" stroke="#630" stroke-width=".05" fill="#630"/><path d="M400 247.06l-4.64-14.26h9.27z" stroke="#630" stroke-width="3" fill="#630"/><defs><path fill="#600" d="M761-1409c296-3 496 141 497 424 1 274-202 436-485 436H359V0H168v-1409h593zm305 426c0-182-109-273-328-273H359v556h387c213 0 320-94 320-283" id="au"/><path fill="#600" d="M797-207C713-60 620 16 414 20 203 24 88-98 87-302c0-112 37-198 111-258s192-93 356-96l243-4c10-201-43-307-232-305-154 2-223 43-242 172l-188-17c31-195 175-292 434-292s410 116 410 364v466c3 95 12 159 101 161 17 0 37-2 59-7V-6c-45 11-92 16-139 16-143-2-188-76-197-217h-6zm-525-92c-1 116 66 187 183 184 230-7 361-164 342-419-124 5-305-2-389 30-83 32-136 92-136 205" id="av"/><path fill="#600" d="M779-765c-19-119-93-196-233-196-95 0-164 32-207 95s-64 170-64 320c0 144 23 251 68 320s114 104 205 104c139 0 224-79 240-212l182 12C946-119 781 22 553 20 230 17 87-201 87-542c0-338 145-557 464-560 225-1 380 129 413 323" id="aw"/><path fill="#600" d="M816 0L450-494 318-385V0H138v-1484h180v927l475-525h211L565-617 1027 0H816" id="ax"/><path fill="#600" d="M824-897c-1-17 6-175 12-185h171c-12 319-6 716-6 1051 0 304-151 456-453 456-226 0-374-90-417-267l181-26c24 102 112 157 241 156 179 0 269-105 269-315 0-57 3-120-2-174C759-74 647 8 472 8 339 8 242-36 180-124S86-350 86-539c0-191 33-332 100-423s169-137 306-137c167 0 273 85 332 202zm-38 579c48-119 46-331 0-450-42-108-118-197-250-197-92 0-154 37-201 100-78 107-74 530-4 643 63 101 251 129 353 47 43-35 77-81 102-143" id="ay"/><path fill="#600" d="M87-548c0-338 159-553 484-554 325-2 484 204 477 599H276c-1 227 88 385 302 388 146 2 246-65 283-166l158 45C954-65 807 20 578 20 240 20 87-193 87-548zm775-93c-19-206-90-328-294-328-185 0-285 140-290 328h584" id="az"/><g id="a"><use transform="matrix(0.00927734375,0,0,0.00927734375,0,0)" xlink:href="#au"/><use transform="matrix(0.00927734375,0,0,0.00927734375,12.6728515625,0)" xlink:href="#av"/><use transform="matrix(0.00927734375,0,0,0.00927734375,23.23974609375,0)" xlink:href="#aw"/><use transform="matrix(0.00927734375,0,0,0.00927734375,32.73974609375,0)" xlink:href="#ax"/><use transform="matrix(0.00927734375,0,0,0.00927734375,42.23974609375,0)" xlink:href="#av"/><use transform="matrix(0.00927734375,0,0,0.00927734375,52.806640625,0)" xlink:href="#ay"/><use transform="matrix(0.00927734375,0,0,0.00927734375,63.37353515625,0)" xlink:href="#az"/></g><path fill="#600" d="M137-1312v-172h180v172H137zM137 0v-1082h180V0H137" id="aA"/><path fill="#600" d="M663-1102c251 0 343 119 343 381V0H825v-686c0-183-40-279-223-277-184 2-280 141-280 336V0H142c-3-345 6-754-6-1082h170c5 68 6 94 8 185h3c76-134 157-205 346-205" id="aB"/><g id="b"><use transform="matrix(0.00927734375,0,0,0.00927734375,0,0)" xlink:href="#aA"/><use transform="matrix(0.00927734375,0,0,0.00927734375,4.22119140625,0)" xlink:href="#aB"/></g><path fill="#600" d="M1207-1021c-59-155-207-253-415-253-322-2-494 232-494 563 0 326 186 574 502 574 197 0 346-98 445-293l156 78C1298-131 1096 20 791 20c-448 0-682-279-687-731-5-437 254-721 686-719 309 2 507 125 598 349" id="aC"/><path fill="#600" d="M571-1102c350 0 480 196 482 560 2 357-151 562-488 562C233 20 86-198 86-542c0-373 162-560 485-560zm-8 989c244 0 301-164 301-429 0-266-49-427-290-427-239 0-299 165-299 427 0 252 61 429 288 429" id="aD"/><path fill="#600" d="M835 0c-5-29-11-137-10-174h-4C759-45 663 20 484 20 177 20 86-201 86-536c0-377 133-566 398-566 178 1 273 67 339 188-4-187-1-380-2-570h180v1261c0 113 2 187 6 223H835zm-14-554c0-255-58-415-289-415-91 0-151 37-196 101-76 109-77 543-1 651 44 63 105 98 195 98 235 0 291-173 291-435" id="aE"/><path fill="#600" d="M0 20l411-1504h158L162 20H0" id="aF"/><path fill="#600" d="M634-1409c461-4 751 239 747 690-4 441-249 719-686 719H168v-1409h466zm39 1256c337-8 514-222 516-566 2-353-203-539-559-537H359v1103h314" id="aG"/><path fill="#600" d="M318-861c55-157 83-241 257-241 24 0 48 3 73 10v165c-24-7-56-10-96-10-75 0-132 33-171 97s-59 156-59 276V0H142c-3-364 6-725-6-1082h170c5 123 8 196 8 221h4" id="aH"/><g id="c"><use transform="matrix(0.00927734375,0,0,0.00927734375,0,0)" xlink:href="#aC"/><use transform="matrix(0.00927734375,0,0,0.00927734375,13.72119140625,0)" xlink:href="#aD"/><use transform="matrix(0.00927734375,0,0,0.00927734375,24.2880859375,0)" xlink:href="#aB"/><use transform="matrix(0.00927734375,0,0,0.00927734375,34.85498046875,0)" xlink:href="#aE"/><use transform="matrix(0.00927734375,0,0,0.00927734375,45.421875,0)" xlink:href="#av"/><use transform="matrix(0.00927734375,0,0,0.00927734375,55.98876953125,0)" xlink:href="#aF"/><use transform="matrix(0.00927734375,0,0,0.00927734375,61.267578125,0)" xlink:href="#aG"/><use transform="matrix(0.00927734375,0,0,0.00927734375,74.98876953125,0)" xlink:href="#aD"/><use transform="matrix(0.00927734375,0,0,0.00927734375,85.5556640625,0)" xlink:href="#aw"/><use transform="matrix(0.00927734375,0,0,0.00927734375,95.0556640625,0)" xlink:href="#ax"/><use transform="matrix(0.00927734375,0,0,0.00927734375,104.5556640625,0)" xlink:href="#az"/><use transform="matrix(0.00927734375,0,0,0.00927734375,115.12255859375,0)" xlink:href="#aH"/></g><g id="d"><use transform="matrix(0.00927734375,0,0,0.00927734375,0,0)" xlink:href="#av"/><use transform="matrix(0.00927734375,0,0,0.00927734375,10.56689453125,0)" xlink:href="#aB"/><use transform="matrix(0.00927734375,0,0,0.00927734375,21.1337890625,0)" xlink:href="#aE"/></g><path fill="#600" d="M513-963c-139 1-238 29-238 149 0 72 41 100 95 127 55 27 348 94 404 125 101 56 176 118 176 263C950-73 758 21 511 20 254 19 107-55 57-254l159-31c34 123 133 168 295 168 156 0 264-34 264-168 0-156-183-165-315-204-171-51-245-68-323-172-26-35-37-82-37-135 0-220 172-304 413-303 232 1 379 74 418 265l-162 20c-23-104-122-150-256-149" id="aI"/><path fill="#600" d="M476 20C225 20 133-99 133-361v-721h181v686c0 183 40 279 223 277 184-2 280-141 280-336v-627h180c3 345-6 754 6 1082H833c-5-68-6-94-8-185h-3C746-51 665 20 476 20" id="aJ"/><path fill="#600" d="M655-1102c307 0 398 221 398 556 0 377-133 566-398 566-180 0-272-66-339-188 1 22-7 151-10 168H132c4-36 6-110 6-223v-1261h180c-2 196 4 384-4 576h4c62-129 158-194 337-194zM318-529c0 254 57 416 289 416 91 0 152-37 197-101 76-109 76-543 0-651-44-63-105-98-195-98-236 0-291 169-291 434" id="aK"/><path fill="#600" d="M1195-963c-175 0-249 144-249 336V0H768v-686c-5-190-26-277-198-277-171 0-249 147-249 336V0H142c-3-345 6-754-6-1082h170c5 68 6 94 8 185h3c69-134 140-205 316-205 171 0 257 66 294 205h3c67-129 152-205 328-205 238 0 313 127 313 381V0h-178v-686c-5-190-26-277-198-277" id="aL"/><path fill="#600" d="M336-268c2 98 22 139 114 141 24 0 59-5 104-14V-8C495 8 434 16 372 16c-144 0-216-82-216-245v-722H31v-131h132l53-242h120v242h200v131H336v683" id="aM"/><g id="e"><use transform="matrix(0.00927734375,0,0,0.00927734375,0,0)" xlink:href="#aI"/><use transform="matrix(0.00927734375,0,0,0.00927734375,9.5,0)" xlink:href="#aJ"/><use transform="matrix(0.00927734375,0,0,0.00927734375,20.06689453125,0)" xlink:href="#aK"/><use transform="matrix(0.00927734375,0,0,0.00927734375,30.6337890625,0)" xlink:href="#aL"/><use transform="matrix(0.00927734375,0,0,0.00927734375,46.4609375,0)" xlink:href="#aA"/><use transform="matrix(0.00927734375,0,0,0.00927734375,50.68212890625,0)" xlink:href="#aM"/></g><use transform="matrix(0.00927734375,0,0,0.00927734375,0,0)" xlink:href="#av" id="f"/><path fill="#600" d="M138 0v-1484h180V0H138" id="aN"/><g id="g"><use transform="matrix(0.00927734375,0,0,0.00927734375,0,0)" xlink:href="#aL"/><use transform="matrix(0.00927734375,0,0,0.00927734375,15.8271484375,0)" xlink:href="#aD"/><use transform="matrix(0.00927734375,0,0,0.00927734375,26.39404296875,0)" xlink:href="#aE"/><use transform="matrix(0.00927734375,0,0,0.00927734375,36.9609375,0)" xlink:href="#aJ"/><use transform="matrix(0.00927734375,0,0,0.00927734375,47.52783203125,0)" xlink:href="#aN"/><use transform="matrix(0.00927734375,0,0,0.00927734375,51.7490234375,0)" xlink:href="#az"/></g><g id="h"><use transform="matrix(0.00927734375,0,0,0.00927734375,0,0)" xlink:href="#aM"/><use transform="matrix(0.00927734375,0,0,0.00927734375,5.27880859375,0)" xlink:href="#aD"/></g><path fill="#600" d="M492-1341c-103 3-130 49-131 162v97h211v131H361V0H181v-951H29v-131h152v-122c0-192 78-276 264-278 50 0 92 4 127 12v137c-30-5-57-8-80-8" id="aO"/><path fill="#600" d="M91-464v-160h500v160H91" id="aP"/><g id="i"><use transform="matrix(0.00927734375,0,0,0.00927734375,0,0)" xlink:href="#aB"/><use transform="matrix(0.00927734375,0,0,0.00927734375,10.56689453125,0)" xlink:href="#aO"/><use transform="matrix(0.00927734375,0,0,0.00927734375,15.845703125,0)" xlink:href="#aP"/><use transform="matrix(0.00927734375,0,0,0.00927734375,22.1728515625,0)" xlink:href="#aw"/><use transform="matrix(0.00927734375,0,0,0.00927734375,31.6728515625,0)" xlink:href="#aD"/><use transform="matrix(0.00927734375,0,0,0.00927734375,42.23974609375,0)" xlink:href="#aH"/><use transform="matrix(0.00927734375,0,0,0.00927734375,48.56689453125,0)" xlink:href="#az"/></g><path fill="#600" d="M544-168c91-408 108-428 333-1241h183c108 399 243 834 333 1241 89-385 93-366 334-1241h199L1511 0h-228c-108-419-218-753-314-1196C893-847 877-832 652 0H424L9-1409h199C320-995 449-600 544-168" id="aQ"/><g id="j"><use transform="matrix(0.00927734375,0,0,0.00927734375,0,0)" xlink:href="#aQ"/><use transform="matrix(0.00927734375,0,0,0.00927734375,17.58984375,0)" xlink:href="#aH"/><use transform="matrix(0.00927734375,0,0,0.00927734375,23.9169921875,0)" xlink:href="#aA"/><use transform="matrix(0.00927734375,0,0,0.00927734375,28.13818359375,0)" xlink:href="#aM"/><use transform="matrix(0.00927734375,0,0,0.00927734375,33.4169921875,0)" xlink:href="#az"/></g><g id="k"><use transform="matrix(0.00927734375,0,0,0.00927734375,0,0)" xlink:href="#aN"/><use transform="matrix(0.00927734375,0,0,0.00927734375,4.22119140625,0)" xlink:href="#aD"/><use transform="matrix(0.00927734375,0,0,0.00927734375,14.7880859375,0)" xlink:href="#aw"/><use transform="matrix(0.00927734375,0,0,0.00927734375,24.2880859375,0)" xlink:href="#av"/><use transform="matrix(0.00927734375,0,0,0.00927734375,34.85498046875,0)" xlink:href="#aN"/></g><g id="l"><use transform="matrix(0.00927734375,0,0,0.00927734375,0,0)" xlink:href="#aL"/><use transform="matrix(0.00927734375,0,0,0.00927734375,15.8271484375,0)" xlink:href="#aD"/><use transform="matrix(0.00927734375,0,0,0.00927734375,26.39404296875,0)" xlink:href="#aE"/><use transform="matrix(0.00927734375,0,0,0.00927734375,36.9609375,0)" xlink:href="#aJ"/><use transform="matrix(0.00927734375,0,0,0.00927734375,47.52783203125,0)" xlink:href="#aN"/><use transform="matrix(0.00927734375,0,0,0.00927734375,51.7490234375,0)" xlink:href="#az"/></g><path fill="#600" d="M322-1484c-2 195 6 405-8 587h3c73-129 159-205 346-205 250 0 342 118 343 381V0H825v-686c3-190-43-277-223-277-176-1-280 140-280 325V0H142v-1484h180" id="aR"/><g id="m"><use transform="matrix(0.00927734375,0,0,0.00927734375,0,0)" xlink:href="#aM"/><use transform="matrix(0.00927734375,0,0,0.00927734375,5.27880859375,0)" xlink:href="#aR"/><use transform="matrix(0.00927734375,0,0,0.00927734375,15.845703125,0)" xlink:href="#av"/><use transform="matrix(0.00927734375,0,0,0.00927734375,26.41259765625,0)" xlink:href="#aM"/></g><g id="n"><use transform="matrix(0.00927734375,0,0,0.00927734375,0,0)" xlink:href="#aw"/><use transform="matrix(0.00927734375,0,0,0.00927734375,9.5,0)" xlink:href="#aD"/><use transform="matrix(0.00927734375,0,0,0.00927734375,20.06689453125,0)" xlink:href="#aB"/><use transform="matrix(0.00927734375,0,0,0.00927734375,30.6337890625,0)" xlink:href="#aM"/><use transform="matrix(0.00927734375,0,0,0.00927734375,35.91259765625,0)" xlink:href="#av"/><use transform="matrix(0.00927734375,0,0,0.00927734375,46.4794921875,0)" xlink:href="#aA"/><use transform="matrix(0.00927734375,0,0,0.00927734375,50.70068359375,0)" xlink:href="#aB"/><use transform="matrix(0.00927734375,0,0,0.00927734375,61.267578125,0)" xlink:href="#aI"/></g><g id="o"><use transform="matrix(0.00927734375,0,0,0.00927734375,0,0)" xlink:href="#aM"/><use transform="matrix(0.00927734375,0,0,0.00927734375,5.27880859375,0)" xlink:href="#aR"/><use transform="matrix(0.00927734375,0,0,0.00927734375,15.845703125,0)" xlink:href="#az"/></g><path fill="#600" d="M320-908c63-128 152-193 335-193 133 0 233 45 299 134s99 230 99 421c0 377-133 566-398 566-167 0-279-63-336-188h-5c8 141 2 428 4 593H138V-861c0-111-2-185-6-221h174c5 33 9 134 10 174h4zm-2 380c0 254 57 415 289 415 89 0 149-37 195-99 76-105 79-547 1-653-45-62-105-97-194-97-243 1-291 184-291 434" id="aS"/><g id="p"><use transform="matrix(0.00927734375,0,0,0.00927734375,0,0)" xlink:href="#aI"/><use transform="matrix(0.00927734375,0,0,0.00927734375,9.5,0)" xlink:href="#aw"/><use transform="matrix(0.00927734375,0,0,0.00927734375,19,0)" xlink:href="#aH"/><use transform="matrix(0.00927734375,0,0,0.00927734375,25.3271484375,0)" xlink:href="#aA"/><use transform="matrix(0.00927734375,0,0,0.00927734375,29.54833984375,0)" xlink:href="#aS"/><use transform="matrix(0.00927734375,0,0,0.00927734375,40.115234375,0)" xlink:href="#aM"/></g><g id="q"><use transform="matrix(0.00927734375,0,0,0.00927734375,0,0)" xlink:href="#av"/><use transform="matrix(0.00927734375,0,0,0.00927734375,10.56689453125,0)" xlink:href="#aB"/><use transform="matrix(0.00927734375,0,0,0.00927734375,21.1337890625,0)" xlink:href="#aE"/></g><g id="r"><use transform="matrix(0.00927734375,0,0,0.00927734375,0,0)" xlink:href="#aJ"/><use transform="matrix(0.00927734375,0,0,0.00927734375,10.56689453125,0)" xlink:href="#aI"/><use transform="matrix(0.00927734375,0,0,0.00927734375,20.06689453125,0)" xlink:href="#az"/><use transform="matrix(0.00927734375,0,0,0.00927734375,30.6337890625,0)" xlink:href="#aI"/></g><g id="s"><use transform="matrix(0.00927734375,0,0,0.00927734375,0,0)" xlink:href="#aw"/><use transform="matrix(0.00927734375,0,0,0.00927734375,9.5,0)" xlink:href="#aD"/><use transform="matrix(0.00927734375,0,0,0.00927734375,20.06689453125,0)" xlink:href="#aB"/><use transform="matrix(0.00927734375,0,0,0.00927734375,30.6337890625,0)" xlink:href="#aM"/><use transform="matrix(0.00927734375,0,0,0.00927734375,35.91259765625,0)" xlink:href="#av"/><use transform="matrix(0.00927734375,0,0,0.00927734375,46.4794921875,0)" xlink:href="#aA"/><use transform="matrix(0.00927734375,0,0,0.00927734375,50.70068359375,0)" xlink:href="#aB"/><use transform="matrix(0.00927734375,0,0,0.00927734375,61.267578125,0)" xlink:href="#az"/><use transform="matrix(0.00927734375,0,0,0.00927734375,71.83447265625,0)" xlink:href="#aH"/></g><g id="t"><use transform="matrix(0.00927734375,0,0,0.00927734375,0,0)" xlink:href="#aO"/><use transform="matrix(0.00927734375,0,0,0.00927734375,5.27880859375,0)" xlink:href="#aD"/><use transform="matrix(0.00927734375,0,0,0.00927734375,15.845703125,0)" xlink:href="#aH"/></g><g id="u"><use transform="matrix(0.00927734375,0,0,0.00927734375,0,0)" xlink:href="#aA"/><use transform="matrix(0.00927734375,0,0,0.00927734375,4.22119140625,0)" xlink:href="#aM"/><use transform="matrix(0.00927734375,0,0,0.00927734375,9.5,0)" xlink:href="#aI"/></g><g id="v"><use transform="matrix(0.00927734375,0,0,0.00927734375,0,0)" xlink:href="#aE"/><use transform="matrix(0.00927734375,0,0,0.00927734375,10.56689453125,0)" xlink:href="#az"/><use transform="matrix(0.00927734375,0,0,0.00927734375,21.1337890625,0)" xlink:href="#aS"/><use transform="matrix(0.00927734375,0,0,0.00927734375,31.70068359375,0)" xlink:href="#az"/><use transform="matrix(0.00927734375,0,0,0.00927734375,42.267578125,0)" xlink:href="#aB"/><use transform="matrix(0.00927734375,0,0,0.00927734375,52.83447265625,0)" xlink:href="#aE"/><use transform="matrix(0.00927734375,0,0,0.00927734375,63.4013671875,0)" xlink:href="#az"/><use transform="matrix(0.00927734375,0,0,0.00927734375,73.96826171875,0)" xlink:href="#aB"/><use transform="matrix(0.00927734375,0,0,0.00927734375,84.53515625,0)" xlink:href="#aw"/><use transform="matrix(0.00927734375,0,0,0.00927734375,94.03515625,0)" xlink:href="#aA"/><use transform="matrix(0.00927734375,0,0,0.00927734375,98.25634765625,0)" xlink:href="#az"/><use transform="matrix(0.00927734375,0,0,0.00927734375,108.8232421875,0)" xlink:href="#aI"/></g><path fill="#600" d="M692-1286c-195 0-347 51-347 223 0 101 58 144 134 179 135 62 487 105 623 191 97 62 170 147 170 304 0 130-50 231-152 302S875 20 690 20C347 20 148-99 93-338l185-37c46 178 190 245 419 246 213 0 386-61 386-250 0-223-244-222-431-271-182-48-288-69-390-156-64-54-103-133-103-247 0-121 47-214 139-279s224-98 396-98c318 0 471 80 545 324l-188 33c-44-155-158-213-359-213" id="aT"/><g id="w"><use transform="matrix(0.00927734375,0,0,0.00927734375,0,0)" xlink:href="#aT"/><use transform="matrix(0.00927734375,0,0,0.00927734375,12.6728515625,0)" xlink:href="#aR"/><use transform="matrix(0.00927734375,0,0,0.00927734375,23.23974609375,0)" xlink:href="#aA"/><use transform="matrix(0.00927734375,0,0,0.00927734375,27.4609375,0)" xlink:href="#aS"/></g><g id="x"><use transform="matrix(0.00927734375,0,0,0.00927734375,0,0)" xlink:href="#aM"/><use transform="matrix(0.00927734375,0,0,0.00927734375,5.27880859375,0)" xlink:href="#aR"/><use transform="matrix(0.00927734375,0,0,0.00927734375,15.845703125,0)" xlink:href="#az"/></g><g id="y"><use transform="matrix(0.00927734375,0,0,0.00927734375,0,0)" xlink:href="#aA"/><use transform="matrix(0.00927734375,0,0,0.00927734375,4.22119140625,0)" xlink:href="#aB"/></g><g id="z"><use transform="matrix(0.00927734375,0,0,0.00927734375,0,0)" xlink:href="#aK"/><use transform="matrix(0.00927734375,0,0,0.00927734375,10.56689453125,0)" xlink:href="#aA"/><use transform="matrix(0.00927734375,0,0,0.00927734375,14.7880859375,0)" xlink:href="#aB"/><use transform="matrix(0.00927734375,0,0,0.00927734375,25.35498046875,0)" xlink:href="#aF"/></g><path fill="#600" d="M350 384c-71 46-190 48-283 30V279c25 4 53 6 84 6 123 0 227-124 283-290L5-1082h192c109 293 229 581 326 886 105-293 205-591 307-886h190L604 0c-45 115-86 202-125 258s-83 96-129 126" id="aU"/><g id="A"><use transform="matrix(0.00927734375,0,0,0.00927734375,0,0)" xlink:href="#aE"/><use transform="matrix(0.00927734375,0,0,0.00927734375,10.56689453125,0)" xlink:href="#aA"/><use transform="matrix(0.00927734375,0,0,0.00927734375,14.7880859375,0)" xlink:href="#aH"/><use transform="matrix(0.00927734375,0,0,0.00927734375,21.115234375,0)" xlink:href="#az"/><use transform="matrix(0.00927734375,0,0,0.00927734375,31.68212890625,0)" xlink:href="#aw"/><use transform="matrix(0.00927734375,0,0,0.00927734375,41.18212890625,0)" xlink:href="#aM"/><use transform="matrix(0.00927734375,0,0,0.00927734375,46.4609375,0)" xlink:href="#aD"/><use transform="matrix(0.00927734375,0,0,0.00927734375,57.02783203125,0)" xlink:href="#aH"/><use transform="matrix(0.00927734375,0,0,0.00927734375,63.35498046875,0)" xlink:href="#aU"/></g><path fill="#600" d="M740-934C689-691 665-619 508 0H300L-3-1082h178c78 327 154 591 226 933 77-315 163-621 243-933h193c78 311 160 619 235 933 72-318 158-621 236-933h176L1174 0H965c-74-312-158-615-225-934" id="aV"/><g id="B"><use transform="matrix(0.00927734375,0,0,0.00927734375,0,0)" xlink:href="#aV"/><use transform="matrix(0.00927734375,0,0,0.00927734375,13.72119140625,0)" xlink:href="#aH"/><use transform="matrix(0.00927734375,0,0,0.00927734375,20.04833984375,0)" xlink:href="#aA"/><use transform="matrix(0.00927734375,0,0,0.00927734375,24.26953125,0)" xlink:href="#aM"/><use transform="matrix(0.00927734375,0,0,0.00927734375,29.54833984375,0)" xlink:href="#az"/></g><g id="C"><use transform="matrix(0.00927734375,0,0,0.00927734375,0,0)" xlink:href="#aw"/><use transform="matrix(0.00927734375,0,0,0.00927734375,9.5,0)" xlink:href="#av"/><use transform="matrix(0.00927734375,0,0,0.00927734375,20.06689453125,0)" xlink:href="#aN"/><use transform="matrix(0.00927734375,0,0,0.00927734375,24.2880859375,0)" xlink:href="#aN"/><use transform="matrix(0.00927734375,0,0,0.00927734375,28.50927734375,0)" xlink:href="#aI"/></g><g id="D"><use transform="matrix(0.00927734375,0,0,0.00927734375,0,0)" xlink:href="#aA"/><use transform="matrix(0.00927734375,0,0,0.00927734375,4.22119140625,0)" xlink:href="#aM"/></g><g id="E"><use transform="matrix(0.00927734375,0,0,0.00927734375,0,0)" xlink:href="#aJ"/><use transform="matrix(0.00927734375,0,0,0.00927734375,10.56689453125,0)" xlink:href="#aI"/><use transform="matrix(0.00927734375,0,0,0.00927734375,20.06689453125,0)" xlink:href="#aA"/><use transform="matrix(0.00927734375,0,0,0.00927734375,24.2880859375,0)" xlink:href="#aB"/><use transform="matrix(0.00927734375,0,0,0.00927734375,34.85498046875,0)" xlink:href="#ay"/></g><use transform="matrix(0.00927734375,0,0,0.00927734375,0,0)" xlink:href="#av" id="F"/><g id="G"><use transform="matrix(0.00927734375,0,0,0.00927734375,0,0)" xlink:href="#aw"/><use transform="matrix(0.00927734375,0,0,0.00927734375,9.5,0)" xlink:href="#aD"/><use transform="matrix(0.00927734375,0,0,0.00927734375,20.06689453125,0)" xlink:href="#aB"/><use transform="matrix(0.00927734375,0,0,0.00927734375,30.6337890625,0)" xlink:href="#aM"/><use transform="matrix(0.00927734375,0,0,0.00927734375,35.91259765625,0)" xlink:href="#av"/><use transform="matrix(0.00927734375,0,0,0.00927734375,46.4794921875,0)" xlink:href="#aA"/><use transform="matrix(0.00927734375,0,0,0.00927734375,50.70068359375,0)" xlink:href="#aB"/><use transform="matrix(0.00927734375,0,0,0.00927734375,61.267578125,0)" xlink:href="#az"/><use transform="matrix(0.00927734375,0,0,0.00927734375,71.83447265625,0)" xlink:href="#aH"/></g><g id="H"><use transform="matrix(0.00927734375,0,0,0.00927734375,0,0)" xlink:href="#aO"/><use transform="matrix(0.00927734375,0,0,0.00927734375,5.27880859375,0)" xlink:href="#aD"/><use transform="matrix(0.00927734375,0,0,0.00927734375,15.845703125,0)" xlink:href="#aH"/></g><g id="I"><use transform="matrix(0.00927734375,0,0,0.00927734375,0,0)" xlink:href="#aQ"/><use transform="matrix(0.00927734375,0,0,0.00927734375,17.58984375,0)" xlink:href="#aH"/><use transform="matrix(0.00927734375,0,0,0.00927734375,23.9169921875,0)" xlink:href="#av"/><use transform="matrix(0.00927734375,0,0,0.00927734375,34.48388671875,0)" xlink:href="#aS"/></g><g id="J"><use transform="matrix(0.00927734375,0,0,0.00927734375,0,0)" xlink:href="#az"/><use transform="matrix(0.00927734375,0,0,0.00927734375,10.56689453125,0)" xlink:href="#aB"/><use transform="matrix(0.00927734375,0,0,0.00927734375,21.1337890625,0)" xlink:href="#aM"/><use transform="matrix(0.00927734375,0,0,0.00927734375,26.41259765625,0)" xlink:href="#aA"/><use transform="matrix(0.00927734375,0,0,0.00927734375,30.6337890625,0)" xlink:href="#aH"/><use transform="matrix(0.00927734375,0,0,0.00927734375,36.9609375,0)" xlink:href="#az"/></g><g id="K"><use transform="matrix(0.00927734375,0,0,0.00927734375,0,0)" xlink:href="#aM"/><use transform="matrix(0.00927734375,0,0,0.00927734375,5.27880859375,0)" xlink:href="#aR"/><use transform="matrix(0.00927734375,0,0,0.00927734375,15.845703125,0)" xlink:href="#aA"/><use transform="matrix(0.00927734375,0,0,0.00927734375,20.06689453125,0)" xlink:href="#aB"/><use transform="matrix(0.00927734375,0,0,0.00927734375,30.6337890625,0)" xlink:href="#ay"/></g><path fill="#600" d="M496 424C268 175 127-92 127-532c0-438 143-704 369-952h174c-222 249-362 524-362 954 0 431 138 703 362 954H496" id="aW"/><g id="L"><use transform="matrix(0.00927734375,0,0,0.00927734375,0,0)" xlink:href="#aW"/><use transform="matrix(0.00927734375,0,0,0.00927734375,6.3271484375,0)" xlink:href="#aM"/><use transform="matrix(0.00927734375,0,0,0.00927734375,11.60595703125,0)" xlink:href="#aD"/><use transform="matrix(0.00927734375,0,0,0.00927734375,22.1728515625,0)" xlink:href="#aD"/><use transform="matrix(0.00927734375,0,0,0.00927734375,32.73974609375,0)" xlink:href="#aN"/></g><path fill="#600" d="M186-1484c228 249 369 516 369 956 0 438-143 704-369 952H12C235 172 374-97 374-530c0-431-140-704-362-954h174" id="aX"/><g id="M"><use transform="matrix(0.00927734375,0,0,0.00927734375,0,0)" xlink:href="#aE"/><use transform="matrix(0.00927734375,0,0,0.00927734375,10.56689453125,0)" xlink:href="#az"/><use transform="matrix(0.00927734375,0,0,0.00927734375,21.1337890625,0)" xlink:href="#aS"/><use transform="matrix(0.00927734375,0,0,0.00927734375,31.70068359375,0)" xlink:href="#az"/><use transform="matrix(0.00927734375,0,0,0.00927734375,42.267578125,0)" xlink:href="#aB"/><use transform="matrix(0.00927734375,0,0,0.00927734375,52.83447265625,0)" xlink:href="#aE"/><use transform="matrix(0.00927734375,0,0,0.00927734375,63.4013671875,0)" xlink:href="#az"/><use transform="matrix(0.00927734375,0,0,0.00927734375,73.96826171875,0)" xlink:href="#aB"/><use transform="matrix(0.00927734375,0,0,0.00927734375,84.53515625,0)" xlink:href="#aw"/><use transform="matrix(0.00927734375,0,0,0.00927734375,94.03515625,0)" xlink:href="#aA"/><use transform="matrix(0.00927734375,0,0,0.00927734375,98.25634765625,0)" xlink:href="#az"/><use transform="matrix(0.00927734375,0,0,0.00927734375,108.8232421875,0)" xlink:href="#aI"/><use transform="matrix(0.00927734375,0,0,0.00927734375,118.3232421875,0)" xlink:href="#aX"/></g><g id="N"><use transform="matrix(0.00927734375,0,0,0.00927734375,0,0)" xlink:href="#aL"/><use transform="matrix(0.00927734375,0,0,0.00927734375,15.8271484375,0)" xlink:href="#aD"/><use transform="matrix(0.00927734375,0,0,0.00927734375,26.39404296875,0)" xlink:href="#aE"/><use transform="matrix(0.00927734375,0,0,0.00927734375,36.9609375,0)" xlink:href="#aJ"/><use transform="matrix(0.00927734375,0,0,0.00927734375,47.52783203125,0)" xlink:href="#aN"/><use transform="matrix(0.00927734375,0,0,0.00927734375,51.7490234375,0)" xlink:href="#az"/></g><path fill="#630" d="M995 0L381-1085c12 105 18 190 18 254V0H137v-1409h337l623 1094c-12-101-18-192-18-275v-819h262V0H995" id="aY"/><path fill="#630" d="M795-1430c442 0 718 278 712 719-6 453-261 725-714 731C351 26 84-267 84-711c0-446 267-719 711-719zm-2 1218c281 0 413-203 413-499 0-284-138-487-411-487-277 0-414 199-414 487 0 285 142 499 412 499" id="aZ"/><g id="O"><use transform="matrix(0.00732421875,0,0,0.00732421875,0,0)" xlink:href="#aY"/><use transform="matrix(0.00732421875,0,0,0.00732421875,10.83251953125,0)" xlink:href="#aZ"/></g><path fill="#630" d="M189 0v-1409h191V0H189" id="ba"/><path fill="#630" d="M513-963c-139 1-238 29-238 149 0 72 41 100 95 127 55 27 348 94 404 125 101 56 176 118 176 263C950-73 758 21 511 20 254 19 107-55 57-254l159-31c34 123 133 168 295 168 156 0 264-34 264-168 0-156-183-165-315-204-171-51-245-68-323-172-26-35-37-82-37-135 0-220 172-304 413-303 232 1 379 74 418 265l-162 20c-23-104-122-150-256-149" id="bb"/><g id="P"><use transform="matrix(0.00927734375,0,0,0.00927734375,0,0)" xlink:href="#ba"/><use transform="matrix(0.00927734375,0,0,0.00927734375,5.27880859375,0)" xlink:href="#bb"/></g><path fill="#630" d="M137-1312v-172h180v172H137zM137 0v-1082h180V0H137" id="bc"/><path fill="#630" d="M336-268c2 98 22 139 114 141 24 0 59-5 104-14V-8C495 8 434 16 372 16c-144 0-216-82-216-245v-722H31v-131h132l53-242h120v242h200v131H336v683" id="bd"/><g id="Q"><use transform="matrix(0.00927734375,0,0,0.00927734375,0,0)" xlink:href="#bc"/><use transform="matrix(0.00927734375,0,0,0.00927734375,4.22119140625,0)" xlink:href="#bd"/></g><path fill="#630" d="M797-207C713-60 620 16 414 20 203 24 88-98 87-302c0-112 37-198 111-258s192-93 356-96l243-4c10-201-43-307-232-305-154 2-223 43-242 172l-188-17c31-195 175-292 434-292s410 116 410 364v466c3 95 12 159 101 161 17 0 37-2 59-7V-6c-45 11-92 16-139 16-143-2-188-76-197-217h-6zm-525-92c-1 116 66 187 183 184 230-7 361-164 342-419-124 5-305-2-389 30-83 32-136 92-136 205" id="be"/><use transform="matrix(0.00927734375,0,0,0.00927734375,0,0)" xlink:href="#be" id="R"/><path fill="#630" d="M571-1102c350 0 480 196 482 560 2 357-151 562-488 562C233 20 86-198 86-542c0-373 162-560 485-560zm-8 989c244 0 301-164 301-429 0-266-49-427-290-427-239 0-299 165-299 427 0 252 61 429 288 429" id="bf"/><path fill="#630" d="M138 0v-1484h180V0H138" id="bg"/><g id="S"><use transform="matrix(0.00927734375,0,0,0.00927734375,0,0)" xlink:href="#bd"/><use transform="matrix(0.00927734375,0,0,0.00927734375,5.27880859375,0)" xlink:href="#bf"/><use transform="matrix(0.00927734375,0,0,0.00927734375,15.845703125,0)" xlink:href="#bf"/><use transform="matrix(0.00927734375,0,0,0.00927734375,26.41259765625,0)" xlink:href="#bg"/></g><path fill="#630" d="M322-1484c-2 195 6 405-8 587h3c73-129 159-205 346-205 250 0 342 118 343 381V0H825v-686c3-190-43-277-223-277-176-1-280 140-280 325V0H142v-1484h180" id="bh"/><g id="T"><use transform="matrix(0.00927734375,0,0,0.00927734375,0,0)" xlink:href="#bd"/><use transform="matrix(0.00927734375,0,0,0.00927734375,5.27880859375,0)" xlink:href="#bh"/><use transform="matrix(0.00927734375,0,0,0.00927734375,15.845703125,0)" xlink:href="#be"/><use transform="matrix(0.00927734375,0,0,0.00927734375,26.41259765625,0)" xlink:href="#bd"/></g><path fill="#630" d="M350 384c-71 46-190 48-283 30V279c25 4 53 6 84 6 123 0 227-124 283-290L5-1082h192c109 293 229 581 326 886 105-293 205-591 307-886h190L604 0c-45 115-86 202-125 258s-83 96-129 126" id="bi"/><path fill="#630" d="M476 20C225 20 133-99 133-361v-721h181v686c0 183 40 279 223 277 184-2 280-141 280-336v-627h180c3 345-6 754 6 1082H833c-5-68-6-94-8-185h-3C746-51 665 20 476 20" id="bj"/><g id="U"><use transform="matrix(0.00927734375,0,0,0.00927734375,0,0)" xlink:href="#bi"/><use transform="matrix(0.00927734375,0,0,0.00927734375,9.5,0)" xlink:href="#bf"/><use transform="matrix(0.00927734375,0,0,0.00927734375,20.06689453125,0)" xlink:href="#bj"/></g><path fill="#630" d="M740-934C689-691 665-619 508 0H300L-3-1082h178c78 327 154 591 226 933 77-315 163-621 243-933h193c78 311 160 619 235 933 72-318 158-621 236-933h176L1174 0H965c-74-312-158-615-225-934" id="bk"/><path fill="#630" d="M663-1102c251 0 343 119 343 381V0H825v-686c0-183-40-279-223-277-184 2-280 141-280 336V0H142c-3-345 6-754-6-1082h170c5 68 6 94 8 185h3c76-134 157-205 346-205" id="bl"/><g id="V"><use transform="matrix(0.00927734375,0,0,0.00927734375,0,0)" xlink:href="#bk"/><use transform="matrix(0.00927734375,0,0,0.00927734375,13.72119140625,0)" xlink:href="#be"/><use transform="matrix(0.00927734375,0,0,0.00927734375,24.2880859375,0)" xlink:href="#bl"/><use transform="matrix(0.00927734375,0,0,0.00927734375,34.85498046875,0)" xlink:href="#bd"/></g><g id="W"><use transform="matrix(0.00927734375,0,0,0.00927734375,0,0)" xlink:href="#bd"/><use transform="matrix(0.00927734375,0,0,0.00927734375,5.27880859375,0)" xlink:href="#bf"/></g><path fill="#630" d="M87-548c0-338 159-553 484-554 325-2 484 204 477 599H276c-1 227 88 385 302 388 146 2 246-65 283-166l158 45C954-65 807 20 578 20 240 20 87-193 87-548zm775-93c-19-206-90-328-294-328-185 0-285 140-290 328h584" id="bm"/><path fill="#630" d="M801 0L510-444 217 0H23l385-556-367-526h199l270 421 268-421h201L612-558 1002 0H801" id="bn"/><g id="X"><use transform="matrix(0.00927734375,0,0,0.00927734375,0,0)" xlink:href="#bm"/><use transform="matrix(0.00927734375,0,0,0.00927734375,10.56689453125,0)" xlink:href="#bn"/><use transform="matrix(0.00927734375,0,0,0.00927734375,20.06689453125,0)" xlink:href="#bc"/><use transform="matrix(0.00927734375,0,0,0.00927734375,24.2880859375,0)" xlink:href="#bb"/><use transform="matrix(0.00927734375,0,0,0.00927734375,33.7880859375,0)" xlink:href="#bd"/></g><path fill="#630" d="M835 0c-5-29-11-137-10-174h-4C759-45 663 20 484 20 177 20 86-201 86-536c0-377 133-566 398-566 178 1 273 67 339 188-4-187-1-380-2-570h180v1261c0 113 2 187 6 223H835zm-14-554c0-255-58-415-289-415-91 0-151 37-196 101-76 109-77 543-1 651 44 63 105 98 195 98 235 0 291-173 291-435" id="bo"/><g id="Y"><use transform="matrix(0.00927734375,0,0,0.00927734375,0,0)" xlink:href="#bf"/><use transform="matrix(0.00927734375,0,0,0.00927734375,10.56689453125,0)" xlink:href="#bj"/><use transform="matrix(0.00927734375,0,0,0.00927734375,21.1337890625,0)" xlink:href="#bd"/><use transform="matrix(0.00927734375,0,0,0.00927734375,26.41259765625,0)" xlink:href="#bb"/><use transform="matrix(0.00927734375,0,0,0.00927734375,35.91259765625,0)" xlink:href="#bc"/><use transform="matrix(0.00927734375,0,0,0.00927734375,40.1337890625,0)" xlink:href="#bo"/><use transform="matrix(0.00927734375,0,0,0.00927734375,50.70068359375,0)" xlink:href="#bm"/></g><path fill="#630" d="M492-1341c-103 3-130 49-131 162v97h211v131H361V0H181v-951H29v-131h152v-122c0-192 78-276 264-278 50 0 92 4 127 12v137c-30-5-57-8-80-8" id="bp"/><g id="Z"><use transform="matrix(0.00927734375,0,0,0.00927734375,0,0)" xlink:href="#bf"/><use transform="matrix(0.00927734375,0,0,0.00927734375,10.56689453125,0)" xlink:href="#bp"/></g><g id="aa"><use transform="matrix(0.00927734375,0,0,0.00927734375,0,0)" xlink:href="#bd"/><use transform="matrix(0.00927734375,0,0,0.00927734375,5.27880859375,0)" xlink:href="#bh"/><use transform="matrix(0.00927734375,0,0,0.00927734375,15.845703125,0)" xlink:href="#bm"/></g><path fill="#630" d="M320-908c63-128 152-193 335-193 133 0 233 45 299 134s99 230 99 421c0 377-133 566-398 566-167 0-279-63-336-188h-5c8 141 2 428 4 593H138V-861c0-111-2-185-6-221h174c5 33 9 134 10 174h4zm-2 380c0 254 57 415 289 415 89 0 149-37 195-99 76-105 79-547 1-653-45-62-105-97-194-97-243 1-291 184-291 434" id="bq"/><g id="ab"><use transform="matrix(0.00927734375,0,0,0.00927734375,0,0)" xlink:href="#bq"/><use transform="matrix(0.00927734375,0,0,0.00927734375,10.56689453125,0)" xlink:href="#bc"/><use transform="matrix(0.00927734375,0,0,0.00927734375,14.7880859375,0)" xlink:href="#bq"/><use transform="matrix(0.00927734375,0,0,0.00927734375,25.35498046875,0)" xlink:href="#bm"/><use transform="matrix(0.00927734375,0,0,0.00927734375,35.921875,0)" xlink:href="#bg"/><use transform="matrix(0.00927734375,0,0,0.00927734375,40.14306640625,0)" xlink:href="#bc"/><use transform="matrix(0.00927734375,0,0,0.00927734375,44.3642578125,0)" xlink:href="#bl"/><use transform="matrix(0.00927734375,0,0,0.00927734375,54.93115234375,0)" xlink:href="#bm"/></g><path fill="#630" d="M584-1430c276 0 479 135 479 398 0 108-36 179-85 243-69 90-258 181-321 287-23 38-35 80-36 125H446c6-271 238-318 368-465 39-44 67-100 67-182-1-162-123-246-295-246-184 0-300 100-318 262l-184-12c32-258 212-410 500-410zM438 0v-201h195V0H438" id="br"/><use transform="matrix(0.00927734375,0,0,0.00927734375,0,0)" xlink:href="#br" id="ac"/><path fill="#630" d="M779-765c-19-119-93-196-233-196-95 0-164 32-207 95s-64 170-64 320c0 144 23 251 68 320s114 104 205 104c139 0 224-79 240-212l182 12C946-119 781 22 553 20 230 17 87-201 87-542c0-338 145-557 464-560 225-1 380 129 413 323" id="bs"/><path fill="#630" d="M318-861c55-157 83-241 257-241 24 0 48 3 73 10v165c-24-7-56-10-96-10-75 0-132 33-171 97s-59 156-59 276V0H142c-3-364 6-725-6-1082h170c5 123 8 196 8 221h4" id="bt"/><g id="ad"><use transform="matrix(0.00927734375,0,0,0.00927734375,0,0)" xlink:href="#bb"/><use transform="matrix(0.00927734375,0,0,0.00927734375,9.5,0)" xlink:href="#bs"/><use transform="matrix(0.00927734375,0,0,0.00927734375,19,0)" xlink:href="#bt"/><use transform="matrix(0.00927734375,0,0,0.00927734375,25.3271484375,0)" xlink:href="#bc"/><use transform="matrix(0.00927734375,0,0,0.00927734375,29.54833984375,0)" xlink:href="#bq"/><use transform="matrix(0.00927734375,0,0,0.00927734375,40.115234375,0)" xlink:href="#bd"/></g><g id="ae"><use transform="matrix(0.00927734375,0,0,0.00927734375,0,0)" xlink:href="#bs"/><use transform="matrix(0.00927734375,0,0,0.00927734375,9.5,0)" xlink:href="#be"/><use transform="matrix(0.00927734375,0,0,0.00927734375,20.06689453125,0)" xlink:href="#bl"/></g><g id="af"><use transform="matrix(0.00927734375,0,0,0.00927734375,0,0)" xlink:href="#bp"/><use transform="matrix(0.00927734375,0,0,0.00927734375,5.27880859375,0)" xlink:href="#bc"/><use transform="matrix(0.00927734375,0,0,0.00927734375,9.5,0)" xlink:href="#bd"/></g><g id="ag"><use transform="matrix(0.00927734375,0,0,0.00927734375,0,0)" xlink:href="#bc"/><use transform="matrix(0.00927734375,0,0,0.00927734375,4.22119140625,0)" xlink:href="#bl"/><use transform="matrix(0.00927734375,0,0,0.00927734375,14.7880859375,0)" xlink:href="#bd"/><use transform="matrix(0.00927734375,0,0,0.00927734375,20.06689453125,0)" xlink:href="#bf"/></g><use transform="matrix(0.00927734375,0,0,0.00927734375,0,0)" xlink:href="#be" id="ah"/><path fill="#630" d="M824-897c-1-17 6-175 12-185h171c-12 319-6 716-6 1051 0 304-151 456-453 456-226 0-374-90-417-267l181-26c24 102 112 157 241 156 179 0 269-105 269-315 0-57 3-120-2-174C759-74 647 8 472 8 339 8 242-36 180-124S86-350 86-539c0-191 33-332 100-423s169-137 306-137c167 0 273 85 332 202zm-38 579c48-119 46-331 0-450-42-108-118-197-250-197-92 0-154 37-201 100-78 107-74 530-4 643 63 101 251 129 353 47 43-35 77-81 102-143" id="bu"/><g id="ai"><use transform="matrix(0.00927734375,0,0,0.00927734375,0,0)" xlink:href="#bb"/><use transform="matrix(0.00927734375,0,0,0.00927734375,9.5,0)" xlink:href="#bc"/><use transform="matrix(0.00927734375,0,0,0.00927734375,13.72119140625,0)" xlink:href="#bl"/><use transform="matrix(0.00927734375,0,0,0.00927734375,24.2880859375,0)" xlink:href="#bu"/><use transform="matrix(0.00927734375,0,0,0.00927734375,34.85498046875,0)" xlink:href="#bg"/><use transform="matrix(0.00927734375,0,0,0.00927734375,39.076171875,0)" xlink:href="#bm"/></g><g id="aj"><use transform="matrix(0.00927734375,0,0,0.00927734375,0,0)" xlink:href="#bp"/><use transform="matrix(0.00927734375,0,0,0.00927734375,5.27880859375,0)" xlink:href="#bc"/><use transform="matrix(0.00927734375,0,0,0.00927734375,9.5,0)" xlink:href="#bg"/><use transform="matrix(0.00927734375,0,0,0.00927734375,13.72119140625,0)" xlink:href="#bm"/></g><path fill="#fff" d="M995 0L381-1085c12 105 18 190 18 254V0H137v-1409h337l623 1094c-12-101-18-192-18-275v-819h262V0H995" id="bv"/><path fill="#fff" d="M375-487c-1 185 60 319 225 319 99 0 162-43 188-129l265 23C976-78 821 20 586 20 247 19 80-194 80-546c0-344 176-559 510-556 341 3 483 247 479 615H375zm422-176c-8-153-68-262-211-262-144 0-206 112-209 262h420" id="bw"/><path fill="#fff" d="M819 0L567-392 313 0H14l396-559-377-523h303l231 354 230-354h305L725-562 1124 0H819" id="bx"/><path fill="#fff" d="M440-330c0 98 31 152 123 154 22 0 53-5 94-14v174C588 7 509 18 420 18c-170-1-258-95-258-272v-638H25v-190h151l88-254h176v254h205v190H440v562" id="by"/><path fill="#fff" d="M604-1296c-97 2-130 31-131 129v85h213v190H473V0H193v-892H35v-190h158v-113c1-202 109-289 315-289 53 0 112 5 178 16v181c-27-6-55-9-82-9" id="bz"/><path fill="#fff" d="M143 0v-1484h281V0H143" id="bA"/><path fill="#fff" d="M627-1102c355 0 544 203 544 560 0 345-207 562-550 562C283 20 80-201 80-542c0-343 204-560 547-560zM375-542c0 208 60 370 243 370 173 0 259-123 259-370 0-129-21-222-63-280s-103-87-183-87c-171 0-256 122-256 367" id="bB"/><path fill="#fff" d="M1313 0h-297c-77-314-153-545-219-882C730-580 647-294 571 0H274L-6-1082h264l178 827c55-291 140-551 209-827h301c70 285 147 527 207 827 59-278 123-551 184-827h260" id="bC"/><g id="ak"><use transform="matrix(0.00927734375,0,0,0.00927734375,0,0)" xlink:href="#bv"/><use transform="matrix(0.00927734375,0,0,0.00927734375,13.72119140625,0)" xlink:href="#bw"/><use transform="matrix(0.00927734375,0,0,0.00927734375,24.2880859375,0)" xlink:href="#bx"/><use transform="matrix(0.00927734375,0,0,0.00927734375,34.85498046875,0)" xlink:href="#by"/><use transform="matrix(0.00927734375,0,0,0.00927734375,41.18212890625,0)" xlink:href="#bz"/><use transform="matrix(0.00927734375,0,0,0.00927734375,47.50927734375,0)" xlink:href="#bA"/><use transform="matrix(0.00927734375,0,0,0.00927734375,52.7880859375,0)" xlink:href="#bB"/><use transform="matrix(0.00927734375,0,0,0.00927734375,64.39404296875,0)" xlink:href="#bC"/></g><path fill="#fff" d="M646-868c-165 0-222 146-222 337V0H143c-4-356 8-741-8-1082h268c4 15 14 211 13 231h4c48-123 63-177 149-229 44-27 147-31 197-8v235c-45-10-85-15-120-15" id="bD"/><path fill="#fff" d="M972 12c-145 0-202-73-217-205h-6C670-51 552 20 393 20 187 20 58-100 60-306c3-242 172-345 427-346l233-4c5-152-16-266-158-264-112 2-147 49-160 153l-293-14c38-217 204-321 465-321 262 0 427 133 427 388v394c3 101 7 160 89 160 21 0 42-2 62-6v152c-57 15-108 27-180 26zM483-176c165 0 247-140 237-325-89 1-231-1-283 23-55 25-84 70-84 150 0 94 44 152 130 152" id="bE"/><path fill="#fff" d="M408-1082c8 36 12 125 12 176h4c63-133 179-199 346-199 126 0 224 48 293 145s104 235 104 414c0 322-121 566-415 566-162 0-274-77-328-192h-6c11 149 4 424 6 597H143V-833c0-102-3-185-8-249h273zm243 172c-175 0-232 173-231 372 0 117 20 206 60 270s96 96 169 96c150 0 225-125 225-374 0-243-74-364-223-364" id="bF"/><path fill="#fff" d="M143-1277v-207h281v207H143zM143 0v-1082h281V0H143" id="bG"/><path fill="#fff" d="M768-1103c243 0 356 161 356 416V0H844v-607c0-190-64-285-193-285-148 1-227 151-227 312V0H143c-4-356 9-741-8-1082h268c4 18 14 191 13 215h4c67-145 160-236 348-236" id="bH"/><path fill="#fff" d="M1108-33c0 316-189 467-512 467-247 0-427-94-467-291l281-33c20 86 88 139 194 139 188 0 233-141 225-343-1-35 4-75 0-107C767-68 651-2 481-2 198-2 84-238 84-550c0-320 120-553 418-553 157 0 266 65 327 195h5c-1-34 7-149 14-174h266c-12 332-6 705-6 1049zM600-197c173 0 231-162 231-359 0-191-60-354-229-354-150 0-225 120-225 360 0 235 74 353 223 353" id="bI"/><g id="al"><use transform="matrix(0.00927734375,0,0,0.00927734375,0,0)" xlink:href="#bC"/><use transform="matrix(0.00927734375,0,0,0.00927734375,14.77880859375,0)" xlink:href="#bD"/><use transform="matrix(0.00927734375,0,0,0.00927734375,22.1728515625,0)" xlink:href="#bE"/><use transform="matrix(0.00927734375,0,0,0.00927734375,32.73974609375,0)" xlink:href="#bF"/><use transform="matrix(0.00927734375,0,0,0.00927734375,44.345703125,0)" xlink:href="#bF"/><use transform="matrix(0.00927734375,0,0,0.00927734375,55.95166015625,0)" xlink:href="#bG"/><use transform="matrix(0.00927734375,0,0,0.00927734375,61.23046875,0)" xlink:href="#bH"/><use transform="matrix(0.00927734375,0,0,0.00927734375,72.83642578125,0)" xlink:href="#bI"/></g><g id="am"><use transform="matrix(0.00927734375,0,0,0.00927734375,0,0)" xlink:href="#bp"/><use transform="matrix(0.00927734375,0,0,0.00927734375,5.27880859375,0)" xlink:href="#bc"/><use transform="matrix(0.00927734375,0,0,0.00927734375,9.5,0)" xlink:href="#bd"/></g><g id="an"><use transform="matrix(0.00927734375,0,0,0.00927734375,0,0)" xlink:href="#bo"/><use transform="matrix(0.00927734375,0,0,0.00927734375,10.56689453125,0)" xlink:href="#bc"/><use transform="matrix(0.00927734375,0,0,0.00927734375,14.7880859375,0)" xlink:href="#bt"/><use transform="matrix(0.00927734375,0,0,0.00927734375,21.115234375,0)" xlink:href="#bm"/><use transform="matrix(0.00927734375,0,0,0.00927734375,31.68212890625,0)" xlink:href="#bs"/><use transform="matrix(0.00927734375,0,0,0.00927734375,41.18212890625,0)" xlink:href="#bd"/><use transform="matrix(0.00927734375,0,0,0.00927734375,46.4609375,0)" xlink:href="#bg"/><use transform="matrix(0.00927734375,0,0,0.00927734375,50.68212890625,0)" xlink:href="#bi"/></g><g id="ao"><use transform="matrix(0.00927734375,0,0,0.00927734375,0,0)" xlink:href="#bc"/><use transform="matrix(0.00927734375,0,0,0.00927734375,4.22119140625,0)" xlink:href="#bl"/></g><use transform="matrix(0.00927734375,0,0,0.00927734375,0,0)" xlink:href="#be" id="ap"/><path fill="#630" d="M1195-963c-175 0-249 144-249 336V0H768v-686c-5-190-26-277-198-277-171 0-249 147-249 336V0H142c-3-345 6-754-6-1082h170c5 68 6 94 8 185h3c69-134 140-205 316-205 171 0 257 66 294 205h3c67-129 152-205 328-205 238 0 313 127 313 381V0h-178v-686c-5-190-26-277-198-277" id="bJ"/><g id="aq"><use transform="matrix(0.00927734375,0,0,0.00927734375,0,0)" xlink:href="#bJ"/><use transform="matrix(0.00927734375,0,0,0.00927734375,15.8271484375,0)" xlink:href="#bf"/><use transform="matrix(0.00927734375,0,0,0.00927734375,26.39404296875,0)" xlink:href="#bo"/><use transform="matrix(0.00927734375,0,0,0.00927734375,36.9609375,0)" xlink:href="#bj"/><use transform="matrix(0.00927734375,0,0,0.00927734375,47.52783203125,0)" xlink:href="#bg"/><use transform="matrix(0.00927734375,0,0,0.00927734375,51.7490234375,0)" xlink:href="#bm"/></g><g id="ar"><use transform="matrix(0.00927734375,0,0,0.00927734375,0,0)" xlink:href="#bv"/><use transform="matrix(0.00927734375,0,0,0.00927734375,13.72119140625,0)" xlink:href="#bw"/><use transform="matrix(0.00927734375,0,0,0.00927734375,24.2880859375,0)" xlink:href="#bx"/><use transform="matrix(0.00927734375,0,0,0.00927734375,34.85498046875,0)" xlink:href="#by"/><use transform="matrix(0.00927734375,0,0,0.00927734375,41.18212890625,0)" xlink:href="#bz"/><use transform="matrix(0.00927734375,0,0,0.00927734375,47.50927734375,0)" xlink:href="#bA"/><use transform="matrix(0.00927734375,0,0,0.00927734375,52.7880859375,0)" xlink:href="#bB"/><use transform="matrix(0.00927734375,0,0,0.00927734375,64.39404296875,0)" xlink:href="#bC"/></g><path fill="#fff" d="M1451-1101c183-5 286 101 285 284 0 43-8 97-21 164L1587 0h-279l122-627c32-134 36-269-108-265-147 4-224 142-251 285L952 0H673l123-635c30-136 35-257-109-257-147 0-223 140-252 288L317 0H35c68-365 145-707 205-1082h272c-2 29-23 156-28 185h3c91-129 148-199 328-204 166-4 264 83 282 232 94-138 163-227 354-232" id="bK"/><path fill="#fff" d="M704-1101c295 0 481 138 481 418 0 420-237 694-650 703C255 26 62-144 63-419c1-281 122-492 306-597 98-56 210-85 335-85zm187 439c0-165-69-247-208-247-175 0-240 98-287 243-26 81-38 160-38 235 0 173 69 259 208 259 260 0 325-240 325-490" id="bL"/><path fill="#fff" d="M392 21C182 24 58-138 58-354c0-256 98-537 244-652 79-62 169-96 278-96 171 0 275 66 314 198h5c27-196 74-390 110-580h277L1048-231c-13 75-23 152-29 231H738c0-42 5-95 15-160h-4C660-48 576 19 392 21zm450-702c0-148-51-229-188-229-164 0-225 122-265 271-24 88-34 171-34 246 0 147 53 221 160 221 200 0 262-148 303-320 17-72 24-135 24-189" id="bM"/><path fill="#fff" d="M391 19C166 25 54-116 92-346c42-251 94-489 141-736h279L394-487c-17 82-26 137-26 165 0 86 51 129 152 129 149-1 268-145 295-283l118-606h282c-68 368-144 701-204 1082H743c0-14 21-174 24-185h-3C675-62 578 14 391 19" id="bN"/><path fill="#fff" d="M35 0l288-1484h281L315 0H35" id="bO"/><path fill="#fff" d="M646-1102c271 0 437 146 436 411 0 66-8 138-24 215H358c-27 160 17 308 177 308 98 0 169-56 213-169l245 74C898-66 786 16 516 20 238 24 63-142 63-418c0-278 104-495 277-601 88-55 190-83 306-83zm176 439c20-154-39-264-176-261-153 4-224 116-255 261h431" id="bP"/><g id="as"><use transform="matrix(0.00927734375,0,0,0.00927734375,0,0)" xlink:href="#bK"/><use transform="matrix(0.00927734375,0,0,0.00927734375,16.89404296875,0)" xlink:href="#bL"/><use transform="matrix(0.00927734375,0,0,0.00927734375,28.5,0)" xlink:href="#bM"/><use transform="matrix(0.00927734375,0,0,0.00927734375,40.10595703125,0)" xlink:href="#bN"/><use transform="matrix(0.00927734375,0,0,0.00927734375,51.7119140625,0)" xlink:href="#bO"/><use transform="matrix(0.00927734375,0,0,0.00927734375,56.99072265625,0)" xlink:href="#bP"/></g><path fill="#630" d="M831-578V0H537v-578L35-1409h309l338 596 342-596h309" id="bQ"/><path fill="#630" d="M137 0v-1409h1108v228H432v354h752v228H432v371h854V0H137" id="bR"/><path fill="#630" d="M963-1038c-32-126-120-183-283-183-179 0-268 56-268 168 0 86 48 119 113 149 80 38 447 109 517 142 145 68 244 156 244 356 0 138-55 238-154 316C960 46 446 53 257-76 157-144 88-237 59-367l285-47c41 153 150 213 346 213 206 0 309-63 309-188 0-94-62-130-135-164-58-27-400-96-468-123-154-61-270-150-271-360 0-127 47-224 143-292s235-102 418-102c336 0 504 85 563 353" id="bS"/><g id="at"><use transform="matrix(0.00732421875,0,0,0.00732421875,0,0)" xlink:href="#bQ"/><use transform="matrix(0.00732421875,0,0,0.00732421875,10.0048828125,0)" xlink:href="#bR"/><use transform="matrix(0.00732421875,0,0,0.00732421875,20.009765625,0)" xlink:href="#bS"/></g></defs></g></svg>