<svg xmlns="http://www.w3.org/2000/svg" xmlns:xlink="http://www.w3.org/1999/xlink" xmlns:lucid="lucid" width="1628.67" height="1196.15"><g transform="translate(-32.33333333333333 7.666666666666668)" lucid:page-tab-id="wQ1XfBsvLLHpz"><path d="M1343.88 665.2v194.18h-2.96V668.14h-56.18v-2.95zm-89.15 0v2.94h-11.82v-2.95z" stroke="#630" stroke-width=".05" fill="#630"/><path d="M1242.95 665.2v2.94h-3l1.46-1.48-1.46-1.47z" fill="#630"/><path stroke="#630" stroke-width=".05" fill="#630"/><path d="M1342.4 875.15l-4.63-14.27h9.27z" fill="#630"/><path d="M1342.4 879.92l-6.67-20.5h13.34zm-2.6-17.56l2.6 8 2.6-8z" stroke="#630" stroke-width=".05" fill="#630"/><use xlink:href="#a" transform="matrix(1,0,0,1,1254.7283805015,660.4729339949168) translate(0 11.52099609375)"/><path d="M1440 989.17v37H856.7v17.87" stroke="#630" stroke-width="3" fill="none"/><path d="M1441.47 989.2h-2.94v-1.53h2.94z" stroke="#630" stroke-width=".05" fill="#630"/><path d="M856.7 1059.8l-4.63-14.26h9.27z" stroke="#630" stroke-width="3" fill="#630"/><path d="M1506.67 735.83v95.28l.48 27.28" stroke="#630" stroke-width="3" fill="none"/><path d="M1508.14 735.87h-2.95v-1.54h2.94z" stroke="#630" stroke-width=".05" fill="#630"/><path d="M1507.43 874.15l-4.9-14.18 9.28-.17z" stroke="#630" stroke-width="3" fill="#630"/><path d="M1026.67 989.17v37H856.7v17.87" stroke="#630" stroke-width="3" fill="none"/><path d="M1028.14 989.2h-2.95v-1.53h2.94z" stroke="#630" stroke-width=".05" fill="#630"/><path d="M856.7 1059.8l-4.63-14.26h9.27z" stroke="#630" stroke-width="3" fill="#630"/><path d="M989.8 668.14h-27.94l-1.12 190.25-2.94-.03 1.13-193.18h30.88zm33.95 0h-11.44v-2.95h11.45z" stroke="#630" stroke-width=".05" fill="#630"/><path d="M1025.25 666.66l1.48 1.48h-3.02v-2.95h3.03z" fill="#630"/><path stroke="#630" stroke-width=".05" fill="#630"/><path d="M963.9 859.9l-4.72 14.25-4.55-14.3z" fill="#630"/><path d="M965.94 858.44l-6.8 20.48-6.53-20.55zm-6.73 10.93l2.66-8-5.2-.03z" stroke="#630" stroke-width=".05" fill="#630"/><use xlink:href="#b" transform="matrix(1,0,0,1,989.8086255628789,660.473119073965) translate(0 11.52099609375)"/><path d="M1373.33 600H1640v133.33h-266.67z" stroke="#fff" stroke-width="2" fill="#c5e0dc"/><use xlink:href="#c" transform="matrix(1,0,0,1,1393.3333333333333,600) translate(30.602294921875 38.337646484375)"/><use xlink:href="#d" transform="matrix(1,0,0,1,1393.3333333333333,600) translate(155.224853515625 38.337646484375)"/><use xlink:href="#e" transform="matrix(1,0,0,1,1393.3333333333333,600) translate(30.073486328125 55.918212890625)"/><use xlink:href="#f" transform="matrix(1,0,0,1,1393.3333333333333,600) translate(97.668212890625 55.918212890625)"/><use xlink:href="#g" transform="matrix(1,0,0,1,1393.3333333333333,600) translate(147.292724609375 55.918212890625)"/><use xlink:href="#h" transform="matrix(1,0,0,1,1393.3333333333333,600) translate(10.17822265625 73.498779296875)"/><use xlink:href="#i" transform="matrix(1,0,0,1,1393.3333333333333,600) translate(75.314453125 73.498779296875)"/><use xlink:href="#j" transform="matrix(1,0,0,1,1393.3333333333333,600) translate(153.4296875 73.498779296875)"/><use xlink:href="#k" transform="matrix(1,0,0,1,1393.3333333333333,600) translate(190.4091796875 73.498779296875)"/><use xlink:href="#l" transform="matrix(1,0,0,1,1393.3333333333333,600) translate(39.582763671875 91.079345703125)"/><use xlink:href="#m" transform="matrix(1,0,0,1,1393.3333333333333,600) translate(103.995361328125 91.079345703125)"/><use xlink:href="#n" transform="matrix(1,0,0,1,1393.3333333333333,600) translate(62.81787109375 108.659912109375)"/><path d="M866.67 880h320v106.67h-320z" stroke="#fff" stroke-width="2" fill="#e08e79"/><use xlink:href="#o" transform="matrix(1,0,0,1,886.6666666666666,880) translate(15.929443359375 42.418212890625)"/><use xlink:href="#p" transform="matrix(1,0,0,1,886.6666666666666,880) translate(67.669189453125 42.418212890625)"/><use xlink:href="#q" transform="matrix(1,0,0,1,886.6666666666666,880) translate(83.514892578125 42.418212890625)"/><use xlink:href="#r" transform="matrix(1,0,0,1,886.6666666666666,880) translate(173.263916015625 42.418212890625)"/><use xlink:href="#s" transform="matrix(1,0,0,1,886.6666666666666,880) translate(210.234130859375 42.418212890625)"/><use xlink:href="#t" transform="matrix(1,0,0,1,886.6666666666666,880) translate(7.9833984375 59.998779296875)"/><use xlink:href="#u" transform="matrix(1,0,0,1,886.6666666666666,880) translate(54.462890625 59.998779296875)"/><use xlink:href="#v" transform="matrix(1,0,0,1,886.6666666666666,880) translate(117.83642578125 59.998779296875)"/><use xlink:href="#w" transform="matrix(1,0,0,1,886.6666666666666,880) translate(171.69140625 59.998779296875)"/><use xlink:href="#x" transform="matrix(1,0,0,1,886.6666666666666,880) translate(52.87646484375 77.579345703125)"/><use xlink:href="#y" transform="matrix(1,0,0,1,886.6666666666666,880) translate(91.943359375 77.579345703125)"/><use xlink:href="#z" transform="matrix(1,0,0,1,886.6666666666666,880) translate(123.634765625 77.579345703125)"/><use xlink:href="#A" transform="matrix(1,0,0,1,886.6666666666666,880) translate(165.87451171875 77.579345703125)"/><path d="M53.33 880h320v106.67h-320z" stroke="#fff" stroke-width="2" fill="#e08e79"/><use xlink:href="#B" transform="matrix(1,0,0,1,73.33333333333333,880) translate(4.815185546875 51.20849609375)"/><use xlink:href="#C" transform="matrix(1,0,0,1,73.33333333333333,880) translate(56.554931640625 51.20849609375)"/><use xlink:href="#D" transform="matrix(1,0,0,1,73.33333333333333,880) translate(98.794677734375 51.20849609375)"/><use xlink:href="#E" transform="matrix(1,0,0,1,73.33333333333333,880) translate(138.928466796875 51.20849609375)"/><use xlink:href="#F" transform="matrix(1,0,0,1,73.33333333333333,880) translate(223.435791015625 51.20849609375)"/><use xlink:href="#G" transform="matrix(1,0,0,1,73.33333333333333,880) translate(28.054931640625 68.7890625)"/><use xlink:href="#H" transform="matrix(1,0,0,1,73.33333333333333,880) translate(50.227783203125 68.7890625)"/><use xlink:href="#I" transform="matrix(1,0,0,1,73.33333333333333,880) translate(139.976806640625 68.7890625)"/><use xlink:href="#J" transform="matrix(1,0,0,1,73.33333333333333,880) translate(176.956298828125 68.7890625)"/><use xlink:href="#K" transform="matrix(1,0,0,1,73.33333333333333,880) translate(242.445068359375 68.7890625)"/><path d="M533.33 880h320v106.67h-320z" stroke="#fff" stroke-width="2" fill="#c5e0dc"/><use xlink:href="#L" transform="matrix(1,0,0,1,553.3333333333333,880) translate(13.786376953125 42.418212890625)"/><use xlink:href="#M" transform="matrix(1,0,0,1,553.3333333333333,880) translate(51.127685546875 42.418212890625)"/><use xlink:href="#N" transform="matrix(1,0,0,1,553.3333333333333,880) translate(87.040283203125 42.418212890625)"/><use xlink:href="#O" transform="matrix(1,0,0,1,553.3333333333333,880) translate(138.798583984375 42.418212890625)"/><use xlink:href="#P" transform="matrix(1,0,0,1,553.3333333333333,880) translate(170.489990234375 42.418212890625)"/><use xlink:href="#Q" transform="matrix(1,0,0,1,553.3333333333333,880) translate(10.808349609375 59.998779296875)"/><use xlink:href="#O" transform="matrix(1,0,0,1,553.3333333333333,880) translate(49.875244140625 59.998779296875)"/><use xlink:href="#R" transform="matrix(1,0,0,1,553.3333333333333,880) translate(81.566650390625 59.998779296875)"/><use xlink:href="#S" transform="matrix(1,0,0,1,553.3333333333333,880) translate(147.027587890625 59.998779296875)"/><use xlink:href="#T" transform="matrix(1,0,0,1,553.3333333333333,880) translate(230.468017578125 59.998779296875)"/><use xlink:href="#I" transform="matrix(1,0,0,1,553.3333333333333,880) translate(21.46337890625 77.579345703125)"/><use xlink:href="#U" transform="matrix(1,0,0,1,553.3333333333333,880) translate(58.44287109375 77.579345703125)"/><use xlink:href="#V" transform="matrix(1,0,0,1,553.3333333333333,880) translate(104.32861328125 77.579345703125)"/><use xlink:href="#W" transform="matrix(1,0,0,1,553.3333333333333,880) translate(163.48095703125 77.579345703125)"/><use xlink:href="#X" transform="matrix(1,0,0,1,553.3333333333333,880) translate(202.5478515625 77.579345703125)"/><path d="M1280 880h320v106.67h-320z" stroke="#fff" stroke-width="2" fill="#c5e0dc"/><use xlink:href="#L" transform="matrix(1,0,0,1,1300,880) translate(13.786376953125 42.418212890625)"/><use xlink:href="#M" transform="matrix(1,0,0,1,1300,880) translate(51.127685546875 42.418212890625)"/><use xlink:href="#N" transform="matrix(1,0,0,1,1300,880) translate(87.040283203125 42.418212890625)"/><use xlink:href="#O" transform="matrix(1,0,0,1,1300,880) translate(138.798583984375 42.418212890625)"/><use xlink:href="#P" transform="matrix(1,0,0,1,1300,880) translate(170.489990234375 42.418212890625)"/><use xlink:href="#Q" transform="matrix(1,0,0,1,1300,880) translate(6.39697265625 59.998779296875)"/><use xlink:href="#Y" transform="matrix(1,0,0,1,1300,880) translate(45.4638671875 59.998779296875)"/><use xlink:href="#O" transform="matrix(1,0,0,1,1300,880) translate(87.72216796875 59.998779296875)"/><use xlink:href="#R" transform="matrix(1,0,0,1,1300,880) translate(119.41357421875 59.998779296875)"/><use xlink:href="#Z" transform="matrix(1,0,0,1,1300,880) translate(184.87451171875 59.998779296875)"/><use xlink:href="#aa" transform="matrix(1,0,0,1,1300,880) translate(241.90234375 59.998779296875)"/><use xlink:href="#O" transform="matrix(1,0,0,1,1300,880) translate(57.603271484375 77.579345703125)"/><use xlink:href="#ab" transform="matrix(1,0,0,1,1300,880) translate(89.294677734375 77.579345703125)"/><use xlink:href="#ac" transform="matrix(1,0,0,1,1300,880) translate(150.562255859375 77.579345703125)"/><path d="M1321.47 291.86v59.44h-2.95v-56.5h-267.18v-2.94zm-300.14 0v2.95h-31.75v-2.94z" stroke="#630" stroke-width=".05" fill="#630"/><path d="M989.62 291.86v2.95h-3.02l1.48-1.47-1.48-1.47z" fill="#630"/><path stroke="#630" stroke-width=".05" fill="#630"/><path d="M1324.63 352.8l-4.63 14.26-4.64-14.26z" fill="#630"/><path d="M1326.66 351.32l-6.66 20.52-6.67-20.52zM1320 362.3l2.6-8.03h-5.2z" stroke="#630" stroke-width=".05" fill="#630"/><use xlink:href="#a" transform="matrix(1,0,0,1,1021.3287209514779,287.1392335680512) translate(0.005000000000000782 11.52099609375)"/><path d="M1508.14 478.52v99.86h-2.95v-96.9h-22.9v-2.96zm-55.86 0v2.95h-22.7v-2.95z" stroke="#630" stroke-width=".05" fill="#630"/><path d="M1429.62 478.52v2.95h-3.02l1.48-1.47-1.48-1.48z" fill="#630"/><path stroke="#630" stroke-width=".05" fill="#630"/><path d="M1506.67 594.15l-4.64-14.27h9.27z" fill="#630"/><path d="M1506.67 598.92l-6.67-20.5h13.33zm-2.6-17.56l2.6 8 2.6-8z" stroke="#630" stroke-width=".05" fill="#630"/><use xlink:href="#ad" transform="matrix(1,0,0,1,1452.2764233908285,473.80653783615156) translate(0 11.52099609375)"/><path d="M880 186.67l106.66 106.66L880 400 773.33 293.33z" stroke="#fff" stroke-width="2" fill="#f1d4af"/><g><use xlink:href="#ae" transform="matrix(1,0,0,1,826.6658333333332,239.99916666666667) translate(30.264892578125 42.418212890625)"/><use xlink:href="#af" transform="matrix(1,0,0,1,826.6658333333332,239.99916666666667) translate(50.322509765625 42.418212890625)"/><use xlink:href="#ag" transform="matrix(1,0,0,1,826.6658333333332,239.99916666666667) translate(17.5966796875 59.998779296875)"/><use xlink:href="#ah" transform="matrix(1,0,0,1,826.6658333333332,239.99916666666667) translate(7.54931640625 77.579345703125)"/><use xlink:href="#ai" transform="matrix(1,0,0,1,826.6658333333332,239.99916666666667) translate(27.6162109375 77.579345703125)"/><use xlink:href="#aj" transform="matrix(1,0,0,1,826.6658333333332,239.99916666666667) translate(88.8837890625 77.579345703125)"/></g><path d="M386.67 560l106.66 106.66-106.66 106.67L280 666.66z" stroke="#fff" stroke-width="2" fill="#f1d4af"/><g><use xlink:href="#ak" transform="matrix(1,0,0,1,333.3325,613.3325) translate(20.226806640625 16.04736328125)"/><use xlink:href="#af" transform="matrix(1,0,0,1,333.3325,613.3325) translate(60.360595703125 16.04736328125)"/><use xlink:href="#al" transform="matrix(1,0,0,1,333.3325,613.3325) translate(21.813232421875 33.6279296875)"/><use xlink:href="#am" transform="matrix(1,0,0,1,333.3325,613.3325) translate(19.697998046875 51.20849609375)"/><use xlink:href="#an" transform="matrix(1,0,0,1,333.3325,613.3325) translate(56.677490234375 51.20849609375)"/><use xlink:href="#ao" transform="matrix(1,0,0,1,333.3325,613.3325) translate(71.456298828125 51.20849609375)"/><use xlink:href="#ap" transform="matrix(1,0,0,1,333.3325,613.3325) translate(25.505615234375 68.7890625)"/><use xlink:href="#aq" transform="matrix(1,0,0,1,333.3325,613.3325) translate(26.563232421875 86.36962890625)"/><use xlink:href="#ar" transform="matrix(1,0,0,1,333.3325,613.3325) translate(15.486083984375 103.9501953125)"/><use xlink:href="#aj" transform="matrix(1,0,0,1,333.3325,613.3325) translate(80.947021484375 103.9501953125)"/></g><path d="M1133.33 560L1240 666.66l-106.67 106.67-106.66-106.67z" stroke="#fff" stroke-width="2" fill="#f1d4af"/><g><use xlink:href="#ak" transform="matrix(1,0,0,1,1079.9991666666665,613.3325) translate(0.159912109375 15.2890625)"/><use xlink:href="#as" transform="matrix(1,0,0,1,1079.9991666666665,613.3325) translate(40.293701171875 15.2890625)"/><use xlink:href="#at" transform="matrix(1,0,0,1,1079.9991666666665,613.3325) translate(76.206298828125 15.2890625)"/><use xlink:href="#p" transform="matrix(1,0,0,1,1079.9991666666665,613.3325) translate(6.496337890625 32.86962890625)"/><use xlink:href="#au" transform="matrix(1,0,0,1,1079.9991666666665,613.3325) translate(22.342041015625 32.86962890625)"/><use xlink:href="#r" transform="matrix(1,0,0,1,1079.9991666666665,613.3325) translate(5.976806640625 50.4501953125)"/><use xlink:href="#av" transform="matrix(1,0,0,1,1079.9991666666665,613.3325) translate(42.947021484375 50.4501953125)"/><use xlink:href="#y" transform="matrix(1,0,0,1,1079.9991666666665,613.3325) translate(9.659912109375 68.03076171875)"/><use xlink:href="#ap" transform="matrix(1,0,0,1,1079.9991666666665,613.3325) translate(41.351318359375 68.03076171875)"/><use xlink:href="#aw" transform="matrix(1,0,0,1,1079.9991666666665,613.3325) translate(17.582763671875 85.611328125)"/><use xlink:href="#ax" transform="matrix(1,0,0,1,1079.9991666666665,613.3325) translate(18.640380859375 103.19189453125)"/><use xlink:href="#af" transform="matrix(1,0,0,1,1079.9991666666665,613.3325) translate(61.947021484375 103.19189453125)"/><use xlink:href="#ay" transform="matrix(1,0,0,1,1079.9991666666665,613.3325) translate(35.01953125 120.7724609375)"/><use xlink:href="#az" transform="matrix(1,0,0,1,1079.9991666666665,613.3325) translate(11.7890625 138.35302734375)"/><use xlink:href="#aj" transform="matrix(1,0,0,1,1079.9991666666665,613.3325) translate(84.64404296875 138.35302734375)"/></g><path d="M986.66 72.48c0 32.66-47.75 59.14-106.66 59.14-58.9 0-106.67-26.48-106.67-59.14 0-32.67 47.76-59.15 106.67-59.15 58.9 0 106.66 26.48 106.66 59.15z" stroke="#fff" stroke-width="2" fill="#774f38"/><g><use xlink:href="#aA" transform="matrix(1,0,0,1,793.3333333333333,13.333333333333332) translate(46.880126953125 58.4052734375)"/><use xlink:href="#aB" transform="matrix(1,0,0,1,793.3333333333333,13.333333333333332) translate(40.014892578125 74.09326171875)"/></g><path d="M1320 373.33L1426.66 480 1320 586.66 1213.33 480z" stroke="#fff" stroke-width="2" fill="#f1d4af"/><g><use xlink:href="#ae" transform="matrix(1,0,0,1,1266.6658333333332,426.6658333333333) translate(38.72119140625 33.6279296875)"/><use xlink:href="#aC" transform="matrix(1,0,0,1,1266.6658333333332,426.6658333333333) translate(58.77880859375 33.6279296875)"/><use xlink:href="#aD" transform="matrix(1,0,0,1,1266.6658333333332,426.6658333333333) translate(9.659912109375 51.20849609375)"/><use xlink:href="#aE" transform="matrix(1,0,0,1,1266.6658333333332,426.6658333333333) translate(92.061279296875 51.20849609375)"/><use xlink:href="#aF" transform="matrix(1,0,0,1,1266.6658333333332,426.6658333333333) translate(2.79931640625 68.7890625)"/><use xlink:href="#aj" transform="matrix(1,0,0,1,1266.6658333333332,426.6658333333333) translate(48.216552734375 86.36962890625)"/></g><path d="M573.33 373.33L680 480 573.33 586.66 466.67 480z" stroke="#fff" stroke-width="2" fill="#f1d4af"/><g><use xlink:href="#ae" transform="matrix(1,0,0,1,519.9991666666666,426.6658333333333) translate(8.611572265625 42.418212890625)"/><use xlink:href="#aG" transform="matrix(1,0,0,1,519.9991666666666,426.6658333333333) translate(28.669189453125 42.418212890625)"/><use xlink:href="#aH" transform="matrix(1,0,0,1,519.9991666666666,426.6658333333333) translate(77.254638671875 42.418212890625)"/><use xlink:href="#aI" transform="matrix(1,0,0,1,519.9991666666666,426.6658333333333) translate(21.2890625 59.998779296875)"/><use xlink:href="#aJ" transform="matrix(1,0,0,1,519.9991666666666,426.6658333333333) translate(6.496337890625 77.579345703125)"/><use xlink:href="#aj" transform="matrix(1,0,0,1,519.9991666666666,426.6658333333333) translate(89.936767578125 77.579345703125)"/></g><path d="M966.37 1116.57c0 28.12-49.1 50.92-109.66 50.92-60.56 0-109.66-22.8-109.66-50.93 0-28.12 49.1-50.9 109.67-50.9s109.67 22.78 109.67 50.9z" stroke="#fff" stroke-width="2" fill="#774f38"/><g><use xlink:href="#aK" transform="matrix(1,0,0,1,767.0406666666665,1065.6566666666668) translate(51.443359375 57.749267578125)"/></g><path d="M213.33 989.17v37H855.4l-.02 17.88" stroke="#630" stroke-width="3" fill="none"/><path d="M214.8 989.2h-2.94v-1.53h2.95z" stroke="#630" stroke-width=".05" fill="#630"/><path d="M855.37 1059.82l-4.63-14.27H860z" stroke="#630" stroke-width="3" fill="#630"/><path d="M693.33 989.17v37H856.7v17.87" stroke="#630" stroke-width="3" fill="none"/><path d="M694.8 989.2h-2.94v-1.53h2.95z" stroke="#630" stroke-width=".05" fill="#630"/><path d="M856.7 1059.8l-4.63-14.26h9.27z" stroke="#630" stroke-width="3" fill="#630"/><path d="M707.3 294.8H574.8v56.5h-2.94v-59.44H707.3zm63.12 0h-40.6v-2.94h40.6z" stroke="#630" stroke-width=".05" fill="#630"/><path d="M771.92 293.33l1.47 1.48h-3.02v-2.94h3z" fill="#630"/><path stroke="#630" stroke-width=".05" fill="#630"/><path d="M577.97 352.8l-4.64 14.26-4.63-14.26z" fill="#630"/><path d="M580 351.32l-6.67 20.52-6.66-20.52zm-6.67 10.97l2.6-8.03h-5.2z" stroke="#630" stroke-width=".05" fill="#630"/><g><use xlink:href="#b" transform="matrix(1,0,0,1,707.312977761754,287.13939795369845) translate(0 11.52099609375)"/></g><path d="M421.2 481.47h-33.06v56.5h-2.95v-59.45h36zm42.55 0H443.7v-2.95h20.05z" stroke="#630" stroke-width=".05" fill="#630"/><path d="M465.25 480l1.48 1.47h-3.02v-2.95h3.03z" fill="#630"/><path stroke="#630" stroke-width=".05" fill="#630"/><path d="M391.3 539.47l-4.63 14.26-4.64-14.26z" fill="#630"/><path d="M393.33 538l-6.66 20.5L380 538zm-6.66 10.96l2.6-8.02h-5.2z" stroke="#630" stroke-width=".05" fill="#630"/><g><use xlink:href="#b" transform="matrix(1,0,0,1,421.19474794635613,473.80640217703126) translate(0 11.52099609375)"/></g><path d="M761.08 478.52l1.18 379.86h-2.95l-1.16-376.9h-33.46v-2.96zm-66.4 0v2.95H682.9v-2.95z" stroke="#630" stroke-width=".05" fill="#630"/><path d="M682.95 478.52v2.95h-3l1.46-1.47-1.46-1.48z" fill="#630"/><path stroke="#630" stroke-width=".05" fill="#630"/><path d="M760.84 874.15l-4.7-14.25 9.3-.03z" fill="#630"/><path d="M760.85 878.92l-6.73-20.5 13.33-.04zm-2.66-17.56l2.62 8 2.58-8z" stroke="#630" stroke-width=".05" fill="#630"/><g><use xlink:href="#a" transform="matrix(1,0,0,1,694.6691537016227,473.80630882349044) translate(0 11.52099609375)"/></g><path d="M881.48 668.14h-327.3v-2.95h324.35V422.02h2.94zm-357.3-2.95v2.94h-27.94v-2.95z" stroke="#630" stroke-width=".05" fill="#630"/><path d="M496.28 665.2v2.94h-3l1.46-1.48-1.47-1.47z" fill="#630"/><path stroke="#630" stroke-width=".05" fill="#630"/><path d="M884.63 420.53h-9.27l4.64-14.26z" fill="#630"/><path d="M886.66 422h-13.33l6.67-20.5zm-9.27-2.94h5.2l-2.6-8.02z" stroke="#630" stroke-width=".05" fill="#630"/><g><use xlink:href="#a" transform="matrix(1,0,0,1,524.167499982085,660.4726037019992) translate(0 11.52099609375)"/></g><path d="M233.96 668.14H214.8v190.24h-2.94v-193.2h22.1zm43.13 0h-20.64v-2.95h20.63z" stroke="#630" stroke-width=".05" fill="#630"/><path d="M278.6 666.66l1.46 1.48h-3v-2.95h3z" fill="#630"/><path stroke="#630" stroke-width=".05" fill="#630"/><path d="M213.33 874.15l-4.63-14.27h9.27z" fill="#630"/><path d="M213.33 878.92l-6.66-20.5H220zm-2.6-17.56l2.6 8 2.6-8z" stroke="#630" stroke-width=".05" fill="#630"/><g><use xlink:href="#b" transform="matrix(1,0,0,1,233.95857113031138,660.4733960595961) translate(0 11.52099609375)"/></g><path d="M880 134.12V164.63" stroke="#630" stroke-width="3" fill="none"/><path d="M880 132.62h1.47v1.54h-2.95v-1.57z" stroke="#630" stroke-width=".05" fill="#630"/><path d="M880 180.4l-4.63-14.27h9.26z" stroke="#630" stroke-width="3" fill="#630"/><path d="M1162.8 481.47h-28v56.5h-2.94v-59.45h30.95zm47.62 0h-25.1v-2.95h25.1z" stroke="#630" stroke-width=".05" fill="#630"/><path d="M1211.92 480l1.47 1.47h-3.02v-2.95h3z" fill="#630"/><path stroke="#630" stroke-width=".05" fill="#630"/><path d="M1137.97 539.47l-4.64 14.26-4.63-14.26z" fill="#630"/><path d="M1140 538l-6.67 20.5-6.66-20.5zm-6.67 10.96l2.6-8.02h-5.2z" stroke="#630" stroke-width=".05" fill="#630"/><g><use xlink:href="#b" transform="matrix(1,0,0,1,1162.8068803087228,473.8065093684793) translate(0 11.52099609375)"/></g><defs><path fill="#630" d="M831-578V0H537v-578L35-1409h309l338 596 342-596h309" id="aL"/><path fill="#630" d="M137 0v-1409h1108v228H432v354h752v228H432v371h854V0H137" id="aM"/><path fill="#630" d="M963-1038c-32-126-120-183-283-183-179 0-268 56-268 168 0 86 48 119 113 149 80 38 447 109 517 142 145 68 244 156 244 356 0 138-55 238-154 316C960 46 446 53 257-76 157-144 88-237 59-367l285-47c41 153 150 213 346 213 206 0 309-63 309-188 0-94-62-130-135-164-58-27-400-96-468-123-154-61-270-150-271-360 0-127 47-224 143-292s235-102 418-102c336 0 504 85 563 353" id="aN"/><g id="a"><use transform="matrix(0.00732421875,0,0,0.00732421875,0,0)" xlink:href="#aL"/><use transform="matrix(0.00732421875,0,0,0.00732421875,10.0048828125,0)" xlink:href="#aM"/><use transform="matrix(0.00732421875,0,0,0.00732421875,20.009765625,0)" xlink:href="#aN"/></g><path fill="#630" d="M995 0L381-1085c12 105 18 190 18 254V0H137v-1409h337l623 1094c-12-101-18-192-18-275v-819h262V0H995" id="aO"/><path fill="#630" d="M795-1430c442 0 718 278 712 719-6 453-261 725-714 731C351 26 84-267 84-711c0-446 267-719 711-719zm-2 1218c281 0 413-203 413-499 0-284-138-487-411-487-277 0-414 199-414 487 0 285 142 499 412 499" id="aP"/><g id="b"><use transform="matrix(0.00732421875,0,0,0.00732421875,0,0)" xlink:href="#aO"/><use transform="matrix(0.00732421875,0,0,0.00732421875,10.83251953125,0)" xlink:href="#aP"/></g><path fill="#600" d="M908-743c202 21 350 139 350 346 0 273-224 397-518 397H168v-1409h512c331 0 496 114 496 342 0 180-112 291-268 324zm-228-67c187 0 301-60 304-234 6-277-360-200-625-212v446h321zm50 657c212 0 335-66 335-259 0-166-117-249-350-249H359v508h371" id="aQ"/><path fill="#600" d="M137-1312v-172h180v172H137zM137 0v-1082h180V0H137" id="aR"/><path fill="#600" d="M571-1102c350 0 480 196 482 560 2 357-151 562-488 562C233 20 86-198 86-542c0-373 162-560 485-560zm-8 989c244 0 301-164 301-429 0-266-49-427-290-427-239 0-299 165-299 427 0 252 61 429 288 429" id="aS"/><path fill="#600" d="M1207-1021c-59-155-207-253-415-253-322-2-494 232-494 563 0 326 186 574 502 574 197 0 346-98 445-293l156 78C1298-131 1096 20 791 20c-448 0-682-279-687-731-5-437 254-721 686-719 309 2 507 125 598 349" id="aT"/><path fill="#600" d="M663-1102c251 0 343 119 343 381V0H825v-686c0-183-40-279-223-277-184 2-280 141-280 336V0H142c-3-345 6-754-6-1082h170c5 68 6 94 8 185h3c76-134 157-205 346-205" id="aU"/><path fill="#600" d="M336-268c2 98 22 139 114 141 24 0 59-5 104-14V-8C495 8 434 16 372 16c-144 0-216-82-216-245v-722H31v-131h132l53-242h120v242h200v131H336v683" id="aV"/><path fill="#600" d="M797-207C713-60 620 16 414 20 203 24 88-98 87-302c0-112 37-198 111-258s192-93 356-96l243-4c10-201-43-307-232-305-154 2-223 43-242 172l-188-17c31-195 175-292 434-292s410 116 410 364v466c3 95 12 159 101 161 17 0 37-2 59-7V-6c-45 11-92 16-139 16-143-2-188-76-197-217h-6zm-525-92c-1 116 66 187 183 184 230-7 361-164 342-419-124 5-305-2-389 30-83 32-136 92-136 205" id="aW"/><path fill="#600" d="M87-548c0-338 159-553 484-554 325-2 484 204 477 599H276c-1 227 88 385 302 388 146 2 246-65 283-166l158 45C954-65 807 20 578 20 240 20 87-193 87-548zm775-93c-19-206-90-328-294-328-185 0-285 140-290 328h584" id="aX"/><path fill="#600" d="M318-861c55-157 83-241 257-241 24 0 48 3 73 10v165c-24-7-56-10-96-10-75 0-132 33-171 97s-59 156-59 276V0H142c-3-364 6-725-6-1082h170c5 123 8 196 8 221h4" id="aY"/><path fill="#600" d="M513-963c-139 1-238 29-238 149 0 72 41 100 95 127 55 27 348 94 404 125 101 56 176 118 176 263C950-73 758 21 511 20 254 19 107-55 57-254l159-31c34 123 133 168 295 168 156 0 264-34 264-168 0-156-183-165-315-204-171-51-245-68-323-172-26-35-37-82-37-135 0-220 172-304 413-303 232 1 379 74 418 265l-162 20c-23-104-122-150-256-149" id="aZ"/><g id="c"><use transform="matrix(0.00927734375,0,0,0.00927734375,0,0)" xlink:href="#aQ"/><use transform="matrix(0.00927734375,0,0,0.00927734375,12.6728515625,0)" xlink:href="#aR"/><use transform="matrix(0.00927734375,0,0,0.00927734375,16.89404296875,0)" xlink:href="#aS"/><use transform="matrix(0.00927734375,0,0,0.00927734375,27.4609375,0)" xlink:href="#aT"/><use transform="matrix(0.00927734375,0,0,0.00927734375,41.18212890625,0)" xlink:href="#aS"/><use transform="matrix(0.00927734375,0,0,0.00927734375,51.7490234375,0)" xlink:href="#aU"/><use transform="matrix(0.00927734375,0,0,0.00927734375,62.31591796875,0)" xlink:href="#aV"/><use transform="matrix(0.00927734375,0,0,0.00927734375,67.5947265625,0)" xlink:href="#aW"/><use transform="matrix(0.00927734375,0,0,0.00927734375,78.16162109375,0)" xlink:href="#aR"/><use transform="matrix(0.00927734375,0,0,0.00927734375,82.3828125,0)" xlink:href="#aU"/><use transform="matrix(0.00927734375,0,0,0.00927734375,92.94970703125,0)" xlink:href="#aX"/><use transform="matrix(0.00927734375,0,0,0.00927734375,103.5166015625,0)" xlink:href="#aY"/><use transform="matrix(0.00927734375,0,0,0.00927734375,109.84375,0)" xlink:href="#aZ"/></g><path fill="#600" d="M1195-963c-175 0-249 144-249 336V0H768v-686c-5-190-26-277-198-277-171 0-249 147-249 336V0H142c-3-345 6-754-6-1082h170c5 68 6 94 8 185h3c69-134 140-205 316-205 171 0 257 66 294 205h3c67-129 152-205 328-205 238 0 313 127 313 381V0h-178v-686c-5-190-26-277-198-277" id="ba"/><path fill="#600" d="M476 20C225 20 133-99 133-361v-721h181v686c0 183 40 279 223 277 184-2 280-141 280-336v-627h180c3 345-6 754 6 1082H833c-5-68-6-94-8-185h-3C746-51 665 20 476 20" id="bb"/><g id="d"><use transform="matrix(0.00927734375,0,0,0.00927734375,0,0)" xlink:href="#ba"/><use transform="matrix(0.00927734375,0,0,0.00927734375,15.8271484375,0)" xlink:href="#bb"/><use transform="matrix(0.00927734375,0,0,0.00927734375,26.39404296875,0)" xlink:href="#aZ"/><use transform="matrix(0.00927734375,0,0,0.00927734375,35.89404296875,0)" xlink:href="#aV"/></g><path fill="#600" d="M138 0v-1484h180V0H138" id="bc"/><path fill="#600" d="M835 0c-5-29-11-137-10-174h-4C759-45 663 20 484 20 177 20 86-201 86-536c0-377 133-566 398-566 178 1 273 67 339 188-4-187-1-380-2-570h180v1261c0 113 2 187 6 223H835zm-14-554c0-255-58-415-289-415-91 0-151 37-196 101-76 109-77 543-1 651 44 63 105 98 195 98 235 0 291-173 291-435" id="bd"/><path fill="#600" d="M350 384c-71 46-190 48-283 30V279c25 4 53 6 84 6 123 0 227-124 283-290L5-1082h192c109 293 229 581 326 886 105-293 205-591 307-886h190L604 0c-45 115-86 202-125 258s-83 96-129 126" id="be"/><g id="e"><use transform="matrix(0.00927734375,0,0,0.00927734375,0,0)" xlink:href="#aW"/><use transform="matrix(0.00927734375,0,0,0.00927734375,10.56689453125,0)" xlink:href="#bc"/><use transform="matrix(0.00927734375,0,0,0.00927734375,14.7880859375,0)" xlink:href="#aY"/><use transform="matrix(0.00927734375,0,0,0.00927734375,21.115234375,0)" xlink:href="#aX"/><use transform="matrix(0.00927734375,0,0,0.00927734375,31.68212890625,0)" xlink:href="#aW"/><use transform="matrix(0.00927734375,0,0,0.00927734375,42.2490234375,0)" xlink:href="#bd"/><use transform="matrix(0.00927734375,0,0,0.00927734375,52.81591796875,0)" xlink:href="#be"/></g><path fill="#600" d="M801 0L510-444 217 0H23l385-556-367-526h199l270 421 268-421h201L612-558 1002 0H801" id="bf"/><path fill="#600" d="M187-875v-207h195v207H187zm0 875v-207h195V0H187" id="bg"/><g id="f"><use transform="matrix(0.00927734375,0,0,0.00927734375,0,0)" xlink:href="#aX"/><use transform="matrix(0.00927734375,0,0,0.00927734375,10.56689453125,0)" xlink:href="#bf"/><use transform="matrix(0.00927734375,0,0,0.00927734375,20.06689453125,0)" xlink:href="#aR"/><use transform="matrix(0.00927734375,0,0,0.00927734375,24.2880859375,0)" xlink:href="#aZ"/><use transform="matrix(0.00927734375,0,0,0.00927734375,33.7880859375,0)" xlink:href="#aV"/><use transform="matrix(0.00927734375,0,0,0.00927734375,39.06689453125,0)" xlink:href="#bg"/></g><path fill="#600" d="M779-765c-19-119-93-196-233-196-95 0-164 32-207 95s-64 170-64 320c0 144 23 251 68 320s114 104 205 104c139 0 224-79 240-212l182 12C946-119 781 22 553 20 230 17 87-201 87-542c0-338 145-557 464-560 225-1 380 129 413 323" id="bh"/><path fill="#600" d="M322-1484c-2 195 6 405-8 587h3c73-129 159-205 346-205 250 0 342 118 343 381V0H825v-686c3-190-43-277-223-277-176-1-280 140-280 325V0H142v-1484h180" id="bi"/><path fill="#600" d="M816 0L450-494 318-385V0H138v-1484h180v927l475-525h211L565-617 1027 0H816" id="bj"/><g id="g"><use transform="matrix(0.00927734375,0,0,0.00927734375,0,0)" xlink:href="#bh"/><use transform="matrix(0.00927734375,0,0,0.00927734375,9.5,0)" xlink:href="#bi"/><use transform="matrix(0.00927734375,0,0,0.00927734375,20.06689453125,0)" xlink:href="#aX"/><use transform="matrix(0.00927734375,0,0,0.00927734375,30.6337890625,0)" xlink:href="#bh"/><use transform="matrix(0.00927734375,0,0,0.00927734375,40.1337890625,0)" xlink:href="#bj"/></g><path fill="#600" d="M823-178C754-45 672 20 484 20 177 20 86-203 86-536c0-377 133-566 398-566 183 0 268 65 339 188-1-16 6-173 12-182h173c-5 39-7 138-7 295V425H821c1-201-3-407 4-603h-2zm-293 59c233 0 291-179 291-435 0-251-60-415-289-415-91 0-153 37-197 102-76 111-76 542 1 650 44 63 105 98 194 98" id="bk"/><path fill="#600" d="M187 0v-219h195V0H187" id="bl"/><g id="h"><use transform="matrix(0.00927734375,0,0,0.00927734375,0,0)" xlink:href="#bk"/><use transform="matrix(0.00927734375,0,0,0.00927734375,10.56689453125,0)" xlink:href="#bb"/><use transform="matrix(0.00927734375,0,0,0.00927734375,21.1337890625,0)" xlink:href="#aW"/><use transform="matrix(0.00927734375,0,0,0.00927734375,31.70068359375,0)" xlink:href="#be"/><use transform="matrix(0.00927734375,0,0,0.00927734375,39.79052734375,0)" xlink:href="#bl"/><use transform="matrix(0.00927734375,0,0,0.00927734375,45.0693359375,0)" xlink:href="#aR"/><use transform="matrix(0.00927734375,0,0,0.00927734375,49.29052734375,0)" xlink:href="#aS"/></g><path fill="#600" d="M496 424C268 175 127-92 127-532c0-438 143-704 369-952h174c-222 249-362 524-362 954 0 431 138 703 362 954H496" id="bm"/><path fill="#600" d="M634-1409c461-4 751 239 747 690-4 441-249 719-686 719H168v-1409h466zm39 1256c337-8 514-222 516-566 2-353-203-539-559-537H359v1103h314" id="bn"/><path fill="#600" d="M186-1484c228 249 369 516 369 956 0 438-143 704-369 952H12C235 172 374-97 374-530c0-431-140-704-362-954h174" id="bo"/><g id="i"><use transform="matrix(0.00927734375,0,0,0.00927734375,0,0)" xlink:href="#bm"/><use transform="matrix(0.00927734375,0,0,0.00927734375,6.3271484375,0)" xlink:href="#bn"/><use transform="matrix(0.00927734375,0,0,0.00927734375,20.04833984375,0)" xlink:href="#aS"/><use transform="matrix(0.00927734375,0,0,0.00927734375,30.615234375,0)" xlink:href="#bh"/><use transform="matrix(0.00927734375,0,0,0.00927734375,40.115234375,0)" xlink:href="#bj"/><use transform="matrix(0.00927734375,0,0,0.00927734375,49.615234375,0)" xlink:href="#aX"/><use transform="matrix(0.00927734375,0,0,0.00927734375,60.18212890625,0)" xlink:href="#aY"/><use transform="matrix(0.00927734375,0,0,0.00927734375,66.50927734375,0)" xlink:href="#bo"/></g><g id="j"><use transform="matrix(0.00927734375,0,0,0.00927734375,0,0)" xlink:href="#aW"/><use transform="matrix(0.00927734375,0,0,0.00927734375,10.56689453125,0)" xlink:href="#aU"/><use transform="matrix(0.00927734375,0,0,0.00927734375,21.1337890625,0)" xlink:href="#bd"/></g><g id="k"><use transform="matrix(0.00927734375,0,0,0.00927734375,0,0)" xlink:href="#aV"/><use transform="matrix(0.00927734375,0,0,0.00927734375,5.27880859375,0)" xlink:href="#bi"/><use transform="matrix(0.00927734375,0,0,0.00927734375,15.845703125,0)" xlink:href="#aX"/></g><path fill="#600" d="M813 20c-458 0-705-273-710-731-5-449 256-722 701-719 323 2 501 105 605 332l-182 54c-76-154-207-229-428-230-335-2-502 220-502 563 0 339 185 576 516 576 185 0 358-63 451-156v-254H843v-160h597v486C1303-77 1082 20 813 20" id="bp"/><g id="l"><use transform="matrix(0.00927734375,0,0,0.00927734375,0,0)" xlink:href="#bp"/><use transform="matrix(0.00927734375,0,0,0.00927734375,14.77880859375,0)" xlink:href="#aW"/><use transform="matrix(0.00927734375,0,0,0.00927734375,25.345703125,0)" xlink:href="#bc"/><use transform="matrix(0.00927734375,0,0,0.00927734375,29.56689453125,0)" xlink:href="#aW"/><use transform="matrix(0.00927734375,0,0,0.00927734375,40.1337890625,0)" xlink:href="#bf"/><use transform="matrix(0.00927734375,0,0,0.00927734375,49.6337890625,0)" xlink:href="#be"/></g><path fill="#600" d="M320-908c63-128 152-193 335-193 133 0 233 45 299 134s99 230 99 421c0 377-133 566-398 566-167 0-279-63-336-188h-5c8 141 2 428 4 593H138V-861c0-111-2-185-6-221h174c5 33 9 134 10 174h4zm-2 380c0 254 57 415 289 415 89 0 149-37 195-99 76-105 79-547 1-653-45-62-105-97-194-97-243 1-291 184-291 434" id="bq"/><g id="m"><use transform="matrix(0.00927734375,0,0,0.00927734375,0,0)" xlink:href="#aY"/><use transform="matrix(0.00927734375,0,0,0.00927734375,6.3271484375,0)" xlink:href="#aX"/><use transform="matrix(0.00927734375,0,0,0.00927734375,16.89404296875,0)" xlink:href="#bq"/><use transform="matrix(0.00927734375,0,0,0.00927734375,27.4609375,0)" xlink:href="#aS"/><use transform="matrix(0.00927734375,0,0,0.00927734375,38.02783203125,0)" xlink:href="#aZ"/><use transform="matrix(0.00927734375,0,0,0.00927734375,47.52783203125,0)" xlink:href="#aR"/><use transform="matrix(0.00927734375,0,0,0.00927734375,51.7490234375,0)" xlink:href="#aV"/><use transform="matrix(0.00927734375,0,0,0.00927734375,57.02783203125,0)" xlink:href="#aS"/><use transform="matrix(0.00927734375,0,0,0.00927734375,67.5947265625,0)" xlink:href="#aY"/><use transform="matrix(0.00927734375,0,0,0.00927734375,73.921875,0)" xlink:href="#be"/></g><path fill="#600" d="M692-1286c-195 0-347 51-347 223 0 101 58 144 134 179 135 62 487 105 623 191 97 62 170 147 170 304 0 130-50 231-152 302S875 20 690 20C347 20 148-99 93-338l185-37c46 178 190 245 419 246 213 0 386-61 386-250 0-223-244-222-431-271-182-48-288-69-390-156-64-54-103-133-103-247 0-121 47-214 139-279s224-98 396-98c318 0 471 80 545 324l-188 33c-44-155-158-213-359-213" id="br"/><path fill="#600" d="M824-897c-1-17 6-175 12-185h171c-12 319-6 716-6 1051 0 304-151 456-453 456-226 0-374-90-417-267l181-26c24 102 112 157 241 156 179 0 269-105 269-315 0-57 3-120-2-174C759-74 647 8 472 8 339 8 242-36 180-124S86-350 86-539c0-191 33-332 100-423s169-137 306-137c167 0 273 85 332 202zm-38 579c48-119 46-331 0-450-42-108-118-197-250-197-92 0-154 37-201 100-78 107-74 530-4 643 63 101 251 129 353 47 43-35 77-81 102-143" id="bs"/><g id="n"><use transform="matrix(0.00927734375,0,0,0.00927734375,0,0)" xlink:href="#bm"/><use transform="matrix(0.00927734375,0,0,0.00927734375,6.3271484375,0)" xlink:href="#br"/><use transform="matrix(0.00927734375,0,0,0.00927734375,19,0)" xlink:href="#aR"/><use transform="matrix(0.00927734375,0,0,0.00927734375,23.22119140625,0)" xlink:href="#aU"/><use transform="matrix(0.00927734375,0,0,0.00927734375,33.7880859375,0)" xlink:href="#bs"/><use transform="matrix(0.00927734375,0,0,0.00927734375,44.35498046875,0)" xlink:href="#bb"/><use transform="matrix(0.00927734375,0,0,0.00927734375,54.921875,0)" xlink:href="#bc"/><use transform="matrix(0.00927734375,0,0,0.00927734375,59.14306640625,0)" xlink:href="#aW"/><use transform="matrix(0.00927734375,0,0,0.00927734375,69.7099609375,0)" xlink:href="#aY"/><use transform="matrix(0.00927734375,0,0,0.00927734375,76.037109375,0)" xlink:href="#aR"/><use transform="matrix(0.00927734375,0,0,0.00927734375,80.25830078125,0)" xlink:href="#aV"/><use transform="matrix(0.00927734375,0,0,0.00927734375,85.537109375,0)" xlink:href="#be"/><use transform="matrix(0.00927734375,0,0,0.00927734375,95.037109375,0)" xlink:href="#bo"/></g><path fill="#630" d="M1366 0c4-412-9-843 9-1240-33 119-62 213-88 280L923 0H789L420-960c-31-92-62-184-89-280 13 403 5 827 7 1240H168v-1409h251l375 977c20 57 51 168 63 224 5-34 58-197 68-224l368-977h245V0h-172" id="bt"/><path fill="#630" d="M797-207C713-60 620 16 414 20 203 24 88-98 87-302c0-112 37-198 111-258s192-93 356-96l243-4c10-201-43-307-232-305-154 2-223 43-242 172l-188-17c31-195 175-292 434-292s410 116 410 364v466c3 95 12 159 101 161 17 0 37-2 59-7V-6c-45 11-92 16-139 16-143-2-188-76-197-217h-6zm-525-92c-1 116 66 187 183 184 230-7 361-164 342-419-124 5-305-2-389 30-83 32-136 92-136 205" id="bu"/><path fill="#630" d="M816 0L450-494 318-385V0H138v-1484h180v927l475-525h211L565-617 1027 0H816" id="bv"/><path fill="#630" d="M87-548c0-338 159-553 484-554 325-2 484 204 477 599H276c-1 227 88 385 302 388 146 2 246-65 283-166l158 45C954-65 807 20 578 20 240 20 87-193 87-548zm775-93c-19-206-90-328-294-328-185 0-285 140-290 328h584" id="bw"/><g id="o"><use transform="matrix(0.00927734375,0,0,0.00927734375,0,0)" xlink:href="#bt"/><use transform="matrix(0.00927734375,0,0,0.00927734375,15.8271484375,0)" xlink:href="#bu"/><use transform="matrix(0.00927734375,0,0,0.00927734375,26.39404296875,0)" xlink:href="#bv"/><use transform="matrix(0.00927734375,0,0,0.00927734375,35.89404296875,0)" xlink:href="#bw"/></g><use transform="matrix(0.00927734375,0,0,0.00927734375,0,0)" xlink:href="#bu" id="p"/><path fill="#630" d="M634-1409c461-4 751 239 747 690-4 441-249 719-686 719H168v-1409h466zm39 1256c337-8 514-222 516-566 2-353-203-539-559-537H359v1103h314" id="bx"/><path fill="#630" d="M571-1102c350 0 480 196 482 560 2 357-151 562-488 562C233 20 86-198 86-542c0-373 162-560 485-560zm-8 989c244 0 301-164 301-429 0-266-49-427-290-427-239 0-299 165-299 427 0 252 61 429 288 429" id="by"/><path fill="#630" d="M779-765c-19-119-93-196-233-196-95 0-164 32-207 95s-64 170-64 320c0 144 23 251 68 320s114 104 205 104c139 0 224-79 240-212l182 12C946-119 781 22 553 20 230 17 87-201 87-542c0-338 145-557 464-560 225-1 380 129 413 323" id="bz"/><path fill="#630" d="M318-861c55-157 83-241 257-241 24 0 48 3 73 10v165c-24-7-56-10-96-10-75 0-132 33-171 97s-59 156-59 276V0H142c-3-364 6-725-6-1082h170c5 123 8 196 8 221h4" id="bA"/><path fill="#630" d="M492-1341c-103 3-130 49-131 162v97h211v131H361V0H181v-951H29v-131h152v-122c0-192 78-276 264-278 50 0 92 4 127 12v137c-30-5-57-8-80-8" id="bB"/><path fill="#630" d="M137-1312v-172h180v172H137zM137 0v-1082h180V0H137" id="bC"/><path fill="#630" d="M138 0v-1484h180V0H138" id="bD"/><g id="q"><use transform="matrix(0.00927734375,0,0,0.00927734375,0,0)" xlink:href="#bx"/><use transform="matrix(0.00927734375,0,0,0.00927734375,13.72119140625,0)" xlink:href="#by"/><use transform="matrix(0.00927734375,0,0,0.00927734375,24.2880859375,0)" xlink:href="#bz"/><use transform="matrix(0.00927734375,0,0,0.00927734375,33.7880859375,0)" xlink:href="#bv"/><use transform="matrix(0.00927734375,0,0,0.00927734375,43.2880859375,0)" xlink:href="#bw"/><use transform="matrix(0.00927734375,0,0,0.00927734375,53.85498046875,0)" xlink:href="#bA"/><use transform="matrix(0.00927734375,0,0,0.00927734375,60.18212890625,0)" xlink:href="#bB"/><use transform="matrix(0.00927734375,0,0,0.00927734375,65.4609375,0)" xlink:href="#bC"/><use transform="matrix(0.00927734375,0,0,0.00927734375,69.68212890625,0)" xlink:href="#bD"/><use transform="matrix(0.00927734375,0,0,0.00927734375,73.9033203125,0)" xlink:href="#bw"/></g><path fill="#630" d="M336-268c2 98 22 139 114 141 24 0 59-5 104-14V-8C495 8 434 16 372 16c-144 0-216-82-216-245v-722H31v-131h132l53-242h120v242h200v131H336v683" id="bE"/><path fill="#630" d="M322-1484c-2 195 6 405-8 587h3c73-129 159-205 346-205 250 0 342 118 343 381V0H825v-686c3-190-43-277-223-277-176-1-280 140-280 325V0H142v-1484h180" id="bF"/><g id="r"><use transform="matrix(0.00927734375,0,0,0.00927734375,0,0)" xlink:href="#bE"/><use transform="matrix(0.00927734375,0,0,0.00927734375,5.27880859375,0)" xlink:href="#bF"/><use transform="matrix(0.00927734375,0,0,0.00927734375,15.845703125,0)" xlink:href="#bu"/><use transform="matrix(0.00927734375,0,0,0.00927734375,26.41259765625,0)" xlink:href="#bE"/></g><path fill="#630" d="M513-963c-139 1-238 29-238 149 0 72 41 100 95 127 55 27 348 94 404 125 101 56 176 118 176 263C950-73 758 21 511 20 254 19 107-55 57-254l159-31c34 123 133 168 295 168 156 0 264-34 264-168 0-156-183-165-315-204-171-51-245-68-323-172-26-35-37-82-37-135 0-220 172-304 413-303 232 1 379 74 418 265l-162 20c-23-104-122-150-256-149" id="bG"/><path fill="#630" d="M1195-963c-175 0-249 144-249 336V0H768v-686c-5-190-26-277-198-277-171 0-249 147-249 336V0H142c-3-345 6-754-6-1082h170c5 68 6 94 8 185h3c69-134 140-205 316-205 171 0 257 66 294 205h3c67-129 152-205 328-205 238 0 313 127 313 381V0h-178v-686c-5-190-26-277-198-277" id="bH"/><path fill="#630" d="M320-908c63-128 152-193 335-193 133 0 233 45 299 134s99 230 99 421c0 377-133 566-398 566-167 0-279-63-336-188h-5c8 141 2 428 4 593H138V-861c0-111-2-185-6-221h174c5 33 9 134 10 174h4zm-2 380c0 254 57 415 289 415 89 0 149-37 195-99 76-105 79-547 1-653-45-62-105-97-194-97-243 1-291 184-291 434" id="bI"/><path fill="#630" d="M350 384c-71 46-190 48-283 30V279c25 4 53 6 84 6 123 0 227-124 283-290L5-1082h192c109 293 229 581 326 886 105-293 205-591 307-886h190L604 0c-45 115-86 202-125 258s-83 96-129 126" id="bJ"/><g id="s"><use transform="matrix(0.00927734375,0,0,0.00927734375,0,0)" xlink:href="#bG"/><use transform="matrix(0.00927734375,0,0,0.00927734375,9.5,0)" xlink:href="#bC"/><use transform="matrix(0.00927734375,0,0,0.00927734375,13.72119140625,0)" xlink:href="#bH"/><use transform="matrix(0.00927734375,0,0,0.00927734375,29.54833984375,0)" xlink:href="#bI"/><use transform="matrix(0.00927734375,0,0,0.00927734375,40.115234375,0)" xlink:href="#bD"/><use transform="matrix(0.00927734375,0,0,0.00927734375,44.33642578125,0)" xlink:href="#bJ"/></g><path fill="#630" d="M835 0c-5-29-11-137-10-174h-4C759-45 663 20 484 20 177 20 86-201 86-536c0-377 133-566 398-566 178 1 273 67 339 188-4-187-1-380-2-570h180v1261c0 113 2 187 6 223H835zm-14-554c0-255-58-415-289-415-91 0-151 37-196 101-76 109-77 543-1 651 44 63 105 98 195 98 235 0 291-173 291-435" id="bK"/><g id="t"><use transform="matrix(0.00927734375,0,0,0.00927734375,0,0)" xlink:href="#bK"/><use transform="matrix(0.00927734375,0,0,0.00927734375,10.56689453125,0)" xlink:href="#by"/><use transform="matrix(0.00927734375,0,0,0.00927734375,21.1337890625,0)" xlink:href="#bw"/><use transform="matrix(0.00927734375,0,0,0.00927734375,31.70068359375,0)" xlink:href="#bG"/></g><path fill="#630" d="M436-1201l-330-278v-29h207l217 287v20h-94" id="bL"/><path fill="#630" d="M663-1102c251 0 343 119 343 381V0H825v-686c0-183-40-279-223-277-184 2-280 141-280 336V0H142c-3-345 6-754-6-1082h170c5 68 6 94 8 185h3c76-134 157-205 346-205" id="bM"/><g id="u"><use transform="matrix(0.00927734375,0,0,0.00927734375,0,0)" xlink:href="#bL"/><use transform="matrix(0.00927734375,0,0,0.00927734375,6.3271484375,0)" xlink:href="#bz"/><use transform="matrix(0.00927734375,0,0,0.00927734375,15.8271484375,0)" xlink:href="#by"/><use transform="matrix(0.00927734375,0,0,0.00927734375,26.39404296875,0)" xlink:href="#bM"/><use transform="matrix(0.00927734375,0,0,0.00927734375,36.9609375,0)" xlink:href="#bK"/><use transform="matrix(0.00927734375,0,0,0.00927734375,47.52783203125,0)" xlink:href="#bu"/></g><g id="v"><use transform="matrix(0.00927734375,0,0,0.00927734375,0,0)" xlink:href="#bC"/><use transform="matrix(0.00927734375,0,0,0.00927734375,4.22119140625,0)" xlink:href="#bM"/><use transform="matrix(0.00927734375,0,0,0.00927734375,14.7880859375,0)" xlink:href="#bG"/><use transform="matrix(0.00927734375,0,0,0.00927734375,24.2880859375,0)" xlink:href="#bE"/><use transform="matrix(0.00927734375,0,0,0.00927734375,29.56689453125,0)" xlink:href="#bu"/><use transform="matrix(0.00927734375,0,0,0.00927734375,40.1337890625,0)" xlink:href="#bD"/><use transform="matrix(0.00927734375,0,0,0.00927734375,44.35498046875,0)" xlink:href="#bD"/></g><path fill="#630" d="M101-571v-205l995-418v154L238-674l858 367v153" id="bN"/><path fill="#630" d="M740-934C689-691 665-619 508 0H300L-3-1082h178c78 327 154 591 226 933 77-315 163-621 243-933h193c78 311 160 619 235 933 72-318 158-621 236-933h176L1174 0H965c-74-312-158-615-225-934" id="bO"/><path fill="#630" d="M101-154v-153l858-367-858-366v-154l995 418v205" id="bP"/><g id="w"><use transform="matrix(0.00927734375,0,0,0.00927734375,0,0)" xlink:href="#bN"/><use transform="matrix(0.00927734375,0,0,0.00927734375,11.095703125,0)" xlink:href="#bG"/><use transform="matrix(0.00927734375,0,0,0.00927734375,20.595703125,0)" xlink:href="#by"/><use transform="matrix(0.00927734375,0,0,0.00927734375,31.16259765625,0)" xlink:href="#bB"/><use transform="matrix(0.00927734375,0,0,0.00927734375,36.44140625,0)" xlink:href="#bE"/><use transform="matrix(0.00927734375,0,0,0.00927734375,41.72021484375,0)" xlink:href="#bO"/><use transform="matrix(0.00927734375,0,0,0.00927734375,55.44140625,0)" xlink:href="#bu"/><use transform="matrix(0.00927734375,0,0,0.00927734375,66.00830078125,0)" xlink:href="#bA"/><use transform="matrix(0.00927734375,0,0,0.00927734375,72.33544921875,0)" xlink:href="#bw"/><use transform="matrix(0.00927734375,0,0,0.00927734375,82.90234375,0)" xlink:href="#bP"/><use transform="matrix(0.00927734375,0,0,0.00927734375,93.998046875,0)" xlink:href="#bL"/></g><g id="x"><use transform="matrix(0.00927734375,0,0,0.00927734375,0,0)" xlink:href="#bO"/><use transform="matrix(0.00927734375,0,0,0.00927734375,13.72119140625,0)" xlink:href="#bC"/><use transform="matrix(0.00927734375,0,0,0.00927734375,17.9423828125,0)" xlink:href="#bE"/><use transform="matrix(0.00927734375,0,0,0.00927734375,23.22119140625,0)" xlink:href="#bF"/></g><g id="y"><use transform="matrix(0.00927734375,0,0,0.00927734375,0,0)" xlink:href="#bE"/><use transform="matrix(0.00927734375,0,0,0.00927734375,5.27880859375,0)" xlink:href="#bF"/><use transform="matrix(0.00927734375,0,0,0.00927734375,15.845703125,0)" xlink:href="#bw"/></g><path fill="#630" d="M824-897c-1-17 6-175 12-185h171c-12 319-6 716-6 1051 0 304-151 456-453 456-226 0-374-90-417-267l181-26c24 102 112 157 241 156 179 0 269-105 269-315 0-57 3-120-2-174C759-74 647 8 472 8 339 8 242-36 180-124S86-350 86-539c0-191 33-332 100-423s169-137 306-137c167 0 273 85 332 202zm-38 579c48-119 46-331 0-450-42-108-118-197-250-197-92 0-154 37-201 100-78 107-74 530-4 643 63 101 251 129 353 47 43-35 77-81 102-143" id="bQ"/><g id="z"><use transform="matrix(0.00927734375,0,0,0.00927734375,0,0)" xlink:href="#bA"/><use transform="matrix(0.00927734375,0,0,0.00927734375,6.3271484375,0)" xlink:href="#bC"/><use transform="matrix(0.00927734375,0,0,0.00927734375,10.54833984375,0)" xlink:href="#bQ"/><use transform="matrix(0.00927734375,0,0,0.00927734375,21.115234375,0)" xlink:href="#bF"/><use transform="matrix(0.00927734375,0,0,0.00927734375,31.68212890625,0)" xlink:href="#bE"/></g><path fill="#630" d="M613 0H400L7-1082h192c109 337 207 579 307 941 97-323 214-627 320-941h191" id="bR"/><g id="A"><use transform="matrix(0.00927734375,0,0,0.00927734375,0,0)" xlink:href="#bR"/><use transform="matrix(0.00927734375,0,0,0.00927734375,9.5,0)" xlink:href="#bw"/><use transform="matrix(0.00927734375,0,0,0.00927734375,20.06689453125,0)" xlink:href="#bA"/><use transform="matrix(0.00927734375,0,0,0.00927734375,26.39404296875,0)" xlink:href="#bG"/><use transform="matrix(0.00927734375,0,0,0.00927734375,35.89404296875,0)" xlink:href="#bC"/><use transform="matrix(0.00927734375,0,0,0.00927734375,40.115234375,0)" xlink:href="#by"/><use transform="matrix(0.00927734375,0,0,0.00927734375,50.68212890625,0)" xlink:href="#bM"/></g><path fill="#600" d="M1366 0c4-412-9-843 9-1240-33 119-62 213-88 280L923 0H789L420-960c-31-92-62-184-89-280 13 403 5 827 7 1240H168v-1409h251l375 977c20 57 51 168 63 224 5-34 58-197 68-224l368-977h245V0h-172" id="bS"/><path fill="#600" d="M797-207C713-60 620 16 414 20 203 24 88-98 87-302c0-112 37-198 111-258s192-93 356-96l243-4c10-201-43-307-232-305-154 2-223 43-242 172l-188-17c31-195 175-292 434-292s410 116 410 364v466c3 95 12 159 101 161 17 0 37-2 59-7V-6c-45 11-92 16-139 16-143-2-188-76-197-217h-6zm-525-92c-1 116 66 187 183 184 230-7 361-164 342-419-124 5-305-2-389 30-83 32-136 92-136 205" id="bT"/><path fill="#600" d="M816 0L450-494 318-385V0H138v-1484h180v927l475-525h211L565-617 1027 0H816" id="bU"/><path fill="#600" d="M87-548c0-338 159-553 484-554 325-2 484 204 477 599H276c-1 227 88 385 302 388 146 2 246-65 283-166l158 45C954-65 807 20 578 20 240 20 87-193 87-548zm775-93c-19-206-90-328-294-328-185 0-285 140-290 328h584" id="bV"/><g id="B"><use transform="matrix(0.00927734375,0,0,0.00927734375,0,0)" xlink:href="#bS"/><use transform="matrix(0.00927734375,0,0,0.00927734375,15.8271484375,0)" xlink:href="#bT"/><use transform="matrix(0.00927734375,0,0,0.00927734375,26.39404296875,0)" xlink:href="#bU"/><use transform="matrix(0.00927734375,0,0,0.00927734375,35.89404296875,0)" xlink:href="#bV"/></g><path fill="#600" d="M350 384c-71 46-190 48-283 30V279c25 4 53 6 84 6 123 0 227-124 283-290L5-1082h192c109 293 229 581 326 886 105-293 205-591 307-886h190L604 0c-45 115-86 202-125 258s-83 96-129 126" id="bW"/><path fill="#600" d="M571-1102c350 0 480 196 482 560 2 357-151 562-488 562C233 20 86-198 86-542c0-373 162-560 485-560zm-8 989c244 0 301-164 301-429 0-266-49-427-290-427-239 0-299 165-299 427 0 252 61 429 288 429" id="bX"/><path fill="#600" d="M476 20C225 20 133-99 133-361v-721h181v686c0 183 40 279 223 277 184-2 280-141 280-336v-627h180c3 345-6 754 6 1082H833c-5-68-6-94-8-185h-3C746-51 665 20 476 20" id="bY"/><path fill="#600" d="M318-861c55-157 83-241 257-241 24 0 48 3 73 10v165c-24-7-56-10-96-10-75 0-132 33-171 97s-59 156-59 276V0H142c-3-364 6-725-6-1082h170c5 123 8 196 8 221h4" id="bZ"/><g id="C"><use transform="matrix(0.00927734375,0,0,0.00927734375,0,0)" xlink:href="#bW"/><use transform="matrix(0.00927734375,0,0,0.00927734375,9.5,0)" xlink:href="#bX"/><use transform="matrix(0.00927734375,0,0,0.00927734375,20.06689453125,0)" xlink:href="#bY"/><use transform="matrix(0.00927734375,0,0,0.00927734375,30.6337890625,0)" xlink:href="#bZ"/></g><path fill="#600" d="M740-934C689-691 665-619 508 0H300L-3-1082h178c78 327 154 591 226 933 77-315 163-621 243-933h193c78 311 160 619 235 933 72-318 158-621 236-933h176L1174 0H965c-74-312-158-615-225-934" id="ca"/><path fill="#600" d="M663-1102c251 0 343 119 343 381V0H825v-686c0-183-40-279-223-277-184 2-280 141-280 336V0H142c-3-345 6-754-6-1082h170c5 68 6 94 8 185h3c76-134 157-205 346-205" id="cb"/><g id="D"><use transform="matrix(0.00927734375,0,0,0.00927734375,0,0)" xlink:href="#bX"/><use transform="matrix(0.00927734375,0,0,0.00927734375,10.56689453125,0)" xlink:href="#ca"/><use transform="matrix(0.00927734375,0,0,0.00927734375,24.2880859375,0)" xlink:href="#cb"/></g><path fill="#600" d="M908-743c202 21 350 139 350 346 0 273-224 397-518 397H168v-1409h512c331 0 496 114 496 342 0 180-112 291-268 324zm-228-67c187 0 301-60 304-234 6-277-360-200-625-212v446h321zm50 657c212 0 335-66 335-259 0-166-117-249-350-249H359v508h371" id="cc"/><path fill="#600" d="M137-1312v-172h180v172H137zM137 0v-1082h180V0H137" id="cd"/><path fill="#600" d="M779-765c-19-119-93-196-233-196-95 0-164 32-207 95s-64 170-64 320c0 144 23 251 68 320s114 104 205 104c139 0 224-79 240-212l182 12C946-119 781 22 553 20 230 17 87-201 87-542c0-338 145-557 464-560 225-1 380 129 413 323" id="ce"/><path fill="#600" d="M835 0c-5-29-11-137-10-174h-4C759-45 663 20 484 20 177 20 86-201 86-536c0-377 133-566 398-566 178 1 273 67 339 188-4-187-1-380-2-570h180v1261c0 113 2 187 6 223H835zm-14-554c0-255-58-415-289-415-91 0-151 37-196 101-76 109-77 543-1 651 44 63 105 98 195 98 235 0 291-173 291-435" id="cf"/><g id="E"><use transform="matrix(0.00927734375,0,0,0.00927734375,0,0)" xlink:href="#cc"/><use transform="matrix(0.00927734375,0,0,0.00927734375,12.6728515625,0)" xlink:href="#cd"/><use transform="matrix(0.00927734375,0,0,0.00927734375,16.89404296875,0)" xlink:href="#bX"/><use transform="matrix(0.00927734375,0,0,0.00927734375,27.4609375,0)" xlink:href="#ce"/><use transform="matrix(0.00927734375,0,0,0.00927734375,36.9609375,0)" xlink:href="#bX"/><use transform="matrix(0.00927734375,0,0,0.00927734375,47.52783203125,0)" xlink:href="#cb"/><use transform="matrix(0.00927734375,0,0,0.00927734375,58.0947265625,0)" xlink:href="#cf"/><use transform="matrix(0.00927734375,0,0,0.00927734375,68.66162109375,0)" xlink:href="#bT"/></g><path fill="#600" d="M320-908c63-128 152-193 335-193 133 0 233 45 299 134s99 230 99 421c0 377-133 566-398 566-167 0-279-63-336-188h-5c8 141 2 428 4 593H138V-861c0-111-2-185-6-221h174c5 33 9 134 10 174h4zm-2 380c0 254 57 415 289 415 89 0 149-37 195-99 76-105 79-547 1-653-45-62-105-97-194-97-243 1-291 184-291 434" id="cg"/><g id="F"><use transform="matrix(0.00927734375,0,0,0.00927734375,0,0)" xlink:href="#bZ"/><use transform="matrix(0.00927734375,0,0,0.00927734375,6.3271484375,0)" xlink:href="#bV"/><use transform="matrix(0.00927734375,0,0,0.00927734375,16.89404296875,0)" xlink:href="#ce"/><use transform="matrix(0.00927734375,0,0,0.00927734375,26.39404296875,0)" xlink:href="#cd"/><use transform="matrix(0.00927734375,0,0,0.00927734375,30.615234375,0)" xlink:href="#cg"/><use transform="matrix(0.00927734375,0,0,0.00927734375,41.18212890625,0)" xlink:href="#bV"/></g><g id="G"><use transform="matrix(0.00927734375,0,0,0.00927734375,0,0)" xlink:href="#bX"/><use transform="matrix(0.00927734375,0,0,0.00927734375,10.56689453125,0)" xlink:href="#bZ"/></g><path fill="#600" d="M634-1409c461-4 751 239 747 690-4 441-249 719-686 719H168v-1409h466zm39 1256c337-8 514-222 516-566 2-353-203-539-559-537H359v1103h314" id="ch"/><path fill="#600" d="M492-1341c-103 3-130 49-131 162v97h211v131H361V0H181v-951H29v-131h152v-122c0-192 78-276 264-278 50 0 92 4 127 12v137c-30-5-57-8-80-8" id="ci"/><path fill="#600" d="M138 0v-1484h180V0H138" id="cj"/><g id="H"><use transform="matrix(0.00927734375,0,0,0.00927734375,0,0)" xlink:href="#ch"/><use transform="matrix(0.00927734375,0,0,0.00927734375,13.72119140625,0)" xlink:href="#bX"/><use transform="matrix(0.00927734375,0,0,0.00927734375,24.2880859375,0)" xlink:href="#ce"/><use transform="matrix(0.00927734375,0,0,0.00927734375,33.7880859375,0)" xlink:href="#bU"/><use transform="matrix(0.00927734375,0,0,0.00927734375,43.2880859375,0)" xlink:href="#bV"/><use transform="matrix(0.00927734375,0,0,0.00927734375,53.85498046875,0)" xlink:href="#bZ"/><use transform="matrix(0.00927734375,0,0,0.00927734375,60.18212890625,0)" xlink:href="#ci"/><use transform="matrix(0.00927734375,0,0,0.00927734375,65.4609375,0)" xlink:href="#cd"/><use transform="matrix(0.00927734375,0,0,0.00927734375,69.68212890625,0)" xlink:href="#cj"/><use transform="matrix(0.00927734375,0,0,0.00927734375,73.9033203125,0)" xlink:href="#bV"/></g><g id="I"><use transform="matrix(0.00927734375,0,0,0.00927734375,0,0)" xlink:href="#bT"/><use transform="matrix(0.00927734375,0,0,0.00927734375,10.56689453125,0)" xlink:href="#cb"/><use transform="matrix(0.00927734375,0,0,0.00927734375,21.1337890625,0)" xlink:href="#cf"/></g><path fill="#600" d="M655-1102c307 0 398 221 398 556 0 377-133 566-398 566-180 0-272-66-339-188 1 22-7 151-10 168H132c4-36 6-110 6-223v-1261h180c-2 196 4 384-4 576h4c62-129 158-194 337-194zM318-529c0 254 57 416 289 416 91 0 152-37 197-101 76-109 76-543 0-651-44-63-105-98-195-98-236 0-291 169-291 434" id="ck"/><path fill="#600" d="M513-963c-139 1-238 29-238 149 0 72 41 100 95 127 55 27 348 94 404 125 101 56 176 118 176 263C950-73 758 21 511 20 254 19 107-55 57-254l159-31c34 123 133 168 295 168 156 0 264-34 264-168 0-156-183-165-315-204-171-51-245-68-323-172-26-35-37-82-37-135 0-220 172-304 413-303 232 1 379 74 418 265l-162 20c-23-104-122-150-256-149" id="cl"/><path fill="#600" d="M322-1484c-2 195 6 405-8 587h3c73-129 159-205 346-205 250 0 342 118 343 381V0H825v-686c3-190-43-277-223-277-176-1-280 140-280 325V0H142v-1484h180" id="cm"/><g id="J"><use transform="matrix(0.00927734375,0,0,0.00927734375,0,0)" xlink:href="#cg"/><use transform="matrix(0.00927734375,0,0,0.00927734375,10.56689453125,0)" xlink:href="#bY"/><use transform="matrix(0.00927734375,0,0,0.00927734375,21.1337890625,0)" xlink:href="#ck"/><use transform="matrix(0.00927734375,0,0,0.00927734375,31.70068359375,0)" xlink:href="#cj"/><use transform="matrix(0.00927734375,0,0,0.00927734375,35.921875,0)" xlink:href="#cd"/><use transform="matrix(0.00927734375,0,0,0.00927734375,40.14306640625,0)" xlink:href="#cl"/><use transform="matrix(0.00927734375,0,0,0.00927734375,49.64306640625,0)" xlink:href="#cm"/></g><path fill="#600" d="M336-268c2 98 22 139 114 141 24 0 59-5 104-14V-8C495 8 434 16 372 16c-144 0-216-82-216-245v-722H31v-131h132l53-242h120v242h200v131H336v683" id="cn"/><g id="K"><use transform="matrix(0.00927734375,0,0,0.00927734375,0,0)" xlink:href="#cd"/><use transform="matrix(0.00927734375,0,0,0.00927734375,4.22119140625,0)" xlink:href="#cn"/></g><path fill="#600" d="M777-584V0H587v-584L45-1409h210l429 671 427-671h210" id="co"/><g id="L"><use transform="matrix(0.00927734375,0,0,0.00927734375,0,0)" xlink:href="#co"/><use transform="matrix(0.00927734375,0,0,0.00927734375,10.9287109375,0)" xlink:href="#bX"/><use transform="matrix(0.00927734375,0,0,0.00927734375,21.49560546875,0)" xlink:href="#bY"/></g><g id="M"><use transform="matrix(0.00927734375,0,0,0.00927734375,0,0)" xlink:href="#ce"/><use transform="matrix(0.00927734375,0,0,0.00927734375,9.5,0)" xlink:href="#bT"/><use transform="matrix(0.00927734375,0,0,0.00927734375,20.06689453125,0)" xlink:href="#cb"/></g><g id="N"><use transform="matrix(0.00927734375,0,0,0.00927734375,0,0)" xlink:href="#cn"/><use transform="matrix(0.00927734375,0,0,0.00927734375,5.27880859375,0)" xlink:href="#cm"/><use transform="matrix(0.00927734375,0,0,0.00927734375,15.845703125,0)" xlink:href="#bT"/><use transform="matrix(0.00927734375,0,0,0.00927734375,26.41259765625,0)" xlink:href="#cb"/><use transform="matrix(0.00927734375,0,0,0.00927734375,36.9794921875,0)" xlink:href="#bU"/></g><g id="O"><use transform="matrix(0.00927734375,0,0,0.00927734375,0,0)" xlink:href="#cn"/><use transform="matrix(0.00927734375,0,0,0.00927734375,5.27880859375,0)" xlink:href="#cm"/><use transform="matrix(0.00927734375,0,0,0.00927734375,15.845703125,0)" xlink:href="#bV"/></g><path fill="#600" d="M1195-963c-175 0-249 144-249 336V0H768v-686c-5-190-26-277-198-277-171 0-249 147-249 336V0H142c-3-345 6-754-6-1082h170c5 68 6 94 8 185h3c69-134 140-205 316-205 171 0 257 66 294 205h3c67-129 152-205 328-205 238 0 313 127 313 381V0h-178v-686c-5-190-26-277-198-277" id="cp"/><path fill="#600" d="M187 0v-219h195V0H187" id="cq"/><g id="P"><use transform="matrix(0.00927734375,0,0,0.00927734375,0,0)" xlink:href="#ce"/><use transform="matrix(0.00927734375,0,0,0.00927734375,9.5,0)" xlink:href="#bX"/><use transform="matrix(0.00927734375,0,0,0.00927734375,20.06689453125,0)" xlink:href="#cp"/><use transform="matrix(0.00927734375,0,0,0.00927734375,35.89404296875,0)" xlink:href="#cp"/><use transform="matrix(0.00927734375,0,0,0.00927734375,51.72119140625,0)" xlink:href="#bY"/><use transform="matrix(0.00927734375,0,0,0.00927734375,62.2880859375,0)" xlink:href="#cb"/><use transform="matrix(0.00927734375,0,0,0.00927734375,72.85498046875,0)" xlink:href="#cd"/><use transform="matrix(0.00927734375,0,0,0.00927734375,77.076171875,0)" xlink:href="#cn"/><use transform="matrix(0.00927734375,0,0,0.00927734375,82.35498046875,0)" xlink:href="#bW"/><use transform="matrix(0.00927734375,0,0,0.00927734375,90.44482421875,0)" xlink:href="#cq"/></g><path fill="#600" d="M1321-530c-7 359-228 550-590 550-350 0-573-184-573-532v-897h191v881c-2 253 132 393 381 393 255 0 401-146 401-406v-868h190v879" id="cr"/><g id="Q"><use transform="matrix(0.00927734375,0,0,0.00927734375,0,0)" xlink:href="#cr"/><use transform="matrix(0.00927734375,0,0,0.00927734375,13.72119140625,0)" xlink:href="#cl"/><use transform="matrix(0.00927734375,0,0,0.00927734375,23.22119140625,0)" xlink:href="#bV"/></g><g id="R"><use transform="matrix(0.00927734375,0,0,0.00927734375,0,0)" xlink:href="#ch"/><use transform="matrix(0.00927734375,0,0,0.00927734375,13.72119140625,0)" xlink:href="#bX"/><use transform="matrix(0.00927734375,0,0,0.00927734375,24.2880859375,0)" xlink:href="#ce"/><use transform="matrix(0.00927734375,0,0,0.00927734375,33.7880859375,0)" xlink:href="#bU"/><use transform="matrix(0.00927734375,0,0,0.00927734375,43.2880859375,0)" xlink:href="#bV"/><use transform="matrix(0.00927734375,0,0,0.00927734375,53.85498046875,0)" xlink:href="#bZ"/></g><g id="S"><use transform="matrix(0.00927734375,0,0,0.00927734375,0,0)" xlink:href="#ce"/><use transform="matrix(0.00927734375,0,0,0.00927734375,9.5,0)" xlink:href="#bX"/><use transform="matrix(0.00927734375,0,0,0.00927734375,20.06689453125,0)" xlink:href="#cb"/><use transform="matrix(0.00927734375,0,0,0.00927734375,30.6337890625,0)" xlink:href="#cn"/><use transform="matrix(0.00927734375,0,0,0.00927734375,35.91259765625,0)" xlink:href="#bT"/><use transform="matrix(0.00927734375,0,0,0.00927734375,46.4794921875,0)" xlink:href="#cd"/><use transform="matrix(0.00927734375,0,0,0.00927734375,50.70068359375,0)" xlink:href="#cb"/><use transform="matrix(0.00927734375,0,0,0.00927734375,61.267578125,0)" xlink:href="#bV"/><use transform="matrix(0.00927734375,0,0,0.00927734375,71.83447265625,0)" xlink:href="#bZ"/></g><path fill="#600" d="M385-51c0 144-24 223-78 313H184c63-91 94-178 94-262h-88v-219h195v168" id="cs"/><g id="T"><use transform="matrix(0.00927734375,0,0,0.00927734375,0,0)" xlink:href="#bX"/><use transform="matrix(0.00927734375,0,0,0.00927734375,10.56689453125,0)" xlink:href="#cb"/><use transform="matrix(0.00927734375,0,0,0.00927734375,21.1337890625,0)" xlink:href="#cj"/><use transform="matrix(0.00927734375,0,0,0.00927734375,25.35498046875,0)" xlink:href="#bW"/><use transform="matrix(0.00927734375,0,0,0.00927734375,33.44482421875,0)" xlink:href="#cs"/></g><path fill="#600" d="M266-966H125l-21-443h184" id="ct"/><g id="U"><use transform="matrix(0.00927734375,0,0,0.00927734375,0,0)" xlink:href="#cf"/><use transform="matrix(0.00927734375,0,0,0.00927734375,10.56689453125,0)" xlink:href="#bX"/><use transform="matrix(0.00927734375,0,0,0.00927734375,21.1337890625,0)" xlink:href="#cb"/><use transform="matrix(0.00927734375,0,0,0.00927734375,31.70068359375,0)" xlink:href="#ct"/><use transform="matrix(0.00927734375,0,0,0.00927734375,35.328125,0)" xlink:href="#cn"/></g><g id="V"><use transform="matrix(0.00927734375,0,0,0.00927734375,0,0)" xlink:href="#ck"/><use transform="matrix(0.00927734375,0,0,0.00927734375,10.56689453125,0)" xlink:href="#bX"/><use transform="matrix(0.00927734375,0,0,0.00927734375,21.1337890625,0)" xlink:href="#cn"/><use transform="matrix(0.00927734375,0,0,0.00927734375,26.41259765625,0)" xlink:href="#cm"/><use transform="matrix(0.00927734375,0,0,0.00927734375,36.9794921875,0)" xlink:href="#bV"/><use transform="matrix(0.00927734375,0,0,0.00927734375,47.54638671875,0)" xlink:href="#bZ"/></g><g id="W"><use transform="matrix(0.00927734375,0,0,0.00927734375,0,0)" xlink:href="#ca"/><use transform="matrix(0.00927734375,0,0,0.00927734375,13.72119140625,0)" xlink:href="#cd"/><use transform="matrix(0.00927734375,0,0,0.00927734375,17.9423828125,0)" xlink:href="#cn"/><use transform="matrix(0.00927734375,0,0,0.00927734375,23.22119140625,0)" xlink:href="#cm"/></g><path fill="#600" d="M1207-1021c-59-155-207-253-415-253-322-2-494 232-494 563 0 326 186 574 502 574 197 0 346-98 445-293l156 78C1298-131 1096 20 791 20c-448 0-682-279-687-731-5-437 254-721 686-719 309 2 507 125 598 349" id="cu"/><g id="X"><use transform="matrix(0.00927734375,0,0,0.00927734375,0,0)" xlink:href="#cu"/><use transform="matrix(0.00927734375,0,0,0.00927734375,13.72119140625,0)" xlink:href="#bX"/><use transform="matrix(0.00927734375,0,0,0.00927734375,24.2880859375,0)" xlink:href="#cb"/><use transform="matrix(0.00927734375,0,0,0.00927734375,34.85498046875,0)" xlink:href="#cf"/><use transform="matrix(0.00927734375,0,0,0.00927734375,45.421875,0)" xlink:href="#bT"/></g><g id="Y"><use transform="matrix(0.00927734375,0,0,0.00927734375,0,0)" xlink:href="#ck"/><use transform="matrix(0.00927734375,0,0,0.00927734375,10.56689453125,0)" xlink:href="#bX"/><use transform="matrix(0.00927734375,0,0,0.00927734375,21.1337890625,0)" xlink:href="#cn"/><use transform="matrix(0.00927734375,0,0,0.00927734375,26.41259765625,0)" xlink:href="#cm"/></g><path fill="#600" d="M824-897c-1-17 6-175 12-185h171c-12 319-6 716-6 1051 0 304-151 456-453 456-226 0-374-90-417-267l181-26c24 102 112 157 241 156 179 0 269-105 269-315 0-57 3-120-2-174C759-74 647 8 472 8 339 8 242-36 180-124S86-350 86-539c0-191 33-332 100-423s169-137 306-137c167 0 273 85 332 202zm-38 579c48-119 46-331 0-450-42-108-118-197-250-197-92 0-154 37-201 100-78 107-74 530-4 643 63 101 251 129 353 47 43-35 77-81 102-143" id="cv"/><g id="Z"><use transform="matrix(0.00927734375,0,0,0.00927734375,0,0)" xlink:href="#cd"/><use transform="matrix(0.00927734375,0,0,0.00927734375,4.22119140625,0)" xlink:href="#cp"/><use transform="matrix(0.00927734375,0,0,0.00927734375,20.04833984375,0)" xlink:href="#bT"/><use transform="matrix(0.00927734375,0,0,0.00927734375,30.615234375,0)" xlink:href="#cv"/><use transform="matrix(0.00927734375,0,0,0.00927734375,41.18212890625,0)" xlink:href="#bV"/></g><g id="aa"><use transform="matrix(0.00927734375,0,0,0.00927734375,0,0)" xlink:href="#bT"/><use transform="matrix(0.00927734375,0,0,0.00927734375,10.56689453125,0)" xlink:href="#cb"/><use transform="matrix(0.00927734375,0,0,0.00927734375,21.1337890625,0)" xlink:href="#cf"/></g><g id="ab"><use transform="matrix(0.00927734375,0,0,0.00927734375,0,0)" xlink:href="#cu"/><use transform="matrix(0.00927734375,0,0,0.00927734375,13.72119140625,0)" xlink:href="#bX"/><use transform="matrix(0.00927734375,0,0,0.00927734375,24.2880859375,0)" xlink:href="#cb"/><use transform="matrix(0.00927734375,0,0,0.00927734375,34.85498046875,0)" xlink:href="#cf"/><use transform="matrix(0.00927734375,0,0,0.00927734375,45.421875,0)" xlink:href="#bT"/></g><g id="ac"><use transform="matrix(0.00927734375,0,0,0.00927734375,0,0)" xlink:href="#cg"/><use transform="matrix(0.00927734375,0,0,0.00927734375,10.56689453125,0)" xlink:href="#bT"/><use transform="matrix(0.00927734375,0,0,0.00927734375,21.1337890625,0)" xlink:href="#ce"/><use transform="matrix(0.00927734375,0,0,0.00927734375,30.6337890625,0)" xlink:href="#bU"/><use transform="matrix(0.00927734375,0,0,0.00927734375,40.1337890625,0)" xlink:href="#bT"/><use transform="matrix(0.00927734375,0,0,0.00927734375,50.70068359375,0)" xlink:href="#cv"/><use transform="matrix(0.00927734375,0,0,0.00927734375,61.267578125,0)" xlink:href="#bV"/></g><path fill="#630" d="M831-578V0H537v-578L35-1409h309l338 596 342-596h309" id="cw"/><path fill="#630" d="M137 0v-1409h1108v228H432v354h752v228H432v371h854V0H137" id="cx"/><path fill="#630" d="M963-1038c-32-126-120-183-283-183-179 0-268 56-268 168 0 86 48 119 113 149 80 38 447 109 517 142 145 68 244 156 244 356 0 138-55 238-154 316C960 46 446 53 257-76 157-144 88-237 59-367l285-47c41 153 150 213 346 213 206 0 309-63 309-188 0-94-62-130-135-164-58-27-400-96-468-123-154-61-270-150-271-360 0-127 47-224 143-292s235-102 418-102c336 0 504 85 563 353" id="cy"/><g id="ad"><use transform="matrix(0.00732421875,0,0,0.00732421875,0,0)" xlink:href="#cw"/><use transform="matrix(0.00732421875,0,0,0.00732421875,10.0048828125,0)" xlink:href="#cx"/><use transform="matrix(0.00732421875,0,0,0.00732421875,20.009765625,0)" xlink:href="#cy"/></g><path fill="#630" d="M189 0v-1409h191V0H189" id="cz"/><g id="ae"><use transform="matrix(0.00927734375,0,0,0.00927734375,0,0)" xlink:href="#cz"/><use transform="matrix(0.00927734375,0,0,0.00927734375,5.27880859375,0)" xlink:href="#bG"/></g><g id="af"><use transform="matrix(0.00927734375,0,0,0.00927734375,0,0)" xlink:href="#bE"/><use transform="matrix(0.00927734375,0,0,0.00927734375,5.27880859375,0)" xlink:href="#bF"/><use transform="matrix(0.00927734375,0,0,0.00927734375,15.845703125,0)" xlink:href="#bw"/></g><g id="ag"><use transform="matrix(0.00927734375,0,0,0.00927734375,0,0)" xlink:href="#bG"/><use transform="matrix(0.00927734375,0,0,0.00927734375,9.5,0)" xlink:href="#by"/><use transform="matrix(0.00927734375,0,0,0.00927734375,20.06689453125,0)" xlink:href="#bB"/><use transform="matrix(0.00927734375,0,0,0.00927734375,25.345703125,0)" xlink:href="#bE"/><use transform="matrix(0.00927734375,0,0,0.00927734375,30.62451171875,0)" xlink:href="#bO"/><use transform="matrix(0.00927734375,0,0,0.00927734375,44.345703125,0)" xlink:href="#bu"/><use transform="matrix(0.00927734375,0,0,0.00927734375,54.91259765625,0)" xlink:href="#bA"/><use transform="matrix(0.00927734375,0,0,0.00927734375,61.23974609375,0)" xlink:href="#bw"/></g><g id="ah"><use transform="matrix(0.00927734375,0,0,0.00927734375,0,0)" xlink:href="#bC"/><use transform="matrix(0.00927734375,0,0,0.00927734375,4.22119140625,0)" xlink:href="#bM"/></g><path fill="#630" d="M1207-1021c-59-155-207-253-415-253-322-2-494 232-494 563 0 326 186 574 502 574 197 0 346-98 445-293l156 78C1298-131 1096 20 791 20c-448 0-682-279-687-731-5-437 254-721 686-719 309 2 507 125 598 349" id="cA"/><g id="ai"><use transform="matrix(0.00927734375,0,0,0.00927734375,0,0)" xlink:href="#cA"/><use transform="matrix(0.00927734375,0,0,0.00927734375,13.72119140625,0)" xlink:href="#by"/><use transform="matrix(0.00927734375,0,0,0.00927734375,24.2880859375,0)" xlink:href="#bM"/><use transform="matrix(0.00927734375,0,0,0.00927734375,34.85498046875,0)" xlink:href="#bK"/><use transform="matrix(0.00927734375,0,0,0.00927734375,45.421875,0)" xlink:href="#bu"/></g><path fill="#630" d="M584-1430c276 0 479 135 479 398 0 108-36 179-85 243-69 90-258 181-321 287-23 38-35 80-36 125H446c6-271 238-318 368-465 39-44 67-100 67-182-1-162-123-246-295-246-184 0-300 100-318 262l-184-12c32-258 212-410 500-410zM438 0v-201h195V0H438" id="cB"/><use transform="matrix(0.00927734375,0,0,0.00927734375,0,0)" xlink:href="#cB" id="aj"/><g id="ak"><use transform="matrix(0.00927734375,0,0,0.00927734375,0,0)" xlink:href="#cA"/><use transform="matrix(0.00927734375,0,0,0.00927734375,13.72119140625,0)" xlink:href="#bu"/><use transform="matrix(0.00927734375,0,0,0.00927734375,24.2880859375,0)" xlink:href="#bM"/></g><path fill="#630" d="M476 20C225 20 133-99 133-361v-721h181v686c0 183 40 279 223 277 184-2 280-141 280-336v-627h180c3 345-6 754 6 1082H833c-5-68-6-94-8-185h-3C746-51 665 20 476 20" id="cC"/><g id="al"><use transform="matrix(0.00927734375,0,0,0.00927734375,0,0)" xlink:href="#bu"/><use transform="matrix(0.00927734375,0,0,0.00927734375,10.56689453125,0)" xlink:href="#cC"/><use transform="matrix(0.00927734375,0,0,0.00927734375,21.1337890625,0)" xlink:href="#bE"/><use transform="matrix(0.00927734375,0,0,0.00927734375,26.41259765625,0)" xlink:href="#bF"/><use transform="matrix(0.00927734375,0,0,0.00927734375,36.9794921875,0)" xlink:href="#by"/><use transform="matrix(0.00927734375,0,0,0.00927734375,47.54638671875,0)" xlink:href="#bA"/><use transform="matrix(0.00927734375,0,0,0.00927734375,53.87353515625,0)" xlink:href="#bG"/></g><g id="am"><use transform="matrix(0.00927734375,0,0,0.00927734375,0,0)" xlink:href="#bu"/><use transform="matrix(0.00927734375,0,0,0.00927734375,10.56689453125,0)" xlink:href="#bK"/><use transform="matrix(0.00927734375,0,0,0.00927734375,21.1337890625,0)" xlink:href="#bK"/></g><g id="an"><use transform="matrix(0.00927734375,0,0,0.00927734375,0,0)" xlink:href="#bC"/><use transform="matrix(0.00927734375,0,0,0.00927734375,4.22119140625,0)" xlink:href="#bE"/></g><g id="ao"><use transform="matrix(0.00927734375,0,0,0.00927734375,0,0)" xlink:href="#bE"/><use transform="matrix(0.00927734375,0,0,0.00927734375,5.27880859375,0)" xlink:href="#by"/></g><g id="ap"><use transform="matrix(0.00927734375,0,0,0.00927734375,0,0)" xlink:href="#cA"/><use transform="matrix(0.00927734375,0,0,0.00927734375,13.72119140625,0)" xlink:href="#by"/><use transform="matrix(0.00927734375,0,0,0.00927734375,24.2880859375,0)" xlink:href="#bM"/><use transform="matrix(0.00927734375,0,0,0.00927734375,34.85498046875,0)" xlink:href="#bK"/><use transform="matrix(0.00927734375,0,0,0.00927734375,45.421875,0)" xlink:href="#bu"/></g><path fill="#630" d="M0 20l411-1504h158L162 20H0" id="cD"/><g id="aq"><use transform="matrix(0.00927734375,0,0,0.00927734375,0,0)" xlink:href="#bu"/><use transform="matrix(0.00927734375,0,0,0.00927734375,10.56689453125,0)" xlink:href="#bM"/><use transform="matrix(0.00927734375,0,0,0.00927734375,21.1337890625,0)" xlink:href="#bK"/><use transform="matrix(0.00927734375,0,0,0.00927734375,31.70068359375,0)" xlink:href="#cD"/><use transform="matrix(0.00927734375,0,0,0.00927734375,36.9794921875,0)" xlink:href="#by"/><use transform="matrix(0.00927734375,0,0,0.00927734375,47.54638671875,0)" xlink:href="#bA"/></g><g id="ar"><use transform="matrix(0.00927734375,0,0,0.00927734375,0,0)" xlink:href="#bx"/><use transform="matrix(0.00927734375,0,0,0.00927734375,13.72119140625,0)" xlink:href="#by"/><use transform="matrix(0.00927734375,0,0,0.00927734375,24.2880859375,0)" xlink:href="#bz"/><use transform="matrix(0.00927734375,0,0,0.00927734375,33.7880859375,0)" xlink:href="#bv"/><use transform="matrix(0.00927734375,0,0,0.00927734375,43.2880859375,0)" xlink:href="#bw"/><use transform="matrix(0.00927734375,0,0,0.00927734375,53.85498046875,0)" xlink:href="#bA"/></g><g id="as"><use transform="matrix(0.00927734375,0,0,0.00927734375,0,0)" xlink:href="#bJ"/><use transform="matrix(0.00927734375,0,0,0.00927734375,9.5,0)" xlink:href="#by"/><use transform="matrix(0.00927734375,0,0,0.00927734375,20.06689453125,0)" xlink:href="#cC"/></g><g id="at"><use transform="matrix(0.00927734375,0,0,0.00927734375,0,0)" xlink:href="#bB"/><use transform="matrix(0.00927734375,0,0,0.00927734375,5.27880859375,0)" xlink:href="#bC"/><use transform="matrix(0.00927734375,0,0,0.00927734375,9.5,0)" xlink:href="#bM"/><use transform="matrix(0.00927734375,0,0,0.00927734375,20.06689453125,0)" xlink:href="#bK"/></g><g id="au"><use transform="matrix(0.00927734375,0,0,0.00927734375,0,0)" xlink:href="#bz"/><use transform="matrix(0.00927734375,0,0,0.00927734375,9.5,0)" xlink:href="#by"/><use transform="matrix(0.00927734375,0,0,0.00927734375,20.06689453125,0)" xlink:href="#bM"/><use transform="matrix(0.00927734375,0,0,0.00927734375,30.6337890625,0)" xlink:href="#bE"/><use transform="matrix(0.00927734375,0,0,0.00927734375,35.91259765625,0)" xlink:href="#bu"/><use transform="matrix(0.00927734375,0,0,0.00927734375,46.4794921875,0)" xlink:href="#bC"/><use transform="matrix(0.00927734375,0,0,0.00927734375,50.70068359375,0)" xlink:href="#bM"/><use transform="matrix(0.00927734375,0,0,0.00927734375,61.267578125,0)" xlink:href="#bw"/><use transform="matrix(0.00927734375,0,0,0.00927734375,71.83447265625,0)" xlink:href="#bA"/></g><g id="av"><use transform="matrix(0.00927734375,0,0,0.00927734375,0,0)" xlink:href="#bC"/><use transform="matrix(0.00927734375,0,0,0.00927734375,4.22119140625,0)" xlink:href="#bM"/><use transform="matrix(0.00927734375,0,0,0.00927734375,14.7880859375,0)" xlink:href="#bG"/><use transform="matrix(0.00927734375,0,0,0.00927734375,24.2880859375,0)" xlink:href="#bE"/><use transform="matrix(0.00927734375,0,0,0.00927734375,29.56689453125,0)" xlink:href="#bu"/><use transform="matrix(0.00927734375,0,0,0.00927734375,40.1337890625,0)" xlink:href="#bD"/><use transform="matrix(0.00927734375,0,0,0.00927734375,44.35498046875,0)" xlink:href="#bD"/><use transform="matrix(0.00927734375,0,0,0.00927734375,48.576171875,0)" xlink:href="#bG"/></g><g id="aw"><use transform="matrix(0.00927734375,0,0,0.00927734375,0,0)" xlink:href="#bI"/><use transform="matrix(0.00927734375,0,0,0.00927734375,10.56689453125,0)" xlink:href="#bu"/><use transform="matrix(0.00927734375,0,0,0.00927734375,21.1337890625,0)" xlink:href="#bz"/><use transform="matrix(0.00927734375,0,0,0.00927734375,30.6337890625,0)" xlink:href="#bv"/><use transform="matrix(0.00927734375,0,0,0.00927734375,40.1337890625,0)" xlink:href="#bu"/><use transform="matrix(0.00927734375,0,0,0.00927734375,50.70068359375,0)" xlink:href="#bQ"/><use transform="matrix(0.00927734375,0,0,0.00927734375,61.267578125,0)" xlink:href="#bw"/></g><path fill="#630" d="M496 424C268 175 127-92 127-532c0-438 143-704 369-952h174c-222 249-362 524-362 954 0 431 138 703 362 954H496" id="cE"/><g id="ax"><use transform="matrix(0.00927734375,0,0,0.00927734375,0,0)" xlink:href="#cE"/><use transform="matrix(0.00927734375,0,0,0.00927734375,6.3271484375,0)" xlink:href="#bu"/><use transform="matrix(0.00927734375,0,0,0.00927734375,16.89404296875,0)" xlink:href="#bM"/><use transform="matrix(0.00927734375,0,0,0.00927734375,27.4609375,0)" xlink:href="#bK"/></g><g id="ay"><use transform="matrix(0.00927734375,0,0,0.00927734375,0,0)" xlink:href="#bA"/><use transform="matrix(0.00927734375,0,0,0.00927734375,6.3271484375,0)" xlink:href="#bC"/><use transform="matrix(0.00927734375,0,0,0.00927734375,10.54833984375,0)" xlink:href="#bQ"/><use transform="matrix(0.00927734375,0,0,0.00927734375,21.115234375,0)" xlink:href="#bF"/><use transform="matrix(0.00927734375,0,0,0.00927734375,31.68212890625,0)" xlink:href="#bE"/></g><path fill="#630" d="M186-1484c228 249 369 516 369 956 0 438-143 704-369 952H12C235 172 374-97 374-530c0-431-140-704-362-954h174" id="cF"/><g id="az"><use transform="matrix(0.00927734375,0,0,0.00927734375,0,0)" xlink:href="#bR"/><use transform="matrix(0.00927734375,0,0,0.00927734375,9.5,0)" xlink:href="#bw"/><use transform="matrix(0.00927734375,0,0,0.00927734375,20.06689453125,0)" xlink:href="#bA"/><use transform="matrix(0.00927734375,0,0,0.00927734375,26.39404296875,0)" xlink:href="#bG"/><use transform="matrix(0.00927734375,0,0,0.00927734375,35.89404296875,0)" xlink:href="#bC"/><use transform="matrix(0.00927734375,0,0,0.00927734375,40.115234375,0)" xlink:href="#by"/><use transform="matrix(0.00927734375,0,0,0.00927734375,50.68212890625,0)" xlink:href="#bM"/><use transform="matrix(0.00927734375,0,0,0.00927734375,61.2490234375,0)" xlink:href="#cF"/></g><path fill="#fff" d="M963-1038c-32-126-120-183-283-183-179 0-268 56-268 168 0 86 48 119 113 149 80 38 447 109 517 142 145 68 244 156 244 356 0 138-55 238-154 316C960 46 446 53 257-76 157-144 88-237 59-367l285-47c41 153 150 213 346 213 206 0 309-63 309-188 0-94-62-130-135-164-58-27-400-96-468-123-154-61-270-150-271-360 0-127 47-224 143-292s235-102 418-102c336 0 504 85 563 353" id="cG"/><path fill="#fff" d="M627-1102c355 0 544 203 544 560 0 345-207 562-550 562C283 20 80-201 80-542c0-343 204-560 547-560zM375-542c0 208 60 370 243 370 173 0 259-123 259-370 0-129-21-222-63-280s-103-87-183-87c-171 0-256 122-256 367" id="cH"/><path fill="#fff" d="M604-1296c-97 2-130 31-131 129v85h213v190H473V0H193v-892H35v-190h158v-113c1-202 109-289 315-289 53 0 112 5 178 16v181c-27-6-55-9-82-9" id="cI"/><path fill="#fff" d="M440-330c0 98 31 152 123 154 22 0 53-5 94-14v174C588 7 509 18 420 18c-170-1-258-95-258-272v-638H25v-190h151l88-254h176v254h205v190H440v562" id="cJ"/><path fill="#fff" d="M1313 0h-297c-77-314-153-545-219-882C730-580 647-294 571 0H274L-6-1082h264l178 827c55-291 140-551 209-827h301c70 285 147 527 207 827 59-278 123-551 184-827h260" id="cK"/><path fill="#fff" d="M972 12c-145 0-202-73-217-205h-6C670-51 552 20 393 20 187 20 58-100 60-306c3-242 172-345 427-346l233-4c5-152-16-266-158-264-112 2-147 49-160 153l-293-14c38-217 204-321 465-321 262 0 427 133 427 388v394c3 101 7 160 89 160 21 0 42-2 62-6v152c-57 15-108 27-180 26zM483-176c165 0 247-140 237-325-89 1-231-1-283 23-55 25-84 70-84 150 0 94 44 152 130 152" id="cL"/><path fill="#fff" d="M646-868c-165 0-222 146-222 337V0H143c-4-356 8-741-8-1082h268c4 15 14 211 13 231h4c48-123 63-177 149-229 44-27 147-31 197-8v235c-45-10-85-15-120-15" id="cM"/><path fill="#fff" d="M375-487c-1 185 60 319 225 319 99 0 162-43 188-129l265 23C976-78 821 20 586 20 247 19 80-194 80-546c0-344 176-559 510-556 341 3 483 247 479 615H375zm422-176c-8-153-68-262-211-262-144 0-206 112-209 262h420" id="cN"/><g id="aA"><use transform="matrix(0.00927734375,0,0,0.00927734375,0,0)" xlink:href="#cG"/><use transform="matrix(0.00927734375,0,0,0.00927734375,12.6728515625,0)" xlink:href="#cH"/><use transform="matrix(0.00927734375,0,0,0.00927734375,24.27880859375,0)" xlink:href="#cI"/><use transform="matrix(0.00927734375,0,0,0.00927734375,30.60595703125,0)" xlink:href="#cJ"/><use transform="matrix(0.00927734375,0,0,0.00927734375,36.93310546875,0)" xlink:href="#cK"/><use transform="matrix(0.00927734375,0,0,0.00927734375,51.7119140625,0)" xlink:href="#cL"/><use transform="matrix(0.00927734375,0,0,0.00927734375,62.27880859375,0)" xlink:href="#cM"/><use transform="matrix(0.00927734375,0,0,0.00927734375,69.6728515625,0)" xlink:href="#cN"/></g><path fill="#fff" d="M408-1082c8 36 12 125 12 176h4c63-133 179-199 346-199 126 0 224 48 293 145s104 235 104 414c0 322-121 566-415 566-162 0-274-77-328-192h-6c11 149 4 424 6 597H143V-833c0-102-3-185-8-249h273zm243 172c-175 0-232 173-231 372 0 117 20 206 60 270s96 96 169 96c150 0 225-125 225-374 0-243-74-364-223-364" id="cO"/><path fill="#fff" d="M1079-360C1041-124 864 17 594 20 261 23 80-197 80-535c0-344 180-567 518-567 257 0 435 142 473 361l-283 14c-16-106-75-182-196-182-145 0-217 121-217 363 0 249 74 374 221 374 120 0 188-82 201-201" id="cP"/><path fill="#fff" d="M834 0L545-490l-121 84V0H143v-1484h281v850l386-448h302L732-660 1141 0H834" id="cQ"/><path fill="#fff" d="M1108-33c0 316-189 467-512 467-247 0-427-94-467-291l281-33c20 86 88 139 194 139 188 0 233-141 225-343-1-35 4-75 0-107C767-68 651-2 481-2 198-2 84-238 84-550c0-320 120-553 418-553 157 0 266 65 327 195h5c-1-34 7-149 14-174h266c-12 332-6 705-6 1049zM600-197c173 0 231-162 231-359 0-191-60-354-229-354-150 0-225 120-225 360 0 235 74 353 223 353" id="cR"/><path fill="#fff" d="M143-1277v-207h281v207H143zM143 0v-1082h281V0H143" id="cS"/><path fill="#fff" d="M768-1103c243 0 356 161 356 416V0H844v-607c0-190-64-285-193-285-148 1-227 151-227 312V0H143c-4-356 9-741-8-1082h268c4 18 14 191 13 215h4c67-145 160-236 348-236" id="cT"/><g id="aB"><use transform="matrix(0.00927734375,0,0,0.00927734375,0,0)" xlink:href="#cO"/><use transform="matrix(0.00927734375,0,0,0.00927734375,11.60595703125,0)" xlink:href="#cL"/><use transform="matrix(0.00927734375,0,0,0.00927734375,22.1728515625,0)" xlink:href="#cP"/><use transform="matrix(0.00927734375,0,0,0.00927734375,32.73974609375,0)" xlink:href="#cQ"/><use transform="matrix(0.00927734375,0,0,0.00927734375,43.306640625,0)" xlink:href="#cL"/><use transform="matrix(0.00927734375,0,0,0.00927734375,53.87353515625,0)" xlink:href="#cR"/><use transform="matrix(0.00927734375,0,0,0.00927734375,65.4794921875,0)" xlink:href="#cS"/><use transform="matrix(0.00927734375,0,0,0.00927734375,70.75830078125,0)" xlink:href="#cT"/><use transform="matrix(0.00927734375,0,0,0.00927734375,82.3642578125,0)" xlink:href="#cR"/></g><g id="aC"><use transform="matrix(0.00927734375,0,0,0.00927734375,0,0)" xlink:href="#bC"/><use transform="matrix(0.00927734375,0,0,0.00927734375,4.22119140625,0)" xlink:href="#bE"/></g><path fill="#630" d="M655-1102c307 0 398 221 398 556 0 377-133 566-398 566-180 0-272-66-339-188 1 22-7 151-10 168H132c4-36 6-110 6-223v-1261h180c-2 196 4 384-4 576h4c62-129 158-194 337-194zM318-529c0 254 57 416 289 416 91 0 152-37 197-101 76-109 76-543 0-651-44-63-105-98-195-98-236 0-291 169-291 434" id="cU"/><g id="aD"><use transform="matrix(0.00927734375,0,0,0.00927734375,0,0)" xlink:href="#cU"/><use transform="matrix(0.00927734375,0,0,0.00927734375,10.56689453125,0)" xlink:href="#bC"/><use transform="matrix(0.00927734375,0,0,0.00927734375,14.7880859375,0)" xlink:href="#by"/><use transform="matrix(0.00927734375,0,0,0.00927734375,25.35498046875,0)" xlink:href="#bz"/><use transform="matrix(0.00927734375,0,0,0.00927734375,34.85498046875,0)" xlink:href="#by"/><use transform="matrix(0.00927734375,0,0,0.00927734375,45.421875,0)" xlink:href="#bM"/><use transform="matrix(0.00927734375,0,0,0.00927734375,55.98876953125,0)" xlink:href="#bK"/><use transform="matrix(0.00927734375,0,0,0.00927734375,66.5556640625,0)" xlink:href="#bu"/></g><use transform="matrix(0.00927734375,0,0,0.00927734375,0,0)" xlink:href="#cD" id="aE"/><path fill="#630" d="M91-464v-160h500v160H91" id="cV"/><g id="aF"><use transform="matrix(0.00927734375,0,0,0.00927734375,0,0)" xlink:href="#bz"/><use transform="matrix(0.00927734375,0,0,0.00927734375,9.5,0)" xlink:href="#by"/><use transform="matrix(0.00927734375,0,0,0.00927734375,20.06689453125,0)" xlink:href="#bM"/><use transform="matrix(0.00927734375,0,0,0.00927734375,30.6337890625,0)" xlink:href="#bK"/><use transform="matrix(0.00927734375,0,0,0.00927734375,41.20068359375,0)" xlink:href="#bu"/><use transform="matrix(0.00927734375,0,0,0.00927734375,51.767578125,0)" xlink:href="#cV"/><use transform="matrix(0.00927734375,0,0,0.00927734375,58.0947265625,0)" xlink:href="#bB"/><use transform="matrix(0.00927734375,0,0,0.00927734375,63.37353515625,0)" xlink:href="#by"/><use transform="matrix(0.00927734375,0,0,0.00927734375,73.9404296875,0)" xlink:href="#bA"/><use transform="matrix(0.00927734375,0,0,0.00927734375,80.267578125,0)" xlink:href="#bQ"/><use transform="matrix(0.00927734375,0,0,0.00927734375,90.83447265625,0)" xlink:href="#bw"/></g><g id="aG"><use transform="matrix(0.00927734375,0,0,0.00927734375,0,0)" xlink:href="#bE"/><use transform="matrix(0.00927734375,0,0,0.00927734375,5.27880859375,0)" xlink:href="#bF"/><use transform="matrix(0.00927734375,0,0,0.00927734375,15.845703125,0)" xlink:href="#bw"/><use transform="matrix(0.00927734375,0,0,0.00927734375,26.41259765625,0)" xlink:href="#bA"/><use transform="matrix(0.00927734375,0,0,0.00927734375,32.73974609375,0)" xlink:href="#bw"/></g><g id="aH"><use transform="matrix(0.00927734375,0,0,0.00927734375,0,0)" xlink:href="#bu"/><use transform="matrix(0.00927734375,0,0,0.00927734375,10.56689453125,0)" xlink:href="#bM"/></g><path fill="#630" d="M801 0L510-444 217 0H23l385-556-367-526h199l270 421 268-421h201L612-558 1002 0H801" id="cW"/><g id="aI"><use transform="matrix(0.00927734375,0,0,0.00927734375,0,0)" xlink:href="#bw"/><use transform="matrix(0.00927734375,0,0,0.00927734375,10.56689453125,0)" xlink:href="#cW"/><use transform="matrix(0.00927734375,0,0,0.00927734375,20.06689453125,0)" xlink:href="#bC"/><use transform="matrix(0.00927734375,0,0,0.00927734375,24.2880859375,0)" xlink:href="#bG"/><use transform="matrix(0.00927734375,0,0,0.00927734375,33.7880859375,0)" xlink:href="#bE"/><use transform="matrix(0.00927734375,0,0,0.00927734375,39.06689453125,0)" xlink:href="#bC"/><use transform="matrix(0.00927734375,0,0,0.00927734375,43.2880859375,0)" xlink:href="#bM"/><use transform="matrix(0.00927734375,0,0,0.00927734375,53.85498046875,0)" xlink:href="#bQ"/></g><g id="aJ"><use transform="matrix(0.00927734375,0,0,0.00927734375,0,0)" xlink:href="#bz"/><use transform="matrix(0.00927734375,0,0,0.00927734375,9.5,0)" xlink:href="#by"/><use transform="matrix(0.00927734375,0,0,0.00927734375,20.06689453125,0)" xlink:href="#bM"/><use transform="matrix(0.00927734375,0,0,0.00927734375,30.6337890625,0)" xlink:href="#bE"/><use transform="matrix(0.00927734375,0,0,0.00927734375,35.91259765625,0)" xlink:href="#bu"/><use transform="matrix(0.00927734375,0,0,0.00927734375,46.4794921875,0)" xlink:href="#bC"/><use transform="matrix(0.00927734375,0,0,0.00927734375,50.70068359375,0)" xlink:href="#bM"/><use transform="matrix(0.00927734375,0,0,0.00927734375,61.267578125,0)" xlink:href="#bw"/><use transform="matrix(0.00927734375,0,0,0.00927734375,71.83447265625,0)" xlink:href="#bA"/></g><path fill="#fff" d="M770-1409c315-3 526 146 526 446 0 301-203 467-514 467H432V0H137v-1409h633zm-25 686c158 1 255-80 254-235 0-148-87-222-262-222H432v457h313" id="cX"/><g id="aK"><use transform="matrix(0.00927734375,0,0,0.00927734375,0,0)" xlink:href="#cX"/><use transform="matrix(0.00927734375,0,0,0.00927734375,12.6728515625,0)" xlink:href="#cL"/><use transform="matrix(0.00927734375,0,0,0.00927734375,23.23974609375,0)" xlink:href="#cP"/><use transform="matrix(0.00927734375,0,0,0.00927734375,33.806640625,0)" xlink:href="#cQ"/><use transform="matrix(0.00927734375,0,0,0.00927734375,44.37353515625,0)" xlink:href="#cL"/><use transform="matrix(0.00927734375,0,0,0.00927734375,54.9404296875,0)" xlink:href="#cR"/><use transform="matrix(0.00927734375,0,0,0.00927734375,66.54638671875,0)" xlink:href="#cN"/></g></defs></g></svg>