<?xml version="1.0" encoding="UTF-8" standalone="no"?>
<!-- Created with Inkscape (http://www.inkscape.org/) -->

<svg
   version="1.1"
   id="svg2"
   width="572.71997"
   height="291.34668"
   viewBox="0 0 572.71997 291.34668"
   sodipodi:docname="University of Sydney logo lockup - Sydney Informatics Hub - White.eps"
   xmlns:inkscape="http://www.inkscape.org/namespaces/inkscape"
   xmlns:sodipodi="http://sodipodi.sourceforge.net/DTD/sodipodi-0.dtd"
   xmlns="http://www.w3.org/2000/svg"
   xmlns:svg="http://www.w3.org/2000/svg">
  <defs
     id="defs6" />
  <sodipodi:namedview
     id="namedview4"
     pagecolor="#ffffff"
     bordercolor="#000000"
     borderopacity="0.25"
     inkscape:showpageshadow="2"
     inkscape:pageopacity="0.0"
     inkscape:pagecheckerboard="0"
     inkscape:deskcolor="#d1d1d1" />
  <g
     id="g8"
     inkscape:groupmode="layer"
     inkscape:label="ink_ext_XXXXXX"
     transform="matrix(1.3333333,0,0,-1.3333333,0,291.34667)">
    <g
       id="g10"
       transform="scale(0.1)">
      <path
         d="m 1670.87,847.469 h 266.19 v -29.137 h -266.19 v 29.137"
         style="fill:#ffffff;fill-opacity:1;fill-rule:nonzero;stroke:none"
         id="path12" />
      <path
         d="m 1793.08,1679.15 h -81.42 v 10.46 h 28.26 v 162 h -56.55 v -22.62 h -13.57 v 44.67 h 13.57 v -7.91 h 137.98 v 7.91 h 13.57 v -44.67 h -13.57 v 22.62 h -56.55 v -162 h 28.28 v -10.46"
         style="fill:#ffffff;fill-opacity:1;fill-rule:nonzero;stroke:none"
         id="path14" />
      <path
         d="m 2050.06,1679.15 h -67.29 v 10.46 h 21.2 v 77.75 h -106.01 v -77.75 h 21.21 v -10.46 h -67.29 v 10.46 h 21.2 v 165.68 h -21.2 v 10.46 h 67.29 v -10.46 h -21.21 v -75.21 h 106.01 v 75.21 h -21.2 v 10.46 h 67.29 v -10.46 h -21.49 v -165.68 h 21.49 v -10.46"
         style="fill:#ffffff;fill-opacity:1;fill-rule:nonzero;stroke:none"
         id="path16" />
      <path
         d="m 2202.38,1679.15 h -128.63 v 10.46 h 21.2 v 165.68 h -21.2 v 10.46 h 112.8 v 7.91 h 13.01 v -44.95 h -12.72 v 24.04 h -67.01 v -72.38 h 53.44 v 21.2 l 13.01,0.28 v -55.7 l -13.01,-0.28 v 21.77 h -53.44 v -75.77 h 69.55 v 24.88 h 13 v -37.6"
         style="fill:#ffffff;fill-opacity:1;fill-rule:nonzero;stroke:none"
         id="path18" />
      <path
         d="m 2481.67,1855.29 h -21.21 v -107.72 c 0,-30.25 -10.74,-49.77 -34.22,-62.48 -11.86,-6.22 -25.44,-9.61 -39.3,-9.61 -40.98,0 -71.24,27.14 -71.24,64.18 v 115.63 h -21.2 v 10.46 h 67.29 v -10.46 h -21.2 v -106.88 c 0,-34.2 20.06,-56.54 51.45,-56.54 32.23,0 54,22.91 54,56.83 v 106.59 h -21.21 v 10.46 h 56.84 v -10.46"
         style="fill:#ffffff;fill-opacity:1;fill-rule:nonzero;stroke:none"
         id="path20" />
      <path
         d="m 2656.04,1676.04 h -8.77 l -108.57,149.28 v -135.71 h 21.5 v -10.46 h -57.11 v 10.46 h 21.48 v 154.93 l -7.64,10.75 h -19.5 v 10.46 h 41 l 103.47,-141.93 v 131.47 h -21.49 v 10.46 h 56.84 v -10.46 h -21.21 v -179.25"
         style="fill:#ffffff;fill-opacity:1;fill-rule:nonzero;stroke:none"
         id="path22" />
      <path
         d="m 2765.13,1679.15 h -67.3 v 10.46 h 21.21 v 165.68 h -21.21 v 10.46 h 67.3 v -10.46 h -21.21 v -165.68 h 21.21 v -10.46"
         style="fill:#ffffff;fill-opacity:1;fill-rule:nonzero;stroke:none"
         id="path24" />
      <path
         d="m 2879.34,1674.35 h -9.62 l -71.24,180.94 h -16.68 v 10.46 h 70.11 v -10.46 h -26.58 l 54.86,-138.82 54.28,138.82 h -18.67 v 10.46 h 48.35 v -10.46 h -14.13 l -70.68,-180.94"
         style="fill:#ffffff;fill-opacity:1;fill-rule:nonzero;stroke:none"
         id="path26" />
      <path
         d="M 3109.75,1679.15 H 2981.1 v 10.46 h 21.21 v 165.68 h -21.21 v 10.46 h 112.81 v 7.91 h 13.01 v -44.95 h -12.72 v 24.04 h -67 v -72.38 h 53.43 v 21.2 l 13,0.28 v -55.7 l -13,-0.28 v 21.77 h -53.43 v -75.77 h 69.55 v 24.88 h 13 v -37.6"
         style="fill:#ffffff;fill-opacity:1;fill-rule:nonzero;stroke:none"
         id="path28" />
      <path
         d="m 3182.93,1775.85 h 27.14 c 21.48,0 36.46,15.83 36.46,39.01 0,24.32 -13.28,37.89 -37.04,37.89 h -26.56 z m 117.32,-96.7 h -24.03 c -16.68,0 -19.79,1.7 -29.11,16.68 l -42.14,67.01 h -22.04 v -73.23 h 21.2 v -10.46 h -67.28 v 10.46 h 21.2 v 165.68 h -21.2 v 10.46 h 78.59 c 27.42,0 42.98,-7.64 51.44,-25.16 3.7,-7.63 5.67,-16.12 5.67,-25.17 0,-27.42 -15.27,-44.95 -42.41,-48.91 l 40.71,-62.76 c 6.79,-10.46 11.31,-13.85 18.38,-13.85 h 11.02 v -10.75"
         style="fill:#ffffff;fill-opacity:1;fill-rule:nonzero;stroke:none"
         id="path30" />
      <path
         d="m 3336.4,1676.61 h -13.29 v 50.89 h 13.29 v -22.34 c 17.24,-11.59 24.88,-14.42 37.31,-14.42 22.62,0 37.89,11.88 37.89,29.69 0,16.11 -11.02,27.98 -41.56,43.82 -35.63,18.66 -47.77,32.8 -47.77,55.98 0,27.99 23.74,48.91 55.69,48.91 14.13,0 24.59,-2.54 33.64,-7.91 v 10.17 h 13.01 v -48.34 h -13.01 v 20.07 c -14.42,9.62 -21.48,12.44 -32.8,12.44 -19.22,0 -31.67,-11.59 -31.67,-29.12 0,-14.41 8.21,-22.62 43.55,-42.98 35.35,-20.35 45.51,-32.79 45.51,-55.97 0,-29.4 -24.31,-52.02 -56.26,-52.02 -17.8,0 -29.39,3.67 -43.53,12.72 v -11.59"
         style="fill:#ffffff;fill-opacity:1;fill-rule:nonzero;stroke:none"
         id="path32" />
      <path
         d="m 3529.46,1679.15 h -67.29 v 10.46 h 21.2 v 165.68 h -21.2 v 10.46 h 67.29 v -10.46 h -21.21 v -165.68 h 21.21 v -10.46"
         style="fill:#ffffff;fill-opacity:1;fill-rule:nonzero;stroke:none"
         id="path34" />
      <path
         d="m 3671.07,1679.15 h -81.42 v 10.46 h 28.27 v 162 h -56.55 v -22.62 h -13.57 v 44.67 h 13.57 v -7.91 h 137.97 v 7.91 h 13.57 v -44.67 h -13.57 v 22.62 h -56.55 v -162 h 28.28 v -10.46"
         style="fill:#ffffff;fill-opacity:1;fill-rule:nonzero;stroke:none"
         id="path36" />
      <path
         d="m 3849.69,1679.15 h -67.28 v 10.46 h 21.2 v 75.49 l -58.53,90.19 h -16.4 v 10.46 h 69.84 v -10.46 h -25.74 l 48.64,-74.08 44.95,74.08 h -25.74 v 10.46 h 56.57 v -10.46 h -14.71 l -54.29,-88.49 v -77.19 h 21.49 v -10.46"
         style="fill:#ffffff;fill-opacity:1;fill-rule:nonzero;stroke:none"
         id="path38" />
      <path
         d="m 3998.06,1772.45 c 0,-47.79 26.58,-82.27 63.33,-82.27 36.19,0 62.48,34.77 62.48,82.27 0,47.49 -26.29,81.99 -62.19,81.99 -37.04,0 -63.62,-33.92 -63.62,-81.99 z m -27.99,-0.29 c 0,53.16 41.29,96.98 91.32,96.98 49.2,0 90.48,-44.1 90.48,-96.69 0,-52.59 -41.28,-96.97 -90.48,-96.97 -49.76,0 -91.32,44.1 -91.32,96.68"
         style="fill:#ffffff;fill-opacity:1;fill-rule:nonzero;stroke:none"
         id="path40" />
      <path
         d="m 4236.63,1679.15 h -67.29 v 10.46 h 21.21 v 165.68 h -21.21 v 10.46 h 112.8 v 7.91 h 13.01 v -44.95 h -12.73 v 24.04 h -67 v -72.38 h 53.44 v 21.2 l 13.01,0.28 v -55.7 l -13.01,-0.28 v 21.77 h -53.44 v -78.03 h 21.21 v -10.46"
         style="fill:#ffffff;fill-opacity:1;fill-rule:nonzero;stroke:none"
         id="path42" />
      <path
         d="m 1705,1075.15 h -35 v 134.12 h 35 v -58.85 c 45.45,-30.56 65.58,-38.01 98.35,-38.01 59.61,0 99.85,31.29 99.85,78.22 0,42.47 -29.07,73.76 -109.53,115.5 -93.88,49.17 -125.93,86.48 -125.93,147.89 0,73.76 62.6,128.9 146.79,128.9 37.26,0 64.82,-6.71 88.67,-20.86 v 26.82 h 34.28 v -127.42 h -34.28 v 52.91 c -38,25.33 -56.63,32.78 -86.43,32.78 -50.67,0 -83.44,-30.55 -83.44,-76.74 0,-38.03 21.59,-59.79 114.73,-113.61 93.14,-53.65 119.96,-86.44 119.96,-147.53 0,-77.5 -64.08,-137.1 -148.27,-137.1 -46.94,0 -77.49,9.7 -114.75,33.52 v -30.54"
         style="fill:#ffffff;fill-opacity:1;fill-rule:nonzero;stroke:none"
         id="path44" />
      <path
         d="m 2300.27,1081.87 h -177.33 v 27.56 h 55.89 v 198.94 l -154.24,238.04 h -43.2 v 27.57 h 184.03 v -27.57 h -67.8 l 128.14,-195.57 118.48,195.57 h -67.8 v 27.57 h 149.01 v -27.57 h -38.74 l -143.06,-233.58 v -203.4 h 56.62 v -27.56"
         style="fill:#ffffff;fill-opacity:1;fill-rule:nonzero;stroke:none"
         id="path46" />
      <path
         d="m 2584.09,1119.12 h 89.43 c 102.07,0 179.56,90.15 178.8,208.61 0,115.11 -78.97,208.24 -177.32,208.24 h -90.91 z m -121.44,-37.25 v 27.56 h 55.89 v 436.98 h -55.89 v 27.57 h 219.8 c 134.12,0 243.64,-110.28 243.64,-245.5 0,-137.85 -107.28,-246.61 -244.39,-246.61 h -219.05"
         style="fill:#ffffff;fill-opacity:1;fill-rule:nonzero;stroke:none"
         id="path48" />
      <path
         d="m 3355.92,1073.66 h -23.1 l -286.1,393.76 v -357.99 h 56.63 v -27.56 h -150.52 v 27.56 h 56.63 v 408.66 l -20.11,28.32 h -51.42 v 27.57 h 108.04 l 272.69,-374.39 v 346.82 h -56.61 v 27.57 h 149.76 v -27.57 h -55.89 v -472.75"
         style="fill:#ffffff;fill-opacity:1;fill-rule:nonzero;stroke:none"
         id="path50" />
      <path
         d="m 3801.43,1081.87 h -339.02 v 27.56 h 55.88 v 436.98 h -55.88 v 27.57 h 297.3 v 20.86 h 34.26 v -118.48 h -33.52 v 63.34 h -176.59 v -191.1 h 140.82 v 56.02 l 34.28,0.74 v -146.91 l -34.28,-0.76 v 57.39 h -140.82 v -199.69 h 183.29 v 65.56 h 34.28 v -99.08"
         style="fill:#ffffff;fill-opacity:1;fill-rule:nonzero;stroke:none"
         id="path52" />
      <path
         d="m 4170.18,1081.87 h -177.34 v 27.56 h 55.88 v 198.94 l -154.23,238.04 h -43.2 v 27.57 h 184.02 v -27.57 h -67.79 l 128.14,-195.57 118.48,195.57 h -67.81 v 27.57 h 149.02 v -27.57 h -38.74 l -143.06,-233.58 v -203.4 h 56.63 v -27.56"
         style="fill:#ffffff;fill-opacity:1;fill-rule:nonzero;stroke:none"
         id="path54" />
      <path
         d="m 696.09,1600.79 c 245.988,0 505.43,-39.44 568.29,-49.58 v -93.42 c 0,-36.25 -3.2,-72.09 -9.05,-107.24 H 830.984 v 222 c -44.636,2.25 -89.988,3.7 -134.894,3.7 -44.895,0 -90.129,-1.46 -134.649,-3.72 V 1350.55 H 136.832 c -5.871,35.13 -9.062,70.97 -9.035,107.24 v 93.42 c 62.793,10.14 322.301,49.58 568.293,49.58 z m 592.84,444.03 -8.66,2.65 c 0,0 -300.797,93.27 -584.18,93.36 -283.34,-0.09 -583.606,-93.22 -584.176,-93.36 l -8.691,-2.65 c 0,0 0,-186.41 0,-587.03 0.054,-341.04 258.941,-650.661 592.785,-651.06 h 0.199 c 333.803,0.399 592.683,310.02 592.723,651.06 0,400.62 0,587.03 0,587.03 z m 103.58,47.34 v -464.75 c 0,-418.88 -285.27,-849.16 -696.42,-929.648 C 299.594,773 0,1208.53 0,1627.41 v 464.75 c 0,0 347.398,92.98 696.234,92.98 405.276,0 696.276,-92.98 696.276,-92.98 z M 136.832,1350.55 v 0 c 0.027,-0.1 0.027,-0.21 0.043,-0.3 -0.016,0.09 -0.043,0.2 -0.043,0.3 z M 1132.11,1061.3 c -10.42,-13.89 -21.28,-27.38 -32.72,-40.29 C 1026.95,939.371 934.84,878.559 830.984,849.809 v 230.881 h 263.476 c 15.49,0 29.2,-7.64 37.65,-19.39 z m -834.09,19.39 H 561.441 V 849.75 c -103.976,28.711 -196.187,89.551 -268.636,171.26 -11.399,12.85 -22.145,26.35 -32.489,40.2 8.407,11.78 22.118,19.48 37.704,19.48 z m 508.429,344.71 -59.886,-21.38 27.601,-56.64 -57.418,27.23 -20.512,-59.56 -21.379,59.93 -56.527,-27.6 27.203,57.57 -59.547,20.45 59.918,21.39 -27.574,56.59 57.391,-27.26 20.515,59.61 21.321,-59.96 56.609,27.61 -27.312,-57.45 z m 296.781,-190.31 59.54,-20.54 -59.96,-21.35 27.68,-56.62 -57.52,27.25 -20.43,-59.58 -21.39,59.94 -56.599,-27.61 27.319,57.54 -59.546,20.43 59.836,21.4 -27.609,56.71 57.569,-27.28 20.42,59.52 21.4,-59.87 56.55,27.63 z m -481.007,756.35 c 2.179,1.7 4.918,2.65 7.933,2.65 7.457,0 13.5,-6.02 13.5,-13.49 0,-4.23 -1.957,-7.97 -4.945,-10.45 -0.813,-0.76 -2.309,0.11 -2.598,0.8 -3.851,6.95 -8.57,13.14 -14.121,17.93 -0.492,0.43 -0.375,2.18 0.231,2.56 z m -80.2,-135.33 c 6.723,0 12.567,4.23 15.536,10.14 -0.086,0.57 -0.524,1.09 -0.864,1.52 -6.132,3.61 -18.535,10.49 -18.535,18.65 0,0.14 2.531,23.74 2.852,25.41 -0.114,0.06 -0.321,0.35 -0.43,0.49 -9.957,1.23 -14.914,6.71 -16.203,16.16 -3.316,1.99 -8.52,6.72 -5.555,10.92 1.059,1.44 2.758,2.1 4.492,1.79 4.024,-0.78 34.012,-3.34 36.231,-6.26 0.711,-1.03 0.883,-2.38 0.711,-3.65 0,0 -6.727,-30.63 -8.285,-37.89 -0.172,-0.64 0.523,-1.27 1.011,-1.24 4.864,0.4 13,0.83 14.989,0.87 2.047,0 10.418,-0.41 15.054,-0.79 0.368,0 0.883,0.47 0.774,1.24 -1.496,6.83 -8.231,37.61 -7.738,39.82 0.285,1.47 1.402,2.86 2.929,3.26 11.481,3.2 23.344,2.82 33.817,4.79 7.367,1.21 5.066,-7.3 1.64,-10.44 -0.804,-0.69 -1.73,-1.38 -2.648,-2.02 -1.266,-9.73 -6.008,-15.33 -16.293,-16.56 l 2.512,-25.47 c 0,-7.87 -12.582,-15.42 -18.309,-18.99 -0.055,-0.17 -0.34,-0.72 -0.34,-0.72 2.531,-6.6 8.574,-11.03 15.734,-11.03 9.36,0 16.891,7.57 16.891,16.96 0,7.29 11.406,32.33 15.145,39.05 8.457,15.09 -5.036,61.6 -25.672,66.99 -4.746,1.29 -5.352,7.66 -2.617,11.2 2.382,3.2 5.093,6.23 7.851,9.16 l 0.863,0.82 c 5.442,6.25 13.532,10.23 22.59,10.23 16.614,0 30.25,-13.58 30.25,-30.32 0,-10.63 -5.468,-19.97 -13.695,-25.32 -3.746,-5.77 10.848,-31.67 -1.152,-53.05 -5.411,-9.71 -9.875,-25.38 -13.239,-36.39 -2.363,-11.87 -10.328,-21.7 -20.89,-26.74 -1.496,-0.66 -1.094,-1.67 -1.211,-2.36 -0.922,-6.4 -4.317,-9.54 -5.031,-10.23 -1.934,-1.84 -0.438,-2.05 1.167,-1.88 14.02,2.17 34.086,8.4 42.653,26.43 4.719,10.14 19.918,-25.67 29.121,-8.59 9.641,18.18 14.078,31.89 18.426,50.16 2.332,10.09 8.656,-7.2 11.074,-1.14 4.402,11.29 7.57,23.39 7.57,36.35 0,44.81 -32.871,82.41 -77.179,92.69 -8.579,2 10.355,16.33 -2.192,15.55 -7.765,-0.51 -33.492,-0.51 -53,-9.87 -3.746,-1.61 -6.48,5.32 -14.219,10.11 -1.328,1.04 -3.105,0.35 -3.711,-0.03 -7.457,-4.78 -9.761,-11.89 -13.5,-10.31 -19.656,9.59 -45.582,9.67 -53.5,10.1 -12.085,0.67 6.418,-13.55 -2.152,-15.55 -44.262,-10.28 -77.152,-47.88 -77.152,-92.69 0,-12.96 3.136,-25.06 7.562,-36.35 2.418,-6.06 8.75,11.23 11.114,1.14 4.316,-18.27 8.746,-31.98 18.414,-50.16 9.066,-17.08 24.406,18.73 29.121,8.59 8.98,-18.99 30.738,-24.93 44.84,-26.71 1.664,-0.23 3.222,0.11 1.199,1.67 -1.199,1.04 -2.723,2.31 -3.649,4.21 -1.992,3.97 0.321,7.63 -4.402,10.37 -9.492,5.56 -16.23,15.04 -18.246,26.16 -3.332,10.84 -7.539,25.96 -13.063,35.44 -8,13.69 -7.879,33.11 -1.953,50.89 1,5.29 -13.703,8.35 -13.703,27.51 0,16.74 13.527,30.32 30.219,30.32 13.605,0 23.887,-11.13 32.859,-20.03 3.598,-3.54 1.211,-10.29 -3.418,-11.41 -21.445,-5.39 -34.797,-51.17 -25.82,-66.7 4.23,-7.12 15.426,-33.28 15.426,-39.31 0,-9.39 7.539,-16.96 16.929,-16.96 z m -26.714,131.23 c -5.813,-4.69 -10.875,-10.65 -14.903,-17.17 -0.289,-0.46 -1.672,-0.94 -2.824,-0.17 -3.016,2.54 -5.004,6.31 -5.004,10.6 0,7.47 6.012,13.49 13.469,13.49 3.621,0 6.906,-1.44 9.379,-3.75 1.012,-0.74 0.433,-2.5 -0.117,-3 z m 74.648,-147.43 c -7.707,1.24 -14.676,5.28 -19.621,10.77 -1.211,1.42 -2.648,0.9 -3.109,0.32 -5.469,-6.02 -13.012,-10.14 -21.469,-11.09 -1.731,-0.25 -1.731,-1.78 -1.442,-2.51 3.86,-9.3 15.825,-6.62 22.215,-12.06 0.547,-0.47 2.477,-0.47 3.172,0.16 6.414,5.28 18.477,2.43 21.695,10.98 0.864,2.51 -0.519,3.29 -1.441,3.43 z m 338.578,134.36 c 4.832,3.19 9.27,4.55 12.379,5.1 2.816,0.49 2.625,3.14 1.41,4.26 -10.613,9.62 -28.789,3.43 -28.789,3.43 -16.937,-14.98 -42.898,-15.88 -42.898,-15.88 11.586,-18.55 48.648,-3.14 57.898,3.09 z m -460.16,-152.22 c 3.195,-0.69 14.707,-4.78 17.121,-6.05 29.93,-15.3 48.266,-13.8 64.461,-7.44 5.18,1.99 5.121,-4.55 3.344,-6.19 -59.43,-56.76 -104.633,-42.36 -120.641,-32.07 -11.105,7.15 -33.871,7.38 -44.367,-7.23 -1.816,-1.76 -5.012,-2.88 -6.336,1.79 -3.133,10.91 0.289,18.03 3.516,25.9 2.007,4.08 -3.028,5.24 -4.813,5.24 -9.176,0 -13.004,-2.96 -19.765,-7.29 -4.235,-2.96 -5.524,5.33 -0.489,22.33 4.028,13.34 -22.101,20.51 -28.316,14.3 -8.777,-6.87 -31.285,-20.29 -53.207,2.84 -4.406,4.64 9.98,3.09 10.844,7.15 1.269,5.97 6.738,9.56 9.003,11.96 1.27,1.81 1.27,4.58 -0.972,5.65 -6.762,3.62 -16.004,11.43 -13.41,25.84 0.316,2.05 -11.453,2.74 -7.547,6.34 20.609,19.1 43.117,7.2 52.148,1.06 1.582,-0.57 4.778,-0.86 5.067,2.2 0.687,6.16 -2.5,10.28 9.871,20.57 2.386,1.98 -7.164,10.31 -0.489,9.91 42.7,-10.72 23.372,-55.04 32.227,-62.84 16.289,-14.56 55.688,-26.02 92.75,-33.97 z m 607.465,23.05 c 0,0 20.21,8.27 24.37,29.3 6.34,33.33 -25.59,51 -47.57,57.28 -52.06,15.01 -151.394,2.59 -174.16,0.72 -23.265,-1.9 -72.636,-9.08 -93.796,-4.44 -27.871,6.17 -34.434,18.85 -24.996,32.45 16.386,23.39 68.011,20.8 75.683,20.31 63.047,-4.44 74.965,23.14 105.859,30.05 2.625,0.63 2.266,3.05 0.922,4.55 -8.089,8.59 -34.562,34.83 -80.023,-4.8 -1.145,-1.07 -2.484,-1.48 -3.52,-0.67 -1.816,1.7 -4.015,7.63 10.993,20.51 3.152,2.73 4.457,6.43 5.062,9.16 0.465,2.22 -1.152,2.91 -3.684,1.76 -3.792,-1.76 -9.925,-4.04 -15.937,-4.41 -21.387,-1.19 -27.344,-19.35 -28.934,-27.25 -0.421,-2.22 -2.32,-3.51 -5.351,-3.51 -15.836,0 -66.887,-2.6 -88.926,-36.72 -3.629,-5.81 -6.156,-11.32 -7.484,-16.5 -1.008,-7.18 -2.414,-13.95 2.937,-25.27 5.004,-8.91 14.016,-15.79 25.149,-20.11 26.824,-10.4 72.218,-7.93 103.472,-3.63 86.043,11.87 201.354,12.48 203.574,-15.3 1.45,-17.35 -26.42,-15.13 -26.42,-15.13 0,0 -211.388,-0.75 -322.923,4.61 -4.61,-0.23 -5.528,-3.8 -6.332,-8.13 -6.246,-21.32 -21.875,-68 -52.145,-46.9 -1.152,0.81 -3.972,2.47 -6.676,-0.35 -16.488,-14.52 -37.586,-17.69 -58.937,-18.41 -3.426,-0.11 -5.871,-2.65 -7.055,-4.04 -9.578,-11.89 -27.191,-27.54 -60.855,-46.47 -52.949,-29.79 -73.735,-29.13 -77.649,-25.99 -3.734,2.97 -33.031,30.45 -55.879,13.89 -2.48,-1.78 7.418,-5.71 6.782,-7.78 -3.504,-10.95 7.574,-21.03 13.847,-25.7 2.305,-1.7 1.989,-3.2 -0.89,-4.55 -7.766,-3.63 -21.903,-13.03 -23.313,-33.92 -0.058,-1.24 0,-5.18 2.422,-4.17 3.02,1.29 8.57,3.57 10.242,1.41 11.629,-15.18 30.156,-4.87 37.731,0.37 2.093,1.44 3.304,0.38 3.707,-2.73 1.097,-9.6 6.761,-22.57 26.617,-21.47 5.898,-0.92 5.094,-7.03 6.531,-7.81 1.211,-0.66 21.477,0.58 9.156,37.17 -1.207,3.63 -0.921,6.83 1.032,8.07 4.031,2.82 11.461,7.69 17.789,8.29 9.699,0.96 17.781,-12.18 29.031,-10.83 2.91,0.32 3.547,2.45 2.422,4.7 -2.906,5.65 -7.254,18.38 5.035,27.14 2.738,1.96 5.031,1.88 5.926,-0.43 8.004,-19.85 28.402,-26.05 38.504,-27.92 3.574,-0.63 4.843,1.41 3.8,4.84 -3.457,11.27 -6.933,36.54 26.098,46.25 4.977,1.46 33.188,14.08 41.356,26.45 3.921,5.79 5.293,13.36 2.074,21.49 -1.328,3.17 1.726,5.67 4.863,4.7 20,-14.07 105.063,-48.47 183.52,14.66 46.429,37.34 88.261,28.29 97.535,26.97 9.234,-1.32 -2.149,-17.9 6.929,-37.28 22.622,-48.21 89.145,-11.1 100.525,-24.35 15.71,-18.44 -6.17,-57.74 -23.59,-46.22 -20.571,13.66 -50.454,3.8 -52.849,-9.8 -0.503,-2.82 9.575,-2.3 9.747,-4.41 1.105,-9.82 10.878,-12.41 18.917,-12.84 5.255,0.14 2.141,-4.07 1.336,-4.7 -8.066,-5.76 -17.539,-16.71 -13.687,-35.21 0.621,-3.23 11.262,6.22 16.396,3.49 23.76,-12.85 35.56,0.92 40.03,8.73 1.49,2.65 3.42,2.56 5.6,0 5.07,-6.02 14.83,-14.41 26.01,-7.75 4.32,2.5 9.4,-13.52 12.38,-5.16 9.38,27.66 -1.5,37.83 -6.86,42.44 -7.92,6.83 2.84,23.22 16.34,22.74 14.3,-0.52 22.78,-0.52 29.11,6.07 3.67,3.87 2.93,6.6 -1.17,7.67 -7.61,0.89 -13.08,4.67 -13.76,9.56 -0.36,1.99 -0.43,4.93 4.23,4.99 10.7,0.23 15.11,2.59 18.04,5.16 2.83,2.47 2.71,4.92 -1.08,6.91 -4.97,2.91 -10.12,7.93 -8.99,13.49 1.64,7.69 32.92,33.88 1.13,34.03 -102.48,0.42 -45.32,40.68 -45.32,40.68 z m -129.574,-92.92 c -7.645,6.04 -15.176,14.32 -21.45,27.62 -2.882,6.15 -4.656,12.75 -5.484,19.49 -0.156,2.13 -2.277,6.48 -7.523,5.93 -43.391,-4.32 -62.625,-27.49 -86.621,-45.35 -3.356,-2.68 -2.321,-5.04 -0.477,-5.48 10.172,-2.53 20.426,-4.4 19.394,-8.61 -4.824,-21.44 -44.375,-34.29 -53.148,-29.24 -5.254,3.1 -22.203,32.04 -52.504,16.91 -6.164,-3.03 8.887,-4.38 7.078,-10.23 -2.59,-7.95 2.125,-14.78 6.035,-20.51 1.586,-2.42 0.985,-3.87 -2.003,-4.18 -9.817,-0.87 -32.786,-5.82 -33.153,-32.3 -0.117,-4.58 9.641,1.38 10.703,-0.96 6.852,-15.98 24.571,-6.82 32.864,-1.26 2.867,1.84 5.164,1.38 6.289,-0.03 5.152,-6.97 18.734,-17.11 35.304,-9.36 3.684,1.67 8.016,-12.28 12.035,-7.24 12.083,15.25 9.188,24.9 4.325,29.71 -1.625,1.67 -1.899,4.7 0.922,7.92 4.937,5.85 10.621,5.19 17.945,1.1 12.504,-6.95 20.141,-10.84 28.664,-7.86 5.062,1.78 5.668,4.54 2.41,7.39 -6.324,4.22 -9.418,10.04 -7.808,14.73 0.562,1.99 1.773,4.61 6.031,2.57 9.679,-4.67 14.586,-4.59 18.301,-3.61 3.742,0.9 4.664,3.12 2.242,6.57 -2.516,3.95 -4.242,8.96 -2.93,13.66 0.156,0.49 1.035,2.88 2.441,4.81 2.387,2.83 6.993,5.56 16.512,5.16 22.539,-0.81 36.77,6.8 44.742,13.77 2.094,1.82 2.543,5.93 -1.136,8.88 z M 546.738,1264.05 h 109.844 v 16.66 H 546.738 Z m 0,-45.53 h 109.844 v 16.66 H 546.738 Z m 0,-45.52 h 109.844 v 16.63 H 546.738 Z m 86.328,144.27 c 2.106,0.32 4.606,0 6.821,0 25.41,0 44.922,-19.57 44.922,-44.52 V 1124.8 c -8.262,9.8 -20.688,15.99 -34.559,15.99 -1.816,0 -93.531,-0.06 -128.32,-0.09 v 176.57 z M 508.633,1159.09 h -24.945 v -18.3 h 24.945 z m 0,49 h -24.945 v -18.41 h 24.945 z m 0,48.9 h -24.945 v -18.29 h 24.945 z m 0,49.01 h -24.945 v -18.38 h 24.945 z m 336.808,-25.29 H 735.652 v -16.66 h 109.789 z m 0,-45.53 H 735.652 v -16.66 h 109.789 z m 0,-45.55 H 735.652 V 1173 h 109.789 z m 24.868,127.64 V 1140.7 c -34.825,0.03 -126.536,0.09 -128.321,0.09 -13.898,0 -26.269,-6.19 -34.562,-15.99 v 147.95 c 0,24.95 19.543,44.52 44.894,44.52 2.215,0 4.723,0.32 6.852,0 z m 13.222,-176.48 h 24.977 v 18.3 h -24.977 z m 0,48.89 h 24.977 v 18.41 h -24.977 z m 0,49.02 h 24.977 v 18.29 h -24.977 z m 0,48.92 h 24.977 V 1306 h -24.977 z m -136.968,-320.569 59.886,21.398 -59.539,20.491 27.211,57.51 -56.508,-27.63 -21.379,59.93 -20.546,-59.55 -57.415,27.25 27.602,-56.59 -59.891,-21.411 59.575,-20.527 -27.286,-57.524 56.582,27.692 21.379,-60.16 20.457,59.75 57.43,-27.282 z M 289.41,1193.2 l -59.941,21.35 59.539,20.54 -27.336,57.57 56.629,-27.63 21.351,59.87 20.496,-59.52 57.493,27.28 -27.598,-56.71 59.824,-21.4 -59.535,-20.43 27.309,-57.54 -56.629,27.61 -21.36,-59.94 -20.398,59.58 -57.582,-27.25 27.738,56.62"
         style="fill:#ffffff;fill-opacity:1;fill-rule:nonzero;stroke:none"
         id="path56" />
      <path
         d="m 1761.16,525.09 c -9.31,17.941 -19.32,25.531 -33.46,25.531 -13.12,0 -23.12,-9.312 -23.12,-22.082 0,-42.09 103.15,-36.57 103.15,-108.328 0,-47.262 -31.05,-75.211 -77.28,-75.211 -43.81,0 -75.55,30.711 -83.14,67.621 l 36.23,22.77 c 7.24,-25.871 21.73,-48.993 47.95,-48.993 18.63,0 31.4,9.321 31.4,31.403 0,40.019 -101.09,32.078 -101.09,108.668 0,36.57 27.95,65.551 65.9,65.551 32.08,0 56.58,-15.872 69.68,-43.809 l -36.22,-23.121"
         style="fill:#ffffff;fill-opacity:1;fill-rule:nonzero;stroke:none"
         id="path58" />
      <path
         d="m 1856.48,521.641 40.37,-109.02 37.94,109.02 h 42.78 l -89.69,-244.262 h -41.41 l 30.02,81.43 -63.14,162.832 h 43.13"
         style="fill:#ffffff;fill-opacity:1;fill-rule:nonzero;stroke:none"
         id="path60" />
      <path
         d="m 2072.27,381.57 c 22.43,0 40.02,18.629 40.02,53.129 0,34.5 -17.59,53.133 -40.02,53.133 -22.42,0 -40.36,-18.633 -40.36,-53.133 0,-34.5 17.94,-53.129 40.36,-53.129 z m -5.86,142.828 c 17.59,0 34.5,-8.968 42.09,-18.628 v 86.25 h 42.78 V 347.762 h -42.78 v 17.937 C 2103.67,356.73 2087.8,345 2066.41,345 c -52.45,0 -79.35,36.23 -79.35,89.699 0,53.481 26.9,89.699 79.35,89.699"
         style="fill:#ffffff;fill-opacity:1;fill-rule:nonzero;stroke:none"
         id="path62" />
      <path
         d="m 2242.98,521.641 v -27.942 c 12.76,18.281 31.4,30.699 53.82,30.699 31.05,0 53.47,-17.597 53.47,-52.437 V 347.762 h -42.78 v 111.437 c 0,20.699 -10.35,28.633 -24.83,28.633 -20.71,0 -39.68,-24.84 -39.68,-70.723 v -69.347 h -42.78 v 173.879 h 42.78"
         style="fill:#ffffff;fill-opacity:1;fill-rule:nonzero;stroke:none"
         id="path64" />
      <path
         d="m 2432.48,454.711 h 74.86 c -3.8,17.25 -14.49,33.121 -37.25,33.121 -21.74,0 -34.5,-16.562 -37.61,-33.121 z m 118.68,-33.813 h -119.71 c 1.03,-19.316 14.49,-39.328 41.05,-39.328 19.67,0 31.74,8.969 42.09,26.91 l 34.5,-12.761 c -13.46,-30.707 -36.91,-50.719 -79,-50.719 -59.69,0 -83.5,48.648 -83.5,89.699 0,41.063 23.81,89.699 83.5,89.699 57.96,0 81.07,-47.957 81.07,-85.906 v -17.594"
         style="fill:#ffffff;fill-opacity:1;fill-rule:nonzero;stroke:none"
         id="path66" />
      <path
         d="m 2602.05,521.641 40.36,-109.02 37.95,109.02 h 42.78 l -89.69,-244.262 h -41.41 l 30.02,81.43 -63.13,162.832 h 43.12"
         style="fill:#ffffff;fill-opacity:1;fill-rule:nonzero;stroke:none"
         id="path68" />
      <path
         d="m 1711.13,2.76172 h -44.85 V 244.262 h 44.85 V 2.76172"
         style="fill:#ffffff;fill-opacity:1;fill-rule:nonzero;stroke:none"
         id="path70" />
      <path
         d="m 1806.6,176.641 v -27.942 c 12.76,18.281 31.39,30.699 53.82,30.699 31.04,0 53.47,-17.597 53.47,-52.437 V 2.76172 h -42.78 V 114.199 c 0,20.699 -10.35,28.633 -24.84,28.633 -20.7,0 -39.67,-24.84 -39.67,-70.7226 V 2.76172 h -42.78 V 176.641 h 42.78"
         style="fill:#ffffff;fill-opacity:1;fill-rule:nonzero;stroke:none"
         id="path72" />
      <path
         d="m 1944.07,176.641 h 22.08 v 8.968 c 0,42.43 24.15,61.411 60.03,61.411 13.46,0 24.84,-2.758 32.43,-6.899 l -9.31,-34.5 c -7.25,3.109 -13.46,4.84 -20.7,4.84 -12.08,0 -19.67,-6.219 -19.67,-21.742 v -12.078 h 36.57 V 140.07 h -36.57 V 2.76172 h -42.78 V 140.07 h -22.08 v 36.571"
         style="fill:#ffffff;fill-opacity:1;fill-rule:nonzero;stroke:none"
         id="path74" />
      <path
         d="m 2154.94,36.5703 c 27.6,0 43.47,24.4883 43.47,53.1289 0,28.6408 -15.87,53.1328 -43.47,53.1328 -27.6,0 -43.47,-24.492 -43.47,-53.1328 0,-28.6406 15.87,-53.1289 43.47,-53.1289 z m 0,142.8277 c 55.89,0 88.32,-39.328 88.32,-89.6988 C 2243.26,39.332 2210.83,0 2154.94,0 c -55.89,0 -88.32,39.332 -88.32,89.6992 0,50.3708 32.43,89.6988 88.32,89.6988"
         style="fill:#ffffff;fill-opacity:1;fill-rule:nonzero;stroke:none"
         id="path76" />
      <path
         d="M 2281.47,2.76172 V 176.641 h 42.79 v -28.289 c 12.42,20.359 31.74,31.046 51.4,31.046 7.59,0 14.14,-1.378 21.05,-3.449 l -7.94,-39.668 c -5.18,3.098 -10.69,4.828 -17.94,4.828 -24.83,0 -46.57,-20.359 -46.57,-76.5895 V 2.76172 h -42.79"
         style="fill:#ffffff;fill-opacity:1;fill-rule:nonzero;stroke:none"
         id="path78" />
      <path
         d="M 2525.84,2.76172 V 118.68 c 0,17.601 -8.62,24.152 -21.39,24.152 -21.04,0 -37.6,-24.492 -37.6,-76.2422 V 2.76172 h -42.79 V 176.641 h 42.79 v -27.942 c 12.76,19.313 27.59,30.699 50.03,30.699 21.38,0 41.05,-10.687 48.64,-35.878 12.42,22.421 31.74,35.878 53.12,35.878 32.43,0 51.76,-20.007 51.76,-53.476 V 2.76172 h -42.78 V 118.68 c 0,17.601 -8.63,24.152 -21.39,24.152 -20.7,0 -37.61,-23.461 -37.61,-72.4531 V 2.76172 h -42.78"
         style="fill:#ffffff;fill-opacity:1;fill-rule:nonzero;stroke:none"
         id="path80" />
      <path
         d="m 2769.03,36.5703 c 19.67,0 40.37,13.461 40.37,35.8789 v 3.4492 h -28.64 c -18.28,0 -29.67,-6.8984 -29.67,-22.4296 0,-8.2774 5.87,-16.8985 17.94,-16.8985 z m -56.23,94.5317 c 5.52,28.628 30.71,48.296 66.24,48.296 41.4,0 73.14,-17.25 73.14,-72.789 V 2.76172 h -35.19 l -4.48,22.07808 C 2800.43,10.0117 2783.87,0 2759.03,0 c -29.67,0 -52.79,18.2891 -52.79,52.7891 0,34.4922 30.36,56.9219 74.18,56.9219 h 28.98 v 7.59 c 0,19.32 -14.49,25.531 -30.36,25.531 -12.08,0 -24.5,-3.793 -30.02,-20.012 l -36.22,8.282"
         style="fill:#ffffff;fill-opacity:1;fill-rule:nonzero;stroke:none"
         id="path82" />
      <path
         d="M 2993.76,6.21094 C 2984.1,1.73047 2974.79,0 2965.47,0 c -39.33,0 -63.83,21.0391 -63.83,64.1719 V 140.07 h -26.9 v 36.571 h 26.9 v 43.468 l 42.78,26.911 v -70.379 h 45.89 V 140.07 h -45.89 V 64.8594 c 0,-21.3906 8.29,-28.2891 22.78,-28.2891 5.86,0 10.69,1.0313 16.56,4.1406 l 10,-34.49996"
         style="fill:#ffffff;fill-opacity:1;fill-rule:nonzero;stroke:none"
         id="path84" />
      <path
         d="M 3065.38,176.641 V 2.76172 H 3022.6 V 176.641 Z m -21.39,77.621 c 15.87,0 27.6,-12.071 27.6,-27.59 0,-15.531 -11.73,-27.602 -27.6,-27.602 -15.86,0 -27.6,12.071 -27.6,27.602 0,15.519 11.74,27.59 27.6,27.59"
         style="fill:#ffffff;fill-opacity:1;fill-rule:nonzero;stroke:none"
         id="path86" />
      <path
         d="M 3264.28,49.6797 C 3251.17,16.8984 3223.92,0 3185.27,0 c -56.58,0 -84.87,40.7109 -84.87,89.6992 0,48.9918 28.29,89.6988 84.87,89.6988 38.65,0 65.9,-16.898 79.01,-49.679 l -38.29,-15.52 c -8.98,18.281 -21.4,28.633 -40.72,28.633 -26.91,0 -40.02,-22.422 -40.02,-53.1328 0,-30.7109 13.11,-53.1289 40.02,-53.1289 19.32,0 31.74,10.3516 40.72,28.6289 l 38.29,-15.5195"
         style="fill:#ffffff;fill-opacity:1;fill-rule:nonzero;stroke:none"
         id="path88" />
      <path
         d="m 3410.45,151.109 -25.54,-23.461 c -7.93,10.352 -19.31,15.184 -28.97,15.184 -8.28,0 -15.87,-4.832 -15.87,-14.492 0,-7.59 6.21,-13.11 16.55,-16.91 23.81,-8.621 62.79,-16.2112 62.79,-53.4612 C 3419.41,26.5703 3395.26,0 3357.66,0 c -36.22,0 -60.37,25.5313 -69,46.9219 l 34.15,18.2773 c 6.21,-16.8984 17.94,-28.6289 34.85,-28.6289 13.11,0 21.39,5.8711 21.39,18.6289 0,14.4922 -22.43,17.6016 -43.47,26.5625 -18.98,7.9375 -35.19,20.0083 -35.19,46.9293 0,26.899 21.74,50.707 55.55,50.707 23.45,0 43.81,-11.386 54.51,-28.289"
         style="fill:#ffffff;fill-opacity:1;fill-rule:nonzero;stroke:none"
         id="path90" />
      <path
         d="m 3550.18,244.262 h 44.84 v -91.774 h 96.6 v 91.774 h 44.85 V 2.76172 h -44.85 V 111.09 h -96.6 V 2.76172 h -44.84 V 244.262"
         style="fill:#ffffff;fill-opacity:1;fill-rule:nonzero;stroke:none"
         id="path92" />
      <path
         d="M 3895.51,2.76172 V 30.7109 C 3882.74,12.4219 3864.11,0 3841.68,0 c -31.05,0 -53.47,17.5898 -53.47,52.4414 V 176.641 h 42.78 V 65.1992 c 0,-20.6875 10.35,-28.6289 24.84,-28.6289 20.7,0 39.68,24.8399 39.68,70.7187 v 69.352 h 42.77 V 2.76172 h -42.77"
         style="fill:#ffffff;fill-opacity:1;fill-rule:nonzero;stroke:none"
         id="path94" />
      <path
         d="m 4066.21,142.832 c -22.42,0 -40.02,-18.633 -40.02,-53.1328 0,-34.5 17.6,-53.1289 40.02,-53.1289 22.43,0 40.37,18.6289 40.37,53.1289 0,34.4998 -17.94,53.1328 -40.37,53.1328 z M 4072.08,0 c -21.39,0 -37.26,11.7305 -42.09,20.6992 V 2.76172 h -42.78 V 247.02 h 42.78 v -86.25 c 7.59,9.66 24.49,18.628 42.09,18.628 52.44,0 79.35,-36.218 79.35,-89.6988 C 4151.43,36.2305 4124.52,0 4072.08,0"
         style="fill:#ffffff;fill-opacity:1;fill-rule:nonzero;stroke:none"
         id="path96" />
    </g>
  </g>
</svg>
