<svg xmlns="http://www.w3.org/2000/svg" xmlns:xlink="http://www.w3.org/1999/xlink" version="1.1" width="94.4822pt" height="87.8836pt" viewBox="0 0 94.4822 87.8836">
<defs>
<clipPath id="clip_0">
<path transform="matrix(1,0,0,-1,0,87.8836)" d="M0 87.884H94.482V0H0Z"/>
</clipPath>
</defs>
<g id="layer_1" data-name="Layer 1">
<g clip-path="url(#clip_0)">
<path transform="matrix(1,0,0,-1,57.2449,51.241399)" d="M0 0C.651 1.419 .973 2.94 .955 4.47 .943 5.489 .78 6.513 .465 7.513 .464 7.514 .464 7.516 .463 7.517 .437 7.597 .411 7.677 .384 7.757L.355 7.839C.338 7.888 .32 7.937 .303 7.986 .294 8.008 .285 8.031 .276 8.053-.341 10.033-1.812 11.831-3.517 13.913-5.602 16.459-7.966 19.347-9.192 23.233-10.388 27.018-10.103 30.531-9.851 33.631-9.635 36.286-9.432 38.793-10.159 41.099-10.16 41.102-10.161 41.106-10.162 41.11-10.167 41.128-10.172 41.146-10.176 41.165-10.19 41.216-10.204 41.267-10.219 41.318L-10.241 41.402C-10.266 41.484-10.29 41.567-10.316 41.648-10.37 41.819-10.428 41.987-10.489 42.153-10.499 42.178-10.509 42.201-10.519 42.226-10.573 42.368-10.629 42.51-10.689 42.65-10.691 42.655-10.694 42.661-10.696 42.666-11.647 44.868-13.312 46.662-15.469 47.784-17.631 48.908-20.061 49.239-22.414 48.749H-22.416C-22.569 48.716-22.722 48.68-22.875 48.641-22.896 48.636-22.917 48.631-22.937 48.626-23.109 48.581-23.28 48.532-23.451 48.478-26.117 47.636-28.296 45.806-29.586 43.325-29.747 43.015-29.893 42.699-30.021 42.379-30.535 41.099-30.787 39.746-30.771 38.387-30.759 37.367-30.597 36.343-30.28 35.343-30.28 35.341-30.279 35.339-30.278 35.337-30.253 35.257-30.227 35.178-30.2 35.1L-30.171 35.017C-30.165 35.001-30.16 34.986-30.154 34.971-30.146 34.947-30.137 34.922-30.128 34.898-30.123 34.883-30.117 34.867-30.111 34.852L-30.093 34.804C-29.478 32.832-28.008 31.036-26.306 28.956-24.218 26.404-21.852 23.512-20.623 19.623-19.392 15.723-19.667 11.974-19.91 8.667-20.105 5.998-20.275 3.692-19.656 1.758-19.655 1.755-19.655 1.751-19.654 1.749-19.649 1.729-19.645 1.709-19.64 1.689-19.626 1.639-19.611 1.588-19.598 1.538L-19.574 1.454C-19.551 1.372-19.525 1.29-19.5 1.208-19.456 1.068-19.409 .931-19.36 .794-17.833-3.427-13.818-6.109-9.511-6.109-8.47-6.109-7.41-5.952-6.365-5.622-3.698-4.78-1.52-2.95-.23-.469-.149-.314-.073-.158 0 0" fill="#9dcd58"/>
<path transform="matrix(1,0,0,-1,88.6638,24.925499)" d="M0 0C-1.782 2.795-4.547 4.729-7.784 5.445-14.467 6.923-21.105 2.689-22.584-3.993-22.605-4.092-22.626-4.192-22.646-4.292L-22.664-4.393C-22.678-4.461-22.689-4.53-22.702-4.599L-22.703-4.605C-22.705-4.621-22.708-4.637-22.71-4.652-22.711-4.655-22.711-4.658-22.712-4.661-23.249-7.051-22.804-9.772-22.288-12.924-21.653-16.8-20.935-21.193-21.984-25.941-23.038-30.702-25.555-34.405-27.775-37.672-29.562-40.303-31.107-42.575-31.619-44.929-31.62-44.934-31.622-44.939-31.623-44.943-31.629-44.965-31.636-44.986-31.641-45.007-31.657-45.068-31.674-45.13-31.689-45.191L-31.715-45.291C-31.739-45.39-31.763-45.489-31.784-45.588-32.501-48.826-31.913-52.148-30.131-54.943-28.348-57.738-25.583-59.672-22.347-60.388-21.446-60.587-20.541-60.686-19.641-60.686-17.304-60.686-15.01-60.021-12.991-58.734-12.293-58.289-11.647-57.781-11.063-57.221-9.306-55.54-8.084-53.378-7.547-50.95-7.546-50.948-7.546-50.947-7.546-50.945-7.524-50.847-7.504-50.749-7.484-50.651L-7.466-50.55C-7.453-50.481-7.439-50.413-7.428-50.344L-7.427-50.337C-7.424-50.32-7.422-50.302-7.419-50.285V-50.282C-6.879-47.882-7.325-45.157-7.842-42.002-8.477-38.132-9.194-33.746-8.146-29.002-7.123-24.381-4.736-20.927-2.63-17.879-.83-15.275 .869-12.815 1.488-10.015 1.49-10.009 1.492-10.002 1.494-9.996 1.5-9.976 1.506-9.956 1.511-9.936 1.527-9.875 1.543-9.813 1.56-9.751L1.585-9.652C1.609-9.553 1.633-9.454 1.654-9.354 2.37-6.118 1.783-2.795 0 0" fill="#9dcd58"/>
<path transform="matrix(1,0,0,-1,18.8201,29.338097)" d="M0 0C-2.646 1.376-5.669 1.639-8.513 .741-11.356-.157-13.68-2.109-15.056-4.755-16.432-7.4-16.694-10.423-15.796-13.267-14.898-16.111-12.946-18.435-10.301-19.81-8.687-20.649-6.933-21.075-5.163-21.075-4.033-21.075-2.897-20.901-1.788-20.551 1.055-19.653 3.379-17.701 4.755-15.056 6.13-12.41 6.394-9.387 5.495-6.543 4.597-3.699 2.646-1.375 0 0" fill="#9dcd58"/>
</g>
</g>
</svg>
