<?xml version="1.0" encoding="UTF-8" standalone="no"?><!DOCTYPE svg PUBLIC "-//W3C//DTD SVG 1.1//EN" "http://www.w3.org/Graphics/SVG/1.1/DTD/svg11.dtd"><svg width="100%" height="100%" viewBox="0 0 435 442" version="1.1" xmlns="http://www.w3.org/2000/svg" xmlns:xlink="http://www.w3.org/1999/xlink" xml:space="preserve" xmlns:serif="http://www.serif.com/" style="fill-rule:evenodd;clip-rule:evenodd;stroke-linejoin:round;stroke-miterlimit:2;"><path d="M145.5,116.042l156.75,-0c6.708,-0 12.208,5.5 12.208,12.208c0,6.708 -5.5,12.208 -12.208,12.208l-156.75,0c-6.708,0 -12.208,-5.5 -12.208,-12.208c-0,-6.708 5.5,-12.208 12.208,-12.208Z" style="fill:#64bc4d;fill-rule:nonzero;"/><path d="M347.125,116.042c6.458,-0 11.75,5.291 11.75,11.75l0,0.958c0,6.458 -5.292,11.75 -11.75,11.75c-6.458,0 -11.75,-5.292 -11.75,-11.75l0,-0.958c0,-6.459 5.292,-11.75 11.75,-11.75Z" style="fill:#64bc4d;fill-rule:nonzero;"/><path d="M95.292,116.042l17.375,-0c6.708,-0 12.208,5.5 12.208,12.208c0,6.708 -5.5,12.208 -12.208,12.208l-17.375,0c-6.709,0 -12.209,-5.5 -12.209,-12.208c0,-6.708 5.5,-12.208 12.209,-12.208Z" style="fill:#64bc4d;fill-rule:nonzero;"/><path d="M95.292,164.375l156.75,0c6.708,0 12.208,5.5 12.208,12.208c0,6.709 -5.5,12.209 -12.208,12.209l-156.75,-0c-6.709,-0 -12.209,-5.5 -12.209,-12.209c0,-6.708 5.5,-12.208 12.209,-12.208Z" style="fill:#f57f27;fill-rule:nonzero;"/><path d="M290.792,164.375c6.458,0 11.75,5.292 11.75,11.75l-0,0.958c-0,6.459 -5.292,11.75 -11.75,11.75c-6.459,0 -11.75,-5.291 -11.75,-11.75l-0,-0.958c-0,-6.458 5.291,-11.75 11.75,-11.75Z" style="fill:#f57f27;fill-rule:nonzero;"/><path d="M329.292,164.375l17.375,0c6.708,0 12.208,5.5 12.208,12.208c0,6.709 -5.5,12.209 -12.208,12.209l-17.375,-0c-6.709,-0 -12.209,-5.5 -12.209,-12.209c0,-6.708 5.5,-12.208 12.209,-12.208Z" style="fill:#f57f27;fill-rule:nonzero;"/><path d="M148.125,212.958l156.75,0c6.708,0 12.208,5.5 12.208,12.209c0,6.708 -5.5,12.208 -12.208,12.208l-156.75,0c-6.708,0 -12.208,-5.5 -12.208,-12.208c-0,-6.709 5.5,-12.209 12.208,-12.209Z" style="fill:#e5383d;fill-rule:nonzero;"/><path d="M347.125,212.958c6.458,0 11.75,5.292 11.75,11.75l0,0.959c0,6.458 -5.292,11.75 -11.75,11.75c-6.458,-0 -11.75,-5.292 -11.75,-11.75l0,-0.959c0,-6.458 5.292,-11.75 11.75,-11.75Z" style="fill:#e5383d;fill-rule:nonzero;"/><path d="M95.292,212.958l17.375,0c6.708,0 12.208,5.5 12.208,12.209c0,6.708 -5.5,12.208 -12.208,12.208l-17.375,0c-6.709,0 -12.209,-5.5 -12.209,-12.208c0,-6.709 5.5,-12.209 12.209,-12.209Z" style="fill:#e5383d;fill-rule:nonzero;"/><g><path d="M346.625,261.292l-156.75,-0c-6.708,-0 -12.208,5.5 -12.208,12.208c-0,6.708 5.5,12.208 12.208,12.208l156.75,0c6.708,0 12.208,-5.5 12.208,-12.208c0,-6.708 -5.5,-12.208 -12.208,-12.208Z" style="fill:#8e4199;fill-rule:nonzero;"/><path d="M151.167,261.292c-6.459,-0 -11.75,5.291 -11.75,11.75l-0,0.958c-0,6.458 5.291,11.75 11.75,11.75c6.458,-0 11.75,-5.292 11.75,-11.75l-0,-0.958c-0,-6.459 -5.292,-11.75 -11.75,-11.75Z" style="fill:#8e4199;fill-rule:nonzero;"/><path d="M112.667,261.292l-17.375,-0c-6.709,-0 -12.209,5.5 -12.209,12.208c0,6.708 5.5,12.208 12.209,12.208l17.375,0c6.708,0 12.208,-5.5 12.208,-12.208c0,-6.708 -5.5,-12.208 -12.208,-12.208Z" style="fill:#8e4199;fill-rule:nonzero;"/></g><path d="M296.417,309.625l-156.75,0c-6.709,0 -12.209,5.5 -12.209,12.208c0,6.709 5.5,12.209 12.209,12.209l156.75,-0c6.708,-0 12.208,-5.5 12.208,-12.209c0,-6.708 -5.5,-12.208 -12.208,-12.208Z" style="fill:#009fdb;fill-rule:nonzero;"/><path d="M94.833,309.625c-6.458,0 -11.75,5.292 -11.75,11.75l0,0.958c0,6.459 5.292,11.75 11.75,11.75c6.459,0 11.75,-5.291 11.75,-11.75l0,-0.958c0,-6.458 -5.291,-11.75 -11.75,-11.75Z" style="fill:#009fdb;fill-rule:nonzero;"/><path d="M346.625,309.625l-17.375,0c-6.708,0 -12.208,5.5 -12.208,12.208c-0,6.709 5.5,12.209 12.208,12.209l17.375,-0c6.708,-0 12.208,-5.5 12.208,-12.209c0,-6.708 -5.5,-12.208 -12.208,-12.208Z" style="fill:#009fdb;fill-rule:nonzero;"/></svg>