<?xml version="1.0" encoding="UTF-8" standalone="no"?>
<svg
   width="58.970272"
   height="58.970272"
   viewBox="0 0 58.970272 58.970272"
   fill="none"
   version="1.1"
   id="svg880"
   sodipodi:docname="gather-town.svg"
   inkscape:version="1.1.1 (1:1.1+202109281949+c3084ef5ed)"
   xmlns:inkscape="http://www.inkscape.org/namespaces/inkscape"
   xmlns:sodipodi="http://sodipodi.sourceforge.net/DTD/sodipodi-0.dtd"
   xmlns="http://www.w3.org/2000/svg"
   xmlns:svg="http://www.w3.org/2000/svg">
  <defs
     id="defs884" />
  <sodipodi:namedview
     id="namedview882"
     pagecolor="#ffffff"
     bordercolor="#666666"
     borderopacity="1.0"
     inkscape:pageshadow="2"
     inkscape:pageopacity="0.0"
     inkscape:pagecheckerboard="0"
     showgrid="false"
     fit-margin-top="0"
     fit-margin-left="0"
     fit-margin-right="0"
     fit-margin-bottom="0"
     inkscape:zoom="3.1070751"
     inkscape:cx="6.919691"
     inkscape:cy="56.48399"
     inkscape:window-width="1920"
     inkscape:window-height="1016"
     inkscape:window-x="0"
     inkscape:window-y="27"
     inkscape:window-maximized="1"
     inkscape:current-layer="svg880" />
  <rect
     style="fill:#4358d8;fill-opacity:1;stroke-width:6.67434;stroke-linecap:round;paint-order:stroke markers fill;stop-color:#000000"
     id="rect1276"
     width="58.970272"
     height="58.970272"
     x="0"
     y="0"
     ry="2.0822809" />
  <path
     fill-rule="evenodd"
     clip-rule="evenodd"
     d="m 19.133574,11.268859 c -0.32834,-0.5687 -0.13349,-1.2958866 0.43521,-1.6242236 0.5687,-0.328337 1.29589,-0.1334869 1.62422,0.4352096 l 2.52498,4.373384 c 0.03284,0.0059 0.06571,0.01324 0.09852,0.02204 l 5.810359,1.55725 c 0.6343,0.17001 1.0108,0.82207 0.8408,1.45642 -0.1699,0.63435 -0.8219,1.01077 -1.4562,0.84076 l -5.246069,-1.40603 -1.40431,5.242271 c -0.16993,0.6343 -0.82191,1.0108 -1.45624,0.8407 -0.63432,-0.17 -1.01079,-0.822 -0.84086,-1.4564 l 1.55653,-5.810481 c 0.0096,-0.03598 0.02083,-0.07113 0.03348,-0.1054 z M 31.449163,30.24414 c 2.2915,-1.323 3.0765,-4.2534 1.7533,-6.5452 -1.3232,-2.2918 -4.2534,-3.0771 -6.5449,-1.7541 -2.2916,1.323 -3.076549,4.2533 -1.7534,6.5451 1.3232,2.2918 4.2535,3.0772 6.545,1.7542 z m -1.2392,-2.1002 c 1.1338,-0.6545 1.5221,-2.1043 0.8675,-3.2382 -0.6546,-1.1338 -2.1044,-1.5224 -3.2381,-0.8678 -1.1337,0.6545 -1.5221,2.1043 -0.8674,3.2381 0.6546,1.1339 2.1043,1.5225 3.238,0.8679 z m -6.965279,1.3252 c 1.323179,2.2918 0.53817,5.2222 -1.75334,6.5452 -2.29151,1.323 -5.22179,0.5376 -6.544956,-1.7542 -1.323169,-2.2918 -0.538173,-5.2221 1.753336,-6.5451 2.29151,-1.323 5.22179,-0.5377 6.54496,1.7541 z m -2.14363,1.1656 c 0.65463,1.1339 0.26626,2.5837 -0.86746,3.2382 -1.13371,0.6546 -2.58345,0.266 -3.23808,-0.8678 -0.65463,-1.1339 -0.26626,-2.5837 0.86745,-3.2382 1.13372,-0.6546 2.58346,-0.266 3.23809,0.8678 z m 11.175209,11.8131 c 2.2915,-1.323 3.0765,-4.2534 1.7533,-6.5452 -1.3231,-2.2918 -4.2534,-3.0772 -6.5449,-1.7542 -2.2915,1.323 -3.0765,4.2534 -1.7534,6.5452 1.3232,2.2918 4.2535,3.0772 6.545,1.7542 z m -1.2761,-2.1544 c 1.1338,-0.6546 1.5221,-2.1044 0.8675,-3.2382 -0.6546,-1.1339 -2.1044,-1.5224 -3.2381,-0.8679 -1.1337,0.6546 -1.5221,2.1044 -0.8674,3.2382 0.6546,1.1339 2.1043,1.5224 3.238,0.8679 z m 13.0209,2.0039 c 1.3231,2.2918 0.5381,5.2222 -1.7534,6.5452 -2.2915,1.323 -5.2218,0.5376 -6.5449,-1.7542 -1.3232,-2.2918 -0.5382,-5.2221 1.7533,-6.5451 2.2915,-1.323 5.2218,-0.5377 6.545,1.7541 z m -2.1276,1.1916 c 0.6546,1.1338 0.2663,2.5836 -0.8675,3.2382 -1.1337,0.6545 -2.5834,0.266 -3.238,-0.8679 -0.6547,-1.1338 -0.2663,-2.5836 0.8674,-3.2382 1.1337,-0.6545 2.5835,-0.266 3.2381,0.8679 z m 0.3771,-6.8114 c 2.2915,-1.323 3.0765,-4.2533 1.7533,-6.5451 -1.3231,-2.2918 -4.2534,-3.0772 -6.5449,-1.7542 -2.2915,1.323 -3.0765,4.2534 -1.7534,6.5452 1.3232,2.2918 4.2535,3.0772 6.545,1.7541 z m -1.1952,-2.1131 c 1.1337,-0.6546 1.5221,-2.1044 0.8675,-3.2382 -0.6546,-1.1339 -2.1044,-1.5224 -3.2381,-0.8679 -1.1337,0.6546 -1.5221,2.1043 -0.8675,3.2382 0.6547,1.1339 2.1044,1.5224 3.2381,0.8679 z m 2.1214,-16.635701 c 1.3232,2.291801 0.5382,5.222201 -1.7533,6.545201 -2.2915,1.323 -5.2218,0.5376 -6.545,-1.7542 -1.3232,-2.2918 -0.5382,-5.222151 1.7534,-6.545151 2.2915,-1.32301 5.2217,-0.53765 6.5449,1.75415 z m -2.1429,1.14921 c 0.6546,1.133891 0.2663,2.583691 -0.8675,3.238191 -1.1337,0.6546 -2.5834,0.266 -3.238,-0.8679 -0.6547,-1.1338 -0.2663,-2.583601 0.8674,-3.238151 1.1337,-0.65455 2.5835,-0.26599 3.2381,0.86786 z"
     fill="#111111"
     id="path878"
     sodipodi:nodetypes="cscccccccccccccssccsccccccsssccccccscscsccccccscsccccccccscccccccssscscccsc"
     style="fill:#ffffff" />
</svg>
